<svg id="Layer_1" enable-background="new 0 0 135 135" height="512" viewBox="0 0 135 135" width="512" xmlns="http://www.w3.org/2000/svg"><g><path d="m20.8 89.8c1.9 5.8 4.7 11.2 5.5 16.5.1.7.2 1.3.2 2v.6 1.1c0 .7 0 1.4-.1 2.1v1l1-.1c.7-.1 1.4-.2 2-.3l1-.1.5-.1c12.4-2.4 22-9.2 30.1-18.9 1.5-1.9 2.9-3.7 4.1-5.6.4 1 .8 2 1.1 3 1.6 4.7 2.6 9.3 3.2 12.8 1.1 6.5 1.1 11.5 1 15.3 0 .9-.1 1.8-.1 2.6-.1.8-.1 1.5-.2 2.2-.1 1.3-.1 2.4-.2 3.3-.3 3.5.2 3.7.7 3.9.5.1 1.1.1 2.1-3.3.3-.9.5-2 .8-3.3.1-.7.3-1.4.4-2.3.1-.8.2-1.7.3-2.7.3-4 .5-9.3-.7-16.2-.3-1.6-.7-3.5-1.2-5.4 0-.7 0-1.6.1-2.7.2-2.5.9-5.8 1.8-9.6 1.8-7.4 3.8-14.4 7-21.2.4-.9.9-1.8 1.3-2.6.6.1 1.2.3 1.7.4 4.2.8 8.4.5 12.1-1 7.8-3.1 7.7-9.2 9-12 .4-1 1.2-1.9 2-2.7 1.6-1.6 3.8-2.9 5.5-4.8 3.4-3.6 4.2-7.9 1.4-12.6-2.4-4-6.4-9.3-10.8-11.2-.6-.2-.9-.3-1.1-.2 1.5-4.6 2.3-10.5-2-12.8-4.8-2.7-7.7 2.6-8.9 8.3-.2-.1-.4-.1-.7-.2-19.2-4.4-37.5 2.5-41.7 8.3-.1.2-.3.4-.4.7s-.2.5-.3.8c-.2.6-.2 1.3 0 1.9.3 1.3 1.3 2.1 1.8 2.6 2.3 2.1 4.8 3.8 6.7 5.9 8.5 9.1 4.7 19.6 20.3 26.6.5.2.9.4 1.4.6-4 7.3-6.1 16.4-7.3 24.6-.4 2.6-.7 5.1-.7 7.3-.3-.8-.6-1.7-.9-2.5-.7-1.9-1.5-3.8-2.4-5.6 7.4-14.4 2-27.3-8-30.8-2.1-.7-3.8-.8-5.1-.7-.5 0-.9.1-1.2.2-.6-4.2-2.4-8.1-4.9-11.2-1.4-1.7-2.4-2.4-2.9-2.7-.6-.3-.8-.1-1 .1s-.4.4-.2 1 .7 1.5 1.7 3.2c3.6 6.4 4.1 13.1 3 14.9 0 .4-1.7 1.7-2.3-5.1-.4-13.1-16.6-16.5-18.8-18.3-.4-.3-.7-.7-.9-1.1s-.2-.8-.1-1.1c.2-.4.4-.9.7-1.1 3.3-3 16.5 8.3 17.1 7.7.7-.6-10.4-11.2-16.1-11-.9 0-1.9.3-2.8.9s-1.4 1.4-1.8 2.4c-.5 1.1-.4 2.3 0 3.3s1 1.8 1.7 2.5c2.7 2.4 14.6 4.9 16.8 14.2.1.5.2.9.3 1.4-.4 0-.8 0-1.2.1-3.8.3-8.3 1.7-12.4 4.9-8.1 6.1-12.6 18.7-8 31.9zm74.6-74.9c0-.3.1-.5.2-.8 1.8-8.3 4.9-6.3 4.6-1.2-.2 2.6-.8 5.6-.7 7.1 0 .2 0 .3.1.5.1.6.3.7.6.7-.1 0-.1.1-.2.3-.1.3-.3.7-.4 1.2-.1.2-.3 1.1-.3 1.2-2.4 10.1.9 17.5-.9 20.3-.1.1-.1.1-.2.2s-.3.1-.4-.1c-1.7-2-2.8-12.5-2.8-17.8 0-2.7 0-5.1.1-7.2.1-1.4.2-2.8.4-4.1-.2 0-.2-.2-.1-.3zm-16.4 41.1c-14.1-6.4-9.9-15.8-19.4-25.4-2.2-2.3-4.8-4.1-7-6l-.4-.4c-.1-.1-.2-.2-.3-.3s-.1-.1-.2-.2c0-.1-.1-.1-.1-.1 0-.1-.1-.4.2-.8 2.6-3.8 18.2-11.8 38.8-8.5.2 0 .5.1.7.1 0 .1 0 .2-.1.3-.3 1.4-.4 2.9-.5 4.5-.1 1.8-.1 3.8-.1 5.9.1 2.1.2 4.4.4 6.8v.1c.4 3.8 1.5 9.3 2.9 12.6 1.5 3.5 3.6 4 5.5 2.7 4.6-3.2.7-9.7.7-20 0-3.5.2-5.7 0-6.1.3 0 .5 0 .8-.4s.6-1.1 1.1-2.4c.1.2.3.4.5.7s4.9 4.3 8.7 11.6c1.5 2.8 1.6 5.5-1.2 8.3-13.5 14.2-8.7 15.7-15.3 18.4-2.8 1.1-6.3 1.5-9.8.8-.1 0-.3-.1-.4-.1-1.3-.3-2.6-.7-4-1.2-.3-.4-.9-.6-1.5-.9zm-48.8 3.6c3.5-3 7.7-4.6 11.2-5.1.4-.1.8-.1 1.2-.1v.2c.4 6.1 3.2 8.3 6.3 8 1.6-.1 2.9-1.2 3.4-2.3 1.2-2.1 1-3.8 1-5.3 0-.1 0-.1 0-.1.3 0 .7 0 1.1.1 10.3 1.2 16 12.3 10.8 24.8-.5 1.2-1.1 2.4-1.8 3.7-1.4 2.5-3.2 5-5.3 7.6s-4.6 5.1-7.4 7.6c-5.5 4.7-11.8 8.3-18.9 9.9l-1 .2-.2.1s-.1.1-.1 0v-.1-.5c0-.8-.2-1.6-.3-2.3-1.1-6.2-4.1-11.6-6-17.1-4.6-11.8-1.1-23.3 6-29.3z"/><path d="m81.6 29.9c1.8.9 3 1.7 4 2.3s1.6 1 2.2 1.2c1 .4 1.4.1 1.8-.3s.7-.8.1-1.8c-.3-.5-.9-1.2-1.8-2.1-7.8-6.7-19.5-5.6-19.3-4.2-.1.9 3.8.4 13 4.9z"/><path d="m88.4 39.9c.5-.2 1-.3 1.1-.6s-.3-.7-1-1c-.8-.3-1.9-.3-2.9-.2-3.3.2-6.4 1.6-8.5 5.3-.4.7-.6 1.3-.7 1.7-.1.8.3 1.1.8 1.4s.9.6 1.6.2c.3-.2.8-.5 1.3-1.1 2.9-2.9 2.9-3.5 8.3-5.7z"/><path d="m86.9 22c1 1 2.1 1.4 2.6 1.1.4-.4.2-1.5-.1-2.7s-.7-2.5-1-3.3c-.6-1.5-.9-2.2-1.4-2.5s-1-.3-1.5-.1c-.6.1-1.1.2-1.3.8s-.3 1.6.4 3.4c.3 1 1.2 2.4 2.3 3.3z"/><path d="m28.7 76.5c.6.1 1.1.1 1.6-.7.1-.2.3-.4.5-.8 5.3-10.2 16.1-18.6 5.4-12.7-5.4 2.9-8.4 8.3-8.6 11.8-.1.4-.1.8 0 1 .1 1.2.6 1.3 1.1 1.4z"/><path d="m35.3 77.1c-.6 2.5-1 4.8-1.2 6.5-1.7 12.9-.9 13.3.3 13.4 1.1.1 2 0 3.8-12.9.9-6.4 1.3-12.5 5.4-18 .9-1.2 1.5-1.9 1.4-2.2-.1-.2-1.1.1-2.5 1-3.8 2.8-6 7.7-7.2 12.2z"/><path d="m48 86.2c.5.2 1 .4 1.8-.5.4-.5.8-1.2 1.3-2.4 1.5-3.8 2.1-9 .9-14.2-.7-3.1-1.9-5.3-2.4-5.2-.6.2-.4 2.6-.4 5.5-.1 3.7-.4 7-1.7 12.8-.2 1.1-.4 1.9-.4 2.4-.1 1.1.4 1.3.9 1.6z"/></g></svg>