<svg id="Layer_1" enable-background="new 0 0 135 135" height="512" viewBox="0 0 135 135" width="512" xmlns="http://www.w3.org/2000/svg"><g><path d="m103.3 46.1c-5.5-8.1-13.2-16.8-24.5-24-12.7-8.1-22.9-10.2-56.3-19.7l-.2-.1-.4-.1c-3.3-.8-6.4 3-4.7 6 .1.1.2.3.2.4l.1.2c.4.6.7 1.1 1.1 1.7 1.4 2.3 2.8 4.6 3.9 7.1 10.3 22 4.5 39.4 1.6 52.8-.7 3.2-1.3 6.4-1.6 9.7-.4 3.3-.4 6.7-.1 10 .5 6.7 2.7 13.1 5.9 18.8 3.4 5.6 7.9 10.5 13 14.1 16.9 12.3 43.7 13.4 60.2 1.4 3.3-2.4 5.9-5 7.9-7.6 1.9-2.6 3.3-5 4.2-7.1.5-1 .8-2 1.1-2.8s.5-1.5.6-2.1c.3-1.2.4-1.8.3-1.8s-.3.6-.7 1.7c-.2.6-.4 1.2-.8 2-.3.8-.7 1.7-1.2 2.7-1.9 3.9-5.7 9.4-12.2 13.8-2.9 2-6.4 3.7-10.3 5 .2-.3.1-2.4-.4-5.6-.5-3.5-1.5-8.2-3-13.3s-3.6-10.6-5.9-15.7-4.9-9.6-7-13.1c-4.5-7.3-8.9-12.9-13.7-17.9-1-1.1-1.9-1.9-2.6-2.5-2.9-2.5-3.4-2.3-3.8-1.9s-.7.9 1.7 3.9c.6.7 1.3 1.7 2.2 2.8 5.8 7.2 9.5 12.5 12.8 17.8 2 3.4 4.7 7.7 7.1 12.5s4.7 10.1 6.5 15 3.2 9.5 4.2 12.8c.9 3.2 1.5 5.2 1.8 5.3-16.2 5.3-35.1 1.6-47.3-7.4-4.8-3.5-8.9-8-12-13.3-3-5.3-4.9-11.3-5.3-17.5-.5-6.2.5-12.4 1.9-18.7 2.9-13 9.4-31.7-1.5-55.3-1.2-2.7-2.6-5.2-4.1-7.6-.4-.6-.8-1.2-1.1-1.7l-.2-.3s.1-.1.1-.1h.2.1.1l.2.1c32.8 9.4 42.9 11.4 55.3 19.2 10.7 6.8 18.1 15.1 23.5 22.7 9.1 12.9 16 30.5 15.6 46.8-.1 2.5-.3 4.2-.4 5.3-.3 2.3-.1 2.6.2 2.6.3.1.6 0 1.3-2.3.3-1.2.8-2.9 1.1-5.5 1.9-16.4-5.5-35.8-14.7-49.2z"/><path d="m46.7 88.6c-.7.2-1.2.3-1.6.5-1.6.6-1.6 1.2-1.5 1.7s.3 1 1.9 1.1h1.6c7.7-.1 13.9-.2 22.7 1.9 4.4 1.1 8 2.4 8.3 1.9s-2.9-2.8-7.4-4.7c-8.5-3.4-18-3.8-24-2.4z"/><path d="m98.3 68.1c-.9.4-2.2 1.2-3.8 2.7-6.1 5.8-8.7 13.8-9.5 22.2-.5 5.3-.3 9.5.3 9.5.6.1 1.4-4.1 2.6-9.1 3-12.5 6.2-16.6 12.1-23.1 1.2-1.3 1.1-1.8.7-2.2-.2-.4-.5-.8-2.4 0z"/><path d="m71.1 43c-.7-1.3-1.2-1.3-1.7-1.1-.5.1-1 .3-1.1 1.8-.1 2 1.5 11.6 2.3 20.8.3 3.9.5 7.1 1.1 7.2.5.1 1.4-3.1 1.8-7.1.9-9.2-.7-18.3-2.4-21.6z"/></g></svg>