<svg id="Layer_1" enable-background="new 0 0 135 135" height="512" viewBox="0 0 135 135" width="512" xmlns="http://www.w3.org/2000/svg"><g><path d="m131.9 92.9c-1.2-1.9-2.9-3.1-4.4-3.8-1.4-.7-2.7-.8-3.5-.8.5-.2 2-1.4 3.9-3.7 1.1-1.4 2.2-3.1 3-5.3 5.5-14.8-13.3-31-38.2.6-2.5 3.2-4 5.6-4.8 7.3-1.4 2.8-1.4 3.5-1.1 3.9-1.2.5-2.4.8-3.3 1.1-2.6.7-4.6.8-6.2.8-.8 0-1.5 0-2.1 0 .1-.6.2-1.3.4-1.9 2.4-10.7 7.7-24.2 12.8-32.7.1-.1.2-.3.2-.4-.1 0-.1-.1-.2-.1.6.1 1.7.1 3.8-.1 2.1-.3 5.2-.9 9.6-2.3 10-3.2 25-10.1 29.3-19.7 4.9-10.9-2.4-20.2-13.3-20.3-2.7 0-5 .5-6.9 1.1-3.7 1.2-5.7 2.5-5.6 2.7.1.3 2.4-.5 6-1.2 1.8-.3 4-.5 6.4-.3 8.7.8 14.2 7.9 10 16.4-4 8.1-18.7 14.6-27.1 17.7-4.2 1.5-7.1 2.4-9.1 3-3.9 1.2-4 1.7-3.9 2.3 0 .2.1.3.3.5-.3-.1-.7-.3-1-.5.1-.1.1-.2.2-.3.1-.3.2-.6.3-1.2s.1-1.3.1-2.3c.1-7.8-4.1-20.6-4-28.5 0-5.7 1.1-12.9 5.8-16.2 1.9-1.3 4.4-1.8 6.7-1.5s4.3 1.4 5.7 2.9 2.2 3.3 2.5 4.9c.7 3.2-.1 5.3.2 5.4.1 0 .5-.4.8-1.3s.7-2.4.5-4.3c-.1-1.8-.8-4.1-2.3-6.1-1.5-2.1-4-3.8-6.9-4.3-2.9-.6-6.2-.2-9 1.5-14.5 8.8-5.1 35.8-2.9 47.8.2.9.3 1.6.5 2.1 0 .2.1.3.1.4s-.1.1-.1.2c-5.2 7.8-10.9 21.3-13.3 33.9-.2 1.1-.4 2.2-.6 3.3-.1-.9-.2-1.9-.4-2.8-1.8-11.2-7.3-21.8-17.1-27.7.2-.6.4-1.7.5-3.6.1-2.1 0-5.3-.7-9.9s-1.9-10.7-4.8-18.3c-.8-2.1-1.8-4.5-3.4-7-1.5-2.5-3.6-5-6.4-6.9-2.8-1.8-6.2-3.1-9.7-2.8-1.8.1-3.5.6-5 1.4s-2.8 1.9-3.8 3.1c-2.1 2.4-3.2 5.3-3.7 7.9s-.4 5-.1 6.9c.5 3.9 1.5 6.1 1.7 6 .3-.1-.1-2.4-.1-6.1 0-1.9.1-4 .7-6.3s1.8-4.6 3.6-6.5 4.3-3.1 6.9-3.1 5.3 1 7.4 2.5 3.8 3.7 5.1 5.8c1.3 2.2 2.2 4.4 3 6.4 2.8 7.3 4 13.1 4.9 17.5.8 4.4 1.2 7.4 1.5 9.4s.5 3 .8 3.6c-.2.2-.3.5-.5.7-.1 0-.1 0-.2-.1-.5-.2-1.3-.4-2.2-.5-1.9-.4-4.8-.6-9-.5-2.1 0-4.5.1-7.3.2-9.2.2-23.5-.4-27.4-9-1-2.1-1-4.7-.3-6.9s2.1-4 3.9-5.1c1.7-1.1 3.6-1.6 5.3-1.6 3.3-.2 5.2 1 5.3.7.1-.1-.3-.5-1.2-1.1-.9-.5-2.3-1.1-4.1-1.3s-4.1.1-6.4 1.2-4.4 3.3-5.4 6.1c-1.1 2.8-1.3 6.1-.1 9.1 4 10.8 19.2 12.4 30.5 12 2.8-.1 5.2-.3 7.3-.4 4.1-.2 6.8-.3 8.7-.3.9 0 1.6-.1 2.2-.1h.2c8.8 6 13.9 15 16.7 25.2 1.1 3.9 1.8 7.5 2.3 9.9-.9 9.8-.4 15.8.7 23.5.7 3.9 1.4 6.3 1.6 6.2.3 0 .2-2.5 0-6.4-.2-9.2-.2-16.7 1.9-28.4.7.2 1.5.4 2.6.5 1.8.2 4.2.2 7.3-.6 1.2-.3 2.6-.8 4-1.5.1.1.3.2.5.3 1.4.9 3.4 2.1 6.4 4.2 1.5 1 3.2 2.2 5.3 3.6 8.6 5.5 20.6 11.1 28.7 4.7 2.3-1.8 3.7-4.5 4-7.1.4-2.9-.3-5.5-1.5-7.4zm-1.4 6.6c-.4 1.9-1.6 3.8-3.3 4.9-6.6 4.7-17.7-1.2-24.5-5.4-2.1-1.3-3.9-2.4-5.5-3.4-3.2-1.9-5.5-3-7.1-3.6-1.1-.4-1.9-.6-2.5-.6 0-.1 0-.2 0-.4.5-.2 1.2-.8 2.5-2.5 1.1-1.4 2.8-3.5 5.3-6.5 24.3-27.8 36.2-15.1 33.2-3.7-.5 2-1.4 3.7-2.2 5.1-1.6 2.7-2.9 4.4-2.7 4.6-.9 0-1.4.2-1.4.3 0 .3 2 .3 4.3 1.9 1.2.8 2.4 2 3.2 3.6.9 1.8 1.2 3.8.7 5.7z"/></g></svg>