<svg id="Layer_1" enable-background="new 0 0 135 135" height="512" viewBox="0 0 135 135" width="512" xmlns="http://www.w3.org/2000/svg"><g><path d="m132.4 72.6c-1.1-3.5-3-6.1-4.9-8s-3.9-3-5.6-3.7c-1.5-.7-2.9-1-4-1.2.8-.6 1.5-1.3 2.2-2.1 1-1.1 2.1-2.5 2.8-4.3.4-.9.6-1.9.6-3.1.1-3.8-2.4-6.5-3.4-9.2-.3-.9-.4-1.7-.3-2.7.2-1 .6-2.2 1-3.6s.7-3.2.3-4.9-1.2-3.2-2.2-4.4c-2.1-2.4-5-3.9-7.9-4.2-2.8-.3-5.4 0-7.7.6s-4.3 1.5-5.7 2.6c-.4.3-.8.6-1.2 1 .1-.6.3-1.3.4-2 .3-1.8.3-4.1-.2-6.6s-1.6-5.4-3.9-8c-1.3-1.4-3.1-2.8-5.3-3.6s-4.9-1.1-7.5-.3c-.6.2-1.3.4-1.9.7-1 .5-1.9 1.1-2.6 1.3-1.3.3-2.9-.1-4.7-.2-1.3-.1-2.6.1-3.8.5-2.4.8-4.2 2.2-5.6 3.6-1.4 1.5-2.4 2.9-3.1 4.2-.1.1-.1.3-.2.4-.2-.6-.5-1.2-.8-1.9-.9-1.8-2.2-3.9-4.5-5.8-1.3-.9-2.7-1.7-4.4-2.2-1.6-.4-3.3-.6-5.1-.5-1.9 0-3.9.2-6.2.5-3.1.4-6.2 1.1-9 2.5-.6.3-1.2.5-1.9 1-.3.2-.7.5-1.1.9-.3.4-.7.9-.8 1.4-.3 1-.3 1.8-.3 2.4 0 .9-.1 1.5-.7 2.9-.5 1-1.1 2.1-1.6 3.5-.9 2.6-.6 5.2-.1 7.3.6 2.1 1.5 3.8 2.2 5.2.8 1.4 1.6 2.5 2.1 3.2-.1 0-.1-.1-.2-.1-1.4-.5-3.2-.8-5.3-.9s-4.7.2-7.4 1.1c-2.7 1-5.7 2.6-8.4 5.3-.4.4-.7.8-1.1 1.2s-.7.9-1.1 1.6c-.4.6-.7 1.6-.7 2.6s.4 2 .9 2.7c1 1.4 2.1 2.1 3 2.9.5.4.9.7 1.2 1.1.3.3.5.7.7 1.1.3.8.5 1.9.4 3.1 0 1.2-.2 2.5-.3 3.9s-.1 2.9.2 4.4 1 2.9 1.8 4 1.8 2.1 2.8 2.9 2.1 1.4 3.1 1.9c2.8 1.5 5.8 2.8 7.7 3.6-1 .7-1.9 1.6-2.8 2.8-1.1 1.3-2 3.1-2.6 5.1s-.7 4.2-.6 6.3c.2 4.3 1.6 8.6 2.8 12.2 1.2 3.7 2 7 2.1 9.4.2 1.9.1 3.3.2 3.8 0 .4.1 1 .3 1.6l.4.9.6-.9c.5-.7 1-1.7 1.5-2.7s1.1-2.2 2-3.1c1.6-1.8 4.8-2 7.9-1.3 3.2.6 6.6 2.1 10.5 2.2 1.9 0 3.9-.4 5.5-1.1s3-1.7 4-2.6c.8-.8 1.5-1.6 2.1-2.4.4 2.1 1.2 4.4 2.6 6.5 2.4 3.6 6 6.4 10.1 7.5 1.5.4 2.9.6 4.1.8 1.3.2 2.4.4 3.2.9.9.5 1.7 1.1 2.5 1.9s1.5 1.7 2.3 2.6c.4.5.8 1 1.5 1.5.6.5 1.8 1.1 2.8 1 .5 0 .9-.1 1.4-.3.4-.2.8-.4 1.1-.7.6-.5 1-.9 1.3-1.4s.6-.9.8-1.3.5-.8.7-1.2c.4-.8.8-1.6 1.2-2.3.7-1.5 1.3-3 1.9-4.4 1-2.8 1.7-5.2 2.2-7.3.9-4.3 1.1-7.2 1.1-9.2 0-1.1-.1-1.9-.2-2.5 1.1.5 2.2 1 3.4 1.3 1.6.4 3.3.8 5 .8 1.7.1 3.5-.1 5.3-.5 1.7-.5 3.6-1.2 5.1-2.9.4-.4.7-1 .9-1.4 1.3-2.7 1.3-5.7 2.4-8 .5-1.1 1.2-1.9 2.2-2.6 2.1-1.4 4.9-2 7.3-2.4.3-.1.4-.1 1-.2 1-.2 1.9-.8 2.4-1.7.5-.8.5-2.1.5-2.4 0-.5 0-1.1 0-1.6.2-2.6-.1-4.5-.7-6.3zm-34.1-46.9c1.4-.7 3.3-1.4 5.4-1.7s4.5-.4 6.8 0c2.2.4 4.4 1.7 5.8 3.5.7.9 1.1 1.9 1.3 2.9s0 2-.4 3.2-.9 2.4-1.2 4c-.3 1.5-.2 3.3.3 4.7s1.1 2.5 1.6 3.5.9 1.8 1.2 2.6c.5 1.4.4 2.4 0 3.5s-1.2 2.2-2 3.1c-1.6 1.8-3.4 3.1-5 4-3.3 1.7-5.9 2-7.6 2.3-1.2.1-2 .2-2.5.3 0-.1 0-.2.1-.3.5-3.5.5-7.1 0-10.5s-1.5-6.6-2.9-9.6c-.6-1.5-1.5-2.9-2.3-4.2-1.1-1.6-2.3-3.1-3.6-4.5.3-.4.6-.9 1-1.7s.9-1.8 1.3-3.1c.7-.7 1.6-1.4 2.7-2zm-38.9-9.8c.9-1.1 2-2.3 3.3-3.4s3-2.1 4.8-2.5c.9-.2 1.8-.3 2.8-.2 1.6.2 3.5.8 5.5.5.8-.1 1.5-.4 2.1-.7.5-.2 1-.5 1.5-.7.4-.2.8-.3 1.3-.4 1.7-.4 3.6-.2 5.1.5 1.6.6 2.8 1.6 3.7 2.6 1.7 1.9 2.6 4.1 3 6.1s.5 3.8.3 5.4c-.3 3.1-.9 5.3-1.3 6.7-.1.3-.2.6-.2.8-4.1-3.8-9.2-6.6-16.4-7.7-4.2-.6-8.2-.4-11.8.3-1.5.3-2.8.7-4.2 1.2.1-.5.1-1.4 0-2.7-.1-1.6-.4-3.1-.8-4.5.6-.5 1-.9 1.3-1.3zm-38 59.4c-1.4-.9-3-1.9-4.8-3.1-.9-.6-1.8-1.2-2.6-1.9s-1.5-1.6-2.1-2.5-1-1.9-1.1-3c-.2-1-.1-2.2.1-3.4.1-1.2.4-2.6.5-4s.1-3-.5-4.6c-.3-.8-.8-1.6-1.3-2.2-.6-.6-1.1-1.1-1.6-1.6-1-.8-1.8-1.6-2.2-2.1-.2-.3-.2-.4-.2-.5 0-.2 0-.3.2-.5.2-.3.4-.6.7-.9s.6-.7.9-1c2.2-2.2 4.6-3.6 6.8-4.4s4.3-1.1 6.1-1.2c3.6 0 6 .7 7.5 1.2 1.6.5 2.4.8 3 .9.5.1.7-.1.9-.4.2-.2.3-.5 0-.9-.3-.5-1-1.2-2.6-2.2-.6-.3-1.3-.7-2.2-1-.2-.7-.9-2.2-1.7-4.2-.5-1.4-1.2-3.1-1.4-5-.3-1.9-.3-4 .5-5.8.6-1.4 1.9-3 2.5-4.9.2-.7.4-1.6.4-2.2s.1-1.1.2-1.3c0-.1.1-.1.1-.2.1-.1.2-.2.4-.3.4-.3 1.8-.8 3-1.2 2.1-.7 4.4-1.1 6.5-1.3s4.1-.4 5.8-.4c1.5 0 2.8.1 4 .4 1.1.3 2.1.8 2.9 1.4 1.7 1.2 2.8 2.8 3.6 4.3 1.6 3 2.1 5.4 2.6 7 .4 1.6.8 2.4 1.1 2.8-1.3.5-2.6 1.1-3.8 1.8-1.4.7-2.7 1.7-3.9 2.6-1.1 1-2.3 1.9-3.2 2.9-4.8 4.9-9.4 15.2-10.4 20.2-.5 2.5-.4 4.5-.1 5.9.3 1.5.8 2.4 1.2 3 .8 1.1 1.2 1 1.4.9.3-.2.4-.4.1-1.5-.2-1.1-.9-3.3.3-7.6.8-2.8 3-8.4 6.9-13.8v.1c.2.3 1.4-.8 3.6-.5 1.1.2 2.3.6 3.4 1.5.5.5 1 1 1.4 1.6 1.3 2.2 1.5 4.9 1.5 7.4 0 .9-.1 1.9-.1 2.9 0 1.1 0 2.2.4 3.5.2.6.5 1.3.9 1.8.4.6.9 1 1.2 1.4.8.7 1.3 1.1 1.5 1.6.6.9.7 2.1.6 3.3-.1 1.1-.4 2.1-.7 3-.3 1-.7 1.9-1.2 2.7-.8 1.6-1.7 2.9-2.6 3.9-1.7 2.1-3.2 3.3-4.1 4.1-1 .8-1.5 1.3-1.7 1.7s-.1.6 0 .9.3.5.7.5 1.2-.1 2.5-.7 3.2-1.7 5.4-4c1.1-1.2 2.2-2.6 3.3-4.5.5-.9 1-2 1.5-3.2.4-1.2.8-2.5 1-4 .1-.8.1-1.8-.1-2.8s-.6-2.1-1.2-3.1c-.3-.5-.8-1-1.2-1.3-.4-.4-.8-.7-1.1-.9-.6-.5-.9-.8-1.1-1.4-.5-1.2-.3-3.2-.4-5.3s-.4-4.2-1.2-6.2c-.4-1-.9-1.9-1.5-2.7s-1.4-1.5-2.2-2c-1.6-1-3.3-1.3-4.7-1.3-1.4.1-2.4.6-3 1.1 1.6-2.1 3.4-4.2 5.5-6 1.1-.7 2.2-1.5 3.4-2.2 2.5-1.3 5.3-2.4 8.6-3.1 10.5-2.3 21.4.7 29.4 11.7.7 1.2 1.4 2.4 2 3.7 1.2 2.6 2.1 5.5 2.6 8.5s.5 6.2.1 9.4c-1.9 13.8-13.1 23.3-25.8 25.8-11 2.3-22.2-1.5-29-10.1-1.3-1.6-2.2-3.3-2.9-4.8-.6-1.5-1.1-2.9-1.3-4.1-.1-.6-.2-1.1-.3-1.5 0-.5-.1-.8-.1-1.2-.1-.6-.1-1-.2-1s-.1.3-.2 1c0 .3-.1.7-.1 1.2s.1 1 .1 1.6c.1 1.2.4 2.7 1 4.4.2.4.3.9.5 1.3-.3-.1-.7-.2-1.2-.3-1.5-.3-3.9-.5-7.2.5-1.6.5-3.3 1.2-5.3 2.2-.8.4-1.6.9-2.4 1.4-.5-.4-1.4-1-2.5-1.7zm30.8 32c-1.6 1.5-3.9 2.8-6.7 2.9-2.9.1-6.3-1-9.9-1.5-1.8-.2-3.8-.3-5.6.2-1.8.4-3.6 1.4-4.6 2.8-1.2 1.7-1.6 3.3-2.4 5.7 0-.1-.1-.2-.1-.3.3-.7.6-1.8.8-3.4.3-2.7-.1-6.3-.9-10.2-.4-1.9-.9-3.9-1.2-5.8-.4-2-.6-3.9-.6-5.8s.2-3.6.7-5.1 1.2-2.7 1.9-3.7c1.4-1.8 3.2-3 4.9-3.9s3.3-1.7 4.6-2.2c2.6-1 4.4-1.1 5.7-1.2s2-.1 2.4-.3c0 0 .1 0 .1-.1.3.6.7 1.2 1.1 1.7 3.8 5.4 9.5 9.4 16.1 11.3-.1.4-.3 1.1-.4 2.1-.2 1.4-.3 3.6-.8 6.5-.6 3-1.5 7-5.1 10.3zm77-27.1c-.4.1-.9.2-1.3.2-1.2.2-2.5.5-3.9 1-1.4.4-2.9 1.1-4.3 2.1s-2.7 2.5-3.4 4.3c-1.2 2.8-1.2 5.8-2.1 8.1-.1.3-.2.4-.4.6-.6.8-1.9 1.5-3.3 1.9s-2.9.7-4.4.7c-1.5.1-2.9-.1-4.3-.4-2.8-.6-5.4-1.9-7.5-3.3s-3.9-3-5.3-4.4c-2.8-2.8-4.4-4.8-4.6-4.6-.2.1.9 2.5 3.4 5.7 1.3 1.6 3 3.4 5.2 5.2.8.7 1.8 1.3 2.8 1.9-.2.5-.5 1.5-.8 3.3s-.8 4.6-1.9 8.5c-.5 2-1.2 4.2-2.2 6.8-.5 1.3-1.1 2.6-1.8 4-.3.7-.7 1.4-1.1 2.1-.2.4-.4.7-.6 1.1s-.4.7-.6 1-.4.5-.5.6-.1 0-.1 0 .1.1-.2-.1c-.2-.2-.5-.5-.9-.9-.8-.9-1.6-1.8-2.6-2.8-1-.9-2.2-1.9-3.6-2.5-2.8-1.3-5.8-1-8.2-1.6-1.2-.3-2.3-.7-3.4-1.2-2.1-1.1-4-2.7-5.4-4.5-1.8-2.4-2.8-5.1-3.2-7.5.3-.6.6-1.2.8-1.8.8-2.2 1.2-4.2 1.4-5.9.3-3.4.1-5.6-.1-7-.1-.6-.2-1.1-.3-1.5 3.9.8 8.2.9 12.5.2 10.4-1.8 20.4-8.1 25.6-17.8 1.4-2.5 2.3-5.2 3-8 .6.3 1.5.5 2.9.7 2 .1 5.1.1 9.2-1.8.3-.1.6-.3.9-.4.6.1 1.3.3 2.2.6 1 .3 2.2.7 3.5 1.5 1.4.7 2.9 1.8 4.4 3.3 1.5 1.6 2.9 3.7 3.8 6.5.4 1.4.7 3 .7 4.6.1.5 0 1.9 0 1.5z"/><path d="m68 48.9c1.4-.3 2.9-1.1 4-2.2.6-.6 1.1-1.3 1.4-1.9.4-.6.6-1.2.9-1.7s.5-.9.8-1.2c.2-.3.5-.4.8-.6.6-.3 1.3-.3 2.1-.3.7 0 1.4.1 2.1.2s1.3.2 2.2.3c.8.1 1.8 0 2.7-.4s1.6-1.1 2-1.8c.8-1.3.8-2.5.7-3.4s-.4-1.5-.6-2c-.5-.9-.9-1.2-1.2-1.4-.3-.1-.6 0-.8.1-.3.1-.5.2-.6.5s-.2.8-.1 1.6c0 .8.1 1.8-.5 2.5-.1.2-.2.2-.4.2-.1 0-.4.1-.9 0-.4-.1-1.2-.2-1.9-.3-.8-.1-1.6-.2-2.6-.3-1.1 0-2.5.1-4 .9-.7.4-1.4 1-2 1.6-.5.7-.9 1.4-1.1 2s-.5 1.1-.7 1.7c-.2.5-.4.9-.7 1.3-.6.8-1.4 1.4-2.3 1.8-1.8.8-3.8.4-5.1-.3-1.3-.6-2-1.4-2.3-1.2-.2.1 0 1.2 1.3 2.5.7.6 1.6 1.2 2.8 1.6 1.1.5 2.6.6 4 .2z"/><path d="m83.9 66.7c-1.1-.5-2.2-1.3-3.4-2.2s-2.4-1.8-3.8-2.5-2.9-1.1-4.4-1-2.7.7-3.5 1.4-1.2 1.5-1.3 2.1 0 .9.1.9c.3.1.6-1.1 2.1-1.7.7-.3 1.6-.5 2.6-.4.9.1 2 .6 3 1.3s2 1.6 3.1 2.6 2.3 2.1 3.8 2.9 3.3 1.3 5 1.2 3.1-.7 4.2-1.3c2-1.2 3.4-2.7 4.3-4.2s1.4-2.8 1.8-3.9c.7-2.3.8-3.8.8-4.9 0-2.1-.5-2.2-1-2.3-.6-.1-1.1-.1-1.8 1.8-.4.9-.8 2.3-1.5 4.2-.8 1.8-1.9 4.2-4.5 5.8-.7.4-1.6.8-2.5.9-1 0-2-.2-3.1-.7z"/></g></svg>