<svg id="Layer_1" enable-background="new 0 0 135 135" height="512" viewBox="0 0 135 135" width="512" xmlns="http://www.w3.org/2000/svg"><g><path d="m113.6 31.2c-.7-.2-1.6-.5-2.9-1s-3.1-1.4-5.5-2.6c-1.2-.6-2.6-1.2-4.3-1.8-1.7-.5-3.6-.9-5.8-1-4.3-.2-9.5.8-15 3.2-2.8 1.2-5.6 2.7-8.5 4.6-6.3 3.9-12.7 9-19.6 12.2-1.9.9-4 1.6-6.1 2.2-2.2.6-4.4.9-6.7.8-2.5-.1-5.1-.7-7.4-2.1-2.2-1.5-4.2-3.7-5.3-6.6l-.5-1.2-.3-1.1c-.3-.7-.3-1.6-.5-2.3-1.4-13.6 8.3-22.2 21.4-26.2 11.5-3.6 26.7-3.5 41.5 2.5 5.8 2.4 10.6 5.3 14.4 8.2 7.6 5.7 11 10.8 11.3 10.5.1-.1-.7-1.3-2.3-3.5-.9-1-1.9-2.3-3.2-3.7-1.4-1.3-2.9-3-4.8-4.5-3.7-3.1-8.6-6.4-14.5-9-15-6.9-30.9-7.4-43.4-3.9-14.8 4.3-25.9 14.5-24.3 30.1.2.9.3 1.9.6 2.8.1.5.2.9.4 1.4.2.4.3.9.5 1.3 1.4 3.5 3.8 6.5 6.8 8.5s6.4 2.7 9.4 2.8c2.8.1 5.4-.3 7.9-.9 2.4-.6 4.7-1.5 6.8-2.5 4.2-2 7.8-4.3 11.1-6.5 3.2-2.2 6.2-4.3 9-6.1s5.4-3.3 7.9-4.4c.8-.4 1.6-.7 2.3-1-.2.2-.4.3-.5.5-2.3 2.2-5.3 6-7.5 12.6-1.1 3.2-1.9 7.2-2.4 11.7s-.7 9.6-1.4 15.1c-.4 3.1-.9 6.5-2.1 10-.6 1.7-1.4 3.5-2.4 5-1 1.6-2.3 3-3.8 4.1s-3.3 1.9-5.2 2.2-3.8.1-5.4-.6c-1.7-.8-3.1-2.1-4-3.8-1-1.7-1.6-3.6-2.1-5.5-.4-1.9-.6-3.9-.7-5.8s0-3.8-.1-5.6c0-3.7-.3-7-1.1-9.8-.3-1.3-.9-2.5-1.4-3.5-.6-1-1.1-1.8-1.7-2.4-.3-.3-.5-.5-.7-.8-.2-.2-.4-.3-.6-.5-.7-.5-.8-.4-.3.3.1.2.3.4.4.6.2.2.3.5.5.8.4.6.8 1.4 1.2 2.4s.7 2.1 1 3.4c.5 2.6.6 5.8.4 9.4-.1 1.8-.2 3.7-.3 5.7 0 4.4.5 9 2.6 12.8 1.1 2.1 3 4 5.3 5.2 1.6.8 3.4 1.2 5.1 1.3-.3 2.1-.6 5.6-.9 11.9 0 .5-.1 1-.1 1.6-.3-.7-.6-1.4-1-2.1-1.9-3.5-5.8-7.8-11.3-10.5-5.5-2.8-12.3-4-18.5-4-.8 0-1.6 0-2.3 0h-.6-.2c-.1 0-.3 0-.4.1-.3.1-.6.3-.8.5-.5.4-.7 1-.8 1.6 0 .5.1 1.1.5 1.6.2.2.4.4.7.6.2.1.6.2.5.2l.5.1c1.3.4 2.6.9 3.8 1.4 2.4 1 4.5 2.2 6.3 3.4 3.3 2.1 6.3 4.1 8.5 6 1.1.9 2.1 1.9 2.9 2.8s1.5 1.8 2.2 2.8c1.3 1.8 2.6 3.5 3.9 4.8 1.4 1.3 2.7 2 3.9 2.4.7.2 1.3.4 1.8.4v1.9c-.1 5.2-.1 9.5.5 9.6s1.6-4.1 2.4-9.3c.1-.4.1-.8.2-1.3.3.1.6.1 1.1.1.7 0 1.7-.2 2.9-.7 1.1-.5 2.5-1.4 3.7-2.7 1.3-1.3 2.5-3 3.9-4.8 2.8-3.6 6.9-8.2 13.6-12.8 1.8-1.2 4-2.5 6.4-3.8.3-.2.6-.3 1-.5l.2-.1.1-.1.2-.1c.3-.2.5-.3.8-.6 1-.9 1.5-2.4 1.3-3.8-.2-1.3-1.1-2.6-2.4-3.2-.3-.1-.7-.3-1-.3l-.5-.1h-.3c-.4 0-.8-.1-1.3-.1-6.7-.2-13.7 2.4-18.6 6.4-2.5 2-4.5 4.3-6 6.5s-2.7 4.4-3.4 6.3c-.1.2-.1.3-.2.5.2-3.4.4-9.3 0-12.7 2.2-.4 4.3-1.3 6-2.6 4-2.9 6.3-7.1 7.7-10.9.7-1.9 1.2-3.9 1.6-5.7s.6-3.5.8-5.1c.7-5.8.9-10.9 1.4-15.2.4-4.3 1.1-8 2-11 1.8-6 4.2-9.6 6-11.7.9-1.1 1.7-1.9 2.2-2.4.3-.3.5-.5.7-.8.2-.2.4-.4.5-.5s.2-.2.2-.3c2.1-.4 4-.6 5.7-.6 1.9 0 3.6.3 5 .7 1.5.4 2.8.9 4 1.4 2.4 1 4.4 1.7 5.9 2.1 1.6.4 2.7.5 3.5.4 1.5-.1 1.6-.4 1.6-.7.2-.4.1-.6-1.2-1zm-58.8 86.5c-.8-.4-1.7-1.1-2.6-2.1-1-1.1-1.9-2.6-3.2-4.5-.6-1-1.4-2.1-2.3-3.2s-2-2.2-3.3-3.3c-2.5-2.2-5.4-4.2-9-6.4-1.1-.7-2.3-1.4-3.6-2 4 .3 8 1.2 11.5 2.7 5.2 2.2 9 5.8 11.2 8.8 1.1 1.5 1.8 2.8 2.2 3.7-.1 2.1-.2 4.5-.2 6.8-.2-.2-.4-.3-.7-.5zm6.8-9.7c1-1.7 2.2-3.6 3.8-5.6 1.6-1.9 3.6-3.9 5.9-5.6 4.6-3.4 10.9-5.3 16.7-5 2 .1 1.5.2 1.7.5 0 .2 0 .2-.1.3 0 0 0 0-.1.1l-.1.1-.2.1c-.3.2-.6.3-1 .5-2.6 1.3-5 2.7-6.9 4-7.1 4.9-11.5 9.9-14.3 13.9-1.4 2-2.4 3.7-3.4 4.8-.9 1.2-1.8 1.9-2.6 2.5-1 .7-1.7 1-2.3 1.2.4-2.7.7-5.5.9-8 .6-1.1 1.2-2.4 2-3.8z"/></g></svg>