<svg id="Layer_1" enable-background="new 0 0 135 135" height="512" viewBox="0 0 135 135" width="512" xmlns="http://www.w3.org/2000/svg"><g><path d="m97.9 53.5c-.5-.1-1-.2-1.5-.3.6-.6 1.2-1.3 2.1-2.4 6.7-8.6 7.1-15 4.8-23.4-1.2-4.1-3.2-8.6-6.5-13.1-1.8-2.4-4.1-5-7-7.5-1.4-1.2-3-2.4-4.7-3.4l-.6-.4h-.2c-.1-.1-.2-.1-.4-.2-.3-.1-.6-.1-.9-.1-.6.1-1.1.5-1.4.9s-.5 1.1-.3 1.7c.1.3.2.6.3.8.2.3.6.8.9 1.2.5.8 1 1.5 1.5 2.4 6.5 11.2 5.5 22.1 1.3 31.9-1.3 3-2.7 5.6-4 7.6-1.9 2.9-3.5 4.8-4.3 5.8-.3-.2-.6-.5-.9-.7-.7-.6-1.5-1.2-2.4-1.7-.2-.1-.4-.3-.7-.4.1-.5.2-1.3.4-2.5.3-1.6 1.2-4 3-7.6 3.4-7 6-14.7-.3-20.5-1-.9-2.3-1.7-3.6-2.2-.3-.1-.5-.2-.8-.2.5-1.2.5-1.3.6-1.8.6-.2 1.2-.5 1.6-.8.5-.3.8-.7 1.2-1.1.6-.8.8-1.6 1-2.3.2-1.4-.2-2.4-.6-3-.5-.6-.9-.7-1.2-.6-.3 0-.5.2-.7.4-.4.4-.6.9-.8 1.3-.1.2-.2.5-.4.9-.1.2-.3.5-.4.7-.1 0-.2.2-.3.3s-.3.1-.4.2c-.1 0-.2 0-.3 0 0 0-.1.1-.2-.1 0 0 0-.1-.1-.1 0-.1 0-.1-.1-.2 0-.2-.1-.3-.1-.5 0-.3.1-.7.3-1 .3-.7 1-1.1 1.6-1.3s1.1-.1 1.3-.3 0-.9-1-1.3c-1.3-.5-2.9-.1-3.9.9-.6.6-1.2 1.3-1.4 2.3-.1.2-.1.5-.1.7v.7c0 .2 0 .5.1.7.1.3.1.5.2.8.2.6.6 1.1 1.1 1.6 0 .1 0 .1-.1.2-.2.6-.3 1.4-.2 2.2h-.1c-.6.1-1.2.2-1.9.4-.3-.6-.8-1.4-1.4-2 .1-.1.3-.3.4-.5.8-1.2 1-3.3.2-5.2-.4-1-1.1-2-2.1-2.7s-2.2-1.1-3.5-1.1c-1.3-.1-2.8.5-3.7 1.6s-1.1 2.3-1.1 3.3c.1 1.8.7 3 1.3 3.9.6 1 1.4 1.6 2.1 2.1 1.4.9 2.8 1.1 3.7.8.1.5.3 1 .4 1.3.1.1.1.3.2.4-3.8 3.3-6.9 10.7-4.3 15.8.7 1.3 1.6 2.4 2.4 3.3s1.6 1.8 2.2 2.6c1.2 1.7 2 3.4 2.4 5 .4 1.5.5 2.8.6 3.7-.5.1-.9.3-1.4.4 0-.4-.2-.8-.3-1-.2-.4-.3-.5-.4-.5s-.1.2 0 .6c0 .3.1.7-.1 1.2 0 0 0 0-.1 0-.7.3-1.4.6-2.1.9-1 0-2.1-.2-3.3-.5-.5-.1-1.1-.3-1.6-.5 0 0-.1-.1-.1-.1-1.1-.6-2.6-1.3-4.6-1.9-.6-.4-1.2-.7-1.8-1.2-2.8-1.9-5.3-4.7-7-8.1-6.1-11.1-2.4-25.1 6.9-32.8l.5-.4.2-.3.1-.1c0 .1-.1.4-.4 1.6-3 11.8-3.5 24.6 3.7 34.4 1.4 1.9 2.9 3.3 4.1 4.2 1.3 1 2.2 1.5 2.8 1.9s1 .7 1.3.9c.6.4.8.4 1.1.3.2-.1.5-.3.3-1.2-.1-.4-.5-1.1-1.1-1.8s-1.5-1.4-2.5-2.4-2.1-2.2-3.2-4c-3.2-5-4.6-11.3-4.6-17.3 0-4.1.7-8.8 2-14.1.2-.3.3-.6.4-1 0-.2.4-1.2.4-1.9.1-1.5-.8-3-2.1-3.7-.7-.3-1.5-.5-2.3-.3-.4.1-.8.2-1.1.4-.1.1-22.4 16.4-9.3 39.3 1.6 2.8 3.6 5.1 5.8 6.9-2-.1-4.2-.1-6.5.3-9.8 1.7-16.8 8.2-19.9 16.8-1.7 4.7-2 10-.8 14.9 2.2 8.7 8.9 15.3 17.2 18.6.2.1.5.2.7.3.4.1.9.3 1.3.4.8.2 1.4.1 2-.1s1.2-.6 1.6-1.1.7-1.1.8-1.7 0-1.2-.2-1.9c-.2-.6-.5-1.1-.7-1.7-.1-.3-.3-.7-.4-1-5.2-13.9 1.2-28.7 12.6-35.4 1.2-.6 2.1-1.1 2.9-1.5-15 13.5-15.7 31.4-6.7 41.5.8.9 1.7 1.8 2.5 2.5.7.6 1.5 1.3 2.3 1.8-.3.1-.8.8-1.2 2-.4 1.4-.6 3.7.2 6 .7 2.3 2.4 4.6 4.7 5.9.5.3 1 .5 1.2.7.3.2.3.3.5.5.2.4.4 1.1.4 1.7.3 2.6.2 4.8.3 6.4 0 1.7.2 2.9.4 3.6.4 1.6 1 1.6 1.5 1.5h.1c.2.2.4.4.6.5.5.4 1.2.7 2.1 1 1.6.4 3.3.4 5 .2.6-.1 1.3-.1 2.4-.5.3-.1.5-.2.8-.4s.6-.4.8-.6c.4-.4.8-.8 1.1-1.4.7-1.2.8-2.5.7-3.6 0-.6-.1-1.1-.1-1.6s0-1 0-1.6c0-1.2.1-2.4.3-3.5.4-2.2 1.5-3.5 2.3-5.5.3-.8.5-1.5.6-2.3.5-3-.1-5.6-1-7.3-1.4-2.7-2.2-1 .3-3.1 4.2-3.6 6.6-7.7 8.2-11.3 4.3-9.9 2.7-17.8-1-22.4-.7-.7-.9-.7-1.2-.5-.2.1-.4.3-.3 1.2.2.9.8 2.6 1.5 5.7 2.6 13.8-11.5 31.9-24.1 27.9-1.2-.2-2.7-1.1-4.2-2.2-14.7-10.7-11.5-28.5 1.2-40.8 1.7-1.6 3.4-2.8 5.4-3.6s4-1.5 5.6-1.3 3.3 1.4 4.8 2.4 2.7 2.1 3.9 3.2c2.2 2.1 3.8 4.1 4.8 5.5s1.6 2.2 1.7 2.1-.2-1-1-2.6c-.8-1.5-2.2-3.7-4.3-6.1.2.1.5.2.8.3 2.3.8 5.5 2.5 8.4 5.4 11.7 11.6 5.2 26.6 5.2 26.8l-.5 1.2c-.6 1.3-.2 2.8.7 3.8s2.4 1.4 3.7 1c9.1-3.1 17.8-12.3 18.2-23.5.1-8.9-4.1-16-18.7-19.3zm-36.7 51.8c10.3 3.2 15.5-5.1 16.3-.9.3 1.6.4 3.9-.3 6.2-.6 2-1.8 3.3-2.8 5.2-.8 1.7-1.4 3.7-1.6 6.6v2c0 .6.1 1.1.1 1.6 0 .8 0 1.2-.2 1.5-.1.1-.2.3-.3.5-.1.1-.1.1-.1.1s-.1 0-.1.1c-.3.1-.9.2-1.5.3s-1.1.2-1.6.3c-1.9.3-2.8.1-3.5-.1-.3-.1-.5-.1-.7-.2.1-.7.2-1.6.4-2.9.1-1.6.4-3.9 0-7.1-.1-.9-.3-2.1-1.1-3.4-.4-.6-1.1-1.3-1.7-1.6-.6-.4-1.2-.6-1.6-.8-1.6-.7-3-2.1-3.9-3.7s-1.2-3.3-1.3-4.6c-.1-.9 0-1.6-.1-2 1.7 1.2 3.6 2.3 5.6 2.9zm-8.3-50.2c-1.6.7-3.6 1.8-5.8 3.5-9.1 7.3-14.6 21.9-9.3 35.9.2.4.3.8.5 1.2l.2.5s.1 0 0 0c-.2-.1-.4-.1-.6-.2-8.3-3.2-13.3-9.4-15.1-15.7-1.2-4.1-1-8.7.3-12.9 2.5-7.8 8.4-13.7 17.2-15.7 3.2-.7 6.3-.8 8.8-.5 1.5.9 2.9 1.6 4.4 2 1 .3 2 .6 3 .8-.9.2-2.1.5-3.6 1.1zm8.9-38.6c-.3-.2-.7-.3-1.4-.9-.3-.3-.7-.7-1-1.3-.3-.5-.6-1.3-.6-1.8 0-.3.1-.6.2-.7s.2-.3.7-.4c.4-.1 1.1 0 1.6.3.5.2 1 .6 1.4 1.1.8 1.1 1.1 2.3.9 3.1v.2c-.1.7-.6 1.2-.4 1.4-.1-.2-.3-.5-.5-.6-.3-.1-.5-.2-.9-.4zm5.2 34.8c-.1 0-.2 0-.2.1.2-.9.2-2.2.1-3.7-.2-1.8-.8-3.9-2.1-6-.2-.4-10.1-11 .8-18.1.9-.6 1.8-.9 2.8-1s1.9.1 2.8.4c7.6 2.9 4.5 11.5 2 17.4-1.7 3.8-2.5 6.8-2.5 8.8 0 .8.1 1.4.1 2-.1 0-.1 0-.2 0-1.2-.3-2.5-.2-3.6.1zm15.5-1.2c9-11.7 12-25.1 6.5-38.7 1.8 1.7 3.3 3.5 4.6 5.2 3 4.1 4.8 8.1 5.9 11.8 2.6 8.6 1.2 12.9-3.3 20.7-1 1.7-1.7 2.9-2.1 3.7-1.7-.2-3.4-.3-4.8-.2-2.4.1-4.3.3-5.9.6-3.1.7-4.5 1.4-5.3 1.8-.3.2-.4.3-.5.5-.1-.1-.1-.1-.2-.2 1.1-.7 3-2.4 5.1-5.2zm18.6 40.8c-.9.6-4.3 2.7-3.8 1.5v-.1l.1-.3.2-.5.3-1.1c.6-2.1 1.1-4.2 1.2-6.7.6-8.2-2.3-16.2-8.6-21.7-3.4-2.9-7-4.4-9.5-4.9-.8-.2-1.5-.3-2.1-.3-.1-.1-.2-.2-.3-.3.8 0 2.3-.2 5.1-.5 1.4-.1 3.2-.2 5.4-.1s4.8.4 7.8 1.2c9.1 2.4 15.6 6.3 15.3 15.6 0 6.5-3.7 13.6-11.1 18.2z"/></g></svg>