<svg id="Layer_1" enable-background="new 0 0 135 135" height="512" viewBox="0 0 135 135" width="512" xmlns="http://www.w3.org/2000/svg"><g><path d="m122.5 19.4c-.8-2.9-2.3-5.1-5.2-4.4-3.4.8-2.7 4.3-2.9 5-.7 4.7-1.7 24.8-11.3 35.4-3.6 3.9-8.1 6-12.9 6.2-2.5.1-5 0-7.7.2-2.6.1-5.4.8-7.7 2.2s-4.1 3.3-5.5 5.3c-3.7 5.4-5.6 12.3-8.6 17.8-3.1 6-7.4 11.2-13.5 13.8-.3.1-.7.3-1 .4-2.9-.8-5.5-1.7-7.9-2.5-6-2.2-12.8-5.1-18.9-4.8-10.3.6-16.8 9.3-15.9 14.9.1.8.4.9.7.9s.6 0 .9-.6c1-1.8 3.7-10.9 14.5-11.3 4.5-.1 9.8 1.9 14 3.4.5.6.8.9 1.4 1.5s.1.1.1.1c.5.5 1.1 1.1 1.9 1.8 1.6 1.5 3.9 3.3 7 5.4 6.8 4.5 14.2 7.8 22.1 9.3 3.5.7 7.4 1.1 11.7.7 19-1.5 24.6-13.3 29.6-22.1 1.4-2.5 3-5 4.9-7.1 1-1 2.1-1.9 3.3-2.7 2.9-1.7 5.7-2.5 8.8-6.1 1.2-1.5 2.3-3.1 3.1-4.8 1.9-3.7 3.1-8.1 3.7-12.6 2.2-18.4-5.6-36.3-8.7-45.3zm4.6 44.8c-.5 4.2-1.6 8.1-3.3 11.3-4.2 8.6-7.9 6.1-14.4 12.6-2.3 2.5-4 5.3-5.5 7.9-3.9 6.9-8.6 18.8-26.5 20.4-3.9.4-7.5 0-10.7-.5-7.5-1.3-14.6-4.3-21.2-8.2-2.7-1.6-4.7-3-6.3-4.1h.4c10 3.3 19.8 4.9 29.9 1.4 8.8-3 18.5-9.5 25.1-17.5 3.1-3.8 4.5-6.5 4.3-6.6-.3-.2-2.1 2.2-5.5 5.5-7.7 7.7-17.1 13-25 15.4-6.9 2.1-13.1 1.8-20.1.2 17.4-7.1 17-29.4 27.8-35.6 1.9-1.1 4.1-1.6 6.5-1.7 5.7-.3 14.5 1.8 22.7-7 8.7-9.4 11.4-25.6 12.7-38.3 0-.1.2-.2.3-.1l.1.2.3.7c2.7 7.7 10.6 26 8.4 44z"/></g></svg>