<svg id="Layer_1" enable-background="new 0 0 512 512" height="512" viewBox="0 0 512 512" width="512" xmlns="http://www.w3.org/2000/svg"><g><path d="m501.4 245.8c-2.7-3-6.9-5.1-9.9-7.6-4.2-3-8.3-5.7-12.5-8.3-3.8-2.7-7.6-5.3-11.4-7.6-3.4-2.3-6.8-4.6-10.2-6.1-3.4-1.9-7.2-2.7-10.2-3.4 3-2.3 5.7-4.6 8.7-7.6 7.6-7.2 15.9-16.3 22-29.2 3.4-6.8 6.1-15.9 7.2-25 .8-4.6.8-9.1 1.1-13.7.4-2.3.4-4.6.8-6.8l.4-3.4.4-1.9c0-1.1 0-2.3 0-3.4-.4-4.6-3-8.7-7.2-11-1.9-1.1-4.2-1.5-6.4-1.9-1.1 0-2.3 0-3.4 0-.8 0-1.9.4-2.7.4-4.9 1.5-9.5 2.7-14.4 4.2-9.5 2.7-19 5.7-28.1 9.1-17.8 6.4-33.4 15.2-42.9 23.1-1.1 1.1-2.3 1.9-3.4 3 .4-4.9 0-10.6-1.1-15.9-3-14-11.8-27.3-14.8-39.8l-.4-1.1c-.4-.8-.4-1.9-.8-2.7-.4-1.9-.8-3.4-1.5-5.3-.4-1.9-1.1-3-1.9-4.2-.8-1.1-1.9-1.9-3.4-2.7s-3-1.1-4.6-1.1c-1.5 0-3 .4-4.6 1.1-3 1.1-6.1 4.6-8.7 7.6l-1.5 1.5c-.8.8-.8 1.1-3.4 3.8-1.5 1.9-3 3.4-4.2 5.3-11.4 14.8-20.9 32.2-26.9 48.9-6.1 17.1-8.7 33-8.7 45.1 0 6.1 1.1 11 2.3 14s2.7 4.6 3 4.2c1.1-.4-1.1-7.2.4-17.8 1.5-11 5.7-25.8 12.9-41.3 6.8-15.5 17.1-31.1 28.1-44.4 1.5-1.5 2.7-3.4 4.2-4.9 2.7-3 2.7-3 3-3.4.4-.4.8-.8.8-.8h.4c.4.8 1.1 4.9 4.2 12.5 4.9 11.8 9.5 20.5 11.4 28.4s1.5 14.4.4 20.1c-1.5 6.1-3.4 11-5.3 15.2s-3.4 7.6-4.9 10.2c-5.3 11-4.6 12.5-2.7 13.7 1.9 1.1 3.8 2.3 11.8-8 1.9-2.7 4.2-5.7 6.8-10.2 2.7-4.6 5.3-9.9 7.6-17.4.4-1.1.8-2.7 1.1-4.2 2.3-1.5 4.9-3.4 7.6-5.3 10.2-6.4 25.4-12.9 42.9-17.8 8.7-2.7 18.2-4.6 27.7-6.8 4.9-1.1 9.5-2.3 14.4-3.4.8-.4.8 0 1.1-.4h.4.4s.4.4.4.8l-.4 1.5-.8 3.8c-.4 2.3-.8 4.9-.8 7.2-.4 4.6-.8 9.1-1.5 13.3-1.1 8-3.4 14.8-6.1 20.5-5.3 10.2-12.1 18.6-19 25-6.8 6.4-13.3 11.4-19 15.5-11.4 8-20.1 12.9-25.4 16.7-11.4 7.2-11 9.1-9.9 11s2.3 3.4 14.8-1.5c6.4-2.7 15.5-6.4 28.4-14.8 2.7-1.5 4.9-3.4 8-5.3 3.4.4 7.6 1.9 11.8 4.9 2.7 1.9 5.7 4.2 8.7 6.8 3 2.7 6.4 5.3 9.9 8.3 3.4 2.7 7.2 5.7 11 8.7 23.6 11.1-16.4 24.3-26.9 29.6-4.9 1.9-10.2 3.4-15.2 4.9-10.2 2.7-20.5 4.2-29.6 4.6-8.7.4-17.1-1.5-24.3-3.8-26.9-8.7-44-22-55.4-33-11.4-11.4-17.4-20.5-21.2-26.5-4.2-6.1-6.1-9.5-8-11-1.5-1.5-2.7-1.5-3.8-1.1s-1.9.8-1.9 3c0 2.3.8 6.4 3.8 14 2.7 6.4 7.6 15.9 17.1 26.9-2.3 1.1-4.9 2.7-8.3 4.9-13.7 9.5-25.8 24.3-32.6 43.6-2.7-10.6-6.1-20.9-9.5-31.5-11-31.5-25.4-64.1-45.9-91-4.9-6.4-9.1-11.4-12.1-14.4 11.8-6.4 25.4-16.7 38.3-33.4 23.9-31.5 25-70.9 15.5-92.5-1.1-2.3-2.7-5.3-5.3-8-2.7-2.7-6.8-3.8-10.2-2.7-4.2 1.5-4.9 2.7-6.8 4.2-6.1 4.6-3.8 3-15.2 11.8-6.1 4.9-11.8 9.1-16.3 13.3-2.3 2.3-4.2 4.6-5.7 6.8-1.1-2.7-2.7-5.7-4.2-8.3-4.2-6.8-9.9-14.4-19.3-20.1-4.9-3.4-11.8-5.7-18.2-7.2-3.4-.8-6.4-1.5-9.5-2.3-1.5-.4-3-.8-4.6-1.1l-2.3-.8-1.1 1.1c-.8-.4-1.5-.4-2.7-.4-6.8-.4-13.3 4.6-14.8 11-.4 1.9-.4 2.7-.4 3.4l-.4 2.7-.4 5.3c-.4 7.2-1.1 14.4-1.1 21.2 0 14 1.9 26.9 6.1 35.3.4.4.4 1.1.8 1.5-4.6-.8-9.5-1.5-14.8-1.1-12.9 1.5-10.2 3.4-41.7 7.2-1.5.4-3 .4-4.2.8-2.3.8-3.8 2.3-5.3 4.2-1.5 2.3-1.5 4.6-1.1 6.8 1.1 2.7 2.7 5.3 3.8 8 1.9 2.7 3.8 5.3 4.6 6.1 9.5 11.4 21.6 21.2 34.1 27.7 12.5 6.4 24.7 9.9 34.1 10.6 9.5.8 15.2-1.9 14.8-3s-5.7-.8-13.7-3c-8-2.3-19-7.2-29.6-14-19.3-12.9-29.6-28.8-30-29.2s0 0 0-.4h.4 1.1c9.5-.8 24.3-5.3 34.1-6.1 6.1-.8 11 0 15.2 1.1 8.3 2.7 13.7 6.8 17.8 9.5 7.6 5.3 9.1 4.6 11 3 1.5-1.5 3-3-3.4-11-1.5-1.9-3.8-4.2-7.2-6.8-3-2.7-7.2-5.3-13.3-7.6h-.4c-.4-1.5-.8-3.4-1.5-5.3-1.9-8.3-2.3-19.7-.8-33 .8-6.4 1.9-13.3 3-20.5l.8-5.3.4-2.7c0-.8.4-1.9.4-1.9.4-.4.8-.4.8-.4l.8.4 2.7.8c3 .8 5.3 1.5 14.4 3.8 5.7 1.5 10.2 3.4 13.7 5.7 6.4 4.2 11 9.9 14.4 15.2s5.7 10.6 7.2 15.2c3.4 9.5 4.9 16.3 6.1 20.9 2.7 9.1 4.6 9.5 6.8 9.1 2.3-.4 4.2-.8 4.2-10.6 0-4.9-.4-12.5-3.4-23.5-.4-1.9-1.1-3.4-1.9-5.7 1.5-2.3 4.2-4.6 7.6-7.2 9.1-5.7 22-13.7 35.7-22.8.8 0 1.1.4 1.5.8 0 .4.8 1.5 1.5 3.4 6.4 17.4 4.2 50.8-17.1 78.5-14 17.8-28.8 27.7-40.6 34.1-27.7 14-38.3 13.3-37.5 19 1.5 9.5 35.3-2.7 44-6.4 1.9-.8 3.4-1.9 5.3-2.7 2.3 3.8 5.7 9.5 9.9 16.3 17.1 29.6 29.2 59.5 38.7 91.8 3.4 12.1 7.2 25 9.5 36.8 2.7 12.1 3 23.5 3.4 34.9s.4 22.4 1.9 32.2c.8 4.9 1.9 9.9 3 14.4-1.9-1.5-3.8-3-6.1-4.6-3.8-2.7-9.1-6.4-15.5-9.5-6.4-3-13.7-5.3-20.9-5.7-3 0-5.7 0-8.3.4 4.9-9.9 8.3-21.6 9.5-34.9 2.7-35.7-17.1-83.4-46.3-109.2-2.3-2.3-4.9-4.2-8-6.1-2.3-1.5-8-4.2-12.5-3-2.3.4-4.2 1.9-5.7 3.8-.8.8-1.5 1.9-1.5 2.7l-.8 1.9c-1.1 2.7-2.3 4.9-3.4 7.6-10.6 22.4-15.9 33.4-17.4 38.7-1.5 4.2-1.9 8.3-1.9 11.8-3-2.7-6.1-5.7-9.9-8.3-30-22.8-50.1-22-75.5-19.7-2.3 0-4.6.4-7.2.4h-3.4-1.9c-1.1 0-2.3.4-3.4.4-4.6 1.1-8.7 4.6-10.2 9.5-1.5 4.6-.4 9.5.8 12.5 2.3 4.6 4.6 9.5 6.8 14 10.2 21.6 23.9 50.4 44.8 68.3 1.5 1.1 3 2.3 4.2 3.4-5.3.4-11.4 1.9-17.1 4.2-10.2 4.2-19.7 11.4-29.6 17.4-2.7 1.9-5.7 3.4-8.7 4.9l-.4 1.5-.4.4h-.6c-.4.4-.8.4-.8.4-1.9.8-3.8 1.5-5.3 2.3-.8.4-1.9.8-2.7 1.1-.8.4-1.1 1.1-1.9 1.5-1.1 1.1-1.9 2.3-2.3 3.8s-.8 3.4-.4 4.9.8 3 1.9 4.6c.8 1.5 2.3 3 3.8 4.2 1.5 1.1 3.8 2.3 5.7 3.8 4.2 2.7 8.3 4.9 12.5 7.2 17.1 9.1 36.8 16.3 55.4 19.7s35.7 3.4 48.2 1.1c6.1-1.1 11-3 14-4.9s4.2-3.4 4.2-3.8c-.8-.8-7.2 2.7-18.6 2.7-11.4.4-27.7-1.5-45.1-6.1-17.1-4.6-35.3-12.1-50.8-21.6-3.8-2.3-8-4.9-11.4-7.2v-.4c.8-.4 1.5-.8 2.7-1.1 3.8-1.9 7.6-3.8 10.6-5.7 11.4-7.2 19.7-13.7 27.7-16.7 8-3.4 14.8-4.2 21.2-3.8s11.8 1.5 16.7 2.7c4.6 1.1 8.3 2.3 11.4 3 12.1 3.8 13.7 2.7 14.4.4.8-1.9 1.5-4.2-10.2-10.6-3-1.5-6.8-3.4-11.8-5.3-4.9-1.9-11.4-3.8-19.3-4.9-1.1 0-2.7-.4-4.2-.4-1.9-1.9-4.6-4.6-6.8-7.6-20.1-22.8-31.9-56.1-43.2-83.1-.8-1.9-.4-2.3-.4-2.3 0-.4.4-.4.8-.4 31.1 0 46.3-6.8 78.9 17.1 8 5.7 14 11.8 19.3 17.1 10.2 10.6 16.7 18.6 21.6 23.9 9.5 10.6 11.4 9.9 12.9 8.7 1.5-1.1 3-2.7-4.2-15.2-3.8-6.1-9.5-15.2-20.1-26.9-1.9-2.3-4.2-4.6-6.4-6.8-.4-10.2 3.4-14.8 23.1-48.9 1.1-2.3 2.7-4.6 3.8-6.8l1.1-1.9c.4-.8.4-.8.8-1.1.4-.4.8-.4 1.1-.4 1.1 0 1.1 0 3.4 1.5 1.9 1.1 3.8 3 5.7 4.9 22.8 22.4 41.7 66.4 39.1 99.7-.8 14.4-5.3 26.2-11 35.7-2.7 4.9-5.7 9.1-9.1 12.9-6.8 8.3-18.2 17.1-26.2 25-4.6 4.6-8 9.1-10.2 12.9-2.3 3.8-3.8 7.2-4.2 9.5-.8 2.7-.8 4.2-.8 5.7 0 2.7 1.1 3 2.3 3s1.9.4 3.4-1.1c.8-.8 1.5-1.9 3-3.8 1.1-1.9 3-4.2 5.3-6.8 2.3-2.7 5.7-6.1 10.2-9.9 4.6-3.8 10.2-8.3 17.4-14 3.4-3 7.2-6.4 11-10.6 3.4-3.8 6.8-8.3 9.9-13.3 3.4 0 7.2.4 11.4 1.5 10.6 2.7 21.2 11.4 28.8 16.7 15.5 11.8 20.5 16.7 25 18.2 6.4 12.1 14 22.8 22.8 33 13.3 14.8 23.9 23.1 31.5 28.4s11.8 7.2 14 8c2.7.8 3 0 3.8-.8s1.1-1.9-.4-3.8c-1.5-2.3-4.6-5.3-10.6-11.4s-15.4-15.1-27.2-29.5c-5.7-7.2-12.1-15.9-18.2-26.9s-11-24.3-13.3-39.8c-1.1-8.7-1.5-19-1.9-30.3-.4-6.4-.8-13.7-1.5-20.9.8-1.9 1.5-4.2 2.3-6.1 7.2-19.3 19.7-35.7 34.5-49.3 3.4-3.4 6.1-5.3 7.6-7.2 5.3 5.3 11.8 10.6 19.3 15.5 11 7.2 24.7 13.7 37.2 17.4 8.3 2.7 18.2 4.9 29.6 4.2 10.6-.8 21.6-2.7 33-6.1 18.2-7.5 67.8-22.1 54.6-47.3z"/></g></svg>