<svg id="Layer_1" enable-background="new 0 0 512 512" height="512" viewBox="0 0 512 512" width="512" xmlns="http://www.w3.org/2000/svg"><g><path d="m472.2 234c0-1.1 0-1.9-.4-3l-.4-1.9c0-.8-.4-1.5-.8-2.3-1.1-3-2.7-5.7-5.7-7.2-2.7-1.5-5.7-1.9-8.7-1.1l-6.1 1.5c-6.4 0-8 7.2-67.1-1.1-12.5-1.9-25-3.4-37.2-4.2-3.4 0-6.8 0-9.9 0 68.3-31.1 86.1-107 54.6-172.9-.8-1.1-1.1-2.7-1.9-3.8-14.4-27.7-19.3-11.4-26.2-6.4-16.7 22.4-67.5 34.1-95.2 59.2-4.2 3.4-7.6 8-11 12.1-3.4 4.6-6.1 9.1-8.3 14-1.1 2.7-2.3 5.3-3.4 8 0-.4-.4-1.1-.4-1.5-3-15.5-11-31.1-20.9-46.3-11.8-17.4-28.8-37.2-44.4-52.7-1.5-1.5-3-3-4.6-4.6l-2.3-2.3-.8-.8c-.4-.4-.8-.8-1.1-1.1-.8-.8-1.5-1.1-2.7-1.9-3.4-1.9-8-2.3-11.8-.8s-6.8 4.6-8.3 8.3l-.8 1.9c0 .4-.4.8-.4 1.1-.4.8-.8 1.5-1.1 2.7-5.7 12.5-14.8 24.3-19.7 39.1-14 42.9 14.8 100.1 36 139.9 3 5.7 5.7 11 8.7 15.9-2.3-2.3-4.6-4.6-6.8-6.4-6.8-5.7-13.7-10.6-20.5-14.4-31.5-17.4-82.7-26.9-94.4-26.2-3 0-5.3.8-6.8 1.5-2.7 1.1-2.7 2.7-2.7 3.4.4 1.1.8 1.9 3 2.7 2.7.8 6.8 1.1 15.9 4.2 22 6.8 50.8 12.5 77 27.7 11.8 6.8 24.3 16.7 34.1 31.1 10.2 14.4 17.8 33.8 20.5 38.7v.4s0 0-.4 0h-.8l-2.3.4c-3 .8-6.4.8-9.9 1.1-78.7 3.8-101.8-69.8-110.2-82.7-4.9-8-11-13.3-15.5-15.9s-7.6-3-7.6-2.7c-.4.8 2.3 1.9 6.1 4.9s8.3 8.7 12.1 16.3c4.6 9.1 26.9 96 117.6 95.2 3.8-.4 7.6-.4 11.4-.8 2.3-.4 4.9-.8 7.2-1.1 1.9-.4 3.4-.8 4.9-1.9-.8 1.1-1.5 2.3-2.7 4.2-20.1 36-50.4 119.8-53.5 182-.4 9.5 0 15.2 1.1 15.5 1.1 0 2.7-5.3 4.9-14.4 26.2-102.4 43.6-131.6 56.1-173.7 1.9 1.5 7.2 3.8 14.4 6.8 4.9 2.3 10.2 4.9 16.3 8 6.1 3.4 12.1 7.2 17.4 12.5 5.3 4.9 9.9 11.8 15.5 18.6 2.7 3.4 5.7 6.8 9.5 10.2 3.4 3 7.6 6.1 11.8 8 8.3 4.6 17.1 6.4 25 7.6 10.9 1.2 20.8 2.3 31.5 1.1 10.9-2.7 11.7-15.5 2.7-21.2-4.3-4-7-9-8.7-14.8-1.5-5.3-.8-12.5-3.8-19.7-1.1-2.3-2.3-4.2-3.8-6.1 3.8 1.1 7.6 1.9 11.8 2.7 3.4.8 6.8 1.1 10.2 1.5s7.2.4 10.6.4c51.6-.8 97.1-40.6 103.2-80.4.9-3.8 1.3-7.9.9-12.1zm-226.1-64.5c-.3 0 0 0 0 0zm3.5-20.5c4.9-18.6 12.1-36.8 26.5-48.5 26.5-23.1 64.1-26.9 94.8-55.8l2.3-2.3.4-.4 1.5 2.7c39.4 84.2 10.6 128.6-72.8 169.9-11.4 5.3-20.1 11-26.5 15.9-12.9 9.9-18.2 16.7-20.9 20.5-1.9 3-1.9 4.2-1.5 4.9-.8 0-1.9 0-3.4.8-3.4 1.5-10.2 4.6-22 12.9-2.7 1.9-5.7 4.2-9.1 7.2-.4-.4-.8-.8-1.1-1.5 0-.8-.4-1.1-.4-1.9 9.1-28.4 13.7-41.7 20.5-63 3.4-12.5 7.2-26.9 8.7-44l1.1-10.6v.4c.7-2.6 1.5-4.9 1.9-7.2zm-110.8-78.1c4.2-12.1 13.7-24.3 20.1-37.2.4-1.1.8-1.9 1.5-3 .4-.4.4-1.1.8-1.5l.4-.8c0-.4.4-.4.4 0 2.3 2.3 4.6 4.6 6.8 6.8 18.2 18.2 33.4 37.5 42.1 50.4 19.3 27.7 23.5 55.4 21.2 79.3v.4c-1.1 11-2.7 20.9-4.9 30-.4.8-.4 1.9-.8 2.7-4.2 18.6-15.5 53.9-19.3 73.6-.4 3-1.1 5.3-1.1 7.6-8-18.6-26.9-57.6-36-77-17.2-35.3-44.5-93.7-31.2-131.3zm198.4 298.1c-3 0-1.5 0-7.2 0-3.4 0-6.8-.4-10.2-.8-6.8-.8-14-2.3-20.9-5.7-6.8-3-12.1-7.6-17.8-13.7-5.3-6.1-11-13.3-18.2-18.6-6.8-5.3-14-9.1-20.9-11.8-6.8-2.7-12.9-4.6-18.2-6.1-8-1.9-13.7-3-15.9-2.7.8-2.7 1.5-4.9 1.5-6.8.8 1.1 1.5 2.3 2.7 3.4 1.5 1.5 3.8 3 5.7 4.2 1.9.8 4.2 1.5 6.1 1.9 8 1.5 15.2.8 23.1 0 8-.8 15.9-2.3 24.7-3.4 4.2-.4 8.7-.8 12.1-.4 4.6.4 9.1 1.5 13.7 2.7 3.8.8 7.6 2.3 11.8 3.4 0 .8 0 1.1.8 2.3 1.1 1.5 3.4 3.4 8 6.4 1.9 1.5 4.6 3.4 6.8 6.1 1.9 2.7 3 4.9 3.4 11 0 3 0 6.8 1.1 11.4.8 4.6 2.7 9.1 5.3 13.3.8 1.1 1.5 2.3 2.3 3.4-.6-.6-.2.1.2.5zm31.1-57.6c-12.5.4-23.9-2.3-34.9-5.7-15.5-4.9-31.1-10.6-47.8-12.5-6.4-.4-11 .4-15.5.8-15.9 2.3-33.4 6.4-43.6 4.9-1.5 0-2.3-.4-3-.8-.4-.4-1.1-.4-1.5-1.1-.4-.4-.4-.4-.8-.8 0 0 0-.4 0-.8 0-1.1 1.1-3 2.3-4.6 1.1-1.5 2.3-3 3.8-4.6 2.7-3 5.7-5.3 8-7.6 10.2-8.7 16.3-13.3 18.6-16.3 2.3-2.7 2.3-3.8 1.9-4.6.8 0 1.9-.4 4.2-1.5 3.8-2.3 9.9-7.6 22.8-15.5 5.7-3.4 12.5-7.6 21.2-11.4 3.4-1.1 6.8-2.3 10.2-3 22-4.6 45.5-.4 67.9 3.8 20.5 3.8 45.5 8 66.4 4.2.4 0 9.9-2.3 9.1-1.9h.8c.4 0 .4.4.4.8v.4c0 .8 0 1.5.4 2.3 1.6 29.2-38.2 74.7-90.9 75.5z"/></g></svg>