<svg id="Layer_1" enable-background="new 0 0 135 135" height="512" viewBox="0 0 135 135" width="512" xmlns="http://www.w3.org/2000/svg"><g><path d="m129 29.1c-.4-.1-.7-.1-1.1-.1-.2 0-.4 0-.5 0h-.3c-.9.1-1.8.2-2.7.3-11.2 1.3-21.2 4.4-30.3 8.7-2.7 1.3-5.1 2.6-7 3.8-1.1.7-2.1 1.3-2.9 1.9-.3-.2-.5-.4-.8-.5-.7-.4-1.4-.6-2-.7 2.3-14.4-5.4-27.7-15.5-38.2-.3-.3-.6-.6-.9-.9l-.4-.4c-.3-.3-.6-.5-.9-.7-1.4-.8-3.1-.7-4.4.1-.6.4-1.2.9-1.6 1.5-.2.3-.4.6-.5 1-.1.2-.1.4-.2.5v.2c-.2.9-.4 1.7-.6 2.6-2.5 10.9-3 21.3-2 31.4.2 1.9.5 3.7.7 5.3-.2.1-.5.2-.8.3-.9.4-1.8 1-2.6 2.1-12.7-6-27.8-3.3-40.9 1.8-.8.3-1.6.6-2.4 1-1.4.5-2.6 1.9-2.8 3.4-.3 1.5.3 3.2 1.5 4.2l.2.2.2.1.3.2.6.4 1.2.8c6.2 4.2 13.3 7.9 20.1 10.5 3.4 1.3 6.7 2.3 9.7 3.1.1 0 .2.1.3.1-1.5.2-3.4.7-5.5 1.7-2.5 1.2-5.1 3.2-7.5 6-2.4 2.7-4.5 6.1-6.4 9.6 0 .1-16.8 30.6-17.5 33.1-1.6 6.2 3 10.5 7.2 9.6 2-.5 3.2-1.4 4.3-2.2 7.4-5.7 8.4-11.9 13.4-17.5 2.9-3.3 6.3-5.8 9.9-8.3 1.5-1 2.5-1.6 3.2-2-.2 2-.3 4.2-.2 6.5 0 2.6.6 10.3 1.3 11.9.7 1.5 2.1 2.4 3.5 2.5.7.1 1.5 0 2.1-.3 2.5-.9 12.7-10.7 18.5-18.7 2.1-2.8 3.9-5.6 5.4-8.2s2.8-5 3.7-7.1c.2-.5.4-1 .6-1.4.4-.1.7-.3 1.1-.4 1-.5 1.8-1.2 2.5-1.9.1.3.2.6.4 1 1 2.3 2.9 5.8 6.9 9.9 10.9 11 29.7 14 31.4 13.8 1.6-.2 2.9-1.3 3.5-2.6.3-.7.5-1.4.4-2.1 0-2.4-5.9-14.9-11.9-23.5-2-2.8-4.1-5.4-6.1-7.7-2-2.2-3.9-4.2-5.6-5.7-.8-.7-1.4-1.3-2.1-1.9.2-.8.3-1.7.3-2.5.7 0 1.6 0 2.7-.2 2.5-.4 6.4-1.2 11.3-3.9 9.4-5.2 15.8-14.1 20.6-23.7.2-.4.4-.7.5-1.1l.3-.6c1.5-2.6-.3-5.4-2.9-6.1zm-69-20c.2-.8.5-1.7.7-2.5l.1-.3c0-.1 0-.1 0-.1 0-.1 0-.1.1-.2s.2-.2.3-.3c.2-.1.4-.1.5 0v.1l.4.4c.3.3.5.6.8.9 2.1 2.3 4 4.5 5.5 6.5 6.7 8.8 10.4 18 9.9 29-.9.2-1.8.5-2.5.8-1 .5-1.8.9-2.5 1.3-1.5.8-2.7 1.3-3.8 1.4-1 .1-1.8-.2-2.7-.7-.8-.6-1.8-1.3-2.8-1.7-2-.8-3.7-.9-4.9-.8-1 .1-1.7.4-2.2.6-.8-11.6.2-23.1 3.1-34.4zm-29.3 58.1c-6.5-2.8-13.2-6.6-19.1-10.9l-1.1-.8-.5-.4-.3-.2-.1-.1c-.2-.2-.2-.4-.2-.6.1-.2.2-.4.4-.4 13.3-5 26.7-8.5 40.5-3.5-.1.7-.2 1.4 0 2.2.6 3.7 4.4 5.3 1.5 10.5-1 1.9-2.5 3.8-3.5 6.4-.4 1.1-.6 2.4-.5 3.8-4.5-1.3-10.6-3.1-17.1-6zm11.1 29.5c-.3 1.4-.6 2.8-.8 4.3-.4 0-.9 0-1.5.2-.9.2-2 .7-3.3 1.3-4.1 2.1-8.1 4.8-11.3 8.3-5.5 5.9-6.3 11.7-13 16.8-4.5 3.4-6 .2-5.2-3.1.7-2.7-.5 1.2 16.2-32.8 1.8-3.6 3.6-6.8 5.6-9.5s4.3-4.7 6.5-6c2.2-1.4 4.1-2 5.5-2.4.5-.1.8-.2 1.2-.3 2.1.5 4.1.9 5.8 1.1.3 0 .5.1.7.1.5 1.1 1.3 2.1 2.3 2.9.4.3.8.5 1.2.7-1.8 1.8-4.3 4.5-6.6 9-1.3 2.6-2.5 5.7-3.3 9.4zm3.6 23.3-.1-.7c-.4-3.1-.7-6.5-.7-9.7-.1-4.6.3-8.6 1-12s1.7-6.2 2.8-8.6c2.2-4.7 4.4-7.4 5.9-9.2.2-.2.4-.5.6-.7h.2c1.7 0 3-.8 4.5-1.6 1.2-.7 2.2-1.2 2.9-1.2s1.4.5 2 1.4c.3.4.6.9.8 1.5 1 2.4 1.3 8.1 6.4 9.4.8.2 1.5.3 2.3.2-10 16.8-28.1 33.6-28.6 31.2zm29.9-35.3c-.8.4-1.8.6-2.7.4-2.8-.6-2.9-4.4-4.1-7.1-.3-.7-.7-1.4-1.2-2.1s-1.1-1.3-1.9-1.9c-.8-.5-1.8-.8-2.8-.8s-1.9.3-2.7.7c-.7.3-1.4.8-1.9 1.1-1.9 1.3-3.6 1.9-5.7.5 0 0-.1-.1-.1-.1-1.7-1.3-2.1-3.1-1.4-5.1.6-2.1 2-4 3.1-6.2 3.2-6.6-1.2-8.8-2-11.8-.1-.5-.2-.9-.1-1.4 0-.9.4-1.8.8-2.5.1-.1.2-.3.3-.4.6-.8 1.3-1.5 2-1.9.2-.1.4-.2.5-.3.8-.4 1.4-.5 1.8-.5h.1c6.9 0 6.6 2.7 10.1 3.9.8.3 1.7.4 2.7.4 3-.1 5.7-2 7.5-2.7 2.1-.9 4.6-1.2 5.3 1.2.2.8.1 1.9 0 3.1-.8 10.9 4.8 8.5 7.9 10.3.9.5 1.7 1.5 2 2.6s.2 2.3-.5 3.4c-2.2 3.6-6.8 1.2-11.3 4-.7.4-1.4 1-1.9 1.8s-.9 1.7-1 2.6c-.2 1.8.2 3.1.1 4-.3 1.9-1.3 4-2.9 4.8zm32.4-.5c6.9 11 10.2 21.1 10.4 21.6v.1.2c0 2.6-20.6-4.2-28.9-11.9-3.8-3.5-5.6-6.5-6.9-8.5-.6-.9-1-1.7-1.3-2.3.5-1.2.7-2.4.8-3.6 0-1.6-.2-2.9-.1-3.6.1-.4.2-.6.3-.8.2-.2.4-.5.8-.7.7-.4 1.6-.7 2.6-.8 2.1-.3 4.9-.2 7.2-1.6 1.2-.7 2.2-1.7 2.8-2.8.2-.3.3-.6.5-.8 3 3.3 7.6 8.7 11.8 15.5zm20.6-50.1c-.2.4-.4.7-.5 1.1-6.8 13.2-14.8 22.4-29 26.7-1.1.3-1.9.5-2.5.7-.7-2-2.1-3.6-3.8-4.6-4.3-2.5-6.7.8-6-6.4.1-1.3.2-2.7-.1-4.3-.2-.9-.6-1.8-1.2-2.6 13-6.3 25.2-10.2 39.7-11.5.9-.1 1.7-.1 2.6-.2h.3c1.4-.3.5 1 .5 1.1z"/></g></svg>