<svg id="Layer_1" enable-background="new 0 0 512 512" height="512" viewBox="0 0 512 512" width="512" xmlns="http://www.w3.org/2000/svg"><g><path d="m485.1 223c-3-2.7-5.7-4.6-8-6.8-1.9-1.9-3.4-4.2-4.2-7.2-2.3-6.1-2.3-14.4-4.2-24.3-8.7-42.5-45.1-76.6-86.1-79.3-11-.8-22 .8-32.2 5.3-7.2 3.4-13.7 7.6-19.3 12.5 0-1.1 0-2.3-.4-3.8-.8-6.8-2.3-17.4-7.6-31.9-6.8-18.6-18.6-37.9-34.5-52.7-5.7-5.3-12.5-10.6-20.9-15.2-4.2-2.3-8.7-4.6-14.4-6.1s-12.9-1.5-19 1.5-10.2 7.6-13.3 11.8c-8.3 11-38.3 63.7-49.7 92.2-1.9-1.1-3.8-2.3-6.1-3.4-5.3-2.7-11.8-5.3-18.2-6.8-26.2-5.7-55.8 1.9-73.2 24.7-1.5 1.9-3 4.2-4.2 6.4-2.7 4.6-4.2 9.1-5.7 13.7-1.5 4.2-3 8.3-4.9 11.8-1.9 3.4-4.2 6.1-7.6 8.7-3.4 2.7-7.2 5.3-11.4 8.7s-8 6.8-11.4 11c-6.8 8-12.5 17.4-15.9 27.3-3.8 10.6-5.3 21.2-5.3 31.1 0 10.2 2.7 20.5 6.4 29.6 7.6 18.6 21.2 32.6 36 41.3s30 11 42.5 12.1c12.1 1.1 22.4 1.1 28.8 1.5h.4.4.4 1.1 2.3c1.1 0 1.9 0 2.7-.4 0 .4.4.8.4 1.1 2.3 5.7 6.1 10.6 10.6 14.4 32.6 27.3 61.1 7.6 54.2 44.8-1.1 5.7-2.3 11.8-2.7 18.2-1.1 9.1-.8 19 1.5 28.4-2.3 1.5-5.7 3.8-9.9 7.6-3 2.7-6.8 6.4-11.4 11-14.4 13.7-22.8 18.6-44.4 20.9-23.5 2.3-90.3-1.9-90.3-3.8v-1.1l.4-2.3c3-17.8 4.6-32.6 13.7-65.6 3-11 6.4-21.2 10.2-30.3s8-16.7 12.5-22.4c8.7-11.8 17.8-15.5 17.1-16.7 0-.4-2.7 0-6.4 1.9-4.2 1.9-9.5 5.3-15.2 11s-11 13.3-15.9 22.8c-4.9 9.1-8.7 19.7-12.9 30.7-7.3 21.7-13 43.7-17.9 72.1-.4 3-.8 5.7-1.1 8.7l-.8 4.2v.4h.4 1.1c125.5 16.3 139.2 3 168.4-33.8 1.9-2.7 3.8-4.6 4.9-6.4.4.4.4 1.1.8 1.5 6.1 12.1 16.7 21.6 29.2 26.9 21.6 9.1 49.7 4.2 71.3-5.3 18.6-8.3 33.8-20.9 43.6-34.9 2.3 1.9 5.7 4.2 9.5 6.8 39.8 26.5 89.5 32.2 116.1 23.5 2.7-.8 6.1-2.3 8.7-5.3 2.7-3 4.2-7.2 4.6-10.2 1.5-20.9-33.4-94.4-58.8-110h.8c11-.8 24.3-3 39.1-9.9 50.7-23.1 57.5-83.4 25.3-112.2zm-253-187.7c2.7-3.4 5.7-6.1 8.7-7.2 5.3-2.3 12.9.4 19.7 4.6 32.2 18.6 48.5 53.1 59.5 89.1 1.5 4.6 2.3 7.6 3 9.5-6.1 6.4-11.4 12.9-16.3 19.3-14.8 18.6-26.9 38.3-35.7 60.7-5.3 13.3-8.3 25.4-9.9 34.1-.4 0-.4 0-.8 0-4.6-.4-8.3-.4-12.9 0s-8.7 1.5-13.3 3c-3 1.1-5.7 2.7-8.3 4.6.4-10.6.4-20.9-.4-30.3-.8-10.6-2.7-23.1-6.8-37.9-4.6-14.8-12.1-31.5-26.2-47.4-4.9-5.3-11-10.6-17.8-15.5 7.8-11.2 47.6-74.9 57.5-86.6zm231.4 419.4c0 .8 0 1.1-.4 1.5s-1.1 1.1-2.7 1.5c-19 7.2-59.9 7.2-108.5-15.2-4.2-1.9-7.6-3.4-10.6-4.9.4-.8.8-1.1 1.1-1.9 4.2-7.6 7.6-15.5 9.1-23.5 4.9-28.8-11.4-44-2.3-55 2.7-3.4 6.8-6.1 11.4-8.3 4.6-2.3 9.5-4.6 14.8-7.2 3.8 1.1 5.7 1.5 8.3 2.3.8.4 1.9.4 2.7.8 3 .4 1.5.4 7.2.8 3.4.4 7.2.8 11.8.8h8.3c-2.6 3.3 52.4 82.5 49.8 108.3zm-10.3-131.6c-12.5 6.1-24.3 8.7-33.8 9.9-9.9 1.1-17.8 1.1-25 1.1-3.4 0-6.8.4-8 0-.4 0-.8 0-1.1 0 1.5-1.9 3-3.8 4.2-6.1 6.4-15.9 1.9-30.7-9.5-43.2-17.4-18.2-45.1-23.5-70.2-21.2-4.9.4-8.3 1.1-9.9 1.5-1.5.4-2.7.4-3 .4-.8 0-1.1.4-1.5.8s-.8.8-.4 1.5c.4.8 1.5 2.3 4.6 3 2.7.8 6.1.8 10.6 1.1 70.9 5.7 78.9 45.1 58.8 56.5-3.8 2.3-8.7 4.2-14 6.8-5.3 2.7-11.4 6.1-16.7 12.1-15.5 17.8 3 37.2-1.1 61.4-1.1 6.4-3.8 12.5-7.2 18.6-7.6 13.3-21.6 26.2-39.4 34.1-17.4 8-41.7 12.9-59.5 5.7-9.5-3.8-17.4-11-22.4-20.1-4.9-9.1-5.7-20.1-4.9-31.5.4-5.7 1.1-11.4 2.3-17.4 7.2-48.5-31.5-31.9-59.9-54.2-3.8-3-6.8-6.4-8.3-10.2-1.1 0-1.1-1.1-1.5-1.9l-.8-3.4c-.4-2.3-.4-4.6-.4-6.8 0-9.1 2.7-17.4 7.2-24.3 4.2-6.8 10.2-11.8 16.3-15.2 6.1-3 12.5-4.9 18.2-6.1 5.7-1.1 10.6-1.5 14.8-1.9 8.3-.8 12.9-1.1 12.9-1.9 0-.4-4.6-1.1-12.9-1.5-4.2 0-9.5 0-15.5.8-6.1.8-12.9 1.9-20.1 5.3-7.2 3-14.4 8.7-20.1 16.3-5.3 7.6-9.1 17.4-9.5 28.1 0 2.7 0 5.3.4 8 .4 1.5.4 2.7.8 4.2 0 .4.4.8.4 1.5-.8 0-1.1 0-1.9-.4-.8 0-1.5 0-2.3-.4-.4 0-.4 0-.8 0-.4-.4-.4-.4-.8-.4h-.4c-7.2-1.5-16.7-2.3-28.8-4.2-11.8-2.3-25.8-5.3-38.7-13.7s-24.4-21.5-30.5-37.8c-9.9-27.3-2.7-55.8 14.8-75.1 3-3.4 6.4-6.4 9.9-9.1 3.4-2.7 7.6-5.3 11.8-8.7s8.3-7.6 11-12.5 4.6-9.5 6.4-13.7c8.3-23.1 25.8-34.9 49.7-36 37.2-1.9 65.6 30 77.7 66 4.6 13.3 6.4 25 7.6 34.9 1.9 14.8 2.7 27.3 3.8 38.7-1.1 1.9-2.3 3.4-3 5.3-6.4 14.8-2.3 34.5 11.8 46.6 20.1 17.8 51.6 17.4 67.5-4.6 3-4.2 4.6-7.6 5.3-10.6 1.9-6.1 1.1-9.5.4-11.4-.8-1.5-1.9-1.9-3-1.9s-2.3 0-3 1.1c-1.1 1.1-1.9 3.8-4.6 7.6-1.1 1.9-2.7 4.6-5.3 6.8-24.7 26.5-65.6-1.9-55.8-28.4 4.9-12.9 19.3-17.4 33-17.1 6.4 0 12.9 2.3 17.8 5.3 5.3 3 9.1 6.8 11.4 10.6 5.3 7.6 4.9 14 6.4 14 .4 0 1.1-1.5 1.5-4.6.4-3-.4-7.6-2.3-12.5-2.3-4.9-6.1-10.6-11.8-15.2-5.3-4.2-11.8-7.2-19.3-8.7 2.7-7.6 6.1-17.8 12.9-32.2 9.9-20.5 22-38.7 37.9-56.9 5.7-6.4 11.8-13.7 18.6-19.7 6.8-6.1 14-11.8 22.4-14.8 8.3-3.4 17.4-4.2 26.5-3.4 34.9 3.4 65.6 33.8 72.4 69.4 1.5 7.6 1.5 16.7 4.6 26.2 1.5 4.6 4.2 9.5 7.6 12.9s6.4 5.7 8.7 8c22.8 20.6 20.1 67.6-22 88.8z"/></g></svg>