<svg id="Layer_1" enable-background="new 0 0 135 135" height="512" viewBox="0 0 135 135" width="512" xmlns="http://www.w3.org/2000/svg"><g><path d="m125 54.9c-.8-.2-1.6-.1-2.3.3-.4.2-.7.4-1.1.7l-.5.4c-1.3.9-2.6 1.7-3.8 2.5-4.2 2.5-8.3 4.2-12.8 5.6 1-1 2-2.2 3-3.7 1.6-2.3 3.2-5.2 4.2-8.9.5-1.9.8-3.9.8-6.1.1-2.2-.2-4.6-.9-7-.7-2.6-1.8-5.4-3.3-8.3s-3.4-5.9-5.6-8.6c-4.5-5.6-10.6-10.4-16.8-13.3-.3-.1-1.1-.5-1.7-.8-.6-.2-1.2-.3-1.8-.1-1.2.4-1.5 1.7-1.7 3-.1.5-.2.9-.2 1.3-.2-.4-.4-.7-.7-1.2-.9-1.3-2.2-3-4.3-4.9-.6-.5-1.3-1.1-2.2-1.6-.4-.3-.9-.5-1.4-.8-.5-.2-1-.5-1.9-.7-.4-.1-.9-.1-1.4-.1-.5.1-.9.2-1.2.4-.7.3-1.1.6-1.6.9-.9.6-1.7 1.3-2.5 2.1-1.5 1.5-2.5 3-3.1 4.2-.2.5-.4 1-.5 1.3-.7-1-1.5-2-2.3-3-.6-.7-1.2-1.4-1.8-2.1-.3-.4-.6-.7-1-1.1l-.5-.5-.1-.1-.2-.2c-.2-.2-.3-.3-.5-.4-1.4-1-3.5-1.1-5.1-.1-.4.2-.8.6-1.1.9-.7.8-.3.3-1.7 1.9-8.3 9.3-17.1 23.8-17 37 0 4.2.8 8.3 2 12 2 5.9 5.2 10.7 8.4 14.1-1.2-.2-4.5-.4-8.6-2.4-2.6-1.2-5.5-3.1-8.5-5.5-1.1-.9 3.8 3.1-10.2-8.4l-.9-.4c-.2-.1-.3-.2-.5-.2-.1 0-.3 0-.4 0-.6 0-1.3.2-1.8.7-.3.2-.5.5-.6.8-.2.3-.2.5-.2.9 0 .7-.1 1.4.1 2.3.2 1 .4 2 .5 3.1 6.6 35.4 29.9 42.6 48 31 2-1.3 3.4-2.7 4.2-4.1s1.2-2.5 1.3-3.4c.5.1.9.3 1.4.4-.3 3.6-.3 12.5-.7 22.8-.1 3.4-.3 6.9-.5 10.4-.1 1.8-.3 3.6-.2 5.6.1 1 .2 2 .5 3s.8 2.1 1.4 2.9c.6.9 1.5 1.7 2.4 2.3 1 .6 2.1 1 3.3 1.1s2.3-.1 3.3-.5 1.9-1 2.6-1.7c1.5-1.4 2.3-3.3 2.7-4.9.4-1.7.5-3.2.5-4.5.1-9.4.2-16.4.1-21.8-.1-3.9-.3-9.3-1-13.2.8.9 2 2 3.7 3.1 1.9 1.3 4.4 2.5 7.4 3.3s6.4 1.2 9.9 1c3.6-.2 7.3-1.1 10.7-2.7 3.5-1.6 6.6-4 9.1-6.7 5.2-5.4 7.9-12.1 9-17.4.3-1.3.5-2.7.7-3.9.1-.6.1-1.3.2-1.9 0-.7.1-1.5.1-2.2.2-2.1-1.2-3.6-2.8-3.9zm-42.9-39.5c.3-1.4.7-2.9 1.1-4.4.1-.2.1-.6.4-.7.1 0 .3.1.4.1.2.1.1.1.6.3 5.6 3.3 11.1 8 15.1 13.3s6.7 11.1 7.9 15.7c.5 2.1.8 4 .8 5.9s-.2 3.6-.6 5.2c-.8 3.2-2.1 5.7-3.4 7.8s-2.7 3.7-3.9 5-2.2 2.3-3.5 3.6c.3-.7.6-1.5.8-2.4.2-.8.1-1.6.2-2.4 0-.4 0-.9 0-1.3s-.1-.9-.1-1.4c-1.1-11.5-10.5-23.5-19.5-30.8.4-1.1 1-3.2 1.8-6 .5-2.1 1.2-4.6 1.9-7.5zm12.3 55.5c-.2-.2-.5-.2-1.3.4-.4.3-.9.9-1.8 1.6-.8.8-1.9 1.8-3.4 2.9-1.5 1.2-3.5 2.5-6.1 3.6-1.3.6-2.8 1.1-4.5 1.5-1.7.3-3.5.7-5.6.6-9.3.2-24.7-6.2-24.9-16.5 0-1.8.2-3.8 1-5.8 4.2-11.7 12.9-24.6 18.9-30.4.9-.9 1.8-1.4 2.6-1.4.9 0 2 .6 3.2 1.3l1.8 1.1c.6.4 1.1.8 1.7 1.2 8.9 6.7 18.4 17.9 20.2 28.9.1.4.1.9.2 1.3 0 .4 0 .8.1 1.2 0 .8.1 1.5 0 2.2-.1 1.3-.5 2.5-.9 3.4-.2.3-.3.7-.4.9-.3.4-.6.7-.7.9-.4.6-.3.8-.1 1.1zm-29.2-62.8c.7-.5 1.5-1 2.4-1.4.4-.2.9-.4 1.1-.5.3-.1.2 0 .4 0 .2.1.5.2.8.5.3.2.7.4 1 .7.6.5 1.2 1 1.7 1.4 1.8 1.6 3.1 3.1 4 4.2 1 1.1 1.6 1.8 2.2 2.3.3.3.6.5.8.6-.4 2.5-.8 4.9-1.1 6.8-.4 2.7-.7 4.7-.8 5.9-.6-.4-1.1-.9-1.7-1.3l-1.9-1.3c-.6-.4-1.3-.8-2.1-1.2s-1.7-.7-2.7-.7c-1-.1-2.1.2-3 .7-.4.2-.7.4-1 .6 0-.1 0-.3 0-.4-.3-2.9-1.3-7.2-4.9-12.4-.1-.1-.2-.2-.2-.3 1-.7 2.6-2.6 5-4.2zm-33.4 35.5c.5-12.3 9.4-26 16.7-34.3.4-.4.7-.8 1.1-1.2l.5-.6.2-.2c.2-.2.6-.1.8 0 0 0 .1 0 .1.1l.1.1.5.5c.9.9 1.6 1.7 2.7 3s2.1 2.5 2.9 3.6c3.4 4.6 4.5 8.2 5.1 10.7 1.4 6.2-9.4 7.5-18.6 32.6-.9 2.4-1.3 5-1.2 7.3.1 2.2.7 4.3 1.5 6.2.5.9 1 1.8 1.6 2.6-1-.8-2.2-1.9-3.5-3.2-3.4-3.4-7.3-9.1-9.3-16.1-.9-3.5-1.4-7.3-1.2-11.1zm25.8 42.1c-.8.9-1.9 1.9-3.6 2.9-17.4 9.6-36 3.5-43.4-31.3 0-.2-.2-.4 0-.6.1-.1.2-.1.3-.1.8.2 10.7 9.3 18.9 12.3 2.9 1.1 5.4 1.4 7.1 1.4 1.2 0 2-.1 2.4-.3.7.7 1.5 1.4 2.2 2 17.4 14.7 20.1 8.6 16.1 13.7zm16.8 13.3c-.1 5.3-.3 12.4-.4 21.7-.1 2.4-.3 5-2 6.6-.8.8-1.9 1.3-2.9 1.3s-2.1-.7-2.9-1.7c-.4-.5-.7-1.1-.9-1.8s-.4-1.4-.4-2.2c-.1-1.6 0-3.3 0-5.2.1-3.6.1-7.2 0-10.6-.2-10.2-.8-19-1.4-22.7 2.9.7 5.7 1 8.3.9 1 0 1.9-.1 2.9-.2-.1.7-.1 1.5-.1 2.5-.1 2.6-.1 6.1-.2 11.4zm49.5-39.8v.4.8c-.1.6-.1 1.1-.2 1.7-.1 1.1-.3 2.3-.6 3.5-1 4.7-3.4 10.8-7.8 15.7-2.2 2.4-4.9 4.7-7.9 6.2s-6.3 2.5-9.5 2.9c-5.8.7-11.5-.4-16.2-2.8-2-1.1-3.5-2.1-4.5-2.9.3-.1.7-.1 1-.2 1.9-.6 3.6-1.2 5-1.9 2.9-1.5 5-3.1 6.5-4.5s2.5-2.6 3.2-3.6c.7-.9 1.1-1.7 1.3-2.2.3-.7.3-1 .2-1.2.2.1.4.2.9.1.7-.2 1.9-.7 3.9-2.2.5-.3 1-.7 1.5-1.1.6 0 1.2 0 2.1-.2 2-.3 5-.8 9.2-2.3 2.1-.8 4.5-1.8 7.1-3.3 1.3-.7 2.7-1.6 4.1-2.6l.7-.3c0-.1 0-.1 0 0z"/></g></svg>