<svg id="Layer_1" enable-background="new 0 0 512 512" height="512" viewBox="0 0 512 512" width="512" xmlns="http://www.w3.org/2000/svg"><g><path d="m485.8 216.2c-6.1-11.4-13.7-20.1-19.7-25.4-1.5-1.1-3-2.7-4.2-3.4-1.5-.8-2.7-1.5-3.4-2.3-1.9-1.1-3.4-1.5-3.4-1.1s.4 1.5 1.5 3.4c.8.8 1.5 1.9 2.3 3s1.9 2.7 3 4.2c4.6 6.1 10.2 15.2 14.4 25.8 12.5 30.7 9.5 70.9-12.5 95.2-5.7 6.1-10.6 9.1-13.7 11-2.3 1.5-4.2 2.7-5.3 3.4-6.4-4.2-17.8-10.2-37.2-19.3-13.3-5.7-33.8-15.2-51.2-22.4-9.1-3.8-17.8-7.6-23.5-9.5 3.8-11.4 5.3-25 1.9-40.2-1.8-7.6-4.8-15.6-9.8-23.2 5.3 0 16.3-1.1 28.4-3.4 17.4-3 37.9-8 50.4-11.8 23.1-7.2 34.9-12.1 40.2-15.5 2.7-1.5 4.2-3 4.6-4.2 1.1 2.3 2.3 2.7 3.8 2.7 1.9 0 4.2 0 5.7-9.5.4-4.6.8-11.8-1.1-21.6-8-41.3-38.3-72.1-76.2-82.7-6.1-1.9-12.1-2.7-17.8-3.4-5.3-.8-10.6-.4-14.8.4s-7.6 2.3-9.5 3.8-2.7 2.7-2.3 3c.8 1.1 4.9-1.5 12.5-.8 3.8.4 8 .8 12.9 2.3 4.9 1.1 10.2 3 15.5 5.3 30.3 12.5 55 37.5 66 75.5 2.3 8.7 3 14.8 4.2 19v.8c-1.1-.8-3-1.1-6.4-.8-6.4.8-18.2 3.8-41.3 11-12.5 3.8-32.2 10.2-48.9 15.9-12.5 4.6-23.1 8.3-27.7 11-5.7-8-13.7-15.5-23.1-20.9-10.6-6.1-24.3-10.6-39.1-11.8-14.8-1.1-31.5 1.1-46.3 9.1-7.6 3.8-14.4 9.1-20.1 15.2-12.5 12.9-18.6 29.6-17.8 47 1.1 23.1 14 45.1 31.5 58.8 4.2 3.4 8.3 6.1 12.9 8.3-3.4.8-8.3 8.3-20.9 41.3-8.7 23.5-24.3 74.7-20.1 76.2s25.8-47.4 34.5-70.9c11.4-31.1 13.3-40.6 11.8-44 4.6 1.9 9.5 3.4 13.7 4.6 9.9 1.9 18.2 1.9 23.5.8s8.3-2.3 8.3-2.7c0-.8-3-.4-8.3-.4s-12.9-.8-22-3.4c-4.6-1.5-9.1-3.4-13.7-6.1-4.9-2.7-9.5-6.1-14-10.2-9.1-8-17.1-19.3-21.6-32.2-4.6-12.9-4.9-27.7.4-40.6s16.3-23.1 28.4-29.2 26.2-8 38.7-6.8c12.5 1.1 23.9 4.9 32.6 9.9 15.9 9.1 24.7 23.5 28.1 36.8 3 13.7 1.5 26.2-1.9 35.7-3.4 9.9-8.7 17.1-14 22.4s-10.2 8.7-14.4 11.8c-8.3 5.3-13.3 7.2-15.9 8.7-2.7 1.5-2.7 2.7-2.3 3.4.4 1.1.8 1.9 3.8 2.3 2.3 0 5.7 0 11-1.5.8 5.3 3.8 15.9 8 28.4 5.7 17.1 12.5 37.2 17.1 49.7 8.7 23.1 13.3 34.5 16.7 40.2.4.4.4.4.4.8-2.7 3-6.4 7.2-12.1 12.1-6.8 5.7-16.3 12.9-30.7 18.2-21.6 7.6-45.1 6.4-64.9-1.5-10.6-4.2-19.7-10.6-26.5-14.8s-11.4-6.4-12.1-5.7c-.8.8 2.7 4.6 8.3 10.2 5.7 5.7 14 13.7 25.4 19.7 22.4 12.1 50.8 14.8 74.7 6.4 17.4-6.1 28.1-15.2 35.3-22.4 6.4-6.4 9.9-12.1 12.1-16.3h.4c52 4.2 110.7-25 117.9-78.5.8-5.7.4-10.6-.4-14.8-1.5-8.3-5.3-12.5-6.1-12.1-1.1.4.4 5.3 0 12.5 0 3.8-.8 8-2.3 12.5-15.9 53.5-66.4 60.3-107.7 69-.4-.4-.8-.8-1.5-1.1-.4-.4-.8-.4-1.1-.4-1.1-6.8-4.6-19-12.5-39.8-4.9-12.9-13.3-32.2-21.6-48.2-5.7-11.4-11.4-21.2-14.8-25.4 1.5-.8 3.4-1.1 5.3-2.3 5.3-2.3 11.4-6.1 17.8-11.8s13.3-13.7 17.8-25c4.9 3.8 12.5 8.7 20.9 13.7 16.3 9.9 36 20.9 48.9 27.3 47.4 22.8 50.1 19.7 51.6 15.9.4-1.1.8-1.9.4-3.4h1.1c4.9-1.1 11.8-3.8 19.7-11 3.8-3.8 8-8.3 11.8-14.4 1.9-3 3.4-6.4 5.3-9.9 13-27.6 9.2-61.3-3.7-85.6z"/><path d="m59.5 322.4c-35.7-42.5-45.5-81.9-5.7-131.6 2.7-3.4 4.9-6.1 6.8-8.7.8-1.1 1.5-1.9 2.3-2.7.4.4.8.8 1.1 1.1 4.9 3.8 14.8 9.5 36 17.8 11.4 4.6 30.3 10.2 46.3 13.3 8 1.5 14.4 3.4 19.3 5.3 4.9 1.5 8 3 8.7 2.3.8-.8-1.1-3.8-5.7-7.6-4.6-3.4-11.4-7.2-19-10.2-15.2-6.1-32.6-12.9-44-17.4-20.5-8-31.1-12.1-36.8-13.3-5.7-1.1-6.8.4-8 2.3-.4 1.1-.8 1.9-.4 3.4-.4 0-.8.4-.8.8 0-2.7 0-6.4.4-11.4.8-8.7 3.8-20.5 9.9-32.6 27.7-55.8 65.2-69.8 114.2-61.1.4 0 .8 0 1.5.4 0 4.9 3.4 15.5 12.9 38.7 9.1 22 32.2 67.5 36 66 3.8-1.9-12.5-50.1-22-71.7-8.3-20.1-13.7-30-17.1-34.5.4-.8.8-1.9-.4-3-.4-.8-1.1-1.5-2.7-2.7-1.1-1.1-3-2.3-5.3-3.4-3.4-1.5-4.6 0 4.9-7.6 37.2-28.1 83.1-28.4 118.7 4.6 5.3 4.9 8.7 9.1 11.4 12.1-1.1.4-2.7 1.5-3.8 4.2-2.7 4.6-4.9 14.4-11 32.6-3 10.2-8.3 26.2-13.3 39.4-4.9 13.3-9.1 24.3-7.2 25.4s9.5-8 17.1-20.9c7.6-12.5 14.8-28.8 18.2-39.4 6.1-19.3 7.2-29.6 6.8-35.3 1.5.8 2.3.4 3.4 0s1.9-.8 2.3-2.3 0-4.2-1.9-8.3c-1.9-4.2-4.9-10.6-11.8-18.2-38.3-41.7-102-36.8-133.1 1.1-17.4 21.6-88.4-26.5-128.2 78.9-5.3 13.7-7.2 27.3-6.1 37.2.8 6.1 2.3 10.6 3.4 12.9-2.3 1.9-5.7 4.2-8.7 7.2-44.3 39-47 107.7 3.9 145.2 2.7 1.9 4.6 3 6.1 3.8l-1.1-1.5c.4.4.8 1.1 1.1 1.5.4.4.8.4 1.1.4-.4 2.3-.4 5.3-.8 8.7-.4 8.3 0 20.5 3.8 33.8 8.7 31.5 37.9 61.4 93.7 71.3 10.2 1.5 17.4 1.9 22 1.9 9.5 0 10.2-1.9 10.2-4.2.4-2.3 0-4.2-8.7-6.4-4.6-1.1-11-2.7-20.5-4.9-9.5-2.3-22-5.7-37.2-12.9-21.6-10.2-39.8-26.2-48.9-48.2-5.7-14.4-7.2-29.6-9.9-39.1.4-.4.8-.4.8-.8 1.1-1.1 1.9-2.3 0-5.7 0 0-2.3-3.8-4.2-6z"/><path d="m59.2 335.3c-.4 0-.8-.4-1.1-.8z"/><path d="m182 284.4c-1.1-1.9-2.7-3-8-1.1-5.7 1.9-15.2 7.2-36.4 15.2-11.4 4.2-30.3 11.8-45.5 18.6s-27.3 13.3-26.9 15.2c.8 1.9 14-.8 30.3-4.9 16.3-4.2 35.3-9.9 47.4-14.4 22-8.3 32.6-15.9 36.8-20.5 4.6-4.6 3.5-6.5 2.3-8.1z"/><path d="m246.9 421c2.3.4 4.2.4 5.7-3s3.4-10.2 3.8-24.3c.4-7.6-.4-19.3-2.3-29.2s-4.6-17.8-6.4-17.4c-2.3.4-3.4 8.3-4.2 17.8-1.1 9.9-1.9 21.2-2.3 28.4-.4 13.3-.4 20.1.8 23.5.7 3.4 2.6 3.8 4.9 4.2z"/><path d="m359.5 348.5c-4.6-3.8-12.1-8.3-19.3-11.4-7.2-3-13.3-4.6-14.4-2.7s3 6.4 8.3 11.8 11.8 11 15.9 14.4c7.6 6.1 12.1 9.1 14.8 9.9 3 .8 4.2-.8 5.7-2.3s2.7-3 1.5-6.1c-1.1-2.6-4.5-6.7-12.5-13.6z"/><path d="m402.8 256.4c-2.3-1.9-7.2-3.4-17.1-4.6-5.3-.4-14 0-21.2 1.1-7.2 1.5-12.9 3.8-12.5 5.7 0 2.3 5.7 3.8 12.5 5.3s14.8 2.7 19.7 3c9.1.8 14 .8 16.7-.4 2.7-1.1 3-3 3.4-4.9.4-1.4.7-3.7-1.5-5.2z"/><path d="m335.3 179c1.5 1.5 6.1 0 10.6-3 4.6-3 9.5-7.2 12.1-10.6 9.1-11.8 6.1-14.4 2.7-16.7-3.4-2.7-6.4-3.8-14.8 6.8-2.3 3-5.7 8-8 12.5-2.3 5.3-4.2 9.5-2.6 11z"/><path d="m262.1 70.5c-2.3-.4-4.2-.4-6.1 3.4s-3.8 11.4-4.6 26.5c-.4 8.3 0 21.6 1.5 32.2 1.5 11 4.2 19.7 6.4 19.3 2.3 0 3.4-9.1 4.6-19.7 1.1-10.6 2.3-23.1 2.7-31.5.8-14.8 1.1-22 0-26.2-.4-3.2-2.3-3.6-4.5-4z"/><path d="m151.7 147.2c-9.5-6.8-12.9-10.2-15.5-11.8-2.7-1.5-4.6-1.1-6.4 0-1.9 1.1-3.8 1.9-3 5.7 0 1.1.8 2.3 1.1 3.4.8 1.5 1.5 3 2.7 4.6 2.7 3.4 6.4 7.2 11.8 11 6.1 4.2 15.9 8.7 23.1 12.9 3.8 1.9 7.2 4.2 9.5 5.7s4.2 2.3 5.3 1.9c.8-.8.8-2.7-.8-5.7-1.5-3-4.2-6.8-7.6-10.2-5.8-7.7-14.9-13.8-20.2-17.5z"/><path d="m145.3 253.3c0-4.2-30.3-7.6-44.8-7.6-25.8 0-26.2 3.4-26.5 8 0 4.2.4 7.6 26.5 7.6 14.4 0 44.8-3.8 44.8-8z"/><path d="m161.6 337.9c-6.8 3.8-14.4 9.1-18.6 13.3-7.6 7.6-10.6 12.5-11.4 15.5s.8 4.2 2.3 5.7 3.4 2.3 6.1 1.1c2.7-1.1 6.4-4.6 13.7-11.4 3.8-3.8 9.5-10.2 14.4-15.9s8.7-10.6 7.6-12.1c-.9-1.5-6.9.4-14.1 3.8z"/></g></svg>