<svg id="Layer_1" enable-background="new 0 0 512 512" height="512" viewBox="0 0 512 512" width="512" xmlns="http://www.w3.org/2000/svg"><g><path d="m442.2 10.6-2.3.4c-10.8 2-46.6 9.9-60.7 19.3-19 10.2-36 26.5-45.5 45.1-4.9 9.1-7.6 19-9.1 27.7-1.1 8.7-1.1 17.1-.4 23.5.8 4.6 1.5 8.3 2.3 11.4 0 .4-.4.4-.4.8-2.7 5.7-5.3 12.1-8 18.6 0-.4 0-.8 0-1.5-1.9-53.1-44.4-93.7-93.7-113.4-2.5-1.1-5.3-2.2-8-3-.8 0 0 0-2.3-.8-1.5-.4-3.8 0-5.3.4-8.8 3.4-7.1 14.8 0 19 24.7 21.2 51.2 47.8 60.3 78.9 3.4 12.1 3.8 24.3 1.5 34.9-2.7 10.6-6.4 21.6-4.9 31.5s7.6 15.9 11.8 18.6c3 1.9 5.3 2.7 6.4 2.7-2.7 4.2-5.7 8-9.1 12.1-8 10.2-17.8 21.2-29.6 32.2-3.4 3-6.8 6.1-10.6 9.5 1.5-2.7 3-7.2 4.6-14.4 1.1-4.9 1.5-11.4 1.5-19.3-1.1-52.3-43.6-92.9-92.9-112.3-5.1-1.6-9.8-5.1-15.5-3.4-8.7 3.5-7.2 15.3.4 19 15.2 13.3 30.7 27.7 42.5 44 14.8 20.5 24.7 45.1 19 70.2-2.7 10.6-6.4 21.6-4.9 31.5 1.1 6.8 4.2 11.8 7.6 15.2-11.8 8.7-23.9 17.4-35.7 26.9-4.2 3.4-8.3 7.2-12.5 11 .4-4.2.4-9.1.4-14.4-2.3-41-21.6-58.8-49.7-85.7-11-9-20.9-22-34.5-24.7-17 .8-6.7 20.5-1.5 29.6.4.4 3 5.3 3 4.9 17.8 28.4 38.3 50.8 36.4 83.8-.4 5.3-1.5 10.2-2.7 15.5-2.7 9.9-5.3 20.5-3 29.2s8 14 12.1 16.3c.4 0 .4.4.8.4-3 7.6-4.9 14.8-6.4 22.4-3 15.5-2.3 30-.4 41.7 2.3 11.8 5.7 20.5 8.3 26.5 3 5.7 4.9 8.7 5.3 8.7 1.1-.4-5.7-13.7-8-36-1.1-11.4-.8-24.7 2.7-39.1 2.3-10.2 6.4-20.9 12.1-31.1 3.4 3.8 9.5 7.2 17.4 8 9.9 1.1 20.9-3 31.5-5.7 38.7-9.9 75.9 13.7 105.1 40.6 4.9 4.6 9.9 9.5 14.8 14 6.2 9.9 22.5 7.4 19.7-5.7-1.4-3.7-2.8-6.4-4.2-9.9-5.7-12.1-12.1-22.4-18.6-31.1-25.4-33.8-61.4-56.5-102-55.8-8 0-14.4 1.1-19.3 2.3-6.1 1.5-10.2 3-12.9 4.2 4.2-3.8 8.7-7.6 13.7-11.4 14.4-11.4 30-21.6 45.1-32.2.4-.4.8-.4.8-.8v.4c3 4.2 9.9 9.5 19.7 10.6 9.9 1.1 20.9-3 31.5-5.7 38.7-9.9 75.9 13.7 105.1 40.6 4.9 4.6 9.9 9.5 14.8 14 6.2 9.9 22.5 7.4 19.7-5.7-1.4-3.7-2.8-6.4-4.2-9.9-5.7-12.1-12.1-22.4-18.6-31.1-11.8-15.5-24.7-27.7-37.5-36-12.9-8.3-25-13.3-36-16.3-11-2.7-20.5-3.4-28.4-3.4-6.4 0-11.8.8-15.9 1.5 8.7-8.7 16.3-17.1 22.8-25.4.8-.8 1.1-1.5 1.5-2.3 1.9 1.1 4.2 2.3 7.6 3.4 7.2 2.3 18.6 3.8 33.8-.4 31.1-8.3 60.3-28.8 74.3-46.3 1.1-1.5 2.7-3 3.4-4.2 9.9-14 3.4-21.6-8.7-20.1-.8-.4-3.4 1.5-5.3 2.7-8.3 4.6-23.5 15.5-54.6 24.3-8.7 2.3-17.4 4.6-25.4 7.2-1.5.4-2.7 1.1-3.8 1.5 3.4-6.1 6.4-12.1 8.7-17.8h1.5c4.6-.4 9.9-1.1 15.9-4.2 23.9-12.1 15.9-23.1 71.3-50.8 7.2-3.8 15.2-8 23.9-12.5 5.1-3 10.9-4.5 15.2-8.7 7.2-7.1 6-19.6-2.7-25-12.1-6.5-26.4 0-38.3 3.8-11 3.8-21.2 9.1-30.3 15.2-13.3 8.3-26.2 19.7-35.3 29.2 10.2-23.1 21.2-36 29.2-44.4 17-15.9 17.4-16.6 33.4-28.4 11.7-8.6 21.4-19.5 36-27.7 4.6-2.3 9.5-4.9 12.9-7.6 10-6.5 2.8-22-9.7-21.3zm-319.3 366.4c-4.6 7.2-8.7 14.8-11.8 22.4-3-2.7-6.8-8-8-14.8-1.1-7.2 1.9-15.5 5.3-25.8 1.9-4.9 3.4-11 4.2-17.1 4.6-36.8-17.1-63.3-33.8-91.8-.1-.2-.5-.9-.4-1.1v-.4c.5-.1.2.9.8.8 30 27.3 51.6 44.4 56.9 84.2 1.5 12.1.8 20.5.4 26.2-5.3 5.2-9.4 11.3-13.6 17.4zm47.8-13.7c44.8-3.4 80.8 16.3 107.3 52 1.9 2.7 4.2 5.7 6.1 9.1-32.2-26.9-73.2-48.5-113-34.9-5.7 1.9-11 4.2-15.5 5.7-4.6 1.5-9.1 2.7-13.3 2.7-6.8 0-12.5-2.7-15.9-5.3 1.9-3 3.8-6.1 5.7-9.1 2.7-3.4 5.3-7.2 8.3-10.6l.4-.4c.4-.4.8-.8 1.1-1.5 2.3-2.7 4.6-4.9 6.8-7.2.4-.4.8-.8 1.1-.8v.8c.4 1.1.8 1.9 3.8 1.9 2.7-.9 7.6-1.6 17.1-2.4zm35.2-61.4c-1.9 1.5-3.8 2.7-5.7 4.2-2.3-3.4-4.6-8-4.9-13.7-.4-3.8.8-8.3 1.9-12.9 1.5-4.9 3.4-9.9 5.3-15.5 8.3-27.3-1.1-55.8-17.1-79.6-6.8-10.2-15.2-19.7-23.5-28.4 3.4 1.9 6.4 3.8 9.1 5.7 30.7 19.7 53.5 48.2 57.3 85 .8 6.8.8 12.5.4 17.1-.4 9.1-1.1 14-1.1 16.7s1.1 3 1.9 3.4c-6.9 5.9-14.8 11.9-23.6 18zm165 33.7c1.9 2.7 4.2 5.7 6.1 9.1-32.2-26.9-73.2-48.5-113-34.9-5.7 1.9-11 4.2-15.5 5.7-4.6 1.5-9.1 2.7-13.3 2.7-8 0-14-3.4-17.4-6.8 11.8-8.3 23.1-17.1 33.4-25.8 3-.4 6.8-.8 12.5-1.5 44.6-3.4 80.7 15.9 107.2 51.5zm-85.7-111.1c-.8-.8-2.7-1.9-5.3-4.2-3.4-3-7.2-8.7-7.6-16.7-.4-3.8.8-8.3 1.9-12.9 1.5-4.9 3.4-9.9 5.3-15.5 3.4-11.8 4.2-26.2.8-39.8-6.1-26.2-22.8-48.9-41.3-68.3 3.4 1.9 6.4 3.8 9.1 5.7 31.1 19.7 53.5 48.2 57.3 85 .8 6.8.8 12.5.4 17.1-.4 5.7-.8 9.5-.8 12.5-.4.8-.8 1.5 0 2.7v.8c-5 10.1-11.5 21.5-19.8 33.6zm31.9-4.9c15.5-4.2 34.1-4.6 61.1-15.9l3.4-1.5c.4-.4.4 0 .8-.4.4 0 .8-.4 1.1-.4 0 0 .4 0 0 .4s-.8.4-.8.8h-.4c-16.7 14.8-34.9 24.3-55.4 31.1-12.9 4.2-21.6 3.8-27.7 3.4-1.5 0-3-.4-4.2-.8 3-4.2 6.1-8.7 8.7-12.9 4.3-1.2 8.4-2.7 13.4-3.8zm64.4-97.5c14-7.6 28.4-13.3 44.4-15.9 2.7-.4 5.3-.8 8-1.1h2.3c.4 0 .4.4.8.4.4.4.8 1.1.8 1.5 0 .8 0 .8-.4 1.1 0 0 0 0-.4.4 0 0 0 0-.4 0l-.8.4c-1.1.8-2.3 1.1-3.4 1.5-2.3 1.1-4.6 2.3-6.8 3.4-61.4 31.1-55.4 27.7-80.4 53.1-2.7 3-5.3 5.3-7.6 7.6-2.3 1.9-4.9 3.8-6.8 5.3-2.3 1.1-4.2 2.3-6.1 3 3.4-8.7 6.4-16.7 9.1-23.9 1.5-1.9 3.4-3.8 5.3-5.7 8.3-8.7 26.1-22.4 42.4-31.1zm49.3-93.3c-9.5 5.7-16.1 15-21.8 19.9-5.7 5.3-56.8 39.6-78.3 81.8 0-1.5 0-2.7 0-4.2 0-12.5 3-29.6 12.9-45.5 9.5-15.9 25.4-29.6 42.5-37.9 8.7-4.2 17.4-7.6 25.8-9.5 4.2-1.1 8.3-1.9 12.5-3 1.9-.4 4.2-.8 6.1-1.1l.3-.5s.4 0 0 0z"/></g></svg>