<svg id="Layer_1" enable-background="new 0 0 135 135" height="512" viewBox="0 0 135 135" width="512" xmlns="http://www.w3.org/2000/svg"><g><path d="m103.3 38.4c-1.9-6.7-7.1-18-9.7-22.1-1.1-1.8-2.3-3.4-3.9-4.6-.8-.6-1.8-1.1-3-1.2-.6 0-1.2.1-1.7.3s-.8.4-1.1.6c-2.3 1.6-3.7 3.1-4.7 4.3s-1.5 2.2-1.8 2.8c-.1.2-.2.3-.2.5-3.3-5.4-6.4-9.7-10-14.4l-.6-.6c-.4-.5-.7-1-1.2-1.3-.9-.7-2.1-.9-3.1-.5-.5.2-1 .6-1.4 1-.2.2-.4.5-.6.7l-.3.5c-2.2 3.2-4.4 6-7.5 12.7 0-.1-.1-.1-.1-.2-1.9-3.1-4.5-6-6.4-7.6-.6-.5-1.2-1-1.9-1.5-.4.7-.8 1.4-1.2 2.2-.3.6-.7 1.3-1 2-4.8 9.2-9.8 21.9-11.5 31.6-2.3 13.2.9 24.1 12.2 31.2 7.1 4.5 15.2 5.9 23.6 5.8-1.4 5.7-2.6 22.9-2.9 29.1-1.1-1.1-2.6-2.5-4.8-4-3-1.9-7.5-4.2-13.8-5-1.6-.2-6-.6-7.4.9-1.1 1.2-1.4 3.4 0 4.6.1.1 12.2 12.6 12.3 12.7 3.4 3.1 7.3 5 10.4 5.2 1.2.1 2.2 0 3-.2 0 3.1.2 5.1.3 6.5.3 2.6.8 2.7 1.4 2.7s1.1-.1 1.5-2.6.7-7.5 1-17.3c.1-5 .5-27.7-.2-32.6 3-.1 5.9-.4 8.6-.7 6.8-.9 13.3-2.6 18.3-5.8 12.1-7.7 13.4-22.1 9.4-35.7zm-43 84.1c-2.6-.7-5.8-2.7-8.7-5.7-3.2-3.3-6-8.2-9.9-11.8l-.3-.3-.1-.1v-.1h.1.3c5.3.4 9.6 1.5 14.8 4.4 3.1 1.8 4.9 3.3 6.6 4.6-.1 3.9-.1 7-.1 9.5-.7-.1-1.7-.2-2.7-.5zm14.8-46.7c-6.6.9-13.7 1.3-20.7-.2-3.5-.8-6.9-2.1-9.9-3.9-10.2-6.2-13-15.8-11.2-27.7 1.6-10.8 6.8-23.8 11.4-33.7 1.4.9 4.4 3.5 7.1 7.1.1.2.3.4.4.6-2.9 6.4-4.9 13.3-5.9 19.9-1.5 10.4-1.1 22.1 2.3 32.4.2.5.4 1 .5 1.5.7 1.8 1.1 2.7 1.2 2.7s0-1.1-.4-2.9c-.1-.5-.2-1-.3-1.5-2-10.7-2.7-19.4-.4-31.7 2.5-13 7.5-22.7 14-31.5l.2-.3h.1l.5.7c3.9 5.3 7 9.7 10.2 15.1 3.6 5.9 6.2 11.3 8 16.3s3.2 9.3 4 13.1c1.6 7.6 1.2 12.8.7 16.3-.3 1.7-.5 3.1-.7 4.1-.1.6-.2 1-.3 1.4-3.1.9-6.8 1.7-10.8 2.2zm16.7-5.2c-1 .6-2.1 1.2-3.2 1.7.4-1 .8-2.2 1.2-3.9.5-1.8.8-4.2 1-7.1.1-2.9-.1-6.4-.8-10.5-.8-4.1-2-8.6-3.9-13.8s-4.5-10.8-8.2-16.8c.1.1 0 0 0 0h.1s.1-.1.1-.1c.2-.1.4-.3.6-.6.5-.5 1.2-1.2 2.2-2.2s2.5-2.2 4.6-3.4c.6-.4.8-.4 1.1-.4s.7.2 1.2.6c1 .8 2 2.2 2.9 3.8 9.6 16.8 17.4 42.3 1.1 52.7z"/></g></svg>