<svg id="Layer_1" enable-background="new 0 0 135 135" height="512" viewBox="0 0 135 135" width="512" xmlns="http://www.w3.org/2000/svg"><g><path d="m132 70.7c-.8-2-2-3.8-3.6-5.3-7.7-7.3-25.7-5.1-35.6-1.3-2.6 1-4.6 2-5.7 2.7-.1-1.5-.4-3-.8-4.4.1.1.3.1.5.2.4.1.9.1 1.7.1.8-.1 1.8-.1 3.1-.3 10.2-1.8 21.5-9 29-20.2.8-1.2 1.5-2.6 2.1-4.2s1-3.5.8-5.5c-.1-2-.8-4.1-2.1-5.8-1.3-1.8-3.3-3-5.4-3.6-2-.6-4.2-.8-6.3-.5s-4.1.9-5.9 1.8c-6.3 3.1-15.6 11.1-21.3 20.6-2.4 4.1-3.4 6.8-3.2 6.9-.6-.4-1.2-.9-1.8-1.2-.7-.4-1.3-.7-2-1 0 0 .1-.1.1-.1.5-.6 1.2-1.3 1.9-2.4 7-9.8 7.4-24.8 3.6-34.2-.5-1.3-1.3-2.8-2.3-4.1-1-1.4-2.4-2.6-4-3.6s-3.6-1.7-5.6-1.8c-2.1-.1-4.2.4-6.1 1.3s-3.5 2.3-4.8 4-2.1 3.6-2.7 5.5c-2.5 8.7-.8 20.3 2.3 28.9 1.3 3.5 2.5 5.8 3 6.5-.7.4-1 .7-1 .8.1.1.8-.1 2.2-.5 1.4-.3 3.5-.6 5.9-.3 10.6 1.3 17.5 11 15.4 22.6-.7 3.9-2.4 7.6-4.8 10.5-1.2 1.4-2.6 2.5-4.1 3.2s-3.2 1-4.9 1c-10.6-.1-21.7-9.9-20.6-20.5.9-8.2 7.7-12.4 9.1-13.9.6-.5.5-.8.4-1.1s-.3-.5-1.1-.3-2.4.7-4.8 2.5c-1.2.9-2.6 2.3-4 4.2-.1.2-.2.4-.4.6-1.2-.5-3-1.2-5.2-2.2-8.3-3.8-22.8-13.1-25.2-21.5-.4-1.6-.5-3.2-.2-4.7s1-2.8 2-3.7 2.3-1.6 3.7-1.9c2.7-.7 5.5-.1 7.9.8 8.4 3 17.3 9.7 22.5 17.5 1.1 1.6 1.9 2.9 2.5 4s1 1.9 1.4 2.6c.3.6.6 1.1.8 1.4.5.6.7.5 1 .5.3-.1.5-.2.5-1 0-.4-.1-.9-.2-1.7-.2-.7-.4-1.7-1-3-.5-1.2-1.2-2.8-2.2-4.6-5-8.7-14.8-16.2-24-19.5-1.4-.5-2.9-.9-4.6-1.1s-3.6-.2-5.5.3-3.8 1.4-5.4 3-2.6 3.7-2.9 5.9c-.4 2.2-.1 4.4.5 6.4 3.1 9.7 18.5 18.8 28.1 22 2.2.7 4 1.2 5.3 1.5-.4.7-.8 1.4-1.1 2.3 0 0-.1 0-.1-.1-.9-.7-1.8-1.3-2.9-1.7-1.2-.5-2.6-1.1-4.5-1.6-7.9-2.1-18.6-1.3-29 4-1.2.7-2.5 1.5-3.7 2.6s-2.4 2.5-3.2 4.1-1.4 3.5-1.4 5.6.6 4.2 1.8 5.9c1.1 1.7 2.7 3.2 4.5 4.2s3.8 1.6 5.7 1.8c10.1 1.3 26.7-4.5 33-10.3.2.5.4.9.7 1.3.7 1.2 1.5 2.4 2.4 3.5-.1 0-.1 0-.2.1-.7.3-1.7.8-2.9 1.5-10.8 6.6-17.8 21.3-19.2 32-.2 1.5-.3 3.2-.1 5s.7 3.7 1.7 5.6c1 1.8 2.5 3.5 4.4 4.7 2 1.2 4.4 1.6 6.6 1.5 2.3-.1 4.4-.8 6.4-1.9 10-5.6 18.1-27 18.2-39.3 1.2.2 2.5.4 3.8.4-1 10.3 3.8 24.5 14.8 35.1 8.3 7.7 16.6 5.6 19.8-.7 1-1.9 1.5-4 1.6-6.2.4-11.4-13.4-29.3-22.8-34.9.4-.5.7-1 1-1.6 0 .1.1.2.2.3.2.3.6.7 1.1 1.3 10.4 8.9 25.5 9.8 38.1 5.2 1.4-.6 2.8-1.3 4.2-2.4 1.4-1 2.7-2.4 3.8-4.1 1-1.6 1.8-3.6 2.1-5.7.3-2 0-4.3-.8-6.3zm-70-21.7c-.3.1-.5.2-.7.4-.1-.9-.9-3.3-1.8-6.8-2-8.3-3.2-19.8-.6-27.5.5-1.6 1.3-3.1 2.3-4.3s2.3-2.2 3.6-2.8c1.4-.6 2.8-.9 4.2-.8s2.7.6 3.8 1.3c2.3 1.4 3.7 3.6 4.6 5.8 2.7 6.7 3.2 17.9-.5 27.1-.7 1.7-1.3 3-1.9 4.1-.5 1.1-1 1.9-1.3 2.5-.1.3-.3.5-.4.7-1.8-.6-3.5-.9-5.1-.9-2.7 0-4.9.6-6.2 1.2zm-47.5 34.4c-1.6-.3-3.1-.8-4.4-1.6s-2.4-1.9-3.1-3.1-1.1-2.6-1.1-3.9.4-2.6 1.1-3.8c1.2-2.3 3.3-3.9 5.3-5.1 1.9-1 3.9-1.8 5.7-2.5 6.1-2.2 13.8-3 20.6-1.8 1.8.3 3.2.7 4.3 1s2 .6 2.6.7c.1 0 .2.1.3.1-.2.8-.4 1.6-.5 2.5-.2 1.7-.3 3.7.1 5.7.3 1.4.7 2.9 1.3 4.4 0 .1-18.5 9.6-32.2 7.4zm25.7 44.5c-1.6.1-3.2-.3-4.4-1.1s-2.2-1.9-2.9-3.2c-4.4-8.4 3.9-28.7 15.7-38.4 1-.8 1.8-1.4 2.4-1.9.2-.1.4-.3.5-.4 2 2.1 4.6 4 7.6 5.4 1.6.7 3.4 1.4 5.3 1.8-2.9 12.6-11.2 37.3-24.2 37.8zm39.1-76.1c.3.1 1.7-2.4 4.5-6.1 7.1-9.4 16.2-16.2 21.4-18.5 1.6-.7 3.3-1.2 4.9-1.3s3.3 0 4.7.5c1.5.5 2.6 1.3 3.4 2.4s1.2 2.4 1.3 3.7c.2 2.7-1.1 5.2-2.4 7.3-6 9-14.8 15.7-26.2 19.6-1.2.4-2.1.6-2.8.9-.7.2-1.2.4-1.5.6-.4.2-.5.4-.6.5-.2-.7-.5-1.4-.8-2-1.4-3.2-3.3-5.6-5.9-7.6zm22.2 66.9c-.1 1.6-.6 3.3-1.3 4.6-2.9 5.3-8.9 4-13.7-.5-7.6-7.4-12.9-17.1-14.8-29.5-.2-1.2-.3-2.1-.4-2.8 1.7-.2 3.4-.6 5.1-1.4 2.1-1 4-2.5 5.4-4.3.1-.1.2-.3.3-.4 7.4 8 20.2 23.4 19.4 34.3zm25.9-38.1c-1.6 2.4-3.9 3.9-6.2 4.9-16.2 6.7-30-.9-35.2-3.2-.6-.4-1.1-.6-1.4-.7s-.4-.1-.6-.1c2.3-4.3 3.4-9.2 3.2-13.9 1.2-.4 3.3-1.1 6.1-1.9 8.8-2.4 26.2-4.1 32.7 2.4 1.2 1.2 2.1 2.6 2.6 4.1 1.1 2.8.4 6-1.2 8.4z"/></g></svg>