<svg id="Layer_1" height="512" viewBox="0 0 66 66" width="512" xmlns="http://www.w3.org/2000/svg"><g><g><path d="m51.9 12.2c-.6 0-1-.4-1-1v-5.7c0-.6.4-1 1-1s1 .4 1 1v5.7c0 .6-.4 1-1 1z"/></g><g><path d="m58.5 12.2c-.6 0-1-.4-1-1v-5.7c0-.6.4-1 1-1s1 .4 1 1v5.7c0 .6-.4 1-1 1z"/></g><g><path d="m64 21.7h-17.6c-.6 0-1-.4-1-1v-6.9c0-1.9 1.6-3.6 3.6-3.6h12.4c2 0 3.6 1.6 3.6 3.6v6.9c0 .6-.4 1-1 1zm-16.6-2h15.6v-5.9c0-.9-.7-1.6-1.6-1.6h-12.4c-.9 0-1.6.7-1.6 1.6z"/></g><g><path d="m61.5 29.4h-12.6c-.4 0-.8-.3-1-.7l-2.5-7.7c-.1-.3 0-.6.1-.9.2-.3.5-.4.8-.4h17.7c.3 0 .6.2.8.4.2.3.2.6.2.9l-2.5 7.7c-.2.4-.6.7-1 .7zm-11.9-2h11.1l1.8-5.7h-14.7z"/></g><g><path d="m61.5 61.5h-12.6c-.6 0-1-.4-1-1v-32.1c0-.6.4-1 1-1h12.6c.6 0 1 .4 1 1v32.1c0 .5-.4 1-1 1zm-11.6-2h10.6v-30.1h-10.6z"/></g><g><path d="m45.5 33.7h-41.4c-1.7 0-3.1-1.4-3.1-3.1s1.5-3.2 3.1-3.2h41.3c.6 0 1 .4 1 1s-.4 1-1 1h-41.3c-.5 0-1.1.6-1.1 1.2 0 .5.4 1.1 1.1 1.1h41.4c.6 0 1 .4 1 1s-.4 1-1 1z"/></g><g><path d="m13.2 41.9h-7.1c-.6 0-1-.4-1-1v-8.2c0-.6.4-1 1-1h7.1c.6 0 1 .4 1 1v8.2c0 .5-.4 1-1 1zm-6.1-2h5.1v-6.2h-5.1z"/></g><g><path d="m20.3 41.9h-7.1c-.6 0-1-.4-1-1v-8.2c0-.6.4-1 1-1h7.1c.6 0 1 .4 1 1v8.2c0 .5-.4 1-1 1zm-6.1-2h5.1v-6.2h-5.1z"/></g><g><path d="m27.4 41.9h-7.1c-.6 0-1-.4-1-1v-8.2c0-.6.4-1 1-1h7.1c.6 0 1 .4 1 1v8.2c0 .5-.4 1-1 1zm-6.1-2h5.1v-6.2h-5.1z"/></g><g><path d="m34.5 41.9h-7.1c-.6 0-1-.4-1-1v-8.2c0-.6.4-1 1-1h7.1c.6 0 1 .4 1 1v8.2c0 .5-.4 1-1 1zm-6.1-2h5.1v-6.2h-5.1z"/></g><g><path d="m41.6 41.9h-7.1c-.6 0-1-.4-1-1v-8.2c0-.6.4-1 1-1h7.1c.6 0 1 .4 1 1v8.2c0 .5-.4 1-1 1zm-6.1-2h5.1v-6.2h-5.1z"/></g><g><path d="m45.5 41.9h-3.9c-.6 0-1-.4-1-1v-8.2c0-.6.4-1 1-1h3.9c.6 0 1 .4 1 1s-.4 1-1 1h-2.9v6.2h2.9c.6 0 1 .4 1 1s-.4 1-1 1z"/></g><g><path d="m45.5 61.5h-39.4c-.6 0-1-.4-1-1v-19.6c0-.6.4-1 1-1h39.4c.6 0 1 .4 1 1s-.4 1-1 1h-38.4v17.6h38.4c.6 0 1 .4 1 1s-.4 1-1 1z"/></g><g><path d="m64 61.5h-60.1c-.6 0-1-.4-1-1s.4-1 1-1h60.1c.6 0 1 .4 1 1s-.4 1-1 1z"/></g><g><path d="m57.8 35.6h-5.2c-.6 0-1-.4-1-1s.4-1 1-1h5.2c.6 0 1 .4 1 1s-.4 1-1 1z"/></g><g><path d="m57.8 42.2h-5.2c-.6 0-1-.4-1-1s.4-1 1-1h5.2c.6 0 1 .4 1 1s-.4 1-1 1z"/></g><g><path d="m57.8 48.8h-5.2c-.6 0-1-.4-1-1s.4-1 1-1h5.2c.6 0 1 .4 1 1s-.4 1-1 1z"/></g><g><path d="m57.8 55.4h-5.2c-.6 0-1-.4-1-1s.4-1 1-1h5.2c.6 0 1 .4 1 1s-.4 1-1 1z"/></g></g></svg>