<svg id="Layer_1" height="512" viewBox="0 0 66 66" width="512" xmlns="http://www.w3.org/2000/svg"><g><g><path d="m59.6 65h-53.2c-.6 0-1-.4-1-1s.4-1 1-1h53.1c.6 0 1 .4 1 1s-.4 1-.9 1z"/></g><g><g><path d="m57.9 65h-49.8c-.6 0-1-.4-1-1v-23.9c0-.6.4-1 1-1s1 .4 1 1v22.9h47.7v-22.9c0-.6.4-1 1-1s1 .4 1 1v23.9c.1.6-.4 1-.9 1z"/></g><g><path d="m58.2 26h-50.4c-.8 0-1.7-.4-2.3-1s-1-1.5-1-2.3c0-1.8 1.4-3.2 3.2-3.2h13.7c.6 0 1 .4 1 1s-.4 1-1 1h-13.7c-.6 0-1.2.5-1.2 1.2 0 .3.2.6.4.9.3.2.6.4.9.4h50.3c.6 0 1.2-.5 1.2-1.2s-.5-1.2-1.2-1.2h-13.6c-.6 0-1-.4-1-1s.4-1 1-1h13.7c1.8 0 3.2 1.4 3.2 3.2s-1.5 3.2-3.2 3.2z"/></g><g><path d="m40.1 65h-14.2c-.6 0-1-.4-1-1v-19.7c0-2 1.5-3.5 3.5-3.5h9.3c1.9 0 3.4 1.6 3.4 3.5v19.7c0 .6-.5 1-1 1zm-13.2-2h12.2v-18.7c0-.8-.6-1.5-1.4-1.5h-9.3c-.8 0-1.5.7-1.5 1.5z"/></g><g><path d="m28.6 54.4c-.6 0-1-.4-1-1v-1.3c0-.6.4-1 1-1s1 .4 1 1v1.3c0 .6-.4 1-1 1z"/></g><g><path d="m49.9 37.4c-2.2 0-4.1-1.5-4.8-3.6l-2.4-8.4c-.1-.3 0-.6.2-.9s.5-.4.8-.4h7.1c.4 0 .7.2.9.6l2.7 5.6c.7 1.6.6 3.4-.3 4.8-1 1.4-2.5 2.3-4.2 2.3zm-4.9-11.3 2 7.1c.4 1.3 1.5 2.2 2.8 2.2 1 0 1.9-.5 2.5-1.4s.7-2 .2-2.9l-2.4-5z"/></g><g><path d="m16.1 37.4c-1.7 0-3.2-.8-4.1-2.2s-1.1-3.3-.4-4.9l2.7-5.6c.2-.3.5-.6.9-.6h7.1c.3 0 .6.1.8.4s.2.6.2.9l-2.4 8.4c-.7 2.1-2.6 3.6-4.8 3.6zm-.3-11.3-2.4 5c-.4.9-.3 2.1.2 2.9.6.9 1.5 1.3 2.5 1.3 1.3 0 2.5-.9 2.8-2.2l2-7.1h-5.1z"/></g><g><path d="m33 37.4c-1.5 0-2.8-.6-3.8-1.7s-1.5-2.5-1.4-4l.6-6.7c0-.5.5-.9 1-.9h7.2c.5 0 1 .4 1 .9l.6 6.7c.1 1.5-.4 3-1.4 4-1 1.1-2.3 1.7-3.8 1.7zm-2.7-11.3-.5 5.8c-.1.9.2 1.8.8 2.5s1.4 1 2.4 1c.9 0 1.7-.4 2.4-1 .6-.7.9-1.6.8-2.5l-.5-5.8z"/></g><g><path d="m24.6 37.4c-1.6 0-3.1-.7-4.1-2s-1.3-3-.9-4.6l1.7-6c.1-.4.5-.7 1-.7h7.1c.3 0 .5.1.7.3s.3.5.3.8l-.7 7.5c-.3 2.6-2.5 4.7-5.1 4.7zm-1.5-11.3-1.5 5.3c-.3 1-.1 2 .6 2.8.6.8 1.5 1.2 2.5 1.2 1.6 0 2.9-1.3 3.1-2.9l.6-6.4z"/></g><g><path d="m58.5 37.4c-1.8 0-3.5-1.1-4.2-2.7l-4.4-9.2c-.1-.3-.1-.7.1-1s.5-.5.8-.5h7.1c.3 0 .6.2.8.4l3.7 5.5c1 1.5 1 3.4.2 4.9-.8 1.7-2.4 2.6-4.1 2.6zm-6.1-11.3 3.7 7.8c.4.9 1.4 1.5 2.4 1.5s1.9-.5 2.4-1.4.5-2-.1-2.9l-3.4-5z"/></g><g><path d="m7.5 37.4c-1.7 0-3.3-.9-4.1-2.4s-.8-3.4.2-4.9l3.7-5.5c.2-.3.5-.4.8-.4h7.1c.3 0 .7.2.8.5s.2.7.1 1l-4.4 9.2c-.7 1.4-2.4 2.5-4.2 2.5zm1.2-11.3-3.4 5.1c-.6.8-.6 1.9-.1 2.8s1.3 1.4 2.4 1.4c1 0 2-.6 2.4-1.5l3.7-7.8z"/></g><g><path d="m41.4 37.4c-2.7 0-4.8-2-5.1-4.7l-.7-7.5c0-.3.1-.6.3-.8s.5-.3.7-.3h7.1c.4 0 .8.3 1 .7l1.7 6c.5 1.5.2 3.2-.8 4.5s-2.5 2.1-4.2 2.1zm-3.7-11.3.6 6.4c.1 1.7 1.5 2.9 3.1 2.9 1 0 2-.5 2.6-1.3s.8-1.8.5-2.7l-1.5-5.3z"/></g><g><path d="m33 22.4c-5.9 0-10.7-4.8-10.7-10.7s4.8-10.7 10.7-10.7 10.7 4.8 10.7 10.7-4.8 10.7-10.7 10.7zm0-19.4c-4.8 0-8.7 3.9-8.7 8.7s3.9 8.7 8.7 8.7 8.7-3.9 8.7-8.7-3.9-8.7-8.7-8.7z"/></g><g><g><path d="m30.1 12c-.2 0-.3 0-.4-.1-.9-.4-1.4-1.2-1.2-2 .1-.7.5-1.1.8-1.4.4-.4 1-.4 1.4 0s.4 1 0 1.4c0 0-.1.1-.1.1h.1c.5.2.7.8.4 1.3s-.6.7-1 .7z"/></g><g><path d="m37.2 12.8c-.6 0-1-.4-1-1 0-.4.2-.7.5-.9 0-.1-.1-.2-.1-.3v-.1c-.1 0-.2-.1-.3-.2-.4-.4-.4-1 0-1.4 0-.1.7-.8 1.7.2.1.1.1.2.2.3v.1c.1.1.2.3.2.6 0 0 0 .1.1.1.1.3.3.6.3 1 0 .9-.8 1.6-1.6 1.6z"/></g><g><path d="m34.5 16.2c-.5 0-1-.2-1.4-.6-.5-.5-.7-1.1-.7-1.8 0-.6.4-1 1-1s1 .4 1 1c0 .2 0 .3.1.4.5-.2 1.1 0 1.3.5s0 1.1-.5 1.3c-.2.1-.5.2-.8.2z"/></g><g><path d="m32 8 .9-.3-.9.3c-.1-.4-.3-.9-.1-1.5.1-.3.3-.6.6-.9.4-.3.9-.4 1.4-.3.5.2.8.7.6 1.3-.1.3-.3.5-.6.6v.1z"/></g><g><path d="m29.3 17.7c-.6 0-1.1-.3-1.5-.9 0-.1-.1-.2-.1-.2-.1-.3-.3-.8-.3-1.2 0-.6.4-1 1-1s1 .4 1 1c0 .1 0 .2.1.3.4 0 .8.3.9.7.2.5-.1 1.1-.6 1.3-.1 0-.3 0-.5 0z"/></g></g></g></g></svg>