<svg id="Layer_1" height="512" viewBox="0 0 66 66" width="512" xmlns="http://www.w3.org/2000/svg"><g><g><path d="m54.2 52.5c-.6 0-1-.4-1-1v-12.3c0-.6.4-1 1-1s1 .4 1 1v12.3c0 .6-.5 1-1 1z"/></g><g><path d="m58.6 52.5c-.6 0-1-.4-1-1v-12.3c0-.6.4-1 1-1s1 .4 1 1v12.3c0 .6-.5 1-1 1z"/></g><g><path d="m42.8 52.5c-.6 0-1-.4-1-1v-12.3c0-.6.4-1 1-1s1 .4 1 1v12.3c0 .6-.5 1-1 1z"/></g><g><path d="m47.2 52.5c-.6 0-1-.4-1-1v-12.3c0-.6.4-1 1-1s1 .4 1 1v12.3c0 .6-.5 1-1 1z"/></g><g><path d="m18.8 52.5c-.6 0-1-.4-1-1v-12.3c0-.6.4-1 1-1s1 .4 1 1v12.3c0 .6-.4 1-1 1z"/></g><g><path d="m23.2 52.5c-.6 0-1-.4-1-1v-12.3c0-.6.4-1 1-1s1 .4 1 1v12.3c0 .6-.4 1-1 1z"/></g><g><path d="m7.4 52.5c-.6 0-1-.4-1-1v-12.3c0-.6.4-1 1-1s1 .4 1 1v12.3c0 .6-.4 1-1 1z"/></g><g><path d="m11.8 52.5c-.6 0-1-.4-1-1v-12.3c0-.6.4-1 1-1s1 .4 1 1v12.3c0 .6-.4 1-1 1z"/></g><g><path d="m60.7 32.3h-55.4c-1.6 0-3-1.3-3-2.9v-3.3c0-.3.1-.6.3-.8l26.4-22.9c1-.9 2.5-1.4 4-1.4s2.9.5 4 1.5l26.4 22.9c.2.2.3.5.3.8v3.3c0 1.5-1.3 2.8-3 2.8zm-56.4-5.7v2.8c0 .4.4.9 1 .9h55.3c.5 0 1-.3 1-.9v-2.8l-26-22.6c-.7-.7-1.6-1-2.6-1s-1.9.3-2.6.9z"/></g><g><path d="m33 21.3c-.7 0-1.4-.1-2.1-.3-1.8-.6-3.3-2-3.9-3.9-.7-2.1-.3-4.2.9-5.9 1.6-2.2 4.6-3.2 7.3-2.3 1.9.6 3.3 2 3.9 4 .7 2.1.3 4.2-.9 5.9-1.3 1.5-3.2 2.5-5.2 2.5zm0-10.8c-1.4 0-2.7.7-3.5 1.8-.8 1.2-1.1 2.6-.6 4.1.4 1.2 1.4 2.3 2.6 2.6 1.9.6 3.9 0 5-1.6.8-1.2 1.1-2.6.6-4.1-.4-1.3-1.4-2.2-2.6-2.6-.5-.1-1-.2-1.5-.2z"/></g><g><path d="m38.5 60.4h-11c-.6 0-1-.4-1-1v-10.3c0-3.5 2.9-6.4 6.4-6.4h.2c3.5 0 6.4 2.9 6.4 6.4v10.3c0 .6-.5 1-1 1zm-10-2h9v-9.3c0-2.5-1.9-4.4-4.4-4.4h-.2c-2.5 0-4.4 1.9-4.4 4.4z"/></g><g><g><path d="m11.4 36.2h-3.5c-1.7 0-3-1.3-3-3v-1.8c0-.6.4-1 1-1h7.5c.6 0 1 .4 1 1v1.8c0 1.7-1.3 3-3 3zm-4.5-3.8v.8c0 .6.4 1 1 1h3.5c.7 0 1-.5 1-1v-.8z"/></g><g><path d="m22.7 36.2h-3.5c-1.7 0-3-1.3-3-3v-1.8c0-.6.4-1 1-1h7.5c.6 0 1 .4 1 1v1.8c0 1.7-1.3 3-3 3zm-4.5-3.8v.8c0 .6.4 1 1 1h3.5c.6 0 1-.4 1-1v-.8z"/></g><g><path d="m46.8 36.2h-3.5c-1.7 0-3-1.3-3-3v-1.8c0-.6.4-1 1-1h7.5c.6 0 1 .4 1 1v1.8c0 1.7-1.4 3-3 3zm-4.5-3.8v.8c0 .6.4 1 1 1h3.5c.6 0 1-.4 1-1v-.8z"/></g><g><path d="m58.1 36.2h-3.5c-1.7 0-3-1.3-3-3v-1.8c0-.6.4-1 1-1h7.5c.6 0 1 .4 1 1v1.8c0 1.7-1.4 3-3 3zm-4.5-3.8v.8c0 .6.4 1 1 1h3.5c.6 0 1-.4 1-1v-.8z"/></g><g><path d="m13.4 60.4h-7.5c-.6 0-1-.4-1-1v-1.8c0-1.7 1.3-3 3-3h3.5c1.7 0 3 1.3 3 3v1.8c0 .6-.4 1-1 1zm-6.5-2h5.5v-.8c0-.6-.4-1-1-1h-3.5c-.6 0-1 .4-1 1z"/></g><g><path d="m24.7 60.4h-7.5c-.6 0-1-.4-1-1v-1.8c0-1.7 1.3-3 3-3h3.5c1.7 0 3 1.3 3 3v1.8c0 .6-.4 1-1 1zm-6.5-2h5.5v-.8c0-.6-.4-1-1-1h-3.5c-.6 0-1 .4-1 1z"/></g><g><path d="m48.8 60.4h-7.5c-.6 0-1-.4-1-1v-1.8c0-1.7 1.3-3 3-3h3.5c1.7 0 3 1.3 3 3v1.8c0 .6-.5 1-1 1zm-6.5-2h5.5v-.8c0-.6-.4-1-1-1h-3.5c-.6 0-1 .4-1 1z"/></g><g><path d="m60.1 60.4h-7.5c-.6 0-1-.4-1-1v-1.8c0-1.7 1.3-3 3-3h3.5c1.7 0 3 1.3 3 3v1.8c0 .6-.5 1-1 1zm-6.5-2h5.5v-.8c0-.6-.4-1-1-1h-3.5c-.6 0-1 .4-1 1z"/></g></g><g><path d="m62.8 65h-59.6c-1.1 0-2-.9-2-2 0-2.5 2.1-4.6 4.6-4.6h54.3c2.5 0 4.6 2.1 4.6 4.6.1 1.1-.8 2-1.9 2zm-57-4.6c-1.5 0-2.6 1.1-2.6 2.6h59.5c0-1.5-1.1-2.6-2.6-2.6z"/></g><g><path d="m56.5 27.1h-47c-.6 0-1-.4-1-1s.4-1 1-1h47c.6 0 1 .4 1 1s-.5 1-1 1z"/></g></g></svg>