<svg id="Layer_1" height="512" viewBox="0 0 66 66" width="512" xmlns="http://www.w3.org/2000/svg"><g><path d="m63 63.2h-60c-.6 0-1-.4-1-1s.4-1 1-1h60c.6 0 1 .4 1 1s-.4 1-1 1z"/></g><g><path d="m61.2 63.2h-56.4c-.6 0-1-.4-1-1v-31.2c0-.6.4-1 1-1s1 .4 1 1v30.2h54.4v-30.2c0-.6.4-1 1-1s1 .4 1 1v31.2c0 .5-.4 1-1 1z"/></g><g><path d="m61.6 28.2c-.1 0-.2 0-.2 0h-56.8c-2 0-3.5-1.5-3.5-3.5s1.5-3.5 3.5-3.5h57c2 0 3.5 1.5 3.5 3.5 0 .9-.3 1.8-1 2.4-.7.7-1.6 1.1-2.5 1.1zm-57.1-5c-.8 0-1.5.7-1.5 1.5s.7 1.5 1.5 1.5h57.1c.5 0 .8-.2 1-.4.3-.3.4-.7.4-1.1 0-.8-.7-1.5-1.5-1.5z"/></g><g><path d="m52.3 18.2h-38.6c-2.1 0-3.8-1.7-3.8-3.8v-7.8c0-2.1 1.7-3.8 3.8-3.8h38.6c2.1 0 3.8 1.7 3.8 3.8v7.8c0 2.1-1.7 3.8-3.8 3.8zm-38.6-13.4c-1 0-1.8.8-1.8 1.8v7.8c0 1 .8 1.8 1.8 1.8h38.6c1 0 1.8-.8 1.8-1.8v-7.8c0-1-.8-1.8-1.8-1.8z"/></g><g><path d="m18.2 23.2c-.6 0-1-.4-1-1v-4.9c0-.6.4-1 1-1s1 .4 1 1v4.9c0 .6-.4 1-1 1z"/></g><g><path d="m47.8 23.2c-.6 0-1-.4-1-1v-4.9c0-.6.4-1 1-1s1 .4 1 1v4.9c0 .6-.4 1-1 1z"/></g><g><path d="m40.2 63.2h-14.4c-.6 0-1-.4-1-1v-21.8c0-2 1.5-3.5 3.5-3.5h9.4.2c1.8 0 3.3 1.6 3.3 3.5v21.8c0 .5-.4 1-1 1zm-13.4-2h12.4v-20.8c0-.8-.6-1.5-1.3-1.5 0 0-.1 0-.2 0h-9.4c-.8 0-1.5.7-1.5 1.5z"/></g><g><path d="m28.6 52.4c-.6 0-1-.4-1-1v-1.4c0-.6.4-1 1-1s1 .4 1 1v1.4c0 .5-.4 1-1 1z"/></g><g><path d="m19.6 50.3h-7.7c-1.6 0-2.9-1.3-2.9-2.9v-7.7c0-1.6 1.3-2.9 2.9-2.9h7.7c1.7.2 2.9 1.4 2.9 2.9v7.7c0 1.6-1.3 2.9-2.9 2.9zm-.1-11.5h-7.6c-.6 0-.9.5-.9.9v7.7c0 .6.5.9.9.9h7.7c.6 0 .9-.5.9-.9v-7.7c0-.5-.4-.9-1-.9z"/></g><g><path d="m54.1 50.3h-7.7c-1.6 0-2.9-1.3-2.9-2.9v-7.7c0-1.6 1.3-2.9 2.9-2.9h7.7c1.7.2 2.9 1.4 2.9 2.9v7.7c0 1.6-1.3 2.9-2.9 2.9zm-.1-11.5h-7.6c-.6 0-.9.5-.9.9v7.7c0 .6.5.9.9.9h7.7c.6 0 .9-.5.9-.9v-7.7c0-.4-.5-.9-1-.9z"/></g><g><path d="m39.5 15.5c-.4 0-.9 0-1.4-.1-1.7-.2-3.3-.9-4.8-2 0 0-.1-.1-.1-.1-.1-.1-.1-.1-.2-.2-1.4 1.2-3.1 2-5.2 2.3-.5.1-1 .1-1.4.1-1.5 0-2.8-.4-3.9-1.2-1.5-1.1-2.2-3.1-1.7-4.8.1-.6.6-1 1.2-1 .5 0 .8.3 1 .5s.3.4.3.7c0 .1 0 .1.1.2.1.5.4.7.9.7.2 0 .4 0 .6-.1.4-.2.7-.5 1-.9l.1-.2c.1-.2.2-.3.3-.4 0 0 .1-.1.1-.1.4-.6.9-1.3 1.5-1.8.5-.6 1.1-1 2-1.3 1.2-.4 2.1-.2 3.1.5h.1c.3-.2.7-.4 1.1-.5.3-.1.7-.2 1.1-.2.8 0 1.5.3 2.3.8.8.6 1.4 1.4 2 2.2 0 0 .1.1.1.1.1.1.1.1.2.2.2.3.4.5.6.8.1.2.3.3.4.5.2.3.6.4 1.1.3.4 0 .8-.5.8-1 0-.6.6-1.1 1.3-1.1.6 0 1.1.5 1.2 1 .1.1.1.2.1.3.2 2.1-.8 4-2.6 5-1.1.6-2.1.8-3.3.8zm-4.8-3.6c1.2.9 2.4 1.4 3.8 1.6 1.3.2 2.4.1 3.5-.4.3-.2.5-.4.8-.6-.1 0-.3.1-.4.1-.2 0-.3 0-.5 0-1 0-1.8-.4-2.4-1.1-.1-.2-.3-.3-.4-.4-.2-.3-.5-.6-.7-.9-.3-.2-.4-.4-.5-.5-.4-.6-.9-1.2-1.5-1.6-.7-.5-1.1-.6-1.7-.4-.2.1-.4.2-.6.3-.1 0-.2.1-.4.2-.5.3-1.1.3-1.6-.1-.7-.5-1.1-.6-1.7-.4-.5.2-.9.4-1.1.7 0 0 0 .1-.1.1-.5.5-.9 1-1.2 1.5-.1.2-.3.3-.4.4 0 .1-.1.1-.1.2l-.1.2c-.4.5-.9 1.1-1.7 1.5-.7.3-1.6.4-2.3.2.1.1.2.2.3.3 1 .7 2.1.9 3.9.7 1.9-.3 3.4-1 4.5-2.1.1-.1.2-.1.3-.2.6-.3 1.3-.2 1.7.2.1.1.2.1.3.2 0 0 .1.2.3.3z"/></g></svg>