<svg id="Layer_1" height="512" viewBox="0 0 66 66" width="512" xmlns="http://www.w3.org/2000/svg"><g><g><path d="m60.8 65h-55.2c-.6 0-1-.4-1-1v-30.9c0-.6.4-1 1-1s1 .4 1 1v29.9h53.1v-29.9c0-.6.4-1 1-1s1 .4 1 1v30.9c.1.5-.4 1-.9 1z"/></g><g><path d="m28.1 23.9h-21.1c-.6 0-1-.4-1-1v-1c0-2.7 2.2-4.9 4.9-4.9h11.4c.6 0 1 .4 1 1s-.4 1-1 1h-11.4c-1.6 0-2.9 1.3-2.9 2.9h20.1c.6 0 1 .4 1 1s-.4 1-1 1z"/></g><g><path d="m58.9 23.9h-21.1c-.6 0-1-.4-1-1s.4-1 1-1h20.1c0-1.6-1.3-2.9-2.9-2.9h-11.3c-.6 0-1-.4-1-1s.4-1 1-1h11.3c2.7 0 4.9 2.2 4.9 4.9v1c0 .6-.5 1-1 1z"/></g><g><path d="m54.9 65h-15.5c-.6 0-1-.4-1-1v-17.7c0-2.3.9-4.6 2.6-6.2 1.7-1.7 3.9-2.6 6.2-2.6 4.8 0 8.7 3.9 8.7 8.8v17.7c0 .5-.5 1-1 1zm-14.5-2h13.5v-16.7c0-3.7-3-6.8-6.7-6.8-2.3 0-3.9 1.1-4.8 2-1.3 1.3-2 3-2 4.8z"/></g><g><path d="m61.1 30.2h-56.2c-1.6 0-2.9-1.3-2.9-2.9v-2.6c0-1.6 1.3-2.9 2.9-2.9h23.2c.6 0 1 .4 1 1s-.4 1-1 1h-23.2c-.4 0-.9.3-.9.9v2.6c0 .4.3.9.9.9h56.1c.4 0 .9-.3.9-.9v-2.6c0-.4-.3-.9-.9-.9h-23.1c-.6 0-1-.4-1-1s.4-1 1-1h23.2c1.6 0 2.9 1.3 2.9 2.9v2.6c0 1.6-1.3 2.9-2.9 2.9z"/></g><g><path d="m33.3 57.8h-20.3c-1.5 0-2.8-1.3-2.8-2.8v-13.8c0-.6.4-1 1-1h23.9c.6 0 1 .4 1 1v13.8c0 1.5-1.3 2.8-2.8 2.8zm-21.1-15.6v12.8c0 .4.4.8.8.8h20.3c.4 0 .8-.4.8-.8v-12.8z"/></g><g><path d="m27.4 57.8c-.6 0-1-.4-1-1v-15.6c0-.6.4-1 1-1s1 .4 1 1v15.6c0 .5-.4 1-1 1z"/></g><g><path d="m19 57.8c-.6 0-1-.4-1-1v-15.6c0-.6.4-1 1-1s1 .4 1 1v15.6c0 .5-.4 1-1 1z"/></g><g><path d="m35.1 47h-23.8c-.6 0-1-.4-1-1s.4-1 1-1h23.8c.6 0 1 .4 1 1s-.5 1-1 1z"/></g><g><path d="m36.7 42.2h-27c-.6 0-1.1-.3-1.4-.8s-.2-1.1 0-1.5.5-1 .7-1.4c.7-1.7 2.2-2.8 4-2.8h20.1c1.7 0 3.3 1.1 4.1 2.8.2.5.5 1.1.7 1.5.3.4.3 1 0 1.5-.1.4-.6.7-1.2.7zm-26.2-2h25.5c-.2-.4-.3-.7-.5-1-.4-.9-1.3-1.6-2.3-1.6h-20.1c-1 0-1.8.6-2.2 1.6-.1.3-.2.6-.4 1z"/></g><g><path d="m43.4 55.2c-.3 0-.5 0-.8-.1-.6-.2-1.1-.7-1.5-1.4v-.1c-.3-.7-.2-1.5.3-2.2.6-.9 1.8-1.3 2.8-.9h.1c.8.4 1.2.9 1.4 1.5.2.7.1 1.5-.3 2.1-.5.7-1.3 1.1-2 1.1zm-.5-2.4c.1.2.2.3.2.3h.2c.1 0 .3-.1.3-.2.1-.1.1-.2.1-.3v-.1s-.1-.1-.3-.2c-.2 0-.3 0-.4.2-.1.1-.1.2-.1.3z"/></g><g><path d="m63 65h-60c-.6 0-1-.4-1-1s.4-1 1-1h60c.6 0 1 .4 1 1s-.5 1-1 1z"/></g><g><path d="m33 17c-3.4 0-6.1-2.7-6.1-6.1s2.7-6.1 6.1-6.1 6.1 2.7 6.1 6.1-2.7 6.1-6.1 6.1zm0-10.2c-2.3 0-4.1 1.8-4.1 4.1s1.8 4.1 4.1 4.1 4.1-1.8 4.1-4.1-1.8-4.1-4.1-4.1z"/></g><g><path d="m32.9 20.9c-.6 0-1.1 0-1.7-.1-4.1-.7-7.5-4-8.1-8.1-.5-2.9.3-5.9 2.2-8.1 2.3-2.7 5.8-4 9.3-3.4 4.1.7 7.5 4 8.1 8.1.5 2.9-.3 5.9-2.2 8.1s-4.7 3.5-7.6 3.5zm.1-17.9c-2.3 0-4.6 1-6.1 2.8s-2.2 4.2-1.8 6.5c.5 3.3 3.2 5.9 6.5 6.5 2.8.5 5.6-.6 7.4-2.7 1.5-1.8 2.2-4.2 1.8-6.5-.5-3.3-3.2-5.9-6.5-6.5-.4-.1-.9-.1-1.3-.1z"/></g></g></svg>