<svg id="Layer_1" height="512" viewBox="0 0 66 66" width="512" xmlns="http://www.w3.org/2000/svg"><g><g><path d="m51.4 31h-3.3c-.6 0-1-.4-1-1 0-.2 0-.4.1-.5 0-.1 0-.1 0-.2 0-1.3-1.1-2.5-2.5-2.5s-2.5 1.1-2.5 2.5v.3c.2.3.1.7-.1 1-.1.2-.5.4-.8.4h-16.5c-.6 0-1-.4-1-1 0-.2 0-.4.1-.5 0-.1 0-.1 0-.2 0-1.3-1.1-2.5-2.5-2.5s-2.5 1.1-2.5 2.5v.3c.2.3.1.7-.1 1-.1.2-.5.4-.8.4h-3.6c-2 0-3.5-1.5-3.5-3.5v-2.1c0-2 1.5-3.5 3.5-3.5h2.2c.3 0 .9-.1 1.2-.6l3.6-5.9c.7-1.1 1.9-1.7 2.9-1.7h12c1.3 0 2.4.7 3 1.8l3.6 5.7c.3.4.8.7 1.3.7h5.4c3 0 5.5 2.4 5.5 5.4 0 2-1.7 3.7-3.7 3.7zm-2.2-2h2.2c1 0 1.7-.7 1.7-1.7 0-1.9-1.6-3.4-3.5-3.4h-5.4c-1.1 0-2.2-.6-2.9-1.6l-3.6-5.8c-.3-.6-.9-.7-1.3-.7h-12c-.4 0-1 .3-1.3.8l-3.6 5.7c-.5 1-1.6 1.7-2.9 1.7h-2.2c-.8 0-1.5.7-1.5 1.5v2.1c0 .8.7 1.5 1.5 1.5h2.5c.2-2.3 2.2-4.2 4.5-4.2s4.3 1.9 4.5 4.2h14.3c.2-2.3 2.2-4.2 4.5-4.2s4.3 1.8 4.5 4.1z"/></g><g><path d="m43.8 23.9h-26.6c-.5 0-1-.4-1-.9s.3-1 .9-1.1c.3 0 .6-.1.9-.7l3.6-5.8c.5-1 1.6-1.7 2.9-1.7h12c1.1 0 2.2.6 2.9 1.6l3.6 5.7c.3.5.6.6.9.6.5.1.9.5.9 1 0 .8-.4 1.3-1 1.3zm-23.9-2h21.2l-3.4-5.4c-.3-.4-.8-.7-1.3-.7h-12c-.3 0-.9.1-1.2.6z"/></g><g><path d="m43.8 23.8h-14.6c-.3 0-.5-.1-.7-.3s-.3-.4-.3-.7l.1-8c0-.5.5-1 1-1h7.2c1.1 0 2.2.6 2.9 1.6l3.6 5.7c.3.5.6.6.9.6.5.1.9.5.9 1.1s-.5 1-1 1zm-13.6-2h10.9l-3.3-5.3c-.3-.4-.8-.7-1.3-.7h-6.2z"/></g><g><path d="m21.4 33.8c-.3 0-.6 0-.9-.1-1.8-.4-3.2-1.8-3.6-3.6-.3-1.3.1-2.7.9-3.7 1.1-1.3 2.7-1.9 4.4-1.5 1.9.4 3.3 1.9 3.6 3.6.3 1.3-.1 2.6-.9 3.7-.9 1-2.1 1.6-3.5 1.6zm-.1-7.1c-.7 0-1.4.3-1.9.9s-.7 1.3-.5 2.1c.2 1 1 1.8 2 2 .9.2 1.8-.1 2.4-.9.5-.6.7-1.3.5-2.1-.1-1-1-1.8-2-2-.2.1-.3 0-.5 0z"/></g><g><path d="m44.7 33.8c-.3 0-.6 0-.9-.1-1.8-.4-3.2-1.8-3.6-3.6-.3-1.3.1-2.7.9-3.7 1.1-1.3 2.7-1.9 4.4-1.5 1.8.4 3.2 1.8 3.6 3.6.3 1.3-.1 2.7-.9 3.7-.9 1-2.1 1.6-3.5 1.6zm-.1-7.1c-.7 0-1.4.3-1.9.9s-.7 1.3-.5 2.1c.2 1 1 1.8 2 2 .9.2 1.8-.1 2.4-.9.5-.6.7-1.3.5-2.1-.2-1-1-1.8-2-2-.2.1-.3 0-.5 0z"/></g><g><path d="m59.6 33.8h-53.2c-.6 0-1-.4-1-1v-21c0-.6.4-1 1-1s1 .4 1 1v20h51.2v-20c0-.6.4-1 1-1s1 .4 1 1v21c0 .6-.4 1-1 1z"/></g><g><path d="m59.6 61.1c-.6 0-1-.4-1-1v-21.5h-51.2v21.5c0 .6-.4 1-1 1s-1-.4-1-1v-22.5c0-.6.4-1 1-1h53.2c.6 0 1 .4 1 1v22.5c0 .5-.4 1-1 1z"/></g><g><path d="m60.5 9h-54.9c-1.1 0-2.1-.6-2.6-1.6s-.4-2.1.2-3c1.3-2.1 3.7-3.4 6.3-3.4h47.1c2.6 0 5 1.3 6.3 3.5.6.9.6 2.1.1 3-.5 1-1.4 1.5-2.5 1.5zm-51-6c-1.9 0-3.7 1-4.7 2.6-.2.4-.1.7 0 .9.1.3.4.5.8.5h54.9c.5 0 .7-.3.8-.5.2-.3.2-.7 0-1-1-1.5-2.8-2.5-4.7-2.5z"/></g><g><path d="m61.6 38.6h-57.1c-1.8 0-3.4-1.6-3.4-3.4s1.6-3.4 3.4-3.4h57.1c1.8 0 3.4 1.6 3.4 3.4s-1.6 3.4-3.4 3.4zm-57.1-4.8c-.7 0-1.4.7-1.4 1.4s.7 1.4 1.4 1.4h57.1c.7 0 1.4-.7 1.4-1.4s-.7-1.4-1.4-1.4z"/></g><g><path d="m31.5 61.1c-.6 0-1-.4-1-1v-14.4c0-.6-.5-.9-.9-.9h-15.4c-.6 0-.9.5-.9.9v14.4c0 .6-.4 1-1 1s-1-.4-1-1v-14.4c0-1.6 1.3-2.9 2.9-2.9h15.4c1.6 0 2.9 1.3 2.9 2.9v14.4c0 .5-.4 1-1 1z"/></g><g><path d="m31.5 50.6h-19.2c-.6 0-1-.4-1-1v-3.9c0-1.5 1.4-2.9 2.9-2.9h15.4c1.6 0 2.9 1.3 2.9 2.9v3.9c0 .5-.4 1-1 1zm-18.2-2h17.2v-2.9c0-.6-.5-.9-.9-.9h-15.4c-.4 0-.9.5-.9.9z"/></g><g><path d="m21.9 50.6c-.6 0-1-.4-1-1v-5.8c0-.6.4-1 1-1s1 .4 1 1v5.8c0 .5-.4 1-1 1z"/></g><g><path d="m64 65h-62c-.6 0-1-.4-1-1s.4-1 1-1h62c.6 0 1 .4 1 1s-.4 1-1 1z"/></g></g></svg>