<svg id="Layer_1" height="512" viewBox="0 0 66 66" width="512" xmlns="http://www.w3.org/2000/svg"><g><g><path d="m61.2 62.9h-56.4c-.6 0-1-.4-1-1v-38.7c0-.6.4-1 1-1h6.5c.6 0 1 .4 1 1s-.4 1-1 1h-5.5v36.7h54.5v-36.7h-5.5c-.6 0-1-.4-1-1s.4-1 1-1h6.5c.6 0 1 .4 1 1v38.7c-.1.6-.5 1-1.1 1z"/></g><g><path d="m11.3 24.2h-6.8c-.8 0-1.7-.3-2.4-.9-.1 0-.1-.1-.2-.2-.6-.8-.9-1.6-.9-2.4 0-2 1.5-3.5 3.5-3.5h6c.6 0 1 .4 1 1s-.4 1-1 1h-6c-.8 0-1.5.7-1.5 1.5 0 .4.1.7.4 1.1.4.3.7.4 1.1.4h6.8c.6 0 1 .4 1 1s-.5 1-1 1z"/></g><g><path d="m61.4 24.2h-6.8c-.6 0-1-.4-1-1s.4-1 1-1h6.8c.8 0 1.5-.7 1.5-1.5s-.7-1.5-1.5-1.5h-6c-.6 0-1-.4-1-1s.4-1 1-1h6c2 0 3.5 1.5 3.5 3.5s-1.5 3.5-3.5 3.5z"/></g><g><path d="m52.7 54.6h-17.2c-2.1 0-3.8-1.7-3.8-3.8v-16.5c0-2.1 1.7-3.8 3.8-3.8h17.2c2.1 0 3.8 1.7 3.8 3.8v16.5c0 2.1-1.7 3.8-3.8 3.8zm-17.2-22.1c-1 0-1.8.8-1.8 1.8v16.5c0 1 .8 1.8 1.8 1.8h17.2c1 0 1.8-.8 1.8-1.8v-16.5c0-1-.8-1.8-1.8-1.8z"/></g><g><path d="m26.6 62.9h-16.1c-.6 0-1-.4-1-1v-22.3c0-2.1 1.7-3.8 3.8-3.8h10.5c2.1 0 3.8 1.7 3.8 3.8v22.3c0 .6-.5 1-1 1zm-15.1-2h14.1v-21.3c0-.9-.9-1.8-1.8-1.8h-10.5c-.9 0-1.8.9-1.8 1.8z"/></g><g><path d="m63 62.9h-60c-.6 0-1-.4-1-1s.4-1 1-1h60c.6 0 1 .4 1 1s-.4 1-1 1z"/></g><g><path d="m13.6 51c-.6 0-1-.4-1-1v-1.5c0-.6.4-1 1-1s1 .4 1 1v1.5c0 .6-.5 1-1 1z"/></g><g><path d="m44.1 50.9c-.6 0-1-.4-1-1v-14.6c0-.6.4-1 1-1s1 .4 1 1v14.6c0 .6-.4 1-1 1z"/></g><g><path d="m51.8 43.6h-15.4c-.6 0-1-.4-1-1s.4-1 1-1h15.4c.6 0 1 .4 1 1s-.4 1-1 1z"/></g><g><path d="m50.3 22.7c-.6 0-1.1-.2-1.6-.6l-2.6-1.9c-.2-.2-.6-.1-.9 0l-2.3 1.8c-.5.3-1.1.2-1.4-.2-.3-.5-.2-1.1.2-1.4l2.4-1.7c1-.6 2.2-.6 3.1 0l2.6 1.9c.4.3.7.1.8 0s.4-.3.3-.8l-1-3.1c-.3-1.2.1-2.4 1-3l2.6-1.9c.4-.3.3-.7.2-.8 0-.1-.2-.5-.6-.5h-3.2c-1.2 0-2.2-.8-2.6-1.9l-1-3.1c-.1-.5-.4-.5-.6-.5-.1 0-.5 0-.6.5l-1 3.1c-.3 1.1-1.4 1.9-2.6 1.9h-2.9c-.6 0-1-.4-1-1s.4-1 1-1h2.9c.3 0 .6-.2.6-.5l1-3.1c.4-1.2 1.4-1.9 2.6-1.9 1.2 0 2.2.7 2.6 1.9l1 3.1c.1.3.4.5.7.5h3.2c1.2 0 2.2.7 2.5 1.8.4 1.1 0 2.3-.9 3.1l-2.6 1.9c-.2.2-.3.5-.2.8l1 3.1c.4 1.2 0 2.4-1 3.1-.6.3-1.1.4-1.7.4z"/></g><g><path d="m15.7 22.7c-.5 0-1.1-.2-1.5-.5-1-.7-1.4-1.9-1-3.1l1-3.1c.1-.3 0-.6-.2-.8l-2.6-1.9c-1-.7-1.3-1.9-.9-3.1.4-1.1 1.4-1.8 2.5-1.8h3.2c.3 0 .6-.2.6-.5l1-3.1c.3-1.1 1.3-1.8 2.5-1.8 1.2 0 2.2.7 2.6 1.9l1 3.1c.1.3.4.5.7.5h2.9c.6 0 1 .4 1 1s-.4 1-1 1h-2.9c-1.2 0-2.2-.8-2.6-1.9l-1-3.1c-.2-.5-.6-.5-.7-.5-.1 0-.5 0-.6.5l-1 3.1c-.3 1.1-1.4 1.9-2.6 1.9h-3.2c-.4 0-.6.3-.6.5 0 .1-.1.5.2.8l2.6 1.9c.9.6 1.3 1.8 1 3l-1 3.1c-.1.5.2.7.3.8s.4.2.8 0l2.6-1.9c1-.6 2.2-.6 3.1 0l2.4 1.7c.5.3.6.9.2 1.4-.3.5-.9.6-1.4.2l-2.4-1.7c-.2-.2-.6-.2-.9 0l-2.6 1.9c-.4.4-1 .5-1.5.5z"/></g><g><path d="m37.7 27c-.6 0-1.1-.2-1.6-.6l-2.7-1.9c-.2-.1-.6-.2-.9 0l-2.5 2c-1.1.9-2.9.6-3.8-.6-.5-.7-.7-1.6-.4-2.4l1-3.1c.1-.3 0-.6-.2-.8l-2.6-1.9c-1-.7-1.3-1.9-.9-3.1.4-1.1 1.4-1.8 2.5-1.8h3.2c.3 0 .6-.2.6-.5l1-3.1c.4-1.2 1.4-1.9 2.6-1.9s2.2.7 2.6 1.9l1 3.1c.1.3.4.5.7.5h3.2c1.3.1 2.3.9 2.7 2.1.3 1.1-.1 2.2-1 2.8l-2.6 1.9c-.2.2-.3.5-.2.8l1 3.1c.3.9.1 1.7-.4 2.4-.6.7-1.5 1.1-2.3 1.1zm-4.7-4.5c.6 0 1.1.2 1.6.5l2.7 1.9c.4.3.8.2 1-.1.1-.1.2-.3.1-.7l-1-3.1c-.3-1.2.1-2.4 1-3l2.6-1.9c.3-.2.3-.5.2-.7-.1-.3-.3-.6-.8-.6h-3.1c-1.2 0-2.2-.8-2.6-1.9l-1-3.1c-.1-.5-.5-.5-.7-.5s-.5 0-.6.5l-1 3.1c-.4 1.1-1.4 1.9-2.6 1.9h-3.2c-.4 0-.6.3-.6.5 0 .1-.1.5.2.8l2.6 1.9c.9.6 1.3 1.8 1 3l-1 3.1c-.1.3 0 .5.1.6.2.3.6.4.9.2l2.6-1.9c.5-.3 1-.5 1.6-.5z"/></g></g></svg>