<svg id="Layer_1" height="512" viewBox="0 0 66 66" width="512" xmlns="http://www.w3.org/2000/svg"><g><g><path d="m11.1 16.8c-.6 0-1-.4-1-1v-9.7c0-.6.4-1 1-1s1 .4 1 1v9.7c0 .6-.4 1-1 1z"/></g><g><path d="m15.9 12.1h-4.8c-.6 0-1-.4-1-1v-5c0-.6.4-1 1-1h4.8c1.7 0 3 1.3 3 3v1c0 1.7-1.3 3-3 3zm-3.8-2h3.8c.6 0 1-.4 1-1v-1c0-.6-.4-1-1-1h-3.8z"/></g><g><path d="m54.9 16.8c-.6 0-1-.4-1-1v-9.7c0-.6.4-1 1-1s1 .4 1 1v9.7c0 .6-.4 1-1 1z"/></g><g><path d="m59.7 12.1h-4.8c-.6 0-1-.4-1-1v-5c0-.6.4-1 1-1h4.8c1.7 0 3 1.3 3 3v1c0 1.7-1.3 3-3 3zm-3.8-2h3.8c.6 0 1-.4 1-1v-1c0-.6-.4-1-1-1h-3.8z"/></g><g><path d="m18 60.9h-13.7c-.6 0-1-.4-1-1v-34.7c0-.6.4-1 1-1h13.7c.6 0 1 .4 1 1v34.7c0 .5-.4 1-1 1zm-12.7-2h11.7v-32.7h-11.7z"/></g><g><path d="m17.9 26.1h-13.6c-.3 0-.6-.2-.8-.4l-1.5-2.1c-.6-.9-1-2-1-3.1v-3.3c0-1.4 1.1-2.5 2.5-2.5h.7c1.4 0 2.5 1.1 2.5 2.5v1.3c0 .3.3.5.5.5h.7c.2 0 .5-.3.5-.5v-1.3c0-1.4 1.1-2.5 2.5-2.5h.7c1.4 0 2.5 1.1 2.5 2.5v1.3c0 .2.3.5.5.5h.7c.2 0 .5-.3.5-.5v-1.3c0-1.4 1.1-2.5 2.5-2.5h.7.2c1 .2 2 1.2 2 2.5v3.3c0 1.1-.4 2.2-1 3.1l-1.5 2.1c-.2.3-.5.4-.8.4zm-13.1-2h12.6l1.2-1.7c.4-.5.6-1.2.6-1.9v-3.3c0-.2-.2-.4-.4-.5h-.5c-.2 0-.5.3-.5.5v1.3c0 1.4-1.1 2.5-2.5 2.5h-.7c-1.4 0-2.5-1.1-2.5-2.5v-1.3c0-.2-.3-.5-.5-.5h-.7c-.2 0-.5.3-.5.5v1.3c0 1.4-1.1 2.5-2.5 2.5h-.7c-1.4 0-2.5-1.1-2.5-2.5v-1.3c0-.2-.3-.5-.5-.5h-.7c-.2 0-.5.3-.5.5v3.3c0 .7.2 1.4.6 1.9z"/></g><g><path d="m61.8 60.9h-13.7c-.6 0-1-.4-1-1v-34.7c0-.6.4-1 1-1h13.7c.6 0 1 .4 1 1v34.7c0 .5-.4 1-1 1zm-12.7-2h11.7v-32.7h-11.7z"/></g><g><path d="m61.7 26.1h-13.6c-.3 0-.6-.2-.8-.4l-1.5-2.1c-.6-.9-1-2-1-3.1v-3.3c0-1.4 1.1-2.5 2.5-2.5h.7c1.4 0 2.5 1.1 2.5 2.5v1.3c0 .2.3.5.5.5h.7c.2 0 .5-.3.5-.5v-1.3c0-1.4 1.1-2.5 2.5-2.5h.7c1.4 0 2.5 1.1 2.5 2.5v1.3c0 .2.3.5.5.5h.7c.2 0 .5-.3.5-.5v-1.3c0-1.4 1.1-2.5 2.5-2.5h.7.2c1 .2 2 1.2 2 2.5v3.3c0 1.1-.4 2.2-1 3.1l-1.5 2.1c-.2.3-.5.4-.8.4zm-13.1-2h12.6l1.2-1.7c.4-.5.6-1.2.6-1.9v-3.3c0-.2-.2-.4-.4-.5h-.5c-.2 0-.5.3-.5.5v1.3c0 1.4-1.1 2.5-2.5 2.5h-.7c-1.4 0-2.5-1.1-2.5-2.5v-1.3c0-.2-.3-.5-.5-.5h-.7c-.2 0-.5.3-.5.5v1.3c0 1.4-1.1 2.5-2.5 2.5h-.7c-1.4 0-2.5-1.1-2.5-2.5v-1.3c0-.2-.3-.5-.5-.5h-.7c-.2 0-.5.3-.5.5v3.3c0 .7.2 1.4.6 1.9z"/></g><g><path d="m44.1 60.9h-22.2c-.6 0-1-.4-1-1s.4-1 1-1h22.2c.6 0 1 .4 1 1s-.4 1-1 1z"/></g><g><path d="m44.1 31.7h-22.2c-.6 0-1-.4-1-1s.4-1 1-1h22.2c.6 0 1 .4 1 1s-.4 1-1 1z"/></g><g><path d="m40.7 60.9h-15.4c-.6 0-1-.4-1-1v-11.5c0-4.8 3.9-8.7 8.6-8.7 2.2 0 4.4.9 6.1 2.5 1.8 1.8 2.7 3.9 2.7 6.2v11.5c0 .5-.4 1-1 1zm-14.4-2h13.4v-10.5c0-1.8-.7-3.4-2.1-4.8-1.3-1.2-3-1.9-4.7-1.9-3.6 0-6.6 3-6.6 6.7z"/></g><g><path d="m64 60.9h-62c-.6 0-1-.4-1-1s.4-1 1-1h62c.6 0 1 .4 1 1s-.4 1-1 1z"/></g></g></svg>