<svg id="Layer_1" height="512" viewBox="0 0 66 66" width="512" xmlns="http://www.w3.org/2000/svg"><g><g><path d="m45.9 28.4c-.6 0-1-.4-1-1v-8.9l-10.4-6.4c-.9-.5-2-.5-2.9 0l-10.4 6.4v8.9c0 .6-.4 1-1 1s-1-.4-1-1v-9.5c0-.3.2-.7.5-.9l10.9-6.7c1.5-.9 3.4-.9 4.9 0l10.9 6.7c.3.2.5.5.5.9v9.5c0 .6-.5 1-1 1z"/></g><g><path d="m48.9 20.7c-.2 0-.4 0-.5-.1l-13.9-8.5c-.9-.5-2-.5-2.9 0l-13.9 8.5c-.5.3-1.1.1-1.4-.3-.3-.5-.1-1.1.3-1.4l13.9-8.5c1.5-.9 3.4-.9 4.9 0l13.9 8.5c.5.3.6.9.3 1.4-.1.2-.4.4-.7.4z"/></g><g><path d="m56.1 60.7c-.6 0-1-.4-1-1v-21.8l-9.4-5.2h-25.3l-9.4 5.2v21.8c0 .6-.4 1-1 1s-1-.4-1-1v-22.4c0-.4.2-.7.5-.9l10.2-5.6c.1-.1.3-.1.5-.1h25.8c.2 0 .3 0 .5.1l10.2 5.6c.3.2.5.5.5.9v22.4c-.1.6-.6 1-1.1 1z"/></g><g><path d="m6.5 40.2c-.4 0-.7-.2-.9-.5-.3-.5-.1-1.1.4-1.4l3.4-1.9 10.2-5.6c.5-.3 1.1-.1 1.4.4s.1 1.1-.4 1.4l-13.6 7.5c-.1.1-.3.1-.5.1z"/></g><g><path d="m59.5 40.2c-.2 0-.3 0-.5-.1l-3.4-1.9-10.2-5.6c-.5-.3-.7-.9-.4-1.4s.9-.7 1.4-.4l13.6 7.5c.5.3.7.9.4 1.4-.2.3-.6.5-.9.5z"/></g><g><path d="m40 60.8c-.6 0-1-.4-1-1v-9.9c0-1.7-.6-3.2-1.7-4.3s-2.7-1.8-4.3-1.8c-3.4 0-6 2.6-6 6v9.9c0 .6-.4 1-1 1s-1-.4-1-1v-9.9c0-4.5 3.5-8 8-8 2.1 0 4.2.9 5.7 2.4s2.3 3.5 2.3 5.7v9.9c0 .6-.5 1-1 1z"/></g><g><path d="m33 27.7c-3.1 0-5.6-2.5-5.6-5.6s2.5-5.6 5.6-5.6 5.6 2.5 5.6 5.6-2.5 5.6-5.6 5.6zm0-9.2c-2 0-3.6 1.6-3.6 3.6s1.6 3.6 3.6 3.6 3.6-1.6 3.6-3.6-1.6-3.6-3.6-3.6z"/></g><g><path d="m33 11.6c-.6 0-1-.4-1-1v-8.6c0-.6.4-1 1-1s1 .4 1 1v8.6c0 .6-.4 1-1 1z"/></g><g><path d="m35.6 5.3h-5.2c-.6 0-1-.4-1-1s.4-1 1-1h5.2c.6 0 1 .4 1 1s-.5 1-1 1z"/></g><g><path d="m60 65h-54c-.6 0-1-.4-1-1s.4-1 1-1h54c.6 0 1 .4 1 1s-.5 1-1 1z"/></g></g></svg>