<svg id="Layer_1" height="512" viewBox="0 0 66 66" width="512" xmlns="http://www.w3.org/2000/svg"><g><g><path d="m60.7 60.5c-.6 0-1-.4-1-1v-34.3c0-.6.4-1 1-1s1 .4 1 1v34.3c0 .5-.4 1-1 1z"/></g><g><path d="m5.3 60.5c-.6 0-1-.4-1-1v-34.3c0-.6.4-1 1-1s1 .4 1 1v34.3c0 .5-.4 1-1 1z"/></g><g><path d="m56.8 27.3h-47.6c-.6 0-1-.4-1-1s.4-1 1-1h47.6c.6 0 1 .4 1 1s-.4 1-1 1z"/></g><g><path d="m56.8 32.1h-47.6c-.6 0-1-.4-1-1s.4-1 1-1h47.6c.6 0 1 .4 1 1s-.4 1-1 1z"/></g><g><path d="m63 14c-.6 0-1-.4-1-1v-4.2c0-.8-.4-1.6-1-2.1-.6-.6-1.5-.8-2.3-.7l-16.9 2.5c-.6.1-1.1-.3-1.1-.8-.1-.5.3-1.1.8-1.1l17-2.6c1.4-.2 2.8.2 3.9 1.2 1 .9 1.6 2.2 1.6 3.6v4.2c0 .6-.4 1-1 1z"/></g><g><path d="m60.2 22.3h-54.4c-2.2 0-3.9-1.7-3.9-3.9v-12c0-2.7 2.2-4.9 4.9-4.9.4 0 .8 0 1.1.1l24 6.2 31.5 8.2c.4.1.7.5.7 1v1.4c0 2.2-1.7 3.9-3.9 3.9zm-53.4-18.8c-1.6 0-2.9 1.3-2.9 2.9v12c0 1 .9 1.9 1.9 1.9h54.4c1 0 1.9-.9 1.9-1.9v-.6l-30.7-8-24-6.2c-.2-.1-.4-.1-.6-.1z"/></g><g><path d="m55.1 60.5c-.6 0-1-.4-1-1v-21.8c0-.4-.3-.9-.9-.9h-12.9c-.4 0-.9.3-.9.9v21.8c0 .6-.4 1-1 1s-1-.4-1-1v-21.8c0-1.6 1.3-2.9 2.9-2.9h12.9c1.6 0 2.9 1.3 2.9 2.9v21.8c0 .5-.4 1-1 1z"/></g><g><path d="m32.3 54.1h-6.7c-1.6 0-2.9-1.3-2.9-2.9v-13.5c0-1.6 1.3-2.9 2.9-2.9h6.7c1.6-.1 2.9 1.3 2.9 2.9v13.5c0 1.6-1.3 2.9-2.9 2.9zm-6.7-17.3c-.4 0-.9.3-.9.9v13.5c0 .4.3.9.9.9h6.7c.4 0 .9-.3.9-.9v-13.5c0-.5-.4-.9-.7-.9 0 0-.1 0-.2 0z"/></g><g><path d="m18 54.1h-6.7c-1.6 0-2.9-1.3-2.9-2.9v-13.5c0-1.7 1.3-3 3-2.9h6.6c1.6 0 2.9 1.3 2.9 2.9v13.5c0 1.6-1.3 2.9-2.9 2.9zm-6.9-17.3c-.5 0-.7.5-.7.9v13.5c0 .6.5.9.9.9h6.7c.6 0 .9-.5.9-.9v-13.5c0-.6-.5-.9-.9-.9z"/></g><g><path d="m41.2 51.6c-.6 0-1-.4-1-1v-2.1c0-.6.4-1 1-1s1 .4 1 1v2.1c0 .5-.4 1-1 1z"/></g><g><path d="m64 64.4h-62c-.6 0-1-.4-1-1s.4-1 1-1h62c.6 0 1 .4 1 1s-.4 1-1 1z"/></g></g></svg>