<svg id="Layer_1" height="512" viewBox="0 0 66 66" width="512" xmlns="http://www.w3.org/2000/svg"><g><g><path d="m54.7 59h-5.4c-.6 0-1-.4-1-1s.4-1 1-1h5.4c.6 0 1 .4 1 1s-.4 1-1 1z"/></g><g><path d="m16.8 58.7h-5.5c-.6 0-1-.4-1-1s.4-1 1-1h5.5c.6 0 1 .4 1 1s-.4 1-1 1z"/></g><g><path d="m64 64.1h-62c-.6 0-1-.4-1-1s.4-1 1-1h62c.6 0 1 .4 1 1s-.4 1-1 1z"/></g><g><g><path d="m59.7 64.2h-11.5c-.6 0-1-.4-1-1s.4-1 1-1h10.5v-32c0-1.7-1.3-3-3-3h-7.5c-.6 0-1-.4-1-1s.4-1 1-1h7.5c2.8 0 5 2.2 5 5v33c0 .5-.4 1-1 1z"/></g><g><path d="m17.8 64.1h-11.5c-.6 0-1-.4-1-1v-45.9c0-2.8 2.2-5 5-5h7.5c.6 0 1 .4 1 1s-.4 1-1 1h-7.5c-1.7 0-3 1.3-3 3v44.9h10.5c.6 0 1 .4 1 1s-.4 1-1 1z"/></g><g><path d="m54.7 32.3h-5.4c-.6 0-1-.4-1-1s.4-1 1-1h5.4c.6 0 1 .4 1 1s-.4 1-1 1z"/></g><g><path d="m54.7 36.7h-5.4c-.6 0-1-.4-1-1s.4-1 1-1h5.4c.6 0 1 .4 1 1s-.4 1-1 1z"/></g><g><path d="m54.7 41.2h-5.4c-.6 0-1-.4-1-1s.4-1 1-1h5.4c.6 0 1 .4 1 1s-.4 1-1 1z"/></g><g><path d="m54.7 45.6h-5.4c-.6 0-1-.4-1-1s.4-1 1-1h5.4c.6 0 1 .4 1 1s-.4 1-1 1z"/></g><g><path d="m54.7 50.1h-5.4c-.6 0-1-.4-1-1s.4-1 1-1h5.4c.6 0 1 .4 1 1s-.4 1-1 1z"/></g><g><path d="m54.7 54.5h-5.4c-.6 0-1-.4-1-1s.4-1 1-1h5.4c.6 0 1 .4 1 1s-.4 1-1 1z"/></g><g><path d="m16.8 19.6h-5.5c-.6 0-1-.4-1-1s.4-1 1-1h5.5c.6 0 1 .4 1 1s-.4 1-1 1z"/></g><g><path d="m16.8 26.1h-5.5c-.6 0-1-.4-1-1s.4-1 1-1h5.5c.6 0 1 .4 1 1s-.4 1-1 1z"/></g><g><path d="m16.8 32.7h-5.5c-.6 0-1-.4-1-1s.4-1 1-1h5.5c.6 0 1 .4 1 1s-.4 1-1 1z"/></g><g><path d="m16.8 39.2h-5.5c-.6 0-1-.4-1-1s.4-1 1-1h5.5c.6 0 1 .4 1 1s-.4 1-1 1z"/></g><g><path d="m16.8 45.7h-5.5c-.6 0-1-.4-1-1s.4-1 1-1h5.5c.6 0 1 .4 1 1s-.4 1-1 1z"/></g><g><path d="m16.8 52.2h-5.5c-.6 0-1-.4-1-1s.4-1 1-1h5.5c.6 0 1 .4 1 1s-.4 1-1 1z"/></g><g><path d="m44.2 64.1h-22.4c-.6 0-1-.4-1-1v-56.2c0-2.8 2.2-5 5-5 .5 0 1.1.1 1.6.3l14.4 4.8c2 .6 3.4 2.6 3.4 4.7v51.4c0 .5-.4 1-1 1zm-21.4-2h20.4v-50.4c0-1.3-.8-2.5-2-2.8l-14.4-4.8c-2-.7-4 .9-4 2.8z"/></g><g><path d="m44.2 64.1h-22.4c-.6 0-1-.4-1-1v-56.2c0-2.8 2.2-5 5-5 .5 0 1.1.1 1.6.3l14.4 4.8c2 .6 3.4 2.6 3.4 4.7v51.4c0 .5-.4 1-1 1zm-21.4-2h20.4v-50.4c0-1.3-.8-2.5-2-2.8l-14.4-4.8c-2-.7-4 .9-4 2.8z"/></g><g><path d="m38.9 13.4h-11.8c-.6 0-1-.4-1-1s.4-1 1-1h11.8c.6 0 1 .4 1 1s-.4 1-1 1z"/></g><g><path d="m38.9 19.3h-11.8c-.6 0-1-.4-1-1s.4-1 1-1h11.8c.6 0 1 .4 1 1s-.4 1-1 1z"/></g><g><path d="m38.9 25.2h-11.8c-.6 0-1-.4-1-1s.4-1 1-1h11.8c.6 0 1 .4 1 1s-.4 1-1 1z"/></g><g><path d="m38.9 31h-11.8c-.6 0-1-.4-1-1s.4-1 1-1h11.8c.6 0 1 .4 1 1s-.4 1-1 1z"/></g><g><path d="m38.9 36.9h-11.8c-.6 0-1-.4-1-1s.4-1 1-1h11.8c.6 0 1 .4 1 1s-.4 1-1 1z"/></g><g><path d="m38.9 42.8h-11.8c-.6 0-1-.4-1-1s.4-1 1-1h11.8c.6 0 1 .4 1 1s-.4 1-1 1z"/></g><g><path d="m38.9 48.7h-11.8c-.6 0-1-.4-1-1s.4-1 1-1h11.8c.6 0 1 .4 1 1s-.4 1-1 1z"/></g><g><path d="m37.3 64.1h-8.5c-.6 0-1-.4-1-1v-6.5c0-3 2.3-5.3 5.3-5.3 1.4 0 2.7.6 3.7 1.6 1 1.1 1.5 2.4 1.5 3.7v6.5c0 .5-.4 1-1 1zm-7.5-2h6.5v-5.5c0-.8-.4-1.7-1-2.3s-1.4-1-2.2-1c-1.9 0-3.3 1.4-3.3 3.3z"/></g></g></g></svg>