<svg id="Layer_1" height="512" viewBox="0 0 66 66" width="512" xmlns="http://www.w3.org/2000/svg"><g><g><path d="m64 62.3h-62c-.6 0-1-.4-1-1s.4-1 1-1h62c.6 0 1 .4 1 1s-.4 1-1 1z"/></g><g><path d="m49 17h-32c-.6 0-1-.4-1-1v-11.3c0-.6.4-1 1-1h32c.6 0 1 .4 1 1v11.3c0 .6-.4 1-1 1zm-31-2h30v-9.3h-30z"/></g><g><path d="m53.1 5.7h-40.2c-.6 0-1-.4-1-1s.4-1 1-1h40.2c.6 0 1 .4 1 1s-.4 1-1 1z"/></g><g><path d="m48.8 62.3h-31.5c-.6 0-1-.4-1-1v-45.2c0-.6.4-1 1-1h31.5c.6 0 1 .4 1 1v45.2c0 .5-.4 1-1 1zm-30.5-2h29.5v-43.2h-29.5z"/></g><g><path d="m61.5 33.8c-.6 0-1-.4-1-1v-1.4c0-.6.4-1 1-1s1 .4 1 1v1.4c0 .6-.4 1-1 1z"/></g><g><path d="m61.5 62.3h-12.8c-.6 0-1-.4-1-1v-45.2c0-.6.4-1 1-1h9.9c2.2 0 3.9 1.7 3.9 3.9v.7c0 .6-.4 1-1 1s-1-.4-1-1v-.7c0-1-.9-1.9-1.9-1.9h-8.9v43.2h10.8v-2.6c0-.6.4-1 1-1s1 .4 1 1v3.6c0 .5-.4 1-1 1z"/></g><g><path d="m61.5 47c-.6 0-1-.4-1-1v-1.5c0-.6.4-1 1-1s1 .4 1 1v1.5c0 .5-.4 1-1 1z"/></g><g><path d="m4.5 47c-.6 0-1-.4-1-1v-1.5c0-.6.4-1 1-1s1 .4 1 1v1.5c0 .5-.4 1-1 1z"/></g><g><path d="m17.3 62.3h-12.8c-.6 0-1-.4-1-1v-3.6c0-.6.4-1 1-1s1 .4 1 1v2.6h10.8v-43.2h-8.9c-1 0-1.9.9-1.9 1.9v.7c0 .6-.4 1-1 1s-1-.4-1-1v-.7c0-2.1 1.7-3.9 3.9-3.9h9.9c.6 0 1 .4 1 1v45.2c0 .5-.4 1-1 1z"/></g><g><path d="m4.5 33.8c-.6 0-1-.4-1-1v-1.4c0-.6.4-1 1-1s1 .4 1 1v1.4c0 .6-.4 1-1 1z"/></g><g><path d="m10 29.4h-5c-2.2 0-4-1.8-4-3.9 0-1.2.5-2.2 1.3-2.9.6-.6 1.7-1.1 2.7-1.1h5c2.2.1 3.9 1.9 3.9 4 0 2.2-1.7 3.9-3.9 3.9zm-.1-5.9h-4.9c-.5 0-1.1.3-1.4.6-.4.4-.6.9-.6 1.4 0 1 .9 1.9 2 1.9h5c1 0 1.9-.9 1.9-1.9s-.9-1.9-2-2z"/></g><g><path d="m10 55.8h-5c-2.2 0-4-1.8-4-4 0-1.2.5-2.2 1.3-2.9.6-.7 1.7-1.1 2.7-1.1h5c2.2.1 3.9 1.9 3.9 4s-1.8 4-3.9 4zm-.1-6h-4.9c-.5 0-1.1.3-1.4.6-.4.3-.6.8-.6 1.4 0 1.1.9 2 2 2h5c1 0 1.9-.9 1.9-2s-.9-2-2-2z"/></g><g><path d="m10 42.7h-5c-2.2 0-4-1.8-4-4 0-1.1.4-2.1 1.2-2.8.7-.8 1.7-1.2 2.8-1.2h5c2.2 0 3.9 1.8 3.9 4s-1.8 4-3.9 4zm-5-6c-.8 0-1.1.3-1.3.5 0 0-.1.1-.1.1-.4.3-.6.8-.6 1.4 0 1.1.9 2 2 2h5c1 0 1.9-.9 1.9-2s-.8-2-1.9-2z"/></g><g><path d="m61.1 42.7h-5c-2.2 0-4-1.8-4-4 0-1.2.5-2.2 1.3-2.9.7-.7 1.7-1.1 2.7-1.1h5c2.2 0 3.9 1.8 3.9 4s-1.8 4-3.9 4zm-5-6c-.5 0-1.1.3-1.4.6-.4.3-.6.8-.6 1.4 0 1.1.9 2 2 2h5c1 0 1.9-.9 1.9-2s-.8-2-1.9-2z"/></g><g><path d="m55.9 29.4c-2.1 0-3.8-1.8-3.8-3.9 0-1.2.5-2.2 1.3-2.9.7-.7 1.7-1.1 2.7-1.1h5c2.2 0 3.9 1.8 3.9 4 0 2.1-1.8 3.9-3.9 3.9h-5s-.1 0-.2 0zm.2-5.9c-.5 0-1.1.3-1.4.6-.4.3-.6.8-.6 1.4 0 1 .8 1.9 1.8 1.9h.1 5.1c1 0 1.9-.9 1.9-1.9 0-1.1-.8-2-1.9-2z"/></g><g><path d="m61.1 55.8h-5c-2.2 0-4-1.8-4-4 0-1.2.5-2.2 1.3-2.9.7-.7 1.7-1.1 2.7-1.1h5c2.2.1 3.9 1.9 3.9 4s-1.8 4-3.9 4zm-.1-6h-4.9c-.5 0-1.1.3-1.4.6-.4.3-.6.8-.6 1.4 0 1.1.9 2 2 2h5c1 0 1.9-.9 1.9-2s-.9-2-2-2z"/></g><g><path d="m43 62.2h-20c-.6 0-1-.4-1-1v-20.3c0-2.3 1.8-4.1 4.1-4.1h13.7c2.3 0 4.2 1.8 4.2 4.1v20.3c0 .5-.4 1-1 1zm-19-2h18v-19.3c0-1.2-1-2.1-2.2-2.1h-13.7c-1.1 0-2.1 1-2.1 2.1z"/></g><g><path d="m33 62.3c-.6 0-1-.4-1-1v-23.5c0-.6.4-1 1-1s1 .4 1 1v23.5c0 .5-.4 1-1 1z"/></g><g><path d="m33 34.4c-.5 0-1.1-.1-1.6-.2-2.7-.6-4.8-2.7-5.4-5.4-.5-2.2 0-4.4 1.4-6.1 1.7-2.1 4.5-3.1 7.2-2.5s4.8 2.7 5.4 5.4c.5 2.2 0 4.4-1.4 6.1s-3.4 2.7-5.6 2.7zm0-12.3c-1.6 0-3 .7-4 1.9s-1.3 2.8-1 4.4c.4 1.9 1.9 3.4 3.8 3.8 2 .4 4-.3 5.2-1.8 1-1.2 1.3-2.8 1-4.4-.4-1.9-1.9-3.4-3.8-3.8-.4-.1-.8-.1-1.2-.1z"/></g></g></svg>