<svg id="Layer_1" height="512" viewBox="0 0 66 66" width="512" xmlns="http://www.w3.org/2000/svg"><g><g><path d="m64 64h-62c-.6 0-1-.4-1-1s.4-1 1-1h62c.6 0 1 .4 1 1s-.4 1-1 1z"/></g><g><g><path d="m5.8 30.2c-.6 0-1-.4-1-1v-16.8c0-.6.4-1 1-1s1 .4 1 1v16.8c0 .6-.4 1-1 1z"/></g><g><path d="m60.2 30.2c-.6 0-1-.4-1-1v-16.8c0-.6.4-1 1-1s1 .4 1 1v16.8c0 .6-.4 1-1 1z"/></g><g><path d="m60.2 64h-54.4c-.6 0-1-.4-1-1v-20.6c0-.6.4-1 1-1s1 .4 1 1v19.6h52.4v-19.6c0-.6.4-1 1-1s1 .4 1 1v20.6c0 .5-.4 1-1 1z"/></g><g><path d="m20.1 28.8h-7.5c-1.6 0-2.9-1.3-2.9-2.9v-6.6c0-1.9.7-3.5 2-4.7 1.2-1.2 2.8-1.9 4.6-1.9 3.6 0 6.7 3.2 6.7 6.9v6.3c0 1.6-1.3 2.9-2.9 2.9zm-3.8-14.1c-1.2 0-2.4.5-3.2 1.3-.9.8-1.4 2-1.4 3.3v6.6c0 .6.5.9.9.9h7.5c.6 0 .9-.5.9-.9v-6.3c0-2.6-2.2-4.9-4.7-4.9z"/></g><g><path d="m36.7 28.8h-7.5c-1.6 0-2.9-1.3-2.9-2.9v-6.6c0-1.9.7-3.5 2-4.7 1.2-1.2 2.8-1.9 4.6-1.9 3.6 0 6.7 3.2 6.7 6.9v6.3c0 1.6-1.3 2.9-2.9 2.9zm-3.8-14.1c-1.2 0-2.4.5-3.2 1.3-.9.8-1.4 2-1.4 3.3v6.6c0 .6.5.9.9.9h7.5c.6 0 .9-.5.9-.9v-6.3c0-2.6-2.2-4.9-4.7-4.9z"/></g><g><path d="m53.4 28.8h-7.5c-1.6 0-2.9-1.3-2.9-2.9v-6.6c0-1.9.7-3.5 2-4.7 1.2-1.2 2.8-1.9 4.6-1.9 3.6 0 6.7 3.2 6.7 6.9v6.3c0 1.6-1.3 2.9-2.9 2.9zm-3.8-14.1c-1.2 0-2.4.5-3.2 1.3-.9.8-1.4 2-1.4 3.3v6.6c0 .6.5.9.9.9h7.5c.6 0 .9-.5.9-.9v-6.3c0-2.6-2.2-4.9-4.7-4.9z"/></g><g><path d="m39.5 64h-13.1c-.6 0-1-.4-1-1v-12.5c0-4.1 3.4-7.5 7.5-7.6 4.2 0 7.6 3.4 7.6 7.6v12.5c0 .5-.4 1-1 1zm-12.1-2h11.1v-11.5c0-3.1-2.5-5.6-5.6-5.6-3 .1-5.5 2.6-5.5 5.6z"/></g><g><path d="m53.4 56.5h-7.5c-1 0-1.9-.9-1.9-1.9v-9.4c0-1 .9-1.9 1.9-1.9h7.5c1 0 1.9.9 1.9 1.9v9.4c0 1-.9 1.9-1.9 1.9zm-7.4-2h7.3v-9.2h-7.3z"/></g><g><path d="m20.1 56.5h-7.5c-1 0-1.9-.9-1.9-1.9v-9.4c0-1 .9-1.9 1.9-1.9h7.5c1 0 1.9.9 1.9 1.9v9.4c0 1-.9 1.9-1.9 1.9zm-7.4-2h7.3v-9.2h-7.3z"/></g><g><path d="m33 64c-.6 0-1-.4-1-1v-19c0-.6.4-1 1-1s1 .4 1 1v19c0 .5-.4 1-1 1z"/></g><g><path d="m60.2 9.6h-54.4c-2.1 0-3.8-1.7-3.8-3.8s1.6-3.8 3.8-3.8h54.4c2.2 0 3.8 1.7 3.8 3.8s-1.7 3.8-3.8 3.8zm-54.4-5.6c-1 0-1.8.8-1.8 1.8s.8 1.8 1.8 1.8h54.4c1 0 1.8-.8 1.8-1.8s-.8-1.8-1.8-1.8z"/></g><g><path d="m60.2 39.6h-54.4c-2.1 0-3.8-1.7-3.8-3.8s1.7-3.8 3.8-3.8h54.4c2.1 0 3.8 1.7 3.8 3.8s-1.7 3.8-3.8 3.8zm-54.4-5.6c-1 0-1.8.8-1.8 1.8s.8 1.8 1.8 1.8h54.4c1 0 1.8-.8 1.8-1.8s-.8-1.8-1.8-1.8z"/></g></g></g></svg>