<svg id="Layer_1" height="512" viewBox="0 0 66 66" width="512" xmlns="http://www.w3.org/2000/svg"><g><g><path d="m55.4 24.9h-44.8c-.6 0-1-.4-1-1s.4-1 1-1h44.8c.6 0 1 .4 1 1s-.4 1-1 1z"/></g><g><path d="m59.1 29.9h-52.2c-2.2 0-3.9-1.7-3.9-3.9v-2.1c0-.6.4-1 1-1s1 .4 1 1v2.1c0 1 .9 1.9 1.9 1.9h52.2c1 0 1.9-.9 1.9-1.9v-2.1c0-.6.4-1 1-1s1 .4 1 1v2.1c0 2.2-1.7 3.9-3.9 3.9z"/></g><g><path d="m62 64.6h-58c-.6 0-1-.4-1-1v-2.1c0-1.8 1.4-3.3 3.3-3.3h53.8c1.6 0 2.9 1.2 2.9 2.7v2.7c0 .5-.4 1-1 1zm-57-2h56v-1.7c0-.3-.3-.7-.9-.7h-53.8c-.8 0-1.3.5-1.3 1.3z"/></g><g><path d="m40.1 56.1c-.6 0-1-.4-1-1v-8.3c0-3.5-2.7-6.2-6.2-6.2-1.7 0-3.2.6-4.4 1.8s-1.8 2.7-1.8 4.4v8.3c0 .6-.4 1-1 1s-1-.4-1-1v-8.3c0-2.2.8-4.3 2.4-5.8 1.5-1.5 3.6-2.4 5.8-2.4 4.5 0 8.2 3.7 8.2 8.2v8.3c0 .5-.4 1-1 1z"/></g><g><path d="m4 24.9c-.3 0-.6-.1-.8-.4-.3-.4-.3-1.1.2-1.4l25.9-20.4c2.2-1.7 5.2-1.7 7.5 0l25.8 20.4c.4.3.5 1 .2 1.4s-1 .5-1.4.2l-25.8-20.4c-1.5-1.1-3.6-1.1-5.1 0l-25.9 20.4c-.2.1-.4.2-.6.2z"/></g><g><path d="m33 20.1c-3.1 0-5.6-2.5-5.6-5.6s2.5-5.6 5.6-5.6 5.6 2.5 5.6 5.6-2.5 5.6-5.6 5.6zm0-9.2c-2 0-3.6 1.6-3.6 3.6s1.6 3.6 3.6 3.6 3.6-1.6 3.6-3.6-1.6-3.6-3.6-3.6z"/></g><g><path d="m10.1 51.7c-.6 0-1-.4-1-1v-13.3c0-.6.4-1 1-1s1 .4 1 1v13.3c0 .5-.4 1-1 1z"/></g><g><path d="m14 51.7c-.6 0-1-.4-1-1v-13.3c0-.6.4-1 1-1s1 .4 1 1v13.3c0 .5-.4 1-1 1z"/></g><g><path d="m16.1 60.2h-8c-.6 0-1-.4-1-1v-2.5c0-1.7 1.3-3 3-3h4c1.7 0 3 1.3 3 3v2.5c0 .5-.4 1-1 1zm-7-2h6v-1.5c0-.6-.4-1-1-1h-4c-.6 0-1 .4-1 1z"/></g><g><path d="m14.1 34.4h-4c-1.7 0-3-1.3-3-3v-2.5c0-.6.4-1 1-1h8c.6 0 1 .4 1 1v2.5c0 1.7-1.3 3-3 3zm-5-4.5v1.5c0 .6.4 1 1 1h4c.6 0 1-.4 1-1v-1.5z"/></g><g><path d="m52 51.7c-.6 0-1-.4-1-1v-13.3c0-.6.4-1 1-1s1 .4 1 1v13.3c0 .5-.4 1-1 1z"/></g><g><path d="m55.9 51.7c-.6 0-1-.4-1-1v-13.3c0-.6.4-1 1-1s1 .4 1 1v13.3c0 .5-.4 1-1 1z"/></g><g><path d="m57.9 60.2h-8c-.6 0-1-.4-1-1v-2.5c0-1.7 1.3-3 3-3h4c1.7 0 3 1.3 3 3v2.5c0 .5-.4 1-1 1zm-7-2h6v-1.5c0-.6-.4-1-1-1h-4c-.6 0-1 .4-1 1z"/></g><g><path d="m55.9 34.4h-4c-1.7 0-3-1.3-3-3v-2.5c0-.6.4-1 1-1h8c.6 0 1 .4 1 1v2.5c0 1.7-1.3 3-3 3zm-5-4.5v1.5c0 .6.4 1 1 1h4c.6 0 1-.4 1-1v-1.5z"/></g><g><path d="m64 64.6h-62c-.6 0-1-.4-1-1s.4-1 1-1h62c.6 0 1 .4 1 1s-.4 1-1 1z"/></g></g></svg>