<svg id="Layer_1" height="512" viewBox="0 0 66 66" width="512" xmlns="http://www.w3.org/2000/svg"><g><g><path d="m60.8 65h-55.6c-.6 0-1-.4-1-1v-44.5c0-.6.4-1 1-1h15.9c.6 0 1 .4 1 1s-.4 1-1 1h-14.9v42.5h53.6v-42.5h-14.9c-.6 0-1-.4-1-1s.4-1 1-1h15.9c.6 0 1 .4 1 1v44.5c0 .5-.4 1-1 1z"/></g><g><path d="m55.9 65h-45.8c-.6 0-1-.4-1-1v-32.9c0-3.2 2.6-5.8 5.8-5.8h36.4c3.2 0 5.6 2.5 5.6 5.8v32.9c0 .5-.4 1-1 1zm-44.8-2h43.8v-31.9c0-2.1-1.6-3.8-3.6-3.8h-.1-36.2c-2.1 0-3.8 1.7-3.8 3.8v31.9z"/></g><g><path d="m64 20.5h-19.1c-.6 0-1-.4-1-1s.4-1 1-1h19.1c.6 0 1 .4 1 1s-.4 1-1 1z"/></g><g><path d="m21.1 20.5h-19.1c-.6 0-1-.4-1-1s.4-1 1-1h19.1c.6 0 1 .4 1 1s-.4 1-1 1z"/></g><g><path d="m64 65h-62c-.6 0-1-.4-1-1s.4-1 1-1h62c.6 0 1 .4 1 1s-.4 1-1 1z"/></g><g><path d="m27.9 65h-3.4c-1.3 0-2.2-.9-2.2-2.2v-3.1c0-.6.4-1 1-1h5.8c.6 0 1 .4 1 1v3.1c0 1.2-.9 2.2-2.2 2.2zm-3.6-4.3v2.1c0 .1.1.2.2.2h3.4c.1 0 .2-.1.2-.2v-2.1z"/></g><g><path d="m41.6 65h-3.4c-1.3 0-2.2-1-2.2-2.2v-3.1c0-.6.4-1 1-1h5.8c.6 0 1 .4 1 1v3.1c0 1.2-.9 2.2-2.2 2.2zm-3.6-4.3v2.1c0 .1.1.2.2.2h3.4c.1 0 .2-.1.2-.2v-2.1z"/></g><g><path d="m43.6 60.8h-21.3c-1.9 0-3.5-1.6-3.5-3.5v-17.7c0-1.9 1.6-3.5 3.5-3.5h21.3c2 0 3.5 1.5 3.5 3.5v17.7c0 1.9-1.5 3.5-3.5 3.5zm-21.3-22.7c-.9 0-1.5.8-1.5 1.5v17.7c0 .9.8 1.5 1.5 1.5h21.3c.8 0 1.5-.7 1.5-1.5v-17.7c0-.8-.7-1.5-1.5-1.5z"/></g><g><path d="m43.7 60.8h-21.3c-2 0-3.5-1.5-3.5-3.5v-4.4c0-.6.4-1 1-1h26.3c.6 0 1 .4 1 1v4.4c0 1.9-1.5 3.5-3.5 3.5zm-22.8-6.9v3.4c0 .8.7 1.5 1.5 1.5h21.3c.8 0 1.5-.7 1.5-1.5v-3.4z"/></g><g><path d="m47.9 46.8h-1.8c-.6 0-1-.4-1-1s.4-1 1-1h1.8c.8 0 1.3-.7 1.3-1.3v-2.5c0-.6.4-1 1-1s1 .4 1 1v2.5c0 1.8-1.5 3.3-3.3 3.3z"/></g><g><path d="m19.9 46.8h-1.8c-1.8 0-3.3-1.5-3.3-3.3v-2.5c0-.6.4-1 1-1s1 .4 1 1v2.5c0 .6.5 1.3 1.3 1.3h1.8c.6 0 1 .4 1 1s-.4 1-1 1z"/></g><g><path d="m25.4 57.3h-1.3c-.6 0-1-.4-1-1s.4-1 1-1h1.3c.6 0 1 .4 1 1s-.4 1-1 1z"/></g><g><path d="m41.9 57.3h-1.3c-.6 0-1-.4-1-1s.4-1 1-1h1.3c.6 0 1 .4 1 1s-.4 1-1 1z"/></g><g><path d="m33 53.9c-.6 0-1-.4-1-1v-15.8c0-.6.4-1 1-1s1 .4 1 1v15.8c0 .5-.4 1-1 1z"/></g><g><path d="m36.1 38.1h-6.2c-.6 0-1-.4-1-1v-3.5c0-2.1 1.7-3.9 3.9-3.9h.3c2.2 0 3.9 1.7 3.9 3.9l.1 3.3v.2c0 .5-.4 1-1 1zm-5.2-2h4.2l-.1-2.5c0-1.1-.9-1.9-1.9-1.9h-.3c-1 0-1.9.9-1.9 1.9z"/></g><g><path d="m33 23c-6.1 0-11-4.9-11-11s4.9-11 11-11 11 5 11 11-4.9 11-11 11zm0-20c-5 0-9 4-9 9s4 9 9 9 9-4 9-9-4-9-9-9z"/></g><g><path d="m33 18.1c-3.4 0-6.1-2.7-6.1-6.1s2.7-6.1 6.1-6.1 6.1 2.7 6.1 6.1-2.7 6.1-6.1 6.1zm0-10.2c-2.3 0-4.1 1.8-4.1 4.1s1.8 4.1 4.1 4.1 4.1-1.8 4.1-4.1-1.8-4.1-4.1-4.1z"/></g></g></svg>