<svg id="Layer_1" height="512" viewBox="0 0 66 66" width="512" xmlns="http://www.w3.org/2000/svg"><g><g><path d="m59.2 60.5c-.6 0-1-.4-1-1v-38.9c0-.6.4-1 1-1s1 .4 1 1v38.9c0 .5-.4 1-1 1z"/></g><g><path d="m53.3 60.5c-.6 0-1-.4-1-1v-38.9c0-.6.4-1 1-1s1 .4 1 1v38.9c0 .5-.4 1-1 1z"/></g><g><path d="m5.8 60.5c-.6 0-1-.4-1-1v-38.9c0-.6.4-1 1-1s1 .4 1 1v38.9c0 .5-.4 1-1 1z"/></g><g><path d="m11.7 60.5c-.6 0-1-.4-1-1v-38.9c0-.6.4-1 1-1s1 .4 1 1v38.9c0 .5-.4 1-1 1z"/></g><g><path d="m60 21.7h-55c-2.2 0-4-1.8-4-4v-8.2c0-2.2 1.8-4 4-4h55.1c2.2 0 3.9 1.8 3.9 4v8.2c0 2.2-1.8 4-4 4zm-55-14.2c-1.1 0-2 .9-2 2v8.2c0 1.1.9 2 2 2h55c1.1 0 2-.9 2-2v-8.2c0-1.1-.8-2-1.9-2z"/></g><g><path d="m41 56.6c-.6 0-1-.4-1-1v-22.5c0-1.1-.9-2-2-2h-14c-1.1 0-2 .9-2 2v22.4c0 .6-.4 1-1 1s-1-.4-1-1v-22.4c0-2.2 1.8-4 4-4h14c2.2 0 4 1.8 4 4v22.5c0 .5-.4 1-1 1z"/></g><g><path d="m35 44.6h-8c-1.7 0-3-1.3-3-3v-5.5c0-1.7 1.3-3 3-3h8.1c1.6 0 2.9 1.4 2.9 3v5.5c0 1.6-1.3 3-3 3zm-8-9.5c-.6 0-1 .4-1 1v5.5c0 .6.4 1 1 1h8c.6 0 1-.4 1-1v-5.5c0-.6-.5-1-.9-1z"/></g><g><path d="m46.2 55.6c-2 0-3.5-1.5-3.5-3.5v-1.6c0-1-.7-1.7-1.7-1.7-.6 0-1-.4-1-1s.4-1 1-1c2 0 3.7 1.7 3.7 3.7v1.6c0 .8.7 1.5 1.5 1.5s1.5-.7 1.5-1.5v-14.4c0-.6.4-1 1-1s1 .4 1 1v14.4c0 1.9-1.5 3.5-3.5 3.5z"/></g><g><path d="m48.7 44.5h-2c-1.6 0-2.9-1.3-2.9-2.9v-2.1c0-1.6 1.3-2.9 2.9-2.9h2c.6 0 1 .4 1 1v5.9c0 .5-.4 1-1 1zm-2-5.9c-.6 0-.9.5-.9.9v2.1c0 .6.5.9.9.9h1v-3.9z"/></g><g><path d="m48.7 38.7c-.3 0-.6-.2-.8-.4l-2.9-4.4c-.3-.5-.2-1.1.3-1.4s1.1-.2 1.4.3l2.9 4.4c.3.5.2 1.1-.3 1.4-.2 0-.4.1-.6.1z"/></g><g><path d="m49.5 12.1h-34c-.6 0-1-.4-1-1s.4-1 1-1h34c.6 0 1 .4 1 1s-.4 1-1 1z"/></g><g><path d="m49.5 17.1h-34c-.6 0-1-.4-1-1s.4-1 1-1h34c.6 0 1 .4 1 1s-.4 1-1 1z"/></g><g><path d="m28.4 49.4h-2.2c-.6 0-1-.4-1-1s.4-1 1-1h2.2c.6 0 1 .4 1 1s-.4 1-1 1z"/></g><g><path d="m28.4 52.9h-2.2c-.6 0-1-.4-1-1s.4-1 1-1h2.2c.6 0 1 .4 1 1s-.4 1-1 1z"/></g><g><path d="m64 60.5h-62c-.6 0-1-.4-1-1s.4-1 1-1h62c.6 0 1 .4 1 1s-.4 1-1 1z"/></g></g></svg>