<svg id="Layer_1" height="512" viewBox="0 0 66 66" width="512" xmlns="http://www.w3.org/2000/svg"><g><g><path d="m64.2 65h-62.4c-.6 0-1-.4-1-1s.4-1 1-1h62.4c.6 0 1 .4 1 1s-.5 1-1 1z"/></g><g><path d="m61.2 65h-13.8c-.6 0-1-.4-1-1v-32c0-.6.4-1 1-1h10.8c2.2 0 4 1.8 4 4v29c0 .6-.5 1-1 1zm-12.8-2h11.8v-28c0-1.1-.9-2-2-2h-9.8z"/></g><g><path d="m18.6 65h-13.8c-.6 0-1-.4-1-1v-29c0-2.2 1.8-4 4-4h10.8c.6 0 1 .4 1 1v32c0 .6-.4 1-1 1zm-12.8-2h11.8v-30h-9.7c-1.1 0-2 .9-2 2v28z"/></g><g><path d="m47.4 65h-28.8c-.6 0-1-.4-1-1v-38.3c0-.6.4-1 1-1s1 .4 1 1v37.3h26.8v-37.3c0-.6.4-1 1-1s1 .4 1 1v38.3c0 .6-.5 1-1 1z"/></g><g><path d="m42.8 65h-19.4c-.6 0-1-.4-1-1v-38.3c0-.6.4-1 1-1s1 .4 1 1v37.3h17.3v-37.3c0-.6.4-1 1-1s1 .4 1 1v38.3c.1.6-.4 1-.9 1z"/></g><g><path d="m38.2 65h-10.3c-.6 0-1-.4-1-1v-10.5c0-3.4 2.7-6.1 6.1-6.1 1.6 0 3.2.7 4.3 1.8 1.2 1.1 1.9 2.6 1.9 4.3v10.5c0 .6-.4 1-1 1zm-9.3-2h8.4v-9.5c0-1.1-.4-2.1-1.3-2.9-.8-.8-1.9-1.3-3-1.3-2.3 0-4.1 1.9-4.1 4.1z"/></g><g><path d="m33.1 42.6c-3.3 0-5.9-2.7-5.9-5.9 0-3.3 2.7-5.9 5.9-5.9 3.3 0 5.9 2.7 5.9 5.9s-2.6 5.9-5.9 5.9zm0-9.9c-2.2 0-3.9 1.8-3.9 3.9s1.8 3.9 3.9 3.9 3.9-1.8 3.9-3.9-1.7-3.9-3.9-3.9z"/></g><g><path d="m48.1 22.6h-30.2c-1.3 0-2.5-.6-3.2-1.6s-1-2.2-.7-3.3c.7-3.3 2.4-6.2 4.7-8.4 3.4-3.3 7.8-5.1 12.3-5.1h4c8.2 0 15.2 5.6 17 13.6.3 1.1.1 2.3-.7 3.3-.7.9-2 1.5-3.2 1.5zm-17.1-16.4c-4 0-7.8 1.6-10.9 4.5-2.1 2-3.5 4.5-4.1 7.5-.2.6 0 1.1.3 1.6.4.5 1 .8 1.6.8h30.2c.6 0 1.3-.3 1.6-.8.4-.5.5-1 .3-1.6-1.6-7.1-7.7-12-15-12z"/></g><g><path d="m32.3 6.2c-.6 0-1-.4-1-1v-3.2c0-.6.4-1 1-1s1 .4 1 1v3.2c0 .6-.5 1-1 1z"/></g><g><path d="m14.3 38.3h-5.2c-.6 0-1-.4-1-1s.4-1 1-1h5.2c.6 0 1 .4 1 1s-.5 1-1 1z"/></g><g><path d="m14.3 43.7h-5.2c-.6 0-1-.4-1-1s.4-1 1-1h5.2c.6 0 1 .4 1 1s-.5 1-1 1z"/></g><g><path d="m14.3 49h-5.2c-.6 0-1-.4-1-1s.4-1 1-1h5.2c.6 0 1 .4 1 1s-.5 1-1 1z"/></g><g><path d="m14.3 54.3h-5.2c-.6 0-1-.4-1-1s.4-1 1-1h5.2c.6 0 1 .4 1 1s-.5 1-1 1z"/></g><g><path d="m14.3 59.7h-5.2c-.6 0-1-.4-1-1s.4-1 1-1h5.2c.6 0 1 .4 1 1s-.5 1-1 1z"/></g><g><path d="m56.9 38.3h-5.2c-.6 0-1-.4-1-1s.4-1 1-1h5.2c.6 0 1 .4 1 1s-.4 1-1 1z"/></g><g><path d="m56.9 43.7h-5.2c-.6 0-1-.4-1-1s.4-1 1-1h5.2c.6 0 1 .4 1 1s-.4 1-1 1z"/></g><g><path d="m56.9 49h-5.2c-.6 0-1-.4-1-1s.4-1 1-1h5.2c.6 0 1 .4 1 1s-.4 1-1 1z"/></g><g><path d="m56.9 54.3h-5.2c-.6 0-1-.4-1-1s.4-1 1-1h5.2c.6 0 1 .4 1 1s-.4 1-1 1z"/></g><g><path d="m56.9 59.7h-5.2c-.6 0-1-.4-1-1s.4-1 1-1h5.2c.6 0 1 .4 1 1s-.4 1-1 1z"/></g></g></svg>