<svg id="Layer_1" height="512" viewBox="0 0 66 66" width="512" xmlns="http://www.w3.org/2000/svg"><g><g><path d="m61.2 63.1h-56.4c-.6 0-1-.4-1-1v-35c0-.6.4-1 1-1s1 .4 1 1v34h54.4v-34c0-.6.4-1 1-1s1 .4 1 1v35c0 .5-.4 1-1 1z"/></g><g><path d="m38.4 19.3h-10.8c-.6 0-1-.4-1-1s.4-1 1-1h10.8c.6 0 1 .4 1 1s-.4 1-1 1z"/></g><g><path d="m61.5 24.3h-57c-.8 0-1.7-.3-2.4-.9 0 0-.1 0-.1-.1-.6-.6-1-1.6-1-2.5 0-2 1.5-3.5 3.5-3.5h8c.6 0 1 .4 1 1s-.4 1-1 1h-8c-.8 0-1.5.7-1.5 1.5 0 .4.2.8.4 1.1.4.3.8.4 1.1.4h57c.8 0 1.5-.7 1.5-1.5s-.7-1.5-1.5-1.5h-8c-.6 0-1-.4-1-1s.4-1 1-1h8c2 0 3.5 1.5 3.5 3.5s-1.5 3.5-3.5 3.5z"/></g><g><path d="m63 63.1h-60c-.6 0-1-.4-1-1s.4-1 1-1h60c.6 0 1 .4 1 1s-.4 1-1 1z"/></g><g><path d="m16 14.6h-3c-.8 0-1.7-.3-2.4-.9 0 0-.1 0-.1-.1-.7-.7-1-1.5-1-2.5-.1-.8.2-1.7.9-2.4.6-.7 1.6-1.1 2.6-1.1h3c.6 0 1 .4 1 1v5c0 .6-.4 1-1 1zm-4.1-2.4c.4.3.8.4 1.1.4h2v-3h-2c-.4 0-.9.2-1.2.5-.2.2-.4.5-.3.9 0 .6.1.9.4 1.2z"/></g><g><path d="m41.8 14.6h-17.7c-.6 0-1-.4-1-1v-5c0-.6.4-1 1-1h17.7c.6 0 1 .4 1 1v5c0 .6-.4 1-1 1zm-16.7-2h15.7v-3h-15.7z"/></g><g><path d="m53.1 14.6h-3c-.6 0-1-.4-1-1v-5c0-.6.4-1 1-1h3c1.9 0 3.5 1.6 3.5 3.5 0 2-1.5 3.5-3.5 3.5zm-2-2h2c.8 0 1.5-.7 1.5-1.5 0-.9-.8-1.5-1.5-1.5h-2z"/></g><g><path d="m48.2 19.3h-4.5c-1.6 0-2.9-1.3-2.9-2.9v-10.6c0-1.6 1.3-2.9 2.9-2.9h4.5c1.5 0 2.9 1.4 2.9 2.9v10.6c0 1.6-1.3 2.9-2.9 2.9zm-4.5-14.4c-.6 0-.9.5-.9.9v10.6c0 .6.5.9.9.9h4.5c.6 0 .9-.5.9-.9v-10.6c0-.4-.5-.9-.9-.9z"/></g><g><path d="m22.2 19.3h-4.5c-1.6 0-2.9-1.3-2.9-2.9v-10.6c0-1.6 1.3-2.9 2.9-2.9h4.5c1.6 0 2.9 1.3 2.9 2.9v10.6c0 1.6-1.3 2.9-2.9 2.9zm-4.5-14.4c-.6 0-.9.5-.9.9v10.6c0 .6.5.9.9.9h4.5c.6 0 .9-.5.9-.9v-10.6c0-.4-.3-.9-.9-.9z"/></g><g><path d="m31.8 63h-21.4c-.6 0-1-.4-1-1v-24.8c0-1.6 1.3-2.9 2.9-2.9h17.7c1.5 0 2.8 1.3 2.8 2.9v24.8c0 .5-.4 1-1 1zm-20.4-2h19.4v-23.8c0-.5-.4-.9-.8-.9h-17.7c-.6 0-.9.5-.9.9z"/></g><g><path d="m15.2 52.6c-.3 0-.6-.1-1-.2 0 0-.1 0-.1-.1-.7-.4-1.2-.9-1.5-1.5-.3-1-.2-1.9.3-2.6.7-1 2-1.4 3.2-1 .5.1 1.2.5 1.7 1.6.3 1 .2 1.9-.3 2.6-.6.8-1.5 1.2-2.3 1.2zm-.3-2c.4.1.7 0 .9-.3.2-.2.2-.5.1-.8-.1-.1-.2-.3-.2-.3h-.1c-.4-.1-.8 0-1 .2s-.2.5-.1.8c0 0 .1.2.4.4z"/></g><g><path d="m52 52.6h-10.9c-2.1 0-3.8-1.7-3.8-3.8v-15.1c0-2.1 1.7-3.8 3.8-3.8h10.9.2c2 0 3.6 1.7 3.6 3.8v15.1c0 2.1-1.7 3.8-3.8 3.8zm-10.9-20.7c-1 0-1.8.8-1.8 1.8v15.1c0 .9.9 1.8 1.8 1.8h10.9c1 0 1.8-.8 1.8-1.8v-15.1c0-1-.8-1.8-1.6-1.8 0 0-.1 0-.2 0z"/></g></g></svg>