<svg id="Layer_1" height="512" viewBox="0 0 66 66" width="512" xmlns="http://www.w3.org/2000/svg"><g><g><path d="m43.8 63.5h-38.6c-.6 0-1-.4-1-1v-51.6c0-.6.4-1 1-1s1 .4 1 1v50.5h36.6v-50.5c0-.6.4-1 1-1s1 .4 1 1v51.5c0 .6-.4 1.1-1 1.1z"/></g><g><path d="m37.7 44.8h-26.4c-1.5 0-2.7-1.2-2.7-2.7v-3.4c0-1.5 1.2-2.7 2.7-2.7h26.4c1.5-.1 2.7 1.1 2.7 2.7v3.4c0 1.5-1.2 2.7-2.7 2.7zm-26.4-6.8c-.3 0-.7.2-.7.7v3.4c0 .3.2.7.7.7h26.4c.3 0 .7-.2.7-.7v-3.4c0-.4-.3-.7-.5-.7 0 0-.1 0-.2 0z"/></g><g><path d="m37.7 32.2h-26.4c-1.5 0-2.7-1.2-2.7-2.7v-3.4c0-1.5 1.2-2.7 2.7-2.7h26.4c1.5-.1 2.7 1.1 2.7 2.7v3.4c0 1.5-1.2 2.7-2.7 2.7zm-26.4-6.8c-.3 0-.7.2-.7.7v3.4c0 .3.2.7.7.7h26.4c.3 0 .7-.2.7-.7v-3.4c0-.4-.3-.7-.5-.7 0 0-.1 0-.2 0z"/></g><g><path d="m45 8.5h-41c-1.6 0-2.9-1.3-2.9-3 0-1.6 1.3-3 2.9-3h41c1.6 0 2.9 1.3 2.9 3 0 1.6-1.2 2.9-2.9 3zm-41-4c-.4 0-.9.4-.9 1 0 .5.3 1 .9 1h40.9c.5-.1 1-.5 1-1s-.3-1-.9-1z"/></g><g><path d="m30.7 63.5h-12.5c-.6 0-1-.4-1-1v-9.8c0-2 1.6-3.6 3.6-3.6h7.3c2 0 3.6 1.6 3.6 3.6v9.8c0 .5-.4 1-1 1zm-11.5-2h10.5v-8.8c0-.9-.7-1.6-1.6-1.6h-7.3c-.9 0-1.6.7-1.6 1.6z"/></g><g><path d="m49.6 31.8h-5.9c-.6 0-1-.4-1-1v-10c0-.6.4-1 1-1h5.9c.3 0 .6.2.8.4.2.3.2.6.1.9-.6 1.7-.8 3.2-.8 4.7 0 1.6.3 3.1.8 4.5.1.2.2.3.2.5-.1.6-.5 1-1.1 1zm-4.9-2h3.5c-.3-1.2-.5-2.6-.5-4 0-1.3.2-2.6.6-4h-3.6z"/></g><g><path d="m56.4 37.4c-4.7 0-8.6-5.2-8.6-11.6s3.9-11.6 8.6-11.6 8.6 5.2 8.6 11.6-3.9 11.6-8.6 11.6zm0-21.2c-3.6 0-6.6 4.3-6.6 9.6s3 9.6 6.6 9.6 6.6-4.3 6.6-9.6-3-9.6-6.6-9.6z"/></g><g><path d="m53.2 28.6c-.3 0-.7-.2-.9-.5-.3-.5-.1-1.1.4-1.4l6.3-3.6c.5-.3 1.1-.1 1.4.4s.1 1.1-.4 1.4l-6.3 3.6c-.2.1-.3.1-.5.1z"/></g><g><path d="m59.5 28.6c-.2 0-.3 0-.5-.1l-6.3-3.6c-.5-.3-.6-.9-.4-1.4.3-.5.9-.6 1.4-.4l6.3 3.6c.5.3.6.9.4 1.4-.2.3-.6.5-.9.5z"/></g><g><path d="m56.4 30.4c-.6 0-1-.4-1-1v-7.2c0-.6.4-1 1-1s1 .4 1 1v7.2c0 .6-.4 1-1 1z"/></g><g><path d="m37.7 20.6h-26.4c-1.5 0-2.7-1.2-2.7-2.7v-3.4c0-1.5 1.2-2.7 2.7-2.7h26.4c1.5 0 2.7 1.2 2.7 2.7v3.4c0 1.5-1.2 2.7-2.7 2.7zm-26.4-6.8c-.3 0-.7.2-.7.7v3.4c0 .3.2.7.7.7h26.4c.3 0 .7-.2.7-.7v-3.4c0-.3-.4-.7-.7-.7z"/></g><g><path d="m47 63.5h-45c-.6 0-1-.4-1-1s.4-1 1-1h45c.6 0 1 .4 1 1s-.4 1-1 1z"/></g></g></svg>