<svg id="Layer_1" height="512" viewBox="0 0 66 66" width="512" xmlns="http://www.w3.org/2000/svg"><g><g><path d="m17.5 49.2c-.6 0-1-.4-1-1v-37c0-.6.4-1 1-1s1 .4 1 1v37c0 .5-.4 1-1 1z"/></g><g><path d="m60.4 49.2c-.6 0-1-.4-1-1v-37c0-.6.4-1 1-1s1 .4 1 1v37c0 .5-.4 1-1 1z"/></g><g><path d="m61.8 8.4h-45.7c-1.7 0-3.1-1.4-3.1-3.2 0-1.7 1.4-3.2 3.1-3.2h45.7c1.7 0 3.1 1.4 3.1 3.1 0 1.8-1.3 3.2-3.1 3.3zm-45.7-4.4c-.5 0-1.1.5-1.1 1.2s.5 1.2 1.1 1.2h45.7c.7-.1 1.1-.6 1.1-1.3 0-.6-.5-1.1-1.1-1.1z"/></g><g><path d="m60.4 64h-42.9c-.6 0-1-.4-1-1v-14.8c0-.6.4-1 1-1s1 .4 1 1v13.8h40.9v-13.8c0-.6.4-1 1-1s1 .4 1 1v14.8c0 .5-.4 1-1 1z"/></g><g><path d="m56.2 49.2h-34.5c-.6 0-1-.4-1-1s.4-1 1-1h34.5c.6 0 1 .4 1 1s-.4 1-1 1z"/></g><g><path d="m44.3 64h-10.6c-.6 0-1-.4-1-1v-7.4c0-2.1 1.7-3.9 3.9-3.9h4.8c2.2 0 3.9 1.7 3.9 3.9v7.4c0 .5-.4 1-1 1zm-9.6-2h8.6v-6.4c0-1-.9-1.9-1.9-1.9h-4.8c-1 0-1.9.9-1.9 1.9z"/></g><g><g><path d="m27.3 18h-4.4c-.6 0-1-.4-1-1v-4.4c0-.6.4-1 1-1h4.4c.6 0 1 .4 1 1v4.4c0 .6-.4 1-1 1zm-3.4-2h2.4v-2.4h-2.4z"/></g><g><path d="m27.3 26.7h-4.4c-.6 0-1-.4-1-1v-4.4c0-.6.4-1 1-1h4.4c.6 0 1 .4 1 1v4.4c0 .6-.4 1-1 1zm-3.4-2h2.4v-2.4h-2.4z"/></g><g><path d="m27.3 35.3h-4.4c-.6 0-1-.4-1-1v-4.4c0-.6.4-1 1-1h4.4c.6 0 1 .4 1 1v4.4c0 .6-.4 1-1 1zm-3.4-2h2.4v-2.4h-2.4z"/></g><g><path d="m27.3 44h-4.4c-.6 0-1-.4-1-1v-4.4c0-.6.4-1 1-1h4.4c.6 0 1 .4 1 1v4.4c0 .5-.4 1-1 1zm-3.4-2h2.4v-2.4h-2.4z"/></g><g><path d="m36.6 18h-4.4c-.6 0-1-.4-1-1v-4.4c0-.6.4-1 1-1h4.4c.6 0 1 .4 1 1v4.4c0 .6-.4 1-1 1zm-3.4-2h2.4v-2.4h-2.4z"/></g><g><path d="m36.6 26.7h-4.4c-.6 0-1-.4-1-1v-4.4c0-.6.4-1 1-1h4.4c.6 0 1 .4 1 1v4.4c0 .6-.4 1-1 1zm-3.4-2h2.4v-2.4h-2.4z"/></g><g><path d="m36.6 35.3h-4.4c-.6 0-1-.4-1-1v-4.4c0-.6.4-1 1-1h4.4c.6 0 1 .4 1 1v4.4c0 .6-.4 1-1 1zm-3.4-2h2.4v-2.4h-2.4z"/></g><g><path d="m36.6 44h-4.4c-.6 0-1-.4-1-1v-4.4c0-.6.4-1 1-1h4.4c.6 0 1 .4 1 1v4.4c0 .5-.4 1-1 1zm-3.4-2h2.4v-2.4h-2.4z"/></g><g><path d="m45.8 18h-4.4c-.6 0-1-.4-1-1v-4.4c0-.6.4-1 1-1h4.4c.6 0 1 .4 1 1v4.4c0 .6-.4 1-1 1zm-3.4-2h2.4v-2.4h-2.4z"/></g><g><path d="m45.8 26.7h-4.4c-.6 0-1-.4-1-1v-4.4c0-.6.4-1 1-1h4.4c.6 0 1 .4 1 1v4.4c0 .6-.4 1-1 1zm-3.4-2h2.4v-2.4h-2.4z"/></g><g><path d="m45.8 35.3h-4.4c-.6 0-1-.4-1-1v-4.4c0-.6.4-1 1-1h4.4c.6 0 1 .4 1 1v4.4c0 .6-.4 1-1 1zm-3.4-2h2.4v-2.4h-2.4z"/></g><g><path d="m45.8 44h-4.4c-.6 0-1-.4-1-1v-4.4c0-.6.4-1 1-1h4.4c.6 0 1 .4 1 1v4.4c0 .5-.4 1-1 1zm-3.4-2h2.4v-2.4h-2.4z"/></g><g><path d="m55.1 18h-4.4c-.6 0-1-.4-1-1v-4.4c0-.6.4-1 1-1h4.4c.6 0 1 .4 1 1v4.4c0 .6-.4 1-1 1zm-3.4-2h2.4v-2.4h-2.4z"/></g><g><path d="m55.1 26.7h-4.4c-.6 0-1-.4-1-1v-4.4c0-.6.4-1 1-1h4.4c.6 0 1 .4 1 1v4.4c0 .6-.4 1-1 1zm-3.4-2h2.4v-2.4h-2.4z"/></g><g><path d="m55.1 35.3h-4.4c-.6 0-1-.4-1-1v-4.4c0-.6.4-1 1-1h4.4c.6 0 1 .4 1 1v4.4c0 .6-.4 1-1 1zm-3.4-2h2.4v-2.4h-2.4z"/></g><g><path d="m55.1 44h-4.4c-.6 0-1-.4-1-1v-4.4c0-.6.4-1 1-1h4.4c.6 0 1 .4 1 1v4.4c0 .5-.4 1-1 1zm-3.4-2h2.4v-2.4h-2.4z"/></g></g><g><path d="m7 40.8c-3.3 0-6-2.7-6-6v-20.7c0-3.3 2.7-6 6-6 3.2 0 5.9 2.7 6 6v20.7c0 3.4-2.6 6-6 6zm0-30.7c-2.2 0-4 1.8-4 4v20.7c0 2.2 1.8 4 4 4s4-1.8 4-4v-20.7c-.1-2.2-1.9-4-4-4z"/></g><g><path d="m17.5 16.9h-5.6c-.6 0-1-.4-1-1s.4-1 1-1h5.6c.6 0 1 .4 1 1s-.4 1-1 1z"/></g><g><path d="m17.5 34h-5.6c-.6 0-1-.4-1-1s.4-1 1-1h5.6c.6 0 1 .4 1 1s-.4 1-1 1z"/></g><g><path d="m64 64h-50.1c-.6 0-1-.4-1-1s.4-1 1-1h50.1c.6 0 1 .4 1 1s-.4 1-1 1z"/></g></g></svg>