<svg id="Layer_1" height="512" viewBox="0 0 66 66" width="512" xmlns="http://www.w3.org/2000/svg"><g><g><path d="m60.1 58.8h-54.2c-.6 0-1-.4-1-1v-29.2c0-.6.4-1 1-1s1 .4 1 1v28.2h52.2v-28.2c0-.6.4-1 1-1s1 .4 1 1v29.2c0 .5-.5 1-1 1z"/></g><g><path d="m62.4 58.8h-58.8c-.6 0-1-.4-1-1s.4-1 1-1h58.8c.6 0 1 .4 1 1s-.5 1-1 1z"/></g><g><path d="m61.4 29.6h-9.4c-.6 0-1-.4-1-1s.4-1 1-1h9.4c.6 0 1.1-.3 1.4-.8s.3-1.1 0-1.6l-8.1-14.8c-.4-.8-1.3-1.3-2.1-1.3h-39.2c-.9 0-1.7.5-2.1 1.3l-8.1 14.8c-.3.5-.2 1.1.1 1.5.3.5.8.8 1.4.8h9.3c.6 0 1 .4 1 1s-.4 1-1 1h-9.4c-1.3 0-2.4-.6-3.1-1.7s-.7-2.4-.1-3.5l8.1-14.8c.8-1.4 2.2-2.3 3.9-2.3h39.2c1.6 0 3.1.9 3.9 2.3l8.1 14.8c.6 1.1.6 2.5-.1 3.5-.7 1.2-1.8 1.8-3.1 1.8z"/></g><g><path d="m44.6 58.8h-23.3c-.6 0-1-.4-1-1v-22.3c0-.9-.7-1.6-1.6-1.6-1.3 0-2.3-.8-2.7-2s0-2.4.9-3.2l14.2-11.1c1.1-.8 2.5-.8 3.5 0l14.2 11.1c1.1.8 1.5 2.1 1.1 3.3s-1.5 1.9-2.7 1.9c-.9 0-1.6.7-1.6 1.6v22.3c0 .5-.4 1-1 1zm-22.3-2h21.3v-21.3c0-2 1.6-3.6 3.6-3.6.6 0 .8-.4.8-.5.1-.2.1-.6-.4-1l-14.2-11.2c-.3-.2-.8-.2-1.1 0l-14.2 11.1c-.4.4-.3.8-.3 1 .1.1.3.6.9.6 2 0 3.6 1.6 3.6 3.6z"/></g><g><path d="m39.1 58.8h-12.2c-.6 0-1-.4-1-1v-14.6c0-1.8 1.4-3.2 3.2-3.2h7.8c1.8 0 3.2 1.4 3.2 3.2v14.6c0 .5-.4 1-1 1zm-11.2-2h10.2v-13.6c0-.6-.5-1.2-1.2-1.2h-7.8c-.7 0-1.2.5-1.2 1.2z"/></g><g><path d="m29.3 51c-.6 0-1-.4-1-1v-1.1c0-.6.4-1 1-1s1 .4 1 1v1.1c0 .5-.4 1-1 1z"/></g><g><path d="m33 36.6c-.3 0-.6 0-.9-.1-2.4-.4-4.4-2.3-4.7-4.7-.3-1.7.2-3.3 1.3-4.6 1.3-1.5 3.3-2.2 5.3-1.9 2.4.4 4.4 2.3 4.7 4.7.3 1.7-.2 3.3-1.3 4.6-1.2 1.2-2.8 2-4.4 2zm-.1-9.5c-1.1 0-2.1.5-2.8 1.3s-1 1.9-.8 3c.2 1.6 1.5 2.8 3.1 3.1 1.4.2 2.6-.3 3.4-1.2.7-.8 1-1.9.8-3-.2-1.6-1.5-2.8-3.1-3.1-.2 0-.4-.1-.6-.1z"/></g><g><g><path d="m53.8 50.6h-2.9c-1.7 0-3-1.3-3-3v-4.2c0-1.7 1.3-3 3-3h2.9c1.7 0 3 1.3 3 3v4.2c0 1.6-1.3 3-3 3zm-2.9-8.2c-.6 0-1 .4-1 1v4.2c0 .6.4 1 1 1h2.9c.6 0 1-.4 1-1v-4.2c0-.5-.4-1-1-1z"/></g><g><path d="m15.2 50.6h-2.9c-1.7 0-3-1.3-3-3v-4.2c0-1.7 1.3-3 3-3h2.9c1.7 0 3 1.3 3 3v4.2c0 1.6-1.3 3-3 3zm-2.9-8.2c-.6 0-1 .4-1 1v4.2c0 .6.4 1 1 1h2.9c.6 0 1-.4 1-1v-4.2c0-.5-.4-1-1-1z"/></g></g></g></svg>