<svg id="Layer_1" height="512" viewBox="0 0 66 66" width="512" xmlns="http://www.w3.org/2000/svg"><g><g><path d="m59.5 64.4h-53c-.6 0-1-.4-1-1v-36.1c0-.6.4-1 1-1s1 .4 1 1v35.1h50.9v-35.1c0-.6.4-1 1-1s1 .4 1 1v36.1c.1.6-.4 1-.9 1z"/></g><g><path d="m22.2 11.7h-8.1c-.6 0-1-.4-1-1v-8.1c0-.6.4-1 1-1h8.1c.6 0 1 .4 1 1v8.1c0 .5-.4 1-1 1zm-7.1-2h6.1v-6.1h-6.1z"/></g><g><path d="m23.9 3.6h-11.4c-.6 0-1-.4-1-1s.4-1 1-1h11.4c.6 0 1 .4 1 1s-.4 1-1 1z"/></g><g><path d="m63.5 64.4h-61c-.6 0-1-.4-1-1s.4-1 1-1h60.9c.6 0 1 .4 1 1s-.4 1-.9 1z"/></g><g><path d="m62.1 24.5h-58.2c-1 0-1.9-.5-2.5-1.4-.5-.9-.6-1.9-.1-2.8l3-6.4c1.3-2.7 4-4.4 7-4.4h43.5c3 0 5.7 1.7 7 4.4l3 6.4v.1c.3.9.1 1.9-.5 2.8-.4.9-1.3 1.3-2.2 1.3zm-50.8-12.8c-2.2 0-4.3 1.3-5.2 3.2l-3 6.4c-.1.3-.1.6 0 .8.1.1.3.4.7.4h58.1c.4 0 .7-.3.8-.4.2-.3.3-.6.2-.9l-3-6.3c-.9-2-3-3.2-5.2-3.2z"/></g><g><path d="m30.3 64.5h-17.5c-.6 0-1-.4-1-1v-21.7c0-1.6 1.3-2.9 2.9-2.9h13.7c1.7 0 2.9 1.2 2.9 2.9v21.7c0 .6-.4 1-1 1zm-16.5-2h15.5v-20.7c0-.5-.4-.9-.9-.9h-13.7c-.6 0-.9.5-.9.9z"/></g><g><path d="m21.6 64.4c-.6 0-1-.4-1-1v-23.5c0-.6.4-1 1-1s1 .4 1 1v23.5c0 .6-.4 1-1 1z"/></g><g><path d="m19 53.4h-1.3c-.6 0-1-.4-1-1s.4-1 1-1h1.3c.6 0 1 .4 1 1s-.4 1-1 1z"/></g><g><path d="m25.5 53.4h-1.3c-.6 0-1-.4-1-1s.4-1 1-1h1.3c.6 0 1 .4 1 1s-.4 1-1 1z"/></g><g><path d="m53.1 51.5h-16.2c-1.5 0-2.9-1.4-2.9-2.9v-13.7c0-1.5 1.4-2.9 2.9-2.9h16.1c1.6 0 3 1.3 3 2.9v13.7c0 1.6-1.3 2.9-2.9 2.9zm-16.2-17.5c-.4 0-.9.5-.9.9v13.7c0 .4.5.9.9.9h16.2c.6 0 .9-.5.9-.9v-13.7c0-.4-.4-.9-1-.9z"/></g><g><g><path d="m39.6 47.7c-.6 0-1-.4-1-1v-9.9c0-.6.4-1 1-1s1 .4 1 1v9.9c0 .5-.5 1-1 1z"/></g><g><path d="m45 47.7c-.6 0-1-.4-1-1v-9.9c0-.6.4-1 1-1s1 .4 1 1v9.9c0 .5-.5 1-1 1z"/></g><g><path d="m50.4 47.7c-.6 0-1-.4-1-1v-9.9c0-.6.4-1 1-1s1 .4 1 1v9.9c0 .5-.5 1-1 1z"/></g></g></g></svg>