<svg id="Layer_1" height="512" viewBox="0 0 66 66" width="512" xmlns="http://www.w3.org/2000/svg"><g><g><path d="m45.8 60.3h-25.6c-.6 0-1-.4-1-1v-34.1c0-.6.4-1 1-1s1 .4 1 1v33.1h23.6v-33.1c0-.6.4-1 1-1s1 .4 1 1v34.1c0 .5-.4 1-1 1z"/></g><g><path d="m48.1 22.2h-30.2c-1.1 0-2-.7-2.4-1.7-.3-1 0-2.1.9-2.8l15.1-11.5c.8-.6 2.2-.7 3 0l15.1 11.5c.9.7 1.2 1.8.8 2.8-.3 1.1-1.2 1.7-2.3 1.7zm-15.1-14.5c-.1 0-.2 0-.3.1l-15.1 11.5c-.2.2-.2.4-.2.5s.1.4.5.4h30.2c.3 0 .4-.2.4-.3s.1-.4-.2-.6l-15-11.5c-.1 0-.2-.1-.3-.1z"/></g><g><path d="m38.2 60.2h-10.3c-.6 0-1-.4-1-1v-10.4c0-3.4 2.7-6.1 6.1-6.1 1.6 0 3.2.7 4.3 1.8 1.2 1.1 1.9 2.6 1.9 4.3v10.4c0 .5-.4 1-1 1zm-9.3-2h8.3v-9.4c0-1.1-.5-2.1-1.3-2.9s-1.9-1.2-2.9-1.2c-2.3 0-4.1 1.8-4.1 4.1z"/></g><g><path d="m33.1 37.9c-3.3 0-5.9-2.6-5.9-5.9s2.6-5.9 5.9-5.9 5.9 2.6 5.9 5.9-2.6 5.9-5.9 5.9zm0-9.8c-2.1 0-3.9 1.7-3.9 3.9 0 2.1 1.7 3.9 3.9 3.9s3.9-1.7 3.9-3.9c0-2.1-1.7-3.9-3.9-3.9z"/></g><g><path d="m64 60.3h-62c-.6 0-1-.4-1-1s.4-1 1-1h62c.6 0 1 .4 1 1s-.4 1-1 1z"/></g><g><path d="m16.2 60.3h-9.7c-.6 0-1-.4-1-1v-27.8c0-2.8 2.2-5 5-5h5.7c.6 0 1 .4 1 1s-.4 1-1 1h-5.7c-1.7 0-3 1.3-3 3v26.8h8.7c.6 0 1 .4 1 1s-.4 1-1 1z"/></g><g><path d="m15.3 34.4h-4c-.6 0-1-.4-1-1s.4-1 1-1h4c.6 0 1 .4 1 1s-.4 1-1 1z"/></g><g><path d="m15.3 39.4h-4c-.6 0-1-.4-1-1s.4-1 1-1h4c.6 0 1 .4 1 1s-.4 1-1 1z"/></g><g><path d="m15.3 44.4h-4c-.6 0-1-.4-1-1s.4-1 1-1h4c.6 0 1 .4 1 1s-.4 1-1 1z"/></g><g><path d="m15.3 49.4h-4c-.6 0-1-.4-1-1s.4-1 1-1h4c.6 0 1 .4 1 1s-.4 1-1 1z"/></g><g><path d="m15.3 54.4h-4c-.6 0-1-.4-1-1s.4-1 1-1h4c.6 0 1 .4 1 1s-.4 1-1 1z"/></g><g><path d="m59.5 60.3h-9.7c-.6 0-1-.4-1-1s.4-1 1-1h8.7v-26.8c0-1.7-1.3-3-3-3h-5.7c-.6 0-1-.4-1-1s.4-1 1-1h5.7c2.8 0 5 2.2 5 5v27.8c0 .5-.4 1-1 1z"/></g><g><path d="m54.5 34.4h-3.6c-.6 0-1-.4-1-1s.4-1 1-1h3.6c.6 0 1 .4 1 1s-.4 1-1 1z"/></g><g><path d="m54.5 39.4h-3.6c-.6 0-1-.4-1-1s.4-1 1-1h3.6c.6 0 1 .4 1 1s-.4 1-1 1z"/></g><g><path d="m54.5 44.4h-3.6c-.6 0-1-.4-1-1s.4-1 1-1h3.6c.6 0 1 .4 1 1s-.4 1-1 1z"/></g><g><path d="m54.5 49.4h-3.6c-.6 0-1-.4-1-1s.4-1 1-1h3.6c.6 0 1 .4 1 1s-.4 1-1 1z"/></g><g><path d="m54.5 54.4h-3.6c-.6 0-1-.4-1-1s.4-1 1-1h3.6c.6 0 1 .4 1 1s-.4 1-1 1z"/></g></g></svg>