<svg id="Layer_1" height="512" viewBox="0 0 66 66" width="512" xmlns="http://www.w3.org/2000/svg"><g><g><path d="m16.9 32.7h-7.7c-1.5 0-2.7-1.2-2.7-2.7v-.5c0-.6.4-1 1-1s1 .4 1 1v.5c0 .4.4.7.7.7h7.8c.4 0 .7-.4.7-.7v-.5c0-.6.4-1 1-1s1 .4 1 1v.5c0 1.4-1.3 2.7-2.8 2.7z"/></g><g><path d="m18.7 57.4c-.6 0-1-.4-1-1v-.5c0-.4-.4-.7-.7-.7h-7.8c-.4 0-.7.4-.7.7v.5c0 .6-.4 1-1 1s-1-.4-1-1v-.5c0-1.5 1.2-2.7 2.7-2.7h7.8c1.5 0 2.7 1.2 2.7 2.7v.5c0 .6-.5 1-1 1z"/></g><g><path d="m15.9 55.1h-5.8c-.6 0-1-.4-1-1v-22.4c0-.6.4-1 1-1h5.8c.6 0 1 .4 1 1v22.4c0 .6-.4 1-1 1zm-4.7-2h3.8v-20.4h-3.8z"/></g><g><path d="m57 32.7h-7.7c-1.5 0-2.7-1.2-2.7-2.7v-.5c0-.6.4-1 1-1s1 .4 1 1v.5c0 .4.4.7.7.7h7.7c.4 0 .7-.4.7-.7v-.5c0-.6.4-1 1-1s1 .4 1 1v.5c0 1.4-1.2 2.7-2.7 2.7z"/></g><g><path d="m58.7 57.4c-.6 0-1-.4-1-1v-.5c0-.4-.4-.7-.7-.7h-7.7c-.4 0-.7.4-.7.7v.5c0 .6-.4 1-1 1s-1-.4-1-1v-.5c0-1.5 1.2-2.7 2.7-2.7h7.7c1.5 0 2.7 1.2 2.7 2.7v.5c0 .6-.4 1-1 1z"/></g><g><path d="m56 55.1h-5.8c-.6 0-1-.4-1-1v-22.4c0-.6.4-1 1-1h5.8c.6 0 1 .4 1 1v22.4c0 .6-.4 1-1 1zm-4.7-2h3.7v-20.4h-3.8v20.4z"/></g><g><path d="m41.6 57.4c-.6 0-1-.4-1-1v-9.1c0-2-.8-4-2.2-5.4s-3.3-2.2-5.4-2.2c-4.2 0-7.6 3.4-7.6 7.6v9.1c0 .6-.4 1-1 1s-1-.4-1-1v-9.1c0-5.3 4.3-9.6 9.6-9.6 2.5 0 4.9 1 6.8 2.8 1.8 1.8 2.8 4.3 2.8 6.8v9.1c0 .6-.5 1-1 1z"/></g><g><path d="m62.2 27.4h-58.4c-1.4 0-2.5-.9-2.9-2.2s0-2.6 1.1-3.4l29.3-20.2c1-.7 2.4-.7 3.5 0l29.3 20.3c1.1.8 1.5 2.1 1.1 3.4s-1.6 2.1-3 2.1zm-29.1-24.4c-.2 0-.4.1-.6.2l-29.3 20.3c-.6.4-.4 1-.4 1.2.1.2.3.8 1 .8h58.4c.8 0 1.1-.6 1.1-.8.1-.2.2-.7-.4-1.1l-29.3-20.4c-.1-.1-.3-.2-.5-.2z"/></g><g><path d="m33 22.8c-3.4 0-6.1-2.8-6.1-6.2s2.8-6.2 6.1-6.2c3.4 0 6.1 2.8 6.1 6.2s-2.7 6.2-6.1 6.2zm0-10.3c-2.3 0-4.1 1.9-4.1 4.2s1.9 4.2 4.1 4.2c2.3 0 4.1-1.9 4.1-4.2s-1.8-4.2-4.1-4.2z"/></g><g><path d="m61 65h-55.8c-1.8 0-3.3-1.5-3.3-3.3 0-1.7 1.4-3.2 3.2-3.3h55.8c1.8 0 3.3 1.5 3.3 3.3.1 1.9-1.4 3.3-3.2 3.3zm-55.8-4.6c-.7.1-1.3.6-1.3 1.3 0 .6.5 1.3 1.3 1.3h55.8c.8 0 1.3-.6 1.3-1.3 0-.6-.5-1.3-1.3-1.3z"/></g></g></svg>