<svg id="Layer_1" height="512" viewBox="0 0 66 66" width="512" xmlns="http://www.w3.org/2000/svg"><g><g><path d="m38 53.1h-32.5c-.6 0-1-.4-1-1v-41.3c0-2.5 1.9-4.4 4.4-4.4h25.5c2.5 0 4.5 2 4.5 4.4v41.4c.1.5-.3.9-.9.9zm-31.5-2h30.5v-40.3c0-1.3-1.1-2.4-2.5-2.4h-25.5c-1.4 0-2.4 1.1-2.4 2.4v40.3z"/></g><g><path d="m38 61c-.6 0-1-.4-1-1v-6.9h-30.5v6.9c0 .6-.4 1-1 1s-1-.4-1-1v-7.9c0-.6.4-1 1-1h32.5c.6 0 1 .4 1 1v7.9c0 .5-.4 1-1 1z"/></g><g><path d="m38 61c-.6 0-1-.4-1-1v-3.8c0-.6.4-1 1-1s1 .4 1 1v3.8c0 .5-.4 1-1 1z"/></g><g><path d="m60.5 60.9c-.6 0-1-.4-1-1v-40.3c0-1.4-1.1-2.4-2.4-2.4h-15c-.6 0-1-.4-1-1s.4-1 1-1h15c2.5 0 4.4 1.9 4.4 4.4v40.3c0 .5-.5 1-1 1z"/></g><g><path d="m21.7 8.2h-10.1c-.6 0-1-.4-1-1v-3.5c0-1.5 1.2-2.7 2.7-2.7h6.8c1.4 0 2.6 1.2 2.6 2.7v3.5c0 .6-.4 1-1 1zm-9.1-2h8.2v-2.5c0-.4-.3-.7-.6-.7h-6.8c-.4 0-.7.4-.7.7v2.5z"/></g><g><path d="m54.3 17.1h-10.2c-.6 0-1-.4-1-1v-3.5c0-1.5 1.2-2.7 2.7-2.7h6.7c1.5 0 2.8 1.2 2.8 2.7v3.5c0 .5-.4 1-1 1zm-9.2-2h8.3v-2.5c0-.3-.3-.7-.8-.7h-6.7c-.4 0-.7.4-.7.7v2.5z"/></g><g><path d="m18.2 61c-.6 0-1-.4-1-1v-6.9h-1.6v6.9c0 .6-.4 1-1 1s-1-.4-1-1v-7.9c0-.6.4-1 1-1h3.6c.6 0 1 .4 1 1v7.9c0 .5-.4 1-1 1z"/></g><g><path d="m29 61c-.6 0-1-.4-1-1v-6.9h-1.6v6.9c0 .6-.4 1-1 1s-1-.4-1-1v-7.9c0-.6.4-1 1-1h3.6c.6 0 1 .4 1 1v7.9c0 .5-.5 1-1 1z"/></g><g><g><path d="m14.6 18.2h-3.5c-1 0-1.8-.8-1.8-1.8v-3.5c0-1 .8-1.8 1.8-1.8h3.4c1-.1 1.9.7 1.9 1.8v3.5c0 1-.8 1.8-1.8 1.8zm-3.3-2h3.1v-3.1h-3.1z"/></g><g><path d="m23.5 18.2h-3.5c-1 0-1.8-.8-1.8-1.8v-3.5c0-1 .8-1.8 1.8-1.8h3.4c1-.1 1.9.7 1.9 1.8v3.5c.1 1-.7 1.8-1.8 1.8zm-3.3-2h3.1v-3.1h-3.1z"/></g><g><path d="m32.5 18.2h-3.5c-1 0-1.8-.8-1.8-1.8v-3.5c0-1 .8-1.8 1.8-1.8h3.4c1-.1 1.9.7 1.9 1.8v3.5c0 1-.8 1.8-1.8 1.8zm-3.3-2h3.1v-3.1h-3.1z"/></g></g><g><g><path d="m14.6 28.3h-3.5c-1 0-1.8-.8-1.8-1.8v-3.5c0-1 .8-1.8 1.8-1.8h3.4c1-.1 1.9.7 1.9 1.8v3.5c0 1-.8 1.8-1.8 1.8zm-3.3-2h3.1v-3.1h-3.1z"/></g><g><path d="m23.5 28.3h-3.5c-1 0-1.8-.8-1.8-1.8v-3.5c0-1 .8-1.8 1.8-1.8h3.4c1-.1 1.9.7 1.9 1.8v3.5c.1 1-.7 1.8-1.8 1.8zm-3.3-2h3.1v-3.1h-3.1z"/></g><g><path d="m32.5 28.3h-3.5c-1 0-1.8-.8-1.8-1.8v-3.5c0-1 .8-1.8 1.8-1.8h3.4c1-.1 1.9.7 1.9 1.8v3.5c0 1-.8 1.8-1.8 1.8zm-3.3-2h3.1v-3.1h-3.1z"/></g></g><g><g><path d="m14.6 38.3h-3.5c-1 0-1.8-.8-1.8-1.8v-3.5c0-1 .8-1.8 1.8-1.8h3.5c1 0 1.8.8 1.8 1.8v3.5c0 1-.8 1.8-1.8 1.8zm-3.3-2h3.1v-3.1h-3.1z"/></g><g><path d="m23.5 38.3h-3.5c-1 0-1.8-.8-1.8-1.8v-3.5c0-1 .8-1.8 1.8-1.8h3.5c1 0 1.8.8 1.8 1.8v3.5c.1 1-.7 1.8-1.8 1.8zm-3.3-2h3.1v-3.1h-3.1z"/></g><g><path d="m32.5 38.3h-3.5c-1 0-1.8-.8-1.8-1.8v-3.5c0-1 .8-1.8 1.8-1.8h3.5c1 0 1.8.8 1.8 1.8v3.5c0 1-.8 1.8-1.8 1.8zm-3.3-2h3.1v-3.1h-3.1z"/></g></g><g><g><path d="m14.6 48.4h-3.5c-1 0-1.8-.8-1.8-1.8v-3.5c0-1 .8-1.8 1.8-1.8h3.5c1 0 1.8.8 1.8 1.8v3.5c0 1-.8 1.8-1.8 1.8zm-3.3-2h3.1v-3.1h-3.1z"/></g><g><path d="m23.5 48.4h-3.5c-1 0-1.8-.8-1.8-1.8v-3.5c0-1 .8-1.8 1.8-1.8h3.5c1 0 1.8.8 1.8 1.8v3.5c.1 1-.7 1.8-1.8 1.8zm-3.3-2h3.1v-3.1h-3.1z"/></g><g><path d="m32.5 48.4h-3.5c-1 0-1.8-.8-1.8-1.8v-3.5c0-1 .8-1.8 1.8-1.8h3.5c1 0 1.8.8 1.8 1.8v3.5c0 1-.8 1.8-1.8 1.8zm-3.3-2h3.1v-3.1h-3.1z"/></g></g><g><g><path d="m46.5 28.6h-3.5c-1 0-1.8-.8-1.8-1.8v-3.5c0-1 .8-1.8 1.8-1.8h3.5c1 0 1.8.8 1.8 1.8v3.5c0 1-.8 1.8-1.8 1.8zm-3.3-2h3.1v-3.1h-3.1z"/></g><g><path d="m55.4 28.6h-3.5c-1 0-1.8-.8-1.8-1.8v-3.5c0-1 .8-1.8 1.8-1.8h3.5c1 0 1.8.8 1.8 1.8v3.5c0 1-.8 1.8-1.8 1.8zm-3.3-2h3.1v-3.1h-3.1z"/></g></g><g><g><path d="m46.5 38.6h-3.5c-1 0-1.8-.8-1.8-1.8v-3.5c0-1 .8-1.8 1.8-1.8h3.5c1 0 1.8.8 1.8 1.8v3.5c0 1-.8 1.8-1.8 1.8zm-3.3-2h3.1v-3.1h-3.1z"/></g><g><path d="m55.4 38.6h-3.5c-1 0-1.8-.8-1.8-1.8v-3.5c0-1 .8-1.8 1.8-1.8h3.5c1 0 1.8.8 1.8 1.8v3.5c0 1-.8 1.8-1.8 1.8zm-3.3-2h3.1v-3.1h-3.1z"/></g></g><g><g><path d="m46.5 48.7h-3.5c-1 0-1.8-.8-1.8-1.8v-3.5c0-1 .8-1.8 1.8-1.8h3.5c1 0 1.8.8 1.8 1.8v3.5c0 1-.8 1.8-1.8 1.8zm-3.3-2h3.1v-3.1h-3.1z"/></g><g><path d="m55.4 48.7h-3.5c-1 0-1.8-.8-1.8-1.8v-3.5c0-1 .8-1.8 1.8-1.8h3.5c1 0 1.8.8 1.8 1.8v3.5c0 1-.8 1.8-1.8 1.8zm-3.3-2h3.1v-3.1h-3.1z"/></g></g><g><g><path d="m46.5 58.8h-3.5c-1 0-1.8-.8-1.8-1.8v-3.5c0-1 .8-1.8 1.8-1.8h3.5c1 0 1.8.8 1.8 1.8v3.5c0 1-.8 1.8-1.8 1.8zm-3.3-2h3.1v-3.1h-3.1z"/></g><g><path d="m55.4 58.8h-3.5c-1 0-1.8-.8-1.8-1.8v-3.5c0-1 .8-1.8 1.8-1.8h3.5c1 0 1.8.8 1.8 1.8v3.5c0 1-.8 1.8-1.8 1.8zm-3.3-2h3.1v-3.1h-3.1z"/></g></g><g><path d="m64.2 65h-62.4c-.6 0-1-.4-1-1s.4-1 1-1h62.4c.6 0 1 .4 1 1s-.5 1-1 1z"/></g></g></svg>