<svg id="Layer_1" height="512" viewBox="0 0 66 66" width="512" xmlns="http://www.w3.org/2000/svg"><g><g><path d="m64 59.1h-62c-.6 0-1-.4-1-1s.4-1 1-1h62c.6 0 1 .4 1 1s-.4 1-1 1z"/></g><g><g><path d="m58.9 59.1h-51.8c-.6 0-1-.4-1-1v-30c0-.6.4-1 1-1s1 .4 1 1v29h49.8v-29c0-.6.4-1 1-1s1 .4 1 1v30c0 .5-.4 1-1 1z"/></g><g><path d="m8 25.7c-1.6 0-3.1-.6-4.2-1.7-1.2-1.2-1.8-2.6-1.8-4.3v-3.1c0-.6.4-1 1-1h10c.6 0 1 .4 1 1v3.1c0 1.6-.6 3-1.8 4.2-1.1 1.1-2.7 1.8-4.2 1.8zm-4-8.1v2.1c0 1.1.4 2.1 1.2 2.9.7.7 1.7 1.1 2.8 1.1 1 0 2-.5 2.8-1.2.5-.5 1.2-1.5 1.2-2.8v-2.1z"/></g><g><path d="m18 25.7c-3.4 0-6-2.6-6-6v-3.1c0-.6.4-1 1-1h10c.6 0 1 .4 1 1v3.1c0 3.4-2.6 6-6 6zm-4-8.1v2.1c0 2.2 1.8 4 4 4s4-1.8 4-4v-2.1z"/></g><g><path d="m28 25.7c-3.4 0-6-2.6-6-6v-3.1c0-.6.4-1 1-1h10c.6 0 1 .4 1 1v3.1c0 3.4-2.6 6-6 6zm-4-8.1v2.1c0 2.2 1.8 4 4 4s4-1.8 4-4v-2.1z"/></g><g><path d="m38 25.7c-3.4 0-6-2.6-6-6v-3.1c0-.6.4-1 1-1h10c.6 0 1 .4 1 1v3.1c0 3.4-2.6 6-6 6zm-4-8.1v2.1c0 2.2 1.8 4 4 4s4-1.8 4-4v-2.1z"/></g><g><path d="m48 25.7c-3.4 0-6-2.6-6-6v-3.1c0-.6.4-1 1-1h10c.6 0 1 .4 1 1v3.1c0 3.4-2.6 6-6 6zm-4-8.1v2.1c0 2.2 1.8 4 4 4s4-1.8 4-4v-2.1z"/></g><g><path d="m58 25.6c-3.4 0-6-2.6-6-6v-3.1c0-.6.4-1 1-1h10c.6 0 1 .4 1 1v3.2c0 1.6-.6 3-1.8 4.2-1.1 1.1-2.6 1.7-4.2 1.7zm-4-8.1v2.1c0 2.2 1.8 4 4 4 1.1 0 2.1-.4 2.8-1.1.5-.5 1.2-1.5 1.2-2.8v-2.2z"/></g><g><path d="m13 17.6h-10c-.4 0-.7-.2-.9-.6-.2-.3-.1-.7.1-1l5.2-6.4c1.3-1.7 3.4-2.7 5.6-2.7h4.7c.4 0 .7.2.9.5s.2.7 0 1l-4.7 8.7c-.2.3-.5.5-.9.5zm-7.9-2h7.3l3.6-6.7h-3c-1.6 0-3.1.7-4 1.9z"/></g><g><path d="m23 17.6h-10c-.4 0-.7-.2-.9-.5s-.2-.7 0-1l4.7-8.7c.2-.3.5-.5.9-.5h7.6c.3 0 .6.1.8.4.2.2.3.6.2.9l-2.3 8.7c-.1.4-.5.7-1 .7zm-8.3-2h7.6l1.7-6.7h-5.7z"/></g><g><path d="m33 17.6h-10c-.3 0-.6-.1-.8-.4-.2-.2-.2-.5-.2-.8l2.3-8.7c.1-.4.5-.7 1-.7h7.7c.6 0 1 .4 1 1v8.7c0 .5-.4.9-1 .9zm-8.7-2h7.7v-6.7h-5.9z"/></g><g><path d="m43 17.6h-10c-.6 0-1-.4-1-1v-8.7c0-.6.4-1 1-1h7.7c.5 0 .9.3 1 .7l2.3 8.7c.1.3 0 .6-.2.9s-.5.4-.8.4zm-9-2h7.7l-1.8-6.7h-5.9z"/></g><g><path d="m53 17.6h-10c-.5 0-.9-.3-1-.7l-2.3-8.7c-.1-.3 0-.6.2-.9.2-.2.5-.4.8-.4h7.6c.4 0 .7.2.9.5l4.7 8.7c.2.3.2.7 0 1s-.5.5-.9.5zm-9.2-2h7.6l-3.6-6.7h-5.8z"/></g><g><path d="m63 17.6h-10c-.4 0-.7-.2-.9-.5l-4.7-8.7c-.2-.3-.2-.7 0-1s.5-.5.9-.5h4.6c2.2 0 4.3 1 5.7 2.7l5.2 6.4c.2.3.3.7.1 1.1-.2.3-.5.5-.9.5zm-9.4-2h7.3l-3.9-4.7c-1-1.2-2.5-1.9-4.1-1.9h-2.9z"/></g><g><path d="m32.7 40.7c-.6 0-1-.4-1-1v-6.6h-17.5v6.6c0 .6-.4 1-1 1s-1-.4-1-1v-7.6c0-.6.4-1 1-1h19.5c.6 0 1 .4 1 1v7.6c0 .5-.4 1-1 1z"/></g><g><path d="m32.7 48.3h-19.5c-.6 0-1-.4-1-1v-7.6c0-.6.4-1 1-1s1 .4 1 1v6.6h17.5v-6.6c0-.6.4-1 1-1s1 .4 1 1v7.6c0 .5-.4 1-1 1z"/></g><g><path d="m34.7 33.1h-23.4c-.6 0-1-.4-1-1s.4-1 1-1h23.4c.6 0 1 .4 1 1s-.4 1-1 1z"/></g><g><path d="m34.7 48.3h-23.4c-.6 0-1-.4-1-1s.4-1 1-1h23.4c.6 0 1 .4 1 1s-.4 1-1 1z"/></g><g><g><path d="m54 59.1h-16.4c-.6 0-1-.4-1-1v-16.6c0-3.7 3-6.7 6.7-6.7h5c3.7 0 6.7 3 6.7 6.7v16.6c0 .5-.4 1-1 1zm-15.4-2h14.4v-15.6c0-2.6-2.1-4.7-4.7-4.7h-5c-2.6 0-4.7 2.1-4.7 4.7z"/></g><g><path d="m40.8 51.3c-.6 0-1-.4-1-1v-2.4c0-.6.4-1 1-1s1 .4 1 1v2.4c0 .5-.4 1-1 1z"/></g><g><path d="m42.1 50.1h-1.1c-.6 0-1-.4-1-1s.4-1 1-1h1.1c.6 0 1 .4 1 1s-.4 1-1 1z"/></g></g><g><g><g><path d="m21.6 48.4h-4.8c-.7 0-1.3-.3-1.7-.9-.4-.5-.5-1.2-.3-1.8l.5-2.1c.2-.9 1.1-1.6 2.1-1.6h3.8c1 0 1.9.7 2.1 1.6l.5 2.1c.1.7-.1 1.4-.5 1.9-.5.5-1.1.8-1.7.8zm-4.3-4.3c-.1 0-.1 0-.1 0l-.5 2.1v.1s.1.1.1.1h4.8s.1-.1.1-.2l-.5-2h-.1-3.8z"/></g><g><path d="m29.2 48.4h-4.8c-.7 0-1.3-.3-1.7-.9-.4-.5-.5-1.2-.4-1.8l.6-2.1c.2-.9 1-1.5 2-1.5h3.8c1 0 1.9.7 2.1 1.6l.5 2.1c.1.7-.1 1.4-.5 1.9-.4.4-1 .7-1.6.7zm-4.3-4.3-.6 2.2c.1.1.1.1.1.1h4.8s.1-.1.1-.2l-.5-2h-.1-3.8z"/></g></g><g><path d="m25.4 44.1h-4.8c-.7 0-1.3-.3-1.7-.9-.4-.5-.5-1.2-.3-1.8l.5-2.1v-.1c.4-.9 1.1-1.4 2-1.4h3.8c1 0 1.9.7 2.1 1.6l.5 2.1c.1.7-.1 1.4-.5 1.9-.4.4-1 .7-1.6.7zm-4.4-4.2-.5 2v.1s.1.1.1.1h4.8s.1-.1.1-.2l-.5-2h-.1-3.8c0-.1-.1-.1-.1 0z"/></g></g></g></g></svg>