<svg id="Layer_1" height="512" viewBox="0 0 66 66" width="512" xmlns="http://www.w3.org/2000/svg"><g><g><path d="m57.7 65h-49.3c-.6 0-1-.4-1-1v-40.6c0-2.1 1.7-3.9 3.9-3.9h16.2c.6 0 1 .4 1 1s-.4 1-1 1h-16.3c-1 0-1.9.9-1.9 1.9v39.6h47.4v-39.6c0-1-.8-1.9-1.9-1.9h-16.1c-.6 0-1-.4-1-1s.4-1 1-1h16.2c2.1 0 3.9 1.7 3.9 3.9v40.6c-.1.5-.5 1-1.1 1z"/></g><g><path d="m52.9 42.5h-36c-.6 0-1-.4-1-1s.4-1 1-1h35.9c.6 0 1 .4 1 1s-.4 1-.9 1z"/></g><g><path d="m52.9 37.4h-39.8c-.6 0-1-.4-1-1s.4-1 1-1h39.7c.6 0 1 .4 1 1s-.4 1-.9 1z"/></g><g><path d="m52.8 32.4h-39.6c-1.6 0-2.9-1.3-2.9-2.9v-1.5c0-1.6 1.3-2.9 2.9-2.9h39.5c1.7 0 2.9 1.2 2.9 2.9v1.5c.1 1.6-1.2 2.9-2.8 2.9zm-39.6-5.3c-.4 0-.9.3-.9.9v1.5c0 .4.3.9.9.9h39.5c.4 0 .9-.3.9-.9v-1.5c0-.5-.4-.9-.9-.9z"/></g><g><path d="m33 48.4h-19.6c-.6 0-1-.4-1-1s.4-1 1-1h18.6v-3.9h-18.9c-.6 0-1-.4-1-1s.4-1 1-1h19.9c.6 0 1 .4 1 1v5.9c0 .5-.4 1-1 1z"/></g><g><path d="m46.8 55.6h-8.8c-1.4 0-2.5-1.1-2.5-2.5v-3.5c0-1.4 1.1-2.5 2.5-2.5h8.8.1c1.4.2 2.4 1.2 2.4 2.5v3.5c0 1.3-1.2 2.5-2.5 2.5zm-8.8-6.5c-.2 0-.5.3-.5.5v3.5c0 .2.3.5.5.5h8.8c.2 0 .5-.3.5-.5v-3.5c0-.3-.3-.4-.6-.5z"/></g><g><path d="m46.2 49.2h-7.6c-.4 0-.7-.2-.9-.5s-.2-.7 0-1l3.8-6.6c.4-.6 1.4-.6 1.7 0l3.8 6.6c.2.3.2.7 0 1-.1.3-.5.5-.8.5zm-5.9-2h4.1l-2.1-3.6z"/></g><g><path d="m33 65c-.6 0-1-.4-1-1v-32.6c0-.6.4-1 1-1s1 .4 1 1v32.6c0 .5-.4 1-1 1z"/></g><g><path d="m22.5 65c-.6 0-1-.4-1-1v-16.6c0-.6.4-1 1-1s1 .4 1 1v16.6c0 .5-.4 1-1 1z"/></g><g><path d="m27.4 21.5h-14c-.6 0-1-.4-1-1v-2c0-2.1 1.7-3.9 3.9-3.9h6.2c.6 0 1 .4 1 1s-.4 1-1 1h-6.2c-1 0-1.9.9-1.9 1.9v1h13c.6 0 1 .4 1 1s-.4 1-1 1z"/></g><g><path d="m52.6 21.5h-14c-.6 0-1-.4-1-1s.4-1 1-1h13v-1c0-1-.8-1.9-1.9-1.9h-6.2c-.6 0-1-.4-1-1s.4-1 1-1h6.2c2.1 0 3.9 1.7 3.9 3.9v2c0 .6-.5 1-1 1z"/></g><g><path d="m60.2 65h-54.4c-.6 0-1-.4-1-1s.4-1 1-1h54.5c.6 0 1 .4 1 1s-.5 1-1.1 1z"/></g><g><path d="m33.1 19c-.6 0-1.2-.1-1.8-.2-3.6-.7-6.4-3.5-7.1-7.1-.5-2.7.2-5.4 1.9-7.4 2.1-2.5 5.4-3.7 8.7-3.1 3.5.7 6.4 3.6 7.1 7.1.5 2.7-.2 5.4-1.9 7.5-1.7 2-4.2 3.2-6.9 3.2zm-.1-16c-2.1 0-4 .9-5.4 2.6-1.3 1.6-1.9 3.7-1.5 5.8.5 2.8 2.7 5 5.5 5.5 2.6.5 5.1-.4 6.8-2.4 1.3-1.6 1.9-3.7 1.5-5.8-.5-2.7-2.8-5-5.5-5.5-.5-.2-.9-.2-1.4-.2z"/></g><g><path d="m53 65h-39.9c-.6 0-1-.4-1-1v-32.6c0-.6.4-1 1-1h39.9c.6 0 1 .4 1 1v32.6c0 .5-.5 1-1 1zm-38.9-2h37.9v-30.6h-37.9z"/></g></g></svg>