<svg id="Layer_1" height="512" viewBox="0 0 66 66" width="512" xmlns="http://www.w3.org/2000/svg"><g><g><path d="m62.8 64.2h-59.6c-.6 0-1-.4-1-1s.4-1 1-1h59.5c.6 0 1 .4 1 1s-.4 1-.9 1z"/></g><g><path d="m59.7 64.2h-53.5c-.6 0-1-.4-1-1v-36.2c0-.6.4-1 1-1h53.4c.6 0 1 .4 1 1v36.2c.1.6-.4 1-.9 1zm-52.5-2h51.4v-34.2h-51.4z"/></g><g><path d="m60.8 28h-55.5c-2.4 0-4.3-1.9-4.3-4.3s1.9-4.3 4.3-4.3h9.2c.6 0 1 .4 1 1s-.4 1-1 1h-9.2c-1.2 0-2.3 1-2.3 2.3.1 1.3 1.1 2.3 2.3 2.3h55.4c1.2 0 2.3-1 2.3-2.3 0-.6-.3-1.1-.7-1.6-.2-.2-.8-.6-1.6-.6h-9.2c-.6 0-1-.4-1-1s.4-1 1-1h9.2c1.3 0 2.3.6 2.9 1.1.9.9 1.4 2 1.4 3.1.1 2.4-1.9 4.3-4.2 4.3z"/></g><g><path d="m26.3 64.2h-14c-.6 0-1-.4-1-1v-18.1c0-2.1 1.7-3.9 3.9-3.9h8.2c2.1 0 3.9 1.7 3.9 3.9v18.2c0 .5-.4.9-1 .9zm-13-2h12v-17.1c0-1-.9-1.9-1.9-1.9h-8.2c-1 0-1.9.8-1.9 1.9z"/></g><g><path d="m15.4 54.6c-.6 0-1-.4-1-1v-2c0-.6.4-1 1-1s1 .4 1 1v2c0 .6-.4 1-1 1z"/></g><g><path d="m52.4 52.4h-18.3c-2.1 0-3.9-1.7-3.9-3.9v-10.8c0-2.1 1.7-3.9 3.9-3.9h18.3c2.1 0 3.9 1.8 3.9 3.9v10.8c0 2.1-1.8 3.9-3.9 3.9zm-18.3-16.6c-1 0-1.9.8-1.9 1.9v10.8c0 1 .9 1.9 1.9 1.9h18.3c1 0 1.9-.8 1.9-1.9v-10.8c0-1-.9-1.9-1.9-1.9z"/></g><g><path d="m43.2 52.5c-.6 0-1-.4-1-1v-16.7c0-.6.4-1 1-1s1 .4 1 1v16.7c0 .5-.5 1-1 1z"/></g><g><path d="m45.4 23.4h-24.8c-1 0-1.8-.5-2.4-1.4-.2-.3-.3-.7-.3-1.2v-16.4c0-.5.2-1 .3-1.1.5-.9 1.3-1.5 2.4-1.5h24.8c1 0 1.8.5 2.4 1.4.1.2.3.7.3 1.2v16.5c0 .4-.2.9-.3 1.1-.5.9-1.3 1.4-2.4 1.4zm-24.8-19.6c-.4 0-.5.1-.6.3 0 .1-.1.2-.1.3v16.4c0 .1 0 .1.1.2.2.3.5.3.6.3h24.8c.4 0 .5-.1.6-.3.1-.1.1-.2.1-.3v-16.4s0-.2-.1-.2c-.2-.3-.5-.3-.6-.3h-24.8z"/></g><g><path d="m45.4 23.4h-24.8c-1 0-1.8-.5-2.4-1.4-.2-.4-.2-.9.2-1.2l6.1-6.1c.4-.4 1-.4 1.4 0s.4 1 0 1.4l-5.3 5.3h24.7l-5.3-5.3c-.4-.4-.4-1 0-1.4s1-.4 1.4 0l6.1 6.1c.3.3.4.8.2 1.2-.4.9-1.2 1.4-2.3 1.4z"/></g><g><path d="m33 17.9c-.7 0-1.3-.2-1.8-.7l-3.9-4-8.9-8.9c-.3-.3-.4-.8-.2-1.2.5-.9 1.3-1.4 2.4-1.4h24.8c1 0 1.8.5 2.4 1.4.2.4.2.9-.2 1.2l-12.8 12.9c-.5.4-1.1.7-1.8.7zm-12.4-14.1 8.1 8.1 3.8 3.9c.1.1.5.3.9 0l12-12z"/></g></g></svg>