<svg id="Layer_1" height="512" viewBox="0 0 66 66" width="512" xmlns="http://www.w3.org/2000/svg"><g><g><path d="m59.7 59.9h-53.4c-.6 0-1-.4-1-1v-30.9c0-.6.4-1 1-1s1 .4 1 1v29.9h51.4v-29.9c0-.6.4-1 1-1s1 .4 1 1v30.9c0 .5-.4 1-1 1z"/></g><g><path d="m7.2 25.5c-1.6 0-3.2-.7-4.3-1.8-1.2-1.2-1.9-2.8-1.9-4.5v-3.2c0-.3.1-.5.3-.7s.4-.3.7-.3l10.3.1c.5 0 1 .5 1 1v3.2c0 1.6-.6 3.1-1.8 4.4-1.1 1.2-2.7 1.8-4.3 1.8zm-4.2-8.5v2.2c0 1.2.5 2.2 1.3 3.1.8.8 1.8 1.2 2.9 1.2s2.1-.4 2.9-1.2c.8-.9 1.2-1.9 1.2-3v-2.2z"/></g><g><path d="m17.5 25.5c-3.5 0-6.2-2.7-6.2-6.2v-3.2c0-.6.4-1 1-1h10.4c.6 0 1 .4 1 1v3.2c0 3.5-2.7 6.2-6.2 6.2zm-4.2-8.4v2.2c0 2.4 1.8 4.2 4.2 4.2s4.2-1.8 4.2-4.2v-2.2z"/></g><g><path d="m27.9 25.5c-3.5 0-6.2-2.7-6.2-6.2v-3.2c0-.6.4-1 1-1h10.4c.6 0 1 .4 1 1v3.2c0 3.5-2.7 6.2-6.2 6.2zm-4.2-8.4v2.2c0 2.4 1.8 4.2 4.2 4.2s4.2-1.8 4.2-4.2v-2.2z"/></g><g><path d="m38.2 25.5c-3.5 0-6.2-2.7-6.2-6.2v-3.2c0-.6.4-1 1-1h10.4c.6 0 1 .4 1 1v3.2c0 3.5-2.7 6.2-6.2 6.2zm-4.2-8.4v2.2c0 2.4 1.8 4.2 4.2 4.2s4.2-1.8 4.2-4.2v-2.2z"/></g><g><path d="m48.5 25.5c-3.5 0-6.2-2.7-6.2-6.2v-3.2c0-.6.4-1 1-1h10.4c.6 0 1 .4 1 1v3.2c0 3.5-2.7 6.2-6.2 6.2zm-4.2-8.4v2.2c0 2.4 1.8 4.2 4.2 4.2s4.2-1.8 4.2-4.2v-2.2z"/></g><g><path d="m58.9 25.5c-3.4 0-6.2-2.8-6.2-6.2v-3.2c0-.6.4-1 1-1h10.3c.6 0 1 .4 1 1v3.2c0 1.6-.6 3.1-1.8 4.4-1.1 1.2-2.7 1.8-4.3 1.8zm-4.2-8.4v2.2c0 2.3 1.9 4.2 4.2 4.2 1.1 0 2.1-.4 2.9-1.2.8-.9 1.2-1.9 1.2-3v-2.2z"/></g><g><path d="m12.3 17.1h-10.3c-.4 0-.7-.2-.9-.6-.2-.3-.1-.8.1-1.1l5.4-6.6c1.4-1.7 3.4-2.7 5.8-2.7h4.8c.4 0 .7.2.9.5s.2.7 0 1l-4.9 9c-.2.3-.5.5-.9.5zm-8.2-2h7.6l3.8-7h-3.1c-1.7 0-3.2.7-4.2 2z"/></g><g><path d="m22.7 17.1h-10.4c-.4 0-.7-.2-.9-.5s-.2-.7 0-1l4.9-9c.2-.3.5-.5.9-.5h7.9c.3 0 .6.1.8.4.2.2.3.6.2.9l-2.4 9c-.2.4-.5.7-1 .7zm-8.7-2h7.9l1.9-7h-6z"/></g><g><path d="m33 17.1h-10.3c-.3 0-.6-.1-.8-.4-.2-.2-.3-.6-.2-.9l2.4-9c.1-.4.5-.7 1-.7h7.9c.6 0 1 .4 1 1v9c0 .6-.4 1-1 1zm-9-2h8v-7h-6.1z"/></g><g><path d="m43.3 17.1h-10.3c-.6 0-1-.4-1-1v-9c0-.6.4-1 1-1h7.9c.5 0 .8.3 1 .7l2.4 9c.1.3 0 .6-.2.9s-.5.4-.8.4zm-9.3-2h8l-1.9-7h-6.1z"/></g><g><path d="m53.7 17.1h-10.4c-.5 0-.8-.3-1-.7l-2.4-9c-.1-.3 0-.6.2-.9.2-.2.5-.4.8-.4h7.9c.4 0 .7.2.9.5l4.9 9c.2.3.2.7 0 1s-.5.5-.9.5zm-9.6-2h7.9l-3.8-7h-6z"/></g><g><path d="m64 17.1h-10.3c-.4 0-.7-.2-.9-.5l-4.9-9c-.2-.3-.2-.7 0-1s.5-.5.9-.5h4.7c2.3 0 4.5 1 5.9 2.8l5.4 6.6c.2.3.3.7.1 1.1-.2.3-.5.5-.9.5zm-9.7-2h7.6l-4.1-5c-1-1.3-2.6-2-4.3-2h-3z"/></g><g><path d="m62 59.9h-58c-.6 0-1-.4-1-1s.4-1 1-1h58c.6 0 1 .4 1 1s-.4 1-1 1z"/></g><g><path d="m40.9 59.9h-15.8c-.6 0-1-.4-1-1v-16c0-3.5 3-6.5 6.5-6.5h4.8c3.5 0 6.5 3 6.5 6.5v16c0 .5-.4 1-1 1zm-14.8-2h13.8v-15c0-2.4-2.1-4.5-4.5-4.5h-4.8c-2.4 0-4.5 2.1-4.5 4.5z"/></g><g><path d="m20.5 40.9h-9.1c-.6 0-1-.4-1-1v-7.9c0-.6.4-1 1-1h9.1c.6 0 1 .4 1 1v7.9c0 .5-.4 1-1 1zm-8.1-2h7.1v-5.9h-7.1z"/></g><g><path d="m20.5 48.7h-9.1c-.6 0-1-.4-1-1v-7.9c0-.6.4-1 1-1h9.1c.6 0 1 .4 1 1v7.9c0 .5-.4 1-1 1zm-8.1-2h7.1v-5.9h-7.1z"/></g><g><path d="m21.4 33h-10.9c-.6 0-1-.4-1-1s.4-1 1-1h10.9c.6 0 1 .4 1 1s-.4 1-1 1z"/></g><g><path d="m21.4 48.7h-10.9c-.6 0-1-.4-1-1s.4-1 1-1h10.9c.6 0 1 .4 1 1s-.4 1-1 1z"/></g><g><path d="m54.4 40.9h-9.1c-.6 0-1-.4-1-1v-7.9c0-.6.4-1 1-1h9.1c.6 0 1 .4 1 1v7.9c0 .5-.4 1-1 1zm-8.1-2h7.1v-5.9h-7.1z"/></g><g><path d="m54.4 48.7h-9.1c-.6 0-1-.4-1-1v-7.9c0-.6.4-1 1-1h9.1c.6 0 1 .4 1 1v7.9c0 .5-.4 1-1 1zm-8.1-2h7.1v-5.9h-7.1z"/></g><g><path d="m55.3 33h-10.9c-.6 0-1-.4-1-1s.4-1 1-1h10.9c.6 0 1 .4 1 1s-.4 1-1 1z"/></g><g><path d="m55.3 48.7h-10.9c-.6 0-1-.4-1-1s.4-1 1-1h10.9c.6 0 1 .4 1 1s-.4 1-1 1z"/></g><g><path d="m28.1 52.4c-.6 0-1-.4-1-1v-2.3c0-.6.4-1 1-1s1 .4 1 1v2.3c0 .5-.4 1-1 1z"/></g><g><path d="m29.4 51.2h-1.1c-.6 0-1-.4-1-1s.4-1 1-1h1.1c.6 0 1 .4 1 1s-.4 1-1 1z"/></g></g></svg>