<svg id="Layer_1" height="512" viewBox="0 0 66 66" width="512" xmlns="http://www.w3.org/2000/svg"><g><g><path d="m18.1 60.9h-12.4c-.6 0-1-.4-1-1v-35.9c0-2.6 2.2-4.8 4.8-4.8h8.6c.6 0 1 .4 1 1s-.4 1-1 1h-8.6c-1.5 0-2.8 1.3-2.8 2.8v34.9h11.4c.6 0 1 .4 1 1s-.4 1-1 1z"/></g><g><path d="m60.3 61h-12.4c-.6 0-1-.4-1-1s.4-1 1-1h11.4v-35c0-1.5-1.3-2.8-2.8-2.8h-8.6c-.6 0-1-.4-1-1s.4-1 1-1h8.6c2.6 0 4.8 2.2 4.8 4.8v36c0 .5-.4 1-1 1z"/></g><g><path d="m44.2 61h-22.3c-.6 0-1-.4-1-1v-53.9c0-.6.4-1 1-1h22.3c.6 0 1 .4 1 1v53.9c0 .5-.4 1-1 1zm-21.3-2h20.3v-51.9h-20.3z"/></g><g><path d="m47.7 7.1h-29.4c-.6 0-1-.4-1-1s.4-1 1-1h29.4c.6 0 1 .4 1 1s-.4 1-1 1z"/></g><g><path d="m38.9 32.9h-2.9c-1 0-1.9-.9-1.9-1.9v-3.3c0-1 .9-1.9 1.9-1.9h2.8c1-.1 2 .8 2 1.9v3.3c0 1.1-.9 1.9-1.9 1.9zm-2.8-2h2.7v-3.1h-2.7z"/></g><g><path d="m30.1 32.9h-2.9c-1 0-1.9-.9-1.9-1.9v-3.3c0-1 .9-1.9 1.9-1.9h2.7c1.1-.1 2.1.8 2.1 1.9v3.3c0 1.1-.9 1.9-1.9 1.9zm-2.8-2h2.7v-3.1h-2.7z"/></g><g><path d="m38.9 41.7h-2.9c-1 0-1.9-.9-1.9-1.9v-3.3c0-1 .9-1.9 1.9-1.9h2.9c1 0 1.9.9 1.9 1.9v3.3c0 1-.9 1.9-1.9 1.9zm-2.8-2h2.7v-3.1h-2.7z"/></g><g><path d="m30.1 41.7h-2.9c-1 0-1.9-.9-1.9-1.9v-3.3c0-1 .9-1.9 1.9-1.9h2.8c1.1 0 2 .9 2 1.9v3.3c0 1-.9 1.9-1.9 1.9zm-2.8-2h2.7v-3.1h-2.7z"/></g><g><path d="m38.6 60.9h-11.2c-.6 0-1-.4-1-1v-7.7c0-3.6 3-6.6 6.6-6.6s6.6 3 6.6 6.6v7.7c0 .5-.4 1-1 1zm-10.2-2h9.2v-6.7c0-2.5-2.1-4.6-4.6-4.6s-4.6 2.1-4.6 4.6z"/></g><g><path d="m33 21.1c-3.5 0-6.2-2.7-6.2-6.2 0-3.4 2.8-6.2 6.2-6.2s6.2 2.8 6.2 6.2c0 3.5-2.7 6.2-6.2 6.2zm0-10.4c-2.3 0-4.2 1.9-4.2 4.2 0 2.4 1.8 4.2 4.2 4.2s4.2-1.8 4.2-4.2c0-2.2-2-4.2-4.2-4.2z"/></g><g><path d="m33 18.3c-.6 0-1-.4-1-1v-2.4c0-.2 0-.4.1-.5l1.4-2.4c.3-.5.9-.6 1.4-.4.5.3.6.9.4 1.4l-1.3 2.2v2.1c0 .6-.4 1-1 1z"/></g><g><path d="m55.5 27.2h-6.5c-.6 0-1-.4-1-1s.4-1 1-1h6.5c.6 0 1 .4 1 1s-.4 1-1 1z"/></g><g><path d="m55.5 33h-6.5c-.6 0-1-.4-1-1s.4-1 1-1h6.5c.6 0 1 .4 1 1s-.4 1-1 1z"/></g><g><path d="m55.5 38.9h-6.5c-.6 0-1-.4-1-1s.4-1 1-1h6.5c.6 0 1 .4 1 1s-.4 1-1 1z"/></g><g><path d="m55.5 44.7h-6.5c-.6 0-1-.4-1-1s.4-1 1-1h6.5c.6 0 1 .4 1 1s-.4 1-1 1z"/></g><g><path d="m55.5 50.6h-6.5c-.6 0-1-.4-1-1s.4-1 1-1h6.5c.6 0 1 .4 1 1s-.4 1-1 1z"/></g><g><path d="m55.5 56.4h-6.5c-.6 0-1-.4-1-1s.4-1 1-1h6.5c.6 0 1 .4 1 1s-.4 1-1 1z"/></g><g><path d="m17 27.2h-6.5c-.6 0-1-.4-1-1s.4-1 1-1h6.5c.6 0 1 .4 1 1s-.4 1-1 1z"/></g><g><path d="m17 33h-6.5c-.6 0-1-.4-1-1s.4-1 1-1h6.5c.6 0 1 .4 1 1s-.4 1-1 1z"/></g><g><path d="m17 38.9h-6.5c-.6 0-1-.4-1-1s.4-1 1-1h6.5c.6 0 1 .4 1 1s-.4 1-1 1z"/></g><g><path d="m17 44.7h-6.5c-.6 0-1-.4-1-1s.4-1 1-1h6.5c.6 0 1 .4 1 1s-.4 1-1 1z"/></g><g><path d="m17 50.6h-6.5c-.6 0-1-.4-1-1s.4-1 1-1h6.5c.6 0 1 .4 1 1s-.4 1-1 1z"/></g><g><path d="m17 56.4h-6.5c-.6 0-1-.4-1-1s.4-1 1-1h6.5c.6 0 1 .4 1 1s-.4 1-1 1z"/></g><g><path d="m64 60.9h-62c-.6 0-1-.4-1-1s.4-1 1-1h62c.6 0 1 .4 1 1s-.4 1-1 1z"/></g></g></svg>