<svg id="Layer_1" height="512" viewBox="0 0 66 66" width="512" xmlns="http://www.w3.org/2000/svg"><g><g><path d="m45.3 9.1c-.1 0-.2 0-.3-.1l-12-4.3-12 4.4c-.5.2-1-.1-1.2-.6s.1-1.1.6-1.3l12.3-4.5c.2-.1.5-.1.7 0l12.3 4.5c.5.2.8.8.6 1.3-.2.4-.6.6-1 .6z"/></g><g><path d="m41.9 22.6h-17.8c-.6 0-1-.4-1-1v-14.8c0-.4.3-.8.7-.9l8.9-3.2c.2-.1.5-.1.7 0l8.9 3.2c.4.1.7.5.7.9v14.8c-.1.6-.5 1-1.1 1zm-16.8-2h15.8v-13.1l-7.9-2.8-7.9 2.8z"/></g><g><path d="m61.5 30.8h-14.5c-.6 0-1-.4-1-1s.4-1 1-1h14.5c.4 0 .7-.2.9-.5.1-.1.2-.5 0-1l-1.8-3.1c-.5-.9-1.5-1.5-2.6-1.5h-50c-1.1 0-2.1.6-2.6 1.5l-1.8 3.1c-.3.4-.1.8 0 1 .2.3.5.5.9.5h14.5c.6 0 1 .4 1 1s-.4 1-1 1h-14.6c-1.1 0-2.1-.6-2.6-1.5-.5-1-.5-2.1 0-3l1.8-3.1c.9-1.5 2.6-2.5 4.4-2.5h49.9c1.8 0 3.5 1 4.4 2.5l1.8 3.1c.5.9.6 2 0 3-.5.9-1.5 1.5-2.6 1.5z"/></g><g><path d="m19 63.4h-15c-.6 0-1-.4-1-1v-32.6c0-.6.4-1 1-1h15c.6 0 1 .4 1 1s-.4 1-1 1h-14v30.6h14c.6 0 1 .4 1 1s-.4 1-1 1z"/></g><g><path d="m62 63.4h-15c-.6 0-1-.4-1-1s.4-1 1-1h14v-30.6h-14c-.6 0-1-.4-1-1s.4-1 1-1h15c.6 0 1 .4 1 1v32.6c0 .5-.4 1-1 1z"/></g><g><path d="m64 63.4h-62c-.6 0-1-.4-1-1s.4-1 1-1h62c.6 0 1 .4 1 1s-.4 1-1 1z"/></g><g><path d="m43 63.4h-20c-.6 0-1-.4-1-1v-31.3c0-.4.2-.7.5-.9l2.2-1.3 7.8-4.7c.3-.2.7-.2 1 0l10 6c.3.2.5.5.5.9v31.3c0 .5-.4 1-1 1zm-19-2h18v-29.7l-1.7-1-7.3-4.4-9 5.4z"/></g><g><path d="m46 33.7c-.2 0-.3 0-.5-.1l-12.5-7.3-12.5 7.3c-.5.3-1.1.1-1.4-.4s-.1-1.1.4-1.4l5-2.9 8-4.7c.3-.2.7-.2 1 0l13 7.6c.5.3.6.9.4 1.4-.2.3-.6.5-.9.5z"/></g><g><path d="m33.5 41.7h-1c-2.4 0-4.5-2.1-4.5-4.5s2.1-4.5 4.5-4.5h1c2.4 0 4.5 2.1 4.5 4.5s-2.1 4.5-4.5 4.5zm-1-7c-1.4 0-2.5 1.1-2.5 2.5s1.1 2.5 2.5 2.5h1c1.4 0 2.5-1.1 2.5-2.5s-1.1-2.5-2.5-2.5z"/></g><g><path d="m38 63.4h-10c-.6 0-1-.4-1-1v-11.3c0-1.6.6-3 1.8-4.2s2.6-1.8 4.2-1.8c3.4 0 6 2.6 6 6v11.3c0 .5-.4 1-1 1zm-9-2h8v-10.3c0-2.2-1.8-4-4-4-1.3 0-2.2.7-2.8 1.2-.6.6-1.2 1.5-1.2 2.8z"/></g><g><path d="m49.5 41.3c-.6 0-1-.4-1-1v-3.1c0-.6.4-1 1-1s1 .4 1 1v3.1c0 .5-.4 1-1 1z"/></g><g><path d="m55.5 41.3c-.6 0-1-.4-1-1v-3.1c0-.6.4-1 1-1s1 .4 1 1v3.1c0 .5-.4 1-1 1z"/></g><g><path d="m49.5 49.3c-.6 0-1-.4-1-1v-3.1c0-.6.4-1 1-1s1 .4 1 1v3.1c0 .5-.4 1-1 1z"/></g><g><path d="m55.5 49.3c-.6 0-1-.4-1-1v-3.1c0-.6.4-1 1-1s1 .4 1 1v3.1c0 .5-.4 1-1 1z"/></g><g><path d="m49.5 57.3c-.6 0-1-.4-1-1v-3.1c0-.6.4-1 1-1s1 .4 1 1v3.1c0 .5-.4 1-1 1z"/></g><g><path d="m55.5 57.3c-.6 0-1-.4-1-1v-3.1c0-.6.4-1 1-1s1 .4 1 1v3.1c0 .5-.4 1-1 1z"/></g><g><path d="m10.5 41.3c-.6 0-1-.4-1-1v-3.1c0-.6.4-1 1-1s1 .4 1 1v3.1c0 .5-.4 1-1 1z"/></g><g><path d="m16.5 41.3c-.6 0-1-.4-1-1v-3.1c0-.6.4-1 1-1s1 .4 1 1v3.1c0 .5-.4 1-1 1z"/></g><g><path d="m10.5 49.3c-.6 0-1-.4-1-1v-3.1c0-.6.4-1 1-1s1 .4 1 1v3.1c0 .5-.4 1-1 1z"/></g><g><path d="m16.5 49.3c-.6 0-1-.4-1-1v-3.1c0-.6.4-1 1-1s1 .4 1 1v3.1c0 .5-.4 1-1 1z"/></g><g><path d="m10.5 57.3c-.6 0-1-.4-1-1v-3.1c0-.6.4-1 1-1s1 .4 1 1v3.1c0 .5-.4 1-1 1z"/></g><g><path d="m16.5 57.3c-.6 0-1-.4-1-1v-3.1c0-.6.4-1 1-1s1 .4 1 1v3.1c0 .5-.4 1-1 1z"/></g><g><path d="m34.3 18.6h-2.5c-1.9 0-3.3-1.4-3.3-3.3v-2.5c0-1.8 1.4-3.3 3.3-3.3h2.5.2c1.7 0 3.1 1.5 3.1 3.3v2.5c0 1.9-1.4 3.3-3.3 3.3zm-2.5-7.1c-.8 0-1.3.5-1.3 1.3v2.5c0 .8.5 1.3 1.3 1.3h2.5c.8 0 1.3-.5 1.3-1.3v-2.5c0-.7-.5-1.3-1.1-1.3 0 0-.1 0-.2 0z"/></g></g></svg>