<svg id="Layer_1" height="512" viewBox="0 0 66 66" width="512" xmlns="http://www.w3.org/2000/svg"><g><g><path d="m41.3 11.2c-.6 0-1-.4-1-1v-5.3c0-.6-.2-1.1-.7-1.4-.5-.4-1.1-.5-1.7-.4l-10.8 2.6c-.8.2-1.4 1-1.4 1.8v2.7c0 .6-.4 1-1 1s-1-.4-1-1v-2.7c0-1.8 1.3-3.4 3-3.8l10.8-2.6c1.2-.3 2.4 0 3.4.8.9.7 1.4 1.8 1.4 3v5.3c0 .5-.5 1-1 1z"/></g><g><path d="m16 65h-3.1c-.6 0-1-.4-1-1v-34.9c0-2.2 1.7-3.9 3.9-3.9h.2c.6 0 1 .4 1 1s-.4 1-1 1h-.2c-1 0-1.9.9-1.9 1.9v33.9h2.1c.6 0 1 .4 1 1s-.4 1-1 1z"/></g><g><path d="m53.1 65h-3.1c-.6 0-1-.4-1-1s.4-1 1-1h2.1v-33.9c0-1-.9-1.9-1.9-1.9h-.2c-.6 0-1-.4-1-1s.4-1 1-1h.2c2.1 0 3.9 1.8 3.9 3.9v34.9c0 .6-.5 1-1 1z"/></g><g><g><path d="m46.2 54h-26.4c-.6 0-1-.4-1-1v-36c0-2.2 1.7-3.9 3.9-3.9h20.6c2.1 0 3.9 1.8 3.9 3.9v36c0 .6-.5 1-1 1zm-25.4-2h24.4v-35c0-1-.9-1.9-1.9-1.9h-20.6c-1 0-1.9.9-1.9 1.9z"/></g></g><g><g><path d="m46.2 65h-26.4c-.6 0-1-.4-1-1v-11c0-.6.4-1 1-1h26.4c.6 0 1 .4 1 1v11c0 .6-.5 1-1 1zm-25.4-2h24.4v-9h-24.4z"/></g></g><g><g><g><path d="m38.3 23.8h-10.6c-1.1 0-2-.9-2-2v-3.1c0-1.1.9-2 2-2h10.6c1.1 0 2 .9 2 2v3.1c0 1.1-.9 2-2 2zm-10.6-5.1v3.1h10.6v-3.1z"/></g></g><g><g><path d="m38.3 32.6h-10.6c-1.1 0-2-.9-2-2v-3.1c0-1.1.9-1.8 1.8-2h.2 10.6c1.1 0 2 .9 2 2v3.1c0 1.1-.9 2-2 2zm-10.6-5v3h10.6v-3.1h-10.5s-.1 0-.1.1z"/></g></g><g><g><path d="m38.3 41.5h-10.6c-1.1 0-2-.9-2-2v-3.1c0-1 1-2 2-2h10.6c1.1 0 2 .9 2 2v3.1c0 1.1-.9 2-2 2zm-10.6-5.1v3.1h10.6v-3.1z"/></g></g><g><g><path d="m38.3 50.4h-10.6c-1.1 0-2-.9-2-2v-3.1c0-1.1.9-2 2-2h10.6c1.1 0 2 .9 2 2v3.1c0 1.1-.9 2-2 2zm-10.6-5.1v3.1h10.6v-3.1z"/></g></g></g><g><path d="m57.3 65h-48.6c-.6 0-1-.4-1-1s.4-1 1-1h48.6c.6 0 1 .4 1 1s-.5 1-1 1z"/></g></g></svg>