<svg id="Layer_1" height="512" viewBox="0 0 66 66" width="512" xmlns="http://www.w3.org/2000/svg"><g><g><path d="m59.4 58.5h-52.8c-.6 0-1-.4-1-1v-28.3c0-.6.4-1 1-1s1 .4 1 1v27.3h50.8v-27.3c0-.6.4-1 1-1s1 .4 1 1v28.3c0 .5-.4 1-1 1z"/></g><g><path d="m59.8 14.3h-53.5c-1.8 0-3.4-1.6-3.4-3.4s1.6-3.4 3.4-3.4h53.4c1.8 0 3.4 1.6 3.4 3.4s-1.4 3.3-3.3 3.4zm-53.5-4.8c-.7 0-1.4.7-1.4 1.4s.7 1.4 1.4 1.4h53.5c.8-.1 1.3-.7 1.3-1.4s-.7-1.4-1.4-1.4z"/></g><g><path d="m61.2 58.5h-56.4c-.6 0-1-.4-1-1s.4-1 1-1h56.4c.6 0 1 .4 1 1s-.4 1-1 1z"/></g><g><path d="m50.9 26.2c-2.4 0-4.4-1.5-5-3.8l-2.5-8.9c-.1-.3 0-.6.2-.9.2-.2.5-.4.8-.4h7.6c.4 0 .7.2.9.6l2.8 6c.7 1.7.6 3.6-.4 5.1-1 1.4-2.6 2.3-4.4 2.3zm-5.2-12 2.1 7.6c.4 1.4 1.6 2.4 3 2.4 1.1 0 2.1-.5 2.7-1.5.6-.9.7-2.1.3-3.1l-2.5-5.4z"/></g><g><path d="m15.2 26.2c-1.8 0-3.4-.9-4.4-2.4s-1.1-3.4-.3-5l2.7-6c.2-.4.5-.6.9-.6h7.6c.3 0 .6.1.8.4.2.2.3.6.2.9l-2.5 8.9c-.7 2.2-2.7 3.8-5 3.8zm-.5-12-2.4 5.4c-.5 1-.4 2.2.2 3.1s1.6 1.5 2.7 1.5c1.4 0 2.7-1 3-2.4l2.1-7.6z"/></g><g><path d="m33 26.2c-1.6 0-3-.6-4-1.8-1-1.1-1.6-2.7-1.5-4.2l.7-7.1c.1-.5.5-.9 1-.9h7.6c.5 0 .9.4 1 .9l.7 7.1c.2 1.5-.3 3-1.3 4.1-1.1 1.2-2.6 1.9-4.2 1.9zm-2.9-12-.6 6.2c-.1 1 .3 2 .9 2.7.7.7 1.6 1.1 2.6 1.1s2-.4 2.7-1.2c.6-.7.9-1.6.8-2.6l-.6-6.2z"/></g><g><path d="m24 26.2c-1.7 0-3.3-.8-4.3-2.1-1-1.4-1.4-3.1-.9-4.7l1.9-6.4c.1-.4.5-.7 1-.7h7.5c.3 0 .6.1.7.3.2.2.3.5.3.8l-.8 8c-.2 2.7-2.6 4.8-5.4 4.8zm-1.6-12-1.7 5.7c-.3 1-.1 2.1.6 3 .6.9 1.6 1.3 2.7 1.3 1.8 0 3.3-1.3 3.4-3.1l.7-6.9z"/></g><g><path d="m60.1 26.2c-1.9 0-3.6-1.1-4.4-2.8l-4.6-9.7c-.1-.3-.1-.7.1-1s.5-.5.8-.5h7.5c.3 0 .6.2.8.4l3.9 5.8c1 1.5 1.1 3.4.2 5.1-.8 1.7-2.5 2.7-4.3 2.7zm-6.5-11.9 3.9 8.3c.4 1 1.5 1.6 2.6 1.6s2-.6 2.6-1.6c.5-1 .5-2.1-.1-3l-3.6-5.3z"/></g><g><path d="m6 26.2c-1.8 0-3.5-1-4.3-2.6-.9-1.6-.8-3.5.2-5l3.9-5.9c.2-.3.5-.4.8-.4h7.5c.3 0 .7.2.8.5s.2.7.1 1l-4.6 9.8c-.7 1.5-2.5 2.6-4.4 2.6zm1.1-12-3.6 5.4c-.6.9-.6 2-.1 3s1.5 1.6 2.6 1.6c1.2 0 2.2-.6 2.6-1.6l3.9-8.4z"/></g><g><path d="m42 26.2c-2.8 0-5.2-2.1-5.4-4.9l-.8-8c0-.3.1-.6.3-.8s.5-.3.7-.3h7.5c.4 0 .8.3 1 .7l1.9 6.4c.5 1.7.2 3.4-.9 4.7-1 1.4-2.6 2.2-4.3 2.2zm-4.1-12 .7 6.9c.2 1.8 1.6 3.1 3.4 3.1 1.1 0 2-.5 2.7-1.3.6-.9.9-1.9.6-3l-1.7-5.7z"/></g><g><path d="m51.6 50.7h-16.2c-2 0-3.6-1.6-3.6-3.6v-15.5c0-2 1.6-3.6 3.6-3.6h16.2.2c1.9 0 3.4 1.6 3.4 3.6v15.5c0 2-1.6 3.6-3.6 3.6zm-16.2-20.7c-.9 0-1.6.7-1.6 1.6v15.5c0 .9.7 1.6 1.6 1.6h16.2c.9 0 1.6-.7 1.6-1.6v-15.5c0-.9-.7-1.6-1.4-1.6 0 0-.1 0-.2 0z"/></g><g><path d="m27 58.5h-15.2c-.6 0-1-.4-1-1v-20.9c0-2 1.6-3.6 3.6-3.6h9.8.2c2 0 3.6 1.6 3.6 3.6v20.9c0 .5-.4 1-1 1zm-14.2-2h13.2v-19.9c0-.9-.7-1.6-1.6-1.6h-.1-9.9c-.9 0-1.6.7-1.6 1.6z"/></g><g><path d="m14.8 47.3c-.6 0-1-.4-1-1v-1.4c0-.6.4-1 1-1s1 .4 1 1v1.4c0 .5-.5 1-1 1z"/></g></g></svg>