<svg id="Layer_1" height="512" viewBox="0 0 66 66" width="512" xmlns="http://www.w3.org/2000/svg"><g><g><path d="m61.2 63.2h-56.4c-.6 0-1-.4-1-1v-34.9c0-.6.4-1 1-1s1 .4 1 1v33.9h54.4v-33.9c0-.6.4-1 1-1s1 .4 1 1v34.9c0 .5-.4 1-1 1z"/></g><g><path d="m61.4 24.5h-56.9c-2 0-3.5-1.5-3.5-3.5s1.6-3.6 3.6-3.5h56.9c2 0 3.5 1.5 3.5 3.5s-1.6 3.5-3.6 3.5zm-57.1-5c-.7 0-1.3.7-1.3 1.5s.7 1.5 1.5 1.5h56.9c.9 0 1.6-.6 1.6-1.5 0-.8-.7-1.5-1.5-1.5z"/></g><g><path d="m52.7 54.9h-17.2c-2.1 0-3.8-1.7-3.8-3.8v-16.5c0-2.1 1.7-3.8 3.8-3.8h17.2c2.2 0 3.8 1.6 3.8 3.8v16.5c0 2.1-1.7 3.8-3.8 3.8zm-17.2-22.1c-1 0-1.8.8-1.8 1.8v16.5c0 1 .8 1.8 1.8 1.8h17.2c1 0 1.8-.8 1.8-1.8v-16.5c0-1-.8-1.8-1.8-1.8z"/></g><g><path d="m26.6 63.2h-16.1c-.6 0-1-.4-1-1v-22.3c0-2.1 1.7-3.8 3.8-3.8h10.5c2.1 0 3.8 1.7 3.8 3.8v22.3c0 .5-.4 1-1 1zm-15.1-2h14.1v-21.3c0-1-.8-1.8-1.8-1.8h-10.5c-.9 0-1.8.9-1.8 1.8z"/></g><g><path d="m52.3 14.5h-38.6c-2.1 0-3.8-1.7-3.8-3.8v-4.1c0-2.1 1.7-3.8 3.8-3.8h38.6c2.1 0 3.8 1.7 3.8 3.8v4.1c0 2.1-1.7 3.8-3.8 3.8zm-38.6-9.7c-1 0-1.8.8-1.8 1.8v4.1c0 1 .8 1.8 1.8 1.8h38.6c1 0 1.8-.8 1.8-1.8v-4.1c0-1-.8-1.8-1.8-1.8z"/></g><g><path d="m18.2 19.4c-.6 0-1-.4-1-1v-4.9c0-.6.4-1 1-1s1 .4 1 1v4.9c0 .6-.4 1-1 1z"/></g><g><path d="m47.8 19.4c-.6 0-1-.4-1-1v-4.9c0-.6.4-1 1-1s1 .4 1 1v4.9c0 .6-.4 1-1 1z"/></g><g><path d="m63 63.2h-60c-.6 0-1-.4-1-1s.4-1 1-1h60c.6 0 1 .4 1 1s-.4 1-1 1z"/></g><g><path d="m13.6 51.3c-.6 0-1-.4-1-1v-1.5c0-.6.4-1 1-1s1 .4 1 1v1.5c0 .5-.4 1-1 1z"/></g></g></svg>