<svg id="Layer_1" height="512" viewBox="0 0 66 66" width="512" xmlns="http://www.w3.org/2000/svg"><g><g><path d="m64 62.6h-62c-.6 0-1-.4-1-1s.4-1 1-1h62c.6 0 1 .4 1 1s-.4 1-1 1z"/></g><g><g><path d="m17.5 62.6h-12.6c-.6 0-1-.4-1-1v-36.2c0-.6.4-1 1-1h12.6c.6 0 1 .4 1 1s-.4 1-1 1h-11.6v34.2h11.6c.6 0 1 .4 1 1s-.4 1-1 1z"/></g><g><path d="m61.1 62.6h-12.6c-.6 0-1-.4-1-1s.4-1 1-1h11.6v-34.2h-11.6c-.6 0-1-.4-1-1s.4-1 1-1h12.6c.6 0 1 .4 1 1v36.2c0 .5-.4 1-1 1z"/></g><g><path d="m17.5 26.3h-13.1c-1.8 0-3.4-1.6-3.4-3.4 0-.9.4-1.8 1-2.4s1.5-1 2.4-1h13.1c.6 0 1 .4 1 1s-.4 1-1 1h-13.1c-.5 0-.9.3-1 .4s-.4.5-.4 1c0 .7.7 1.4 1.4 1.4h13.1c.6 0 1 .4 1 1s-.4 1-1 1z"/></g><g><path d="m61.6 26.4h-13.1c-.6 0-1-.4-1-1s.4-1 1-1h13.1c.7 0 1.4-.7 1.4-1.4s-.7-1.4-1.4-1.4h-13.1c-.6 0-1-.4-1-1s.4-1 1-1h13.1c1.8 0 3.4 1.6 3.4 3.4s-1.6 3.4-3.4 3.4z"/></g><g><path d="m44.6 62.5h-23.2c-.6 0-1-.4-1-1v-45.5c0-1.6 1.3-2.9 2.9-2.9h19.4c1.6 0 2.9 1.3 2.9 2.9v45.5c0 .5-.4 1-1 1zm-22.2-2h21.2v-44.5c0-.4-.3-.9-.9-.9h-19.4c-.4 0-.9.3-.9.9z"/></g><g><path d="m35.4 15.1h-4.8c-.6 0-1-.4-1-1v-7.3c0-1.8 1.6-3.4 3.4-3.4s3.4 1.6 3.4 3.4v7.3c0 .6-.4 1-1 1zm-3.8-2h2.8v-6.3c0-.7-.7-1.4-1.4-1.4s-1.4.7-1.4 1.4z"/></g><g><path d="m56.7 44.5h-7.7c-.6 0-1-.4-1-1v-10.2c0-1.6 1.3-2.9 2.9-2.9h3.9c1.6 0 2.9 1.3 2.9 2.9v10.2c0 .5-.4 1-1 1zm-6.7-2h5.7v-9.2c0-.6-.5-.9-.9-.9h-3.9c-.4 0-.9.3-.9.9z"/></g><g><path d="m54.8 56.6h-3.9c-1.6 0-2.9-1.3-2.9-2.9v-10.2c0-.6.4-1 1-1h7.7c.6 0 1 .4 1 1v10.2c0 1.6-1.3 2.9-2.9 2.9zm-4.8-12.1v9.2c0 .6.5.9.9.9h3.9c.6 0 .9-.5.9-.9v-9.2z"/></g><g><path d="m38.3 37.2h-10.7c-1.6 0-2.9-1.3-2.9-2.9v-11.5c0-1.6 1.3-2.9 3-2.9h10.6c1.6 0 2.9 1.3 2.9 2.9v11.5c0 1.6-1.3 2.9-2.9 2.9zm-10.6-15.3c-.5 0-1 .3-1 .9v11.5c0 .6.5.9.9.9h10.7c.6 0 .9-.5.9-.9v-11.5c0-.6-.5-.9-.9-.9z"/></g><g><path d="m40.1 29.6h-14.2c-.6 0-1-.4-1-1s.4-1 1-1h14.2c.6 0 1 .4 1 1s-.4 1-1 1z"/></g><g><path d="m39.6 62.6h-13.3c-.6 0-1-.4-1-1v-11.6c0-4.2 3.3-7.6 7.6-7.7 4.3 0 7.7 3.5 7.7 7.7v11.6c0 .5-.4 1-1 1zm-12.3-2h11.3v-10.6c0-3.1-2.6-5.7-5.7-5.7-3.1.1-5.6 2.6-5.6 5.7z"/></g><g><path d="m17 44.5h-7.7c-.6 0-1-.4-1-1v-10.2c0-1.7 1.2-2.9 2.9-2.9h3.9c1.6 0 2.9 1.3 2.9 2.9v10.2c0 .5-.4 1-1 1zm-6.7-2h5.7v-9.2c0-.6-.5-.9-.9-.9h-3.9c-.5 0-.9.4-.9.9z"/></g><g><path d="m15.1 56.6h-3.9c-1.6 0-2.9-1.3-2.9-2.9v-10.2c0-.6.4-1 1-1h7.7c.6 0 1 .4 1 1v10.2c0 1.6-1.3 2.9-2.9 2.9zm-4.8-12.1v9.2c0 .6.5.9.9.9h3.9c.6 0 .9-.5.9-.9v-9.2z"/></g></g></g></svg>