<svg id="Layer_1" height="512" viewBox="0 0 66 66" width="512" xmlns="http://www.w3.org/2000/svg"><g><g><path d="m28.3 62.9h-23.5c-.6 0-1-.4-1-1v-46.5c0-.6.4-1 1-1h23.5c.6 0 1 .4 1 1v46.5c0 .5-.4 1-1 1zm-22.5-2h21.5v-44.5h-21.5z"/></g><g><path d="m28.3 16.4h-23.4c-1.6 0-2.9-1.3-2.9-2.9v-.8c0-1.6 1.3-2.9 2.9-2.9h23.3.2c1.6 0 2.8 1.3 2.8 2.9v.8c0 1.6-1.3 2.9-2.9 2.9zm-23.4-4.6c-.4 0-.9.3-.9.9v.8c0 .4.3.9.9.9h23.4c.4 0 .9-.3.9-.9v-.8c0-.5-.4-.9-.8-.9 0 0-.1 0-.2 0z"/></g><g><path d="m61.1 31.1h-28.9c-.6 0-1-.4-1-1s.4-1 1-1h28.9c.6 0 .9-.5.9-.9v-1.8c0-.6-.5-.9-.9-.9h-28.9c-.6 0-1-.4-1-1s.4-1 1-1h28.9c1.6 0 2.9 1.3 2.9 2.9v1.8c0 1.6-1.3 2.9-2.9 2.9z"/></g><g><path d="m61.2 62.9h-32.9c-.6 0-1-.4-1-1v-28c0-.6.4-1 1-1s1 .4 1 1v27h30.9v-27c0-.6.4-1 1-1s1 .4 1 1v28c0 .5-.4 1-1 1z"/></g><g><path d="m53.9 53.4h-4.8c-1.6 0-2.9-1.3-2.9-2.9v-9c0-1.6 1.3-2.9 2.9-2.9h4.8.2c1.5 0 2.7 1.3 2.7 2.9v9c0 1.6-1.3 2.9-2.9 2.9zm-4.8-12.8c-.4 0-.9.3-.9.9v9c0 .4.3.9.9.9h4.8c.4 0 .9-.3.9-.9v-9c0-.5-.3-.9-.7-.9 0 0-.1 0-.2 0z"/></g><g><path d="m40.4 53.4h-4.8c-1.6 0-2.9-1.3-2.9-2.9v-9c0-1.6 1.3-2.9 2.9-2.9h4.8.2c1.5 0 2.7 1.3 2.7 2.9v9c0 1.6-1.3 2.9-2.9 2.9zm-4.8-12.8c-.4 0-.9.3-.9.9v9c0 .4.3.9.9.9h4.8c.4 0 .9-.3.9-.9v-9c0-.5-.3-.9-.7-.9 0 0-.1 0-.2 0z"/></g><g><path d="m42.3 47h-8.7c-.6 0-1-.4-1-1s.4-1 1-1h8.7c.6 0 1 .4 1 1s-.4 1-1 1z"/></g><g><path d="m55.8 47h-8.7c-.6 0-1-.4-1-1s.4-1 1-1h8.7c.6 0 1 .4 1 1s-.4 1-1 1z"/></g><g><path d="m23.4 62.9h-13.7c-.6 0-1-.4-1-1v-15.3c0-2.1 1.7-3.9 3.9-3.9h7.9c2.2 0 3.9 1.7 3.9 3.9v15.3c0 .5-.4 1-1 1zm-12.7-2h11.7v-14.3c0-1-.9-1.9-1.9-1.9h-7.9c-1 0-1.9.9-1.9 1.9z"/></g><g><path d="m20.3 11.7h-7.5c-.6 0-1-.4-1-1v-4.7c0-1.6 1.3-2.9 2.9-2.9h3.6c1.7 0 3 1.3 3 2.9v4.7c0 .6-.4 1-1 1zm-6.5-2h5.5v-3.7c0-.4-.3-.9-1-.9h-3.6c-.4 0-.9.3-.9.9z"/></g><g><path d="m48.5 25.4h-7.5c-.6 0-1-.4-1-1v-4.7c0-1.6 1.3-2.9 2.9-2.9h3.6c1.6 0 3 1.3 3 2.9v4.7c0 .6-.4 1-1 1zm-6.5-2h5.5v-3.7c0-.4-.4-.9-1-.9h-3.6c-.4 0-.9.3-.9.9z"/></g><g><path d="m64 62.9h-62c-.6 0-1-.4-1-1s.4-1 1-1h62c.6 0 1 .4 1 1s-.4 1-1 1z"/></g><g><path d="m16.5 35.5c-.3 0-.6 0-.9-.1-2.5-.4-4.5-2.4-5-5-.3-1.8.2-3.6 1.4-4.9 1.4-1.6 3.4-2.4 5.5-2 2.6.4 4.7 2.4 5 5 .3 1.8-.3 3.5-1.4 4.9-1.2 1.3-2.9 2.1-4.6 2.1zm0-10.1c-1.2 0-2.3.5-3.1 1.4s-1.1 2.1-.9 3.3c.3 1.7 1.7 3.1 3.4 3.4 1.5.2 2.8-.3 3.7-1.4.8-.9 1.1-2.1.9-3.3-.2-1.7-1.7-3.1-3.3-3.4-.3 0-.5 0-.7 0z"/></g></g></svg>