<svg id="Layer_1" height="512" viewBox="0 0 66 66" width="512" xmlns="http://www.w3.org/2000/svg"><g><g><g><path d="m46.9 15.3h-27.7c-1.6 0-2.9-1.3-2.9-2.9v-5.3c0-1.6 1.3-2.9 2.9-2.9h27.7.2c1.5 0 2.7 1.3 2.7 2.9v5.3c0 1.6-1.3 2.9-2.9 2.9zm-27.7-9.1c-.4 0-.9.3-.9.9v5.3c0 .4.3.9.9.9h27.7c.4 0 .9-.3.9-.9v-5.3c0-.5-.4-.9-.7-.9 0 0-.1 0-.2 0z"/></g><g><path d="m60.7 61.8h-55.5c-.6 0-1-.4-1-1v-41.6c0-.6.4-1 1-1h55.5c.6 0 1 .4 1 1v41.6c0 .5-.4 1-1 1zm-54.5-2h53.5v-39.6h-53.5z"/></g><g><path d="m64 20.2h-62c-.6 0-1-.4-1-1s.4-1 1-1h62c.6 0 1 .4 1 1s-.4 1-1 1z"/></g><g><path d="m47.1 61.8h-28.2c-.6 0-1-.4-1-1v-25.9c0-2.1 1.7-3.9 3.9-3.9h22.5c2.1 0 3.8 1.8 3.8 3.9v25.9c0 .5-.4 1-1 1zm-27.2-2h26.2v-24.9c0-1-.8-1.9-1.8-1.9h-22.5c-1 0-1.9.9-1.9 1.9z"/></g><g><path d="m33 61.9c-.6 0-1-.4-1-1v-28.9c0-.6.4-1 1-1s1 .4 1 1v28.9c0 .5-.4 1-1 1z"/></g><g><path d="m64 61.9h-62c-.6 0-1-.4-1-1s.4-1 1-1h62c.6 0 1 .4 1 1s-.4 1-1 1z"/></g></g><g><path d="m42.6 20.3h-19.2c-.6 0-1-.4-1-1v-5c0-.6.4-1 1-1h19.2c.6 0 1 .4 1 1v5c0 .6-.4 1-1 1zm-18.2-2h17.2v-3h-17.2z"/></g></g></svg>