<svg id="Layer_1" height="512" viewBox="0 0 66 66" width="512" xmlns="http://www.w3.org/2000/svg"><g><g><path d="m5.8 61.7c-.6 0-1-.4-1-1v-17.5c0-.6.4-1 1-1s1 .4 1 1v17.5c0 .6-.4 1-1 1z"/></g><g><path d="m60.2 61.7c-.6 0-1-.4-1-1v-17.5c0-.6.4-1 1-1s1 .4 1 1v17.5c0 .6-.5 1-1 1z"/></g><g><path d="m49.3 30.7c-.6 0-1-.4-1-1v-10.5h-30.6v10.5c0 .6-.4 1-1 1s-1-.4-1-1v-11.5c0-.6.4-1 1-1h32.5c.6 0 1 .4 1 1v11.5c.1.6-.4 1-.9 1z"/></g><g><path d="m52 19.2h-37.9c-1.6 0-2.9-1.3-2.9-2.9v-1.5c0-1.6 1.3-2.9 2.9-2.9h37.9c1.6 0 2.9 1.3 2.9 2.9v1.5c0 1.6-1.3 2.9-2.9 2.9zm-37.9-5.3c-.4 0-.9.3-.9.9v1.5c0 .4.3.9.9.9h37.9c.4 0 .9-.3.9-.9v-1.5c0-.6-.5-.9-.9-.9z"/></g><g><path d="m61.3 40.4h-4c-.6 0-1-.4-1-1s.4-1 1-1h4c1 0 1.8-.8 1.8-1.8s-.8-1.8-1.8-1.8h-6.7c-.6 0-1-.4-1-1s.4-1 1-1h6.7c2.1 0 3.8 1.7 3.8 3.8s-1.8 3.8-3.8 3.8z"/></g><g><path d="m8.7 40.3h-4c-1.1 0-2-.4-2.6-1.1-.7-.7-1.1-1.6-1.1-2.6 0-2.1 1.7-3.8 3.8-3.8h6.7c.6 0 1 .4 1 1s-.4 1-1 1h-6.7c-1 0-1.8.8-1.8 1.8 0 .5.2.8.5 1.2 0 0 .1.1.1.1.2.3.6.4 1.1.4h4c.6 0 1 .4 1 1s-.4 1-1 1z"/></g><g><path d="m50.7 61.7c-.6 0-1-.4-1-1v-20.4h-4.4v20.4c0 .6-.4 1-1 1s-1-.4-1-1v-21.4c0-.6.4-1 1-1h6.4c.6 0 1 .4 1 1v21.4c0 .6-.5 1-1 1z"/></g><g><path d="m21.7 61.7c-.6 0-1-.4-1-1v-20.4h-4.4v20.4c0 .6-.4 1-1 1s-1-.4-1-1v-21.4c0-.6.4-1 1-1h6.4c.6 0 1 .4 1 1v21.4c0 .6-.4 1-1 1z"/></g><g><path d="m52.5 40.3h-39c-.8 0-1.6-.6-1.9-1.4s0-1.7.7-2.1l17.7-13.8c1.7-1.3 4.3-1.3 6 0l17.6 13.7c.7.5 1.1 1.3.8 2.1-.3.9-1 1.5-1.9 1.5zm-19.5-16.3c-.6 0-1.3.2-1.8.6l-17.5 13.7h38.6l-17.6-13.7c-.5-.4-1.1-.6-1.7-.6z"/></g><g><path d="m63 65.5h-60c-.6 0-1-.4-1-1s.4-1 1-1h60c.6 0 1 .4 1 1s-.5 1-1 1z"/></g><g><path d="m32.9 36.7c-.3 0-.5 0-.8-.1-1.9-.4-3.3-1.8-3.5-3.5-.3-1.2.1-2.6.9-3.6 1-1.3 2.6-1.9 4.3-1.6s3.1 1.7 3.5 3.5c.3 1.3 0 2.6-.9 3.7-.8 1-2.1 1.6-3.5 1.6zm.2-6.8c-.8 0-1.5.3-2 .9s-.6 1.3-.5 2c.1.9.9 1.7 1.9 1.9h.4c.8 0 1.5-.3 2-.9s.6-1.3.5-2c-.2-1-1-1.8-1.9-1.9-.1 0-.3 0-.4 0z"/></g><g><path d="m39.2 61.7c-.6 0-1-.4-1-1v-5.3c0-1.4-.5-2.7-1.5-3.7s-2.3-1.5-3.7-1.5c-2.9 0-5.2 2.3-5.2 5.2v5.3c0 .6-.4 1-1 1s-1-.4-1-1v-5.3c0-4 3.2-7.2 7.2-7.2 1.9 0 3.8.8 5.1 2.1s2.1 3.2 2.1 5.1v5.3c0 .6-.5 1-1 1z"/></g></g></svg>