<svg id="Layer_1" height="512" viewBox="0 0 66 66" width="512" xmlns="http://www.w3.org/2000/svg"><g><g><path d="m51.8 24.1h-37.5c-.6 0-1-.4-1-1 0-10.9 8.8-19.7 19.7-19.7 10.8 0 19.7 8.8 19.8 19.7 0 .3-.1.5-.3.7s-.5.3-.7.3zm-36.5-2h35.4c-.6-9.3-8.3-16.7-17.7-16.7s-17.1 7.4-17.7 16.7z"/></g><g><path d="m53.3 24.2h-40.6c-.6 0-1-.4-1-1s.4-1 1-1h40.6c.6 0 1 .4 1 1s-.5 1-1 1z"/></g><g><path d="m60.3 29.7h-54.6c-.6 0-1-.4-1-1s.4-1 1-1h54.5c.6 0 1 .4 1 1s-.4 1-.9 1z"/></g><g><path d="m60.3 37.1h-54.6c-.6 0-1-.4-1-1s.4-1 1-1h54.5c.6 0 1 .4 1 1s-.4 1-.9 1z"/></g><g><path d="m16.2 37.1h-6.5c-.6 0-1-.4-1-1v-7.4c0-.6.4-1 1-1h6.5c.6 0 1 .4 1 1v7.4c0 .6-.4 1-1 1zm-5.5-2h4.5v-5.4h-4.5z"/></g><g><path d="m29.6 37.1h-6.5c-.6 0-1-.4-1-1v-7.4c0-.6.4-1 1-1h6.5c.6 0 1 .4 1 1v7.4c0 .6-.4 1-1 1zm-5.5-2h4.5v-5.4h-4.5z"/></g><g><path d="m42.9 37.1h-6.5c-.6 0-1-.4-1-1v-7.4c0-.6.4-1 1-1h6.5c.6 0 1 .4 1 1v7.4c0 .6-.5 1-1 1zm-5.5-2h4.5v-5.4h-4.5z"/></g><g><path d="m56.3 37.1h-6.5c-.6 0-1-.4-1-1v-7.4c0-.6.4-1 1-1h6.5c.6 0 1 .4 1 1v7.4c0 .6-.5 1-1 1zm-5.5-2h4.5v-5.4h-4.5z"/></g><g><path d="m18.1 29.7c-.6 0-1-.4-1-1v-5.5c0-.6.4-1 1-1s1 .4 1 1v5.5c0 .6-.4 1-1 1z"/></g><g><path d="m28 29.7c-.6 0-1-.4-1-1v-5.5c0-.6.4-1 1-1s1 .4 1 1v5.5c0 .6-.4 1-1 1z"/></g><g><path d="m38 29.7c-.6 0-1-.4-1-1v-5.5c0-.6.4-1 1-1s1 .4 1 1v5.5c0 .6-.5 1-1 1z"/></g><g><path d="m47.9 29.7c-.6 0-1-.4-1-1v-5.5c0-.6.4-1 1-1s1 .4 1 1v5.5c0 .6-.5 1-1 1z"/></g><g><path d="m56.3 65h-46.5c-.6 0-1-.4-1-1v-24c0-.6.4-1 1-1s1 .4 1 1v23h44.4v-23c0-.6.4-1 1-1s1 .4 1 1v24c.1.6-.4 1-.9 1z"/></g><g><path d="m60.3 65h-54.6c-.6 0-1-.4-1-1s.4-1 1-1h54.5c.6 0 1 .4 1 1s-.4 1-.9 1z"/></g><g><path d="m33 5.4c-.6 0-1-.4-1-1v-2.4c0-.6.4-1 1-1s1 .4 1 1v2.4c0 .6-.4 1-1 1z"/></g><g><path d="m41.1 65h-16.2c-.6 0-1-.4-1-1v-12.3c0-7.4 8.4-10.9 8.7-11 .2-.1.5-.1.8 0 .4.1 8.7 3.6 8.7 11v12.3c0 .6-.5 1-1 1zm-15.2-2h14.2v-11.3c0-5.3-5.6-8.3-7.1-9-1.5.7-7.1 3.8-7.1 9z"/></g></g></svg>