<svg id="Layer_1" height="512" viewBox="0 0 66 66" width="512" xmlns="http://www.w3.org/2000/svg"><g><g><path d="m8 16.7c-.6 0-1-.4-1-1v-8.2c0-.6.4-1 1-1h7.8c.6 0 1 .4 1 1v3.4c0 .6-.4 1-1 1s-1-.4-1-1v-2.4h-5.8v7.2c0 .6-.5 1-1 1z"/></g><g><path d="m57.3 61.6h-48.6c-.6 0-1-.4-1-1v-28.9c0-.6.4-1 1-1s1 .4 1 1v27.9h46.7v-27.9c0-.6.4-1 1-1s1 .4 1 1v28.9c-.1.6-.5 1-1.1 1z"/></g><g><path d="m5.1 29.9c-1.4 0-2.7-.7-3.5-1.9-1.1-2-.6-4.5 1.3-5.7l4.5-2.9 7.8-4.8 15.7-9.6c1.3-.8 3-.8 4.3 0l27.8 17.1c.9.6 1.6 1.5 1.9 2.6.2 1.1.1 2.2-.5 3.1-.7 1.2-2 2-3.5 2-.8 0-1.5-.2-2.2-.6l-1.9-1.2-23.8-14.5-25.7 15.7c-.7.4-1.4.7-2.2.7zm28-23.5c-.4 0-.8.1-1.1.3l-23.5 14.4-4.5 2.8c-1 .6-1.3 1.9-.7 2.9.6.9 2 1.2 2.9.7l1.9-1.2 24.3-14.9c.3-.2.7-.2 1 0l24.3 14.8 1.9 1.2c.3.2.8.3 1.2.3.7 0 1.4-.4 1.8-1 .3-.5.4-1.1.3-1.6s-.5-1-.9-1.3l-27.8-17c-.3-.2-.7-.4-1.1-.4z"/></g><g><path d="m17.3 8.5h-10.8c-.6 0-1-.4-1-1s.4-1 1-1h10.8c.6 0 1 .4 1 1s-.5 1-1 1z"/></g><g><path d="m40.5 61.6h-15c-.6 0-1-.4-1-1v-16.1c0-4.7 3.8-8.5 8.5-8.5s8.5 3.8 8.5 8.5v16.1c0 .6-.4 1-1 1zm-14-2h13v-15.1c0-3.6-2.9-6.5-6.5-6.5-3.5 0-6.5 3-6.5 6.5z"/></g><g><path d="m52.9 51.1h-8.8c-.6 0-1-.4-1-1v-10.2c0-3 2.4-5.4 5.4-5.4s5.4 2.4 5.4 5.4v10.2c0 .6-.4 1-1 1zm-7.8-2h6.8v-9.2c0-1.9-1.5-3.4-3.4-3.4-1.8 0-3.4 1.6-3.4 3.4z"/></g><g><path d="m21.8 51.1h-8.8c-.6 0-1-.4-1-1v-10.2c0-3 2.4-5.4 5.4-5.4s5.4 2.4 5.4 5.4v10.2c0 .6-.5 1-1 1zm-7.8-2h6.8v-9.2c0-1.9-1.5-3.4-3.4-3.4-1.8 0-3.4 1.6-3.4 3.4z"/></g><g><path d="m33 33.4c-3.7 0-6.7-3-6.7-6.7s3-6.7 6.7-6.7c3.7.1 6.7 3.1 6.7 6.7 0 3.7-3 6.7-6.7 6.7zm0-11.4c-2.6 0-4.7 2.1-4.7 4.7s2.1 4.7 4.7 4.7 4.7-2.1 4.7-4.7c0-2.5-2.1-4.6-4.7-4.7z"/></g><g><path d="m60.8 61.6h-55.6c-.6 0-1-.4-1-1s.4-1 1-1h55.7c.6 0 1 .4 1 1s-.5 1-1.1 1z"/></g></g></svg>