<svg id="Layer_1" height="512" viewBox="0 0 66 66" width="512" xmlns="http://www.w3.org/2000/svg"><g><g><path d="m25.8 63.7h-20c-.6 0-1-.4-1-1v-42.4c0-2.1 1.7-3.9 3.9-3.9h14.2c2.3.1 3.9 1.8 3.9 3.9v42.4c0 .5-.4 1-1 1zm-19-2h18v-41.4c0-1-.8-1.8-2-1.9h-14.1c-1 0-1.9.9-1.9 1.9z"/></g><g><path d="m33 36.4v-4" fill="none"/></g><g><path d="m21.5 41.1h-11.4c-.6 0-1-.4-1-1v-9.1c0-.6.4-1 1-1h11.4c.6 0 1 .4 1 1v9.1c0 .5-.4 1-1 1zm-10.4-2h9.4v-7.1h-9.4z"/></g><g><path d="m21.5 50.2h-11.4c-.6 0-1-.4-1-1v-9.1c0-.6.4-1 1-1h11.4c.6 0 1 .4 1 1v9.1c0 .5-.4 1-1 1zm-10.4-2h9.4v-7.1h-9.4z"/></g><g><path d="m22.2 18.4h-12.8c-.6 0-1-.4-1-1v-4.1c0-1.6 1.3-2.9 2.9-2.9h8.9c1.6 0 3 1.3 3 2.9v4.1c0 .6-.4 1-1 1zm-11.8-2h10.8v-3.1c0-.4-.4-.9-1-.9h-8.9c-.4 0-.9.3-.9.9z"/></g><g><path d="m18.3 12.4h-5.1c-.6 0-1-.4-1-1v-5.6c0-.8.3-1.7.9-2.4 0 0 0-.1.1-.1.7-.7 1.5-1 2.5-1 2 0 3.6 1.5 3.6 3.5v5.6c0 .6-.4 1-1 1zm-4.1-2h3.1v-4.6c0-.9-.7-1.5-1.6-1.5-.5 0-.8.1-1.1.4-.3.4-.4.8-.4 1.1z"/></g><g><path d="m56.6 18.4h-12.8c-.6 0-1-.4-1-1v-4.1c0-1.6 1.3-2.9 2.9-2.9h8.9c1.6 0 3 1.3 3 2.9v4.1c0 .6-.4 1-1 1zm-11.8-2h10.8v-3.1c0-.4-.4-.9-1-.9h-8.9c-.4 0-.9.3-.9.9z"/></g><g><path d="m52.8 12.4h-5.1c-.6 0-1-.4-1-1v-5.6c0-.8.3-1.7.9-2.4 0 0 0-.1.1-.1.7-.7 1.5-1 2.5-1 2 0 3.6 1.6 3.6 3.5v5.6c0 .6-.4 1-1 1zm-4.1-2h3.1v-4.6c0-.8-.7-1.5-1.6-1.5-.5 0-.8.1-1.1.4-.3.4-.4.8-.4 1.1z"/></g><g><path d="m60.2 63.7h-20c-.6 0-1-.4-1-1v-42.4c0-2.1 1.7-3.9 3.9-3.9h14.2c2.3.1 3.9 1.8 3.9 3.9v42.4c0 .5-.4 1-1 1zm-19-2h18v-41.4c0-1-.8-1.8-2-1.9h-14.1c-1 0-1.9.9-1.9 1.9z"/></g><g><path d="m55.9 41.1h-11.4c-.6 0-1-.4-1-1v-9.1c0-.6.4-1 1-1h11.4c.6 0 1 .4 1 1v9.1c0 .5-.4 1-1 1zm-10.4-2h9.4v-7.1h-9.4z"/></g><g><path d="m55.9 50.2h-11.4c-.6 0-1-.4-1-1v-9.1c0-.6.4-1 1-1h11.4c.6 0 1 .4 1 1v9.1c0 .5-.4 1-1 1zm-10.4-2h9.4v-7.1h-9.4z"/></g><g><path d="m21.5 32h-11.4c-.6 0-1-.4-1-1v-7.1c0-1.5 1.4-2.9 2.9-2.9h7.6c1.6 0 2.9 1.3 2.9 2.9v7.1c0 .6-.4 1-1 1zm-10.4-2h9.4v-6.1c0-.6-.5-.9-.9-.9h-7.6c-.4 0-.9.5-.9.9z"/></g><g><path d="m19.5 59.2h-7.5c-1.6 0-2.9-1.3-2.9-2.9v-7.1c0-.6.4-1 1-1h11.3c.6 0 1 .4 1 1v7.1c0 1.6-1.3 2.9-2.9 2.9zm-8.4-9v6.1c0 .6.5.9.9.9h7.5c.6 0 .9-.5.9-.9v-6.1z"/></g><g><path d="m55.9 32h-11.4c-.6 0-1-.4-1-1v-7.1c0-1.6 1.4-2.9 3-2.9h7.5c1.6 0 2.9 1.3 2.9 2.9v7.1c0 .6-.4 1-1 1zm-10.4-2h9.4v-6.1c0-.6-.5-.9-.9-.9h-7.5c-.6 0-1 .5-1 .9z"/></g><g><path d="m54 59.2h-7.6c-1.6 0-2.9-1.3-2.9-2.9v-7.1c0-.6.4-1 1-1h11.4c.6 0 1 .4 1 1v7.1c0 1.6-1.3 2.9-2.9 2.9zm-8.5-9v6.1c0 .6.5.9.9.9h7.6c.6 0 .9-.5.9-.9v-6.1z"/></g><g><path d="m40.2 37.4h-14.4c-.6 0-1-.4-1-1s.4-1 1-1h14.4c.6 0 1 .4 1 1s-.4 1-1 1z"/></g><g><path d="m40.2 44.8h-14.4c-.6 0-1-.4-1-1s.4-1 1-1h14.4c.6 0 1 .4 1 1s-.4 1-1 1z"/></g><g><path d="m33 37.4c-.6 0-1-.4-1-1v-4c0-.6.4-1 1-1s1 .4 1 1v4c0 .5-.4 1-1 1z"/></g><g><path d="m64 63.7h-62c-.6 0-1-.4-1-1s.4-1 1-1h62c.6 0 1 .4 1 1s-.4 1-1 1z"/></g></g></svg>