<svg id="Layer_1" height="512" viewBox="0 0 66 66" width="512" xmlns="http://www.w3.org/2000/svg"><g><g><path d="m33 5.4c-.6 0-1-.4-1-1v-2.4c0-.6.4-1 1-1s1 .4 1 1v2.4c0 .6-.4 1-1 1z"/></g><g><g><path d="m49.3 30.3c-.6 0-1-.4-1-1v-5h-30.6v5c0 .6-.4 1-1 1s-1-.4-1-1v-6c0-.6.4-1 1-1h32.6c.6 0 1 .4 1 1v6c0 .6-.5 1-1 1z"/></g><g><path d="m13.3 39.7h-7.6c-1.1 0-2-.4-2.6-1.1-.7-.7-1.1-1.7-1.1-2.7 0-2.1 1.7-3.8 3.8-3.8h14.6c.6 0 1 .4 1 1s-.4 1-1 1h-14.6c-1 0-1.8.8-1.8 1.8 0 .5.2 1 .5 1.3 0 0 .1.1.1.1.2.3.6.4 1.1.4h7.6c.6 0 1 .4 1 1s-.4 1-1 1z"/></g><g><path d="m60.3 39.8h-7.5c-.6 0-1-.4-1-1s.4-1 1-1h7.5c1 0 1.8-.8 1.8-1.8s-.8-1.8-1.8-1.8h-14.6c-.6 0-1-.4-1-1s.4-1 1-1h14.6c2.1 0 3.8 1.7 3.8 3.8 0 2.2-1.7 3.8-3.8 3.8z"/></g><g><path d="m60.2 65h-54.4c-.6 0-1-.4-1-1v-25.3c0-.6.4-1 1-1h7.5c.6 0 1 .4 1 1s-.4 1-1 1h-6.5v23.3h52.3v-23.3h-6.5c-.6 0-1-.4-1-1s.4-1 1-1h7.5c.6 0 1 .4 1 1v25.3c.1.6-.4 1-.9 1z"/></g><g><path d="m63 65h-60c-.6 0-1-.4-1-1s.4-1 1-1h60c.6 0 1 .4 1 1s-.5 1-1 1z"/></g><g><path d="m46.6 65h-4.7c-.6 0-1-.4-1-1v-21.2c0-.6.4-1 1-1h4.7c.6 0 1 .4 1 1v21.2c0 .6-.5 1-1 1zm-3.7-2h2.7v-19.2h-2.7z"/></g><g><path d="m24.1 65h-4.7c-.6 0-1-.4-1-1v-21.2c0-.6.4-1 1-1h4.7c.6 0 1 .4 1 1v21.2c0 .6-.4 1-1 1zm-3.7-2h2.7v-19.2h-2.7z"/></g><g><path d="m49.4 43.8h-32.8c-.8 0-1.4-.5-1.7-1.2-.3-.8 0-1.6.6-2.1l14.5-11.2c1.7-1.3 4.3-1.3 6 0l14.5 11.2c.6.5.9 1.3.7 2-.4.8-1.1 1.3-1.8 1.3zm-32.3-2h31.7l-14.1-10.9c-1-.8-2.5-.8-3.5 0z"/></g><g><path d="m49.4 43.8h-32.8c-.8 0-1.4-.5-1.7-1.2-.3-.8 0-1.6.6-2.1l14.5-11.2c1.7-1.3 4.3-1.3 6 0l14.5 11.2c.6.5.9 1.3.7 2-.4.8-1.1 1.3-1.8 1.3zm-32.3-2h31.7l-14.1-10.9c-1-.8-2.5-.8-3.5 0z"/></g><g><path d="m55.8 47.6h-4.1c-.6 0-1-.4-1-1s.4-1 1-1h4.1c.6 0 1 .4 1 1s-.5 1-1 1z"/></g><g><path d="m55.8 51.9h-4.1c-.6 0-1-.4-1-1s.4-1 1-1h4.1c.6 0 1 .4 1 1s-.5 1-1 1z"/></g><g><path d="m55.8 56.1h-4.1c-.6 0-1-.4-1-1s.4-1 1-1h4.1c.6 0 1 .4 1 1s-.5 1-1 1z"/></g><g><path d="m55.8 60.4h-4.1c-.6 0-1-.4-1-1s.4-1 1-1h4.1c.6 0 1 .4 1 1s-.5 1-1 1z"/></g><g><path d="m14.5 47.6h-4.2c-.6 0-1-.4-1-1s.4-1 1-1h4.2c.6 0 1 .4 1 1s-.4 1-1 1z"/></g><g><path d="m14.5 51.9h-4.2c-.6 0-1-.4-1-1s.4-1 1-1h4.2c.6 0 1 .4 1 1s-.4 1-1 1z"/></g><g><path d="m14.5 56.1h-4.2c-.6 0-1-.4-1-1s.4-1 1-1h4.2c.6 0 1 .4 1 1s-.4 1-1 1z"/></g><g><path d="m14.5 60.4h-4.2c-.6 0-1-.4-1-1s.4-1 1-1h4.2c.6 0 1 .4 1 1s-.4 1-1 1z"/></g><g><path d="m51.8 24.1h-37.5c-.6 0-1-.4-1-1 0-10.9 8.8-19.7 19.7-19.7 10.8 0 19.7 8.8 19.8 19.7 0 .3-.1.5-.3.7s-.5.3-.7.3zm-36.5-2h35.4c-.6-9.3-8.3-16.7-17.7-16.7s-17.1 7.4-17.7 16.7z"/></g><g><path d="m53.3 24.2h-40.6c-.6 0-1-.4-1-1s.4-1 1-1h40.6c.6 0 1 .4 1 1s-.5 1-1 1z"/></g><g><path d="m38 65h-10c-.6 0-1-.4-1-1v-8.4c0-3.3 2.7-6 6-6 1.6 0 3.2.7 4.3 1.8 1.1.9 1.7 2.5 1.7 4.2v8.4c0 .6-.5 1-1 1zm-9-2h8v-7.4c0-1.1-.4-2.2-1.1-2.8-.8-.8-1.9-1.2-2.9-1.2-2.2 0-4 1.8-4 4z"/></g></g></g></svg>