<svg height="512" viewBox="0 0 36 58" width="512" xmlns="http://www.w3.org/2000/svg"><g id="Page-1" fill="none" fill-rule="evenodd"><g id="004---Asparagus" fill-rule="nonzero" transform="translate(0 -1)"><path id="Shape" d="m15 28.07v10.18h-6v-7.25c.0167018-1.5004965-.79440274-2.8882157-2.11-3.61-1.75235831-.8901051-3.23126823-2.2377099-4.28-3.9-.16658874-.2809141-.18644176-.6252162-.05324568-.9234164s.40286318-.5131833.72324568-.5765836c.88-.17 1.68-.29 2.34-.37-1.91398947-.9528401-3.57061402-2.3522249-4.83-4.08-.19667747-.279205-.23726469-.6394754-.10763774-.9554411.12962694-.3159657.41154048-.5439282.74763774-.6045589.91-.15 1.78-.24 2.52-.29-1.56013266-1.4591831-2.76734307-3.2546094-3.53-5.25-.12277842-.2875335-.10221579-.61621277.05544201-.88620175.15765779-.26998897.43380351-.4494227.74455799-.48379825 1.17534032-.1051414 2.35991004-.02414518 3.51.24-.2230676-1.94402372.06652703-3.9125777.84-5.71.21300751-.49387295.78021126-.72873076 1.28-.53 1.12692077.45421874 2.15066254 1.13104469 3.01 1.99.4997399.49664707.9302801 1.05836748 1.28 1.67-.0635261.14446703-.0876774.30317591-.07.46.1607966 2.15992265.7995226 4.25713 1.87 6.14-.5661806-.1308008-1.1409739-.2210299-1.72-.27-.3157273-.0288705-.6264405.0936887-.8374403.3303241-.2109998.2366353-.2972858.5593088-.2325597.8696759.3820268 1.905652 1.3136907 3.6577363 2.68 5.04-.5350582-.1126965-1.0758599-.1961536-1.62-.25-.3140551-.0254838-.621753.0985398-.8303517.3346893-.2085988.2361495-.293698.5568019-.2296483.8653107.5079108 2.5058738 1.9483048 4.7254388 4.03 6.21.5147419.3749365.8194388.9731827.82 1.61z" fill="#4fba6f"/><path id="Shape" d="m32.05 15.69c.74.05 1.61.14 2.52.29.3360973.0606307.6180108.2885932.7476377.6045589.129627.3159657.0890398.6762361-.1076377.9554411-1.259386 1.7277751-2.9160105 3.1271599-4.83 4.08.66.08 1.46.2 2.34.37.3203825.0634003.5900496.2783834.7232457.5765836s.113343.6425023-.0532457.9234164c-1.0487318 1.6622901-2.5276417 3.0098949-4.28 3.9-1.3155973.7217843-2.1267018 2.1095035-2.11 3.61v7.25h-6v-10.18c.0005612-.6368173.3052581-1.2350635.82-1.61 2.0816952-1.4845612 3.5220892-3.7041262 4.03-6.21.0640497-.3085088-.0210495-.6291612-.2296483-.8653107-.2085987-.2361495-.5162966-.3601731-.8303517-.3346893-.5441401.0538464-1.0849418.1373035-1.62.25 1.3663093-1.3822637 2.2979732-3.134348 2.68-5.04.0647261-.3103671-.0215599-.6330406-.2325597-.8696759-.2109998-.2366354-.521713-.3591946-.8374403-.3303241-.5790261.0489701-1.1538194.1391992-1.72.27 1.0704774-1.88287 1.7092034-3.98007735 1.87-6.14.0176774-.15682409-.0064739-.31553297-.07-.46.3437791-.6098974.7712624-1.16865516 1.27-1.66.8627327-.86198727 1.889673-1.5420802 3.02-2 .4997887-.19873076 1.0669925.03612705 1.28.53.773473 1.7974223 1.0630676 3.76597628.84 5.71 1.15009-.26414518 2.3346597-.3451414 3.51-.24.3107545.03437555.5869002.21380928.744558.48379825.1576578.26998898.1782204.59866825.055442.88620175-.7626569 1.9953906-1.9698673 3.7908169-3.53 5.25z" fill="#4fba6f"/><path id="Shape" d="m15 28.07v9.93h-2v-9.93c-2.484133-1.7803335-4.20254-4.4347543-4.81-7.43-.17979094-.8841672.04790604-1.8023002.62-2.5.13400908-.1557377.28122316-.299606.44-.43-.49404416-.965688-.85082239-1.9956327-1.06-3.06-.18021128-.8888837.05138171-1.8115795.63-2.51.28073962-.34539.63638158-.6223803 1.04-.81-.39800432-1.2856186-.65944746-2.60959345-.78-3.95-.05214041-.49094187.02364961-.987022.22-1.44.11989519-.33084057.31107651-.63126835.56-.88.4997399.49664707.9302801 1.05836748 1.28 1.67-.0635261.14446703-.0876774.30317591-.07.46.1607966 2.15992265.7995226 4.25713 1.87 6.14-.5661806-.1308008-1.1409739-.2210299-1.72-.27-.3157273-.0288705-.6264405.0936887-.8374403.3303241-.2109998.2366353-.2972858.5593088-.2325597.8696759.3820268 1.905652 1.3136907 3.6577363 2.68 5.04-.5350582-.1126965-1.0758599-.1961536-1.62-.25-.3140551-.0254838-.621753.0985398-.8303517.3346893-.2085988.2361495-.293698.5568019-.2296483.8653107.5079108 2.5058738 1.9483048 4.7254388 4.03 6.21.5147419.3749365.8194388.9731827.82 1.61z" fill="#24ae5f"/><path id="Shape" d="m27.81 20.64c-.6095131 2.9996805-2.3314703 5.6576393-4.82 7.44l.01 9.92h-2v-9.93c.0005612-.6368173.3052581-1.2350635.82-1.61 2.0816952-1.4845612 3.5220892-3.7041262 4.03-6.21.0640497-.3085088-.0210495-.6291612-.2296483-.8653107-.2085987-.2361495-.5162966-.3601731-.8303517-.3346893-.5441401.0538464-1.0849418.1373035-1.62.25 1.3663093-1.3822637 2.2979732-3.134348 2.68-5.04.0647261-.3103671-.0215599-.6330406-.2325597-.8696759-.2109998-.2366354-.521713-.3591946-.8374403-.3303241-.5790261.0489701-1.1538194.1391992-1.72.27 1.0704774-1.88287 1.7092034-3.98007735 1.87-6.14.0176774-.15682409-.0064739-.31553297-.07-.46.3437791-.6098974.7712624-1.16865516 1.27-1.66.2612293.27358122.4652153.59655903.6.95.1834619.44936499.2455374.93907173.18 1.42-.1191466 1.32013802-.3772418 2.6240216-.77 3.89.4036184.1876197.7592604.46461 1.04.81.5786183.6984205.8102113 1.6211163.63 2.51-.2107159 1.0639512-.5674219 2.0936873-1.06 3.06.1587768.130394.3059909.2742623.44.43.572094.6976998.7997909 1.6158328.62 2.5z" fill="#24ae5f"/><g fill="#4fba6f"><path id="Shape" d="m25.85 20.25c-.5079108 2.5058738-1.9483048 4.7254388-4.03 6.21-.5147419.3749365-.8194388.9731827-.82 1.61v10.18h-6v-10.18c-.0005612-.6368173-.3052581-1.2350635-.82-1.61-2.0816952-1.4845612-3.5220892-3.7041262-4.03-6.21-.0640497-.3085088.0210495-.6291612.2296483-.8653107.2085987-.2361495.5162966-.3601731.8303517-.3346893.5441401.0538464 1.0849418.1373035 1.62.25-1.3663093-1.3822637-2.2979732-3.134348-2.68-5.04-.0647261-.3103671.0215599-.6330406.2325597-.8696759.2109998-.2366354.521713-.3591946.8374403-.3303241.5790261.0489701 1.1538194.1391992 1.72.27-1.0704774-1.88287-1.7092034-3.98007735-1.87-6.14-.0176774-.15682409.0064739-.31553297.07-.46.1556771-.43683224.6029385-.69843798 1.06-.62 1.0059927.18469459 1.9648322.56891043 2.82 1.13.0267953-2.17902796.8278866-4.27746175 2.26-5.92.1830902-.2051704.4450147-.32248541.72-.32248541s.5369098.11731501.72.32248541c1.4321134 1.64253825 2.2332047 3.74097204 2.26 5.92.8551678-.56108957 1.8140073-.94530541 2.82-1.13.4570615-.07843798.9043229.18316776 1.06.62.0635261.14446703.0876774.30317591.07.46-.1607966 2.15992265-.7995226 4.25713-1.87 6.14.5661806-.1308008 1.1409739-.2210299 1.72-.27.3157273-.0288705.6264405.0936887.8374403.3303241.2109998.2366353.2972858.5593088.2325597.8696759-.3820268 1.905652-1.3136907 3.6577363-2.68 5.04.5350582-.1126965 1.0758599-.1961536 1.62-.25.3140551-.0254838.621753.0985398.8303517.3346893.2085988.2361495.293698.5568019.2296483.8653107z"/><path id="Shape" d="m15 43.75v13.25c-.0032948 1.1032019-.8967981 1.9967052-2 2h-2c-1.10320187-.0032948-1.9967052-.8967981-2-2v-13.25z"/><path id="Shape" d="m27 43.75v13.25c-.0032948 1.1032019-.8967981 1.9967052-2 2h-2c-1.1032019-.0032948-1.9967052-.8967981-2-2v-13.25z"/><path id="Shape" d="m21 43.75v13.25c-.0032948 1.1032019-.8967981 1.9967052-2 2h-2c-1.1032019-.0032948-1.9967052-.8967981-2-2v-13.25z"/></g><rect id="Rectangle-path" fill="#7d6599" height="6" rx="1" width="22" x="7" y="38"/><path id="Shape" d="m15 44v13c-.0029536.9095785-.6192985 1.702609-1.5 1.93-.329666-.5897108-.5018653-1.2544003-.5-1.93v-13z" fill="#24ae5f"/><path id="Shape" d="m23 44v13c.0018653.6755997-.170334 1.3402892-.5 1.93-.8807015-.227391-1.4970464-1.0204215-1.5-1.93v-13z" fill="#24ae5f"/></g></g></svg>