<svg height="512" viewBox="0 0 50 58" width="512" xmlns="http://www.w3.org/2000/svg"><g id="Page-1" fill="none" fill-rule="evenodd"><g id="044---Lychee" fill-rule="nonzero" transform="translate(-1)"><path id="Shape" d="m28.03 52.99c.0518274 1.2638594.2259742 2.5197254.52 3.75.0810915.3011519.0170347.6228947-.1732159.8700243-.1902505.2471296-.4849084.3913461-.7967841.3899757h-3.16c-.3118757.0013704-.6065336-.1428461-.7967841-.3899757-.1902506-.2471296-.2543074-.5688724-.1732159-.8700243.2940258-1.2302746.4681726-2.4861406.52-3.75z" fill="#a56a43"/><path id="Shape" d="m49.12 30.14c-.463624.6159479-.5372842 1.4417176-.19 2.13l.56 1.12c.4981016 1.0025163.0910981 2.2190542-.91 2.72l-1.13.57c-.6853914.3431909-1.1187248 1.0434886-1.12 1.81v1.23c-.0003471.9322891-.6353645 1.7446165-1.54 1.97l-1.28.32c-.7601223.1916613-1.3431835.801932-1.5 1.57l-.51 2.56c-.1534401.7698294-.7379643 1.3816314-1.5 1.57l-1.91.48c-.5771712.1415145-1.0632885.5289464-1.33 1.06l-.92 1.84c-.4072934.8187281-1.3137972 1.2617254-2.21 1.08l-2.67-.53c-.568048-.112803-1.1572502.0217678-1.62.37l-1.31.98-.81.6c-.7203086.5501278-1.7196914.5501278-2.44 0l-.81-.6-1.31-.98c-.4627498-.3482322-1.051952-.482803-1.62-.37l-2.67.53c-.8962028.1817254-1.8027066-.2612719-2.21-1.08l-.92-1.84c-.2667115-.5310536-.7528288-.9184855-1.33-1.06l-1.91-.48c-.7620357-.1883686-1.3465599-.8001706-1.5-1.57l-.51-2.56c-.15681653-.768068-.73987772-1.3783387-1.5-1.57l-1.28-.32c-.90463554-.2253835-1.53965287-1.0377109-1.54-1.97v-1.23c-.00127524-.7665114-.43460864-1.4668091-1.12-1.81l-1.13-.57c-1.00109809-.5009458-1.40810159-1.7174837-.91-2.72l.56-1.12c.3472842-.6882824.27362398-1.5140521-.19-2.13l-1.47-1.97c-.50115698-.6568991-.548776-1.5537239-.12-2.26l2.71-3.91c1.29721486.5219263 2.63502707.9366481 4 1.24 5.9093773 1.3001358 11.9500764 1.9075617 18 1.81 6.0506172.1014549 12.0921561-.5094118 18-1.82 1.3658217-.2957474 2.7039867-.7072332 4-1.23l2.71 3.91c.428776.7062761.381157 1.6031009-.12 2.26z" fill="#ff5364"/><path id="Shape" d="m44 18v5.23c-5.9078439 1.3105882-11.9493828 1.9214549-18 1.82-6.0499236.0975617-12.0906227-.5098642-18-1.81v-5.24c0-9.9411255 8.0588745-18 18-18s18 8.0588745 18 18z" fill="#f9eab0"/><path id="Shape" d="m8 19v4.24c-1.36497293-.3033519-2.70278514-.7180737-4-1.24 0 0 1-3 4-3z" fill="#df4d60"/><path id="Shape" d="m48 22c-1.2960133.5227668-2.6341783.9342526-4 1.23v-4.23c3 0 4 3 4 3z" fill="#df4d60"/><g fill="#fff"><path id="Shape" d="m26 30c-13.013 0-19.065-1.968-19.316-2.052-.52467051-.1742458-.80874584-.7408295-.6345-1.2655s.74082949-.8087458 1.2655-.6345c.059.022 6.048 1.952 18.685 1.952s18.626-1.93 18.685-1.949c.5246705-.1742458 1.0912542.1098295 1.2655.6345s-.1098295 1.0912542-.6345 1.2655c-.251.081-6.303 2.049-19.316 2.049z"/><path id="Shape" d="m12 17c-.0732572-.0002807-.1462972-.0079867-.218-.023-.2590427-.057581-.4845768-.2157626-.6269356-.4397105-.1423589-.2239479-.1898678-.4952963-.1320644-.7542895 2.098-9.435 9.377-12.783 14.977-12.783.5522847 0 1 .44771525 1 1s-.4477153 1-1 1c-4.858 0-11.184 2.938-13.024 11.217-.1016879.4574415-.5073923.7829196-.976.783z"/></g></g></g></svg>