<svg height="512" viewBox="0 0 48 58" width="512" xmlns="http://www.w3.org/2000/svg"><g id="Page-1" fill="none" fill-rule="evenodd"><g id="042---Blackberry" fill-rule="nonzero"><path id="Shape" d="m37.19 11.28c1.97-3.8-.26-8.28-.26-8.28-4.52 0-7.11 1.62-8.5 3.02-.9346065-2.35412456-2.4603792-4.42752221-4.43-6.02-1.9696208 1.59247779-3.4953935 3.66587544-4.43 6.02-1.39-1.4-3.98-3.02-8.5-3.02 0 0-2.23 4.48-.26 8.28l3.52 2.96 9.67.45 9.67-.45z" fill="#24ae5f"/><path id="Shape" d="m42.29 33.99c2.2109236 1.4569482 3.2054327 4.1909079 2.4473396 6.7278699-.7580931 2.5369619-3.0895376 4.2770626-5.7373396 4.2821301-.1870748.0002482-.3740224-.0097669-.56-.03 2.1230614 2.398762 1.987345 6.0422237-.3082899 8.2763923-2.295635 2.2341685-5.9414377 2.2709746-8.2817101.0836077-.6221845 2.7300476-3.0499511 4.6667708-5.85 4.6667708s-5.2278155-1.9367232-5.85-4.6667708c-2.3402724 2.1873669-5.9860751 2.1505608-8.28171006-.0836077-2.29563491-2.2341686-2.43135136-5.8776303-.30828994-8.2763923-.18597761.0202331-.37292518.0302482-.56.03-2.647802-.0050675-4.9792465-1.7451682-5.73733958-4.2821301-.75809308-2.536962.23641601-5.2709217 2.44733958-6.7278699-3.17390438-.1834749-5.65373421-2.8107969-5.65373421-5.99s2.47982983-5.8065251 5.65373421-5.99c-2.10441496-1.3785703-3.12535095-3.9235811-2.55706665-6.3743098.56828429-2.4507287 2.60509833-4.2866968 5.10146504-4.5984204 2.49636671-.3117235 4.92211511.9670005 6.07560161 3.2027302 1.1376371-1.4147032 2.8546211-2.2382673 4.67-2.24.18 0 .35.01.53.02 1.8181471.1650222 3.4627674 1.1473793 4.47 2.67 1.0072326-1.5226207 2.6518529-2.5049778 4.47-2.67.18-.01.35-.02.53-.02 1.8153789.0017327 3.5323629.8252968 4.67 2.24 1.1534865-2.2357297 3.5792349-3.5144537 6.0756016-3.2027302 2.4963667.3117236 4.5331808 2.1476917 5.1014651 4.5984204s-.4526517 4.9957395-2.5570667 6.3743098c3.1739044.1834749 5.6537342 2.8107969 5.6537342 5.99s-2.4798298 5.8065251-5.6537342 5.99z" fill="#7d6599"/><path id="Shape" d="m28.47 12.02c-1.8181471.1650222-3.4627674 1.1473793-4.47 2.67-1.0072326-1.5226207-2.6518529-2.5049778-4.47-2.67-.7224041-1.9373211-.7081697-4.07248277.04-6 .9346065-2.35412456 2.4603792-4.42752221 4.43-6.02 1.9696208 1.59247779 3.4953935 3.66587544 4.43 6.02.7481697 1.92751723.7624041 4.0626789.04 6z" fill="#4fba6f"/><g fill="#5d4c72"><path id="Shape" d="m27.373 26.693c-1.1521935-.00799-2.2939727-.2188789-3.373-.623-2.7377812 1.1374516-5.8706874.7636561-8.264-.986-4.169.845-6.349-1.282-6.443-1.377-.37897221-.3923789-.37355237-1.0160848.01218142-1.4018186.3857338-.3857338 1.00943968-.3911536 1.40181858-.0121814.06.056 1.706 1.571 5.05.737.3408949-.0865821.7021654.0134328.95.263.1.1 2.636 2.5 6.921.778.2389073-.0949737.5050927-.0949737.744 0 4.285 1.714 6.819-.68 6.926-.783.2484263-.2449601.6065612-.3427367.945-.258 3.345.835 4.99-.681 5.059-.746.39621-.3807696 1.0254289-.3704984 1.409.023.3843778.3875169.3843778 1.0124831 0 1.4-.094.095-2.274 2.221-6.443 1.377-1.4123486 1.056164-3.1314635 1.6212418-4.895 1.609z"/><path id="Shape" d="m24 38c-2.976 0-4.539-1.007-5.293-1.762-6.19 2.648-9.474-1.593-9.507-1.638-.21435935-.2858125-.25995643-.6642734-.11961524-.9928203.14034118-.3285469.44529946-.5572656.8-.6s.70525584.1070078.91961524.3928203c.1.129 2.62 3.272 7.753.7.2373497-.1186659.5121326-.1381283.7638386-.0541012.251706.084027.4596935.2646527.5781614.5021012.022.042.866 1.452 4.105 1.452s4.083-1.41 4.118-1.471c.2636689-.467484.8433145-.6524123 1.329-.424 5.2 2.6 7.728-.671 7.753-.7.2143593-.2858125.5649147-.4355548.9196153-.3928204.3547005.0427345.6596588.2714532.8.6000001s.0947441.7070078-.1196153.9928203c-.033.045-3.319 4.291-9.507 1.638-.754.75-2.317 1.757-5.293 1.757z"/><path id="Shape" d="m27.373 47.693c-1.152146-.0084888-2.2938389-.2193618-3.373-.623-5.329 1.926-8.569-1.224-8.707-1.363-.3789722-.3923789-.3735524-1.0160848.0121814-1.4018186s1.0094397-.3911536 1.4018186-.0121814c.1.1 2.636 2.5 6.921.778.2389073-.0949737.5050927-.0949737.744 0 4.285 1.714 6.819-.68 6.926-.783.3936813-.3778234 1.017562-.3703091 1.402029.0168866.3844671.3871957.3875691 1.011114.006971 1.4021134-1.4675086 1.3050338-3.3703458 2.0135142-5.334 1.986z"/></g><path id="Shape" d="m7 18c-.55228475 0-1-.4477153-1-1-.02347369-.8026156.28505273-1.5793921.85283031-2.1471697.56777759-.5677776 1.34455411-.876304 2.14716969-.8528303.55228474-.0027614 1.0022385.4427153 1.005.995.0027614.5522847-.44271526 1.0022386-.995 1.005-.2739117-.0288437-.54630073.0668224-.74202295.2606068-.19572223.1937844-.29409386.4652081-.26797705.7393932 0 .5522847-.44771525 1-1 1z" fill="#fff"/><path id="Shape" d="m4 29c-.55228475 0-1-.4477153-1-1-.02347369-.8026156.28505273-1.5793921.85283031-2.1471697.56777759-.5677776 1.34455411-.876304 2.14716969-.8528303.55228475-.0027614 1.00223858.4427153 1.005.995s-.44271525 1.0022386-.995 1.005c-.2739117-.0288437-.54630073.0668224-.74202295.2606068-.19572223.1937844-.29409386.4652081-.26797705.7393932 0 .5522847-.44771525 1-1 1z" fill="#fff"/></g></g></svg>