<svg height="512" viewBox="0 0 54 58" width="512" xmlns="http://www.w3.org/2000/svg"><g id="Page-1" fill="none" fill-rule="evenodd"><g id="050---Potato" fill-rule="nonzero"><path id="Shape" d="m54 15c0-9-7-15-17-15s-17.889 2.667-22 15c-3 9-15 16-15 27s8 16 16 16 38-2 38-43z" fill="#e4c05c"/><g fill="#b19046"><circle id="Oval" cx="26" cy="44" r="4"/><circle id="Oval" cx="35" cy="12" r="3"/><circle id="Oval" cx="42" cy="26" r="1"/><circle id="Oval" cx="8" cy="46" r="1"/><circle id="Oval" cx="29" cy="26" r="1"/></g><circle id="Oval" cx="38" cy="34" fill="#cb8252" r="1"/><circle id="Oval" cx="17" cy="26" fill="#cb8252" r="1"/><circle id="Oval" cx="19" cy="52" fill="#cb8252" r="1"/><circle id="Oval" cx="26" cy="16" fill="#b19046" r="1"/><circle id="Oval" cx="13" cy="36" fill="#b19046" r="1"/><circle id="Oval" cx="39" cy="42" fill="#b19046" r="1"/><circle id="Oval" cx="47" cy="16" fill="#cb8252" r="1"/></g></g></svg>