<svg height="512" viewBox="0 0 58 58" width="512" xmlns="http://www.w3.org/2000/svg"><g id="Page-1" fill="none" fill-rule="evenodd"><g id="041---Star-Fruit" fill-rule="nonzero"><path id="Shape" d="m43.99 28.43c-.94-2.41-2.4-4.13-3.03-5.43-.62-1.26-.98-2-1.96-2s-1.34.74-1.96 2c-.64 1.31-2.12 3.05-3.06 5.51-.28-12.69-3.78-21.45-6.44-24.45-2.77-3.13-5.54 0-5.54 0v-.06s1-4 6-4c4.95 0 15.79 8.83 15.99 28.43z" fill="#e57e25"/><path id="Shape" d="m22 4v.06s-2.77-3.13-5.54 0-6.46 12.53-6.46 26.11 3.69 22.97 6.46 26.1c.6045886.7305567 1.4011681 1.2777722 2.3 1.58-.5804144.1069547-1.1698572.1571913-1.76.15-6 0-17-9-17-29s11-29 16-29 6 4 6 4z" fill="#f3d55b"/><path id="Shape" d="m20.1 34.56c-.34.94.22 1.54 1.18 2.56.23.25.47.54.72.86v19.34c-.9449167.6466174-2.127993.8407445-3.23.53h-.01c-.8988319-.3022278-1.6954114-.8494433-2.3-1.58-2.77-3.13-6.46-12.53-6.46-26.1s3.69-22.98 6.46-26.11c2.77-3.13 5.54 0 5.54 0v29.38c-1.01.14-1.62.33-1.9 1.12z" fill="#f0c419"/><path id="Shape" d="m27.12 54.99c-.0962828.5849402-.1164503 1.1798824-.06 1.77-1.3154542 1.4135776-3.4672792 1.6517242-5.06.56v-19.34c1.41 1.8 3.32 4.58 7.22 6.02-2.65 4.2-1.86 8.76-2.1 10.99z" fill="#f29c1f"/><path id="Shape" d="m33.98 28.51c-.5622944 1.4301491-.8506381 2.9532824-.85 4.49-4.59-1.7-8.35.1-10.52.36-.22.03-.42.05-.61.08v-29.38s2.77-3.13 5.54 0c2.66 3 6.16 11.76 6.44 24.45z" fill="#f29c1f"/><path id="Shape" d="m56.72 37.12c-1.51 1.62-3.34 5.18-7.94 6.88 2.65 4.2 1.86 8.76 2.1 10.99.15 1.4.24 2.22-.58 2.76s-1.51.13-2.7-.59c-1.89-1.14-5.95-1.96-8.6-6.16-2.65 4.2-6.71 5.02-8.6 6.16-1.19.72-1.87 1.14-2.7.59-.3529121-.2153717-.5884905-.5797822-.64-.99-.0564503-.5901176-.0362828-1.1850598.06-1.77.24-2.23-.55-6.79 2.1-10.99-3.9-1.44-5.81-4.22-7.22-6.02-.25-.32-.49-.61-.72-.86-.96-1.02-1.52-1.62-1.18-2.56.28-.79.89-.98 1.9-1.12.19-.03.39-.05.61-.08 2.17-.26 5.93-2.06 10.52-.36-.0006381-1.5367176.2877056-3.0598509.85-4.49.94-2.46 2.42-4.2 3.06-5.51.62-1.26.98-2 1.96-2s1.34.74 1.96 2c.63 1.3 2.09 3.02 3.03 5.43.5849474 1.4524335.8837569 3.0042055.88 4.57 4.59-1.7 8.35.1 10.52.36 1.38.17 2.18.26 2.51 1.2s-.22 1.54-1.18 2.56z" fill="#f3d55b"/><g fill="#f5efca"><path id="Shape" d="m43.97 39.756c-.0642346-.257441-.2281489-.4788001-.4556541-.6153407-.2275053-.1365407-.4999484-.177068-.7573459-.1126593l-2.757.689v-2.717c0-.5522847-.4477153-1-1-1s-1 .4477153-1 1v2.719l-2.757-.689c-.5339666-.1297214-1.072566.1957027-1.2060974.7287292-.1335314.5330266.1880381 1.0739362.7200974 1.2112708l2.54.635-2.1 2.8c-.3313708.4418278-.2418278 1.0686292.2 1.4s1.0686292.2418278 1.4-.2l2.203-2.94 2.2 2.935c.3313708.4418278.9581722.5313708 1.4.2s.5313708-.9581722.2-1.4l-2.1-2.8 2.54-.635c.5349604-.1329229.861473-.6736814.73-1.209z"/><path id="Shape" d="m4 30c-.55228475 0-1-.4477153-1-1 .0964655-5.2744753 1.14005254-10.4886846 3.081-15.394.22257052-.4993742.80493118-.7274312 1.30742579-.5119982.50249461.2154329.73882584.7944852.53057421 1.2999982-1.82208041 4.6597948-2.81014057 9.603819-2.919 14.606 0 .5522847-.44771525 1-1 1z"/><circle id="Oval" cx="4" cy="33" r="1"/></g></g></g></svg>