<svg enable-background="new 0 0 256 256" height="512" viewBox="0 0 256 256" width="512" xmlns="http://www.w3.org/2000/svg"><g id="Layer_60"><g><g><path d="m128 33.651c-.671 0-1.341-.256-1.853-.767l-4.434-4.434c-17.17-17.17-45.6-17.498-62.438-.002-16.252 16.886-16.116 43.708.397 60.435h68.328z" fill="#6cadef"/></g><g><path d="m196.725 28.447c-16.838-17.495-45.268-17.168-62.438.002l-4.434 4.434c-.512.511-1.182.767-1.853.767v55.23h-68.328c.066.067.127.137.194.204l58.542 58.542c.352-.079.716-.128 1.092-.128h17c.376 0 .739.049 1.092.128l58.542-58.542c16.712-16.71 16.909-43.683.591-60.637z" fill="#dae6f1"/></g><g><path d="m146.182 167.129-9.634-9.634c-.016 0-.031.005-.048.005h-17c-.016 0-.031-.005-.048-.005l-9.634 9.634c-1.037 1.037-.687 2.814.678 3.349 5.424 2.125 11.326 3.297 17.503 3.297s12.079-1.172 17.503-3.297c1.367-.535 1.717-2.312.68-3.349z" fill="#fc657e"/></g><g><path d="m181.651 103.568h-107.302l14.686 14.686h77.93z" fill="#fc657e"/></g><g><path d="m128 59.508h80.794c.119-4.958-.602-9.931-2.176-14.687h-78.618z" fill="#fc657e"/></g><g><path d="m128 74.195v14.687h68.328c4.279-4.334 7.451-9.346 9.53-14.687z" fill="#fc657e"/></g><g><path d="m134.287 28.449-1.686 1.686h65.663c-.496-.573-1.008-1.136-1.539-1.688-16.838-17.495-45.268-17.168-62.438.002z" fill="#fc657e"/></g><g><path d="m103.722 132.941 14.687 14.687c.352-.079.716-.128 1.092-.128h17c.376 0 .739.049 1.092.128l14.687-14.687z" fill="#fc657e"/></g><g><g><path d="m136.5 157.5h-17c-2.762 0-5-2.238-5-5s2.238-5 5-5h17c2.762 0 5 2.238 5 5s-2.238 5-5 5z" fill="#dae6f1"/></g></g><g><path d="m56.35 6.175c-3.1-.6-5.6-3-6.2-6.1 0-.1-.3-.1-.3 0-.6 3.1-3.1 5.5-6.2 6.1-.1 0-.1.2 0 .3 3.1.6 5.6 3 6.2 6.1 0 .1.3.1.3 0 .6-3.1 3.1-5.5 6.2-6.1.1-.1.1-.3 0-.3z" fill="#fc657e"/></g><g><path d="m184.9 150.9h2.3v2.3c0 1.8 1.4 3.2 3.2 3.2 1.7 0 3.2-1.4 3.2-3.1v-.1-2.3h2.3c1.8 0 3.2-1.4 3.2-3.2 0-1.7-1.4-3.2-3.1-3.2h-.1-2.3v-2.3c0-1.8-1.4-3.2-3.2-3.2-1.7 0-3.2 1.4-3.2 3.1v.1 2.3h-2.3c-1.8 0-3.2 1.4-3.2 3.2-.1 1.7 1.3 3.2 3.2 3.2-.1 0-.1 0 0 0z" fill="#70d6f9"/></g><g><circle cx="206.3" cy="116.9" fill="#f5c84c" r="3.4"/></g><g><circle cx="104.3" cy="252.6" fill="#87d147" r="3.4"/></g><g><path d="m73.7 225.2c4.5-.8 8-4.3 8.9-8.7 0-.2.4-.2.4 0 .9 4.4 4.4 7.9 8.9 8.7.2 0 .2.3 0 .4-4.5.8-8 4.3-8.9 8.7 0 .2-.4.2-.4 0-.9-4.4-4.4-7.9-8.9-8.7-.2-.1-.2-.4 0-.4z" fill="#f5c84c"/></g><g><path d="m59.672 91.381c-.646 0-1.29-.248-1.779-.743-8.443-8.553-13.133-19.881-13.206-31.899-.073-12.009 4.468-23.382 12.788-32.025 8.427-8.757 19.892-13.645 32.281-13.764.148-.001.297-.002.444-.002 12.431 0 24.538 4.99 33.28 13.733l4.435 4.435c1.381 0 2.543 1.137 2.543 2.517 0 1.381-1.077 2.518-2.458 2.518-1.366 0-2.651-.531-3.618-1.497l-4.437-4.437c-7.904-7.903-18.919-12.388-30.142-12.267-11.036.105-21.238 4.449-28.727 12.23-15.459 16.061-15.295 41.073.374 56.943.97.983.96 2.565-.022 3.536-.487.482-1.121.722-1.756.722z"/></g><g><path d="m74.273 43.166c-.64 0-1.279-.244-1.768-.732l-4.52-4.52c-.977-.977-.977-2.559 0-3.535s2.559-.977 3.535 0l4.52 4.52c.977.977.977 2.559 0 3.535-.487.488-1.127.732-1.767.732z"/></g><g><path d="m69.754 43.166c-.64 0-1.279-.244-1.768-.732-.977-.977-.977-2.559 0-3.535l4.52-4.52c.977-.977 2.559-.977 3.535 0s.977 2.559 0 3.535l-4.52 4.52c-.488.488-1.127.732-1.767.732z"/></g><g><path d="m94.382 43.166c-.64 0-1.279-.244-1.768-.732l-4.52-4.52c-.977-.977-.977-2.559 0-3.535s2.559-.977 3.535 0l4.52 4.52c.977.977.977 2.559 0 3.535-.488.488-1.128.732-1.767.732z"/></g><g><path d="m89.862 43.166c-.64 0-1.279-.244-1.768-.732-.977-.977-.977-2.559 0-3.535l4.52-4.52c.977-.977 2.559-.977 3.535 0s.977 2.559 0 3.535l-4.52 4.52c-.487.488-1.127.732-1.767.732z"/></g><g><path d="m114.489 43.166c-.64 0-1.279-.244-1.768-.732l-4.52-4.52c-.977-.977-.977-2.559 0-3.535s2.559-.977 3.535 0l4.52 4.52c.977.977.977 2.559 0 3.535-.487.488-1.127.732-1.767.732z"/></g><g><path d="m109.97 43.166c-.64 0-1.279-.244-1.768-.732-.977-.977-.977-2.559 0-3.535l4.52-4.52c.977-.977 2.559-.977 3.535 0s.977 2.559 0 3.535l-4.52 4.52c-.488.488-1.128.732-1.767.732z"/></g><g><path d="m74.273 77.032c-.64 0-1.279-.244-1.768-.732l-4.52-4.52c-.977-.977-.977-2.559 0-3.535s2.559-.977 3.535 0l4.52 4.52c.977.977.977 2.559 0 3.535-.487.488-1.127.732-1.767.732z"/></g><g><path d="m69.754 77.032c-.64 0-1.279-.244-1.768-.732-.977-.977-.977-2.559 0-3.535l4.52-4.52c.977-.977 2.559-.977 3.535 0s.977 2.559 0 3.535l-4.52 4.52c-.488.488-1.127.732-1.767.732z"/></g><g><path d="m94.382 77.032c-.64 0-1.279-.244-1.768-.732l-4.52-4.52c-.977-.977-.977-2.559 0-3.535s2.559-.977 3.535 0l4.52 4.52c.977.977.977 2.559 0 3.535-.488.488-1.128.732-1.767.732z"/></g><g><path d="m89.862 77.032c-.64 0-1.279-.244-1.768-.732-.977-.977-.977-2.559 0-3.535l4.52-4.52c.977-.977 2.559-.977 3.535 0s.977 2.559 0 3.535l-4.52 4.52c-.487.488-1.127.732-1.767.732z"/></g><g><path d="m114.489 77.032c-.64 0-1.279-.244-1.768-.732l-4.52-4.52c-.977-.977-.977-2.559 0-3.535s2.559-.977 3.535 0l4.52 4.52c.977.977.977 2.559 0 3.535-.487.488-1.127.732-1.767.732z"/></g><g><path d="m109.97 77.032c-.64 0-1.279-.244-1.768-.732-.977-.977-.977-2.559 0-3.535l4.52-4.52c.977-.977 2.559-.977 3.535 0s.977 2.559 0 3.535l-4.52 4.52c-.488.488-1.128.732-1.767.732z"/></g><g><path d="m64.22 60.099c-.64 0-1.279-.244-1.768-.732l-4.52-4.52c-.977-.977-.977-2.559 0-3.535s2.559-.977 3.535 0l4.52 4.52c.977.977.977 2.559 0 3.535-.488.487-1.128.732-1.767.732z"/></g><g><path d="m59.7 60.099c-.64 0-1.279-.244-1.768-.732-.977-.977-.977-2.559 0-3.535l4.52-4.52c.977-.977 2.559-.977 3.535 0s.977 2.559 0 3.535l-4.52 4.52c-.488.487-1.127.732-1.767.732z"/></g><g><path d="m104.436 60.099c-.64 0-1.279-.244-1.768-.732l-4.52-4.52c-.977-.977-.977-2.559 0-3.535s2.559-.977 3.535 0l4.52 4.52c.977.977.977 2.559 0 3.535-.488.487-1.128.732-1.767.732z"/></g><g><path d="m99.916 60.099c-.64 0-1.279-.244-1.768-.732-.977-.977-.977-2.559 0-3.535l4.52-4.52c.977-.977 2.559-.977 3.535 0s.977 2.559 0 3.535l-4.52 4.52c-.488.487-1.127.732-1.767.732z"/></g><g><path d="m84.327 60.099c-.64 0-1.279-.244-1.768-.732l-4.52-4.52c-.977-.977-.977-2.559 0-3.535s2.559-.977 3.535 0l4.52 4.52c.977.977.977 2.559 0 3.535-.488.487-1.127.732-1.767.732z"/></g><g><path d="m79.808 60.099c-.64 0-1.279-.244-1.768-.732-.977-.977-.977-2.559 0-3.535l4.52-4.52c.977-.977 2.559-.977 3.535 0s.977 2.559 0 3.535l-4.52 4.52c-.488.487-1.128.732-1.767.732z"/></g><g><path d="m137.719 150c-.64 0-1.279-.244-1.768-.732-.977-.977-.977-2.559 0-3.535l58.415-58.414c15.608-15.609 15.858-41.241.558-57.138-7.489-7.781-17.691-12.125-28.728-12.23-.133-.001-.266-.002-.397-.002-11.113 0-21.934 4.458-29.744 12.269l-4.435 4.435c-.338.338-.715.622-1.12.85v53.38c0 1.381-1.119 2.5-2.5 2.5h-62.301l54.084 54.086c.977.977.977 2.559 0 3.535s-2.559.977-3.535 0l-58.31-58.319c-.708-.718-.938-1.815-.549-2.745.39-.93 1.275-1.56 2.283-1.56h65.828v-52.73c0-1.381 1.119-2.5 2.5-2.5l4.52-4.469c8.847-8.847 21.17-13.818 33.725-13.731 12.39.119 23.854 5.007 32.282 13.764 17.176 17.845 16.896 46.618-.625 64.14l-58.415 58.414c-.489.488-1.129.732-1.768.732z"/></g><g><path d="m128 176.275c-6.344 0-12.539-1.167-18.416-3.469-1.422-.558-2.458-1.786-2.771-3.287-.315-1.513.146-3.067 1.238-4.158l9.03-9.03c.977-.977 2.559-.977 3.535 0s.977 2.559 0 3.535l-8.54 8.54c5.094 1.904 10.447 2.869 15.924 2.869s10.83-.965 15.924-2.869l-8.289-8.289c-.977-.977-.977-2.559 0-3.535s2.559-.977 3.535 0l8.779 8.779c1.092 1.091 1.554 2.646 1.238 4.158-.313 1.501-1.35 2.729-2.771 3.286-5.877 2.303-12.072 3.47-18.416 3.47z"/></g><g><g><path d="m166.375 120.754h-76.906c-1.381 0-2.5-1.119-2.5-2.5s1.119-2.5 2.5-2.5h76.906c1.381 0 2.5 1.119 2.5 2.5s-1.119 2.5-2.5 2.5z"/></g><g><path d="m181.156 106.068h-106.406c-1.381 0-2.5-1.119-2.5-2.5s1.119-2.5 2.5-2.5h106.406c1.381 0 2.5 1.119 2.5 2.5s-1.119 2.5-2.5 2.5z"/></g><g><path d="m206.22 47.321h-77.595c-1.381 0-2.5-1.119-2.5-2.5s1.119-2.5 2.5-2.5h77.595c1.381 0 2.5 1.119 2.5 2.5s-1.119 2.5-2.5 2.5z"/></g><g><path d="m208.281 62.008h-79.573c-1.381 0-2.5-1.119-2.5-2.5s1.119-2.5 2.5-2.5h79.573c1.381 0 2.5 1.119 2.5 2.5s-1.119 2.5-2.5 2.5z"/></g><g><path d="m205.406 76.694h-76.751c-1.381 0-2.5-1.119-2.5-2.5s1.119-2.5 2.5-2.5h76.751c1.381 0 2.5 1.119 2.5 2.5s-1.119 2.5-2.5 2.5z"/></g><g><path d="m195.655 91.381h-67.655c-1.381 0-2.5-1.119-2.5-2.5s1.119-2.5 2.5-2.5h67.655c1.381 0 2.5 1.119 2.5 2.5s-1.119 2.5-2.5 2.5z"/></g><g><path d="m197.938 32.635h-65.031c-1.381 0-2.5-1.119-2.5-2.5s1.119-2.5 2.5-2.5h65.031c1.381 0 2.5 1.119 2.5 2.5s-1.12 2.5-2.5 2.5z"/></g></g><g><path d="m151.844 135.441h-47.511c-1.381 0-2.5-1.119-2.5-2.5s1.119-2.5 2.5-2.5h47.511c1.381 0 2.5 1.119 2.5 2.5s-1.119 2.5-2.5 2.5z"/></g><g><g><path d="m136.5 160h-17c-4.136 0-7.5-3.364-7.5-7.5s3.364-7.5 7.5-7.5h17c4.136 0 7.5 3.364 7.5 7.5s-3.364 7.5-7.5 7.5zm-17-10c-1.379 0-2.5 1.121-2.5 2.5s1.121 2.5 2.5 2.5h17c1.379 0 2.5-1.121 2.5-2.5s-1.121-2.5-2.5-2.5z"/></g></g><g><path d="m128 247c-1.381 0-2.5-1.119-2.5-2.5v-70c0-1.381 1.119-2.5 2.5-2.5s2.5 1.119 2.5 2.5v70c0 1.381-1.119 2.5-2.5 2.5z"/></g></g></g></svg>