<svg enable-background="new 0 0 256 256" height="512" viewBox="0 0 256 256" width="512" xmlns="http://www.w3.org/2000/svg"><g id="Layer_1"><g><g><path d="m47.905 88.768h8.795c1.95 0 3.575 1.324 4.069 3.117h75.837c-.685-2.105-1.403-4.176-2.163-6.196-2.556-6.802-9.046-11.318-16.313-11.318h-79.015c-7.267 0-13.756 4.516-16.313 11.318-.759 2.02-1.477 4.09-2.163 6.196h23.196c.495-1.793 2.12-3.117 4.07-3.117z" fill="#fc657e"/></g><g><path d="m139.775 102.692c-.135.01-.265.041-.403.041h-78.602c-.4 1.453-1.549 2.584-3.005 2.966v16.317c0 .754-.158 1.473-.439 2.127.804.18 1.636.286 2.495.286 2.929 0 5.599-1.107 7.616-2.924 1.031-.929 2.54-.929 3.571 0 2.017 1.817 4.687 2.924 7.616 2.924s5.599-1.107 7.616-2.924c1.031-.928 2.54-.928 3.571 0 2.017 1.817 4.687 2.924 7.616 2.924s5.599-1.107 7.616-2.924c1.031-.929 2.54-.929 3.571 0 2.017 1.817 4.687 2.924 7.616 2.924s5.599-1.107 7.616-2.924c1.03-.928 2.539-.931 3.568-.003 2.345 2.114 5.573 3.268 9.066 2.837 5.009-.617 9.105-4.62 9.822-9.615.761-5.299-2.135-10.015-6.527-12.032z" fill="#fc657e"/></g><g><path d="m46.917 122.016v-16.297c-1.493-.362-2.674-1.508-3.081-2.986h-25.961c-.138 0-.268-.031-.403-.041-4.392 2.017-7.288 6.733-6.527 12.032.717 4.995 4.813 8.998 9.822 9.615 3.493.431 6.721-.723 9.066-2.837 1.029-.928 2.538-.925 3.568.003 2.017 1.817 4.687 2.924 7.616 2.924 2.191 0 4.237-.62 5.973-1.693-.032-.238-.073-.473-.073-.72z" fill="#fc657e"/></g><g><path d="m47.905 105.85h8.795c2.341 0 4.238-1.898 4.238-4.238v-8.606c0-2.341-1.898-4.238-4.238-4.238h-8.795c-2.341 0-4.238 1.898-4.238 4.238v8.606c0 2.341 1.897 4.238 4.238 4.238z" fill="#dae6f1"/></g><g><path d="m43.667 101.612v-8.606c0-.391.07-.762.169-1.121h-25.961c-2.983 0-5.424 2.441-5.424 5.424s2.441 5.424 5.424 5.424h25.961c-.099-.359-.169-.73-.169-1.121z" fill="#edf4fc"/></g><g><path d="m139.372 91.885h-78.602c.099.359.169.73.169 1.121v8.606c0 .391-.07.762-.169 1.121h78.602c2.983 0 5.424-2.441 5.424-5.424s-2.441-5.424-5.424-5.424z" fill="#edf4fc"/></g><g><path d="m56.701 105.85h-8.795c-.342 0-.67-.051-.988-.128v16.294c0 2.983 2.441 5.424 5.424 5.424s5.424-2.441 5.424-5.424v-16.317c-.343.089-.696.151-1.065.151z" fill="#c7d7e5"/></g><g><path d="m68.799 102.733h-8.029c-.4 1.453-1.549 2.584-3.005 2.966v4.514c.614 2.432 2.809 4.253 5.424 4.253 3.086 0 5.61-2.525 5.61-5.61z" fill="#c7d7e5"/></g><g><path d="m173.486 174.164c-3.165-.816-6.414-.68-9.578.264-5.891 1.757-12.243 1.757-18.135 0-3.164-.944-6.413-1.08-9.578-.264-12.588 3.245-19.071 20.311-14.48 38.118s18.516 29.612 31.103 26.367c.007-.002.014-.004.021-.005 1.318-.342 2.683-.342 4.002 0 .007.002.014.004.021.005 12.588 3.245 26.513-8.56 31.103-26.367 4.592-17.808-1.891-34.874-14.479-38.118z" fill="#b2e26d"/></g><g><path d="m166.644 152.274c-.215-.958-1.046-1.689-2.024-1.778-3.272-.299-6.636.912-8.97 3.57-2.335 2.658-3.102 6.15-2.383 9.356.215.958 1.046 1.689 2.024 1.778 3.272.299 6.636-.912 8.97-3.57s3.102-6.15 2.383-9.356z" fill="#87d147"/></g><g><path d="m210.138 152.274c-.215-.958-1.046-1.689-2.024-1.778-3.272-.299-6.636.912-8.97 3.57-2.335 2.658-3.102 6.15-2.383 9.356.215.958 1.046 1.689 2.024 1.778 3.272.299 6.636-.912 8.97-3.57s3.101-6.15 2.383-9.356z" fill="#87d147"/></g><g><path d="m127.074 224.896c-2.299-3.684-4.152-7.94-5.358-12.615-4.59-17.807 1.893-34.873 14.48-38.118 2.267-.584 4.576-.672 6.867-.333 1.271-8.945 1.986-18.732 1.817-29.294h.042c-.107-8.09-.688-15.978-1.732-23.565-1.763 1.81-4.112 3.048-6.712 3.369-3.493.431-6.721-.723-9.066-2.837-1.029-.928-2.538-.925-3.568.003-2.017 1.817-4.687 2.924-7.616 2.924s-5.599-1.107-7.616-2.924c-1.031-.929-2.54-.929-3.571 0-2.017 1.817-4.687 2.924-7.616 2.924s-5.599-1.107-7.616-2.924c-1.031-.929-2.54-.929-3.571 0-2.017 1.817-4.687 2.924-7.616 2.924s-5.599-1.107-7.616-2.924c-1.031-.928-2.54-.928-3.571 0-2.017 1.817-4.687 2.924-7.616 2.924-.859 0-1.691-.105-2.495-.286-.831 1.933-2.756 3.297-4.984 3.297-2.737 0-4.993-2.061-5.351-4.704-1.736 1.073-3.782 1.693-5.973 1.693-2.929 0-5.599-1.107-7.616-2.924-1.03-.928-2.539-.931-3.568-.003-2.345 2.114-5.573 3.268-9.066 2.837-2.6-.32-4.949-1.558-6.712-3.369-1.155 8.396-1.776 17.146-1.776 26.149 0 33.381 8.397 63.386 21.761 84.187 3.176 4.944 8.697 7.878 14.573 7.878h59.977.044c4.75 0 9.517-2.061 12.718-5.5-.003-.014-.004-.028-.006-.042 1.248-1.35 3.32-4.323 5.729-8.747z" fill="#a57453"/></g><g><path d="m216.979 174.163c-3.165-.816-6.414-.68-9.578.264-5.891 1.757-12.243 1.757-18.135 0-3.164-.944-6.413-1.08-9.578-.264-1.081.279-2.114.666-3.102 1.141 10.514 5.048 15.575 20.699 11.379 36.977-2.133 8.275-6.284 15.251-11.379 20.026 5.868 5.499 12.987 8.078 19.725 6.341.007-.002.014-.004.021-.005 1.318-.342 2.683-.342 4.002 0 .007.002.014.004.021.005 12.588 3.245 26.513-8.56 31.103-26.367 4.592-17.807-1.891-34.873-14.479-38.118z" fill="#fc657e"/></g><g><path d="m159.799 18.683-26.808 26.808c-2.49 2.49-2.49 6.566 0 9.056s6.616 2.541 9.106.05l26.808-26.808c2.49-2.49 2.44-6.616-.05-9.106-2.491-2.49-6.566-2.49-9.056 0z" fill="#a57453"/></g><g><path d="m171.958 24.737-32.913 32.913c-2.49 2.49-2.44 6.616.05 9.106s6.616 2.541 9.106.05l32.913-32.913c2.49-2.49 2.44-6.616-.05-9.106s-6.616-2.54-9.106-.05z" fill="#c18e6b"/></g><g><path d="m181.114 33.894-32.913 32.913c-2.49 2.49-2.44 6.616.05 9.106s6.616 2.541 9.106.05l32.913-32.913c2.49-2.49 2.44-6.616-.05-9.106-2.49-2.49-6.615-2.54-9.106-.05z" fill="#a57453"/></g><g><path d="m187.219 46.103-26.808 26.808c-2.49 2.49-2.44 6.616.05 9.106s6.566 2.49 9.056 0l26.808-26.808c2.49-2.49 2.49-6.566 0-9.056s-6.616-2.54-9.106-.05z" fill="#c18e6b"/></g><g><path d="m187.592 63.943-9.342 9.342 48.823 53.931c3.87 4.6 10.848 4.9 15.099.65 4.251-4.251 3.95-11.229-.65-15.099z" fill="#a57453"/></g><g><g><path d="m156.677 21.805c-5.753-3.634-13.582-2.887-18.575 2.106s-5.653 12.735-1.995 18.464z" fill="#c18e6b"/></g></g><g><path d="m12.775 223.2c-3.1-.6-5.6-3-6.2-6.1 0-.1-.3-.1-.3 0-.6 3.1-3.1 5.5-6.2 6.1-.1 0-.1.2 0 .3 3.1.6 5.6 3 6.2 6.1 0 .1.3.1.3 0 .6-3.1 3.1-5.5 6.2-6.1.1-.1.1-.3 0-.3z" fill="#87d147"/></g><g><path d="m84.919 44.9h2.3v2.3c0 1.8 1.4 3.2 3.2 3.2 1.7 0 3.2-1.4 3.2-3.1v-.1-2.3h2.3c1.8 0 3.2-1.4 3.2-3.2 0-1.7-1.4-3.2-3.1-3.2h-.1-2.3v-2.3c0-1.8-1.4-3.2-3.2-3.2-1.7 0-3.2 1.4-3.2 3.1v.1 2.3h-2.3c-1.8 0-3.2 1.4-3.2 3.2-.1 1.7 1.3 3.2 3.2 3.2-.1 0-.1 0 0 0z" fill="#70d6f9"/></g><g><circle cx="115.319" cy="18.9" fill="#f5c84c" r="3.4"/></g><g><circle cx="252.6" cy="183.4" fill="#fc657e" r="3.4"/></g><g><path d="m224.719 156.85c4.5-.8 8-4.3 8.9-8.7 0-.2.4-.2.4 0 .9 4.4 4.4 7.9 8.9 8.7.2 0 .2.3 0 .4-4.5.8-8 4.3-8.9 8.7 0 .2-.4.2-.4 0-.9-4.4-4.4-7.9-8.9-8.7-.2-.1-.2-.4 0-.4z" fill="#f5c84c"/></g><g><path d="m20.836 93.787c-.26 0-.523-.041-.783-.126-1.311-.433-2.024-1.846-1.592-3.157.659-2 1.333-3.916 2-5.694 2.909-7.739 10.405-12.938 18.653-12.938h79.017c8.249 0 15.745 5.2 18.653 12.938.663 1.764 1.333 3.668 1.989 5.66.433 1.312-.28 2.725-1.591 3.157-1.312.434-2.725-.279-3.157-1.591-.636-1.927-1.282-3.766-1.921-5.467-2.18-5.801-7.795-9.698-13.973-9.698h-79.016c-6.178 0-11.793 3.897-13.973 9.697-.644 1.714-1.294 3.565-1.932 5.5-.346 1.052-1.324 1.719-2.374 1.719z"/></g><g><path d="m116.23 126.929c-3.437 0-6.736-1.267-9.29-3.567-.079-.072-.144-.072-.224 0-2.555 2.301-5.854 3.567-9.29 3.567s-6.735-1.267-9.289-3.566c-.08-.072-.145-.072-.225 0-2.554 2.3-5.854 3.567-9.29 3.567s-6.735-1.267-9.289-3.566c-.08-.072-.145-.072-.225 0-3.167 2.852-7.437 4.144-11.804 3.329-1.357-.253-2.252-1.56-1.999-2.917.254-1.357 1.558-2.252 2.917-1.999.543.102 1.08.153 1.596.153 2.198 0 4.309-.811 5.943-2.282 1.971-1.776 4.946-1.775 6.917 0 1.634 1.471 3.745 2.282 5.943 2.282s4.309-.811 5.943-2.282c1.971-1.776 4.946-1.775 6.917 0 1.634 1.471 3.745 2.282 5.943 2.282s4.309-.811 5.943-2.282c1.971-1.777 4.945-1.776 6.917 0 1.633 1.471 3.744 2.282 5.943 2.282s4.309-.811 5.942-2.282c1.973-1.777 4.945-1.778 6.916-.002 1.941 1.75 4.454 2.535 7.086 2.212 3.88-.478 7.098-3.627 7.653-7.489.548-3.814-1.29-7.426-4.682-9.202-1.224-.64-1.696-2.151-1.056-3.374.64-1.224 2.151-1.696 3.374-1.056 5.214 2.729 8.153 8.493 7.313 14.342-.883 6.152-5.814 10.98-11.991 11.741-4.026.496-8.054-.765-11.045-3.461-.077-.07-.141-.069-.221.003-2.551 2.301-5.849 3.567-9.286 3.567z"/></g><g><path d="m41.017 126.929c-3.437 0-6.735-1.267-9.289-3.567-.08-.071-.144-.072-.221-.003-2.991 2.696-7.016 3.956-11.046 3.461-6.176-.761-11.107-5.589-11.99-11.741-.854-5.953 2.166-11.758 7.517-14.448 1.232-.619 2.737-.123 3.356 1.111.62 1.233.123 2.736-1.111 3.356-3.427 1.723-5.362 5.447-4.813 9.269.555 3.862 3.773 7.011 7.653 7.489 2.629.325 5.144-.462 7.086-2.212 1.969-1.775 4.942-1.775 6.916.002 1.633 1.471 3.744 2.282 5.942 2.282 1.476 0 2.938-.37 4.227-1.069 1.214-.659 2.731-.208 3.39 1.005s.209 2.731-1.005 3.39c-2.019 1.096-4.305 1.675-6.612 1.675z"/></g><g><path d="m56.701 108.351h-8.795c-3.715 0-6.738-3.023-6.738-6.738v-8.606c0-3.715 3.023-6.738 6.738-6.738h8.795c3.715 0 6.738 3.023 6.738 6.738v8.606c0 3.715-3.023 6.738-6.738 6.738zm-8.796-17.083c-.958 0-1.738.78-1.738 1.738v8.606c0 .958.78 1.738 1.738 1.738h8.795c.958 0 1.738-.78 1.738-1.738v-8.606c0-.958-.78-1.738-1.738-1.738z"/></g><g><path d="m43.083 105.233h-25.208c-4.369 0-7.924-3.555-7.924-7.924s3.555-7.924 7.924-7.924h25.208c1.381 0 2.5 1.119 2.5 2.5s-1.119 2.5-2.5 2.5h-25.208c-1.612 0-2.924 1.312-2.924 2.924s1.312 2.924 2.924 2.924h25.208c1.381 0 2.5 1.119 2.5 2.5s-1.119 2.5-2.5 2.5z"/></g><g><path d="m139.372 105.233h-78.018c-1.381 0-2.5-1.119-2.5-2.5s1.119-2.5 2.5-2.5h78.018c1.612 0 2.924-1.312 2.924-2.924s-1.312-2.924-2.924-2.924h-77.976c-1.381 0-2.5-1.119-2.5-2.5s1.119-2.5 2.5-2.5h77.976c4.369 0 7.924 3.555 7.924 7.924s-3.555 7.924-7.924 7.924z"/></g><g><path d="m52.341 129.94c-4.369 0-7.924-3.555-7.924-7.924v-15.558c0-1.381 1.119-2.5 2.5-2.5s2.5 1.119 2.5 2.5v15.558c0 1.612 1.312 2.924 2.924 2.924s2.924-1.312 2.924-2.924v-15.349c0-1.381 1.119-2.5 2.5-2.5s2.5 1.119 2.5 2.5v15.349c0 4.37-3.555 7.924-7.924 7.924z"/></g><g><path d="m63.189 116.967c-3.536 0-6.636-2.278-7.714-5.67-.418-1.315.31-2.721 1.626-3.14 1.316-.415 2.722.31 3.14 1.626.415 1.306 1.6 2.184 2.948 2.184 1.715 0 3.11-1.396 3.11-3.11v-5.523c0-1.381 1.119-2.5 2.5-2.5s2.5 1.119 2.5 2.5v5.523c0 4.472-3.638 8.11-8.11 8.11z"/></g><g><path d="m161.048 241.677c-1.61 0-3.219-.198-4.81-.608-.935-.243-1.859-.243-2.77-.006-.015.004-.03.007-.045.011-13.923 3.542-29.207-9.08-34.128-28.168-2.348-9.108-2.035-18.353.882-26.032 3.032-7.979 8.499-13.353 15.395-15.131 3.541-.913 7.213-.815 10.916.289 5.387 1.607 11.32 1.605 16.706 0 3.703-1.104 7.375-1.202 10.916-.289 6.896 1.778 12.363 7.151 15.395 15.131 2.917 7.679 3.23 16.923.882 26.032-4.363 16.925-16.877 28.77-29.339 28.771zm-3.577-5.454c.028.007.055.015.079.021 11.168 2.88 23.757-8.144 27.996-24.587 2.092-8.116 1.838-16.288-.714-23.008-2.438-6.419-6.689-10.704-11.969-12.065-2.646-.683-5.419-.603-8.239.239-6.4 1.907-13.165 1.908-19.563 0-2.821-.841-5.593-.921-8.239-.238-5.28 1.361-9.53 5.646-11.969 12.065-2.553 6.721-2.807 14.892-.715 23.008 4.24 16.443 16.827 27.466 28.059 24.57.005-.001.011-.003.017-.004 1.719-.448 3.536-.448 5.257-.001z"/></g><g><path d="m156.252 167.744c-.396 0-.792-.018-1.189-.054-2.045-.187-3.788-1.717-4.236-3.722-.917-4.09.184-8.409 2.944-11.552s6.902-4.787 11.076-4.41c2.045.187 3.787 1.717 4.236 3.721.917 4.091-.185 8.41-2.945 11.552-2.497 2.845-6.125 4.465-9.886 4.465zm-.579-5.021c2.534.182 5.034-.836 6.709-2.743s2.363-4.516 1.855-7.007c-2.542-.185-5.035.835-6.709 2.743-1.675 1.908-2.363 4.516-1.855 7.007zm8.72-9.737h.01zm-.188-.165v.002c.001-.001 0-.001 0-.002z"/></g><g><path d="m155.372 176.644c-1.381 0-2.5-1.119-2.5-2.5 0-9.51-8.247-11.269-8.598-11.339-1.354-.271-2.232-1.588-1.961-2.942s1.585-2.23 2.942-1.961c4.364.873 12.618 5.391 12.618 16.242-.001 1.38-1.121 2.5-2.501 2.5z"/></g><g><path d="m199.746 167.744c-.396 0-.792-.018-1.189-.054-2.044-.187-3.787-1.717-4.236-3.721-.917-4.091.184-8.41 2.944-11.553s6.901-4.787 11.076-4.41c2.045.187 3.787 1.717 4.236 3.721.917 4.091-.184 8.41-2.944 11.552-2.498 2.845-6.127 4.465-9.887 4.465zm-.579-5.021c2.538.182 5.034-.836 6.709-2.743s2.363-4.515 1.855-7.007c-2.542-.185-5.035.835-6.709 2.743-1.676 1.908-2.364 4.516-1.855 7.007zm8.719-9.737h.01zm-.188-.165v.002c.001-.001 0-.001 0-.002z"/></g><g><path d="m198.865 176.644c-1.381 0-2.5-1.119-2.5-2.5 0-9.51-8.247-11.269-8.598-11.339-1.354-.271-2.232-1.588-1.961-2.942s1.584-2.23 2.942-1.961c4.364.873 12.618 5.391 12.618 16.242-.001 1.38-1.12 2.5-2.501 2.5z"/></g><g><path d="m143.139 175.815c-.115 0-.23-.008-.348-.024-1.367-.19-2.322-1.453-2.131-2.821 1.294-9.302 1.874-18.855 1.722-28.394-.002-.156.009-.31.035-.461-.119-7.675-.675-15.225-1.653-22.446-.185-1.368.774-2.627 2.142-2.813 1.374-.181 2.628.774 2.813 2.142 1.024 7.563 1.598 15.472 1.705 23.505.002.153-.01.305-.036.453.13 9.643-.466 19.296-1.775 28.703-.175 1.251-1.246 2.156-2.474 2.156z"/></g><g><path d="m108.634 241.685h-60.021c-6.811 0-13.044-3.375-16.676-9.027-14.082-21.918-22.158-53.095-22.158-85.538 0-8.83.596-17.675 1.772-26.29.187-1.368 1.448-2.326 2.815-2.139 1.368.187 2.326 1.447 2.139 2.815-1.146 8.392-1.726 17.01-1.726 25.614 0 31.51 7.787 61.702 21.364 82.835 2.707 4.214 7.369 6.729 12.469 6.729h59.977c4 0 7.953-1.657 10.689-4.45.069-.101.146-.198.231-.29.984-1.064 2.845-3.669 5.118-7.789.667-1.209 2.187-1.65 3.396-.981 1.209.667 1.648 2.188.981 3.396-2.021 3.663-4.021 6.71-5.547 8.459-.081.126-.173.246-.277.357-3.668 3.945-9.107 6.299-14.546 6.299z"/></g><g><path d="m192.021 241.685c-5.522 0-11.105-2.284-16.159-6.667-1.043-.905-1.155-2.483-.25-3.527.904-1.043 2.484-1.155 3.527-.25 5.303 4.599 11.178 6.37 16.551 4.986.005-.001.011-.003.017-.004 1.717-.446 3.531-.446 5.249-.002.018.005.035.009.05.013 11.208 2.888 23.795-8.132 28.034-24.576 2.092-8.116 1.838-16.287-.715-23.008-2.438-6.419-6.689-10.704-11.969-12.065-2.646-.683-5.418-.603-8.239.239-6.398 1.907-13.163 1.909-19.563 0-2.819-.841-5.591-.922-8.239-.238-.732.189-1.47.446-2.192.766-1.261.558-2.739-.014-3.297-1.277s.014-2.739 1.277-3.297c.971-.429 1.968-.776 2.963-1.033 3.542-.913 7.214-.814 10.917.289 5.387 1.607 11.32 1.605 16.706 0 3.704-1.104 7.376-1.202 10.916-.289 6.896 1.778 12.363 7.151 15.395 15.131 2.917 7.679 3.23 16.923.882 26.032-4.927 19.114-20.251 31.746-34.148 28.164-.937-.243-1.86-.243-2.771-.006-.025.006-.051.013-.077.019-1.607.4-3.234.6-4.865.6z"/></g><g><path d="m137.59 58.955c-2.301 0-4.608-.88-6.367-2.639-1.677-1.677-2.601-3.913-2.601-6.296s.924-4.619 2.601-6.296l26.808-26.808c3.472-3.472 9.121-3.471 12.591 0 3.499 3.5 3.521 9.171.05 12.642l-26.808 26.809c-1.726 1.725-3.997 2.588-6.274 2.588zm23.976-38.504-26.808 26.809c-.732.732-1.136 1.713-1.136 2.76 0 1.048.403 2.028 1.136 2.761 1.523 1.523 4.075 1.546 5.571.05l26.808-26.808c1.496-1.496 1.473-4.047-.051-5.571-1.521-1.523-3.997-1.523-5.52-.001z"/></g><g><path d="m143.694 71.164c-2.301 0-4.608-.88-6.367-2.639-1.675-1.675-2.607-3.913-2.625-6.302-.019-2.41.896-4.662 2.575-6.34l32.913-32.913c1.679-1.678 3.95-2.626 6.34-2.575 2.39.018 4.627.951 6.302 2.625 3.499 3.499 3.521 9.17.05 12.642l-32.913 32.913c-1.726 1.726-3.997 2.589-6.275 2.589zm30.031-44.659-32.913 32.913c-.724.725-1.119 1.707-1.11 2.767.008 1.068.42 2.064 1.161 2.805 1.524 1.523 4.075 1.546 5.571.05l32.913-32.912c1.496-1.497 1.473-4.047-.05-5.571-.741-.74-1.737-1.153-2.805-1.161-1.076-.013-2.043.385-2.767 1.109z"/></g><g><path d="m152.857 80.307c-.024 0-.047 0-.071 0-2.389-.019-4.627-.951-6.302-2.625s-2.607-3.913-2.625-6.302c-.018-2.41.896-4.662 2.575-6.34l32.913-32.912c1.662-1.663 3.886-2.576 6.269-2.576h.071c2.39.018 4.627.951 6.302 2.625 1.674 1.674 2.607 3.912 2.625 6.302.019 2.41-.896 4.661-2.575 6.34l-32.913 32.913c-1.662 1.662-3.886 2.575-6.269 2.575zm32.76-45.756c-1.047 0-2.018.394-2.735 1.111l-32.913 32.913c-.724.724-1.119 1.707-1.11 2.767.008 1.068.42 2.064 1.161 2.805.741.74 1.737 1.152 2.805 1.161 1.045 0 2.042-.386 2.766-1.11l32.913-32.913c.724-.725 1.119-1.707 1.11-2.767-.008-1.068-.42-2.064-1.161-2.804-.741-.741-1.736-1.153-2.805-1.161-.01-.002-.021-.002-.031-.002z"/></g><g><path d="m164.989 86.386c-2.383 0-4.619-.924-6.296-2.601-3.499-3.499-3.522-9.17-.051-12.642l26.809-26.808c3.471-3.47 9.143-3.449 12.642.051 1.677 1.676 2.601 3.912 2.601 6.295 0 2.384-.924 4.62-2.601 6.296l-26.808 26.808c-1.677 1.677-3.912 2.601-6.296 2.601zm23.997-38.515-26.808 26.808c-1.496 1.497-1.473 4.048.05 5.571.732.732 1.713 1.136 2.761 1.136 1.047 0 2.028-.403 2.76-1.136l26.809-26.808c.732-.732 1.136-1.713 1.136-2.761 0-1.047-.403-2.028-1.136-2.76-1.524-1.523-4.075-1.546-5.572-.05z"/></g><g><path d="m234.917 133.369c-.181 0-.362-.004-.544-.012-3.561-.153-6.918-1.805-9.213-4.532l-48.142-53.175c-.926-1.023-.848-2.604.176-3.531s2.604-.848 3.531.176l48.201 53.244c1.475 1.751 3.464 2.729 5.661 2.824 2.186.099 4.262-.709 5.817-2.264s2.359-3.622 2.264-5.818-1.073-4.185-2.755-5.6l-53.298-48.247c-1.023-.927-1.102-2.508-.176-3.531s2.507-1.103 3.531-.176l53.229 48.188c2.658 2.234 4.31 5.592 4.463 9.152.154 3.561-1.204 7.048-3.724 9.568-2.389 2.389-5.652 3.734-9.021 3.734z"/></g><g><g><path d="m135.698 44.192c-.873 0-1.72-.458-2.18-1.272-3.815-6.76-2.657-15.304 2.816-20.777 5.647-5.647 14.381-6.765 21.239-2.72 1.189.702 1.584 2.234.883 3.424-.702 1.188-2.235 1.584-3.424.883-4.816-2.842-11.192-2.021-15.163 1.949-3.892 3.892-4.713 9.971-1.997 14.784.679 1.202.254 2.727-.949 3.406-.387.219-.809.323-1.225.323z"/></g></g></g></g></svg>