<svg enable-background="new 0 0 256 256" height="512" viewBox="0 0 256 256" width="512" xmlns="http://www.w3.org/2000/svg"><g id="Layer_47"><g><g><path d="m123 93.814c-11.898 0-23.712 0-34.83 0-16.028 0-30.351 10.748-34.831 26.137l-3.866 13.28-17.742 9.087c-2.458 1.259-3.43 4.272-2.171 6.729.885 1.729 2.637 2.722 4.454 2.722.767 0 1.546-.177 2.275-.551l19.661-10.07c1.225-.627 2.137-1.731 2.521-3.053l4.469-15.35c3.245-11.146 13.62-18.932 25.229-18.932h34.83v-9.999z" fill="#fc657e"/></g><g><path d="m224.269 142.318-17.742-9.087-3.866-13.28c-4.48-15.389-18.803-26.137-34.831-26.137-11.118 0-22.931 0-34.83 0v10h34.83c11.61 0 21.984 7.785 25.229 18.932l4.469 15.35c.385 1.321 1.297 2.425 2.521 3.053l19.661 10.07c.729.374 1.508.551 2.275.551 1.816 0 3.569-.994 4.454-2.722 1.26-2.458.288-5.471-2.17-6.73z" fill="#fc657e"/></g><g><path d="m224.085 75.753-51.738-25.116 15.252-31.419 51.738 25.116c1.924.934 2.726 3.251 1.792 5.174l-11.87 24.452c-.934 1.925-3.25 2.727-5.174 1.793z" fill="#fc657e"/></g><g><circle cx="193.145" cy="7.793" fill="#f5c84c" r="5.292"/></g><g><path d="m31.915 75.753 51.738-25.116-15.252-31.419-51.738 25.116c-1.924.934-2.726 3.251-1.792 5.174l11.87 24.452c.934 1.925 3.25 2.727 5.174 1.793z" fill="#fc657e"/></g><g><circle cx="62.855" cy="7.793" fill="#f5c84c" r="5.292"/></g><g><g><path d="m128 252.128c-2.761 0-5-2.239-5-5v-165.256c0-2.761 2.239-5 5-5s5 2.239 5 5v165.257c0 2.761-2.239 4.999-5 4.999z" fill="#c18e6b"/></g></g><g><path d="m123 205.5-11.356 6.813c-2.261 1.357-3.644 3.8-3.644 6.436v28.058c0 2.505 2.733 4.052 4.881 2.763l10.119-6.07z" fill="#fcdd86"/></g><g><path d="m133 205.5v38l10.119 6.072c2.148 1.289 4.881-.258 4.881-2.763v-28.059c0-2.637-1.383-5.08-3.644-6.436z" fill="#fcdd86"/></g><g><path d="m142.354 80.174-7.763-28.781c-.484-1.795-2.112-3.042-3.972-3.042h-5.239c-1.859 0-3.488 1.247-3.972 3.042l-7.763 28.781c-.452 1.677.811 3.326 2.548 3.326h6.807v-1.628c0-2.761 2.239-5 5-5s5 2.239 5 5v1.628h6.806c1.737 0 3-1.649 2.548-3.326z" fill="#818182"/></g><g><path d="m190.121 37.656h34.926v21.351h-34.926z" fill="#5290db" transform="matrix(.437 -.9 .9 .437 73.451 213.968)"/></g><g><path d="m37.741 30.868h21.351v34.926h-21.351z" fill="#5290db" transform="matrix(.9 -.437 .437 .9 -16.246 25.996)"/></g><g><path d="m123 93.814c-7.748 0-15.461 0-22.971 0v10h22.971z" fill="#5290db"/></g><g><path d="m133 93.814v10h22.971v-10c-7.51 0-15.223 0-22.971 0z" fill="#5290db"/></g><g><path d="m197.528 138.096c.385 1.321 1.297 2.425 2.521 3.053l19.661 10.07c.729.374 1.508.551 2.275.551 1.816 0 3.569-.994 4.454-2.722 1.259-2.458.287-5.471-2.171-6.729l-17.742-9.087-1.668-5.731h-10.415z" fill="#c18e6b"/></g><g><path d="m34.014 151.77c.767 0 1.546-.177 2.275-.551l19.661-10.07c1.225-.627 2.137-1.731 2.521-3.053l3.085-10.596h-10.414l-1.668 5.731-17.742 9.087c-2.458 1.259-3.43 4.272-2.171 6.729.884 1.729 2.636 2.723 4.453 2.723z" fill="#c18e6b"/></g><g><path d="m47.369 174.525c-3.1-.6-5.6-3-6.2-6.1 0-.1-.3-.1-.3 0-.6 3.1-3.1 5.5-6.2 6.1-.1 0-.1.2 0 .3 3.1.6 5.6 3 6.2 6.1 0 .1.3.1.3 0 .6-3.1 3.1-5.5 6.2-6.1.1-.1.1-.3 0-.3z" fill="#fc657e"/></g><g><path d="m91.919 25.9h2.3v2.3c0 1.8 1.4 3.2 3.2 3.2 1.7 0 3.2-1.4 3.2-3.1v-.1-2.3h2.3c1.8 0 3.2-1.4 3.2-3.2 0-1.7-1.4-3.2-3.1-3.2h-.1-2.3v-2.3c0-1.8-1.4-3.2-3.2-3.2-1.7 0-3.2 1.4-3.2 3.1v.1 2.3h-2.3c-1.8 0-3.2 1.4-3.2 3.2-.1 1.7 1.3 3.2 3.2 3.2-.1 0-.1 0 0 0z" fill="#70d6f9"/></g><g><circle cx="122.319" cy="3.4" fill="#f5c84c" r="3.4"/></g><g><circle cx="171.319" cy="228.4" fill="#87d147" r="3.4"/></g><g><path d="m185.719 207.85c4.5-.8 8-4.3 8.9-8.7 0-.2.4-.2.4 0 .9 4.4 4.4 7.9 8.9 8.7.2 0 .2.3 0 .4-4.5.8-8 4.3-8.9 8.7 0 .2-.4.2-.4 0-.9-4.4-4.4-7.9-8.9-8.7-.2-.1-.2-.4 0-.4z" fill="#f5c84c"/></g><g><path d="m34.014 154.27c-2.831 0-5.39-1.564-6.679-4.082-.913-1.783-1.078-3.815-.462-5.721.615-1.907 1.936-3.46 3.719-4.373l16.783-8.596 3.565-12.245c4.789-16.45 20.099-27.938 37.231-27.938h33.829c1.381 0 2.5 1.119 2.5 2.5s-1.119 2.5-2.5 2.5h-33.83c-14.923 0-28.259 10.007-32.431 24.335l-3.866 13.28c-.192.661-.648 1.213-1.261 1.526l-17.742 9.087c-.594.305-1.035.822-1.24 1.458s-.15 1.313.154 1.907c.611 1.192 2.155 1.706 3.365 1.085l19.661-10.07c.609-.313 1.069-.869 1.261-1.527l4.469-15.349c3.554-12.207 14.916-20.733 27.63-20.733h33.955c1.381 0 2.5 1.119 2.5 2.5s-1.119 2.5-2.5 2.5h-33.955c-10.505 0-19.893 7.044-22.829 17.13l-4.469 15.35c-.575 1.973-1.953 3.642-3.782 4.579l-19.662 10.07c-1.054.541-2.235.827-3.414.827z"/></g><g><path d="m221.986 154.27c-1.179 0-2.36-.286-3.415-.826l-19.661-10.07c-1.829-.937-3.208-2.606-3.782-4.579l-4.469-15.35c-2.937-10.086-12.324-17.13-22.829-17.13h-34.017c-1.381 0-2.5-1.119-2.5-2.5s1.119-2.5 2.5-2.5h34.017c12.714 0 24.076 8.526 27.63 20.733l4.469 15.35c.191.658.651 1.214 1.261 1.526l19.661 10.07c1.211.621 2.754.106 3.365-1.085.304-.594.359-1.271.154-1.907-.205-.635-.646-1.153-1.24-1.458l-17.742-9.087c-.612-.313-1.068-.866-1.261-1.526l-3.866-13.28c-4.171-14.328-17.508-24.335-32.431-24.335h-33.83c-1.381 0-2.5-1.119-2.5-2.5s1.119-2.5 2.5-2.5h33.83c17.132 0 32.442 11.488 37.231 27.938l3.565 12.245 16.783 8.596c1.783.913 3.104 2.466 3.719 4.373.615 1.906.451 3.938-.462 5.721-1.291 2.517-3.85 4.081-6.68 4.081z"/></g><g><path d="m113.518 213.107c-.64 0-1.28-.244-1.768-.732l-72.397-72.397c-.977-.976-.977-2.559 0-3.535.976-.977 2.56-.977 3.535 0l72.397 72.397c.977.976.977 2.559 0 3.535-.488.488-1.128.732-1.767.732z"/></g><g><path d="m142.456 212.956c-.64 0-1.28-.244-1.768-.732-.977-.976-.977-2.559 0-3.535l72.424-72.424c.976-.977 2.56-.977 3.535 0 .977.976.977 2.559 0 3.535l-72.424 72.424c-.488.487-1.128.732-1.767.732z"/></g><g><path d="m158.479 81.701c-.366 0-.738-.081-1.09-.251-1.242-.603-1.76-2.099-1.157-3.341l31.891-65.695c.603-1.241 2.098-1.762 3.341-1.157 1.242.603 1.76 2.099 1.157 3.341l-31.891 65.694c-.432.89-1.323 1.409-2.251 1.409z"/></g><g><path d="m225.765 78.642c-.932 0-1.878-.206-2.771-.639l-51.007-24.761c-1.242-.603-1.76-2.099-1.157-3.341s2.098-1.761 3.341-1.157l51.007 24.761c.68.329 1.503.045 1.833-.635l11.87-24.453c.16-.33.182-.702.063-1.048-.12-.346-.368-.625-.698-.785l-51.084-24.798c-1.242-.603-1.76-2.099-1.157-3.341s2.099-1.761 3.341-1.157l51.084 24.798c3.161 1.535 4.484 5.354 2.95 8.515l-11.87 24.453c-1.102 2.266-3.379 3.587-5.745 3.588z"/></g><g><path d="m193.133 15.584c-1.141 0-2.298-.251-3.391-.782-1.872-.909-3.278-2.492-3.959-4.459-.681-1.966-.556-4.081.353-5.953 1.876-3.866 6.548-5.484 10.412-3.606 1.872.909 3.279 2.492 3.96 4.459.681 1.966.556 4.081-.353 5.953-1.346 2.772-4.13 4.388-7.022 4.388zm.016-10.583c-1.037 0-2.034.579-2.516 1.572-.326.671-.371 1.429-.126 2.133s.748 1.271 1.418 1.597c1.385.672 3.059.092 3.731-1.292.326-.671.371-1.429.126-2.133-.244-.704-.748-1.271-1.418-1.597-.391-.189-.806-.28-1.215-.28zm4.757 5.103h.01z"/></g><g><path d="m97.521 81.701c-.928 0-1.819-.518-2.251-1.409l-31.891-65.695c-.603-1.242-.085-2.738 1.157-3.341 1.243-.604 2.738-.085 3.341 1.157l31.891 65.695c.603 1.242.085 2.738-1.157 3.341-.352.171-.724.252-1.09.252z"/></g><g><path d="m30.234 78.642c-2.366 0-4.642-1.322-5.743-3.589l-11.869-24.453c-.743-1.531-.846-3.26-.289-4.869.557-1.608 1.707-2.903 3.238-3.646l51-24.758c1.243-.604 2.738-.084 3.341 1.157.603 1.242.085 2.738-1.157 3.341l-51 24.758c-.681.331-.966 1.153-.635 1.833l11.87 24.453c.33.68 1.15.964 1.834.635l50.999-24.757c1.243-.603 2.739-.084 3.341 1.157.603 1.242.085 2.738-1.157 3.341l-51 24.757c-.894.434-1.84.639-2.773.64z"/></g><g><path d="m62.867 15.584c-2.893 0-5.676-1.616-7.022-4.388-.909-1.873-1.034-3.987-.353-5.953.681-1.967 2.088-3.55 3.96-4.459 3.864-1.876 8.535-.259 10.412 3.606.909 1.873 1.034 3.987.353 5.953-.681 1.967-2.087 3.55-3.959 4.459-1.093.531-2.251.782-3.391.782zm-2.524-6.572c.672 1.384 2.345 1.964 3.731 1.292.671-.326 1.174-.893 1.418-1.597s.199-1.462-.126-2.133c-.672-1.385-2.348-1.964-3.73-1.292-.671.326-1.175.893-1.419 1.597s-.199 1.462.126 2.133z"/></g><g><g><path d="m128 254.628c-4.136 0-7.5-3.364-7.5-7.5v-165.256c0-4.136 3.364-7.5 7.5-7.5s7.5 3.364 7.5 7.5v165.257c0 4.135-3.364 7.499-7.5 7.499zm0-175.256c-1.378 0-2.5 1.122-2.5 2.5v165.257c0 1.378 1.122 2.5 2.5 2.5s2.5-1.122 2.5-2.5v-165.257c0-1.379-1.122-2.5-2.5-2.5z"/></g></g><g><path d="m111.225 252.541c-.966 0-1.934-.25-2.821-.753-1.818-1.029-2.903-2.891-2.903-4.98v-28.058c0-3.495 1.861-6.782 4.858-8.58l11.078-6.647c1.184-.712 2.72-.327 3.43.857s.327 2.719-.857 3.43l-11.078 6.647c-1.499.899-2.43 2.544-2.43 4.293v28.058c0 .348.199.534.367.629.167.095.43.171.728-.009l9.316-5.589c1.183-.71 2.72-.327 3.43.857s.327 2.719-.857 3.43l-9.316 5.59c-.92.55-1.932.825-2.945.825z"/></g><g><path d="m144.775 252.541c-1.013 0-2.025-.275-2.942-.825l-9.771-5.863c-1.184-.71-1.568-2.246-.857-3.43.711-1.183 2.247-1.569 3.43-.857l9.771 5.863c.298.178.56.104.728.009.167-.095.367-.281.367-.629v-28.059c0-1.749-.931-3.394-2.43-4.293l-10.911-6.546c-1.184-.71-1.568-2.246-.857-3.43.71-1.184 2.246-1.568 3.43-.857l10.911 6.546c2.997 1.798 4.858 5.085 4.858 8.58v28.058c0 2.089-1.085 3.951-2.903 4.98-.89.503-1.857.753-2.824.753z"/></g><g><path d="m139.806 86h-5.848c-1.381 0-2.5-1.119-2.5-2.5s1.119-2.5 2.5-2.5h5.848c.024 0 .068 0 .11-.054s.03-.097.024-.12l-7.762-28.781c-.19-.703-.831-1.193-1.559-1.193h-5.238c-.728 0-1.369.491-1.559 1.194l-7.762 28.78c-.006.023-.018.066.024.121s.086.053.11.053h5.723c1.381 0 2.5 1.119 2.5 2.5s-1.119 2.5-2.5 2.5h-5.723c-1.612 0-3.099-.734-4.08-2.014s-1.302-2.907-.881-4.463l7.762-28.78c.777-2.88 3.403-4.892 6.386-4.892h5.238c2.983 0 5.609 2.011 6.386 4.891l7.762 28.781c.42 1.556.099 3.183-.881 4.462s-2.468 2.015-4.08 2.015z"/></g><g><path d="m209.919 70.462c-.366 0-.738-.081-1.09-.251-1.242-.603-1.76-2.099-1.157-3.341l14.495-29.859c.603-1.242 2.099-1.762 3.341-1.157 1.242.603 1.76 2.099 1.157 3.341l-14.495 29.858c-.432.89-1.323 1.409-2.251 1.409z"/></g><g><path d="m190.724 61.113c-.366 0-.738-.081-1.09-.251-1.242-.603-1.76-2.099-1.157-3.341l14.461-29.791c.603-1.242 2.098-1.76 3.341-1.157 1.242.603 1.76 2.099 1.157 3.341l-14.461 29.791c-.433.89-1.324 1.408-2.251 1.408z"/></g><g><path d="m46.049 70.397c-.928 0-1.819-.518-2.251-1.409l-14.527-29.927c-.603-1.242-.085-2.738 1.157-3.341 1.243-.604 2.738-.084 3.341 1.157l14.528 29.927c.603 1.242.085 2.738-1.157 3.341-.352.171-.724.252-1.091.252z"/></g><g><path d="m65.337 61.238c-.928 0-1.819-.518-2.251-1.409l-14.594-30.062c-.603-1.242-.085-2.738 1.157-3.341s2.738-.084 3.341 1.157l14.594 30.063c.603 1.242.085 2.738-1.157 3.341-.352.17-.724.251-1.09.251z"/></g><g><path d="m100.029 105.292c-1.381 0-2.5-1.119-2.5-2.5v-8.083c0-1.381 1.119-2.5 2.5-2.5s2.5 1.119 2.5 2.5v8.083c0 1.381-1.119 2.5-2.5 2.5z"/></g><g><path d="m155.971 105.458c-1.381 0-2.5-1.119-2.5-2.5v-8.333c0-1.381 1.119-2.5 2.5-2.5s2.5 1.119 2.5 2.5v8.333c0 1.38-1.119 2.5-2.5 2.5z"/></g><g><path d="m204.167 130h-9.167c-1.381 0-2.5-1.119-2.5-2.5s1.119-2.5 2.5-2.5h9.167c1.381 0 2.5 1.119 2.5 2.5s-1.119 2.5-2.5 2.5z"/></g><g><path d="m60.958 130h-9.082c-1.381 0-2.5-1.119-2.5-2.5s1.119-2.5 2.5-2.5h9.082c1.381 0 2.5 1.119 2.5 2.5s-1.12 2.5-2.5 2.5z"/></g></g></g></svg>