<svg enable-background="new 0 0 256 256" height="512" viewBox="0 0 256 256" width="512" xmlns="http://www.w3.org/2000/svg"><g id="Layer_38"><g><g><path d="m234.805 111.273h-65.591c-11.919 0-23.318 4.881-31.543 13.507l-11.223 11.77c-11.091 11.632-26.462 18.214-42.535 18.214h-62.718c-3.827 0-6.929 3.102-6.929 6.929s3.102 6.929 6.929 6.929h62.719c21.051 0 41.184-8.621 55.711-23.857l11.223-11.77c4.789-5.023 11.427-7.865 18.367-7.865h65.591c3.827 0 6.929-3.102 6.929-6.929-.001-3.826-3.103-6.928-6.93-6.928z" fill="#b8dd90"/></g><g><g><path d="m83.913 154.764c16.073 0 31.445-6.583 42.536-18.215l11.222-11.769c8.225-8.626 19.624-13.508 31.543-13.508h63.516l-1.176-.777c-10.114-6.679-17.608-16.547-21.74-27.941-13.43-37.028-49.022-63.667-90.538-63.667-52.943 0-96.259 43.317-96.259 96.259v39.617h60.896z" fill="#96bc71"/></g></g><g><path d="m149.585 205.761-11.074 9.98c-2.07 1.866-5.291 1.698-7.156-.372l-10.681-11.851c-1.866-2.07-1.698-5.291.372-7.156l11.074-9.98c2.07-1.866 5.291-1.698 7.156.372l10.681 11.851c1.866 2.07 1.698 5.291-.372 7.156z" fill="#c7d7e5"/></g><g><path d="m132.12 186.382c2.07-1.866 5.291-1.698 7.156.372l5.023 5.574 5.101-57.815-9.775 10.252c-1.474 1.546-3.023 3.006-4.613 4.415l-3.317 37.584z" fill="#5b5d60"/></g><g><path d="m121.046 196.362 5.727-5.162-40.074-22.65c-.928.034-1.855.072-2.785.072h-23.597l59.567 33.668c-.93-1.969-.534-4.399 1.162-5.928z" fill="#5b5d60"/></g><g><path d="m169.544 226.751-20.965-20.083-9.715 8.756 21.646 20.737c1.36 1.305 3.52 1.261 4.825-.098l4.307-4.487c1.306-1.36 1.262-3.52-.098-4.825z" fill="#5b5d60"/></g><g><circle cx="93.759" cy="121.145" fill="#dae6f1" r="9.783"/></g><g><path d="m213.059 89.886c-4.054 2.925-9.874 5.171-18.209 5.171h-16.6c-8.068 0-15.709 3.628-20.809 9.879l-9.876 12.106c6.531-3.738 13.979-5.769 21.648-5.769h63.516l-1.176-.777c-7.871-5.198-14.146-12.333-18.494-20.61z" fill="#78a352"/></g><g><path d="m255.925 86.2c-3.1-.6-5.6-3-6.2-6.1 0-.1-.3-.1-.3 0-.6 3.1-3.1 5.5-6.2 6.1-.1 0-.1.2 0 .3 3.1.6 5.6 3 6.2 6.1 0 .1.3.1.3 0 .6-3.1 3.1-5.5 6.2-6.1.1-.1.1-.3 0-.3z" fill="#87d147"/></g><g><path d="m192.9 180.9h2.3v2.3c0 1.8 1.4 3.2 3.2 3.2 1.7 0 3.2-1.4 3.2-3.1v-.1-2.3h2.3c1.8 0 3.2-1.4 3.2-3.2 0-1.7-1.4-3.2-3.1-3.2h-.1-2.3v-2.3c0-1.8-1.4-3.2-3.2-3.2-1.7 0-3.2 1.4-3.2 3.1v.1 2.3h-2.3c-1.8 0-3.2 1.4-3.2 3.2-.1 1.7 1.3 3.2 3.2 3.2-.1 0-.1 0 0 0z" fill="#70d6f9"/></g><g><circle cx="23.3" cy="39.9" fill="#fc657e" r="3.4"/></g><g><circle cx="174.3" cy="195.4" fill="#f5c84c" r="3.4"/></g><g><path d="m.15 66.2c4.5-.8 8-4.3 8.9-8.7 0-.2.4-.2.4 0 .9 4.4 4.4 7.9 8.9 8.7.2 0 .2.3 0 .4-4.5.8-8 4.3-8.9 8.7 0 .2-.4.2-.4 0-.9-4.4-4.4-7.9-8.9-8.7-.2-.1-.2-.4 0-.4z" fill="#f5c84c"/></g><g><path d="m83.914 171.123h-62.72c-5.199 0-9.429-4.23-9.429-9.429s4.229-9.429 9.429-9.429h62.719c15.314 0 30.158-6.356 40.726-17.439l11.222-11.77c8.655-9.077 20.812-14.282 33.353-14.282h65.592c5.199 0 9.429 4.229 9.429 9.429s-4.229 9.429-9.429 9.429h-65.592c-6.226 0-12.261 2.584-16.557 7.09l-11.223 11.77c-14.926 15.653-35.892 24.631-57.52 24.631zm-62.72-13.858c-2.442 0-4.429 1.987-4.429 4.429s1.987 4.429 4.429 4.429h62.719c20.268 0 39.915-8.413 53.902-23.082l11.223-11.77c5.235-5.491 12.589-8.64 20.176-8.64h65.592c2.442 0 4.429-1.987 4.429-4.429s-1.986-4.429-4.429-4.429h-65.592c-11.181 0-22.018 4.641-29.733 12.732l-11.222 11.77c-11.507 12.068-27.67 18.989-44.345 18.989h-62.72z"/></g><g><g><path d="m23.016 156.594c-1.381 0-2.5-1.119-2.5-2.5v-38.947c0-54.456 44.303-98.759 98.759-98.759 41.39 0 78.719 26.248 92.889 65.314 4.053 11.177 11.234 20.412 20.768 26.707l.616.408c1.151.761 1.468 2.313.707 3.464-.763 1.152-2.313 1.468-3.465.707l-.615-.407c-10.436-6.891-18.289-16.979-22.712-29.173-13.455-37.096-48.895-62.019-88.188-62.019-51.699 0-93.759 42.06-93.759 93.759v38.947c0 1.38-1.12 2.499-2.5 2.499z"/></g></g><g><path d="m135.122 219.541c-2.069 0-4.132-.842-5.624-2.497l-10.681-11.852c-1.35-1.498-2.035-3.436-1.93-5.458s.988-3.879 2.485-5.229l11.074-9.98c3.102-2.794 7.896-2.543 10.687.555l10.682 11.851c2.793 3.1 2.543 7.895-.556 10.687l-11.074 9.98c-1.445 1.302-3.256 1.943-5.063 1.943zm.389-31.961c-.612 0-1.228.217-1.717.659l-11.074 9.98c-.505.456-.803 1.085-.839 1.774-.036.688.195 1.346.65 1.851l10.681 11.852c.946 1.05 2.574 1.137 3.625.188l11.074-9.98c1.052-.948 1.136-2.574.188-3.626l-10.681-11.851c-.505-.561-1.205-.847-1.907-.847z"/></g><g><path d="m144.352 194.276c-.074 0-.147-.003-.223-.01-1.375-.121-2.392-1.334-2.271-2.71l5.022-56.925c.121-1.376 1.337-2.393 2.71-2.271 1.375.121 2.392 1.334 2.271 2.71l-5.022 56.925c-.114 1.302-1.206 2.281-2.487 2.281z"/></g><g><path d="m131.741 188.785c-.074 0-.147-.003-.223-.01-1.375-.121-2.392-1.334-2.271-2.71l3.228-36.577c.121-1.376 1.34-2.393 2.71-2.271 1.375.121 2.392 1.334 2.271 2.71l-3.228 36.577c-.114 1.301-1.206 2.281-2.487 2.281z"/></g><g><path d="m125.744 193.121c-.417 0-.839-.104-1.228-.324l-38.3-21.648c-1.202-.679-1.626-2.205-.946-3.406.679-1.202 2.204-1.625 3.406-.946l38.3 21.648c1.202.679 1.626 2.205.946 3.406-.459.813-1.306 1.27-2.178 1.27z"/></g><g><path d="m119.398 204.518c-.417 0-.839-.104-1.228-.324l-58.559-33.099c-1.202-.679-1.626-2.205-.946-3.406.679-1.202 2.204-1.626 3.406-.946l58.559 33.099c1.202.679 1.626 2.205.946 3.406-.459.813-1.306 1.27-2.178 1.27z"/></g><g><path d="m162.871 239.611c-1.534 0-2.982-.582-4.092-1.647l-20.961-20.08c-.997-.955-1.031-2.538-.076-3.535.956-.997 2.54-1.03 3.535-.076l20.963 20.082c.239.229.504.264.652.256.141-.003.411-.043.639-.28l4.308-4.487c.349-.363.337-.941-.026-1.29l-20.173-19.324c-.997-.955-1.031-2.538-.076-3.535.957-.997 2.539-1.03 3.535-.076l20.175 19.326c2.354 2.259 2.43 6.009.173 8.361l-4.308 4.487c-1.094 1.139-2.565 1.784-4.145 1.816-.041.002-.082.002-.123.002z"/></g><g><path d="m93.759 133.428c-6.773 0-12.283-5.51-12.283-12.283s5.51-12.283 12.283-12.283 12.283 5.51 12.283 12.283-5.51 12.283-12.283 12.283zm0-19.566c-4.016 0-7.283 3.267-7.283 7.283s3.267 7.283 7.283 7.283 7.283-3.267 7.283-7.283-3.267-7.283-7.283-7.283z"/></g><g><path d="m147.789 119.268c-.555 0-1.114-.184-1.578-.563-1.07-.873-1.229-2.447-.357-3.517l9.651-11.832c5.6-6.863 13.89-10.799 22.746-10.799h16.6c6.573 0 12.068-1.483 16.333-4.408 1.137-.78 2.695-.492 3.476.647s.491 2.695-.647 3.476c-5.112 3.507-11.559 5.285-19.161 5.285h-16.6c-7.348 0-14.226 3.266-18.871 8.959l-9.651 11.831c-.496.607-1.215.921-1.941.921z"/></g></g></g></svg>