<svg enable-background="new 0 0 256 256" height="512" viewBox="0 0 256 256" width="512" xmlns="http://www.w3.org/2000/svg"><g id="Layer_57"><g><g><path d="m40.611 253.5h20c0-12.235 0-238.765 0-251h-20z" fill="#87d147"/></g><g><path d="m195.389 2.5v251h20c0-12.235 0-238.765 0-251z" fill="#87d147"/></g><g><ellipse cx="67.86" cy="41.649" fill="#b2e26d" rx="10.233" ry="5" transform="matrix(.559 -.829 .829 .559 -4.607 74.635)"/></g><g><ellipse cx="25.995" cy="34.481" fill="#b2e26d" rx="6.5" ry="13.303" transform="matrix(.389 -.921 .921 .389 -15.876 45.038)"/></g><g><ellipse cx="33.262" cy="168.649" fill="#b2e26d" rx="5" ry="10.233" transform="matrix(.829 -.559 .559 .829 -88.591 47.402)"/></g><g><ellipse cx="19.871" cy="179.912" fill="#f5c84c" rx="17.372" ry="8.489" transform="matrix(1 -.01 .01 1 -1.848 .214)"/></g><g><ellipse cx="188.14" cy="119.649" fill="#b2e26d" rx="5" ry="10.233" transform="matrix(.829 -.559 .559 .829 -34.743 125.607)"/></g><g><ellipse cx="230.005" cy="34.481" fill="#f5c84c" rx="13.303" ry="6.5" transform="matrix(.921 -.389 .389 .921 4.672 92.069)"/></g><g><ellipse cx="222.738" cy="168.649" fill="#b2e26d" rx="10.233" ry="5" transform="matrix(.559 -.829 .829 .559 -41.609 259.065)"/></g><g><ellipse cx="236.129" cy="179.912" fill="#b2e26d" rx="8.489" ry="17.372" transform="matrix(.01 -1 1 .01 53.8 414.18)"/></g><g><path d="m177.19 88.463c-.173-15.815-24.206-15.815-24.379 0-.001.09-.001.181-.001.272 0 7.893 3.76 14.895 9.578 19.347 1.547 1.184 3.679 1.184 5.226 0 5.818-4.452 9.578-11.455 9.578-19.347-.001-.091-.001-.181-.002-.272z" fill="#fca265"/></g><g><path d="m115.81 92.463c.173-15.815 24.206-15.815 24.379 0 .001.09.001.181.001.272 0 7.893-3.76 14.895-9.578 19.347-1.547 1.184-3.679 1.184-5.226 0-5.818-4.452-9.578-11.455-9.578-19.347.001-.091.001-.181.002-.272z" fill="#fca265"/></g><g><path d="m78.81 88.463c.173-15.815 24.206-15.815 24.379 0 .001.09.001.181.001.272 0 7.893-3.76 14.895-9.578 19.347-1.547 1.184-3.679 1.184-5.226 0-5.818-4.452-9.578-11.455-9.578-19.347.001-.091.001-.181.002-.272z" fill="#fca265"/></g><g><path d="m177.19 164.463c-.173-15.815-24.206-15.815-24.379 0-.001.09-.001.181-.001.272 0 7.893 3.76 14.895 9.578 19.347 1.547 1.184 3.679 1.184 5.226 0 5.818-4.452 9.578-11.455 9.578-19.347-.001-.091-.001-.181-.002-.272z" fill="#fca265"/></g><g><path d="m115.81 168.463c.173-15.815 24.206-15.815 24.379 0 .001.09.001.181.001.272 0 7.893-3.76 14.895-9.578 19.347-1.547 1.184-3.679 1.184-5.226 0-5.818-4.452-9.578-11.455-9.578-19.347.001-.091.001-.181.002-.272z" fill="#fca265"/></g><g><path d="m78.81 164.463c.173-15.815 24.206-15.815 24.379 0 .001.09.001.181.001.272 0 7.893-3.76 14.895-9.578 19.347-1.547 1.184-3.679 1.184-5.226 0-5.818-4.452-9.578-11.455-9.578-19.347.001-.091.001-.181.002-.272z" fill="#fca265"/></g><g><path d="m97.35 215.2c-3.1-.6-5.6-3-6.2-6.1 0-.1-.3-.1-.3 0-.6 3.1-3.1 5.5-6.2 6.1-.1 0-.1.2 0 .3 3.1.6 5.6 3 6.2 6.1 0 .1.3.1.3 0 .6-3.1 3.1-5.5 6.2-6.1.1-.1.1-.3 0-.3z" fill="#fc657e"/></g><g><path d="m146.9 237.9h2.3v2.3c0 1.8 1.4 3.2 3.2 3.2 1.7 0 3.2-1.4 3.2-3.1v-.1-2.3h2.3c1.8 0 3.2-1.4 3.2-3.2 0-1.7-1.4-3.2-3.1-3.2h-.1-2.3v-2.3c0-1.8-1.4-3.2-3.2-3.2-1.7 0-3.2 1.4-3.2 3.1v.1 2.3h-2.3c-1.8 0-3.2 1.4-3.2 3.2-.1 1.7 1.3 3.2 3.2 3.2-.1 0-.1 0 0 0z" fill="#70d6f9"/></g><g><circle cx="125.3" cy="252.6" fill="#f5c84c" r="3.4"/></g><g><circle cx="129.3" cy="3.4" fill="#87d147" r="3.4"/></g><g><path d="m94.7 24.2c4.5-.8 8-4.3 8.9-8.7 0-.2.4-.2.4 0 .9 4.4 4.4 7.9 8.9 8.7.2 0 .2.3 0 .4-4.5.8-8 4.3-8.9 8.7 0 .2-.4.2-.4 0-.9-4.4-4.4-7.9-8.9-8.7-.2-.1-.2-.4 0-.4z" fill="#f5c84c"/></g><g><path d="m60.611 256c-1.381 0-2.5-1.119-2.5-2.5v-251c0-1.381 1.119-2.5 2.5-2.5s2.5 1.119 2.5 2.5v251c0 1.381-1.119 2.5-2.5 2.5z"/></g><g><path d="m40.611 256c-1.381 0-2.5-1.119-2.5-2.5v-251c0-1.381 1.119-2.5 2.5-2.5s2.5 1.119 2.5 2.5v251c0 1.381-1.119 2.5-2.5 2.5z"/></g><g><g><path d="m59.624 27.5h-18.718c-1.381 0-2.5-1.119-2.5-2.5s1.119-2.5 2.5-2.5h18.718c1.381 0 2.5 1.119 2.5 2.5s-1.12 2.5-2.5 2.5z"/></g><g><path d="m59.624 53.25h-18.718c-1.381 0-2.5-1.119-2.5-2.5s1.119-2.5 2.5-2.5h18.718c1.381 0 2.5 1.119 2.5 2.5s-1.12 2.5-2.5 2.5z"/></g><g><path d="m59.624 79h-18.718c-1.381 0-2.5-1.119-2.5-2.5s1.119-2.5 2.5-2.5h18.718c1.381 0 2.5 1.119 2.5 2.5s-1.12 2.5-2.5 2.5z"/></g><g><path d="m59.624 104.75h-18.718c-1.381 0-2.5-1.119-2.5-2.5s1.119-2.5 2.5-2.5h18.718c1.381 0 2.5 1.119 2.5 2.5s-1.12 2.5-2.5 2.5z"/></g><g><path d="m59.624 130.5h-18.718c-1.381 0-2.5-1.119-2.5-2.5s1.119-2.5 2.5-2.5h18.718c1.381 0 2.5 1.119 2.5 2.5s-1.12 2.5-2.5 2.5z"/></g><g><path d="m59.624 156.25h-18.718c-1.381 0-2.5-1.119-2.5-2.5s1.119-2.5 2.5-2.5h18.718c1.381 0 2.5 1.119 2.5 2.5s-1.12 2.5-2.5 2.5z"/></g><g><path d="m59.624 182h-18.718c-1.381 0-2.5-1.119-2.5-2.5s1.119-2.5 2.5-2.5h18.718c1.381 0 2.5 1.119 2.5 2.5s-1.12 2.5-2.5 2.5z"/></g><g><path d="m59.624 233.5h-18.718c-1.381 0-2.5-1.119-2.5-2.5s1.119-2.5 2.5-2.5h18.718c1.381 0 2.5 1.119 2.5 2.5s-1.12 2.5-2.5 2.5z"/></g><g><path d="m59.624 207.75h-18.718c-1.381 0-2.5-1.119-2.5-2.5s1.119-2.5 2.5-2.5h18.718c1.381 0 2.5 1.119 2.5 2.5s-1.12 2.5-2.5 2.5z"/></g></g><g><path d="m62.139 52.634c-1.076 0-2.042-.692-2.377-1.729-1.482-4.574-.798-9.477 1.879-13.448 2.677-3.971 6.964-6.443 11.761-6.786 1.146-.076 2.201.629 2.556 1.724 1.483 4.574.798 9.476-1.879 13.447s-6.963 6.444-11.761 6.787c-.06.003-.12.005-.179.005zm3.648-12.383c-1.41 2.093-2.003 4.569-1.722 7.027 2.384-.661 4.458-2.14 5.868-4.232s2.003-4.568 1.722-7.026c-2.384.661-4.458 2.139-5.868 4.231z"/></g><g><path d="m30.021 44.304c-2.546 0-5.098-.507-7.522-1.529-5.522-2.328-9.595-6.996-11.174-12.807-.301-1.109.193-2.281 1.197-2.84 5.262-2.927 11.447-3.269 16.97-.94s9.596 6.996 11.174 12.807c.301 1.109-.193 2.281-1.198 2.84-2.951 1.641-6.194 2.469-9.447 2.469zm-13.188-13.686c1.461 3.397 4.152 6.092 7.608 7.549 3.456 1.458 7.262 1.503 10.716.177-1.461-3.398-4.152-6.092-7.607-7.549s-7.264-1.503-10.717-.177z"/></g><g><path d="m38.983 179.634c-.06 0-.119-.002-.179-.006-4.798-.343-9.084-2.816-11.761-6.787s-3.362-8.872-1.879-13.447c.354-1.095 1.416-1.801 2.556-1.724 4.797.343 9.084 2.815 11.761 6.786 2.677 3.971 3.362 8.873 1.88 13.448-.337 1.037-1.302 1.73-2.378 1.73zm-9.517-16.614c-.281 2.458.312 4.935 1.722 7.026 1.411 2.093 3.483 3.571 5.868 4.232.281-2.459-.312-4.935-1.722-7.027s-3.483-3.57-5.868-4.231z"/></g><g><path d="m19.728 190.901c-7.494.001-14.472-3.361-19.18-9.249-.718-.898-.731-2.17-.032-3.082 4.639-6.052 11.653-9.567 19.243-9.646 7.547-.102 14.673 3.293 19.437 9.248.718.898.731 2.17.032 3.082-4.639 6.052-11.653 9.567-19.243 9.646-.086.001-.173.001-.257.001zm-13.922-10.844c3.721 3.79 8.742 5.929 14.127 5.844 5.36-.055 10.361-2.266 14.003-6.132-3.72-3.791-8.777-5.923-14.126-5.844-5.361.054-10.362 2.265-14.004 6.132zm13.978-8.632h.01z"/></g><g><path d="m195.389 256c-1.381 0-2.5-1.119-2.5-2.5v-251c0-1.381 1.119-2.5 2.5-2.5s2.5 1.119 2.5 2.5v251c0 1.381-1.119 2.5-2.5 2.5z"/></g><g><path d="m215.389 256c-1.381 0-2.5-1.119-2.5-2.5v-251c0-1.381 1.119-2.5 2.5-2.5s2.5 1.119 2.5 2.5v251c0 1.381-1.119 2.5-2.5 2.5z"/></g><g><g><path d="m214.361 27.5h-17.994c-1.381 0-2.5-1.119-2.5-2.5s1.119-2.5 2.5-2.5h17.994c1.381 0 2.5 1.119 2.5 2.5s-1.119 2.5-2.5 2.5z"/></g><g><path d="m214.361 53.25h-17.994c-1.381 0-2.5-1.119-2.5-2.5s1.119-2.5 2.5-2.5h17.994c1.381 0 2.5 1.119 2.5 2.5s-1.119 2.5-2.5 2.5z"/></g><g><path d="m214.361 79h-17.994c-1.381 0-2.5-1.119-2.5-2.5s1.119-2.5 2.5-2.5h17.994c1.381 0 2.5 1.119 2.5 2.5s-1.119 2.5-2.5 2.5z"/></g><g><path d="m214.361 104.75h-17.994c-1.381 0-2.5-1.119-2.5-2.5s1.119-2.5 2.5-2.5h17.994c1.381 0 2.5 1.119 2.5 2.5s-1.119 2.5-2.5 2.5z"/></g><g><path d="m214.361 130.5h-17.994c-1.381 0-2.5-1.119-2.5-2.5s1.119-2.5 2.5-2.5h17.994c1.381 0 2.5 1.119 2.5 2.5s-1.119 2.5-2.5 2.5z"/></g><g><path d="m214.361 156.25h-17.994c-1.381 0-2.5-1.119-2.5-2.5s1.119-2.5 2.5-2.5h17.994c1.381 0 2.5 1.119 2.5 2.5s-1.119 2.5-2.5 2.5z"/></g><g><path d="m214.361 182h-17.994c-1.381 0-2.5-1.119-2.5-2.5s1.119-2.5 2.5-2.5h17.994c1.381 0 2.5 1.119 2.5 2.5s-1.119 2.5-2.5 2.5z"/></g><g><path d="m214.361 233.5h-17.994c-1.381 0-2.5-1.119-2.5-2.5s1.119-2.5 2.5-2.5h17.994c1.381 0 2.5 1.119 2.5 2.5s-1.119 2.5-2.5 2.5z"/></g><g><path d="m214.361 207.75h-17.994c-1.381 0-2.5-1.119-2.5-2.5s1.119-2.5 2.5-2.5h17.994c1.381 0 2.5 1.119 2.5 2.5s-1.119 2.5-2.5 2.5z"/></g></g><g><path d="m193.861 130.634c-.059 0-.119-.002-.179-.006-4.797-.343-9.084-2.816-11.761-6.787-2.677-3.972-3.362-8.873-1.879-13.447.354-1.095 1.415-1.803 2.556-1.724 4.797.343 9.083 2.815 11.761 6.786 2.677 3.972 3.361 8.874 1.879 13.448-.336 1.037-1.301 1.73-2.377 1.73zm-9.516-16.614c-.281 2.458.311 4.934 1.722 7.026s3.484 3.571 5.868 4.232c.281-2.458-.312-4.935-1.722-7.027-1.41-2.092-3.484-3.57-5.868-4.231z"/></g><g><path d="m225.979 44.304c-3.253 0-6.495-.828-9.447-2.47-1.005-.559-1.499-1.73-1.198-2.84 1.578-5.811 5.651-10.479 11.174-12.807 5.522-2.328 11.708-1.985 16.97.94 1.004.559 1.499 1.73 1.197 2.84-1.579 5.811-5.652 10.479-11.174 12.807-2.424 1.023-4.977 1.53-7.522 1.53zm-5.136-5.96c3.453 1.327 7.26 1.28 10.716-.177s6.146-4.15 7.608-7.549c-3.453-1.326-7.261-1.28-10.716.177s-6.147 4.15-7.608 7.549z"/></g><g><path d="m217.017 179.634c-1.076 0-2.041-.692-2.377-1.729-1.482-4.575-.797-9.478 1.88-13.448 2.677-3.971 6.963-6.443 11.761-6.786 1.143-.085 2.201.629 2.556 1.724 1.482 4.575.797 9.477-1.88 13.447-2.676 3.971-6.963 6.444-11.761 6.787-.06.003-.119.005-.179.005zm3.649-12.383c-1.41 2.093-2.003 4.568-1.722 7.027 2.385-.661 4.458-2.14 5.868-4.232 1.411-2.092 2.004-4.568 1.723-7.026-2.386.661-4.459 2.139-5.869 4.231z"/></g><g><path d="m236.272 190.901c-.085 0-.171 0-.256-.001-7.59-.078-14.604-3.594-19.243-9.646-.699-.912-.686-2.184.032-3.082 4.763-5.956 11.85-9.313 19.437-9.248 7.59.078 14.604 3.594 19.243 9.646.699.912.686 2.184-.032 3.082-4.709 5.888-11.687 9.249-19.181 9.249zm-14.208-11.132c3.642 3.866 8.643 6.077 14.003 6.132 5.39.053 10.407-2.054 14.127-5.844-3.642-3.866-8.643-6.077-14.003-6.132-.069-.001-.138-.001-.207-.001-5.284 0-10.247 2.101-13.92 5.845z"/></g><g><path d="m128 79.102c-24.586 0-47.959-4.721-67.591-13.651-1.257-.571-1.812-2.054-1.24-3.311.571-1.258 2.051-1.815 3.311-1.24 18.986 8.636 41.643 13.202 65.52 13.202s46.534-4.565 65.521-13.202c1.255-.576 2.739-.017 3.311 1.24s.017 2.739-1.24 3.311c-19.633 8.93-43.006 13.651-67.592 13.651z"/></g><g><path d="m128 155.102c-24.586 0-47.959-4.721-67.591-13.651-1.257-.571-1.812-2.054-1.24-3.311.571-1.257 2.051-1.814 3.311-1.24 18.987 8.637 41.644 13.202 65.521 13.202s46.534-4.565 65.521-13.202c1.255-.575 2.739-.017 3.311 1.24s.017 2.739-1.24 3.311c-19.634 8.93-43.007 13.651-67.593 13.651z"/></g><g><path d="m165 111.464c-1.458 0-2.916-.466-4.132-1.396-6.71-5.135-10.559-12.91-10.559-21.333l.001-.299c.103-9.41 7.468-14.333 14.689-14.333s14.586 4.923 14.689 14.333l.001.299c0 8.423-3.848 16.198-10.558 21.333-1.215.93-2.673 1.396-4.131 1.396zm0-32.361c-4.772 0-9.619 2.902-9.689 9.388l-.001.244c0 6.853 3.133 13.182 8.597 17.362.653.5 1.534.5 2.188 0 5.463-4.181 8.597-10.51 8.597-17.362l-.001-.244c-.072-6.486-4.919-9.388-9.691-9.388z"/></g><g><path d="m165 98.65c-1.381 0-2.5-1.119-2.5-2.5v-25.472c0-1.381 1.119-2.5 2.5-2.5s2.5 1.119 2.5 2.5v25.472c0 1.381-1.119 2.5-2.5 2.5z"/></g><g><path d="m128 115.464c-1.458 0-2.916-.466-4.132-1.396-6.71-5.135-10.559-12.91-10.559-21.333l.001-.299c.103-9.41 7.468-14.333 14.689-14.333s14.586 4.923 14.689 14.333l.001.299c0 8.423-3.848 16.198-10.558 21.333-1.215.93-2.673 1.396-4.131 1.396zm-9.689-22.974-.001.244c0 6.853 3.133 13.182 8.597 17.362.653.5 1.534.5 2.188 0 5.463-4.181 8.597-10.51 8.597-17.362l-.001-.244c-.071-6.485-4.917-9.388-9.689-9.388s-9.621 2.903-9.691 9.388z"/></g><g><path d="m128 102.65c-1.381 0-2.5-1.119-2.5-2.5v-25.472c0-1.381 1.119-2.5 2.5-2.5s2.5 1.119 2.5 2.5v25.473c0 1.38-1.119 2.499-2.5 2.499z"/></g><g><path d="m91 111.464c-1.458 0-2.916-.466-4.132-1.396-6.71-5.135-10.559-12.91-10.559-21.333l.001-.299c.103-9.41 7.468-14.333 14.689-14.333s14.586 4.923 14.689 14.333l.001.299c0 8.423-3.848 16.198-10.558 21.333-1.215.93-2.673 1.396-4.131 1.396zm-9.689-22.974-.001.244c0 6.853 3.133 13.182 8.597 17.362.653.5 1.534.5 2.188 0 5.463-4.181 8.597-10.51 8.597-17.362l-.001-.244c-.071-6.485-4.917-9.388-9.689-9.388s-9.621 2.903-9.691 9.388z"/></g><g><path d="m91 98.65c-1.381 0-2.5-1.119-2.5-2.5v-25.472c0-1.381 1.119-2.5 2.5-2.5s2.5 1.119 2.5 2.5v25.472c0 1.381-1.119 2.5-2.5 2.5z"/></g><g><path d="m165 187.464c-1.458 0-2.916-.466-4.132-1.396-6.71-5.135-10.559-12.91-10.559-21.333l.001-.299c.103-9.41 7.468-14.333 14.689-14.333s14.586 4.923 14.689 14.333l.001.299c0 8.423-3.848 16.198-10.558 21.333-1.215.93-2.673 1.396-4.131 1.396zm0-32.361c-4.772 0-9.619 2.902-9.689 9.388l-.001.244c0 6.853 3.133 13.182 8.597 17.362.653.5 1.534.5 2.188 0 5.463-4.181 8.597-10.51 8.597-17.362l-.001-.244c-.072-6.486-4.919-9.388-9.691-9.388z"/></g><g><path d="m165 174.65c-1.381 0-2.5-1.119-2.5-2.5v-25.473c0-1.381 1.119-2.5 2.5-2.5s2.5 1.119 2.5 2.5v25.473c0 1.381-1.119 2.5-2.5 2.5z"/></g><g><path d="m128 191.464c-1.458 0-2.916-.466-4.132-1.396-6.71-5.135-10.559-12.91-10.559-21.333l.001-.299c.103-9.41 7.468-14.333 14.689-14.333s14.586 4.923 14.689 14.333l.001.299c0 8.423-3.848 16.198-10.558 21.333-1.215.93-2.673 1.396-4.131 1.396zm-9.689-22.974-.001.244c0 6.853 3.133 13.182 8.597 17.362.653.5 1.534.5 2.188 0 5.463-4.181 8.597-10.51 8.597-17.362l-.001-.244c-.071-6.485-4.917-9.388-9.689-9.388s-9.621 2.903-9.691 9.388z"/></g><g><path d="m128 178.65c-1.381 0-2.5-1.119-2.5-2.5v-25.473c0-1.381 1.119-2.5 2.5-2.5s2.5 1.119 2.5 2.5v25.473c0 1.381-1.119 2.5-2.5 2.5z"/></g><g><path d="m91 187.464c-1.458 0-2.916-.466-4.132-1.396-6.71-5.135-10.559-12.91-10.559-21.333l.001-.299c.103-9.41 7.468-14.333 14.689-14.333s14.586 4.923 14.689 14.333l.001.299c0 8.423-3.848 16.198-10.558 21.333-1.215.93-2.673 1.396-4.131 1.396zm-9.689-22.974-.001.244c0 6.853 3.133 13.182 8.597 17.362.653.5 1.534.5 2.188 0 5.463-4.181 8.597-10.51 8.597-17.362l-.001-.244c-.071-6.485-4.917-9.388-9.689-9.388s-9.621 2.903-9.691 9.388z"/></g><g><path d="m91 174.65c-1.381 0-2.5-1.119-2.5-2.5v-25.473c0-1.381 1.119-2.5 2.5-2.5s2.5 1.119 2.5 2.5v25.473c0 1.381-1.119 2.5-2.5 2.5z"/></g></g></g></svg>