<svg enable-background="new 0 0 256 256" height="512" viewBox="0 0 256 256" width="512" xmlns="http://www.w3.org/2000/svg"><g id="Layer_41"><g><g><path d="m128 30.667c6.451 0 12.713.795 18.712 2.263-.193-7.326-6.232-13.263-13.603-13.263h-10.216c-7.371 0-13.41 5.937-13.603 13.263 5.997-1.469 12.259-2.263 18.71-2.263z" fill="#414344"/></g><g><path d="m123 2.5h10v17.167h-10z" fill="#818182"/></g><g><path d="m210.83 230.167h-165.66c-2.441 0-4.42-1.979-4.42-4.42v-5.66c0-2.441 1.979-4.42 4.42-4.42h165.66c2.441 0 4.42 1.979 4.42 4.42v5.66c0 2.441-1.979 4.42-4.42 4.42z" fill="#818182"/></g><g><path d="m128 30.667c-43.331 0-78.457 35.126-78.457 78.457v106.543h156.915v-106.543c-.001-43.331-35.127-78.457-78.458-78.457z" fill="#5b5d60"/></g><g><path d="m206.457 159.167h-24.728c-1.009 0-1.827-.81-1.827-1.819-.001-14.129.004-39.243-.003-46.359-.001-1.01.817-1.821 1.827-1.821h24.732v-.043c0-3.376-.237-6.694-.651-9.957h-24.58c-.956 0-1.742-.74-1.816-1.693-1.951-25.102-9.62-46.612-20.724-60.575-7.479-3.182-15.558-5.217-24.014-5.929 17.455 5.622 31.662 32.782 34.643 66.211.095 1.066-.756 1.986-1.827 1.986h-78.978c-1.071 0-1.922-.92-1.827-1.986 2.982-33.43 17.189-60.59 34.644-66.211-8.456.713-16.535 2.748-24.014 5.929-11.104 13.961-18.774 35.472-20.724 60.574-.074.953-.861 1.693-1.816 1.693h-24.58c-.414 3.263-.651 6.582-.651 9.957v.043h24.729c1.01 0 1.828.815 1.827 1.824-.001 2.598.003 11.073 0 46.344 0 1.009-.818 1.832-1.827 1.832h-24.729v10h24.727c1.009 0 1.827.818 1.827 1.827v44.673h10v-44.673c0-1.009.818-1.827 1.827-1.827h80.149c1.009 0 1.827.818 1.827 1.827v44.673h10v-44.673c0-1.009.818-1.827 1.827-1.827h24.728v-10zm-36.555-1.825c0 1.009-.818 1.824-1.827 1.824h-80.149c-1.009 0-1.828-.813-1.827-1.822.003-19.021-.008-39.628.007-46.361.002-1.008.82-1.817 1.827-1.817h80.134c1.008 0 1.825.814 1.827 1.822.014 7.191.005 30.973.008 46.354z" fill="#818182"/></g><g><circle cx="104" cy="133.917" fill="#818182" r="5.75"/></g><g><circle cx="57.293" cy="133.917" fill="#818182" r="5.75"/></g><g><circle cx="128" cy="133.917" fill="#818182" r="5.75"/></g><g><circle cx="152" cy="133.917" fill="#818182" r="5.75"/></g><g><circle cx="116" cy="72.917" fill="#818182" r="5.75"/></g><g><circle cx="140" cy="72.917" fill="#818182" r="5.75"/></g><g><circle cx="104" cy="192.917" fill="#818182" r="5.75"/></g><g><circle cx="57.293" cy="192.917" fill="#818182" r="5.75"/></g><g><circle cx="198.707" cy="133.917" fill="#818182" r="5.75"/></g><g><circle cx="198.707" cy="192.917" fill="#818182" r="5.75"/></g><g><circle cx="128" cy="192.917" fill="#818182" r="5.75"/></g><g><circle cx="152" cy="192.917" fill="#818182" r="5.75"/></g><g><path d="m102.35 249.525c-3.1-.6-5.6-3-6.2-6.1 0-.1-.3-.1-.3 0-.6 3.1-3.1 5.5-6.2 6.1-.1 0-.1.2 0 .3 3.1.6 5.6 3 6.2 6.1 0 .1.3.1.3 0 .6-3.1 3.1-5.5 6.2-6.1.1-.1.1-.3 0-.3z" fill="#fc657e"/></g><g><path d="m208.205 44.9h2.3v2.3c0 1.8 1.4 3.2 3.2 3.2 1.7 0 3.2-1.4 3.2-3.1v-.1-2.3h2.3c1.8 0 3.2-1.4 3.2-3.2 0-1.7-1.4-3.2-3.1-3.2h-.1-2.3v-2.3c0-1.8-1.4-3.2-3.2-3.2-1.7 0-3.2 1.4-3.2 3.1v.1 2.3h-2.3c-1.8 0-3.2 1.4-3.2 3.2-.1 1.7 1.3 3.2 3.2 3.2-.1 0-.1 0 0 0z" fill="#70d6f9"/></g><g><circle cx="30.3" cy="195.4" fill="#87d147" r="3.4"/></g><g><circle cx="186.3" cy="19.4" fill="#f5c84c" r="3.4"/></g><g><path d="m9.65 167.252c4.487-.87 7.932-4.425 8.763-8.838-.003-.2.397-.206.4-.006.969 4.385 4.523 7.83 9.035 8.56.2-.003.205.297.006.4-4.487.87-7.932 4.425-8.763 8.838.003.2-.397.206-.4.006-.969-4.385-4.523-7.83-9.035-8.56-.202-.097-.206-.397-.006-.4z" fill="#f5c84c"/></g><g><path d="m210.83 232.667h-165.66c-3.815 0-6.92-3.104-6.92-6.92v-5.66c0-3.815 3.104-6.92 6.92-6.92h165.66c3.815 0 6.92 3.104 6.92 6.92v5.66c0 3.815-3.104 6.92-6.92 6.92zm-165.66-14.5c-1.059 0-1.92.861-1.92 1.92v5.66c0 1.059.861 1.92 1.92 1.92h165.66c1.059 0 1.92-.861 1.92-1.92v-5.66c0-1.059-.861-1.92-1.92-1.92z"/></g><g><path d="m206.458 217.417c-1.381 0-2.5-1.119-2.5-2.5v-105.793c0-41.883-34.074-75.958-75.958-75.958s-75.958 34.074-75.958 75.958v105.709c0 1.381-1.119 2.5-2.5 2.5s-2.5-1.119-2.5-2.5v-105.709c0-44.64 36.317-80.958 80.958-80.958s80.958 36.317 80.958 80.958v105.792c0 1.381-1.12 2.501-2.5 2.501z"/></g><g><path d="m109.317 34.871c-.057 0-.113-.002-.17-.006-1.378-.093-2.419-1.285-2.326-2.662.568-8.432 7.628-15.036 16.071-15.036h10.216c8.388 0 15.444 6.559 16.064 14.931.102 1.377-.932 2.576-2.309 2.678-1.373.114-2.576-.932-2.678-2.309-.428-5.776-5.294-10.3-11.078-10.3h-10.216c-5.822 0-10.69 4.556-11.083 10.372-.088 1.32-1.186 2.332-2.491 2.332z"/></g><g><path d="m133 21.292c-1.381 0-2.5-1.119-2.5-2.5v-16.292c0-1.381 1.119-2.5 2.5-2.5s2.5 1.119 2.5 2.5v16.292c0 1.38-1.119 2.5-2.5 2.5z"/></g><g><path d="m123 21.292c-1.381 0-2.5-1.119-2.5-2.5v-16.292c0-1.381 1.119-2.5 2.5-2.5s2.5 1.119 2.5 2.5v16.292c0 1.38-1.119 2.5-2.5 2.5z"/></g><g><path d="m76.098 217.219c-1.381 0-2.5-1.119-2.5-2.5v-43.053h-23.265c-1.381 0-2.5-1.119-2.5-2.5s1.119-2.5 2.5-2.5h23.938c2.386 0 4.327 1.941 4.327 4.328v43.725c0 1.381-1.119 2.5-2.5 2.5zm-1.827-45.552h.01zm105.631 45.333c-1.381 0-2.5-1.119-2.5-2.5v-43.506c0-2.386 1.941-4.328 4.328-4.328h23.989c1.381 0 2.5 1.119 2.5 2.5s-1.119 2.5-2.5 2.5h-23.317v42.834c0 1.381-1.119 2.5-2.5 2.5zm-10 0c-1.381 0-2.5-1.119-2.5-2.5v-42.834h-78.804v42.708c0 1.381-1.119 2.5-2.5 2.5s-2.5-1.119-2.5-2.5v-43.38c0-2.386 1.941-4.328 4.328-4.328h80.149c2.386 0 4.327 1.941 4.327 4.328v43.506c0 1.381-1.119 2.5-2.5 2.5zm35.879-55.333h-24.052c-2.386 0-4.328-1.938-4.328-4.319v-15.96c0-12.377.001-25.554-.004-30.396-.001-1.159.45-2.247 1.271-3.064.816-.813 1.902-1.26 3.056-1.26h24.003c1.381 0 2.5 1.119 2.5 2.5s-1.119 2.5-2.5 2.5h-23.33c.004 5.311.004 17.881.003 29.721v15.279h23.379c1.381 0 2.5 1.119 2.5 2.5s-1.117 2.499-2.498 2.499zm-37.707 0h-80.148c-2.386 0-4.328-1.939-4.328-4.322v-21.095c-.001-11.343-.002-21.042.007-25.271.006-2.378 1.947-4.312 4.328-4.312h80.134c2.381 0 4.323 1.937 4.327 4.317.009 4.832.009 17.153.008 29.385v16.973c0 2.385-1.942 4.325-4.328 4.325zm-79.476-5h78.804v-16.298c.001-11.695.001-23.472-.007-28.702h-78.791c-.008 4.526-.007 13.814-.005 24.583v20.417zm-14.327 5h-23.813c-1.381 0-2.5-1.119-2.5-2.5s1.119-2.5 2.5-2.5h23.141v-45h-23.224c-1.381 0-2.5-1.119-2.5-2.5s1.119-2.5 2.5-2.5h23.896c1.155 0 2.241.449 3.058 1.264.819.817 1.27 1.905 1.27 3.063v46.342c-.001 2.387-1.942 4.331-4.328 4.331zm0-50h.01zm131.01-10h-24.054c-2.242 0-4.134-1.756-4.309-3.998-1.859-23.93-8.922-44.824-19.888-58.833-.851-1.087-.66-2.659.428-3.51s2.659-.66 3.51.428c11.471 14.655 18.878 36.269 20.887 60.914h23.427c1.381 0 2.5 1.119 2.5 2.5s-1.12 2.499-2.501 2.499zm-37.792 0h-78.978c-1.213 0-2.379-.514-3.199-1.41-.817-.893-1.225-2.095-1.118-3.297 3.076-34.479 17.497-61.89 35.886-68.209 1.308-.448 2.728.247 3.177 1.552.449 1.306-.246 2.728-1.552 3.177-16.17 5.557-29.467 31.485-32.463 63.188h77.516c-2.978-31.517-16.19-57.414-32.259-63.117-1.301-.462-1.981-1.891-1.52-3.192s1.892-1.981 3.192-1.52c18.258 6.481 32.578 33.856 35.634 68.121.107 1.202-.3 2.404-1.117 3.297-.819.895-1.986 1.41-3.199 1.41zm-.664-4.264h.01zm-92.052 4.264h-23.606c-1.381 0-2.5-1.119-2.5-2.5s1.119-2.5 2.5-2.5h22.979c2.008-24.634 9.412-46.241 20.875-60.896.85-1.087 2.421-1.279 3.509-.429 1.088.851 1.28 2.422.429 3.509-10.959 14.01-18.019 34.899-19.877 58.817-.174 2.242-2.066 3.999-4.309 3.999z"/></g><g><path d="m104 142.167c-4.549 0-8.25-3.701-8.25-8.25s3.701-8.25 8.25-8.25 8.25 3.701 8.25 8.25-3.701 8.25-8.25 8.25zm0-11.5c-1.792 0-3.25 1.458-3.25 3.25s1.458 3.25 3.25 3.25 3.25-1.458 3.25-3.25-1.458-3.25-3.25-3.25z"/></g><g><path d="m57.292 142.167c-4.549 0-8.25-3.701-8.25-8.25s3.701-8.25 8.25-8.25 8.25 3.701 8.25 8.25-3.701 8.25-8.25 8.25zm0-11.5c-1.792 0-3.25 1.458-3.25 3.25s1.458 3.25 3.25 3.25 3.25-1.458 3.25-3.25-1.458-3.25-3.25-3.25z"/></g><g><path d="m128 142.167c-4.549 0-8.25-3.701-8.25-8.25s3.701-8.25 8.25-8.25 8.25 3.701 8.25 8.25-3.701 8.25-8.25 8.25zm0-11.5c-1.792 0-3.25 1.458-3.25 3.25s1.458 3.25 3.25 3.25 3.25-1.458 3.25-3.25-1.458-3.25-3.25-3.25z"/></g><g><path d="m152 142.167c-4.549 0-8.25-3.701-8.25-8.25s3.701-8.25 8.25-8.25 8.25 3.701 8.25 8.25-3.701 8.25-8.25 8.25zm0-11.5c-1.792 0-3.25 1.458-3.25 3.25s1.458 3.25 3.25 3.25 3.25-1.458 3.25-3.25-1.458-3.25-3.25-3.25z"/></g><g><path d="m116 81.167c-4.549 0-8.25-3.701-8.25-8.25s3.701-8.25 8.25-8.25 8.25 3.701 8.25 8.25-3.701 8.25-8.25 8.25zm0-11.5c-1.792 0-3.25 1.458-3.25 3.25s1.458 3.25 3.25 3.25 3.25-1.458 3.25-3.25-1.458-3.25-3.25-3.25z"/></g><g><path d="m140 81.167c-4.549 0-8.25-3.701-8.25-8.25s3.701-8.25 8.25-8.25 8.25 3.701 8.25 8.25-3.701 8.25-8.25 8.25zm0-11.5c-1.792 0-3.25 1.458-3.25 3.25s1.458 3.25 3.25 3.25 3.25-1.458 3.25-3.25-1.458-3.25-3.25-3.25z"/></g><g><path d="m104 201.167c-4.549 0-8.25-3.701-8.25-8.25s3.701-8.25 8.25-8.25 8.25 3.701 8.25 8.25-3.701 8.25-8.25 8.25zm0-11.5c-1.792 0-3.25 1.458-3.25 3.25s1.458 3.25 3.25 3.25 3.25-1.458 3.25-3.25-1.458-3.25-3.25-3.25z"/></g><g><path d="m57.292 201.167c-4.549 0-8.25-3.701-8.25-8.25s3.701-8.25 8.25-8.25 8.25 3.701 8.25 8.25-3.701 8.25-8.25 8.25zm0-11.5c-1.792 0-3.25 1.458-3.25 3.25s1.458 3.25 3.25 3.25 3.25-1.458 3.25-3.25-1.458-3.25-3.25-3.25z"/></g><g><path d="m198.708 142.167c-4.549 0-8.25-3.701-8.25-8.25s3.701-8.25 8.25-8.25 8.25 3.701 8.25 8.25-3.702 8.25-8.25 8.25zm0-11.5c-1.792 0-3.25 1.458-3.25 3.25s1.458 3.25 3.25 3.25 3.25-1.458 3.25-3.25-1.458-3.25-3.25-3.25z"/></g><g><path d="m198.708 201.167c-4.549 0-8.25-3.701-8.25-8.25s3.701-8.25 8.25-8.25 8.25 3.701 8.25 8.25-3.702 8.25-8.25 8.25zm0-11.5c-1.792 0-3.25 1.458-3.25 3.25s1.458 3.25 3.25 3.25 3.25-1.458 3.25-3.25-1.458-3.25-3.25-3.25z"/></g><g><path d="m128 201.167c-4.549 0-8.25-3.701-8.25-8.25s3.701-8.25 8.25-8.25 8.25 3.701 8.25 8.25-3.701 8.25-8.25 8.25zm0-11.5c-1.792 0-3.25 1.458-3.25 3.25s1.458 3.25 3.25 3.25 3.25-1.458 3.25-3.25-1.458-3.25-3.25-3.25z"/></g><g><path d="m152 201.167c-4.549 0-8.25-3.701-8.25-8.25s3.701-8.25 8.25-8.25 8.25 3.701 8.25 8.25-3.701 8.25-8.25 8.25zm0-11.5c-1.792 0-3.25 1.458-3.25 3.25s1.458 3.25 3.25 3.25 3.25-1.458 3.25-3.25-1.458-3.25-3.25-3.25z"/></g></g></g></svg>