<svg enable-background="new 0 0 256 256" height="512" viewBox="0 0 256 256" width="512" xmlns="http://www.w3.org/2000/svg"><g id="Layer_53"><g><g><path d="m213.201 91.293c-5.569-18.934-20.047-25.616-50.118-44.55-12.731-8.016-25.775-27.963-31.784-41.945-1.241-2.888-5.356-2.888-6.597 0-6.009 13.982-19.053 33.929-31.784 41.945-30.071 18.934-44.55 25.616-50.118 44.55s-31.185 35.64-22.275 57.915-4.455 46.777 32.299 61.256c36.752 14.478 75.176-2.228 75.176-2.228s38.424 16.706 75.178 2.227 23.389-38.981 32.299-61.256-16.707-38.98-22.276-57.914z" fill="#f5c84c"/></g><g><path d="m31.35 88.2c-3.1-.6-5.6-3-6.2-6.1 0-.1-.3-.1-.3 0-.6 3.1-3.1 5.5-6.2 6.1-.1 0-.1.2 0 .3 3.1.6 5.6 3 6.2 6.1 0 .1.3.1.3 0 .6-3.1 3.1-5.5 6.2-6.1.1-.1.1-.3 0-.3z" fill="#87d147"/></g><g><path d="m68.9 238.9h2.3v2.3c0 1.8 1.4 3.2 3.2 3.2 1.7 0 3.2-1.4 3.2-3.1v-.1-2.3h2.3c1.8 0 3.2-1.4 3.2-3.2 0-1.7-1.4-3.2-3.1-3.2h-.1-2.3v-2.3c0-1.8-1.4-3.2-3.2-3.2-1.7 0-3.2 1.4-3.2 3.1v.1 2.3h-2.3c-1.8 0-3.2 1.4-3.2 3.2-.1 1.7 1.3 3.2 3.2 3.2-.1 0-.1 0 0 0z" fill="#f5c84c"/></g><g><circle cx="108.3" cy="252.6" fill="#fc657e" r="3.4"/></g><g><circle cx="156.3" cy="3.4" fill="#70d6f9" r="3.4"/></g><g><path d="m169.7 25.2c4.5-.8 8-4.3 8.9-8.7 0-.2.4-.2.4 0 .9 4.4 4.4 7.9 8.9 8.7.2 0 .2.3 0 .4-4.5.8-8 4.3-8.9 8.7 0 .2-.4.2-.4 0-.9-4.4-4.4-7.9-8.9-8.7-.2-.1-.2-.4 0-.4z" fill="#fc657e"/></g><g><path d="m170.352 218.916c-21.045 0-38.057-6.248-42.352-7.974-6.458 2.594-41.662 15.412-76.094 1.848-26.948-10.616-28.437-26.899-29.876-42.646-.608-6.654-1.237-13.534-3.827-20.007-6.208-15.52 2.69-28.14 11.295-40.345 4.636-6.576 9.015-12.787 10.902-19.204 5.126-17.429 17.658-25.18 40.409-39.252 3.347-2.07 6.934-4.289 10.776-6.708 11.824-7.444 24.704-26.586 30.82-40.817.975-2.269 3.119-3.679 5.595-3.679s4.621 1.409 5.596 3.679c6.115 14.231 18.995 33.373 30.819 40.817 3.842 2.419 7.429 4.637 10.774 6.707 22.752 14.072 35.284 21.824 40.41 39.253 1.888 6.416 6.267 12.627 10.902 19.203 8.605 12.205 17.504 24.826 11.296 40.346-2.589 6.473-3.219 13.353-3.827 20.007-1.439 15.747-2.928 32.03-29.877 42.646-11.529 4.542-23.147 6.126-33.741 6.126zm-42.352-13.179c.339 0 .678.068.996.206.375.163 37.944 16.108 73.266 2.194 24.082-9.486 25.31-22.908 26.73-38.449.641-7.011 1.304-14.26 4.163-21.409 5.2-12.999-2.543-23.98-10.739-35.607-4.667-6.618-9.492-13.463-11.613-20.674-4.586-15.593-15.834-22.55-38.243-36.411-3.356-2.076-6.955-4.302-10.809-6.729-12.814-8.067-26.175-27.775-32.749-43.073-.244-.568-.732-.653-1.002-.653-.269 0-.757.085-1.001.653-6.575 15.298-19.935 35.005-32.75 43.073-3.854 2.428-7.453 4.653-10.81 6.729-22.408 13.86-33.656 20.817-38.242 36.41-2.121 7.211-6.946 14.056-11.613 20.675-8.196 11.626-15.938 22.607-10.739 35.606 2.859 7.149 3.522 14.398 4.163 21.408 1.421 15.542 2.648 28.964 26.73 38.45 35.32 13.913 72.89-2.031 73.266-2.194.318-.136.657-.205.996-.205z"/></g><g><path d="m128 253.767c-1.381 0-2.5-1.119-2.5-2.5v-205.534c0-1.381 1.119-2.5 2.5-2.5s2.5 1.119 2.5 2.5v205.533c0 1.381-1.119 2.501-2.5 2.501z"/></g><g><path d="m127.501 86.479c-.682 0-1.358-.277-1.848-.815-.158-.155-1.838-1.752-10.621-8.119-10.062-7.296-17.038-14.485-17.33-14.788-.959-.993-.931-2.575.062-3.534.993-.96 2.575-.932 3.535.061.069.071 6.982 7.189 16.669 14.213 6.519 4.727 10.695 7.967 11.459 8.89.88 1.064.73 2.641-.333 3.521-.467.383-1.032.571-1.593.571z"/></g><g><path d="m127.5 113.952c-.61 0-1.22-.222-1.698-.665-.195-.166-2.733-2.233-17.584-11.145-16.354-9.812-27.68-19.472-28.154-19.878-1.048-.898-1.169-2.477-.271-3.525.898-1.047 2.476-1.169 3.525-.271.113.097 11.5 9.805 27.472 19.388 15.426 9.255 18.043 11.395 18.478 11.829.977.977.977 2.56 0 3.535-.489.488-1.128.732-1.768.732z"/></g><g><path d="m127.5 143.618c-.64 0-1.28-.244-1.768-.732-.059-.048-3.193-2.764-25.234-15.988-23.29-13.974-39.918-28.157-40.083-28.299-1.048-.898-1.169-2.477-.271-3.525.897-1.049 2.475-1.169 3.525-.271.162.139 16.493 14.063 39.401 27.809 22.501 13.501 25.77 16.313 26.197 16.74.977.977.977 2.559 0 3.535-.487.487-1.127.731-1.767.731z"/></g><g><path d="m127.498 168.98c-.535 0-1.074-.171-1.53-.524-.095-.064-4.071-2.768-32.929-16.199-24.285-11.303-42.7-22.552-49.49-26.863-1.166-.74-1.511-2.285-.771-3.45.739-1.166 2.284-1.511 3.45-.771 6.708 4.259 24.902 15.372 48.92 26.551 29.765 13.854 33.55 16.522 33.883 16.781 1.091.847 1.289 2.417.443 3.508-.491.634-1.229.967-1.976.967z"/></g><g><path d="m127.498 196.618c-.504 0-1.013-.151-1.454-.468-.108-.067-4.347-2.739-35.441-16.1-22.083-9.489-39.804-19.049-48.402-23.902-1.202-.679-1.627-2.203-.948-3.405.679-1.203 2.202-1.629 3.406-.948 8.51 4.804 26.051 14.266 47.917 23.662 31.971 13.736 36.022 16.373 36.379 16.629 1.123.804 1.381 2.365.577 3.488-.487.681-1.255 1.044-2.034 1.044z"/></g><g><path d="m85.783 200.209c-.936 0-1.833-.528-2.26-1.43-.592-1.248-.06-2.738 1.188-3.33 2.026-.961 4.144-2.263 6.294-3.868 10.544-7.877 19.136-7.968 19.496-7.968 1.381 0 2.5 1.119 2.5 2.5 0 1.376-1.112 2.493-2.487 2.5-.146.003-7.449.199-16.517 6.974-2.415 1.804-4.818 3.277-7.144 4.38-.347.164-.711.242-1.07.242z"/></g><g><path d="m60.402 187.637c-1.135 0-2.163-.778-2.432-1.932-.314-1.345.52-2.689 1.865-3.004 1.767-.413 4.657-1.472 8.392-4.169 8.65-6.247 15.735-6.319 16.032-6.319 1.381 0 2.5 1.119 2.5 2.5 0 1.375-1.111 2.491-2.484 2.5-.113.002-5.911.165-13.12 5.372-3.538 2.556-6.963 4.232-10.181 4.985-.192.045-.383.067-.572.067z"/></g><g><path d="m44.889 171.021c-1.372 0-2.489-1.106-2.5-2.48-.011-1.381 1.1-2.509 2.48-2.52 1.766-.014 4.727-.371 8.809-1.996 2.781-1.107 5.583-1.876 8.327-2.284 1.374-.203 2.638.739 2.841 2.104.203 1.366-.739 2.638-2.104 2.841-2.364.352-4.791 1.02-7.214 1.983-3.856 1.536-7.429 2.327-10.62 2.352-.006 0-.012 0-.019 0z"/></g><g><path d="m128.429 78.479c-.561 0-1.125-.188-1.591-.573-1.064-.88-1.214-2.456-.334-3.52.764-.924 4.94-4.164 11.458-8.891 9.71-7.039 16.601-14.142 16.669-14.212.96-.992 2.542-1.02 3.535-.063.993.959 1.021 2.542.063 3.535-.292.303-7.269 7.492-17.331 14.788-8.781 6.366-10.462 7.963-10.62 8.119-.49.54-1.168.817-1.849.817z"/></g><g><path d="m128.43 105.952c-.64 0-1.279-.244-1.768-.732-.977-.976-.977-2.559 0-3.535.435-.435 3.053-2.574 18.479-11.829 15.971-9.583 27.359-19.291 27.473-19.388 1.048-.896 2.627-.776 3.525.271.898 1.049.776 2.627-.271 3.525-.475.406-11.801 10.066-28.154 19.878-14.852 8.911-17.389 10.979-17.585 11.145-.48.443-1.089.665-1.699.665z"/></g><g><path d="m128.412 135.665c-.642 0-1.285-.252-1.781-.748-.977-.977-.944-2.59.032-3.566.427-.427 3.695-3.239 26.197-16.74 22.908-13.746 39.239-27.67 39.401-27.809 1.048-.896 2.625-.778 3.525.271.898 1.049.776 2.627-.271 3.525-.165.142-16.794 14.325-40.083 28.299-22.041 13.225-25.175 15.94-25.298 16.05-.481.481-1.101.718-1.722.718z"/></g><g><path d="m128.404 161.017c-.745 0-1.482-.34-1.979-.981-.846-1.091-.618-2.684.473-3.53.333-.259 4.119-2.928 33.883-16.781 24.017-11.178 42.212-22.292 48.92-26.551 1.162-.739 2.709-.396 3.45.771.74 1.165.396 2.71-.771 3.45-6.79 4.312-25.207 15.562-49.49 26.863-28.857 13.432-32.833 16.135-32.988 16.243-.449.349-.975.516-1.498.516z"/></g><g><path d="m128.403 188.651c-.777 0-1.542-.371-2.034-1.058-.804-1.123-.517-2.704.605-3.508.356-.256 4.407-2.893 36.378-16.629 21.865-9.396 39.407-18.858 47.919-23.662 1.198-.68 2.727-.256 3.405.948.679 1.202.255 2.727-.948 3.405-8.599 4.854-26.32 14.414-48.401 23.902-31.095 13.359-35.333 16.032-35.498 16.14-.435.313-.933.462-1.426.462z"/></g><g><path d="m170.146 192.209c-.358 0-.724-.078-1.069-.242-2.325-1.103-4.729-2.576-7.144-4.38-9.228-6.894-16.433-6.974-16.504-6.974-1.381 0-2.5-1.119-2.5-2.5s1.119-2.5 2.5-2.5c.36 0 8.952.091 19.496 7.968 2.15 1.605 4.268 2.907 6.294 3.868 1.247.592 1.779 2.082 1.188 3.33-.428.902-1.325 1.43-2.261 1.43z"/></g><g><path d="m195.527 179.637c-.188 0-.38-.021-.571-.066-3.219-.754-6.644-2.431-10.181-4.985-7.244-5.232-13.063-5.371-13.121-5.372-1.374-.019-2.484-1.144-2.475-2.517.01-1.374 1.117-2.483 2.491-2.483.298 0 7.384.072 16.032 6.319 3.734 2.696 6.625 3.756 8.392 4.169 1.345.315 2.18 1.66 1.865 3.004-.27 1.152-1.297 1.931-2.432 1.931z"/></g><g><path d="m211.041 163.021c-.006 0-.013 0-.02 0-3.19-.024-6.763-.815-10.62-2.352-2.422-.964-4.849-1.631-7.213-1.983-1.365-.203-2.308-1.476-2.104-2.841s1.466-2.312 2.841-2.104c2.745.408 5.547 1.177 8.326 2.284 4.083 1.625 7.044 1.982 8.81 1.996 1.381.011 2.491 1.139 2.48 2.52-.011 1.373-1.128 2.48-2.5 2.48z"/></g></g></g></svg>