<svg enable-background="new 0 0 256 256" height="512" viewBox="0 0 256 256" width="512" xmlns="http://www.w3.org/2000/svg"><g id="Layer_49"><g><g><path d="m185.123 195.802c-.274-4.92-3.715-9.089-8.493-10.292l-15.447-3.888c-8.187-2.061-14.626-5.592-14.542-5.55-3.366-1.66-5.497-5.087-5.497-8.84v-4.643c-3.94 2.063-8.41 3.237-13.144 3.237-4.734 0-9.204-1.175-13.144-3.237v4.643c0 3.753-2.131 7.18-5.497 8.84-4.548 2.243-8.518 4.034-14.542 5.55l-15.447 3.888c-4.778 1.203-8.219 5.373-8.493 10.292l-3.154 54.394c-.1 1.794 1.328 3.304 3.125 3.304h114.304c1.797 0 3.225-1.51 3.125-3.304z" fill="#f9d0b4"/></g><g><g><path d="m250.341 125.644c-.274-4.92-3.715-9.089-8.493-10.292l-15.447-3.888c-8.187-2.061-14.626-5.592-14.542-5.551-3.366-1.66-5.497-5.087-5.497-8.84v-4.643c-3.94 2.063-8.41 3.237-13.144 3.237-4.734 0-9.204-1.175-13.144-3.237v4.643c0 3.753-2.131 7.18-5.497 8.84-3.347 1.65-6.387 3.055-10.156 4.286v7.02c3.499 2.075 5.853 5.879 5.853 10.242 0 6.579-5.333 11.912-11.912 11.912-.649 0-1.282-.066-1.903-.166v-.001c-.681 10.151-6.729 18.887-15.316 23.381h.001v4.643c0 3.753 2.131 7.18 5.497 8.84-.084-.041 6.355 3.49 14.542 5.55l6.836 1.72h82.351c1.797 0 3.225-1.51 3.125-3.304z" fill="#f9d0b4"/></g></g><g><g><path d="m94.817 181.622c6.024-1.516 9.994-3.308 14.542-5.55 3.366-1.66 5.497-5.087 5.497-8.84v-4.643h.001c-8.587-4.494-14.635-13.23-15.316-23.381-.621.1-1.253.166-1.903.166-6.579 0-11.912-5.333-11.912-11.912 0-4.39 2.381-8.215 5.916-10.281v-6.978c-6.017-1.983-10.287-4.324-10.219-4.291-3.366-1.66-5.497-5.087-5.497-8.84v-4.643c-3.94 2.063-8.41 3.237-13.144 3.237-4.734 0-9.204-1.175-13.144-3.237v4.643c0 3.753-2.131 7.18-5.497 8.84-4.548 2.242-8.518 4.034-14.542 5.55l-15.446 3.888c-4.778 1.203-8.219 5.373-8.493 10.292l-3.154 54.394c-.1 1.794 1.328 3.304 3.125 3.304h82.351z" fill="#f9d0b4"/></g></g><g><path d="m109.359 176.072c-4.548 2.242-8.518 4.034-14.542 5.55l-10.905 2.745v13.625c0 3.177 2.448 5.948 5.624 6.043 3.286.099 5.982-2.536 5.982-5.8v-2.435c0-3.177 2.448-5.948 5.625-6.043 3.286-.099 5.982 2.536 5.982 5.8v18.505c0 3.177 2.448 5.948 5.624 6.043 3.286.099 5.982-2.536 5.982-5.8v-26.919c0-3.13 2.537-5.667 5.667-5.667s5.667 2.537 5.667 5.667v4.935c0 3.177 2.448 5.948 5.624 6.043 3.286.099 5.982-2.536 5.982-5.8v-5.178c0-3.13 2.537-5.667 5.667-5.667h10.545c.911 0 1.804-.095 2.674-.263-7.883-2.078-13.995-5.424-13.914-5.383-3.366-1.66-5.497-5.087-5.497-8.84v-4.643c-3.94 2.063-8.41 3.237-13.144 3.237-4.734 0-9.204-1.175-13.144-3.237v4.643c-.002 3.751-2.133 7.179-5.499 8.839z" fill="#818182"/></g><g><path d="m91.643 117.182v-6.978c-6.017-1.983-10.287-4.324-10.219-4.291-3.366-1.66-5.497-5.087-5.497-8.84v-4.643c-3.94 2.063-8.41 3.237-13.144 3.237-4.734 0-9.204-1.175-13.144-3.237v4.643c0 3.753-2.131 7.18-5.497 8.84-4.548 2.242-8.518 4.034-14.542 5.55l-15.446 3.888c-1.566.395-2.985 1.113-4.2 2.067.046 4.582 5.691 12.572 10.655 13.824 1.357.342 2.302 1.568 2.302 2.967v9.782c0 3.177 2.448 5.948 5.624 6.043 3.286.099 5.982-2.536 5.982-5.8v-2.435c0-3.177 2.448-5.948 5.625-6.043 3.286-.099 5.982 2.536 5.982 5.8v18.505c0 3.177 2.448 5.948 5.624 6.043 3.286.099 5.982-2.536 5.982-5.8v-26.919c0-3.13 2.537-5.667 5.667-5.667s5.667 2.537 5.667 5.667v4.935c0 3.177 2.448 5.948 5.624 6.043 3.286.099 5.982-2.536 5.982-5.8v-5.178c0-2.929 2.222-5.338 5.072-5.635-.002-.096-.014-.19-.014-.287-.001-4.39 2.38-8.215 5.915-10.281z" fill="#818182"/></g><g><path d="m173.498 106.658c1.082 5.792 5.57 10.186 11.112 11.584 1.357.342 2.302 1.568 2.302 2.967v13.782c0 3.177 2.448 5.948 5.625 6.043 3.286.099 5.981-2.536 5.981-5.8v-2.435c0-3.177 2.448-5.948 5.625-6.043 3.286-.099 5.982 2.536 5.982 5.8v18.505c0 3.177 2.448 5.948 5.624 6.043 3.286.099 5.982-2.536 5.982-5.8v-26.919c0-3.13 2.537-5.667 5.667-5.667s5.667 2.537 5.667 5.667v4.935c0 3.177 2.448 5.948 5.624 6.043 3.286.099 5.982-2.536 5.982-5.8v-5.178c0-2.26 1.326-4.206 3.24-5.115-1.501-1.889-3.602-3.299-6.062-3.918l-15.447-3.888c-8.187-2.061-14.626-5.592-14.542-5.551-3.366-1.66-5.497-5.087-5.497-8.84v-4.643c-3.94 2.063-8.41 3.237-13.144 3.237-4.734 0-9.204-1.175-13.144-3.237v4.643c0 3.753-2.131 7.18-5.497 8.84-.372.183-.739.363-1.105.54.01.069.012.136.025.205z" fill="#818182"/></g><g><path d="m112.931 222.607c-.086 0-.172-.001-.258-.004-4.438-.133-8.05-3.965-8.05-8.542v-18.505c0-.901-.356-1.743-1.003-2.371s-1.498-.948-2.403-.931c-1.765.053-3.199 1.643-3.199 3.544v2.435c0 2.265-.896 4.381-2.521 5.958-1.627 1.578-3.778 2.4-6.037 2.341-4.438-.133-8.049-3.965-8.049-8.542v-13.625c0-1.146.778-2.145 1.89-2.424l10.905-2.745c5.967-1.502 9.892-3.32 14.047-5.368 2.531-1.249 4.104-3.777 4.104-6.598v-4.643c0-.875.457-1.686 1.206-2.139.747-.453 1.679-.482 2.453-.076 3.742 1.959 7.773 2.952 11.984 2.952 4.209 0 8.242-.993 11.985-2.952.773-.406 1.704-.376 2.454.076.748.453 1.205 1.264 1.205 2.139v4.643c0 2.822 1.572 5.351 4.103 6.598.043.021.086.043.127.067.303.163 6.038 3.221 13.318 5.141 1.127.297 1.899 1.335 1.861 2.5-.039 1.166-.879 2.149-2.023 2.371-1.058.205-2.116.309-3.148.309h-10.546c-1.746 0-3.167 1.421-3.167 3.167v5.178c0 2.265-.896 4.381-2.521 5.959-1.625 1.577-3.78 2.403-6.035 2.34-4.438-.133-8.049-3.965-8.049-8.542v-4.935c0-1.746-1.421-3.167-3.167-3.167s-3.167 1.421-3.167 3.167v26.919c0 2.265-.896 4.381-2.521 5.959-1.564 1.519-3.607 2.346-5.778 2.346zm-11.607-35.354c2.171 0 4.214.827 5.777 2.344 1.626 1.578 2.521 3.694 2.521 5.959v18.505c0 1.901 1.436 3.492 3.2 3.544.899.033 1.757-.303 2.403-.931s1.003-1.47 1.003-2.371v-26.919c0-4.503 3.664-8.167 8.167-8.167s8.167 3.664 8.167 8.167v4.935c0 1.901 1.435 3.492 3.199 3.544.908.034 1.757-.303 2.403-.931s1.003-1.47 1.003-2.371v-5.178c0-4.485 3.634-8.137 8.112-8.167-.826-.385-1.417-.689-1.845-.954-4.192-2.113-6.792-6.33-6.792-11.033v-.808c-6.811 2.502-14.483 2.5-21.288 0v.807c0 4.739-2.641 8.986-6.893 11.083-4.415 2.177-8.595 4.111-15.037 5.732l-9.016 2.269v11.676c0 1.901 1.435 3.492 3.199 3.544.902.021 1.758-.303 2.404-.931s1.003-1.47 1.003-2.371v-2.435c0-4.577 3.61-8.409 8.049-8.542.089.001.175 0 .261 0zm8.034-11.181h.01z"/></g><g><path d="m51.931 168.607c-.086 0-.172-.001-.258-.004-4.438-.133-8.05-3.965-8.05-8.542v-18.505c0-.901-.356-1.743-1.003-2.371-.646-.627-1.491-.952-2.403-.931-1.765.053-3.199 1.643-3.199 3.544v2.435c0 2.265-.896 4.381-2.521 5.958-1.626 1.578-3.79 2.405-6.037 2.341-4.438-.133-8.049-3.965-8.049-8.542v-9.782c0-.258-.17-.481-.413-.542-5.98-1.509-11.975-9.914-12.505-15.48-.132-1.375.877-2.595 2.251-2.726 1.386-.131 2.595.877 2.726 2.251.344 3.6 5.097 10.184 8.751 11.106 2.467.622 4.19 2.838 4.19 5.391v9.782c0 1.901 1.435 3.492 3.199 3.544.895.023 1.758-.304 2.404-.931.646-.628 1.003-1.47 1.003-2.371v-2.435c0-4.577 3.61-8.409 8.049-8.542 2.256-.076 4.409.763 6.035 2.34 1.626 1.578 2.521 3.694 2.521 5.959v18.505c0 1.901 1.436 3.492 3.2 3.544.906.029 1.757-.303 2.403-.931s1.003-1.47 1.003-2.371v-26.919c0-4.503 3.664-8.167 8.167-8.167s8.167 3.664 8.167 8.167v4.935c0 1.901 1.435 3.492 3.199 3.544.902.03 1.757-.303 2.403-.931s1.003-1.47 1.003-2.371v-5.178c0-3.877 2.757-7.245 6.555-8.006 1.345-.27 2.671.605 2.942 1.959s-.605 2.671-1.96 2.943c-1.47.295-2.537 1.6-2.537 3.104v5.178c0 2.265-.896 4.381-2.521 5.959-1.626 1.577-3.779 2.393-6.035 2.34-4.438-.133-8.049-3.965-8.049-8.542v-4.935c0-1.746-1.421-3.167-3.167-3.167s-3.167 1.421-3.167 3.167v26.919c0 2.265-.896 4.381-2.521 5.959-1.562 1.521-3.605 2.348-5.776 2.348z"/></g><g><path d="m215.931 159.607c-.086 0-.172-.001-.258-.004-4.438-.133-8.05-3.965-8.05-8.542v-18.505c0-.901-.356-1.743-1.003-2.371-.646-.627-1.489-.946-2.403-.931-1.765.053-3.199 1.643-3.199 3.544v2.435c0 2.265-.896 4.381-2.521 5.958-1.626 1.578-3.778 2.399-6.037 2.341-4.438-.133-8.049-3.965-8.049-8.542v-13.782c0-.258-.17-.481-.413-.542-6.647-1.678-11.733-6.996-12.957-13.55-.254-1.357.641-2.663 1.998-2.917 1.357-.25 2.663.641 2.916 1.999.867 4.642 4.505 8.418 9.266 9.62 2.467.622 4.19 2.838 4.19 5.391v13.782c0 1.901 1.435 3.492 3.199 3.544.895.02 1.757-.303 2.404-.931.646-.628 1.003-1.47 1.003-2.371v-2.435c0-4.577 3.61-8.409 8.049-8.542 2.249-.065 4.409.763 6.035 2.34s2.521 3.694 2.521 5.959v18.505c0 1.901 1.436 3.492 3.2 3.544.896.035 1.757-.303 2.403-.931s1.003-1.47 1.003-2.371v-26.919c0-4.503 3.664-8.167 8.167-8.167s8.167 3.664 8.167 8.167v4.935c0 1.901 1.435 3.492 3.199 3.544.904.036 1.757-.303 2.403-.931s1.003-1.47 1.003-2.371v-5.178c0-2.938 1.594-5.663 4.16-7.11 1.203-.679 2.727-.254 3.406.949.678 1.203.253 2.727-.949 3.405-.998.563-1.617 1.619-1.617 2.755v5.178c0 2.265-.896 4.381-2.521 5.959-1.626 1.577-3.786 2.404-6.035 2.34-4.438-.133-8.049-3.965-8.049-8.542v-4.935c0-1.746-1.421-3.167-3.167-3.167s-3.167 1.421-3.167 3.167v26.919c0 2.265-.896 4.381-2.521 5.959-1.562 1.521-3.605 2.348-5.776 2.348z"/></g><g><path d="m152.455 103.171c-1.866-1.957-4.899-2.137-7.025-.467-3.362 2.639-9.18 5.901-17.398 5.901-8.237 0-14.086-3.278-17.463-5.921-2.125-1.663-5.152-1.476-7.014.476l-.01.01c-2.616 2.744-4.076 6.389-4.076 10.18v23.944c0 15.692 12.839 28.53 28.53 28.53 15.692 0 28.53-12.839 28.53-28.53v-23.944c.001-3.79-1.458-7.436-4.074-10.179z" fill="#818182"/></g><g><path d="m87.237 33.013c-1.866-1.957-4.899-2.137-7.025-.467-3.362 2.639-9.18 5.901-17.398 5.901-8.237 0-14.086-3.278-17.463-5.921-2.125-1.663-5.152-1.476-7.014.476l-.01.01c-2.616 2.744-4.076 6.389-4.076 10.18v23.944c0 15.692 12.839 28.53 28.53 28.53 15.692 0 28.53-12.839 28.53-28.53v-23.943c.002-3.791-1.458-7.436-4.074-10.18z" fill="#818182"/></g><g><path d="m217.672 33.013c-1.866-1.957-4.899-2.137-7.025-.467-3.362 2.639-9.18 5.901-17.398 5.901-8.237 0-14.086-3.278-17.463-5.921-2.125-1.663-5.152-1.476-7.014.476l-.01.01c-2.616 2.744-4.076 6.389-4.076 10.18v23.944c0 15.692 12.839 28.53 28.53 28.53 15.692 0 28.53-12.839 28.53-28.53v-23.943c.002-3.791-1.457-7.436-4.074-10.18z" fill="#818182"/></g><g><path d="m158.361 115.551c-.623 0-1.234.053-1.831.145v21.599c0 .643-.029 1.28-.072 1.913.621.1 1.253.166 1.903.166 6.579 0 11.912-5.333 11.912-11.912s-5.333-11.911-11.912-11.911z" fill="#818182"/></g><g><path d="m99.47 137.295c0-2.956 0-15.722 0-21.599-.597-.093-1.208-.145-1.831-.145-6.579 0-11.912 5.333-11.912 11.912s5.333 11.912 11.912 11.912c.649 0 1.282-.066 1.903-.166-.043-.634-.072-1.271-.072-1.914z" fill="#818182"/></g><g><path d="m156.424 91.214c-.956 0-1.784-.737-1.797-1.692-.219-15.898-18.373-18.884-36.453-15.762-15.328 2.647-26.532 15.939-26.532 31.495v11.928c1.763-1.03 3.807-1.631 5.996-1.631.623 0 1.234.053 1.831.145v-2.345c0-3.791 1.459-7.437 4.076-10.18l.01-.01c1.862-1.953 4.889-2.139 7.014-.476 3.377 2.643 9.225 5.921 17.463 5.921 8.217 0 14.035-3.262 17.398-5.901 2.127-1.669 5.16-1.489 7.025.467 2.616 2.744 4.076 6.389 4.076 10.18v2.345c.597-.093 1.208-.145 1.831-.145 2.215 0 4.282.616 6.059 1.669 0-3.329 0-6.748 0-9.794-.001-14.236-5.141-16.214-7.997-16.214z" fill="#5b5d60"/></g><g><path d="m223.579 45.394c-.623 0-1.234.053-1.831.145v21.599c0 .643-.029 1.28-.072 1.913.621.1 1.253.166 1.903.166 6.579 0 11.912-5.333 11.912-11.912s-5.333-11.911-11.912-11.911z" fill="#818182"/></g><g><path d="m164.687 67.138c0-2.956 0-15.722 0-21.599-.597-.093-1.208-.145-1.831-.145-6.579 0-11.912 5.333-11.912 11.912s5.333 11.912 11.912 11.912c.649 0 1.282-.066 1.903-.166-.042-.635-.072-1.271-.072-1.914z" fill="#818182"/></g><g><path d="m221.642 21.057c-.955 0-1.784-.737-1.797-1.692-.219-15.898-18.373-18.885-36.453-15.763-15.328 2.647-26.532 15.939-26.532 31.495v11.928c1.763-1.03 3.807-1.631 5.996-1.631.623 0 1.234.053 1.831.145v-2.345c0-3.791 1.459-7.437 4.076-10.18l.01-.01c1.862-1.953 4.889-2.139 7.014-.476 3.377 2.643 9.225 5.921 17.463 5.921 8.217 0 14.035-3.262 17.398-5.901 2.127-1.669 5.16-1.489 7.025.467 2.616 2.744 4.076 6.389 4.076 10.18v2.345c.597-.093 1.208-.145 1.831-.145 2.215 0 4.282.616 6.059 1.669 0-3.329 0-6.748 0-9.794-.001-14.236-5.141-16.213-7.997-16.213z" fill="#5b5d60"/></g><g><path d="m93.144 45.394c-.623 0-1.234.053-1.831.145v21.599c0 .643-.029 1.28-.072 1.913.621.1 1.253.166 1.903.166 6.579 0 11.912-5.333 11.912-11.912s-5.334-11.911-11.912-11.911z" fill="#818182"/></g><g><path d="m34.252 67.138c0-2.956 0-15.722 0-21.599-.597-.093-1.208-.145-1.831-.145-6.579 0-11.912 5.333-11.912 11.912s5.333 11.912 11.912 11.912c.649 0 1.282-.066 1.903-.166-.043-.635-.072-1.271-.072-1.914z" fill="#818182"/></g><g><path d="m91.206 21.057c-.955 0-1.784-.737-1.797-1.692-.218-15.898-18.373-18.885-36.452-15.763-15.329 2.647-26.532 15.94-26.532 31.495v11.928c1.763-1.03 3.807-1.631 5.996-1.631.623 0 1.234.053 1.831.145v-2.345c0-3.791 1.459-7.437 4.076-10.18l.01-.01c1.862-1.953 4.889-2.139 7.014-.476 3.377 2.643 9.225 5.921 17.463 5.921 8.217 0 14.035-3.262 17.398-5.901 2.127-1.669 5.16-1.489 7.025.467 2.616 2.744 4.076 6.389 4.076 10.18v2.345c.597-.093 1.208-.145 1.831-.145 2.215 0 4.282.616 6.059 1.669 0-3.329 0-6.748 0-9.794-.001-14.236-5.142-16.213-7.998-16.213z" fill="#5b5d60"/></g><g><path d="m117.214 142.217c0 5.604 4.135 10.523 9.712 11.07 6.409.629 11.86-4.447 11.86-10.733v-.336c0-.645-.523-1.168-1.168-1.168h-19.236c-.645-.001-1.168.522-1.168 1.167z" fill="#fc657e"/></g><g><path d="m184.2 73.321c0 4.943 3.647 9.281 8.567 9.764 5.653.555 10.461-3.922 10.461-9.467v-.297c0-.569-.461-1.03-1.03-1.03h-16.967c-.57-.001-1.031.461-1.031 1.03z" fill="#fc657e"/></g><g><path d="m53.473 73.53c0 4.943 3.647 9.281 8.567 9.764 5.653.555 10.461-3.922 10.461-9.467v-.297c0-.569-.461-1.03-1.03-1.03h-16.968c-.569 0-1.03.461-1.03 1.03z" fill="#fc657e"/></g><g><path d="m53.35 211.2c-3.1-.6-5.6-3-6.2-6.1 0-.1-.3-.1-.3 0-.6 3.1-3.1 5.5-6.2 6.1-.1 0-.1.2 0 .3 3.1.6 5.6 3 6.2 6.1 0 .1.3.1.3 0 .6-3.1 3.1-5.5 6.2-6.1.1-.1.1-.3 0-.3z" fill="#fc657e"/></g><g><path d="m218.9 229.9h2.3v2.3c0 1.8 1.4 3.2 3.2 3.2 1.7 0 3.2-1.4 3.2-3.1v-.1-2.3h2.3c1.8 0 3.2-1.4 3.2-3.2 0-1.7-1.4-3.2-3.1-3.2h-.1-2.3v-2.3c0-1.8-1.4-3.2-3.2-3.2-1.7 0-3.2 1.4-3.2 3.1v.1 2.3h-2.3c-1.8 0-3.2 1.4-3.2 3.2-.1 1.7 1.3 3.2 3.2 3.2-.1 0-.1 0 0 0z" fill="#70d6f9"/></g><g><circle cx="206.3" cy="252.6" fill="#f5c84c" r="3.4"/></g><g><circle cx="145.3" cy="3.4" fill="#87d147" r="3.4"/></g><g><path d="m111.7 21.85c4.5-.8 8-4.3 8.9-8.7 0-.2.4-.2.4 0 .9 4.4 4.4 7.9 8.9 8.7.2 0 .2.3 0 .4-4.5.8-8 4.3-8.9 8.7 0 .2-.4.2-.4 0-.9-4.4-4.4-7.9-8.9-8.7-.2-.1-.2-.4 0-.4z" fill="#f5c84c"/></g><g><path d="m185.152 256h-114.304c-1.54 0-3.031-.642-4.09-1.761s-1.617-2.644-1.531-4.182l3.154-54.4c.337-6.04 4.508-11.094 10.379-12.572l15.446-3.888c5.969-1.502 9.893-3.32 14.047-5.369 2.531-1.248 4.104-3.776 4.104-6.598v-4.643c0-.875.457-1.686 1.206-2.139.747-.453 1.679-.482 2.453-.076 3.742 1.959 7.773 2.952 11.984 2.952s8.242-.993 11.984-2.952c.773-.406 1.705-.376 2.453.076.749.453 1.206 1.264 1.206 2.139v4.643c0 2.822 1.572 5.35 4.104 6.598.045.022.089.045.132.07.314.17 6.343 3.393 13.915 5.299l15.446 3.888c5.869 1.477 10.04 6.53 10.379 12.574l3.154 54.393c.086 1.544-.473 3.068-1.531 4.188s-2.55 1.76-4.09 1.76zm-67.796-89.576v.807c0 4.74-2.641 8.986-6.893 11.082-4.414 2.177-8.593 4.111-15.037 5.733l-15.446 3.888c-3.737.941-6.393 4.158-6.607 8.007l-3.154 54.4c-.013.218.087.372.172.462s.233.197.457.197h114.305c.224 0 .372-.107.457-.197s.185-.244.172-.468l-3.154-54.389c0-.001 0-.003 0-.005-.215-3.849-2.87-7.066-6.607-8.007l-15.446-3.888c-4.366-1.099-8.229-2.603-10.702-3.67-2.375-1.026-3.711-1.653-4.483-2.137-4.164-2.121-6.744-6.324-6.744-11.008v-.807c-6.809 2.501-14.483 2.501-21.29 0z"/></g><g><path d="m128 168.326c-17.11 0-31.03-13.92-31.03-31.03v-23.944c0-4.454 1.692-8.683 4.766-11.905 2.761-2.892 7.215-3.203 10.374-.729 3.142 2.458 8.454 5.389 15.922 5.389 7.452 0 12.735-2.919 15.854-5.368 3.164-2.485 7.625-2.179 10.378.708h.001c3.073 3.223 4.766 7.451 4.766 11.905v23.944c-.001 17.11-13.921 31.03-31.031 31.03zm-20.69-64.271c-.715 0-1.421.281-1.945.832-2.192 2.299-3.395 5.301-3.395 8.465v23.944c0 14.353 11.677 26.03 26.03 26.03s26.03-11.677 26.03-26.03v-23.944c0-3.163-1.202-6.166-3.384-8.455-.968-1.015-2.546-1.112-3.673-.227-3.74 2.936-10.063 6.435-18.942 6.435-8.893 0-15.242-3.508-19.004-6.452-.511-.401-1.118-.598-1.717-.598z"/></g><g><path d="m166.853 255.689c-1.381 0-2.5-1.119-2.5-2.5v-40.075c0-1.381 1.119-2.5 2.5-2.5s2.5 1.119 2.5 2.5v40.075c0 1.381-1.12 2.5-2.5 2.5z"/></g><g><path d="m89.147 255.689c-1.381 0-2.5-1.119-2.5-2.5v-40.075c0-1.381 1.119-2.5 2.5-2.5s2.5 1.119 2.5 2.5v40.075c0 1.381-1.119 2.5-2.5 2.5z"/></g><g><path d="m158.361 141.875c-.479 0-.959-.027-1.469-.084-1.373-.152-2.361-1.388-2.209-2.761.152-1.372 1.382-2.363 2.76-2.209.302.034.607.054.918.054 5.189 0 9.412-4.222 9.412-9.412s-4.223-9.412-9.412-9.412c-.216 0-.43.008-.642.023-1.384.101-2.573-.937-2.673-2.314s.937-2.574 2.313-2.673c.331-.024.664-.036 1.001-.036 7.947 0 14.412 6.465 14.412 14.412s-6.463 14.412-14.411 14.412z"/></g><g><path d="m97.639 141.875c-7.947 0-14.412-6.465-14.412-14.412s6.465-14.412 14.412-14.412c.461 0 .935.024 1.409.071 1.374.138 2.376 1.363 2.238 2.736-.138 1.374-1.357 2.374-2.736 2.239-.299-.03-.604-.047-.911-.047-5.189 0-9.412 4.222-9.412 9.412s4.223 9.412 9.412 9.412c.248 0 .493-.013.735-.035 1.378-.118 2.591.888 2.716 2.263.126 1.375-.888 2.591-2.263 2.716-.39.036-.788.057-1.188.057z"/></g><g><path d="m91.643 119.188c-1.381 0-2.5-1.119-2.5-2.5v-11.434c0-16.814 12.03-31.096 28.605-33.958 8.529-1.473 24.188-2.822 33.24 4.695 3.817 3.17 5.873 7.456 6.116 12.748 3.954.29 9.816 3.316 9.816 18.688v9.115c0 1.381-1.119 2.5-2.5 2.5s-2.5-1.119-2.5-2.5v-9.115c0-8.586-2.055-13.713-5.497-13.713-2.336 0-4.264-1.865-4.297-4.157-.057-4.167-1.475-7.346-4.333-9.72-5.484-4.554-16.126-5.873-29.194-3.615-14.172 2.447-24.457 14.657-24.457 29.031v11.434c.001 1.382-1.119 2.501-2.499 2.501z"/></g><g><path d="m193.218 98.168c-17.11 0-31.03-13.92-31.03-31.03v-23.945c0-4.454 1.692-8.683 4.766-11.905 2.761-2.893 7.215-3.203 10.374-.729 3.142 2.458 8.455 5.389 15.922 5.389 7.45 0 12.734-2.919 15.855-5.369 3.16-2.482 7.624-2.178 10.377.708h.001c3.073 3.223 4.766 7.451 4.766 11.905v23.944c-.001 17.112-13.921 31.032-31.031 31.032zm-20.691-64.271c-.715 0-1.421.281-1.945.832-2.192 2.299-3.395 5.301-3.395 8.465v23.944c0 14.353 11.677 26.03 26.03 26.03s26.03-11.677 26.03-26.03v-23.945c0-3.163-1.202-6.166-3.384-8.455-.969-1.014-2.546-1.109-3.673-.227-3.742 2.936-10.064 6.436-18.942 6.436-8.892 0-15.242-3.509-19.004-6.452-.511-.401-1.117-.598-1.717-.598z"/></g><g><path d="m232.07 185.146c-1.381 0-2.5-1.119-2.5-2.5v-24.978c0-1.381 1.119-2.5 2.5-2.5s2.5 1.119 2.5 2.5v24.978c0 1.38-1.119 2.5-2.5 2.5z"/></g><g><path d="m223.579 71.717c-.438 0-.868-.024-1.295-.066-1.374-.136-2.378-1.36-2.242-2.734s1.345-2.376 2.734-2.242c.265.026.531.042.803.042 5.189 0 9.411-4.222 9.411-9.412s-4.222-9.412-9.411-9.412c-.285 0-.566.014-.846.041-1.37.13-2.593-.881-2.722-2.257-.128-1.375.882-2.593 2.257-2.722.432-.04.869-.062 1.311-.062 7.946 0 14.411 6.465 14.411 14.412s-6.465 14.412-14.411 14.412z"/></g><g><path d="m162.856 71.717c-7.947 0-14.412-6.465-14.412-14.412s6.465-14.412 14.412-14.412c.534 0 1.085.032 1.636.096 1.371.159 2.354 1.4 2.195 2.771s-1.399 2.354-2.771 2.196c-.36-.042-.717-.063-1.06-.063-5.189 0-9.412 4.222-9.412 9.412 0 5.189 4.223 9.412 9.412 9.412.247 0 .49-.013.732-.035 1.377-.123 2.593.885 2.719 2.259.127 1.375-.885 2.592-2.26 2.719-.392.037-.789.057-1.191.057z"/></g><g><path d="m156.86 49.25c-1.381 0-2.5-1.119-2.5-2.5v-11.653c0-16.814 12.03-31.096 28.605-33.958 8.529-1.473 24.189-2.821 33.24 4.695 3.817 3.17 5.872 7.456 6.116 12.748 3.954.29 9.815 3.316 9.815 18.688v9.419c0 1.381-1.119 2.5-2.5 2.5s-2.5-1.119-2.5-2.5v-9.419c0-8.586-2.055-13.713-5.496-13.713-2.336 0-4.264-1.864-4.297-4.156-.057-4.167-1.475-7.346-4.333-9.72-5.482-4.554-16.124-5.871-29.194-3.615-14.172 2.447-24.457 14.657-24.457 29.031v11.653c.001 1.381-1.118 2.5-2.499 2.5z"/></g><g><path d="m62.782 98.168c-17.11 0-31.03-13.92-31.03-31.03v-23.945c0-4.454 1.692-8.683 4.766-11.905 2.76-2.893 7.214-3.202 10.375-.73 3.141 2.459 8.453 5.39 15.921 5.39 7.451 0 12.734-2.919 15.854-5.368 3.163-2.481 7.625-2.179 10.378.708h.001c3.073 3.223 4.766 7.451 4.766 11.905v23.944c-.001 17.111-13.92 31.031-31.031 31.031zm-20.69-64.271c-.715 0-1.421.281-1.945.832-2.192 2.299-3.395 5.301-3.395 8.465v23.944c0 14.353 11.677 26.03 26.03 26.03s26.03-11.677 26.03-26.03v-23.945c0-3.163-1.202-6.166-3.384-8.455-.969-1.014-2.546-1.109-3.673-.227-3.74 2.936-10.063 6.436-18.942 6.436-8.894 0-15.242-3.509-19.003-6.452-.512-.401-1.119-.598-1.718-.598z"/></g><g><path d="m23.93 185.146c-1.381 0-2.5-1.119-2.5-2.5v-24.978c0-1.381 1.119-2.5 2.5-2.5s2.5 1.119 2.5 2.5v24.978c0 1.38-1.119 2.5-2.5 2.5z"/></g><g><path d="m93.144 71.717c-.424 0-.841-.022-1.254-.063-1.374-.132-2.381-1.354-2.248-2.729.133-1.374 1.343-2.38 2.729-2.248.255.024.512.039.773.039 5.189 0 9.412-4.222 9.412-9.412s-4.223-9.412-9.412-9.412c-.243 0-.483.01-.721.03-1.374.12-2.583-.911-2.695-2.288-.113-1.376.911-2.583 2.287-2.695.372-.03.749-.046 1.129-.046 7.947 0 14.412 6.465 14.412 14.412s-6.465 14.412-14.412 14.412z"/></g><g><path d="m32.421 71.717c-7.946 0-14.411-6.465-14.411-14.412 0-8.401 7.211-15.19 15.794-14.343 1.374.136 2.377 1.361 2.24 2.735s-1.367 2.381-2.734 2.241c-.293-.029-.588-.045-.889-.045-5.189 0-9.411 4.222-9.411 9.412 0 5.189 4.222 9.412 9.411 9.412.309 0 .629-.02.98-.061 1.374-.166 2.613.821 2.774 2.192.16 1.371-.821 2.613-2.192 2.773-.546.065-1.057.096-1.562.096z"/></g><g><path d="m26.425 49.3c-1.381 0-2.5-1.119-2.5-2.5v-11.703c0-16.814 12.03-31.096 28.605-33.958 8.529-1.473 24.189-2.821 33.24 4.695 3.817 3.17 5.872 7.456 6.116 12.748 3.954.29 9.816 3.316 9.816 18.688v9.355c0 1.381-1.119 2.5-2.5 2.5s-2.5-1.119-2.5-2.5v-9.355c0-8.586-2.055-13.713-5.497-13.713-2.336 0-4.264-1.864-4.297-4.156-.057-4.167-1.475-7.346-4.333-9.72-5.481-4.555-16.123-5.871-29.193-3.616-14.172 2.448-24.457 14.657-24.457 29.032v11.703c0 1.381-1.119 2.5-2.5 2.5z"/></g><g><g><path d="m164.989 112.512c-1.043 0-2.016-.657-2.368-1.7-.442-1.308.26-2.727 1.567-3.169 3.251-1.098 5.962-2.333 9.282-3.971 2.531-1.248 4.104-3.776 4.104-6.598v-4.324c0-1.381 1.119-2.5 2.5-2.5s2.5 1.119 2.5 2.5v4.324c0 4.74-2.641 8.986-6.893 11.082-3.504 1.728-6.381 3.037-9.892 4.224-.265.089-.535.132-.8.132z"/></g><g><path d="m250.37 185.842h-81.901c-1.381 0-2.5-1.119-2.5-2.5s1.119-2.5 2.5-2.5h81.901c.224 0 .372-.107.457-.197s.185-.244.172-.468l-3.154-54.388c-.215-3.854-2.87-7.072-6.607-8.013l-15.446-3.888c-4.366-1.099-8.229-2.603-10.702-3.67-2.372-1.024-3.707-1.651-4.48-2.135-4.166-2.121-6.747-6.324-6.747-11.009v-4.22c0-1.381 1.119-2.5 2.5-2.5s2.5 1.119 2.5 2.5v4.22c0 2.822 1.572 5.35 4.104 6.598.044.021.087.044.129.068.31.167 6.354 3.396 13.918 5.3l15.446 3.888c5.871 1.478 10.042 6.533 10.379 12.578l3.154 54.389c.086 1.544-.473 3.068-1.531 4.188s-2.552 1.759-4.092 1.759z"/></g></g><g><g><path d="m91.257 112.577c-.264 0-.532-.042-.797-.131-3.085-1.037-5.687-2.152-7.325-2.904-1.362-.625-2.276-1.045-2.896-1.424-4.205-2.11-6.813-6.333-6.813-11.043v-4.105c0-1.381 1.119-2.5 2.5-2.5s2.5 1.119 2.5 2.5v4.105c0 2.822 1.572 5.35 4.104 6.598.044.021.087.044.13.069.245.132 4.046 2.168 9.395 3.966 1.309.44 2.013 1.857 1.573 3.166-.353 1.043-1.326 1.703-2.371 1.703z"/></g><g><path d="m87.5 185.842h-81.87c-1.54 0-3.031-.642-4.09-1.761s-1.617-2.644-1.531-4.182l3.154-54.4c.337-6.04 4.508-11.094 10.379-12.572l15.446-3.888c5.97-1.502 9.894-3.32 14.047-5.368 2.531-1.248 4.104-3.776 4.104-6.598v-4.137c0-1.381 1.119-2.5 2.5-2.5s2.5 1.119 2.5 2.5v4.137c0 4.74-2.641 8.986-6.893 11.082-4.414 2.177-8.592 4.11-15.037 5.732l-15.446 3.888c-3.737.941-6.393 4.159-6.607 8.007l-3.154 54.399c-.013.218.087.372.172.462s.233.197.457.197h81.869c1.381 0 2.5 1.119 2.5 2.5s-1.119 2.502-2.5 2.502z"/></g></g><g><circle cx="141.286" cy="128.78" r="3.833"/></g><g><circle cx="115.543" cy="128.78" r="3.833"/></g><g><circle cx="206.504" cy="58.622" r="3.833"/></g><g><circle cx="180.761" cy="58.622" r="3.833"/></g><g><circle cx="76.069" cy="58.622" r="3.833"/></g><g><circle cx="50.326" cy="58.622" r="3.833"/></g><g><path d="m127.974 155.838c-.43 0-.86-.021-1.291-.063-6.712-.659-11.969-6.614-11.969-13.558 0-2.022 1.646-3.668 3.668-3.668h19.236c2.022 0 3.668 1.646 3.668 3.668v.336c0 3.731-1.595 7.317-4.377 9.839-2.453 2.224-5.652 3.446-8.935 3.446zm-8.16-12.289c.581 3.808 3.604 6.881 7.356 7.25 2.354.236 4.623-.518 6.38-2.111 1.488-1.349 2.433-3.182 2.674-5.139zm17.804 0h.01z"/></g><g><path d="m193.689 85.63c-.389 0-.777-.019-1.167-.057-6.068-.596-10.822-5.978-10.822-12.252 0-1.947 1.584-3.53 3.53-3.53h16.967c1.946 0 3.53 1.583 3.53 3.53v.297c0 3.374-1.442 6.616-3.956 8.896-2.218 2.011-5.112 3.116-8.082 3.116zm-6.843-10.839c.613 3.07 3.102 5.506 6.165 5.806 1.998.198 3.916-.438 5.401-1.787 1.176-1.066 1.95-2.488 2.215-4.019zm15.351 0h.01z"/></g><g><path d="m62.963 85.84c-.389 0-.778-.019-1.168-.057-6.068-.596-10.822-5.978-10.822-12.252 0-1.947 1.584-3.53 3.53-3.53h16.967c1.946 0 3.53 1.583 3.53 3.53v.297c0 3.374-1.442 6.616-3.957 8.896-2.219 2.011-5.111 3.116-8.08 3.116zm-6.845-10.84c.613 3.07 3.102 5.506 6.165 5.806 2 .198 3.914-.438 5.401-1.787 1.176-1.066 1.951-2.488 2.215-4.02h-13.781zm15.352 0h.01z"/></g></g></g></svg>