<svg enable-background="new 0 0 256 256" height="512" viewBox="0 0 256 256" width="512" xmlns="http://www.w3.org/2000/svg"><g id="Layer_23"><g><g><path d="m167.355 116.888c-1.827-.52-3.703-1.194-5.627-2.043-1.241-.548-2.69-.296-3.679.632-2.158 2.023-3.509 4.895-3.509 8.087 0 6.135 4.973 11.108 11.108 11.108.605 0 1.195-.062 1.774-.155-.04-.59-.067-1.184-.067-1.784z" fill="#d68649"/></g><g><path d="m119.264 189.117c-.272-4.893-3.695-9.04-8.447-10.236l-15.362-3.867c-8.143-2.049-14.546-5.561-14.462-5.52-3.348-1.651-5.467-5.059-5.467-8.792v-4.618c-3.919 2.051-8.364 3.22-13.072 3.22-4.708 0-9.153-1.168-13.072-3.22v4.618c0 3.732-2.12 7.141-5.467 8.792-4.523 2.23-8.472 4.012-14.462 5.52l-15.362 3.867c-4.752 1.196-8.174 5.343-8.447 10.236l-3.137 61.097c-.099 1.784 1.321 3.286 3.108 3.286h113.68c1.787 0 3.207-1.502 3.108-3.286z" fill="#d68649"/></g><g><path d="m249.173 190.526c-.266-4.767-3.6-8.807-8.229-9.973l-5.288-1.335c-.496-.125-13.086-3.303-13.735-3.467-1.59-.4-3.133-.967-4.603-1.692l-6.578-3.243c-2.526-1.246-4.126-3.818-4.126-6.634v-8.068c-3.769 2.054-8.082 3.223-12.655 3.223s-8.886-1.169-12.655-3.223v8.068c0 2.816-1.599 5.389-4.126 6.634l-6.578 3.243c-1.47.725-3.013 1.292-4.603 1.692-.094.024-13.648 3.445-13.735 3.467l-5.288 1.335c-4.63 1.165-7.964 5.206-8.229 9.973l-2.102 59.772c-.097 1.738 1.287 3.201 3.028 3.201h108.575c1.741 0 3.125-1.463 3.028-3.201z" fill="#d68649"/></g><g><path d="m231.666 129.473c-1.967 3.119-5.433 5.198-9.393 5.198-.605 0-1.195-.062-1.774-.155-.625 9.309-6.086 17.348-13.883 21.597v8.068c0 2.583 1.355 4.947 3.527 6.284.87.536-.234-.093 7.177 3.593.997.492 2.314 1.012 3.329 1.33.201.063.405.118.608.176 3.915-1.433 7.37-3.708 9.607-7.251 4.103-6.496 1.708-12.79.198-15.607-.53-.99-.439-2.176.165-3.123 5.081-7.968 2.681-15.727.439-20.11z" fill="#5b5d60"/></g><g><path d="m156.859 152.708c-1.51 2.817-3.904 9.111.198 15.607 2.238 3.543 5.692 5.818 9.607 7.251.203-.058.407-.113.608-.176 1.015-.318 2.332-.839 3.329-1.33 7.892-3.926 6.372-3.097 7.177-3.593 2.171-1.337 3.527-3.701 3.527-6.284v-8.068c-7.797-4.25-13.259-12.289-13.883-21.598-.579.093-1.169.155-1.774.155-3.96 0-7.427-2.079-9.393-5.198-2.242 4.383-4.642 12.142.44 20.111.603.946.694 2.133.164 3.123z" fill="#5b5d60"/></g><g><path d="m222.273 112.455c-.581 0-1.15.049-1.707.135v20.141c0 .6-.027 1.194-.067 1.784.579.093 1.169.155 1.774.155 6.135 0 11.108-4.973 11.108-11.108 0-6.134-4.974-11.107-11.108-11.107z" fill="#d68649"/></g><g><path d="m206.686 103.766c-4.052 4.729-18.42 19.078-39.331 13.122v15.844c0 14.633 11.972 26.605 26.605 26.605 14.633 0 26.605-11.972 26.605-26.605v-21.494c0-.977-.684-1.806-1.637-2.027-2.692-.624-5.961-2.183-9.708-5.588-.74-.673-1.883-.618-2.534.143z" fill="#e7974e"/></g><g><g><path d="m224.526 99.058-6.245-7.066c-1.855-1.946-4.872-2.125-6.987-.465-2.313 1.815-5.795 3.926-10.426 5.055v-.001c-1.56 2.977-4.069 4.918-6.908 4.918-2.844 0-5.357-1.947-6.916-4.932-4.623-1.138-8.106-3.248-10.42-5.06-2.113-1.654-5.124-1.468-6.976.474l-6.255 7.077c-1.226 1.387-2.997 1.615-4.435 1.026-.766 2.919-1.177 5.979-1.177 9.13v6.538c.09-.091.173-.189.267-.276.989-.928 2.439-1.18 3.679-.632 1.924.85 3.8 1.523 5.627 2.044 20.911 5.956 35.279-8.393 39.331-13.122.651-.76 1.794-.816 2.535-.142 3.747 3.405 7.016 4.964 9.708 5.588.952.221 1.636 1.049 1.636 2.027v1.353c.557-.086 1.126-.135 1.707-.135 3.073 0 5.855 1.249 7.866 3.266v-6.507c0-3.151-.411-6.211-1.177-9.13-1.437.587-3.208.359-4.434-1.028z" fill="#5b5d60"/></g></g><g><path d="m185.389 89.5c0-2.141.405-4.147 1.107-5.887-2.223-.507-4.448-1.252-6.556-2.321-11.419-5.792-23.419.208-23.419 15.208.04 3.597 4.491 5.254 6.873 2.559l6.255-7.077c1.852-1.942 4.862-2.127 6.976-.474 2.314 1.811 5.797 3.922 10.42 5.06-1.037-1.984-1.656-4.422-1.656-7.068z" fill="#f5c84c"/></g><g><path d="m207.98 81.292c-2.108 1.069-4.333 1.814-6.556 2.321.702 1.74 1.107 3.746 1.107 5.887 0 2.653-.622 5.096-1.664 7.083 4.631-1.13 8.113-3.24 10.426-5.055 2.115-1.66 5.132-1.481 6.987.465l6.245 7.066c2.382 2.695 6.833 1.038 6.873-2.558.001-15.001-11.999-21.001-23.418-15.209z" fill="#f5c84c"/></g><g><path d="m199.896 80.856c.6.808 1.116 1.734 1.528 2.757 2.223-.508 4.448-1.252 6.556-2.321 1.095-.555 2.196-1 3.29-1.341 1.263-9.108 5.542-24.823 19.609-41.804.791-.955-.342-2.284-1.402-1.642-7.777 4.709-21.875 15.006-29 31.058z" fill="#fc657e"/></g><g><path d="m245.459 52.757c-7.37 1.527-20.577 5.406-31.234 14.728-1.62 4.877-2.49 9.114-2.954 12.465 2.861-.891 5.682-1.058 8.267-.545 4.771-7.273 12.965-16.624 26.633-24.796.977-.584.404-2.083-.712-1.852z" fill="#70d6f9"/></g><g><path d="m221.322 76.824c-.641.884-1.237 1.747-1.785 2.582 3.467.688 6.504 2.601 8.638 5.631 6.245-3.541 14.336-6.907 24.535-8.982 1.082-.22 1.039-1.774-.055-1.922-6.858-.924-19.205-1.6-31.333 2.691z" fill="#fc657e"/></g><g><path d="m176.649 79.95c1.095.341 2.195.786 3.29 1.341 2.108 1.069 4.333 1.814 6.556 2.321.412-1.022.928-1.949 1.528-2.757l-.582-13.294c-7.124-16.052-21.222-26.349-29-31.058-1.06-.642-2.193.688-1.402 1.642 14.069 16.983 18.348 32.697 19.61 41.805z" fill="#fc657e"/></g><g><path d="m168.383 79.405c2.584-.513 5.406-.346 8.267.545-.465-3.352-1.335-7.589-2.954-12.465-10.657-9.322-23.864-13.201-31.234-14.728-1.116-.231-1.689 1.268-.711 1.853 13.667 8.172 21.861 17.522 26.632 24.795z" fill="#70d6f9"/></g><g><path d="m135.209 76.054c10.199 2.074 18.29 5.441 24.535 8.982 2.134-3.03 5.172-4.943 8.639-5.631-.547-.834-1.144-1.698-1.785-2.582-12.128-4.291-24.475-3.615-31.335-2.691-1.093.148-1.136 1.702-.054 1.922z" fill="#fc657e"/></g><g><path d="m193.96 77.5c2.306 0 4.396 1.282 5.936 3.356l1.86-42.509c0-4.709-1.557-9.287-4.428-13.02l-1.43-1.859c-.979-1.272-2.897-1.272-3.876 0l-1.43 1.859c-2.871 3.733-4.428 8.31-4.428 13.02l1.86 42.509c1.54-2.074 3.63-3.356 5.936-3.356z" fill="#70d6f9"/></g><g><ellipse cx="193.96" cy="89.5" fill="#fcdd86" rx="8.571" ry="12"/></g><g><path d="m86.774 96.992c-1.855-1.946-4.872-2.125-6.987-.465-2.313 1.815-5.795 3.926-10.426 5.055-1.56 2.976-4.069 4.917-6.908 4.917-2.844 0-5.357-1.947-6.916-4.932-4.623-1.138-8.106-3.248-10.42-5.06-2.113-1.654-5.124-1.468-6.976.474l-.01.01c-2.602 2.729-4.053 6.354-4.053 10.124v23.813c0 15.606 12.768 28.375 28.375 28.375 15.606 0 28.375-12.769 28.375-28.375v-23.813c-.001-3.768-1.452-7.394-4.054-10.123z" fill="#e7974e"/></g><g><path d="m92.648 109.305c-.62 0-1.227.052-1.821.144v21.481c0 .64-.029 1.273-.071 1.903.618.099 1.247.165 1.892.165 6.543 0 11.847-5.304 11.847-11.847 0-6.542-5.304-11.846-11.847-11.846z" fill="#d68649"/></g><g><path d="m34.078 130.93c0-2.94 0-15.636 0-21.481-.594-.092-1.201-.144-1.821-.144-6.543 0-11.847 5.304-11.847 11.847s5.304 11.847 11.847 11.847c.646 0 1.275-.066 1.892-.165-.041-.631-.071-1.264-.071-1.904z" fill="#d68649"/></g><g><path d="m53.881 94.5c0-2.141.405-4.147 1.107-5.887-2.223-.507-4.448-1.252-6.556-2.321-11.418-5.792-23.418.208-23.418 15.208l.113 10.207c1.985-1.501 4.45-2.402 7.131-2.402.62 0 1.227.052 1.821.144v-2.333c0-3.77 1.452-7.396 4.053-10.124l.01-.01c1.852-1.942 4.862-2.127 6.976-.474 2.314 1.811 5.797 3.922 10.42 5.06-1.037-1.984-1.657-4.422-1.657-7.068z" fill="#f5c84c"/></g><g><path d="m76.473 86.292c-2.108 1.069-4.333 1.814-6.556 2.321.702 1.74 1.107 3.746 1.107 5.887 0 2.653-.622 5.096-1.664 7.083 4.631-1.13 8.113-3.24 10.426-5.055 2.115-1.66 5.132-1.481 6.987.465 2.602 2.729 4.053 6.354 4.053 10.124v2.333c.594-.092 1.201-.144 1.821-.144 2.681 0 5.145.901 7.13 2.402l.113-10.207c.002-15.001-11.998-21.001-23.417-15.209z" fill="#f5c84c"/></g><g><path d="m68.389 85.856c.6.808 1.116 1.734 1.528 2.757 2.223-.508 4.448-1.252 6.556-2.321 1.095-.555 2.196-1 3.29-1.341 1.263-9.108 5.542-24.823 19.609-41.804.791-.955-.342-2.284-1.402-1.642-7.777 4.709-21.875 15.006-29 31.058z" fill="#fc657e"/></g><g><path d="m113.952 57.757c-7.37 1.527-20.577 5.406-31.234 14.728-1.62 4.877-2.49 9.114-2.954 12.465 2.861-.891 5.682-1.058 8.267-.545 4.771-7.273 12.965-16.624 26.633-24.796.977-.584.404-2.083-.712-1.852z" fill="#f98fa6"/></g><g><path d="m89.815 81.824c-.641.884-1.237 1.747-1.785 2.582 3.467.688 6.504 2.601 8.638 5.631 6.245-3.541 14.336-6.907 24.535-8.982 1.082-.22 1.039-1.774-.055-1.922-6.858-.924-19.205-1.6-31.333 2.691z" fill="#fc657e"/></g><g><path d="m45.142 84.95c1.095.341 2.195.786 3.29 1.341 2.108 1.069 4.333 1.814 6.556 2.321.412-1.022.928-1.949 1.528-2.757l-.582-13.294c-7.124-16.052-21.222-26.349-29-31.058-1.06-.642-2.193.688-1.402 1.642 14.069 16.983 18.348 32.697 19.61 41.805z" fill="#fc657e"/></g><g><path d="m36.875 84.405c2.584-.513 5.406-.346 8.267.545-.465-3.352-1.335-7.589-2.954-12.465-10.657-9.322-23.864-13.201-31.234-14.728-1.116-.231-1.689 1.268-.711 1.853 13.668 8.172 21.861 17.522 26.632 24.795z" fill="#f98fa6"/></g><g><path d="m3.702 81.054c10.199 2.074 18.29 5.441 24.535 8.982 2.134-3.03 5.172-4.943 8.639-5.631-.547-.834-1.144-1.698-1.785-2.582-12.128-4.291-24.475-3.615-31.335-2.691-1.094.148-1.136 1.702-.054 1.922z" fill="#fc657e"/></g><g><path d="m62.453 82.5c2.306 0 4.396 1.282 5.936 3.356l1.86-42.509c0-4.709-1.557-9.287-4.428-13.02l-1.43-1.859c-.979-1.272-2.897-1.272-3.876 0l-1.43 1.859c-2.871 3.733-4.428 8.31-4.428 13.02l1.86 42.509c1.54-2.074 3.629-3.356 5.936-3.356z" fill="#f98fa6"/></g><g><ellipse cx="62.453" cy="94.5" fill="#70d6f9" rx="8.571" ry="12"/></g><g><path d="m219.947 196.261c-1.08-2.15-3.584-3.293-6.035-2.519-.831.263-1.561.778-2.163 1.408l-13.27 13.902c-2.461 2.578-6.577 2.578-9.038 0l-13.27-13.902c-.602-.63-1.332-1.145-2.163-1.408-2.451-.775-4.954.368-6.035 2.519l-10.42 20.739v10.5c24.158 3.318 48.656 3.318 72.814 0v-10.5z" fill="#fc657e"/></g><g><path d="m125.9 142.9h2.3v2.3c0 1.8 1.4 3.2 3.2 3.2 1.7 0 3.2-1.4 3.2-3.1v-.1-2.3h2.3c1.8 0 3.2-1.4 3.2-3.2 0-1.7-1.4-3.2-3.1-3.2h-.1-2.3v-2.3c0-1.8-1.4-3.2-3.2-3.2-1.7 0-3.2 1.4-3.2 3.1v.1 2.3h-2.3c-1.8 0-3.2 1.4-3.2 3.2-.1 1.7 1.3 3.2 3.2 3.2-.1 0-.1 0 0 0z" fill="#70d6f9"/></g><g><circle cx="105.3" cy="159.6" fill="#f5c84c" r="3.4"/></g><g><path d="m255.925 114.2c-3.1-.6-5.6-3-6.2-6.1 0-.1-.3-.1-.3 0-.6 3.1-3.1 5.5-6.2 6.1-.1 0-.1.2 0 .3 3.1.6 5.6 3 6.2 6.1 0 .1.3.1.3 0 .6-3.1 3.1-5.5 6.2-6.1.1-.1.1-.3 0-.3z" fill="#fc657e"/></g><g><circle cx="138.3" cy="3.4" fill="#87d147" r="3.4"/></g><g><path d="m99.7 22.2c4.5-.8 8-4.3 8.9-8.7 0-.2.4-.2.4 0 .9 4.4 4.4 7.9 8.9 8.7.2 0 .2.3 0 .4-4.5.8-8 4.3-8.9 8.7 0 .2-.4.2-.4 0-.9-4.4-4.4-7.9-8.9-8.7-.2-.1-.2-.4 0-.4z" fill="#f5c84c"/></g><g><path d="m119.293 256h-113.68c-1.536 0-3.022-.64-4.078-1.756-1.055-1.116-1.611-2.635-1.526-4.168l3.137-61.086c.335-6.028 4.488-11.06 10.333-12.532l15.362-3.867c5.936-1.494 9.837-3.301 13.967-5.338 2.513-1.239 4.074-3.749 4.074-6.549v-3.828c0-1.381 1.119-2.5 2.5-2.5s2.5 1.119 2.5 2.5v3.828c0 4.718-2.629 8.946-6.862 11.034-4.39 2.165-8.546 4.088-14.958 5.702l-15.362 3.867c-3.711.935-6.348 4.129-6.561 7.951l-3.137 61.086c-.013.229.083.378.166.465s.227.191.445.191h113.68c.218 0 .362-.104.445-.191.083-.088.179-.238.167-.456l-3.138-61.107c-.212-3.811-2.849-7.005-6.561-7.94l-15.362-3.867c-4.343-1.093-8.187-2.589-10.646-3.651-2.357-1.018-3.686-1.642-4.457-2.124-4.147-2.111-6.717-6.296-6.717-10.961v-3.641c0-1.381 1.119-2.5 2.5-2.5s2.5 1.119 2.5 2.5v3.641c0 2.801 1.561 5.311 4.073 6.549.044.021.087.044.129.068.306.165 6.317 3.376 13.839 5.27l15.362 3.867c5.845 1.472 9.998 6.503 10.333 12.521l3.138 61.108c.085 1.523-.472 3.043-1.527 4.159-1.056 1.115-2.542 1.755-4.078 1.755z"/></g><g><path d="m101.093 255.307c-1.381 0-2.5-1.119-2.5-2.5v-54.138c0-1.381 1.119-2.5 2.5-2.5s2.5 1.119 2.5 2.5v54.138c0 1.381-1.119 2.5-2.5 2.5z"/></g><g><path d="m23.812 255.307c-1.381 0-2.5-1.119-2.5-2.5v-54.138c0-1.381 1.119-2.5 2.5-2.5s2.5 1.119 2.5 2.5v54.138c0 1.381-1.119 2.5-2.5 2.5z"/></g><g><path d="m62.865 144.219c-3.815 0-7.405-1.566-9.604-4.188-.887-1.058-.748-2.635.31-3.522 1.06-.887 2.636-.747 3.522.31 1.26 1.503 3.417 2.4 5.771 2.4s4.512-.897 5.772-2.4c.887-1.058 2.463-1.198 3.522-.31 1.058.887 1.197 2.464.31 3.522-2.197 2.622-5.787 4.188-9.603 4.188z"/></g><g><circle cx="75.667" cy="122.461" r="3.812"/></g><g><circle cx="50.064" cy="122.461" r="3.812"/></g><g><g><path d="m81.025 221h-2.902c-10.02 0-18.171-8.151-18.171-18.17v-18.33c0-1.381 1.119-2.5 2.5-2.5s2.5 1.119 2.5 2.5v18.33c0 7.262 5.908 13.17 13.171 13.17h2.902c1.747 0 3.439-.512 4.893-1.481l3.148-2.099c1.149-.766 2.701-.456 3.467.693s.456 2.701-.693 3.467l-3.148 2.099c-2.278 1.518-4.929 2.321-7.667 2.321z"/></g><g><path d="m46.782 221h-2.902c-2.738 0-5.389-.803-7.666-2.321l-3.148-2.099c-1.149-.766-1.459-2.318-.693-3.467.765-1.149 2.317-1.459 3.467-.693l3.148 2.099c1.454.969 3.146 1.481 4.893 1.481h2.902c7.262 0 13.17-5.908 13.17-13.17v-18.33c0-1.381 1.119-2.5 2.5-2.5s2.5 1.119 2.5 2.5v18.33c0 10.019-8.152 18.17-18.171 18.17z"/></g></g><g><path d="m62.453 247.333c-1.381 0-2.5-1.119-2.5-2.5v-19.667c0-1.381 1.119-2.5 2.5-2.5s2.5 1.119 2.5 2.5v19.667c0 1.381-1.12 2.5-2.5 2.5z"/></g><g><path d="m248.248 256h-108.576c-1.514 0-2.979-.631-4.019-1.73s-1.589-2.598-1.505-4.11l2.101-59.721c.33-5.942 4.396-10.869 10.117-12.309l5.285-1.334c.087-.022 13.647-3.445 13.741-3.468 1.412-.355 2.794-.864 4.104-1.509l6.578-3.243c1.685-.831 2.73-2.513 2.73-4.392v-7.464c0-1.381 1.119-2.5 2.5-2.5s2.5 1.119 2.5 2.5v7.464c0 3.797-2.115 7.198-5.52 8.876l-6.578 3.243c-1.625.801-3.34 1.432-5.098 1.875-.169.042-13.645 3.444-13.733 3.466l-5.287 1.335c-3.591.904-6.14 3.993-6.346 7.688l-2.101 59.721c-.013.241.071.372.144.448.071.076.196.166.386.166h108.576c.189 0 .315-.091.387-.167s.155-.206.145-.395l-2.104-59.824c-.205-3.643-2.754-6.733-6.342-7.636l-19.023-4.802c-1.758-.442-3.473-1.073-5.098-1.875l-6.578-3.243c-3.404-1.679-5.52-5.08-5.52-8.876v-7.464c0-1.381 1.119-2.5 2.5-2.5s2.5 1.119 2.5 2.5v7.464c0 1.879 1.046 3.562 2.73 4.392l6.578 3.243c1.31.646 2.691 1.154 4.107 1.51l19.025 4.802c5.719 1.44 9.784 6.366 10.113 12.257l2.104 59.824c.083 1.459-.465 2.958-1.505 4.058-1.038 1.099-2.503 1.73-4.018 1.73z"/></g><g><path d="m221.784 177.867c-1.001 0-1.944-.604-2.33-1.592-.502-1.286.135-2.736 1.421-3.237 3.564-1.39 6.214-3.428 7.873-6.057 3.354-5.311 1.509-10.481.11-13.091-.942-1.755-.843-3.919.259-5.648 4.165-6.532 2.6-12.942.552-17.169-.602-1.243-.082-2.738 1.16-3.34 1.246-.602 2.739-.082 3.34 1.16 2.131 4.399 4.855 13.112-.835 22.037-.103.16-.175.401-.069.597 1.54 2.875 4.595 10.392-.289 18.124-2.242 3.552-5.702 6.259-10.284 8.046-.298.115-.606.17-.908.17z"/></g><g><path d="m166.39 177.964c-.294 0-.593-.052-.885-.162-4.72-1.785-8.272-4.528-10.562-8.153-4.883-7.731-1.828-15.249-.288-18.122.105-.197.033-.438-.069-.599-5.713-8.959-2.95-17.703-.795-22.117.605-1.24 2.104-1.756 3.343-1.15 1.241.606 1.756 2.103 1.149 3.343-2.071 4.243-3.663 10.678.519 17.236 1.103 1.729 1.202 3.894.26 5.65-1.398 2.608-3.244 7.779.109 13.089 1.696 2.686 4.422 4.753 8.104 6.146 1.291.488 1.942 1.932 1.453 3.223-.378 1-1.33 1.616-2.338 1.616z"/></g><g><path d="m222.272 137.171c-.421 0-.834-.023-1.244-.064-1.374-.137-2.377-1.362-2.239-2.736.137-1.374 1.366-2.375 2.735-2.24.246.025.495.04.748.04 4.747 0 8.608-3.861 8.608-8.608s-3.861-8.608-8.608-8.608c-.188 0-.374.007-.559.02-1.385.093-2.571-.945-2.666-2.322s.945-2.571 2.322-2.666c.298-.021.599-.031.902-.031 7.504 0 13.608 6.104 13.608 13.608s-6.103 13.607-13.607 13.607z"/></g><g><path d="m193.96 161.837c-16.049 0-29.105-13.057-29.105-29.105v-15.844c0-.784.368-1.523.994-1.995.626-.473 1.44-.625 2.19-.409 19.53 5.563 33.063-8.042 36.748-12.344.754-.88 1.806-1.404 2.961-1.477 1.144-.073 2.299.333 3.153 1.11 2.953 2.683 5.844 4.366 8.592 5.003 2.104.488 3.572 2.322 3.572 4.462v21.495c0 16.048-13.056 29.104-29.105 29.104zm-24.106-41.772v12.667c0 13.292 10.813 24.105 24.105 24.105s24.105-10.813 24.105-24.105v-21.158c-3.312-.831-6.664-2.716-9.979-5.613-4.557 5.121-18.37 18.086-38.231 14.104z"/></g><g><path d="m193.96 182.089c-6.732 0-13.046-4.178-16.889-11.176-.664-1.21-.222-2.73.988-3.395 1.21-.664 2.729-.223 3.395.988 2.951 5.374 7.626 8.583 12.506 8.583 4.892 0 9.574-3.222 12.525-8.618.662-1.213 2.183-1.656 3.393-.994 1.212.663 1.656 2.182.994 3.393-3.842 7.025-10.164 11.219-16.912 11.219z"/></g><g><path d="m193.96 196.428c-9.659 0-18.023-9.239-21.309-23.536-.31-1.346.531-2.688 1.877-2.997 1.347-.31 2.688.531 2.996 1.876 2.701 11.757 9.307 19.656 16.436 19.656 7.173 0 13.793-7.963 16.473-19.816.305-1.347 1.643-2.194 2.99-1.887 1.347.305 2.191 1.643 1.887 2.99-3.207 14.184-11.788 23.714-21.35 23.714z"/></g><g><path d="m165.647 137.171c-7.504 0-13.608-6.104-13.608-13.608 0-3.736 1.567-7.349 4.3-9.911 1.726-1.619 4.236-2.05 6.398-1.095 1.76.777 3.544 1.425 5.302 1.926 1.328.378 2.098 1.761 1.72 3.089-.379 1.327-1.761 2.1-3.089 1.719-1.98-.564-3.982-1.291-5.952-2.161-.325-.143-.698-.076-.959.168-1.754 1.645-2.72 3.869-2.72 6.263 0 4.747 3.861 8.608 8.608 8.608.225 0 .446-.012.666-.032 1.372-.127 2.593.883 2.72 2.258.128 1.375-.884 2.593-2.259 2.72-.37.037-.746.056-1.127.056z"/></g><g><g><path d="m157.781 118.104c-1.381 0-2.5-1.119-2.5-2.5v-6.389c0-3.105.377-6.208 1.121-9.22.331-1.34 1.678-2.162 3.026-1.828 1.34.331 2.158 1.686 1.827 3.026-.646 2.621-.975 5.319-.975 8.021v6.389c.001 1.382-1.118 2.501-2.499 2.501z"/></g><g><path d="m230.139 117.917c-1.381 0-2.5-1.119-2.5-2.5v-6.202c0-2.768-.344-5.529-1.021-8.209-.339-1.338.473-2.698 1.811-3.037 1.337-.336 2.698.471 3.037 1.811.779 3.08 1.174 6.254 1.174 9.435v6.202c-.001 1.381-1.12 2.5-2.501 2.5z"/></g></g><g><path d="m230.367 255.027c-1.381 0-2.5-1.119-2.5-2.5v-49.892c0-1.381 1.119-2.5 2.5-2.5s2.5 1.119 2.5 2.5v49.892c0 1.381-1.119 2.5-2.5 2.5z"/></g><g><path d="m157.553 255.027c-1.381 0-2.5-1.119-2.5-2.5v-49.892c0-1.381 1.119-2.5 2.5-2.5s2.5 1.119 2.5 2.5v49.892c0 1.381-1.119 2.5-2.5 2.5z"/></g><g><path d="m193.96 148.103c-3.83 0-7.434-1.572-9.64-4.204-.887-1.058-.748-2.635.311-3.522s2.636-.748 3.521.31c1.268 1.513 3.439 2.416 5.808 2.416s4.54-.903 5.808-2.416c.889-1.058 2.465-1.196 3.522-.31 1.058.887 1.196 2.464.31 3.522-2.207 2.632-5.811 4.204-9.64 4.204z"/></g><g><circle cx="205.535" cy="126.638" r="3.447"/></g><g><circle cx="182.385" cy="126.638" r="3.447"/></g><g><path d="m160.47 102.893c-.755 0-1.521-.134-2.263-.411-2.514-.936-4.156-3.272-4.187-5.954 0-7.921 3.016-14.12 8.49-17.481 5.327-3.271 12.092-3.266 18.56.015 1.643.833 3.485 1.504 5.477 1.994 1.341.33 2.161 1.684 1.831 3.025-.33 1.34-1.684 2.161-3.024 1.831-2.362-.581-4.563-1.385-6.545-2.39-4.884-2.477-9.87-2.555-13.682-.213-3.938 2.418-6.106 7.104-6.106 13.192.01.858.654 1.193.931 1.296s.982.27 1.569-.393l6.255-7.077c2.802-2.942 7.242-3.25 10.39-.787 1.866 1.46 4.969 3.43 9.149 4.518 1.336.348 2.138 1.713 1.79 3.049-.348 1.337-1.712 2.14-3.05 1.79-3.966-1.032-7.76-2.906-10.972-5.419-1.111-.87-2.67-.772-3.625.23l-6.191 7.007c-1.251 1.415-2.996 2.178-4.797 2.178z"/></g><g><path d="m227.45 102.893c-1.802 0-3.547-.763-4.798-2.178l-6.244-7.067c-.893-.934-2.455-1.029-3.57-.153-2.27 1.781-6.047 4.175-11.155 5.462-1.331.339-2.697-.475-3.034-1.813-.338-1.339.475-2.698 1.813-3.035 4.256-1.072 7.4-3.064 9.288-4.546 3.153-2.474 7.598-2.17 10.341.706l6.308 7.136c.588.664 1.294.495 1.57.393.276-.103.921-.438.931-1.324 0-6.061-2.169-10.747-6.106-13.165-3.812-2.341-8.798-2.262-13.682.213-1.896.962-3.996 1.741-6.243 2.314-1.331.34-2.699-.465-3.04-1.804-.342-1.338.466-2.699 1.804-3.041 1.893-.483 3.647-1.132 5.218-1.929 6.468-3.282 13.232-3.286 18.56-.015 5.475 3.362 8.49 9.561 8.49 17.453-.03 2.709-1.673 5.046-4.187 5.981-.743.277-1.509.412-2.264.412z"/></g><g><path d="m211.376 81.741c-.124 0-.249-.009-.375-.028-1.365-.206-2.306-1.479-2.1-2.844 1.308-8.691 4.982-21.416 14.799-35.434-7.106 5.357-15.625 13.542-20.687 24.586-.574 1.254-2.057 1.806-3.313 1.231s-1.807-2.059-1.231-3.314c7.494-16.354 21.833-26.801 29.714-31.573 1.529-.926 3.413-.629 4.58.724 1.151 1.335 1.169 3.292.042 4.652-13.089 15.799-17.534 30.403-18.96 39.871-.186 1.24-1.252 2.129-2.469 2.129z"/></g><g><path d="m219.728 81.615c-.475 0-.955-.135-1.38-.417-1.15-.763-1.465-2.314-.701-3.465 3.631-5.473 9.779-12.962 19.542-20.155-6.501 2.173-14.346 5.761-21.098 11.598-1.045.903-2.622.789-3.526-.256-.902-1.044-.788-2.623.257-3.526 11.153-9.642 24.918-13.589 32.13-15.084 1.685-.351 3.353.557 3.976 2.155.625 1.604.005 3.408-1.475 4.292-13.547 8.1-21.42 17.381-25.64 23.741-.482.724-1.276 1.117-2.085 1.117z"/></g><g><path d="m228.664 87.263c-.877 0-1.729-.463-2.187-1.284-.671-1.206-.238-2.729.968-3.4 4.814-2.681 10.03-4.897 15.581-6.625-5.938-.05-13.187.602-20.342 3.043-1.307.445-2.728-.252-3.174-1.559-.445-1.307.252-2.728 1.559-3.174 12.631-4.311 25.419-3.485 31.921-2.61 1.687.227 2.951 1.625 3.008 3.322.057 1.703-1.116 3.187-2.788 3.527-8.542 1.737-16.392 4.578-23.331 8.443-.386.215-.803.317-1.215.317z"/></g><g><path d="m176.544 81.741c-1.217 0-2.283-.889-2.469-2.128-1.426-9.468-5.871-24.072-18.96-39.872-1.127-1.36-1.109-3.316.042-4.652 1.167-1.353 3.048-1.65 4.58-.724 7.897 4.782 22.264 15.252 29.747 31.644.573 1.256.02 2.739-1.236 3.313-1.256.573-2.739.02-3.313-1.236-5.057-11.075-13.594-19.282-20.716-24.65 9.816 14.018 13.491 26.742 14.799 35.434.206 1.365-.734 2.639-2.1 2.844-.125.017-.25.027-.374.027z"/></g><g><path d="m167.895 81.169c-.803 0-1.591-.386-2.074-1.102-6.126-9.073-14.655-16.917-25.354-23.313-1.479-.883-2.099-2.688-1.474-4.291.622-1.597 2.298-2.505 3.976-2.155 7.223 1.497 21.007 5.451 32.168 15.116 1.044.904 1.157 2.482.253 3.526-.903 1.043-2.483 1.157-3.526.253-6.748-5.843-14.591-9.438-21.096-11.615 7.786 5.717 14.222 12.311 19.197 19.681.772 1.145.471 2.698-.674 3.471-.429.29-.915.429-1.396.429z"/></g><g><path d="m158.945 87.091c-.408 0-.821-.1-1.204-.311-6.866-3.78-14.614-6.565-23.03-8.277-1.673-.34-2.846-1.824-2.789-3.527.057-1.698 1.321-3.095 3.008-3.322 6.518-.878 19.338-1.702 31.99 2.634 1.306.447 2.002 1.869 1.555 3.175s-1.866 2.004-3.176 1.554c-7.176-2.459-14.452-3.106-20.406-3.064 5.429 1.689 10.535 3.846 15.261 6.447 1.209.666 1.649 2.186.984 3.396-.456.828-1.311 1.295-2.193 1.295z"/></g><g><path d="m199.896 83.356c-.776 0-1.527-.363-2.007-1.009-.651-.876-2.027-2.347-3.93-2.347s-3.278 1.471-3.93 2.347c-.63.85-1.729 1.208-2.74.899-1.011-.31-1.718-1.224-1.765-2.281l-1.86-42.509c-.001-.037-.002-.073-.002-.109 0-5.232 1.757-10.397 4.947-14.544l1.43-1.859c.944-1.227 2.373-1.93 3.92-1.93s2.976.703 3.92 1.929l1.43 1.86c3.19 4.146 4.947 9.311 4.947 14.543 0 .037-.001.073-.002.109l-1.86 42.509c-.047 1.057-.754 1.971-1.765 2.281-.241.076-.488.111-.733.111zm-5.936-8.356c1.269 0 2.499.271 3.655.793l1.642-37.499c-.012-4.117-1.399-8.179-3.91-11.442l-1.43-1.86-1.344 1.859c-2.511 3.264-3.898 7.325-3.91 11.442l1.642 37.499c1.156-.521 2.386-.792 3.655-.792z"/></g><g><path d="m193.96 104c-6.208 0-11.071-6.369-11.071-14.5s4.863-14.5 11.071-14.5 11.071 6.369 11.071 14.5-4.863 14.5-11.071 14.5zm0-24c-3.291 0-6.071 4.351-6.071 9.5s2.78 9.5 6.071 9.5 6.071-4.351 6.071-9.5-2.78-9.5-6.071-9.5z"/></g><g><path d="m172.019 195.278c-.08 0-.161-.004-.243-.012-1.374-.133-2.381-1.354-2.248-2.729l1.889-19.556c.133-1.374 1.341-2.382 2.729-2.248 1.374.133 2.381 1.354 2.248 2.729l-1.889 19.556c-.126 1.293-1.214 2.26-2.486 2.26z"/></g><g><path d="m215.901 195.278c-1.272 0-2.36-.967-2.485-2.26l-1.889-19.556c-.133-1.374.874-2.596 2.248-2.729 1.382-.133 2.596.874 2.729 2.248l1.889 19.556c.133 1.374-.874 2.596-2.248 2.729-.083.008-.164.012-.244.012z"/></g><g><path d="m62.453 161.805c-17.024 0-30.875-13.85-30.875-30.875v-23.813c0-4.433 1.685-8.641 4.744-11.85 2.748-2.884 7.187-3.191 10.335-.727 1.868 1.461 4.972 3.432 9.156 4.52 1.336.347 2.138 1.712 1.791 3.048-.347 1.337-1.713 2.141-3.048 1.791-3.969-1.032-7.766-2.906-10.979-5.421-1.112-.87-2.67-.773-3.625.23-2.179 2.284-3.373 5.267-3.373 8.409v23.813c0 14.267 11.607 25.875 25.875 25.875s25.875-11.607 25.875-25.875v-23.813c0-3.142-1.194-6.125-3.363-8.399-.956-1.002-2.518-1.099-3.634-.223-2.236 1.755-5.958 4.12-10.983 5.418-1.334.345-2.7-.458-3.045-1.795s.458-2.7 1.795-3.045c4.188-1.082 7.285-3.05 9.146-4.511 3.152-2.473 7.598-2.17 10.34.706 3.06 3.208 4.744 7.417 4.744 11.85v23.813c-.002 17.024-13.852 30.874-30.876 30.874z"/></g><g><path d="m92.648 135.499c-.492 0-.988-.029-1.515-.09-1.372-.158-2.356-1.397-2.199-2.769.158-1.372 1.396-2.352 2.769-2.199.336.039.646.058.945.058 5.153 0 9.346-4.193 9.346-9.347s-4.193-9.347-9.346-9.347c-.297 0-.589.016-.878.044-1.382.126-2.597-.871-2.732-2.245-.134-1.374.871-2.597 2.245-2.732.449-.044.904-.067 1.365-.067 7.911 0 14.346 6.436 14.346 14.347s-6.435 14.347-14.346 14.347z"/></g><g><path d="m32.257 135.499c-7.911 0-14.347-6.436-14.347-14.347 0-8.41 7.309-15.195 15.863-14.264 1.373.149 2.364 1.383 2.215 2.755s-1.376 2.362-2.755 2.215c-5.621-.607-10.323 3.82-10.323 9.293 0 5.154 4.193 9.347 9.347 9.347.302 0 .617-.02.961-.059 1.377-.157 2.612.825 2.771 2.196.159 1.372-.825 2.612-2.196 2.771-.537.062-1.04.093-1.536.093z"/></g><g><path d="m25.121 113.729c-1.368 0-2.484-1.101-2.5-2.472l-.108-9.729c0-7.92 3.015-14.119 8.49-17.481 5.327-3.272 12.092-3.266 18.56.015 1.609.816 3.411 1.477 5.356 1.964 1.34.335 2.153 1.693 1.818 3.032-.335 1.34-1.695 2.154-3.032 1.818-2.308-.578-4.463-1.371-6.405-2.355-4.883-2.477-9.871-2.555-13.681-.213-3.938 2.418-6.107 7.104-6.107 13.192l.108 9.702c.015 1.381-1.092 2.512-2.472 2.528-.008-.001-.018-.001-.027-.001z"/></g><g><path d="m99.789 113.335c-.009 0-.019 0-.028 0-1.381-.016-2.488-1.147-2.473-2.528l.103-9.335c0-6.062-2.169-10.747-6.107-13.165-3.812-2.34-8.798-2.262-13.681.214-1.958.993-4.13 1.79-6.458 2.369-1.338.333-2.696-.482-3.03-1.823-.333-1.34.483-2.696 1.823-3.03 1.963-.488 3.782-1.153 5.404-1.976 6.469-3.28 13.232-3.286 18.559-.016 5.475 3.362 8.49 9.561 8.49 17.454l-.103 9.363c-.015 1.372-1.131 2.473-2.499 2.473z"/></g><g><path d="m79.869 86.741c-.124 0-.249-.009-.375-.028-1.365-.206-2.306-1.479-2.1-2.844 1.308-8.692 4.982-21.416 14.799-35.434-7.166 5.4-15.757 13.669-20.803 24.841-.568 1.259-2.049 1.818-3.307 1.25s-1.818-2.049-1.25-3.307c7.455-16.507 21.896-27.042 29.842-31.853 1.529-.927 3.412-.629 4.579.723 1.152 1.336 1.17 3.292.042 4.653-13.087 15.799-17.533 30.402-18.958 39.87-.186 1.24-1.253 2.129-2.469 2.129z"/></g><g><path d="m88.324 86.458c-.477 0-.959-.137-1.386-.421-1.148-.767-1.458-2.319-.691-3.467 5-7.49 11.504-14.185 19.397-19.98-6.508 2.179-14.356 5.776-21.106 11.625-1.043.904-2.623.792-3.526-.252-.904-1.043-.792-2.623.252-3.526 11.163-9.673 24.954-13.63 32.181-15.127 1.678-.351 3.353.557 3.976 2.155.625 1.603.004 3.408-1.475 4.292-13.467 8.052-21.321 17.273-25.54 23.59-.482.72-1.274 1.111-2.082 1.111z"/></g><g><path d="m97.251 92.211c-.879 0-1.731-.464-2.188-1.287-.67-1.208-.234-2.729.973-3.399 4.787-2.657 9.97-4.855 15.484-6.571-6.022-.058-13.393.62-20.647 3.148-1.305.453-2.73-.234-3.184-1.538s.234-2.729 1.538-3.184c12.73-4.435 25.673-3.611 32.255-2.725 1.687.227 2.951 1.625 3.008 3.322.057 1.704-1.115 3.187-2.788 3.527-8.505 1.729-16.324 4.553-23.241 8.393-.383.212-.799.314-1.21.314z"/></g><g><path d="m45.089 87.097c-1.223 0-2.292-.897-2.471-2.143-1.379-9.542-5.797-24.263-19.01-40.213-1.127-1.36-1.109-3.316.043-4.652 1.166-1.353 3.049-1.65 4.579-.724 7.944 4.811 22.385 15.345 29.84 31.848.568 1.258.009 2.739-1.249 3.308s-2.739.009-3.308-1.249c-5.045-11.169-13.634-19.436-20.799-24.836 9.927 14.173 13.584 27.03 14.852 35.804.198 1.366-.75 2.634-2.117 2.832-.12.016-.241.025-.36.025z"/></g><g><path d="m36.497 86.332c-.806 0-1.596-.389-2.079-1.107-4.214-6.282-12.053-15.453-25.459-23.469-1.479-.883-2.099-2.688-1.474-4.291.623-1.598 2.297-2.503 3.976-2.155 7.206 1.493 20.959 5.437 32.11 15.066 1.045.902 1.161 2.481.258 3.526-.901 1.046-2.481 1.161-3.526.258-6.736-5.817-14.556-9.398-21.043-11.57 7.847 5.761 14.321 12.412 19.31 19.848.769 1.147.463 2.7-.683 3.469-.427.287-.911.424-1.39.425z"/></g><g><path d="m27.438 92.091c-.408 0-.821-.1-1.203-.311-6.866-3.78-14.615-6.564-23.031-8.276-1.673-.34-2.846-1.824-2.789-3.527.057-1.697 1.321-3.095 3.007-3.322 6.513-.877 19.326-1.702 31.972 2.627 1.306.447 2.003 1.869 1.556 3.175-.447 1.307-1.869 2.003-3.175 1.556-7.17-2.455-14.446-3.104-20.389-3.059 5.428 1.689 10.536 3.846 15.26 6.447 1.209.666 1.65 2.186.984 3.396-.455.827-1.31 1.294-2.192 1.294z"/></g><g><path d="m68.4 88.157c-.037 0-.074-.001-.111-.002-1.379-.061-2.449-1.228-2.388-2.607l1.849-42.253c-.012-4.116-1.399-8.178-3.91-11.442l-1.43-1.859-1.344 1.859c-2.51 3.263-3.898 7.325-3.91 11.442l1.844 42.14c.061 1.379-1.009 2.546-2.388 2.607-1.359.054-2.547-1.008-2.607-2.388l-1.847-42.197c-.001-.037-.002-.073-.002-.109 0-5.232 1.757-10.397 4.947-14.544l1.43-1.859c.944-1.227 2.372-1.93 3.92-1.93 1.547 0 2.976.704 3.919 1.93l1.43 1.859c3.19 4.147 4.947 9.313 4.947 14.544 0 .037-.001.073-.002.109l-1.852 42.309c-.058 1.342-1.165 2.391-2.495 2.391z"/></g><g><path d="m62.453 109c-6.208 0-11.071-6.369-11.071-14.5s4.863-14.5 11.071-14.5 11.072 6.369 11.072 14.5-4.864 14.5-11.072 14.5zm0-24c-3.291 0-6.071 4.351-6.071 9.5s2.78 9.5 6.071 9.5 6.072-4.351 6.072-9.5-2.781-9.5-6.072-9.5z"/></g><g><path d="m157.653 219.297c-.377 0-.761-.085-1.12-.267-1.234-.62-1.731-2.123-1.111-3.356l10.318-20.535c1.665-3.316 5.457-4.905 9.021-3.78 1.186.375 2.268 1.069 3.219 2.066l13.27 13.902c.714.748 1.677 1.16 2.711 1.16s1.997-.412 2.712-1.16l13.269-13.901c.951-.997 2.033-1.691 3.218-2.066 3.562-1.125 7.356.464 9.022 3.78l10.197 20.295c.62 1.234.123 2.736-1.111 3.356-1.231.619-2.736.122-3.355-1.111l-10.198-20.296c-.558-1.109-1.837-1.638-3.048-1.257-.366.116-.75.375-1.107.75l-13.27 13.902c-1.668 1.746-3.915 2.708-6.328 2.708s-4.66-.961-6.327-2.707l-13.271-13.902c-.357-.375-.741-.634-1.108-.75-1.202-.381-2.488.147-3.046 1.257l-10.319 20.536c-.441.871-1.323 1.376-2.238 1.376z"/></g><g><path d="m193.961 232.488c-12.154 0-24.308-.82-36.376-2.46-1.368-.186-2.326-1.446-2.141-2.814.187-1.368 1.445-2.332 2.814-2.14 23.602 3.208 47.54 3.221 71.146.035 1.367-.18 2.628.775 2.812 2.143.185 1.369-.775 2.627-2.144 2.812-11.98 1.616-24.047 2.424-36.111 2.424z"/></g></g></g></svg>