<svg enable-background="new 0 0 256 256" height="512" viewBox="0 0 256 256" width="512" xmlns="http://www.w3.org/2000/svg"><g id="Layer_20"><g><g><path d="m5.911 123.699c0 23.703 13.121 44.328 32.49 55.044 2.62 1.45 5.568 2.207 8.562 2.207h43.669c2.994 0 5.942-.757 8.562-2.207 19.369-10.716 32.49-31.342 32.49-55.044s-13.121-44.328-32.49-55.044c-2.62-1.45-5.568-2.207-8.562-2.207h-43.67c-2.994 0-5.942.757-8.562 2.207-19.368 10.716-32.489 31.341-32.489 55.044z" fill="#fc657e"/></g><g><path d="m46.962 66.448h43.669c.386 0 .772.014 1.156.039v-3.034c0-3.807-3.115-6.922-6.922-6.922h-32.137c-3.807 0-6.922 3.115-6.922 6.922v3.034c.384-.026.77-.039 1.156-.039z" fill="#f5c84c"/></g><g><path d="m81.331 225.189v-6.245c0-2.697-2.207-4.904-4.904-4.904h-15.261c-2.697 0-4.904 2.207-4.904 4.904v6.245c.669-.044 24.403-.044 25.069 0z" fill="#f5c84c"/></g><g><path d="m90.631 180.95h-43.669c-.386 0-.772-.014-1.156-.039v3.034c0 3.807 3.115 6.922 6.922 6.922h32.137c3.807 0 6.922-3.115 6.922-6.922v-3.034c-.384.025-.77.039-1.156.039z" fill="#f5c84c"/></g><g><path d="m145.404 79.408c0 19.833 10.979 37.092 27.186 46.059 2.192 1.213 4.659 1.847 7.164 1.847h36.54c2.505 0 4.972-.634 7.164-1.847 16.207-8.967 27.186-26.226 27.186-46.059s-10.979-37.092-27.186-46.059c-2.192-1.213-4.659-1.847-7.164-1.847h-36.54c-2.505 0-4.972.634-7.164 1.847-16.206 8.966-27.186 26.225-27.186 46.059z" fill="#fc657e"/></g><g><path d="m179.755 31.502h36.54c.323 0 .646.011.968.032v-4.539c0-3.186-2.606-5.792-5.792-5.792h-26.891c-3.186 0-5.792 2.606-5.792 5.792v4.539c.321-.021.644-.032.967-.032z" fill="#f5c84c"/></g><g><path d="m208.514 167.331v-6.226c0-2.257-1.847-4.104-4.104-4.104h-12.77c-2.257 0-4.104 1.847-4.104 4.104v6.226c.56-.037 20.421-.037 20.978 0z" fill="#f5c84c"/></g><g><path d="m216.295 127.313h-36.54c-.323 0-.646-.011-.967-.032v4.539c0 3.186 2.606 5.792 5.792 5.792h26.891c3.186 0 5.792-2.606 5.792-5.792v-4.539c-.322.021-.644.032-.968.032z" fill="#f5c84c"/></g><g><path d="m33.35 50.2c-3.1-.6-5.6-3-6.2-6.1 0-.1-.3-.1-.3 0-.6 3.1-3.1 5.5-6.2 6.1-.1 0-.1.2 0 .3 3.1.6 5.6 3 6.2 6.1 0 .1.3.1.3 0 .6-3.1 3.1-5.5 6.2-6.1.1-.1.1-.3 0-.3z" fill="#87d147"/></g><g><path d="m111.9 38.9h2.3v2.3c0 1.8 1.4 3.2 3.2 3.2 1.7 0 3.2-1.4 3.2-3.1v-.1-2.3h2.3c1.8 0 3.2-1.4 3.2-3.2 0-1.7-1.4-3.2-3.1-3.2h-.1-2.3v-2.3c0-1.8-1.4-3.2-3.2-3.2-1.7 0-3.2 1.4-3.2 3.1v.1 2.3h-2.3c-1.8 0-3.2 1.4-3.2 3.2-.1 1.7 1.3 3.2 3.2 3.2-.1 0-.1 0 0 0z" fill="#70d6f9"/></g><g><circle cx="116.3" cy="213.9" fill="#fc657e" r="3.4"/></g><g><circle cx="145.3" cy="13.4" fill="#f5c84c" r="3.4"/></g><g><path d="m136.7 193.2c4.5-.8 8-4.3 8.9-8.7 0-.2.4-.2.4 0 .9 4.4 4.4 7.9 8.9 8.7.2 0 .2.3 0 .4-4.5.8-8 4.3-8.9 8.7 0 .2-.4.2-.4 0-.9-4.4-4.4-7.9-8.9-8.7-.2-.1-.2-.4 0-.4z" fill="#f5c84c"/></g><g><path d="m90.631 183.45h-43.669c-3.413 0-6.792-.871-9.771-2.519-20.837-11.528-33.78-33.458-33.78-57.232 0-23.773 12.943-45.704 33.78-57.231 2.979-1.648 6.357-2.52 9.771-2.52h43.669c3.415 0 6.794.871 9.772 2.52 20.836 11.527 33.779 33.457 33.779 57.231s-12.943 45.705-33.78 57.232c-2.977 1.648-6.357 2.519-9.771 2.519zm-43.669-114.502c-2.569 0-5.111.655-7.352 1.895-19.245 10.648-31.2 30.901-31.2 52.856 0 21.956 11.955 42.209 31.2 52.857 2.24 1.239 4.782 1.894 7.352 1.894h43.669c2.569 0 5.112-.655 7.352-1.894 19.245-10.647 31.2-30.901 31.2-52.857s-11.955-42.209-31.2-52.856c-2.239-1.239-4.781-1.895-7.352-1.895z"/></g><g><path d="m45.806 68.063c-1.381 0-2.5-1.119-2.5-2.5v-2.111c0-5.195 4.228-9.422 9.423-9.422h32.137c5.195 0 9.422 4.227 9.422 9.422v1.986c0 1.381-1.119 2.5-2.5 2.5s-2.5-1.119-2.5-2.5v-1.986c0-2.438-1.983-4.422-4.422-4.422h-32.137c-2.438 0-4.423 1.984-4.423 4.422v2.111c0 1.381-1.119 2.5-2.5 2.5z"/></g><g><path d="m81.331 226.813c-1.381 0-2.5-1.119-2.5-2.5v-5.37c0-1.326-1.078-2.404-2.404-2.404h-15.261c-1.326 0-2.404 1.079-2.404 2.404v5.264c0 1.381-1.119 2.5-2.5 2.5s-2.5-1.119-2.5-2.5v-5.264c0-4.083 3.321-7.404 7.404-7.404h15.261c4.083 0 7.404 3.322 7.404 7.404v5.37c0 1.381-1.119 2.5-2.5 2.5z"/></g><g><path d="m84.865 193.367h-32.136c-5.195 0-9.423-4.227-9.423-9.422v-2.07c0-1.381 1.119-2.5 2.5-2.5s2.5 1.119 2.5 2.5v2.07c0 2.438 1.984 4.422 4.423 4.422h32.137c2.438 0 4.422-1.983 4.422-4.422v-2.195c0-1.381 1.119-2.5 2.5-2.5s2.5 1.119 2.5 2.5v2.195c-.001 5.196-4.227 9.422-9.423 9.422z"/></g><g><path d="m63.36 58.278c-1.381 0-2.5-1.119-2.5-2.5v-4.198c0-4.376 3.561-7.937 7.937-7.937s7.937 3.561 7.937 7.937v4.077c0 1.381-1.119 2.5-2.5 2.5s-2.5-1.119-2.5-2.5v-4.077c0-1.619-1.317-2.937-2.937-2.937s-2.937 1.317-2.937 2.937v4.198c0 1.381-1.119 2.5-2.5 2.5z"/></g><g><path d="m68.797 47.864c-1.381 0-2.5-1.119-2.5-2.5v-42.864c0-1.381 1.119-2.5 2.5-2.5s2.5 1.119 2.5 2.5v42.864c0 1.381-1.119 2.5-2.5 2.5z"/></g><g><path d="m126.628 91.848h-115.663c-1.381 0-2.5-1.119-2.5-2.5s1.119-2.5 2.5-2.5h115.663c1.381 0 2.5 1.119 2.5 2.5s-1.119 2.5-2.5 2.5z"/></g><g><path d="m135.093 114.749h-132.593c-1.381 0-2.5-1.119-2.5-2.5s1.119-2.5 2.5-2.5h132.593c1.381 0 2.5 1.119 2.5 2.5s-1.119 2.5-2.5 2.5z"/></g><g><path d="m135.093 137.649h-132.593c-1.381 0-2.5-1.119-2.5-2.5s1.119-2.5 2.5-2.5h132.593c1.381 0 2.5 1.119 2.5 2.5s-1.119 2.5-2.5 2.5z"/></g><g><path d="m126.63 160.549h-115.665c-1.381 0-2.5-1.119-2.5-2.5s1.119-2.5 2.5-2.5h115.665c1.381 0 2.5 1.119 2.5 2.5s-1.119 2.5-2.5 2.5z"/></g><g><path d="m55.014 204.717c-1.381 0-2.5-1.119-2.5-2.5v-10.598c0-1.381 1.119-2.5 2.5-2.5s2.5 1.119 2.5 2.5v10.598c0 1.381-1.119 2.5-2.5 2.5z"/></g><g><path d="m68.797 215.82c-1.381 0-2.5-1.119-2.5-2.5v-20.178c0-1.381 1.119-2.5 2.5-2.5s2.5 1.119 2.5 2.5v20.178c0 1.381-1.119 2.5-2.5 2.5z"/></g><g><path d="m82.58 204.717c-1.381 0-2.5-1.119-2.5-2.5v-10.598c0-1.381 1.119-2.5 2.5-2.5s2.5 1.119 2.5 2.5v10.598c0 1.381-1.119 2.5-2.5 2.5z"/></g><g><g><path d="m55.79 256c-1.381 0-2.5-1.119-2.5-2.5v-26.457c0-1.381 1.119-2.5 2.5-2.5s2.5 1.119 2.5 2.5v26.457c0 1.381-1.119 2.5-2.5 2.5z"/></g><g><path d="m64.461 256c-1.381 0-2.5-1.119-2.5-2.5v-26.457c0-1.381 1.119-2.5 2.5-2.5s2.5 1.119 2.5 2.5v26.457c0 1.381-1.119 2.5-2.5 2.5z"/></g><g><path d="m81.803 256c-1.381 0-2.5-1.119-2.5-2.5v-26.457c0-1.381 1.119-2.5 2.5-2.5s2.5 1.119 2.5 2.5v26.457c0 1.381-1.119 2.5-2.5 2.5z"/></g><g><path d="m73.132 256c-1.381 0-2.5-1.119-2.5-2.5v-26.457c0-1.381 1.119-2.5 2.5-2.5s2.5 1.119 2.5 2.5v26.457c0 1.381-1.119 2.5-2.5 2.5z"/></g></g><g><path d="m85.045 227.688h-32.496c-1.381 0-2.5-1.119-2.5-2.5s1.119-2.5 2.5-2.5h32.496c1.381 0 2.5 1.119 2.5 2.5s-1.119 2.5-2.5 2.5z"/></g><g><path d="m216.296 129.813h-36.541c-2.925 0-5.821-.747-8.374-2.159-17.565-9.718-28.477-28.205-28.477-48.247s10.911-38.529 28.477-48.247c2.553-1.413 5.449-2.159 8.374-2.159h36.541c2.925 0 5.821.747 8.374 2.159 17.565 9.718 28.477 28.205 28.477 48.247s-10.911 38.529-28.477 48.247c-2.553 1.413-5.449 2.159-8.374 2.159zm-36.541-95.811c-2.081 0-4.14.531-5.954 1.534-15.974 8.838-25.896 25.648-25.896 43.872s9.923 35.034 25.896 43.872c1.814 1.003 3.873 1.534 5.954 1.534h36.541c2.081 0 4.14-.531 5.954-1.534 15.974-8.838 25.896-25.648 25.896-43.872s-9.923-35.034-25.896-43.872c-1.814-1.003-3.873-1.534-5.954-1.534z"/></g><g><path d="m178.787 33.333c-1.381 0-2.5-1.119-2.5-2.5v-3.837c0-4.572 3.72-8.292 8.293-8.292h26.891c4.572 0 8.292 3.72 8.292 8.292v3.817c0 1.381-1.119 2.5-2.5 2.5s-2.5-1.119-2.5-2.5v-3.817c0-1.815-1.477-3.292-3.292-3.292h-26.891c-1.815 0-3.293 1.477-3.293 3.292v3.837c0 1.38-1.119 2.5-2.5 2.5z"/></g><g><path d="m208.514 169c-1.381 0-2.5-1.119-2.5-2.5v-5.395c0-.87-.734-1.604-1.604-1.604h-12.77c-.869 0-1.604.734-1.604 1.604v5.228c0 1.381-1.119 2.5-2.5 2.5s-2.5-1.119-2.5-2.5v-5.228c0-3.642 2.962-6.604 6.604-6.604h12.77c3.642 0 6.604 2.962 6.604 6.604v5.395c0 1.381-1.119 2.5-2.5 2.5z"/></g><g><path d="m211.471 140.112h-26.891c-4.573 0-8.293-3.72-8.293-8.292v-3.695c0-1.381 1.119-2.5 2.5-2.5s2.5 1.119 2.5 2.5v3.695c0 1.815 1.478 3.292 3.293 3.292h26.891c1.815 0 3.292-1.477 3.292-3.292v-3.487c0-1.381 1.119-2.5 2.5-2.5s2.5 1.119 2.5 2.5v3.487c0 4.572-3.72 8.292-8.292 8.292z"/></g><g><path d="m193.477 23.074c-1.381 0-2.5-1.119-2.5-2.5v-3.513c0-3.887 3.162-7.049 7.049-7.049s7.049 3.162 7.049 7.049v3.412c0 1.381-1.119 2.5-2.5 2.5s-2.5-1.119-2.5-2.5v-3.412c0-1.13-.919-2.049-2.049-2.049s-2.049.919-2.049 2.049v3.513c0 1.381-1.12 2.5-2.5 2.5z"/></g><g><path d="m198.025 14.359c-1.381 0-2.5-1.119-2.5-2.5v-9.359c0-1.381 1.119-2.5 2.5-2.5s2.5 1.119 2.5 2.5v9.359c0 1.381-1.119 2.5-2.5 2.5z"/></g><g><path d="m246.417 53.164h-96.783c-1.381 0-2.5-1.119-2.5-2.5s1.119-2.5 2.5-2.5h96.783c1.381 0 2.5 1.119 2.5 2.5s-1.119 2.5-2.5 2.5z"/></g><g><path d="m253.499 72.327h-110.948c-1.381 0-2.5-1.119-2.5-2.5s1.119-2.5 2.5-2.5h110.948c1.381 0 2.5 1.119 2.5 2.5s-1.119 2.5-2.5 2.5z"/></g><g><path d="m253.5 91.489h-110.949c-1.381 0-2.5-1.119-2.5-2.5s1.119-2.5 2.5-2.5h110.949c1.381 0 2.5 1.119 2.5 2.5s-1.119 2.5-2.5 2.5z"/></g><g><path d="m246.418 110.651h-96.784c-1.381 0-2.5-1.119-2.5-2.5s1.119-2.5 2.5-2.5h96.784c1.381 0 2.5 1.119 2.5 2.5s-1.119 2.5-2.5 2.5z"/></g><g><path d="m186.492 149.608c-1.381 0-2.5-1.119-2.5-2.5v-8.868c0-1.381 1.119-2.5 2.5-2.5s2.5 1.119 2.5 2.5v8.868c0 1.381-1.119 2.5-2.5 2.5z"/></g><g><path d="m198.025 158.899c-1.381 0-2.5-1.119-2.5-2.5v-16.884c0-1.381 1.119-2.5 2.5-2.5s2.5 1.119 2.5 2.5v16.884c0 1.381-1.119 2.5-2.5 2.5z"/></g><g><path d="m209.559 149.608c-1.381 0-2.5-1.119-2.5-2.5v-8.868c0-1.381 1.119-2.5 2.5-2.5s2.5 1.119 2.5 2.5v8.868c0 1.381-1.12 2.5-2.5 2.5z"/></g><g><path d="m187.143 193.521c-1.381 0-2.5-1.119-2.5-2.5v-22.138c0-1.381 1.119-2.5 2.5-2.5s2.5 1.119 2.5 2.5v22.138c0 1.38-1.12 2.5-2.5 2.5z"/></g><g><path d="m198.025 193.521c-1.381 0-2.5-1.119-2.5-2.5v-22.138c0-1.381 1.119-2.5 2.5-2.5s2.5 1.119 2.5 2.5v22.138c0 1.38-1.119 2.5-2.5 2.5z"/></g><g><path d="m208.908 193.521c-1.381 0-2.5-1.119-2.5-2.5v-22.138c0-1.381 1.119-2.5 2.5-2.5s2.5 1.119 2.5 2.5v22.138c0 1.38-1.119 2.5-2.5 2.5z"/></g><g><path d="m211.621 169.831h-27.191c-1.381 0-2.5-1.119-2.5-2.5s1.119-2.5 2.5-2.5h27.191c1.381 0 2.5 1.119 2.5 2.5s-1.119 2.5-2.5 2.5z"/></g></g></g></svg>