<svg enable-background="new 0 0 256 256" height="512" viewBox="0 0 256 256" width="512" xmlns="http://www.w3.org/2000/svg"><g id="Layer_32"><g><g><path d="m140.492 46.727h-24.984c-2.313 0-4.188-1.875-4.188-4.188v-35.851c0-2.313 1.875-4.188 4.188-4.188h24.984c2.313 0 4.188 1.875 4.188 4.188v35.852c-.001 2.312-1.875 4.187-4.188 4.187z" fill="#fcdd86"/></g><g><g><path d="m141.131 181.854c.316.288.616.592.899.912l15.651-13.799c4.225-3.725 10.188-3.605 14.273-.526l-5.531-18.742c-.655-2.218-2.983-3.486-5.202-2.831l-23.962 7.071c-2.218.655-3.486 2.983-2.831 5.202z" fill="#fcdd86"/></g></g><g><g><path d="m98.319 168.967 15.651 13.799c.283-.321.583-.625.899-.912l6.703-22.712c.655-2.218-.613-4.547-2.831-5.202l-23.962-7.071c-2.218-.655-4.547.613-5.202 2.831l-5.531 18.742c4.084-3.079 10.047-3.2 14.273.525z" fill="#fcdd86"/></g></g><g><path d="m114.869 181.854c2.056-1.873 4.775-3.029 7.759-3.029h10.745c2.983 0 5.703 1.156 7.759 3.029l-6.702-22.712c-.161-.547-.204-1.1-.146-1.634-1.984-.622-4.093-.962-6.283-.962s-4.299.34-6.283.962c.058.534.015 1.087-.146 1.634z" fill="#87d147"/></g><g><path d="m77.906 179.303 2.487-6.119c.807-1.985 2.098-3.571 3.652-4.743l5.531-18.742c.568-1.924 2.396-3.128 4.318-2.988-1.161-.233-2.331-.372-3.498-.406-4.133-.121-7.534-3.523-7.656-7.656-.099-3.358-1.007-6.74-2.804-9.854-1.798-3.114-4.273-5.592-7.132-7.356-3.519-2.172-4.764-6.818-2.802-10.458 1.594-2.957 2.498-6.34 2.498-9.936s-.905-6.979-2.498-9.936c-1.961-3.64-.716-8.286 2.802-10.458 2.859-1.764 5.334-4.242 7.132-7.356s2.706-6.496 2.804-9.854c.121-4.133 3.523-7.534 7.656-7.656 3.358-.099 6.74-1.007 9.854-2.804s5.591-4.273 7.356-7.132c.901-1.459 2.229-2.52 3.733-3.131-.003-.061-.018-.118-.018-.179v-30.725c-.217.284-.43.571-.632.866-2.65 3.869-7.649 5.208-11.879 3.183-6.03-2.888-13.33-2.852-19.56.745s-9.91 9.901-10.425 16.567c-.361 4.676-4.02 8.335-8.696 8.696-6.666.514-12.97 4.195-16.567 10.425-3.597 6.229-3.632 13.529-.745 19.56 2.025 4.229.686 9.229-3.183 11.879-5.516 3.779-9.135 10.118-9.135 17.312 0 7.193 3.619 13.533 9.135 17.311 3.869 2.65 5.208 7.649 3.183 11.879-2.888 6.03-2.852 13.33.745 19.56 3.597 6.229 9.901 9.91 16.567 10.425 4.676.361 8.335 4.021 8.696 8.696.452 5.855 3.347 11.429 8.266 15.136-.07-1.563.174-3.173.815-4.751z" fill="#87d147"/></g><g><path d="m216.365 83.734c-3.869-2.65-5.208-7.649-3.183-11.879 2.888-6.03 2.852-13.33-.745-19.56s-9.901-9.91-16.567-10.425c-4.676-.361-8.335-4.02-8.696-8.696-.514-6.666-4.195-12.97-10.425-16.567s-13.529-3.632-19.56-.745c-4.23 2.025-9.229.686-11.879-3.183-.202-.295-.415-.582-.632-.866v30.727c0 .062-.015.118-.018.179 1.503.611 2.832 1.672 3.733 3.131 1.764 2.859 4.242 5.334 7.356 7.132s6.496 2.706 9.854 2.804c4.133.121 7.535 3.523 7.656 7.656.099 3.358 1.007 6.74 2.804 9.854 1.798 3.114 4.273 5.591 7.132 7.356 3.519 2.172 4.764 6.818 2.802 10.458-1.594 2.958-2.498 6.341-2.498 9.936s.905 6.979 2.498 9.936c1.961 3.64.716 8.287-2.802 10.458-2.859 1.764-5.334 4.242-7.132 7.356s-2.706 6.496-2.804 9.854c-.121 4.133-3.523 7.535-7.656 7.656-1.168.034-2.337.173-3.498.406 1.922-.14 3.75 1.063 4.318 2.988l5.531 18.742c1.554 1.171 2.845 2.757 3.652 4.743l2.487 6.119c.641 1.578.885 3.188.815 4.749 4.918-3.707 7.814-9.281 8.266-15.136.361-4.676 4.02-8.335 8.696-8.696 6.666-.514 12.97-4.195 16.567-10.425 3.597-6.229 3.632-13.53.745-19.56-2.025-4.23-.686-9.229 3.183-11.879 5.516-3.778 9.135-10.118 9.135-17.311 0-7.194-3.619-13.533-9.135-17.312z" fill="#87d147"/></g><g><path d="m133.373 212.678h-10.745c-6.355 0-11.554-5.199-11.554-11.554v-10.745c0-6.355 5.199-11.554 11.554-11.554h10.745c6.355 0 11.554 5.199 11.554 11.554v10.745c0 6.355-5.2 11.554-11.554 11.554z" fill="#f98fa6"/></g><g><path d="m167.327 194.329-22.4-1.692v8.488c0 3.705-1.775 7.009-4.509 9.127l11.933 13.804c6.165 7.132 17.598 5.718 21.84-2.702l3.963-7.865c4.241-8.421-1.426-18.45-10.827-19.16z" fill="#fc657e"/></g><g><path d="m111.073 201.124v-8.488l-22.4 1.692c-9.401.71-15.068 10.739-10.826 19.159l3.963 7.865c4.242 8.42 15.674 9.834 21.84 2.702l11.933-13.804c-2.735-2.117-4.51-5.421-4.51-9.126z" fill="#fc657e"/></g><g><path d="m178.094 179.303-2.487-6.119c-2.928-7.204-12.092-9.359-17.925-4.217l-15.651 13.799c1.795 2.038 2.896 4.7 2.896 7.612v2.258l22.4 1.692c.746.056 1.458.191 2.153.359 7.025-1.143 11.377-8.587 8.614-15.384z" fill="#fc657e"/></g><g><path d="m111.073 190.379c0-2.913 1.101-5.575 2.896-7.612l-15.651-13.799c-5.833-5.143-14.997-2.987-17.925 4.217l-2.487 6.119c-2.763 6.797 1.589 14.241 8.614 15.384.696-.168 1.408-.302 2.153-.359l22.4-1.692z" fill="#fc657e"/></g><g><g><path d="m155.977 226.986c-1.322-.731-2.556-1.694-3.626-2.931l-11.933-13.804c-1.955 1.515-4.396 2.428-7.046 2.428h-5.021l11.853 39.548c.43 1.434 2.328 1.735 3.179.503l5.215-7.543c.475-.687 1.363-.953 2.137-.641l8.504 3.432c1.389.56 2.809-.734 2.379-2.169z" fill="#ef4460"/></g></g><g><g><path d="m122.627 212.678c-2.649 0-5.091-.913-7.045-2.427l-11.933 13.804c-1.07 1.237-2.304 2.201-3.626 2.931l-5.641 18.823c-.43 1.434.99 2.729 2.379 2.169l8.504-3.432c.774-.313 1.662-.046 2.137.641l5.215 7.543c.851 1.232 2.749.932 3.179-.503l11.853-39.548h-5.022z" fill="#ef4460"/></g></g><g><circle cx="56.25" cy="119.546" fill="#dae6f1" r="9.5"/></g><g><circle cx="199.25" cy="119.546" fill="#70d6f9" r="9.5"/></g><g><circle cx="56.75" cy="82.546" fill="#70d6f9" r="9.5"/></g><g><circle cx="199.75" cy="82.546" fill="#dae6f1" r="9.5"/></g><g><circle cx="179.646" cy="48.591" fill="#70d6f9" r="9.5"/></g><g><circle cx="76.354" cy="153.5" fill="#70d6f9" r="9.5"/></g><g><circle cx="179.896" cy="153.933" fill="#dae6f1" r="9.5"/></g><g><circle cx="76.104" cy="48.158" fill="#dae6f1" r="9.5"/></g><g><path d="m122.043 2.5h11.914v44.227h-11.914z" fill="#f5c84c"/></g><g><g><path d="m157.681 168.967c.847-.747 1.769-1.322 2.727-1.767l-5.454-18.482-11.427 3.372 6.875 23.295z" fill="#f5c84c"/></g></g><g><path d="m98.319 168.967 7.279 6.418 6.875-23.295-11.427-3.372-5.454 18.482c.958.446 1.88 1.021 2.727 1.767z" fill="#f5c84c"/></g><g><path d="m55.775 183.525c-3.1-.6-5.6-3-6.2-6.1 0-.1-.3-.1-.3 0-.6 3.1-3.1 5.5-6.2 6.1-.1 0-.1.2 0 .3 3.1.6 5.6 3 6.2 6.1 0 .1.3.1.3 0 .6-3.1 3.1-5.5 6.2-6.1.1-.1.1-.3 0-.3z" fill="#87d147"/></g><g><circle cx="189.3" cy="241.6" fill="#fc657e" r="3.4"/></g><g><path d="m38.9 23.9h2.3v2.3c0 1.8 1.4 3.2 3.2 3.2 1.7 0 3.2-1.4 3.2-3.1v-.1-2.3h2.3c1.8 0 3.2-1.4 3.2-3.2 0-1.7-1.4-3.2-3.1-3.2h-.1-2.3v-2.3c0-1.8-1.4-3.2-3.2-3.2-1.7 0-3.2 1.4-3.2 3.1v.1 2.3h-2.3c-1.8 0-3.2 1.4-3.2 3.2-.1 1.7 1.3 3.2 3.2 3.2-.1 0-.1 0 0 0z" fill="#70d6f9"/></g><g><circle cx="71.3" cy="3.4" fill="#f5c84c" r="3.4"/></g><g><path d="m196.7 216.75c4.5-.8 8-4.3 8.9-8.7 0-.2.4-.2.4 0 .9 4.4 4.4 7.9 8.9 8.7.2 0 .2.3 0 .4-4.5.8-8 4.3-8.9 8.7 0 .2-.4.2-.4 0-.9-4.4-4.4-7.9-8.9-8.7-.2-.1-.2-.4 0-.4z" fill="#f5c84c"/></g><g><path d="m140.492 49.227h-24.983c-3.688 0-6.688-3-6.688-6.688v-35.851c0-3.688 3-6.688 6.688-6.688h24.983c3.688 0 6.688 3 6.688 6.688v35.852c-.001 3.687-3.001 6.687-6.688 6.687zm-24.984-44.227c-.931 0-1.688.757-1.688 1.688v35.852c0 .931.757 1.688 1.688 1.688h24.983c.931 0 1.688-.757 1.688-1.688v-35.852c0-.931-.757-1.688-1.688-1.688z"/></g><g><g><path d="m140.968 183.803c-1.08 0-2.076-.705-2.397-1.793l-6.54-22.161c-1.043-3.537.985-7.263 4.521-8.307l23.963-7.072c1.711-.505 3.521-.313 5.09.54 1.569.854 2.711 2.268 3.217 3.981l5.387 18.257c.391 1.324-.366 2.714-1.69 3.105-1.322.389-2.715-.366-3.105-1.69l-5.387-18.257c-.127-.432-.416-.789-.812-1.004s-.852-.264-1.285-.136l-23.962 7.071c-.892.263-1.404 1.204-1.141 2.096l6.54 22.161c.391 1.324-.366 2.714-1.69 3.105-.237.071-.475.104-.709.104z"/></g></g><g><g><path d="m115.062 183.702c-.234 0-.473-.033-.708-.103-1.324-.391-2.081-1.781-1.69-3.105l6.51-22.06c.263-.893-.249-1.833-1.141-2.097l-23.962-7.071c-.432-.128-.888-.08-1.285.136-.396.215-.684.572-.812 1.004l-5.453 18.479c-.392 1.324-1.78 2.079-3.105 1.69-1.324-.391-2.081-1.781-1.69-3.105l5.453-18.479c.506-1.713 1.648-3.127 3.217-3.981s3.377-1.046 5.09-.54l23.962 7.071c3.536 1.044 5.564 4.771 4.521 8.307l-6.51 22.061c-.321 1.089-1.317 1.793-2.397 1.793z"/></g></g><g><path d="m133.969 159.912c-.235 0-.475-.033-.712-.104-3.384-1.004-7.043-1.013-10.431-.025-1.327.385-2.713-.376-3.1-1.701s.375-2.713 1.701-3.1c4.303-1.254 8.951-1.243 13.251.032 1.324.393 2.079 1.784 1.686 3.108-.321 1.087-1.317 1.79-2.395 1.79z"/></g><g><path d="m76.811 186.338c-.538 0-1.079-.172-1.536-.529-5.175-4.038-8.434-10.125-8.942-16.701-.266-3.44-2.955-6.13-6.396-6.396-7.735-.597-14.666-4.958-18.54-11.667s-4.186-14.892-.834-21.889c1.49-3.113.506-6.787-2.341-8.737-6.401-4.384-10.222-11.627-10.222-19.373s3.821-14.989 10.222-19.374c2.847-1.95 3.832-5.625 2.341-8.737-3.351-6.998-3.039-15.18.834-21.889s10.804-11.071 18.54-11.667c3.441-.266 6.13-2.955 6.396-6.396.597-7.736 4.959-14.667 11.667-18.54 6.709-3.874 14.892-4.185 21.889-.834 3.112 1.491 6.787.506 8.737-2.341.178-.259.361-.511.549-.761.828-1.105 2.396-1.328 3.5-.499s1.328 2.396.499 3.5c-.145.193-.287.388-.424.587-3.352 4.894-9.669 6.587-15.02 4.024-5.511-2.639-11.95-2.394-17.23.655-5.279 3.048-8.712 8.504-9.182 14.594-.456 5.915-5.081 10.54-10.996 10.997-6.09.47-11.546 3.902-14.594 9.182s-3.293 11.721-.655 17.23c2.563 5.351.87 11.668-4.025 15.021-5.04 3.451-8.048 9.151-8.048 15.248 0 6.096 3.008 11.796 8.048 15.249 4.895 3.353 6.587 9.67 4.025 15.021-2.638 5.509-2.394 11.95.655 17.23s8.504 8.712 14.594 9.182c5.915.457 10.54 5.082 10.996 10.997.399 5.177 2.963 9.968 7.033 13.143 1.088.85 1.282 2.42.433 3.509-.493.631-1.229.961-1.973.961z"/></g><g><path d="m92.927 149.04c-.126 0-.255-.01-.384-.03-.745-.115-1.492-.184-2.221-.206-5.492-.161-9.919-4.589-10.081-10.082-.089-3.031-.943-6.032-2.471-8.677s-3.699-4.886-6.28-6.479c-4.675-2.885-6.296-8.935-3.69-13.771 1.438-2.67 2.199-5.696 2.199-8.75 0-3.055-.761-6.081-2.199-8.75-2.606-4.836-.986-10.885 3.69-13.771 2.581-1.593 4.752-3.833 6.28-6.478 1.527-2.646 2.382-5.646 2.471-8.678.161-5.492 4.589-9.92 10.081-10.082 3.032-.089 6.033-.943 8.678-2.47s4.885-3.699 6.479-6.28c.985-1.596 2.401-2.896 4.097-3.759 1.23-.626 2.736-.137 3.362 1.094.626 1.23.137 2.736-1.094 3.362-.878.447-1.607 1.113-2.11 1.929-2.026 3.283-4.874 6.044-8.233 7.984-3.359 1.939-7.174 3.025-11.031 3.138-2.802.083-5.148 2.429-5.23 5.23-.113 3.856-1.199 7.671-3.139 11.031s-4.701 6.207-7.984 8.233c-2.385 1.472-3.244 4.677-1.915 7.145 1.831 3.397 2.798 7.243 2.798 11.123 0 3.879-.967 7.726-2.798 11.122-1.33 2.467-.471 5.672 1.915 7.145 3.283 2.026 6.044 4.873 7.984 8.233s3.025 7.174 3.139 11.031c.082 2.802 2.428 5.148 5.229 5.23.935.028 1.889.116 2.836.262 1.365.21 2.3 1.488 2.089 2.852-.19 1.235-1.255 2.119-2.467 2.119z"/></g><g><path d="m162.598 149.119c-1.189 0-2.243-.852-2.458-2.063-.242-1.359.665-2.657 2.024-2.898 1.127-.2 2.26-.318 3.368-.351 2.802-.082 5.147-2.428 5.229-5.23.113-3.856 1.199-7.671 3.139-11.031s4.701-6.208 7.984-8.233c2.385-1.472 3.244-4.677 1.915-7.145-1.831-3.396-2.798-7.243-2.798-11.122 0-3.88.967-7.726 2.798-11.123 1.33-2.467.471-5.672-1.915-7.145-3.283-2.026-6.044-4.873-7.984-8.233s-3.025-7.175-3.139-11.031c-.082-2.801-2.428-5.147-5.23-5.23-3.856-.113-7.671-1.199-11.03-3.138-3.36-1.94-6.207-4.701-8.233-7.984-.523-.848-1.288-1.532-2.211-1.979-1.243-.602-1.763-2.097-1.162-3.339.601-1.243 2.095-1.765 3.339-1.162 1.782.862 3.266 2.195 4.289 3.854 1.593 2.581 3.833 4.752 6.478 6.279s5.646 2.381 8.677 2.47c5.492.162 9.92 4.59 10.082 10.082.089 3.031.943 6.032 2.471 8.678 1.527 2.646 3.699 4.885 6.28 6.478 4.676 2.886 6.296 8.935 3.69 13.771-1.438 2.67-2.199 5.696-2.199 8.75s.761 6.08 2.199 8.75c2.606 4.837.985 10.886-3.69 13.771-2.581 1.593-4.752 3.833-6.28 6.479s-2.382 5.646-2.471 8.677c-.161 5.492-4.589 9.92-10.081 10.082-.865.025-1.753.118-2.64.275-.149.028-.296.041-.441.041z"/></g><g><path d="m179.16 186.362c-.746 0-1.483-.332-1.976-.966-.848-1.09-.651-2.661.439-3.508 4.085-3.176 6.659-7.974 7.059-13.164.457-5.915 5.081-10.54 10.996-10.997 6.09-.47 11.546-3.902 14.594-9.182s3.293-11.721.655-17.23c-2.562-5.351-.87-11.668 4.025-15.021 5.039-3.452 8.047-9.152 8.047-15.249s-3.008-11.797-8.048-15.249c-4.895-3.353-6.587-9.67-4.025-15.021 2.638-5.509 2.394-11.95-.655-17.23s-8.504-8.712-14.594-9.182c-5.916-.457-10.54-5.082-10.996-10.997-.47-6.089-3.903-11.545-9.182-14.593s-11.721-3.292-17.23-.655c-5.348 2.563-11.667.87-15.021-4.025-.093-.136-.188-.267-.283-.397-.817-1.113-.578-2.677.534-3.495 1.112-.817 2.677-.578 3.495.534.129.176.256.354.38.535 1.948 2.844 5.621 3.827 8.735 2.338 6.998-3.351 15.18-3.039 21.889.834 6.708 3.873 11.07 10.804 11.667 18.539.265 3.441 2.955 6.13 6.396 6.396 7.735.597 14.667 4.958 18.54 11.667 3.874 6.709 4.186 14.892.834 21.889-1.49 3.112-.506 6.787 2.341 8.737 6.403 4.387 10.224 11.629 10.224 19.376s-3.821 14.989-10.222 19.374c-2.847 1.95-3.832 5.625-2.341 8.737 3.351 6.997 3.039 15.18-.834 21.889s-10.804 11.07-18.54 11.667c-3.44.266-6.13 2.956-6.396 6.396-.509 6.591-3.78 12.688-8.976 16.727-.455.354-.995.526-1.531.526z"/></g><g><path d="m133.373 215.178h-10.745c-7.75 0-14.054-6.305-14.054-14.054v-10.745c0-7.75 6.305-14.054 14.054-14.054h10.745c7.75 0 14.054 6.305 14.054 14.054v10.745c0 7.75-6.305 14.054-14.054 14.054zm-10.746-33.853c-4.993 0-9.054 4.062-9.054 9.054v10.745c0 4.993 4.062 9.054 9.054 9.054h10.745c4.993 0 9.054-4.062 9.054-9.054v-10.745c0-4.993-4.062-9.054-9.054-9.054z"/></g><g><path d="m162.355 231.137c-4.54 0-8.881-1.961-11.896-5.448l-11.222-12.981c-.903-1.044-.789-2.623.256-3.526 1.043-.903 2.623-.79 3.526.256l11.222 12.981c2.384 2.758 5.824 4.082 9.443 3.635 3.618-.447 6.633-2.571 8.272-5.827l3.962-7.865c1.64-3.255 1.552-6.942-.241-10.115s-4.907-5.151-8.542-5.426l-21.481-1.623c-1.376-.104-2.408-1.304-2.304-2.681.104-1.376 1.29-2.411 2.681-2.304l21.481 1.623c5.249.396 9.928 3.369 12.518 7.952 2.589 4.582 2.721 10.124.353 14.825l-3.962 7.865c-2.368 4.701-6.901 7.893-12.125 8.539-.646.08-1.296.12-1.941.12z"/></g><g><path d="m93.644 231.137c-.645 0-1.294-.04-1.943-.12-5.224-.646-9.756-3.838-12.125-8.539l-3.962-7.865c-2.368-4.701-2.236-10.243.354-14.825 2.589-4.583 7.269-7.555 12.517-7.952l21.582-1.63c1.377-.108 2.577.928 2.681 2.304.104 1.377-.928 2.577-2.304 2.681l-21.582 1.63c-3.635.275-6.748 2.252-8.541 5.426-1.793 3.173-1.881 6.86-.241 10.115l3.962 7.865c1.64 3.255 4.655 5.379 8.272 5.827 3.618.447 7.06-.877 9.443-3.635l11.417-13.206c.903-1.045 2.482-1.159 3.526-.256 1.045.903 1.16 2.481.256 3.526l-11.417 13.206c-3.013 3.487-7.354 5.448-11.895 5.448z"/></g><g><path d="m169.838 197.124c-1.171 0-2.217-.827-2.45-2.02-.266-1.355.617-2.669 1.972-2.934 2.564-.503 4.756-2.125 6.015-4.453 1.248-2.31 1.396-5.033.404-7.473l-2.488-6.119c-1.087-2.673-3.321-4.585-6.13-5.246-2.808-.661-5.662.055-7.826 1.963l-15.076 13.292c-1.035.913-2.615.814-3.528-.222-.914-1.036-.814-2.615.222-3.529l15.076-13.292c3.396-2.994 7.871-4.115 12.277-3.08 4.407 1.037 7.912 4.037 9.617 8.23l2.488 6.119c1.556 3.829 1.324 8.105-.637 11.733-1.971 3.646-5.416 6.191-9.451 6.981-.164.034-.325.05-.485.05z"/></g><g><path d="m85.796 197.045c-.186 0-.375-.021-.564-.064-3.92-.903-7.242-3.487-9.113-7.089-1.86-3.581-2.053-7.783-.529-11.53l2.487-6.119c1.705-4.194 5.21-7.194 9.617-8.23 4.406-1.038 8.881.085 12.277 3.08l15.13 13.34c1.036.913 1.135 2.493.222 3.528-.912 1.036-2.493 1.136-3.528.222l-15.13-13.34c-2.165-1.908-5.017-2.624-7.826-1.963s-5.043 2.573-6.13 5.246l-2.487 6.119c-.985 2.423-.866 5.03.334 7.342 1.194 2.3 3.308 3.948 5.799 4.522 1.345.31 2.185 1.652 1.875 2.998-.267 1.156-1.295 1.938-2.434 1.938z"/></g><g><g><path d="m141.931 256.001c-.227 0-.455-.018-.685-.054-1.643-.26-2.959-1.41-3.437-3.003l-11.627-38.795c-.396-1.323.354-2.716 1.677-3.112 1.321-.397 2.716.354 3.112 1.677l11.201 37.372 4.369-6.32c1.148-1.66 3.257-2.293 5.129-1.537l7.125 2.875-5.115-17.066c-.396-1.323.354-2.716 1.677-3.112 1.321-.398 2.716.354 3.112 1.677l5.542 18.49c.478 1.592.011 3.277-1.218 4.397-1.228 1.12-2.949 1.429-4.491.807l-7.974-3.218-4.89 7.073c-.811 1.175-2.114 1.849-3.507 1.849z"/></g></g><g><g><path d="m114.07 256.001c-1.394 0-2.697-.674-3.511-1.851l-4.889-7.072-7.974 3.218c-1.541.623-3.262.313-4.491-.807s-1.695-2.806-1.218-4.398l5.454-18.199c.396-1.322 1.791-2.075 3.112-1.677 1.323.396 2.073 1.79 1.677 3.112l-5.027 16.775 7.125-2.875c1.872-.755 3.981-.123 5.129 1.537l4.37 6.32 11.201-37.372c.395-1.323 1.79-2.075 3.112-1.677 1.323.396 2.073 1.79 1.677 3.112l-11.627 38.795c-.477 1.593-1.793 2.743-3.436 3.003-.23.038-.458.056-.684.056z"/></g></g><g><path d="m56.25 131.545c-6.617 0-12-5.383-12-12s5.383-12 12-12 12 5.383 12 12-5.383 12-12 12zm0-19c-3.86 0-7 3.14-7 7s3.14 7 7 7 7-3.14 7-7-3.14-7-7-7z"/></g><g><path d="m199.25 131.545c-6.617 0-12-5.383-12-12s5.383-12 12-12 12 5.383 12 12-5.383 12-12 12zm0-19c-3.86 0-7 3.14-7 7s3.14 7 7 7 7-3.14 7-7-3.14-7-7-7z"/></g><g><path d="m56.75 94.545c-6.617 0-12-5.383-12-12s5.383-12 12-12 12 5.383 12 12-5.383 12-12 12zm0-19c-3.86 0-7 3.14-7 7s3.14 7 7 7 7-3.14 7-7-3.14-7-7-7z"/></g><g><path d="m199.75 94.545c-6.617 0-12-5.383-12-12s5.383-12 12-12 12 5.383 12 12-5.383 12-12 12zm0-19c-3.86 0-7 3.14-7 7s3.14 7 7 7 7-3.14 7-7-3.14-7-7-7z"/></g><g><path d="m179.627 60.597c-2.08 0-4.132-.545-5.981-1.613-2.776-1.603-4.762-4.19-5.591-7.286s-.403-6.33 1.199-9.106 4.19-4.762 7.286-5.591c3.096-.83 6.33-.404 9.106 1.199 2.776 1.603 4.762 4.19 5.591 7.286s.403 6.33-1.199 9.106-4.19 4.762-7.286 5.591c-1.033.276-2.083.413-3.125.414zm.031-19.009c-.608 0-1.22.08-1.823.241-1.806.484-3.315 1.642-4.25 3.262s-1.184 3.506-.7 5.312 1.642 3.315 3.262 4.25c1.619.934 3.505 1.182 5.312.7 1.806-.484 3.315-1.642 4.25-3.262s1.184-3.506.7-5.312-1.642-3.315-3.262-4.25c-1.079-.622-2.276-.941-3.489-.941z"/></g><g><path d="m76.334 165.505c-2.08 0-4.131-.545-5.98-1.613-2.776-1.603-4.762-4.19-5.591-7.287-.83-3.096-.403-6.33 1.199-9.105s4.19-4.762 7.286-5.591c3.097-.828 6.33-.403 9.106 1.199 2.776 1.603 4.762 4.19 5.591 7.287s.403 6.33-1.199 9.106-4.19 4.761-7.286 5.591c-1.034.276-2.084.413-3.126.413zm.031-19.004c-2.421 0-4.779 1.255-6.074 3.499-.935 1.619-1.184 3.505-.7 5.312s1.643 3.315 3.262 4.25c1.62.935 3.505 1.185 5.312.699 1.806-.484 3.315-1.642 4.25-3.261.935-1.62 1.184-3.506.7-5.312s-1.643-3.315-3.262-4.25c-1.099-.635-2.301-.937-3.488-.937z"/></g><g><path d="m179.916 165.938c-1.042 0-2.092-.137-3.125-.414-3.096-.83-5.684-2.815-7.286-5.591s-2.029-6.01-1.199-9.106 2.815-5.684 5.591-7.287c2.776-1.603 6.008-2.029 9.106-1.199 3.096.83 5.684 2.815 7.286 5.591 1.603 2.775 2.029 6.009 1.199 9.105s-2.815 5.684-5.591 7.287c-1.85 1.069-3.902 1.614-5.981 1.614zm-3.52-18.067c-1.619.935-2.778 2.445-3.262 4.25-.484 1.806-.235 3.692.7 5.312.935 1.619 2.444 2.777 4.25 3.261 1.807.485 3.693.236 5.312-.699s2.778-2.444 3.262-4.25.235-3.692-.7-5.312c-1.929-3.343-6.219-4.493-9.562-2.562z"/></g><g><path d="m76.123 60.164c-1.042 0-2.091-.137-3.125-.414-3.096-.83-5.684-2.815-7.286-5.591s-2.029-6.009-1.199-9.105c.83-3.097 2.815-5.684 5.591-7.287 2.776-1.604 6.009-2.03 9.106-1.199 3.096.83 5.684 2.815 7.286 5.591s2.029 6.01 1.199 9.106-2.815 5.684-5.591 7.287c-1.85 1.066-3.902 1.612-5.981 1.612zm-.031-19.009c-1.213 0-2.41.318-3.489.941-1.619.935-2.778 2.444-3.262 4.25s-.235 3.692.7 5.312c1.93 3.343 6.22 4.491 9.562 2.563 1.619-.935 2.778-2.444 3.262-4.25s.235-3.692-.7-5.312c-.935-1.619-2.444-2.777-4.25-3.261-.603-.163-1.215-.243-1.823-.243zm-4.738-1.224h.01z"/></g><g><path d="m122.043 48.333c-1.381 0-2.5-1.119-2.5-2.5v-42.208c0-1.381 1.119-2.5 2.5-2.5s2.5 1.119 2.5 2.5v42.208c0 1.381-1.119 2.5-2.5 2.5z"/></g><g><path d="m133.957 48.333c-1.381 0-2.5-1.119-2.5-2.5v-42.333c0-1.381 1.119-2.5 2.5-2.5s2.5 1.119 2.5 2.5v42.333c0 1.381-1.119 2.5-2.5 2.5z"/></g><g><g><path d="m160.095 168.642c-1.08 0-2.076-.705-2.397-1.793l-4.827-16.356c-.391-1.324.366-2.714 1.69-3.105 1.321-.389 2.714.365 3.105 1.69l4.827 16.356c.391 1.324-.366 2.714-1.69 3.105-.235.07-.473.103-.708.103z"/></g><g><path d="m150.1 176.864c-1.08 0-2.076-.705-2.397-1.793l-6.345-21.502c-.391-1.324.366-2.714 1.69-3.105 1.321-.391 2.714.366 3.105 1.69l6.345 21.502c.391 1.324-.366 2.714-1.69 3.105-.236.07-.474.103-.708.103z"/></g></g><g><path d="m95.728 169.244c-.234 0-.472-.033-.708-.103-1.324-.391-2.081-1.781-1.69-3.105l5.169-17.518c.391-1.324 1.78-2.08 3.105-1.69 1.324.391 2.081 1.781 1.69 3.105l-5.169 17.518c-.322 1.088-1.318 1.793-2.397 1.793z"/></g><g><path d="m105.737 177.416c-.234 0-.473-.033-.708-.103-1.324-.391-2.081-1.781-1.69-3.105l6.548-22.187c.391-1.325 1.782-2.079 3.105-1.69 1.324.391 2.081 1.781 1.69 3.105l-6.548 22.187c-.321 1.088-1.317 1.793-2.397 1.793z"/></g></g></g></svg>