<svg enable-background="new 0 0 256 256" height="512" viewBox="0 0 256 256" width="512" xmlns="http://www.w3.org/2000/svg"><g id="Layer_36"><g><g><path d="m119.424 210.373h17.153v43.127h-17.153z" fill="#c18e6b"/></g><g><path d="m205.899 203.126-31.556-45.919h-92.686l-31.556 45.919c-2.109 3.07.088 7.246 3.813 7.246h148.173c3.724.001 5.922-4.176 3.812-7.246z" fill="#87d147"/></g><g><path d="m187.464 150.365-27.156-39.515h-64.617l-27.156 39.515c-1.992 2.899.083 6.843 3.601 6.843h111.728c3.517 0 5.592-3.945 3.6-6.843z" fill="#87d147"/></g><g><path d="m140.98 54.667-6.333-12.528c-.902-1.783 1.018-3.673 2.787-2.743 1.738.914 3.77-.562 3.438-2.498l-1.591-9.278c-.132-.769.123-1.553.681-2.097l6.741-6.571c1.406-1.371.63-3.759-1.313-4.041l-9.315-1.354c-.772-.112-1.439-.597-1.784-1.296l-4.166-8.441c-.869-1.761-3.38-1.761-4.249 0l-4.166 8.441c-.345.699-1.012 1.184-1.784 1.296l-9.315 1.354c-1.943.282-2.719 2.671-1.313 4.041l6.741 6.57c.558.544.813 1.329.681 2.097l-1.591 9.278c-.332 1.936 1.7 3.412 3.438 2.498 1.769-.93 3.689.959 2.787 2.743l-6.333 12.528c-.743 1.471.325 3.209 1.973 3.209h22.014c1.647 0 2.716-1.738 1.972-3.208z" fill="#f5c84c"/></g><g><path d="m170.616 104.354-31.941-46.479h-21.35l-31.941 46.479c-1.891 2.752.079 6.496 3.418 6.496h78.396c3.339 0 5.309-3.745 3.418-6.496z" fill="#87d147"/></g><g><path d="m185.073 44.337v10.799l9.352 5.4 9.353-5.4v-10.799l-9.353-5.4z" fill="#9be5f9"/></g><g><path d="m31.462 117.571v9.858l8.538 4.93 8.538-4.93v-9.858l-8.538-4.93z" fill="#9be5f9"/></g><g><path d="m154.318 80.637c-1.654 5.609-6.842 9.703-12.987 9.703-6.55 0-12.013-4.652-13.268-10.832h-.127c-1.255 6.18-6.717 10.832-13.268 10.832-6.145 0-11.332-4.094-12.987-9.703l-16.298 23.716c-1.891 2.752.079 6.496 3.418 6.496h78.396c3.339 0 5.309-3.744 3.418-6.496z" fill="#dae6f1"/></g><g><path d="m176.173 133.934c-2.273 1.729-5.103 2.765-8.18 2.765-6.55 0-12.013-4.652-13.268-10.832h-.127c-1.255 6.18-6.717 10.832-13.268 10.832s-12.013-4.652-13.268-10.832h-.127c-1.255 6.18-6.717 10.832-13.268 10.832-6.55 0-12.013-4.652-13.268-10.832h-.127c-1.255 6.18-6.717 10.832-13.268 10.832-3.077 0-5.906-1.036-8.18-2.765l-11.292 16.431c-1.992 2.899.083 6.843 3.601 6.843h111.728c3.517 0 5.593-3.944 3.601-6.843z" fill="#dae6f1"/></g><g><path d="m192.608 183.786c-2.424 3.658-6.567 6.078-11.284 6.078-6.55 0-12.013-4.652-13.268-10.832h-.127c-1.255 6.18-6.717 10.832-13.268 10.832s-12.013-4.652-13.268-10.832h-.127c-1.255 6.18-6.717 10.832-13.268 10.832s-12.013-4.652-13.268-10.832h-.127c-1.255 6.18-6.717 10.832-13.268 10.832-6.55 0-12.013-4.652-13.268-10.832h-.127c-1.255 6.18-6.717 10.832-13.268 10.832-4.717 0-8.86-2.419-11.284-6.078l-13.291 19.34c-2.109 3.07.088 7.246 3.813 7.246h148.173c3.725 0 5.922-4.177 3.813-7.246z" fill="#dae6f1"/></g><g><path d="m84.35 65.2c-3.1-.6-5.6-3-6.2-6.1 0-.1-.3-.1-.3 0-.6 3.1-3.1 5.5-6.2 6.1-.1 0-.1.2 0 .3 3.1.6 5.6 3 6.2 6.1 0 .1.3.1.3 0 .6-3.1 3.1-5.5 6.2-6.1.1-.1.1-.3 0-.3z" fill="#fc657e"/></g><g><path d="m38.9 235.9h2.3v2.3c0 1.8 1.4 3.2 3.2 3.2 1.7 0 3.2-1.4 3.2-3.1v-.1-2.3h2.3c1.8 0 3.2-1.4 3.2-3.2 0-1.7-1.4-3.2-3.1-3.2h-.1-2.3v-2.3c0-1.8-1.4-3.2-3.2-3.2-1.7 0-3.2 1.4-3.2 3.1v.1 2.3h-2.3c-1.8 0-3.2 1.4-3.2 3.2-.1 1.7 1.3 3.2 3.2 3.2-.1 0-.1 0 0 0z" fill="#70d6f9"/></g><g><circle cx="67.3" cy="252.6" fill="#f5c84c" r="3.4"/></g><g><circle cx="223.3" cy="91.4" fill="#87d147" r="3.4"/></g><g><path d="m196.7 119.2c4.5-.8 8-4.3 8.9-8.7 0-.2.4-.2.4 0 .9 4.4 4.4 7.9 8.9 8.7.2 0 .2.3 0 .4-4.5.8-8 4.3-8.9 8.7 0 .2-.4.2-.4 0-.9-4.4-4.4-7.9-8.9-8.7-.2-.1-.2-.4 0-.4z" fill="#f5c84c"/></g><g><path d="m136.576 256c-1.381 0-2.5-1.119-2.5-2.5v-42c0-1.381 1.119-2.5 2.5-2.5s2.5 1.119 2.5 2.5v42c0 1.381-1.119 2.5-2.5 2.5z"/></g><g><path d="m119.424 256c-1.381 0-2.5-1.119-2.5-2.5v-41.958c0-1.381 1.119-2.5 2.5-2.5s2.5 1.119 2.5 2.5v41.958c0 1.381-1.119 2.5-2.5 2.5z"/></g><g><path d="m194.425 81.234c-1.381 0-2.5-1.119-2.5-2.5v-17.376c0-1.381 1.119-2.5 2.5-2.5s2.5 1.119 2.5 2.5v17.376c0 1.381-1.119 2.5-2.5 2.5z"/></g><g><path d="m194.425 40.845c-1.381 0-2.5-1.119-2.5-2.5v-17.607c0-1.381 1.119-2.5 2.5-2.5s2.5 1.119 2.5 2.5v17.607c0 1.381-1.119 2.5-2.5 2.5z"/></g><g><path d="m194.425 34.394c-.432 0-.863-.112-1.25-.335l-9.353-5.4c-1.196-.69-1.605-2.219-.915-3.415.689-1.196 2.219-1.607 3.415-.915l8.103 4.678 8.103-4.678c1.196-.691 2.725-.281 3.415.915s.281 2.725-.915 3.415l-9.353 5.4c-.386.223-.818.335-1.25.335z"/></g><g><path d="m203.775 75.479c-.424 0-.854-.108-1.248-.335l-8.103-4.678-8.103 4.678c-1.196.691-2.726.28-3.415-.915-.69-1.196-.281-2.725.915-3.415l9.353-5.399c.773-.446 1.727-.446 2.5 0l9.353 5.399c1.196.69 1.605 2.219.915 3.415-.462.802-1.302 1.25-2.167 1.25z"/></g><g><path d="m219.536 66.736c-.424 0-.854-.108-1.248-.335l-15.048-8.688c-1.196-.69-1.605-2.219-.915-3.415s2.218-1.606 3.415-.915l15.048 8.688c1.196.69 1.605 2.219.915 3.415-.463.801-1.303 1.25-2.167 1.25z"/></g><g><path d="m184.558 46.542c-.424 0-.854-.108-1.248-.335l-15.248-8.804c-1.196-.69-1.605-2.219-.915-3.415.689-1.196 2.218-1.607 3.415-.915l15.248 8.804c1.196.69 1.605 2.219.915 3.415-.463.801-1.303 1.25-2.167 1.25z"/></g><g><path d="m169.623 48.715c-.864 0-1.705-.448-2.167-1.25-.69-1.196-.281-2.725.915-3.415l8.103-4.678v-9.356c0-1.381 1.119-2.5 2.5-2.5s2.5 1.119 2.5 2.5v10.799c0 .893-.477 1.719-1.25 2.165l-9.353 5.399c-.394.228-.825.336-1.248.336z"/></g><g><path d="m209.878 71.957c-1.381 0-2.5-1.119-2.5-2.5v-10.799c0-.893.477-1.718 1.25-2.165l9.352-5.4c1.195-.691 2.725-.281 3.415.915s.281 2.725-.915 3.415l-8.102 4.678v9.355c0 1.382-1.119 2.501-2.5 2.501z"/></g><g><path d="m204.492 46.426c-.864 0-1.705-.448-2.167-1.25-.69-1.196-.281-2.725.915-3.415l15.048-8.688c1.195-.691 2.725-.281 3.415.915s.281 2.725-.915 3.415l-15.048 8.688c-.394.227-.824.335-1.248.335z"/></g><g><path d="m169.314 66.736c-.864 0-1.705-.448-2.167-1.25-.69-1.196-.281-2.725.915-3.415l15.248-8.803c1.195-.692 2.725-.281 3.415.915s.281 2.725-.915 3.415l-15.248 8.802c-.394.228-.824.336-1.248.336z"/></g><g><path d="m178.973 71.957c-1.381 0-2.5-1.119-2.5-2.5v-9.355l-8.103-4.678c-1.196-.69-1.605-2.219-.915-3.415.689-1.196 2.219-1.607 3.415-.915l9.353 5.4c.773.447 1.25 1.272 1.25 2.165v10.799c0 1.38-1.119 2.499-2.5 2.499z"/></g><g><path d="m219.228 48.715c-.424 0-.854-.108-1.248-.335l-9.352-5.399c-.773-.447-1.25-1.272-1.25-2.165v-10.8c0-1.381 1.119-2.5 2.5-2.5s2.5 1.119 2.5 2.5v9.356l8.102 4.678c1.196.69 1.605 2.219.915 3.415-.463.801-1.303 1.25-2.167 1.25z"/></g><g><path d="m40 151.473c-1.381 0-2.5-1.119-2.5-2.5v-15.864c0-1.381 1.119-2.5 2.5-2.5s2.5 1.119 2.5 2.5v15.864c0 1.381-1.119 2.5-2.5 2.5z"/></g><g><path d="m40 114.601c-1.381 0-2.5-1.119-2.5-2.5v-16.074c0-1.381 1.119-2.5 2.5-2.5s2.5 1.119 2.5 2.5v16.074c0 1.38-1.119 2.5-2.5 2.5z"/></g><g><path d="m40 108.71c-.432 0-.863-.112-1.25-.335l-8.538-4.929c-1.196-.69-1.605-2.219-.915-3.415.689-1.195 2.218-1.607 3.415-.915l7.288 4.208 7.288-4.208c1.196-.692 2.725-.281 3.415.915s.281 2.725-.915 3.415l-8.538 4.929c-.387.224-.818.335-1.25.335z"/></g><g><path d="m48.536 146.219c-.424 0-.854-.108-1.248-.335l-7.288-4.208-7.288 4.208c-1.197.69-2.726.28-3.415-.915-.69-1.196-.281-2.725.915-3.415l8.538-4.929c.773-.446 1.727-.446 2.5 0l8.538 4.929c1.196.69 1.605 2.219.915 3.415-.463.802-1.303 1.25-2.167 1.25z"/></g><g><path d="m62.924 138.237c-.424 0-.854-.108-1.248-.335l-13.738-7.932c-1.196-.69-1.605-2.219-.915-3.415.689-1.195 2.218-1.608 3.415-.915l13.738 7.932c1.196.69 1.605 2.219.915 3.415-.463.801-1.303 1.25-2.167 1.25z"/></g><g><path d="m30.992 119.801c-.424 0-.854-.108-1.248-.335l-13.92-8.037c-1.196-.69-1.605-2.219-.915-3.415.69-1.195 2.218-1.607 3.415-.915l13.92 8.037c1.196.69 1.605 2.219.915 3.415-.463.801-1.303 1.25-2.167 1.25z"/></g><g><path d="m17.357 121.785c-.864 0-1.705-.448-2.167-1.25-.69-1.196-.281-2.725.915-3.415l7.288-4.208v-8.416c0-1.381 1.119-2.5 2.5-2.5s2.5 1.119 2.5 2.5v9.859c0 .893-.477 1.719-1.25 2.165l-8.538 4.929c-.394.228-.824.336-1.248.336z"/></g><g><path d="m54.107 143.003c-1.381 0-2.5-1.119-2.5-2.5v-9.859c0-.893.477-1.719 1.25-2.165l8.538-4.929c1.196-.693 2.725-.281 3.415.915s.281 2.725-.915 3.415l-7.288 4.208v8.416c0 1.38-1.119 2.499-2.5 2.499z"/></g><g><path d="m49.19 119.696c-.864 0-1.705-.448-2.167-1.25-.69-1.196-.281-2.725.915-3.415l13.738-7.932c1.195-.692 2.725-.281 3.415.915s.281 2.725-.915 3.415l-13.738 7.932c-.394.227-.824.335-1.248.335z"/></g><g><path d="m17.076 138.237c-.864 0-1.705-.448-2.167-1.25-.69-1.196-.281-2.725.915-3.415l13.92-8.037c1.195-.692 2.725-.281 3.415.915s.281 2.725-.915 3.415l-13.92 8.037c-.394.227-.824.335-1.248.335z"/></g><g><path d="m25.893 143.003c-1.381 0-2.5-1.119-2.5-2.5v-8.416l-7.288-4.208c-1.196-.69-1.605-2.219-.915-3.415.689-1.196 2.218-1.608 3.415-.915l8.538 4.929c.773.446 1.25 1.272 1.25 2.165v9.859c0 1.382-1.119 2.501-2.5 2.501z"/></g><g><path d="m62.643 121.785c-.424 0-.854-.108-1.248-.335l-8.538-4.929c-.773-.446-1.25-1.272-1.25-2.165v-9.859c0-1.381 1.119-2.5 2.5-2.5s2.5 1.119 2.5 2.5v8.416l7.288 4.208c1.196.69 1.605 2.219.915 3.415-.463.8-1.303 1.249-2.167 1.249z"/></g><g><path d="m202.086 212.873h-148.172c-2.654 0-5.071-1.459-6.307-3.808s-1.07-5.167.433-7.354l31.222-45.432c.783-1.136 2.339-1.427 3.477-.645s1.426 2.338.645 3.477l-31.222 45.432c-.656.955-.309 1.852-.129 2.194s.723 1.136 1.882 1.136h148.173c1.159 0 1.702-.794 1.882-1.136s.527-1.239-.129-2.194l-31.022-45.141c-.782-1.138-.493-2.694.645-3.477 1.138-.782 2.694-.493 3.477.645l31.022 45.141c1.503 2.188 1.669 5.005.433 7.354-1.239 2.349-3.655 3.808-6.31 3.808z"/></g><g><path d="m183.864 159.708h-111.728c-2.558 0-4.888-1.406-6.079-3.67s-1.031-4.98.417-7.088l26.691-38.84c.783-1.137 2.338-1.427 3.477-.645 1.138.782 1.426 2.338.645 3.477l-26.691 38.84c-.577.839-.272 1.628-.114 1.928s.635.999 1.654.999h111.728c1.019 0 1.496-.698 1.654-.999.158-.3.463-1.089-.114-1.928l-26.727-38.891c-.782-1.138-.493-2.694.645-3.477 1.137-.782 2.694-.493 3.477.645l26.727 38.891c1.449 2.108 1.609 4.825.417 7.088s-3.521 3.67-6.079 3.67z"/></g><g><path d="m139.007 60.375h-22.015c-1.649 0-3.149-.838-4.013-2.243s-.935-3.122-.191-4.593l5.815-11.503c-1.37.334-2.824.059-4.002-.797-1.511-1.097-2.253-2.922-1.937-4.763l1.58-9.209-6.692-6.523c-1.337-1.304-1.809-3.216-1.232-4.992.577-1.775 2.083-3.045 3.931-3.313l9.247-1.344 4.136-8.379c.826-1.676 2.499-2.716 4.366-2.716h.001c1.867 0 3.54 1.041 4.366 2.715l4.135 8.379 9.248 1.344c1.848.269 3.354 1.538 3.931 3.313.577 1.776.105 3.688-1.232 4.992l-6.692 6.523 1.58 9.209c.316 1.84-.426 3.666-1.937 4.763-1.179.856-2.633 1.131-4.002.797l5.815 11.503c.744 1.472.672 3.189-.192 4.593s-2.365 2.244-4.014 2.244zm-21.545-5h21.075l-6.121-12.108c-.897-1.774-.548-3.904.869-5.299 1.356-1.333 3.367-1.68 5.079-.899l-1.548-9.025c-.271-1.58.252-3.191 1.4-4.311l6.551-6.385-9.053-1.315c-1.587-.231-2.958-1.227-3.667-2.665l-4.047-8.203-4.049 8.203c-.709 1.437-2.08 2.433-3.666 2.664l-9.054 1.315 6.551 6.386c1.148 1.119 1.671 2.73 1.4 4.31l-1.548 9.025c1.715-.78 3.725-.434 5.079.899 1.417 1.395 1.766 3.524.869 5.298z"/></g><g><path d="m167.198 113.35h-78.396c-2.476 0-4.729-1.361-5.882-3.552s-.998-4.819.404-6.86l31.512-45.854c.783-1.137 2.338-1.427 3.477-.645 1.138.782 1.426 2.338.645 3.477l-31.514 45.854c-.508.74-.239 1.435-.1 1.7s.56.88 1.458.88h78.396c.897 0 1.318-.615 1.458-.88s.408-.96-.1-1.7l-31.512-45.854c-.782-1.138-.493-2.694.645-3.477 1.138-.782 2.694-.493 3.477.645l31.512 45.854c1.402 2.041 1.557 4.669.404 6.86s-3.408 3.552-5.884 3.552z"/></g><g><path d="m194.425 63.036c-.432 0-.863-.112-1.25-.335l-9.353-5.399c-.773-.446-1.25-1.272-1.25-2.165v-10.8c0-.893.477-1.718 1.25-2.165l9.353-5.4c.773-.446 1.727-.446 2.5 0l9.353 5.4c.773.447 1.25 1.272 1.25 2.165v10.799c0 .893-.477 1.719-1.25 2.165l-9.353 5.399c-.386.224-.818.336-1.25.336zm-6.852-9.343 6.853 3.956 6.853-3.956v-7.913l-6.853-3.957-6.853 3.957z"/></g><g><path d="m40 134.859c-.432 0-.863-.112-1.25-.335l-8.538-4.93c-.773-.447-1.25-1.272-1.25-2.165v-9.858c0-.893.477-1.718 1.25-2.165l8.538-4.93c.773-.446 1.727-.446 2.5 0l8.538 4.93c.773.447 1.25 1.272 1.25 2.165v9.858c0 .893-.477 1.718-1.25 2.165l-8.538 4.93c-.387.223-.818.335-1.25.335zm-6.038-8.873 6.038 3.486 6.038-3.486v-6.972l-6.038-3.486-6.038 3.486z"/></g><g><path d="m141.331 92.84c-5.465 0-10.418-2.792-13.331-7.127-2.913 4.334-7.866 7.127-13.331 7.127-6.966 0-13.095-4.448-15.251-11.067-.428-1.313.29-2.724 1.603-3.151 1.313-.428 2.724.289 3.151 1.603 1.484 4.556 5.703 7.616 10.498 7.616 5.229 0 9.779-3.713 10.817-8.829.237-1.165 1.261-2.002 2.45-2.002h.127c1.189 0 2.213.837 2.45 2.002 1.038 5.116 5.588 8.829 10.817 8.829 4.829 0 9.057-3.089 10.52-7.687.418-1.315 1.822-2.043 3.141-1.624 1.315.419 2.042 1.825 1.624 3.141-2.127 6.68-8.269 11.169-15.285 11.169z"/></g><g><path d="m167.993 139.198c-5.465 0-10.419-2.792-13.331-7.127-2.913 4.335-7.867 7.127-13.331 7.127-5.465 0-10.418-2.792-13.331-7.127-2.913 4.335-7.866 7.127-13.331 7.127-5.464 0-10.418-2.792-13.331-7.127-2.912 4.335-7.866 7.127-13.331 7.127-3.313 0-6.499-1.011-9.214-2.924-1.128-.795-1.399-2.355-.604-3.484s2.354-1.398 3.484-.604c1.868 1.316 4.059 2.012 6.334 2.012 5.23 0 9.779-3.713 10.817-8.829.237-1.166 1.261-2.003 2.45-2.003h.127c1.189 0 2.213.837 2.45 2.002 1.039 5.116 5.588 8.829 10.817 8.829 5.23 0 9.779-3.713 10.817-8.829.237-1.166 1.261-2.003 2.45-2.003h.127c1.189 0 2.213.837 2.45 2.003 1.038 5.116 5.587 8.829 10.817 8.829 5.229 0 9.779-3.713 10.817-8.829.237-1.165 1.261-2.002 2.45-2.002h.127c1.189 0 2.213.837 2.45 2.003 1.038 5.116 5.587 8.829 10.817 8.829 2.22 0 4.365-.664 6.203-1.92 1.142-.778 2.697-.486 3.475.653.779 1.14.486 2.696-.653 3.475-2.671 1.827-5.791 2.792-9.022 2.792z"/></g><g><path d="m181.324 192.363c-5.465 0-10.419-2.792-13.331-7.127-2.913 4.335-7.867 7.127-13.331 7.127-5.465 0-10.418-2.792-13.331-7.127-2.913 4.335-7.866 7.127-13.331 7.127s-10.418-2.792-13.331-7.127c-2.913 4.335-7.866 7.127-13.331 7.127-5.464 0-10.418-2.792-13.331-7.127-2.912 4.335-7.866 7.127-13.331 7.127-5.128 0-9.988-2.492-13-6.666-.808-1.12-.555-2.682.564-3.49 1.121-.808 2.682-.555 3.49.564 2.075 2.875 5.419 4.591 8.946 4.591 5.23 0 9.779-3.713 10.817-8.829.237-1.166 1.261-2.003 2.45-2.003h.127c1.189 0 2.213.837 2.45 2.002 1.039 5.116 5.588 8.829 10.817 8.829 5.23 0 9.779-3.713 10.817-8.829.237-1.166 1.261-2.003 2.45-2.003h.127c1.189 0 2.213.837 2.45 2.003 1.038 5.116 5.587 8.829 10.817 8.829s9.779-3.713 10.817-8.829c.237-1.166 1.261-2.003 2.45-2.003h.127c1.189 0 2.213.837 2.45 2.003 1.038 5.116 5.587 8.829 10.817 8.829 5.229 0 9.779-3.713 10.817-8.829.237-1.165 1.261-2.002 2.45-2.002h.127c1.189 0 2.213.837 2.45 2.003 1.038 5.116 5.587 8.829 10.817 8.829 3.553 0 6.799-1.654 8.907-4.537.815-1.115 2.379-1.357 3.493-.543 1.115.814 1.358 2.378.543 3.493-3.01 4.126-7.848 6.588-12.939 6.588z"/></g></g></g></svg>