<svg enable-background="new 0 0 256 256" height="512" viewBox="0 0 256 256" width="512" xmlns="http://www.w3.org/2000/svg"><g id="Layer_54"><g><g><path d="m72.487 158.394c-21.498-12.412-37.367-6.787-45.265 6.894-7.899 13.681-4.836 30.236 16.662 42.648 14.715 8.496 30.522 10.694 41.565 6.848 6.262-2.181 13.214-.955 18.616 2.89l34.319 24.426c5.28 3.758 12.649 2.154 15.889-3.459 3.24-5.613.945-12.796-4.949-15.49l-38.313-17.508c-6.031-2.756-10.568-8.163-11.811-14.677-2.19-11.486-11.998-24.076-26.713-32.572z" fill="#f5c84c"/></g><g><path d="m109.772 221.736-3.097 1.415c-5.895 2.694-8.19 9.877-4.949 15.49 3.24 5.613 10.609 7.217 15.89 3.459l10.384-7.391z" fill="#f5c84c"/></g><g><path d="m27.222 165.288c-4.099 7.099-5.235 14.972-2.387 22.638 6.036-3.253 11.114-8.619 15.003-15.354s5.997-13.816 5.795-20.67c-8.063 1.367-14.312 6.287-18.411 13.386z" fill="#fc657e"/></g><g><path d="m89.056 177.55-6.988 3.064c-2.859 1.255-4.532 4.287-4.067 7.372l1.133 7.548-7.108 2.795c-1.494.589-2.692 1.66-3.456 2.984-.72 1.248-1.055 2.72-.889 4.223l.839 7.585-6.15 2.145c6.102 1.381 11.964 1.682 17.171.921.027-.406.022-.819-.025-1.237l-.853-7.704 7.215-2.837c1.511-.595 2.709-1.66 3.47-2.978s1.085-2.89.844-4.496l-1.15-7.665 7.099-3.112c.508-.223.961-.516 1.387-.837-1.998-5.1-5.354-10.242-9.852-15.012z" fill="#fc8c48"/></g><g><path d="m64.347 154.434c-.098.722-.087 1.467.054 2.211l1.428 7.495-6.988 3.064c-2.859 1.255-4.532 4.287-4.067 7.372l1.133 7.548-7.108 2.795c-1.494.589-2.692 1.66-3.456 2.984-.72 1.248-1.055 2.72-.889 4.223l.839 7.585-7.201 2.512c-.555.193-1.06.471-1.534.786 2.154 1.7 4.589 3.347 7.325 4.927 1.368.79 2.748 1.507 4.13 2.189l3.674-1.281c3.065-1.073 4.958-4.074 4.601-7.303l-.853-7.704 7.217-2.837c1.511-.595 2.709-1.66 3.47-2.978s1.085-2.89.844-4.496l-1.15-7.665 7.099-3.112c2.976-1.307 4.63-4.449 4.02-7.641l-.852-4.475c-1.167-.77-2.357-1.523-3.595-2.238-2.813-1.625-5.526-2.933-8.141-3.961z" fill="#87d147"/></g><g><path d="m97.388 214.479c2.366.662 4.633 1.74 6.677 3.195l3.618 2.575 7.367-12.761-4.039-1.846c-2.282-1.043-4.349-2.467-6.106-4.185z" fill="#70d6f9"/></g><g><path d="m228.778 165.288c-7.899-13.681-23.767-19.306-45.265-6.894-14.715 8.496-24.522 21.086-26.713 32.572-1.243 6.513-5.78 11.921-11.811 14.677l-16.989 7.763 18.228 8.33 5.707-4.062c5.402-3.845 12.354-5.071 18.616-2.89 11.043 3.846 26.85 1.648 41.565-6.848 21.498-12.412 24.56-28.967 16.662-42.648z" fill="#f5c84c"/></g><g><path d="m228.778 165.288c4.099 7.099 5.235 14.972 2.387 22.638-6.036-3.253-11.114-8.619-15.003-15.354s-5.997-13.816-5.795-20.67c8.063 1.367 14.312 6.287 18.411 13.386z" fill="#fc657e"/></g><g><path d="m166.944 177.55 6.988 3.064c2.859 1.255 4.532 4.287 4.067 7.372l-1.133 7.548 7.108 2.795c1.494.589 2.692 1.66 3.456 2.984.72 1.248 1.055 2.72.889 4.223l-.839 7.585 6.15 2.145c-6.102 1.381-11.964 1.682-17.171.921-.027-.406-.022-.819.025-1.237l.853-7.704-7.215-2.837c-1.511-.595-2.709-1.66-3.47-2.978s-1.085-2.89-.844-4.496l1.15-7.665-7.099-3.112c-.508-.223-.961-.516-1.387-.837 1.998-5.1 5.354-10.242 9.852-15.012z" fill="#fc8c48"/></g><g><path d="m191.653 154.434c.098.722.087 1.467-.054 2.211l-1.429 7.495 6.988 3.064c2.859 1.255 4.532 4.287 4.067 7.372l-1.133 7.548 7.108 2.795c1.494.589 2.692 1.66 3.456 2.984.72 1.248 1.055 2.72.889 4.223l-.839 7.585 7.201 2.512c.555.193 1.06.471 1.534.786-2.154 1.7-4.589 3.347-7.325 4.927-1.368.79-2.748 1.507-4.13 2.189l-3.674-1.281c-3.065-1.073-4.958-4.074-4.601-7.303l.853-7.704-7.216-2.837c-1.511-.595-2.709-1.66-3.47-2.978s-1.085-2.89-.844-4.496l1.15-7.665-7.099-3.112c-2.976-1.307-4.63-4.449-4.02-7.641l.852-4.475c1.167-.77 2.357-1.523 3.595-2.238 2.813-1.625 5.526-2.933 8.141-3.961z" fill="#87d147"/></g><g><path d="m158.612 214.479c-2.366.662-4.633 1.74-6.677 3.195l-3.618 2.575-7.367-12.761 4.039-1.846c2.282-1.043 4.349-2.467 6.106-4.185z" fill="#70d6f9"/></g><g><path d="m230.24 81.052c-49.662 16.877-154.298 16.883-203.98 0-6.237-2.12-12.52 3.187-11.412 9.681 1.763 10.331 4.989 20.018 8.099 27.714 4.158 10.288 14.204 16.973 25.301 16.973h160.002c11.097 0 21.143-6.685 25.301-16.973 3.11-7.696 6.336-17.383 8.099-27.714 1.11-6.493-5.173-11.8-11.41-9.681z" fill="#f5c84c"/></g><g><path d="m241.211 93.059-7.164-2.35c-2.691-.883-5.609.072-7.263 2.377l-4.095 5.721-6.405-2.887c-2.601-1.169-5.71-.471-7.56 1.698l-4.591 5.381-6.225-3.354c-2.536-1.367-5.707-.874-7.706 1.201l-4.927 5.105-6.052-3.697c-2.473-1.51-5.674-1.179-7.787.805l-5.178 4.865-5.893-3.975c-2.405-1.621-5.623-1.433-7.827.466l-5.385 4.646-5.73-4.213c-2.346-1.723-5.573-1.66-7.847.152l-5.565 4.433-5.569-4.436c-1.172-.932-2.595-1.399-4.02-1.399-1.343 0-2.688.416-3.823 1.251l-5.732 4.213-5.384-4.643c-2.197-1.899-5.417-2.092-7.831-.468l-5.893 3.975-5.184-4.868c-2.111-1.982-5.313-2.313-7.785-.803l-6.054 3.698-4.933-5.109c-2.002-2.071-5.169-2.563-7.706-1.197l-6.227 3.354-4.594-5.379c-1.85-2.172-4.958-2.872-7.566-1.7l-6.403 2.885-4.1-5.725c-1.65-2.302-4.567-3.258-7.261-2.374l-6.691 2.196c.643 3.352 1.42 6.625 2.297 9.771l5.04-1.654 4.273 5.968c1.783 2.493 5.109 3.388 7.901 2.128l6.626-2.985 4.726 5.535c1.962 2.302 5.317 2.931 7.977 1.495l6.38-3.438 5.035 5.216c2.117 2.194 5.413 2.617 8.014 1.027l6.173-3.771 5.276 4.955c2.212 2.078 5.513 2.342 8.031.647l5.992-4.042 5.477 4.724c2.295 1.975 5.6 2.104 8.04.311l5.821-4.279 5.653 4.502c1.185.942 2.603 1.413 4.021 1.413s2.839-.471 4.023-1.414l5.651-4.501 5.821 4.28c2.442 1.793 5.749 1.664 8.042-.316l5.472-4.721 5.986 4.038c2.516 1.7 5.821 1.437 8.036-.645l5.271-4.954 6.169 3.769c2.601 1.59 5.895 1.169 8.015-1.025l5.033-5.216 6.373 3.436c2.657 1.435 6.013.807 7.978-1.492l4.722-5.534 6.623 2.984c2.79 1.257 6.116.365 7.902-2.129l4.271-5.966 5.498 1.804c.887-3.144 1.67-6.414 2.317-9.766z" fill="#87d147"/></g><g><g><path d="m29.211 93.083 4.1 5.725 6.403-2.885c2.608-1.172 5.717-.472 7.566 1.7l4.594 5.379 6.227-3.354c2.537-1.366 5.704-.874 7.706 1.197l4.933 5.109 6.054-3.698c2.472-1.51 5.674-1.18 7.785.803l5.184 4.868 5.893-3.975c2.414-1.624 5.634-1.432 7.831.468l5.384 4.643 5.732-4.213c1.136-.835 2.48-1.251 3.823-1.251 1.425 0 2.848.468 4.02 1.399l5.569 4.436 5.565-4.433c2.273-1.813 5.501-1.875 7.847-.152l5.73 4.213 5.385-4.646c2.204-1.898 5.422-2.087 7.827-.466l5.893 3.975 5.178-4.865c2.113-1.983 5.314-2.314 7.787-.805l6.052 3.697 4.927-5.105c1.999-2.075 5.17-2.568 7.706-1.201l6.225 3.354 4.591-5.381c1.85-2.169 4.959-2.867 7.56-1.698l6.405 2.887 4.095-5.721c1.653-2.305 4.571-3.26 7.263-2.377l7.164 2.35c.15-.774.307-1.544.44-2.326 1.108-6.494-5.174-11.801-11.411-9.681-49.662 16.876-154.298 16.884-203.98 0-6.237-2.12-12.52 3.188-11.412 9.681.125.73.272 1.448.411 2.171l6.691-2.196c2.69-.884 5.607.072 7.257 2.374z" fill="#fc657e"/></g></g><g><g><path d="m169.684 92.034c-3.396-44.586-20.765-78.534-41.684-78.534-20.913 0-38.278 33.927-41.681 78.494 26.876 2.275 56.457 2.288 83.365.04z" fill="#f5c84c"/></g></g><g><path d="m128 13.5c-8.723 0-16.823 5.918-23.556 16.033 15.531 1.468 31.597 1.481 47.138.04-6.738-10.139-14.848-16.073-23.582-16.073z" fill="#fc657e"/></g><g><path d="m92.853 55.482c-.945 3.152-1.809 6.434-2.582 9.839 12.32.922 25.136 1.388 37.963 1.388 12.659 0 25.32-.453 37.503-1.353-.772-3.406-1.636-6.688-2.58-9.841-22.91 1.599-47.436 1.588-70.304-.033z" fill="#fc8c48"/></g><g><path d="m88.346 75.154c-.896 5.4-1.583 11.027-2.027 16.84 26.876 2.275 56.457 2.288 83.364.041-.443-5.814-1.129-11.442-2.023-16.843-25.688 2.028-53.654 2.016-79.314-.038z" fill="#87d147"/></g><g><path d="m117.35 159.2c-3.1-.6-5.6-3-6.2-6.1 0-.1-.3-.1-.3 0-.6 3.1-3.1 5.5-6.2 6.1-.1 0-.1.2 0 .3 3.1.6 5.6 3 6.2 6.1 0 .1.3.1.3 0 .6-3.1 3.1-5.5 6.2-6.1.1-.1.1-.3 0-.3z" fill="#87d147"/></g><g><path d="m196.9 240.9h2.3v2.3c0 1.8 1.4 3.2 3.2 3.2 1.7 0 3.2-1.4 3.2-3.1v-.1-2.3h2.3c1.8 0 3.2-1.4 3.2-3.2 0-1.7-1.4-3.2-3.1-3.2h-.1-2.3v-2.3c0-1.8-1.4-3.2-3.2-3.2-1.7 0-3.2 1.4-3.2 3.1v.1 2.3h-2.3c-1.8 0-3.2 1.4-3.2 3.2-.1 1.7 1.3 3.2 3.2 3.2-.1 0-.1 0 0 0z" fill="#70d6f9"/></g><g><circle cx="169.3" cy="252.6" fill="#f5c84c" r="3.4"/></g><g><circle cx="95.3" cy="3.4" fill="#fc657e" r="3.4"/></g><g><path d="m66.7 23.2c4.5-.8 8-4.3 8.9-8.7 0-.2.4-.2.4 0 .9 4.4 4.4 7.9 8.9 8.7.2 0 .2.3 0 .4-4.5.8-8 4.3-8.9 8.7 0 .2-.4.2-.4 0-.9-4.4-4.4-7.9-8.9-8.7-.2-.1-.2-.4 0-.4z" fill="#f5c84c"/></g><g><path d="m144.766 246.635c-2.783 0-5.531-.861-7.832-2.498l-34.317-24.425c-4.878-3.473-10.987-4.433-16.345-2.566-12.094 4.211-28.815 1.514-43.638-7.044-10.74-6.201-17.63-13.678-20.477-22.224-2.601-7.806-1.599-16.05 2.899-23.84s11.136-12.78 19.197-14.431c8.823-1.808 18.744.421 29.483 6.621 14.822 8.558 25.52 21.689 27.919 34.269 1.063 5.571 4.949 10.384 10.395 12.873l38.313 17.508c3.449 1.575 6.089 4.551 7.243 8.163 1.154 3.611.729 7.566-1.168 10.851-1.896 3.284-5.108 5.63-8.813 6.437-.946.204-1.905.306-2.859.306zm-52.912-35.424c4.77 0 9.567 1.513 13.661 4.427l34.317 24.425c1.973 1.404 4.36 1.893 6.729 1.38 2.366-.516 4.336-1.954 5.547-4.051 1.211-2.098 1.472-4.522.735-6.829s-2.356-4.131-4.559-5.138l-38.313-17.508c-6.917-3.161-11.861-9.323-13.229-16.482-2.134-11.193-11.908-23.024-25.507-30.876-18.03-10.41-33.677-8.176-41.851 5.979-8.173 14.155-2.286 28.822 15.747 39.233 13.599 7.851 28.73 10.402 39.493 6.651 2.339-.812 4.781-1.211 7.23-1.211z"/></g><g><path d="m111.234 246.635c-.955 0-1.914-.102-2.86-.308-3.705-.807-6.917-3.152-8.813-6.436s-2.321-7.237-1.168-10.849 3.794-6.589 7.243-8.165l2.53-1.156c1.259-.577 2.739-.02 3.313 1.234.574 1.256.021 2.739-1.234 3.313l-2.53 1.156c-2.202 1.007-3.821 2.832-4.559 5.14-.736 2.306-.476 4.73.735 6.827s3.18 3.535 5.546 4.05c2.367.516 4.757.024 6.73-1.379l9.71-6.911c1.123-.799 2.685-.538 3.486.588.801 1.124.537 2.686-.588 3.486l-9.71 6.911c-2.299 1.637-5.047 2.499-7.831 2.499z"/></g><g><g><path d="m25.386 190.123c-.872 0-1.719-.456-2.178-1.27-.68-1.202-.257-2.727.945-3.406 5.21-2.946 9.886-7.831 13.52-14.125 3.643-6.309 5.535-12.815 5.473-18.817-.015-1.381 1.094-2.512 2.474-2.526h.027c1.368 0 2.484 1.103 2.499 2.474.071 6.897-2.053 14.287-6.143 21.37-4.08 7.066-9.401 12.592-15.389 15.977-.388.219-.811.323-1.228.323z"/></g><g><path d="m63.102 217.512c-1.034 0-2.001-.646-2.36-1.678-.455-1.304.233-2.729 1.537-3.184l3.538-1.234-.62-5.604c-.222-2.006.195-3.993 1.207-5.748 1.065-1.843 2.735-3.284 4.705-4.061l5.258-2.066-.838-5.58c-.632-4.197 1.644-8.323 5.535-10.031l5.163-2.265-.923-4.842c-.258-1.356.632-2.665 1.988-2.924 1.358-.261 2.665.632 2.924 1.988l1.296 6.799c.218 1.145-.384 2.289-1.452 2.757l-6.987 3.064c-1.827.803-2.896 2.739-2.6 4.709l1.134 7.551c.173 1.152-.474 2.271-1.558 2.697l-7.108 2.795c-.922.363-1.706 1.041-2.206 1.908-.476.824-.673 1.758-.568 2.698l.839 7.584c.129 1.159-.561 2.252-1.661 2.636l-5.419 1.89c-.274.096-.551.141-.824.141z"/></g><g><path d="m79.553 217.999c-1.343 0-2.453-1.066-2.497-2.419-.004-.117-.011-.235-.023-.354l-.854-7.704c-.125-1.122.519-2.188 1.569-2.602l7.215-2.838c.949-.374 1.718-1.032 2.22-1.901.504-.872.689-1.865.537-2.876l-1.15-7.665c-.167-1.117.435-2.207 1.469-2.661l7.1-3.112c.232-.102.48-.248.756-.448 1.12-.808 2.681-.558 3.491.562.809 1.119.558 2.683-.562 3.491-.567.409-1.115.729-1.677.975l-5.349 2.345.867 5.772c.316 2.111-.093 4.284-1.153 6.118-1.057 1.832-2.732 3.272-4.718 4.054l-5.436 2.138.643 5.802c.028.25.045.497.053.743.044 1.381-1.038 2.535-2.418 2.58-.028 0-.056 0-.083 0z"/></g><g><path d="m48.543 212.441c-1.034 0-2.001-.646-2.36-1.678-.455-1.305.233-2.729 1.537-3.184l3.146-1.097c1.957-.686 3.167-2.605 2.938-4.668l-.853-7.703c-.125-1.122.519-2.188 1.569-2.602l7.215-2.837c.949-.375 1.718-1.032 2.221-1.903.503-.87.688-1.864.536-2.874l-1.15-7.665c-.167-1.117.435-2.207 1.469-2.661l7.1-3.112c1.901-.835 2.958-2.843 2.568-4.882l-.691-3.624c-.258-1.355.632-2.665 1.988-2.924 1.358-.257 2.665.632 2.924 1.988l.69 3.622c.83 4.342-1.419 8.618-5.47 10.398l-5.35 2.345.867 5.772c.316 2.109-.092 4.282-1.151 6.116s-2.734 3.273-4.719 4.056l-5.437 2.137.643 5.803c.485 4.392-2.089 8.478-6.259 9.938l-3.149 1.098c-.271.096-.55.141-.822.141z"/></g><g><path d="m37.13 205.161c-.876 0-1.727-.461-2.184-1.28-.674-1.205-.243-2.728.962-3.401.448-.251.906-.459 1.361-.617l5.32-1.855-.619-5.606c-.224-2.005.194-3.992 1.207-5.747 1.063-1.84 2.733-3.281 4.704-4.06l5.258-2.067-.838-5.579c-.631-4.197 1.645-8.323 5.534-10.032l5.165-2.264-1.056-5.538c-.142-.746-.191-1.513-.146-2.28.081-1.377 1.251-2.431 2.643-2.35 1.378.081 2.43 1.265 2.35 2.643-.021.356.001.71.066 1.052l1.429 7.495c.218 1.146-.385 2.289-1.452 2.758l-6.988 3.063c-1.826.802-2.896 2.739-2.599 4.71l1.133 7.549c.173 1.152-.474 2.271-1.558 2.697l-7.107 2.795c-.922.364-1.707 1.042-2.207 1.908-.476.824-.673 1.757-.568 2.696l.839 7.588c.129 1.158-.561 2.251-1.661 2.635l-7.201 2.511c-.185.064-.37.149-.568.26-.387.214-.806.316-1.219.316z"/></g><g><path d="m107.984 222.225c-.425 0-.854-.107-1.248-.335-1.195-.69-1.605-2.22-.915-3.415l6.697-11.601c.691-1.196 2.222-1.605 3.415-.915 1.195.69 1.605 2.22.915 3.415l-6.697 11.601c-.463.801-1.303 1.25-2.167 1.25z"/></g><g><path d="m97.707 216.425c-.425 0-.854-.107-1.248-.335-1.195-.69-1.605-2.219-.915-3.415l6.851-11.866c.691-1.195 2.222-1.604 3.415-.915 1.195.69 1.605 2.22.915 3.415l-6.851 11.866c-.463.802-1.304 1.25-2.167 1.25z"/></g></g><g><path d="m146.606 223.968c-.781 0-1.551-.365-2.039-1.051-.801-1.125-.537-2.686.588-3.486l5.33-3.793c6.197-4.408 14.003-5.608 20.888-3.215 10.758 3.746 25.893 1.199 39.493-6.652 9.649-5.571 15.784-12.122 18.233-19.473 2.136-6.411 1.275-13.243-2.486-19.76-8.172-14.154-23.818-16.391-41.851-5.979-13.599 7.851-23.373 19.682-25.507 30.876-1.367 7.159-6.313 13.32-13.229 16.48l-16.28 7.44c-1.259.576-2.739.021-3.313-1.234-.574-1.256-.021-2.739 1.234-3.313l16.28-7.44c5.445-2.488 9.331-7.3 10.395-12.871 2.399-12.58 13.097-25.712 27.919-34.269 10.741-6.202 20.666-8.428 29.483-6.622 8.061 1.65 14.699 6.641 19.197 14.431s5.5 16.034 2.899 23.84c-2.847 8.546-9.736 16.022-20.477 22.223-14.82 8.557-31.539 11.257-43.638 7.045-5.357-1.866-11.466-.906-16.345 2.566l-5.33 3.793c-.436.313-.942.464-1.444.464z"/></g><g><g><path d="m230.846 190.253c-.41 0-.826-.101-1.21-.313-6.093-3.376-11.5-8.949-15.639-16.117-4.131-7.153-6.253-14.611-6.14-21.567.022-1.366 1.138-2.459 2.499-2.459h.042c1.381.023 2.481 1.16 2.459 2.541-.1 6.051 1.792 12.615 5.47 18.985 3.685 6.382 8.434 11.308 13.732 14.244 1.208.669 1.644 2.19.975 3.398-.456.823-1.309 1.288-2.188 1.288z"/></g><g><path d="m176.443 218.251c-1.372 0-2.49-1.107-2.5-2.481-.003-.36.015-.725.055-1.091l.644-5.806-5.435-2.138c-1.986-.781-3.662-2.222-4.72-4.056-1.06-1.832-1.469-4.005-1.152-6.116l.867-5.772-5.348-2.344c-.441-.194-.868-.429-1.305-.717-1.152-.761-1.47-2.312-.71-3.464.763-1.154 2.313-1.468 3.464-.71.199.132.383.233.561.312l7.098 3.111c1.034.454 1.636 1.544 1.469 2.661l-1.15 7.665c-.152 1.011.033 2.004.536 2.874.503.871 1.271 1.529 2.222 1.903l7.214 2.838c1.051.413 1.694 1.479 1.569 2.602l-.854 7.703c-.018.167-.025.338-.024.507.01 1.381-1.101 2.508-2.481 2.519-.007 0-.014 0-.02 0z"/></g><g><path d="m193.158 217.603c-.273 0-.551-.045-.823-.141l-5.679-1.98c-1.101-.384-1.79-1.477-1.661-2.636l.84-7.585c.104-.939-.094-1.873-.57-2.699-.499-.865-1.283-1.543-2.207-1.906l-7.106-2.795c-1.084-.426-1.73-1.545-1.558-2.697l1.133-7.549c.298-1.972-.771-3.908-2.6-4.711l-6.986-3.064c-1.067-.468-1.67-1.611-1.452-2.757l1.299-6.818c.259-1.356 1.566-2.246 2.924-1.988 1.356.259 2.246 1.567 1.988 2.924l-.926 4.861 5.162 2.265c3.893 1.708 6.168 5.834 5.535 10.033l-.837 5.578 5.256 2.066c1.972.776 3.642 2.218 4.706 4.059 1.013 1.757 1.43 3.744 1.209 5.749l-.621 5.605 3.798 1.325c1.304.454 1.992 1.88 1.537 3.184-.36 1.03-1.327 1.677-2.361 1.677z"/></g><g><path d="m207.179 212.345c-.273 0-.551-.045-.823-.141l-2.868-1c-4.173-1.461-6.747-5.547-6.263-9.938l.644-5.804-5.435-2.137c-1.986-.782-3.662-2.222-4.721-4.054-1.06-1.836-1.468-4.009-1.151-6.118l.867-5.772-5.348-2.344c-4.053-1.781-6.302-6.058-5.471-10.401l.736-3.868c.259-1.356 1.567-2.249 2.924-1.988 1.356.259 2.246 1.567 1.988 2.924l-.737 3.87c-.391 2.041.666 4.049 2.569 4.885l7.098 3.111c1.034.454 1.636 1.544 1.469 2.661l-1.15 7.665c-.152 1.01.033 2.004.536 2.876.503.869 1.271 1.526 2.223 1.901l7.213 2.837c1.051.413 1.694 1.479 1.569 2.602l-.854 7.704c-.228 2.062.982 3.981 2.942 4.668l2.865.999c1.304.454 1.992 1.88 1.537 3.184-.358 1.031-1.325 1.678-2.359 1.678z"/></g><g><path d="m218.892 205.173c-.415 0-.836-.104-1.224-.321-.204-.114-.396-.202-.585-.269l-7.2-2.511c-1.101-.384-1.79-1.477-1.661-2.635l.839-7.586c.104-.941-.093-1.873-.568-2.697-.501-.867-1.285-1.545-2.21-1.91l-7.104-2.794c-1.084-.426-1.73-1.545-1.558-2.697l1.133-7.548c.297-1.972-.772-3.909-2.601-4.712l-6.986-3.063c-1.067-.469-1.67-1.612-1.452-2.758l1.429-7.495c.056-.294.08-.6.073-.904-.034-1.38 1.057-2.526 2.438-2.561.021-.001.042-.001.063-.001 1.353 0 2.465 1.079 2.498 2.438.017.656-.037 1.315-.159 1.959l-1.056 5.542 5.163 2.263c3.892 1.71 6.167 5.836 5.536 10.034l-.838 5.578 5.255 2.066c1.975.779 3.646 2.222 4.707 4.062 1.013 1.752 1.431 3.74 1.207 5.748l-.619 5.604 5.32 1.855c.472.165.926.371 1.389.632 1.203.677 1.63 2.201.953 3.404-.461.819-1.309 1.277-2.182 1.277z"/></g><g><path d="m147.914 222.048c-.863 0-1.704-.448-2.167-1.25l-6.569-11.378c-.69-1.195-.28-2.725.915-3.415 1.193-.69 2.724-.281 3.415.915l6.569 11.378c.69 1.195.28 2.725-.915 3.415-.393.227-.823.335-1.248.335z"/></g><g><path d="m158.256 216.36c-.863 0-1.704-.448-2.167-1.25l-6.75-11.692c-.69-1.196-.28-2.725.915-3.415 1.193-.689 2.725-.281 3.415.915l6.75 11.692c.69 1.196.28 2.725-.915 3.415-.394.228-.823.335-1.248.335z"/></g></g><g><path d="m208.251 137.921h-160.002c-12.228 0-23.068-7.275-27.619-18.536-3.938-9.748-6.713-19.246-8.246-28.23-.667-3.913.742-7.791 3.771-10.374 3.047-2.599 7.124-3.383 10.909-2.095 49.175 16.711 153.198 16.711 202.371 0 3.787-1.286 7.862-.503 10.909 2.095 3.029 2.583 4.438 6.461 3.771 10.374-1.533 8.99-4.308 18.488-8.244 28.23-4.552 11.261-15.392 18.536-27.62 18.536zm-184.817-54.838c-1.455 0-2.878.516-4.034 1.501-1.675 1.429-2.455 3.57-2.086 5.729 1.473 8.633 4.147 17.783 7.952 27.199 3.783 9.36 12.805 15.409 22.983 15.409h160.002c10.179 0 19.2-6.049 22.984-15.409 3.803-9.41 6.479-18.562 7.951-27.199.369-2.158-.411-4.3-2.086-5.729-1.691-1.442-3.954-1.88-6.056-1.164-49.957 16.977-155.633 16.977-205.59 0-.664-.227-1.346-.337-2.02-.337zm206.806-2.03h.01z"/></g><g><path d="m128.014 111.934c-.551 0-1.102-.182-1.558-.544l-5.569-4.436c-1.352-1.077-3.406-1.117-4.805-.09l-5.732 4.213c-.938.688-2.229.639-3.113-.121l-5.384-4.643c-1.35-1.167-3.324-1.281-4.803-.287l-5.89 3.973c-.971.654-2.26.549-3.11-.25l-5.184-4.868c-1.294-1.215-3.255-1.419-4.771-.491l-6.053 3.698c-1.002.609-2.289.444-3.103-.397l-4.933-5.109c-1.226-1.269-3.169-1.568-4.722-.732l-6.227 3.354c-1.034.558-2.322.318-3.087-.577l-4.594-5.379c-1.134-1.333-3.039-1.76-4.641-1.044l-6.4 2.884c-1.087.489-2.366.146-3.06-.823l-4.1-5.725c-1.013-1.411-2.799-1.992-4.449-1.455l-5.986 1.965c-1.314.433-2.724-.283-3.154-1.596-.431-1.312.283-2.724 1.596-3.154l5.986-1.965c3.734-1.227 7.782.098 10.071 3.292l2.908 4.062 4.536-2.044c3.619-1.623 7.932-.653 10.497 2.358l3.281 3.842 4.45-2.397c3.517-1.893 7.912-1.212 10.689 1.661l3.542 3.669 4.343-2.654c3.432-2.094 7.87-1.636 10.8 1.114l3.729 3.502 4.237-2.858c3.35-2.255 7.815-1.985 10.864.648l3.873 3.34 4.128-3.033c1.545-1.136 3.379-1.736 5.304-1.736 2.02 0 4 .689 5.575 1.942l4.014 3.196 4.008-3.191c3.154-2.516 7.631-2.603 10.884-.212l4.126 3.033 3.877-3.345c3.054-2.632 7.52-2.897 10.857-.646l4.238 2.859 3.723-3.499c2.932-2.75 7.371-3.209 10.802-1.116l4.342 2.652 3.535-3.663c2.771-2.878 7.168-3.566 10.691-1.665l4.446 2.396 3.281-3.846c2.565-3.009 6.88-3.976 10.486-2.355l4.539 2.046 2.902-4.055c2.295-3.198 6.341-4.523 10.075-3.297l6.883 2.258c1.312.43 2.026 1.843 1.596 3.154s-1.839 2.028-3.154 1.596l-6.883-2.258c-1.651-.539-3.438.046-4.452 1.459l-4.093 5.719c-.694.969-1.976 1.313-3.061.824l-6.405-2.887c-1.591-.719-3.497-.289-4.63 1.041l-4.591 5.382c-.767.896-2.052 1.136-3.088.578l-6.225-3.354c-1.558-.839-3.496-.536-4.72.734l-4.929 5.107c-.812.842-2.102 1.008-3.103.397l-6.052-3.697c-1.515-.927-3.478-.722-4.772.494l-5.177 4.864c-.851.799-2.14.905-3.11.25l-5.893-3.975c-1.473-.994-3.447-.877-4.797.288l-5.384 4.645c-.881.762-2.175.812-3.113.122l-5.73-4.213c-1.438-1.055-3.414-1.018-4.808.093l-5.566 4.433c-.449.363-1 .545-1.55.545z"/></g><g><path d="m128.014 122.928c-2.011 0-3.992-.695-5.578-1.957l-4.157-3.311-4.28 3.146c-3.382 2.485-7.967 2.308-11.151-.43l-4.031-3.479-4.408 2.974c-3.499 2.354-8.077 1.98-11.142-.897l-3.887-3.65-4.548 2.777c-3.606 2.206-8.179 1.618-11.115-1.425l-3.719-3.853-4.712 2.539c-3.687 1.989-8.342 1.119-11.064-2.074l-3.507-4.107-4.915 2.215c-3.878 1.747-8.487.507-10.962-2.953l-3.204-4.475-2.817.924c-1.313.431-2.726-.285-3.154-1.596-.431-1.312.284-2.725 1.596-3.154l4.561-1.496c1.038-.345 2.176.031 2.812.92l4.273 5.968c1.094 1.529 3.131 2.073 4.841 1.305l6.627-2.986c1.016-.455 2.207-.189 2.929.656l4.726 5.535c1.204 1.413 3.26 1.798 4.888.918l6.382-3.438c.983-.53 2.205-.342 2.984.465l5.035 5.216c1.298 1.346 3.317 1.604 4.911.631l6.174-3.771c.96-.587 2.195-.459 3.014.312l5.276 4.955c1.354 1.271 3.379 1.435 4.925.396l5.989-4.04c.936-.63 2.176-.559 3.031.179l5.477 4.724c1.404 1.209 3.431 1.288 4.927.189l5.821-4.279c.908-.669 2.153-.646 3.038.059l5.653 4.502c1.429 1.138 3.503 1.137 4.93-.001l5.651-4.5c.884-.705 2.13-.729 3.039-.059l5.821 4.28c1.495 1.097 3.521 1.017 4.927-.194l5.473-4.722c.854-.736 2.096-.809 3.031-.18l5.986 4.038c1.545 1.043 3.568.88 4.926-.395l5.271-4.953c.818-.772 2.053-.9 3.016-.313l6.169 3.769c1.592.976 3.613.717 4.913-.629l5.032-5.215c.778-.806 1.999-.997 2.985-.464l6.373 3.436c1.63.88 3.686.493 4.891-.916l4.721-5.533c.722-.844 1.912-1.111 2.929-.656l6.623 2.984c1.713.771 3.749.223 4.843-1.306l4.27-5.965c.636-.888 1.774-1.263 2.813-.92l4.878 1.601c1.313.43 2.026 1.843 1.596 3.154-.429 1.311-1.84 2.029-3.154 1.596l-3.134-1.028-3.202 4.474c-2.476 3.457-7.088 4.699-10.962 2.953l-4.913-2.214-3.503 4.107c-2.728 3.19-7.379 4.059-11.067 2.069l-4.703-2.535-3.717 3.852c-2.939 3.043-7.512 3.626-11.117 1.422l-4.542-2.774-3.883 3.648c-3.071 2.888-7.656 3.254-11.147.895l-4.4-2.968-4.025 3.472c-3.178 2.746-7.767 2.926-11.154.439l-4.281-3.148-4.154 3.31c-1.593 1.259-3.576 1.955-5.588 1.955z"/></g><g><g><path d="m86.363 93.959c-.066 0-.133-.003-.2-.008-1.376-.108-2.403-1.313-2.295-2.689 3.675-46.507 22.236-80.262 44.132-80.262 10.964 0 21.445 8.407 29.515 23.672 7.683 14.533 12.871 34.602 14.61 56.509.109 1.377-.918 2.581-2.294 2.69-1.373.098-2.581-.918-2.69-2.294-3.421-43.086-20.248-75.577-39.141-75.577-18.909 0-35.739 32.525-39.147 75.656-.104 1.309-1.199 2.303-2.49 2.303z"/></g></g><g><path d="m128.223 33.15c-7.938 0-15.872-.367-23.748-1.104-1.375-.129-2.385-1.347-2.257-2.722.129-1.375 1.354-2.376 2.722-2.257 15.195 1.421 30.619 1.443 45.842.067 1.374-.122 2.59.891 2.715 2.266.124 1.375-.891 2.59-2.266 2.715-7.637.691-15.325 1.035-23.008 1.035z"/></g><g><path d="m128.229 59.21c-11.695 0-23.386-.393-34.744-1.178-1.377-.096-2.416-1.289-2.321-2.667s1.286-2.415 2.667-2.321c22.357 1.546 46.019 1.554 68.423.027 1.354-.095 2.57.946 2.664 2.324.094 1.377-.946 2.57-2.324 2.664-11.248.767-22.809 1.151-34.365 1.151z"/></g><g><path d="m128.233 69.209c-12.673 0-25.239-.449-37.351-1.336-1.377-.101-2.411-1.299-2.311-2.676s1.303-2.414 2.676-2.311c11.99.877 24.434 1.322 36.985 1.322 12.333 0 24.57-.43 36.372-1.276 1.355-.111 2.574.937 2.672 2.314.1 1.377-.937 2.573-2.314 2.672-11.919.857-24.277 1.291-36.729 1.291z"/></g><g><path d="m128.234 79.196c-13.358 0-26.711-.499-39.414-1.497-1.377-.108-2.405-1.312-2.297-2.688.107-1.377 1.313-2.39 2.688-2.296 25.038 1.968 52.64 1.976 77.717.026 1.358-.115 2.579.921 2.686 2.299.107 1.376-.922 2.579-2.299 2.686-12.605.98-25.845 1.47-39.081 1.47z"/></g></g></g></svg>