<svg enable-background="new 0 0 256 256" height="512" viewBox="0 0 256 256" width="512" xmlns="http://www.w3.org/2000/svg"><g id="Layer_14"><g><g><path d="m202.884 171.878c-.708 14.563-10.104 26.936-23.083 32.034h40.482c16.24 0 29.526-13.287 29.526-29.527v-2.508h-46.925z" fill="#a57453"/></g><g><path d="m53.116 171.878h-46.926v2.508c0 16.24 13.287 29.527 29.527 29.527h40.482c-12.978-5.099-22.375-17.472-23.083-32.035z" fill="#a57453"/></g><g><path d="m198.241 187.878c-4.101 7.247-10.618 12.962-18.44 16.034h40.482c11.385 0 21.311-6.535 26.233-16.034z" fill="#c18e6b"/></g><g><path d="m57.758 187.878h-48.275c4.922 9.5 14.848 16.034 26.233 16.034h40.482c-7.822-3.073-14.339-8.787-18.44-16.034z" fill="#c18e6b"/></g><g><path d="m249.957 161.93h-42.491v.739c0 2.406-1.95 4.356-4.356 4.356h-.18v3.083c0 .593-.017 1.182-.045 1.769h47.073c1.957 0 3.543-1.586 3.543-3.543v-2.861c-.001-1.957-1.587-3.543-3.544-3.543z" fill="#c18e6b"/></g><g><path d="m243.504 146.315c-1.64-.402-2.701-1.921-2.695-3.61 0-.012 0-.024 0-.036 0-4.716-3.234-8.767-7.689-9.884-1.658-.416-2.754-1.914-2.748-3.623 0-.012 0-.024 0-.037 0-4.716-3.234-8.767-7.689-9.884-1.658-.416-2.754-1.914-2.748-3.623 0-.012 0-.024 0-.037 0-4.716-3.234-8.767-7.689-9.884-1.658-.416-2.754-1.914-2.748-3.623 0-.012 0-.024 0-.037 0-4.717-3.237-8.77-7.693-9.885-1.62-.405-2.768-1.846-2.744-3.516.006-.421-.015-.848-.064-1.281-.584-5.086-5.031-9.067-10.151-9.058-5.622.011-10.176 4.572-10.176 10.196v.036c.006 1.709-1.09 3.208-2.747 3.623-4.36 1.092-7.536 4.996-7.676 9.572.399.259.842.461 1.329.583 5.477 1.373 9.453 6.355 9.453 12.153v.045c-.008 2.101 1.34 3.943 3.378 4.455 5.477 1.373 9.453 6.355 9.453 12.153v.045c-.008 2.076 1.297 3.945 3.313 4.438 5.849 1.432 10.004 6.974 9.473 13.248-.188 2.218-.982 4.238-2.192 5.951h.652c2.406 0 4.356 1.95 4.356 4.356v2.779h41.961c.984-1.393 1.63-3.036 1.783-4.84.435-5.103-2.945-9.61-7.702-10.775z" fill="#f5c84c"/></g><g><path d="m53.071 170.109v-3.083h-.18c-2.406 0-4.356-1.95-4.356-4.356v-.739h-42.492c-1.957 0-3.543 1.586-3.543 3.543v2.861c0 1.957 1.586 3.543 3.543 3.543h47.073c-.028-.587-.045-1.176-.045-1.769z" fill="#c18e6b"/></g><g><path d="m48.534 159.151c0-2.406 1.95-4.356 4.356-4.356h.652c-1.204-1.706-1.997-3.716-2.189-5.924-.546-6.278 3.608-11.843 9.473-13.276 2.016-.493 3.318-2.363 3.311-4.438 0-.015 0-.029 0-.044 0-5.793 3.97-10.781 9.454-12.154 2.038-.51 3.385-2.353 3.378-4.454 0-.015 0-.029 0-.044 0-5.793 3.97-10.781 9.454-12.154.486-.122.93-.324 1.328-.582-.141-4.582-3.323-8.482-7.68-9.572-1.62-.405-2.768-1.846-2.744-3.516.006-.421-.015-.848-.064-1.281-.584-5.086-5.031-9.067-10.151-9.058-5.622.011-10.176 4.572-10.176 10.196v.036c.006 1.709-1.09 3.208-2.747 3.623-4.46 1.117-7.689 5.174-7.689 9.885v.036c.006 1.709-1.09 3.208-2.747 3.623-4.46 1.117-7.689 5.174-7.689 9.885v.036c.006 1.709-1.09 3.208-2.747 3.623-4.46 1.117-7.689 5.174-7.689 9.885v.036c.006 1.709-1.09 3.208-2.747 3.623-4.46 1.117-7.689 5.174-7.689 9.885v.036c.006 1.688-1.053 3.209-2.693 3.609-4.77 1.166-8.148 5.692-7.705 10.798.156 1.795.801 3.431 1.78 4.818h41.961v-2.78z" fill="#b598f9"/></g><g><path d="m249.957 174.377h-46.676c-1.381 0-2.5-1.119-2.5-2.5s1.119-2.5 2.5-2.5h46.676c.575 0 1.043-.468 1.043-1.043v-2.861c0-.575-.468-1.043-1.043-1.043h-41.427c-1.381 0-2.5-1.119-2.5-2.5s1.119-2.5 2.5-2.5h41.427c3.332 0 6.043 2.711 6.043 6.043v2.861c0 3.333-2.711 6.043-6.043 6.043z"/></g><g><path d="m220.283 206.412h-40.353c-1.381 0-2.5-1.119-2.5-2.5s1.119-2.5 2.5-2.5h40.354c14.903 0 27.027-12.124 27.027-27.026v-1.792c0-1.381 1.119-2.5 2.5-2.5s2.5 1.119 2.5 2.5v1.792c0 17.659-14.368 32.026-32.028 32.026z"/></g><g><path d="m249.809 163.845c-.443 0-.892-.118-1.298-.365-1.18-.718-1.554-2.256-.836-3.436.598-.981.948-2.046 1.043-3.165.318-3.75-2.179-7.248-5.809-8.136-2.719-.666-4.609-3.153-4.6-6.047 0-3.564-2.384-6.631-5.797-7.487-2.741-.687-4.649-3.177-4.64-6.057 0-3.564-2.384-6.631-5.796-7.487-2.743-.688-4.651-3.179-4.64-6.058 0-3.563-2.384-6.63-5.797-7.486-2.743-.688-4.651-3.179-4.64-6.057 0-3.565-2.385-6.633-5.801-7.487-2.771-.693-4.678-3.151-4.637-5.978.005-.318-.012-.642-.048-.959-.441-3.84-3.799-6.843-7.648-6.843-.004 0-.009 0-.014 0-4.235.008-7.682 3.46-7.682 7.696.012 2.906-1.896 5.397-4.64 6.084-3.07.769-5.376 3.413-5.738 6.581-.157 1.372-1.396 2.352-2.768 2.2-1.371-.157-2.356-1.396-2.199-2.768.597-5.226 4.411-9.592 9.49-10.864.514-.128.856-.606.854-1.188 0-7.033 5.685-12.729 12.672-12.742h.023c6.351 0 11.89 4.947 12.615 11.272.062.529.088 1.068.081 1.601-.008.495.343.929.851 1.056 5.645 1.413 9.587 6.475 9.587 12.311-.002.628.341 1.106.855 1.235 5.641 1.414 9.581 6.476 9.581 12.309-.002.628.341 1.106.855 1.235 5.641 1.414 9.58 6.476 9.58 12.309-.002.627.342 1.105.855 1.234 5.642 1.415 9.581 6.477 9.581 12.309-.002.517.245 1.085.789 1.218 6.096 1.493 10.134 7.134 9.602 13.415-.161 1.896-.751 3.693-1.754 5.342-.465.775-1.289 1.203-2.132 1.203z"/></g><g><path d="m52.594 174.377h-46.551c-3.332 0-6.043-2.711-6.043-6.043v-2.861c0-3.333 2.711-6.043 6.043-6.043h41.895c1.381 0 2.5 1.119 2.5 2.5s-1.119 2.5-2.5 2.5h-41.895c-.575 0-1.043.468-1.043 1.043v2.861c0 .575.468 1.043 1.043 1.043h46.551c1.381 0 2.5 1.119 2.5 2.5s-1.119 2.5-2.5 2.5z"/></g><g><path d="m76.112 206.412h-40.395c-17.66 0-32.027-14.367-32.027-32.026v-1.761c0-1.381 1.119-2.5 2.5-2.5s2.5 1.119 2.5 2.5v1.761c0 14.902 12.124 27.026 27.027 27.026h40.396c1.381 0 2.5 1.119 2.5 2.5s-1.12 2.5-2.501 2.5z"/></g><g><path d="m6.224 163.898c-.838 0-1.657-.422-2.13-1.188-1.022-1.657-1.625-3.468-1.791-5.382-.538-6.195 3.59-11.974 9.602-13.444.543-.132.788-.7.786-1.172 0-5.88 3.94-10.942 9.581-12.354.514-.128.857-.606.855-1.189 0-5.88 3.94-10.942 9.581-12.355.514-.128.856-.605.854-1.188 0-5.882 3.94-10.944 9.582-12.356.514-.128.856-.605.854-1.188 0-5.881 3.94-10.943 9.582-12.356.513-.128.856-.606.854-1.189 0-7.032 5.685-12.728 12.671-12.741h.023c6.351 0 11.891 4.947 12.616 11.272.062.529.088 1.068.081 1.601-.008.495.342.929.851 1.056 5.104 1.277 8.922 5.663 9.501 10.914.15 1.373-.839 2.607-2.212 2.759-1.376.152-2.606-.839-2.759-2.211-.351-3.183-2.659-5.839-5.744-6.611-2.771-.694-4.678-3.152-4.637-5.978.005-.318-.012-.642-.048-.959-.441-3.84-3.8-6.843-7.649-6.843-.004 0-.009 0-.014 0-4.235.008-7.681 3.46-7.681 7.696.01 2.907-1.898 5.397-4.64 6.084-3.413.854-5.797 3.922-5.797 7.459.012 2.906-1.896 5.397-4.64 6.084-3.413.854-5.797 3.921-5.797 7.459.012 2.906-1.896 5.397-4.64 6.084-3.413.854-5.796 3.922-5.796 7.46.01 2.907-1.898 5.397-4.641 6.084-3.413.854-5.796 3.922-5.796 7.459.01 2.923-1.881 5.41-4.599 6.074-3.638.889-6.135 4.394-5.809 8.153.099 1.129.457 2.203 1.066 3.19.725 1.175.359 2.715-.815 3.44-.404.256-.857.376-1.305.376z"/></g><g><path d="m203.109 167.025h-150.218c-2.406 0-4.356-1.95-4.356-4.356v-3.518c0-2.406 1.95-4.356 4.356-4.356h150.219c2.406 0 4.356 1.95 4.356 4.356v3.518c0 2.406-1.951 4.356-4.357 4.356z" fill="#c18e6b"/></g><g><g><path d="m53.071 167.025v3.083c0 19.967 16.337 36.303 36.303 36.303h77.251c19.967 0 36.303-16.337 36.303-36.303v-3.083z" fill="#c18e6b"/></g></g><g><path d="m53.542 154.794h148.915c1.21-1.713 2.004-3.733 2.192-5.951.532-6.274-3.624-11.816-9.473-13.248-2.016-.494-3.321-2.362-3.313-4.438 0-.015 0-.03 0-.045 0-5.798-3.977-10.779-9.453-12.153-2.038-.511-3.386-2.353-3.378-4.455 0-.015 0-.03 0-.045 0-5.798-3.977-10.78-9.453-12.153-2.038-.511-3.386-2.353-3.378-4.455 0-.015 0-.03 0-.045 0-5.798-3.977-10.78-9.454-12.153-2.038-.511-3.386-2.353-3.378-4.454 0-.015 0-.03 0-.045 0-5.8-3.979-10.783-9.459-12.154-1.991-.498-3.403-2.27-3.374-4.323.007-.517-.018-1.043-.079-1.575-.718-6.254-6.185-11.148-12.48-11.137-6.912.013-12.512 5.621-12.512 12.536v.044c.008 2.101-1.34 3.944-3.378 4.454-5.484 1.373-9.454 6.361-9.454 12.154v.044c.008 2.101-1.34 3.944-3.378 4.454-5.484 1.373-9.454 6.361-9.454 12.154v.044c.008 2.101-1.34 3.944-3.378 4.454-5.484 1.373-9.454 6.361-9.454 12.154v.044c.008 2.101-1.34 3.944-3.378 4.454-5.484 1.373-9.454 6.361-9.454 12.154v.044c.007 2.075-1.295 3.945-3.311 4.438-5.865 1.434-10.019 6.998-9.473 13.276.192 2.211.985 4.222 2.189 5.927z" fill="#fc657e"/></g><g><path d="m203.109 167.025h-150.218c-2.406 0-4.356-1.95-4.356-4.356v-3.518c0-2.406 1.95-4.356 4.356-4.356h150.219c2.406 0 4.356 1.95 4.356 4.356v3.518c0 2.406-1.951 4.356-4.357 4.356z" fill="#c18e6b"/></g><g><g><path d="m53.071 167.025v3.083c0 19.967 16.337 36.303 36.303 36.303h77.251c19.967 0 36.303-16.337 36.303-36.303v-3.083z" fill="#a57453"/></g></g><g><path d="m89.374 206.412h77.251c15.422 0 28.67-9.75 33.906-23.387h-145.063c5.236 13.637 18.484 23.387 33.906 23.387z" fill="#c18e6b"/></g><g><path d="m27.35 92.05c-3.1-.6-5.6-3-6.2-6.1 0-.1-.3-.1-.3 0-.6 3.1-3.1 5.5-6.2 6.1-.1 0-.1.2 0 .3 3.1.6 5.6 3 6.2 6.1 0 .1.3.1.3 0 .6-3.1 3.1-5.5 6.2-6.1.1-.1.1-.3 0-.3z" fill="#fc657e"/></g><g><path d="m100.9 36.75h2.3v2.3c0 1.8 1.4 3.2 3.2 3.2 1.7 0 3.2-1.4 3.2-3.1v-.1-2.3h2.3c1.8 0 3.2-1.4 3.2-3.2 0-1.7-1.4-3.2-3.1-3.2h-.1-2.3v-2.3c0-1.8-1.4-3.2-3.2-3.2-1.7 0-3.2 1.4-3.2 3.1v.1 2.3h-2.3c-1.8 0-3.2 1.4-3.2 3.2-.1 1.7 1.3 3.2 3.2 3.2-.1 0-.1 0 0 0z" fill="#70d6f9"/></g><g><circle cx="135.3" cy="16.75" fill="#f5c84c" r="3.4"/></g><g><circle cx="170.3" cy="239.25" fill="#87d147" r="3.4"/></g><g><path d="m193.7 227.05c4.5-.8 8-4.3 8.9-8.7 0-.2.4-.2.4 0 .9 4.4 4.4 7.9 8.9 8.7.2 0 .2.3 0 .4-4.5.8-8 4.3-8.9 8.7 0 .2-.4.2-.4 0-.9-4.4-4.4-7.9-8.9-8.7-.2-.1-.2-.4 0-.4z" fill="#f5c84c"/></g><g><path d="m203.109 169.525h-150.218c-3.78 0-6.856-3.076-6.856-6.856v-3.518c0-3.781 3.076-6.856 6.856-6.856h150.219c3.78 0 6.856 3.076 6.856 6.856v3.518c0 3.781-3.076 6.856-6.857 6.856zm-150.218-12.231c-1.023 0-1.856.833-1.856 1.856v3.518c0 1.023.833 1.856 1.856 1.856h150.219c1.023 0 1.856-.833 1.856-1.856v-3.518c0-1.023-.833-1.856-1.856-1.856z"/></g><g><g><path d="m166.626 208.912h-77.252c-21.396 0-38.803-17.407-38.803-38.803v-3.083c0-1.381 1.119-2.5 2.5-2.5h149.857c1.381 0 2.5 1.119 2.5 2.5v3.083c.001 21.396-17.407 38.803-38.802 38.803zm-111.055-39.387v.583c0 18.639 15.164 33.803 33.803 33.803h77.252c18.639 0 33.803-15.164 33.803-33.803v-.583z"/></g></g><g><path d="m52.977 156.415c-.856 0-1.69-.44-2.156-1.232-1.111-1.887-1.77-3.938-1.957-6.095-.639-7.337 4.25-14.182 11.369-15.922.83-.203 1.408-1.025 1.404-2 0-6.964 4.666-12.959 11.347-14.632.893-.223 1.489-1.035 1.485-2.02 0-6.964 4.666-12.959 11.347-14.632.892-.223 1.488-1.035 1.485-2.021 0-6.964 4.666-12.959 11.346-14.632.893-.223 1.489-1.035 1.485-2.02 0-6.965 4.666-12.96 11.347-14.632.892-.223 1.489-1.035 1.485-2.02 0-8.329 6.732-15.074 15.007-15.09h.027c7.521 0 14.082 5.859 14.941 13.352.073.628.104 1.268.096 1.898-.013.873.596 1.639 1.48 1.86 6.684 1.672 11.353 7.667 11.353 14.579-.004 1.039.594 1.851 1.485 2.075 6.681 1.675 11.346 7.67 11.346 14.578-.004 1.039.594 1.851 1.486 2.074 6.681 1.676 11.346 7.67 11.346 14.578-.004 1.039.594 1.851 1.487 2.075 6.68 1.675 11.345 7.669 11.345 14.578-.004 1.028.575 1.851 1.407 2.055 7.219 1.768 12 8.45 11.369 15.888-.181 2.138-.825 4.174-1.916 6.053-.693 1.195-2.227 1.6-3.417.907-1.194-.693-1.601-2.223-.907-3.417.717-1.235 1.14-2.569 1.258-3.965.415-4.889-2.843-9.45-7.576-10.609-3.084-.755-5.23-3.583-5.218-6.876 0-4.646-3.109-8.647-7.562-9.763-3.115-.781-5.282-3.614-5.271-6.889 0-4.647-3.109-8.647-7.562-9.764-3.115-.78-5.282-3.613-5.271-6.889 0-4.647-3.109-8.647-7.562-9.764-3.114-.78-5.281-3.613-5.27-6.888 0-4.649-3.111-8.65-7.566-9.765-3.146-.788-5.313-3.578-5.267-6.784.007-.417-.015-.837-.063-1.253-.575-5.008-4.954-8.923-9.975-8.923-.006 0-.012 0-.018 0-5.523.011-10.017 4.513-10.017 10.037.012 3.31-2.155 6.143-5.271 6.923-4.452 1.115-7.562 5.115-7.562 9.729.012 3.312-2.155 6.144-5.271 6.924-4.45 1.114-7.56 5.115-7.56 9.729.011 3.312-2.157 6.144-5.271 6.924-4.452 1.115-7.562 5.115-7.562 9.729.012 3.311-2.155 6.144-5.271 6.924-4.452 1.115-7.562 5.115-7.562 9.729.013 3.329-2.133 6.156-5.217 6.91-4.745 1.16-8.002 5.73-7.576 10.631.123 1.409.556 2.752 1.285 3.993.7 1.189.304 2.722-.886 3.422-.39.231-.827.343-1.258.343z"/></g><g><path d="m203.109 169.525h-150.218c-3.78 0-6.856-3.076-6.856-6.856v-3.518c0-3.781 3.076-6.856 6.856-6.856h150.219c3.78 0 6.856 3.076 6.856 6.856v3.518c0 3.781-3.076 6.856-6.857 6.856zm-150.218-12.231c-1.023 0-1.856.833-1.856 1.856v3.518c0 1.023.833 1.856 1.856 1.856h150.219c1.023 0 1.856-.833 1.856-1.856v-3.518c0-1.023-.833-1.856-1.856-1.856z"/></g><g><g><path d="m166.626 208.912h-77.252c-21.396 0-38.803-17.407-38.803-38.803v-2.275c0-1.381 1.119-2.5 2.5-2.5s2.5 1.119 2.5 2.5v2.275c0 18.639 15.164 33.803 33.803 33.803h77.252c18.639 0 33.803-15.164 33.803-33.803v-2.38c0-1.381 1.119-2.5 2.5-2.5s2.5 1.119 2.5 2.5v2.38c0 21.396-17.408 38.803-38.803 38.803z"/></g></g><g><path d="m200.021 185.525h-144.13c-1.381 0-2.5-1.119-2.5-2.5s1.119-2.5 2.5-2.5h144.13c1.381 0 2.5 1.119 2.5 2.5s-1.12 2.5-2.5 2.5z"/></g><g><path d="m246.25 190.377h-47.406c-1.381 0-2.5-1.119-2.5-2.5s1.119-2.5 2.5-2.5h47.406c1.381 0 2.5 1.119 2.5 2.5s-1.119 2.5-2.5 2.5z"/></g><g><path d="m57.187 190.377h-47.359c-1.381 0-2.5-1.119-2.5-2.5s1.119-2.5 2.5-2.5h47.359c1.381 0 2.5 1.119 2.5 2.5s-1.119 2.5-2.5 2.5z"/></g></g></g></svg>