<svg enable-background="new 0 0 256 256" height="512" viewBox="0 0 256 256" width="512" xmlns="http://www.w3.org/2000/svg"><g id="Layer_34"><g><g><path d="m40.615 186.764c7.495 4.877 18.335 2.967 23.208-5.732l.003-.005c.62-1.106 2.211-1.106 2.831 0 6.245 11.15 22.292 11.15 28.538.001l.001-.001c.62-1.106 2.211-1.106 2.831 0l.003.006c6.245 11.148 22.289 11.15 28.536.003l.005-.01c.62-1.106 2.211-1.106 2.83 0l.008.015c6.247 11.146 22.289 11.146 28.535-.001l.008-.014c.62-1.106 2.211-1.106 2.831 0l.006.011c6.246 11.147 22.289 11.147 28.535 0l.007-.012c.62-1.106 2.211-1.106 2.83 0l.008.014c.32.57.671 1.104 1.039 1.615 9.655-11.423 22.675-30.386 22.675-49.609l-41.674 5.59c-1.764.237-3.412 1.011-4.719 2.218l-9.856 9.098c-.73.674-1.687 1.048-2.68 1.048h-82.503c-2.182 0-3.951-1.769-3.951-3.951v-15.099c0-2.182-1.769-3.951-3.951-3.951h-38.8v25.183c0 4.53 1.524 8.961 4.453 12.417 3.217 3.798 7.191 10.508 8.413 21.166z" fill="#a57453"/></g><g><path d="m252.085 181.027c-6.244 11.15-22.29 11.152-28.537.004l-.003-.006c-.62-1.105-2.211-1.106-2.83 0l-.009.017c-6.247 11.146-22.289 11.145-28.535-.002l-.008-.014c-.62-1.106-2.211-1.106-2.83 0l-.007.012c-6.246 11.147-22.289 11.147-28.535 0l-.006-.011c-.62-1.106-2.211-1.106-2.831 0l-.008.014c-6.246 11.146-22.288 11.147-28.535.001l-.008-.015c-.62-1.106-2.211-1.106-2.83 0l-.005.01c-6.247 11.147-22.291 11.146-28.536-.003l-.003-.006c-.62-1.106-2.211-1.106-2.831 0l-.001.001c-6.246 11.149-22.293 11.149-28.538-.001-.619-1.106-2.211-1.106-2.831 0l-.003.005c-6.246 11.148-22.291 11.148-28.537-.001l-.002-.004c-.62-1.106-2.211-1.106-2.831 0-6.245 11.15-22.292 11.15-28.537.001l-1.418-2.529v64.1l1.416 2.528c6.246 11.149 22.292 11.149 28.537-.001.619-1.106 2.211-1.106 2.831 0l.002.004c6.245 11.149 22.291 11.149 28.537.001l.003-.005c.62-1.106 2.211-1.106 2.831 0 6.245 11.15 22.292 11.15 28.538.001l.001-.001c.62-1.106 2.211-1.106 2.831 0l.003.006c6.245 11.148 22.289 11.15 28.536.003l.005-.01c.62-1.106 2.211-1.106 2.83 0l.008.015c6.247 11.146 22.289 11.146 28.535-.001l.008-.014c.62-1.106 2.211-1.106 2.831 0l.006.011c6.246 11.147 22.289 11.147 28.535 0l.007-.012c.62-1.106 2.211-1.106 2.83 0l.008.014c6.246 11.146 22.288 11.147 28.535.002l.009-.017c.62-1.106 2.211-1.105 2.83 0l.003.006c6.247 11.148 22.293 11.146 28.537-.004l1.415-2.527v-64.1z" fill="#70d6f9"/></g><g><path d="m123.5 23.25v-17h-18.608c-1.186 0-1.78 1.434-.942 2.273l5.285 5.285c.52.52.52 1.363 0 1.883l-5.285 5.285c-.839.839-.245 2.273.942 2.273h18.608z" fill="#fc657e"/></g><g><path d="m118.5 124.509h10v26.491h-10z" fill="#a57453"/></g><g><g><path d="m130.248 41.491v-4.984c0-2.065-1.674-3.74-3.74-3.74h-6.016c-2.065 0-3.74 1.674-3.74 3.74v4.984z" fill="#a57453"/></g></g><g><g><path d="m171.5 50.491h-90c-2.485 0-4.5-2.015-4.5-4.5s2.015-4.5 4.5-4.5h90c2.485 0 4.5 2.015 4.5 4.5s-2.015 4.5-4.5 4.5z" fill="#fed690"/></g></g><g><g><path d="m171.5 124.509h-90c-2.485 0-4.5-2.015-4.5-4.5s2.015-4.5 4.5-4.5h90c2.485 0 4.5 2.015 4.5 4.5s-2.015 4.5-4.5 4.5z" fill="#fed690"/></g></g><g><g><path d="m169.453 50.491h-83.917c9.574 7.601 15.721 19.333 15.721 32.509s-6.146 24.907-15.721 32.509h83.916c9.57-7.604 15.714-19.335 15.714-32.509.001-13.173-6.143-24.905-15.713-32.509z" fill="#edf4fc"/></g></g><g><path d="m139.25 82.5-6.753-15.435c-.518-1.184.35-2.511 1.642-2.511h10.221c1.293 0 2.16 1.327 1.642 2.511z" fill="#fc657e"/></g><g><path d="m139.25 82.5-6.753 15.435c-.518 1.184.35 2.511 1.642 2.511h10.221c1.293 0 2.16-1.327 1.642-2.511z" fill="#fc657e"/></g><g><path d="m139.25 82.5-15.435 6.753c-1.184.518-2.511-.35-2.511-1.642v-10.222c0-1.293 1.327-2.16 2.511-1.642z" fill="#fc657e"/></g><g><path d="m139.25 82.5 15.435 6.753c1.184.518 2.511-.35 2.511-1.642v-10.222c0-1.293-1.327-2.16-2.511-1.642z" fill="#fc657e"/></g><g><path d="m252.085 202.393c-6.244 11.15-22.29 11.152-28.537.004l-.003-.006c-.62-1.106-2.211-1.106-2.83 0l-.009.017c-6.247 11.146-22.289 11.145-28.535-.002l-.008-.014c-.62-1.106-2.211-1.106-2.83 0l-.007.011c-6.246 11.147-22.289 11.147-28.535 0l-.006-.011c-.62-1.106-2.211-1.106-2.831 0l-.008.014c-6.246 11.146-22.288 11.147-28.535.001l-.008-.015c-.62-1.106-2.211-1.106-2.83 0l-.005.01c-6.247 11.147-22.291 11.146-28.536-.003l-.003-.006c-.62-1.106-2.211-1.106-2.831 0l-.001.001c-6.246 11.149-22.293 11.149-28.538-.001-.619-1.106-2.211-1.106-2.831 0l-.003.005c-6.246 11.148-22.291 11.148-28.537-.001l-.002-.004c-.62-1.106-2.211-1.106-2.831 0-6.245 11.15-22.292 11.15-28.537.001l-1.418-2.528v21.367l1.416 2.528c6.246 11.149 22.292 11.148 28.537-.001.619-1.106 2.211-1.106 2.831 0l.002.004c6.245 11.149 22.291 11.149 28.537.001l.003-.005c.62-1.106 2.211-1.106 2.831 0 6.245 11.15 22.292 11.15 28.538.001l.001-.001c.62-1.106 2.211-1.106 2.831 0l.003.006c6.245 11.148 22.289 11.15 28.536.002l.005-.01c.62-1.105 2.211-1.105 2.83 0l.008.015c6.247 11.146 22.289 11.146 28.535-.001l.008-.014c.62-1.106 2.211-1.106 2.831 0l.006.011c6.246 11.147 22.289 11.147 28.535 0l.007-.012c.62-1.106 2.211-1.106 2.83 0l.008.014c6.246 11.146 22.288 11.147 28.535.002l.009-.017c.62-1.106 2.211-1.105 2.83 0l.003.006c6.247 11.148 22.293 11.146 28.537-.004l1.415-2.527v-21.367z" fill="#9be5f9"/></g><g><path d="m40.35 104.2c-3.1-.6-5.6-3-6.2-6.1 0-.1-.3-.1-.3 0-.6 3.1-3.1 5.5-6.2 6.1-.1 0-.1.2 0 .3 3.1.6 5.6 3 6.2 6.1 0 .1.3.1.3 0 .6-3.1 3.1-5.5 6.2-6.1.1-.1.1-.3 0-.3z" fill="#87d147"/></g><g><path d="m48.9 20.9h2.3v2.3c0 1.8 1.4 3.2 3.2 3.2 1.7 0 3.2-1.4 3.2-3.1v-.1-2.3h2.3c1.8 0 3.2-1.4 3.2-3.2 0-1.7-1.4-3.2-3.1-3.2h-.1-2.3v-2.3c0-1.8-1.4-3.2-3.2-3.2-1.7 0-3.2 1.4-3.2 3.1v.1 2.3h-2.3c-1.8 0-3.2 1.4-3.2 3.2-.1 1.7 1.3 3.2 3.2 3.2-.1 0-.1 0 0 0z" fill="#70d6f9"/></g><g><circle cx="198.3" cy="118.9" fill="#fc657e" r="3.4"/></g><g><circle cx="80.3" cy="3.4" fill="#f5c84c" r="3.4"/></g><g><path d="m204.7 95.2c4.5-.8 8-4.3 8.9-8.7 0-.2.4-.2.4 0 .9 4.4 4.4 7.9 8.9 8.7.2 0 .2.3 0 .4-4.5.8-8 4.3-8.9 8.7 0 .2-.4.2-.4 0-.9-4.4-4.4-7.9-8.9-8.7-.2-.1-.2-.4 0-.4z" fill="#f5c84c"/></g><g><path d="m156.955 153.5h-82.505c-3.557 0-6.45-2.894-6.45-6.451v-15.099c0-.8-.65-1.451-1.45-1.451h-42.05c-1.381 0-2.5-1.119-2.5-2.5s1.119-2.5 2.5-2.5h42.05c3.557 0 6.45 2.894 6.45 6.451v15.099c0 .8.65 1.451 1.45 1.451h82.505c.366 0 .715-.136.983-.384l9.857-9.098c1.693-1.563 3.797-2.552 6.081-2.859l79.291-10.637c1.368-.187 2.627.778 2.81 2.146.184 1.369-.776 2.627-2.146 2.811l-79.29 10.636c-1.26.169-2.421.714-3.355 1.577l-9.856 9.098c-1.193 1.102-2.748 1.71-4.375 1.71z"/></g><g><path d="m193.526 184.777c-.567 0-1.138-.192-1.606-.585-1.058-.888-1.195-2.464-.308-3.522 9.842-11.722 21.606-29.437 21.77-47.255.013-1.373 1.13-2.477 2.499-2.477h.023c1.381.013 2.49 1.142 2.478 2.523-.177 19.302-12.572 38.074-22.939 50.424-.496.588-1.204.892-1.917.892z"/></g><g><path d="m40.534 188.621c-1.241 0-2.317-.923-2.478-2.186-1.24-9.778-4.905-15.848-7.761-19.218-3.254-3.84-5.046-8.824-5.046-14.034v-24.308c0-1.381 1.119-2.5 2.5-2.5s2.5 1.119 2.5 2.5v24.308c0 4.028 1.371 7.864 3.86 10.801 3.294 3.886 7.513 10.827 8.907 21.822.174 1.37-.796 2.621-2.166 2.794-.105.014-.211.021-.316.021z"/></g><g><path d="m206.438 256c-6.431 0-12.195-3.112-15.692-8.396-3.503 5.286-9.265 8.393-15.688 8.393-.001 0 0 0-.001 0-6.428 0-12.192-3.111-15.689-8.393-3.504 5.288-9.266 8.395-15.689 8.396-6.43 0-12.195-3.112-15.692-8.396-3.502 5.284-9.264 8.392-15.688 8.392-.001 0-.001 0-.001 0-6.427 0-12.189-3.11-15.687-8.391-3.498 5.277-9.26 8.385-15.685 8.385 0 0 .001 0 0 0-6.425 0-12.187-3.108-15.685-8.386-3.498 5.281-9.261 8.389-15.686 8.389-6.427 0-12.189-3.109-15.687-8.389-3.497 5.278-9.259 8.385-15.684 8.386-6.919 0-13.068-3.603-16.45-9.64l-1.417-2.528c-.208-.374-.317-.795-.317-1.222v-64.1c0-1.138.768-2.132 1.869-2.419 1.105-.286 2.257.206 2.813 1.197l1.416 2.528c2.484 4.436 7.004 7.083 12.088 7.083s9.603-2.648 12.087-7.084c.728-1.299 2.105-2.107 3.596-2.108h.001c1.49 0 2.868.807 3.597 2.107.005.009.01.019.016.028 2.487 4.422 6.999 7.061 12.074 7.061 5.084 0 9.602-2.647 12.087-7.083.732-1.306 2.109-2.113 3.6-2.113h.002c1.489 0 2.867.809 3.595 2.108 2.484 4.435 7.003 7.083 12.087 7.083 5.085 0 9.604-2.647 12.089-7.083.727-1.299 2.104-2.108 3.594-2.108h.002c1.49 0 2.868.807 3.597 2.106l.018.033c2.488 4.42 6.999 7.058 12.072 7.058h.001c5.083 0 9.602-2.647 12.087-7.082.733-1.309 2.111-2.117 3.602-2.117s2.868.808 3.597 2.107c2.493 4.449 7.011 7.096 12.095 7.096 5.083 0 9.602-2.648 12.087-7.083.735-1.313 2.113-2.121 3.604-2.121s2.868.808 3.597 2.108c2.49 4.445 7.009 7.093 12.093 7.093 5.083 0 9.602-2.647 12.087-7.082.734-1.311 2.112-2.119 3.603-2.119s2.868.808 3.597 2.108c2.492 4.448 7.011 7.096 12.094 7.096s9.602-2.646 12.087-7.081c.737-1.316 2.115-2.124 3.604-2.124s2.867.807 3.597 2.106c.006.011.013.022.019.034 2.488 4.418 6.999 7.055 12.072 7.054 5.085 0 9.604-2.649 12.087-7.085l1.415-2.527c.557-.992 1.71-1.484 2.813-1.197 1.102.287 1.869 1.281 1.869 2.419v64.1c0 .428-.109.848-.318 1.222l-1.415 2.527c-3.381 6.037-9.53 9.641-16.449 9.642-.001 0-.002 0-.003 0-6.426 0-12.188-3.108-15.686-8.388-3.511 5.293-9.273 8.4-15.698 8.4zm-15.691-14.204c1.49 0 2.868.808 3.597 2.108 2.492 4.448 7.011 7.096 12.094 7.096s9.602-2.646 12.087-7.081c.737-1.316 2.115-2.124 3.604-2.124s2.867.807 3.597 2.106c.006.011.012.022.018.033 2.488 4.419 7 7.056 12.073 7.055 5.085 0 9.604-2.649 12.087-7.085l1.097-1.958v-55.402c-3.457 3.41-8.112 5.345-13.183 5.345-.001 0-.002 0-.003 0-6.426 0-12.188-3.108-15.686-8.388-3.504 5.291-9.266 8.398-15.69 8.398h-.001c-6.43 0-12.194-3.112-15.691-8.396-3.503 5.286-9.265 8.393-15.688 8.393-.001 0 0 0-.001 0-6.428 0-12.192-3.111-15.689-8.393-3.504 5.288-9.266 8.396-15.689 8.396-6.43 0-12.195-3.112-15.692-8.396-3.502 5.284-9.264 8.392-15.688 8.392-.001 0-.001 0-.001 0-6.427 0-12.189-3.11-15.687-8.391-3.498 5.277-9.26 8.385-15.684 8.385-.001 0 0 0-.001 0-6.425 0-12.187-3.108-15.685-8.386-3.498 5.281-9.261 8.389-15.686 8.389-6.427 0-12.189-3.109-15.687-8.389-3.497 5.278-9.259 8.385-15.684 8.386-5.07 0-9.728-1.935-13.186-5.345v55.402l1.098 1.959c2.484 4.436 7.004 7.083 12.088 7.083s9.603-2.648 12.087-7.084c.728-1.299 2.105-2.107 3.596-2.108h.001c1.49 0 2.868.807 3.597 2.107.005.009.01.018.015.027 2.487 4.422 6.999 7.062 12.075 7.062 5.084 0 9.602-2.647 12.087-7.083.732-1.306 2.109-2.113 3.6-2.113h.002c1.489 0 2.867.809 3.595 2.108 2.484 4.435 7.003 7.083 12.087 7.084 5.085 0 9.604-2.648 12.089-7.083.727-1.299 2.104-2.108 3.594-2.108h.003c1.489 0 2.867.807 3.596 2.106.006.011.012.022.019.033 2.487 4.419 6.998 7.057 12.071 7.058h.001c5.083 0 9.602-2.647 12.087-7.082.733-1.309 2.111-2.117 3.602-2.117s2.868.808 3.597 2.107c2.493 4.449 7.011 7.096 12.095 7.096 5.083 0 9.602-2.648 12.087-7.083.735-1.313 2.113-2.121 3.604-2.121s2.868.808 3.597 2.108c2.49 4.445 7.009 7.093 12.093 7.093 5.083 0 9.602-2.647 12.087-7.082.73-1.309 2.108-2.117 3.598-2.117z"/></g><g><path d="m123.5 34.333c-1.381 0-2.5-1.119-2.5-2.5v-29.333c0-1.381 1.119-2.5 2.5-2.5s2.5 1.119 2.5 2.5v29.333c0 1.381-1.119 2.5-2.5 2.5z"/></g><g><path d="m123.5 25.75h-18.607c-1.556 0-2.944-.928-3.54-2.365-.595-1.437-.269-3.076.831-4.175l4.459-4.459-4.459-4.459c-1.1-1.1-1.426-2.739-.831-4.175.596-1.437 1.984-2.365 3.54-2.365h18.607c1.381 0 2.5 1.119 2.5 2.5v17c0 1.379-1.119 2.498-2.5 2.498zm-15.786-5h13.286v-12h-13.286l3.29 3.291c1.493 1.494 1.493 3.924.001 5.417z"/></g><g><path d="m128.5 152.625c-1.381 0-2.5-1.119-2.5-2.5v-24.958c0-1.381 1.119-2.5 2.5-2.5s2.5 1.119 2.5 2.5v24.958c0 1.38-1.119 2.5-2.5 2.5z"/></g><g><path d="m118.5 152.625c-1.381 0-2.5-1.119-2.5-2.5v-25c0-1.381 1.119-2.5 2.5-2.5s2.5 1.119 2.5 2.5v25c0 1.381-1.119 2.5-2.5 2.5z"/></g><g><g><path d="m116.752 43.188c-1.381 0-2.5-1.119-2.5-2.5v-4.18c0-3.44 2.8-6.24 6.24-6.24h6.016c3.44 0 6.24 2.799 6.24 6.24v3.93c0 1.381-1.119 2.5-2.5 2.5s-2.5-1.119-2.5-2.5v-3.93c0-.684-.557-1.24-1.24-1.24h-6.016c-.684 0-1.24.556-1.24 1.24v4.18c0 1.381-1.119 2.5-2.5 2.5z"/></g></g><g><g><path d="m171.5 52.992h-90c-3.859 0-7-3.14-7-7s3.141-7 7-7h90c3.859 0 7 3.14 7 7s-3.141 7-7 7zm-90-9c-1.103 0-2 .897-2 2s.897 2 2 2h90c1.103 0 2-.897 2-2s-.897-2-2-2z"/></g></g><g><g><path d="m171.5 127.009h-90c-3.859 0-7-3.14-7-7s3.141-7 7-7h90c3.859 0 7 3.14 7 7s-3.141 7-7 7zm-90-9c-1.103 0-2 .897-2 2s.897 2 2 2h90c1.103 0 2-.897 2-2s-.897-2-2-2z"/></g></g><g><g><path d="m85.701 117.878c-.732 0-1.458-.32-1.952-.936-.864-1.077-.691-2.651.386-3.515 9.293-7.452 14.622-18.543 14.622-30.427 0-11.599-5.121-22.519-14.05-29.961-1.061-.884-1.204-2.46-.319-3.521.884-1.061 2.46-1.204 3.521-.32 10.071 8.395 15.848 20.716 15.848 33.802 0 13.409-6.012 25.921-16.493 34.329-.462.37-1.014.549-1.563.549z"/></g><g><path d="m169.767 117.758c-.729 0-1.45-.316-1.944-.926-.869-1.073-.704-2.647.368-3.516 9.2-7.455 14.477-18.504 14.477-30.315 0-11.677-5.179-22.646-14.207-30.096-1.065-.878-1.216-2.454-.338-3.519.879-1.066 2.456-1.216 3.52-.337 10.183 8.401 16.024 20.776 16.024 33.951 0 13.327-5.951 25.792-16.328 34.2-.463.375-1.02.558-1.572.558z"/></g></g><g><path d="m139.25 85c-.993 0-1.893-.588-2.29-1.498l-6.753-15.435c-.583-1.333-.455-2.854.341-4.07.795-1.216 2.139-1.942 3.592-1.942h10.221c1.453 0 2.797.726 3.592 1.942.796 1.216.924 2.738.342 4.07l-6.754 15.436c-.398.909-1.298 1.497-2.291 1.497zm-4.029-17.946 4.029 9.208 4.029-9.208z"/></g><g><path d="m144.36 102.946h-10.22c-1.453 0-2.797-.726-3.592-1.942-.796-1.216-.924-2.738-.342-4.07l6.754-15.436c.397-.91 1.297-1.498 2.29-1.498s1.893.588 2.29 1.498l6.753 15.435c.583 1.333.455 2.854-.341 4.07-.795 1.217-2.139 1.943-3.592 1.943zm-9.139-5h8.059l-4.029-9.208z"/></g><g><path d="m123.094 91.905c-.82 0-1.636-.236-2.347-.702-1.217-.795-1.943-2.139-1.943-3.592v-10.222c0-1.454.727-2.797 1.943-3.592 1.217-.796 2.74-.922 4.069-.34l15.436 6.752c.91.398 1.498 1.297 1.498 2.291s-.588 1.892-1.498 2.291l-15.436 6.753c-.552.242-1.138.361-1.722.361zm.71-13.434v8.058l9.209-4.029z"/></g><g><path d="m155.406 91.905c-.584 0-1.17-.12-1.723-.362l-15.436-6.752c-.91-.398-1.498-1.297-1.498-2.291s.588-1.892 1.498-2.291l15.436-6.753c1.329-.583 2.853-.456 4.069.34 1.217.795 1.943 2.139 1.943 3.592v10.222c0 1.454-.727 2.797-1.943 3.592-.71.466-1.525.703-2.346.703zm-9.919-9.405 9.209 4.029v-8.058z"/></g><g><path d="m206.438 234.633c-6.431 0-12.195-3.112-15.692-8.396-3.503 5.286-9.265 8.394-15.688 8.394-6.429 0-12.193-3.111-15.69-8.394-3.504 5.288-9.266 8.396-15.689 8.396-6.43 0-12.195-3.112-15.692-8.396-3.502 5.284-9.264 8.392-15.688 8.392-.001 0-.001 0-.001 0-6.427 0-12.189-3.11-15.687-8.391-3.498 5.277-9.26 8.385-15.685 8.385-6.425 0-12.187-3.108-15.684-8.386-3.499 5.281-9.262 8.389-15.687 8.389-6.427 0-12.189-3.109-15.687-8.389-3.497 5.278-9.259 8.386-15.684 8.386-6.919 0-13.069-3.603-16.45-9.64l-1.243-2.218c-.674-1.205-.244-2.729.96-3.403s2.728-.245 3.403.959l1.242 2.218c2.484 4.436 7.003 7.083 12.088 7.083 5.084 0 9.603-2.649 12.087-7.084.728-1.299 2.105-2.107 3.595-2.108h.002c1.49 0 2.868.807 3.597 2.107.005.008.009.017.014.025 2.487 4.423 7 7.063 12.076 7.063 5.084 0 9.602-2.647 12.087-7.083.731-1.305 2.109-2.113 3.6-2.113h.001c1.49 0 2.868.809 3.596 2.108 2.484 4.436 7.003 7.083 12.087 7.084 5.084 0 9.604-2.648 12.089-7.083.727-1.299 2.104-2.108 3.594-2.108h.003c1.489 0 2.867.807 3.596 2.106.006.011.013.022.019.033 2.487 4.419 6.998 7.057 12.071 7.058h.001c5.083 0 9.602-2.647 12.087-7.082.733-1.309 2.111-2.117 3.602-2.117s2.868.808 3.597 2.107c2.493 4.449 7.011 7.096 12.095 7.096 5.083 0 9.602-2.647 12.087-7.082.735-1.313 2.113-2.121 3.604-2.121s2.868.808 3.597 2.107c.008.015.017.03.024.046 2.489 4.414 6.998 7.048 12.068 7.048 5.083 0 9.602-2.647 12.087-7.083.734-1.311 2.112-2.119 3.603-2.119s2.868.808 3.597 2.107c2.492 4.448 7.011 7.096 12.094 7.096s9.602-2.646 12.087-7.081c.737-1.316 2.115-2.124 3.605-2.124 1.489 0 2.867.807 3.596 2.106.006.011.012.022.018.033 2.488 4.419 7 7.056 12.074 7.056 5.084 0 9.603-2.649 12.086-7.085l1.268-2.264c.675-1.206 2.199-1.635 3.403-.96 1.204.674 1.634 2.198.96 3.402l-1.268 2.264c-3.381 6.037-9.53 9.642-16.449 9.643-.001 0-.002 0-.002 0-6.427 0-12.189-3.109-15.687-8.388-3.507 5.294-9.269 8.401-15.694 8.401z"/></g><g><path d="m206.438 213.267c-6.429 0-12.192-3.111-15.689-8.392-3.456 5.255-9.239 8.389-15.691 8.389-6.429 0-12.193-3.111-15.69-8.394-3.504 5.289-9.266 8.396-15.689 8.396-6.43 0-12.195-3.112-15.692-8.396-3.503 5.285-9.264 8.391-15.688 8.391h-.001c-6.427 0-12.189-3.11-15.687-8.391-3.498 5.277-9.26 8.385-15.685 8.385-6.425 0-12.187-3.108-15.684-8.386-3.5 5.281-9.262 8.389-15.687 8.389-6.427 0-12.189-3.108-15.687-8.388-3.497 5.278-9.259 8.385-15.684 8.386-6.919 0-13.069-3.604-16.45-9.64l-1.208-2.155c-.674-1.205-.244-2.728.96-3.403 1.204-.673 2.727-.246 3.403.959l1.207 2.155c2.484 4.436 7.004 7.083 12.088 7.083s9.603-2.648 12.088-7.084c.727-1.299 2.104-2.107 3.595-2.108h.001c1.49 0 2.868.807 3.597 2.107.005.008.01.017.014.025 2.487 4.423 7 7.063 12.076 7.063 5.084 0 9.603-2.647 12.087-7.083.731-1.306 2.109-2.113 3.6-2.113h.001c1.49 0 2.868.809 3.596 2.108 2.484 4.436 7.003 7.083 12.087 7.084 5.084 0 9.604-2.648 12.089-7.083.727-1.299 2.104-2.108 3.594-2.109h.002c1.49 0 2.868.807 3.597 2.107.006.011.013.022.019.033 2.487 4.419 6.998 7.057 12.071 7.058h.001c5.084 0 9.602-2.647 12.087-7.082.733-1.309 2.111-2.117 3.602-2.117s2.868.808 3.597 2.108c2.493 4.448 7.011 7.096 12.095 7.096 5.083 0 9.602-2.648 12.087-7.083.735-1.313 2.113-2.121 3.604-2.121s2.868.808 3.597 2.107c.008.015.017.03.024.046 2.489 4.414 6.998 7.048 12.068 7.048 5.083 0 9.602-2.648 12.087-7.083.015-.026.036-.063.052-.089.683-1.222 2.061-2.03 3.551-2.03s2.868.808 3.597 2.108c2.492 4.448 7.011 7.096 12.094 7.096s9.602-2.647 12.087-7.081c.737-1.316 2.115-2.124 3.605-2.124 1.489 0 2.867.807 3.596 2.106.008.015.017.03.024.045 2.489 4.413 6.997 7.045 12.067 7.044 5.084 0 9.603-2.649 12.086-7.085l1.264-2.257c.675-1.206 2.2-1.633 3.403-.96 1.204.675 1.634 2.198.96 3.403l-1.264 2.257c-3.381 6.037-9.53 9.642-16.449 9.643-.001 0-.002 0-.003 0-6.426 0-12.188-3.109-15.686-8.388-3.506 5.293-9.269 8.4-15.693 8.4z"/></g></g></g></svg>