<svg enable-background="new 0 0 256 256" height="512" viewBox="0 0 256 256" width="512" xmlns="http://www.w3.org/2000/svg"><g id="Layer_15"><g><g><path d="m206.488 86.878c-.716-41.855-34.755-76.126-76.605-77.106-44.215-1.035-80.383 34.498-80.383 78.478 0 11.644 2.538 22.694 7.089 32.63 3.446 7.526 3.992 16.017 1.433 23.888-.823 2.533-1.177 5.278-.959 8.133.782 10.216 9.077 18.506 19.293 19.286.26.02.518.035.775.045 4.33.173 8.094 3.208 9.049 7.435.007.031.014.062.021.093.844 3.806 3.694 6.837 7.413 8.005 6.036 1.896 16.903 3.985 34.386 3.985s28.35-2.089 34.386-3.985c3.719-1.168 6.569-4.2 7.413-8.005.007-.031.014-.062.021-.093.956-4.227 4.72-7.261 9.05-7.435.257-.01.514-.025.773-.045 10.216-.779 18.512-9.07 19.295-19.286.207-2.706-.1-5.313-.833-7.735-2.462-8.127-2.093-16.794 1.417-24.527 4.657-10.263 7.172-21.706 6.966-33.761z" fill="#edf4fc"/></g><g><path d="m179.642 172.187c-.259.02-.516.035-.773.045-4.33.174-8.094 3.208-9.05 7.435-.007.031-.014.062-.021.093-.844 3.806-3.694 6.837-7.413 8.005-6.036 1.896-16.903 3.985-34.386 3.985s-28.35-2.089-34.386-3.985c-3.719-1.168-6.569-4.2-7.413-8.005-.007-.031-.014-.062-.021-.093-.956-4.226-4.719-7.261-9.049-7.435-.257-.01-.516-.025-.775-.045-2.256-.172-4.41-.729-6.418-1.574 2.112 5.652 3.698 12.361 3.698 19.784v8.007c0 8.475 3.399 16.585 9.428 22.271 2 1.886 4.286 4.136 6.825 6.784 2.715 2.83 4.922 5.433 6.698 7.728 5.03 6.498 12.603 10.274 20.614 10.274h20.549c8.01 0 15.584-3.775 20.614-10.274 1.777-2.295 3.984-4.898 6.698-7.728 2.54-2.647 4.825-4.897 6.825-6.784 6.029-5.686 9.428-13.796 9.428-22.271v-8.007c0-7.217 1.501-13.756 3.525-19.306-1.652.576-3.392.959-5.197 1.096z" fill="#c7d7e5"/></g><g><path d="m136.697 245.46c1.464-2.937 2.288-6.248 2.288-9.755 0-6.997-3.28-13.217-8.378-17.237-1.519-1.198-3.694-1.198-5.213 0-5.099 4.02-8.378 10.24-8.378 17.237 0 3.507.824 6.818 2.288 9.755z" fill="#fca265"/></g><g><path d="m165.25 186.371c-.875.589-1.831 1.07-2.864 1.394-6.036 1.896-16.903 3.985-34.386 3.985s-28.35-2.089-34.386-3.985c-1.033-.325-1.99-.805-2.864-1.394v11.677c0 4.478 2.363 8.611 6.21 10.904 5.437 3.241 15.251 6.798 31.04 6.798s25.603-3.557 31.04-6.798c3.847-2.293 6.21-6.426 6.21-10.904z" fill="#edf4fc"/></g><g><path d="m130.523 145.853c-1.388-1.401-3.658-1.401-5.045 0-5.858 5.915-14.248 16.014-9.725 20.537 2.762 2.762 7.518.765 10.379-.87 1.157-.661 2.581-.661 3.738 0 2.86 1.636 7.617 3.633 10.379.87 4.522-4.524-3.869-14.623-9.726-20.537z" fill="#5b5d60"/></g><g><path d="m76.48 111.013c1.979-4.701 5.743-8.465 10.444-10.444l-5.51-3.122c-5.217-2.955-11.011 2.839-8.056 8.055z" fill="#fca265"/></g><g><path d="m74.956 118.589c0-2.616.523-5.108 1.455-7.388l-6.114 1.692c-5.778 1.599-5.778 9.793 0 11.392l6.114 1.692c-.932-2.28-1.455-4.772-1.455-7.388z" fill="#f5c84c"/></g><g><path d="m94.5 99.045c2.616 0 5.108.523 7.388 1.456l-1.692-6.114c-1.599-5.778-9.793-5.778-11.392 0l-1.692 6.114c2.28-.933 4.772-1.456 7.388-1.456z" fill="#f5c84c"/></g><g><path d="m112.52 111.013 3.121-5.51c2.955-5.217-2.839-11.011-8.056-8.055l-5.51 3.122c4.702 1.978 8.466 5.742 10.445 10.443z" fill="#fca265"/></g><g><path d="m94.5 138.134c-2.616 0-5.107-.523-7.388-1.455l1.692 6.114c1.599 5.778 9.793 5.778 11.392 0l1.692-6.114c-2.281.932-4.772 1.455-7.388 1.455z" fill="#f5c84c"/></g><g><path d="m112.52 126.165c-1.979 4.701-5.743 8.465-10.444 10.444l5.51 3.121c5.217 2.955 11.011-2.839 8.056-8.055z" fill="#fca265"/></g><g><path d="m76.48 126.165-3.121 5.51c-2.955 5.217 2.839 11.011 8.056 8.055l5.51-3.121c-4.702-1.978-8.466-5.743-10.445-10.444z" fill="#fca265"/></g><g><path d="m118.703 112.893-6.114-1.692c.932 2.28 1.455 4.772 1.455 7.388s-.523 5.107-1.455 7.388l6.114-1.692c5.778-1.599 5.778-9.793 0-11.392z" fill="#f5c84c"/></g><g><circle cx="94.5" cy="118.589" fill="#5b5d60" r="19.544"/></g><g><path d="m143.48 111.013c1.979-4.701 5.743-8.465 10.444-10.444l-5.51-3.122c-5.217-2.955-11.011 2.839-8.056 8.055z" fill="#fca265"/></g><g><path d="m141.956 118.589c0-2.616.523-5.108 1.455-7.388l-6.114 1.692c-5.778 1.599-5.778 9.793 0 11.392l6.114 1.692c-.932-2.28-1.455-4.772-1.455-7.388z" fill="#f5c84c"/></g><g><path d="m161.5 99.045c2.616 0 5.108.523 7.388 1.456l-1.692-6.114c-1.599-5.778-9.793-5.778-11.392 0l-1.692 6.114c2.28-.933 4.772-1.456 7.388-1.456z" fill="#f5c84c"/></g><g><path d="m179.52 111.013 3.121-5.51c2.955-5.217-2.839-11.011-8.056-8.055l-5.51 3.122c4.702 1.978 8.466 5.742 10.445 10.443z" fill="#fca265"/></g><g><path d="m161.5 138.134c-2.616 0-5.107-.523-7.388-1.455l1.692 6.114c1.599 5.778 9.793 5.778 11.392 0l1.692-6.114c-2.281.932-4.772 1.455-7.388 1.455z" fill="#f5c84c"/></g><g><path d="m179.52 126.165c-1.979 4.701-5.743 8.465-10.444 10.444l5.51 3.121c5.217 2.955 11.011-2.839 8.055-8.055z" fill="#fca265"/></g><g><path d="m143.48 126.165-3.121 5.51c-2.955 5.217 2.839 11.011 8.055 8.055l5.51-3.121c-4.701-1.978-8.465-5.743-10.444-10.444z" fill="#fca265"/></g><g><path d="m185.703 112.893-6.114-1.692c.932 2.28 1.455 4.772 1.455 7.388s-.523 5.107-1.455 7.388l6.114-1.692c5.778-1.599 5.778-9.793 0-11.392z" fill="#f5c84c"/></g><g><circle cx="161.5" cy="118.589" fill="#5b5d60" r="19.544"/></g><g><path d="m124.033 51.086c1.184-.628 2.533-.987 3.967-.987s2.783.359 3.967.987l3.162-6.337c3.011-4.718-.378-10.901-5.975-10.901-2.154 0-.156 0-2.31 0-5.597 0-8.986 6.183-5.975 10.901z" fill="#f98fa6"/></g><g><path d="m112.456 57.84 7.077.43c.105-2.897 1.658-5.418 3.962-6.867l-3.91-5.912c-2.58-4.967-9.629-5.123-12.428-.276-1.077 1.865-.078.135-1.155 2-2.797 4.847.863 10.873 6.454 10.625z" fill="#f98fa6"/></g><g><path d="m136.467 58.27 7.077-.43c5.592.249 9.252-5.778 6.453-10.625-1.077-1.865-.078-.135-1.155-2-2.799-4.847-9.847-4.691-12.428.276l-3.91 5.912c2.304 1.449 3.857 3.97 3.963 6.867z" fill="#f98fa6"/></g><g><path d="m131.967 66.076c-1.184.628-2.533.987-3.967.987s-2.783-.359-3.967-.987l-3.162 6.337c-3.011 4.718.378 10.901 5.975 10.901h2.31c5.597 0 8.986-6.183 5.975-10.901z" fill="#f98fa6"/></g><g><path d="m143.543 59.323-7.077-.43c-.105 2.897-1.658 5.418-3.962 6.867l3.91 5.912c2.581 4.967 9.629 5.123 12.428.276 1.077-1.865.078-.135 1.155-2 2.798-4.848-.862-10.874-6.454-10.625z" fill="#f98fa6"/></g><g><path d="m119.533 58.893-7.077.43c-5.592-.249-9.252 5.777-6.453 10.625 1.077 1.865.078.135 1.155 2 2.799 4.847 9.847 4.691 12.428-.276l3.91-5.912c-2.304-1.449-3.857-3.971-3.963-6.867z" fill="#f98fa6"/></g><g><circle cx="128" cy="58.581" fill="#ef4460" r="8.482"/></g><g><path d="m172.247 23.513c-1.903.695-3.613 2.031-4.766 4.027-1.396 2.418-.101.175-1.497 2.593-3.628 6.284 1.117 14.096 8.366 13.774l9.175.558c.111-3.051 1.474-5.766 3.578-7.69-4.376-5.013-9.36-9.483-14.856-13.262z" fill="#f5c84c"/></g><g><path d="m204.573 71.038c-1.275-5.633-3.166-11.038-5.59-16.151-1.372.616-2.882.978-4.484.978-1.859 0-3.608-.465-5.143-1.28l-4.1 8.215c-3.904 6.117.49 14.132 7.746 14.132h2.994c4.103 0 7.287-2.562 8.577-5.894z" fill="#f5c84c"/></g><g><path d="m183.524 45.273-9.175.558c-7.249-.322-11.994 7.49-8.366 13.774 1.396 2.418.101.175 1.497 2.593 3.628 6.284 12.766 6.081 16.111-.358l5.068-7.664c-2.985-1.879-4.999-5.148-5.135-8.903z" fill="#f5c84c"/></g><g><path d="m187.09 36.761c-2.199 2.011-3.586 4.893-3.586 8.108 0 6.073 4.923 10.996 10.997 10.996 1.601 0 3.118-.35 4.49-.965-3.127-6.596-7.146-12.692-11.901-18.139z" fill="#fca265"/></g><g><path d="m68.821 36.705c2.148 1.927 3.543 4.673 3.655 7.761l9.175-.558c7.249.322 11.994-7.49 8.366-13.774-1.396-2.418-.101-.175-1.497-2.593-1.17-2.027-2.916-3.369-4.854-4.054-5.493 3.767-10.48 8.211-14.845 13.218z" fill="#f5c84c"/></g><g><path d="m70.743 62.8-4.1-8.215c-1.535.814-3.284 1.28-5.143 1.28-1.624 0-3.156-.372-4.543-1.005-2.405 5.109-4.274 10.517-5.538 16.156 1.285 3.342 4.473 5.916 8.583 5.916h2.994c7.257 0 11.65-8.015 7.747-14.132z" fill="#f5c84c"/></g><g><path d="m72.476 45.273 9.175.558c7.249-.322 11.994 7.49 8.366 13.774-1.396 2.418-.101.175-1.497 2.593-3.628 6.284-12.766 6.081-16.111-.358l-5.068-7.664c2.985-1.879 4.999-5.148 5.135-8.903z" fill="#f5c84c"/></g><g><path d="m72.497 44.869c0-3.252-1.42-6.165-3.664-8.178-4.754 5.451-8.766 11.561-11.881 18.181 1.388.632 2.924.993 4.548.993 6.073.001 10.997-4.923 10.997-10.996z" fill="#fca265"/></g><g><path d="m223.35 126.2c-3.1-.6-5.6-3-6.2-6.1 0-.1-.3-.1-.3 0-.6 3.1-3.1 5.5-6.2 6.1-.1 0-.1.2 0 .3 3.1.6 5.6 3 6.2 6.1 0 .1.3.1.3 0 .6-3.1 3.1-5.5 6.2-6.1.1-.1.1-.3 0-.3z" fill="#87d147"/></g><g><path d="m185.9 236.9h2.3v2.3c0 1.8 1.4 3.2 3.2 3.2 1.7 0 3.2-1.4 3.2-3.1v-.1-2.3h2.3c1.8 0 3.2-1.4 3.2-3.2 0-1.7-1.4-3.2-3.1-3.2h-.1-2.3v-2.3c0-1.8-1.4-3.2-3.2-3.2-1.7 0-3.2 1.4-3.2 3.1v.1 2.3h-2.3c-1.8 0-3.2 1.4-3.2 3.2-.1 1.7 1.3 3.2 3.2 3.2-.1 0-.1 0 0 0z" fill="#70d6f9"/></g><g><circle cx="166.3" cy="252.6" fill="#f5c84c" r="3.4"/></g><g><circle cx="78.3" cy="3.4" fill="#fc657e" r="3.4"/></g><g><path d="m40.7 22.2c4.5-.8 8-4.3 8.9-8.7 0-.2.4-.2.4 0 .9 4.4 4.4 7.9 8.9 8.7.2 0 .2.3 0 .4-4.5.8-8 4.3-8.9 8.7 0 .2-.4.2-.4 0-.9-4.4-4.4-7.9-8.9-8.7-.2-.1-.2-.4 0-.4z" fill="#f5c84c"/></g><g><path d="m128 194.25c-18.251 0-29.18-2.229-35.135-4.1-4.588-1.441-8.076-5.215-9.104-9.849-.72-3.184-3.479-5.441-6.729-5.571-.289-.012-.579-.028-.868-.051-11.434-.872-20.718-10.153-21.594-21.587-.238-3.113.123-6.174 1.075-9.098 2.35-7.23 1.878-15.07-1.33-22.074-4.854-10.599-7.315-21.927-7.315-33.67 0-21.995 8.666-42.574 24.402-57.946 15.732-15.368 36.548-23.537 58.539-23.032 20.888.489 40.578 9 55.443 23.963 14.863 14.962 23.246 34.708 23.604 55.6.207 12.147-2.212 23.868-7.191 34.838-3.172 6.985-3.634 15.071-1.301 22.768.845 2.79 1.159 5.7.934 8.65-.876 11.436-10.161 20.716-21.598 21.588-.291.022-.577.039-.863.05-3.25.13-6.01 2.387-6.711 5.487-1.047 4.717-4.535 8.491-9.123 9.933-5.956 1.872-16.886 4.101-35.135 4.101zm-.015-182c-19.979 0-38.767 7.64-53.089 21.631-14.764 14.423-22.896 33.732-22.896 54.369 0 11.019 2.309 21.647 6.862 31.589 3.73 8.147 4.276 17.275 1.538 25.702-.749 2.3-1.032 4.711-.844 7.169.688 8.996 7.992 16.297 16.99 16.984.23.018.458.031.685.04 5.506.221 10.188 4.078 11.388 9.381.001.006.023.104.024.11.641 2.886 2.833 5.248 5.72 6.154 5.621 1.766 16.02 3.87 33.637 3.87 17.615 0 28.015-2.104 33.637-3.87 2.887-.907 5.079-3.268 5.722-6.162.001-.003.021-.099.022-.103 1.198-5.303 5.882-9.161 11.389-9.381.228-.009.455-.022.684-.04 8.997-.686 16.302-7.987 16.99-16.983.179-2.331-.068-4.625-.732-6.819-2.685-8.859-2.141-18.194 1.533-26.285 4.67-10.289 6.939-21.286 6.744-32.686-.335-19.596-8.201-38.121-22.151-52.163s-32.422-22.029-52.013-22.487c-.614-.013-1.229-.02-1.84-.02z"/></g><g><path d="m127.929 206.134c-14.652 0-27.358-2.063-37.766-6.13-1.286-.503-1.921-1.953-1.418-3.239s1.954-1.92 3.238-1.418c9.824 3.84 21.918 5.787 35.945 5.787 14.094 0 26.233-1.965 36.083-5.84 1.282-.506 2.737.126 3.241 1.411.506 1.285-.126 2.736-1.411 3.242-10.434 4.105-23.19 6.187-37.912 6.187z"/></g><g><path d="m137.751 247.96h-20.549c-8.826 0-17.061-4.098-22.591-11.244-1.93-2.493-4.125-5.025-6.525-7.527-2.282-2.38-4.549-4.632-6.736-6.696-6.49-6.121-10.213-14.901-10.213-24.09v-8.006c0-5.997-1.096-12.098-3.257-18.133-.466-1.3.211-2.731 1.511-3.196s2.731.211 3.196 1.511c2.355 6.578 3.55 13.246 3.55 19.819v8.006c0 7.818 3.15 15.272 8.643 20.453 2.249 2.121 4.575 4.433 6.915 6.872 2.521 2.628 4.833 5.296 6.87 7.928 4.577 5.913 11.37 9.304 18.638 9.304h20.549c7.268 0 14.061-3.391 18.636-9.304 2.044-2.638 4.355-5.305 6.872-7.928 2.342-2.441 4.669-4.753 6.915-6.872 5.492-5.181 8.643-12.636 8.643-20.453v-8.006c0-6.491 1.165-13.075 3.464-19.571.46-1.301 1.884-1.984 3.19-1.523 1.302.46 1.983 1.889 1.522 3.191-2.107 5.959-3.177 11.982-3.177 17.903v8.006c0 9.188-3.723 17.969-10.212 24.09-2.187 2.061-4.453 4.314-6.738 6.696-2.395 2.496-4.59 5.029-6.525 7.527-5.53 7.145-13.765 11.243-22.591 11.243z"/></g><g><path d="m102.497 183c-1.2 0-2.259-.867-2.463-2.089-.761-4.562-3.567-6.128-3.687-6.193-1.2-.649-1.677-2.151-1.047-3.362.63-1.21 2.096-1.703 3.317-1.092.21.104 5.152 2.651 6.348 9.825.228 1.362-.693 2.65-2.055 2.877-.139.023-.276.034-.413.034z"/></g><g><path d="m115.814 184.604c-1.2 0-2.259-.867-2.463-2.089-.282-1.695-.923-3.106-1.902-4.194-.924-1.026-.841-2.607.186-3.531 1.025-.925 2.606-.841 3.531.185 1.604 1.782 2.682 4.105 3.117 6.718.228 1.362-.693 2.65-2.055 2.877-.139.022-.277.034-.414.034z"/></g><g><path d="m153.503 183c-.137 0-.274-.011-.414-.035-1.361-.227-2.282-1.515-2.055-2.877 1.195-7.173 6.138-9.72 6.348-9.825 1.235-.618 2.736-.117 3.354 1.118.612 1.225.125 2.713-1.089 3.339-.174.095-2.93 1.676-3.682 6.19-.203 1.224-1.262 2.09-2.462 2.09z"/></g><g><path d="m147.432 229.391c-.524 0-1.052-.164-1.503-.503-1.103-.831-1.322-2.399-.491-3.501 4.374-5.805 9.903-5.796 10.172-5.776 1.38.023 2.48 1.162 2.457 2.542-.023 1.37-1.162 2.427-2.51 2.458-.197.004-3.372.132-6.127 3.786-.492.65-1.241.994-1.998.994z"/></g><g><path d="m108.568 229.391c-.758 0-1.507-.343-1.998-.995-2.784-3.693-5.997-3.784-6.133-3.786-1.364-.021-2.481-1.133-2.482-2.498-.002-1.365 1.071-2.479 2.436-2.502.265-.019 5.796-.03 10.172 5.776.831 1.103.611 2.67-.491 3.501-.452.34-.98.504-1.504.504z"/></g><g><path d="m140.186 184.604c-.137 0-.274-.011-.414-.035-1.361-.227-2.282-1.515-2.055-2.877.436-2.613 1.514-4.936 3.117-6.718.924-1.026 2.503-1.109 3.531-.185 1.026.924 1.109 2.504.186 3.531-.979 1.088-1.62 2.499-1.902 4.194-.205 1.223-1.263 2.09-2.463 2.09z"/></g><g><path d="m128 185c-1.381 0-2.5-1.119-2.5-2.5v-4c0-1.381 1.119-2.5 2.5-2.5s2.5 1.119 2.5 2.5v4c0 1.381-1.119 2.5-2.5 2.5z"/></g><g><path d="m128 246.482c-1.381 0-2.5-1.119-2.5-2.5v-11.802c0-1.381 1.119-2.5 2.5-2.5s2.5 1.119 2.5 2.5v11.802c0 1.381-1.119 2.5-2.5 2.5z"/></g><g><path d="m128 101.202c-1.381 0-2.5-1.119-2.5-2.5v-4.373c0-1.381 1.119-2.5 2.5-2.5s2.5 1.119 2.5 2.5v4.373c0 1.381-1.119 2.5-2.5 2.5z"/></g><g><path d="m168.336 163.45c-4.382 0-8.156-.959-11.124-2.123-6.821-2.675-10.867-6.938-11.036-7.118-.944-1.007-.893-2.589.114-3.534 1.008-.944 2.587-.892 3.529.109.573.604 13.985 14.375 32.94 3.544 1.198-.685 2.725-.27 3.411.93.685 1.199.269 2.726-.931 3.411-6.213 3.553-11.946 4.781-16.903 4.781z"/></g><g><path d="m87.556 163.437c-5.016 0-10.683-1.273-16.796-4.767-1.199-.685-1.615-2.212-.931-3.411.686-1.2 2.212-1.615 3.411-.93 8.02 4.583 16.002 5.371 23.722 2.343 5.783-2.268 9.181-5.846 9.214-5.882.944-1.007 2.526-1.059 3.534-.114 1.007.944 1.059 2.526.114 3.534-.119.127-8.863 9.227-22.268 9.227z"/></g><g><path d="m136.697 247.96h-17.395c-.948 0-1.815-.537-2.238-1.386-1.691-3.396-2.549-7.053-2.549-10.869 0-7.527 3.4-14.525 9.33-19.2 2.445-1.929 5.863-1.929 8.309 0 5.93 4.674 9.33 11.672 9.33 19.2 0 3.816-.857 7.473-2.549 10.869-.422.85-1.289 1.386-2.238 1.386zm-15.781-5h14.168c.93-2.299 1.4-4.732 1.4-7.255 0-5.986-2.707-11.553-7.426-15.273-.613-.484-1.504-.484-2.117 0-4.719 3.721-7.426 9.288-7.426 15.274.001 2.522.471 4.956 1.401 7.254z"/></g><g><path d="m128 218.25c-16.799 0-26.848-3.889-32.32-7.15-4.583-2.732-7.43-7.733-7.43-13.052v-11.048c0-1.381 1.119-2.5 2.5-2.5s2.5 1.119 2.5 2.5v11.048c0 3.567 1.912 6.922 4.99 8.757 4.038 2.407 13.273 6.445 29.76 6.445s25.722-4.038 29.76-6.445c3.078-1.834 4.99-5.19 4.99-8.757v-11.215c0-1.381 1.119-2.5 2.5-2.5s2.5 1.119 2.5 2.5v11.215c0 5.319-2.847 10.32-7.43 13.052-5.472 3.261-15.521 7.15-32.32 7.15z"/></g><g><path d="m119.308 170.254c-2.119 0-3.924-.698-5.323-2.097-5.861-5.862 2.049-16.322 9.717-24.064 1.145-1.155 2.671-1.792 4.299-1.792s3.154.636 4.299 1.792c7.668 7.743 15.578 18.203 9.717 24.064-2.949 2.949-7.704 2.781-13.388-.468-.386-.221-.867-.222-1.257 0-2.987 1.708-5.719 2.564-8.064 2.565zm8.692-22.952c-.164 0-.479.041-.746.31-7.835 7.911-11.838 14.905-9.734 17.01 1.738 1.735 6.081-.536 7.37-1.273 1.92-1.096 4.302-1.096 6.22 0 1.291.739 5.636 3.01 7.371 1.273 2.104-2.104-1.899-9.098-9.734-17.009-.268-.271-.583-.311-.747-.311z"/></g><g><path d="m76.479 113.513c-.896 0-1.729-.481-2.174-1.268l-3.121-5.51c-1.887-3.33-1.336-7.386 1.37-10.092 2.707-2.706 6.763-3.256 10.093-1.37l5.51 3.122c.829.47 1.319 1.37 1.264 2.322-.056.951-.648 1.788-1.526 2.158-4.073 1.714-7.395 5.035-9.11 9.11-.369.878-1.206 1.47-2.158 1.525-.051.002-.1.003-.148.003zm2-14.364c-.974 0-1.817.458-2.389 1.029-.888.887-1.499 2.428-.557 4.092l.935 1.65c1.467-2.076 3.287-3.896 5.363-5.363l-1.649-.934c-.591-.335-1.167-.474-1.703-.474z"/></g><g><path d="m76.411 128.477c-.223 0-.446-.03-.667-.09l-6.114-1.692c-3.688-1.021-6.167-4.278-6.167-8.106 0-3.827 2.479-7.084 6.167-8.105l6.114-1.692c.92-.251 1.902.037 2.536.75.633.713.806 1.724.444 2.606-.842 2.061-1.27 4.228-1.27 6.442s.428 4.381 1.27 6.441c.361.882.188 1.894-.444 2.606-.481.542-1.165.84-1.869.84zm-3.628-13.678-1.819.504c-1.844.51-2.501 2.032-2.501 3.286s.657 2.777 2.501 3.287l1.819.504c-.219-1.247-.328-2.512-.328-3.79 0-1.279.109-2.545.328-3.791z"/></g><g><path d="m101.888 103c-.319 0-.641-.061-.946-.186-4.119-1.685-8.764-1.685-12.883 0-.881.36-1.894.189-2.606-.445-.713-.633-1.004-1.617-.749-2.536l1.691-6.114c1.021-3.689 4.278-6.167 8.105-6.167s7.085 2.479 8.105 6.167l1.691 6.114c.255.919-.036 1.902-.749 2.536-.465.414-1.059.631-1.659.631zm-7.388-10.447c-1.254 0-2.776.657-3.287 2.501l-.503 1.819c2.492-.437 5.088-.437 7.58 0l-.503-1.82c-.511-1.843-2.033-2.5-3.287-2.5z"/></g><g><path d="m112.521 113.513c-.049 0-.098-.001-.146-.004-.952-.056-1.789-.647-2.158-1.525-1.716-4.075-5.037-7.396-9.11-9.11-.878-.37-1.471-1.207-1.526-2.158-.056-.952.435-1.852 1.264-2.322l5.51-3.122c3.332-1.886 7.387-1.336 10.093 1.37 2.706 2.707 3.257 6.762 1.37 10.093l-3.121 5.51c-.447.787-1.28 1.268-2.176 1.268zm-5.352-12.956c2.076 1.467 3.896 3.287 5.363 5.363l.934-1.649c.943-1.665.332-3.206-.556-4.093-.886-.886-2.427-1.498-4.092-.555z"/></g><g><path d="m94.5 149.626c-3.827 0-7.085-2.479-8.105-6.167l-1.691-6.114c-.255-.919.036-1.902.749-2.536s1.726-.805 2.606-.445c4.119 1.685 8.764 1.685 12.883 0 .88-.36 1.894-.189 2.606.445.713.633 1.004 1.617.749 2.536l-1.691 6.114c-1.021 3.688-4.279 6.167-8.106 6.167zm-3.79-9.32.503 1.82c.511 1.843 2.033 2.5 3.287 2.5s2.776-.657 3.287-2.501l.503-1.819c-2.492.436-5.088.436-7.58 0z"/></g><g><path d="m110.523 143.018c-1.418 0-2.851-.365-4.17-1.112l-5.51-3.122c-.829-.47-1.319-1.37-1.264-2.321.056-.952.647-1.789 1.526-2.158 4.073-1.715 7.395-5.036 9.11-9.11.369-.878 1.206-1.47 2.158-1.525.939-.059 1.851.434 2.32 1.264l3.121 5.51c1.887 3.33 1.336 7.386-1.37 10.092-1.632 1.634-3.759 2.482-5.921 2.482zm-3.354-6.397 1.649.935c1.665.944 3.206.332 4.092-.556.888-.887 1.499-2.428.557-4.092l-.935-1.65c-1.467 2.076-3.287 3.897-5.363 5.363z"/></g><g><path d="m78.477 143.018c-2.161 0-4.288-.848-5.923-2.483-2.706-2.706-3.257-6.762-1.37-10.092l3.121-5.51c.47-.83 1.369-1.322 2.32-1.264.952.056 1.789.647 2.158 1.525 1.716 4.075 5.037 7.396 9.11 9.11.879.37 1.471 1.207 1.526 2.158.056.951-.435 1.852-1.264 2.321l-5.51 3.122c-1.318.748-2.75 1.113-4.168 1.113zm-2.009-11.76-.934 1.649c-.943 1.665-.332 3.206.556 4.093.887.887 2.429 1.5 4.092.556l1.649-.935c-2.076-1.466-3.896-3.287-5.363-5.363z"/></g><g><path d="m112.589 128.477c-.704 0-1.388-.298-1.869-.84-.633-.713-.806-1.724-.444-2.606.842-2.061 1.27-4.228 1.27-6.441s-.428-4.381-1.27-6.442c-.361-.882-.188-1.894.444-2.606.634-.713 1.618-1.001 2.536-.75l6.114 1.692c3.688 1.021 6.167 4.278 6.167 8.105 0 3.828-2.479 7.085-6.167 8.106l-6.114 1.692c-.221.06-.444.09-.667.09zm3.628-13.678c.219 1.247.328 2.512.328 3.791 0 1.278-.109 2.543-.328 3.79l1.819-.504c1.844-.51 2.501-2.032 2.501-3.287 0-1.254-.657-2.776-2.501-3.286z"/></g><g><path d="m94.5 140.634c-12.155 0-22.045-9.889-22.045-22.044s9.89-22.044 22.045-22.044 22.045 9.889 22.045 22.044-9.89 22.044-22.045 22.044zm0-39.089c-9.398 0-17.045 7.646-17.045 17.044s7.646 17.044 17.045 17.044 17.045-7.646 17.045-17.044-7.647-17.044-17.045-17.044z"/></g><g><path d="m143.479 113.513c-.896 0-1.729-.481-2.174-1.268l-3.121-5.51c-1.887-3.33-1.336-7.386 1.37-10.092 2.707-2.706 6.763-3.256 10.093-1.37l5.51 3.122c.829.47 1.319 1.37 1.264 2.322-.056.951-.648 1.788-1.526 2.158-4.073 1.714-7.395 5.035-9.11 9.11-.369.878-1.206 1.47-2.158 1.525-.051.002-.1.003-.148.003zm2-14.364c-.974 0-1.817.458-2.389 1.029-.888.887-1.499 2.428-.557 4.092l.935 1.65c1.467-2.076 3.287-3.896 5.363-5.363l-1.649-.934c-.591-.335-1.167-.474-1.703-.474z"/></g><g><path d="m143.411 128.477c-.223 0-.446-.03-.667-.09l-6.114-1.692c-3.688-1.021-6.167-4.278-6.167-8.106 0-3.827 2.479-7.084 6.167-8.105l6.114-1.692c.919-.251 1.902.037 2.536.75.633.713.806 1.724.444 2.606-.842 2.061-1.27 4.228-1.27 6.442s.428 4.381 1.27 6.441c.361.882.188 1.894-.444 2.606-.481.542-1.165.84-1.869.84zm-3.628-13.678-1.819.504c-1.844.51-2.501 2.032-2.501 3.286s.657 2.777 2.501 3.287l1.819.504c-.219-1.247-.328-2.512-.328-3.79 0-1.279.109-2.545.328-3.791z"/></g><g><path d="m168.888 103c-.319 0-.641-.061-.946-.186-4.119-1.685-8.764-1.685-12.883 0-.88.36-1.894.189-2.606-.445-.713-.633-1.004-1.617-.749-2.536l1.691-6.114c1.021-3.689 4.278-6.167 8.105-6.167s7.085 2.479 8.105 6.167l1.691 6.114c.255.919-.036 1.902-.749 2.536-.465.414-1.059.631-1.659.631zm-7.388-10.447c-1.254 0-2.776.657-3.287 2.501l-.503 1.819c2.492-.437 5.088-.437 7.58 0l-.503-1.82c-.511-1.843-2.033-2.5-3.287-2.5z"/></g><g><path d="m179.521 113.513c-.049 0-.098-.001-.146-.004-.952-.056-1.789-.647-2.158-1.525-1.716-4.075-5.037-7.396-9.11-9.11-.878-.37-1.471-1.207-1.526-2.158-.056-.952.435-1.852 1.264-2.322l5.51-3.122c3.332-1.886 7.387-1.336 10.093 1.37 2.706 2.707 3.257 6.762 1.37 10.093l-3.121 5.51c-.447.787-1.28 1.268-2.176 1.268zm-5.352-12.956c2.076 1.467 3.896 3.287 5.363 5.363l.934-1.649c.943-1.665.332-3.206-.556-4.093-.886-.886-2.427-1.498-4.092-.555z"/></g><g><path d="m161.5 149.626c-3.827 0-7.085-2.479-8.105-6.167l-1.691-6.114c-.255-.919.036-1.902.749-2.536s1.727-.805 2.606-.445c4.119 1.685 8.764 1.685 12.883 0 .881-.36 1.894-.189 2.606.445.713.633 1.004 1.617.749 2.536l-1.691 6.114c-1.021 3.688-4.279 6.167-8.106 6.167zm-3.79-9.32.503 1.82c.511 1.843 2.033 2.5 3.287 2.5s2.776-.657 3.287-2.501l.503-1.819c-2.492.436-5.088.436-7.58 0z"/></g><g><path d="m177.523 143.018c-1.418 0-2.851-.365-4.17-1.112l-5.51-3.122c-.829-.47-1.319-1.37-1.264-2.321.056-.952.647-1.789 1.526-2.158 4.073-1.715 7.395-5.036 9.11-9.11.369-.878 1.206-1.47 2.158-1.525.949-.059 1.851.434 2.32 1.264l3.121 5.51c1.887 3.33 1.336 7.386-1.37 10.092-1.632 1.634-3.759 2.482-5.921 2.482zm-3.354-6.397 1.649.935c1.665.944 3.206.332 4.092-.556.888-.887 1.499-2.428.557-4.092l-.935-1.65c-1.467 2.076-3.287 3.897-5.363 5.363z"/></g><g><path d="m145.477 143.018c-2.161 0-4.288-.848-5.923-2.483-2.706-2.706-3.257-6.762-1.37-10.092l3.121-5.51c.47-.83 1.38-1.322 2.32-1.264.952.056 1.789.647 2.158 1.525 1.716 4.075 5.037 7.396 9.11 9.11.879.37 1.471 1.207 1.526 2.158.056.951-.435 1.852-1.264 2.321l-5.51 3.122c-1.318.748-2.75 1.113-4.168 1.113zm-2.009-11.76-.934 1.649c-.943 1.665-.332 3.206.556 4.093.886.887 2.429 1.5 4.092.556l1.649-.935c-2.076-1.466-3.896-3.287-5.363-5.363z"/></g><g><path d="m179.589 128.477c-.704 0-1.388-.298-1.869-.84-.633-.713-.806-1.724-.444-2.606.842-2.061 1.27-4.228 1.27-6.441s-.428-4.381-1.27-6.442c-.361-.882-.188-1.894.444-2.606.634-.713 1.617-1.001 2.536-.75l6.114 1.692c3.688 1.021 6.167 4.278 6.167 8.105 0 3.828-2.479 7.085-6.167 8.106l-6.114 1.692c-.221.06-.444.09-.667.09zm3.628-13.678c.219 1.247.328 2.512.328 3.791 0 1.278-.109 2.543-.328 3.79l1.819-.504c1.844-.51 2.501-2.032 2.501-3.287 0-1.254-.657-2.776-2.501-3.286z"/></g><g><path d="m161.5 140.634c-12.155 0-22.045-9.889-22.045-22.044s9.89-22.044 22.045-22.044 22.045 9.889 22.045 22.044-9.89 22.044-22.045 22.044zm0-39.089c-9.398 0-17.045 7.646-17.045 17.044s7.646 17.044 17.045 17.044 17.045-7.646 17.045-17.044-7.647-17.044-17.045-17.044z"/></g><g><path d="m124.032 53.586c-.257 0-.514-.04-.764-.119-.641-.206-1.173-.662-1.474-1.265l-3.107-6.227c-1.841-2.975-1.937-6.57-.25-9.647 1.709-3.118 4.852-4.979 8.407-4.979h2.311c3.556 0 6.698 1.861 8.407 4.979 1.687 3.077 1.591 6.673-.25 9.648l-3.109 6.227c-.301.603-.832 1.059-1.474 1.264s-1.339.144-1.935-.172c-1.738-.923-3.85-.923-5.592 0-.363.193-.765.291-1.17.291zm2.813-17.237c-1.701 0-3.205.891-4.022 2.382-.818 1.492-.76 3.239.155 4.674.047.074.091.15.13.229l2.153 4.315c1.785-.461 3.691-.46 5.479 0l2.154-4.315c.039-.078.082-.154.129-.228.915-1.435.974-3.182.155-4.674-.817-1.492-2.321-2.382-4.022-2.382h-2.311z"/></g><g><path d="m119.533 60.77c-.051 0-.101-.001-.151-.004l-6.955-.423c-3.517.096-6.658-1.608-8.479-4.606-1.846-3.039-1.887-6.692-.108-9.771l1.154-2c1.778-3.08 4.942-4.878 8.518-4.792 3.507.078 6.572 1.959 8.228 5.041l3.843 5.81c.371.561.501 1.249.358 1.907-.142.658-.543 1.23-1.113 1.589-1.678 1.055-2.723 2.865-2.795 4.841-.024.673-.319 1.308-.818 1.761-.463.417-1.063.647-1.682.647zm-7.077-5.43c.051 0 .102.001.151.004l4.821.293c.496-1.785 1.438-3.417 2.736-4.74l-2.664-4.028c-.049-.073-.093-.148-.134-.227-.784-1.509-2.268-2.433-3.968-2.471-1.695-.047-3.226.819-4.076 2.293l-1.154 2c-.851 1.474-.831 3.222.052 4.676s2.455 2.285 4.124 2.202c.038-.001.075-.002.112-.002z"/></g><g><path d="m136.467 60.77c-.619 0-1.219-.23-1.68-.648-.499-.453-.794-1.087-.818-1.761-.072-1.976-1.117-3.786-2.796-4.842-.569-.358-.971-.931-1.112-1.589-.143-.658-.013-1.345.358-1.906l3.843-5.81c1.655-3.082 4.721-4.962 8.228-5.041 3.582-.083 6.74 1.712 8.518 4.792l1.155 2c1.777 3.08 1.736 6.732-.109 9.771-1.82 2.999-4.975 4.705-8.48 4.606l-6.954.423c-.053.004-.102.005-.153.005zm-.632-9.872c1.299 1.324 2.24 2.955 2.736 4.74l4.82-.293c.086-.005.175-.006.263-.002 1.684.086 3.241-.748 4.125-2.202s.903-3.202.053-4.675l-1.155-2c-.852-1.474-2.389-2.341-4.076-2.293-1.7.038-3.184.962-3.968 2.471-.041.078-.085.154-.134.227z"/></g><g><path d="m129.155 85.814h-2.311c-3.556 0-6.698-1.861-8.407-4.979-1.687-3.077-1.59-6.673.25-9.647l3.107-6.228c.301-.603.833-1.059 1.475-1.265.642-.205 1.339-.144 1.935.172 1.74.924 3.853.923 5.591 0 .595-.316 1.292-.379 1.935-.173.642.206 1.173.661 1.475 1.264l3.108 6.228c1.841 2.975 1.937 6.57.25 9.647-1.709 3.12-4.852 4.981-8.408 4.981zm-3.895-16.6-2.152 4.315c-.039.079-.083.155-.13.229-.915 1.435-.974 3.182-.155 4.674.817 1.492 2.321 2.382 4.022 2.382h2.311c1.701 0 3.205-.891 4.022-2.382.818-1.492.76-3.239-.155-4.674-.047-.074-.09-.15-.13-.228l-2.153-4.315c-1.786.46-3.693.46-5.48-.001z"/></g><g><path d="m142.716 77.992c-.075 0-.15-.001-.226-.002-3.508-.078-6.573-1.959-8.229-5.041l-3.843-5.81c-.371-.562-.501-1.249-.358-1.907.142-.658.543-1.23 1.112-1.589 1.679-1.056 2.724-2.866 2.796-4.842.024-.673.319-1.308.818-1.761.498-.453 1.165-.685 1.831-.644l6.954.423c3.515-.087 6.659 1.608 8.48 4.606 1.846 3.039 1.887 6.691.109 9.771l-1.155 2c-1.738 3.015-4.825 4.796-8.289 4.796zm-6.881-11.727 2.664 4.027c.049.073.093.149.134.227.784 1.51 2.268 2.434 3.969 2.471.036.001.072.001.107.001 1.658 0 3.135-.852 3.968-2.294l1.155-2c.851-1.473.831-3.221-.053-4.675s-2.442-2.28-4.125-2.202c-.088.003-.177.002-.263-.002l-4.82-.293c-.496 1.785-1.437 3.416-2.736 4.74z"/></g><g><path d="m113.284 77.992c-3.464 0-6.551-1.78-8.291-4.794l-1.154-2.001c-1.778-3.079-1.737-6.731.108-9.771 1.821-2.999 4.965-4.693 8.479-4.606l6.955-.423c.665-.042 1.332.191 1.831.644s.794 1.087.818 1.761c.072 1.977 1.117 3.787 2.795 4.841.57.358.972.931 1.113 1.589.143.658.013 1.346-.358 1.907l-3.843 5.811c-1.655 3.081-4.721 4.962-8.229 5.04-.073.001-.149.002-.224.002zm-1.154-16.177c-1.613 0-3.063.814-3.909 2.207-.883 1.454-.902 3.202-.052 4.675l1.154 2c.851 1.474 2.38 2.305 4.075 2.293 1.701-.038 3.185-.962 3.969-2.471.041-.078.085-.154.134-.227l2.664-4.028c-1.299-1.324-2.24-2.955-2.736-4.74l-4.821.293c-.086.004-.175.005-.263.002-.072-.002-.144-.004-.215-.004z"/></g><g><path d="m183.523 46.965c-.051 0-.101-.001-.151-.004l-9.05-.55c-4.285.148-8.145-1.949-10.371-5.614-2.251-3.705-2.3-8.158-.133-11.913l1.497-2.592c1.297-2.247 3.229-3.953 5.588-4.937 1.275-.53 2.738.072 3.27 1.346.531 1.274-.071 2.738-1.346 3.27-1.338.558-2.438 1.533-3.182 2.821l-1.497 2.593c-1.24 2.148-1.212 4.696.076 6.816s3.536 3.322 6.014 3.209c.088-.004.177-.003.263.002l6.863.417c.549-2.357 1.731-4.539 3.447-6.313.96-.992 2.544-1.018 3.535-.059.992.96 1.019 2.543.059 3.535-1.461 1.51-2.308 3.486-2.384 5.563-.024.673-.319 1.308-.818 1.76-.461.42-1.06.65-1.68.65z"/></g><g><path d="m195.997 79.433h-2.994c-4.335 0-8.166-2.27-10.25-6.071-2.062-3.761-1.938-8.157.322-11.789l4.044-8.103c.301-.603.832-1.059 1.474-1.264.641-.207 1.339-.144 1.935.171 2.081 1.103 4.528 1.308 6.801.485 1.301-.473 2.732.201 3.202 1.5s-.201 2.732-1.499 3.202c-2.748.995-5.73 1.05-8.472.211l-3.065 6.142c-.039.079-.083.155-.13.229-1.334 2.091-1.419 4.638-.227 6.813s3.385 3.474 5.865 3.474h2.994c3.274 0 5.336-2.126 6.172-4.116.535-1.274 2.002-1.869 3.273-1.336 1.272.535 1.871 2 1.336 3.273-1.833 4.361-6.065 7.179-10.781 7.179z"/></g><g><path d="m175.424 69.292c-4.223 0-7.986-2.17-10.108-5.845l-1.497-2.593c-2.167-3.754-2.118-8.208.133-11.912 2.226-3.666 6.052-5.748 10.371-5.615l9.05-.55c.672-.039 1.332.191 1.831.644s.794 1.087.818 1.761c.103 2.807 1.587 5.378 3.971 6.877.569.358.971.931 1.112 1.589.143.658.013 1.345-.358 1.907l-5.001 7.56c-2.014 3.774-5.759 6.079-10.046 6.174-.093.002-.185.003-.276.003zm-1.498-20.971c-2.354 0-4.468 1.187-5.701 3.217-1.288 2.12-1.316 4.668-.076 6.816l1.497 2.594c1.24 2.148 3.474 3.407 5.942 3.342 2.479-.055 4.643-1.402 5.785-3.603.041-.078.085-.154.134-.227l3.792-5.732c-1.963-1.832-3.334-4.206-3.937-6.819l-6.861.417c-.086.005-.175.005-.263.002-.104-.005-.209-.007-.312-.007z"/></g><g><path d="m72.477 46.965c-.619 0-1.219-.23-1.68-.648-.499-.453-.794-1.087-.818-1.76-.078-2.118-.951-4.122-2.46-5.643-.973-.98-.967-2.563.014-3.536.98-.972 2.564-.965 3.535.014 1.783 1.797 3.008 4.024 3.569 6.438l6.862-.417c.086-.005.174-.006.263-.002 2.474.109 4.726-1.09 6.014-3.209 1.288-2.12 1.316-4.668.076-6.817l-1.497-2.593c-.74-1.282-1.838-2.254-3.175-2.813-1.273-.532-1.875-1.996-1.343-3.271s1.994-1.877 3.271-1.343c2.355.984 4.284 2.688 5.577 4.927l1.497 2.592c2.167 3.755 2.118 8.208-.133 11.913-2.228 3.666-6.102 5.753-10.371 5.614l-9.05.55c-.051.003-.101.004-.151.004z"/></g><g><path d="m62.997 79.433h-2.994c-4.746 0-8.863-2.717-10.743-7.091-.545-1.269.041-2.739 1.31-3.284 1.271-.543 2.738.042 3.284 1.31.845 1.966 2.904 4.066 6.149 4.066h2.994c2.48 0 4.673-1.299 5.865-3.474s1.107-4.722-.227-6.813c-.047-.074-.091-.15-.13-.229l-3.065-6.142c-2.873.878-6.002.773-8.86-.358-1.283-.508-1.912-1.961-1.403-3.245.508-1.283 1.958-1.913 3.245-1.404 2.347.93 4.893.753 7.051-.391.596-.315 1.294-.378 1.935-.171.642.206 1.173.661 1.474 1.264l4.044 8.103c2.261 3.632 2.384 8.028.322 11.789-2.085 3.8-5.916 6.07-10.251 6.07z"/></g><g><path d="m80.576 69.292c-.092 0-.183-.001-.275-.003-4.287-.096-8.032-2.4-10.046-6.174l-5.001-7.56c-.371-.562-.501-1.249-.358-1.907.142-.658.543-1.231 1.112-1.589 2.384-1.499 3.868-4.07 3.971-6.877.024-.673.319-1.308.818-1.761s1.158-.683 1.831-.644l9.05.55c4.284-.13 8.146 1.95 10.371 5.615 2.251 3.705 2.3 8.158.133 11.912l-1.497 2.593c-2.122 3.675-5.886 5.845-10.109 5.845zm-9.875-14.564 3.792 5.732c.049.073.093.149.134.227 1.143 2.201 3.306 3.548 5.785 3.603 2.46.064 4.702-1.194 5.942-3.343l1.497-2.594c1.24-2.147 1.212-4.696-.076-6.816-1.287-2.12-3.537-3.329-6.014-3.21-.089.003-.177.003-.263-.002l-6.861-.417c-.602 2.613-1.973 4.988-3.936 6.82z"/></g><g><path d="m61.5 58.366c-1.932 0-3.811-.41-5.585-1.219-.608-.277-1.081-.786-1.311-1.414s-.2-1.321.085-1.926c3.192-6.781 7.316-13.093 12.26-18.76.439-.504 1.063-.811 1.731-.852.669-.044 1.324.188 1.822.635 2.855 2.563 4.493 6.222 4.493 10.039.001 7.442-6.054 13.497-13.495 13.497zm-.986-5.058c.326.039.655.058.986.058 4.685 0 8.496-3.812 8.496-8.497 0-1.516-.412-2.992-1.169-4.282-3.193 3.958-5.977 8.219-8.313 12.721z"/></g></g></g></svg>