<svg enable-background="new 0 0 256 256" height="512" viewBox="0 0 256 256" width="512" xmlns="http://www.w3.org/2000/svg"><g id="Layer_21"><g><g><path d="m158.396 57.255c-11.233-12.353-21.03-25.83-27.426-39.943-1.165-2.571-4.774-2.571-5.94 0-6.397 14.113-16.193 27.59-27.426 39.943-22.229 24.446-7.21 62.734 23.721 67.61 1.141-1.913 2.212-3.875 3.186-5.898 1.408-2.926 5.57-2.927 6.979 0 .974 2.023 2.044 3.986 3.185 5.899 30.932-4.876 45.951-43.165 23.721-67.611z" fill="#f5c84c"/></g><g><path d="m221.698 73.097c-7.857-8.64-14.709-18.067-19.183-27.938-.815-1.799-3.339-1.799-4.154 0-4.474 9.871-11.326 19.298-19.183 27.938-15.548 17.099-5.043 43.879 16.592 47.289.798-1.338 1.547-2.71 2.228-4.125.985-2.047 3.896-2.047 4.881 0 .681 1.415 1.43 2.788 2.228 4.126 21.635-3.41 32.14-30.191 16.591-47.29z" fill="#f5c84c"/></g><g><path d="m76.823 73.097c-7.857-8.64-14.709-18.067-19.183-27.938-.815-1.799-3.339-1.799-4.154 0-4.474 9.871-11.326 19.298-19.183 27.938-15.548 17.099-5.043 43.879 16.592 47.289.798-1.338 1.547-2.71 2.228-4.125.985-2.047 3.896-2.047 4.881 0 .681 1.415 1.43 2.788 2.228 4.126 21.634-3.41 32.139-30.191 16.591-47.29z" fill="#f5c84c"/></g><g><path d="m149.309 77.623c-7.875-8.66-14.743-18.108-19.227-28.002-.817-1.803-3.347-1.803-4.164 0-4.484 9.894-11.352 19.342-19.227 28.002-15.127 16.635-5.649 42.413 14.752 47.037 1.095-1.849 2.128-3.742 3.068-5.693 1.408-2.926 5.57-2.927 6.979 0 .939 1.952 1.972 3.845 3.067 5.694 20.401-4.624 29.879-30.402 14.752-47.038z" fill="#fca265"/></g><g><path d="m215.342 87.344c-5.508-6.057-10.312-12.665-13.448-19.586-.571-1.261-2.341-1.261-2.912 0-3.137 6.92-7.94 13.528-13.448 19.586-10.58 11.635-3.951 29.666 10.318 32.9.766-1.293 1.489-2.617 2.146-3.982.985-2.047 3.896-2.047 4.881 0 .657 1.365 1.379 2.689 2.145 3.982 14.27-3.234 20.899-21.265 10.318-32.9z" fill="#fca265"/></g><g><path d="m70.467 87.344c-5.508-6.057-10.312-12.665-13.448-19.586-.571-1.261-2.341-1.261-2.912 0-3.137 6.92-7.94 13.528-13.448 19.586-10.58 11.635-3.951 29.666 10.318 32.9.766-1.293 1.489-2.617 2.146-3.982.985-2.047 3.896-2.047 4.881 0 .657 1.365 1.379 2.689 2.145 3.982 14.269-3.234 20.898-21.265 10.318-32.9z" fill="#fca265"/></g><g><path d="m197.456 162.056c-28.724-.988-53.894-17.998-65.967-43.09-1.416-2.942-5.562-2.942-6.978 0-12.057 25.052-37.199 42.102-65.967 43.09-3.768.129-6.723 3.357-6.38 7.112 2.114 23.12 14.603 43.259 32.774 55.736 5.979 4.106 12.869 6.685 20.056 7.657 7.524 1.018 15.203 1.543 23.005 1.543s15.482-.526 23.006-1.544c7.187-.972 14.075-3.551 20.054-7.656 18.17-12.475 30.663-32.611 32.777-55.736.343-3.755-2.612-6.983-6.38-7.112z" fill="#fc657e"/></g><g><path d="m141.504 95.118c-4.99-5.488-9.343-11.475-12.184-17.745-.518-1.142-2.121-1.142-2.639 0-2.842 6.27-7.194 12.257-12.184 17.745-9.028 9.929-4.221 24.988 7.168 29.156 1.01-1.728 1.971-3.49 2.846-5.307 1.408-2.926 5.57-2.927 6.979 0 .874 1.817 1.836 3.579 2.845 5.307 11.389-4.167 16.197-19.227 7.169-29.156z" fill="#fc8c48"/></g><g><path d="m249.018 146.4c-20.091-.691-37.695-12.589-46.14-30.139-.99-2.058-3.89-2.058-4.881 0-8.176 16.988-24.955 28.715-44.308 30.044 12.276 9.45 27.445 15.19 43.766 15.751 3.768.13 6.724 3.357 6.38 7.112-.899 9.839-3.684 19.134-7.979 27.532 1.52.058 3.046.094 4.581.094 5.457 0 10.829-.368 16.091-1.08 5.027-.68 9.845-2.484 14.027-5.355 12.709-8.725 21.447-22.81 22.925-38.984.241-2.627-1.826-4.885-4.462-4.975z" fill="#f5c84c"/></g><g><path d="m209.883 99.58c-3.49-3.839-6.535-8.026-8.522-12.412-.362-.799-1.483-.799-1.846 0-1.988 4.385-5.032 8.573-8.522 12.412-6.315 6.944-2.952 17.477 5.014 20.393.706-1.209 1.379-2.441 1.99-3.712.985-2.047 3.896-2.047 4.881 0 .612 1.271 1.284 2.504 1.99 3.712 7.967-2.914 11.33-13.448 5.015-20.393z" fill="#fc8c48"/></g><g><path d="m52.164 169.168c-.343-3.754 2.612-6.982 6.38-7.112 16.337-.561 31.501-6.307 43.767-15.752-19.325-1.328-36.121-13.029-44.308-30.044-.99-2.058-3.89-2.058-4.881 0-8.433 17.522-26.019 29.448-46.14 30.139-2.635.091-4.702 2.348-4.462 4.974 1.478 16.171 10.214 30.257 22.924 38.984 4.182 2.872 9.001 4.676 14.028 5.356 5.262.712 10.634 1.08 16.091 1.08 1.534 0 3.06-.036 4.581-.094-4.297-8.398-7.081-17.693-7.98-27.531z" fill="#f5c84c"/></g><g><path d="m65.007 99.58c-3.49-3.839-6.535-8.026-8.522-12.412-.362-.799-1.483-.799-1.846 0-1.988 4.385-5.032 8.573-8.522 12.412-6.315 6.944-2.952 17.477 5.014 20.393.706-1.209 1.379-2.441 1.99-3.712.985-2.047 3.896-2.047 4.881 0 .612 1.271 1.284 2.504 1.99 3.712 7.967-2.914 11.33-13.448 5.015-20.393z" fill="#fc8c48"/></g><g><path d="m197.456 162.056c-28.724-.988-53.894-17.998-65.967-43.09-1.416-2.942-5.562-2.942-6.978 0-12.057 25.052-37.199 42.102-65.967 43.09-3.768.129-6.723 3.357-6.38 7.112 1.078 11.786 4.856 22.794 10.705 32.411 27.84-5.075 50.859-16.279 65.132-31.543 14.273 15.263 37.291 26.468 65.13 31.543 5.848-9.616 9.628-20.624 10.705-32.411.343-3.755-2.612-6.983-6.38-7.112z" fill="#edb311"/></g><g><path d="m58.06 192.283c31.104-5.074 56.599-18.527 68.399-36.329.737-1.112 2.347-1.112 3.084 0 11.816 17.828 37.33 31.26 68.397 36.329 3.083-7.127 5.11-14.814 5.873-22.87.362-3.825-2.519-7.225-6.358-7.357-28.723-.988-53.893-17.998-65.966-43.089-1.408-2.926-5.57-2.926-6.979 0-12.09 25.119-37.336 42.194-66.201 43.097-3.712.116-6.483 3.417-6.144 7.116.745 8.139 2.782 15.907 5.895 23.103z" fill="#754e34"/></g><g><path d="m249.018 146.4c-20.09-.691-37.695-12.589-46.14-30.138-.985-2.047-3.896-2.046-4.881 0-8.176 16.988-24.956 28.714-44.309 30.042 7.425 5.716 15.908 10.071 25.066 12.746 9.024-4.487 16.194-10.262 20.606-16.918.516-.778 1.642-.778 2.157 0 8.265 12.47 26.11 21.865 47.84 25.41 2.156-4.985 3.574-10.362 4.108-15.996.253-2.675-1.762-5.054-4.447-5.146z" fill="#754e34"/></g><g><path d="m56.642 142.132c4.416 6.663 11.587 12.435 20.606 16.92 9.161-2.676 17.642-7.033 25.063-12.747-19.324-1.328-36.121-13.029-44.308-30.043-.985-2.047-3.896-2.046-4.881 0-8.456 17.569-26.114 29.512-46.304 30.144-2.597.081-4.534 2.39-4.298 4.977.521 5.693 1.946 11.126 4.123 16.159 21.755-3.549 39.588-12.959 47.842-25.41.515-.778 1.641-.778 2.157 0z" fill="#754e34"/></g><g><path d="m107.984 141.48c4.56 6.083 11.828 10.02 20.016 10.02 8.187 0 15.455-3.936 20.015-10.019-6.776-6.358-12.413-13.966-16.526-22.515-1.408-2.926-5.57-2.926-6.979 0-4.111 8.543-9.747 16.152-16.526 22.514z" fill="#a57453"/></g><g><path d="m186.438 132.008c3.19 4.255 8.273 7.008 14 7.008s10.81-2.753 13.999-7.007c-4.74-4.447-8.682-9.769-11.559-15.748-.985-2.047-3.896-2.046-4.881 0-2.876 5.975-6.818 11.297-11.559 15.747z" fill="#a57453"/></g><g><path d="m41.562 132.008c3.19 4.255 8.273 7.008 14 7.008s10.81-2.753 13.999-7.007c-4.74-4.447-8.682-9.769-11.559-15.748-.985-2.047-3.896-2.046-4.881 0-2.875 5.975-6.817 11.297-11.559 15.747z" fill="#a57453"/></g><g><path d="m128 135.5c4.217 0 8.067-1.544 11.038-4.086-2.885-3.872-5.424-8.031-7.549-12.448-1.408-2.926-5.57-2.926-6.979 0-2.125 4.414-4.664 8.573-7.55 12.446 2.972 2.544 6.823 4.088 11.04 4.088z" fill="#c18e6b"/></g><g><path d="m200.438 127.825c2.949 0 5.642-1.08 7.72-2.858-2.018-2.708-3.794-5.617-5.28-8.706-.985-2.047-3.896-2.046-4.881 0-1.486 3.088-3.262 5.997-5.281 8.705 2.079 1.779 4.772 2.859 7.722 2.859z" fill="#c18e6b"/></g><g><path d="m55.562 127.825c2.949 0 5.642-1.08 7.72-2.858-2.018-2.708-3.794-5.617-5.28-8.706-.985-2.047-3.896-2.046-4.881 0-1.486 3.088-3.262 5.997-5.281 8.705 2.079 1.779 4.772 2.859 7.722 2.859z" fill="#c18e6b"/></g><g><path d="m135.233 127.273c-1.195 0-2.252-.86-2.461-2.077-.234-1.361.68-2.653 2.041-2.887 13.633-2.342 24.962-12.108 29.566-25.489 4.575-13.296 1.646-27.458-7.833-37.882-12.51-13.758-21.881-27.415-27.854-40.593-.173-.381-.472-.461-.693-.461s-.52.08-.693.46c-5.973 13.18-15.345 26.837-27.854 40.593-9.447 10.389-12.389 24.509-7.87 37.771 4.55 13.353 15.807 23.147 29.379 25.561 1.359.242 2.265 1.54 2.023 2.899s-1.537 2.266-2.899 2.023c-15.363-2.732-28.099-13.795-33.236-28.871-5.115-15.011-1.787-30.992 8.904-42.749 12.158-13.369 21.242-26.589 27-39.293.949-2.095 2.96-3.396 5.247-3.396s4.297 1.301 5.247 3.397c5.757 12.702 14.841 25.922 26.999 39.293 10.727 11.796 14.039 27.823 8.861 42.873-5.198 15.107-18.014 26.139-33.447 28.79-.144.026-.286.038-.427.038z"/></g><g><path d="m205.932 122.745c-1.179 0-2.229-.838-2.454-2.04-.255-1.357.639-2.664 1.996-2.918 9.155-1.718 16.729-8.407 19.765-17.456 3.012-8.976.997-18.528-5.39-25.552-8.664-9.528-15.192-18.996-19.411-28.151-4.218 9.155-10.747 18.623-19.411 28.151-6.387 7.023-8.401 16.575-5.39 25.551 3.036 9.05 10.61 15.739 19.766 17.457 1.357.254 2.251 1.561 1.996 2.918-.254 1.357-1.561 2.253-2.918 1.996-10.935-2.051-19.972-10.014-23.584-20.78-3.596-10.718-1.192-22.123 6.431-30.506 8.451-9.293 14.762-18.475 18.756-27.288.787-1.737 2.455-2.816 4.354-2.816 1.898 0 3.567 1.079 4.354 2.816 3.995 8.814 10.305 17.996 18.756 27.288 7.623 8.384 10.027 19.788 6.431 30.506-3.612 10.766-12.648 18.729-23.583 20.78-.156.029-.312.044-.464.044z"/></g><g><path d="m61.056 122.745c-1.179 0-2.229-.838-2.454-2.04-.255-1.357.639-2.664 1.996-2.918 9.155-1.718 16.729-8.407 19.765-17.457 3.011-8.976.996-18.528-5.39-25.551-8.665-9.528-15.193-18.997-19.411-28.151-4.218 9.155-10.747 18.623-19.411 28.151-6.386 7.023-8.401 16.575-5.39 25.551 3.036 9.049 10.609 15.738 19.764 17.457 1.357.254 2.251 1.561 1.996 2.918s-1.564 2.251-2.918 1.996c-10.935-2.052-19.971-10.015-23.583-20.78-3.596-10.718-1.191-22.122 6.432-30.505 8.451-9.292 14.761-18.474 18.756-27.288.788-1.737 2.456-2.816 4.354-2.816 1.898 0 3.566 1.08 4.354 2.817 3.995 8.813 10.305 17.994 18.756 27.288 7.623 8.383 10.027 19.787 6.431 30.505-3.612 10.766-12.648 18.729-23.583 20.781-.156.027-.311.042-.464.042z"/></g><g><path d="m178.35 38.2c-3.1-.6-5.6-3-6.2-6.1 0-.1-.3-.1-.3 0-.6 3.1-3.1 5.5-6.2 6.1-.1 0-.1.2 0 .3 3.1.6 5.6 3 6.2 6.1 0 .1.3.1.3 0 .6-3.1 3.1-5.5 6.2-6.1.1-.1.1-.3 0-.3z" fill="#87d147"/></g><g><path d="m73.9 24.9h2.3v2.3c0 1.8 1.4 3.2 3.2 3.2 1.7 0 3.2-1.4 3.2-3.1v-.1-2.3h2.3c1.8 0 3.2-1.4 3.2-3.2 0-1.7-1.4-3.2-3.1-3.2h-.1-2.3v-2.3c0-1.8-1.4-3.2-3.2-3.2-1.7 0-3.2 1.4-3.2 3.1v.1 2.3h-2.3c-1.8 0-3.2 1.4-3.2 3.2-.1 1.7 1.3 3.2 3.2 3.2-.1 0-.1 0 0 0z" fill="#70d6f9"/></g><g><circle cx="109.3" cy="3.4" fill="#f5c84c" r="3.4"/></g><g><circle cx="157.3" cy="252.6" fill="#fc657e" r="3.4"/></g><g><path d="m182.7 237.2c4.5-.8 8-4.3 8.9-8.7 0-.2.4-.2.4 0 .9 4.4 4.4 7.9 8.9 8.7.2 0 .2.3 0 .4-4.5.8-8 4.3-8.9 8.7 0 .2-.4.2-.4 0-.9-4.4-4.4-7.9-8.9-8.7-.2-.1-.2-.4 0-.4z" fill="#f5c84c"/></g><g><path d="m135.501 126.929c-1.108 0-2.121-.742-2.417-1.865-.351-1.335.447-2.702 1.782-3.054 8.665-2.279 15.672-9.181 18.287-18.011 2.616-8.837.541-17.838-5.694-24.694-8.687-9.554-15.231-19.047-19.459-28.225-4.228 9.179-10.772 18.671-19.459 28.225-6.221 6.841-8.301 15.823-5.708 24.644 2.591 8.817 9.567 15.728 18.204 18.036 1.334.356 2.126 1.727 1.77 3.061-.355 1.334-1.723 2.129-3.061 1.77-10.311-2.755-18.63-10.977-21.71-21.456-3.096-10.534-.615-21.256 6.807-29.418 8.47-9.314 14.795-18.517 18.8-27.352.789-1.739 2.459-2.82 4.359-2.82s3.57 1.081 4.359 2.82c4.004 8.835 10.33 18.038 18.8 27.352 7.329 8.061 9.867 19.08 6.789 29.478-3.107 10.497-11.464 18.707-21.81 21.428-.215.054-.429.081-.639.081z"/></g><g><path d="m205.807 122.549c-1.102 0-2.111-.734-2.412-1.849-.36-1.333.429-2.705 1.762-3.065 5.777-1.56 10.441-6.201 12.17-12.112 1.728-5.905.33-11.918-3.834-16.498-5.68-6.247-10.064-12.463-13.055-18.505-2.991 6.043-7.375 12.259-13.055 18.505-4.13 4.542-5.541 10.51-3.87 16.375 1.7 5.967 6.175 10.516 11.97 12.169 1.328.379 2.097 1.762 1.719 3.09-.379 1.328-1.762 2.098-3.09 1.719-7.471-2.131-13.231-7.965-15.408-15.608-2.155-7.565-.34-15.259 4.979-21.109 5.872-6.457 10.253-12.828 13.021-18.936.675-1.489 2.105-2.414 3.733-2.414 1.628 0 3.058.925 3.733 2.414 2.768 6.106 7.148 12.478 13.021 18.936 5.285 5.812 7.129 13.761 4.934 21.265-2.215 7.572-8.218 13.525-15.666 15.535-.217.06-.437.088-.652.088z"/></g><g><path d="m60.824 122.578c-1.108 0-2.12-.741-2.416-1.863-.352-1.335.445-2.703 1.78-3.055 5.805-1.532 10.499-6.164 12.25-12.088 1.75-5.921.358-11.952-3.82-16.546-5.68-6.247-10.064-12.463-13.055-18.505-2.991 6.043-7.375 12.259-13.055 18.505-4.13 4.542-5.541 10.51-3.87 16.375 1.7 5.967 6.175 10.517 11.971 12.169 1.328.379 2.097 1.762 1.719 3.09-.379 1.328-1.764 2.097-3.09 1.719-7.471-2.13-13.231-7.965-15.409-15.607-2.155-7.565-.34-15.259 4.979-21.109 5.872-6.457 10.252-12.828 13.021-18.936.674-1.488 2.104-2.413 3.732-2.413 1.628 0 3.058.924 3.733 2.413 2.768 6.108 7.148 12.479 13.021 18.937 5.302 5.831 7.14 13.804 4.916 21.328-2.243 7.589-8.286 13.531-15.769 15.506-.212.053-.427.08-.638.08z"/></g><g><path d="m128 236.604c-7.807 0-15.66-.527-23.34-1.565-7.641-1.034-14.95-3.826-21.137-8.074-19.384-13.31-31.721-34.292-33.849-57.569-.226-2.472.559-4.864 2.211-6.738 1.661-1.883 4.057-3.013 6.573-3.1 27.434-.942 51.881-16.911 63.8-41.675 1.075-2.235 3.275-3.623 5.741-3.623s4.667 1.388 5.742 3.622c11.915 24.763 36.362 40.732 63.8 41.676 2.517.087 4.913 1.217 6.574 3.101 1.651 1.873 2.437 4.266 2.21 6.737-2.128 23.277-14.466 44.261-33.851 57.57-6.186 4.247-13.494 7.039-21.133 8.073-7.68 1.038-15.533 1.565-23.341 1.565zm0-117.345c-.257 0-.893.077-1.236.791-12.729 26.445-38.835 43.499-68.134 44.504-1.148.04-2.239.553-2.994 1.41-.733.831-1.082 1.888-.982 2.976 1.992 21.791 13.545 41.438 31.699 53.902 5.545 3.808 12.107 6.312 18.977 7.241 14.917 2.018 30.424 2.018 45.34 0 6.868-.929 13.43-3.433 18.974-7.24 18.155-12.464 29.71-32.111 31.702-53.903.1-1.088-.249-2.145-.981-2.976-.755-.856-1.847-1.371-2.995-1.41-29.303-1.008-55.41-18.061-68.134-44.504-.343-.714-.979-.791-1.236-.791z"/></g><g><path d="m134.82 126.589c-.993 0-1.932-.595-2.322-1.573-.513-1.282.111-2.737 1.394-3.249 4.725-1.888 8.247-6.059 9.42-11.157 1.143-4.963-.19-9.997-3.657-13.81-5.029-5.531-8.941-11.037-11.654-16.399-2.713 5.362-6.625 10.869-11.654 16.399-3.457 3.802-4.793 8.822-3.666 13.772 1.159 5.087 4.658 9.262 9.362 11.167 1.279.519 1.896 1.976 1.378 3.256-.518 1.279-1.976 1.899-3.256 1.378-6.217-2.519-10.837-8.011-12.359-14.691-1.496-6.567.269-13.218 4.841-18.247 5.304-5.833 9.259-11.584 11.757-17.096.649-1.434 2.027-2.325 3.596-2.325s2.947.891 3.597 2.325c2.498 5.511 6.453 11.263 11.757 17.095 4.586 5.043 6.347 11.712 4.831 18.296-1.542 6.695-6.191 12.182-12.438 14.678-.305.123-.619.181-.927.181z"/></g><g><path d="m200.438 199.293c-1.306 0-2.676-.025-4.188-.078-1.38-.048-2.459-1.206-2.412-2.585.048-1.379 1.199-2.447 2.585-2.412 1.454.051 2.767.075 4.015.075 5.268 0 10.569-.356 15.756-1.058 4.688-.634 9.165-2.342 12.947-4.938 12.514-8.591 20.478-22.132 21.851-37.151.051-.553-.127-1.091-.502-1.516-.398-.451-.951-.711-1.557-.732-20.775-.714-39.286-12.805-48.307-31.553-.024-.051-.061-.127-.187-.127-.127 0-.164.077-.188.128-8.601 17.871-26.208 29.911-45.952 31.422-1.37.103-2.579-.925-2.684-2.302s.925-2.578 2.302-2.684c17.971-1.375 33.999-12.336 41.829-28.605.879-1.826 2.678-2.959 4.694-2.959 2.016 0 3.814 1.134 4.692 2.959 8.212 17.067 25.062 28.074 43.973 28.724 1.966.068 3.838.951 5.136 2.423 1.293 1.467 1.908 3.341 1.731 5.278-1.509 16.505-10.256 31.382-24 40.818-4.423 3.037-9.647 5.033-15.106 5.771-5.41.731-10.937 1.102-16.428 1.102z"/></g><g><path d="m205.659 122.154c-.957 0-1.869-.552-2.284-1.481-.563-1.261.003-2.739 1.264-3.302 2.961-1.322 5.137-4.06 5.821-7.325.671-3.205-.19-6.325-2.426-8.783-3.169-3.486-5.715-6.962-7.595-10.369-1.881 3.409-4.427 6.885-7.596 10.369-2.226 2.447-3.09 5.553-2.434 8.745.669 3.252 2.823 5.994 5.762 7.333 1.257.572 1.812 2.055 1.239 3.311-.572 1.257-2.055 1.812-3.311 1.239-4.388-1.999-7.598-6.064-8.587-10.876-.972-4.728.352-9.508 3.632-13.115 3.656-4.021 6.38-7.978 8.095-11.762.569-1.256 1.825-2.067 3.2-2.067s2.63.812 3.2 2.067c1.714 3.782 4.438 7.739 8.095 11.762 3.295 3.624 4.615 8.425 3.621 13.172-1.012 4.83-4.255 8.892-8.677 10.865-.332.147-.678.217-1.019.217z"/></g><g><path d="m55.562 199.293c-5.494 0-11.02-.371-16.426-1.102-5.46-.739-10.685-2.735-15.108-5.772-13.742-9.436-22.489-24.313-23.999-40.817-.177-1.937.438-3.811 1.731-5.278 1.298-1.472 3.17-2.354 5.136-2.422 18.909-.649 35.758-11.656 43.973-28.725.878-1.826 2.676-2.959 4.693-2.959 2.017 0 3.814 1.134 4.693 2.959 7.831 16.275 23.867 27.236 41.849 28.606 1.377.105 2.408 1.306 2.303 2.683s-1.306 2.407-2.683 2.303c-19.755-1.505-37.372-13.546-45.975-31.424-.024-.051-.061-.127-.187-.127s-.163.077-.188.127c-9.024 18.75-27.534 30.84-48.307 31.554-.606.021-1.159.281-1.557.732-.375.424-.553.963-.502 1.516 1.373 15.019 9.337 28.559 21.849 37.15 3.782 2.597 8.26 4.305 12.948 4.939 6.444.872 13.083 1.206 19.579.988 1.361-.061 2.535 1.035 2.582 2.415.046 1.38-1.035 2.536-2.415 2.582-1.439.049-2.744.072-3.989.072z"/></g><g><path d="m60.485 122.282c-.98 0-1.911-.58-2.31-1.542-.529-1.275.075-2.738 1.351-3.268 3.038-1.261 5.292-3.987 6.03-7.293.726-3.251-.125-6.418-2.397-8.917-3.169-3.485-5.714-6.961-7.596-10.369-1.881 3.408-4.426 6.884-7.595 10.369-2.266 2.492-3.119 5.65-2.402 8.895.729 3.298 2.97 6.027 5.994 7.298 1.273.535 1.871 2 1.336 3.273-.536 1.273-2.003 1.869-3.273 1.336-4.519-1.899-7.86-5.948-8.939-10.829-1.061-4.804.246-9.665 3.585-13.338 3.657-4.021 6.38-7.979 8.095-11.761.569-1.256 1.825-2.068 3.2-2.068s2.63.812 3.2 2.067c1.715 3.783 4.438 7.741 8.095 11.762 3.349 3.683 4.653 8.556 3.578 13.371-1.092 4.892-4.454 8.937-8.993 10.822-.315.131-.64.192-.959.192z"/></g><g><path d="m63.288 204.001c-1.182 0-2.233-.842-2.456-2.046-.251-1.357.646-2.662 2.004-2.913 26.987-4.988 49.481-15.896 63.338-30.714.945-1.011 2.706-1.011 3.652 0 13.843 14.804 36.31 25.707 63.262 30.701 1.357.251 2.254 1.556 2.002 2.914-.251 1.357-1.562 2.254-2.914 2.002-26.854-4.976-49.516-15.701-64.177-30.317-14.675 14.632-37.365 25.362-64.255 30.332-.152.028-.305.041-.456.041z"/></g><g><path d="m197.342 194.684c-.137 0-.275-.011-.415-.035-31.034-5.183-56.699-18.799-68.926-36.514-12.212 17.689-37.837 31.3-68.816 36.495-1.366.234-2.651-.69-2.879-2.052-.229-1.362.69-2.651 2.052-2.879 30.104-5.049 54.784-18.181 66.017-35.127.811-1.223 2.167-1.953 3.626-1.953 1.46 0 2.815.73 3.625 1.953 11.248 16.97 35.966 30.108 66.123 35.145 1.362.228 2.282 1.516 2.054 2.877-.202 1.224-1.261 2.09-2.461 2.09z"/></g><g><path d="m248.729 169.938c-.138 0-.278-.012-.419-.036-21.292-3.597-39.012-12.865-47.871-24.948-4.541 6.193-11.47 11.743-20.154 16.126-1.233.621-2.736.128-3.358-1.105s-.127-2.736 1.105-3.358c8.58-4.33 15.234-9.816 19.245-15.865.705-1.065 1.887-1.702 3.161-1.702h.001c1.273 0 2.456.636 3.163 1.702 7.723 11.654 24.748 20.708 45.541 24.222 1.361.23 2.279 1.52 2.048 2.881-.206 1.219-1.264 2.083-2.462 2.083z"/></g><g><path d="m7.17 169.955c-1.199 0-2.257-.865-2.462-2.086-.229-1.361.689-2.651 2.051-2.879 20.839-3.501 37.902-12.563 45.642-24.238.707-1.066 1.889-1.702 3.163-1.702s2.456.636 3.162 1.702c3.99 6.019 10.599 11.482 19.114 15.8 1.231.624 1.723 2.129 1.099 3.36s-2.128 1.725-3.36 1.099c-8.618-4.37-15.499-9.896-20.014-16.056-8.876 12.105-26.635 21.38-47.976 24.966-.142.022-.281.034-.419.034z"/></g><g><path d="m128 154c-8.376 0-16.193-3.749-21.446-10.286-.865-1.076-.693-2.65.383-3.515 1.075-.866 2.649-.694 3.515.383 4.298 5.35 10.695 8.418 17.548 8.418 6.944 0 13.394-3.135 17.693-8.6.853-1.085 2.425-1.272 3.511-.419 1.085.854 1.272 2.425.419 3.511-5.254 6.678-13.135 10.508-21.623 10.508z"/></g><g><path d="m200.438 141.517c-5.984 0-11.604-2.649-15.417-7.269-.879-1.065-.729-2.641.336-3.52 1.063-.88 2.641-.729 3.52.336 2.861 3.465 7.075 5.452 11.562 5.452 4.546 0 8.795-2.03 11.658-5.57.869-1.074 2.443-1.239 3.516-.372 1.073.868 1.24 2.442.372 3.516-3.818 4.72-9.484 7.427-15.547 7.427z"/></g><g><path d="m55.562 141.517c-6.074 0-11.747-2.714-15.563-7.448-.867-1.075-.698-2.648.376-3.515s2.648-.699 3.515.376c2.864 3.55 7.118 5.586 11.672 5.586 4.514 0 8.745-2.007 11.607-5.507.874-1.068 2.448-1.226 3.518-.352 1.068.874 1.226 2.449.352 3.518-3.815 4.666-9.456 7.342-15.477 7.342z"/></g><g><path d="m128 138c-4.372 0-8.509-1.423-11.963-4.115-1.089-.849-1.284-2.419-.436-3.509.848-1.089 2.418-1.284 3.509-.436 2.568 2.001 5.643 3.059 8.89 3.059 3.211 0 6.258-1.036 8.81-2.997 1.096-.842 2.666-.635 3.505.459.841 1.095.635 2.665-.459 3.505-3.434 2.64-7.533 4.034-11.856 4.034z"/></g><g><path d="m200.438 130.325c-3.098 0-6.052-.975-8.544-2.82-1.11-.821-1.344-2.387-.522-3.497s2.388-1.342 3.497-.522c1.625 1.203 3.551 1.838 5.569 1.838 1.968 0 3.855-.607 5.456-1.755 1.122-.806 2.684-.547 3.488.574.805 1.122.548 2.684-.574 3.488-2.455 1.763-5.35 2.694-8.37 2.694z"/></g><g><path d="m55.562 130.325c-3.255 0-6.33-1.067-8.891-3.084-1.084-.855-1.271-2.427-.417-3.511.855-1.085 2.427-1.27 3.511-.417 1.67 1.316 3.675 2.012 5.796 2.012 2.082 0 4.056-.672 5.709-1.944 1.096-.843 2.665-.637 3.506.457.842 1.095.637 2.664-.457 3.506-2.534 1.95-5.563 2.981-8.757 2.981z"/></g></g></g></svg>