<svg enable-background="new 0 0 256 256" height="512" viewBox="0 0 256 256" width="512" xmlns="http://www.w3.org/2000/svg"><g id="Layer_50"><g><g><path d="m42.324 169.608c4.912 6.591 11.276 11.777 18.462 15.336 1.158-1.102 2.19-2.401 3.037-3.913l.003-.005c.62-1.106 2.211-1.106 2.831 0 6.245 11.15 22.292 11.15 28.538.001l.001-.001c.62-1.106 2.211-1.106 2.831 0l.003.006c6.245 11.148 22.289 11.15 28.536.003l.005-.01c.62-1.106 2.211-1.106 2.83 0l.008.015c6.247 11.146 22.289 11.146 28.535-.001l.008-.014c.62-1.106 2.211-1.106 2.831 0l.006.011c6.246 11.147 22.289 11.147 28.535 0l.007-.012c.62-1.106 2.211-1.106 2.83 0l.008.014c.523.934 1.12 1.782 1.769 2.559 6.409-4.108 11.75-9.885 15.281-16.953 6.653-13.318 10.602-31.008 1.342-49.895-8.977-.557-16.362 3.749-16.362 3.749-2.327 1.396-4.705 2.132-6.989 2.456-1.041 9.736-5.52 27.046-24.21 27.046h-83.183c-8.888 0-17.663-2.333-25.219-7.014-5.681-3.519-11.662-8.696-16.1-16.229-1.014-1.723-2.888-2.757-4.888-2.757-3.405 0-6.052 2.952-5.684 6.338.966 8.877 4.117 25.475 14.398 39.27z" fill="#fca265"/></g><g><path d="m253.413 92.161c-1.138-6.182-4.212-14.661-11.213-15.661-6.117-.874-8.875 2.387-10.089 5.006-1.098 2.368-3.381 3.947-5.967 4.299-2.709.369-6.248.361-9.962-.961-.183 5.915-5.023 10.656-10.982 10.656-6.075 0-11-4.925-11-11 0-3.981 2.122-7.457 5.289-9.388-1.837-.655-3.825-.92-6.289-.612-4.971.621-9.596 4.023-9.565 11.624.01 2.411-2.763 3.766-4.635 2.245l-6.524-5.03c-2.561-1.974-6.162.407-5.358 3.539.792 3.087 2.225 6.651 4.797 10.013.896 1.171.204 2.869-1.259 3.052l-8.586 1.073c-1.64.205-2.278 2.239-1.048 3.343 3.114 2.795 8.621 6.783 15.588 7.863 1.463.227 2.074 2.01 1.099 3.124l-2.341 2.676c-1.116 1.276-.571 3.269 1.037 3.807 3.997 1.335 11.119 2.677 17.794-1.328 0 0 12-7 24-2 8.111 3.38 7.085 8.13 5.567 10.854-.49.88.246 1.945 1.247 1.833l4.792-.532c.743-.083 1.393.499 1.393 1.247v2.739c0 .908.93 1.52 1.76 1.15 3.008-1.344 9.196-4.689 13.153-10.839 2.804-4.358.39-10.226-4.707-11.162-.984-.181-2.055-.289-3.206-.289-5.305 0-12.907-1.149-18.019-4.751-2.242-1.58-1.636-5.072.992-5.859 6.202-1.858 17.215-4.665 27.267-4.709 3.181-.017 5.551-2.895 4.975-6.022z" fill="#fca265"/></g><g><path d="m175.964 86.028 3.036 2.341c1.872 1.521 4.645.166 4.635-2.245-.009-2.074.339-3.826.937-5.304-2.421-2.019-4.372-4.414-5.925-7.011-1.302-2.177-1.175-4.924.317-6.976l4.8-6.601c1.483-2.04 1.321-4.946-.566-6.619-2.166-1.922-5.464-1.526-7.128.764l-1.529 2.102c-.446.613-1.418.363-1.512-.389-.795-6.393-.411-11.274-.399-11.408.237-2.656-1.721-5.003-4.376-5.245-2.663-.244-5.01 1.718-5.251 4.376-.032.354-.766 8.8 1.287 18.809 1.997 9.745 5.981 17.67 11.674 23.406z" fill="#f5c84c"/></g><g><path d="m60.786 184.944c1.158-1.102 2.19-2.401 3.037-3.913l.003-.005c.62-1.106 2.211-1.106 2.831 0 6.245 11.15 22.292 11.15 28.538.001l.001-.001c.62-1.106 2.211-1.106 2.831 0l.003.006c6.245 11.148 22.289 11.15 28.536.003l.005-.01c.62-1.106 2.211-1.106 2.83 0l.008.015c6.247 11.146 22.289 11.146 28.535-.001l.008-.014c.62-1.106 2.211-1.106 2.831 0l.006.011c6.246 11.147 22.289 11.147 28.535 0l.007-.012c.62-1.106 2.211-1.106 2.83 0l.008.014c.523.934 1.12 1.782 1.769 2.559 6.409-4.108 11.75-9.885 15.281-16.953 6.653-13.318 10.602-31.008 1.342-49.895-4.867-.302-9.255.825-12.263 1.921 11.254 25.907-6.86 56.494-36.389 56.825-.164.002-.328.003-.491.003h-85.75c-15.846 0-31.014-6.91-40.969-19.161 1.96 4.484 4.451 9.01 7.625 13.269 4.912 6.593 11.276 11.779 18.462 15.338z" fill="#fce4be"/></g><g><path d="m252.085 181.027c-6.244 11.15-22.29 11.152-28.537.004l-.003-.006c-.62-1.105-2.211-1.106-2.83 0l-.009.017c-6.247 11.146-22.289 11.145-28.535-.002l-.008-.014c-.62-1.106-2.211-1.106-2.83 0l-.007.012c-6.246 11.147-22.289 11.147-28.535 0l-.006-.011c-.62-1.106-2.211-1.106-2.831 0l-.008.014c-6.246 11.146-22.288 11.147-28.535.001l-.008-.015c-.62-1.106-2.211-1.106-2.83 0l-.005.01c-6.247 11.147-22.291 11.146-28.536-.003l-.003-.006c-.62-1.106-2.211-1.106-2.831 0l-.001.001c-6.246 11.149-22.293 11.149-28.538-.001-.619-1.106-2.211-1.106-2.831 0l-.003.005c-6.246 11.148-22.291 11.148-28.537-.001l-.002-.004c-.62-1.106-2.211-1.106-2.831 0-6.245 11.15-22.292 11.15-28.537.001l-1.418-2.529v64.1l1.416 2.528c6.246 11.149 22.292 11.149 28.537-.001.619-1.106 2.211-1.106 2.831 0l.002.004c6.245 11.149 22.291 11.149 28.537.001l.003-.005c.62-1.106 2.211-1.106 2.831 0 6.245 11.15 22.292 11.15 28.538.001l.001-.001c.62-1.106 2.211-1.106 2.831 0l.003.006c6.245 11.148 22.289 11.15 28.536.003l.005-.01c.62-1.106 2.211-1.106 2.83 0l.008.015c6.247 11.146 22.289 11.146 28.535-.001l.008-.014c.62-1.106 2.211-1.106 2.831 0l.006.011c6.246 11.147 22.289 11.147 28.535 0l.007-.012c.62-1.106 2.211-1.106 2.83 0l.008.014c6.246 11.146 22.288 11.147 28.535.002l.009-.017c.62-1.106 2.211-1.105 2.83 0l.003.006c6.247 11.148 22.293 11.146 28.537-.004l1.415-2.527v-64.1z" fill="#70d6f9"/></g><g><path d="m27.927 130.338c-.369-3.386 2.278-6.338 5.683-6.338 1.999 0 3.873 1.034 4.888 2.757 1.313 2.229 2.772 4.229 4.308 6.063 8.102-3.055 14.437-9.824 16.612-18.42 1.287-5.089 1.255-9.075 1.255-9.075s-4.058 7.534-8.28 3.312c-4.416-4.416 6.072-7.728 3.864-15.457 0 0-4.046 5.338-7.728 1.656-3.864-3.864 3.864-8.28 2.208-15.456 0 0-6.072 7.176-9.936 3.312-3.341-3.341 3.634-12.459-5.832-22.359-1.543-1.614-4.262-.224-3.825 1.965.999 5.009 1.359 11.874-2.229 17.051-1.436 2.072-4.322 3.468-7.219 2.827-3.265-.722-6.138-2.796-6.138-2.796-1.656 7.176 6.072 11.592 2.208 15.456-3.683 3.682-7.728-1.656-7.728-1.656-2.208 7.728 8.28 11.04 3.864 15.457-4.222 4.222-8.28-3.312-8.28-3.312s-.008 3.887 1.228 8.885c2.617 10.587 11.315 18.178 21.58 19.973-.212-1.395-.378-2.689-.503-3.845z" fill="#fc657e"/></g><g><circle cx="205.2" cy="84.5" fill="#dae6f1" r="11"/></g><g><circle cx="209.7" cy="85.25" fill="#818182" r="5.75"/></g><g><path d="m252.085 202.393c-6.244 11.15-22.29 11.152-28.537.004l-.003-.006c-.62-1.106-2.211-1.106-2.83 0l-.009.017c-6.247 11.146-22.289 11.145-28.535-.002l-.008-.014c-.62-1.106-2.211-1.106-2.83 0l-.007.011c-6.246 11.147-22.289 11.147-28.535 0l-.006-.011c-.62-1.106-2.211-1.106-2.831 0l-.008.014c-6.246 11.146-22.288 11.147-28.535.001l-.008-.015c-.62-1.106-2.211-1.106-2.83 0l-.005.01c-6.247 11.147-22.291 11.146-28.536-.003l-.003-.006c-.62-1.106-2.211-1.106-2.831 0l-.001.001c-6.246 11.149-22.293 11.149-28.538-.001-.619-1.106-2.211-1.106-2.831 0l-.003.005c-6.246 11.148-22.291 11.148-28.537-.001l-.002-.004c-.62-1.106-2.211-1.106-2.831 0-6.245 11.15-22.292 11.15-28.537.001l-1.418-2.528v21.367l1.416 2.528c6.246 11.149 22.292 11.148 28.537-.001.619-1.106 2.211-1.106 2.831 0l.002.004c6.245 11.149 22.291 11.149 28.537.001l.003-.005c.62-1.106 2.211-1.106 2.831 0 6.245 11.15 22.292 11.15 28.538.001l.001-.001c.62-1.106 2.211-1.106 2.831 0l.003.006c6.245 11.148 22.289 11.15 28.536.002l.005-.01c.62-1.105 2.211-1.105 2.83 0l.008.015c6.247 11.146 22.289 11.146 28.535-.001l.008-.014c.62-1.106 2.211-1.106 2.831 0l.006.011c6.246 11.147 22.289 11.147 28.535 0l.007-.012c.62-1.106 2.211-1.106 2.83 0l.008.014c6.246 11.146 22.288 11.147 28.535.002l.009-.017c.62-1.106 2.211-1.105 2.83 0l.003.006c6.247 11.148 22.293 11.146 28.537-.004l1.415-2.527v-21.367z" fill="#cbeff7"/></g><g><path d="m246.35 158.2c-3.1-.6-5.6-3-6.2-6.1 0-.1-.3-.1-.3 0-.6 3.1-3.1 5.5-6.2 6.1-.1 0-.1.2 0 .3 3.1.6 5.6 3 6.2 6.1 0 .1.3.1.3 0 .6-3.1 3.1-5.5 6.2-6.1.1-.1.1-.3 0-.3z" fill="#87d147"/></g><g><path d="m80.9 92.9h2.3v2.3c0 1.8 1.4 3.2 3.2 3.2 1.7 0 3.2-1.4 3.2-3.1v-.1-2.3h2.3c1.8 0 3.2-1.4 3.2-3.2 0-1.7-1.4-3.2-3.1-3.2h-.1-2.3v-2.3c0-1.8-1.4-3.2-3.2-3.2-1.7 0-3.2 1.4-3.2 3.1v.1 2.3h-2.3c-1.8 0-3.2 1.4-3.2 3.2-.1 1.7 1.3 3.2 3.2 3.2-.1 0-.1 0 0 0z" fill="#70d6f9"/></g><g><circle cx="200.3" cy="29.4" fill="#fc657e" r="3.4"/></g><g><circle cx="68.3" cy="63.4" fill="#f5c84c" r="3.4"/></g><g><path d="m169.7 8.85c4.5-.8 8-4.3 8.9-8.7 0-.2.4-.2.4 0 .9 4.4 4.4 7.9 8.9 8.7.2 0 .2.3 0 .4-4.5.8-8 4.3-8.9 8.7 0 .2-.4.2-.4 0-.9-4.4-4.4-7.9-8.9-8.7-.2-.1-.2-.4 0-.4z" fill="#f5c84c"/></g><g><path d="m241.7 89.5h-2c-1.381 0-2.5-1.119-2.5-2.5s1.119-2.5 2.5-2.5h2c1.381 0 2.5 1.119 2.5 2.5s-1.119 2.5-2.5 2.5z"/></g><g><path d="m194.297 185.869c-.814 0-1.614-.398-2.094-1.131-.756-1.155-.433-2.705.723-3.461 6.019-3.94 10.88-9.386 14.058-15.748 8.089-16.192 8.697-31.9 1.809-46.686-.584-1.251-.042-2.739 1.21-3.322s2.738-.042 3.321 1.21c7.459 16.009 6.813 33.655-1.867 51.032-3.572 7.153-9.033 13.272-15.792 17.697-.423.277-.898.409-1.368.409z"/></g><g><path d="m60.213 187.157c-.383 0-.771-.088-1.135-.274-7.388-3.771-13.875-9.228-18.759-15.781-10.67-14.317-13.901-31.517-14.878-40.494-.252-2.319.496-4.645 2.053-6.379 1.556-1.734 3.785-2.729 6.116-2.729 2.895 0 5.593 1.528 7.042 3.988 3.642 6.183 8.777 11.355 15.263 15.373 7.012 4.343 15.276 6.639 23.901 6.639h83.184c8.525 0 19.199-4.166 21.634-24.009.168-1.37 1.422-2.339 2.786-2.177 1.37.168 2.345 1.416 2.177 2.786-2.214 18.048-11.909 28.4-26.597 28.4h-83.184c-9.556 0-18.731-2.555-26.534-7.388-7.182-4.449-12.881-10.198-16.938-17.086-.554-.941-1.602-1.526-2.733-1.526-.927 0-1.777.379-2.395 1.068-.619.689-.904 1.577-.804 2.5.922 8.472 3.955 24.681 13.917 38.047 4.428 5.941 10.313 10.891 17.022 14.315 1.229.627 1.718 2.133 1.09 3.363-.441.866-1.319 1.364-2.228 1.364z"/></g><g><path d="m200.266 145.916c-.69 0-1.378-.284-1.872-.842l-13.676-15.43c-.916-1.033-.82-2.613.213-3.529 1.033-.914 2.614-.82 3.529.213l13.676 15.43c.916 1.033.82 2.613-.213 3.529-.476.421-1.068.629-1.657.629z"/></g><g><path d="m193.402 161.288c-.69 0-1.378-.284-1.872-.842l-13.625-15.373c-.916-1.033-.82-2.613.213-3.529 1.033-.914 2.614-.821 3.529.213l13.625 15.373c.916 1.033.82 2.613-.213 3.529-.475.422-1.067.629-1.657.629z"/></g><g><path d="m182.144 171.702c-.69 0-1.378-.284-1.872-.842l-16.627-18.76c-.916-1.033-.82-2.613.213-3.529 1.032-.914 2.613-.82 3.529.213l16.627 18.76c.916 1.033.82 2.613-.213 3.529-.476.422-1.068.629-1.657.629z"/></g><g><path d="m166.522 177.193c-.69 0-1.378-.284-1.872-.842l-21.488-24.245c-.916-1.033-.82-2.613.213-3.529 1.033-.914 2.614-.82 3.529.213l21.488 24.245c.916 1.033.82 2.613-.213 3.529-.475.422-1.067.629-1.657.629z"/></g><g><path d="m146.501 177.721c-.69 0-1.378-.284-1.872-.842l-21.959-24.777c-.916-1.033-.82-2.613.213-3.529 1.033-.914 2.613-.821 3.529.213l21.959 24.777c.916 1.033.82 2.613-.213 3.529-.475.421-1.067.629-1.657.629z"/></g><g><path d="m126.013 177.721c-.69 0-1.378-.284-1.872-.842l-21.954-24.771c-.916-1.033-.82-2.613.213-3.529 1.033-.914 2.613-.82 3.529.213l21.954 24.771c.916 1.033.82 2.613-.213 3.529-.476.421-1.067.629-1.657.629z"/></g><g><path d="m105.524 177.721c-.69 0-1.378-.284-1.872-.842l-21.959-24.777c-.916-1.033-.82-2.613.213-3.529 1.032-.914 2.613-.821 3.529.213l21.959 24.777c.916 1.033.82 2.613-.213 3.529-.475.421-1.067.629-1.657.629z"/></g><g><path d="m85.138 177.835c-.69 0-1.378-.284-1.872-.842l-26.569-29.979c-.916-1.033-.82-2.613.213-3.529 1.032-.915 2.613-.821 3.529.213l26.569 29.979c.916 1.033.82 2.613-.213 3.529-.476.421-1.067.629-1.657.629z"/></g><g><path d="m63.368 176.378c-.691 0-1.379-.285-1.873-.843l-34.867-39.378c-.915-1.034-.819-2.614.215-3.529 1.033-.917 2.614-.819 3.529.214l34.867 39.378c.915 1.034.819 2.614-.215 3.529-.475.422-1.067.629-1.656.629z"/></g><g><path d="m232.449 138.4c-.711 0-1.418-.204-2.036-.605-1.072-.696-1.713-1.875-1.713-3.155v-1.348l-3.409.379c-1.403.153-2.767-.479-3.551-1.66-.777-1.168-.837-2.653-.157-3.875.715-1.283.904-2.431.564-3.411-.497-1.433-2.194-2.788-4.909-3.919-10.662-4.443-21.673 1.791-21.783 1.854-7.6 4.562-15.694 2.922-19.842 1.537-1.553-.52-2.735-1.771-3.162-3.349-.426-1.574-.038-3.248 1.037-4.476l1.641-1.876c-6.905-1.363-12.356-5.21-15.776-8.279-1.307-1.172-1.793-2.94-1.269-4.615s1.933-2.851 3.676-3.069l7.564-.946c-2.118-2.982-3.674-6.372-4.628-10.091-.636-2.478.333-4.988 2.468-6.395 2.132-1.404 4.816-1.304 6.839.255l6.524 5.03c.104.084.216.173.401.084.207-.099.206-.279.206-.338-.038-9.319 6.047-13.402 11.755-14.116 2.565-.32 4.901-.114 7.138.633 1.31.438 2.017 1.854 1.579 3.164-.437 1.309-1.854 2.017-3.163 1.579-1.533-.512-3.102-.642-4.933-.415-2.768.346-7.405 1.993-7.376 9.133.01 2.099-1.158 3.965-3.048 4.87-1.877.899-4.047.639-5.662-.674l-6.475-4.99c-.418-.323-.794-.199-1.035-.04-.2.131-.515.434-.375.977.874 3.41 2.342 6.477 4.36 9.116.961 1.256 1.18 2.94.57 4.395-.615 1.466-1.925 2.459-3.505 2.657l-7.305.913c3.121 2.606 7.73 5.546 13.332 6.414 1.565.243 2.876 1.323 3.421 2.819.553 1.516.237 3.21-.822 4.422l-2.21 2.526c3.38 1.1 9.724 2.324 15.532-1.161.561-.327 13.246-7.582 26.248-2.164 4.124 1.719 6.718 4.039 7.709 6.895.592 1.704.587 3.532 0 5.378l2.659-.296c1.062-.116 2.125.223 2.919.935.795.711 1.251 1.731 1.251 2.797v.752c3.085-1.615 7.376-4.496 10.31-9.056.889-1.381 1.031-3.103.381-4.604-.633-1.46-1.885-2.461-3.437-2.746-.896-.165-1.823-.248-2.754-.248-2.832 0-12.604-.375-19.459-5.208-1.815-1.279-2.721-3.443-2.362-5.646.362-2.225 1.925-4.007 4.076-4.652 5.937-1.778 17.464-4.768 27.975-4.814.778-.003 1.479-.333 1.974-.93.498-.601.694-1.359.551-2.135-.701-3.81-2.993-12.766-9.107-13.64-3.669-.525-6.107.648-7.467 3.583-1.44 3.107-4.394 5.247-7.898 5.724-3.69.503-7.265.198-10.623-.907-1.313-.431-2.025-1.844-1.595-3.156.431-1.312 1.845-2.023 3.155-1.594 2.632.865 5.452 1.101 8.389.703 1.807-.246 3.315-1.32 4.035-2.873 2.278-4.915 6.909-7.255 12.711-6.43 6.567.938 11.421 7.384 13.318 17.684.41 2.224-.181 4.496-1.619 6.232-1.434 1.73-3.549 2.729-5.802 2.739-9.883.043-20.883 2.903-26.561 4.604-.428.128-.545.472-.576.666-.036.22-.012.53.308.755 4.492 3.167 11.509 4.295 16.578 4.295 1.232 0 2.463.111 3.656.33 3.173.583 5.835 2.705 7.122 5.677 1.314 3.035 1.029 6.511-.764 9.297-4.251 6.607-10.744 10.21-14.236 11.77-.489.221-1.01.329-1.528.329z"/></g><g><path d="m175.823 88.385c-.647 0-1.295-.25-1.784-.749-6.017-6.131-10.121-14.378-12.2-24.511-2.126-10.367-1.361-19.168-1.327-19.538.178-1.951 1.103-3.716 2.606-4.969 1.505-1.256 3.415-1.844 5.362-1.67 4.02.366 6.998 3.936 6.639 7.957-.002.027-.221 2.769.019 6.808 1.124-.987 2.538-1.619 4.049-1.783 2.052-.225 4.119.438 5.67 1.814 2.784 2.47 3.193 6.844.93 9.959l-4.802 6.602c-.906 1.246-.981 2.903-.192 4.221 1.408 2.355 3.099 4.398 5.026 6.073 1.042.906 1.153 2.485.247 3.527-.905 1.043-2.486 1.153-3.526.248-2.327-2.022-4.358-4.472-6.038-7.28-1.819-3.041-1.646-6.86.44-9.729l4.801-6.601c.767-1.056.678-2.496-.204-3.278-.505-.449-1.147-.658-1.811-.584-.664.072-1.244.408-1.636.947l-1.53 2.103c-.809 1.114-2.197 1.614-3.533 1.268-1.337-.344-2.311-1.45-2.48-2.818-.842-6.77-.414-11.883-.409-11.935.114-1.286-.833-2.422-2.112-2.538-.626-.058-1.229.132-1.706.53-.479.399-.773.961-.83 1.583-.03.339-.732 8.427 1.247 18.08 1.882 9.175 5.539 16.582 10.87 22.014.967.985.952 2.568-.033 3.535-.488.475-1.121.714-1.753.714z"/></g><g><path d="m161.419 178h-85.751c-16.771 0-32.339-7.231-42.709-19.84-.877-1.066-.724-2.642.343-3.519 1.065-.875 2.643-.724 3.519.343 9.416 11.449 23.576 18.016 38.847 18.016l86.22-.002c12.665-.142 23.919-6.278 30.871-16.835 7.08-10.752 8.379-24.196 3.475-35.962-.531-1.274.071-2.738 1.346-3.27 1.275-.53 2.738.072 3.27 1.346 5.545 13.302 4.082 28.493-3.914 40.636-7.881 11.968-20.637 18.924-34.996 19.085z"/></g><g><path d="m206.438 256c-6.431 0-12.195-3.112-15.692-8.396-3.503 5.286-9.265 8.393-15.688 8.393-.001 0 0 0-.001 0-6.428 0-12.192-3.111-15.689-8.393-3.504 5.288-9.266 8.395-15.689 8.396-6.43 0-12.195-3.112-15.692-8.396-3.502 5.284-9.264 8.392-15.688 8.392-.001 0-.001 0-.001 0-6.427 0-12.189-3.11-15.687-8.391-3.498 5.277-9.26 8.385-15.685 8.385 0 0 .001 0 0 0-6.425 0-12.187-3.108-15.685-8.386-3.498 5.281-9.261 8.389-15.686 8.389-6.427 0-12.189-3.109-15.687-8.389-3.497 5.278-9.259 8.385-15.684 8.386-6.919 0-13.068-3.603-16.45-9.64l-1.417-2.528c-.208-.374-.317-.795-.317-1.222v-64.1c0-1.138.768-2.132 1.869-2.419 1.104-.286 2.257.205 2.813 1.197l1.416 2.528c2.484 4.436 7.004 7.083 12.088 7.083s9.603-2.648 12.087-7.084c.728-1.299 2.105-2.107 3.596-2.108h.001c1.49 0 2.868.807 3.597 2.107.005.009.01.019.016.028 2.487 4.422 6.999 7.061 12.074 7.061 5.084 0 9.602-2.647 12.087-7.083.732-1.306 2.109-2.113 3.6-2.113h.002c1.489 0 2.867.809 3.595 2.108 2.484 4.435 7.003 7.083 12.087 7.083 5.085 0 9.604-2.647 12.089-7.083.727-1.299 2.104-2.108 3.594-2.108h.002c1.49 0 2.868.807 3.597 2.106l.018.033c2.488 4.42 6.999 7.058 12.072 7.058h.001c5.083 0 9.602-2.647 12.087-7.082.733-1.309 2.111-2.117 3.602-2.117s2.868.808 3.597 2.107c2.493 4.449 7.011 7.096 12.095 7.096 5.083 0 9.602-2.648 12.087-7.083.735-1.313 2.113-2.121 3.604-2.121s2.868.808 3.597 2.108c2.49 4.445 7.009 7.093 12.093 7.093 5.083 0 9.602-2.647 12.087-7.082.734-1.311 2.112-2.119 3.603-2.119s2.868.808 3.597 2.108c2.492 4.448 7.011 7.096 12.094 7.096s9.602-2.646 12.087-7.081c.737-1.316 2.115-2.124 3.604-2.124s2.867.807 3.597 2.106c.006.011.013.022.019.034 2.488 4.418 6.999 7.055 12.072 7.054 5.085 0 9.604-2.649 12.087-7.085l1.415-2.527c.556-.992 1.711-1.485 2.813-1.197 1.102.287 1.869 1.281 1.869 2.419v64.1c0 .428-.109.848-.318 1.222l-1.415 2.527c-3.381 6.037-9.53 9.641-16.449 9.642-.001 0-.002 0-.003 0-6.426 0-12.188-3.108-15.686-8.388-3.511 5.293-9.273 8.4-15.698 8.4zm-15.691-14.204c1.49 0 2.868.808 3.597 2.108 2.492 4.448 7.011 7.096 12.094 7.096s9.602-2.646 12.087-7.081c.737-1.316 2.115-2.124 3.604-2.124s2.867.807 3.597 2.106c.006.011.012.022.018.033 2.488 4.419 7 7.056 12.073 7.055 5.085 0 9.604-2.649 12.087-7.085l1.097-1.958v-55.402c-3.457 3.41-8.112 5.345-13.183 5.345-.001 0-.002 0-.003 0-6.426 0-12.188-3.108-15.686-8.388-3.504 5.291-9.266 8.398-15.69 8.398h-.001c-6.43 0-12.194-3.112-15.691-8.396-3.503 5.286-9.265 8.393-15.688 8.393-.001 0 0 0-.001 0-6.428 0-12.192-3.111-15.689-8.393-3.504 5.288-9.266 8.396-15.689 8.396-6.43 0-12.195-3.112-15.692-8.396-3.502 5.284-9.264 8.392-15.688 8.392-.001 0-.001 0-.001 0-6.427 0-12.189-3.11-15.687-8.391-3.498 5.277-9.26 8.385-15.684 8.385-.001 0 0 0-.001 0-6.425 0-12.187-3.108-15.685-8.386-3.498 5.281-9.261 8.389-15.686 8.389-6.427 0-12.189-3.109-15.687-8.389-3.497 5.278-9.259 8.385-15.684 8.386-5.07 0-9.728-1.935-13.186-5.345v55.402l1.098 1.959c2.484 4.436 7.004 7.083 12.088 7.083s9.603-2.648 12.087-7.084c.728-1.299 2.105-2.107 3.596-2.108h.001c1.49 0 2.868.807 3.597 2.107.005.009.01.018.015.027 2.487 4.422 6.999 7.062 12.075 7.062 5.084 0 9.602-2.647 12.087-7.083.732-1.306 2.109-2.113 3.6-2.113h.002c1.489 0 2.867.809 3.595 2.108 2.484 4.435 7.003 7.083 12.087 7.084 5.085 0 9.604-2.648 12.089-7.083.727-1.299 2.104-2.108 3.594-2.108h.003c1.489 0 2.867.807 3.596 2.106.006.011.012.022.019.033 2.487 4.419 6.998 7.057 12.071 7.058h.001c5.083 0 9.602-2.647 12.087-7.082.733-1.309 2.111-2.117 3.602-2.117s2.868.808 3.597 2.107c2.493 4.449 7.011 7.096 12.095 7.096 5.083 0 9.602-2.648 12.087-7.083.735-1.313 2.113-2.121 3.604-2.121s2.868.808 3.597 2.108c2.49 4.445 7.009 7.093 12.093 7.093 5.083 0 9.602-2.647 12.087-7.082.73-1.309 2.108-2.117 3.598-2.117z"/></g><g><path d="m27.623 136.529c-.168 0-.338-.017-.508-.052-11.096-2.288-20.005-10.793-22.693-21.667-1.294-5.235-1.301-9.319-1.301-9.49.002-1.145.781-2.141 1.891-2.42 1.114-.28 2.269.232 2.811 1.239.695 1.272 2.221 3.125 3.269 3.275.119.017.435.063 1.043-.545.515-.515.638-.638-1.268-3.128-1.869-2.443-4.693-6.136-3.233-11.248.261-.911 1.013-1.596 1.944-1.771.934-.171 1.881.193 2.452.947.58.749 1.889 1.899 2.833 1.959.162.01.54.034 1.136-.561.536-.536.635-.845-.837-3.785-1.287-2.57-3.05-6.09-2.039-10.465.188-.816.772-1.484 1.557-1.778.783-.294 1.664-.176 2.342.313.021.015 2.519 1.786 5.215 2.382 1.921.424 3.779-.589 4.625-1.811 3.113-4.492 2.715-10.711 1.832-15.137-.414-2.075.571-4.128 2.454-5.108 1.895-.987 4.157-.614 5.63.926 6.729 7.037 6.104 13.898 5.691 18.438-.14 1.543-.314 3.465.101 3.88.358.358.659.423.98.409 1.753-.073 4.36-2.481 5.28-3.568.611-.722 1.578-1.038 2.497-.815s1.635.946 1.847 1.868c1.011 4.375-.752 7.895-2.039 10.465-1.472 2.94-1.372 3.25-.837 3.786.6.599.984.571 1.143.56 1.08-.074 2.449-1.461 2.826-1.959.571-.754 1.523-1.118 2.452-.947.932.175 1.684.86 1.944 1.771 1.46 5.112-1.364 8.805-3.233 11.248-1.905 2.49-1.782 2.613-1.268 3.128.609.608.927.562 1.043.545 1.048-.15 2.573-2.002 3.272-3.281.545-.999 1.703-1.506 2.804-1.229 1.104.277 1.884 1.263 1.894 2.401.001.176.02 4.369-1.332 9.708-2.256 8.922-8.781 16.352-17.455 19.873-1.279.521-2.737-.097-3.257-1.376s.097-2.737 1.376-3.257c7.205-2.925 12.621-9.081 14.488-16.466.16-.632.299-1.247.418-1.838-.469.193-.963.335-1.48.412-1.33.196-3.335.016-5.306-1.957-3.733-3.733-.876-7.469.831-9.701.644-.841 1.198-1.594 1.63-2.313-.418.116-.854.196-1.306.227-1.282.091-3.197-.191-5.02-2.013-3.255-3.255-1.431-6.899-.099-9.56.313-.625.622-1.241.893-1.859-1.173.629-2.47 1.088-3.799 1.144-1.803.078-3.427-.572-4.724-1.869-2.071-2.071-1.815-4.887-1.545-7.868.374-4.108.795-8.742-3.722-13.873.934 5.306 1.089 12.447-2.797 18.054-2.129 3.069-6.162 4.651-9.814 3.844-1.06-.234-2.077-.587-2.993-.975.342 1.149.897 2.26 1.47 3.402 1.332 2.661 3.156 6.305-.099 9.56-1.822 1.822-3.739 2.104-5.02 2.013-.452-.031-.888-.111-1.306-.227.432.72.986 1.472 1.63 2.313 1.707 2.232 4.564 5.968.831 9.701-1.971 1.971-3.975 2.15-5.306 1.957-.51-.075-.997-.214-1.459-.403.108.533.231 1.085.371 1.651 2.229 9.015 9.628 16.069 18.85 17.971 1.353.279 2.223 1.601 1.943 2.953-.242 1.184-1.283 1.997-2.444 1.997z"/></g><g><path d="m205.2 98c-7.444 0-13.5-6.056-13.5-13.5s6.056-13.5 13.5-13.5 13.5 6.056 13.5 13.5-6.055 13.5-13.5 13.5zm0-22c-4.687 0-8.5 3.813-8.5 8.5s3.813 8.5 8.5 8.5 8.5-3.813 8.5-8.5-3.813-8.5-8.5-8.5z"/></g><g><path d="m209.7 93.5c-4.549 0-8.25-3.701-8.25-8.25s3.701-8.25 8.25-8.25 8.25 3.701 8.25 8.25-3.701 8.25-8.25 8.25zm0-11.5c-1.792 0-3.25 1.458-3.25 3.25s1.458 3.25 3.25 3.25 3.25-1.458 3.25-3.25-1.458-3.25-3.25-3.25z"/></g><g><path d="m206.438 234.633c-6.431 0-12.195-3.112-15.692-8.396-3.503 5.286-9.265 8.394-15.689 8.394-6.428 0-12.192-3.111-15.689-8.394-3.504 5.288-9.266 8.396-15.689 8.396-6.43 0-12.195-3.112-15.692-8.396-3.502 5.284-9.264 8.392-15.688 8.392h-.001c-6.427 0-12.189-3.11-15.687-8.391-3.498 5.277-9.26 8.385-15.685 8.385-6.425 0-12.187-3.108-15.684-8.386-3.499 5.281-9.262 8.389-15.687 8.389-6.427 0-12.189-3.109-15.687-8.389-3.497 5.278-9.259 8.386-15.684 8.386-6.919 0-13.069-3.603-16.45-9.64l-1.311-2.338c-.674-1.205-.244-2.729.96-3.403 1.203-.674 2.728-.245 3.403.959l1.31 2.338c2.484 4.436 7.003 7.083 12.088 7.083 5.084 0 9.603-2.648 12.088-7.084.727-1.299 2.104-2.107 3.594-2.108h.002c1.49 0 2.868.807 3.597 2.107.005.009.01.019.016.028 2.487 4.422 6.999 7.061 12.074 7.061 5.084 0 9.602-2.647 12.087-7.083.731-1.306 2.109-2.113 3.6-2.113h.001c1.49 0 2.868.809 3.596 2.108 2.484 4.436 7.003 7.083 12.087 7.084 5.084 0 9.604-2.648 12.089-7.083.727-1.299 2.104-2.108 3.594-2.109h.002c1.49 0 2.868.807 3.597 2.107.006.011.013.023.019.034 2.488 4.419 6.998 7.056 12.071 7.057h.001c5.084 0 9.602-2.647 12.087-7.082.733-1.309 2.111-2.117 3.602-2.117s2.868.808 3.597 2.107c2.493 4.449 7.011 7.096 12.095 7.096 5.083 0 9.602-2.647 12.087-7.082.735-1.313 2.113-2.121 3.604-2.121s2.868.808 3.597 2.107c.008.016.017.031.025.047 2.489 4.414 6.997 7.047 12.066 7.047 5.084 0 9.603-2.648 12.088-7.083.734-1.311 2.112-2.119 3.603-2.119s2.868.808 3.597 2.107c2.492 4.448 7.011 7.096 12.094 7.096s9.602-2.646 12.087-7.081c.737-1.316 2.115-2.124 3.604-2.124 1.49 0 2.868.807 3.597 2.106.006.011.012.022.018.033 2.488 4.419 7 7.057 12.074 7.056 5.084 0 9.603-2.649 12.086-7.085l1.293-2.309c.676-1.205 2.199-1.633 3.403-.959 1.204.675 1.634 2.198.96 3.403l-1.293 2.309c-3.381 6.037-9.53 9.641-16.449 9.642-.001 0-.002 0-.002 0-6.427 0-12.189-3.109-15.687-8.389-3.507 5.293-9.269 8.4-15.694 8.4z"/></g><g><path d="m206.438 213.267c-6.429 0-12.192-3.111-15.689-8.392-3.456 5.255-9.239 8.389-15.692 8.389-6.428 0-12.192-3.111-15.689-8.394-3.504 5.289-9.266 8.396-15.689 8.396-6.43 0-12.195-3.112-15.692-8.396-3.503 5.285-9.264 8.391-15.687 8.391-.001 0-.002 0-.002 0-6.427 0-12.189-3.11-15.687-8.391-3.498 5.277-9.26 8.385-15.685 8.385-6.425 0-12.187-3.108-15.684-8.386-3.5 5.281-9.262 8.39-15.687 8.39-6.427 0-12.189-3.109-15.687-8.389-3.497 5.278-9.259 8.385-15.684 8.386-6.919 0-13.069-3.604-16.45-9.64l-1.248-2.228c-.675-1.205-.246-2.728.959-3.403 1.204-.673 2.728-.246 3.402.959l1.248 2.228c2.485 4.436 7.005 7.083 12.089 7.083s9.603-2.648 12.087-7.084c.728-1.299 2.105-2.107 3.596-2.108h.001c1.49 0 2.868.807 3.597 2.107.005.009.011.019.016.029 2.487 4.421 6.999 7.06 12.074 7.06 5.084 0 9.602-2.648 12.087-7.083.731-1.306 2.109-2.113 3.6-2.113h.001c1.49 0 2.868.809 3.596 2.108 2.484 4.436 7.003 7.083 12.087 7.084 5.084 0 9.604-2.648 12.089-7.083.727-1.299 2.104-2.108 3.594-2.108h.003c1.489 0 2.867.807 3.596 2.106.006.011.013.022.019.033 2.487 4.419 6.998 7.057 12.071 7.058h.002c5.083 0 9.601-2.647 12.086-7.082.733-1.309 2.111-2.117 3.602-2.117s2.868.808 3.597 2.108c2.493 4.448 7.011 7.096 12.095 7.096 5.083 0 9.602-2.648 12.087-7.083.735-1.313 2.113-2.121 3.604-2.121s2.868.808 3.597 2.107c.008.016.017.031.025.047 2.489 4.413 6.997 7.047 12.066 7.047 5.084 0 9.603-2.648 12.088-7.083.015-.026.036-.063.052-.089.683-1.222 2.061-2.03 3.551-2.03s2.868.808 3.597 2.108c2.492 4.448 7.011 7.096 12.094 7.096s9.602-2.647 12.087-7.081c.737-1.316 2.115-2.124 3.604-2.124 1.49 0 2.868.807 3.597 2.106.008.015.016.029.024.044 2.488 4.412 6.996 7.044 12.064 7.044h.002c5.085 0 9.604-2.649 12.087-7.085l1.303-2.326c.675-1.206 2.199-1.636 3.403-.96 1.204.674 1.634 2.198.96 3.402l-1.303 2.327c-3.381 6.037-9.53 9.642-16.449 9.643-.001 0-.002 0-.003 0-6.426 0-12.188-3.109-15.686-8.388-3.506 5.293-9.269 8.4-15.693 8.4z"/></g></g></g></svg>