<svg enable-background="new 0 0 256 256" height="512" viewBox="0 0 256 256" width="512" xmlns="http://www.w3.org/2000/svg"><g id="Layer_46"><g><g><path d="m162.251 53.814c3.606 0 6.829 1.628 8.985 4.186 1.141-3.833 1.69-10.385-5.735-14.436-11.243-6.133-21.897 8.082-31.623 11.091-1.765.546-2.152 2.872-.608 3.886 3.834 2.52 10.03 5.263 17.658 3.925 1.36-4.983 5.907-8.652 11.323-8.652z" fill="#fcdd86"/></g><g><path d="m241.396 70.77c-.807-6.902-6.443-12.44-13.358-13.129-5.251-.523-10.007 1.669-13.055 5.334-1.628 1.958-3.89 3.278-6.403 3.69-14.72 2.415-27.283 1.196-34.631-.07-.519 5.966-5.49 10.656-11.575 10.719-5.34.055-10.092-3.686-11.484-8.841-.576-2.133-.469-4.151.037-6.006-6.345 1.113-11.693-.598-15.521-2.656-5.383 2.479-15.905 8.844-15.905 20.753 0 9.984 7.009 15.296 12.28 17.878 2.53 1.24 3.609 4.223 2.648 6.871-4.506 12.413 11.962 29.89 33.072 27.251 12.507-1.563 21.212 1.761 26.681 5.304 5.064 3.281 11.718 2.648 16.158-1.437l10.846-9.978c2.092-1.925.985-5.414-1.831-5.796-84.689-11.501-63.271-36.988-41.854-33.094 20.825 3.786 43.802 3.866 54.049 3.666 3.345-.065 6.102-2.616 6.445-5.943.004-.034.007-.069.011-.103.201-1.98.836-3.883 1.767-5.642 1.359-2.571 1.995-5.582 1.623-8.771z" fill="#fca265"/></g><g><path d="m200.065 139.901c-2.048-.192-4.068-.856-5.883-2.032-3.377-2.188-7.992-4.288-13.969-5.21 3.073 4.628 2.981 9.65 2.382 13.008-.311 1.74 1.348 3.194 3.012 2.598 6.938-2.483 11.535-5.681 14.458-8.364z" fill="#fc8c48"/></g><g><path d="m217.376 108.61c-6.73 3.632-15.337 6.268-21.756 7.912 6.372 1.414 13.721 2.731 22.133 3.91l3.384-8.46c.932-2.329-1.553-4.553-3.761-3.362z" fill="#dae6f1"/></g><g><g><path d="m134.429 105.313c.961-2.648-.118-5.631-2.648-6.871-5.271-2.583-12.28-7.894-12.28-17.878 0-11.909 10.522-18.275 15.905-20.753-.769-.413-1.481-.839-2.123-1.26-1.559-1.023-1.187-3.344.594-3.895 6.379-1.974 13.156-8.766 20.237-11.479-3.663-1.787-10.192-3.613-21.614-3.613-10.228 0-13.947-7.44-15.278-12.173-.468-1.664-2.576-2.169-3.772-.92-5.284 5.515-15.027 18.136-9.058 31.365.739 1.638-.61 3.442-2.383 3.156-3.748-.606-9.201-1.787-13.816-3.968-1.395-.659-3.024.236-3.188 1.77-.725 6.761-.764 22.641 12.566 33.093 1.46 1.144 1 3.458-.792 3.936l-8.08 2.155c-1.269.338-1.967 1.684-1.534 2.924 1.844 5.284 8.256 17.819 27.886 19.479 1.812.153 2.722 2.255 1.557 3.652l-4.732 5.678c-1.106 1.327-.365 3.349 1.337 3.646 6.728 1.175 21.425 2.546 34.252-4.494-10.133-5.468-15.938-15.555-13.036-23.55z" fill="#fc657e"/></g></g><g><path d="m102.01 60.991c1.774.287 3.122-1.518 2.383-3.156-1.128-2.5-1.693-4.978-1.835-7.391-2.861-1.61-5.443-3.575-7.757-5.786-2.54-2.427-3.381-6.14-2.145-9.428l3.977-10.577c1.229-3.269-.058-7.087-3.192-8.627-3.599-1.768-7.854-.025-9.233 3.644l-1.267 3.369c-.369.983-1.759 1.007-2.161.037-3.415-8.24-4.7-14.897-4.733-15.081-.661-3.632-4.139-6.044-7.772-5.389-3.644.655-6.054 4.138-5.399 7.774.088.485 2.218 12.028 8.642 24.632 4.777 9.371 10.712 16.891 17.573 22.403 4.411 1.926 9.409 3.009 12.919 3.576z" fill="#f5c84c"/></g><g><path d="m224.044 155.004c-10.67 19.038-38.071 19.036-48.739-.003l-.014-.024c-1.058-1.889-3.776-1.889-4.835 0l-.011.02c-10.669 19.04-38.072 19.04-48.741 0l-.011-.02c-1.058-1.889-3.776-1.889-4.835 0l-.013.023c-10.668 19.039-38.07 19.04-48.74.001l-.015-.026c-1.058-1.889-3.776-1.889-4.835 0l-.009.017c-10.67 19.04-38.075 19.038-48.742-.005l-.006-.01v65l.006.01c10.667 19.042 38.072 19.045 48.742.005l.009-.017c1.058-1.889 3.776-1.889 4.835 0l.015.026c10.67 19.038 38.071 19.038 48.74-.001l.013-.024c1.058-1.889 3.776-1.889 4.835 0l.011.02c10.669 19.04 38.072 19.04 48.741 0l.011-.02c1.058-1.888 3.776-1.888 4.835 0l.014.024c10.668 19.039 38.069 19.041 48.739.003l.016-.029v-65z" fill="#70d6f9"/></g><g><g><path d="m32.107 168.447 1.007-1.556c3.974-6.141 8.293-12.045 12.7-17.883 7.37-9.765 12.684-22.431 16.688-34.443 6.79-20.375 18.188-31.517 24.807-36.574-2.479-6.433-2.729-12.794-2.477-17.089-.979-.137-1.979-.191-2.996-.115-9.124.683-14.856 9.387-13.047 17.573.56 2.534-.783 5.126-3.203 6.064-6.608 2.563-10.383 9.783-8.859 16.642.562 2.528-.792 5.113-3.206 6.05-6.607 2.563-10.382 9.783-8.859 16.642.562 2.528-.792 5.113-3.206 6.05-6.613 2.565-10.388 9.795-8.855 16.658.56 2.507-.757 5.105-3.153 6.031-4.39 1.696-7.693 5.464-8.82 10.043 3.375 2.924 7.327 4.888 11.479 5.907z" fill="#fcdd86"/></g></g><g><path d="m63.247 154.993.009-.017c1.058-1.889 3.776-1.889 4.835 0l.014.026c10.67 19.038 38.071 19.038 48.74-.001l.013-.024c1.058-1.889 3.776-1.889 4.835 0l.011.02c.177.317.371.614.558.92.786-2.125 1.538-4.249 2.239-6.352 2.007-6.02 4.419-11.222 6.988-15.712-7.515.949-14.285.201-18.266-.494-1.704-.297-2.454-2.316-1.347-3.645 1.417-1.701 3.231-3.877 4.734-5.681 1.164-1.397.254-3.498-1.558-3.651-19.63-1.66-26.042-14.195-27.886-19.479-.433-1.24.26-2.585 1.53-2.923 2.115-.564 5.382-1.435 8.088-2.157 1.782-.475 2.258-2.784.805-3.921-5.228-4.094-8.396-9.022-10.28-13.91-6.619 5.057-18.017 16.199-24.808 36.573-4.004 12.012-9.317 24.678-16.688 34.443-4.407 5.838-8.726 11.742-12.7 17.883l-1.007 1.556c11.498 2.821 24.53-1.658 31.141-13.454z" fill="#fca265"/></g><g><circle cx="162.251" cy="65.564" fill="#dae6f1" r="11.75"/></g><g><path d="m238.005 85.184c.201-1.98.836-3.883 1.767-5.643 1.36-2.571 1.997-5.583 1.624-8.771-.807-6.902-6.443-12.44-13.358-13.129-5.251-.523-10.007 1.669-13.055 5.334-1.628 1.958-3.89 3.278-6.403 3.69-2.433.399-4.801.691-7.102.908 1.08 2.225 3.317 5.16 7.905 6.902 2.299.873 3.912 2.947 4.338 5.37.581 3.308 2.312 7.902 7.214 11.421 4.251.051 7.887.019 10.615-.035 3.345-.065 6.102-2.616 6.445-5.943.003-.035.006-.07.01-.104z" fill="#a57453"/></g><g><path d="m175.05 110.476c-1.607-2.591-2.549-5.637-2.549-8.911 0-5.605 2.718-10.569 6.902-13.666-.636-.108-1.27-.219-1.902-.334-16.24-2.953-32.464 10.984-2.451 22.911z" fill="#fc8c48"/></g><g><circle cx="167.501" cy="65.564" fill="#5b5d60" r="6.5"/></g><g><path d="m180.369 249.525c-3.1-.6-5.6-3-6.2-6.1 0-.1-.3-.1-.3 0-.6 3.1-3.1 5.5-6.2 6.1-.1 0-.1.2 0 .3 3.1.6 5.6 3 6.2 6.1 0 .1.3.1.3 0 .6-3.1 3.1-5.5 6.2-6.1.1-.1.1-.3 0-.3z" fill="#87d147"/></g><g><path d="m185.919 28.9h2.3v2.3c0 1.8 1.4 3.2 3.2 3.2 1.7 0 3.2-1.4 3.2-3.1v-.1-2.3h2.3c1.8 0 3.2-1.4 3.2-3.2 0-1.7-1.4-3.2-3.1-3.2h-.1-2.3v-2.3c0-1.8-1.4-3.2-3.2-3.2-1.7 0-3.2 1.4-3.2 3.1v.1 2.3h-2.3c-1.8 0-3.2 1.4-3.2 3.2-.1 1.7 1.3 3.2 3.2 3.2-.1 0-.1 0 0 0z" fill="#70d6f9"/></g><g><circle cx="208.319" cy="3.4" fill="#f5c84c" r="3.4"/></g><g><circle cx="18.319" cy="107.4" fill="#fc657e" r="3.4"/></g><g><path d="m22.719 79.85c4.5-.8 8-4.3 8.9-8.7 0-.2.4-.2.4 0 .9 4.4 4.4 7.9 8.9 8.7.2 0 .2.3 0 .4-4.5.8-8 4.3-8.9 8.7 0 .2-.4.2-.4 0-.9-4.4-4.4-7.9-8.9-8.7-.2-.1-.2-.4 0-.4z" fill="#f5c84c"/></g><g><path d="m146.917 65.319c-6.414 0-11.604-2.442-15.021-4.688-1.515-.996-2.299-2.727-2.045-4.519.258-1.824 1.518-3.298 3.288-3.845 2.93-.907 6.119-3.064 9.495-5.349 7.163-4.846 15.28-10.34 24.064-5.549 6.438 3.512 9.017 9.652 7.075 16.846-.36 1.333-1.732 2.121-3.065 1.762-1.333-.36-2.122-1.732-1.762-3.065 1.346-4.987-.216-8.74-4.642-11.154-6.11-3.333-12.306.861-18.868 5.3-3.479 2.354-6.777 4.586-10.191 5.778 3.33 2.059 8.39 4.136 14.508 3.285 1.369-.189 2.63.764 2.82 2.132s-.764 2.63-2.132 2.82c-1.21.169-2.387.246-3.524.246z"/></g><g><path d="m201.302 142.47c-2.94 0-5.887-.824-8.479-2.503-4.751-3.078-12.948-6.427-25.012-4.922-14.605 1.832-25.855-5.102-31.513-12.193-4.759-5.964-6.297-12.667-4.219-18.391.542-1.494-.059-3.116-1.398-3.772-8.821-4.322-13.68-11.469-13.68-20.124 0-12.703 10.394-19.649 16.589-22.66 1.243-.604 2.738-.085 3.341 1.156.604 1.242.086 2.738-1.156 3.341-5.145 2.5-13.775 8.184-13.775 18.163 0 8.516 5.917 13.202 10.88 15.633 3.638 1.783 5.314 6.069 3.898 9.969-1.47 4.05-.221 8.995 3.427 13.567 4.594 5.756 14.419 11.918 26.985 10.351 13.559-1.7 22.901 2.157 28.351 5.687 4.085 2.647 9.475 2.162 13.106-1.178l10.845-9.978c.345-.317.295-.688.235-.88-.062-.196-.235-.534-.71-.599-36.337-4.935-58.571-13.319-62.605-23.608-1.239-3.161-.717-6.366 1.47-9.024 3.812-4.634 12.063-6.855 20.065-5.398 20.939 3.807 44.426 3.803 53.552 3.626 2.071-.041 3.793-1.631 4.007-3.7l.009-.095c.226-2.218.914-4.425 2.045-6.563 1.182-2.234 1.649-4.762 1.351-7.312-.673-5.76-5.351-10.357-11.123-10.932-4.159-.414-8.226 1.248-10.885 4.445-2.024 2.434-4.836 4.052-7.92 4.558-14.537 2.384-26.976 1.333-34.852.029-1.362-.225-2.284-1.512-2.058-2.875.225-1.362 1.512-2.287 2.875-2.058 7.506 1.241 19.362 2.242 33.226-.031 1.896-.311 3.631-1.313 4.885-2.821 3.722-4.476 9.417-6.801 15.226-6.224 8.092.806 14.649 7.252 15.593 15.327.417 3.559-.239 7.097-1.897 10.23-.829 1.566-1.33 3.157-1.49 4.727l-.01.095c-.473 4.588-4.292 8.108-8.884 8.198-11.521.227-33.931.042-54.544-3.706-6.951-1.264-13.076.94-15.31 3.656-1.027 1.248-1.248 2.563-.676 4.022 1.216 3.102 9.037 13.745 58.623 20.479 2.276.309 4.119 1.862 4.807 4.054.687 2.186.066 4.508-1.619 6.059l-10.846 9.978c-3.015 2.773-6.866 4.197-10.73 4.197z"/></g><g><path d="m228.503 75.065c-.201 0-.405-.024-.608-.075l-4-1c-1.339-.335-2.154-1.692-1.819-3.032.334-1.339 1.694-2.153 3.032-1.819l4 1c1.339.335 2.154 1.692 1.819 3.032-.284 1.136-1.304 1.894-2.424 1.894z"/></g><g><path d="m184.829 150.902c-1.102 0-2.179-.388-3.06-1.132-1.311-1.108-1.938-2.849-1.635-4.543.503-2.815.605-6.975-1.76-10.806-.726-1.175-.361-2.715.813-3.44 1.175-.725 2.715-.361 3.44.813 3.104 5.026 3.088 10.326 2.483 13.992 5.188-1.897 9.553-4.408 12.976-7.465 1.031-.92 2.611-.83 3.53.199.92 1.03.831 2.61-.199 3.53-3.981 3.557-9.018 6.44-14.968 8.57-.532.189-1.079.282-1.62.282z"/></g><g><path d="m217.953 122.432c-.309 0-.623-.058-.928-.179-1.282-.513-1.905-1.968-1.393-3.25l3.184-7.959c.025-.063.049-.123-.049-.21-.093-.083-.142-.057-.204-.024-6.942 3.747-15.771 6.439-21.954 8.039-1.334.344-2.701-.457-3.046-1.794-.346-1.337.458-2.701 1.794-3.046 5.916-1.53 14.332-4.09 20.831-7.598 1.94-1.048 4.259-.777 5.906.692 1.649 1.47 2.185 3.747 1.364 5.799l-3.184 7.959c-.39.976-1.329 1.571-2.321 1.571z"/></g><g><g><path d="m124.292 136.824c-4.567 0-8.569-.49-11.508-1.003-1.688-.295-3.049-1.431-3.638-3.039-.59-1.607-.287-3.354.811-4.671l4.401-5.282c-20.692-1.947-27.556-15.383-29.553-21.104-.437-1.252-.333-2.639.286-3.806.615-1.16 1.695-2.019 2.964-2.357l7.58-2.021c-14.004-11.293-13.844-28.217-13.115-35.014.163-1.518 1.054-2.869 2.384-3.615 1.338-.751 2.968-.805 4.358-.149 4.156 1.963 9.097 3.078 12.668 3.68-6.297-14.673 4.669-28.434 9.716-33.702 1.178-1.229 2.938-1.736 4.586-1.324 1.664.416 2.935 1.649 3.398 3.297 1.328 4.721 4.639 10.35 12.872 10.35 9.511 0 16.994 1.226 22.24 3.643 1.254.578 1.802 2.063 1.224 3.317s-2.063 1.802-3.317 1.224c-3.152-1.453-9.207-3.184-20.147-3.184-8.587 0-14.961-4.927-17.552-13.54-5.456 5.792-13.423 16.879-8.277 28.283.725 1.607.512 3.471-.556 4.864-1.059 1.381-2.787 2.063-4.505 1.787-3.83-.619-9.357-1.817-14.158-4.022-.61 6.262-.52 20.932 11.662 30.483 1.43 1.121 2.092 2.921 1.728 4.697-.363 1.768-1.672 3.156-3.418 3.622l-7.812 2.083c1.801 4.972 7.794 16.059 25.65 17.569 1.781.151 3.313 1.265 4 2.907.679 1.626.399 3.48-.732 4.837l-4.446 5.336c7.08 1.183 20.226 2.103 31.847-4.118 1.217-.651 2.732-.193 3.384 1.024.651 1.217.193 2.732-1.024 3.384-8.091 4.331-16.756 5.564-24.001 5.564z"/></g></g><g><path d="m88.768 59.656c-.556 0-1.115-.184-1.579-.563-7.045-5.749-13.067-13.468-17.898-22.945-6.574-12.897-8.784-24.82-8.875-25.321-.436-2.418.094-4.86 1.492-6.875 1.4-2.019 3.504-3.37 5.924-3.805 4.976-.9 9.767 2.422 10.674 7.401.01.053.919 4.841 3.321 11.349l.04-.106c.91-2.421 2.813-4.357 5.219-5.311 2.405-.953 5.123-.841 7.456.303 4.189 2.057 6.135 7.219 4.43 11.751l-3.976 10.577c-.887 2.358-.286 5.004 1.532 6.741 2.137 2.042 4.451 3.791 6.875 5.197 1.194.693 1.601 2.223.908 3.417-.693 1.195-2.222 1.602-3.417.908-2.767-1.605-5.398-3.592-7.821-5.907-3.269-3.124-4.351-7.879-2.758-12.116l3.977-10.577c.809-2.15-.049-4.567-1.954-5.502-1.085-.534-2.296-.584-3.41-.143s-1.96 1.302-2.382 2.422l-1.266 3.369c-.531 1.414-1.853 2.345-3.367 2.371-1.53.028-2.865-.861-3.444-2.256-3.562-8.594-4.871-15.525-4.883-15.593-.414-2.269-2.599-3.789-4.869-3.374-1.105.198-2.063.814-2.702 1.733-.638.919-.879 2.033-.68 3.136.085.47 2.165 11.69 8.409 23.94 4.514 8.854 10.101 16.034 16.605 21.341 1.07.873 1.229 2.448.356 3.518-.493.606-1.212.92-1.937.92z"/></g><g><path d="m199.675 204.281c-.001 0 0 0-.002 0-11.167-.001-21.091-5.817-26.55-15.558-.037-.066-.091-.163-.25-.163s-.213.097-.236.138c-5.47 9.761-15.396 15.578-26.563 15.578-.001 0 0 0 0 0-11.167 0-21.093-5.816-26.551-15.558-.034-.061-.088-.158-.247-.158s-.213.097-.237.139c-5.471 9.765-15.397 15.581-26.563 15.582-11.167 0-21.092-5.815-26.551-15.556-.038-.067-.093-.165-.251-.165-.159 0-.213.097-.236.138-5.468 9.758-15.395 15.574-26.561 15.574-.001 0-.001 0-.003 0-11.167-.001-21.093-5.818-26.55-15.562-.673-1.201-.251-2.725.947-3.403s2.715-.265 3.398.931c4.578 8.171 12.872 13.033 22.205 13.034h.002c9.333 0 17.627-4.86 22.189-13.001.94-1.678 2.702-2.711 4.607-2.711s3.667 1.033 4.598 2.695c4.577 8.166 12.872 13.026 22.204 13.026s17.627-4.861 22.188-13.002c.945-1.686 2.707-2.718 4.612-2.718s3.667 1.032 4.598 2.694c4.573 8.161 12.868 13.021 22.2 13.022 9.333 0 17.627-4.86 22.189-13.002.943-1.682 2.705-2.714 4.61-2.714s3.667 1.032 4.598 2.694c4.576 8.166 12.87 13.026 22.202 13.027h.001c9.332 0 17.626-4.86 22.188-13 .673-1.202 2.199-1.646 3.403-.977s1.647 2.172.982 3.378l-.016.028c-5.463 9.755-15.389 15.57-26.554 15.57z"/></g><g><path d="m199.675 171.781c-.001 0 0 0-.002 0-11.167-.001-21.091-5.817-26.55-15.558-.037-.066-.091-.163-.25-.163s-.213.097-.237.138c-5.47 9.761-15.396 15.578-26.562 15.578-.001 0 0 0 0 0-11.167 0-21.093-5.816-26.551-15.558-.034-.061-.088-.158-.247-.158s-.213.097-.237.139c-5.471 9.765-15.397 15.581-26.563 15.582-11.167 0-21.092-5.815-26.551-15.556-.038-.067-.093-.165-.251-.165-.159 0-.213.097-.236.138-5.468 9.758-15.395 15.574-26.561 15.574-.001 0-.001 0-.003 0-11.167-.001-21.093-5.818-26.55-15.562-.675-1.205-.245-2.728.959-3.403 1.205-.674 2.728-.246 3.403.959 4.561 8.143 12.855 13.004 22.188 13.005h.002c9.333 0 17.627-4.86 22.189-13.001.94-1.678 2.702-2.711 4.607-2.711s3.667 1.033 4.598 2.695c4.577 8.166 12.872 13.026 22.204 13.026s17.627-4.861 22.188-13.002c.945-1.686 2.707-2.718 4.612-2.718s3.667 1.032 4.598 2.694c4.573 8.161 12.868 13.021 22.2 13.022 9.333 0 17.627-4.86 22.189-13.002.943-1.682 2.705-2.714 4.61-2.714s3.667 1.032 4.598 2.694c4.576 8.166 12.87 13.026 22.202 13.027h.002c9.332 0 17.626-4.86 22.188-13 .673-1.202 2.199-1.647 3.403-.977 1.204.669 1.647 2.172.982 3.378-5.48 9.784-15.406 15.599-26.571 15.599z"/></g><g><path d="m199.675 236.781c-.001 0 0 0-.002 0-11.167-.001-21.091-5.817-26.55-15.558-.037-.066-.091-.163-.25-.163s-.213.097-.237.138c-5.47 9.761-15.396 15.578-26.562 15.578-.001 0 0 0 0 0-11.167 0-21.093-5.816-26.551-15.558-.034-.061-.088-.158-.247-.158s-.213.097-.237.139c-5.471 9.765-15.397 15.581-26.563 15.582-11.167 0-21.092-5.815-26.551-15.556-.038-.067-.093-.165-.251-.165-.159 0-.213.097-.236.138-5.468 9.758-15.395 15.574-26.561 15.574-.001 0-.001 0-.003 0-11.167-.001-21.093-5.818-26.55-15.562-.675-1.205-.245-2.728.959-3.403 1.205-.674 2.728-.246 3.403.959 4.561 8.143 12.855 13.004 22.188 13.005h.002c9.333 0 17.627-4.86 22.189-13.001.94-1.678 2.702-2.711 4.607-2.711s3.667 1.033 4.598 2.695c4.577 8.166 12.872 13.026 22.204 13.026s17.627-4.861 22.188-13.002c.945-1.686 2.707-2.718 4.612-2.718s3.667 1.032 4.598 2.694c4.573 8.161 12.868 13.021 22.2 13.022 9.333 0 17.627-4.86 22.189-13.002.943-1.682 2.705-2.714 4.61-2.714s3.667 1.032 4.598 2.694c4.576 8.166 12.87 13.026 22.202 13.027h.002c9.332 0 17.626-4.86 22.188-13 .673-1.203 2.199-1.647 3.403-.977 1.204.669 1.647 2.172.982 3.378l-.016.028c-5.464 9.756-15.39 15.571-26.555 15.571z"/></g><g><g><path d="m20.754 164.564c-.225 0-.454-.03-.681-.095-1.329-.375-2.102-1.757-1.726-3.085 1.446-5.117 5.259-9.311 10.199-11.219 1.217-.47 1.911-1.826 1.614-3.154-1.817-8.133 2.65-16.531 10.391-19.534 1.247-.484 1.965-1.85 1.67-3.177-1.806-8.125 2.663-16.515 10.395-19.514 1.247-.484 1.965-1.85 1.67-3.177-1.806-8.126 2.664-16.516 10.395-19.515 1.246-.483 1.961-1.856 1.666-3.194-1.06-4.797.042-9.847 3.022-13.856 2.96-3.982 7.321-6.379 12.279-6.75.895-.068 1.797-.053 2.76.041 1.374.135 2.378 1.358 2.243 2.732-.134 1.374-1.356 2.377-2.732 2.243-.672-.066-1.293-.076-1.897-.03-3.49.261-6.559 1.947-8.641 4.747-2.115 2.845-2.899 6.415-2.153 9.794.824 3.726-1.214 7.567-4.739 8.935-5.449 2.114-8.597 8.033-7.323 13.77.826 3.717-1.213 7.553-4.743 8.922-5.449 2.114-8.597 8.033-7.322 13.769.826 3.718-1.213 7.554-4.742 8.923-5.456 2.117-8.603 8.042-7.32 13.783.832 3.723-1.185 7.553-4.691 8.908-3.482 1.345-6.169 4.304-7.19 7.915-.31 1.099-1.313 1.818-2.404 1.818z"/></g></g><g><path d="m122.441 157.928c-.286 0-.577-.049-.862-.154-1.296-.476-1.96-1.913-1.484-3.209.74-2.013 1.424-3.961 2.034-5.792 1.816-5.451 4.1-10.648 6.787-15.45.674-1.205 2.197-1.636 3.402-.961 1.205.674 1.635 2.197.961 3.402-2.534 4.528-4.689 9.437-6.407 14.59-.626 1.878-1.327 3.875-2.084 5.935-.371 1.012-1.328 1.639-2.347 1.639z"/></g><g><path d="m32.34 170.583c-.465 0-.936-.13-1.355-.401-1.16-.75-1.492-2.297-.742-3.457l.771-1.191c4.276-6.608 8.872-12.824 12.804-18.032 6.108-8.092 11.443-19.125 16.312-33.727 6.991-20.975 18.883-32.517 25.349-37.529 1.091-.848 2.662-.646 3.507.444.846 1.091.647 2.662-.444 3.507-6.018 4.666-17.095 15.437-23.669 35.159-5.042 15.125-10.624 26.626-17.064 35.159-3.878 5.137-8.407 11.261-12.597 17.735l-.77 1.19c-.478.739-1.282 1.143-2.102 1.143z"/></g><g><path d="m162.251 79.814c-7.857 0-14.25-6.393-14.25-14.25s6.393-14.25 14.25-14.25 14.25 6.393 14.25 14.25-6.393 14.25-14.25 14.25zm0-23.5c-5.101 0-9.25 4.149-9.25 9.25s4.149 9.25 9.25 9.25 9.25-4.149 9.25-9.25-4.149-9.25-9.25-9.25z"/></g><g><path d="m220.461 93.417c-.529 0-1.063-.167-1.516-.513-5.223-3.989-7.063-9.068-7.688-12.627-.28-1.597-1.339-2.924-2.762-3.464-5.035-1.912-7.632-5.125-8.924-7.484-.664-1.211-.22-2.73.991-3.394 1.213-.664 2.73-.219 3.394.991 1.292 2.358 3.416 4.111 6.313 5.211 3.063 1.163 5.329 3.95 5.913 7.275.47 2.681 1.858 6.509 5.798 9.518 1.098.838 1.308 2.407.47 3.504-.492.644-1.236.983-1.989.983z"/></g><g><path d="m174.826 112.601c-.858 0-1.694-.443-2.16-1.237-1.744-2.977-2.666-6.366-2.666-9.8 0-6.064 2.756-11.68 7.561-15.407 1.091-.847 2.661-.648 3.507.443.847 1.091.648 2.661-.443 3.507-3.575 2.773-5.625 6.949-5.625 11.457 0 2.546.685 5.061 1.98 7.272.698 1.191.298 2.723-.894 3.421-.396.233-.831.344-1.26.344z"/></g><g><path d="m167.501 74.564c-4.962 0-9-4.038-9-9s4.038-9 9-9 9 4.038 9 9-4.038 9-9 9zm0-13c-2.206 0-4 1.794-4 4s1.794 4 4 4 4-1.794 4-4-1.794-4-4-4z"/></g></g></g></svg>