<svg enable-background="new 0 0 256 256" height="512" viewBox="0 0 256 256" width="512" xmlns="http://www.w3.org/2000/svg"><g id="Layer_55"><g><g><path d="m134.57 27.254c20.142 13.81 32.681 33.793 39.073 46.315 3.399 6.66 2.189 14.737-3.018 20.103l-3.267 3.366c-3.477 3.582-5.422 8.378-5.422 13.371v12.931h15.891c0-4.847 0-10.037 0-13.443 0-4.992 1.945-9.789 5.422-13.371l3.267-3.366c5.203-5.361 6.422-13.432 3.026-20.086-7.266-14.24-22.489-38.145-47.812-51.635-3.636-1.937-5.937-5.691-5.937-9.812v-2.524c0-2.706-2.193-4.899-4.899-4.899-2.683 0-4.867 2.158-4.899 4.84l-.02 1.689c-.079 6.598 3.153 12.79 8.595 16.521z" fill="#f5c84c"/></g><g><path d="m183.249 159.471c-3.477-3.582-5.422-8.378-5.422-13.371 0-3.646 0-7.959 0-13.187h-15.891v12.674c0 4.992 1.945 9.789 5.422 13.371l3.267 3.366c5.207 5.365 6.417 13.443 3.018 20.103-6.392 12.523-18.931 32.506-39.073 46.315-5.442 3.731-8.675 9.923-8.595 16.522l.02 1.689c.032 2.682 2.216 4.84 4.899 4.84 2.706 0 4.899-2.193 4.899-4.899v-2.523c0-4.12 2.301-7.874 5.937-9.812 25.322-13.49 40.546-37.395 47.812-51.635 3.395-6.654 2.177-14.726-3.026-20.086z" fill="#f5c84c"/></g><g><path d="m177.827 123.34c0-4.303 0-9.014 0-12.258h-15.891v12.258z" fill="#fc657e"/></g><g><path d="m161.937 132.913v12.001h15.891c0-3.501 0-7.321 0-12.001z" fill="#fc657e"/></g><g><path d="m159.594 33.835-8.527 7.552c10.392 10.876 17.594 22.606 22.062 31.197l13.737-4.507c-5.677-10.128-14.591-23.198-27.272-34.242z" fill="#fca265"/></g><g><path d="m173.129 183.412c-4.468 8.591-11.67 20.321-22.062 31.197l8.527 7.552c12.681-11.044 21.595-24.114 27.272-34.243z" fill="#fca265"/></g><g><path d="m198.745 131.296c.815-2.123.815-4.472 0-6.594l-.523-1.361h-163.882c-2.644 0-4.787 2.143-4.787 4.787s2.143 4.787 4.787 4.787h163.784z" fill="#c18e6b"/></g><g><path d="m225.118 125.727-27.007-15.191c-2.069-1.164-4.458.901-3.608 3.116l4.241 11.049c.815 2.123.815 4.472 0 6.594l-4.241 11.049c-.85 2.216 1.539 4.28 3.608 3.116l27.007-15.191c1.771-.996 1.771-3.545 0-4.542z" fill="#dae6f1"/></g><g><path d="m69.953 123.34-9.973-14.3c-1.459-2.093-3.85-3.34-6.401-3.34h-20.93c-2.427 0-3.851 2.73-2.463 4.72l9.01 12.92z" fill="#fc657e"/></g><g><path d="m39.197 132.913-8.95 12.646c-1.407 1.989.015 4.737 2.451 4.737h20.915c2.532 0 4.907-1.229 6.37-3.296l9.97-14.088h-30.756z" fill="#fc657e"/></g><g><path d="m60.35 182.2c-3.1-.6-5.6-3-6.2-6.1 0-.1-.3-.1-.3 0-.6 3.1-3.1 5.5-6.2 6.1-.1 0-.1.2 0 .3 3.1.6 5.6 3 6.2 6.1 0 .1.3.1.3 0 .6-3.1 3.1-5.5 6.2-6.1.1-.1.1-.3 0-.3z" fill="#fc657e"/></g><g><path d="m188.9 231.9h2.3v2.3c0 1.8 1.4 3.2 3.2 3.2 1.7 0 3.2-1.4 3.2-3.1v-.1-2.3h2.3c1.8 0 3.2-1.4 3.2-3.2 0-1.7-1.4-3.2-3.1-3.2h-.1-2.3v-2.3c0-1.8-1.4-3.2-3.2-3.2-1.7 0-3.2 1.4-3.2 3.1v.1 2.3h-2.3c-1.8 0-3.2 1.4-3.2 3.2-.1 1.7 1.3 3.2 3.2 3.2-.1 0-.1 0 0 0z" fill="#70d6f9"/></g><g><circle cx="165.3" cy="252.6" fill="#f5c84c" r="3.4"/></g><g><circle cx="104.3" cy="3.4" fill="#87d147" r="3.4"/></g><g><path d="m66.7 29.2c4.5-.8 8-4.3 8.9-8.7 0-.2.4-.2.4 0 .9 4.4 4.4 7.9 8.9 8.7.2 0 .2.3 0 .4-4.5.8-8 4.3-8.9 8.7 0 .2-.4.2-.4 0-.9-4.4-4.4-7.9-8.9-8.7-.2-.1-.2-.4 0-.4z" fill="#f5c84c"/></g><g><path d="m177.827 125.375c-1.381 0-2.5-1.119-2.5-2.5v-12.979c0-5.674 2.176-11.041 6.128-15.112l3.267-3.366c4.459-4.594 5.502-11.51 2.594-17.208-6.714-13.158-21.715-37.223-46.761-50.565-4.479-2.387-7.261-6.992-7.261-12.019v-2.523c0-1.322-1.076-2.398-2.399-2.398-1.307 0-2.383 1.063-2.398 2.37l-.021 1.688c-.07 5.765 2.736 11.158 7.508 14.429 20.058 13.753 32.762 33.281 39.887 47.241 3.886 7.615 2.499 16.851-3.451 22.98l-3.267 3.366c-3.041 3.133-4.716 7.263-4.716 11.63v12.174c0 1.381-1.119 2.5-2.5 2.5s-2.5-1.119-2.5-2.5v-12.174c0-5.675 2.177-11.042 6.128-15.112l3.267-3.366c4.46-4.594 5.499-11.517 2.586-17.225-6.862-13.444-19.07-32.232-38.261-45.391-6.151-4.217-9.771-11.175-9.681-18.613l.021-1.688c.049-4.03 3.367-7.31 7.398-7.31 4.08 0 7.399 3.319 7.399 7.398v2.523c0 3.176 1.768 6.09 4.612 7.606 26.253 13.985 41.883 39.024 48.862 52.705 3.881 7.604 2.491 16.833-3.459 22.963l-3.267 3.366c-3.041 3.133-4.716 7.264-4.716 11.63v12.979c.001 1.382-1.118 2.501-2.499 2.501z"/></g><g><path d="m130.895 254.293c-4.031 0-7.35-3.279-7.398-7.31l-.021-1.689c-.09-7.438 3.529-14.396 9.681-18.613 19.19-13.157 31.398-31.945 38.261-45.391 2.913-5.708 1.874-12.63-2.586-17.225l-3.267-3.366c-3.951-4.07-6.128-9.438-6.128-15.111v-11.713c0-1.381 1.119-2.5 2.5-2.5s2.5 1.119 2.5 2.5v11.713c0 4.366 1.675 8.496 4.716 11.629l3.267 3.366c5.95 6.13 7.338 15.365 3.451 22.98-7.126 13.961-19.83 33.489-39.886 47.24-4.771 3.271-7.579 8.666-7.509 14.43l.021 1.689c.016 1.307 1.092 2.37 2.398 2.37 1.323 0 2.399-1.076 2.399-2.399v-2.523c0-5.026 2.782-9.631 7.261-12.018 25.046-13.343 40.047-37.407 46.761-50.564 2.907-5.7 1.865-12.616-2.594-17.21l-3.267-3.366c-3.952-4.071-6.128-9.438-6.128-15.111v-12.226c0-1.381 1.119-2.5 2.5-2.5s2.5 1.119 2.5 2.5v12.226c0 4.366 1.675 8.496 4.716 11.629l3.267 3.366c5.95 6.13 7.34 15.358 3.459 22.964-6.979 13.681-22.609 38.72-48.862 52.705-2.845 1.517-4.612 4.431-4.612 7.605v2.523c-.001 4.081-3.32 7.4-7.4 7.4z"/></g><g><path d="m197.25 135.413h-162.91c-4.018 0-7.286-3.269-7.286-7.286 0-4.019 3.269-7.287 7.286-7.287h163.202c1.381 0 2.5 1.119 2.5 2.5s-1.119 2.5-2.5 2.5h-163.202c-1.261 0-2.286 1.026-2.286 2.287s1.025 2.286 2.286 2.286h162.91c1.381 0 2.5 1.119 2.5 2.5s-1.119 2.5-2.5 2.5z"/></g><g><path d="m196.858 148.297c-1.174 0-2.335-.419-3.28-1.235-1.625-1.404-2.178-3.607-1.408-5.612l4.241-11.049c.594-1.549.594-3.255 0-4.804l-4.241-11.049c-.77-2.006-.217-4.209 1.409-5.613 1.626-1.405 3.886-1.631 5.759-.577l27.006 15.191c1.605.902 2.603 2.607 2.603 4.45 0 1.842-.997 3.547-2.603 4.449l-27.007 15.191c-.783.441-1.635.658-2.479.658zm.028-35.582 4.193 11.091c1.037 2.704 1.037 5.682 0 8.386l-4.241 11.049 27.055-15.149c.03-.018.054-.03.054-.092 0-.063-.023-.075-.054-.093z"/></g><g><path d="m137.962 239.165c-.648 0-1.296-.251-1.786-.751l-83.941-85.688c-.966-.986-.949-2.568.037-3.535.986-.966 2.568-.949 3.535.037l83.941 85.688c.966.986.949 2.568-.037 3.535-.486.477-1.118.714-1.749.714z"/></g><g><path d="m53.552 107.952c-.632 0-1.264-.237-1.75-.715-.986-.966-1.002-2.549-.035-3.535l84.654-86.371c.966-.985 2.549-1.004 3.535-.035.986.966 1.002 2.549.035 3.535l-84.654 86.371c-.489.499-1.137.75-1.785.75z"/></g><g><path d="m224.445 130.498h-24.371c-1.381 0-2.5-1.119-2.5-2.5s1.119-2.5 2.5-2.5h24.371c1.381 0 2.5 1.119 2.5 2.5s-1.119 2.5-2.5 2.5z"/></g><g><path d="m69.667 125.428c-.789 0-1.566-.373-2.053-1.07l-9.686-13.888c-.991-1.421-2.617-2.27-4.35-2.27h-20.93c-.202 0-.353.091-.446.271-.093.179-.082.354.033.519l8.392 12.033c.79 1.132.512 2.69-.621 3.48-1.131.79-2.689.513-3.48-.621l-8.391-12.032c-1.177-1.687-1.317-3.868-.365-5.691.951-1.825 2.821-2.958 4.879-2.958h20.93c3.367 0 6.526 1.648 8.451 4.41l9.686 13.888c.79 1.132.512 2.69-.621 3.48-.436.303-.934.449-1.428.449z"/></g><g><path d="m53.613 152.797h-20.916c-2.065 0-3.938-1.14-4.888-2.975-.948-1.835-.797-4.022.397-5.708l8.684-12.271c.798-1.128 2.36-1.391 3.485-.597 1.127.798 1.394 2.358.597 3.485l-8.685 12.271c-.118.166-.13.341-.037.521.094.18.243.271.446.271h20.916c1.719 0 3.336-.837 4.328-2.239l9.598-13.562c.799-1.128 2.359-1.392 3.485-.597 1.127.798 1.394 2.358.597 3.485l-9.598 13.561c-1.925 2.728-5.07 4.355-8.409 4.355z"/></g><g><path d="m176.938 113.582h-14.063c-1.381 0-2.5-1.119-2.5-2.5s1.119-2.5 2.5-2.5h14.063c1.381 0 2.5 1.119 2.5 2.5s-1.119 2.5-2.5 2.5z"/></g><g><path d="m176.906 147.414h-14.313c-1.381 0-2.5-1.119-2.5-2.5s1.119-2.5 2.5-2.5h14.313c1.381 0 2.5 1.119 2.5 2.5s-1.119 2.5-2.5 2.5z"/></g><g><path d="m151.596 43.42c-.69 0-1.378-.284-1.872-.843-.916-1.033-.82-2.613.214-3.528l7.331-6.493c1.033-.916 2.612-.821 3.528.214.916 1.033.82 2.613-.214 3.528l-7.331 6.493c-.476.422-1.067.629-1.656.629z"/></g><g><path d="m173.714 74.894c-1.052 0-2.03-.669-2.375-1.722-.431-1.312.284-2.725 1.596-3.154l12.521-4.107c1.315-.433 2.725.285 3.154 1.596.431 1.312-.284 2.725-1.596 3.154l-12.521 4.107c-.259.085-.521.126-.779.126z"/></g><g><path d="m158.97 224.109c-.589 0-1.181-.207-1.656-.629l-7.501-6.644c-1.034-.915-1.13-2.495-.214-3.528.913-1.033 2.495-1.131 3.528-.214l7.501 6.644c1.034.915 1.13 2.495.214 3.528-.493.558-1.182.843-1.872.843z"/></g><g><path d="m186.23 190.212c-.258 0-.521-.041-.779-.126l-12.58-4.128c-1.313-.43-2.026-1.843-1.596-3.154s1.84-2.026 3.154-1.596l12.58 4.128c1.313.43 2.026 1.843 1.596 3.154-.344 1.053-1.323 1.722-2.375 1.722z"/></g></g></g></svg>