<svg enable-background="new 0 0 256 256" height="512" viewBox="0 0 256 256" width="512" xmlns="http://www.w3.org/2000/svg"><g id="Layer_30"><g><g><path d="m142.504 212.716v10.562h43.682v-10.562c0-.925-.75-1.675-1.675-1.675h-40.333c-.924 0-1.674.75-1.674 1.675z" fill="#dae6f1"/></g><g><path d="m141.081 253.5c-1.02 0-1.847-.829-1.847-1.849 0-12.339 0-23.298 0-26.699 0-.925.75-1.675 1.675-1.675h47.69c.925 0 1.675.75 1.675 1.675v26.7c0 1.02-.827 1.848-1.847 1.848z" fill="#70d6f9"/></g><g><path d="m223.323 105.96c-3.593-.394-6.884 2.097-7.835 5.584l-8.184 30.021-.009.017c.248-2.222-.202-4.206-1.822-5.595-6.982-5.991-13.61 4.302-19.873 11.601-3.867 4.507-12.385 9.538-18.337 12.729-4.32 2.316-8.027 5.614-10.813 9.647-5.002 7.239-8.886 15.829-8.886 24.628v16.449h34.682v-2.383c0-11.376 5.627-21.358 14.358-27.399l10.343-7.158c9.538-6.6 16.09-16.693 18.238-28.091l4.567-31.797c.575-4.013-2.256-7.795-6.429-8.253z" fill="#f9d0b4"/></g><g><path d="m113.496 212.716v10.562h-43.682v-10.562c0-.925.75-1.675 1.675-1.675h40.333c.924 0 1.674.75 1.674 1.675z" fill="#dae6f1"/></g><g><path d="m114.919 253.5c1.02 0 1.847-.829 1.847-1.849 0-12.339 0-23.298 0-26.699 0-.925-.75-1.675-1.675-1.675h-47.69c-.925 0-1.675.75-1.675 1.675v26.7c0 1.02.827 1.848 1.847 1.848z" fill="#70d6f9"/></g><g><path d="m32.677 105.96c3.593-.394 6.884 2.097 7.835 5.584l8.184 30.021.009.017c-.248-2.222.202-4.206 1.822-5.595 6.982-5.991 13.61 4.302 19.873 11.601 3.867 4.507 12.385 9.538 18.337 12.729 4.32 2.316 8.027 5.614 10.813 9.647 5.002 7.239 8.886 15.829 8.886 24.628v16.449h-34.682v-2.383c0-11.376-5.627-21.358-14.358-27.399l-10.343-7.158c-9.538-6.6-16.09-16.693-18.238-28.091l-4.567-31.797c-.575-4.013 2.256-7.795 6.429-8.253z" fill="#f9d0b4"/></g><g><circle cx="128" cy="76.876" fill="#6cadef" r="74.376"/></g><g><path d="m202.376 76.876c0-27.03-14.421-50.688-35.987-63.71-3.823.971-10.672 3.75-13.905 11.509-4.395 10.549 14.783 2.772 19.402 14.783 4.62 12.011 4.62 14.783 12.011 17.554 7.391 2.772 8.315 22.174-2.772 26.794s-20.326 16.631-16.631 24.946c3.696 8.315 4.62 16.631-1.848 23.098-3.473 3.473-3.215 8.276-2.233 11.981 24.837-12.047 41.963-37.5 41.963-66.955z" fill="#b2e26d"/></g><g><path d="m134.602 24.959c-11.063-4.896-27.047 6.936-42.173 2.487-6.916-2.034-12.755-2.814-17.127-3.05-10.86 10.905-18.358 25.159-20.807 41.079 5.016 3.04 10.217 7.112 10.217 10.938 0 3.885-5.361 7.514-10.447 10.083 2.996 23.181 16.651 43.009 35.904 54.409 1.49-8.095 5.945-17.349 8.728-22.916 4.62-9.239-5.544-10.163-12.935-17.555-7.391-7.391-2.772-16.631 2.772-21.25s14.783 2.772 22.174 2.772 12.935-.924 17.554-5.544c4.62-4.62 0-12.011-6.467-18.478s-4.62-16.631 6.467-21.25c7.527-3.136 8.241-7.124 7.923-9.362-.148-1.037-.824-1.939-1.783-2.363z" fill="#b2e26d"/></g><g><path d="m145.85 108.977c-4.554 4.554-11.138 4.033-16.076 2.678-4.032-1.106-6.807-4.795-6.807-8.977 0-3.318 1.726-6.455 4.636-8.051 5.079-2.786 8.199-8.774 13.344-3.63 6.537 6.539 13.075 9.808 4.903 17.98z" fill="#b2e26d"/></g><g><path d="m101.268 138.185c-2.24.615-3.782 2.664-3.782 4.987 0 .569.101 1.124.275 1.651 3.457 1.541 7.049 2.828 10.76 3.833 3.211-3.001 5.778-4.883 1.678-8.983-2.53-2.53-6.188-2.24-8.931-1.488z" fill="#b2e26d"/></g><g><path d="m197.885 161.457c-.575 0-1.154-.198-1.626-.603-1.048-.898-1.169-2.477-.271-3.525 3.776-4.409 9.513-13.09 8.823-17.615-.208-1.365.73-2.64 2.096-2.848 1.361-.205 2.64.73 2.848 2.095 1.257 8.256-8.818 20.279-9.972 21.623-.494.577-1.194.873-1.898.873z"/></g><g><path d="m186.187 225.095c-1.381 0-2.5-1.119-2.5-2.5v-9.054h-38.682v8.833c0 1.381-1.119 2.5-2.5 2.5s-2.5-1.119-2.5-2.5v-9.659c0-2.302 1.872-4.175 4.174-4.175h40.333c2.302 0 4.175 1.873 4.175 4.175v9.879c0 1.382-1.12 2.501-2.5 2.501z"/></g><g><path d="m188.427 256h-47.346c-2.396 0-4.347-1.951-4.347-4.35v-26.699c0-2.302 1.873-4.174 4.175-4.174h47.69c2.302 0 4.175 1.873 4.175 4.174v26.7c0 2.398-1.95 4.349-4.347 4.349zm-46.693-5h46.04v-25.223h-46.04z"/></g><g><path d="m147.563 212.375c-1.381 0-2.5-1.119-2.5-2.5v-15.283c0-8.324 3.139-17.089 9.329-26.049 2.989-4.327 7.031-7.933 11.689-10.43 8.588-4.604 14.846-8.92 17.62-12.153.817-.953 1.641-1.957 2.471-2.968 4.355-5.311 8.859-10.802 14.219-11.272 2.267-.194 4.428.518 6.424 2.131l6.26-22.965c1.293-4.741 5.795-7.93 10.521-7.412 2.674.294 5.046 1.617 6.682 3.726 1.636 2.11 2.327 4.728 1.948 7.369l-4.567 31.796c-.005.036-.011.072-.018.107-2.284 12.123-9.128 22.665-19.271 29.684l-10.343 7.158c-8.315 5.754-13.28 15.229-13.28 25.343v1.217c0 1.381-1.119 2.5-2.5 2.5s-2.5-1.119-2.5-2.5v-1.217c0-11.755 5.77-22.767 15.435-29.455l10.343-7.158c9.04-6.256 15.145-15.647 17.193-26.446l4.56-31.742c.185-1.288-.153-2.565-.951-3.595-.798-1.029-1.961-1.675-3.274-1.819-2.286-.251-4.499 1.365-5.151 3.757l-8.184 30.021c-.056.204-.137.399-.241.583-.589 1.031-1.826 1.514-2.951 1.145-1.127-.368-1.846-1.468-1.714-2.646.237-2.12-.437-2.967-.965-3.419-1.372-1.177-2.376-1.236-3.017-1.183-3.264.286-7.262 5.161-10.79 9.462-.854 1.041-1.7 2.074-2.541 3.053-4.059 4.729-12.602 9.845-19.053 13.304-3.962 2.124-7.398 5.189-9.938 8.865-5.523 7.995-8.442 16.021-8.442 23.208v15.283c-.003 1.381-1.122 2.5-2.503 2.5z"/></g><g><path d="m58.115 161.457c-.704 0-1.403-.296-1.898-.872-1.153-1.344-11.229-13.367-9.972-21.623.207-1.365 1.483-2.299 2.848-2.095 1.365.208 2.304 1.483 2.096 2.848-.691 4.536 5.045 13.211 8.823 17.614.898 1.048.778 2.626-.27 3.525-.471.405-1.051.603-1.627.603z"/></g><g><path d="m69.813 225c-1.381 0-2.5-1.119-2.5-2.5v-9.784c0-2.302 1.873-4.175 4.175-4.175h40.333c2.302 0 4.174 1.873 4.174 4.175v9.471c0 1.381-1.119 2.5-2.5 2.5s-2.5-1.119-2.5-2.5v-8.646h-38.682v8.958c0 1.381-1.119 2.501-2.5 2.501z"/></g><g><path d="m114.919 256h-47.346c-2.397 0-4.348-1.951-4.348-4.349v-26.7c0-2.302 1.873-4.174 4.175-4.174h47.69c2.302 0 4.175 1.873 4.175 4.174v26.699c.001 2.399-1.95 4.35-4.346 4.35zm-46.693-5h46.04v-25.223h-46.04z"/></g><g><path d="m108.437 213.021c-1.381 0-2.5-1.119-2.5-2.5v-15.929c0-7.187-2.919-15.212-8.442-23.208-2.54-3.676-5.977-6.741-9.938-8.864-6.452-3.459-14.995-8.575-19.054-13.304-.841-.979-1.688-2.013-2.541-3.053-3.528-4.301-7.526-9.176-10.79-9.462-.635-.053-1.645.006-3.017 1.183-.528.453-1.202 1.3-.965 3.419.132 1.178-.582 2.287-1.709 2.655-1.127.371-2.357-.107-2.946-1.136-.104-.183-.195-.396-.251-.6l-8.184-30.021c-.652-2.392-2.868-4.016-5.151-3.757-1.313.144-2.477.79-3.274 1.819-.798 1.03-1.136 2.307-.951 3.595l4.56 31.742c2.049 10.799 8.153 20.19 17.193 26.446l10.343 7.158c9.665 6.688 15.435 17.699 15.435 29.455v1.467c0 1.381-1.119 2.5-2.5 2.5s-2.5-1.119-2.5-2.5v-1.467c0-10.115-4.965-19.589-13.28-25.343l-10.343-7.158c-10.144-7.02-16.987-17.562-19.271-29.684-.007-.036-.013-.071-.018-.107l-4.567-31.796c-.379-2.642.313-5.259 1.948-7.369 1.636-2.109 4.008-3.432 6.682-3.726 4.706-.512 9.228 2.671 10.521 7.412l6.26 22.965c1.996-1.614 4.158-2.33 6.424-2.131 5.359.47 9.863 5.961 14.219 11.272.83 1.012 1.653 2.016 2.471 2.968 2.774 3.232 9.032 7.549 17.621 12.153 4.657 2.496 8.699 6.103 11.688 10.429 6.19 8.96 9.329 17.725 9.329 26.049v15.929c-.002 1.38-1.122 2.499-2.502 2.499z"/></g><g><path d="m47.35 198.2c-3.1-.6-5.6-3-6.2-6.1 0-.1-.3-.1-.3 0-.6 3.1-3.1 5.5-6.2 6.1-.1 0-.1.2 0 .3 3.1.6 5.6 3 6.2 6.1 0 .1.3.1.3 0 .6-3.1 3.1-5.5 6.2-6.1.1-.1.1-.3 0-.3z" fill="#fc657e"/></g><g><path d="m225.9 187.9h2.3v2.3c0 1.8 1.4 3.2 3.2 3.2 1.7 0 3.2-1.4 3.2-3.1v-.1-2.3h2.3c1.8 0 3.2-1.4 3.2-3.2 0-1.7-1.4-3.2-3.1-3.2h-.1-2.3v-2.3c0-1.8-1.4-3.2-3.2-3.2-1.7 0-3.2 1.4-3.2 3.1v.1 2.3h-2.3c-1.8 0-3.2 1.4-3.2 3.2-.1 1.7 1.3 3.2 3.2 3.2-.1 0-.1 0 0 0z" fill="#70d6f9"/></g><g><circle cx="206.3" cy="202.9" fill="#f5c84c" r="3.4"/></g><g><circle cx="73.3" cy="3.4" fill="#87d147" r="3.4"/></g><g><path d="m32.7 23.2c4.5-.8 8-4.3 8.9-8.7 0-.2.4-.2.4 0 .9 4.4 4.4 7.9 8.9 8.7.2 0 .2.3 0 .4-4.5.8-8 4.3-8.9 8.7 0 .2-.4.2-.4 0-.9-4.4-4.4-7.9-8.9-8.7-.2-.1-.2-.4 0-.4z" fill="#f5c84c"/></g><g><path d="m128 153.751c-42.39 0-76.876-34.486-76.876-76.876 0-42.389 34.486-76.875 76.876-76.875s76.876 34.486 76.876 76.875c0 42.39-34.486 76.876-76.876 76.876zm0-148.751c-39.633 0-71.876 32.243-71.876 71.875s32.243 71.876 71.876 71.876 71.876-32.244 71.876-71.876-32.243-71.875-71.876-71.875z"/></g><g><path d="m160.289 145.842c-1.129 0-2.152-.77-2.429-1.916-1.374-5.708-.33-10.496 3.02-13.845 4.893-4.893 5.315-11.348 1.331-20.315-1.465-3.294-1.385-7.181.23-11.24 2.796-7.024 9.753-13.708 17.722-17.029 5.147-2.145 6.876-8.342 6.792-12.999-.08-4.475-1.735-8.322-3.936-9.147-7.433-2.787-8.618-5.984-11.786-14.527-.492-1.329-1.042-2.812-1.68-4.471-1.797-4.671-6.547-5.533-11.14-6.367-3.575-.649-6.951-1.262-8.437-3.993-.922-1.694-.856-3.749.199-6.282 3.509-8.421 10.813-11.616 14.855-12.771 1.331-.379 2.711.391 3.091 1.717.379 1.328-.39 2.711-1.718 3.09-3.881 1.108-9.046 3.724-11.613 9.886-.63 1.513-.425 1.965-.423 1.97.342.627 3.219 1.15 4.938 1.462 5.109.927 12.107 2.198 14.912 9.492.646 1.681 1.203 3.181 1.702 4.527 3.016 8.133 3.559 9.598 8.854 11.583 4.239 1.59 7.058 6.983 7.179 13.739.112 6.224-2.405 14.594-9.867 17.704-6.685 2.785-12.713 8.517-15 14.263-.771 1.938-1.451 4.788-.308 7.36 4.801 10.803 4.006 19.511-2.364 25.881-2.082 2.083-2.652 5.157-1.693 9.14.323 1.342-.503 2.692-1.846 3.016-.194.049-.392.072-.585.072z"/></g><g><path d="m54.876 88.685c-.902 0-1.774-.49-2.22-1.347-.638-1.225-.161-2.734 1.063-3.372 7.879-4.099 8.491-6.817 8.491-7.553 0-.752-.608-3.583-8.433-8.445-1.173-.729-1.533-2.27-.804-3.443.729-1.174 2.271-1.532 3.442-.804 7.264 4.513 10.794 8.665 10.794 12.692 0 4.152-3.658 8.074-11.183 11.989-.367.192-.761.283-1.15.283z"/></g><g><path d="m90.289 142.795c-.163 0-.328-.016-.494-.049-1.354-.271-2.231-1.589-1.96-2.943 1.568-7.818 5.54-16.362 8.825-22.931 2.066-4.133.607-5.321-4.771-8.8-2.424-1.568-5.171-3.345-7.694-5.869-3.163-3.162-4.736-6.997-4.551-11.088.225-4.952 3.024-10.129 7.489-13.85 4.493-3.745 10.357-1.68 15.532.144 2.858 1.007 5.814 2.048 8.242 2.048 6.951 0 11.764-.787 15.787-4.811.864-.865 1.846-2.406.394-5.794-1.122-2.619-3.495-5.783-6.861-9.149-3.577-3.577-5.105-8.27-4.194-12.875 1.051-5.313 5.231-9.852 11.468-12.45 4.481-1.867 6.758-4.248 6.409-6.703-.026-.187-.151-.355-.318-.429-4.654-2.06-10.93-.516-17.572 1.122-7.477 1.842-15.949 3.931-24.295 1.477-5.419-1.594-10.744-2.572-15.828-2.908-1.378-.091-2.421-1.282-2.329-2.66.091-1.378 1.284-2.417 2.659-2.33 5.449.36 11.138 1.403 16.908 3.1 7.049 2.072 14.491.239 21.688-1.534 7.496-1.847 14.575-3.592 20.791-.84 1.734.767 2.979 2.414 3.247 4.299.404 2.853-.283 8.208-9.437 12.021-4.672 1.946-7.765 5.156-8.486 8.806-.591 2.984.412 5.957 2.824 8.369 3.866 3.866 6.532 7.471 7.922 10.715 2.441 5.696.557 9.289-1.454 11.299-5.208 5.208-11.49 6.275-19.322 6.275-3.282 0-6.648-1.186-9.903-2.333-5.048-1.778-8.521-2.809-10.67-1.019-2.629 2.19-5.505 6.029-5.695 10.235-.122 2.688.918 5.153 3.091 7.327 2.148 2.148 4.551 3.703 6.874 5.206 5.011 3.241 10.689 6.914 6.529 15.235-3.146 6.291-6.944 14.44-8.396 21.678-.239 1.188-1.283 2.009-2.449 2.009z"/></g><g><path d="m136.294 115.114c-2.229 0-4.63-.348-7.182-1.047-5.091-1.396-8.646-6.079-8.646-11.388 0-4.311 2.273-8.235 5.934-10.244 1.189-.653 2.328-1.569 3.43-2.456 3.008-2.421 7.554-6.082 12.884-.75.947.947 1.901 1.83 2.824 2.683 3.513 3.249 6.546 6.055 6.624 10.074.055 2.819-1.39 5.602-4.545 8.758-2.899 2.902-6.744 4.37-11.323 4.37zm.706-23.641c-.942 0-2.03.789-4.035 2.402-1.211.975-2.583 2.08-4.16 2.944-2.059 1.13-3.338 3.375-3.338 5.86 0 3.063 2.043 5.763 4.968 6.565 4.159 1.142 9.9 1.713 13.647-2.035 2.07-2.071 3.107-3.795 3.081-5.125-.037-1.892-2.346-4.027-5.021-6.501-.958-.886-1.948-1.802-2.964-2.818-.857-.856-1.477-1.292-2.178-1.292z"/></g><g><path d="m108.979 150.731c-.673 0-1.344-.27-1.836-.802-.938-1.013-.876-2.595.137-3.533l.101-.093c1.081-.999 2.425-2.242 2.437-2.822.002-.107-.056-.709-1.386-2.04-1.369-1.369-3.556-1.653-6.503-.844-1.144.313-1.942 1.373-1.942 2.576 0 .136.013.278.037.422.231 1.361-.685 2.652-2.046 2.884-1.362.23-2.652-.685-2.884-2.046-.071-.42-.107-.844-.107-1.26 0-3.448 2.312-6.491 5.62-7.398 4.739-1.3 8.666-.562 11.36 2.131 1.98 1.98 2.886 3.783 2.85 5.672-.053 2.708-1.989 4.5-4.04 6.396l-.1.092c-.482.445-1.09.665-1.698.665z"/></g></g></g></svg>