<svg enable-background="new 0 0 256 256" height="512" viewBox="0 0 256 256" width="512" xmlns="http://www.w3.org/2000/svg"><g id="Layer_37"><g><g><path d="m199.3 164.43c0 55.293-31.922 77.745-71.3 77.745s-71.3-22.451-71.3-77.745 31.922-109.626 71.3-109.626 71.3 54.332 71.3 109.626z" fill="#f5c84c"/></g><g><path d="m197.861 13.826c-21.087 0-39.452 19.805-49.035 46.17 28.523 14.489 49.455 57.218 50.434 101.219 30.332-.529 54.696-18.298 54.696-61.141.001-43.502-25.114-86.248-56.095-86.248z" fill="#5290db"/></g><g><path d="m107.561 59.804c-9.602-26.269-27.929-45.979-48.965-45.979-30.981.001-56.096 42.747-56.096 86.249 0 42.628 24.12 60.434 54.24 61.133.986-44.197 22.102-87.106 50.821-101.403z" fill="#87d147"/></g><g><path d="m65.425 114.174h125.15c-2.13-5.956-4.613-11.654-7.404-17h-110.342c-2.791 5.347-5.274 11.044-7.404 17z" fill="#fcdd86"/></g><g><path d="m196.385 135.228-7.291 5.571c-1.176.899-2.809.899-3.985 0l-10.795-8.249c-1.176-.899-2.809-.899-3.985 0l-10.793 8.248c-1.176.899-2.809.899-3.985 0l-10.792-8.248c-1.177-.899-2.81-.899-3.986 0l-10.787 8.247c-1.176.899-2.809.9-3.986 0l-10.791-8.247c-1.177-.899-2.809-.899-3.986 0l-10.789 8.247c-1.176.899-2.81.899-3.986 0l-10.788-8.247c-1.177-.899-2.81-.899-3.986 0l-10.787 8.247c-1.177.899-2.81.9-3.986 0l-7.286-5.569c-1 5.017-1.755 10.126-2.245 15.284l9.53 7.285c1.177.899 2.81.899 3.986 0l10.787-8.247c1.177-.9 2.81-.9 3.986 0l10.788 8.247c1.176.899 2.81.899 3.986 0l10.789-8.247c1.176-.899 2.809-.899 3.986 0l10.791 8.247c1.177.899 2.81.899 3.986 0l10.787-8.247c1.176-.899 2.809-.899 3.986 0l10.792 8.248c1.176.899 2.809.899 3.985 0l10.793-8.248c1.176-.899 2.809-.899 3.985 0l10.795 8.249c1.176.899 2.809.899 3.985 0l9.536-7.287c-.489-5.158-1.244-10.267-2.244-15.284z" fill="#fc8c48"/></g><g><path d="m185.109 213.799-10.795-8.249c-1.176-.899-2.809-.899-3.985 0l-10.793 8.248c-1.176.899-2.809.899-3.985 0l-10.792-8.248c-1.177-.899-2.81-.899-3.986 0l-10.787 8.247c-1.176.899-2.809.9-3.986 0l-10.791-8.247c-1.177-.899-2.809-.899-3.986 0l-10.789 8.247c-1.176.899-2.81.899-3.986 0l-10.788-8.247c-1.177-.899-2.81-.899-3.986 0l-10.787 8.247c-.39.298-.833.488-1.29.589 12.895 19.313 34.238 27.788 58.404 27.788 24.165 0 45.508-8.475 58.403-27.786-.46-.1-.903-.29-1.295-.589z" fill="#fc657e"/></g><g><path d="m251.663 77.099-5.736 4.383c-.925.707-2.21.707-3.135 0l-8.493-6.49c-.925-.707-2.21-.707-3.135 0l-8.492 6.49c-.926.707-2.21.707-3.135 0l-8.491-6.489c-.926-.708-2.21-.708-3.136 0l-8.487 6.488c-.926.708-2.21.708-3.136 0l-8.49-6.489c-.926-.708-2.21-.708-3.136 0l-8.488 6.489c-.772.59-1.791.681-2.646.287 2.351 3.135 4.573 6.488 6.655 10.023l4.479-3.424c.926-.707 2.21-.707 3.136 0l8.49 6.489c.926.708 2.21.707 3.136 0l8.487-6.488c.926-.708 2.21-.708 3.136 0l8.491 6.489c.925.707 2.21.707 3.135 0l8.492-6.49c.925-.707 2.21-.707 3.135 0l8.493 6.49c.925.707 2.21.707 3.135 0l7.503-5.733c-.386-4.058-.98-8.078-1.767-12.025z" fill="#f98fa6"/></g><g><path d="m242.792 138.916-8.493-6.49c-.925-.707-2.21-.707-3.135 0l-8.492 6.49c-.926.707-2.21.707-3.135 0l-8.491-6.489c-.926-.708-2.21-.708-3.136 0l-8.487 6.488c-.663.506-1.508.644-2.275.425 1.225 7.17 1.948 14.501 2.112 21.869 18.432-.323 34.655-7.012 44.55-21.83-.361-.078-.71-.228-1.018-.463z" fill="#70d6f9"/></g><g><path d="m149.856 60.535h97.236c-1.676-4.686-3.629-9.168-5.825-13.375h-86.812c-2.112 4.044-3.991 8.348-5.623 12.838.342.175.683.355 1.024.537z" fill="#6cadef"/></g><g><path d="m107.553 59.808c-1.616-4.42-3.47-8.661-5.551-12.647h-86.812c-2.196 4.206-4.149 8.689-5.825 13.375h96.779c.468-.251.937-.493 1.409-.728z" fill="#b2e26d"/></g><g><path d="m60.158 94.856 8.487-6.488c.926-.708 2.21-.708 3.136 0l4.175 3.191c2-3.379 4.129-6.588 6.377-9.599-.708.138-1.459-.018-2.061-.478l-8.491-6.489c-.926-.708-2.21-.708-3.136 0l-8.487 6.488c-.926.708-2.21.708-3.136 0l-8.49-6.489c-.926-.708-2.21-.708-3.136 0l-8.488 6.489c-.926.708-2.21.708-3.136 0l-8.488-6.488c-.926-.708-2.211-.708-3.136 0l-8.487 6.488c-.926.708-2.21.708-3.136 0l-5.732-4.381c-.787 3.947-1.381 7.967-1.766 12.025l7.498 5.731c.926.708 2.21.708 3.136 0l8.487-6.488c.926-.708 2.211-.708 3.136 0l8.488 6.488c.926.708 2.21.708 3.136 0l8.488-6.489c.926-.707 2.21-.707 3.136 0l8.49 6.489c.925.708 2.21.708 3.136 0z" fill="#70d6f9"/></g><g><path d="m58.838 139.426c-.633.061-1.284-.104-1.816-.51l-8.49-6.489c-.926-.708-2.21-.708-3.136 0l-8.488 6.489c-.926.708-2.21.708-3.136 0l-8.488-6.488c-.926-.708-2.211-.708-3.136 0l-8.487 6.488c-.307.235-.655.384-1.015.463 9.813 14.696 25.85 21.396 44.094 21.821.164-7.336.882-14.635 2.098-21.774z" fill="#f5c84c"/></g><g><path d="m39.35 187.2c-3.1-.6-5.6-3-6.2-6.1 0-.1-.3-.1-.3 0-.6 3.1-3.1 5.5-6.2 6.1-.1 0-.1.2 0 .3 3.1.6 5.6 3 6.2 6.1 0 .1.3.1.3 0 .6-3.1 3.1-5.5 6.2-6.1.1-.1.1-.3 0-.3z" fill="#fc657e"/></g><g><path d="m107.9 21.9h2.3v2.3c0 1.8 1.4 3.2 3.2 3.2 1.7 0 3.2-1.4 3.2-3.1v-.1-2.3h2.3c1.8 0 3.2-1.4 3.2-3.2 0-1.7-1.4-3.2-3.1-3.2h-.1-2.3v-2.3c0-1.8-1.4-3.2-3.2-3.2-1.7 0-3.2 1.4-3.2 3.1v.1 2.3h-2.3c-1.8 0-3.2 1.4-3.2 3.2-.1 1.7 1.3 3.2 3.2 3.2-.1 0-.1 0 0 0z" fill="#70d6f9"/></g><g><circle cx="171.3" cy="252.6" fill="#87d147" r="3.4"/></g><g><circle cx="141.3" cy="3.4" fill="#f5c84c" r="3.4"/></g><g><path d="m193.7 234.2c4.5-.8 8-4.3 8.9-8.7 0-.2.4-.2.4 0 .9 4.4 4.4 7.9 8.9 8.7.2 0 .2.3 0 .4-4.5.8-8 4.3-8.9 8.7 0 .2-.4.2-.4 0-.9-4.4-4.4-7.9-8.9-8.7-.2-.1-.2-.4 0-.4z" fill="#f5c84c"/></g><g><path d="m128 244.674c-21.422 0-39.458-6.516-52.158-18.844-14.361-13.939-21.642-34.597-21.642-61.4 0-27.39 7.752-55.411 21.268-76.88 14.309-22.729 32.965-35.246 52.532-35.246s38.223 12.517 52.533 35.246c13.516 21.469 21.268 49.49 21.268 76.88 0 26.803-7.281 47.461-21.642 61.401-12.701 12.327-30.737 18.843-52.159 18.843zm0-187.37c-17.787 0-34.94 11.688-48.301 32.91-13.028 20.692-20.499 47.743-20.499 74.216 0 47.819 25.077 75.245 68.8 75.245s68.8-27.426 68.8-75.245c0-26.473-7.472-53.523-20.499-74.216-13.361-21.222-30.514-32.91-48.301-32.91z"/></g><g><path d="m175 88.674h-94c-1.381 0-2.5-1.119-2.5-2.5s1.119-2.5 2.5-2.5h94c1.381 0 2.5 1.119 2.5 2.5s-1.119 2.5-2.5 2.5z"/></g><g><path d="m73.5 188.424c-1.381 0-2.5-1.119-2.5-2.5v-10c0-1.381 1.119-2.5 2.5-2.5s2.5 1.119 2.5 2.5v10c0 1.381-1.119 2.5-2.5 2.5z"/></g><g><path d="m89.071 188.424c-1.381 0-2.5-1.119-2.5-2.5v-10c0-1.381 1.119-2.5 2.5-2.5s2.5 1.119 2.5 2.5v10c0 1.381-1.119 2.5-2.5 2.5z"/></g><g><path d="m104.643 188.424c-1.381 0-2.5-1.119-2.5-2.5v-10c0-1.381 1.119-2.5 2.5-2.5s2.5 1.119 2.5 2.5v10c0 1.381-1.119 2.5-2.5 2.5z"/></g><g><path d="m120.214 188.424c-1.381 0-2.5-1.119-2.5-2.5v-10c0-1.381 1.119-2.5 2.5-2.5s2.5 1.119 2.5 2.5v10c0 1.381-1.119 2.5-2.5 2.5z"/></g><g><path d="m135.786 188.424c-1.381 0-2.5-1.119-2.5-2.5v-10c0-1.381 1.119-2.5 2.5-2.5s2.5 1.119 2.5 2.5v10c0 1.381-1.119 2.5-2.5 2.5z"/></g><g><path d="m151.357 188.424c-1.381 0-2.5-1.119-2.5-2.5v-10c0-1.381 1.119-2.5 2.5-2.5s2.5 1.119 2.5 2.5v10c0 1.381-1.119 2.5-2.5 2.5z"/></g><g><path d="m166.929 188.424c-1.381 0-2.5-1.119-2.5-2.5v-10c0-1.381 1.119-2.5 2.5-2.5s2.5 1.119 2.5 2.5v10c0 1.381-1.119 2.5-2.5 2.5z"/></g><g><path d="m182.5 188.424c-1.381 0-2.5-1.119-2.5-2.5v-10c0-1.381 1.119-2.5 2.5-2.5s2.5 1.119 2.5 2.5v10c0 1.381-1.119 2.5-2.5 2.5z"/></g><g><path d="m202.986 119.485c-1.381 0-2.5-1.119-2.5-2.5v-7.868c0-1.381 1.119-2.5 2.5-2.5s2.5 1.119 2.5 2.5v7.868c0 1.381-1.119 2.5-2.5 2.5z"/></g><g><path d="m215.237 119.485c-1.381 0-2.5-1.119-2.5-2.5v-7.868c0-1.381 1.119-2.5 2.5-2.5s2.5 1.119 2.5 2.5v7.868c0 1.381-1.119 2.5-2.5 2.5z"/></g><g><path d="m227.488 119.485c-1.381 0-2.5-1.119-2.5-2.5v-7.868c0-1.381 1.119-2.5 2.5-2.5s2.5 1.119 2.5 2.5v7.868c0 1.381-1.119 2.5-2.5 2.5z"/></g><g><path d="m239.739 119.485c-1.381 0-2.5-1.119-2.5-2.5v-7.868c0-1.381 1.119-2.5 2.5-2.5s2.5 1.119 2.5 2.5v7.868c0 1.381-1.119 2.5-2.5 2.5z"/></g><g><path d="m16.718 119.485c-1.381 0-2.5-1.119-2.5-2.5v-7.868c0-1.381 1.119-2.5 2.5-2.5s2.5 1.119 2.5 2.5v7.868c0 1.381-1.119 2.5-2.5 2.5z"/></g><g><path d="m28.969 119.485c-1.381 0-2.5-1.119-2.5-2.5v-7.868c0-1.381 1.119-2.5 2.5-2.5s2.5 1.119 2.5 2.5v7.868c0 1.381-1.119 2.5-2.5 2.5z"/></g><g><path d="m41.22 119.485c-1.381 0-2.5-1.119-2.5-2.5v-7.868c0-1.381 1.119-2.5 2.5-2.5s2.5 1.119 2.5 2.5v7.868c0 1.381-1.119 2.5-2.5 2.5z"/></g><g><path d="m53.47 119.485c-1.381 0-2.5-1.119-2.5-2.5v-7.868c0-1.381 1.119-2.5 2.5-2.5s2.5 1.119 2.5 2.5v7.868c0 1.381-1.119 2.5-2.5 2.5z"/></g><g><path d="m199.894 163.702c-1.351 0-2.463-1.078-2.498-2.437-.035-1.38 1.055-2.527 2.436-2.563 15.153-.386 27.803-5.281 36.581-14.156 9.983-10.093 15.044-25.055 15.044-44.473 0-20.73-5.849-41.909-16.045-58.106-10.412-16.534-23.747-25.641-37.551-25.641-18.592 0-36.375 16.776-46.412 43.781-.481 1.293-1.92 1.955-3.214 1.472-1.294-.481-1.953-1.92-1.472-3.214 10.783-29.014 30.362-47.039 51.098-47.039 15.584 0 30.422 9.937 41.781 27.979 10.686 16.973 16.814 39.123 16.814 60.77 0 20.781-5.548 36.927-16.49 47.989-9.704 9.811-23.539 15.218-40.008 15.638-.021-.001-.042 0-.064 0z"/></g><g><path d="m56.041 163.688c-.027 0-.054 0-.082-.001-16.825-.541-55.959-7.822-55.959-63.613 0-21.646 6.129-43.796 16.814-60.77 11.359-18.042 26.197-27.979 41.781-27.979 20.775 0 40.374 18.074 51.146 47.168.479 1.295-.181 2.733-1.476 3.212s-2.734-.182-3.212-1.476c-10.027-27.08-27.828-43.903-46.457-43.903-13.804 0-27.139 9.107-37.55 25.643-10.197 16.197-16.046 37.376-16.046 58.105 0 19.311 5.008 34.219 14.884 44.311 8.686 8.875 21.216 13.821 36.235 14.304 1.38.044 2.463 1.199 2.418 2.579-.042 1.353-1.152 2.42-2.496 2.42z"/></g><g><path d="m189.958 116.674h-123.802c-1.381 0-2.5-1.119-2.5-2.5s1.119-2.5 2.5-2.5h123.802c1.381 0 2.5 1.119 2.5 2.5s-1.119 2.5-2.5 2.5z"/></g><g><path d="m182.458 99.674h-108.875c-1.381 0-2.5-1.119-2.5-2.5s1.119-2.5 2.5-2.5h108.875c1.381 0 2.5 1.119 2.5 2.5s-1.119 2.5-2.5 2.5z"/></g><g><path d="m157.543 143.97c-1.239 0-2.478-.395-3.511-1.186l-10.792-8.247c-.279-.214-.67-.213-.95 0l-10.786 8.247c-2.068 1.581-4.956 1.581-7.023 0l-10.791-8.247c-.279-.214-.67-.214-.95 0l-10.789 8.247c-2.067 1.581-4.956 1.58-7.022 0l-10.788-8.247c-.28-.214-.669-.213-.949 0l-10.788 8.248c-2.068 1.58-4.956 1.58-7.023 0l-6.708-5.127c-1.097-.839-1.307-2.408-.468-3.504.838-1.098 2.406-1.308 3.504-.468l6.708 5.127c.28.214.67.214.95 0l10.787-8.247c2.067-1.58 4.955-1.581 7.023 0l10.788 8.247c.28.213.67.214.949 0l10.79-8.248c2.067-1.58 4.955-1.581 7.022 0l10.79 8.247c.28.214.67.214.95 0l10.786-8.247c2.068-1.582 4.955-1.581 7.023 0l10.792 8.247c.279.214.669.213.949 0l10.793-8.249c2.068-1.58 4.955-1.58 7.021 0l10.795 8.249c.279.212.669.214.949 0l6.979-5.333c1.098-.838 2.667-.628 3.504.468.838 1.097.628 2.667-.468 3.504l-6.979 5.333c-2.067 1.58-4.954 1.58-7.021 0l-10.795-8.249c-.279-.213-.67-.213-.949 0l-10.793 8.248c-1.031.792-2.27 1.187-3.509 1.187z"/></g><g><path d="m157.543 160.97c-1.239 0-2.478-.395-3.511-1.186l-10.792-8.247c-.279-.214-.67-.213-.95 0l-10.786 8.247c-2.068 1.581-4.956 1.581-7.023 0l-10.791-8.247c-.279-.214-.67-.214-.95 0l-10.789 8.247c-2.067 1.581-4.956 1.58-7.022 0l-10.788-8.247c-.28-.214-.669-.213-.949 0l-10.788 8.248c-2.068 1.58-4.956 1.58-7.023 0l-9.145-6.99c-1.097-.838-1.307-2.408-.468-3.504.838-1.097 2.407-1.307 3.504-.468l9.145 6.99c.28.214.67.214.95 0l10.787-8.247c2.067-1.581 4.955-1.581 7.023 0l10.788 8.247c.28.214.67.213.949 0l10.79-8.248c2.067-1.58 4.955-1.581 7.022 0l10.79 8.247c.28.214.67.214.95 0l10.786-8.247c2.068-1.582 4.955-1.581 7.023 0l10.792 8.247c.279.214.669.213.949 0l10.793-8.249c2.067-1.58 4.954-1.581 7.021 0l10.795 8.249c.279.213.669.214.949 0l9.007-6.882c1.097-.839 2.667-.629 3.504.468.838 1.097.628 2.667-.468 3.504l-9.007 6.882c-2.067 1.58-4.954 1.58-7.021 0l-10.795-8.249c-.279-.213-.67-.213-.949 0l-10.793 8.248c-1.031.792-2.27 1.187-3.509 1.187z"/></g><g><path d="m157.543 216.97c-1.239 0-2.478-.395-3.511-1.186l-10.792-8.247c-.279-.214-.67-.213-.95 0l-10.786 8.247c-2.068 1.581-4.956 1.581-7.023 0l-10.791-8.247c-.279-.214-.67-.214-.95 0l-10.789 8.247c-2.067 1.581-4.956 1.58-7.022 0l-10.788-8.247c-.28-.214-.669-.213-.949 0l-10.788 8.248c-1.098.838-2.667.628-3.505-.468-.838-1.097-.629-2.666.468-3.505l10.787-8.247c2.067-1.58 4.955-1.581 7.023 0l10.788 8.247c.28.213.67.214.949 0l10.79-8.248c2.067-1.58 4.955-1.581 7.022 0l10.79 8.247c.28.214.67.214.95 0l10.786-8.247c2.068-1.582 4.955-1.581 7.023 0l10.792 8.247c.279.214.669.213.949 0l10.793-8.249c2.067-1.58 4.954-1.581 7.021 0l10.795 8.249c1.097.838 1.307 2.407.468 3.504-.838 1.097-2.408 1.306-3.504.468l-10.795-8.249c-.279-.213-.67-.213-.949 0l-10.793 8.248c-1.031.793-2.27 1.188-3.509 1.188z"/></g><g><path d="m221.104 97.885c-1.089 0-2.178-.348-3.086-1.042l-8.49-6.488c-.028-.021-.07-.022-.1 0l-8.486 6.488c-1.818 1.39-4.356 1.39-6.173.001l-8.49-6.489-3.979 2.965c-1.098.839-2.666.629-3.504-.468s-.629-2.666.468-3.504l3.879-2.965c1.818-1.39 4.355-1.389 6.172 0l8.489 6.488c.03.023.071.022.1 0l8.486-6.488c1.817-1.39 4.355-1.389 6.173 0l8.491 6.489 8.591-6.489c1.817-1.389 4.355-1.389 6.172 0l8.493 6.489 7.03-5.296c1.097-.838 2.666-.629 3.504.468s.628 2.666-.468 3.504l-6.931 5.296c-1.818 1.388-4.355 1.388-6.171 0l-8.494-6.49-8.591 6.489c-.908.695-1.997 1.042-3.085 1.042z"/></g><g><path d="m244.359 84.51c-1.089 0-2.178-.347-3.086-1.042l-8.493-6.489-8.591 6.49c-1.816 1.389-4.354 1.388-6.172-.001l-8.49-6.488c-.028-.021-.07-.022-.1 0l-8.486 6.488c-1.817 1.39-4.355 1.389-6.173 0l-8.49-6.489-8.588 6.489c-1.041.795-2.335 1.15-3.638 1.008-1.373-.153-2.361-1.389-2.209-2.761.153-1.373 1.389-2.36 2.761-2.209l8.538-6.5c1.817-1.389 4.355-1.389 6.172 0l8.489 6.488c.03.023.072.022.1 0l8.486-6.488c1.817-1.39 4.355-1.389 6.173 0l8.491 6.489 8.591-6.489c1.817-1.388 4.354-1.389 6.171 0l8.494 6.49 5.381-4.036c1.097-.838 2.666-.628 3.504.468.838 1.097.629 2.666-.468 3.504l-5.282 4.036c-.907.695-1.996 1.042-3.085 1.042z"/></g><g><path d="m221.104 141.943c-1.088 0-2.177-.347-3.085-1.041l-8.491-6.489-8.586 6.488c-.92.702-2.072 1.068-3.22 1.038-1.38-.039-2.467-1.189-2.429-2.569.039-1.38 1.195-2.467 2.569-2.429l8.529-6.5c1.817-1.39 4.355-1.39 6.173-.001l8.491 6.489 8.591-6.49c1.817-1.388 4.354-1.389 6.171 0l8.494 6.49c1.097.838 1.307 2.407.468 3.504-.838 1.096-2.406 1.307-3.504.468l-8.494-6.49-8.591 6.49c-.909.695-1.998 1.042-3.086 1.042z"/></g><g><path d="m240.719 49.661h-85.688c-1.381 0-2.5-1.119-2.5-2.5s1.119-2.5 2.5-2.5h85.688c1.381 0 2.5 1.119 2.5 2.5s-1.119 2.5-2.5 2.5z"/></g><g><path d="m246.438 63.036h-95.938c-1.381 0-2.5-1.119-2.5-2.5s1.119-2.5 2.5-2.5h95.938c1.381 0 2.5 1.119 2.5 2.5s-1.119 2.5-2.5 2.5z"/></g><g><path d="m105.375 63.036h-95.438c-1.381 0-2.5-1.119-2.5-2.5s1.119-2.5 2.5-2.5h95.437c1.381 0 2.5 1.119 2.5 2.5s-1.119 2.5-2.499 2.5z"/></g><g><path d="m101.5 49.661h-85.625c-1.381 0-2.5-1.119-2.5-2.5s1.119-2.5 2.5-2.5h85.625c1.381 0 2.5 1.119 2.5 2.5s-1.119 2.5-2.5 2.5z"/></g><g><path d="m58.589 97.885c-1.089 0-2.177-.347-3.086-1.042l-8.489-6.488-8.588 6.488c-1.817 1.39-4.356 1.389-6.173 0l-8.487-6.488c-.029-.022-.071-.021-.1 0l-8.486 6.488c-1.819 1.39-4.357 1.39-6.173 0l-6.958-5.318c-1.097-.838-1.307-2.408-.468-3.504.838-1.097 2.406-1.307 3.504-.468l6.959 5.319 8.586-6.488c1.817-1.39 4.355-1.389 6.173 0l8.488 6.488 8.588-6.488c1.816-1.389 4.354-1.388 6.172 0l8.49 6.489 8.586-6.488c1.817-1.389 4.355-1.389 6.172 0l3.476 2.656c1.097.838 1.307 2.407.468 3.504s-2.407 1.306-3.504.468l-3.476-2.656-8.586 6.488c-.909.692-1.999 1.04-3.088 1.04z"/></g><g><path d="m58.59 84.51c-1.089 0-2.178-.348-3.086-1.042l-8.489-6.488-8.588 6.489c-1.816 1.389-4.355 1.389-6.172 0l-8.488-6.489-8.586 6.488c-1.818 1.39-4.355 1.39-6.173 0l-5.074-3.878c-1.097-.838-1.307-2.408-.468-3.504.838-1.097 2.407-1.307 3.504-.468l5.075 3.879 8.586-6.488c1.817-1.389 4.355-1.389 6.173 0l8.488 6.489c.029.023.071.022.1 0l8.488-6.489c1.816-1.389 4.354-1.388 6.172 0l8.49 6.489 8.586-6.488c1.816-1.389 4.355-1.389 6.172 0l8.491 6.489c1.097.838 1.307 2.407.468 3.504s-2.407 1.306-3.504.468l-8.491-6.489-8.586 6.488c-.91.693-1.999 1.04-3.088 1.04z"/></g><g><path d="m35.34 141.943c-1.089 0-2.177-.347-3.086-1.042l-8.488-6.488-8.586 6.488c-1.097.84-2.667.629-3.504-.467-.839-1.097-.629-2.666.467-3.504l8.487-6.488c1.819-1.39 4.357-1.389 6.173 0l8.487 6.488c.03.023.071.022.1 0l8.488-6.489c1.816-1.389 4.354-1.388 6.172 0l8.49 6.489c1.381.01 2.512 1.142 2.502 2.522-.011 1.381-1.128 2.455-2.498 2.487-1.113-.008-2.165-.367-3.042-1.038l-8.489-6.488-8.588 6.489c-.907.694-1.996 1.041-3.085 1.041z"/></g></g></g></svg>