<svg enable-background="new 0 0 256 256" height="512" viewBox="0 0 256 256" width="512" xmlns="http://www.w3.org/2000/svg"><g id="Layer_2"><g><g><path d="m109.138 37.192c-8.625-8.625-11.685-20.705-9.186-31.785.455-2.018-1.703-3.635-3.475-2.568-3.229 1.943-6.207 4.466-8.782 7.574-10.614 12.814-10.339 31.772.621 44.291 13.187 15.064 36.116 15.634 50.04 1.71 2.017-2.017 3.727-4.223 5.134-6.561 1.067-1.773-.549-3.931-2.568-3.476-11.079 2.499-23.159-.56-31.784-9.185z" fill="#f5c84c"/></g><g><path d="m131.997 4.431 2.71 5.49c.238.483.699.818 1.232.895l6.059.88c1.342.195 1.878 1.844.907 2.791l-4.384 4.273c-.386.376-.562.917-.471 1.448l1.035 6.034c.229 1.337-1.174 2.356-2.374 1.725l-5.419-2.849c-.477-.251-1.046-.251-1.523 0l-5.419 2.849c-1.2.631-2.603-.388-2.374-1.725l1.035-6.034c.091-.531-.085-1.072-.471-1.448l-4.384-4.273c-.971-.947-.435-2.596.907-2.791l6.059-.88c.533-.077.994-.412 1.232-.895l2.71-5.49c.599-1.216 2.333-1.216 2.933 0z" fill="#f5c84c"/></g><g><path d="m136.25 191.5c-8.931 5.024-17.238 17.524-22.835 27.59 1.89 15.036 2.835 34.41 2.835 34.41h22v-10.254c0-4.629.749-9.208 2.198-13.571 1.943-5.848 2.824-11.996 2.967-18.156l.594-25.607c-2.366 2.088-4.952 4.009-7.759 5.588z" fill="#d68649"/></g><g><path d="m146.901 166.949c-2.912-1.01-5.212-3.45-5.761-6.594-.601-3.444.898-6.7 3.504-8.551-.637-6.701-3.122-15.469-5.212-21.954-1.532-4.754-3.874-9.188-6.765-13.261-1.559-2.196-2.301-3.814-2.529-4.229-11.519 5.272-23.97.932-29.871-1.811-2.022-.94-2.815-3.386-1.753-5.347 1.466-2.706 3.821-6.462 6.876-9.418-11.327-2.686-27.747-5.08-39.14-.283-19 8-39 7-39 7v120c26 0 53.296-9.521 53.296-9.521 2.469 15.214 3.704 40.521 3.704 40.521h22v-10.254c0-6.943 1.685-13.775 4.892-19.933 5.457-10.478 14.873-26.056 25.108-31.813 6.85-3.853 12.413-9.722 16.54-15.175-3.034-2.207-5.202-5.534-5.889-9.377z" fill="#d68649"/></g><g><path d="m176.261 150.727c-2.002-.717-3.676-2.07-4.973-3.755-2.262-2.94-5.81-4.837-9.808-4.837s-7.546 1.897-9.808 4.837c-1.296 1.684-2.968 3.038-4.969 3.754-3.825 1.368-6.31 5.355-5.564 9.629.728 4.169 4.532 7.103 8.764 7.103h23.153c4.235 0 8.041-2.938 8.766-7.11.742-4.273-1.742-8.252-5.561-9.621z" fill="#818182"/></g><g><path d="m173.057 167.457h-23.153c-1.04 0-2.054-.179-3.003-.508 1.24 6.935 7.288 12.203 14.58 12.203s13.34-5.268 14.58-12.204c-.95.33-1.963.509-3.004.509z" fill="#5b5d60"/></g><g><path d="m191.925 93.377c-9.531-13.766-30.445-13.237-30.445-13.237s-20.914-.529-30.445 13.237c-6.254 9.034-2.02 18.068 1.631 23.212 2.891 4.073 5.232 8.507 6.765 13.261 2.09 6.485 4.575 15.253 5.212 21.954.628-.446 1.318-.812 2.06-1.078 2.001-.716 3.674-2.069 4.969-3.754 2.262-2.94 5.81-4.837 9.808-4.837s7.546 1.897 9.808 4.837c1.297 1.685 2.971 3.038 4.973 3.755.741.266 1.43.632 2.057 1.077.637-6.701 3.122-15.47 5.212-21.955 1.532-4.754 3.874-9.188 6.765-13.261 3.65-5.143 7.885-14.177 1.63-23.211z" fill="#d68649"/></g><g><path d="m224.447 105.201c-3.218-5.937-10.701-16.944-20.51-13.413-3.937 1.417-8.341 1.931-11.676 2.1 4.372 6.737 3.032 13.43.562 18.471 11.519 5.272 23.97.932 29.871-1.811 2.023-.94 2.816-3.386 1.753-5.347z" fill="#d68649"/></g><g><path d="m130.7 93.888c-3.335-.169-7.738-.683-11.676-2.1-9.809-3.531-17.292 7.476-20.51 13.413-1.063 1.961-.27 4.407 1.753 5.347 5.901 2.743 18.352 7.083 29.871 1.811-2.47-5.04-3.81-11.734.562-18.471z" fill="#d68649"/></g><g><path d="m152.388 148.429c-1.381 0-2.5-1.119-2.5-2.5v-24.714c0-2.816-1.551-12.081-21.512-13.079-1.379-.069-2.441-1.243-2.372-2.622s1.241-2.439 2.622-2.372c24.368 1.219 26.262 14.142 26.262 18.073v24.714c0 1.381-1.119 2.5-2.5 2.5z"/></g><g><path d="m170.573 148.156c-1.381 0-2.5-1.119-2.5-2.5v-24.441c0-3.935 1.896-16.866 26.284-18.074 1.394-.066 2.553.995 2.621 2.374s-.994 2.552-2.374 2.621c-19.978.989-21.531 10.262-21.531 13.08v24.441c0 1.38-1.119 2.499-2.5 2.499z"/></g><g><circle cx="178.481" cy="119" fill="#818182" r="6.5"/></g><g><circle cx="144.481" cy="119" fill="#818182" r="6.5"/></g><g><g><path d="m231.45 187.483h-18c-2.761 0-5-2.239-5-5s2.239-5 5-5h18c2.761 0 5 2.239 5 5s-2.239 5-5 5z" fill="#edf4fc"/></g></g><g><path d="m213.025 177.526c.142-.012.279-.043.425-.043h18c.146 0 .283.031.425.043 2.559-.219 4.575-2.342 4.575-4.957 0-2.761-2.239-5-5-5h-18c-2.761 0-5 2.239-5 5 0 2.615 2.016 4.737 4.575 4.957z" fill="#edf4fc"/></g><g><path d="m231.875 187.44c-.142.012-.279.043-.425.043h-18c-.146 0-.283-.031-.425-.043-2.559.219-4.575 2.342-4.575 4.957 0 2.761 2.239 5 5 5h18c2.761 0 5-2.239 5-5 0-2.616-2.016-4.738-4.575-4.957z" fill="#edf4fc"/></g><g><path d="m215.95 197.397h13v56.103h-13z" fill="#a57453"/></g><g><path d="m228.95 167.568v-4.568c0-3.59-2.91-6.5-6.5-6.5s-6.5 2.91-6.5 6.5v4.568z" fill="#a57453"/></g><g><g><path d="m208.45 192.397c0-2.611 2.01-4.729 4.562-4.955-1.044-.096-1.993-.504-2.755-1.141-7.085 2.637-13.725 2.166-18.546 1.057-9.365-2.155-16.56-7.667-19.909-12.411-2.42 2.358-5.64 3.891-9.219 4.155 5.019 8.351 15.451 15.37 26.885 18.001 2.892.665 6.285 1.155 10.009 1.155 3.544 0 7.387-.446 11.379-1.606-1.437-.877-2.406-2.447-2.406-4.255z" fill="#dae6f1"/></g></g><g><path d="m235.35 134.55c-3.1-.6-5.6-3-6.2-6.1 0-.1-.3-.1-.3 0-.6 3.1-3.1 5.5-6.2 6.1-.1 0-.1.2 0 .3 3.1.6 5.6 3 6.2 6.1 0 .1.3.1.3 0 .6-3.1 3.1-5.5 6.2-6.1.1-.1.1-.3 0-.3z" fill="#fc657e"/></g><g><path d="m178.9 231.25h2.3v2.3c0 1.8 1.4 3.2 3.2 3.2 1.7 0 3.2-1.4 3.2-3.1v-.1-2.3h2.3c1.8 0 3.2-1.4 3.2-3.2 0-1.7-1.4-3.2-3.1-3.2h-.1-2.3v-2.3c0-1.8-1.4-3.2-3.2-3.2-1.7 0-3.2 1.4-3.2 3.1v.1 2.3h-2.3c-1.8 0-3.2 1.4-3.2 3.2-.1 1.7 1.3 3.2 3.2 3.2-.1 0-.1 0 0 0z" fill="#70d6f9"/></g><g><circle cx="162.8" cy="252.6" fill="#f5c84c" r="3.4"/></g><g><circle cx="56.6" cy="40.4" fill="#87d147" r="3.4"/></g><g><path d="m33.719 66.85c4.5-.8 8-4.3 8.9-8.7 0-.2.4-.2.4 0 .9 4.4 4.4 7.9 8.9 8.7.2 0 .2.3 0 .4-4.5.8-8 4.3-8.9 8.7 0 .2-.4.2-.4 0-.9-4.4-4.4-7.9-8.9-8.7-.2-.1-.2-.4 0-.4z" fill="#f5c84c"/></g><g><path d="m173.057 169.957h-23.153c-5.578 0-10.299-3.858-11.227-9.173-.937-5.368 2.085-10.588 7.185-12.412 1.426-.51 2.75-1.521 3.83-2.924 2.842-3.694 7.139-5.813 11.789-5.813s8.948 2.119 11.789 5.813c1.079 1.401 2.405 2.414 3.835 2.926 5.091 1.825 8.112 7.041 7.181 12.401-.924 5.32-5.646 9.182-11.229 9.182zm-11.577-25.322c-3.085 0-5.938 1.408-7.826 3.862-1.666 2.165-3.778 3.749-6.108 4.583-2.802 1.002-4.46 3.881-3.943 6.845.5 2.869 3.209 5.033 6.301 5.033h23.153c3.095 0 5.804-2.166 6.302-5.038.514-2.96-1.144-5.836-3.942-6.839-2.333-.836-4.446-2.421-6.11-4.583-1.888-2.456-4.741-3.863-7.827-3.863z"/></g><g><path d="m161.48 181.652c-8.114 0-15.233-5.759-16.929-13.693-.289-1.35.572-2.679 1.922-2.967 1.353-.288 2.679.572 2.967 1.922 1.206 5.643 6.269 9.738 12.039 9.738 5.753 0 10.813-4.081 12.032-9.703.292-1.349 1.621-2.206 2.973-1.914 1.349.292 2.206 1.624 1.914 2.973-1.712 7.906-8.828 13.644-16.918 13.644z"/></g><g><path d="m178.364 153.872c-.087 0-.176-.004-.265-.014-1.373-.145-2.369-1.375-2.225-2.748.732-6.95 3.273-15.815 5.276-22.028 1.54-4.777 3.931-9.468 7.105-13.941 3.625-5.107 6.847-12.782 1.613-20.342-8.631-12.468-28.13-12.169-28.329-12.161-.041 0-.084 0-.124 0-.187.005-19.693-.307-28.326 12.161-5.233 7.56-2.011 15.234 1.614 20.342 3.175 4.473 5.565 9.164 7.105 13.941 1.989 6.171 4.518 14.983 5.265 21.921.147 1.373-.846 2.605-2.218 2.753-1.37.151-2.605-.846-2.753-2.218-.701-6.516-3.134-14.974-5.052-20.922-1.384-4.292-3.545-8.524-6.424-12.582-6.433-9.063-7.018-18.325-1.648-26.081 10.011-14.46 30.926-14.351 32.5-14.315 1.573-.031 22.489-.146 32.5 14.315 5.37 7.756 4.785 17.019-1.647 26.081-2.879 4.057-5.041 8.29-6.424 12.582-1.93 5.987-4.375 14.494-5.063 21.017-.132 1.285-1.217 2.239-2.48 2.239z"/></g><g><path d="m204.711 117.355c-4.021 0-8.245-.685-12.401-2.488-1.267-.549-1.848-2.021-1.299-3.288s2.023-1.848 3.288-1.299c10.371 4.499 21.582.678 27.341-2 .458-.213.641-.589.709-.795.07-.21.149-.633-.1-1.093-7.315-13.498-14.083-13.469-17.466-12.252-3.371 1.213-7.415 1.962-12.019 2.225-1.396.07-2.56-.975-2.639-2.354s.975-2.56 2.354-2.639c4.065-.232 7.735-.901 10.611-1.937 8.325-3.001 16.911 2.314 23.555 14.573.837 1.544 1.001 3.384.452 5.047-.547 1.654-1.768 3.023-3.349 3.758-4.292 1.998-11.288 4.542-19.037 4.542z"/></g><g><path d="m118.251 117.354c-7.761 0-14.761-2.55-19.039-4.539-1.581-.735-2.801-2.104-3.348-3.758-.55-1.663-.386-3.502.452-5.047 6.644-12.259 15.227-17.573 23.554-14.573 2.859 1.029 6.505 1.697 10.543 1.933 1.378.08 2.431 1.263 2.35 2.641-.08 1.379-1.268 2.438-2.641 2.35-4.574-.266-8.593-1.013-11.945-2.22-3.383-1.218-10.15-1.245-17.465 12.252-.25.46-.17.883-.1 1.093.068.206.25.582.708.795 5.689 2.645 16.771 6.435 27.078 2.112 1.274-.535 2.739.065 3.272 1.338.534 1.273-.065 2.738-1.338 3.272-4.051 1.701-8.163 2.351-12.081 2.351z"/></g><g><path d="m154.983 160.357c-.86 0-1.697-.444-2.162-1.241l-1-1.714c-.696-1.192-.293-2.723.899-3.419 1.193-.696 2.724-.293 3.419.899l1 1.714c.696 1.192.293 2.723-.899 3.419-.396.233-.829.342-1.257.342z"/></g><g><path d="m167.978 160.357c-.428 0-.861-.11-1.257-.341-1.193-.696-1.595-2.227-.899-3.419l1-1.714c.695-1.192 2.228-1.596 3.419-.899 1.193.696 1.595 2.227.899 3.419l-1 1.714c-.465.796-1.302 1.24-2.162 1.24z"/></g><g><path d="m80.543 215.479c-1.205 0-2.266-.873-2.465-2.1-.868-5.348-1.628-7.772-2.113-8.864-.561-1.262.008-2.739 1.27-3.3 1.259-.56 2.739.007 3.3 1.27.892 2.008 1.703 5.309 2.479 10.093.221 1.363-.705 2.647-2.067 2.868-.136.022-.271.033-.404.033z"/></g><g><path d="m84.248 256c-1.325 0-2.43-1.041-2.495-2.378-.011-.236-1.106-22.312-3.236-37.346-7.727 2.436-29.748 8.724-51.267 8.724-1.381 0-2.5-1.119-2.5-2.5s1.119-2.5 2.5-2.5c25.284 0 52.204-9.288 52.473-9.382.697-.245 1.466-.166 2.103.212.635.378 1.07 1.018 1.188 1.748 2.463 15.178 3.682 39.761 3.733 40.8.067 1.379-.996 2.551-2.375 2.619-.041.002-.083.003-.124.003z"/></g><g><path d="m29.635 105.045c-1.462 0-2.346-.041-2.51-.048-1.378-.069-2.439-1.242-2.371-2.621s1.248-2.432 2.62-2.374c.194.012 19.686.865 37.906-6.807 11.815-4.974 28.417-2.716 40.265.056 1.345.314 2.179 1.659 1.865 3.003s-1.659 2.181-3.003 1.865c-11.126-2.603-26.609-4.77-37.186-.315-15.553 6.549-31.526 7.241-37.586 7.241z"/></g><g><path d="m106.25 256c-1.381 0-2.5-1.119-2.5-2.5v-10.254c0-7.295 1.79-14.587 5.175-21.088 6.101-11.714 15.581-26.92 26.1-32.836 5.338-3.003 10.468-7.653 15.249-13.821.846-1.091 2.416-1.291 3.507-.445s1.291 2.416.445 3.507c-5.191 6.699-10.827 11.785-16.75 15.116-7.371 4.146-15.936 15.081-24.116 30.789-3.016 5.791-4.609 12.284-4.609 18.778v10.254c-.001 1.381-1.12 2.5-2.501 2.5z"/></g><g><g><path d="m116.248 256c-1.325 0-2.43-1.041-2.495-2.378-.009-.189-.947-19.142-2.773-33.855-.17-1.37.803-2.619 2.173-2.789 1.368-.175 2.619.803 2.789 2.173 1.85 14.902 2.796 34.037 2.806 34.229.067 1.379-.996 2.551-2.375 2.619-.042 0-.084.001-.125.001z"/></g><g><path d="m138.25 256c-1.381 0-2.5-1.119-2.5-2.5v-10.254c0-4.882.782-9.713 2.326-14.359 1.738-5.232 2.693-11.095 2.84-17.425l.579-24.958c.032-1.38 1.148-2.478 2.558-2.441 1.38.032 2.473 1.177 2.441 2.558l-.579 24.957c-.158 6.827-1.199 13.182-3.094 18.886-1.374 4.137-2.071 8.438-2.071 12.783v10.253c0 1.381-1.119 2.5-2.5 2.5z"/></g></g><g><g><path d="m231.45 189.982h-18c-4.136 0-7.5-3.364-7.5-7.5s3.364-7.5 7.5-7.5h18c4.136 0 7.5 3.364 7.5 7.5s-3.364 7.5-7.5 7.5zm-18-10c-1.378 0-2.5 1.122-2.5 2.5s1.122 2.5 2.5 2.5h18c1.378 0 2.5-1.122 2.5-2.5s-1.122-2.5-2.5-2.5z"/></g></g><g><path d="m231.875 180.025c-.071 0-.142-.003-.213-.009-.096-.008-.19-.02-.285-.033-.002 0-.002-.001 0-.001h-17.847c-.121.016-.206.026-.292.034-.143.013-.285.013-.426 0-3.912-.334-6.862-3.536-6.862-7.448 0-4.136 3.364-7.5 7.5-7.5h18c4.136 0 7.5 3.364 7.5 7.5 0 3.912-2.95 7.113-6.862 7.448-.07.006-.141.009-.213.009zm-18.425-9.957c-1.378 0-2.5 1.122-2.5 2.5 0 1.223.878 2.237 2.076 2.439.15-.017.286-.025.424-.025h18c.145 0 .286.01.426.025 1.197-.203 2.074-1.216 2.074-2.439 0-1.378-1.122-2.5-2.5-2.5z"/></g><g><path d="m231.45 199.897h-18c-4.136 0-7.5-3.364-7.5-7.5 0-3.911 2.95-7.113 6.861-7.448.142-.013.284-.013.427 0 .094.008.187.02.28.032.003.001.002.001-.001.001h17.855c.121-.016.205-.026.29-.033.143-.013.285-.013.427 0 3.912.335 6.861 3.537 6.861 7.448 0 4.136-3.364 7.5-7.5 7.5zm-18.424-9.939c-1.197.202-2.076 1.216-2.076 2.439 0 1.378 1.122 2.5 2.5 2.5h18c1.378 0 2.5-1.122 2.5-2.5 0-1.224-.879-2.238-2.077-2.439-.149.016-.285.025-.423.025h-18c-.144-.001-.284-.01-.424-.025z"/></g><g><path d="m215.95 256c-1.381 0-2.5-1.119-2.5-2.5v-55.241c0-1.381 1.119-2.5 2.5-2.5s2.5 1.119 2.5 2.5v55.241c0 1.381-1.119 2.5-2.5 2.5z"/></g><g><path d="m228.95 256c-1.381 0-2.5-1.119-2.5-2.5v-55.241c0-1.381 1.119-2.5 2.5-2.5s2.5 1.119 2.5 2.5v55.241c0 1.381-1.119 2.5-2.5 2.5z"/></g><g><path d="m228.95 169.125c-1.381 0-2.5-1.119-2.5-2.5v-3.625c0-2.206-1.794-4-4-4s-4 1.794-4 4v3.625c0 1.381-1.119 2.5-2.5 2.5s-2.5-1.119-2.5-2.5v-3.625c0-4.962 4.038-9 9-9s9 4.038 9 9v3.625c0 1.38-1.119 2.5-2.5 2.5z"/></g><g><g><path d="m199.375 190.735c-3.182 0-5.995-.428-8.225-.941-9.896-2.277-17.231-8.003-20.795-12.603-.846-1.091-.646-2.662.445-3.507 1.092-.846 2.662-.646 3.507.445 3.036 3.917 9.35 8.81 17.964 10.792 3.956.911 10.044 1.515 16.579-.771 1.304-.457 2.729.231 3.185 1.535s-.231 2.729-1.535 3.185c-3.946 1.381-7.743 1.865-11.125 1.865z"/></g><g><path d="m199.479 200.759c-3.496 0-7.052-.41-10.569-1.219-11.682-2.688-22.396-9.715-27.963-18.339-.749-1.16-.415-2.708.745-3.457s2.707-.415 3.457.745c4.888 7.572 14.422 13.771 24.882 16.178 6.629 1.525 13.341 1.447 19.564-.255 1.331-.365 2.707.419 3.071 1.751.365 1.332-.419 2.707-1.751 3.071-3.697 1.012-7.544 1.525-11.436 1.525z"/></g></g><g><path d="m114.116 68.946c-.402 0-.803-.006-1.206-.02-10.272-.341-19.675-4.807-26.475-12.575-11.728-13.397-12.014-33.831-.665-47.533 2.688-3.246 5.857-5.979 9.418-8.122 1.677-1.011 3.708-.926 5.3.223 1.588 1.147 2.335 3.124 1.903 5.037-2.414 10.705.769 21.721 8.515 29.467 7.747 7.747 18.762 10.93 29.467 8.515 1.913-.433 3.891.315 5.037 1.903 1.148 1.59 1.233 3.621.223 5.3-1.535 2.551-3.388 4.919-5.509 7.04-6.88 6.881-16.3 10.765-26.008 10.765zm-16.674-63.768c-2.946 1.822-5.576 4.118-7.822 6.83-9.8 11.832-9.552 29.479.576 41.05 5.879 6.716 14.004 10.576 22.879 10.871 8.896.299 17.232-3.002 23.513-9.282 1.743-1.743 3.277-3.68 4.563-5.76-12.288 2.657-24.894-1.039-33.781-9.928-8.888-8.888-12.586-21.494-9.928-33.781z"/></g><g><path d="m137.475 30.66c-.657 0-1.318-.159-1.928-.479l-5.017-2.638-5.017 2.638c-1.405.738-3.073.618-4.356-.315-1.283-.932-1.913-2.482-1.645-4.045l.958-5.586-4.059-3.957c-1.135-1.106-1.537-2.731-1.046-4.239.49-1.509 1.77-2.587 3.339-2.815l5.609-.815 2.509-5.083c.702-1.422 2.123-2.305 3.708-2.305 1.586 0 3.007.883 3.709 2.305l2.509 5.083 5.609.815c1.569.228 2.849 1.307 3.339 2.815.49 1.509.089 3.133-1.047 4.24l-4.058 3.956.958 5.586c.268 1.563-.363 3.113-1.646 4.045-.726.526-1.574.794-2.428.794zm-6.945-8.23c.661 0 1.322.159 1.924.475l3.87 2.035-.739-4.309c-.23-1.343.215-2.711 1.189-3.662l3.13-3.051-4.326-.628c-1.349-.197-2.512-1.042-3.114-2.263l-1.935-3.92-1.935 3.92c-.602 1.22-1.766 2.066-3.113 2.262l-4.327.629 3.131 3.052c.976.952 1.419 2.321 1.189 3.662l-.739 4.307 3.869-2.034c.604-.316 1.265-.475 1.926-.475zm6.418-13.616h.01zm-7.193-3.277c0 .001.001.002.001.003z"/></g><g><path d="m178.48 128c-4.962 0-9-4.038-9-9s4.038-9 9-9 9 4.038 9 9-4.037 9-9 9zm0-13c-2.206 0-4 1.794-4 4s1.794 4 4 4 4-1.794 4-4-1.794-4-4-4z"/></g><g><path d="m144.48 128c-4.962 0-9-4.038-9-9s4.038-9 9-9 9 4.038 9 9-4.037 9-9 9zm0-13c-2.206 0-4 1.794-4 4s1.794 4 4 4 4-1.794 4-4-1.794-4-4-4z"/></g></g></g></svg>