<svg enable-background="new 0 0 256 256" height="512" viewBox="0 0 256 256" width="512" xmlns="http://www.w3.org/2000/svg"><g id="Layer_19"><g><g><path d="m13.196 181.108-9.473 3.907c-1.392.574-1.657 2.431-.474 3.362 8.297 6.531 21.443 16.464 39.531 24.991l6.117-9.906c-12.933-5.883-24.853-13.362-35.701-22.354z" fill="#fc657e"/></g><g><path d="m72.578 182.072c-22.29-7.841-37.62-19.899-46.631-27.079-1.255-1-3.11-.154-3.187 1.45l-.474 9.852c11.829 10.147 25.131 18.224 39.787 24.12l-3.87 2.09h.001c.302.06.602.148.888.298 3.2 1.672 6.592 3.299 10.176 4.841l5.19-11.068c.825-1.761-.045-3.858-1.88-4.504z" fill="#6cadef"/></g><g><path d="m201.268 194.012c-.915-1.482-2.815-2.016-4.359-1.209-17.26 9.017-40.065 16.764-68.904 16.764-28.869 0-51.661-7.743-68.907-16.758-1.544-.807-3.445-.274-4.36 1.209l-4.893 7.923c24.357 12.574 50.601 18.96 78.159 18.96 27.587 0 53.828-6.39 78.153-18.97z" fill="#6cadef"/></g><g><path d="m220.894 225.796-4.076-6.6c-27.594 14.553-57.422 21.947-88.814 21.947-31.361 0-61.192-7.391-88.82-21.936l-4.079 6.606c-1.009 1.634-.435 3.776 1.255 4.689 22.189 11.987 52.67 22.998 91.645 22.998 39.045 0 69.48-11.019 91.637-23.016 1.688-.914 2.261-3.055 1.252-4.688z" fill="#fc657e"/></g><g><path d="m197.798 192.505-3.87-2.09c14.656-5.896 27.957-13.973 39.787-24.12l-.474-9.852c-.077-1.603-1.932-2.45-3.187-1.45-9.011 7.18-24.341 19.238-46.631 27.079-1.835.646-2.705 2.743-1.88 4.504l5.19 11.068c3.584-1.543 6.976-3.17 10.176-4.841.286-.15.586-.238.889-.298z" fill="#6cadef"/></g><g><path d="m252.278 185.015-9.473-3.907c-10.849 8.992-22.768 16.471-35.7 22.354l6.116 9.906c18.089-8.527 31.234-18.46 39.531-24.991 1.183-.932.918-2.788-.474-3.362z" fill="#fc657e"/></g><g><g><path d="m19.392 178.552c1.434-.591 2.397-1.958 2.472-3.508l.421-8.75c11.829 10.147 25.131 18.224 39.787 24.12l-3.87 2.09h.001c-1.327-.263-2.726.3-3.471 1.507l-5.835 9.45c-12.932-5.883-24.852-13.362-35.701-22.354z" fill="#dae6f1"/></g></g><g><path d="m128.005 220.901c-27.559 0-53.802-6.386-78.159-18.96l-10.661 17.265c27.629 14.546 57.459 21.936 88.82 21.936 31.391 0 61.219-7.394 88.814-21.947l-10.661-17.264c-24.325 12.58-50.566 18.97-78.153 18.97z" fill="#dae6f1"/></g><g><g><path d="m236.608 178.552c-1.434-.591-2.397-1.958-2.472-3.508l-.421-8.75c-11.829 10.147-25.131 18.224-39.787 24.12l3.87 2.09h-.001c1.327-.263 2.726.3 3.471 1.507l5.835 9.45c12.932-5.883 24.852-13.362 35.701-22.354z" fill="#dae6f1"/></g></g><g><path d="m74.426 183.742-16.23 8.766c.307.06.611.149.902.301 3.197 1.671 6.586 3.297 10.167 4.84l5.192-11.072c.442-.942.386-1.974-.031-2.835z" fill="#5290db"/></g><g><path d="m181.574 183.742c-.417.861-.472 1.893-.031 2.834l5.19 11.068c3.584-1.543 6.976-3.17 10.176-4.841.286-.15.586-.238.889-.298z" fill="#5290db"/></g><g><path d="m164.272 161.688h-72.544c-1.369 0-2.478-1.109-2.478-2.478v-7.544c0-1.369 1.109-2.478 2.478-2.478h72.544c1.369 0 2.478 1.109 2.478 2.478v7.544c0 1.368-1.109 2.478-2.478 2.478z" fill="#818182"/></g><g><path d="m145.522 117.688h-35.044c-1.369 0-2.478-1.109-2.478-2.478v-7.544c0-1.369 1.109-2.478 2.478-2.478h35.044c1.369 0 2.478 1.109 2.478 2.478v7.544c0 1.368-1.109 2.478-2.478 2.478z" fill="#818182"/></g><g><path d="m137.022 37.688h-18.044c-1.369 0-2.478-1.109-2.478-2.478v-7.544c0-1.369 1.109-2.478 2.478-2.478h18.044c1.369 0 2.478 1.109 2.478 2.478v7.544c0 1.368-1.109 2.478-2.478 2.478z" fill="#818182"/></g><g><path d="m93.566 161.688c-5.577 10.13-12.676 20.663-21.612 30.226l-2.689 5.735c-.001 0-.002-.001-.003-.001 6.086 2.622 12.731 4.998 19.954 6.927 9.628-14.071 16.848-28.907 22.244-42.887z" fill="#9d9da0"/></g><g><path d="m115.913 149.188c3.922-12.02 6.5-22.919 8.172-31.5h-13.077c-1.341 5.359-4.728 17.35-11.172 31.5z" fill="#9d9da0"/></g><g><path d="m131.915 117.688c1.671 8.581 4.25 19.48 8.172 31.5h16.078c-6.445-14.15-9.831-26.141-11.172-31.5z" fill="#9d9da0"/></g><g><path d="m144.54 161.688c5.396 13.979 12.615 28.814 22.242 42.883 7.233-1.932 13.888-4.314 19.984-6.941-.011.005-.021.01-.032.014l-2.688-5.731c-8.936-9.563-16.035-20.096-21.612-30.226h-17.894z" fill="#9d9da0"/></g><g><path d="m131.915 117.688h-7.831c-.838 4.301-1.904 9.185-3.252 14.5h14.335c-1.348-5.315-2.414-10.199-3.252-14.5z" fill="#818182"/></g><g><path d="m128 174.525c10.056 0 19.496 3.674 26.833 9.983-4.004-7.686-7.419-15.373-10.293-22.82h-33.079c-2.874 7.446-6.289 15.134-10.293 22.82 7.336-6.309 16.776-9.983 26.832-9.983z" fill="#818182"/></g><g><path d="m137.022 37.688h-18.044l-4.385 67.5h26.814z" fill="#9d9da0"/></g><g><g><path d="m134.25 25.188v-6.772c0-1.369-1.109-2.478-2.478-2.478h-7.544c-1.369 0-2.478 1.109-2.478 2.478v6.772z" fill="#818182"/></g></g><g><path d="m227.35 249.525c-3.1-.6-5.6-3-6.2-6.1 0-.1-.3-.1-.3 0-.6 3.1-3.1 5.5-6.2 6.1-.1 0-.1.2 0 .3 3.1.6 5.6 3 6.2 6.1 0 .1.3.1.3 0 .6-3.1 3.1-5.5 6.2-6.1.1-.1.1-.3 0-.3z" fill="#fc657e"/></g><g><path d="m49.9 126.9h2.3v2.3c0 1.8 1.4 3.2 3.2 3.2 1.7 0 3.2-1.4 3.2-3.1v-.1-2.3h2.3c1.8 0 3.2-1.4 3.2-3.2 0-1.7-1.4-3.2-3.1-3.2h-.1-2.3v-2.3c0-1.8-1.4-3.2-3.2-3.2-1.7 0-3.2 1.4-3.2 3.1v.1 2.3h-2.3c-1.8 0-3.2 1.4-3.2 3.2-.1 1.7 1.3 3.2 3.2 3.2-.1 0-.1 0 0 0z" fill="#70d6f9"/></g><g><circle cx="63.3" cy="148.9" fill="#f5c84c" r="3.4"/></g><g><circle cx="157.3" cy="3.4" fill="#87d147" r="3.4"/></g><g><path d="m163.7 30.2c4.5-.8 8-4.3 8.9-8.7 0-.2.4-.2.4 0 .9 4.4 4.4 7.9 8.9 8.7.2 0 .2.3 0 .4-4.5.8-8 4.3-8.9 8.7 0 .2-.4.2-.4 0-.9-4.4-4.4-7.9-8.9-8.7-.2-.1-.2-.4 0-.4z" fill="#f5c84c"/></g><g><path d="m41.986 215.493c-.361 0-.728-.079-1.075-.245-17.047-8.139-29.909-17.586-39.209-24.907-1.26-.992-1.88-2.531-1.659-4.118.221-1.591 1.239-2.907 2.726-3.52l15.671-6.462c.536-.221.9-.738.928-1.316l.896-18.603c.081-1.686 1.086-3.166 2.623-3.861 1.532-.692 3.303-.473 4.618.576 8.269 6.588 23.658 18.851 45.904 26.676 1.536.541 2.779 1.714 3.41 3.219.633 1.509.597 3.225-.098 4.706l-4.766 10.163c-.587 1.25-2.074 1.786-3.325 1.202-1.25-.586-1.788-2.075-1.202-3.325l4.766-10.163c.132-.28.064-.527.014-.649-.051-.12-.177-.335-.459-.435-22.321-7.852-37.864-19.927-46.541-26.831l-.846 17.565c-.12 2.505-1.696 4.742-4.016 5.698l-14.83 6.116c9.542 7.475 21.451 16.071 37.55 23.757 1.246.595 1.773 2.087 1.179 3.333-.43.899-1.325 1.424-2.259 1.424z"/></g><g><path d="m128.005 256c-32.983 0-64.217-7.839-92.833-23.299-1.408-.762-2.453-2.084-2.866-3.629-.413-1.544-.168-3.211.672-4.573h.001l19.633-31.794c1.598-2.588 4.953-3.517 7.646-2.11 20.911 10.931 43.705 16.473 67.748 16.473 24.021 0 46.814-5.544 67.747-16.479 2.689-1.404 6.046-.477 7.644 2.111l19.626 31.784c.84 1.36 1.086 3.026.674 4.57-.412 1.545-1.455 2.868-2.862 3.63-28.577 15.471-59.81 23.316-92.83 23.316zm-90.772-28.875c-.166.268-.132.525-.098.655.035.13.135.372.413.522 27.879 15.061 58.312 22.698 90.457 22.698 32.18 0 62.611-7.643 90.447-22.715.278-.151.378-.392.412-.521.035-.13.068-.387-.097-.654l-19.626-31.784c-.229-.369-.698-.503-1.075-.307-21.653 11.312-45.226 17.048-70.062 17.048-24.857 0-48.431-5.734-70.065-17.042-.373-.197-.846-.063-1.074.306z"/></g><g><path d="m213.938 215.529c-.934 0-1.83-.525-2.259-1.424-.594-1.246-.065-2.738 1.181-3.333 16.13-7.692 28.063-16.303 37.624-23.792l-14.83-6.116c-2.319-.957-3.896-3.193-4.016-5.699l-.846-17.564c-8.677 6.904-24.22 18.979-46.542 26.831-.281.099-.407.315-.458.435-.051.123-.118.37.014.649l4.918 10.489c.586 1.25.048 2.739-1.202 3.325-1.248.587-2.738.047-3.325-1.202l-4.918-10.489c-.694-1.48-.73-3.196-.098-4.705.631-1.505 1.874-2.678 3.41-3.219 22.246-7.825 37.636-20.088 45.904-26.676 1.316-1.049 3.086-1.269 4.618-.576 1.537.695 2.542 2.175 2.623 3.861l.896 18.602c.027.579.392 1.095.928 1.316l15.67 6.462c1.487.613 2.506 1.929 2.727 3.52.221 1.586-.399 3.125-1.658 4.117-9.319 7.335-22.206 16.799-39.286 24.944-.348.166-.714.244-1.075.244z"/></g><g><path d="m128 18c-1.381 0-2.5-1.119-2.5-2.5v-13c0-1.381 1.119-2.5 2.5-2.5s2.5 1.119 2.5 2.5v13c0 1.381-1.119 2.5-2.5 2.5z"/></g><g><path d="m128 106.664c-1.381 0-2.5-1.119-2.5-2.5v-64.953c0-1.381 1.119-2.5 2.5-2.5s2.5 1.119 2.5 2.5v64.953c0 1.381-1.119 2.5-2.5 2.5z"/></g><g><g><path d="m61.423 192.652c-.314 0-.634-.06-.943-.186-14.383-5.866-27.622-13.898-39.352-23.874-1.053-.895-1.18-2.472-.285-3.524.894-1.053 2.473-1.18 3.523-.285 11.325 9.631 24.111 17.387 38.002 23.052 1.278.521 1.892 1.98 1.37 3.259-.394.971-1.329 1.558-2.315 1.558z"/></g><g><path d="m47.888 205.5c-.352 0-.709-.075-1.049-.232-12.454-5.769-24.141-13.11-34.735-21.82-1.066-.877-1.22-2.452-.344-3.519.879-1.067 2.453-1.219 3.52-.344 10.267 8.44 21.592 15.555 33.661 21.145 1.253.581 1.798 2.066 1.218 3.319-.424.914-1.327 1.451-2.271 1.451z"/></g></g><g><path d="m128.005 223.401c-27.636 0-54.09-6.355-78.628-18.89-1.229-.628-1.717-2.134-1.089-3.364s2.135-1.716 3.364-1.089c23.826 12.171 49.515 18.343 76.353 18.343 26.946 0 52.705-6.211 76.56-18.461 1.227-.63 2.734-.147 3.365 1.082s.146 2.735-1.082 3.366c-24.568 12.616-51.094 19.013-78.843 19.013z"/></g><g><path d="m128.005 243.642c-31.393 0-61.397-7.335-89.18-21.803-1.225-.638-1.701-2.147-1.063-3.372.639-1.225 2.149-1.702 3.372-1.063 27.063 14.092 56.291 21.237 86.871 21.237 30.687 0 59.98-7.184 87.066-21.353 1.223-.64 2.733-.167 3.374 1.057.641 1.223.167 2.734-1.056 3.374-27.809 14.547-57.882 21.923-89.384 21.923z"/></g><g><g><path d="m207.657 205.711c-.947 0-1.853-.54-2.273-1.457-.576-1.255-.027-2.739 1.228-3.315 12.278-5.642 23.785-12.851 34.201-21.428 1.064-.878 2.641-.726 3.519.34s.726 2.642-.341 3.519c-10.748 8.851-22.622 16.29-35.291 22.111-.339.157-.694.23-1.043.23z"/></g><g><path d="m194.443 192.707c-.987 0-1.922-.588-2.316-1.559-.521-1.279.095-2.737 1.374-3.258 13.942-5.67 26.772-13.445 38.135-23.107 1.051-.895 2.63-.767 3.523.285.895 1.052.768 2.629-.285 3.524-11.767 10.008-25.053 18.059-39.49 23.931-.308.125-.627.184-.941.184z"/></g></g><g><path d="m59.502 194.304c-.889 0-1.75-.476-2.201-1.313-.656-1.215-.204-2.731 1.011-3.388l14.515-7.838c1.21-.656 2.731-.204 3.387 1.012.656 1.215.204 2.731-1.011 3.388l-14.515 7.838c-.377.205-.785.301-1.186.301z"/></g><g><path d="m196.793 194.464c-.401 0-.809-.097-1.187-.301l-14.31-7.729c-1.215-.656-1.667-2.173-1.011-3.388.654-1.215 2.172-1.668 3.388-1.012l14.31 7.729c1.215.656 1.667 2.173 1.011 3.388-.451.837-1.312 1.313-2.201 1.313z"/></g><g><path d="m164.271 164.188h-72.542c-2.745 0-4.979-2.233-4.979-4.978v-7.544c0-2.745 2.233-4.978 4.979-4.978h72.543c2.745 0 4.979 2.233 4.979 4.978v7.544c-.001 2.745-2.234 4.978-4.98 4.978zm-.021-12.522-72.521.022.021 7.522 72.522-.022z"/></g><g><path d="m145.521 120.188h-35.043c-2.745 0-4.979-2.233-4.979-4.978v-7.544c0-2.745 2.233-4.978 4.979-4.978h35.043c2.745 0 4.979 2.233 4.979 4.978v7.544c0 2.745-2.233 4.978-4.979 4.978zm-.021-12.522-35.021.022.021 7.522 35.022-.022z"/></g><g><path d="m137.021 40.188h-18.043c-2.745 0-4.979-2.233-4.979-4.978v-7.544c0-2.745 2.233-4.978 4.979-4.978h18.043c2.745 0 4.979 2.233 4.979 4.978v7.544c0 2.745-2.233 4.978-4.979 4.978zm-.021-12.522-18.021.022.021 7.521 18.022-.022z"/></g><g><path d="m89.54 206.598c-.484 0-.973-.14-1.403-.433-1.142-.776-1.438-2.331-.662-3.473 8.32-12.244 15.538-26.168 21.453-41.385.5-1.286 1.949-1.926 3.235-1.424 1.287.5 1.925 1.949 1.425 3.236-6.051 15.568-13.445 29.828-21.979 42.384-.483.711-1.269 1.095-2.069 1.095z"/></g><g><path d="m72.477 193.851c-.606 0-1.214-.219-1.695-.663-1.014-.937-1.077-2.519-.141-3.533 7.536-8.163 14.397-17.77 20.394-28.554.669-1.207 2.193-1.641 3.399-.97 1.207.671 1.641 2.193.97 3.4-6.188 11.131-13.283 21.062-21.089 29.516-.494.533-1.165.804-1.838.804z"/></g><g><path d="m116.154 150.949c-.255 0-.514-.039-.77-.122-1.313-.424-2.035-1.833-1.61-3.147 3.132-9.697 5.725-19.693 7.707-29.71.268-1.354 1.584-2.231 2.938-1.967 1.354.268 2.235 1.583 1.967 2.938-2.02 10.208-4.662 20.394-7.854 30.275-.342 1.059-1.323 1.733-2.378 1.733z"/></g><g><path d="m100.169 150.949c-.344 0-.692-.071-1.025-.221-1.259-.567-1.82-2.047-1.253-3.306 5.861-13.014 9.091-24.105 10.494-29.559.344-1.337 1.708-2.141 3.044-1.798 1.337.344 2.143 1.707 1.798 3.044-1.442 5.608-4.762 17.012-10.777 30.367-.418.925-1.328 1.473-2.281 1.473z"/></g><g><path d="m155.908 151.118c-.953 0-1.863-.547-2.28-1.472-6.073-13.45-9.413-24.927-10.862-30.571-.344-1.337.462-2.7 1.799-3.043 1.34-.344 2.7.462 3.043 1.799 1.41 5.488 4.659 16.651 10.577 29.758.568 1.258.009 2.739-1.249 3.307-.334.15-.684.222-1.028.222z"/></g><g><path d="m139.867 151.015c-1.055 0-2.036-.673-2.378-1.731-3.198-9.893-5.846-20.091-7.869-30.313-.269-1.354.612-2.669 1.967-2.938 1.353-.266 2.67.612 2.938 1.967 1.986 10.03 4.584 20.038 7.723 29.746.425 1.314-.296 2.723-1.61 3.148-.256.082-.516.121-.771.121z"/></g><g><path d="m166.033 205.967c-.804 0-1.593-.387-2.075-1.104-8.345-12.391-15.591-26.428-21.537-41.722-.5-1.287.138-2.735 1.424-3.236 1.289-.5 2.736.138 3.236 1.424 5.813 14.949 12.886 28.657 21.023 40.741.771 1.145.469 2.699-.677 3.47-.428.289-.913.427-1.394.427z"/></g><g><path d="m183.795 194.144c-.671 0-1.34-.268-1.833-.798-7.936-8.542-15.141-18.602-21.413-29.9-.67-1.207-.235-2.729.972-3.399 1.207-.671 2.729-.235 3.399.972 6.077 10.945 13.044 20.676 20.705 28.923.94 1.012.882 2.593-.13 3.533-.48.447-1.092.669-1.7.669z"/></g><g><path d="m134.5 134.688h-13c-1.381 0-2.5-1.119-2.5-2.5s1.119-2.5 2.5-2.5h13c1.381 0 2.5 1.119 2.5 2.5s-1.119 2.5-2.5 2.5z"/></g><g><path d="m101.396 186.813c-.709 0-1.414-.3-1.908-.884-.893-1.053-.763-2.631.291-3.523 7.899-6.694 17.922-10.381 28.222-10.381 10.243 0 20.224 3.651 28.103 10.28 1.057.889 1.192 2.466.304 3.522-.889 1.057-2.467 1.192-3.522.304-6.979-5.873-15.817-9.106-24.884-9.106-9.117 0-17.992 3.266-24.989 9.196-.472.398-1.046.592-1.617.592z"/></g><g><path d="m114.662 106.668c-.055 0-.109-.001-.165-.005-1.378-.089-2.422-1.279-2.333-2.657l4.281-65.896c.09-1.378 1.268-2.431 2.657-2.333 1.378.089 2.422 1.279 2.333 2.657l-4.281 65.896c-.086 1.323-1.185 2.338-2.492 2.338z"/></g><g><path d="m141.338 106.664c-1.307 0-2.406-1.015-2.492-2.338l-4.281-65.891c-.089-1.378.955-2.567 2.333-2.657 1.355-.1 2.567.955 2.657 2.333l4.281 65.891c.089 1.378-.955 2.567-2.333 2.657-.055.003-.11.005-.165.005z"/></g><g><g><path d="m121.75 26.813c-1.381 0-2.5-1.119-2.5-2.5v-5.897c0-2.745 2.233-4.978 4.979-4.978h7.543c2.745 0 4.979 2.233 4.979 4.978v5.741c0 1.381-1.119 2.5-2.5 2.5s-2.5-1.119-2.5-2.5v-5.741l-7.521.022.021 5.875c-.001 1.381-1.12 2.5-2.501 2.5z"/></g></g></g></g></svg>