<svg enable-background="new 0 0 256 256" height="512" viewBox="0 0 256 256" width="512" xmlns="http://www.w3.org/2000/svg"><g id="Layer_58"><g><g><path d="m227.331 53.513c-24.337-25.287-65.428-24.814-90.244.003l-6.409 6.409c-1.479 1.479-3.877 1.479-5.355 0l-6.409-6.409c-24.816-24.817-65.907-25.29-90.244-.003-23.584 24.504-23.3 63.489.855 87.643l87.879 87.879c5.853 5.853 15.342 5.853 21.195 0l87.879-87.879c24.153-24.154 24.438-63.139.853-87.643z" fill="#fc657e"/></g><g><path d="m146.162 203.434v-6.416c-5.445 2.85-11.621 4.473-18.162 4.473-6.541 0-12.718-1.623-18.162-4.473v6.416c0 4.748-2.473 9.112-6.46 11.577l14.025 14.025c5.853 5.853 15.342 5.853 21.195 0l14.025-14.025c-3.987-2.465-6.461-6.829-6.461-11.577z" fill="#f9d0b4"/></g><g><path d="m161.792 114.915c-2.578-2.704-6.769-2.952-9.708-.646-4.646 3.647-12.685 8.155-24.04 8.155-11.382 0-19.464-4.53-24.13-8.181-2.936-2.298-7.119-2.04-9.692.658l-.013.014c-3.615 3.791-5.632 8.828-5.632 14.067v33.086c0 21.683 17.741 39.424 39.424 39.424 21.683 0 39.424-17.741 39.424-39.424v-33.086c-.001-5.239-2.018-10.276-5.633-14.067z" fill="#f9d0b4"/></g><g><path d="m169.953 132.022c-.861 0-1.705.073-2.53.201v29.845c0 .889-.041 1.769-.099 2.644.858.138 1.732.23 2.629.23 9.09 0 16.46-7.369 16.46-16.46s-7.369-16.46-16.46-16.46z" fill="#f9d0b4"/></g><g><path d="m88.576 162.068c0-4.084 0-21.725 0-29.845-.825-.128-1.669-.201-2.53-.201-9.09 0-16.46 7.369-16.46 16.46 0 9.09 7.369 16.46 16.46 16.46.897 0 1.771-.091 2.629-.23v-.001c-.058-.875-.099-1.754-.099-2.643z" fill="#f9d0b4"/></g><g><path d="m167.276 98.393c-1.32 0-2.465-1.018-2.483-2.338-.302-21.968-25.388-26.095-50.371-21.781-21.181 3.658-36.662 22.025-36.662 43.519v16.482c2.436-1.424 5.261-2.254 8.285-2.254.861 0 1.705.073 2.53.201v-3.241c0-5.238 2.017-10.276 5.632-14.067l.013-.014c2.573-2.698 6.756-2.956 9.692-.658 4.666 3.652 12.748 8.181 24.13 8.181 11.355 0 19.394-4.508 24.04-8.155 2.938-2.307 7.13-2.058 9.708.646 3.615 3.791 5.632 8.828 5.632 14.067v3.241c.825-.128 1.669-.201 2.53-.201 3.061 0 5.917.851 8.372 2.307 0-4.6 0-9.325 0-13.533.002-19.67-7.101-22.402-11.048-22.402z" fill="#5b5d60"/></g><g><path d="m135.489 165.253c-2.294-1.088-4.806-.439-6.372 1.191-.603.627-1.632.627-2.235 0-1.566-1.63-4.078-2.279-6.372-1.191-6.845 3.247-12.313 3.667-15.553 3.496-1.277-.067-2.04 1.408-1.221 2.39 7.683 9.206 18.655 6.919 22.911 5.558.879-.281 1.825-.281 2.704 0 4.256 1.361 15.228 3.648 22.911-5.558.819-.982.056-2.458-1.221-2.39-3.239.171-8.707-.25-15.552-3.496z" fill="#5b5d60"/></g><g><path d="m212.35 188.275c-3.1-.6-5.6-3-6.2-6.1 0-.1-.3-.1-.3 0-.6 3.1-3.1 5.5-6.2 6.1-.1 0-.1.2 0 .3 3.1.6 5.6 3 6.2 6.1 0 .1.3.1.3 0 .6-3.1 3.1-5.5 6.2-6.1.1-.1.1-.3 0-.3z" fill="#fc657e"/></g><g><path d="m227.9 31.975h2.3v2.3c0 1.8 1.4 3.2 3.2 3.2 1.7 0 3.2-1.4 3.2-3.1v-.1-2.3h2.3c1.8 0 3.2-1.4 3.2-3.2 0-1.7-1.4-3.2-3.1-3.2h-.1-2.3v-2.3c0-1.8-1.4-3.2-3.2-3.2-1.7 0-3.2 1.4-3.2 3.1v.1 2.3h-2.3c-1.8 0-3.2 1.4-3.2 3.2-.1 1.7 1.3 3.2 3.2 3.2-.1 0-.1 0 0 0z" fill="#70d6f9"/></g><g><circle cx="3.4" cy="131.975" fill="#87d147" r="3.4"/></g><g><circle cx="252.6" cy="61.475" fill="#f5c84c" r="3.4"/></g><g><path d="m10.7 162.275c4.5-.8 8-4.3 8.9-8.7 0-.2.4-.2.4 0 .9 4.4 4.4 7.9 8.9 8.7.2 0 .2.3 0 .4-4.5.8-8 4.3-8.9 8.7 0 .2-.4.2-.4 0-.9-4.4-4.4-7.9-8.9-8.7-.2-.1-.2-.4 0-.4z" fill="#f5c84c"/></g><g><path d="m128 235.916c-4.479.001-8.956-1.704-12.365-5.113l-87.879-87.879c-12.138-12.138-18.907-28.274-19.062-45.436-.154-17.14 6.3-33.373 18.173-45.709 11.973-12.439 28.263-19.383 45.87-19.55 17.909-.139 35.368 6.943 47.944 19.52l6.409 6.409c.487.487 1.334.485 1.819 0l6.41-6.409c12.576-12.576 30.062-19.671 47.944-19.52 17.606.168 33.896 7.111 45.868 19.551 11.874 12.336 18.328 28.569 18.174 45.709-.154 17.162-6.924 33.298-19.062 45.436l-87.879 87.879c-3.408 3.407-7.886 5.112-12.364 5.112zm-54.631-198.69c-.195 0-.389.001-.584.003-16.253.155-31.281 6.554-42.315 18.018-10.961 11.387-16.919 26.373-16.776 42.196.143 15.844 6.392 30.74 17.597 41.945l87.879 87.879c4.869 4.868 12.792 4.869 17.66 0l87.879-87.879c11.205-11.205 17.454-26.102 17.597-41.945.143-15.823-5.815-30.81-16.775-42.197-11.034-11.464-26.062-17.862-42.314-18.018-16.555-.16-32.728 6.422-44.361 18.055l-6.409 6.409c-1.187 1.188-2.766 1.842-4.445 1.842s-3.258-.654-4.446-1.842l-6.409-6.409c-11.497-11.495-27.424-18.057-43.778-18.057z"/></g><g><circle cx="146.359" cy="150.301" r="5.297"/></g><g><circle cx="110.787" cy="150.301" r="5.297"/></g><g><path d="m129.875 188.075h-3.75c-1.381 0-2.5-1.119-2.5-2.5s1.119-2.5 2.5-2.5h3.75c1.381 0 2.5 1.119 2.5 2.5s-1.119 2.5-2.5 2.5z"/></g><g><path d="m103.719 217.294c-.812 0-1.609-.395-2.089-1.123-.76-1.153-.442-2.703.71-3.464 3.129-2.063 4.997-5.53 4.997-9.273v-6.08c0-1.381 1.119-2.5 2.5-2.5s2.5 1.119 2.5 2.5v6.08c0 5.428-2.708 10.455-7.244 13.447-.424.279-.902.413-1.374.413z"/></g><g><path d="m152.053 217.14c-.489 0-.983-.143-1.417-.441-4.366-3.009-6.974-7.968-6.974-13.265v-5.965c0-1.381 1.119-2.5 2.5-2.5s2.5 1.119 2.5 2.5v5.965c0 3.652 1.799 7.071 4.812 9.147 1.137.783 1.423 2.34.64 3.478-.486.703-1.267 1.081-2.061 1.081z"/></g><g><path d="m128 203.991c-23.117 0-41.923-18.807-41.923-41.923v-33.087c0-5.908 2.246-11.517 6.323-15.792 3.471-3.642 9.078-4.028 13.055-.916 4.459 3.49 11.999 7.65 22.589 7.65 10.569 0 18.068-4.145 22.497-7.622 3.982-3.125 9.598-2.745 13.062.888 4.077 4.275 6.322 9.884 6.322 15.792v33.087c-.001 23.117-18.808 41.923-41.925 41.923zm-28.59-88.811c-1.241 0-2.466.488-3.378 1.446-3.2 3.355-4.955 7.738-4.955 12.355v33.087c0 20.359 16.564 36.923 36.923 36.923 20.36 0 36.924-16.563 36.924-36.923v-33.087c0-4.617-1.755-9-4.941-12.341-1.678-1.76-4.409-1.932-6.355-.405-5.049 3.964-13.586 8.688-25.583 8.688-12.015 0-20.591-4.738-25.67-8.713-.885-.69-1.931-1.03-2.965-1.03z"/></g><g><path d="m169.953 167.441c-.658 0-1.329-.041-2.052-.125-1.372-.16-2.354-1.401-2.194-2.772.16-1.372 1.408-2.36 2.772-2.194.529.062 1.011.092 1.474.092 7.697 0 13.96-6.263 13.96-13.96s-6.263-13.96-13.96-13.96c-.415 0-.826.021-1.231.058-1.367.147-2.592-.886-2.717-2.262-.126-1.375.887-2.592 2.262-2.717.571-.053 1.139-.079 1.687-.079 10.454 0 18.96 8.506 18.96 18.96s-8.507 18.959-18.961 18.959z"/></g><g><path d="m86.046 167.441c-10.454 0-18.959-8.506-18.959-18.96s8.505-18.96 18.959-18.96c.729 0 1.478.046 2.229.136 1.371.165 2.349 1.41 2.184 2.781s-1.414 2.337-2.78 2.184c-.553-.066-1.103-.101-1.632-.101-7.697 0-13.959 6.263-13.959 13.96s6.262 13.96 13.959 13.96c.48 0 .98-.032 1.528-.099 1.376-.157 2.616.813 2.781 2.184.166 1.37-.812 2.615-2.183 2.781-.749.09-1.444.134-2.127.134z"/></g><g><path d="m77.761 136.438c-1.381 0-2.5-1.119-2.5-2.5v-16.145c0-22.769 16.291-42.107 38.736-45.983 19.778-3.413 36.239-1.126 45.158 6.281 5.265 4.372 8.002 10.357 8.137 17.792 5.098.03 13.534 3.313 13.534 24.912v12.984c0 1.381-1.119 2.5-2.5 2.5s-2.5-1.119-2.5-2.5v-12.984c0-12.648-3.116-19.902-8.55-19.902-2.712 0-4.947-2.156-4.982-4.806-.082-5.967-2.213-10.729-6.333-14.149-7.792-6.472-22.78-8.366-41.113-5.2-20.041 3.46-34.587 20.727-34.587 41.056v16.145c0 1.38-1.119 2.499-2.5 2.499z"/></g><g><path d="m118.564 180.493c-5.316 0-11.644-1.639-16.746-7.752-1.006-1.205-1.202-2.892-.499-4.296.708-1.416 2.192-2.288 3.771-2.192 3.07.162 8.053-.272 14.35-3.259 2.835-1.347 6.167-.9 8.561 1.081 2.394-1.979 5.726-2.425 8.562-1.081 6.297 2.986 11.276 3.423 14.349 3.259 1.597-.095 3.063.778 3.771 2.191.703 1.404.508 3.091-.498 4.297-8.635 10.345-20.773 7.879-25.592 6.337-.38-.121-.801-.119-1.183.001-1.973.63-5.167 1.414-8.846 1.414zm-11.265-9.233c6.544 5.978 15.039 4.191 18.587 3.057 1.383-.441 2.843-.44 4.225-.001 3.551 1.135 12.046 2.922 18.589-3.056-3.599-.141-8.502-1.007-14.282-3.748 0 0 0 0-.001 0-1.449-.689-2.79-.072-3.497.664-.756.786-1.82 1.237-2.92 1.237s-2.164-.451-2.92-1.237c-.708-.736-2.049-1.354-3.497-.664-5.781 2.741-10.685 3.607-14.284 3.748z"/></g></g></g></svg>