<svg enable-background="new 0 0 256 256" height="512" viewBox="0 0 256 256" width="512" xmlns="http://www.w3.org/2000/svg"><g id="Layer_45"><g><g><path d="m194.926 138.729s-12.699 15.008-19.626 5.773 18.472-18.472 10.39-38.098c0 0-8.487 15.757-17.317 6.927-9.236-9.236 12.699-16.163 8.081-32.326 0 0-8.461 11.165-16.163 3.464-8.081-8.081 8.081-17.317 4.618-32.325 0 0-6.009 4.337-12.837 5.847-6.06 1.34-12.095-1.579-15.099-5.912-13.325-19.228-.614-49.579-.614-49.579-36.943 24.244-16.163 48.488-24.244 56.57s-20.781-6.927-20.781-6.927c-3.463 15.008 12.699 24.244 4.618 32.325-7.701 7.701-16.163-3.464-16.163-3.464-4.618 16.163 17.317 23.09 8.081 32.326-8.83 8.83-17.317-6.927-17.317-6.927-8.081 19.626 17.317 28.862 10.39 38.098s-19.626-5.773-19.626-5.773-3.463 24.244 12.699 40.407c6.109 6.109 15.183 12.051 24.11 17.08 9.102 5.128 19.404 7.741 29.851 7.741 10.636 0 21.131-2.65 30.39-7.883 8.846-4.999 17.808-10.887 23.859-16.938 16.163-16.162 12.7-40.406 12.7-40.406z" fill="#f5c84c"/></g><g><path d="m158.681 192.908c-4.487-5.983 11.965-11.965 6.73-24.678 0 0-5.497 10.207-11.217 4.487-5.982-5.982 8.226-10.469 5.235-20.939 0 0-5.481 7.232-10.47 2.244-5.235-5.235 5.235-11.217 2.991-20.939 0 0-3.892 2.809-8.315 3.788-3.926.868-7.835-1.023-9.78-3.83-8.632-12.454-.398-32.114-.398-32.114-23.93 15.704-10.469 31.408-15.704 36.643s-13.461-4.487-13.461-4.487c-2.243 9.722 8.226 15.704 2.991 20.939-4.989 4.989-10.47-2.244-10.47-2.244-2.991 10.47 11.217 14.957 5.235 20.939-5.72 5.72-11.217-4.487-11.217-4.487-5.235 12.713 11.217 18.695 6.73 24.678-.67.893-1.424 1.43-2.221 1.708.928.542 1.857 1.077 2.786 1.6 9.102 5.128 19.404 7.741 29.85 7.741 10.636 0 21.131-2.65 30.39-7.883.845-.477 1.69-.965 2.534-1.458-.795-.278-1.549-.815-2.219-1.708z" fill="#fca265"/></g><g><path d="m154.045 12.566c-7.707 8.697-9.836 15.88-9.734 21.82.064 3.75 3.65 6.432 7.269 5.45 3.09-.838 4.943-4.049 4.034-7.119-2.925-9.877-1.569-20.151-1.569-20.151z" fill="#f5c84c"/></g><g><path d="m69.637 36.246c-6.831 9.4-8.257 16.756-7.581 22.658.426 3.726 4.254 6.049 7.761 4.723 2.995-1.133 4.529-4.507 3.328-7.475-3.866-9.55-3.508-19.906-3.508-19.906z" fill="#fca265"/></g><g><path d="m202.578 94.189c7.889 10.856 9.535 19.351 8.756 26.167-.492 4.303-4.913 6.986-8.963 5.454-3.459-1.308-5.231-5.205-3.843-8.633 4.463-11.027 4.05-22.988 4.05-22.988z" fill="#fca265"/></g><g><path d="m133.938 203.678c-1.318.124-2.642.207-3.968.248-.663.021-1.328.031-1.992.031-2.506 0-5.002-.154-7.477-.454v49.997h15.241v-50.02c-.6.074-1.201.141-1.804.198z" fill="#a57453"/></g><g><path d="m55.35 110.2c-3.1-.6-5.6-3-6.2-6.1 0-.1-.3-.1-.3 0-.6 3.1-3.1 5.5-6.2 6.1-.1 0-.1.2 0 .3 3.1.6 5.6 3 6.2 6.1 0 .1.3.1.3 0 .6-3.1 3.1-5.5 6.2-6.1.1-.1.1-.3 0-.3z" fill="#fc657e"/></g><g><path d="m70.205 224.9h2.3v2.3c0 1.8 1.4 3.2 3.2 3.2 1.7 0 3.2-1.4 3.2-3.1v-.1-2.3h2.3c1.8 0 3.2-1.4 3.2-3.2 0-1.7-1.4-3.2-3.1-3.2h-.1-2.3v-2.3c0-1.8-1.4-3.2-3.2-3.2-1.7 0-3.2 1.4-3.2 3.1v.1 2.3h-2.3c-1.8 0-3.2 1.4-3.2 3.2-.1 1.7 1.3 3.2 3.2 3.2-.1 0-.1 0 0 0z" fill="#87d147"/></g><g><circle cx="95.522" cy="247.4" fill="#f5c84c" r="3.4"/></g><g><circle cx="176.6" cy="3.4" fill="#70d6f9" r="3.4"/></g><g><path d="m178.65 31.252c4.487-.87 7.932-4.425 8.763-8.838-.003-.2.397-.206.4-.006.969 4.385 4.523 7.83 9.035 8.56.2-.003.205.297.006.4-4.487.87-7.932 4.425-8.763 8.838.003.2-.397.206-.4.006-.969-4.385-4.523-7.83-9.035-8.56-.202-.097-.206-.397-.006-.4z" fill="#f5c84c"/></g><g><path d="m127.978 206.457c-10.97 0-21.716-2.788-31.078-8.063-10.881-6.131-19.175-12.016-24.65-17.491-16.853-16.853-13.555-41.488-13.406-42.528.139-.975.837-1.777 1.783-2.049.948-.271 1.964.036 2.6.788 1.902 2.239 7.836 8.007 12.256 7.889 1.369-.042 2.469-.678 3.462-2.002 1.712-2.282.201-4.662-3.926-9.948-5.012-6.421-11.877-15.215-6.775-27.603.368-.893 1.218-1.495 2.183-1.544.929-.057 1.871.459 2.33 1.311 1.14 2.102 4.953 7.689 8.843 8.255 1.529.222 2.999-.403 4.506-1.911 2.667-2.667 1.93-4.451-2.412-10.128-3.791-4.957-8.983-11.745-6.307-21.116.261-.911 1.013-1.596 1.944-1.771.933-.172 1.881.193 2.452.947 1.04 1.359 4.495 4.946 7.911 5.172 1.583.101 3.063-.537 4.492-1.965 2.619-2.62 1.74-5.116-1.24-11.068-2.646-5.283-5.937-11.858-4.046-20.052.212-.922.927-1.645 1.847-1.868.922-.225 1.886.093 2.497.815 1.932 2.273 8.037 8.223 13.018 8.426 1.599.062 2.896-.46 4.088-1.652 1.772-1.772 1.431-5.532.998-10.292-1.062-11.682-2.667-29.336 23.641-46.601.918-.603 2.122-.535 2.969.167.845.701 1.133 1.874.71 2.887-.122.292-12.015 29.331.363 47.189 2.218 3.2 7.079 6.093 12.504 4.896 6.218-1.375 11.859-5.395 11.916-5.435.679-.489 1.557-.605 2.342-.311.782.295 1.367.961 1.555 1.777 1.892 8.194-1.4 14.769-4.046 20.052-2.98 5.952-3.859 8.448-1.24 11.068 1.429 1.428 2.901 2.065 4.493 1.965 3.416-.227 6.87-3.813 7.913-5.176.574-.749 1.525-1.115 2.453-.939.929.176 1.681.858 1.94 1.767 2.678 9.372-2.515 16.16-6.306 21.117-4.343 5.677-5.079 7.461-2.412 10.128 1.507 1.506 2.977 2.128 4.505 1.91 3.89-.565 7.703-6.152 8.845-8.258.459-.848 1.339-1.361 2.331-1.307.964.051 1.813.651 2.18 1.543 5.102 12.388-1.764 21.182-6.775 27.603-4.127 5.286-5.637 7.666-3.926 9.948.994 1.326 2.096 1.962 3.466 2.002.048.001.097.002.146.002 4.427 0 10.358-5.826 12.106-7.891.637-.752 1.655-1.059 2.6-.788.946.272 1.645 1.074 1.783 2.049.148 1.041 3.447 25.675-13.406 42.528-5.432 5.432-13.64 11.268-24.396 17.347-9.503 5.371-20.438 8.209-31.624 8.209zm-64.456-62.01c.024 7.75 1.651 22.31 12.262 32.921 5.154 5.153 13.085 10.762 23.57 16.67 8.614 4.854 18.512 7.419 28.623 7.419 10.326 0 20.41-2.614 29.16-7.559 10.363-5.857 18.209-11.418 23.321-16.53 10.646-10.646 12.259-25.19 12.271-32.929-3.136 2.703-7.643 5.668-12.111 5.563-2.89-.085-5.421-1.468-7.319-4-4.177-5.569-.028-10.884 3.984-16.024 3.885-4.977 8.195-10.498 7.395-17.689-2.215 2.667-5.438 5.564-9.301 6.131-2.166.318-5.45.002-8.772-3.321-6.119-6.118-1.631-11.986 1.976-16.701 2.788-3.646 5.649-7.386 5.984-12.029-2.017 1.577-4.68 3.082-7.659 3.286-3.049.207-5.938-.974-8.383-3.417-5.416-5.417-2.508-11.225.305-16.842 2.031-4.058 4.119-8.227 4.078-13.06-2.555 1.434-6.27 3.207-10.294 4.097-6.583 1.457-13.855-1.394-17.693-6.929-9.883-14.258-6.466-33.757-3.442-44.369-17.28 13.999-16.063 27.387-15.151 37.424.529 5.823.986 10.851-2.442 14.28-2.16 2.16-4.879 3.238-7.837 3.112-4.803-.2-9.484-3.426-12.662-6.213.321 4.247 2.199 7.998 4.031 11.658 2.813 5.617 5.721 11.426.305 16.842-2.443 2.443-5.344 3.624-8.382 3.417-2.979-.204-5.644-1.709-7.66-3.286.336 4.643 3.196 8.383 5.984 12.029 3.606 4.715 8.095 10.583 1.977 16.701-3.322 3.322-6.605 3.638-8.773 3.321-3.862-.567-7.086-3.463-9.301-6.131-.8 7.19 3.51 12.712 7.395 17.688 4.013 5.14 8.162 10.456 3.984 16.025-1.898 2.532-4.43 3.915-7.319 4-4.489.108-8.968-2.855-12.104-5.555z"/></g><g><path d="m160.311 196.858c-.398 0-.803-.095-1.178-.296-.929-.497-1.753-1.222-2.452-2.154-3.109-4.146.052-8.196 2.592-11.45 2.086-2.671 4.22-5.405 4.606-8.717-1.374 1.267-3.075 2.358-5.02 2.644-1.602.236-4.022.01-6.433-2.4-4.509-4.508-1.207-8.824 1.203-11.976 1.341-1.754 2.64-3.452 3.288-5.348-1.071.576-2.291 1.008-3.613 1.098-1.56.11-3.878-.235-6.112-2.47-3.958-3.957-1.746-8.375.032-11.926 1.043-2.084 2.11-4.215 2.441-6.55-1.552.769-3.462 1.55-5.49 1.999-4.602 1.016-9.69-.976-12.375-4.846-5.814-8.389-4.756-19.431-3.057-26.745-8.624 8.038-7.948 15.485-7.387 21.664.348 3.826.676 7.44-1.837 9.953-1.577 1.577-3.57 2.359-5.734 2.273-2.495-.104-4.917-1.354-6.887-2.768.482 1.751 1.308 3.4 2.119 5.021 1.778 3.55 3.99 7.969.033 11.926-2.233 2.235-4.551 2.582-6.113 2.47-1.322-.091-2.542-.522-3.613-1.098.648 1.896 1.947 3.594 3.288 5.348 2.411 3.151 5.712 7.467 1.203 11.976-2.41 2.41-4.828 2.636-6.433 2.4-1.944-.285-3.646-1.376-5.02-2.644.387 3.312 2.521 6.045 4.606 8.717 2.54 3.254 5.701 7.303 2.592 11.45-.643.855-1.391 1.536-2.224 2.025-1.188.698-2.723.302-3.422-.89-.698-1.191-.3-2.723.891-3.422.26-.153.514-.394.756-.716.701-.934.019-2.102-2.534-5.372-3.38-4.33-8.009-10.259-4.509-18.757.368-.893 1.218-1.495 2.183-1.544.938-.061 1.872.459 2.33 1.311.8 1.47 3.098 4.607 5.081 4.894.279.039 1.03.148 2.167-.989 1.12-1.12 1.292-1.571-1.64-5.403-2.568-3.359-6.087-7.959-4.231-14.456.261-.911 1.014-1.596 1.944-1.771.934-.171 1.881.193 2.452.948.566.735 2.617 2.882 4.483 3.003.481.03 1.247-.039 2.227-1.018 1.241-1.241.93-2.361-.969-6.151-1.776-3.549-3.988-7.965-2.691-13.582.212-.922.927-1.645 1.847-1.868.921-.225 1.886.093 2.497.815 1.104 1.296 4.91 5.031 7.798 5.147.786.034 1.393-.219 1.987-.813.856-.857.642-3.224.393-5.964-.707-7.776-1.774-19.528 15.707-31.001.919-.604 2.123-.536 2.97.167.846.703 1.133 1.875.708 2.889-.075.182-7.59 18.561.147 29.724 1.315 1.896 4.203 3.471 7.187 2.813 3.84-.85 7.359-3.352 7.395-3.376.68-.487 1.559-.603 2.342-.309.782.295 1.366.961 1.554 1.776 1.297 5.616-.915 10.033-2.691 13.581-1.897 3.791-2.21 4.91-.968 6.152.981.982 1.744 1.049 2.235 1.017 1.925-.132 4.019-2.402 4.474-3.002.571-.754 1.521-1.118 2.452-.948.931.174 1.684.86 1.944 1.771 1.855 6.497-1.663 11.097-4.231 14.456-2.932 3.832-2.76 4.283-1.64 5.403 1.141 1.139 1.888 1.029 2.172.988 1.983-.291 4.316-3.482 5.076-4.893.459-.852 1.378-1.372 2.33-1.311.965.05 1.814.651 2.183 1.544 3.499 8.498-1.129 14.427-4.509 18.756-2.552 3.27-3.234 4.438-2.532 5.374.259.345.531.595.811.745 1.218.652 1.676 2.167 1.024 3.384-.45.843-1.314 1.322-2.205 1.322z"/></g><g><path d="m150.053 42.541c-1.765 0-3.493-.569-4.947-1.662-2.049-1.54-3.25-3.891-3.294-6.451-.135-7.807 3.255-15.501 10.362-23.521.728-.822 1.907-1.074 2.909-.616.999.456 1.584 1.511 1.44 2.6-.015.116-1.24 9.903 1.488 19.116.625 2.113.375 4.342-.706 6.279-1.097 1.966-2.897 3.373-5.071 3.962-.722.197-1.455.293-2.181.293zm1.2-22.214c-3.061 4.802-4.521 9.429-4.441 14.016.017 1.007.49 1.933 1.297 2.539.813.61 1.837.807 2.817.542.863-.234 1.578-.793 2.014-1.574.419-.751.518-1.611.277-2.422-1.373-4.639-1.855-9.322-1.964-13.101zm2.792-7.761h.01z"/></g><g><path d="m67.768 66.504c-1.494 0-2.976-.41-4.296-1.215-2.188-1.334-3.609-3.559-3.899-6.102-.888-7.758 1.743-15.743 8.042-24.411.646-.889 1.796-1.252 2.836-.894 1.039.357 1.723 1.351 1.686 2.448-.004.118-.279 9.977 3.326 18.883.826 2.042.792 4.287-.096 6.318-.902 2.063-2.559 3.637-4.664 4.434-.957.361-1.949.539-2.935.539zm-.162-22.264c-2.581 5.074-3.588 9.821-3.067 14.379.115 1.001.675 1.876 1.536 2.402.869.53 1.911.626 2.856.267.837-.316 1.495-.941 1.854-1.76.345-.788.359-1.654.042-2.438-1.815-4.486-2.746-9.098-3.221-12.85zm2.031-7.994h.01z"/></g><g><path d="m204.736 128.747c-1.093 0-2.191-.198-3.25-.598-2.335-.883-4.171-2.629-5.17-4.915-.984-2.25-1.021-4.734-.106-6.995 4.2-10.376 3.873-21.851 3.869-21.966-.036-1.098.648-2.091 1.688-2.448 1.04-.356 2.189.006 2.834.894 7.215 9.928 10.23 19.061 9.217 27.921-.322 2.818-1.896 5.282-4.32 6.76-1.465.892-3.106 1.347-4.762 1.347zm-.051-26.61c-.489 4.501-1.553 10.329-3.84 15.978-.406 1.003-.388 2.109.053 3.116.456 1.042 1.293 1.838 2.357 2.241 1.209.457 2.535.333 3.639-.34 1.098-.669 1.811-1.785 1.957-3.06.648-5.674-.719-11.588-4.166-17.935z"/></g><g><path d="m120.501 256c-1.381 0-2.5-1.119-2.5-2.5v-49.083c0-1.381 1.119-2.5 2.5-2.5s2.5 1.119 2.5 2.5v49.083c0 1.381-1.119 2.5-2.5 2.5z"/></g><g><path d="m135.742 256c-1.381 0-2.5-1.119-2.5-2.5v-49.083c0-1.381 1.119-2.5 2.5-2.5s2.5 1.119 2.5 2.5v49.083c0 1.381-1.119 2.5-2.5 2.5z"/></g></g></g></svg>