<svg id="Layer_1" enable-background="new 0 0 512 512" height="512" viewBox="0 0 512 512" width="512" xmlns="http://www.w3.org/2000/svg"><g><path d="m471.948 147.691c6.124 10.797 9.919 23.068 10.691 36.133 2.649.127 4.762 2.296 4.762 4.976s-2.113 4.849-4.762 4.976c-1.145 19.269-8.884 36.823-20.982 50.436 1.817 1.961 1.786 5.017-.121 6.924-.976.976-2.256 1.464-3.535 1.464-1.219 0-2.432-.458-3.388-1.344-13.613 12.098-31.167 19.837-50.436 20.982-.127 2.649-2.296 4.762-4.976 4.762s-4.849-2.113-4.976-4.762c-19.269-1.145-36.823-8.884-50.436-20.982-.956.887-2.169 1.344-3.388 1.344-1.279 0-2.56-.488-3.535-1.464-1.907-1.907-1.938-4.962-.121-6.923-12.102-13.618-19.844-31.179-20.984-50.457-2.552-.226-4.56-2.345-4.56-4.956 0-2.61 2.008-4.729 4.56-4.956 1.133-19.251 8.818-36.79 20.867-50.4-1.685-1.959-1.626-4.905.228-6.769 1.854-1.865 4.805-1.94 6.774-.262 13.616-12.146 31.221-19.916 50.616-21.054.227-2.551 2.345-4.559 4.956-4.559s4.729 2.008 4.956 4.559c12.994.763 25.179 4.505 35.907 10.543-46.55-37.918-111.806-61.502-184.065-61.502-141.385 0-256 90.259-256 201.6 0 39.908 14.728 77.105 40.132 108.41-15.862-20.561-26.041-45.714-28.132-73.083-2.934-2.568-4.8-6.33-4.8-10.527s1.866-7.959 4.801-10.527c2.279-29.836 14.167-57.041 32.556-78.529-.031-.379-.057-.759-.057-1.143 0-3.722 1.479-7.25 4.165-9.936 2.685-2.686 6.213-4.165 9.935-4.165.384 0 .764.026 1.143.057 21.489-18.389 48.694-30.277 78.53-32.556 2.568-2.935 6.33-4.8 10.527-4.8s7.958 1.865 10.526 4.799c29.871 2.274 57.105 14.152 78.606 32.554.355-.027.71-.053 1.069-.053 3.722 0 7.25 1.479 9.936 4.165 2.686 2.685 4.165 6.214 4.165 9.936 0 .358-.026.712-.053 1.066 18.392 21.479 30.28 48.698 32.554 78.608 2.934 2.568 4.799 6.329 4.799 10.526s-1.866 7.959-4.801 10.528c-2.279 29.83-14.163 57.031-32.547 78.518.022.317.047.634.047.954 0 3.722-1.479 7.25-4.165 9.936-2.583 2.583-6.204 4.064-9.936 4.064-.274 0-.541-.023-.811-.037-21.586 18.59-48.991 30.595-79.055 32.849-2.562 2.811-6.24 4.589-10.334 4.589s-7.772-1.778-10.334-4.589c-30.064-2.254-57.468-14.259-79.054-32.849-.123.007-.246.014-.37.017 46.957 44.487 117.754 72.818 196.958 72.818 141.385 0 256-90.259 256-201.6 0-39.865-14.698-77.025-40.052-108.309zm-78.348 204.909h-12.019c-.769 4.612-2.582 8.867-5.19 12.521l8.545 8.545c1.953 1.952 1.953 5.118 0 7.07-.976.977-2.256 1.465-3.535 1.465s-2.56-.488-3.535-1.465l-8.545-8.545c-3.653 2.607-7.909 4.421-12.521 5.19v12.02c0 2.762-2.238 5-5 5s-5-2.238-5-5v-12.02c-4.661-.777-8.958-2.621-12.637-5.273l-8.628 8.628c-.976.977-2.256 1.465-3.535 1.465s-2.56-.488-3.535-1.465c-1.953-1.952-1.953-5.118 0-7.07l8.661-8.661c-2.563-3.627-4.346-7.841-5.107-12.404h-12.219c-2.762 0-5-2.238-5-5s2.238-5 5-5h12.22c.769-4.612 2.583-8.867 5.19-12.52l-8.745-8.745c-1.953-1.952-1.953-5.118 0-7.07 1.951-1.953 5.119-1.953 7.07 0l8.745 8.745c3.653-2.607 7.908-4.421 12.52-5.19v-12.221c0-2.762 2.238-5 5-5s5 2.238 5 5v12.22c4.563.761 8.777 2.544 12.404 5.107l8.662-8.662c1.951-1.953 5.119-1.953 7.07 0 1.953 1.952 1.953 5.118 0 7.07l-8.628 8.628c2.652 3.679 4.496 7.976 5.273 12.637h12.019c2.762 0 5 2.238 5 5s-2.239 5-5 5z" fill="#29589f"/><g fill="#3a70bf"><path d="m134.8 360.569c-11.969-2.087-23.03-6.795-32.578-13.52l-33.686 33.686c-2.469 2.469-5.613 3.841-9.124 4.027 21.586 18.59 48.99 30.595 79.054 32.849-2.269-2.489-3.666-5.786-3.666-9.411z"/><path d="m195.378 347.049c-9.548 6.725-20.609 11.434-32.578 13.521v47.63c0 3.625-1.397 6.922-3.666 9.411 30.064-2.254 57.469-14.259 79.055-32.849-3.511-.186-6.655-1.558-9.124-4.027z"/><path d="m102.339 214.468c9.521-6.681 20.541-11.359 32.461-13.437v-47.831c0-3.523 1.318-6.736 3.473-9.2-29.836 2.279-57.041 14.167-78.53 32.556 3.295.271 6.384 1.699 8.792 4.108z"/><path d="m228.569 294.8c-2.07 11.871-6.717 22.85-13.354 32.345l33.72 33.721c2.454 2.453 3.886 5.614 4.117 8.98 18.383-21.487 30.268-48.688 32.547-78.518-2.463 2.155-5.677 3.472-9.199 3.472z"/><path d="m215.132 234.339c6.681 9.521 11.359 20.541 13.437 32.461h47.831c3.523 0 6.737 1.318 9.201 3.474-2.274-29.91-14.162-57.129-32.554-78.608-.255 3.324-1.684 6.442-4.112 8.87z"/><path d="m162.8 201.031c11.92 2.078 22.94 6.756 32.461 13.437l33.803-33.803c2.427-2.427 5.544-3.856 8.867-4.112-21.5-18.402-48.735-30.279-78.606-32.554 2.156 2.463 3.474 5.678 3.474 9.201v47.831z"/><path d="m69.031 266.8c2.078-11.92 6.756-22.94 13.437-32.461l-33.803-33.803c-2.409-2.409-3.837-5.497-4.108-8.792-18.389 21.489-30.277 48.694-32.556 78.529 2.463-2.155 5.677-3.473 9.199-3.473z"/><path d="m48.665 360.864 33.72-33.72c-6.638-9.494-11.285-20.473-13.354-32.344h-47.831c-3.523 0-6.736-1.318-9.199-3.473 2.091 27.369 12.269 52.523 28.132 73.083 1.427 1.849 2.898 3.662 4.415 5.435.23-3.366 1.662-6.526 4.117-8.981z"/><path d="m445.338 149.838c7.883 9.325 12.982 21.068 14.04 33.962h23.022c.082 0 .158.02.238.024-.772-13.065-4.567-25.337-10.691-36.133-2.896-5.105-6.307-9.878-10.174-14.246-.085.099-.154.208-.248.302z"/><path d="m438.219 234.889c-9.334 7.91-21.098 13.029-34.018 14.088v23.023c0 .081-.02.157-.024.238 19.269-1.145 36.822-8.884 50.436-20.982-.047-.044-.101-.074-.147-.12z"/><path d="m459.378 193.8c-1.06 12.92-6.178 24.684-14.088 34.019l16.246 16.246c.046.046.077.1.121.148 12.098-13.613 19.838-31.167 20.982-50.436-.08.004-.156.024-.238.024h-23.023z"/><path d="m353.111 227.819c-7.91-9.334-13.029-21.099-14.088-34.019h-22.823c-.151 0-.292-.031-.44-.044 1.14 19.277 8.882 36.839 20.984 50.457.044-.047.075-.102.121-.148z"/><path d="m394.2 248.978c-12.92-1.06-24.684-6.178-34.018-14.088l-16.246 16.246c-.046.046-.1.077-.147.12 13.613 12.098 31.167 19.837 50.436 20.982-.004-.081-.024-.156-.024-.238v-23.022z"/><path d="m339.023 183.8c1.058-12.894 6.157-24.637 14.04-33.962l-16.188-16.091c-.094-.094-.163-.203-.248-.302-12.05 13.61-19.734 31.149-20.867 50.4.147-.013.29-.044.44-.044h22.823z"/><path d="m360.126 142.759c9.343-7.937 21.128-13.074 34.074-14.136v-22.823c0-.151.031-.293.044-.441-19.396 1.138-37 8.908-50.616 21.054.098.083.205.149.297.241z"/><path d="m404.2 105.8v22.823c12.946 1.062 24.731 6.199 34.074 14.136l16.201-16.104c.092-.092.199-.158.297-.241-4.494-4.009-9.424-7.537-14.709-10.511-10.727-6.037-22.913-9.78-35.907-10.543.013.147.044.289.044.44z"/></g><path d="m134.8 328.8c0-7.72 6.28-14 14-14s14 6.28 14 14v31.77c11.969-2.087 23.03-6.795 32.578-13.521l-22.514-22.514c-2.686-2.685-4.165-6.213-4.165-9.936 0-3.722 1.479-7.25 4.165-9.936 2.685-2.686 6.213-4.164 9.935-4.164s7.25 1.479 9.936 4.165l22.479 22.479c6.638-9.494 11.285-20.473 13.354-32.345h-31.568c-7.72 0-14-6.28-14-14s6.28-14 14-14h31.569c-2.078-11.92-6.756-22.94-13.437-32.461l-22.396 22.397c-.07.069-.141.137-.214.202-2.844 2.527-6.205 3.862-9.722 3.862-3.84 0-7.276-1.405-9.935-4.063-2.686-2.686-4.165-6.215-4.165-9.936 0-3.722 1.479-7.25 4.165-9.936l22.397-22.397c-9.521-6.681-20.541-11.359-32.461-13.437v31.57c0 7.72-6.28 14-14 14s-14-6.28-14-14v-31.57c-11.92 2.078-22.94 6.756-32.461 13.437l22.397 22.397c5.571 5.572 5.571 14.3 0 19.871-.069.07-.141.137-.214.203-2.844 2.527-6.205 3.862-9.722 3.862-3.84 0-7.276-1.405-9.935-4.063l-22.397-22.397c-6.681 9.521-11.359 20.541-13.437 32.461h31.57c7.72 0 14 6.28 14 14s-6.191 14-13.8 14h-31.771c2.07 11.871 6.717 22.85 13.354 32.345l22.479-22.479c2.686-2.687 6.214-4.165 9.936-4.165s7.25 1.479 9.936 4.165c5.571 5.571 5.571 14.299 0 19.87l-22.514 22.514c9.548 6.725 20.609 11.434 32.578 13.52zm-6.92-33.294 1.163-6.392c.006-.087.006-.154.004-.204-.037-.034-.073-.067-.107-.101l-4.8-4.601c-2.839-2.661-3.88-6.685-2.676-10.461 1.224-3.836 4.465-6.558 8.459-7.103l6.527-.989c.031-.005.061-.009.092-.014.044-.047.114-.137.185-.279l2.98-5.96c1.639-3.407 5.041-5.57 8.895-5.651 3.967-.076 7.586 2.031 9.421 5.519.017.031.032.062.048.093l3 6c.047.096.11.222.488.324l6.389.969c3.803.519 6.987 3.153 8.238 6.866 1.268 3.766.329 7.832-2.451 10.612-.025.025-.05.05-.076.074l-4.737 4.54c-.08.093-.149.281-.16.398l1.156 6.358c.708 3.898-.824 7.769-4 10.1-1.814 1.33-3.938 2.007-6.074 2.008-1.627 0-3.262-.394-4.774-1.188l-5.942-3.169c-.164-.074-.295-.074-.459 0l-5.917 3.156c-3.519 1.853-7.676 1.537-10.872-.807-3.175-2.33-4.708-6.2-4-10.098z" fill="#dae6f1"/><path d="m399.2 158.2c-2.762 0-5-2.239-5-5v-24.578c-12.946 1.062-24.731 6.199-34.074 14.136l17.399 17.296c1.958 1.947 1.968 5.112.021 7.071-.977.983-2.262 1.475-3.546 1.475-1.274 0-2.55-.484-3.525-1.454l-17.412-17.309c-7.883 9.325-12.982 21.068-14.04 33.962h24.577c2.762 0 5 2.239 5 5s-2.238 5-5 5h-24.577c1.06 12.92 6.178 24.685 14.088 34.019l17.354-17.354c1.951-1.952 5.119-1.952 7.07 0 1.953 1.953 1.953 5.119 0 7.071l-17.353 17.354c9.334 7.91 21.098 13.029 34.018 14.088v-24.377c0-2.761 2.238-5 5-5s5 2.239 5 5v24.377c12.92-1.06 24.684-6.178 34.018-14.088l-17.353-17.354c-1.953-1.953-1.953-5.119 0-7.071 1.951-1.952 5.119-1.952 7.07 0l17.354 17.354c7.91-9.334 13.029-21.098 14.088-34.019h-24.577c-2.762 0-5-2.239-5-5s2.238-5 5-5h24.578c-1.058-12.894-6.157-24.637-14.04-33.962l-17.412 17.308c-.976.97-2.251 1.454-3.525 1.454-1.284 0-2.568-.492-3.546-1.475-1.947-1.958-1.938-5.124.021-7.071l17.399-17.295c-9.343-7.937-21.128-13.074-34.074-14.136v24.578c-.001 2.761-2.239 5-5.001 5zm8.853 10.326 2.726 5.255c.021.034.04.063.058.086l5.825.777c3.876.581 6.933 3.182 8.056 6.801 1.111 3.58.074 7.416-2.706 10.01l-4.256 4.063.977 5.86c.585 3.886-.989 7.589-4.093 9.742-1.64 1.137-3.541 1.711-5.46 1.711-1.612 0-3.238-.405-4.734-1.221l-5.244-2.72-5.299 2.748c-3.406 1.703-7.345 1.38-10.342-.813-2.977-2.179-4.471-5.783-3.898-9.405l.983-5.903-4.297-4.102c-.028-.027-.056-.054-.083-.081-2.63-2.629-3.546-6.467-2.392-10.016 1.149-3.534 4.118-6.085 7.748-6.659.039-.006.078-.012.118-.017l5.839-.779 2.783-5.367c1.651-3.305 5.051-5.398 8.839-5.398 3.772.002 7.16 2.08 8.852 5.428z" fill="#dae6f1"/><path d="m371.2 347.6c0-2.762 2.238-5 5-5h5.38c-.777-4.661-2.621-8.958-5.273-12.637l-3.772 3.772c-.976.977-2.256 1.465-3.535 1.465s-2.56-.488-3.535-1.465c-1.953-1.952-1.953-5.118 0-7.07l3.739-3.739c-3.627-2.563-7.841-4.346-12.404-5.107v5.181c0 2.762-2.238 5-5 5s-5-2.238-5-5v-5.18c-4.612.769-8.867 2.582-12.52 5.19l3.656 3.656c1.953 1.952 1.953 5.118 0 7.07-.976.977-2.256 1.465-3.535 1.465s-2.56-.488-3.535-1.465l-3.656-3.656c-2.607 3.653-4.421 7.908-5.19 12.52h5.181c2.762 0 5 2.238 5 5s-2.238 5-5 5h-5.181c.761 4.563 2.544 8.777 5.107 12.404l3.739-3.739c1.951-1.953 5.119-1.953 7.07 0 1.953 1.952 1.953 5.118 0 7.07l-3.773 3.773c3.679 2.652 7.976 4.496 12.637 5.273v-5.381c0-2.762 2.238-5 5-5s5 2.238 5 5v5.38c4.612-.769 8.868-2.583 12.521-5.19l-3.856-3.856c-1.953-1.952-1.953-5.118 0-7.07 1.951-1.953 5.119-1.953 7.07 0l3.856 3.856c2.607-3.653 4.421-7.909 5.19-12.521h-5.38c-2.763.001-5.001-2.238-5.001-4.999z" fill="#dae6f1"/><path d="m416.6 450.4c-6.2-1.2-11.2-6-12.4-12.2 0-.2-.6-.2-.6 0-1.2 6.2-6.2 11-12.4 12.2-.2 0-.2.4 0 .6 6.2 1.2 11.2 6 12.4 12.2 0 .2.6.2.6 0 1.2-6.2 6.2-11 12.4-12.2.4-.2.4-.6 0-.6z" fill="#87d147"/><path d="m107.8 469.8c-.1 0-.15 0-.15 0" fill="none"/><path d="m130 457h-.2-4.6v-4.6c0-3.6-2.8-6.4-6.4-6.4-3.4 0-6.4 2.8-6.4 6.2v.2 4.6h-4.6c-3.6 0-6.4 2.8-6.4 6.4-.2 3.4 2.6 6.4 6.4 6.4h4.6v4.6c0 3.6 2.8 6.4 6.4 6.4 3.4 0 6.4-2.8 6.4-6.2v-.2-4.6h4.6c3.6 0 6.4-2.8 6.4-6.4 0-3.4-2.8-6.4-6.2-6.4z" fill="#70d6f9"/><ellipse cx="184.6" cy="505.2" fill="#f5c84c" rx="6.8" ry="6.8" transform="matrix(.987 -.16 .16 .987 -78.54 36.093)"/><circle cx="318.6" cy="6.8" fill="#fc657e" r="6.8"/><path d="m367.4 43.2c9 1.6 16 8.6 17.8 17.4 0 .4.8.4.8 0 1.8-8.8 8.8-15.8 17.8-17.4.4-.2.4-.8 0-.8-9-1.6-16-8.6-17.8-17.4 0-.4-.8-.4-.8 0-1.8 8.8-8.8 15.8-17.8 17.4-.4 0-.4.6 0 .8z" fill="#f5c84c"/><path d="m351.8 328c2.762 0 5-2.238 5-5v-5.181-12.219c0-2.762-2.238-5-5-5s-5 2.238-5 5v12.22 5.18c0 2.762 2.238 5 5 5z"/><path d="m351.8 367c-2.762 0-5 2.238-5 5v5.38 12.02c0 2.762 2.238 5 5 5s5-2.238 5-5v-12.02-5.38c0-2.762-2.238-5-5-5z"/><path d="m334.4 335.2c1.279 0 2.56-.488 3.535-1.465 1.953-1.952 1.953-5.118 0-7.07l-3.656-3.656-8.745-8.745c-1.951-1.953-5.119-1.953-7.07 0-1.953 1.952-1.953 5.118 0 7.07l8.745 8.745 3.656 3.656c.976.977 2.256 1.465 3.535 1.465z"/><path d="m365.465 361.265c-1.953 1.952-1.953 5.118 0 7.07l3.856 3.856 8.545 8.545c.976.977 2.256 1.465 3.535 1.465s2.56-.488 3.535-1.465c1.953-1.952 1.953-5.118 0-7.07l-8.545-8.545-3.856-3.856c-1.951-1.953-5.119-1.953-7.07 0z"/><path d="m332.2 347.6c0-2.762-2.238-5-5-5h-5.181-12.219c-2.762 0-5 2.238-5 5s2.238 5 5 5h12.22 5.181c2.761 0 4.999-2.239 4.999-5z"/><path d="m393.6 342.6h-12.02-5.38c-2.762 0-5 2.238-5 5s2.238 5 5 5h5.38 12.02c2.762 0 5-2.238 5-5s-2.239-5-5-5z"/><path d="m337.936 361.265c-1.951-1.953-5.119-1.953-7.07 0l-3.739 3.739-8.661 8.661c-1.953 1.952-1.953 5.118 0 7.07.976.977 2.256 1.465 3.535 1.465s2.56-.488 3.535-1.465l8.628-8.628 3.773-3.773c1.952-1.951 1.952-5.117-.001-7.069z"/><path d="m365.465 333.735c.976.977 2.256 1.465 3.535 1.465s2.56-.488 3.535-1.465l3.772-3.772 8.628-8.628c1.953-1.952 1.953-5.118 0-7.07-1.951-1.953-5.119-1.953-7.07 0l-8.662 8.662-3.739 3.739c-1.952 1.951-1.952 5.117.001 7.069z"/><path d="m152.8 153.2c0-2.243-1.757-4-4-4s-4 1.757-4 4v79.4c0 2.243 1.757 4 4 4s4-1.757 4-4z" fill="#cbeff7"/><path d="m144.8 408.2c0 2.243 1.757 4 4 4s4-1.757 4-4v-79.4c0-2.243-1.757-4-4-4s-4 1.757-4 4z" fill="#cbeff7"/><path d="m61.464 187.736c-.797-.797-1.814-1.236-2.864-1.236s-2.067.439-2.864 1.235c-.797.797-1.236 1.814-1.236 2.865s.439 2.067 1.236 2.864l56.2 56.2c.785.785 1.668 1.135 2.864 1.135 1.23 0 2.273-.65 2.963-1.236 1.561-1.656 1.527-4.002-.099-5.628z" fill="#cbeff7"/><path d="m236.136 373.665c.785.785 1.668 1.135 2.864 1.135.52 0 1.84-.11 2.864-1.135.797-.797 1.236-1.814 1.236-2.865 0-1.05-.439-2.067-1.235-2.863l-56.2-56.201c-.797-.797-1.814-1.235-2.865-1.235-1.05 0-2.067.438-2.864 1.235s-1.236 1.814-1.236 2.864c0 1.051.439 2.068 1.235 2.864z" fill="#cbeff7"/><path d="m100.8 284.8c2.096 0 3.8-1.794 3.8-4 0-2.243-1.757-4-4-4h-79.4c-2.243 0-4 1.757-4 4s1.757 4 4 4z" fill="#cbeff7"/><path d="m276.4 276.8h-79.4c-2.243 0-4 1.757-4 4s1.757 4 4 4h79.4c2.131 0 4-1.869 4-4 0-2.243-1.756-4-4-4z" fill="#cbeff7"/><path d="m58.6 374.8c1.196 0 2.079-.35 2.864-1.135l56.2-56.2c1.66-1.66 1.66-4.069 0-5.729-.797-.797-1.814-1.235-2.864-1.235-1.051 0-2.068.438-2.865 1.235l-56.2 56.2c-.797.797-1.236 1.814-1.236 2.864 0 1.051.439 2.068 1.236 2.865.786.785 1.669 1.135 2.865 1.135z" fill="#cbeff7"/><path d="m179.936 243.936c-1.66 1.66-1.66 4.069 0 5.729.785.785 1.668 1.135 2.864 1.135 1.242 0 2.293-.663 2.983-1.253l56.082-56.082c.797-.797 1.236-1.814 1.236-2.864s-.439-2.067-1.235-2.864c-.83-.83-1.848-1.245-2.865-1.245-1.018 0-2.035.415-2.864 1.245z" fill="#cbeff7"/><path d="m135.776 281.511c2.454 2.172 3.586 5.305 3.193 8.842-.013.114-.029.229-.05.342l-1.2 6.601c-.026.145-.016.18.078.248.14.103.219.061.274.032l5.976-3.188c.039-.021.078-.041.118-.061 1.504-.752 3.12-1.128 4.735-1.128s3.231.376 4.735 1.128c.04.02.079.04.118.061l6 3.2c.029.016.11.058.25-.045.094-.068.104-.104.078-.248l-1.2-6.601c-.017-.092-.031-.183-.042-.275-.392-3.141.767-6.494 3.025-8.754.025-.025.051-.05.077-.074l4.737-4.54c.091-.106.06-.255.033-.337-.048-.142-.083-.146-.186-.16l-6.673-1.011c-.112-.017-.223-.037-.334-.062-3.313-.734-5.938-2.74-7.39-5.646l-2.965-5.931c-.031-.053-.072-.1-.176-.131-.135-.043-.27-.02-.31.002l-3.004 6.061c-1.615 3.229-4.455 5.309-7.805 5.72l-6.518.987c-.21.029-.259.067-.306.137-.064.095-.074.199-.067.228l.083.083z" fill="#9be5f9"/><path d="m134.8 201.031v31.57c0 7.72 6.28 14 14 14s14-6.28 14-14v-31.57-47.831c0-3.523-1.318-6.737-3.474-9.201-2.568-2.934-6.329-4.799-10.526-4.799s-7.959 1.866-10.527 4.8c-2.155 2.463-3.473 5.677-3.473 9.2zm14 35.569c-2.243 0-4-1.757-4-4v-79.4c0-2.243 1.757-4 4-4s4 1.757 4 4v79.4c0 2.243-1.757 4-4 4z"/><path d="m162.8 360.569v-31.769c0-7.72-6.28-14-14-14s-14 6.28-14 14v31.77 47.63c0 3.625 1.397 6.922 3.666 9.411 2.562 2.811 6.24 4.589 10.334 4.589s7.772-1.778 10.334-4.589c2.269-2.489 3.666-5.786 3.666-9.411zm-14-35.769c2.243 0 4 1.757 4 4v79.4c0 2.243-1.757 4-4 4s-4-1.757-4-4v-79.4c0-2.243 1.757-4 4-4z"/><path d="m82.468 234.339 22.397 22.397c2.659 2.658 6.095 4.063 9.935 4.063 3.517 0 6.878-1.335 9.722-3.862.073-.065.145-.133.214-.203 5.571-5.571 5.571-14.299 0-19.871l-22.397-22.397-33.803-33.803c-2.409-2.409-5.497-3.837-8.792-4.108-.379-.031-.759-.057-1.143-.057-3.722 0-7.25 1.479-9.935 4.165-2.686 2.685-4.165 6.214-4.165 9.936 0 .384.026.764.057 1.143.271 3.295 1.699 6.384 4.108 8.792zm35.295 15.224c-.69.586-1.733 1.236-2.963 1.236-1.196 0-2.079-.35-2.864-1.135l-56.2-56.2c-.797-.797-1.236-1.814-1.236-2.864s.439-2.067 1.236-2.865c.797-.796 1.814-1.235 2.864-1.235s2.067.439 2.864 1.236l56.2 56.199c1.627 1.627 1.66 3.973.099 5.628z"/><path d="m215.215 327.144-22.479-22.479c-2.686-2.687-6.214-4.165-9.936-4.165s-7.25 1.479-9.935 4.164c-2.686 2.686-4.165 6.214-4.165 9.936 0 3.723 1.479 7.251 4.165 9.936l22.514 22.514 33.686 33.686c2.469 2.469 5.613 3.841 9.124 4.027.27.014.537.037.811.037 3.731 0 7.353-1.481 9.936-4.064 2.686-2.686 4.165-6.214 4.165-9.936 0-.32-.026-.637-.047-.954-.231-3.366-1.663-6.527-4.117-8.98zm-36.515-12.544c0-1.05.439-2.067 1.236-2.864s1.814-1.235 2.864-1.235c1.051 0 2.068.438 2.865 1.235l56.2 56.201c.796.796 1.235 1.813 1.235 2.863 0 1.051-.439 2.068-1.236 2.865-1.024 1.024-2.344 1.135-2.864 1.135-1.196 0-2.079-.35-2.864-1.135l-56.201-56.201c-.796-.796-1.235-1.814-1.235-2.864z"/><path d="m69.031 294.8h31.769c7.609 0 13.8-6.28 13.8-14s-6.28-14-14-14h-31.57-47.83c-3.523 0-6.736 1.318-9.199 3.473-2.935 2.568-4.801 6.33-4.801 10.527s1.866 7.959 4.801 10.527c2.463 2.155 5.677 3.473 9.199 3.473zm-51.831-14c0-2.243 1.757-4 4-4h79.4c2.243 0 4 1.757 4 4 0 2.206-1.705 4-3.8 4h-79.6c-2.243 0-4-1.757-4-4z"/><path d="m228.569 266.8h-31.569c-7.72 0-14 6.28-14 14s6.28 14 14 14h31.569 47.831c3.522 0 6.736-1.317 9.199-3.472 2.935-2.568 4.801-6.33 4.801-10.528 0-4.197-1.865-7.958-4.799-10.526-2.463-2.156-5.678-3.474-9.201-3.474zm47.831 18h-79.4c-2.243 0-4-1.757-4-4s1.757-4 4-4h79.4c2.243 0 4 1.757 4 4 0 2.131-1.869 4-4 4z"/><path d="m68.536 380.735 33.686-33.686 22.514-22.514c5.571-5.571 5.571-14.299 0-19.87-2.686-2.687-6.214-4.165-9.936-4.165s-7.25 1.479-9.936 4.165l-22.479 22.479-33.72 33.72c-2.455 2.454-3.887 5.615-4.118 8.981-.022.317-.047.634-.047.954 0 3.722 1.479 7.25 4.165 9.936 2.659 2.659 6.094 4.064 9.936 4.064.149 0 .293-.016.441-.02.124-.004.247-.011.37-.017 3.51-.185 6.655-1.557 9.124-4.027zm-12.8-12.799 56.2-56.2c.797-.797 1.814-1.235 2.865-1.235 1.05 0 2.067.438 2.864 1.235 1.66 1.66 1.66 4.069 0 5.729l-56.2 56.2c-.785.785-1.668 1.135-2.864 1.135s-2.079-.35-2.864-1.135c-.797-.797-1.236-1.814-1.236-2.865-.001-1.05.438-2.068 1.235-2.864z"/><path d="m195.261 214.468-22.397 22.397c-2.686 2.686-4.165 6.214-4.165 9.936 0 3.721 1.479 7.25 4.165 9.936 2.659 2.658 6.095 4.063 9.935 4.063 3.517 0 6.878-1.335 9.722-3.862.073-.065.145-.133.214-.202l22.396-22.397 33.803-33.803c2.427-2.427 3.857-5.545 4.112-8.87.027-.354.053-.708.053-1.066 0-3.722-1.479-7.25-4.165-9.936s-6.214-4.165-9.936-4.165c-.359 0-.714.026-1.069.053-3.323.255-6.44 1.685-8.867 4.112zm43.739-27.977c1.017 0 2.035.415 2.865 1.245.796.797 1.235 1.814 1.235 2.864s-.439 2.067-1.236 2.864l-56.082 56.082c-.69.591-1.741 1.253-2.983 1.253-1.196 0-2.079-.35-2.864-1.135-1.66-1.66-1.66-4.069 0-5.729l56.2-56.2c.83-.829 1.847-1.244 2.865-1.244z"/><path d="m142.753 306.412 5.917-3.156c.164-.074.295-.074.459 0l5.942 3.169c1.512.795 3.146 1.188 4.774 1.188 2.136-.001 4.26-.678 6.074-2.008 3.176-2.331 4.709-6.201 4-10.1l-1.156-6.358c.011-.117.08-.306.16-.398l4.737-4.54c.026-.024.051-.049.076-.074 2.78-2.78 3.719-6.847 2.451-10.612-1.25-3.713-4.435-6.348-8.238-6.866l-6.389-.969c-.377-.103-.44-.229-.488-.324l-3-6c-.016-.031-.031-.062-.048-.093-1.835-3.488-5.454-5.595-9.421-5.519-3.854.082-7.255 2.245-8.895 5.651l-2.98 5.96c-.071.143-.141.232-.185.279-.031.005-.061.009-.092.014l-6.527.989c-3.995.545-7.236 3.267-8.459 7.103-1.204 3.776-.164 7.8 2.676 10.461l4.8 4.601c.034.033.071.066.107.101.002.05.001.117-.004.204l-1.163 6.392c-.708 3.898.824 7.769 4.001 10.1 3.195 2.342 7.352 2.658 10.871.805zm-11.71-29.732c.046-.069.095-.107.306-.137l6.518-.987c3.35-.411 6.19-2.49 7.805-5.72l3.004-6.061c.04-.021.174-.045.31-.002.104.031.145.078.176.131l2.965 5.931c1.452 2.905 4.077 4.911 7.39 5.646.111.025.222.046.334.062l6.673 1.011c.104.014.138.019.186.16.027.082.058.23-.033.337l-4.737 4.54c-.026.024-.051.049-.077.074-2.258 2.26-3.417 5.613-3.025 8.754.011.093.025.184.042.275l1.2 6.601c.026.145.016.18-.078.248-.14.103-.22.061-.25.045l-6-3.2c-.039-.021-.078-.041-.118-.061-1.504-.752-3.12-1.128-4.735-1.128s-3.231.376-4.735 1.128c-.04.02-.079.04-.118.061l-5.976 3.188c-.055.028-.134.07-.274-.032-.094-.068-.104-.104-.078-.248l1.2-6.601c.021-.113.037-.228.05-.342.394-3.537-.739-6.67-3.193-8.842l-4.716-4.521c-.014-.013-.07-.07-.083-.083-.007-.028.003-.133.067-.227z"/><path d="m409.339 183.756c-3.026-.377-5.627-2.182-7.28-5.075-.033-.059-.065-.118-.097-.179l-2.763-5.326-2.692 5.195c-1.338 2.921-4.187 4.979-7.487 5.391l-5.447.727 3.982 3.802c2.337 2.038 3.432 5.135 3.006 8.531-.008.067-.018.134-.029.201l-.93 5.58 5.023-2.603c2.873-1.596 6.276-1.596 9.151 0l5.015 2.601-.923-5.579c-.007-.038-.013-.076-.018-.114-.441-3.083.611-6.24 2.814-8.443.027-.027.055-.054.082-.081l4.079-3.894z" fill="#70d6f9"/><path d="m394.2 128.622v24.578c0 2.761 2.238 5 5 5s5-2.239 5-5v-24.578-22.822c0-.151-.031-.293-.044-.441-.227-2.551-2.345-4.559-4.956-4.559s-4.729 2.008-4.956 4.559c-.013.148-.044.29-.044.441z"/><path d="m404.2 248.978v-24.378c0-2.761-2.238-5-5-5s-5 2.239-5 5v24.378 23.022c0 .081.02.157.024.238.127 2.649 2.296 4.762 4.976 4.762s4.849-2.113 4.976-4.762c.004-.081.024-.156.024-.238z"/><path d="m353.062 149.837 17.412 17.309c.976.97 2.251 1.454 3.525 1.454 1.284 0 2.569-.492 3.546-1.475 1.947-1.958 1.938-5.124-.021-7.071l-17.399-17.296-16.201-16.104c-.093-.092-.2-.158-.297-.241-1.969-1.678-4.92-1.603-6.774.262-1.853 1.864-1.912 4.809-.228 6.769.085.099.154.208.248.302z"/><path d="m445.289 227.818-17.354-17.354c-1.951-1.952-5.119-1.952-7.07 0-1.953 1.953-1.953 5.119 0 7.071l17.353 17.354 16.246 16.247c.046.046.1.077.147.12.956.887 2.169 1.344 3.388 1.344 1.279 0 2.56-.488 3.535-1.464 1.907-1.907 1.938-4.962.121-6.924-.044-.047-.075-.102-.121-.148z"/><path d="m339.022 193.8h24.578c2.762 0 5-2.239 5-5s-2.238-5-5-5h-24.577-22.823c-.151 0-.293.031-.44.044-2.552.227-4.56 2.345-4.56 4.956s2.008 4.73 4.56 4.956c.147.013.289.044.44.044z"/><path d="m459.378 183.8h-24.578c-2.762 0-5 2.239-5 5s2.238 5 5 5h24.578 23.022c.081 0 .157-.02.238-.024 2.649-.127 4.762-2.296 4.762-4.976s-2.113-4.849-4.762-4.976c-.081-.004-.157-.024-.238-.024z"/><path d="m360.182 234.889 17.353-17.354c1.953-1.953 1.953-5.119 0-7.071-1.951-1.952-5.119-1.952-7.07 0l-17.354 17.354-16.246 16.246c-.046.046-.077.101-.121.148-1.817 1.961-1.786 5.017.121 6.923.976.976 2.256 1.464 3.535 1.464 1.219 0 2.432-.457 3.388-1.344.047-.044.101-.075.147-.12z"/><path d="m438.274 142.759-17.399 17.295c-1.958 1.947-1.968 5.112-.021 7.071.978.983 2.262 1.475 3.546 1.475 1.274 0 2.55-.484 3.525-1.454l17.412-17.308 16.188-16.091c.094-.094.163-.203.248-.302 1.685-1.959 1.626-4.905-.227-6.769-1.856-1.867-4.805-1.942-6.774-.262-.098.083-.205.149-.297.241z"/><path d="m390.361 168.499-2.783 5.367-5.839.779c-.04.005-.079.011-.118.017-3.63.573-6.599 3.125-7.748 6.659-1.154 3.549-.238 7.386 2.392 10.016.027.027.055.054.083.081l4.297 4.102-.983 5.903c-.572 3.623.922 7.227 3.898 9.405 2.997 2.193 6.936 2.516 10.342.813l5.299-2.748 5.244 2.72c1.496.816 3.122 1.221 4.734 1.221 1.919 0 3.82-.574 5.46-1.711 3.104-2.153 4.678-5.855 4.093-9.742l-.977-5.86 4.256-4.063c2.78-2.594 3.817-6.43 2.706-10.01-1.123-3.619-4.18-6.22-8.056-6.801l-5.825-.777c-.018-.023-.037-.052-.058-.086l-2.726-5.255c-1.691-3.348-5.08-5.426-8.853-5.426-3.787-.003-7.186 2.091-8.838 5.396zm20.304 19.965c-2.203 2.203-3.256 5.36-2.814 8.443.005.038.011.077.018.114l.923 5.579-5.016-2.6c-2.875-1.596-6.278-1.596-9.151 0l-5.023 2.603.93-5.58c.012-.067.021-.134.029-.201.426-3.396-.669-6.493-3.006-8.531l-3.982-3.802 5.447-.727c3.301-.412 6.149-2.47 7.487-5.391l2.692-5.195 2.763 5.326c.031.061.063.12.097.179 1.653 2.893 4.254 4.698 7.28 5.075l5.487.734-4.079 3.894c-.027.026-.055.053-.082.08z"/></g></svg>