<svg enable-background="new 0 0 256 256" height="512" viewBox="0 0 256 256" width="512" xmlns="http://www.w3.org/2000/svg"><g id="Layer_33"><g><g><path d="m184.961 49.389c-3.566 0-7.051.543-10.434 1.551 21.506 12.638 36.944 47.215 36.944 87.896s-15.438 75.258-36.944 87.896c3.382 1.007 6.867 1.551 10.433 1.551 31.12 0 56.347-40.047 56.347-89.447s-25.227-89.447-56.346-89.447z" fill="#fc8c48"/></g><g><path d="m71.039 228.283c3.566 0 7.051-.543 10.434-1.551-21.506-12.638-36.944-47.215-36.944-87.896s15.438-75.258 36.944-87.896c-3.382-1.007-6.867-1.551-10.433-1.551-31.12 0-56.347 40.047-56.347 89.447s25.227 89.447 56.346 89.447z" fill="#fc8c48"/></g><g><path d="m155.71 10.477-7.35-6.885c-1.664-1.559-4.272-1.428-5.8.264-8.037 8.897-17.837 23.907-20.194 45.732 1.844-.494 3.725-.751 5.634-.751 2.054 0 4.074.302 6.052.872 3.234-10.371 9.511-24.234 21.266-32.998 2.04-1.522 2.25-4.494.392-6.234z" fill="#fce4be"/></g><g><path d="m156.472 45.804c-6.496 0-12.727 1.91-18.513 5.408 13.806 6.7 25.078 27.022 30.327 53.745l28.334-13.741c4.593-2.228 9.613 2.135 8.048 6.994-4.241 13.161-13.772 31.984-33.454 30.961.164 3.177.258 6.398.258 9.665 0 7.209-.418 14.212-1.192 20.931 4.711-1.146 9.257-2.473 13.596-3.981 2.672-.928 5.211 1.719 4.152 4.342-4.121 10.204-12.206 18.982-22.801 25.18-5.961 20.422-15.727 35.55-27.268 41.151 5.785 3.498 12.017 5.408 18.513 5.408 30.376 0 55-41.652 55-93.032 0-51.379-24.625-93.031-55-93.031z" fill="#fca265"/></g><g><path d="m90.738 185.187c-10.65-6.279-18.74-15.171-22.78-25.499-1.03-2.633 1.464-5.279 4.126-4.327 4.336 1.552 8.883 2.925 13.602 4.113-.752-6.63-1.158-13.535-1.158-20.64 0-3.267.094-6.488.258-9.665-19.682 1.022-29.214-17.8-33.454-30.961-1.566-4.859 3.454-9.222 8.048-6.994l28.334 13.741c5.249-26.723 16.521-47.045 30.327-53.745-5.785-3.498-12.017-5.408-18.513-5.408-30.376 0-55 41.652-55 93.032s24.624 93.032 55 93.032c6.496 0 12.727-1.91 18.513-5.408-11.564-5.61-21.345-20.788-27.303-41.271z" fill="#fca265"/></g><g><path d="m128.583 164.627c4.855 0 9.63-.193 14.313-.555 1.136-.088 2.104.8 2.104 1.94v4.535c0 1.078.874 1.952 1.952 1.952h8.096c1.078 0 1.952-.874 1.952-1.952v-6.469c0-.954.694-1.761 1.635-1.919 3.987-.67 7.872-1.475 11.653-2.395.773-6.717 1.184-13.723 1.184-20.929 0-3.266-.086-6.489-.25-9.665-5.553-.287-11.913-2.152-19.191-6.171-4.111-2.27-3.951-8.244.275-10.293l15.978-7.749c-6.465-32.913-22.064-56.121-40.284-56.121s-33.819 23.208-40.283 56.122l15.978 7.749c4.226 2.049 4.386 8.023.275 10.293-7.278 4.02-13.638 5.884-19.191 6.171-.164 3.176-.25 6.399-.25 9.665 0 7.102.399 14.01 1.15 20.638 13.141 3.311 27.647 5.153 42.904 5.153z" fill="#fcb98b"/></g><g><path d="m128.083 195c-3.189 0-6.32-.195-9.381-.563-.975-.117-1.702-.959-1.702-1.941v-7.044c0-1.078-.874-1.952-1.952-1.952h-8.096c-1.078 0-1.952.874-1.952 1.952v3.329c0 1.353-1.345 2.297-2.619 1.842-4.141-1.481-8.042-3.312-11.651-5.441 7.605 26.156 21.45 43.654 37.27 43.654 15.796 0 29.623-17.443 37.235-43.531-10.414 6.093-23.254 9.695-37.152 9.695z" fill="#fcb98b"/></g><g><path d="m152.306 112.707 44.314-21.491c4.593-2.228 9.613 2.135 8.048 6.994-5.437 16.873-19.568 43.053-52.637 24.79-4.111-2.271-3.951-8.244.275-10.293z" fill="#f5c84c"/></g><g><path d="m103.694 112.707-44.314-21.492c-4.593-2.228-9.613 2.135-8.048 6.994 5.437 16.873 19.567 43.053 52.637 24.79 4.111-2.27 3.951-8.243-.275-10.292z" fill="#f5c84c"/></g><g><path d="m183.876 155.786c-7.819 2.717-16.291 4.87-25.242 6.374-.941.158-1.635.965-1.635 1.919v6.468c0 1.078-.874 1.952-1.952 1.952h-8.096c-1.078 0-1.952-.874-1.952-1.952v-4.535c0-1.139-.968-2.028-2.104-1.94-4.683.362-9.458.555-14.313.555-20.731 0-40.088-3.392-56.499-9.265-2.662-.953-5.156 1.694-4.126 4.327 5.407 13.825 18.07 25.083 34.423 30.934 1.274.456 2.619-.489 2.619-1.842v-3.329c0-1.078.874-1.952 1.952-1.952h8.096c1.078 0 1.952.874 1.952 1.952v7.044c0 .982.727 1.824 1.702 1.941 3.061.367 6.192.563 9.381.563 28.033 0 51.775-14.639 59.946-34.872 1.06-2.623-1.479-5.27-4.152-4.342z" fill="#5b5d60"/></g><g><path d="m29.775 218.525c-3.1-.6-5.6-3-6.2-6.1 0-.1-.3-.1-.3 0-.6 3.1-3.1 5.5-6.2 6.1-.1 0-.1.2 0 .3 3.1.6 5.6 3 6.2 6.1 0 .1.3.1.3 0 .6-3.1 3.1-5.5 6.2-6.1.1-.1.1-.3 0-.3z" fill="#87d147"/></g><g><path d="m73.9 22.9h2.3v2.3c0 1.8 1.4 3.2 3.2 3.2 1.7 0 3.2-1.4 3.2-3.1v-.1-2.3h2.3c1.8 0 3.2-1.4 3.2-3.2 0-1.7-1.4-3.2-3.1-3.2h-.1-2.3v-2.3c0-1.8-1.4-3.2-3.2-3.2-1.7 0-3.2 1.4-3.2 3.1v.1 2.3h-2.3c-1.8 0-3.2 1.4-3.2 3.2-.1 1.7 1.3 3.2 3.2 3.2-.1 0-.1 0 0 0z" fill="#70d6f9"/></g><g><circle cx="189.3" cy="252.6" fill="#fc657e" r="3.4"/></g><g><circle cx="104.3" cy="3.4" fill="#f5c84c" r="3.4"/></g><g><path d="m212.7 236.75c4.5-.8 8-4.3 8.9-8.7 0-.2.4-.2.4 0 .9 4.4 4.4 7.9 8.9 8.7.2 0 .2.3 0 .4-4.5.8-8 4.3-8.9 8.7 0 .2-.4.2-.4 0-.9-4.4-4.4-7.9-8.9-8.7-.2-.1-.2-.4 0-.4z" fill="#f5c84c"/></g><g><path d="m184.961 230.782c-3.555 0-7.149-.511-10.683-1.519-1.328-.379-2.098-1.762-1.719-3.09.379-1.327 1.764-2.099 3.09-1.718 3.088.881 6.221 1.328 9.312 1.328 29.691 0 53.847-39.004 53.847-86.946s-24.155-86.947-53.847-86.947c-3.091 0-6.224.447-9.312 1.328-1.326.376-2.711-.392-3.09-1.718-.379-1.328.391-2.711 1.719-3.09 3.533-1.008 7.128-1.519 10.683-1.519 32.448 0 58.847 41.247 58.847 91.947 0 50.697-26.399 91.944-58.847 91.944z"/></g><g><path d="m71.039 230.783c-32.448 0-58.847-41.247-58.847-91.947s26.398-91.947 58.847-91.947c3.542 0 7.124.508 10.646 1.509 1.328.377 2.099 1.76 1.721 3.088-.377 1.329-1.762 2.098-3.088 1.721-3.077-.875-6.199-1.318-9.279-1.318-29.691 0-53.847 39.004-53.847 86.947s24.156 86.947 53.847 86.947c3.079 0 6.202-.444 9.28-1.319 1.326-.375 2.711.393 3.088 1.721s-.393 2.711-1.721 3.088c-3.523 1.002-7.105 1.51-10.647 1.51z"/></g><g><path d="m122.453 51.335c-.097 0-.194-.005-.292-.017-1.372-.16-2.354-1.402-2.194-2.773 2.592-22.217 12.708-37.477 20.738-46.366 1.199-1.328 2.841-2.1 4.622-2.174 1.758-.072 3.451.552 4.742 1.762l7.35 6.885c1.414 1.325 2.163 3.193 2.055 5.125-.11 1.958-1.08 3.757-2.662 4.937-11.036 8.228-17.024 21.338-20.104 30.888-.423 1.314-1.837 2.033-3.146 1.612-1.313-.424-2.035-1.833-1.611-3.147 3.303-10.242 9.779-24.344 21.874-33.361.392-.292.632-.732.658-1.208.015-.265-.027-.772-.48-1.197l-7.35-6.885c-.304-.284-.706-.436-1.116-.415-.43.018-.827.206-1.119.53-7.542 8.349-17.044 22.689-19.482 43.594-.151 1.273-1.231 2.21-2.483 2.21z"/></g><g><path d="m118 37.368c-5.527 0-10.55-3.264-12.797-8.315-.561-1.262.007-2.739 1.268-3.3 1.261-.562 2.739.006 3.3 1.268 1.445 3.249 4.675 5.347 8.229 5.347 2.476 0 4.783-.985 6.498-2.773.956-.995 2.538-1.029 3.535-.074.997.956 1.03 2.539.074 3.535-2.667 2.78-6.256 4.312-10.107 4.312z"/></g><g><path d="m156.472 234.368c-6.618 0-13.105-1.835-19.28-5.456-1.19-.698-1.591-2.23-.892-3.421.697-1.192 2.229-1.591 3.421-.893 5.397 3.165 11.033 4.769 16.751 4.769 28.948 0 52.5-40.612 52.5-90.532s-23.552-90.532-52.5-90.532c-5.696 0-11.312 1.592-16.689 4.732-1.189.694-2.723.295-3.42-.899-.696-1.192-.294-2.723.898-3.419 6.153-3.592 12.617-5.414 19.211-5.414 15.611 0 30.187 10.113 41.043 28.476 10.612 17.951 16.457 41.765 16.457 67.056s-5.845 49.104-16.457 67.056c-10.857 18.364-25.432 28.477-41.043 28.477z"/></g><g><path d="m99.528 234.368c-15.611 0-30.187-10.113-41.043-28.476-10.612-17.951-16.457-41.765-16.457-67.056s5.845-49.104 16.457-67.056c10.856-18.363 25.432-28.476 41.043-28.476 6.514 0 12.904 1.779 18.992 5.288 1.196.689 1.607 2.218.917 3.415-.69 1.195-2.218 1.606-3.415.917-5.318-3.065-10.868-4.62-16.495-4.62-28.949 0-52.5 40.612-52.5 90.532s23.551 90.532 52.5 90.532c5.695 0 11.31-1.592 16.688-4.732 1.192-.695 2.724-.294 3.419.899.696 1.192.293 2.723-.899 3.419-6.152 3.592-12.614 5.414-19.207 5.414z"/></g><g><path d="m170.363 161.624c-.092 0-.186-.005-.279-.015-1.372-.153-2.361-1.389-2.208-2.761.727-6.536 1.096-13.269 1.096-20.011 0-2.875-.069-5.807-.206-8.716-.065-1.379 1-2.55 2.38-2.615 1.375-.066 2.55 1 2.614 2.379.141 2.987.212 5.999.212 8.951 0 6.926-.379 13.845-1.127 20.564-.142 1.278-1.225 2.224-2.482 2.224z"/></g><g><path d="m85.604 161.335c-1.259 0-2.342-.947-2.482-2.228-.726-6.618-1.094-13.438-1.094-20.272 0-3.019.074-6.095.221-9.143.066-1.379 1.236-2.451 2.617-2.377 1.379.066 2.443 1.238 2.377 2.617-.143 2.968-.215 5.963-.215 8.902 0 6.652.358 13.289 1.064 19.727.151 1.373-.84 2.607-2.212 2.757-.092.013-.185.017-.276.017z"/></g><g><path d="m87.836 106.867c-.163 0-.328-.016-.494-.049-1.354-.271-2.231-1.589-1.96-2.942 7.007-34.955 23.735-57.54 42.618-57.54 18.868 0 35.592 22.562 42.605 57.479.271 1.354-.605 2.671-1.959 2.943-1.353.272-2.672-.605-2.943-1.959-6.423-31.978-21.575-53.463-37.703-53.463-16.142 0-31.298 21.509-37.715 53.521-.238 1.188-1.282 2.01-2.449 2.01z"/></g><g><path d="m128 231.336c-16.465 0-31.25-16.836-39.548-45.038-.39-1.324.368-2.714 1.693-3.104 1.324-.39 2.713.368 3.104 1.693 7.523 25.566 20.839 41.449 34.751 41.449 13.903 0 27.215-15.866 34.74-41.407.391-1.325 1.78-2.083 3.105-1.691 1.324.39 2.081 1.78 1.691 3.104-8.301 28.174-23.081 44.994-39.536 44.994z"/></g><g><path d="m172.754 131.711c-6.727 0-14.064-2.178-21.933-6.523-2.722-1.503-4.361-4.37-4.278-7.482.082-3.113 1.873-5.891 4.672-7.249l44.314-21.491c3.042-1.474 6.516-1.014 9.064 1.202 2.55 2.216 3.49 5.591 2.454 8.808-3.596 11.16-10.645 25.558-23.803 30.772-3.304 1.31-6.805 1.963-10.49 1.963zm-19.358-16.755c-1.129.547-1.822 1.625-1.855 2.882-.033 1.256.602 2.368 1.698 2.973 10.808 5.969 20.284 7.412 28.164 4.289 11.345-4.496 17.619-17.521 20.885-27.657.419-1.298.055-2.607-.975-3.501-1.028-.894-2.374-1.073-3.603-.477z"/></g><g><path d="m83.246 131.711c-3.685 0-7.187-.653-10.491-1.963-13.158-5.214-20.206-19.612-23.802-30.772-1.037-3.217-.096-6.592 2.454-8.808 2.55-2.217 6.022-2.677 9.064-1.202l44.314 21.491c2.799 1.357 4.589 4.135 4.672 7.249.083 3.112-1.557 5.979-4.279 7.482-7.868 4.345-15.206 6.523-21.932 6.523zm-26.423-38.593c-.764 0-1.509.279-2.137.824-1.028.894-1.393 2.203-.975 3.501 3.266 10.136 9.54 23.162 20.885 27.657 7.88 3.123 17.356 1.68 28.165-4.289 1.097-.605 1.731-1.717 1.698-2.973-.033-1.257-.727-2.334-1.855-2.882l-44.315-21.491c-.479-.233-.977-.347-1.466-.347z"/></g><g><path d="m128.083 197.5c-3.213 0-6.469-.195-9.679-.58-2.226-.268-3.904-2.169-3.904-4.424v-6.496h-7v2.781c0 1.447-.707 2.808-1.891 3.642-1.186.834-2.707 1.041-4.07.554-17.176-6.146-30.265-17.947-35.909-32.377-.845-2.16-.37-4.531 1.24-6.188 1.588-1.633 3.909-2.17 6.057-1.403 16.671 5.966 35.917 9.119 55.656 9.119 4.676 0 9.427-.184 14.12-.547 1.233-.099 2.466.332 3.373 1.171.905.837 1.424 2.026 1.424 3.261v3.987h7v-5.92c0-2.179 1.565-4.023 3.722-4.385 8.721-1.464 17.076-3.574 24.834-6.27 2.18-.757 4.522-.188 6.114 1.485 1.586 1.667 2.037 4.025 1.177 6.155-8.801 21.793-33.824 36.435-62.264 36.435zm-8.583-5.486c2.85.323 5.735.486 8.583.486 26.423 0 49.582-13.385 57.627-33.308.156-.386-.002-.668-.162-.836-.135-.142-.425-.357-.852-.208-7.887 2.74-16.361 4.894-25.196 6.401v5.999c0 2.455-1.997 4.452-4.452 4.452h-8.096c-2.455 0-4.452-1.997-4.452-4.452v-3.938c-25.026 1.857-50.148-1.34-71.258-8.894-.302-.109-.565-.048-.785.179-.137.142-.342.444-.17.883 5.039 12.883 16.757 23.503 32.213 29.228v-2.554c0-2.455 1.997-4.452 4.452-4.452h8.096c2.455 0 4.452 1.997 4.452 4.452z"/></g></g></g></svg>