<svg enable-background="new 0 0 256 256" height="512" viewBox="0 0 256 256" width="512" xmlns="http://www.w3.org/2000/svg"><g id="Layer_42"><g><g><path d="m181 242.5h-106c-3.025 0-5.5 2.475-5.5 5.5s2.475 5.5 5.5 5.5h106c3.025 0 5.5-2.475 5.5-5.5s-2.475-5.5-5.5-5.5z" fill="#f5c84c"/></g><g><g><path d="m177.5 242.5v-1c0-6.6-5.4-12-12-12h-75c-6.6 0-12 5.4-12 12v1z" fill="#fca265"/></g></g><g><g><path d="m143.949 229.5c-.514-6.136-5.687-11-11.949-11h-8c-6.263 0-11.435 4.864-11.949 11z" fill="#fc8c48"/></g></g><g><path d="m220.43 98.5h-9.938c-.097.999-.013-2.476-.046 12.491 0 36.732-29.777 66.509-66.509 66.509h-8.685c-1.243 0-2.251-1.008-2.251-2.251v-10.499c0-1.243 1.008-2.25 2.251-2.25h8.685c28.448 0 51.509-23.062 51.509-51.509-.034-15.119.05-11.496-.046-12.491h-9.938c-.03.507-.005-1.903-.016 12.491 0 22.925-18.584 41.509-41.509 41.509h-8.685c-1.243 0-2.251-1.008-2.251-2.251v-10.499c0-1.243 1.008-2.25 2.251-2.25h8.685c14.641 0 26.509-11.869 26.509-26.509-.034-15.119.05-11.496-.046-12.491h-9.938c-.03.507-.005-1.903-.016 12.491 0 9.118-7.391 16.509-16.509 16.509h-8.685c-1.243 0-2.251-1.008-2.251-2.251 0-9.741 0-28.898 0-37.749h-10v37.749c0 1.243-1.008 2.251-2.251 2.251h-8.685c-9.118 0-16.509-7.392-16.509-16.509-.034-15.119.05-11.496-.046-12.491h-9.94c-.03.507-.005-1.903-.016 12.491 0 14.641 11.869 26.509 26.509 26.509h8.685c1.243 0 2.251 1.008 2.251 2.25v10.499c0 1.243-1.008 2.251-2.251 2.251h-8.685c-22.925 0-41.509-18.584-41.509-41.509-.034-15.119.05-11.496-.046-12.491h-9.938c-.03.507-.005-1.903-.016 12.491 0 28.448 23.061 51.509 51.509 51.509h8.685c1.243 0 2.251 1.008 2.251 2.25v10.499c0 1.243-1.008 2.251-2.251 2.251h-8.685c-36.732 0-66.509-29.777-66.509-66.509-.034-15.119.05-11.496-.046-12.491h-9.938c-.03.507-.005-1.903-.016 12.491 0 42.255 34.254 76.509 76.509 76.509h8.685c1.243 0 2.251 1.008 2.251 2.25v28.798c.33-.028.663-.048 1-.048h8c.337 0 .67.021 1 .048v-28.798c0-1.243 1.008-2.25 2.251-2.25h8.685c42.255 0 76.509-34.254 76.509-76.509-.002-4.494.014-12.013-.014-12.491z" fill="#f5c84c"/></g><g><path d="m128.492 34.819c-2.982-.285-5.492 2.053-5.492 4.977v47.704h10c0-22.138 0-25.308 0-47.489 0-2.611-1.909-4.943-4.508-5.192z" fill="#fce4be"/></g><g><path d="m165.937 46.819c-2.982-.285-5.492 2.053-5.492 4.977v46.704h.016 9.938.046v-46.489c0-2.611-1.909-4.943-4.508-5.192z" fill="#fce4be"/></g><g><path d="m95.548 108.5c-.015-11.198.048-9.09-.04-10h-9.938c-.027.461-.009-.661-.014 10z" fill="#fca265"/></g><g><path d="m70.548 108.5c-.015-11.198.048-9.09-.04-10h-9.938c-.027.461-.009-.661-.014 10z" fill="#fca265"/></g><g><path d="m133 87.5h-10v10h10c0-3.387 0-6.713 0-10z" fill="#fca265"/></g><g><path d="m45.548 108.5c-.015-11.198.048-9.09-.04-10h-9.938c-.027.461-.009-.661-.014 10z" fill="#fca265"/></g><g><path d="m220.43 98.5h-9.938c-.088.913-.026-1.066-.04 10h9.994c.001-4.417.005-9.629-.016-10z" fill="#fca265"/></g><g><path d="m170.439 108.5c-.015-11.198.048-9.09-.04-10h-9.938c-.027.461-.009-.661-.014 10z" fill="#fca265"/></g><g><path d="m195.439 108.5c-.015-11.198.048-9.09-.04-10h-9.938c-.027.461-.009-.661-.014 10z" fill="#fca265"/></g><g><path d="m129.738 2.945c-1.08-.593-2.395-.593-3.475 0-5.094 2.797-8.549 8.204-8.549 14.426s3.456 11.629 8.549 14.426c1.08.593 2.395.593 3.475 0 5.094-2.797 8.549-8.204 8.549-14.426s-3.456-11.629-8.549-14.426z" fill="#f5c84c"/></g><g><path d="m167.183 15.945c-1.08-.593-2.395-.593-3.475 0-5.094 2.797-8.549 8.204-8.549 14.426s3.456 11.629 8.549 14.426c1.08.593 2.395.593 3.475 0 5.094-2.797 8.549-8.204 8.549-14.426s-3.455-11.629-8.549-14.426z" fill="#f5c84c"/></g><g><path d="m214.954 46.819c-2.6.248-4.508 2.58-4.508 5.192v46.489h.046 9.938.016v-46.704c-.001-2.923-2.51-5.261-5.492-4.977z" fill="#fce4be"/></g><g><path d="m217.183 15.945c-1.08-.593-2.395-.593-3.475 0-5.094 2.797-8.549 8.204-8.549 14.426s3.456 11.629 8.549 14.426c1.08.593 2.395.593 3.475 0 5.094-2.797 8.549-8.204 8.549-14.426s-3.455-11.629-8.549-14.426z" fill="#f5c84c"/></g><g><path d="m66.046 46.819c-2.982-.285-5.492 2.053-5.492 4.977v46.704h.016 9.938.046v-46.489c.001-2.611-1.908-4.943-4.508-5.192z" fill="#fce4be"/></g><g><path d="m67.292 15.945c-1.08-.593-2.395-.593-3.475 0-5.094 2.797-8.549 8.204-8.549 14.426s3.456 11.629 8.549 14.426c1.08.593 2.395.593 3.475 0 5.094-2.797 8.549-8.204 8.549-14.426s-3.455-11.629-8.549-14.426z" fill="#f5c84c"/></g><g><path d="m41.046 46.819c-2.982-.285-5.492 2.053-5.492 4.977v46.704h.016 9.938.046v-46.489c.001-2.611-1.908-4.943-4.508-5.192z" fill="#fce4be"/></g><g><path d="m42.292 15.945c-1.08-.593-2.395-.593-3.475 0-5.094 2.797-8.549 8.204-8.549 14.426s3.456 11.629 8.549 14.426c1.08.593 2.395.593 3.475 0 5.094-2.797 8.549-8.204 8.549-14.426s-3.455-11.629-8.549-14.426z" fill="#f5c84c"/></g><g><path d="m91.046 46.819c-2.982-.285-5.492 2.053-5.492 4.977v46.704h.016 9.938.046v-46.489c.001-2.611-1.908-4.943-4.508-5.192z" fill="#fce4be"/></g><g><path d="m92.292 15.945c-1.08-.593-2.395-.593-3.475 0-5.094 2.797-8.549 8.204-8.549 14.426s3.456 11.629 8.549 14.426c1.08.593 2.395.593 3.475 0 5.094-2.797 8.549-8.204 8.549-14.426s-3.455-11.629-8.549-14.426z" fill="#f5c84c"/></g><g><path d="m190.937 46.819c-2.982-.285-5.492 2.053-5.492 4.977v46.704h.016 9.938.046v-46.489c0-2.611-1.909-4.943-4.508-5.192z" fill="#fce4be"/></g><g><path d="m192.183 15.945c-1.08-.593-2.395-.593-3.475 0-5.094 2.797-8.549 8.204-8.549 14.426s3.456 11.629 8.549 14.426c1.08.593 2.395.593 3.475 0 5.094-2.797 8.549-8.204 8.549-14.426s-3.455-11.629-8.549-14.426z" fill="#f5c84c"/></g><g><path d="m129.052 14.509c-.654-.359-1.45-.359-2.103 0-3.083 1.693-5.175 4.966-5.175 8.732s2.092 7.039 5.175 8.732c.654.359 1.45.359 2.103 0 3.083-1.693 5.175-4.966 5.175-8.732s-2.092-7.039-5.175-8.732z" fill="#fca265"/></g><g><path d="m166.497 27.509c-.654-.359-1.45-.359-2.103 0-3.083 1.693-5.175 4.966-5.175 8.732s2.092 7.039 5.175 8.732c.654.359 1.45.359 2.103 0 3.083-1.693 5.175-4.966 5.175-8.732s-2.092-7.039-5.175-8.732z" fill="#fca265"/></g><g><path d="m216.497 27.509c-.654-.359-1.45-.359-2.103 0-3.083 1.693-5.175 4.966-5.175 8.732s2.092 7.039 5.175 8.732c.654.359 1.45.359 2.103 0 3.083-1.693 5.175-4.966 5.175-8.732s-2.092-7.039-5.175-8.732z" fill="#fca265"/></g><g><path d="m66.606 27.509c-.654-.359-1.45-.359-2.103 0-3.083 1.693-5.175 4.966-5.175 8.732s2.092 7.039 5.175 8.732c.654.359 1.45.359 2.103 0 3.083-1.693 5.175-4.966 5.175-8.732s-2.092-7.039-5.175-8.732z" fill="#fca265"/></g><g><path d="m41.606 27.509c-.654-.359-1.45-.359-2.103 0-3.083 1.693-5.175 4.966-5.175 8.732s2.092 7.039 5.175 8.732c.654.359 1.45.359 2.103 0 3.083-1.693 5.175-4.966 5.175-8.732s-2.092-7.039-5.175-8.732z" fill="#fca265"/></g><g><path d="m91.606 27.509c-.654-.359-1.45-.359-2.103 0-3.083 1.693-5.175 4.966-5.175 8.732s2.092 7.039 5.175 8.732c.654.359 1.45.359 2.103 0 3.083-1.693 5.175-4.966 5.175-8.732s-2.092-7.039-5.175-8.732z" fill="#fca265"/></g><g><path d="m191.497 27.509c-.654-.359-1.45-.359-2.103 0-3.083 1.693-5.175 4.966-5.175 8.732s2.092 7.039 5.175 8.732c.654.359 1.45.359 2.103 0 3.083-1.693 5.175-4.966 5.175-8.732s-2.092-7.039-5.175-8.732z" fill="#fca265"/></g><g><path d="m75.35 212.2c-3.1-.6-5.6-3-6.2-6.1 0-.1-.3-.1-.3 0-.6 3.1-3.1 5.5-6.2 6.1-.1 0-.1.2 0 .3 3.1.6 5.6 3 6.2 6.1 0 .1.3.1.3 0 .6-3.1 3.1-5.5 6.2-6.1.1-.1.1-.3 0-.3z" fill="#fc657e"/></g><g><path d="m3.205 91.9h2.3v2.3c0 1.8 1.4 3.2 3.2 3.2 1.7 0 3.2-1.4 3.2-3.1v-.1-2.3h2.3c1.8 0 3.2-1.4 3.2-3.2 0-1.7-1.4-3.2-3.1-3.2h-.1-2.3v-2.3c0-1.8-1.4-3.2-3.2-3.2-1.7 0-3.2 1.4-3.2 3.1v.1 2.3h-2.3c-1.8 0-3.2 1.4-3.2 3.2-.1 1.7 1.3 3.2 3.2 3.2-.1 0-.1 0 0 0z" fill="#70d6f9"/></g><g><circle cx="230.522" cy="158.081" fill="#f5c84c" r="3.4"/></g><g><circle cx="19.3" cy="57.4" fill="#87d147" r="3.4"/></g><g><path d="m237.65 132.252c4.487-.87 7.932-4.425 8.763-8.838-.003-.2.397-.206.4-.006.969 4.385 4.523 7.83 9.035 8.56.2-.003.205.297.006.4-4.487.87-7.932 4.425-8.763 8.838.003.2-.397.206-.4.006-.969-4.385-4.523-7.83-9.035-8.56-.202-.097-.206-.397-.006-.4z" fill="#fc657e"/></g><g><path d="m181 256h-106c-4.411 0-8-3.589-8-8s3.589-8 8-8h106c4.411 0 8 3.589 8 8s-3.589 8-8 8zm-106-11c-1.654 0-3 1.346-3 3s1.346 3 3 3h106c1.654 0 3-1.346 3-3s-1.346-3-3-3z"/></g><g><g><path d="m177.5 244c-1.381 0-2.5-1.119-2.5-2.5 0-5.238-4.262-9.5-9.5-9.5h-75c-5.238 0-9.5 4.262-9.5 9.5 0 1.381-1.119 2.5-2.5 2.5s-2.5-1.119-2.5-2.5c0-7.995 6.505-14.5 14.5-14.5h75c7.995 0 14.5 6.505 14.5 14.5 0 1.381-1.119 2.5-2.5 2.5z"/></g></g><g><g><path d="m143.873 231.34c-1.227 0-2.298-.904-2.473-2.154-.654-4.667-4.695-8.186-9.4-8.186h-8c-4.674 0-8.711 3.493-9.391 8.125-.201 1.366-1.47 2.311-2.836 2.111-1.366-.201-2.311-1.471-2.111-2.836 1.037-7.069 7.201-12.4 14.338-12.4h8c7.184 0 13.354 5.371 14.351 12.493.192 1.367-.761 2.631-2.129 2.822-.117.017-.234.025-.349.025z"/></g></g><g><path d="m48.5 101h-16c-1.381 0-2.5-1.119-2.5-2.5s1.119-2.5 2.5-2.5h16c1.381 0 2.5 1.119 2.5 2.5s-1.119 2.5-2.5 2.5z"/></g><g><path d="m73.5 101h-16c-1.381 0-2.5-1.119-2.5-2.5s1.119-2.5 2.5-2.5h16c1.381 0 2.5 1.119 2.5 2.5s-1.119 2.5-2.5 2.5z"/></g><g><path d="m98.5 101h-16c-1.381 0-2.5-1.119-2.5-2.5s1.119-2.5 2.5-2.5h16c1.381 0 2.5 1.119 2.5 2.5s-1.119 2.5-2.5 2.5z"/></g><g><path d="m173.447 101h-16c-1.381 0-2.5-1.119-2.5-2.5s1.119-2.5 2.5-2.5h16c1.381 0 2.5 1.119 2.5 2.5s-1.119 2.5-2.5 2.5z"/></g><g><path d="m136 90h-16c-1.381 0-2.5-1.119-2.5-2.5s1.119-2.5 2.5-2.5h16c1.381 0 2.5 1.119 2.5 2.5s-1.119 2.5-2.5 2.5z"/></g><g><path d="m198.447 101h-16c-1.381 0-2.5-1.119-2.5-2.5s1.119-2.5 2.5-2.5h16c1.381 0 2.5 1.119 2.5 2.5s-1.119 2.5-2.5 2.5z"/></g><g><path d="m223.447 101h-16c-1.381 0-2.5-1.119-2.5-2.5s1.119-2.5 2.5-2.5h16c1.381 0 2.5 1.119 2.5 2.5s-1.119 2.5-2.5 2.5z"/></g><g><path d="m120.75 180h-8.686c-38.052 0-69.009-30.958-69.009-69.009-.017-7.5-.004-10.394 0-11.524.001-.193.001-.33.002-.426-.017-.105-.027-.205-.037-.3-.133-1.375.874-2.596 2.248-2.729 1.345-.127 2.531.82 2.716 2.138.075.322.074.674.071 1.338-.004 1.127-.017 4.012 0 11.498 0 35.3 28.714 64.015 64.009 64.015h8.436v-10h-8.436c-29.781 0-54.009-24.229-54.009-54.009.005-6.811.002-9.858.001-11.233-.001-1.131-.001-1.344.031-1.538.155-1.308 1.31-2.293 2.636-2.207 1.375.084 2.424 1.258 2.343 2.634-.002.037-.006.082-.011.129v.977c.001 1.375.004 4.425-.001 11.24 0 27.022 21.985 49.007 49.009 49.007h8.686c2.62 0 4.75 2.131 4.75 4.75v10.499c.001 2.619-2.13 4.75-4.749 4.75z"/></g><g><path d="m120.75 155h-8.686c-24.267 0-44.009-19.743-44.009-44.009-.017-7.5-.004-10.394 0-11.524.001-.193.001-.33.002-.426-.017-.105-.027-.205-.037-.3-.133-1.375.874-2.596 2.248-2.729 1.342-.127 2.531.82 2.716 2.138.075.322.074.674.071 1.338-.004 1.127-.017 4.012 0 11.498 0 21.515 17.5 39.015 39.009 39.015h8.436v-10h-8.436c-15.996 0-29.009-13.014-29.009-29.009.005-6.811.002-9.858.001-11.233-.001-1.131-.001-1.344.031-1.538.155-1.308 1.31-2.293 2.636-2.207 1.375.084 2.424 1.258 2.343 2.634-.002.037-.006.082-.011.129v.977c.001 1.375.004 4.425-.001 11.24 0 13.237 10.771 24.007 24.009 24.007h8.686c2.62 0 4.75 2.131 4.75 4.75v10.499c.001 2.619-2.13 4.75-4.749 4.75z"/></g><g><path d="m120.75 130h-8.686c-10.482 0-19.009-8.527-19.009-19.009-.017-7.5-.004-10.394 0-11.524.001-.193.001-.33.002-.426-.017-.105-.027-.205-.037-.3-.133-1.375.874-2.596 2.248-2.729 1.339-.127 2.531.82 2.716 2.138.075.322.074.674.071 1.338-.004 1.127-.017 4.012 0 11.498 0 7.73 6.285 14.015 14.009 14.015h8.436v-37.501c0-1.381 1.119-2.5 2.5-2.5s2.5 1.119 2.5 2.5v37.75c0 2.619-2.131 4.75-4.75 4.75z"/></g><g><path d="m143.936 130h-8.686c-2.62 0-4.75-2.131-4.75-4.75v-37.75c0-1.381 1.119-2.5 2.5-2.5s2.5 1.119 2.5 2.5v37.5h8.436c7.725 0 14.009-6.285 14.009-14.009.005-6.811.002-9.858.001-11.233-.001-1.131-.001-1.344.031-1.538.154-1.308 1.306-2.293 2.636-2.207 1.375.084 2.424 1.258 2.343 2.634-.002.037-.006.082-.011.129v.977c.001 1.375.004 4.425-.001 11.24.001 10.48-8.526 19.007-19.008 19.007z"/></g><g><path d="m143.936 155h-8.686c-2.62 0-4.75-2.131-4.75-4.75v-10.5c0-2.62 2.131-4.75 4.75-4.75h8.686c13.239 0 24.009-10.771 24.009-24.009-.017-7.5-.004-10.394 0-11.524.001-.193.001-.33.002-.426-.017-.105-.027-.205-.037-.3-.133-1.375.874-2.596 2.248-2.729 1.343-.127 2.531.82 2.716 2.138.075.322.074.674.071 1.338-.004 1.127-.017 4.012 0 11.498 0 16.001-13.014 29.015-29.009 29.015h-8.436v10h8.436c21.51 0 39.009-17.5 39.009-39.009.005-6.811.002-9.858.001-11.233-.001-1.131-.001-1.344.031-1.538.155-1.308 1.305-2.293 2.636-2.207 1.375.084 2.424 1.258 2.343 2.634-.002.037-.006.082-.011.129v.977c.001 1.375.004 4.425-.001 11.24.001 24.263-19.741 44.006-44.008 44.006z"/></g><g><path d="m143.936 180h-8.686c-2.62 0-4.75-2.131-4.75-4.75v-10.5c0-2.62 2.131-4.75 4.75-4.75h8.686c27.024 0 49.009-21.985 49.009-49.009-.017-7.5-.004-10.394 0-11.524.001-.193.001-.33.002-.426-.017-.105-.027-.205-.037-.3-.133-1.375.874-2.596 2.248-2.729 1.34-.127 2.531.82 2.716 2.138.075.322.074.674.071 1.338-.004 1.127-.017 4.012 0 11.498 0 29.786-24.229 54.015-54.009 54.015h-8.436v10h8.436c35.295 0 64.009-28.714 64.009-64.009.016-7.367.004-10.261 0-11.421-.003-.823-.004-1.081.066-1.372.181-1.323 1.38-2.293 2.719-2.167 1.375.133 2.383 1.336 2.25 2.71-.01.106-.021.206-.037.304 0 .106.001.265.002.504.005 1.164.017 4.065 0 11.447 0 38.045-30.957 69.003-69.009 69.003zm64.136-82.018c-.01.031-.03.071-.05.17.015-.053.031-.109.05-.17z"/></g><g><path d="m133 220.583c-1.381 0-2.5-1.119-2.5-2.5v-28.333c0-2.62 2.131-4.75 4.75-4.75h8.686c40.809 0 74.009-33.2 74.009-74.009v-4.671c.001-3.237.003-7.265-.013-7.697-.051-1.37 1.009-2.54 2.378-2.605 1.358-.059 2.535.969 2.614 2.337.021.35.023 2.201.021 7.967v4.667c0 43.568-35.443 79.011-79.009 79.011h-8.436v28.083c0 1.381-1.119 2.5-2.5 2.5z"/></g><g><path d="m123 220.583c-1.381 0-2.5-1.119-2.5-2.5v-28.083h-8.436c-43.566 0-79.009-35.443-79.009-79.009.005-6.811.002-9.858.001-11.233-.001-1.131-.001-1.344.031-1.538.155-1.308 1.311-2.293 2.636-2.207 1.375.084 2.424 1.258 2.343 2.634-.002.037-.006.082-.011.129v.977c.001 1.375.004 4.425-.001 11.24 0 40.807 33.2 74.007 74.009 74.007h8.686c2.62 0 4.75 2.131 4.75 4.75v28.333c.001 1.381-1.118 2.5-2.499 2.5z"/></g><g><path d="m133 90h-10c-1.381 0-2.5-1.119-2.5-2.5v-47.704c0-2.108.895-4.131 2.456-5.551 1.56-1.418 3.663-2.119 5.773-1.915 3.797.362 6.771 3.736 6.771 7.681v47.489c0 1.381-1.119 2.5-2.5 2.5zm-7.5-5h5v-44.989c0-1.396-.986-2.583-2.246-2.703-.723-.073-1.407.157-1.935.637s-.819 1.138-.819 1.851z"/></g><g><path d="m170.445 101h-9.984c-1.381 0-2.516-1.119-2.516-2.5v-46.704c0-2.108.895-4.131 2.456-5.551 1.56-1.418 3.661-2.116 5.773-1.915 3.797.362 6.771 3.736 6.771 7.681v46.489c0 1.381-1.119 2.5-2.5 2.5zm0-2.5h.01zm-7.5-2.5h5v-43.989c0-1.396-.986-2.583-2.246-2.703-.722-.07-1.407.157-1.935.637s-.819 1.138-.819 1.851z"/></g><g><g><path d="m94.833 111h-8.375c-1.381 0-2.5-1.119-2.5-2.5s1.119-2.5 2.5-2.5h8.375c1.381 0 2.5 1.119 2.5 2.5s-1.119 2.5-2.5 2.5z"/></g><g><path d="m69.5 111h-8.083c-1.381 0-2.5-1.119-2.5-2.5s1.119-2.5 2.5-2.5h8.083c1.381 0 2.5 1.119 2.5 2.5s-1.119 2.5-2.5 2.5z"/></g><g><path d="m132.167 100h-8.334c-1.381 0-2.5-1.119-2.5-2.5s1.119-2.5 2.5-2.5h8.334c1.381 0 2.5 1.119 2.5 2.5s-1.119 2.5-2.5 2.5z"/></g><g><path d="m44.406 111h-8.125c-1.381 0-2.5-1.119-2.5-2.5s1.119-2.5 2.5-2.5h8.125c1.381 0 2.5 1.119 2.5 2.5s-1.119 2.5-2.5 2.5z"/></g><g><path d="m219.854 111h-8.875c-1.381 0-2.5-1.119-2.5-2.5s1.119-2.5 2.5-2.5h8.875c1.381 0 2.5 1.119 2.5 2.5s-1.119 2.5-2.5 2.5z"/></g><g><path d="m169.708 111h-8.333c-1.381 0-2.5-1.119-2.5-2.5s1.119-2.5 2.5-2.5h8.333c1.381 0 2.5 1.119 2.5 2.5s-1.119 2.5-2.5 2.5z"/></g><g><path d="m194.375 111h-7.875c-1.381 0-2.5-1.119-2.5-2.5s1.119-2.5 2.5-2.5h7.875c1.381 0 2.5 1.119 2.5 2.5s-1.119 2.5-2.5 2.5z"/></g></g><g><path d="m128 34.746c-1.01 0-2.02-.252-2.94-.757-6.074-3.336-9.846-9.703-9.846-16.618s3.772-13.282 9.846-16.617c1.841-1.011 4.04-1.011 5.882 0 6.073 3.335 9.846 9.702 9.846 16.617s-3.772 13.282-9.845 16.617c-.923.505-1.933.758-2.943.758zm0-29.746c-.185 0-.37.045-.535.136-4.473 2.457-7.252 7.145-7.252 12.234s2.779 9.778 7.252 12.234c.331.181.741.181 1.069 0 4.473-2.456 7.251-7.144 7.251-12.234s-2.779-9.778-7.252-12.234c-.163-.09-.348-.136-.533-.136z"/></g><g><path d="m165.445 47.746c-1.01 0-2.02-.252-2.94-.757-6.074-3.336-9.846-9.703-9.846-16.618s3.772-13.282 9.846-16.617c1.841-1.011 4.04-1.011 5.882 0 6.073 3.335 9.846 9.702 9.846 16.617s-3.772 13.282-9.845 16.617c-.923.505-1.933.758-2.943.758zm0-29.746c-.185 0-.37.045-.535.136-4.473 2.457-7.252 7.145-7.252 12.234s2.779 9.778 7.252 12.234c.331.182.741.181 1.069 0 4.473-2.456 7.251-7.144 7.251-12.234s-2.779-9.778-7.252-12.234c-.163-.09-.348-.136-.533-.136z"/></g><g><path d="m220.445 101h-9.954c-1.381 0-2.546-1.119-2.546-2.5v-46.489c0-3.944 2.974-7.318 6.771-7.681 2.108-.199 4.213.497 5.773 1.915 1.561 1.419 2.456 3.442 2.456 5.551v46.704c0 1.381-1.119 2.5-2.5 2.5zm-7.5-5h5v-44.204c0-.713-.291-1.371-.819-1.851-.527-.479-1.209-.704-1.935-.637-1.259.12-2.246 1.308-2.246 2.703zm2.009-49.181h.01z"/></g><g><path d="m215.445 47.746c-1.01 0-2.02-.252-2.94-.757-6.074-3.336-9.846-9.703-9.846-16.618s3.772-13.282 9.846-16.617c1.841-1.011 4.04-1.011 5.882 0 6.073 3.335 9.846 9.702 9.846 16.617s-3.772 13.282-9.845 16.617c-.923.505-1.933.758-2.943.758zm0-29.746c-.185 0-.37.045-.535.136-4.473 2.457-7.252 7.145-7.252 12.234s2.779 9.778 7.252 12.234c.33.182.74.181 1.069 0 4.473-2.456 7.251-7.144 7.251-12.234s-2.779-9.778-7.252-12.234c-.163-.09-.348-.136-.533-.136z"/></g><g><path d="m70.555 101h-9.985c-1.381 0-2.516-1.119-2.516-2.5v-46.704c0-2.108.895-4.131 2.456-5.551 1.56-1.418 3.662-2.116 5.773-1.915 3.797.362 6.771 3.736 6.771 7.681v46.489c.001 1.381-1.118 2.5-2.499 2.5zm0-2.5h.01zm-7.5-2.5h5v-43.989c0-1.396-.986-2.583-2.246-2.703-.722-.07-1.407.157-1.935.637s-.819 1.138-.819 1.851z"/></g><g><path d="m65.554 47.746c-1.01 0-2.02-.252-2.94-.757-6.074-3.336-9.846-9.703-9.846-16.618s3.772-13.282 9.846-16.617c1.841-1.011 4.04-1.011 5.882 0 6.073 3.335 9.846 9.702 9.846 16.617s-3.772 13.282-9.845 16.617c-.922.505-1.933.758-2.943.758zm.001-29.746c-.185 0-.37.045-.535.136-4.473 2.457-7.252 7.145-7.252 12.234s2.779 9.778 7.252 12.234c.33.182.74.181 1.069 0 4.473-2.456 7.251-7.144 7.251-12.234s-2.779-9.778-7.252-12.234c-.164-.09-.348-.136-.533-.136z"/></g><g><path d="m45.555 101h-9.985c-1.381 0-2.516-1.119-2.516-2.5v-46.704c0-2.108.895-4.131 2.456-5.551 1.56-1.418 3.661-2.116 5.773-1.915 3.797.362 6.771 3.736 6.771 7.681v46.489c.001 1.381-1.118 2.5-2.499 2.5zm0-2.5h.01zm-7.5-2.5h5v-43.989c0-1.396-.986-2.583-2.246-2.703-.725-.07-1.407.157-1.935.637s-.819 1.138-.819 1.851z"/></g><g><path d="m40.554 47.746c-1.01 0-2.02-.252-2.94-.757-6.074-3.336-9.846-9.703-9.846-16.618s3.772-13.282 9.846-16.617c1.841-1.011 4.04-1.011 5.882 0 6.073 3.335 9.846 9.702 9.846 16.617s-3.772 13.282-9.845 16.617c-.922.505-1.933.758-2.943.758zm.001-29.746c-.185 0-.37.045-.535.136-4.473 2.457-7.252 7.145-7.252 12.234s2.779 9.778 7.252 12.234c.33.182.74.181 1.069 0 4.473-2.456 7.251-7.144 7.251-12.234s-2.779-9.778-7.252-12.234c-.164-.09-.348-.136-.533-.136z"/></g><g><path d="m95.555 101h-9.985c-1.381 0-2.516-1.119-2.516-2.5v-46.704c0-2.108.895-4.131 2.456-5.551 1.56-1.418 3.664-2.116 5.773-1.915 3.797.362 6.771 3.736 6.771 7.681v46.489c.001 1.381-1.118 2.5-2.499 2.5zm0-2.5h.01zm-7.5-2.5h5v-43.989c0-1.396-.986-2.583-2.246-2.703-.724-.07-1.407.157-1.935.637s-.819 1.138-.819 1.851z"/></g><g><path d="m90.554 47.746c-1.01 0-2.02-.252-2.94-.757-6.074-3.336-9.846-9.703-9.846-16.618s3.772-13.282 9.846-16.617c1.841-1.011 4.04-1.011 5.882 0 6.073 3.335 9.846 9.702 9.846 16.617s-3.772 13.282-9.845 16.617c-.922.505-1.933.758-2.943.758zm.001-29.746c-.185 0-.37.045-.535.136-4.473 2.457-7.252 7.145-7.252 12.234s2.779 9.778 7.252 12.234c.331.182.741.181 1.069 0 4.473-2.456 7.251-7.144 7.251-12.234s-2.779-9.778-7.252-12.234c-.164-.09-.348-.136-.533-.136z"/></g><g><path d="m195.445 101h-9.984c-1.381 0-2.516-1.119-2.516-2.5v-46.704c0-2.108.895-4.131 2.456-5.551 1.56-1.418 3.663-2.116 5.773-1.915 3.797.362 6.771 3.736 6.771 7.681v46.489c0 1.381-1.119 2.5-2.5 2.5zm0-2.5h.01zm-7.5-2.5h5v-43.989c0-1.396-.986-2.583-2.246-2.703-.724-.07-1.407.157-1.935.637s-.819 1.138-.819 1.851z"/></g><g><path d="m190.445 47.746c-1.01 0-2.02-.252-2.94-.757-6.074-3.336-9.846-9.703-9.846-16.618s3.772-13.282 9.846-16.617c1.841-1.011 4.04-1.011 5.882 0 6.073 3.335 9.846 9.702 9.846 16.617s-3.772 13.282-9.845 16.617c-.923.505-1.933.758-2.943.758zm0-29.746c-.185 0-.37.045-.535.136-4.473 2.457-7.252 7.145-7.252 12.234s2.779 9.778 7.252 12.234c.33.182.74.181 1.069 0 4.473-2.456 7.251-7.144 7.251-12.234s-2.779-9.778-7.252-12.234c-.163-.09-.348-.136-.533-.136z"/></g><g><path d="m128 34.745c-.775 0-1.55-.194-2.256-.583-3.991-2.191-6.471-6.377-6.471-10.922s2.48-8.731 6.472-10.923c1.412-.775 3.098-.775 4.51 0 3.992 2.192 6.472 6.377 6.472 10.923s-2.48 8.731-6.472 10.923c-.706.388-1.48.582-2.255.582zm0-17.959c-2.303 1.334-3.727 3.792-3.727 6.455s1.423 5.12 3.727 6.455c2.303-1.335 3.727-3.792 3.727-6.455s-1.424-5.12-3.727-6.455zm-.151-.086c0 .001.001.001 0 0 .001.001 0 .001 0 0z"/></g><g><path d="m165.446 47.745c-.775 0-1.55-.194-2.256-.583-3.991-2.191-6.471-6.377-6.471-10.922s2.48-8.731 6.472-10.923c1.412-.775 3.098-.775 4.51 0 3.992 2.192 6.472 6.377 6.472 10.923s-2.48 8.731-6.472 10.923c-.706.388-1.481.582-2.255.582zm-.001-17.959c-2.303 1.334-3.727 3.792-3.727 6.455s1.423 5.12 3.727 6.455c2.303-1.335 3.727-3.792 3.727-6.455s-1.423-5.12-3.727-6.455zm-.151-.086c0 .001.001.001 0 0 .001.001 0 .001 0 0z"/></g><g><path d="m215.446 47.745c-.775 0-1.55-.194-2.256-.583-3.991-2.191-6.471-6.377-6.471-10.922s2.48-8.731 6.472-10.923c1.412-.775 3.098-.775 4.51 0 3.992 2.192 6.472 6.377 6.472 10.923s-2.48 8.731-6.472 10.923c-.706.388-1.481.582-2.255.582zm-.001-17.959c-2.303 1.334-3.727 3.792-3.727 6.455s1.423 5.12 3.727 6.455c2.303-1.335 3.727-3.792 3.727-6.455s-1.423-5.12-3.727-6.455zm-.151-.086c0 .001.001.001 0 0 .001.001 0 .001 0 0z"/></g><g><path d="m65.555 47.745c-.775 0-1.55-.194-2.256-.583-3.991-2.191-6.471-6.377-6.471-10.922s2.48-8.731 6.472-10.923c1.412-.775 3.098-.775 4.51 0 3.992 2.192 6.472 6.377 6.472 10.923s-2.48 8.731-6.472 10.923c-.706.388-1.48.582-2.255.582zm0-17.959c-2.303 1.334-3.727 3.792-3.727 6.455s1.423 5.12 3.727 6.455c2.303-1.335 3.727-3.792 3.727-6.455-.001-2.663-1.424-5.12-3.727-6.455zm-.152-.086s.001 0 .001.001c0 0 0 0-.001-.001z"/></g><g><path d="m40.555 47.745c-.775 0-1.55-.194-2.256-.583-3.991-2.191-6.471-6.377-6.471-10.922s2.48-8.731 6.472-10.923c1.412-.775 3.098-.775 4.51 0 3.992 2.192 6.472 6.377 6.472 10.923s-2.48 8.731-6.472 10.923c-.706.388-1.48.582-2.255.582zm0-17.959c-2.303 1.334-3.727 3.792-3.727 6.455s1.423 5.12 3.727 6.455c2.303-1.335 3.727-3.792 3.727-6.455-.001-2.663-1.424-5.12-3.727-6.455zm-.152-.086s.001 0 .001.001c0 0 0 0-.001-.001z"/></g><g><path d="m90.555 47.745c-.775 0-1.55-.194-2.256-.583-3.991-2.191-6.471-6.377-6.471-10.922s2.48-8.731 6.472-10.923c1.412-.775 3.098-.775 4.51 0 3.992 2.192 6.472 6.377 6.472 10.923s-2.48 8.731-6.472 10.923c-.706.388-1.48.582-2.255.582zm0-17.959c-2.303 1.334-3.727 3.792-3.727 6.455s1.423 5.12 3.727 6.455c2.303-1.335 3.727-3.792 3.727-6.455-.001-2.663-1.424-5.12-3.727-6.455zm-.152-.086s.001 0 .001.001c0 0 0 0-.001-.001z"/></g><g><path d="m190.446 47.745c-.775 0-1.55-.194-2.256-.583-3.991-2.191-6.471-6.377-6.471-10.922s2.48-8.731 6.472-10.923c1.412-.775 3.098-.775 4.51 0 3.992 2.192 6.472 6.377 6.472 10.923s-2.48 8.731-6.472 10.923c-.706.388-1.481.582-2.255.582zm-.001-17.959c-2.303 1.334-3.727 3.792-3.727 6.455s1.423 5.12 3.727 6.455c2.303-1.335 3.727-3.792 3.727-6.455s-1.423-5.12-3.727-6.455zm-.151-.086c0 .001.001.001 0 0 .001.001 0 .001 0 0z"/></g></g></g></svg>