<svg enable-background="new 0 0 256 256" height="512" viewBox="0 0 256 256" width="512" xmlns="http://www.w3.org/2000/svg"><g id="Layer_40"><g><g><path d="m179.497 139.837c.065-3.398 2.59-6.401 5.978-6.679 3.888-.318 7.135 2.815 7.063 6.62 0 0 .461-26.495.462-26.55.065-3.409 3.042-6.098 6.512-5.701 2.814.322 4.888 2.733 5.126 5.517v-8.051c.065-3.42 3.052-6.099 6.535-5.7 3.036.348 5.218 3.119 5.16 6.174l-.054 7.761c.065-3.42 3.053-6.1 6.536-5.7 3.036.348 5.218 3.119 5.16 6.175l-.068 8.679c.065-3.42 3.052-6.1 6.535-5.7 3.036.348 5.218 3.119 5.16 6.174l-.607 35.943c-.05 2.616-.509 5.208-1.362 7.682-.954 3.211-6.838 10.594-6.953 16.65l.072 2.912h-37.459l.018-.474c-.241-10.378-6.546-14.007-8.989-18.431-3.382-5.077-5.133-11.066-5.017-17.165z" fill="#c18e6b"/></g><g><path d="m234.072 187.716v10.562h-43.682v-10.562c0-.925.75-1.675 1.675-1.675h40.333c.924 0 1.674.75 1.674 1.675z" fill="#edf4fc"/></g><g><path d="m235.495 253.5c1.02 0 1.847-.829 1.847-1.849 0-12.339 0-48.298 0-51.699 0-.925-.75-1.675-1.675-1.675h-47.69c-.925 0-1.675.75-1.675 1.675v51.7c0 1.02.827 1.848 1.847 1.848z" fill="#6cadef"/></g><g><path d="m104.997 60.837c.065-3.398 2.59-6.401 5.978-6.679 3.888-.318 7.135 2.815 7.063 6.62 0 0 .461-26.495.462-26.55.065-3.409 3.042-6.098 6.512-5.701 2.814.322 4.888 2.733 5.126 5.517v-8.051c.065-3.42 3.052-6.099 6.535-5.7 3.036.348 5.218 3.119 5.16 6.174l-.054 7.761c.065-3.42 3.053-6.1 6.536-5.7 3.036.348 5.218 3.119 5.16 6.175l-.068 8.679c.065-3.42 3.052-6.1 6.535-5.7 3.036.348 5.218 3.119 5.16 6.174l-.607 35.943c-.05 2.616-.509 5.208-1.362 7.682-.954 3.211-6.838 10.594-6.953 16.65l.072 2.912h-37.459l.018-.474c-.241-10.378-6.546-14.007-8.989-18.431-3.382-5.077-5.133-11.066-5.017-17.165z" fill="#fed690"/></g><g><path d="m159.572 108.716v10.562h-43.682v-10.562c0-.925.75-1.675 1.675-1.675h40.333c.924 0 1.674.75 1.674 1.675z" fill="#edf4fc"/></g><g><path d="m160.995 253.5c1.02 0 1.847-.829 1.847-1.849 0-12.339 0-127.298 0-130.699 0-.925-.75-1.675-1.675-1.675h-47.69c-.925 0-1.675.75-1.675 1.675v130.7c0 1.02.827 1.848 1.847 1.848z" fill="#70d6f9"/></g><g><path d="m30.497 106.837c.065-3.398 2.59-6.401 5.978-6.679 3.888-.318 7.135 2.815 7.063 6.62 0 0 .461-26.495.462-26.55.065-3.409 3.042-6.098 6.512-5.701 2.814.322 4.888 2.733 5.126 5.517v-8.051c.065-3.42 3.052-6.099 6.535-5.7 3.036.348 5.218 3.119 5.16 6.174l-.054 7.761c.065-3.42 3.053-6.1 6.536-5.7 3.036.348 5.218 3.119 5.16 6.175l-.068 8.679c.065-3.42 3.052-6.1 6.535-5.7 3.036.348 5.218 3.119 5.16 6.174l-.607 35.943c-.05 2.616-.509 5.208-1.362 7.682-.954 3.211-6.838 10.594-6.953 16.65l.072 2.912h-37.46l.018-.474c-.241-10.378-6.546-14.007-8.989-18.431-3.382-5.077-5.133-11.066-5.017-17.165z" fill="#f9d0b4"/></g><g><path d="m85.072 154.716v10.562h-43.682v-10.562c0-.925.75-1.675 1.675-1.675h40.333c.924 0 1.674.75 1.674 1.675z" fill="#edf4fc"/></g><g><path d="m86.495 253.5c1.02 0 1.847-.829 1.847-1.849 0-12.339 0-81.298 0-84.699 0-.925-.75-1.675-1.675-1.675h-47.69c-.925 0-1.675.75-1.675 1.675v84.7c0 1.02.827 1.848 1.847 1.848z" fill="#fc657e"/></g><g><path d="m27.674 186.2c-3.1-.6-5.6-3-6.2-6.1 0-.1-.3-.1-.3 0-.6 3.1-3.1 5.5-6.2 6.1-.1 0-.1.2 0 .3 3.1.6 5.6 3 6.2 6.1 0 .1.3.1.3 0 .6-3.1 3.1-5.5 6.2-6.1.1-.1.1-.3 0-.3z" fill="#87d147"/></g><g><path d="m208.224 72.9h2.3v2.3c0 1.8 1.4 3.2 3.2 3.2 1.7 0 3.2-1.4 3.2-3.1v-.1-2.3h2.3c1.8 0 3.2-1.4 3.2-3.2 0-1.7-1.4-3.2-3.1-3.2h-.1-2.3v-2.3c0-1.8-1.4-3.2-3.2-3.2-1.7 0-3.2 1.4-3.2 3.1v.1 2.3h-2.3c-1.8 0-3.2 1.4-3.2 3.2-.1 1.7 1.3 3.2 3.2 3.2-.1 0-.1 0 0 0z" fill="#70d6f9"/></g><g><circle cx="117.624" cy="3.4" fill="#fc657e" r="3.4"/></g><g><circle cx="233.624" cy="92.4" fill="#f5c84c" r="3.4"/></g><g><path d="m83.024 24.2c4.5-.8 8-4.3 8.9-8.7 0-.2.4-.2.4 0 .9 4.4 4.4 7.9 8.9 8.7.2 0 .2.3 0 .4-4.5.8-8 4.3-8.9 8.7 0 .2-.4.2-.4 0-.9-4.4-4.4-7.9-8.9-8.7-.2-.1-.2-.4 0-.4z" fill="#f5c84c"/></g><g><path d="m192.376 150.784c-.017 0-.032 0-.049 0-1.38-.026-2.478-1.167-2.452-2.547l.165-8.665c.026-1.38 1.215-2.481 2.548-2.452 1.38.026 2.478 1.167 2.452 2.547l-.165 8.665c-.026 1.363-1.141 2.452-2.499 2.452z"/></g><g><path d="m204.313 138.542c-.013 0-.024 0-.036 0-1.381-.019-2.484-1.154-2.465-2.535l.324-22.999c.02-1.369 1.135-2.465 2.499-2.465h.036c1.381.019 2.484 1.154 2.465 2.535l-.324 22.999c-.019 1.369-1.134 2.465-2.499 2.465z"/></g><g><path d="m216.014 138.765c-.01 0-.02 0-.03 0-1.38-.016-2.486-1.148-2.471-2.529l.266-23.038c.016-1.371 1.132-2.471 2.499-2.471h.03c1.38.016 2.486 1.148 2.471 2.529l-.266 23.038c-.016 1.37-1.132 2.471-2.499 2.471z"/></g><g><path d="m227.714 138.987c-.012 0-.023 0-.035 0-1.381-.019-2.484-1.153-2.466-2.534l.192-14.107c.019-1.369 1.135-2.466 2.499-2.466h.035c1.381.019 2.484 1.153 2.466 2.534l-.192 14.107c-.019 1.369-1.135 2.466-2.499 2.466z"/></g><g><path d="m193.309 188.067c-1.354 0-2.467-1.081-2.498-2.442-.154-6.61-2.963-9.963-5.679-13.207-1.107-1.323-2.155-2.574-2.947-3.98-3.646-5.51-5.506-11.909-5.381-18.515l.193-10.135c.091-4.743 3.725-8.75 8.273-9.123 1.71-.138 3.41.214 4.907.993l.321-18.476c.045-2.351 1.085-4.586 2.854-6.135 1.763-1.542 4.117-2.271 6.441-2.006.823.094 1.609.314 2.342.641v-.691c.045-2.396 1.085-4.629 2.853-6.175 1.767-1.545 4.124-2.28 6.468-2.009 4.22.483 7.459 4.308 7.375 8.706l-.002.154c1.331-.57 2.802-.795 4.269-.625 4.218.484 7.457 4.308 7.375 8.706l-.009 1.069c1.328-.567 2.796-.789 4.261-.622 4.218.483 7.457 4.307 7.375 8.706l-.607 35.938c-.055 2.869-.554 5.695-1.482 8.407-.412 1.348-1.314 2.938-2.452 4.945-1.813 3.196-4.292 7.568-4.38 10.934l.051 2.06c.034 1.38-1.057 2.527-2.437 2.561-1.432.044-2.528-1.057-2.562-2.437l-.053-2.119c-.001-.037-.001-.073-.001-.109.089-4.642 2.83-9.474 5.032-13.357.917-1.617 1.783-3.144 2.024-3.957.01-.035.021-.069.033-.103.769-2.231 1.182-4.558 1.226-6.915l.607-35.938c.035-1.854-1.258-3.455-2.944-3.648-.962-.11-1.888.175-2.606.805-.721.63-1.127 1.503-1.145 2.458-.026 1.364-1.14 2.453-2.499 2.453-.012 0-.023 0-.034 0-1.375-.019-2.478-1.145-2.467-2.52l.068-8.679c.035-1.877-1.259-3.478-2.945-3.671-.965-.113-1.887.175-2.604.804-.721.63-1.128 1.504-1.146 2.46-.027 1.375-1.208 2.458-2.532 2.452-1.375-.018-2.478-1.143-2.468-2.517l.054-7.761c.036-1.88-1.258-3.48-2.944-3.673-.964-.11-1.887.175-2.605.804-.721.63-1.128 1.504-1.146 2.46v8.003c0 1.339-1.056 2.441-2.394 2.498-1.327.069-2.483-.951-2.598-2.285-.145-1.704-1.373-3.069-2.919-3.246-.95-.109-1.865.176-2.58.8-.712.623-1.13 1.521-1.147 2.464l-.462 26.546v.004c-.026 1.38-1.122 2.495-2.546 2.452-1.379-.025-2.478-1.163-2.454-2.543l.001-.022c.016-1.121-.448-2.208-1.276-2.985-.839-.789-1.93-1.17-3.083-1.078-2.022.166-3.641 2.025-3.682 4.234l-.193 10.135c-.107 5.615 1.482 11.055 4.598 15.731.038.058.074.117.107.177.564 1.021 1.441 2.068 2.456 3.281 2.807 3.351 6.649 7.939 6.844 16.301.032 1.38-1.061 2.525-2.441 2.558-.019.004-.039.004-.058.004z"/></g><g><path d="m234.072 199.833c-1.381 0-2.5-1.119-2.5-2.5v-8.792h-38.682v8.584c0 1.381-1.119 2.5-2.5 2.5s-2.5-1.119-2.5-2.5v-9.409c0-2.302 1.873-4.175 4.175-4.175h40.333c2.302 0 4.175 1.873 4.175 4.175v9.617c-.001 1.381-1.12 2.5-2.501 2.5z"/></g><g><path d="m235.495 256h-47.346c-2.396 0-4.347-1.951-4.347-4.349v-51.7c0-2.302 1.873-4.174 4.175-4.174h47.69c2.302 0 4.174 1.873 4.174 4.174v51.699c.001 2.399-1.949 4.35-4.346 4.35zm-46.692-5h46.039v-50.223h-46.039z"/></g><g><path d="m117.876 71.784c-.017 0-.032 0-.049 0-1.38-.026-2.478-1.167-2.452-2.547l.165-8.665c.026-1.38 1.142-2.503 2.548-2.452 1.38.026 2.478 1.167 2.452 2.547l-.165 8.665c-.026 1.363-1.141 2.452-2.499 2.452z"/></g><g><path d="m129.813 59.542c-.013 0-.024 0-.036 0-1.381-.019-2.484-1.154-2.465-2.535l.324-22.999c.02-1.369 1.135-2.465 2.499-2.465h.036c1.381.019 2.484 1.154 2.465 2.535l-.324 22.999c-.019 1.369-1.134 2.465-2.499 2.465z"/></g><g><path d="m141.514 59.765c-.01 0-.02 0-.03 0-1.38-.016-2.486-1.148-2.471-2.529l.266-23.038c.016-1.371 1.132-2.471 2.499-2.471h.03c1.38.016 2.486 1.148 2.471 2.529l-.266 23.038c-.016 1.37-1.132 2.471-2.499 2.471z"/></g><g><path d="m153.214 59.987c-.012 0-.023 0-.035 0-1.381-.019-2.484-1.153-2.466-2.534l.192-14.107c.019-1.369 1.135-2.466 2.499-2.466h.035c1.381.019 2.484 1.153 2.466 2.534l-.192 14.107c-.019 1.369-1.135 2.466-2.499 2.466z"/></g><g><path d="m118.809 109.067c-1.354 0-2.467-1.081-2.498-2.442-.154-6.61-2.963-9.963-5.679-13.207-1.107-1.323-2.155-2.574-2.947-3.98-3.646-5.51-5.506-11.909-5.381-18.515l.193-10.135c.091-4.743 3.725-8.75 8.273-9.123 1.712-.139 3.41.214 4.907.993l.321-18.476c.045-2.351 1.085-4.586 2.854-6.135 1.763-1.542 4.118-2.271 6.441-2.006.823.094 1.609.314 2.342.641v-.691c.045-2.396 1.085-4.629 2.853-6.175 1.767-1.546 4.125-2.279 6.468-2.009 4.22.483 7.459 4.308 7.375 8.706l-.002.154c1.331-.57 2.801-.794 4.269-.625 4.218.484 7.457 4.308 7.375 8.706l-.009 1.069c1.327-.567 2.798-.79 4.261-.622 4.218.483 7.457 4.307 7.375 8.706l-.607 35.938c-.055 2.869-.554 5.695-1.482 8.407-.412 1.348-1.314 2.938-2.452 4.945-1.813 3.196-4.292 7.568-4.38 10.934l.057 2.268c.035 1.38-1.056 2.527-2.437 2.562-.021 0-.042.001-.063.001-1.352 0-2.464-1.078-2.498-2.437l-.059-2.328c-.001-.037-.001-.074-.001-.11.089-4.642 2.83-9.474 5.032-13.357.917-1.617 1.783-3.144 2.024-3.957.01-.035.021-.069.033-.103.769-2.231 1.182-4.558 1.226-6.915l.607-35.938c.035-1.854-1.258-3.455-2.944-3.648-.962-.11-1.888.175-2.606.805-.721.63-1.127 1.503-1.145 2.458-.026 1.364-1.14 2.453-2.499 2.453-.012 0-.023 0-.034 0-1.375-.019-2.478-1.145-2.467-2.52l.068-8.679c.035-1.877-1.259-3.478-2.945-3.671-.965-.112-1.887.175-2.604.804-.721.63-1.128 1.504-1.146 2.46-.026 1.363-1.14 2.452-2.499 2.452-.012 0-.022 0-.033 0-1.375-.018-2.478-1.143-2.468-2.517l.054-7.761c.036-1.88-1.258-3.48-2.944-3.673-.963-.112-1.887.175-2.605.804-.721.63-1.128 1.504-1.146 2.46v8.003c0 1.339-1.056 2.441-2.394 2.498-1.326.068-2.483-.951-2.598-2.285-.145-1.704-1.373-3.069-2.919-3.246-.949-.109-1.866.176-2.58.8-.712.623-1.13 1.521-1.147 2.464l-.462 26.546v.004c-.027 1.38-1.163 2.489-2.546 2.452-1.379-.025-2.478-1.163-2.454-2.543l.001-.022c.016-1.121-.448-2.208-1.276-2.985-.839-.789-1.93-1.173-3.083-1.078-2.022.166-3.641 2.025-3.682 4.234l-.193 10.135c-.107 5.615 1.482 11.055 4.598 15.731.038.058.074.117.107.177.564 1.021 1.441 2.068 2.456 3.281 2.807 3.351 6.649 7.939 6.844 16.301.032 1.38-1.061 2.525-2.441 2.558-.02.004-.04.004-.059.004z"/></g><g><path d="m115.89 121.156c-1.381 0-2.5-1.119-2.5-2.5v-9.94c0-2.302 1.873-4.175 4.175-4.175h40.333c2.302 0 4.175 1.873 4.175 4.175v9.847c0 1.381-1.119 2.5-2.5 2.5s-2.5-1.119-2.5-2.5v-9.022h-38.683v9.115c0 1.381-1.119 2.5-2.5 2.5z"/></g><g><path d="m160.995 256h-47.346c-2.396 0-4.347-1.951-4.347-4.349v-130.7c0-2.302 1.873-4.174 4.175-4.174h47.69c2.302 0 4.174 1.873 4.174 4.174v130.699c.001 2.399-1.949 4.35-4.346 4.35zm-46.692-5h46.039v-129.223h-46.039z"/></g><g><path d="m43.376 117.784c-.017 0-.032 0-.049 0-1.38-.026-2.478-1.167-2.452-2.547l.165-8.665c.026-1.38 1.148-2.481 2.548-2.452 1.38.026 2.478 1.167 2.452 2.547l-.165 8.665c-.026 1.363-1.141 2.452-2.499 2.452z"/></g><g><path d="m55.313 105.542c-.013 0-.024 0-.036 0-1.381-.019-2.484-1.154-2.465-2.535l.324-22.999c.02-1.369 1.135-2.465 2.499-2.465h.036c1.381.019 2.484 1.154 2.465 2.535l-.324 22.999c-.019 1.369-1.134 2.465-2.499 2.465z"/></g><g><path d="m67.014 105.765c-.01 0-.02 0-.03 0-1.38-.016-2.486-1.148-2.471-2.529l.266-23.038c.016-1.371 1.132-2.471 2.499-2.471h.03c1.38.016 2.486 1.148 2.471 2.529l-.266 23.038c-.016 1.37-1.132 2.471-2.499 2.471z"/></g><g><path d="m78.714 105.987c-.012 0-.023 0-.035 0-1.381-.019-2.484-1.153-2.466-2.534l.192-14.107c.019-1.38 1.164-2.46 2.534-2.466 1.381.019 2.484 1.153 2.466 2.534l-.192 14.107c-.019 1.369-1.135 2.466-2.499 2.466z"/></g><g><path d="m44.309 155.067c-1.354 0-2.467-1.081-2.498-2.442-.154-6.61-2.963-9.963-5.679-13.207-1.107-1.323-2.155-2.574-2.947-3.98-3.646-5.51-5.506-11.909-5.381-18.515l.193-10.135c.091-4.743 3.725-8.75 8.273-9.123 1.711-.137 3.411.214 4.907.993l.321-18.476c.045-2.351 1.085-4.586 2.854-6.135 1.763-1.542 4.118-2.271 6.441-2.006.823.094 1.609.314 2.342.641v-.691c.045-2.396 1.085-4.629 2.853-6.175 1.767-1.545 4.122-2.28 6.468-2.009 4.22.483 7.459 4.308 7.375 8.706l-.002.154c1.33-.57 2.801-.793 4.269-.625 4.218.484 7.457 4.308 7.375 8.706l-.009 1.069c1.327-.567 2.797-.79 4.261-.622 4.218.483 7.457 4.307 7.375 8.706l-.607 35.938c-.055 2.869-.554 5.695-1.482 8.407-.412 1.348-1.314 2.938-2.452 4.945-1.813 3.196-4.292 7.568-4.38 10.934l.042 1.688c.035 1.38-1.056 2.527-2.437 2.562-1.387.036-2.526-1.056-2.562-2.436l-.044-1.747c-.001-.037-.001-.074-.001-.11.089-4.642 2.83-9.474 5.032-13.357.917-1.617 1.783-3.144 2.024-3.957.01-.035.021-.069.033-.103.769-2.231 1.182-4.558 1.226-6.915l.607-35.938c.035-1.854-1.258-3.455-2.944-3.648-.962-.111-1.888.175-2.606.805-.721.63-1.127 1.503-1.145 2.458-.026 1.364-1.14 2.453-2.499 2.453-.012 0-.023 0-.034 0-1.375-.019-2.478-1.145-2.467-2.52l.068-8.679c.035-1.877-1.259-3.478-2.945-3.671-.964-.114-1.887.175-2.604.804-.721.63-1.128 1.504-1.146 2.46-.026 1.363-1.14 2.452-2.499 2.452-.012 0-.022 0-.033 0-1.375-.018-2.478-1.143-2.468-2.517l.054-7.761c.036-1.88-1.258-3.48-2.944-3.673-.962-.112-1.887.175-2.605.804-.721.63-1.128 1.504-1.146 2.46v8.003c0 1.339-1.056 2.441-2.394 2.498-1.326.07-2.483-.951-2.598-2.285-.145-1.704-1.373-3.069-2.919-3.246-.948-.107-1.866.175-2.58.8-.712.623-1.13 1.521-1.147 2.464l-.462 26.546v.004c-.026 1.364-1.141 2.453-2.499 2.453-.016 0-.031 0-.047 0-1.379-.025-2.478-1.163-2.454-2.543l.001-.022c.016-1.121-.448-2.208-1.276-2.985-.839-.789-1.93-1.171-3.083-1.078-2.022.166-3.641 2.025-3.682 4.234l-.193 10.135c-.107 5.615 1.482 11.055 4.598 15.731.038.058.074.117.107.177.564 1.021 1.441 2.068 2.456 3.281 2.807 3.351 6.649 7.939 6.844 16.301.032 1.38-1.061 2.525-2.441 2.558-.019.002-.039.002-.058.002z"/></g><g><path d="m41.39 167c-1.381 0-2.5-1.119-2.5-2.5v-9.784c0-2.302 1.873-4.175 4.175-4.175h40.333c2.302 0 4.175 1.873 4.175 4.175v9.659c0 1.381-1.119 2.5-2.5 2.5s-2.5-1.119-2.5-2.5v-8.833h-38.683v8.958c0 1.38-1.119 2.5-2.5 2.5z"/></g><g><path d="m86.495 256h-47.346c-2.396 0-4.347-1.951-4.347-4.349v-84.7c0-2.302 1.873-4.174 4.175-4.174h47.69c2.302 0 4.174 1.873 4.174 4.174v84.699c.001 2.399-1.949 4.35-4.346 4.35zm-46.692-5h46.039v-83.223h-46.039z"/></g></g></g></svg>