<svg enable-background="new 0 0 256 256" height="512" viewBox="0 0 256 256" width="512" xmlns="http://www.w3.org/2000/svg"><g id="Layer_17"><g><g><path d="m229.278 234.553h-202.556c-2.513 0-4.57 2.056-4.57 4.57v9.808c0 2.513 2.056 4.57 4.57 4.57h202.555c2.513 0 4.57-2.056 4.57-4.57v-9.808c0-2.514-2.056-4.57-4.569-4.57z" fill="#cbeff7"/></g><g><g><path d="m224.268 234.553v-3.438c0-3.881-3.176-7.057-7.057-7.057h-178.422c-3.881 0-7.057 3.176-7.057 7.057v3.438z" fill="#9be5f9"/></g></g><g><g><path d="m189.461 173.995c-38.254-21.353-55.422-44.845-61.461-54.912-6.039 10.068-23.208 33.559-61.461 54.912-2.487 1.389-5.629.498-7.018-1.99-1.389-2.487-.498-5.629 1.99-7.018 40.204-22.442 55.358-46.759 59.045-53.677 1.496-2.808 4.349-4.553 7.445-4.553s5.949 1.745 7.445 4.555c3.686 6.917 18.84 31.234 59.044 53.676 2.487 1.388 3.378 4.53 1.99 7.018-1.389 2.487-4.53 3.378-7.019 1.989z" fill="#cbeff7"/></g></g><g><g><path d="m188.347 173.361c-37.464-21.183-54.368-44.31-60.347-54.277-5.98 9.969-22.883 33.095-60.347 54.277v50.697h120.695v-50.697z" fill="#9be5f9"/></g></g><g><path d="m196.479 172.006c-1.388 2.487-4.529 3.379-7.018 1.99-.378-.211-.74-.423-1.114-.635v50.697h25.347v-59.053h-19.18c2.467 1.396 3.349 4.522 1.965 7.001z" fill="#cbeff7"/></g><g><path d="m67.653 224.058v-50.697c-.374.211-.736.424-1.114.635-2.487 1.389-5.629.498-7.018-1.99-1.384-2.478-.502-5.605 1.965-7h-19.18v59.053h25.347z" fill="#cbeff7"/></g><g><path d="m61.511 164.988c40.11-22.389 55.285-46.642 59.016-53.625h-90.711v48.079c0 3.072 2.491 5.563 5.563 5.563h26.107c.009-.005.016-.012.025-.017z" fill="#9be5f9"/></g><g><path d="m135.473 111.363c3.73 6.98 18.904 31.234 59.017 53.625.009.005.016.012.025.017h26.107c3.072 0 5.563-2.491 5.563-5.563v-48.079z" fill="#9be5f9"/></g><g><path d="m226.184 111.363v-17.2c0-2.139-1.734-3.873-3.873-3.873-1.584 0-2.995.965-3.593 2.431-1.065 2.61-3.465 6.543-8.49 7.744-2.95.705-5.699 2.078-8.199 3.797l-10.329 7.101z" fill="#70d6f9"/></g><g><path d="m29.816 111.363v-17.2c0-2.139 1.734-3.873 3.873-3.873 1.584 0 2.995.965 3.593 2.431 1.065 2.61 3.465 6.543 8.49 7.744 2.95.705 5.699 2.078 8.199 3.797l10.329 7.101c-12.904 0-21.82 0-34.484 0z" fill="#70d6f9"/></g><g><path d="m29.816 120.942h84.536c3.166-4.277 5.124-7.613 6.175-9.579h-90.711z" fill="#cbeff7"/></g><g><path d="m141.648 120.942h84.536v-9.579h-90.711c1.05 1.966 3.008 5.301 6.175 9.579z" fill="#cbeff7"/></g><g><path d="m183.439 73.363h-110.878c-1.432 0-2.592 1.16-2.592 2.592v4.395c0 1.432 1.16 2.592 2.592 2.592h110.877c1.432 0 2.592-1.16 2.592-2.592v-4.395c.001-1.431-1.16-2.592-2.591-2.592z" fill="#9be5f9"/></g><g><path d="m160.175 41.363h-64.35c-1.432 0-2.592 1.16-2.592 2.592v4.395c0 1.432 1.16 2.592 2.592 2.592h64.351c1.432 0 2.592-1.16 2.592-2.592v-4.395c-.001-1.431-1.161-2.592-2.593-2.592z" fill="#9be5f9"/></g><g><path d="m120.5 17.5h15v14h-15z" fill="#70d6f9"/></g><g><path d="m125.931 3.849-5.431 13.651h15l-5.431-13.651c-.793-1.799-3.345-1.799-4.138 0z" fill="#cbeff7"/></g><g><g><path d="m144.25 41.363v-5.397c0-2.466-1.999-4.466-4.466-4.466h-23.568c-2.466 0-4.466 1.999-4.466 4.466v5.397z" fill="#cbeff7"/></g></g><g><g><path d="m177.523 97.006c1.908-1.269 3.054-3.395 3.054-5.687v-8.377h-105.154v8.377c0 2.291 1.147 4.417 3.054 5.687 3.573 2.377 9.086 7.164 9.741 14.357h32.308c.009-.016.02-.036.028-.052 1.496-2.808 4.349-4.553 7.445-4.553s5.949 1.745 7.445 4.555c.008.016.019.035.028.051h32.309c.656-7.194 6.169-11.981 9.742-14.358z" fill="#70d6f9"/></g></g><g><path d="m155.388 62.005c1.632-1.085 2.612-2.904 2.612-4.864v-6.2h-60v6.2c0 1.96.981 3.778 2.612 4.864 2.9 1.929 7.285 5.719 8.205 11.358h38.365c.921-5.639 5.306-9.428 8.206-11.358z" fill="#70d6f9"/></g><g><path d="m132.071 165.939c-2.496-1.483-5.646-1.483-8.143 0-11.079 6.583-18.548 18.673-18.548 32.427v25.692h45.238v-25.692c.001-13.754-7.467-25.843-18.547-32.427z" fill="#70d6f9"/></g><g><path d="m132.648 195.562c-2.702-2.181-6.594-2.181-9.296 0-4.669 3.77-7.67 9.534-7.67 15.967v12.529h24.635v-12.529c0-6.433-3-12.197-7.669-15.967z" fill="#3caadc"/></g><g><path d="m237.35 72.2c-3.1-.6-5.6-3-6.2-6.1 0-.1-.3-.1-.3 0-.6 3.1-3.1 5.5-6.2 6.1-.1 0-.1.2 0 .3 3.1.6 5.6 3 6.2 6.1 0 .1.3.1.3 0 .6-3.1 3.1-5.5 6.2-6.1.1-.1.1-.3 0-.3z" fill="#87d147"/></g><g><path d="m172.9 26.9h2.3v2.3c0 1.8 1.4 3.2 3.2 3.2 1.7 0 3.2-1.4 3.2-3.1v-.1-2.3h2.3c1.8 0 3.2-1.4 3.2-3.2 0-1.7-1.4-3.2-3.1-3.2h-.1-2.3v-2.3c0-1.8-1.4-3.2-3.2-3.2-1.7 0-3.2 1.4-3.2 3.1v.1 2.3h-2.3c-1.8 0-3.2 1.4-3.2 3.2-.1 1.7 1.3 3.2 3.2 3.2-.1 0-.1 0 0 0z" fill="#70d6f9"/></g><g><circle cx="154.3" cy="3.4" fill="#fc657e" r="3.4"/></g><g><circle cx="25.3" cy="210.4" fill="#70d6f9" r="3.4"/></g><g><path d="m6.7 181.2c4.5-.8 8-4.3 8.9-8.7 0-.2.4-.2.4 0 .9 4.4 4.4 7.9 8.9 8.7.2 0 .2.3 0 .4-4.5.8-8 4.3-8.9 8.7 0 .2-.4.2-.4 0-.9-4.4-4.4-7.9-8.9-8.7-.2-.1-.2-.4 0-.4z" fill="#f5c84c"/></g><g><path d="m229.278 256h-202.556c-3.898 0-7.069-3.171-7.069-7.07v-9.808c0-3.898 3.171-7.069 7.069-7.069h202.556c3.898 0 7.069 3.171 7.069 7.069v9.808c0 3.899-3.171 7.07-7.069 7.07zm-202.556-18.947c-1.141 0-2.069.928-2.069 2.069v9.808c0 1.141.928 2.07 2.069 2.07h202.556c1.141 0 2.069-.929 2.069-2.07v-9.808c0-1.141-.928-2.069-2.069-2.069z"/></g><g><g><path d="m224.269 236.281c-1.381 0-2.5-1.119-2.5-2.5v-2.667c0-2.513-2.044-4.557-4.557-4.557h-178.423c-2.513 0-4.557 2.044-4.557 4.557v2.479c0 1.381-1.119 2.5-2.5 2.5s-2.5-1.119-2.5-2.5v-2.479c0-5.27 4.287-9.557 9.557-9.557h178.423c5.27 0 9.557 4.287 9.557 9.557v2.667c0 1.381-1.12 2.5-2.5 2.5z"/></g></g><g><g><path d="m64.036 177.153c-.701 0-1.406-.097-2.1-.294-1.968-.558-3.601-1.849-4.598-3.635s-1.239-3.853-.681-5.821 1.849-3.601 3.635-4.598c39.61-22.11 54.451-45.904 58.056-52.67 1.932-3.625 5.629-5.877 9.651-5.877s7.72 2.253 9.652 5.879c3.605 6.765 18.447 30.558 58.056 52.668 1.786.997 3.077 2.63 3.635 4.598s.316 4.036-.681 5.822c-.996 1.786-2.629 3.077-4.597 3.635-1.969.557-4.036.316-5.822-.681-12.541-7.001-42.74-25.741-60.251-52.409-7.38 11.107-25.061 32.775-60.234 52.409-1.156.645-2.432.974-3.721.974zm63.964-67.895c-2.17 0-4.178 1.237-5.238 3.229-3.768 7.07-19.231 31.909-60.032 54.685-.62.346-1.068.913-1.262 1.596s-.11 1.4.236 2.02c.346.621.913 1.068 1.596 1.262.683.193 1.4.109 2.02-.237 38.177-21.311 55.053-44.874 60.537-54.015.452-.753 1.266-1.214 2.144-1.214s1.692.461 2.144 1.214c5.483 9.142 22.36 32.705 60.536 54.015.62.346 1.337.43 2.021.236s1.25-.642 1.595-1.261c.346-.62.43-1.338.236-2.021-.193-.683-.642-1.25-1.261-1.596-40.801-22.775-56.264-47.613-60.032-54.683-1.062-1.992-3.07-3.23-5.24-3.23z"/></g></g><g><g><path d="m188.347 225.406c-1.381 0-2.5-1.119-2.5-2.5v-49.156c0-1.381 1.119-2.5 2.5-2.5s2.5 1.119 2.5 2.5v49.156c0 1.381-1.119 2.5-2.5 2.5z"/></g><g><path d="m67.653 225.708c-1.381 0-2.5-1.119-2.5-2.5v-49.562c0-1.381 1.119-2.5 2.5-2.5s2.5 1.119 2.5 2.5v49.562c0 1.381-1.119 2.5-2.5 2.5z"/></g></g><g><path d="m213.694 225.625c-1.381 0-2.5-1.119-2.5-2.5v-57.625c0-1.381 1.119-2.5 2.5-2.5s2.5 1.119 2.5 2.5v57.625c0 1.381-1.119 2.5-2.5 2.5z"/></g><g><path d="m42.306 225.719c-1.381 0-2.5-1.119-2.5-2.5v-57.344c0-1.381 1.119-2.5 2.5-2.5s2.5 1.119 2.5 2.5v57.344c0 1.381-1.119 2.5-2.5 2.5z"/></g><g><path d="m61.125 167.505h-25.746c-4.446 0-8.063-3.617-8.063-8.063v-48.079c0-1.381 1.119-2.5 2.5-2.5h90.137c1.381 0 2.5 1.119 2.5 2.5s-1.119 2.5-2.5 2.5h-87.637v45.579c0 1.689 1.374 3.063 3.063 3.063h25.746c1.381 0 2.5 1.119 2.5 2.5s-1.119 2.5-2.5 2.5z"/></g><g><path d="m220.621 167.505h-25.746c-1.381 0-2.5-1.119-2.5-2.5s1.119-2.5 2.5-2.5h25.746c1.689 0 3.063-1.374 3.063-3.063v-45.579h-87.793c-1.381 0-2.5-1.119-2.5-2.5s1.119-2.5 2.5-2.5h90.293c1.381 0 2.5 1.119 2.5 2.5v48.079c0 4.446-3.617 8.063-8.063 8.063z"/></g><g><path d="m226.184 113.863c-1.381 0-2.5-1.119-2.5-2.5v-17.2c0-.757-.616-1.373-1.373-1.373-.56 0-1.061.344-1.278.875-1.146 2.809-3.999 7.743-10.223 9.231-2.423.579-4.901 1.732-7.365 3.425l-9.956 6.845c-1.138.783-2.694.494-3.477-.644-.782-1.138-.494-2.694.644-3.477l9.957-6.845c2.972-2.043 6.011-3.445 9.034-4.168 3.85-.92 5.799-3.911 6.757-6.257.988-2.421 3.307-3.986 5.907-3.986 3.514 0 6.373 2.859 6.373 6.373v17.201c0 1.381-1.119 2.5-2.5 2.5z"/></g><g><path d="m29.816 113.863c-1.381 0-2.5-1.119-2.5-2.5v-17.2c0-3.514 2.859-6.373 6.373-6.373 2.601 0 4.919 1.565 5.908 3.987.958 2.346 2.907 5.336 6.756 6.257 3.023.723 6.062 2.125 9.034 4.168l9.968 6.853c1.138.782 1.426 2.339.644 3.477s-2.337 1.426-3.477.644l-9.968-6.853c-2.463-1.693-4.941-2.846-7.364-3.425-6.224-1.489-9.077-6.422-10.223-9.231-.217-.532-.719-.876-1.278-.876-.757 0-1.373.616-1.373 1.373v17.201c0 1.379-1.119 2.498-2.5 2.498z"/></g><g><path d="m113.625 123.442h-83.063c-1.381 0-2.5-1.119-2.5-2.5s1.119-2.5 2.5-2.5h83.063c1.381 0 2.5 1.119 2.5 2.5s-1.119 2.5-2.5 2.5z"/></g><g><path d="m225.354 123.442h-83.312c-1.381 0-2.5-1.119-2.5-2.5s1.119-2.5 2.5-2.5h83.312c1.381 0 2.5 1.119 2.5 2.5s-1.119 2.5-2.5 2.5z"/></g><g><path d="m183.438 85.442h-110.876c-2.808 0-5.092-2.284-5.092-5.092v-4.395c0-2.808 2.284-5.092 5.092-5.092h110.877c2.808 0 5.092 2.284 5.092 5.092v4.395c0 2.808-2.284 5.092-5.093 5.092zm-110.876-9.579c-.051 0-.092.041-.092.092v4.395c0 .051.042.092.092.092h110.877c.051 0 .092-.041.092-.092v-4.395c0-.051-.042-.092-.092-.092z"/></g><g><path d="m160.175 53.442h-64.35c-2.808 0-5.092-2.284-5.092-5.092v-4.395c0-2.808 2.284-5.092 5.092-5.092h64.351c2.808 0 5.092 2.284 5.092 5.092v4.395c0 2.808-2.285 5.092-5.093 5.092zm-64.35-9.579c-.051 0-.092.041-.092.092v4.395c0 .051.042.092.092.092h64.351c.051 0 .092-.041.092-.092v-4.395c0-.051-.042-.092-.092-.092z"/></g><g><path d="m120.5 33c-1.381 0-2.5-1.119-2.5-2.5v-13c0-1.381 1.119-2.5 2.5-2.5h15c1.381 0 2.5 1.119 2.5 2.5v12.917c0 1.381-1.119 2.5-2.5 2.5s-2.5-1.119-2.5-2.5v-10.417h-10v10.5c0 1.381-1.119 2.5-2.5 2.5z"/></g><g><path d="m135.501 20c-.994 0-1.934-.597-2.324-1.576l-5.178-13.016-5.176 13.016c-.51 1.282-1.961 1.909-3.247 1.398-1.283-.51-1.909-1.964-1.398-3.247l5.431-13.651c.807-1.836 2.476-2.924 4.391-2.924s3.584 1.088 4.356 2.839l5.466 13.736c.511 1.283-.116 2.737-1.398 3.247-.303.121-.616.178-.923.178z"/></g><g><g><path d="m144.25 43.229c-1.381 0-2.5-1.119-2.5-2.5v-4.764c0-1.084-.882-1.966-1.966-1.966h-23.568c-1.084 0-1.966.882-1.966 1.966v4.535c0 1.381-1.119 2.5-2.5 2.5s-2.5-1.119-2.5-2.5v-4.535c0-3.841 3.125-6.966 6.966-6.966h23.568c3.841 0 6.966 3.125 6.966 6.966v4.764c0 1.381-1.119 2.5-2.5 2.5z"/></g></g><g><g><path d="m167.909 112.86c-.129 0-.261-.01-.393-.031-1.364-.215-2.295-1.495-2.08-2.859 1.216-7.705 7.227-12.734 10.701-15.046 1.214-.808 1.939-2.155 1.939-3.605v-7.506c0-1.381 1.119-2.5 2.5-2.5s2.5 1.119 2.5 2.5v7.506c0 3.127-1.559 6.031-4.169 7.768-2.792 1.858-7.614 5.844-8.532 11.662-.194 1.232-1.257 2.111-2.466 2.111z"/></g><g><path d="m88.129 113.118c-1.227 0-2.297-.903-2.473-2.153-.833-5.931-5.724-9.988-8.564-11.878-2.611-1.737-4.169-4.641-4.169-7.768v-7.527c0-1.381 1.119-2.5 2.5-2.5s2.5 1.119 2.5 2.5v7.527c0 1.45.725 2.797 1.939 3.605 3.54 2.355 9.642 7.48 10.746 15.346.192 1.367-.761 2.631-2.128 2.823-.118.017-.235.025-.351.025z"/></g></g><g><path d="m147.332 75.106c-.181 0-.365-.02-.549-.061-1.347-.302-2.195-1.638-1.893-2.986 1.39-6.209 6.307-10.268 9.113-12.135.938-.624 1.497-1.664 1.497-2.782v-5.35c0-1.381 1.119-2.5 2.5-2.5s2.5 1.119 2.5 2.5v5.35c0 2.796-1.394 5.393-3.728 6.945-2.183 1.452-5.995 4.56-7.004 9.065-.26 1.163-1.292 1.954-2.436 1.954z"/></g><g><path d="m108.604 74.828c-1.123 0-2.144-.762-2.425-1.902-1.083-4.388-4.819-7.421-6.951-8.839-2.334-1.553-3.728-4.149-3.728-6.945v-5.298c0-1.381 1.119-2.5 2.5-2.5s2.5 1.119 2.5 2.5v5.298c0 1.119.56 2.159 1.497 2.782 3.342 2.223 7.623 6.076 9.036 11.805.331 1.34-.488 2.695-1.829 3.026-.201.05-.402.073-.6.073z"/></g><g><path d="m150.619 225.75c-1.381 0-2.5-1.119-2.5-2.5v-24.884c0-12.326-6.639-23.928-17.325-30.277-1.698-1.009-3.891-1.009-5.588 0-10.687 6.35-17.325 17.952-17.325 30.278v24.633c0 1.381-1.119 2.5-2.5 2.5s-2.5-1.119-2.5-2.5v-24.634c0-14.081 7.576-27.33 19.771-34.576 3.299-1.96 7.398-1.96 10.697 0 12.195 7.246 19.771 20.495 19.771 34.576v24.884c-.001 1.381-1.12 2.5-2.501 2.5z"/></g><g><path d="m115.683 225.75c-1.381 0-2.5-1.119-2.5-2.5v-11.721c0-6.972 3.134-13.5 8.599-17.913 3.603-2.908 8.834-2.909 12.437 0 5.465 4.412 8.599 10.941 8.599 17.913v11.502c0 1.381-1.119 2.5-2.5 2.5s-2.5-1.119-2.5-2.5v-11.502c0-5.453-2.457-10.564-6.74-14.022-1.783-1.439-4.372-1.44-6.155 0-4.283 3.458-6.74 8.569-6.74 14.022v11.721c0 1.381-1.12 2.5-2.5 2.5z"/></g></g></g></svg>