<svg enable-background="new 0 0 256 256" height="512" viewBox="0 0 256 256" width="512" xmlns="http://www.w3.org/2000/svg"><g id="Layer_24"><g><g><path d="m119.264 196.117c-.272-4.893-3.695-9.04-8.447-10.236l-15.362-3.867c-8.143-2.049-14.546-5.561-14.462-5.52-3.348-1.651-5.467-5.059-5.467-8.792v-4.618c-3.919 2.051-8.364 3.22-13.072 3.22-4.708 0-9.153-1.168-13.072-3.22v4.618c0 3.732-2.12 7.141-5.467 8.792-4.523 2.23-8.472 4.012-14.462 5.52l-15.362 3.867c-4.752 1.196-8.174 5.343-8.447 10.236l-3.137 54.097c-.099 1.784 1.321 3.286 3.108 3.286h113.68c1.787 0 3.207-1.502 3.108-3.286z" fill="#6cadef"/></g><g><path d="m86.774 103.992c-1.855-1.946-4.872-2.125-6.987-.465-3.344 2.625-9.13 5.869-17.303 5.869-8.192 0-14.009-3.26-17.367-5.888-2.113-1.654-5.124-1.468-6.976.474l-.01.01c-2.602 2.729-4.053 6.354-4.053 10.124v23.813c0 15.606 12.769 28.375 28.375 28.375 15.606 0 28.375-12.769 28.375-28.375v-23.813c-.001-3.769-1.452-7.395-4.054-10.124z" fill="#f9d0b4"/></g><g><path d="m62.453 179c5.853 0 11.373-1.499 16.196-4.131-1.959-1.826-3.124-4.405-3.124-7.166v-4.618c-3.919 2.051-8.364 3.22-13.072 3.22s-9.153-1.169-13.072-3.22v4.618c0 2.761-1.165 5.34-3.124 7.166 4.823 2.632 10.343 4.131 16.196 4.131z" fill="#f9d0b4"/></g><g><path d="m92.648 116.305c-.62 0-1.227.052-1.821.144v21.481c0 .64-.029 1.273-.071 1.903.618.099 1.247.165 1.892.165 6.543 0 11.847-5.304 11.847-11.847 0-6.542-5.304-11.846-11.847-11.846z" fill="#f9d0b4"/></g><g><path d="m34.078 137.93c0-2.94 0-15.636 0-21.481-.594-.092-1.201-.144-1.821-.144-6.543 0-11.847 5.304-11.847 11.847s5.304 11.847 11.847 11.847c.646 0 1.275-.066 1.892-.165-.041-.631-.071-1.264-.071-1.904z" fill="#f9d0b4"/></g><g><path d="m83.08 83.5h-41.254c-2.955 0-5.373-2.418-5.373-5.373v-2.255c0-2.955 2.418-5.373 5.373-5.373h41.254c2.955 0 5.373 2.418 5.373 5.373v2.255c0 2.955-2.418 5.373-5.373 5.373z" fill="#6cadef"/></g><g><path d="m87.957 80.345c-.85 1.853-2.714 3.155-4.877 3.155h-41.254c-2.163 0-4.027-1.302-4.877-3.155-6.582 5.782-10.759 14.245-10.759 23.642v14.004c1.777-1.063 3.847-1.686 6.068-1.686.62 0 1.227.052 1.821.144v-2.333c0-3.77 1.451-7.396 4.053-10.124l.01-.01c1.852-1.942 4.862-2.127 6.976-.474 3.358 2.628 9.175 5.888 17.367 5.888 8.172 0 13.959-3.244 17.303-5.869 2.115-1.66 5.132-1.481 6.987.465 2.602 2.729 4.053 6.354 4.053 10.124v2.333c.594-.092 1.201-.144 1.821-.144 2.221 0 4.292.622 6.068 1.686v-14.004c0-9.397-4.177-17.86-10.76-23.642z" fill="#5b5d60"/></g><g><g><path d="m51.438 58h22.029v12.5h-22.029z" fill="#5290db"/></g></g><g><path d="m56.893 58h11.119l5.42-26.423c.574-2.798-1.563-5.418-4.42-5.418h-13.12c-2.856 0-4.994 2.62-4.42 5.418z" fill="#5290db"/></g><g><path d="m68.453 253.5h-12l-4.405-37.765c-.317-2.791 1.866-5.235 4.674-5.235h11.462c2.809 0 4.991 2.445 4.674 5.235z" fill="#f5c84c"/></g><g><path d="m85.453 227.5h-13.967l-1.983 17h15.95z" fill="#f9d0b4"/></g><g><path d="m53.42 227.5h-13.967v17h15.95z" fill="#f9d0b4"/></g><g><g><path d="m251.393 192.526c-.102-1.83-.659-3.55-1.565-5.044l-20.072 14.827c.686 1.702.237 3.735-1.274 4.963l-5.562 4.524c-.02-.023-.032-.049-.052-.072-6.59-7.268-16.105-11.834-26.688-11.834s-20.098 4.566-26.689 11.834c-.02.022-.033.049-.052.072l-5.562-4.524c-1.51-1.229-1.96-3.261-1.274-4.964l-20.065-14.823c-.907 1.493-1.469 3.21-1.571 5.039l-2.102 57.772c-.097 1.738 1.287 3.201 3.028 3.201h108.575c1.741 0 3.125-1.463 3.028-3.201z" fill="#f98fa6"/></g></g><g><path d="m192.888 105.941c-5.741 6.614-14.039 10.952-23.314 11.452v16.798c0 13.949 10.525 25.937 24.429 27.058 15.603 1.259 28.781-11.165 28.781-26.517v-17.339c-9.275-.499-17.573-4.838-23.314-11.452-1.729-1.992-4.852-1.993-6.582 0z" fill="#f9d0b4"/></g><g><path d="m234.629 121.025c-1.145-2.541-3.811-4.044-6.583-3.753-1.141.12-2.299.181-3.47.181-.602 0-1.197-.028-1.791-.06v17.339c0 .6-.027 1.194-.067 1.784.579.093 1.169.155 1.774.155 6.135 0 11.108-4.973 11.108-11.108 0-1.618-.347-3.154-.971-4.538z" fill="#f9d0b4"/></g><g><path d="m169.574 134.732c0-3.362 0-12.396 0-17.339-.594.032-1.189.06-1.791.06-1.171 0-2.329-.061-3.47-.181-2.772-.291-5.438 1.212-6.583 3.753-.624 1.385-.971 2.92-.971 4.538 0 6.135 4.973 11.108 11.108 11.108.605 0 1.195-.062 1.774-.155-.039-.59-.067-1.184-.067-1.784z" fill="#f9d0b4"/></g><g><path d="m224.492 136.671c-.605 0-1.195-.062-1.774-.155-.625 9.315-6.094 17.358-13.9 21.606.005-.003.011-.005.016-.008v8.068c0 2.272 1.053 4.372 2.782 5.758l2.814-2.814c.806-.806 2.112-.806 2.918 0l4.705 4.705c.806.806.806 2.112 0 2.918l-.272.272c.773.285 1.56.529 2.36.73.402.102 5.394 1.361 9.248 2.334.506-1.51.791-3.118.791-4.793v-44.304c-1.903 3.39-5.525 5.683-9.688 5.683z" fill="#5b5d60"/></g><g><path d="m215.764 78.975c1.047 1.716 1.662 3.72 1.662 5.867v5.317c0 6.238-5.104 11.341-11.341 11.341h-19.81c-6.238 0-11.341-5.104-11.341-11.341v-5.317c0-2.146.615-4.151 1.662-5.867-11.014 6.674-18.416 18.776-18.416 32.525v8.71c1.304-2.038 3.674-3.196 6.133-2.938 1.141.12 2.299.181 3.47.181.602 0 1.197-.028 1.791-.06 9.275-.499 17.573-4.838 23.314-11.452 1.73-1.993 4.853-1.993 6.583 0 5.741 6.613 14.039 10.952 23.314 11.452.594.032 1.189.06 1.791.06 1.172 0 2.329-.061 3.47-.181 2.459-.258 4.829.9 6.133 2.938v-8.71c.001-13.749-7.401-25.852-18.415-32.525z" fill="#5b5d60"/></g><g><path d="m170.306 176.75c-.806-.806-.806-2.112 0-2.918l4.705-4.705c.806-.806 2.112-.806 2.918 0l2.814 2.814c1.729-1.386 2.782-3.486 2.782-5.758v-8.068l.005-.042c-7.741-4.288-13.08-12.37-13.853-21.57l-.036.014c-.579.093-1.169.155-1.774.155-4.163 0-7.785-2.293-9.688-5.682v44.304c0 1.674.285 3.283.791 4.793 3.985-1.006 9.19-2.32 9.248-2.335.8-.201 1.587-.445 2.36-.73z" fill="#5b5d60"/></g><g><path d="m206.084 101.5h-19.81c-6.238 0-11.341-5.104-11.341-11.341v-5.317c0-6.238 5.104-11.341 11.341-11.341h19.81c6.238 0 11.341 5.104 11.341 11.341v5.317c.001 6.237-5.103 11.341-11.341 11.341z" fill="#fcdd86"/></g><g><path d="m217.498 55.216c-2.276-1.229-5.116-.38-6.345 1.896l-8.847 16.388h3.779c2.178 0 4.21.633 5.942 1.708l7.368-13.646c1.228-2.276.379-5.117-1.897-6.346z" fill="#f5c84c"/></g><g><path d="m200.862 73.5v-20.476c0-2.586-2.096-4.683-4.683-4.683s-4.683 2.097-4.683 4.683v20.476z" fill="#f5c84c"/></g><g><path d="m186.275 73.5h3.779l-8.848-16.388c-1.229-2.276-4.069-3.125-6.345-1.896s-3.125 4.07-1.896 6.345l7.368 13.646c1.732-1.074 3.764-1.707 5.942-1.707z" fill="#f5c84c"/></g><g><path d="m170.579 177.022c-.773.285-1.56.529-2.36.73-.094.024-13.648 3.445-13.735 3.467l-5.288 1.335c-2.853.718-5.21 2.53-6.664 4.929l20.071 14.827c.183-.453.428-.888.776-1.272 5.076-5.597 11.563-9.889 18.9-12.315z" fill="#fc657e"/></g><g><path d="m243.164 182.554-5.288-1.335c-.496-.125-13.086-3.303-13.735-3.467-.8-.201-1.587-.445-2.36-.73l-11.7 11.7c7.337 2.426 13.824 6.718 18.9 12.315.348.384.594.819.776 1.272l20.072-14.827c-1.455-2.398-3.813-4.21-6.665-4.928z" fill="#fc657e"/></g><g><path d="m195.319 186.516c.288-.005.572-.023.861-.023s.573.018.861.023l14.576-14.576c-1.729-1.386-2.782-3.486-2.782-5.758v-8.068c-3.769 2.054-8.082 3.223-12.655 3.223s-8.886-1.169-12.655-3.223v8.068c0 2.272-1.053 4.372-2.782 5.758z" fill="#f9d0b4"/></g><g><path d="m211.056 173.942c-.632 0-1.264-.238-1.75-.715-1.916-1.878-2.972-4.381-2.972-7.045v-7.338c0-1.381 1.119-2.5 2.5-2.5s2.5 1.119 2.5 2.5v7.338c0 1.311.522 2.544 1.472 3.475.986.966 1.002 2.549.035 3.535-.489.5-1.138.75-1.785.75z"/></g><g><path d="m181.201 174.042c-.663 0-1.325-.263-1.817-.783-.948-1.004-.903-2.586.101-3.534.979-.924 1.54-2.215 1.54-3.542v-7.463c0-1.381 1.119-2.5 2.5-2.5s2.5 1.119 2.5 2.5v7.463c0 2.696-1.132 5.312-3.106 7.177-.484.455-1.102.682-1.718.682z"/></g><g><path d="m182.279 188.722c4.112-1.359 8.493-2.119 13.04-2.206l-17.39-17.39c-.806-.806-2.112-.806-2.918 0l-4.705 4.705c-.806.806-.806 2.112 0 2.918z" fill="#f5c84c"/></g><g><path d="m210.08 188.722 11.973-11.973c.806-.806.806-2.112 0-2.918l-4.705-4.705c-.806-.806-2.112-.806-2.918 0l-17.39 17.39c4.547.087 8.929.847 13.04 2.206z" fill="#f5c84c"/></g><g><g><path d="m186.559 233.718c0-2.35 1.526-4.323 3.634-5.039l-2.678-2.179h-14.365c.012.095.029.19.029.288v17.712h12.602c.044-.049.074-.105.123-.152l5.533-5.332c-2.729-.24-4.878-2.506-4.878-5.298z" fill="#f9d0b4"/></g></g><g><path d="m204.844 226.5-2.678 2.178c2.108.716 3.635 2.69 3.635 5.04 0 2.792-2.148 5.058-4.878 5.298l5.533 5.332c.049.047.079.103.123.152h12.602v-17.712c0-.099.017-.193.029-.288z" fill="#f9d0b4"/></g><g><g><path d="m200.456 239.063h-8.552c-2.952 0-5.345-2.393-5.345-5.345s2.393-5.345 5.345-5.345h8.552c2.952 0 5.345 2.393 5.345 5.345-.001 2.952-2.393 5.345-5.345 5.345z" fill="#dae6f1"/></g></g><g><path d="m200.922 239.016c-.156.014-.307.047-.466.047h-8.552c-.16 0-.311-.033-.467-.047l-5.533 5.332c-1.239 1.194-.883 3.281.694 3.968 2.987 1.301 6.214 2.012 9.582 2.012s6.595-.711 9.582-2.012c1.577-.687 1.932-2.774.694-3.968z" fill="#f5c84c"/></g><g><path d="m191.904 228.373h8.552c.602 0 1.17.122 1.71.305l26.317-21.406c1.913-1.556 2.154-4.409.498-6.236-8.1-8.932-19.793-14.544-32.8-14.544-13.008 0-24.701 5.612-32.801 14.544-1.656 1.826-1.415 4.68.498 6.236l26.317 21.406c.538-.183 1.107-.305 1.709-.305z" fill="#f5c84c"/></g><g><path d="m228.98 201.037c-8.1-8.932-19.793-14.544-32.8-14.544-13.008 0-24.701 5.612-32.801 14.544-1.656 1.826-1.415 4.68.498 6.236l5.562 4.524c.02-.023.032-.049.052-.072 6.59-7.268 16.105-11.834 26.689-11.834s20.098 4.566 26.688 11.834c.02.022.033.049.052.072l5.562-4.524c1.913-1.556 2.154-4.409.498-6.236z" fill="#fca265"/></g><g><path d="m246.925 64.2c-3.1-.6-5.6-3-6.2-6.1 0-.1-.3-.1-.3 0-.6 3.1-3.1 5.5-6.2 6.1-.1 0-.1.2 0 .3 3.1.6 5.6 3 6.2 6.1 0 .1.3.1.3 0 .6-3.1 3.1-5.5 6.2-6.1.1-.1.1-.3 0-.3z" fill="#87d147"/></g><g><path d="m130.9 152.9h2.3v2.3c0 1.8 1.4 3.2 3.2 3.2 1.7 0 3.2-1.4 3.2-3.1v-.1-2.3h2.3c1.8 0 3.2-1.4 3.2-3.2 0-1.7-1.4-3.2-3.1-3.2h-.1-2.3v-2.3c0-1.8-1.4-3.2-3.2-3.2-1.7 0-3.2 1.4-3.2 3.1v.1 2.3h-2.3c-1.8 0-3.2 1.4-3.2 3.2-.1 1.7 1.3 3.2 3.2 3.2-.1 0-.1 0 0 0z" fill="#70d6f9"/></g><g><circle cx="112.3" cy="165.6" fill="#f5c84c" r="3.4"/></g><g><circle cx="136.3" cy="3.4" fill="#fc657e" r="3.4"/></g><g><path d="m95.7 28.2c4.5-.8 8-4.3 8.9-8.7 0-.2.4-.2.4 0 .9 4.4 4.4 7.9 8.9 8.7.2 0 .2.3 0 .4-4.5.8-8 4.3-8.9 8.7 0 .2-.4.2-.4 0-.9-4.4-4.4-7.9-8.9-8.7-.2-.1-.2-.4 0-.4z" fill="#f5c84c"/></g><g><g><path d="m250.467 256h-108.575c-1.515 0-2.979-.631-4.021-1.731-1.04-1.101-1.588-2.599-1.503-4.11l2.1-57.723c.124-2.223.791-4.366 1.933-6.246.717-1.181 2.255-1.555 3.434-.84 1.181.716 1.557 2.254.84 3.434-.717 1.182-1.136 2.524-1.212 3.882l-2.1 57.724c-.013.238.07.368.143.444.071.076.197.167.387.167h108.575c.189 0 .315-.091.388-.167.071-.076.155-.206.145-.396l-2.104-57.82c-.074-1.317-.491-2.662-1.204-3.839-.716-1.181-.339-2.718.842-3.434 1.182-.714 2.719-.338 3.434.843 1.137 1.876 1.802 4.02 1.923 6.201l2.104 57.82c.082 1.463-.467 2.961-1.507 4.061-1.043 1.099-2.509 1.73-4.022 1.73z"/></g></g><g><path d="m196.18 150.103c-3.83 0-7.434-1.572-9.64-4.204-.887-1.058-.748-2.635.311-3.522 1.058-.887 2.636-.748 3.521.31 1.268 1.513 3.439 2.416 5.808 2.416s4.54-.903 5.808-2.416c.889-1.059 2.464-1.196 3.522-.31 1.058.887 1.196 2.464.31 3.522-2.208 2.632-5.811 4.204-9.64 4.204z"/></g><g><circle cx="207.755" cy="128.638" r="3.447"/></g><g><circle cx="184.605" cy="128.638" r="3.447"/></g><g><path d="m196.217 163.838c-.801 0-1.605-.032-2.414-.098-14.988-1.208-26.729-14.188-26.729-29.55v-16.798c0-1.329 1.039-2.425 2.365-2.497 8.242-.443 16.101-4.305 21.561-10.594 1.3-1.497 3.188-2.355 5.18-2.355 1.992 0 3.88.859 5.179 2.356 5.46 6.289 13.318 10.15 21.562 10.594 1.326.072 2.365 1.168 2.365 2.497v17.339c0 8.074-3.427 15.866-9.403 21.379-5.452 5.03-12.361 7.727-19.666 7.727zm-24.143-44.157v14.51c0 12.775 9.721 23.565 22.131 24.566 6.78.543 13.276-1.698 18.287-6.321 4.952-4.569 7.793-11.022 7.793-17.704v-15.051c-8.713-1.068-16.883-5.397-22.702-12.101-.479-.551-1.085-.633-1.403-.633-.319 0-.926.083-1.404.634-5.82 6.702-13.99 11.032-22.702 12.1z"/></g><g><path d="m224.492 139.171c-.453 0-.906-.026-1.386-.079-1.372-.153-2.361-1.389-2.208-2.761.151-1.372 1.379-2.363 2.761-2.208.273.031.551.049.833.049 4.747 0 8.608-3.861 8.608-8.608 0-1.224-.253-2.405-.751-3.511-.699-1.553-2.323-2.478-4.043-2.294-1.875.197-3.792.231-5.657.131-1.379-.075-2.436-1.253-2.36-2.631.074-1.379 1.227-2.448 2.632-2.361 1.605.088 3.255.059 4.864-.111 3.87-.408 7.536 1.689 9.123 5.212.791 1.755 1.192 3.628 1.192 5.565.001 7.502-6.104 13.607-13.608 13.607z"/></g><g><path d="m167.867 139.171c-7.504 0-13.608-6.104-13.608-13.608 0-1.938.401-3.81 1.192-5.565 1.588-3.523 5.268-5.615 9.123-5.212 1.609.169 3.26.199 4.864.111 1.384-.097 2.557.982 2.632 2.361s-.981 2.557-2.36 2.631c-1.864.101-3.783.066-5.657-.131-1.724-.183-3.345.741-4.043 2.293-.498 1.106-.751 2.287-.751 3.511 0 4.747 3.861 8.608 8.608 8.608.21 0 .417-.01.622-.028 1.381-.119 2.588.9 2.706 2.275.119 1.376-.899 2.587-2.274 2.707-.348.031-.699.047-1.054.047z"/></g><g><path d="m233.65 181.729c-.219 0-.439-.028-.66-.089-1.332-.363-2.117-1.738-1.754-3.07.294-1.078.443-2.18.443-3.277v-44.059c0-1.381 1.119-2.5 2.5-2.5s2.5 1.119 2.5 2.5v44.059c0 1.542-.208 3.086-.619 4.593-.303 1.112-1.311 1.843-2.41 1.843z"/></g><g><path d="m158.18 122.219c-1.381 0-2.5-1.119-2.5-2.5v-8.219c0-14.123 7.228-27.015 19.333-34.488 1.175-.724 2.716-.361 3.44.814.726 1.175.361 2.715-.813 3.44-10.62 6.555-16.96 17.857-16.96 30.233v8.219c0 1.382-1.119 2.501-2.5 2.501z"/></g><g><path d="m234.18 122.281c-1.381 0-2.5-1.119-2.5-2.5v-8.281c0-12.302-6.283-23.568-16.807-30.138-1.171-.731-1.527-2.273-.797-3.444.732-1.172 2.274-1.528 3.445-.797 11.996 7.489 19.158 20.341 19.158 34.379v8.281c.001 1.381-1.118 2.5-2.499 2.5z"/></g><g><path d="m158.834 182.161c-1.072 0-2.063-.695-2.391-1.774-.507-1.667-.764-3.38-.764-5.093v-43.996c0-1.381 1.119-2.5 2.5-2.5s2.5 1.119 2.5 2.5v43.996c0 1.22.185 2.445.547 3.64.401 1.321-.344 2.717-1.665 3.119-.242.073-.486.108-.727.108z"/></g><g><path d="m212.445 76.93c-.401 0-.808-.097-1.186-.301-1.215-.656-1.668-2.172-1.013-3.387l6.947-12.868c.277-.513.338-1.104.171-1.662s-.541-1.019-1.055-1.295c-.513-.277-1.104-.338-1.661-.171-.559.167-1.02.542-1.296 1.054l-8.485 15.717c-.657 1.215-2.173 1.667-3.388 1.012-1.215-.656-1.668-2.172-1.013-3.387l8.485-15.717c.912-1.688 2.426-2.92 4.264-3.47 1.841-.55 3.782-.35 5.47.562s2.92 2.425 3.47 4.264c.549 1.838.35 3.78-.562 5.469l-6.947 12.868c-.451.837-1.312 1.312-2.201 1.312z"/></g><g><path d="m200.862 75.208c-1.381 0-2.5-1.119-2.5-2.5v-19.684c0-1.204-.979-2.183-2.183-2.183s-2.183.979-2.183 2.183v19.643c0 1.381-1.119 2.5-2.5 2.5s-2.5-1.119-2.5-2.5v-19.643c0-3.96 3.222-7.183 7.183-7.183s7.183 3.222 7.183 7.183v19.685c0 1.38-1.119 2.499-2.5 2.499z"/></g><g><path d="m179.885 76.875c-.889 0-1.75-.476-2.202-1.313l-6.918-12.813c-1.881-3.485-.576-7.851 2.908-9.732 3.485-1.881 7.852-.577 9.733 2.908l8.421 15.597c.655 1.215.202 2.731-1.013 3.387-1.213.656-2.732.203-3.388-1.012l-8.42-15.597c-.57-1.058-1.897-1.455-2.958-.884-1.059.572-1.455 1.899-.883 2.958l6.918 12.813c.655 1.215.202 2.731-1.013 3.387-.377.204-.784.301-1.185.301z"/></g><g><path d="m196.18 91c-1.381 0-2.5-1.119-2.5-2.5v-5c0-1.381 1.119-2.5 2.5-2.5s2.5 1.119 2.5 2.5v5c0 1.381-1.119 2.5-2.5 2.5z"/></g><g><path d="m173.18 255c-1.381 0-2.5-1.119-2.5-2.5v-25.5h-13.5c-1.381 0-2.5-1.119-2.5-2.5s1.119-2.5 2.5-2.5h13.712c2.641 0 4.788 2.148 4.788 4.789v25.711c0 1.381-1.119 2.5-2.5 2.5zm-2.288-28h.01z"/></g><g><path d="m219.18 255c-1.381 0-2.5-1.119-2.5-2.5v-25.711c0-2.641 2.147-4.789 4.788-4.789h13.712c1.381 0 2.5 1.119 2.5 2.5s-1.119 2.5-2.5 2.5h-13.5v25.5c0 1.381-1.119 2.5-2.5 2.5z"/></g><g><path d="m119.293 256h-113.68c-1.536 0-3.022-.64-4.078-1.756s-1.612-2.635-1.526-4.168l3.137-54.103c.336-6.013 4.489-11.044 10.333-12.516l15.362-3.867c5.935-1.494 9.836-3.301 13.967-5.338 2.513-1.239 4.073-3.749 4.073-6.549v-4.203c0-1.381 1.119-2.5 2.5-2.5s2.5 1.119 2.5 2.5v4.203c0 4.719-2.629 8.946-6.862 11.034-4.391 2.165-8.547 4.089-14.957 5.702l-15.362 3.867c-3.711.934-6.348 4.129-6.562 7.951l-3.137 54.102c-.012.212.084.362.166.449.083.088.228.192.446.192h113.68c.218 0 .362-.104.445-.191.082-.087.178-.237.166-.455l-3.137-54.092c-.213-3.827-2.85-7.021-6.561-7.956l-15.362-3.867c-4.343-1.093-8.187-2.589-10.646-3.651-2.355-1.018-3.686-1.642-4.456-2.124-4.147-2.111-6.717-6.296-6.717-10.961v-4.286c0-1.381 1.119-2.5 2.5-2.5s2.5 1.119 2.5 2.5v4.286c0 2.801 1.561 5.311 4.072 6.549.044.021.087.044.13.068.312.169 6.321 3.378 13.838 5.27l15.362 3.867c5.845 1.471 9.997 6.503 10.332 12.521l3.137 54.092c.086 1.539-.471 3.058-1.526 4.174s-2.541 1.756-4.077 1.756z"/></g><g><path d="m62.453 168.805c-17.024 0-30.875-13.85-30.875-30.875v-23.813c0-4.432 1.685-8.64 4.744-11.85 2.748-2.882 7.188-3.19 10.336-.727 3.123 2.444 8.403 5.357 15.826 5.357 7.406 0 12.658-2.901 15.759-5.336 3.153-2.474 7.597-2.17 10.34.706 3.06 3.208 4.744 7.417 4.744 11.85v23.813c0 17.025-13.849 30.875-30.874 30.875zm-20.578-63.92c-.707 0-1.404.277-1.924.822-2.179 2.285-3.373 5.268-3.373 8.409v23.813c0 14.267 11.607 25.875 25.875 25.875 14.267 0 25.874-11.607 25.874-25.875v-23.813c0-3.142-1.194-6.125-3.363-8.399-.956-1.002-2.517-1.099-3.633-.223-3.722 2.921-10.012 6.403-18.847 6.403-8.847 0-15.165-3.491-18.908-6.419-.507-.397-1.107-.593-1.701-.593z"/></g><g><path d="m92.648 142.499c-.441 0-.876-.025-1.306-.067-1.374-.137-2.377-1.361-2.24-2.735s1.37-2.377 2.734-2.24c.268.027.538.043.812.043 5.153 0 9.347-4.193 9.347-9.347s-4.193-9.347-9.347-9.347c-.24 0-.479.01-.714.029-1.376.117-2.582-.914-2.693-2.29s.914-2.582 2.291-2.693c.368-.03.739-.045 1.116-.045 7.911 0 14.347 6.436 14.347 14.347s-6.435 14.345-14.347 14.345z"/></g><g><path d="m32.258 142.499c-7.911 0-14.347-6.436-14.347-14.347s6.436-14.347 14.347-14.347c.49 0 .991.027 1.488.08 1.372.147 2.366 1.379 2.219 2.752-.146 1.373-1.373 2.365-2.752 2.22-.313-.034-.632-.052-.955-.052-5.153 0-9.347 4.193-9.347 9.347s4.193 9.347 9.347 9.347c.245 0 .488-.013.728-.035 1.389-.12 2.593.887 2.718 2.262.126 1.375-.886 2.592-2.261 2.718-.39.035-.786.055-1.185.055z"/></g><g><path d="m62.865 151.219c-3.815 0-7.405-1.566-9.604-4.188-.887-1.058-.748-2.635.311-3.522 1.058-.887 2.636-.748 3.521.31 1.26 1.503 3.417 2.4 5.771 2.4s4.512-.897 5.771-2.4c.887-1.059 2.466-1.196 3.521-.31 1.059.887 1.197 2.464.311 3.522-2.196 2.622-5.786 4.188-9.602 4.188z"/></g><g><circle cx="75.667" cy="129.461" r="3.812"/></g><g><circle cx="50.064" cy="129.461" r="3.812"/></g><g><path d="m83.08 86h-41.255c-4.341 0-7.872-3.532-7.872-7.873v-2.255c0-4.341 3.531-7.873 7.872-7.873h41.255c4.341 0 7.873 3.532 7.873 7.873v2.255c0 4.341-3.532 7.873-7.873 7.873zm-41.255-13c-1.584 0-2.872 1.289-2.872 2.873v2.255c0 1.584 1.288 2.873 2.872 2.873h41.255c1.584 0 2.873-1.289 2.873-2.873v-2.255c0-1.584-1.289-2.873-2.873-2.873z"/></g><g><path d="m98.717 119.667c-1.381 0-2.5-1.119-2.5-2.5v-13.181c0-8.067-3.445-15.85-9.451-21.353-1.019-.933-1.088-2.514-.155-3.532.933-1.017 2.515-1.088 3.532-.154 7.038 6.447 11.074 15.574 11.074 25.04v13.181c0 1.38-1.119 2.499-2.5 2.499z"/></g><g><path d="m26.189 119.969c-1.381 0-2.5-1.119-2.5-2.5v-13.482c0-9.466 4.036-18.593 11.074-25.04 1.019-.933 2.601-.862 3.532.154.933 1.018.863 2.6-.155 3.532-6.006 5.503-9.451 13.286-9.451 21.354v13.482c0 1.381-1.119 2.5-2.5 2.5z"/></g><g><path d="m81.453 60.5h-38c-1.381 0-2.5-1.119-2.5-2.5s1.119-2.5 2.5-2.5h38c1.381 0 2.5 1.119 2.5 2.5s-1.119 2.5-2.5 2.5z"/></g><g><g><path d="m73.467 71.958c-1.381 0-2.5-1.119-2.5-2.5v-10.583c0-1.381 1.119-2.5 2.5-2.5s2.5 1.119 2.5 2.5v10.583c0 1.381-1.119 2.5-2.5 2.5z"/></g><g><path d="m51.438 71.958c-1.381 0-2.5-1.119-2.5-2.5v-10.583c0-1.381 1.119-2.5 2.5-2.5s2.5 1.119 2.5 2.5v10.583c0 1.381-1.119 2.5-2.5 2.5z"/></g></g><g><path d="m68.258 59.317c-.167 0-.336-.017-.505-.051-1.353-.278-2.225-1.599-1.947-2.952l5.178-25.239c.167-.814-.187-1.399-.412-1.676s-.728-.74-1.559-.74h-13.12c-.831 0-1.333.464-1.559.74s-.578.861-.411 1.675l5.171 25.211c.277 1.353-.595 2.674-1.947 2.952-1.347.276-2.673-.594-2.951-1.947l-5.172-25.21c-.425-2.072.098-4.201 1.436-5.84 1.337-1.64 3.317-2.58 5.433-2.58h13.12c2.115 0 4.096.94 5.433 2.579 1.338 1.639 1.861 3.768 1.437 5.841l-5.178 25.24c-.244 1.182-1.285 1.997-2.447 1.997z"/></g><g><path d="m39.453 255c-1.381 0-2.5-1.119-2.5-2.5v-25.5h-13.5c-1.381 0-2.5-1.119-2.5-2.5s1.119-2.5 2.5-2.5h13.711c2.641 0 4.789 2.148 4.789 4.789v25.711c0 1.381-1.119 2.5-2.5 2.5zm-2.289-28h.01z"/></g><g><path d="m85.453 255c-1.381 0-2.5-1.119-2.5-2.5v-25.711c0-2.641 2.147-4.789 4.788-4.789h13.712c1.381 0 2.5 1.119 2.5 2.5s-1.119 2.5-2.5 2.5h-13.5v25.5c0 1.381-1.119 2.5-2.5 2.5z"/></g><g><path d="m78.963 194.929c-2.757 0-5.392-1.143-7.303-3.224l-10.978-11.006c-.686-.688-.911-1.71-.578-2.622s1.163-1.549 2.131-1.634l15.844-1.388c3.444-.325 6.763 1.141 8.857 3.914 2.095 2.774 2.594 6.364 1.335 9.604-1.258 3.24-4.05 5.552-7.468 6.185-.615.115-1.23.171-1.84.171zm-10.961-13.972 7.237 7.256c.027.028.055.057.081.086 1.18 1.301 2.843 1.867 4.573 1.543 1.727-.32 3.082-1.442 3.718-3.079.636-1.637.394-3.379-.665-4.781-1.058-1.401-2.66-2.116-4.417-1.948zm17.939 6.711h.01z"/></g><g><path d="m45.942 194.929c-.61 0-1.227-.056-1.842-.17-3.417-.633-6.208-2.945-7.466-6.185-1.259-3.241-.76-6.831 1.335-9.605 2.095-2.773 5.413-4.235 8.871-3.913l15.83 1.387c.968.084 1.798.722 2.131 1.634s.107 1.935-.578 2.622l-10.978 11.006c-1.91 2.082-4.546 3.223-7.303 3.224zm-.05-14.917c-1.565 0-2.975.702-3.932 1.97-1.059 1.401-1.301 3.144-.665 4.781.636 1.637 1.99 2.759 3.717 3.079 1.729.318 3.395-.243 4.574-1.543.026-.029.054-.058.081-.086l7.237-7.256-10.514-.921c-.167-.016-.334-.024-.498-.024z"/></g><g><path d="m69.844 205c-1.083 0-2.081-.709-2.399-1.801l-5.783-19.84c-.386-1.326.375-2.713 1.701-3.1 1.324-.387 2.713.375 3.1 1.7l5.783 19.84c.386 1.326-.375 2.713-1.701 3.1-.234.069-.47.101-.701.101z"/></g><g><path d="m55.062 205c-.231 0-.467-.032-.7-.101-1.326-.386-2.087-1.774-1.701-3.1l5.783-19.84c.387-1.325 1.774-2.087 3.1-1.7 1.326.386 2.087 1.774 1.701 3.1l-5.783 19.84c-.318 1.093-1.316 1.801-2.4 1.801z"/></g><g><path d="m161.868 204.269c-.517 0-1.036-.159-1.483-.489l-19.339-14.286c-1.04-.768-1.322-2.202-.652-3.307 1.843-3.04 4.752-5.191 8.191-6.057l5.286-1.334c.087-.022 13.647-3.445 13.741-3.468.561-.142 1.123-.309 1.665-.496 1.307-.451 2.729.245 3.178 1.55.45 1.305-.244 2.728-1.549 3.178-.676.232-1.374.44-2.076.617-.17.043-13.646 3.444-13.734 3.467l-5.288 1.335c-1.411.355-2.679 1.055-3.711 2.03l17.259 12.75c1.11.82 1.346 2.386.525 3.496-.49.662-1.246 1.014-2.013 1.014z"/></g><g><path d="m230.086 204.568c-.767 0-1.522-.351-2.013-1.015-.82-1.11-.585-2.676.525-3.496l17.664-13.049c-1.032-.975-2.3-1.675-3.71-2.03l-19.023-4.802c-.668-.168-1.337-.366-1.988-.587-1.308-.444-2.008-1.864-1.563-3.171.444-1.307 1.862-2.005 3.171-1.563.525.178 1.064.337 1.604.473l19.023 4.802c3.438.865 6.348 3.017 8.19 6.057.67 1.105.388 2.539-.652 3.307l-19.744 14.585c-.448.33-.968.489-1.484.489z"/></g><g><path d="m181.423 190.366c-.64 0-1.279-.244-1.768-.732l-11.117-11.116c-.862-.862-1.337-2.008-1.337-3.227s.475-2.365 1.337-3.227l4.706-4.706c.861-.861 2.008-1.336 3.226-1.336 1.219 0 2.365.475 3.227 1.336l16.786 16.786c.977.976.977 2.559 0 3.535-.977.977-2.559.977-3.535 0l-16.478-16.477-4.087 4.087 10.808 10.807c.977.977.977 2.56 0 3.536-.489.49-1.128.734-1.768.734z"/></g><g><path d="m210.672 190.63c-.64 0-1.279-.244-1.768-.732-.977-.976-.977-2.559 0-3.535l11.071-11.072-4.087-4.087-16.447 16.447c-.977.977-2.559.977-3.535 0-.977-.976-.977-2.559 0-3.535l16.756-16.756c1.779-1.779 4.674-1.779 6.453 0l4.705 4.706c.862.862 1.337 2.007 1.337 3.227 0 1.219-.475 2.364-1.337 3.226l-11.381 11.381c-.488.486-1.127.73-1.767.73z"/></g><g><g><path d="m185.158 247h-10.991c-1.381 0-2.5-1.119-2.5-2.5s1.119-2.5 2.5-2.5h10.991c1.381 0 2.5 1.119 2.5 2.5s-1.119 2.5-2.5 2.5z"/></g><g><path d="m186.917 229h-12.75c-1.381 0-2.5-1.119-2.5-2.5s1.119-2.5 2.5-2.5h12.75c1.381 0 2.5 1.119 2.5 2.5s-1.119 2.5-2.5 2.5z"/></g><g><path d="m218.375 247h-11.175c-1.381 0-2.5-1.119-2.5-2.5s1.119-2.5 2.5-2.5h11.175c1.381 0 2.5 1.119 2.5 2.5s-1.119 2.5-2.5 2.5z"/></g><g><path d="m218.594 229h-12.794c-1.381 0-2.5-1.119-2.5-2.5s1.119-2.5 2.5-2.5h12.794c1.381 0 2.5 1.119 2.5 2.5s-1.119 2.5-2.5 2.5z"/></g></g><g><g><path d="m200.456 241.563h-8.552c-4.325 0-7.845-3.519-7.845-7.845s3.52-7.845 7.845-7.845h8.552c4.325 0 7.845 3.519 7.845 7.845s-3.52 7.845-7.845 7.845zm-8.552-10.689c-1.568 0-2.845 1.276-2.845 2.845s1.276 2.845 2.845 2.845h8.552c1.568 0 2.845-1.276 2.845-2.845s-1.276-2.845-2.845-2.845z"/></g></g><g><path d="m196.18 252.828c-3.64 0-7.199-.747-10.58-2.22-1.502-.654-2.571-2.01-2.862-3.628-.293-1.629.242-3.286 1.433-4.433l4.958-4.777c.993-.958 2.578-.928 3.534.065.958.995.929 2.577-.065 3.535l-4.882 4.705c5.423 2.326 11.503 2.327 16.93 0l-4.891-4.713c-.994-.958-1.023-2.541-.065-3.535.957-.994 2.542-1.022 3.534-.065l4.967 4.786c1.189 1.146 1.726 2.803 1.433 4.432-.291 1.618-1.36 2.975-2.861 3.629-3.386 1.472-6.946 2.219-10.583 2.219z"/></g><g><path d="m189.474 230.595c-.554 0-1.112-.184-1.575-.561l-25.599-20.822c-1.45-1.179-2.363-2.925-2.505-4.791-.143-1.877.473-3.675 1.732-5.064 8.854-9.764 21.484-15.364 34.652-15.364s25.798 5.6 34.652 15.365c1.26 1.39 1.874 3.188 1.731 5.065-.142 1.864-1.054 3.61-2.503 4.79l-25.482 20.726c-1.07.871-2.646.708-3.517-.362-.871-1.071-.709-2.646.362-3.517l25.481-20.726c.396-.322.634-.78.673-1.29.038-.495-.122-.966-.45-1.328-7.908-8.721-19.188-13.723-30.948-13.723s-23.04 5.002-30.949 13.723c-.327.362-.487.833-.45 1.328.039.509.278.967.674 1.29l25.599 20.822c1.071.871 1.233 2.446.362 3.517-.493.607-1.214.922-1.94.922z"/></g><g><path d="m169.849 213.835c-.61 0-1.224-.223-1.705-.673-1.01-.942-1.063-2.524-.121-3.533 7.263-7.778 17.525-12.238 28.157-12.238 10.631 0 20.893 4.46 28.155 12.236.942 1.009.889 2.591-.121 3.534-1.009.944-2.592.887-3.533-.121-6.413-6.868-15.114-10.649-24.501-10.649s-18.089 3.782-24.503 10.65c-.492.528-1.159.794-1.828.794z"/></g><g><path d="m68.572 255.001c-.097 0-.194-.005-.293-.017-1.371-.16-2.354-1.401-2.193-2.773l4.288-36.766c.071-.625-.122-1.235-.546-1.709-.424-.475-1.008-.736-1.644-.736h-11.462c-.637 0-1.221.261-1.645.736s-.617 1.084-.545 1.716l4.287 36.757c.16 1.372-.822 2.613-2.193 2.773-1.377.156-2.613-.823-2.773-2.194l-4.288-36.764c-.232-2.044.418-4.089 1.783-5.619s3.324-2.405 5.374-2.405h11.462c2.05 0 4.009.877 5.374 2.406s2.016 3.575 1.784 5.612l-4.289 36.772c-.149 1.273-1.23 2.211-2.481 2.211z"/></g><g><path d="m84.562 247h-14.27c-1.381 0-2.5-1.119-2.5-2.5s1.119-2.5 2.5-2.5h14.27c1.381 0 2.5 1.119 2.5 2.5s-1.119 2.5-2.5 2.5z"/></g><g><path d="m84.5 230h-12.458c-1.381 0-2.5-1.119-2.5-2.5s1.119-2.5 2.5-2.5h12.458c1.381 0 2.5 1.119 2.5 2.5s-1.119 2.5-2.5 2.5z"/></g><g><path d="m54.625 247h-14.437c-1.381 0-2.5-1.119-2.5-2.5s1.119-2.5 2.5-2.5h14.437c1.381 0 2.5 1.119 2.5 2.5s-1.119 2.5-2.5 2.5z"/></g><g><path d="m52.813 230h-12.688c-1.381 0-2.5-1.119-2.5-2.5s1.119-2.5 2.5-2.5h12.688c1.381 0 2.5 1.119 2.5 2.5s-1.119 2.5-2.5 2.5z"/></g><g><path d="m206.084 104h-19.81c-7.632 0-13.841-6.209-13.841-13.841v-5.317c0-7.632 6.209-13.841 13.841-13.841h19.81c7.633 0 13.842 6.209 13.842 13.841v5.317c0 7.632-6.209 13.841-13.842 13.841zm-19.81-28c-4.875 0-8.841 3.966-8.841 8.841v5.317c0 4.875 3.966 8.841 8.841 8.841h19.81c4.875 0 8.842-3.966 8.842-8.841v-5.317c0-4.875-3.967-8.841-8.842-8.841z"/></g><g><path d="m216.198 92h-40.573c-1.381 0-2.5-1.119-2.5-2.5s1.119-2.5 2.5-2.5h40.573c1.381 0 2.5 1.119 2.5 2.5s-1.119 2.5-2.5 2.5z"/></g></g></g></svg>