<svg enable-background="new 0 0 256 256" height="512" viewBox="0 0 256 256" width="512" xmlns="http://www.w3.org/2000/svg"><g id="Layer_31"><g><g><path d="m42.238 179.945c-1.08-.593-2.395-.593-3.475 0-5.094 2.797-8.549 8.204-8.549 14.426 0 6.221 3.456 11.629 8.549 14.426 1.08.593 2.395.593 3.475 0 5.094-2.797 8.549-8.204 8.549-14.426s-3.456-11.629-8.549-14.426z" fill="#f5c84c"/></g><g><path d="m47.218 253.5h-13.436c-1.717 0-3.11-1.392-3.11-3.11v-32.341c0-1.717 1.392-3.11 3.11-3.11h13.436c1.717 0 3.11 1.392 3.11 3.11v32.341c0 1.718-1.393 3.11-3.11 3.11z" fill="#fed690"/></g><g><path d="m83.488 160.945c-1.08-.593-2.395-.593-3.475 0-5.094 2.797-8.549 8.204-8.549 14.426 0 6.221 3.456 11.629 8.549 14.426 1.08.593 2.395.593 3.475 0 5.094-2.797 8.549-8.204 8.549-14.426s-3.456-11.629-8.549-14.426z" fill="#f5c84c"/></g><g><path d="m91.468 253.5h-19.436c-1.717 0-3.11-1.392-3.11-3.11v-51.341c0-1.717 1.392-3.11 3.11-3.11h19.436c1.717 0 3.11 1.392 3.11 3.11v51.341c0 1.718-1.393 3.11-3.11 3.11z" fill="#fed690"/></g><g><path d="m129.738 129.945c-1.08-.593-2.395-.593-3.475 0-5.094 2.797-8.549 8.204-8.549 14.426 0 6.221 3.456 11.629 8.549 14.426 1.08.593 2.395.593 3.475 0 5.094-2.797 8.549-8.204 8.549-14.426s-3.456-11.629-8.549-14.426z" fill="#f5c84c"/></g><g><path d="m139.718 253.5h-23.436c-1.717 0-3.11-1.392-3.11-3.11v-82.341c0-1.717 1.392-3.11 3.11-3.11h23.436c1.717 0 3.11 1.392 3.11 3.11v82.341c0 1.718-1.393 3.11-3.11 3.11z" fill="#fed690"/></g><g><path d="m175.988 160.945c-1.08-.593-2.395-.593-3.475 0-5.094 2.797-8.549 8.204-8.549 14.426 0 6.221 3.456 11.629 8.549 14.426 1.08.593 2.395.593 3.475 0 5.094-2.797 8.549-8.204 8.549-14.426s-3.456-11.629-8.549-14.426z" fill="#f5c84c"/></g><g><path d="m183.968 253.5h-19.436c-1.717 0-3.11-1.392-3.11-3.11v-51.341c0-1.717 1.392-3.11 3.11-3.11h19.436c1.717 0 3.11 1.392 3.11 3.11v51.341c0 1.718-1.393 3.11-3.11 3.11z" fill="#fed690"/></g><g><path d="m217.238 179.945c-1.08-.593-2.395-.593-3.475 0-5.094 2.797-8.549 8.204-8.549 14.426 0 6.221 3.456 11.629 8.549 14.426 1.08.593 2.395.593 3.475 0 5.094-2.797 8.549-8.204 8.549-14.426s-3.456-11.629-8.549-14.426z" fill="#f5c84c"/></g><g><path d="m222.218 253.5h-13.436c-1.717 0-3.11-1.392-3.11-3.11v-32.341c0-1.717 1.392-3.11 3.11-3.11h13.436c1.717 0 3.11 1.392 3.11 3.11v32.341c0 1.718-1.393 3.11-3.11 3.11z" fill="#fed690"/></g><g><path d="m164.652 59.71 14.334-24.052c.829-1.391.847-3.119.047-4.527-.8-1.407-2.294-2.277-3.913-2.277h-28.856l-14.398-24.158c-.812-1.362-2.281-2.196-3.866-2.196s-3.054.834-3.866 2.196l-14.398 24.159h-28.856c-1.619 0-3.113.87-3.913 2.277-.8 1.408-.782 3.136.047 4.527l14.334 24.051-14.333 24.052c-.829 1.391-.847 3.119-.047 4.527.8 1.407 2.294 2.277 3.913 2.277h28.856l14.398 24.159c.812 1.362 2.28 2.196 3.866 2.196s3.054-.834 3.866-2.196l14.398-24.159h28.856c1.619 0 3.113-.87 3.913-2.277.8-1.408.782-3.136-.047-4.527zm2.547-21.855-7.786 13.065-7.786-13.065zm-13.025 21.855-13.024 21.855h-26.3l-13.024-21.855 13.025-21.855h26.299zm-26.174-43.92 7.786 13.065h-15.572zm-39.199 22.065h15.572l-7.786 13.065zm0 43.71 7.786-13.065 7.786 13.065zm39.199 22.065-7.786-13.065h15.572zm23.627-22.065 7.786-13.065 7.786 13.065z" fill="#fca265"/></g><g><path d="m41.552 191.509c-.654-.359-1.45-.359-2.103 0-3.083 1.693-5.175 4.966-5.175 8.732s2.092 7.039 5.175 8.732c.654.359 1.45.359 2.103 0 3.083-1.693 5.175-4.966 5.175-8.732-.001-3.766-2.092-7.039-5.175-8.732z" fill="#fca265"/></g><g><path d="m82.802 172.509c-.654-.359-1.45-.359-2.103 0-3.083 1.693-5.175 4.966-5.175 8.732s2.092 7.039 5.175 8.732c.654.359 1.45.359 2.103 0 3.083-1.693 5.175-4.966 5.175-8.732-.001-3.766-2.092-7.039-5.175-8.732z" fill="#fca265"/></g><g><path d="m129.052 141.509c-.654-.359-1.45-.359-2.103 0-3.083 1.693-5.175 4.966-5.175 8.732s2.092 7.039 5.175 8.732c.654.359 1.45.359 2.103 0 3.083-1.693 5.175-4.966 5.175-8.732-.001-3.766-2.092-7.039-5.175-8.732z" fill="#fca265"/></g><g><path d="m175.302 172.509c-.654-.359-1.45-.359-2.103 0-3.083 1.693-5.175 4.966-5.175 8.732s2.092 7.039 5.175 8.732c.654.359 1.45.359 2.103 0 3.083-1.693 5.175-4.966 5.175-8.732-.001-3.766-2.092-7.039-5.175-8.732z" fill="#fca265"/></g><g><path d="m216.552 191.509c-.654-.359-1.45-.359-2.103 0-3.083 1.693-5.175 4.966-5.175 8.732s2.092 7.039 5.175 8.732c.654.359 1.45.359 2.103 0 3.083-1.693 5.175-4.966 5.175-8.732-.001-3.766-2.092-7.039-5.175-8.732z" fill="#fca265"/></g><g><path d="m56.35 155.2c-3.1-.6-5.6-3-6.2-6.1 0-.1-.3-.1-.3 0-.6 3.1-3.1 5.5-6.2 6.1-.1 0-.1.2 0 .3 3.1.6 5.6 3 6.2 6.1 0 .1.3.1.3 0 .6-3.1 3.1-5.5 6.2-6.1.1-.1.1-.3 0-.3z" fill="#fc657e"/></g><g><path d="m206.9 135.9h2.3v2.3c0 1.8 1.4 3.2 3.2 3.2 1.7 0 3.2-1.4 3.2-3.1v-.1-2.3h2.3c1.8 0 3.2-1.4 3.2-3.2 0-1.7-1.4-3.2-3.1-3.2h-.1-2.3v-2.3c0-1.8-1.4-3.2-3.2-3.2-1.7 0-3.2 1.4-3.2 3.1v.1 2.3h-2.3c-1.8 0-3.2 1.4-3.2 3.2-.1 1.7 1.3 3.2 3.2 3.2-.1 0-.1 0 0 0z" fill="#70d6f9"/></g><g><circle cx="198.3" cy="158.9" fill="#f5c84c" r="3.4"/></g><g><circle cx="88.3" cy="3.4" fill="#87d147" r="3.4"/></g><g><path d="m48.7 18.2c4.5-.8 8-4.3 8.9-8.7 0-.2.4-.2.4 0 .9 4.4 4.4 7.9 8.9 8.7.2 0 .2.3 0 .4-4.5.8-8 4.3-8.9 8.7 0 .2-.4.2-.4 0-.9-4.4-4.4-7.9-8.9-8.7-.2-.1-.2-.4 0-.4z" fill="#f5c84c"/></g><g><path d="m40.5 211.746c-1.01 0-2.02-.252-2.94-.757-6.074-3.336-9.846-9.703-9.846-16.618s3.772-13.282 9.846-16.617c1.841-1.011 4.04-1.011 5.882 0 6.073 3.335 9.846 9.702 9.846 16.617s-3.772 13.282-9.845 16.617c-.923.505-1.933.758-2.943.758zm0-29.746c-.185 0-.37.045-.535.136-4.473 2.457-7.252 7.145-7.252 12.234s2.779 9.778 7.252 12.234c.33.182.74.181 1.069 0 4.473-2.456 7.251-7.144 7.251-12.234s-2.779-9.778-7.252-12.234c-.163-.09-.348-.136-.533-.136z"/></g><g><path d="m40.5 215.997c-1.381 0-2.5-1.119-2.5-2.5v-2.286c0-1.381 1.119-2.5 2.5-2.5s2.5 1.119 2.5 2.5v2.286c0 1.381-1.119 2.5-2.5 2.5z"/></g><g><path d="m47.218 256h-13.436c-3.093 0-5.609-2.517-5.609-5.61v-32.341c0-3.093 2.517-5.61 5.609-5.61h13.437c3.093 0 5.609 2.517 5.609 5.61v32.341c0 3.093-2.517 5.61-5.61 5.61zm-13.436-38.561c-.336 0-.609.273-.609.61v32.341c0 .336.273.61.609.61h13.437c.336 0 .609-.273.609-.61v-32.341c0-.336-.273-.61-.609-.61z"/></g><g><path d="m81.75 192.746c-1.01 0-2.02-.252-2.94-.757-6.074-3.336-9.846-9.703-9.846-16.618s3.772-13.282 9.846-16.617c1.841-1.011 4.04-1.011 5.882 0 6.073 3.335 9.846 9.702 9.846 16.617s-3.772 13.282-9.845 16.617c-.923.505-1.933.758-2.943.758zm0-29.746c-.185 0-.37.045-.535.136-4.473 2.457-7.252 7.145-7.252 12.234s2.779 9.778 7.252 12.234c.33.182.74.181 1.069 0 4.473-2.456 7.251-7.144 7.251-12.234s-2.779-9.778-7.252-12.234c-.163-.09-.348-.136-.533-.136z"/></g><g><path d="m81.75 196.997c-1.381 0-2.5-1.119-2.5-2.5v-2.286c0-1.381 1.119-2.5 2.5-2.5s2.5 1.119 2.5 2.5v2.286c0 1.381-1.119 2.5-2.5 2.5z"/></g><g><path d="m91.468 256h-19.436c-3.093 0-5.609-2.517-5.609-5.61v-51.341c0-3.093 2.516-5.61 5.609-5.61h19.437c3.093 0 5.609 2.517 5.609 5.61v51.341c0 3.093-2.516 5.61-5.61 5.61zm-19.436-57.561c-.336 0-.609.273-.609.61v51.341c0 .336.273.61.609.61h19.437c.336 0 .609-.273.609-.61v-51.341c0-.336-.273-.61-.609-.61z"/></g><g><path d="m128 161.746c-1.01 0-2.02-.252-2.94-.757-6.074-3.336-9.846-9.703-9.846-16.618s3.772-13.282 9.846-16.617c1.841-1.011 4.04-1.011 5.882 0 6.073 3.335 9.846 9.702 9.846 16.617s-3.772 13.282-9.845 16.617c-.923.505-1.933.758-2.943.758zm0-29.746c-.185 0-.37.045-.535.136-4.473 2.457-7.252 7.145-7.252 12.234s2.779 9.778 7.252 12.234c.33.181.74.181 1.069 0 4.473-2.456 7.251-7.144 7.251-12.234s-2.779-9.778-7.252-12.234c-.163-.09-.348-.136-.533-.136z"/></g><g><path d="m128 165.997c-1.381 0-2.5-1.119-2.5-2.5v-2.286c0-1.381 1.119-2.5 2.5-2.5s2.5 1.119 2.5 2.5v2.286c0 1.381-1.119 2.5-2.5 2.5z"/></g><g><path d="m139.718 256h-23.437c-3.093 0-5.609-2.517-5.609-5.61v-82.341c0-3.093 2.517-5.61 5.609-5.61h23.437c3.093 0 5.609 2.517 5.609 5.61v82.341c.001 3.093-2.516 5.61-5.609 5.61zm-23.436-88.561c-.336 0-.609.273-.609.61v82.341c0 .336.273.61.609.61h23.437c.336 0 .609-.273.609-.61v-82.341c0-.336-.273-.61-.609-.61z"/></g><g><path d="m174.25 192.746c-1.01 0-2.02-.252-2.94-.757-6.074-3.336-9.846-9.703-9.846-16.618s3.772-13.282 9.846-16.617c1.841-1.011 4.04-1.011 5.882 0 6.073 3.335 9.846 9.702 9.846 16.617s-3.772 13.282-9.845 16.617c-.923.505-1.933.758-2.943.758zm0-29.746c-.185 0-.37.045-.535.136-4.473 2.457-7.252 7.145-7.252 12.234s2.779 9.778 7.252 12.234c.331.182.741.181 1.069 0 4.473-2.456 7.251-7.144 7.251-12.234s-2.779-9.778-7.252-12.234c-.163-.09-.348-.136-.533-.136z"/></g><g><path d="m174.25 196.997c-1.381 0-2.5-1.119-2.5-2.5v-2.286c0-1.381 1.119-2.5 2.5-2.5s2.5 1.119 2.5 2.5v2.286c0 1.381-1.119 2.5-2.5 2.5z"/></g><g><path d="m183.968 256h-19.437c-3.093 0-5.609-2.517-5.609-5.61v-51.341c0-3.093 2.516-5.61 5.609-5.61h19.437c3.093 0 5.609 2.517 5.609 5.61v51.341c.001 3.093-2.515 5.61-5.609 5.61zm-19.436-57.561c-.336 0-.609.273-.609.61v51.341c0 .336.273.61.609.61h19.437c.336 0 .609-.273.609-.61v-51.341c0-.336-.273-.61-.609-.61z"/></g><g><path d="m215.5 211.746c-1.01 0-2.02-.252-2.94-.757-6.074-3.336-9.846-9.703-9.846-16.618s3.772-13.282 9.846-16.617c1.841-1.011 4.04-1.011 5.882 0 6.073 3.335 9.846 9.702 9.846 16.617s-3.772 13.282-9.845 16.617c-.923.505-1.933.758-2.943.758zm0-29.746c-.185 0-.37.045-.535.136-4.473 2.457-7.252 7.145-7.252 12.234s2.779 9.778 7.252 12.234c.331.182.741.181 1.069 0 4.473-2.456 7.251-7.144 7.251-12.234s-2.779-9.778-7.252-12.234c-.163-.09-.348-.136-.533-.136z"/></g><g><path d="m215.5 215.997c-1.381 0-2.5-1.119-2.5-2.5v-2.286c0-1.381 1.119-2.5 2.5-2.5s2.5 1.119 2.5 2.5v2.286c0 1.381-1.119 2.5-2.5 2.5z"/></g><g><path d="m222.218 256h-13.437c-3.093 0-5.609-2.517-5.609-5.61v-32.341c0-3.093 2.517-5.61 5.609-5.61h13.437c3.093 0 5.609 2.517 5.609 5.61v32.341c.001 3.093-2.516 5.61-5.609 5.61zm-13.436-38.561c-.336 0-.609.273-.609.61v32.341c0 .336.273.61.609.61h13.437c.336 0 .609-.273.609-.61v-32.341c0-.336-.273-.61-.609-.61z"/></g><g><path d="m128 119.42c-2.453 0-4.757-1.309-6.013-3.416l-13.67-22.939h-27.437c-2.512 0-4.845-1.357-6.086-3.542-1.242-2.185-1.214-4.883.073-7.042l13.571-22.771-13.571-22.772c-1.287-2.159-1.314-4.857-.073-7.042 1.242-2.185 3.574-3.542 6.086-3.542h27.436l13.67-22.938c1.257-2.107 3.561-3.416 6.014-3.416s4.757 1.309 6.013 3.416l13.67 22.939h27.436c2.512 0 4.845 1.357 6.086 3.542 1.242 2.185 1.214 4.883-.073 7.042l-13.57 22.771 13.571 22.771c1.287 2.159 1.314 4.857.073 7.042-1.242 2.185-3.574 3.542-6.086 3.542h-27.436l-13.67 22.938c-1.257 2.108-3.561 3.417-6.014 3.417zm-47.12-88.065c-.718 0-1.384.388-1.739 1.012-.354.624-.346 1.395.021 2.012l14.333 24.052c.47.789.47 1.771 0 2.56l-14.333 24.051c-.367.617-.375 1.388-.021 2.012s1.021 1.012 1.739 1.012h28.856c.881 0 1.697.463 2.147 1.22l14.397 24.159c.359.602 1.018.976 1.718.976s1.359-.374 1.718-.977l14.397-24.158c.451-.757 1.267-1.22 2.147-1.22h28.856c.718 0 1.384-.388 1.739-1.012.354-.624.346-1.395-.021-2.012l-14.33-24.052c-.47-.789-.47-1.771 0-2.56l14.333-24.052c.367-.617.375-1.388.021-2.012s-1.021-1.012-1.739-1.012h-28.856c-.881 0-1.697-.463-2.147-1.22l-14.398-24.158c-.359-.602-1.017-.976-1.718-.976s-1.359.374-1.718.977l-14.397 24.158c-.451.757-1.267 1.22-2.147 1.22zm47.12 74.775c-.881 0-1.697-.463-2.147-1.22l-7.786-13.065c-.46-.772-.471-1.733-.026-2.515.444-.782 1.274-1.265 2.174-1.265h15.572c.899 0 1.729.483 2.174 1.265.444.782.434 1.742-.026 2.515l-7.786 13.065c-.452.757-1.268 1.22-2.149 1.22zm-3.386-13.065 3.386 5.682 3.386-5.682zm42.585-9h-15.572c-.899 0-1.729-.483-2.174-1.265-.444-.782-.434-1.742.026-2.515l7.786-13.065c.451-.757 1.267-1.22 2.147-1.22s1.697.463 2.147 1.22l7.786 13.065c.46.772.471 1.733.026 2.515-.442.783-1.272 1.265-2.172 1.265zm-11.172-5h6.771l-3.386-5.682zm-14.877 5h-26.3c-.881 0-1.697-.463-2.147-1.22l-13.025-21.855c-.47-.789-.47-1.771 0-2.56l13.024-21.855c.451-.757 1.267-1.22 2.147-1.22h26.3c.881 0 1.697.463 2.147 1.22l13.024 21.855c.47.789.47 1.771 0 2.56l-13.024 21.855c-.449.757-1.265 1.22-2.146 1.22zm-24.879-5h23.459l11.535-19.355-11.535-19.355h-23.459l-11.535 19.355zm-11.898 5h-15.572c-.899 0-1.729-.483-2.174-1.265-.444-.782-.434-1.742.026-2.515l7.786-13.065c.451-.756 1.267-1.22 2.148-1.22s1.697.463 2.147 1.22l7.786 13.065c.46.772.471 1.733.026 2.515-.443.783-1.274 1.265-2.173 1.265zm-11.172-5h6.771l-3.386-5.682zm66.212-25.645c-.881 0-1.697-.463-2.147-1.22l-7.786-13.065c-.46-.772-.471-1.733-.026-2.515.444-.782 1.274-1.265 2.174-1.265h15.572c.899 0 1.729.483 2.174 1.265.444.782.434 1.742-.026 2.515l-7.787 13.065c-.451.757-1.267 1.22-2.148 1.22zm-3.386-13.065 3.386 5.682 3.386-5.682zm-59.44 13.065c-.881 0-1.697-.463-2.147-1.22l-7.786-13.065c-.46-.772-.471-1.733-.026-2.515.444-.782 1.274-1.265 2.174-1.265h15.572c.899 0 1.729.483 2.174 1.265.444.782.434 1.742-.026 2.515l-7.788 13.065c-.45.757-1.266 1.22-2.147 1.22zm-3.386-13.065 3.386 5.682 3.386-5.682zm42.585-9h-15.572c-.899 0-1.729-.483-2.174-1.265-.444-.782-.434-1.742.026-2.515l7.786-13.065c.451-.757 1.267-1.22 2.147-1.22s1.697.463 2.147 1.22l7.786 13.065c.46.772.471 1.733.026 2.515-.442.782-1.272 1.265-2.172 1.265zm-11.172-5h6.771l-3.385-5.682z"/></g><g><path d="m40.5 211.745c-.775 0-1.55-.194-2.256-.583-3.991-2.191-6.471-6.377-6.471-10.922s2.48-8.731 6.472-10.923c1.412-.775 3.098-.775 4.51 0 3.992 2.192 6.472 6.377 6.472 10.923s-2.48 8.731-6.472 10.923c-.706.388-1.48.582-2.255.582zm0-17.959c-2.303 1.334-3.727 3.792-3.727 6.455s1.423 5.12 3.727 6.455c2.303-1.335 3.727-3.792 3.727-6.455s-1.424-5.12-3.727-6.455zm-.151-.086c0 .001.001.001 0 0 .001.001 0 .001 0 0z"/></g><g><path d="m81.75 192.745c-.775 0-1.55-.194-2.256-.583-3.991-2.191-6.471-6.377-6.471-10.922s2.48-8.731 6.472-10.923c1.412-.775 3.098-.775 4.51 0 3.992 2.192 6.472 6.377 6.472 10.923s-2.48 8.731-6.472 10.923c-.706.388-1.48.582-2.255.582zm0-17.959c-2.303 1.334-3.727 3.792-3.727 6.455s1.423 5.12 3.727 6.455c2.303-1.335 3.727-3.792 3.727-6.455s-1.424-5.12-3.727-6.455zm-.151-.086c0 .001.001.001 0 0 .001.001 0 .001 0 0z"/></g><g><path d="m128 161.745c-.775 0-1.55-.194-2.256-.583-3.991-2.191-6.471-6.377-6.471-10.922s2.48-8.731 6.472-10.923c1.412-.775 3.098-.775 4.51 0 3.992 2.192 6.472 6.377 6.472 10.923s-2.48 8.731-6.472 10.923c-.706.388-1.48.582-2.255.582zm0-17.959c-2.303 1.334-3.727 3.792-3.727 6.455s1.423 5.12 3.727 6.455c2.303-1.335 3.727-3.792 3.727-6.455s-1.424-5.12-3.727-6.455zm-.151-.086c0 .001.001.001 0 0 .001.001 0 .001 0 0z"/></g><g><path d="m174.25 192.745c-.775 0-1.55-.194-2.256-.583-3.991-2.191-6.471-6.377-6.471-10.922s2.48-8.731 6.472-10.923c1.412-.775 3.098-.775 4.51 0 3.992 2.192 6.472 6.377 6.472 10.923s-2.48 8.731-6.472 10.923c-.706.388-1.48.582-2.255.582zm0-17.959c-2.303 1.334-3.727 3.792-3.727 6.455s1.423 5.12 3.727 6.455c2.303-1.335 3.727-3.792 3.727-6.455s-1.424-5.12-3.727-6.455zm-.151-.086c0 .001.001.001 0 0 .001.001 0 .001 0 0z"/></g><g><path d="m215.5 211.745c-.775 0-1.55-.194-2.256-.583-3.991-2.191-6.471-6.377-6.471-10.922s2.48-8.731 6.472-10.923c1.412-.775 3.098-.775 4.51 0 3.992 2.192 6.472 6.377 6.472 10.923s-2.48 8.731-6.472 10.923c-.706.388-1.48.582-2.255.582zm0-17.959c-2.303 1.334-3.727 3.792-3.727 6.455s1.423 5.12 3.727 6.455c2.303-1.335 3.727-3.792 3.727-6.455s-1.424-5.12-3.727-6.455zm-.151-.086c0 .001.001.001 0 0 .001.001 0 .001 0 0z"/></g></g></g></svg>