<svg enable-background="new 0 0 256 256" height="512" viewBox="0 0 256 256" width="512" xmlns="http://www.w3.org/2000/svg"><g id="Layer_4"><g><g><path d="m127.943 2.5c-4.928.011-8.701 4.419-8.131 9.313.973 8.365 2.426 19.385 4.205 24.658 1.188-.633 2.543-.993 3.983-.993 1.465 0 2.843.372 4.045 1.026 1.784-5.277 3.241-16.31 4.216-24.69.55-4.73-2.991-9.324-8.318-9.314z" fill="#f98fa6"/></g><g><path d="m12.511 180.743h-.789c-5.094 0-9.221 4.129-9.221 9.221s4.128 9.221 9.221 9.221h.789z" fill="#f9d0b4"/></g><g><path d="m95.002 180.743h-.717v18.443h.717c5.093 0 9.221-4.129 9.221-9.221s-4.127-9.222-9.221-9.222z" fill="#f9d0b4"/></g><g><g><path d="m85.392 148.571c.234.573.368 1.197.368 1.854 0 2.711-2.197 4.909-4.909 4.909h-54.979c-2.711 0-4.909-2.198-4.909-4.909 0-.615.126-1.197.333-1.739-5.448 6.15-8.786 14.11-8.786 22.635v31.061c0 18.234 9.833 35.338 24.701 45.894l.152.108c9.54 6.771 22.384 6.874 32.069 0l.152-.108c14.868-10.556 24.701-27.66 24.701-45.894v-31.062c0-8.489-3.347-16.533-8.893-22.749z" fill="#a57453"/></g></g><g><path d="m59.242 130.42-4.037-14.771c-.513-1.877-3.175-1.877-3.687 0l-4.037 14.771c-1.358 4.969-7.784 6.291-10.993 2.261l-9.795-12.299c-1.219-1.53-3.677-.459-3.385 1.476l3.843 23.657h52.422l3.843-23.657c.292-1.934-2.166-3.006-3.385-1.476l-9.795 12.299c-3.209 4.029-9.636 2.708-10.994-2.261z" fill="#f5c84c"/></g><g><g><path d="m80.851 155.333h-54.978c-2.711 0-4.909-2.198-4.909-4.909s2.197-4.909 4.909-4.909h54.979c2.711 0 4.909 2.198 4.909 4.909-.001 2.711-2.199 4.909-4.91 4.909z" fill="#fcdd86"/></g></g><g><path d="m47.481 130.42 3.298-12.068c-7.351.65-14.107 3.359-19.678 7.566l5.386 6.763c3.21 4.029 9.636 2.708 10.994-2.261z" fill="#fc657e"/></g><g><path d="m70.235 132.681 5.998-7.531c-5.798-4.077-12.775-6.58-20.32-6.913l3.33 12.182c1.357 4.97 7.783 6.291 10.992 2.262z" fill="#fc657e"/></g><g><path d="m161.787 180.743h-.789c-5.094 0-9.221 4.129-9.221 9.221s4.128 9.221 9.221 9.221h.789z" fill="#f9d0b4"/></g><g><path d="m244.279 180.743h-.717v18.443h.717c5.093 0 9.221-4.129 9.221-9.221s-4.128-9.222-9.221-9.222z" fill="#f9d0b4"/></g><g><g><path d="m234.668 148.571c.234.573.368 1.197.368 1.854 0 2.711-2.197 4.909-4.909 4.909h-54.979c-2.711 0-4.909-2.198-4.909-4.909 0-.615.126-1.197.333-1.739-5.448 6.15-8.786 14.11-8.786 22.635v31.061c0 18.234 9.833 35.338 24.701 45.894l.152.108c9.54 6.771 22.384 6.874 32.069 0l.152-.108c14.868-10.556 24.701-27.66 24.701-45.894v-31.062c.001-8.489-3.347-16.533-8.893-22.749z" fill="#dae6f1"/></g></g><g><path d="m208.519 130.42-4.037-14.771c-.513-1.877-3.175-1.877-3.687 0l-4.037 14.771c-1.358 4.969-7.784 6.291-10.993 2.261l-9.795-12.299c-1.219-1.53-3.677-.459-3.385 1.476l3.843 23.657h52.422l3.843-23.657c.292-1.934-2.166-3.006-3.385-1.476l-9.795 12.299c-3.21 4.029-9.636 2.708-10.994-2.261z" fill="#f5c84c"/></g><g><g><path d="m230.127 155.333h-54.979c-2.711 0-4.909-2.198-4.909-4.909s2.197-4.909 4.909-4.909h54.979c2.711 0 4.909 2.198 4.909 4.909s-2.197 4.909-4.909 4.909z" fill="#fcdd86"/></g></g><g><path d="m124.017 36.471c-1.779-5.273-3.232-16.293-4.205-24.658-.144-1.235-.01-2.438.348-3.548-18.812 3.672-33.011 20.235-33.011 40.121v1.38c.702-.547 1.495-.991 2.372-1.288 6.769-2.295 18.769-5.869 30.314-6.846.641-2.234 2.171-4.09 4.182-5.162z" fill="#f5c84c"/></g><g><path d="m135.907 8.265c.362 1.124.495 2.331.354 3.549-.975 8.38-2.432 19.413-4.216 24.69 1.981 1.076 3.486 2.918 4.12 5.129 11.545.978 23.545 4.551 30.314 6.846.908.308 1.724.777 2.444 1.352v-1.444c0-19.888-14.202-36.452-33.016-40.122z" fill="#f5c84c"/></g><g><path d="m87.149 70.934h-.789c-5.094 0-9.221 4.129-9.221 9.221s4.128 9.221 9.221 9.221h.789z" fill="#d68649"/></g><g><path d="m169.64 70.934h-.717v18.443h.717c5.093 0 9.221-4.129 9.221-9.221s-4.127-9.222-9.221-9.222z" fill="#d68649"/></g><g><g><path d="m166.13 66.17c-17.017.579-27.973-11.676-31.701-16.642-1.559 1.804-3.858 2.95-6.429 2.95s-4.87-1.146-6.429-2.95c-3.728 4.966-14.684 17.221-31.701 16.641-.989-.034-1.911-.311-2.721-.768v27.17c0 18.234 9.833 35.338 24.701 45.894l.152.108c9.54 6.771 22.385 6.874 32.069 0l.152-.108c14.868-10.556 24.701-27.66 24.701-45.894v-27.207c-.827.481-1.776.771-2.794.806z" fill="#5b5d60"/></g></g><g><path d="m146.537 60.73c-3.847 2.958-9.429 6.426-18.501 6.426-9.081 0-14.699-3.474-18.558-6.435-3.295 2.064-7.167 3.815-11.581 4.746-1.031 2.216-1.596 4.641-1.596 7.128v24.171.156c.028 5.949 2.737 11.003 7.933 13.172 2.676 1.117 5.05 2.833 6.792 5.151 3.981 5.296 10.314 8.722 17.45 8.722 7.351 0 13.849-3.636 17.803-9.206 1.562-2.201 3.766-3.827 6.198-4.996 4.82-2.317 7.196-7.17 7.223-12.843 0-.052 0-.104 0-.156v-24.171c0-2.487-.564-4.913-1.595-7.128-4.409-.93-8.276-2.677-11.568-4.737z" fill="#d68649"/></g><g><path d="m80.494 170.846c-2.11-2.253-5.756-2.524-8.186-.621-3.858 3.021-9.516 6.74-18.91 6.74-9.441 0-15.144-3.757-19.014-6.786-2.435-1.906-5.905-1.692-8.039.546l-.045.047c-2.978 3.141-4.638 7.304-4.638 11.632v24.171.156c.028 5.949 2.737 11.003 7.933 13.172 2.676 1.117 5.049 2.833 6.792 5.151 3.981 5.296 10.314 8.722 17.45 8.722 7.351 0 13.849-3.636 17.803-9.206 1.562-2.201 3.766-3.827 6.198-4.996 4.82-2.317 7.196-7.17 7.223-12.843 0-.052 0-.104 0-.156v-24.171c0-4.295-1.634-8.427-4.567-11.558z" fill="#f9d0b4"/></g><g><path d="m229.77 170.846c-2.11-2.253-5.756-2.524-8.186-.621-3.858 3.021-9.516 6.74-18.91 6.74-9.441 0-15.144-3.757-19.014-6.786-2.435-1.906-5.905-1.692-8.039.546l-.045.047c-2.978 3.141-4.638 7.304-4.638 11.632v24.171.156c.028 5.949 2.737 11.003 7.933 13.172 2.676 1.117 5.049 2.833 6.792 5.151 3.981 5.296 10.314 8.722 17.45 8.722 7.351 0 13.849-3.636 17.803-9.206 1.562-2.201 3.766-3.827 6.198-4.996 4.82-2.317 7.196-7.17 7.223-12.843 0-.052 0-.104 0-.156v-24.171c.001-4.295-1.634-8.427-4.567-11.558z" fill="#f9d0b4"/></g><g><path d="m166.479 48.479c-6.769-2.295-18.769-5.869-30.314-6.846.214.746.335 1.531.335 2.346 0 2.123-.784 4.06-2.071 5.55 3.728 4.966 14.684 17.221 31.701 16.642 3.291-.112 5.87-2.885 5.87-6.178v-3.797c0-3.492-2.215-6.596-5.521-7.717z" fill="#dae6f1"/></g><g><path d="m119.5 43.979c0-.815.121-1.6.335-2.346-11.545.978-23.545 4.551-30.314 6.846-3.306 1.121-5.521 4.225-5.521 7.716v3.797c0 3.293 2.579 6.066 5.87 6.178 17.016.579 27.973-11.676 31.701-16.641-1.287-1.49-2.071-3.427-2.071-5.55z" fill="#dae6f1"/></g><g><path d="m124.017 36.471c-1.069-3.169-2.02-8.417-2.82-13.914-2.24-3.096-6.65-3.874-9.737-1.505-3.51 2.695-3.509 7.513-.748 10.346 2.876 2.95 6.323 6.414 9.461 9.294.761-1.812 2.136-3.293 3.857-4.211z" fill="#fca265"/></g><g><path d="m144.54 21.053c-3.043-2.335-7.377-1.616-9.645 1.371-.807 5.56-1.768 10.88-2.85 14.081l-.022.009c1.695.919 3.05 2.387 3.803 4.179 3.138-2.88 6.586-6.344 9.461-9.294 2.761-2.833 2.763-7.651-.747-10.346z" fill="#fca265"/></g><g><circle cx="128" cy="43.979" fill="#fc657e" r="8.5"/></g><g><path d="m59.574 204.488c-1.903-.903-3.986-.364-5.285.988-.5.52-1.354.52-1.853 0-1.299-1.352-3.382-1.891-5.285-.988-5.677 2.693-10.213 3.042-12.9 2.9-1.059-.056-1.692 1.168-1.012 1.983 6.373 7.636 15.473 5.739 19.003 4.61.729-.233 1.514-.233 2.243 0 3.53 1.128 12.63 3.025 19.003-4.61.68-.814.047-2.038-1.012-1.983-2.69.142-7.225-.207-12.902-2.9z" fill="#a57453"/></g><g><path d="m208.85 204.488c-1.903-.903-3.986-.364-5.285.988-.5.52-1.354.52-1.853 0-1.299-1.352-3.382-1.891-5.285-.988-5.677 2.693-10.213 3.042-12.9 2.9-1.059-.056-1.692 1.168-1.012 1.983 6.373 7.636 15.473 5.739 19.003 4.61.729-.233 1.514-.233 2.243 0 3.53 1.128 12.63 3.025 19.003-4.61.68-.814.047-2.038-1.012-1.983-2.689.142-7.225-.207-12.902-2.9z" fill="#dae6f1"/></g><g><path d="m134.212 94.68c-1.903-.903-3.986-.364-5.285.988-.5.52-1.354.52-1.853 0-1.299-1.352-3.382-1.89-5.285-.988-5.677 2.693-10.213 3.042-12.9 2.9-1.059-.056-1.692 1.168-1.012 1.983 6.373 7.636 15.473 5.739 19.003 4.61.729-.233 1.514-.233 2.243 0 3.53 1.128 12.63 3.025 19.003-4.61.68-.814.047-2.038-1.012-1.983-2.689.141-7.225-.207-12.902-2.9z" fill="#5b5d60"/></g><g><path d="m207.35 92.2c-3.1-.6-5.6-3-6.2-6.1 0-.1-.3-.1-.3 0-.6 3.1-3.1 5.5-6.2 6.1-.1 0-.1.2 0 .3 3.1.6 5.6 3 6.2 6.1 0 .1.3.1.3 0 .6-3.1 3.1-5.5 6.2-6.1.1-.1.1-.3 0-.3z" fill="#fc657e"/></g><g><circle cx="140.3" cy="252.6" fill="#87d147" r="3.4"/></g><g><circle cx="170.3" cy="3.4" fill="#f5c84c" r="3.4"/></g><g><path d="m105.7 234.2c4.5-.8 8-4.3 8.9-8.7 0-.2.4-.2.4 0 .9 4.4 4.4 7.9 8.9 8.7.2 0 .2.3 0 .4-4.5.8-8 4.3-8.9 8.7 0 .2-.4.2-.4 0-.9-4.4-4.4-7.9-8.9-8.7-.2-.1-.2-.4 0-.4z" fill="#f5c84c"/></g><g><path d="m190.9 27.25h2.3v2.3c0 1.8 1.4 3.2 3.2 3.2 1.7 0 3.2-1.4 3.2-3.1v-.1-2.3h2.3c1.8 0 3.2-1.4 3.2-3.2 0-1.7-1.4-3.2-3.1-3.2h-.1-2.3v-2.3c0-1.8-1.4-3.2-3.2-3.2-1.7 0-3.2 1.4-3.2 3.1v.1 2.3h-2.3c-1.8 0-3.2 1.4-3.2 3.2-.1 1.7 1.3 3.2 3.2 3.2-.1 0-.1 0 0 0z" fill="#70d6f9"/></g><g><circle cx="68.114" cy="192.087" r="4.393"/></g><g><circle cx="38.609" cy="192.087" r="4.393"/></g><g><path d="m54.726 225.182h-2.728c-1.381 0-2.5-1.119-2.5-2.5s1.119-2.5 2.5-2.5h2.728c1.381 0 2.5 1.119 2.5 2.5s-1.12 2.5-2.5 2.5z"/></g><g><path d="m11.722 201.686c-6.463 0-11.722-5.258-11.722-11.722s5.259-11.722 11.722-11.722c1.381 0 2.5 1.119 2.5 2.5s-1.119 2.5-2.5 2.5c-3.706 0-6.722 3.015-6.722 6.722s3.016 6.722 6.722 6.722c1.381 0 2.5 1.119 2.5 2.5s-1.119 2.5-2.5 2.5z"/></g><g><path d="m95.002 201.686c-1.381 0-2.5-1.119-2.5-2.5s1.119-2.5 2.5-2.5c3.706 0 6.722-3.015 6.722-6.722s-3.016-6.722-6.722-6.722c-1.381 0-2.5-1.119-2.5-2.5s1.119-2.5 2.5-2.5c6.463 0 11.722 5.258 11.722 11.722s-5.259 11.722-11.722 11.722z"/></g><g><g><path d="m53.398 255.988c-6.127 0-12.253-1.855-17.482-5.566l-.15-.106c-16.128-11.451-25.755-29.37-25.755-47.934v-31.062c0-8.703 3.271-17.248 9.21-24.061.907-1.042 2.487-1.148 3.527-.242 1.041.907 1.149 2.486.242 3.527-5.146 5.903-7.979 13.281-7.979 20.775v31.061c0 16.948 8.84 33.342 23.647 43.855l.15.106c8.728 6.195 20.453 6.194 29.177.001l.154-.109c14.806-10.512 23.646-26.906 23.646-43.854v-31.059c0-7.553-2.884-14.985-8.119-20.928-.913-1.036-.813-2.616.224-3.529 1.035-.913 2.616-.812 3.528.223 6.04 6.856 9.367 15.463 9.367 24.233v31.061c0 18.564-9.627 36.483-25.753 47.933l-.154.109c-5.227 3.711-11.354 5.566-17.48 5.566z"/></g></g><g><path d="m79.633 147.663c-.133 0-.268-.011-.404-.033-1.362-.222-2.288-1.506-2.066-2.869l3.422-21.061-8.394 10.538c-2.073 2.604-5.385 3.805-8.649 3.135-3.261-.671-5.832-3.083-6.71-6.294l-3.47-12.693-3.469 12.693c-.878 3.212-3.449 5.624-6.71 6.294-3.271.671-6.576-.531-8.65-3.135l-8.393-10.538 3.314 20.399c.222 1.363-.704 2.647-2.066 2.869-1.366.221-2.647-.704-2.869-2.067l-3.679-22.644c-.307-2.031.737-3.92 2.594-4.729s3.951-.289 5.215 1.295l9.795 12.299c.909 1.141 2.306 1.647 3.731 1.353 1.429-.294 2.511-1.309 2.896-2.715l4.036-14.771c.531-1.943 2.242-3.248 4.255-3.248h.001c2.014 0 3.724 1.306 4.254 3.249l4.037 14.771c.385 1.407 1.467 2.421 2.896 2.715 1.425.294 2.822-.211 3.73-1.353l9.797-12.299c1.262-1.584 3.355-2.104 5.214-1.295 1.856.81 2.9 2.699 2.598 4.702l-3.79 23.333c-.201 1.227-1.262 2.099-2.466 2.099z"/></g><g><g><path d="m80.851 157.833h-54.979c-4.085 0-7.408-3.324-7.408-7.409s3.323-7.409 7.408-7.409h54.979c4.085 0 7.409 3.324 7.409 7.409s-3.324 7.409-7.409 7.409zm-54.979-9.818c-1.328 0-2.408 1.081-2.408 2.409s1.08 2.409 2.408 2.409h54.979c1.328 0 2.409-1.081 2.409-2.409 0-1.329-1.081-2.409-2.409-2.409z"/></g></g><g><path d="m31.615 128.039c-.771 0-1.532-.356-2.021-1.027-.813-1.115-.569-2.679.546-3.493 5.747-4.191 12.53-6.812 19.617-7.578 1.367-.152 2.605.844 2.754 2.217.148 1.373-.844 2.605-2.217 2.754-6.217.672-12.168 2.971-17.207 6.647-.445.324-.961.48-1.472.48z"/></g><g><path d="m75.521 127.163c-.479 0-.962-.137-1.39-.423-5.247-3.515-11.363-5.58-17.687-5.971-1.378-.085-2.426-1.271-2.341-2.649s1.255-2.43 2.649-2.341c7.206.445 14.178 2.799 20.161 6.807 1.146.769 1.454 2.321.686 3.469-.482.719-1.273 1.108-2.078 1.108z"/></g><g><circle cx="217.39" cy="192.087" r="4.393"/></g><g><circle cx="187.886" cy="192.087" r="4.393"/></g><g><path d="m204.002 225.182h-2.728c-1.381 0-2.5-1.119-2.5-2.5s1.119-2.5 2.5-2.5h2.728c1.381 0 2.5 1.119 2.5 2.5s-1.119 2.5-2.5 2.5z"/></g><g><path d="m160.998 201.686c-6.463 0-11.722-5.258-11.722-11.722s5.259-11.722 11.722-11.722c1.381 0 2.5 1.119 2.5 2.5s-1.119 2.5-2.5 2.5c-3.706 0-6.722 3.015-6.722 6.722s3.016 6.722 6.722 6.722c1.381 0 2.5 1.119 2.5 2.5s-1.119 2.5-2.5 2.5z"/></g><g><path d="m244.278 201.686c-1.381 0-2.5-1.119-2.5-2.5s1.119-2.5 2.5-2.5c3.706 0 6.722-3.015 6.722-6.722s-3.016-6.722-6.722-6.722c-1.381 0-2.5-1.119-2.5-2.5s1.119-2.5 2.5-2.5c6.463 0 11.722 5.258 11.722 11.722s-5.259 11.722-11.722 11.722z"/></g><g><g><path d="m202.675 255.988c-6.127 0-12.253-1.855-17.482-5.566l-.155-.111c-16.122-11.446-25.75-29.365-25.75-47.93v-31.061c0-8.704 3.271-17.25 9.212-24.063.908-1.041 2.487-1.148 3.527-.241 1.041.907 1.149 2.486.242 3.527-5.147 5.903-7.981 13.282-7.981 20.777v31.061c0 16.948 8.841 33.343 23.648 43.855l.155.111c8.722 6.19 20.445 6.19 29.171-.003l.154-.109c14.806-10.512 23.646-26.906 23.646-43.854v-31.061c0-7.557-2.885-14.99-8.123-20.932-.913-1.036-.814-2.615.222-3.529 1.036-.912 2.615-.813 3.528.222 6.044 6.855 9.373 15.463 9.373 24.238v31.061c0 18.564-9.627 36.483-25.753 47.933l-.154.109c-5.227 3.711-11.354 5.566-17.48 5.566z"/></g></g><g><path d="m228.987 147.186c-.133 0-.268-.011-.403-.033-1.363-.222-2.289-1.506-2.067-2.869l3.344-20.583-8.394 10.538c-2.073 2.604-5.386 3.805-8.649 3.135-3.261-.671-5.832-3.083-6.71-6.294l-3.47-12.693-3.469 12.693c-.878 3.212-3.449 5.624-6.71 6.294-3.271.671-6.576-.531-8.65-3.135l-8.393-10.538 3.33 20.498c.222 1.363-.704 2.647-2.067 2.869-1.355.222-2.646-.704-2.868-2.067l-3.694-22.742c-.307-2.031.737-3.92 2.594-4.729s3.952-.289 5.215 1.295l9.795 12.299c.908 1.141 2.304 1.647 3.731 1.353 1.429-.294 2.511-1.309 2.896-2.715l4.036-14.771c.531-1.943 2.242-3.248 4.255-3.248h.001c2.014 0 3.724 1.306 4.254 3.249l4.037 14.771c.385 1.407 1.467 2.421 2.896 2.715 1.425.294 2.822-.211 3.73-1.353l9.797-12.299c1.262-1.584 3.356-2.104 5.214-1.295 1.856.81 2.9 2.699 2.598 4.702l-3.712 22.855c-.201 1.225-1.263 2.098-2.467 2.098z"/></g><g><g><path d="m230.127 157.833h-54.979c-4.085 0-7.408-3.324-7.408-7.409s3.323-7.409 7.408-7.409h54.979c4.085 0 7.409 3.324 7.409 7.409s-3.324 7.409-7.409 7.409zm-54.979-9.818c-1.328 0-2.408 1.081-2.408 2.409s1.08 2.409 2.408 2.409h54.979c1.328 0 2.409-1.081 2.409-2.409 0-1.329-1.081-2.409-2.409-2.409z"/></g></g><g><path d="m87.149 51.688c-1.381 0-2.5-1.119-2.5-2.5v-.801c0-20.494 14.552-38.363 34.602-42.489 1.353-.279 2.674.592 2.952 1.945s-.592 2.674-1.944 2.953c-17.736 3.65-30.609 19.459-30.609 37.592v.801c-.001 1.38-1.12 2.499-2.501 2.499z"/></g><g><path d="m168.924 51.853c-1.381 0-2.5-1.119-2.5-2.5v-.966c0-18.133-12.874-33.943-30.611-37.592-1.353-.278-2.223-1.6-1.944-2.953s1.602-2.224 2.952-1.945c20.051 4.125 34.604 21.994 34.604 42.489v.966c-.001 1.382-1.12 2.501-2.501 2.501z"/></g><g><circle cx="142.752" cy="82.278" r="4.393"/></g><g><circle cx="113.248" cy="82.278" r="4.393"/></g><g><path d="m129.364 115.373h-2.729c-1.381 0-2.5-1.119-2.5-2.5s1.119-2.5 2.5-2.5h2.729c1.381 0 2.5 1.119 2.5 2.5s-1.119 2.5-2.5 2.5z"/></g><g><path d="m86.359 91.877c-6.463 0-11.721-5.258-11.721-11.721s5.258-11.722 11.721-11.722c1.381 0 2.5 1.119 2.5 2.5s-1.119 2.5-2.5 2.5c-3.706 0-6.721 3.015-6.721 6.722 0 3.706 3.015 6.721 6.721 6.721 1.381 0 2.5 1.119 2.5 2.5s-1.119 2.5-2.5 2.5z"/></g><g><path d="m169.641 91.877c-1.381 0-2.5-1.119-2.5-2.5s1.119-2.5 2.5-2.5c3.706 0 6.721-3.015 6.721-6.721 0-3.707-3.015-6.722-6.721-6.722-1.381 0-2.5-1.119-2.5-2.5s1.119-2.5 2.5-2.5c6.463 0 11.721 5.258 11.721 11.722-.001 6.463-5.258 11.721-11.721 11.721z"/></g><g><g><path d="m128.035 146.179c-6.128 0-12.252-1.855-17.48-5.566l-.15-.106c-16.128-11.451-25.755-29.369-25.755-47.934v-26.635c0-1.381 1.119-2.5 2.5-2.5s2.5 1.119 2.5 2.5v26.634c0 16.948 8.84 33.343 23.647 43.855l.15.106c8.726 6.194 20.451 6.194 29.177.001l.147-.105c14.812-10.516 23.652-26.911 23.652-43.858v-26.696c0-1.381 1.119-2.5 2.5-2.5s2.5 1.119 2.5 2.5v26.698c0 18.564-9.628 36.483-25.754 47.933l-.147.105c-5.23 3.711-11.36 5.567-17.487 5.568z"/></g></g><g><path d="m123.88 38.555c-1.061 0-2.045-.68-2.382-1.746-1.396-4.407-2.722-12.258-4.17-24.707-.358-3.085.619-6.188 2.684-8.512 2.021-2.275 4.91-3.584 7.926-3.591h.022c3.16 0 6.031 1.269 8.089 3.574 2.072 2.323 3.055 5.432 2.695 8.528-1.443 12.405-2.765 20.245-4.158 24.674-.415 1.317-1.825 2.048-3.135 1.634-1.317-.415-2.049-1.818-1.635-3.135 1.9-6.04 3.451-19.37 3.961-23.75.195-1.679-.337-3.363-1.46-4.622-1.094-1.226-2.641-1.902-4.356-1.902-.004 0-.009 0-.013 0-1.615.004-3.106.683-4.198 1.912-1.119 1.26-1.649 2.941-1.455 4.613.512 4.396 2.067 17.772 3.969 23.775.417 1.316-.312 2.721-1.628 3.138-.251.08-.506.117-.756.117z"/></g><g><path d="m128.036 69.656c-9.685 0-15.825-3.761-19.603-6.589-1.104-.828-1.33-2.395-.502-3.5s2.393-1.33 3.5-.502c3.476 2.603 8.504 5.591 16.604 5.591 8.014 0 12.962-2.915 16.379-5.455 1.107-.824 2.673-.593 3.498.515.823 1.108.593 2.674-.516 3.498-3.718 2.765-9.773 6.442-19.36 6.442z"/></g><g><path d="m128.476 126.467c-7.716 0-14.805-3.543-19.448-9.72-1.393-1.853-3.384-3.356-5.756-4.347-5.896-2.461-9.437-8.243-9.471-15.467v-24.338c0-2.517.494-4.992 1.468-7.357.525-1.277 1.986-1.886 3.264-1.36 1.276.525 1.885 1.987 1.359 3.263-.724 1.758-1.091 3.593-1.091 5.454v24.327c.024 5.214 2.356 9.178 6.396 10.865 3.193 1.333 5.899 3.393 7.826 5.957 3.69 4.909 9.323 7.724 15.452 7.724 6.248 0 12.141-3.048 15.764-8.153 1.69-2.381 4.098-4.333 7.154-5.802 5.019-2.414 5.792-7.679 5.806-10.603v-24.315c0-1.96-.405-3.886-1.204-5.724-.55-1.267.03-2.739 1.297-3.29 1.264-.55 2.738.03 3.289 1.296 1.073 2.471 1.618 5.068 1.618 7.717v24.327c-.033 6.975-3.183 12.472-8.64 15.096-2.284 1.099-4.049 2.508-5.243 4.19-4.558 6.425-11.975 10.26-19.84 10.26z"/></g><g><path d="m53.837 236.276c-7.715 0-14.804-3.543-19.447-9.72-1.393-1.853-3.384-3.355-5.757-4.347-5.896-2.46-9.436-8.242-9.47-15.467l-.001-.167v-24.171c0-4.989 1.891-9.731 5.323-13.353 3.071-3.219 7.967-3.559 11.439-.841 3.951 3.093 9.118 6.254 17.473 6.254 8.317 0 13.448-3.139 17.369-6.208 3.47-2.718 8.542-2.33 11.552.881h-.001c3.382 3.61 5.244 8.322 5.244 13.267l-.001 24.374c-.032 6.927-3.182 12.425-8.64 15.049-2.285 1.099-4.049 2.509-5.241 4.19-4.56 6.424-11.978 10.259-19.842 10.259zm-23.19-64.893c-.916 0-1.82.36-2.493 1.066-2.589 2.73-3.992 6.25-3.992 9.955l.001 24.279c.024 5.262 2.355 9.227 6.396 10.912 3.194 1.334 5.901 3.394 7.827 5.957 3.69 4.909 9.322 7.724 15.451 7.724 6.248 0 12.142-3.048 15.765-8.153 1.688-2.379 4.096-4.332 7.152-5.802 5.021-2.414 5.793-7.678 5.807-10.602l.001-.144v-24.171c0-3.671-1.383-7.169-3.893-9.849h-.001c-1.211-1.294-3.418-1.459-4.819-.362-4.324 3.386-10.557 7.272-20.451 7.272-9.932 0-16.201-3.91-20.555-7.317-.655-.513-1.429-.765-2.196-.765z"/></g><g><path d="m203.113 236.276c-7.715 0-14.804-3.543-19.447-9.72-1.393-1.853-3.384-3.355-5.757-4.347-5.896-2.46-9.436-8.242-9.47-15.467l-.001-.167v-24.171c0-4.989 1.891-9.731 5.323-13.353 3.07-3.219 7.967-3.559 11.439-.841 3.951 3.093 9.118 6.254 17.473 6.254 8.317 0 13.448-3.139 17.369-6.208 3.47-2.718 8.543-2.33 11.552.881h-.001c3.382 3.61 5.244 8.322 5.244 13.267l-.001 24.374c-.032 6.927-3.182 12.425-8.64 15.049-2.285 1.099-4.049 2.509-5.241 4.19-4.559 6.424-11.977 10.259-19.842 10.259zm-23.189-64.893c-.916 0-1.82.36-2.493 1.066-2.589 2.73-3.992 6.25-3.992 9.955l.001 24.279c.024 5.262 2.355 9.227 6.396 10.912 3.194 1.334 5.901 3.394 7.827 5.957 3.69 4.909 9.322 7.724 15.451 7.724 6.248 0 12.142-3.048 15.765-8.153 1.688-2.379 4.096-4.332 7.152-5.802 5.021-2.414 5.793-7.678 5.807-10.602l.001-.144v-24.171c0-3.671-1.383-7.169-3.893-9.849 0 0 0 0-.001 0-1.211-1.294-3.418-1.459-4.819-.362-4.324 3.386-10.557 7.272-20.451 7.272-9.932 0-16.201-3.91-20.555-7.317-.655-.513-1.43-.765-2.196-.765z"/></g><g><path d="m164.971 68.689c-16.924 0-28.004-11.828-32.043-17.01-.849-1.089-.654-2.66.435-3.509 1.092-.849 2.659-.654 3.509.435 3.666 4.704 13.826 15.587 29.174 15.066 1.905-.065 3.455-1.715 3.455-3.679v-3.797c0-2.424-1.536-4.573-3.823-5.348-6.019-2.041-17.804-5.622-29.112-6.669-1.375-.127-2.387-1.345-2.259-2.72.127-1.375 1.347-2.392 2.72-2.259 11.819 1.095 24.03 4.801 30.257 6.913 4.317 1.463 7.218 5.516 7.218 10.083v3.797c0 4.708-3.64 8.519-8.285 8.676-.419.015-.835.021-1.246.021z"/></g><g><path d="m91.027 68.689c-.411 0-.824-.007-1.242-.021-4.645-.157-8.285-3.968-8.285-8.676v-3.797c0-4.568 2.901-8.62 7.219-10.083 6.186-2.098 18.321-5.784 30.095-6.897 1.373-.136 2.594.879 2.725 2.253.13 1.375-.879 2.594-2.254 2.724-11.267 1.066-22.98 4.627-28.96 6.655-2.287.775-3.824 2.924-3.824 5.348v3.797c0 1.964 1.55 3.614 3.455 3.679 15.263.529 25.465-10.324 29.132-15.01.85-1.086 2.42-1.28 3.509-.429 1.088.851 1.279 2.422.429 3.51-4.041 5.163-15.119 16.946-31.999 16.947z"/></g><g><path d="m119.753 42.805c-.607 0-1.217-.22-1.697-.666-2.525-2.338-5.513-5.281-9.134-8.997-1.892-1.94-2.865-4.602-2.672-7.302.193-2.689 1.503-5.094 3.687-6.771 1.997-1.533 4.48-2.172 6.983-1.801 2.454.363 4.636 1.645 6.143 3.61.841 1.096.634 2.665-.462 3.505-1.098.84-2.665.632-3.505-.462-.713-.929-1.745-1.535-2.907-1.707-1.159-.173-2.296.121-3.208.821-1.035.795-1.654 1.918-1.744 3.163-.092 1.276.37 2.536 1.266 3.455 3.561 3.654 6.488 6.539 8.949 8.817 1.014.938 1.074 2.52.136 3.533-.492.533-1.162.802-1.835.802z"/></g><g><path d="m136.317 42.74c-.672 0-1.342-.269-1.834-.8-.938-1.013-.879-2.594.133-3.533 2.441-2.264 5.346-5.127 8.881-8.754.896-.919 1.357-2.178 1.266-3.455-.09-1.245-.709-2.368-1.745-3.163-1.799-1.38-4.406-1.091-5.935.658-.909 1.039-2.488 1.145-3.528.236-1.039-.909-1.145-2.489-.235-3.528 3.262-3.729 8.857-4.312 12.742-1.333 2.186 1.678 3.495 4.083 3.688 6.771.193 2.7-.78 5.362-2.673 7.303-3.594 3.687-6.558 6.608-9.061 8.93-.481.448-1.09.668-1.699.668z"/></g><g><path d="m128 54.979c-6.065 0-11-4.935-11-11s4.935-11 11-11 11 4.935 11 11-4.935 11-11 11zm0-17c-3.309 0-6 2.691-6 6s2.691 6 6 6 6-2.691 6-6-2.691-6-6-6z"/></g><g><path d="m45.526 217.558c-4.506 0-9.873-1.391-14.208-6.584-.943-1.13-1.127-2.711-.468-4.028.663-1.326 2.062-2.131 3.531-2.053 2.504.131 6.554-.223 11.696-2.663 2.396-1.137 5.196-.824 7.283.74 2.087-1.563 4.883-1.879 7.283-.74 5.143 2.439 9.206 2.799 11.697 2.663 1.491-.08 2.867.728 3.531 2.053.659 1.316.476 2.897-.468 4.028-7.326 8.778-17.604 6.693-21.684 5.389-.235-.076-.485-.075-.721 0-1.662.532-4.362 1.195-7.472 1.195zm-8.243-7.726c5.143 3.988 11.471 2.64 14.195 1.768 1.231-.394 2.532-.394 3.766 0 2.725.871 9.054 2.22 14.196-1.768-2.903-.239-6.635-1.043-10.938-3.084 0 0 0 0-.001 0-.993-.472-1.921-.047-2.411.461-.704.735-1.699 1.157-2.727 1.158 0 0-.001 0-.002 0-1.027 0-2.021-.422-2.729-1.157-.489-.509-1.414-.936-2.412-.462-4.302 2.041-8.033 2.845-10.937 3.084zm15.203-6.089c-.001 0-.001.001-.002.002.001 0 .001-.001.002-.002z"/></g><g><path d="m194.803 217.558c-4.506 0-9.873-1.391-14.208-6.584-.943-1.13-1.127-2.711-.468-4.028.663-1.326 2.065-2.131 3.531-2.053 2.503.131 6.554-.223 11.696-2.663 2.396-1.137 5.196-.824 7.283.74 2.088-1.563 4.883-1.879 7.283-.74 5.143 2.439 9.204 2.799 11.697 2.663 1.492-.08 2.867.728 3.531 2.053.659 1.316.476 2.897-.468 4.028-7.325 8.778-17.604 6.693-21.684 5.389-.235-.076-.485-.075-.721 0-1.663.532-4.363 1.195-7.472 1.195zm-8.243-7.726c5.143 3.988 11.471 2.64 14.195 1.768 1.23-.394 2.531-.394 3.766 0 2.724.871 9.053 2.22 14.196-1.768-2.903-.239-6.635-1.043-10.938-3.084 0 0 0 0-.001 0-.992-.472-1.921-.047-2.411.461-.704.735-1.699 1.157-2.727 1.158 0 0-.001 0-.002 0-1.027 0-2.021-.422-2.729-1.157-.489-.509-1.412-.936-2.412-.462-4.303 2.041-8.034 2.845-10.937 3.084zm15.203-6.089c-.001 0-.001.001-.002.002.001 0 .001-.001.002-.002z"/></g><g><path d="m120.164 107.749c-4.506 0-9.873-1.391-14.208-6.584-.943-1.13-1.127-2.711-.469-4.027.664-1.326 2.061-2.13 3.531-2.054 2.502.131 6.557-.224 11.698-2.662 2.397-1.138 5.196-.824 7.283.739 2.086-1.563 4.884-1.877 7.283-.739 5.143 2.439 9.208 2.793 11.697 2.662 1.492-.077 2.869.729 3.532 2.054.658 1.316.475 2.897-.469 4.027-7.324 8.777-17.604 6.693-21.684 5.389-.232-.074-.489-.074-.72 0-1.663.532-4.364 1.195-7.474 1.195zm-8.243-7.726c5.145 3.988 11.471 2.638 14.197 1.768 1.23-.395 2.532-.394 3.765 0 2.725.871 9.054 2.22 14.196-1.768-2.903-.239-6.635-1.043-10.938-3.084-.998-.474-1.923-.047-2.411.461-.708.736-1.702 1.158-2.729 1.158s-2.021-.422-2.729-1.157c-.488-.51-1.413-.938-2.411-.462-4.304 2.04-8.037 2.845-10.94 3.084z"/></g></g></g></svg>