<svg enable-background="new 0 0 256 256" height="512" viewBox="0 0 256 256" width="512" xmlns="http://www.w3.org/2000/svg"><g id="Layer_59"><g><g><path d="m225.904 164.314h-195.808c-1.986 0-3.596-1.61-3.596-3.596v-4.198c0-1.986 1.61-3.596 3.596-3.596h195.809c1.986 0 3.596 1.61 3.596 3.596v4.198c-.001 1.986-1.611 3.596-3.597 3.596z" fill="#c18e6b"/></g><g><path d="m177.121 253.5h-98.242c-1.654 0-2.994-1.341-2.994-2.995v-5.4c0-1.654 1.341-2.994 2.994-2.994h98.241c1.654 0 2.995 1.341 2.995 2.994v5.4c0 1.654-1.341 2.995-2.994 2.995z" fill="#c18e6b"/></g><g><g><path d="m173.035 242.111v-1.77c0-5.841-4.779-10.619-10.619-10.619h-68.832c-5.841 0-10.619 4.779-10.619 10.619v1.77z" fill="#a57453"/></g></g><g><path d="m51.549 176.314v5.407c0 6.005 3.984 11.264 9.754 12.924 12.823 3.688 34.088 6.839 37.148 20.917 1.242 5.715-.101 10.45-2.294 14.159h63.686c-2.193-3.71-3.537-8.445-2.294-14.159 3.061-14.078 24.326-17.229 37.148-20.917 5.771-1.66 9.754-6.919 9.754-12.924v-5.407z" fill="#754e34"/></g><g><path d="m40.487 164.314v8.404c0 1.986 1.61 3.596 3.596 3.596h167.835c1.986 0 3.595-1.61 3.595-3.596v-8.404z" fill="#a57453"/></g><g><path d="m53.225 76.848c-.056-1.622-1.387-2.908-3.01-2.908h-6.18c-1.623 0-2.954 1.286-3.01 2.908l-2.9 76.077h18z" fill="#87d147"/></g><g><path d="m48.863 38.945c-1.08-.593-2.395-.593-3.475 0-5.094 2.797-8.549 8.204-8.549 14.426s3.456 11.629 8.549 14.426c1.08.593 2.395.593 3.475 0 5.094-2.797 8.549-8.204 8.549-14.426s-3.456-11.629-8.549-14.426z" fill="#f5c84c"/></g><g><path d="m80.891 64.848c-.056-1.622-1.387-2.908-3.01-2.908h-6.18c-1.623 0-2.954 1.286-3.01 2.908l-2.9 88.077h18z" fill="#87d147"/></g><g><path d="m76.529 26.945c-1.08-.593-2.395-.593-3.475 0-5.094 2.797-8.549 8.204-8.549 14.426s3.456 11.629 8.549 14.426c1.08.593 2.395.593 3.475 0 5.094-2.797 8.549-8.204 8.549-14.426s-3.455-11.629-8.549-14.426z" fill="#f5c84c"/></g><g><path d="m108.558 52.848c-.056-1.622-1.387-2.908-3.01-2.908h-6.18c-1.623 0-2.954 1.286-3.01 2.908l-2.9 100.077h18z" fill="#87d147"/></g><g><path d="m104.196 14.945c-1.08-.593-2.395-.593-3.475 0-5.094 2.797-8.549 8.204-8.549 14.426s3.456 11.629 8.549 14.426c1.08.593 2.395.593 3.475 0 5.094-2.797 8.549-8.204 8.549-14.426s-3.455-11.629-8.549-14.426z" fill="#f5c84c"/></g><g><path d="m163.891 52.848c-.056-1.622-1.387-2.908-3.01-2.908h-6.18c-1.623 0-2.954 1.286-3.01 2.908l-2.9 100.077h18z" fill="#f5c84c"/></g><g><path d="m159.529 14.945c-1.08-.593-2.395-.593-3.475 0-5.094 2.797-8.549 8.204-8.549 14.426s3.456 11.629 8.549 14.426c1.08.593 2.395.593 3.475 0 5.094-2.797 8.549-8.204 8.549-14.426s-3.455-11.629-8.549-14.426z" fill="#f5c84c"/></g><g><path d="m136.225 40.848c-.056-1.622-1.387-2.908-3.01-2.908h-6.18c-1.623 0-2.954 1.286-3.01 2.908l-2.9 112.077h18z" fill="#fc657e"/></g><g><path d="m131.863 2.945c-1.08-.593-2.395-.593-3.475 0-5.094 2.797-8.549 8.204-8.549 14.426s3.456 11.629 8.549 14.426c1.08.593 2.395.593 3.475 0 5.094-2.797 8.549-8.204 8.549-14.426s-3.456-11.629-8.549-14.426z" fill="#f5c84c"/></g><g><path d="m191.558 64.848c-.056-1.622-1.387-2.908-3.01-2.908h-6.18c-1.623 0-2.954 1.286-3.01 2.908l-2.9 88.077h18z" fill="#f5c84c"/></g><g><path d="m187.196 26.945c-1.08-.593-2.395-.593-3.475 0-5.094 2.797-8.549 8.204-8.549 14.426s3.456 11.629 8.549 14.426c1.08.593 2.395.593 3.475 0 5.094-2.797 8.549-8.204 8.549-14.426s-3.455-11.629-8.549-14.426z" fill="#f5c84c"/></g><g><path d="m219.225 76.848c-.056-1.622-1.387-2.908-3.01-2.908h-6.18c-1.623 0-2.954 1.286-3.01 2.908l-2.9 76.077h18z" fill="#f5c84c"/></g><g><path d="m214.863 38.945c-1.08-.593-2.395-.593-3.475 0-5.094 2.797-8.549 8.204-8.549 14.426s3.456 11.629 8.549 14.426c1.08.593 2.395.593 3.475 0 5.094-2.797 8.549-8.204 8.549-14.426s-3.456-11.629-8.549-14.426z" fill="#f5c84c"/></g><g><path d="m48.177 50.509c-.654-.359-1.45-.359-2.103 0-3.083 1.693-5.175 4.966-5.175 8.732s2.092 7.039 5.175 8.732c.654.359 1.45.359 2.103 0 3.083-1.693 5.175-4.966 5.175-8.732-.001-3.766-2.092-7.039-5.175-8.732z" fill="#fca265"/></g><g><path d="m75.843 38.509c-.654-.359-1.45-.359-2.103 0-3.083 1.693-5.175 4.966-5.175 8.732s2.092 7.039 5.175 8.732c.654.359 1.45.359 2.103 0 3.083-1.693 5.175-4.966 5.175-8.732s-2.092-7.039-5.175-8.732z" fill="#fca265"/></g><g><path d="m103.51 26.509c-.654-.359-1.45-.359-2.103 0-3.083 1.693-5.175 4.966-5.175 8.732s2.092 7.039 5.175 8.732c.654.359 1.45.359 2.103 0 3.083-1.693 5.175-4.966 5.175-8.732s-2.092-7.039-5.175-8.732z" fill="#fca265"/></g><g><path d="m158.843 26.509c-.654-.359-1.45-.359-2.103 0-3.083 1.693-5.175 4.966-5.175 8.732s2.092 7.039 5.175 8.732c.654.359 1.45.359 2.103 0 3.083-1.693 5.175-4.966 5.175-8.732s-2.092-7.039-5.175-8.732z" fill="#fca265"/></g><g><path d="m131.177 14.509c-.654-.359-1.45-.359-2.103 0-3.083 1.693-5.175 4.966-5.175 8.732s2.092 7.039 5.175 8.732c.654.359 1.45.359 2.103 0 3.083-1.693 5.175-4.966 5.175-8.732s-2.092-7.039-5.175-8.732z" fill="#fca265"/></g><g><path d="m186.51 38.509c-.654-.359-1.45-.359-2.103 0-3.083 1.693-5.175 4.966-5.175 8.732s2.092 7.039 5.175 8.732c.654.359 1.45.359 2.103 0 3.083-1.693 5.175-4.966 5.175-8.732s-2.092-7.039-5.175-8.732z" fill="#fca265"/></g><g><path d="m214.177 50.509c-.654-.359-1.45-.359-2.103 0-3.083 1.693-5.175 4.966-5.175 8.732s2.092 7.039 5.175 8.732c.654.359 1.45.359 2.103 0 3.083-1.693 5.175-4.966 5.175-8.732-.001-3.766-2.092-7.039-5.175-8.732z" fill="#fca265"/></g><g><path d="m212.35 20.2c-3.1-.6-5.6-3-6.2-6.1 0-.1-.3-.1-.3 0-.6 3.1-3.1 5.5-6.2 6.1-.1 0-.1.2 0 .3 3.1.6 5.6 3 6.2 6.1 0 .1.3.1.3 0 .6-3.1 3.1-5.5 6.2-6.1.1-.1.1-.3 0-.3z" fill="#70d6f9"/></g><g><path d="m43.9 19.9h2.3v2.3c0 1.8 1.4 3.2 3.2 3.2 1.7 0 3.2-1.4 3.2-3.1v-.1-2.3h2.3c1.8 0 3.2-1.4 3.2-3.2 0-1.7-1.4-3.2-3.1-3.2h-.1-2.3v-2.3c0-1.8-1.4-3.2-3.2-3.2-1.7 0-3.2 1.4-3.2 3.1v.1 2.3h-2.3c-1.8 0-3.2 1.4-3.2 3.2-.1 1.7 1.3 3.2 3.2 3.2-.1 0-.1 0 0 0z" fill="#fc657e"/></g><g><circle cx="78.3" cy="3.4" fill="#f5c84c" r="3.4"/></g><g><circle cx="200.3" cy="252.6" fill="#87d147" r="3.4"/></g><g><path d="m203.7 226.2c4.5-.8 8-4.3 8.9-8.7 0-.2.4-.2.4 0 .9 4.4 4.4 7.9 8.9 8.7.2 0 .2.3 0 .4-4.5.8-8 4.3-8.9 8.7 0 .2-.4.2-.4 0-.9-4.4-4.4-7.9-8.9-8.7-.2-.1-.2-.4 0-.4z" fill="#f5c84c"/></g><g><path d="m225.904 166.814h-195.808c-3.361 0-6.096-2.734-6.096-6.096v-4.198c0-3.361 2.734-6.096 6.096-6.096h195.809c3.361 0 6.096 2.734 6.096 6.096v4.198c-.001 3.362-2.735 6.096-6.097 6.096zm-195.808-11.389c-.604 0-1.096.491-1.096 1.096v4.198c0 .604.491 1.096 1.096 1.096h195.809c.604 0 1.096-.491 1.096-1.096v-4.198c0-.604-.491-1.096-1.096-1.096z"/></g><g><path d="m177.12 256h-98.24c-3.03 0-5.495-2.465-5.495-5.494v-5.4c0-3.03 2.465-5.495 5.495-5.495h98.24c3.03 0 5.495 2.465 5.495 5.495v5.4c0 3.029-2.465 5.494-5.495 5.494zm-98.24-11.39c-.273 0-.495.222-.495.495v5.4c0 .272.222.494.495.494h98.24c.273 0 .495-.222.495-.494v-5.4c0-.273-.222-.495-.495-.495z"/></g><g><g><path d="m173.035 243.875c-1.381 0-2.5-1.119-2.5-2.5v-1.034c0-4.477-3.643-8.119-8.119-8.119h-68.832c-4.477 0-8.119 3.643-8.119 8.119v.878c0 1.381-1.119 2.5-2.5 2.5s-2.5-1.119-2.5-2.5v-.878c0-7.234 5.885-13.119 13.119-13.119h68.832c7.234 0 13.119 5.885 13.119 13.119v1.034c0 1.381-1.119 2.5-2.5 2.5z"/></g></g><g><path d="m159.518 231.648c-.881 0-1.735-.467-2.191-1.293-2.643-4.792-3.39-9.948-2.221-15.325 2.937-13.506 19.507-17.756 32.821-21.171 2.17-.557 4.22-1.083 6.079-1.617 4.678-1.346 7.945-5.673 7.945-10.521v-4.502c0-1.381 1.119-2.5 2.5-2.5s2.5 1.119 2.5 2.5v4.502c0 7.065-4.755 13.368-11.563 15.326-1.93.555-4.014 1.09-6.22 1.655-11.983 3.074-26.896 6.899-29.177 17.391-.905 4.16-.329 8.146 1.713 11.849.666 1.209.227 2.729-.982 3.396-.382.211-.796.31-1.204.31z"/></g><g><path d="m96.592 231.447c-.399 0-.805-.096-1.182-.298-1.216-.653-1.672-2.17-1.019-3.386 1.962-3.651 2.506-7.578 1.616-11.671-2.28-10.491-17.193-14.316-29.177-17.391-2.206-.565-4.29-1.101-6.22-1.655-6.808-1.958-11.563-8.261-11.563-15.326v-4.72c0-1.381 1.119-2.5 2.5-2.5s2.5 1.119 2.5 2.5v4.721c0 4.849 3.268 9.176 7.945 10.521 1.859.534 3.909 1.061 6.079 1.617 13.314 3.415 29.885 7.665 32.821 21.171 1.149 5.29.443 10.371-2.099 15.101-.448.84-1.311 1.316-2.201 1.316z"/></g><g><path d="m211.918 178.814h-167.836c-3.361 0-6.096-2.734-6.096-6.096v-7.511c0-1.381 1.119-2.5 2.5-2.5s2.5 1.119 2.5 2.5v7.511c0 .604.491 1.096 1.096 1.096h167.836c.604 0 1.096-.491 1.096-1.096v-7.469c0-1.381 1.119-2.5 2.5-2.5s2.5 1.119 2.5 2.5v7.469c0 3.362-2.735 6.096-6.096 6.096z"/></g><g><path d="m47.125 74.997c-1.381 0-2.5-1.119-2.5-2.5v-2.286c0-1.381 1.119-2.5 2.5-2.5s2.5 1.119 2.5 2.5v2.286c0 1.381-1.119 2.5-2.5 2.5z"/></g><g><path d="m74.792 62.997c-1.381 0-2.5-1.119-2.5-2.5v-2.286c0-1.381 1.119-2.5 2.5-2.5s2.5 1.119 2.5 2.5v2.286c0 1.381-1.119 2.5-2.5 2.5z"/></g><g><path d="m102.458 50.997c-1.381 0-2.5-1.119-2.5-2.5v-2.286c0-1.381 1.119-2.5 2.5-2.5s2.5 1.119 2.5 2.5v2.286c0 1.381-1.119 2.5-2.5 2.5z"/></g><g><path d="m157.792 50.997c-1.381 0-2.5-1.119-2.5-2.5v-2.286c0-1.381 1.119-2.5 2.5-2.5s2.5 1.119 2.5 2.5v2.286c0 1.381-1.119 2.5-2.5 2.5z"/></g><g><path d="m130.125 38.997c-1.381 0-2.5-1.119-2.5-2.5v-2.286c0-1.381 1.119-2.5 2.5-2.5s2.5 1.119 2.5 2.5v2.286c0 1.381-1.119 2.5-2.5 2.5z"/></g><g><path d="m185.458 62.997c-1.381 0-2.5-1.119-2.5-2.5v-2.286c0-1.381 1.119-2.5 2.5-2.5s2.5 1.119 2.5 2.5v2.286c0 1.381-1.119 2.5-2.5 2.5z"/></g><g><path d="m213.125 74.997c-1.381 0-2.5-1.119-2.5-2.5v-2.286c0-1.381 1.119-2.5 2.5-2.5s2.5 1.119 2.5 2.5v2.286c0 1.381-1.119 2.5-2.5 2.5z"/></g><g><path d="m47.125 70.746c-1.01 0-2.021-.253-2.941-.76-6.072-3.334-9.846-9.701-9.846-16.616 0-6.914 3.773-13.281 9.847-16.616 1.839-1.012 4.039-1.014 5.882.001 6.073 3.335 9.846 9.701 9.846 16.615 0 6.915-3.773 13.282-9.847 16.617-.92.506-1.93.759-2.941.759zm0-29.745c-.185 0-.368.045-.533.135-4.475 2.457-7.254 7.146-7.254 12.234 0 5.09 2.779 9.778 7.253 12.234.33.182.739.181 1.067.001 4.475-2.457 7.254-7.146 7.254-12.235s-2.779-9.777-7.253-12.233c-.001 0-.001 0-.001-.001-.165-.09-.348-.135-.533-.135z"/></g><g><path d="m74.792 58.746c-1.01 0-2.021-.253-2.941-.759-6.073-3.335-9.846-9.702-9.846-16.617 0-6.914 3.772-13.281 9.846-16.616 1.842-1.012 4.04-1.012 5.882 0 6.073 3.335 9.846 9.701 9.846 16.616s-3.772 13.282-9.846 16.617c-.921.506-1.93.759-2.941.759zm0-29.745c-.185 0-.37.045-.535.136-4.473 2.457-7.252 7.145-7.252 12.233 0 5.09 2.779 9.777 7.252 12.234.33.182.74.181 1.068.001 4.474-2.457 7.253-7.146 7.253-12.235s-2.779-9.777-7.252-12.233c0 0-.001 0-.001-.001-.164-.09-.348-.135-.533-.135z"/></g><g><path d="m102.458 46.746c-1.011 0-2.021-.253-2.941-.76-6.072-3.334-9.845-9.701-9.845-16.616s3.772-13.281 9.846-16.616c1.838-1.012 4.038-1.013 5.882 0 6.073 3.335 9.846 9.702 9.846 16.616 0 6.915-3.772 13.282-9.846 16.617-.921.506-1.932.759-2.942.759zm0-29.745c-.185 0-.369.045-.533.135-4.474 2.457-7.253 7.145-7.253 12.234s2.779 9.778 7.252 12.234c.331.183.74.182 1.069 0 4.473-2.457 7.252-7.145 7.252-12.234s-2.779-9.776-7.252-12.233c-.165-.091-.35-.136-.535-.136z"/></g><g><path d="m157.792 46.746c-1.01 0-2.021-.253-2.941-.759-6.073-3.335-9.846-9.702-9.846-16.617 0-6.914 3.772-13.281 9.846-16.616 1.842-1.012 4.04-1.012 5.882 0 6.073 3.335 9.846 9.701 9.846 16.616s-3.772 13.282-9.846 16.617c-.92.506-1.93.759-2.941.759zm0-29.745c-.185 0-.37.045-.535.136-4.473 2.457-7.252 7.145-7.252 12.233 0 5.09 2.779 9.777 7.252 12.234.33.182.74.181 1.068.001 4.474-2.457 7.253-7.146 7.253-12.235s-2.779-9.777-7.252-12.233c0 0-.001 0-.001-.001-.164-.09-.348-.135-.533-.135z"/></g><g><path d="m130.125 34.746c-1.01 0-2.021-.253-2.941-.76-6.072-3.334-9.846-9.701-9.846-16.616 0-6.914 3.773-13.281 9.847-16.616 1.839-1.012 4.039-1.014 5.882.001 6.073 3.335 9.846 9.701 9.846 16.615 0 6.915-3.773 13.282-9.847 16.617-.92.506-1.93.759-2.941.759zm0-29.745c-.185 0-.368.045-.533.135-4.475 2.457-7.254 7.146-7.254 12.234 0 5.09 2.779 9.778 7.253 12.234.33.182.739.181 1.067.001 4.475-2.457 7.254-7.146 7.254-12.235s-2.779-9.777-7.253-12.233c-.001 0-.001 0-.001-.001-.165-.09-.348-.135-.533-.135z"/></g><g><path d="m185.458 58.746c-1.011 0-2.021-.253-2.941-.76-6.072-3.334-9.845-9.701-9.845-16.616s3.772-13.281 9.846-16.616c1.838-1.012 4.038-1.013 5.882 0 6.073 3.335 9.846 9.702 9.846 16.616 0 6.915-3.772 13.282-9.846 16.617-.921.506-1.932.759-2.942.759zm0-29.745c-.185 0-.369.045-.533.135-4.474 2.457-7.253 7.145-7.253 12.234s2.779 9.778 7.252 12.234c.331.183.74.183 1.069 0 4.473-2.457 7.252-7.145 7.252-12.234s-2.779-9.776-7.252-12.233c-.165-.091-.35-.136-.535-.136z"/></g><g><path d="m38.159 154.587c-.032 0-.064-.001-.098-.002-1.379-.053-2.455-1.214-2.402-2.594l2.868-75.239c.102-2.975 2.521-5.313 5.508-5.313h6.18c2.986 0 5.406 2.338 5.508 5.322l2.868 75.229c.053 1.38-1.023 2.541-2.402 2.594-1.409.049-2.541-1.023-2.594-2.402l-2.868-75.238c-.01-.287-.234-.504-.512-.504h-6.18c-.277 0-.502.217-.512.494l-2.868 75.249c-.051 1.346-1.16 2.404-2.496 2.404z"/></g><g><path d="m83.762 154.585c-1.343 0-2.452-1.065-2.497-2.418l-2.872-87.237c-.009-.273-.233-.49-.511-.49h-6.18c-.277 0-.502.217-.512.494l-2.872 87.233c-.045 1.353-1.155 2.418-2.497 2.418-.028 0-.057 0-.084-.001-1.38-.046-2.462-1.201-2.417-2.581l2.873-87.237c.103-2.988 2.522-5.326 5.509-5.326h6.18c2.986 0 5.406 2.338 5.508 5.322l2.873 87.241c.045 1.38-1.037 2.535-2.417 2.581-.028.001-.056.001-.084.001z"/></g><g><path d="m111.433 154.584c-1.348 0-2.459-1.072-2.498-2.428l-2.876-99.236c-.009-.264-.233-.48-.511-.48h-6.18c-.277 0-.502.217-.512.494l-2.875 99.223c-.04 1.38-1.207 2.492-2.571 2.427-1.38-.04-2.467-1.191-2.427-2.571l2.876-99.236c.103-2.998 2.522-5.336 5.509-5.336h6.18c2.986 0 5.406 2.338 5.508 5.322l2.877 99.25c.04 1.38-1.047 2.531-2.427 2.571-.025 0-.049 0-.073 0z"/></g><g><path d="m166.767 154.584c-1.348 0-2.459-1.072-2.498-2.428l-2.876-99.236c-.009-.264-.233-.48-.511-.48h-6.18c-.277 0-.502.217-.512.494l-2.875 99.223c-.039 1.38-1.219 2.492-2.571 2.427-1.38-.04-2.467-1.191-2.427-2.571l2.876-99.236c.103-2.998 2.522-5.336 5.509-5.336h6.18c2.986 0 5.406 2.338 5.508 5.322l2.877 99.25c.04 1.38-1.047 2.531-2.427 2.571-.025 0-.049 0-.073 0z"/></g><g><path d="m139.103 154.584c-1.351 0-2.463-1.077-2.498-2.436l-2.879-111.236c-.009-.256-.233-.473-.511-.473h-6.18c-.277 0-.502.217-.512.494l-2.878 111.215c-.035 1.381-1.153 2.479-2.563 2.435-1.381-.035-2.471-1.184-2.435-2.563l2.879-111.236c.103-3.006 2.522-5.344 5.509-5.344h6.18c2.986 0 5.406 2.338 5.508 5.322l2.88 111.258c.036 1.38-1.054 2.528-2.435 2.563-.022.001-.044.001-.065.001z"/></g><g><path d="m194.429 154.584c-1.343 0-2.452-1.065-2.497-2.418l-2.873-87.236c-.009-.273-.233-.49-.511-.49h-6.18c-.277 0-.502.217-.512.494l-2.871 87.232c-.046 1.381-1.243 2.478-2.581 2.417-1.38-.046-2.462-1.201-2.417-2.581l2.872-87.236c.103-2.988 2.522-5.326 5.509-5.326h6.18c2.986 0 5.406 2.338 5.508 5.322l2.874 87.24c.045 1.38-1.037 2.535-2.417 2.581-.028.001-.056.001-.084.001z"/></g><g><path d="m204.152 154.75c-.032 0-.064-.001-.098-.002-1.379-.053-2.455-1.214-2.402-2.594l2.875-75.402c.102-2.975 2.521-5.313 5.508-5.313h6.18c2.986 0 5.406 2.338 5.508 5.322l2.875 75.391c.053 1.38-1.023 2.541-2.402 2.594-1.418.053-2.542-1.023-2.594-2.402l-2.875-75.4c-.01-.287-.234-.504-.512-.504h-6.18c-.277 0-.502.217-.512.494l-2.875 75.412c-.05 1.346-1.16 2.404-2.496 2.404z"/></g><g><path d="m213.125 70.746c-1.01 0-2.021-.253-2.941-.76-6.072-3.334-9.846-9.701-9.846-16.616 0-6.914 3.773-13.281 9.847-16.616 1.839-1.012 4.039-1.014 5.882.001 6.073 3.335 9.846 9.701 9.846 16.615 0 6.915-3.773 13.282-9.847 16.617-.92.506-1.93.759-2.941.759zm0-29.745c-.185 0-.368.045-.533.135-4.475 2.457-7.254 7.146-7.254 12.234 0 5.09 2.779 9.778 7.253 12.234.33.182.739.181 1.067.001 4.475-2.457 7.254-7.146 7.254-12.235s-2.779-9.777-7.253-12.233c-.001 0-.001 0-.001-.001-.165-.09-.348-.135-.533-.135z"/></g><g><path d="m47.125 70.745c-.774 0-1.549-.194-2.255-.582-3.992-2.191-6.472-6.377-6.472-10.923 0-4.545 2.479-8.73 6.472-10.923 1.412-.775 3.098-.775 4.51 0 3.992 2.192 6.472 6.378 6.472 10.923 0 4.546-2.479 8.731-6.472 10.923-.706.388-1.481.582-2.255.582zm0-17.959c-2.304 1.335-3.727 3.792-3.727 6.454 0 2.663 1.424 5.12 3.727 6.455 2.304-1.335 3.727-3.792 3.727-6.455 0-2.662-1.423-5.119-3.727-6.454z"/></g><g><path d="m74.792 58.745c-.775 0-1.551-.194-2.257-.583-3.99-2.19-6.47-6.376-6.47-10.922 0-4.545 2.479-8.73 6.472-10.923 1.41-.775 3.098-.775 4.51 0 3.991 2.192 6.471 6.378 6.471 10.923 0 4.547-2.479 8.732-6.471 10.923-.706.388-1.481.582-2.255.582zm0-17.959c-2.304 1.336-3.727 3.792-3.727 6.454 0 2.663 1.424 5.12 3.727 6.455 2.303-1.335 3.726-3.792 3.726-6.455 0-2.662-1.423-5.119-3.726-6.454zm-.151-.086h.01z"/></g><g><path d="m102.459 46.745c-.774 0-1.55-.194-2.256-.582-3.991-2.19-6.471-6.376-6.471-10.923 0-4.545 2.479-8.73 6.471-10.923 1.413-.776 3.101-.775 4.512.001 3.99 2.192 6.47 6.378 6.47 10.922 0 4.546-2.479 8.731-6.472 10.923-.705.388-1.48.582-2.254.582zm-.001-17.959c-2.303 1.335-3.726 3.792-3.726 6.454 0 2.663 1.423 5.12 3.726 6.454 2.304-1.335 3.727-3.792 3.727-6.454s-1.423-5.119-3.727-6.454zm-.153-.087c.001 0 .001.001.002.001-.001 0-.001-.001-.002-.001z"/></g><g><path d="m157.792 46.745c-.775 0-1.551-.194-2.257-.583-3.99-2.19-6.47-6.376-6.47-10.922 0-4.545 2.479-8.73 6.472-10.923 1.41-.775 3.098-.775 4.51 0 3.991 2.192 6.471 6.378 6.471 10.923 0 4.547-2.479 8.732-6.471 10.923-.706.388-1.481.582-2.255.582zm0-17.959c-2.304 1.336-3.727 3.792-3.727 6.454 0 2.663 1.424 5.12 3.727 6.455 2.303-1.335 3.726-3.792 3.726-6.455 0-2.662-1.423-5.119-3.726-6.454zm-.151-.086h.01z"/></g><g><path d="m130.125 34.745c-.774 0-1.549-.194-2.255-.582-3.992-2.191-6.472-6.377-6.472-10.923 0-4.545 2.479-8.73 6.472-10.923 1.412-.775 3.098-.775 4.51 0 3.992 2.192 6.472 6.378 6.472 10.923 0 4.546-2.479 8.731-6.472 10.923-.706.388-1.481.582-2.255.582zm0-17.959c-2.304 1.335-3.727 3.792-3.727 6.454 0 2.663 1.424 5.12 3.727 6.455 2.304-1.335 3.727-3.792 3.727-6.455 0-2.662-1.423-5.119-3.727-6.454z"/></g><g><path d="m185.459 58.745c-.774 0-1.55-.194-2.256-.582-3.991-2.19-6.471-6.376-6.471-10.923 0-4.545 2.479-8.73 6.471-10.923 1.413-.775 3.101-.776 4.512.001 3.99 2.192 6.47 6.378 6.47 10.922 0 4.546-2.479 8.731-6.472 10.923-.705.388-1.48.582-2.254.582zm-.001-17.959c-2.303 1.335-3.726 3.792-3.726 6.454 0 2.663 1.423 5.12 3.726 6.454 2.304-1.335 3.727-3.792 3.727-6.454s-1.423-5.119-3.727-6.454zm-.153-.087c.001 0 .001.001.002.001-.001 0-.001-.001-.002-.001z"/></g><g><path d="m213.125 70.745c-.774 0-1.549-.194-2.255-.582-3.992-2.191-6.472-6.377-6.472-10.923 0-4.545 2.479-8.73 6.472-10.923 1.412-.775 3.098-.775 4.51 0 3.992 2.192 6.472 6.378 6.472 10.923 0 4.546-2.479 8.731-6.472 10.923-.706.388-1.481.582-2.255.582zm0-17.959c-2.304 1.335-3.727 3.792-3.727 6.454 0 2.663 1.424 5.12 3.727 6.455 2.304-1.335 3.727-3.792 3.727-6.455 0-2.662-1.423-5.119-3.727-6.454z"/></g></g></g></svg>