<svg enable-background="new 0 0 256 256" height="512" viewBox="0 0 256 256" width="512" xmlns="http://www.w3.org/2000/svg"><g id="Layer_28"><g><g><path d="m176.587 222.627v-13.513h24.458l-1.61-27.769c-.343-6.152-4.646-11.366-10.621-12.871l-19.317-4.862c-3.445-.867-6.631-1.941-9.353-2.985-.186.397-.429.774-.757 1.102l-14.467 14.467c-1.512 1.512-3.964 1.512-5.476 0l-5.672-5.672c-1.512-1.512-1.512-3.964 0-5.476l12.691-12.691c-1.289-1.97-2.027-4.296-2.027-6.742v-5.807c-4.927 2.579-10.518 4.048-16.437 4.048-5.92 0-11.51-1.469-16.437-4.048v5.806c0 2.446-.738 4.772-2.027 6.742l12.691 12.691c1.512 1.512 1.512 3.964 0 5.476l-5.672 5.672c-1.512 1.512-3.964 1.512-5.476 0l-14.466-14.465c-.324-.324-.564-.696-.749-1.087-2.778 1.083-5.774 2.067-9.361 2.97l-19.316 4.862c-5.975 1.504-10.279 6.719-10.621 12.871l-1.61 27.769h24.458v13.513h-25.242l-1.551 26.741c-.125 2.244 1.661 4.132 3.908 4.132h142.943c2.247 0 4.033-1.888 3.908-4.132l-1.551-26.741h-25.241z" fill="#5290db"/></g><g><path d="m176.587 222.627v30.873h22.884c2.247 0 4.033-1.888 3.908-4.132l-1.551-26.741z" fill="#f9d0b4"/></g><g><path d="m79.413 222.627h-25.242l-1.551 26.741c-.125 2.244 1.661 4.132 3.908 4.132h22.884v-30.873z" fill="#f9d0b4"/></g><g><path d="m179.945 70.134h-103.89c-3.038 0-5.523 2.485-5.523 5.523v2.813c0 3.038 2.485 5.523 5.523 5.523h103.891c3.038 0 5.523-2.485 5.523-5.523v-2.813c-.001-3.037-2.486-5.523-5.524-5.523z" fill="#fcdd86"/></g><g><path d="m174.913 83.993h-11.235v24.187c0 .805-.037 1.601-.09 2.393.777.125 1.568.208 2.379.208 8.227 0 14.896-6.669 14.896-14.896.001-4.866-2.342-9.173-5.95-11.892z" fill="#f9d0b4"/></g><g><g><path d="m92.321 83.993v24.187c0 19.623 16.055 35.679 35.679 35.679 19.623 0 35.679-16.055 35.679-35.679v-24.187z" fill="#f9d0b4"/></g></g><g><path d="m92.321 83.993h-11.234c-3.608 2.719-5.951 7.026-5.951 11.891 0 8.227 6.669 14.896 14.896 14.896.812 0 1.603-.083 2.379-.208v-.001c-.053-.792-.09-1.588-.09-2.392 0-3.274 0-16.174 0-24.186z" fill="#f9d0b4"/></g><g><g><path d="m136.529 70.134v-47.596c0-3.139-2.568-5.708-5.708-5.708h-5.642c-3.139 0-5.708 2.568-5.708 5.708v47.596z" fill="#fcdd86"/></g></g><g><path d="m151.6 30.249v39.885h24.893c-.197-17.984-10.313-33.685-25.101-41.892.135.649.208 1.32.208 2.007z" fill="#edb311"/></g><g><path d="m104.4 30.249c0-.687.072-1.358.208-2.007-14.788 8.208-24.904 23.908-25.101 41.892h24.893z" fill="#edb311"/></g><g><path d="m136.529 22.538v47.596h15.071v-39.885c0-5.423-4.437-9.86-9.86-9.86h-5.64c.272.665.429 1.389.429 2.149z" fill="#f5c84c"/></g><g><path d="m119.471 70.134v-47.596c0-.76.157-1.484.429-2.149h-5.64c-5.423 0-9.86 4.437-9.86 9.86v39.885z" fill="#f5c84c"/></g><g><path d="m169.497 163.613c-3.001-.755-5.803-1.669-8.278-2.581v14.626c0 15.304-12.522 27.826-27.826 27.826h-10.787c-15.304 0-27.826-12.522-27.826-27.826v-14.605c-2.478.922-5.151 1.773-8.278 2.56l-7.09 1.785v88.102h97.175v-88.103z" fill="#fca265"/></g><g><path d="m163.471 253.5v-35.425c0-1.112-.901-2.013-2.013-2.013h-18.495c-1.112 0-2.013.901-2.013 2.013v35.425z" fill="#edb311"/></g><g><path d="m115.05 253.5v-35.425c0-1.112-.901-2.013-2.013-2.013h-18.495c-1.112 0-2.013.901-2.013 2.013v35.425z" fill="#edb311"/></g><g><path d="m113.037 216.061h-18.495c-1.112 0-2.013.901-2.013 2.013v4.112c0 3.975 3.222 7.197 7.197 7.197h8.127c3.975 0 7.197-3.222 7.197-7.197v-4.112c0-1.111-.901-2.013-2.013-2.013z" fill="#f5c84c"/></g><g><path d="m161.458 216.061h-18.495c-1.112 0-2.013.901-2.013 2.013v4.112c0 3.975 3.222 7.197 7.197 7.197h8.127c3.975 0 7.197-3.222 7.197-7.197v-4.112c0-1.111-.901-2.013-2.013-2.013z" fill="#f5c84c"/></g><g><path d="m203.221 209.115h-26.633v13.513h26.633c1.68 0 3.041-1.362 3.041-3.041v-7.43c0-1.681-1.361-3.042-3.041-3.042z" fill="#6cadef"/></g><g><path d="m52.779 209.115h26.633v13.513h-26.633c-1.68 0-3.041-1.362-3.041-3.041v-7.43c0-1.681 1.361-3.042 3.041-3.042z" fill="#6cadef"/></g><g><path d="m122.837 169.702h10.326c-.845-1.479-.652-3.39.61-4.652l12.691-12.691c-1.289-1.97-2.027-4.296-2.027-6.742v-5.807c-4.927 2.579-10.518 4.048-16.437 4.048-5.92 0-11.51-1.469-16.437-4.048v5.806c0 2.446-.738 4.772-2.027 6.742l12.691 12.691c1.262 1.263 1.456 3.174.61 4.653z" fill="#f9d0b4"/></g><g><path d="m122.227 170.526-5.672 5.672c-1.512 1.512-3.964 1.512-5.476 0l-14.467-14.468c-1.512-1.512-1.512-3.964 0-5.476l5.672-5.672c1.512-1.512 3.964-1.512 5.476 0l14.467 14.467c1.512 1.513 1.512 3.965 0 5.477z" fill="#6cadef"/></g><g><path d="m133.773 170.526 5.672 5.672c1.512 1.512 3.964 1.512 5.476 0l14.467-14.467c1.512-1.512 1.512-3.964 0-5.476l-5.672-5.672c-1.512-1.512-3.964-1.512-5.476 0l-14.467 14.467c-1.512 1.512-1.512 3.964 0 5.476z" fill="#6cadef"/></g><g><g><path d="m133.773 170.526c-.25-.25-.443-.531-.61-.824h-10.326c-.167.293-.36.574-.61.824l-.42.42v32.518c.266.008.532.02.8.02h10.787c.268 0 .533-.013.8-.02v-32.518z" fill="#6cadef"/></g></g><g><path d="m42.35 196.2c-3.1-.6-5.6-3-6.2-6.1 0-.1-.3-.1-.3 0-.6 3.1-3.1 5.5-6.2 6.1-.1 0-.1.2 0 .3 3.1.6 5.6 3 6.2 6.1 0 .1.3.1.3 0 .6-3.1 3.1-5.5 6.2-6.1.1-.1.1-.3 0-.3z" fill="#fc657e"/></g><g><path d="m58.9 29.9h2.3v2.3c0 1.8 1.4 3.2 3.2 3.2 1.7 0 3.2-1.4 3.2-3.1v-.1-2.3h2.3c1.8 0 3.2-1.4 3.2-3.2 0-1.7-1.4-3.2-3.1-3.2h-.1-2.3v-2.3c0-1.8-1.4-3.2-3.2-3.2-1.7 0-3.2 1.4-3.2 3.1v.1 2.3h-2.3c-1.8 0-3.2 1.4-3.2 3.2-.1 1.7 1.3 3.2 3.2 3.2-.1 0-.1 0 0 0z" fill="#70d6f9"/></g><g><circle cx="215.3" cy="178.9" fill="#87d147" r="3.4"/></g><g><circle cx="92.3" cy="3.4" fill="#f5c84c" r="3.4"/></g><g><path d="m196.7 148.2c4.5-.8 8-4.3 8.9-8.7 0-.2.4-.2.4 0 .9 4.4 4.4 7.9 8.9 8.7.2 0 .2.3 0 .4-4.5.8-8 4.3-8.9 8.7 0 .2-.4.2-.4 0-.9-4.4-4.4-7.9-8.9-8.7-.2-.1-.2-.4 0-.4z" fill="#f5c84c"/></g><g><path d="m54.995 210.966c-.049 0-.098-.001-.147-.004-1.378-.08-2.431-1.262-2.351-2.64l1.573-27.12c.405-7.279 5.432-13.37 12.506-15.15l19.316-4.862c3.177-.8 5.988-1.686 8.847-2.791 1.285-.496 2.735.143 3.233 1.431s-.143 2.735-1.431 3.233c-3.011 1.163-6.095 2.136-9.428 2.975l-19.316 4.862c-4.941 1.244-8.452 5.498-8.735 10.585l-1.573 27.125c-.078 1.329-1.18 2.356-2.494 2.356z"/></g><g><path d="m109.742 154.529c-.444 0-.895-.119-1.302-.368-1.178-.72-1.549-2.259-.829-3.437.949-1.553 1.451-3.319 1.451-5.107v-5.273c0-1.381 1.119-2.5 2.5-2.5s2.5 1.119 2.5 2.5v5.273c0 2.709-.756 5.377-2.186 7.716-.47.771-1.292 1.196-2.134 1.196z"/></g><g><path d="m146.087 154.242c-.865 0-1.706-.45-2.169-1.253-1.296-2.252-1.98-4.801-1.98-7.372v-5.45c0-1.381 1.119-2.5 2.5-2.5s2.5 1.119 2.5 2.5v5.45c0 1.697.454 3.383 1.314 4.877.688 1.197.276 2.725-.92 3.414-.393.227-.822.334-1.245.334z"/></g><g><path d="m200.982 210.563c-1.314 0-2.417-1.026-2.494-2.355l-1.55-26.717c-.282-5.093-3.793-9.347-8.734-10.591l-19.317-4.862c-2.966-.747-6.047-1.72-9.157-2.892-1.292-.487-1.944-1.93-1.457-3.221.487-1.293 1.935-1.942 3.221-1.458 2.933 1.106 5.831 2.022 8.614 2.722l19.317 4.862c7.075 1.781 12.102 7.872 12.506 15.156l1.55 26.711c.08 1.378-.973 2.561-2.352 2.64-.049.004-.098.005-.147.005z"/></g><g><path d="m199.472 256h-142.944c-1.755 0-3.454-.731-4.66-2.007-1.206-1.275-1.842-3.012-1.744-4.764l1.506-25.966c.08-1.379 1.269-2.437 2.64-2.351 1.378.08 2.431 1.262 2.351 2.64l-1.506 25.96c-.029.523.229.879.385 1.045.156.165.498.442 1.027.442h142.943c.529 0 .871-.277 1.027-.442.156-.166.414-.521.385-1.05l-1.504-25.917c-.08-1.378.973-2.561 2.352-2.641 1.361-.082 2.561.972 2.641 2.351l1.504 25.923c.098 1.758-.538 3.495-1.744 4.77s-2.904 2.007-4.659 2.007z"/></g><g><path d="m128.519 124.246c-4.609 0-8.939-1.883-11.583-5.036-.887-1.058-.749-2.635.31-3.521 1.058-.888 2.635-.748 3.521.31 1.706 2.034 4.603 3.248 7.751 3.248s6.045-1.214 7.75-3.248c.887-1.059 2.465-1.196 3.522-.31 1.058.887 1.196 2.464.31 3.522-2.642 3.152-6.972 5.035-11.581 5.035z"/></g><g><circle cx="144.615" cy="97.531" r="4.794"/></g><g><circle cx="112.422" cy="97.531" r="4.794"/></g><g><path d="m128 256c-1.381 0-2.5-1.119-2.5-2.5v-48.89c0-1.381 1.119-2.5 2.5-2.5s2.5 1.119 2.5 2.5v48.89c0 1.381-1.119 2.5-2.5 2.5z"/></g><g><path d="m179.945 86.493h-103.89c-4.424 0-8.023-3.599-8.023-8.022v-2.813c0-4.424 3.599-8.023 8.023-8.023h103.891c4.424 0 8.023 3.599 8.023 8.023v2.813c0 4.424-3.6 8.022-8.024 8.022zm-103.89-13.859c-1.667 0-3.023 1.356-3.023 3.023v2.813c0 1.667 1.356 3.022 3.023 3.022h103.891c1.667 0 3.023-1.356 3.023-3.022v-2.813c0-1.667-1.356-3.023-3.023-3.023z"/></g><g><path d="m165.969 113.281c-.646 0-1.305-.042-2.013-.13-1.37-.17-2.343-1.418-2.174-2.789.17-1.37 1.417-2.345 2.789-2.173.501.062.959.092 1.397.092 6.835 0 12.396-5.561 12.396-12.396 0-3.794-1.717-7.332-4.711-9.706-1.082-.857-1.264-2.43-.406-3.512.857-1.081 2.431-1.264 3.512-.406 4.198 3.328 6.605 8.293 6.605 13.624 0 9.592-7.803 17.396-17.395 17.396z"/></g><g><g><path d="m128 146.359c-21.052 0-38.179-17.127-38.179-38.179v-23.117c0-1.381 1.119-2.5 2.5-2.5s2.5 1.119 2.5 2.5v23.117c0 18.295 14.884 33.179 33.179 33.179s33.179-14.884 33.179-33.179v-23.18c0-1.381 1.119-2.5 2.5-2.5s2.5 1.119 2.5 2.5v23.18c0 21.052-17.127 38.179-38.179 38.179z"/></g></g><g><path d="m90.032 113.281c-9.592 0-17.396-7.804-17.396-17.396 0-5.174 2.293-10.047 6.292-13.37 1.062-.884 2.638-.737 3.521.325.882 1.062.737 2.638-.325 3.521-2.852 2.369-4.487 5.841-4.487 9.524 0 6.835 5.561 12.396 12.396 12.396.394 0 .8-.024 1.241-.074 1.369-.157 2.609.833 2.764 2.205s-.833 2.609-2.205 2.764c-.63.071-1.219.105-1.801.105z"/></g><g><g><path d="m136.528 71.872c-1.381 0-2.5-1.119-2.5-2.5v-46.834c0-1.769-1.438-3.208-3.207-3.208h-5.643c-1.769 0-3.208 1.439-3.208 3.208v46.545c0 1.381-1.119 2.5-2.5 2.5s-2.5-1.119-2.5-2.5v-46.545c0-4.526 3.682-8.208 8.208-8.208h5.643c4.525 0 8.207 3.682 8.207 8.208v46.834c0 1.381-1.119 2.5-2.5 2.5z"/></g></g><g><path d="m176.478 71.872c-1.351 0-2.462-1.076-2.498-2.434-.424-15.945-9.374-30.797-23.356-38.76-1.2-.683-1.618-2.21-.936-3.41.684-1.201 2.211-1.619 3.41-.935 15.493 8.824 25.409 25.29 25.88 42.972.037 1.38-1.053 2.529-2.433 2.565-.023.001-.045.002-.067.002z"/></g><g><path d="m79.516 72.146c-.018 0-.036 0-.053 0-1.381-.029-2.476-1.171-2.447-2.552.376-17.932 10.401-34.567 26.161-43.416 1.205-.677 2.729-.248 3.404.956.676 1.204.248 2.728-.956 3.404-14.224 7.985-23.271 22.991-23.61 39.16-.03 1.363-1.143 2.448-2.499 2.448z"/></g><g><path d="m151.6 71.872c-1.381 0-2.5-1.119-2.5-2.5v-39.123c0-4.059-3.302-7.36-7.36-7.36h-5.21c-1.381 0-2.5-1.119-2.5-2.5s1.119-2.5 2.5-2.5h5.21c6.815 0 12.36 5.545 12.36 12.36v39.123c0 1.381-1.12 2.5-2.5 2.5z"/></g><g><path d="m104.4 71.872c-1.381 0-2.5-1.119-2.5-2.5v-39.123c0-6.815 5.545-12.36 12.36-12.36h5.211c1.381 0 2.5 1.119 2.5 2.5s-1.119 2.5-2.5 2.5h-5.211c-4.059 0-7.36 3.302-7.36 7.36v39.123c0 1.381-1.119 2.5-2.5 2.5z"/></g><g><path d="m133.394 205.984h-10.787c-16.722 0-30.326-13.604-30.326-30.326v-13.94c0-1.381 1.119-2.5 2.5-2.5s2.5 1.119 2.5 2.5v13.94c0 13.965 11.361 25.326 25.326 25.326h10.787c13.965 0 25.326-11.361 25.326-25.326v-13.701c0-1.381 1.119-2.5 2.5-2.5s2.5 1.119 2.5 2.5v13.701c0 16.722-13.605 30.326-30.326 30.326z"/></g><g><path d="m176.588 254.875c-1.381 0-2.5-1.119-2.5-2.5v-86.167c0-1.381 1.119-2.5 2.5-2.5s2.5 1.119 2.5 2.5v86.167c0 1.381-1.119 2.5-2.5 2.5z"/></g><g><path d="m79.413 255c-1.381 0-2.5-1.119-2.5-2.5v-86.657c0-1.381 1.119-2.5 2.5-2.5s2.5 1.119 2.5 2.5v86.657c0 1.381-1.12 2.5-2.5 2.5z"/></g><g><path d="m163.472 254.875c-1.381 0-2.5-1.119-2.5-2.5v-33.813h-17.522v33.813c0 1.381-1.119 2.5-2.5 2.5s-2.5-1.119-2.5-2.5v-34.3c0-2.489 2.024-4.513 4.513-4.513h18.495c2.489 0 4.514 2.024 4.514 4.513v34.3c0 1.381-1.119 2.5-2.5 2.5z"/></g><g><path d="m115.05 254.875c-1.381 0-2.5-1.119-2.5-2.5v-33.813h-17.521v33.813c0 1.381-1.119 2.5-2.5 2.5s-2.5-1.119-2.5-2.5v-34.3c0-2.489 2.024-4.513 4.513-4.513h18.495c2.489 0 4.513 2.024 4.513 4.513v34.3c0 1.381-1.119 2.5-2.5 2.5z"/></g><g><path d="m107.853 231.884h-8.126c-5.347 0-9.697-4.35-9.697-9.697 0-1.381 1.119-2.5 2.5-2.5s2.5 1.119 2.5 2.5c0 2.59 2.107 4.697 4.697 4.697h8.126c2.59 0 4.698-2.107 4.698-4.697 0-1.381 1.119-2.5 2.5-2.5s2.5 1.119 2.5 2.5c-.001 5.347-4.351 9.697-9.698 9.697z"/></g><g><path d="m156.274 231.884h-8.127c-5.347 0-9.697-4.35-9.697-9.697 0-1.381 1.119-2.5 2.5-2.5s2.5 1.119 2.5 2.5c0 2.59 2.107 4.697 4.697 4.697h8.127c2.59 0 4.697-2.107 4.697-4.697 0-1.381 1.119-2.5 2.5-2.5s2.5 1.119 2.5 2.5c.001 5.347-4.35 9.697-9.697 9.697z"/></g><g><path d="m203.221 225.127h-25.439c-1.381 0-2.5-1.119-2.5-2.5s1.119-2.5 2.5-2.5h25.439c.299 0 .542-.243.542-.542v-7.43c0-.298-.243-.541-.542-.541h-25.721c-1.381 0-2.5-1.119-2.5-2.5s1.119-2.5 2.5-2.5h25.721c3.056 0 5.542 2.486 5.542 5.541v7.43c0 3.057-2.487 5.542-5.542 5.542z"/></g><g><path d="m78.458 225.127h-25.679c-3.056 0-5.542-2.486-5.542-5.542v-7.43c0-3.055 2.486-5.541 5.542-5.541h25.659c1.381 0 2.5 1.119 2.5 2.5s-1.119 2.5-2.5 2.5h-25.659c-.299 0-.542.243-.542.541v7.43c0 .299.243.542.542.542h25.679c1.381 0 2.5 1.119 2.5 2.5s-1.119 2.5-2.5 2.5z"/></g><g><path d="m113.817 179.832c-1.702 0-3.302-.663-4.505-1.867l-14.467-14.467c-2.485-2.484-2.485-6.527 0-9.011l5.672-5.672c2.484-2.484 6.526-2.484 9.011 0l14.467 14.467c2.485 2.484 2.485 6.527 0 9.011l-5.672 5.671c-1.203 1.204-2.803 1.868-4.506 1.868zm-8.795-27.883c-.351 0-.703.134-.97.401l-5.672 5.671c-.535.535-.535 1.406 0 1.941l14.467 14.467c.519.518 1.422.518 1.94 0l5.672-5.672c.535-.535.535-1.405 0-1.94l-14.467-14.467c-.267-.267-.618-.401-.97-.401zm17.205 18.577h.01z"/></g><g><path d="m142.183 179.828c-1.632 0-3.264-.621-4.506-1.863l-5.672-5.671c-2.484-2.484-2.484-6.527 0-9.011l14.468-14.467c2.485-2.486 6.527-2.484 9.011 0l5.672 5.672c2.484 2.484 2.484 6.527 0 9.011l-14.467 14.467c-1.243 1.241-2.875 1.862-4.506 1.862zm-6.643-11.07 5.672 5.671c.535.535 1.406.535 1.941 0l14.467-14.466c.534-.535.534-1.406 0-1.941l-5.672-5.672c-.536-.535-1.406-.533-1.94 0l-14.468 14.467c-.534.536-.534 1.406 0 1.941z"/></g><g><path d="m132.5 172.202h-9.219c-1.381 0-2.5-1.119-2.5-2.5s1.119-2.5 2.5-2.5h9.219c1.381 0 2.5 1.119 2.5 2.5s-1.119 2.5-2.5 2.5z"/></g><g><path d="m134.193 205.25c-1.381 0-2.5-1.119-2.5-2.5v-31.344c0-1.381 1.119-2.5 2.5-2.5s2.5 1.119 2.5 2.5v31.344c0 1.381-1.119 2.5-2.5 2.5z"/></g><g><path d="m121.807 205.25c-1.381 0-2.5-1.119-2.5-2.5v-31.344c0-1.381 1.119-2.5 2.5-2.5s2.5 1.119 2.5 2.5v31.344c0 1.381-1.12 2.5-2.5 2.5z"/></g></g></g></svg>