<svg enable-background="new 0 0 256 256" height="512" viewBox="0 0 256 256" width="512" xmlns="http://www.w3.org/2000/svg"><g id="Layer_8"><g><g><path d="m219.86 149.777c-5.02-11.484-8.942-23.699-10.653-36.048-.422-3.048-4.274-4.209-6.31-1.903-4.554 5.158-9.66 9.896-15.081 14.261 2.32 6.077 4.978 12.031 7.872 17.812 9.408 18.794 2.038 39.146-12.862 49.196 25.528 6.995 47.743-18.82 37.034-43.318z" fill="#966aea"/></g><g><path d="m195.688 143.899c-6.78-13.544-12.282-28.04-15.122-42.836-.701-3.652-5.423-4.811-7.736-1.9-6.665 8.391-14.466 16.01-22.827 22.907 2.75 3.685 5.62 7.275 8.581 10.755 18.26 21.464 9.49 52.289-13.093 62.973 33.725 15.36 66.224-19.883 50.197-51.899z" fill="#b598f9"/></g><g><path d="m97.416 132.826c10.392-12.215 19.71-25.732 26.367-40.23 1.643-3.578 6.791-3.578 8.434 0 6.657 14.497 15.975 28.015 26.367 40.23 22.411 26.343 4.108 66.792-30.479 66.792h-.105-.105c-34.587 0-52.891-40.449-30.479-66.792z" fill="#cbbbfc"/></g><g><path d="m36.14 149.777c5.02-11.484 8.942-23.699 10.653-36.048.422-3.048 4.274-4.209 6.31-1.903 4.554 5.158 9.66 9.896 15.081 14.261-2.32 6.077-4.978 12.031-7.872 17.812-9.408 18.794-2.038 39.146 12.862 49.196-25.528 6.995-47.743-18.82-37.034-43.318z" fill="#966aea"/></g><g><path d="m60.312 143.899c6.78-13.544 12.282-28.04 15.122-42.836.701-3.652 5.423-4.811 7.736-1.9 6.665 8.391 14.466 16.01 22.827 22.907-2.75 3.685-5.62 7.275-8.581 10.755-18.26 21.464-9.49 52.289 13.093 62.973-33.725 15.36-66.224-19.883-50.197-51.899z" fill="#b598f9"/></g><g><g><path d="m145.491 195.799c-5.134 2.429-10.98 3.82-17.386 3.82h-.105-.105c-6.406 0-12.252-1.391-17.386-3.82-3.261 1.485-6.719 2.565-10.603 3.175-1.561 8.031.226 16.835 6.423 24.119 7.363 8.655 13.966 18.233 18.683 28.506 1.164 2.535 4.812 2.535 5.976 0 4.717-10.272 11.32-19.851 18.683-28.506 6.197-7.285 7.985-16.088 6.423-24.119-3.866-.607-7.325-1.683-10.603-3.175z" fill="#b598f9"/></g></g><g><g><path d="m192.362 203.434c.117-3.279-.333-6.356-1.216-9.197-2.708-.016-5.491-.367-8.32-1.142-7.419 5.004-16.706 7.45-26.719 5.881 1.562 8.03-.238 16.833-6.435 24.117-.154.181-.302.367-.455.549 3.134 2.388 6.904 4.16 11.255 5.026 10.457 2.081 20.891 5.285 30.342 10.096 2.333 1.188 5.017-.936 4.397-3.479-2.51-10.305-3.228-21.196-2.849-31.851z" fill="#966aea"/></g></g><g><g><path d="m99.893 198.975c-10.014 1.57-19.3-.876-26.719-5.881-2.82.773-5.595 1.124-8.294 1.142-.9 2.864-1.36 5.972-1.242 9.283.379 10.655-.339 21.546-2.849 31.851-.619 2.543 2.065 4.667 4.397 3.479 9.451-4.812 19.885-8.015 30.342-10.096 4.371-.87 8.156-2.655 11.298-5.06-.167-.198-.329-.403-.497-.6-6.197-7.284-7.997-16.088-6.436-24.118z" fill="#966aea"/></g></g><g><g><path d="m221.337 216.385c-3.209-6.909-5.239-14.482-6.462-22.041-.487-3.007-1.58-5.656-3.101-7.903-5.519 4.87-12.727 7.856-20.624 7.812.879 2.837 1.328 5.909 1.212 9.182-.152 4.264-.117 8.565.127 12.852 1.108.19 2.257.295 3.448.295 7.658.004 15.457.802 22.789 2.87 1.81.51 3.404-1.362 2.611-3.067z" fill="#8652d8"/></g></g><g><g><path d="m63.638 203.52c-.117-3.305.341-6.407 1.237-9.267-7.908.051-15.125-2.938-20.65-7.813-1.521 2.247-2.615 4.896-3.101 7.903-1.223 7.56-3.253 15.133-6.462 22.041-.792 1.705.802 3.577 2.611 3.066 7.332-2.068 15.131-2.866 22.789-2.87 1.193-.001 2.344-.106 3.454-.297.24-4.256.273-8.528.122-12.763z" fill="#8652d8"/></g></g><g><path d="m129.832 15.105c-1.139-.625-2.525-.625-3.664 0-5.37 2.949-9.013 8.65-9.013 15.208s3.643 12.26 9.013 15.208c1.139.625 2.525.625 3.664 0 5.37-2.949 9.013-8.65 9.013-15.208s-3.643-12.26-9.013-15.208z" fill="#f5c84c"/></g><g><path d="m123.783 92.596c1.643-3.578 6.791-3.578 8.434 0 3.236 7.047 7.104 13.86 11.415 20.406v-57.725c0-1.811-1.468-3.278-3.278-3.278h-24.708c-1.811 0-3.278 1.468-3.278 3.278v57.726c4.311-6.547 8.179-13.36 11.415-20.407z" fill="#fce4be"/></g><g><path d="m129.109 27.296c-.689-.379-1.528-.379-2.218 0-3.25 1.785-5.455 5.235-5.455 9.205s2.205 7.421 5.455 9.205c.689.379 1.528.379 2.218 0 3.25-1.785 5.455-5.235 5.455-9.205s-2.205-7.42-5.455-9.205z" fill="#fca265"/></g><g><path d="m71.35 82.55c-3.1-.6-5.6-3-6.2-6.1 0-.1-.3-.1-.3 0-.6 3.1-3.1 5.5-6.2 6.1-.1 0-.1.2 0 .3 3.1.6 5.6 3 6.2 6.1 0 .1.3.1.3 0 .6-3.1 3.1-5.5 6.2-6.1.1-.1.1-.3 0-.3z" fill="#fc657e"/></g><g><path d="m32.9 244.5h2.3v2.3c0 1.8 1.4 3.2 3.2 3.2 1.7 0 3.2-1.4 3.2-3.1v-.1-2.3h2.3c1.8 0 3.2-1.4 3.2-3.2 0-1.7-1.4-3.2-3.1-3.2h-.1-2.3v-2.3c0-1.8-1.4-3.2-3.2-3.2-1.7 0-3.2 1.4-3.2 3.1v.1 2.3h-2.3c-1.8 0-3.2 1.4-3.2 3.2-.1 1.7 1.3 3.2 3.2 3.2-.1 0-.1 0 0 0z" fill="#70d6f9"/></g><g><circle cx="75.3" cy="252.6" fill="#f5c84c" r="3.4"/></g><g><circle cx="209.3" cy="89.75" fill="#87d147" r="3.4"/></g><g><path d="m187.7 61.55c4.5-.8 8-4.3 8.9-8.7 0-.2.4-.2.4 0 .9 4.4 4.4 7.9 8.9 8.7.2 0 .2.3 0 .4-4.5.8-8 4.3-8.9 8.7 0 .2-.4.2-.4 0-.9-4.4-4.4-7.9-8.9-8.7-.2-.1-.2-.4 0-.4z" fill="#f5c84c"/></g><g><path d="m191.231 196.737c-2.813 0-5.659-.353-8.482-1.076-1.337-.343-2.144-1.705-1.801-3.042.343-1.338 1.704-2.14 3.043-1.801 10.906 2.795 21.794-.675 29.115-9.284 7.406-8.708 9.074-20.205 4.463-30.755-5.589-12.788-9.235-25.137-10.838-36.707-.087-.63-.585-.845-.796-.908-.21-.064-.743-.157-1.164.317-4.266 4.832-9.283 9.599-14.914 14.171-1.074.87-2.646.707-3.517-.365s-.707-2.646.364-3.517c5.418-4.398 10.235-8.974 14.318-13.599 1.596-1.808 4.031-2.497 6.355-1.796s3.974 2.62 4.306 5.009c1.539 11.116 5.061 23.022 10.467 35.39 5.314 12.159 3.308 25.952-5.236 35.998-6.566 7.723-15.925 11.965-25.683 11.965z"/></g><g><path d="m162.121 202.01c-5.587 0-11.296-1.174-16.859-3.578-1.267-.548-1.851-2.019-1.303-3.287.549-1.268 2.021-1.851 3.287-1.303 17.103 7.393 31.999.718 40.234-7.992 10.489-11.097 12.834-27.125 5.973-40.832-7.528-15.038-12.69-29.668-15.342-43.484-.202-1.051-1.05-1.367-1.404-1.454-.356-.086-1.253-.199-1.918.638-6.245 7.862-13.911 15.581-22.784 22.941-1.061.88-2.638.735-3.52-.328s-.735-2.639.328-3.521c8.607-7.14 16.029-14.61 22.06-22.203 1.686-2.121 4.375-3.036 7.025-2.384 2.649.65 4.612 2.707 5.123 5.367 2.565 13.366 7.579 27.561 14.902 42.189 7.813 15.609 5.141 33.863-6.811 46.505-7.894 8.353-18.213 12.726-28.991 12.726z"/></g><g><path d="m128.105 202.118h-.21c-16.867 0-31.726-9.48-38.779-24.742-7.14-15.449-4.689-33.141 6.396-46.171 11.233-13.203 19.98-26.544 25.999-39.653 1.173-2.554 3.659-4.14 6.489-4.14 2.83 0 5.316 1.586 6.489 4.14 6.019 13.108 14.767 26.45 25.999 39.653 11.085 13.03 13.536 30.722 6.396 46.17-7.053 15.263-21.912 24.743-38.779 24.743zm-.105-109.705c-.324 0-1.423.088-1.945 1.227-6.21 13.524-15.205 27.254-26.734 40.807-9.808 11.528-11.979 27.174-5.666 40.833 6.226 13.471 19.346 21.839 34.241 21.839h.21c14.895 0 28.015-8.369 34.241-21.84 6.313-13.659 4.142-29.305-5.666-40.833-11.529-13.552-20.524-27.282-26.734-40.807-.524-1.138-1.623-1.226-1.947-1.226zm-30.584 40.413h.01z"/></g><g><path d="m64.768 196.737c-9.751 0-19.102-4.235-25.669-11.948-8.556-10.047-10.568-23.847-5.25-36.013 5.406-12.367 8.927-24.274 10.467-35.389.331-2.39 1.98-4.309 4.305-5.01 2.322-.703 4.76-.013 6.356 1.796 4.107 4.651 8.955 9.251 14.408 13.672 1.073.869 1.237 2.443.368 3.516s-2.443 1.237-3.516.368c-5.668-4.594-10.718-9.388-15.008-14.247-.42-.477-.954-.382-1.165-.318-.21.063-.708.278-.794.908-1.603 11.57-5.25 23.919-10.839 36.707-4.614 10.557-2.941 22.06 4.475 30.769 7.332 8.61 18.227 12.07 29.141 9.261 1.336-.345 2.7.46 3.044 1.797s-.46 2.7-1.797 3.044c-2.837.731-5.699 1.087-8.526 1.087z"/></g><g><path d="m93.876 202.015c-10.7 0-20.947-4.313-28.841-12.58-12.082-12.651-14.813-30.964-6.958-46.655 7.323-14.629 12.336-28.823 14.902-42.188.511-2.661 2.474-4.717 5.123-5.368 2.646-.649 5.34.263 7.026 2.384 6.048 7.614 13.493 15.103 22.128 22.259 1.063.881 1.211 2.457.33 3.52s-2.457 1.21-3.52.33c-8.901-7.376-16.59-15.114-22.853-22.999-.666-.838-1.563-.725-1.918-.639-.355.087-1.203.403-1.405 1.455-2.651 13.815-7.813 28.445-15.341 43.484-6.898 13.78-4.502 29.859 6.104 40.964 8.323 8.716 23.327 15.315 40.479 7.696 1.265-.56 2.74.009 3.3 1.27.561 1.262-.008 2.739-1.27 3.3-5.697 2.529-11.557 3.767-17.286 3.767z"/></g><g><g><path d="m128 256c-2.293 0-4.309-1.287-5.261-3.358-4.237-9.229-10.399-18.625-18.315-27.929-6.202-7.291-8.713-16.416-7.07-25.693.241-1.359 1.536-2.265 2.898-2.026 1.359.241 2.267 1.538 2.026 2.898-1.378 7.783.737 15.447 5.955 21.581 8.212 9.653 14.622 19.438 19.051 29.083.178.387.525.444.717.444.191 0 .538-.058.716-.444 4.428-9.645 10.837-19.429 19.05-29.083 5.18-6.089 7.305-13.7 5.982-21.431-.233-1.361.682-2.653 2.042-2.886 1.366-.234 2.653.683 2.886 2.043 1.577 9.216-.945 18.277-7.102 25.514-7.916 9.305-14.078 18.701-18.315 27.929-.95 2.071-2.966 3.358-5.26 3.358z"/></g></g><g><g><path d="m192.209 241.605c-.858 0-1.722-.202-2.529-.613-8.477-4.316-18.468-7.638-29.696-9.873-4.354-.866-8.326-2.594-11.805-5.134-1.115-.814-1.359-2.378-.546-3.493.815-1.115 2.378-1.359 3.493-.545 2.889 2.108 6.197 3.544 9.834 4.268 11.678 2.325 22.104 5.797 30.989 10.321.265.135.482.034.619-.073.137-.108.284-.297.214-.586-2.359-9.686-3.342-20.631-2.919-32.531.096-2.682-.225-5.325-.952-7.857-.381-1.327.386-2.712 1.713-3.093s2.713.386 3.094 1.713c.872 3.039 1.257 6.206 1.142 9.415-.405 11.442.53 21.929 2.78 31.169.521 2.137-.233 4.317-1.969 5.691-1.021.808-2.235 1.221-3.462 1.221z"/></g></g><g><g><path d="m63.792 241.69c-1.227 0-2.441-.413-3.462-1.221-1.735-1.373-2.49-3.554-1.969-5.691 2.251-9.243 3.187-19.73 2.78-31.169-.114-3.197.267-6.352 1.131-9.375.38-1.328 1.764-2.095 3.091-1.717 1.328.379 2.096 1.763 1.717 3.091-.72 2.519-1.037 5.151-.942 7.824.423 11.897-.559 22.842-2.918 32.531-.071.289.077.479.213.586.137.108.356.208.62.073 8.885-4.523 19.311-7.996 30.988-10.32 3.559-.708 6.806-2.1 9.651-4.137 1.122-.804 2.685-.546 3.488.578.804 1.123.545 2.684-.578 3.488-3.428 2.454-7.325 4.127-11.585 4.976-11.228 2.235-21.218 5.557-29.695 9.873-.808.408-1.673.61-2.53.61z"/></g></g><g><g><path d="m219.343 222.038c-.43 0-.864-.06-1.295-.181-6.516-1.838-13.955-2.772-22.111-2.776-1.136 0-2.282-.087-3.409-.257-1.365-.206-2.305-1.48-2.099-2.845s1.476-2.303 2.845-2.099c.881.133 1.778.201 2.665.201 8.372.004 16.065.946 22.877 2.8-2.916-6.429-5.07-13.873-6.407-22.139-.377-2.323-1.175-4.474-2.371-6.389-.731-1.171-.375-2.713.796-3.445 1.166-.73 2.713-.376 3.444.795 1.552 2.483 2.583 5.255 3.066 8.24 1.303 8.053 3.409 15.249 6.262 21.388.782 1.686.517 3.616-.694 5.038-.921 1.08-2.217 1.669-3.569 1.669z"/></g></g><g><g><path d="m36.658 222.038c-1.354 0-2.649-.589-3.568-1.668-1.211-1.422-1.477-3.353-.694-5.038 2.852-6.139 4.958-13.334 6.262-21.388.485-2.997 1.523-5.779 3.085-8.271.733-1.17 2.276-1.524 3.446-.79s1.523 2.277.79 3.446c-1.206 1.922-2.008 4.08-2.386 6.413-1.337 8.265-3.492 15.71-6.407 22.139 6.811-1.854 14.503-2.796 22.876-2.8.625 0 1.252-.034 1.866-.099 1.386-.145 2.604.849 2.75 2.222s-.849 2.604-2.222 2.75c-.787.084-1.592.126-2.391.127-8.157.004-15.597.938-22.112 2.776-.431.122-.866.181-1.295.181z"/></g></g><g><path d="m128 48.496c-1.042 0-2.085-.261-3.035-.783-6.359-3.492-10.31-10.16-10.31-17.4s3.951-13.908 10.31-17.4c1.901-1.043 4.172-1.042 6.069 0h.001c6.359 3.492 10.31 10.159 10.31 17.4s-3.95 13.908-10.31 17.4c-.95.522-1.992.783-3.035.783zm0-31.359c-.218 0-.436.053-.629.16-4.759 2.613-7.716 7.601-7.716 13.017s2.957 10.403 7.716 13.017c.388.213.87.213 1.258 0 4.759-2.613 7.716-7.601 7.716-13.017s-2.957-10.404-7.716-13.017c-.194-.108-.412-.16-.629-.16z"/></g><g><path d="m128 52.978c-1.381 0-2.5-1.119-2.5-2.5v-2.41c0-1.381 1.119-2.5 2.5-2.5s2.5 1.119 2.5 2.5v2.41c0 1.38-1.119 2.5-2.5 2.5z"/></g><g><path d="m112.368 115.218c-1.381 0-2.5-1.119-2.5-2.5v-57.442c0-3.186 2.592-5.778 5.778-5.778h24.708c3.187 0 5.778 2.592 5.778 5.778v57.432c0 1.381-1.119 2.5-2.5 2.5s-2.5-1.119-2.5-2.5v-57.432c0-.429-.35-.778-.778-.778h-24.708c-.429 0-.778.349-.778.778v57.442c0 1.381-1.119 2.5-2.5 2.5z"/></g><g><path d="m165.927 64.038c-.56 0-1.122-.187-1.587-.569-1.066-.877-1.22-2.453-.343-3.519 6.45-7.841 10.003-17.761 10.003-27.931s-3.553-20.09-10.003-27.931c-.877-1.066-.724-2.642.343-3.519 1.064-.876 2.642-.724 3.519.342 7.184 8.734 11.141 19.782 11.141 31.108s-3.957 22.374-11.142 31.107c-.494.601-1.21.912-1.931.912z"/></g><g><path d="m90.073 64.038c-.722 0-1.438-.311-1.932-.912-7.184-8.733-11.141-19.781-11.141-31.107s3.957-22.373 11.141-31.107c.877-1.066 2.452-1.219 3.519-.342 1.066.877 1.219 2.453.342 3.519-6.45 7.84-10.002 17.76-10.002 27.93s3.552 20.09 10.002 27.931c.877 1.066.724 2.642-.342 3.519-.465.383-1.028.569-1.587.569z"/></g><g><path d="m152.368 52.167c-.542 0-1.089-.176-1.548-.538-1.083-.856-1.268-2.428-.412-3.512 3.658-4.631 5.592-10.197 5.592-16.098s-1.934-11.467-5.592-16.097c-.855-1.083-.671-2.655.412-3.511 1.085-.858 2.655-.671 3.512.412 4.362 5.521 6.668 12.16 6.668 19.197s-2.306 13.675-6.668 19.197c-.493.624-1.225.95-1.964.95z"/></g><g><path d="m103.631 52.167c-.738 0-1.47-.326-1.963-.95-4.362-5.523-6.668-12.161-6.668-19.198s2.306-13.675 6.668-19.197c.856-1.083 2.428-1.268 3.511-.412s1.268 2.428.412 3.511c-3.657 4.631-5.591 10.197-5.591 16.098s1.934 11.467 5.592 16.098c.855 1.083.671 2.656-.412 3.512-.459.362-1.006.538-1.549.538z"/></g><g><path d="m128 48.495c-.794 0-1.589-.199-2.313-.597-4.164-2.286-6.751-6.653-6.751-11.396s2.587-9.109 6.752-11.397c1.448-.795 3.177-.795 4.624 0 4.165 2.287 6.753 6.654 6.753 11.397s-2.588 9.11-6.753 11.396c-.723.398-1.518.597-2.312.597zm0-18.955c-2.509 1.422-4.064 4.08-4.064 6.961s1.554 5.539 4.064 6.961c2.511-1.423 4.065-4.08 4.065-6.961-.001-2.881-1.555-5.539-4.065-6.961zm-.095-.053s0 0 0 0z"/></g></g></g></svg>