<svg enable-background="new 0 0 256 256" height="512" viewBox="0 0 256 256" width="512" xmlns="http://www.w3.org/2000/svg"><g id="Layer_5"><g><g><path d="m144.305 167.51c2.601-7.335 5.049-16.735 5.049-26.136v-90.324c0-13.777-6.862-30.847-18.004-39.456-1.962-1.516-4.739-1.516-6.701 0-11.142 8.609-18.004 25.679-18.004 39.456v90.324c0 9.4 2.448 18.801 5.049 26.136 9.951 6.124 22.661 6.124 32.611 0z" fill="#966aea"/></g><g><path d="m214.906 41.801-13.987 3.238c-9.177 2.124-17.775 6.29-25.036 12.291-.946.782-1.928 1.613-2.935 2.489-.864.751-1.365 1.84-1.365 2.985v6.566c0 1.151-1.363 1.758-2.219.988l-1.143-1.029c-1.579-1.421-4.002-1.346-5.474.185-4.519 4.702-9.132 10.11-13.392 16.178v55.682c0 9.4-2.448 18.801-5.049 26.136.954-.587 1.891-1.209 2.789-1.909.055-.043.111-.086.166-.13 3.949-3.118 9.123-6.774 15.026-9.932 1.225-12.619 4.644-27.107 12.999-38.335 8.824-11.859 17.287-22.619 23.775-30.69 6.981-8.683 12.337-18.533 15.909-29.087 1.124-3.32 2.516-6.875 4.201-10.265 1.421-2.86-1.151-6.081-4.265-5.361z" fill="#87d147"/></g><g><path d="m239.84 110.782-13.468-3.848c-8.836-2.524-18.142-3.033-27.175-1.344-5.387 1.007-11.837 2.519-18.757 4.751-1.697 2.237-3.419 4.528-5.157 6.862-8.354 11.228-11.774 25.716-12.999 38.335 8.065-4.314 17.494-7.685 27.046-7.463 3.186-1.362 6.23-2.644 9.093-3.836 2.072-.863 3.006-3.274 2.057-5.307l-1.258-2.695c-.505-1.082.562-2.23 1.678-1.805l9.054 3.449c1.051.4 2.23.345 3.225-.179 6.98-3.673 13.473-8.225 19.326-13.556 2.528-2.303 5.396-4.679 8.436-6.775 2.569-1.767 1.897-5.733-1.101-6.589z" fill="#70d6f9"/></g><g><path d="m41.094 41.801 13.987 3.238c9.177 2.124 17.775 6.29 25.036 12.291.946.782 1.928 1.613 2.935 2.489.864.751 1.365 1.84 1.365 2.985v6.566c0 1.151 1.363 1.758 2.219.988l1.143-1.029c1.579-1.421 4.002-1.346 5.474.185 4.519 4.702 9.132 10.11 13.392 16.178v55.682c0 9.4 2.448 18.801 5.049 26.136-.954-.587-1.891-1.209-2.789-1.909-.055-.043-.111-.086-.166-.13-3.949-3.118-9.123-6.774-15.026-9.932-1.225-12.619-4.644-27.107-12.999-38.335-8.824-11.859-17.287-22.619-23.775-30.69-6.981-8.683-12.337-18.533-15.909-29.087-1.124-3.32-2.516-6.875-4.201-10.265-1.421-2.86 1.151-6.081 4.265-5.361z" fill="#87d147"/></g><g><path d="m16.16 110.782 13.468-3.848c8.836-2.524 18.142-3.033 27.175-1.344 5.387 1.007 11.837 2.519 18.757 4.751 1.697 2.237 3.419 4.528 5.157 6.862 8.354 11.228 11.774 25.716 12.999 38.335-8.065-4.314-17.494-7.685-27.046-7.463-3.186-1.362-6.23-2.644-9.093-3.836-2.072-.863-3.006-3.274-2.057-5.307l1.258-2.695c.505-1.082-.562-2.23-1.678-1.805l-9.054 3.449c-1.051.4-2.23.345-3.225-.179-6.98-3.673-13.473-8.225-19.326-13.556-2.528-2.303-5.396-4.679-8.436-6.775-2.569-1.767-1.897-5.733 1.101-6.589z" fill="#70d6f9"/></g><g><path d="m149.354 95.061-21.354 15.976v19.603l21.354-16.124z" fill="#b598f9"/></g><g><path d="m106.646 78.258 21.354 15.976v19.604l-21.354-16.125z" fill="#b598f9"/></g><g><path d="m171.258 87.341c-3.895 4.751-7.808 10.117-11.3 15.969l26.409-.703c4.619-5.971 8.903-11.375 12.566-15.934z" fill="#b2e26d"/></g><g><path d="m84.742 87.341c3.895 4.751 7.808 10.117 11.3 15.969l-26.409-.703c-4.619-5.971-8.903-11.375-12.566-15.934z" fill="#b2e26d"/></g><g><path d="m230.135 152.066c-5.107 1.201-15.069 1.857-32.402-2.809-19.267-5.187-39.546 7.587-50.474 16.214-.055.044-.11.087-.166.13-11.163 8.696-27.026 8.696-38.188 0-.055-.043-.111-.086-.166-.13-10.927-8.627-31.207-21.401-50.474-16.214-17.332 4.666-27.294 4.01-32.402 2.809-2.29-.539-4.444 1.255-4.314 3.604.908 16.42 8.434 61.656 39.972 76.073 23.94 10.944 49.602.038 61.314-6.364 3.224-1.762 7.103-1.762 10.326 0 11.713 6.402 37.374 17.308 61.314 6.364 31.538-14.417 39.064-59.654 39.972-76.073.133-2.348-2.021-4.142-4.312-3.604zm-116.457 51.709c-35.207 31.894-51.514-2.149-56.649-17.132-1.067-3.114 1.336-6.339 4.626-6.197 29.123 1.258 45.038 10.798 51.773 16.169 2.267 1.808 2.399 5.213.25 7.16zm85.293-17.132c-5.135 14.983-21.443 49.025-56.649 17.132-2.149-1.947-2.017-5.352.25-7.16 6.736-5.371 22.651-14.91 51.773-16.169 3.289-.142 5.693 3.083 4.626 6.197z" fill="#f5c84c"/></g><g><path d="m192.843 165.463c-35.662 2.482-50.271 31.152-50.271 31.152 6.736-5.371 22.651-14.91 51.773-16.169 3.289-.142 5.693 3.083 4.626 6.197l3.098-8.413c2.678-6.366-2.336-13.247-9.226-12.767z" fill="#fcdd86"/></g><g><path d="m63.157 165.463c35.662 2.482 50.271 31.152 50.271 31.152-6.736-5.371-22.651-14.91-51.773-16.169-3.289-.142-5.693 3.083-4.626 6.197l-3.098-8.413c-2.678-6.366 2.336-13.247 9.226-12.767z" fill="#fcdd86"/></g><g><path d="m34.35 84.2c-3.1-.6-5.6-3-6.2-6.1 0-.1-.3-.1-.3 0-.6 3.1-3.1 5.5-6.2 6.1-.1 0-.1.2 0 .3 3.1.6 5.6 3 6.2 6.1 0 .1.3.1.3 0 .6-3.1 3.1-5.5 6.2-6.1.1-.1.1-.3 0-.3z" fill="#87d147"/></g><g><path d="m167.9 23.9h2.3v2.3c0 1.8 1.4 3.2 3.2 3.2 1.7 0 3.2-1.4 3.2-3.1v-.1-2.3h2.3c1.8 0 3.2-1.4 3.2-3.2 0-1.7-1.4-3.2-3.1-3.2h-.1-2.3v-2.3c0-1.8-1.4-3.2-3.2-3.2-1.7 0-3.2 1.4-3.2 3.1v.1 2.3h-2.3c-1.8 0-3.2 1.4-3.2 3.2-.1 1.7 1.3 3.2 3.2 3.2-.1 0-.1 0 0 0z" fill="#70d6f9"/></g><g><circle cx="65.3" cy="252.6" fill="#fc657e" r="3.4"/></g><g><circle cx="150.3" cy="3.4" fill="#f5c84c" r="3.4"/></g><g><path d="m25.7 236.2c4.5-.8 8-4.3 8.9-8.7 0-.2.4-.2.4 0 .9 4.4 4.4 7.9 8.9 8.7.2 0 .2.3 0 .4-4.5.8-8 4.3-8.9 8.7 0 .2-.4.2-.4 0-.9-4.4-4.4-7.9-8.9-8.7-.2-.1-.2-.4 0-.4z" fill="#f5c84c"/></g><g><path d="m84.009 238.911c-10.404 0-18.37-2.536-23.525-4.893-14.248-6.513-25.271-19.517-32.761-38.648-7.001-17.881-8.405-34.801-8.669-39.561-.105-1.911.672-3.709 2.135-4.935 1.466-1.229 3.381-1.683 5.248-1.242 5.069 1.191 14.593 1.676 31.18-2.79 20.486-5.513 41.792 8.076 52.673 16.666l.105.083c10.386 8.091 24.826 8.092 35.163.038l.146-.115c10.889-8.596 32.204-22.186 52.679-16.671 16.587 4.466 26.111 3.983 31.181 2.79 1.866-.439 3.782.013 5.248 1.242 1.463 1.225 2.24 3.024 2.135 4.935-.264 4.76-1.668 21.68-8.669 39.561-7.49 19.132-18.513 32.135-32.761 38.648-10.525 4.812-32.78 10.375-63.553-6.444-2.48-1.356-5.445-1.356-7.928 0-15.701 8.581-29.187 11.335-40.027 11.336zm-58.967-84.441c-.307 0-.526.14-.643.236-.143.12-.378.386-.354.826 1.188 21.465 10.639 61.193 38.516 73.938 22.547 10.305 46.69.486 59.076-6.284 3.985-2.177 8.741-2.176 12.725 0 12.387 6.771 36.533 16.59 59.076 6.284 27.877-12.744 37.327-52.472 38.516-73.938.024-.44-.211-.707-.354-.826-.146-.122-.455-.31-.893-.207l-.572-2.434.572 2.434c-5.629 1.324-16.033 1.907-33.625-2.829-18.363-4.946-38.128 7.753-48.274 15.763l-.133.104c-12.193 9.5-29.159 9.498-41.306.036l-.186-.145c-10.139-8.004-29.909-20.702-48.268-15.757-17.593 4.737-27.994 4.153-33.625 2.829-.087-.021-.17-.03-.248-.03zm144.06 65.002c-8.751 0-18.294-4.636-28.459-13.844-1.561-1.415-2.418-3.434-2.352-5.542.066-2.122 1.059-4.1 2.722-5.426 7.138-5.691 23.544-15.43 53.224-16.712 2.4-.101 4.633.972 6.056 2.875 1.424 1.905 1.813 4.384 1.044 6.631-3.44 10.036-11.427 27.442-26.267 31.267-1.945.501-3.936.751-5.968.751zm25.449-36.53c-.032 0-.065 0-.099.002-28.264 1.221-43.66 10.314-50.322 15.625-.514.41-.82 1.021-.841 1.674-.012.375.064 1.093.711 1.679 11.199 10.146 21.233 14.169 29.821 11.957 12.57-3.24 19.671-18.962 22.784-28.046.237-.692.121-1.427-.318-2.016-.419-.56-1.047-.875-1.736-.875zm4.42 3.702h.01zm-112.073 32.828c-2.032 0-4.022-.25-5.968-.751-14.84-3.825-22.826-21.231-26.267-31.267-.77-2.247-.38-4.726 1.044-6.631 1.422-1.902 3.672-2.974 6.055-2.875 29.681 1.282 46.087 11.021 53.225 16.711 1.663 1.327 2.655 3.304 2.722 5.426.066 2.107-.791 4.127-2.352 5.541-10.165 9.209-19.708 13.846-28.459 13.846zm-25.449-36.53c-.689 0-1.317.315-1.736.875-.439.589-.556 1.324-.318 2.016 3.113 9.083 10.214 24.806 22.784 28.046 8.583 2.212 18.621-1.81 29.821-11.957.646-.585.723-1.303.711-1.678-.021-.654-.327-1.264-.841-1.674-6.662-5.311-22.059-14.404-50.322-15.625-.033-.003-.067-.003-.099-.003zm52.23 20.833h.01z"/></g><g><path d="m128 172.522c-1.381 0-2.5-1.119-2.5-2.5v-129.172c0-1.381 1.119-2.5 2.5-2.5s2.5 1.119 2.5 2.5v129.173c0 1.38-1.119 2.499-2.5 2.499z"/></g><g><path d="m128 174.578c-6.133 0-12.266-1.646-17.616-4.939-.486-.299-.854-.755-1.046-1.293-3.445-9.717-5.192-18.792-5.192-26.971v-90.325c0-13.304 6.518-31.809 18.976-41.435 2.873-2.219 6.885-2.218 9.758 0 12.458 9.625 18.976 28.13 18.976 41.435v90.324c0 8.179-1.747 17.254-5.192 26.971-.191.538-.56.995-1.046 1.293-5.352 3.294-11.485 4.94-17.618 4.94zm-14.246-8.752c8.746 5.012 19.746 5.012 28.492 0 3.059-8.856 4.608-17.078 4.608-24.452v-90.324c0-14.09-7.163-29.852-17.032-37.478-1.057-.814-2.588-.815-3.645 0-9.869 7.625-17.032 23.387-17.032 37.478v90.324c.001 7.374 1.55 15.596 4.609 24.452zm30.552 1.684h.01z"/></g><g><path d="m149.356 131.303c-.185 0-.372-.021-.56-.063-1.346-.308-2.188-1.648-1.88-2.995 8.331-36.424 43.691-64.062 45.192-65.22 1.094-.843 2.661-.641 3.506.451.844 1.092.642 2.662-.45 3.506-.354.273-35.448 27.726-43.373 62.378-.265 1.159-1.294 1.943-2.435 1.943z"/></g><g><path d="m164.758 144.692c-.687 0-1.37-.281-1.864-.833-.921-1.029-.833-2.609.196-3.53 20.236-18.106 47.31-23.476 48.453-23.696 1.349-.258 2.665.626 2.926 1.982.262 1.355-.626 2.666-1.98 2.928-.267.052-26.885 5.352-46.064 22.513-.478.426-1.073.636-1.667.636z"/></g><g><path d="m164.758 144.692c-.687 0-1.37-.281-1.864-.833-.921-1.029-.833-2.609.196-3.53 20.236-18.106 47.31-23.476 48.453-23.696 1.349-.258 2.665.626 2.926 1.982.262 1.355-.626 2.666-1.98 2.928-.267.052-26.885 5.352-46.064 22.513-.478.426-1.073.636-1.667.636z"/></g><g><path d="m162.336 157.563c-.084 0-.169-.004-.255-.013-1.373-.139-2.374-1.365-2.235-2.739 1.635-16.162 6.154-29.316 13.434-39.099 7.426-9.979 15.443-20.33 23.832-30.764 6.767-8.416 11.978-17.944 15.489-28.321 1.311-3.874 2.767-7.432 4.33-10.577.321-.647.006-1.16-.145-1.35-.153-.195-.588-.632-1.316-.464l-13.987 3.238c-8.859 2.051-17.161 6.125-24.007 11.783-.931.769-1.896 1.586-2.887 2.448-.322.28-.506.68-.506 1.099v6.565c0 1.511-.892 2.884-2.272 3.499s-2.998.358-4.12-.653l-1.143-1.028c-.584-.524-1.463-.499-1.998.06-4.791 4.984-9.118 10.19-12.861 15.474-.798 1.127-2.357 1.393-3.485.595-1.126-.798-1.393-2.358-.595-3.485 3.887-5.487 8.373-10.887 13.336-16.049 2.178-2.266 5.582-2.601 8.139-.934v-4.043c0-1.868.812-3.644 2.226-4.873 1.022-.889 2.02-1.734 2.982-2.529 7.439-6.148 16.453-10.574 26.064-12.799l13.987-3.238c2.401-.556 4.84.301 6.368 2.236 1.52 1.925 1.786 4.482.696 6.675-1.462 2.943-2.832 6.292-4.07 9.953-3.7 10.935-9.194 20.978-16.329 29.852-8.349 10.386-16.328 20.686-23.717 30.616-6.732 9.048-10.929 21.367-12.471 36.617-.13 1.288-1.216 2.248-2.484 2.248z"/></g><g><path d="m189.605 150.461c-.971 0-1.895-.569-2.3-1.519-.543-1.27.047-2.739 1.317-3.281 3.094-1.321 6.053-2.567 8.842-3.729.494-.206.707-.595.79-.809s.188-.647-.038-1.134l-1.258-2.694c-.663-1.42-.401-3.08.666-4.228 1.067-1.146 2.702-1.529 4.167-.97l9.054 3.449c.395.15.821.129 1.17-.055 6.795-3.575 13.123-8.013 18.809-13.192 2.952-2.69 5.88-5.04 8.7-6.985.531-.367.534-.884.489-1.16-.037-.228-.196-.779-.86-.969l-13.467-3.848c-8.521-2.434-17.521-2.88-26.028-1.29-6.093 1.14-12.145 2.662-17.987 4.525-1.315.419-2.723-.307-3.142-1.622-.42-1.315.307-2.722 1.622-3.142 6.039-1.926 12.292-3.499 18.587-4.677 9.264-1.731 19.058-1.249 28.321 1.397l13.467 3.848c2.333.666 4.027 2.569 4.421 4.966.392 2.385-.599 4.717-2.585 6.087-2.635 1.817-5.384 4.026-8.171 6.565-6 5.464-12.678 10.148-19.847 13.92-1.618.853-3.543.964-5.278.303l-6.354-2.421.036.078c.75 1.608.81 3.403.169 5.055-.641 1.651-1.894 2.936-3.53 3.617-2.775 1.156-5.721 2.396-8.801 3.711-.319.139-.652.204-.981.204z"/></g><g><path d="m106.644 131.303c-1.141 0-2.17-.785-2.436-1.943-7.925-34.652-43.02-62.104-43.373-62.378-1.092-.844-1.294-2.414-.45-3.506.845-1.092 2.412-1.294 3.506-.451 1.501 1.159 36.861 28.796 45.192 65.22.308 1.346-.534 2.687-1.88 2.995-.187.043-.375.063-.559.063z"/></g><g><path d="m91.242 144.692c-.594 0-1.188-.21-1.666-.637-19.215-17.193-45.797-22.461-46.063-22.512-1.356-.261-2.244-1.571-1.983-2.927.262-1.356 1.582-2.242 2.927-1.983 1.144.22 28.217 5.59 48.453 23.696 1.029.921 1.117 2.501.196 3.53-.494.552-1.177.833-1.864.833z"/></g><g><path d="m91.242 144.692c-.594 0-1.188-.21-1.666-.637-19.215-17.193-45.797-22.461-46.063-22.512-1.356-.261-2.244-1.571-1.983-2.927.262-1.356 1.582-2.242 2.927-1.983 1.144.22 28.217 5.59 48.453 23.696 1.029.921 1.117 2.501.196 3.53-.494.552-1.177.833-1.864.833z"/></g><g><path d="m93.677 157.688c-1.269 0-2.355-.962-2.484-2.251-1.532-15.307-5.732-27.667-12.483-36.739-7.389-9.93-15.368-20.23-23.717-30.616-7.135-8.874-12.629-18.917-16.329-29.852-1.238-3.662-2.608-7.01-4.07-9.954-1.09-2.192-.823-4.75.696-6.674 1.529-1.935 3.973-2.79 6.368-2.236l13.987 3.238c9.611 2.225 18.625 6.651 26.065 12.799.962.794 1.959 1.64 2.982 2.53 1.413 1.228 2.225 3.004 2.225 4.872v4.043c2.554-1.666 5.96-1.332 8.139.934 4.978 5.179 9.476 10.593 13.368 16.094.797 1.127.53 2.688-.597 3.485-1.127.798-2.688.531-3.485-.596-3.749-5.297-8.086-10.518-12.892-15.518-.536-.559-1.414-.583-1.999-.059l-1.142 1.028c-1.123 1.011-2.739 1.268-4.12.653s-2.272-1.988-2.272-3.499v-6.565c0-.419-.184-.819-.505-1.098-.991-.863-1.957-1.68-2.887-2.449-6.847-5.657-15.148-9.732-24.008-11.783l-13.987-3.238c-.731-.168-1.163.269-1.316.464-.15.19-.466.703-.145 1.35 1.563 3.145 3.02 6.704 4.33 10.578 3.512 10.376 8.723 19.905 15.489 28.321 8.389 10.434 16.406 20.785 23.832 30.764 7.299 9.809 11.823 23.006 13.446 39.226.138 1.374-.864 2.599-2.238 2.737-.084.007-.168.011-.251.011z"/></g><g><path d="m66.285 150.414c-.328 0-.66-.064-.98-.201-3.041-1.298-5.949-2.522-8.691-3.664-1.637-.682-2.89-1.966-3.53-3.618-.641-1.652-.581-3.447.169-5.055l.036-.078-6.354 2.421c-1.735.66-3.659.549-5.279-.304-7.168-3.771-13.846-8.455-19.846-13.919-2.787-2.539-5.536-4.748-8.171-6.565-1.986-1.37-2.977-3.702-2.585-6.087.394-2.397 2.088-4.3 4.421-4.966l13.467-3.848c9.263-2.646 19.056-3.129 28.321-1.397 6.3 1.179 12.561 2.754 18.606 4.683 1.315.419 2.042 1.826 1.622 3.142s-1.826 2.041-3.142 1.622c-5.851-1.866-11.908-3.391-18.007-4.531-8.505-1.591-17.508-1.144-26.028 1.29l-13.467 3.848c-.664.19-.823.741-.86.969-.045.276-.042.793.489 1.16 2.82 1.945 5.748 4.295 8.7 6.985 5.686 5.179 12.014 9.617 18.808 13.191.351.185.775.206 1.171.055l9.054-3.449c1.466-.558 3.101-.176 4.167.971 1.067 1.148 1.329 2.807.666 4.228l-1.258 2.695c-.227.486-.121.919-.038 1.133s.296.604.79.81c2.756 1.147 5.678 2.377 8.732 3.681 1.271.542 1.86 2.011 1.317 3.281-.405.948-1.329 1.517-2.3 1.517z"/></g><g><path d="m142.64 198.983c-.397 0-.801-.095-1.176-.295-1.218-.65-1.678-2.165-1.027-3.383 1.63-3.051 16.942-29.88 52.232-32.336 4.137-.283 8.039 1.545 10.442 4.903 2.365 3.306 2.844 7.516 1.284 11.273l-2.883 7.832c-.478 1.296-1.918 1.959-3.209 1.482-1.296-.477-1.96-1.914-1.482-3.21l2.901-7.882c.013-.036.026-.071.041-.106.922-2.19.66-4.552-.72-6.48-1.383-1.934-3.627-2.999-6.027-2.824-33.168 2.308-47.573 28.586-48.17 29.704-.45.842-1.314 1.322-2.206 1.322z"/></g><g><path d="m113.302 198.874c-.887 0-1.745-.473-2.198-1.307-1.519-2.793-15.77-27.359-48.12-29.61-2.394-.174-4.645.89-6.027 2.824-1.38 1.928-1.642 4.29-.72 6.48.015.035.028.07.041.106l2.789 7.576c.478 1.296-.187 2.733-1.482 3.21-1.291.477-2.732-.187-3.209-1.482l-2.771-7.526c-1.56-3.757-1.08-7.967 1.284-11.273 2.402-3.357 6.282-5.186 10.442-4.903 35.01 2.437 50.513 29.17 52.165 32.211.659 1.213.211 2.731-1.002 3.39-.38.206-.789.304-1.192.304z"/></g><g><path d="m128.602 132.688c-.758 0-1.506-.343-1.997-.994-.832-1.102-.613-2.669.488-3.501l20.127-15.198c1.104-.833 2.671-.612 3.502.489.832 1.102.613 2.669-.488 3.501l-20.127 15.198c-.452.34-.981.505-1.505.505z"/></g><g><path d="m128.436 113.213c-.761 0-1.513-.346-2.004-1.002-.827-1.105-.602-2.672.504-3.5l20.594-15.407c1.105-.827 2.673-.601 3.5.504s.602 2.672-.504 3.5l-20.594 15.407c-.45.336-.976.498-1.496.498z"/></g><g><path d="m127.721 96.526c-.521 0-1.047-.162-1.496-.498l-20.642-15.443c-1.105-.827-1.331-2.394-.504-3.5s2.395-1.331 3.5-.504l20.642 15.443c1.105.827 1.331 2.394.504 3.5-.492.656-1.244 1.002-2.004 1.002z"/></g><g><path d="m127.779 116.173c-.524 0-1.054-.165-1.505-.505l-20.868-15.758c-1.102-.832-1.32-2.4-.488-3.501.831-1.102 2.4-1.32 3.502-.489l20.868 15.758c1.102.832 1.32 2.4.488 3.501-.491.651-1.24.994-1.997.994z"/></g><g><path d="m160.437 105.797c-1.351 0-2.462-1.076-2.498-2.434-.037-1.38 1.053-2.529 2.433-2.565l24.811-.66c1.34-.052 2.528 1.052 2.565 2.433s-1.053 2.529-2.433 2.565l-24.811.66c-.023.001-.045.001-.067.001z"/></g><g><path d="m171.747 89.83c-1.353 0-2.466-1.08-2.498-2.439-.033-1.38 1.059-2.526 2.438-2.56l26.522-.64c1.337-.061 2.526 1.059 2.56 2.438.033 1.38-1.059 2.526-2.438 2.56l-26.522.64c-.021.001-.041.001-.062.001z"/></g><g><path d="m84.294 89.831c-.021 0-.041 0-.062 0l-26.646-.643c-1.38-.034-2.472-1.18-2.438-2.56.032-1.38 1.143-2.465 2.56-2.439l26.646.644c1.38.033 2.472 1.179 2.438 2.56-.032 1.357-1.146 2.438-2.498 2.438z"/></g><g><path d="m95.522 105.796c-.022 0-.045 0-.067-.001l-25.521-.679c-1.38-.037-2.47-1.186-2.433-2.565.037-1.38 1.183-2.461 2.565-2.433l25.521.679c1.38.037 2.47 1.186 2.433 2.565-.036 1.359-1.147 2.434-2.498 2.434z"/></g></g></g></svg>