<svg enable-background="new 0 0 256 256" height="512" viewBox="0 0 256 256" width="512" xmlns="http://www.w3.org/2000/svg"><g id="Layer_18"><g><g><path d="m74.572 156.428 7.402-10.681h-63.948l7.402 10.681-7.402 10.684 7.402 10.688-7.402 10.685 7.402 10.692-7.402 10.692h63.948l-7.402-10.692 7.402-10.692-7.402-10.685 7.402-10.688z" fill="#70d6f9"/></g><g><circle cx="50" cy="217.28" fill="#f5c84c" r="6.169"/></g><g><path d="m230.572 156.428 7.402-10.681h-63.948l7.402 10.681-7.402 10.684 7.402 10.688-7.402 10.685 7.402 10.692-7.402 10.692h63.948l-7.402-10.692 7.402-10.692-7.402-10.685 7.402-10.688z" fill="#f98fa6"/></g><g><circle cx="206" cy="217.28" fill="#f5c84c" r="6.169"/></g><g><path d="m120.123 2.5c-32.711 0-59.228 26.517-59.228 59.228 0 5.829.856 11.455 2.425 16.776.112-.095.218-.201.313-.32 5.045-6.275 15.534-3.727 17.201 4.113.256 1.206 1.155 2.147 2.332 2.516 1.948.612 3.53 2.049 4.338 3.902.567 1.301 1.815 2.138 3.234 2.104 3.806-.091 7.278 2.98 7.199 7.175-.075 3.989-3.649 7.245-7.639 7.245h-10.344c10.557 9.751 24.664 15.716 40.169 15.716 1.385 0 2.755-.065 4.116-.158.034-6.944 5.82-11.996 12.168-11.844 2.4.057 4.511-1.358 5.47-3.559 1.366-3.135 4.042-5.566 7.338-6.6 1.991-.625 3.511-2.216 3.945-4.257 2.198-10.339 13.464-15.235 22.368-11.864 2.464-6.513 3.823-13.569 3.823-20.945 0-32.711-26.517-59.228-59.228-59.228z" fill="#fcdd86"/></g><g><path d="m174.509 38.258c-2.858-6.613-6.889-12.595-11.826-17.699-4.602 1.37-7.961 5.628-7.961 10.675 0 6.153 4.988 11.142 11.142 11.142 3.489 0 6.602-1.606 8.645-4.118z" fill="#f5c84c"/></g><g><circle cx="110.154" cy="67.006" fill="#f5c84c" r="16.42"/></g><g><circle cx="123.055" cy="27.129" fill="#f5c84c" r="7.037"/></g><g><path d="m219.424 106.542c.663-16.689-18.399-27.068-32.091-18.083-1.649 1.082-3.839.656-5.075-.881-8.534-10.615-26.277-6.305-29.097 6.958-.434 2.041-1.954 3.632-3.945 4.257-3.296 1.034-5.972 3.466-7.338 6.6-.959 2.2-3.07 3.616-5.47 3.559-6.438-.154-12.311 5.041-12.178 12.138.127 6.748 6.173 12.255 12.922 12.255h82.408c6.171 0 11.54-4.757 11.732-10.925.176-5.672-3.643-10.568-8.96-11.901-1.804-.453-2.982-2.118-2.908-3.977z" fill="#edf4fc"/></g><g><path d="m41.662 89.395c-.392-9.866 10.877-16.002 18.971-10.69.975.64 2.27.388 3-.521 5.045-6.275 15.534-3.727 17.201 4.113.256 1.206 1.155 2.147 2.332 2.516 1.948.612 3.53 2.049 4.338 3.902.567 1.301 1.815 2.138 3.234 2.104 3.806-.091 7.278 2.98 7.199 7.175-.075 3.989-3.649 7.245-7.639 7.245h-48.716c-3.648 0-6.822-2.812-6.935-6.459-.104-3.353 2.153-6.247 5.297-7.036 1.065-.266 1.762-1.251 1.718-2.349z" fill="#dae6f1"/></g><g><path d="m255.925 119.525c-3.1-.6-5.6-3-6.2-6.1 0-.1-.3-.1-.3 0-.6 3.1-3.1 5.5-6.2 6.1-.1 0-.1.2 0 .3 3.1.6 5.6 3 6.2 6.1 0 .1.3.1.3 0 .6-3.1 3.1-5.5 6.2-6.1.1-.1.1-.3 0-.3z" fill="#fc657e"/></g><g><path d="m98.9 233.9h2.3v2.3c0 1.8 1.4 3.2 3.2 3.2 1.7 0 3.2-1.4 3.2-3.1v-.1-2.3h2.3c1.8 0 3.2-1.4 3.2-3.2 0-1.7-1.4-3.2-3.1-3.2h-.1-2.3v-2.3c0-1.8-1.4-3.2-3.2-3.2-1.7 0-3.2 1.4-3.2 3.1v.1 2.3h-2.3c-1.8 0-3.2 1.4-3.2 3.2-.1 1.7 1.3 3.2 3.2 3.2-.1 0-.1 0 0 0z" fill="#87d147"/></g><g><circle cx="126.3" cy="206.9" fill="#f5c84c" r="3.4"/></g><g><path d="m.15 83.2c4.5-.8 8-4.3 8.9-8.7 0-.2.4-.2.4 0 .9 4.4 4.4 7.9 8.9 8.7.2 0 .2.3 0 .4-4.5.8-8 4.3-8.9 8.7 0 .2-.4.2-.4 0-.9-4.4-4.4-7.9-8.9-8.7-.2-.1-.2-.4 0-.4z" fill="#f5c84c"/></g><g><circle cx="27.3" cy="53.4" fill="#3caadc" r="3.4"/></g><g><path d="m81.6 211.824c-.793 0-1.572-.376-2.058-1.077l-7.025-10.147c-.592-.856-.593-1.99 0-2.846l6.417-9.269-6.417-9.261c-.593-.856-.593-1.991 0-2.847l6.417-9.264-6.417-9.261c-.593-.856-.593-1.991 0-2.848l7.13-10.289c.786-1.135 2.345-1.418 3.479-.631 1.135.786 1.417 2.344.631 3.479l-6.143 8.865 6.416 9.26c.593.856.593 1.991 0 2.847l-6.417 9.265 6.417 9.261c.593.856.593 1.991 0 2.847l-6.417 9.27 6.041 8.724c.786 1.135.502 2.693-.633 3.479-.435.299-.931.443-1.421.443z"/></g><g><path d="m18.351 211.896c-.491 0-.986-.144-1.42-.444-1.135-.786-1.418-2.344-.633-3.479l6.09-8.795-6.417-9.27c-.593-.856-.592-1.99 0-2.847l6.417-9.261-6.417-9.265c-.593-.856-.593-1.991 0-2.847l6.416-9.26-6.059-8.743c-.787-1.135-.504-2.692.631-3.479 1.135-.788 2.693-.504 3.479.631l7.045 10.167c.594.856.594 1.991 0 2.848l-6.417 9.261 6.417 9.264c.593.856.593 1.991 0 2.847l-6.417 9.261 6.417 9.269c.592.856.592 1.99 0 2.846l-7.075 10.218c-.485.702-1.264 1.078-2.057 1.078z"/></g><g><path d="m84.442 148.247h-68.884c-1.381 0-2.5-1.119-2.5-2.5s1.119-2.5 2.5-2.5h68.884c1.381 0 2.5 1.119 2.5 2.5s-1.119 2.5-2.5 2.5z"/></g><g><path d="m50 125.026c-1.381 0-2.5-1.119-2.5-2.5v-120.026c0-1.381 1.119-2.5 2.5-2.5s2.5 1.119 2.5 2.5v120.026c0 1.381-1.119 2.5-2.5 2.5z"/></g><g><path d="m74.161 158.934h-48.322c-1.381 0-2.5-1.119-2.5-2.5s1.119-2.5 2.5-2.5h48.321c1.381 0 2.5 1.119 2.5 2.5s-1.118 2.5-2.499 2.5z"/></g><g><path d="m74.161 180.308h-48.322c-1.381 0-2.5-1.119-2.5-2.5s1.119-2.5 2.5-2.5h48.321c1.381 0 2.5 1.119 2.5 2.5s-1.118 2.5-2.499 2.5z"/></g><g><path d="m74.161 201.682h-48.322c-1.381 0-2.5-1.119-2.5-2.5s1.119-2.5 2.5-2.5h48.321c1.381 0 2.5 1.119 2.5 2.5s-1.118 2.5-2.499 2.5z"/></g><g><path d="m80.164 169.621h-60.328c-1.381 0-2.5-1.119-2.5-2.5s1.119-2.5 2.5-2.5h60.328c1.381 0 2.5 1.119 2.5 2.5s-1.119 2.5-2.5 2.5z"/></g><g><path d="m80.164 190.995h-60.328c-1.381 0-2.5-1.119-2.5-2.5s1.119-2.5 2.5-2.5h60.328c1.381 0 2.5 1.119 2.5 2.5s-1.119 2.5-2.5 2.5z"/></g><g><path d="m84.442 212.369h-68.884c-1.381 0-2.5-1.119-2.5-2.5s1.119-2.5 2.5-2.5h68.884c1.381 0 2.5 1.119 2.5 2.5s-1.119 2.5-2.5 2.5z"/></g><g><path d="m57.201 239.721h-14.402c-1.381 0-2.5-1.119-2.5-2.5s1.119-2.5 2.5-2.5h14.402c1.381 0 2.5 1.119 2.5 2.5s-1.119 2.5-2.5 2.5z"/></g><g><path d="m40.232 253.513c-.315 0-.635-.06-.945-.187-1.278-.522-1.89-1.982-1.368-3.26l5.141-12.572c.522-1.278 1.979-1.893 3.26-1.368 1.278.522 1.89 1.982 1.368 3.26l-5.141 12.572c-.396.969-1.33 1.555-2.315 1.555z"/></g><g><path d="m50 256c-1.381 0-2.5-1.119-2.5-2.5v-28.145c0-1.381 1.119-2.5 2.5-2.5s2.5 1.119 2.5 2.5v28.145c0 1.381-1.119 2.5-2.5 2.5z"/></g><g><path d="m59.768 253.513c-.985 0-1.919-.586-2.315-1.554l-5.141-12.572c-.522-1.278.09-2.738 1.368-3.26 1.279-.521 2.738.09 3.26 1.368l5.141 12.572c.522 1.278-.09 2.738-1.368 3.26-.309.126-.63.186-.945.186z"/></g><g><path d="m75.189 148.247h-50.378c-1.025 0-1.947-.626-2.325-1.58-.377-.953-.134-2.041.614-2.743l25.189-23.646c.962-.903 2.46-.903 3.422 0l25.189 23.646c.748.702.991 1.79.614 2.743-.378.953-1.3 1.58-2.325 1.58zm-44.062-5h37.746l-18.873-17.718z"/></g><g><path d="m50 225.949c-4.78 0-8.668-3.889-8.668-8.669s3.889-8.668 8.668-8.668 8.668 3.889 8.668 8.668c0 4.78-3.888 8.669-8.668 8.669zm0-12.338c-2.023 0-3.668 1.646-3.668 3.668s1.646 3.669 3.668 3.669 3.668-1.646 3.668-3.669-1.645-3.668-3.668-3.668z"/></g><g><path d="m237.393 211.525c-.792 0-1.572-.376-2.058-1.077l-6.818-9.848c-.593-.856-.593-1.99 0-2.846l6.417-9.269-6.416-9.261c-.594-.856-.594-1.991-.001-2.847l6.417-9.264-6.416-9.261c-.594-.856-.594-1.991 0-2.848l6.876-9.923c.786-1.135 2.343-1.418 3.479-.631 1.135.786 1.417 2.344.631 3.479l-5.89 8.499 6.416 9.26c.594.856.594 1.991.001 2.847l-6.417 9.265 6.416 9.261c.594.856.594 1.99.001 2.847l-6.417 9.27 5.833 8.425c.786 1.135.503 2.692-.633 3.479-.434.299-.93.443-1.421.443z"/></g><g><path d="m174.394 211.835c-.491 0-.987-.144-1.421-.444-1.136-.786-1.419-2.343-.633-3.479l6.047-8.735-6.417-9.27c-.593-.856-.593-1.99.001-2.847l6.416-9.261-6.417-9.265c-.593-.856-.593-1.991.001-2.847l6.416-9.26-6.088-8.785c-.786-1.135-.504-2.692.631-3.479 1.135-.788 2.691-.505 3.479.631l7.074 10.209c.594.856.594 1.991 0 2.848l-6.416 9.261 6.417 9.264c.593.856.593 1.991-.001 2.847l-6.416 9.261 6.417 9.269c.593.856.593 1.99 0 2.846l-7.032 10.158c-.486.702-1.266 1.078-2.058 1.078z"/></g><g><path d="m240.441 148.247h-68.883c-1.381 0-2.5-1.119-2.5-2.5s1.119-2.5 2.5-2.5h68.883c1.381 0 2.5 1.119 2.5 2.5s-1.119 2.5-2.5 2.5z"/></g><g><path d="m206 125.026c-1.381 0-2.5-1.119-2.5-2.5v-120.026c0-1.381 1.119-2.5 2.5-2.5s2.5 1.119 2.5 2.5v120.026c0 1.381-1.119 2.5-2.5 2.5z"/></g><g><path d="m230.16 158.934h-48.32c-1.381 0-2.5-1.119-2.5-2.5s1.119-2.5 2.5-2.5h48.32c1.381 0 2.5 1.119 2.5 2.5s-1.119 2.5-2.5 2.5z"/></g><g><path d="m230.16 180.308h-48.32c-1.381 0-2.5-1.119-2.5-2.5s1.119-2.5 2.5-2.5h48.32c1.381 0 2.5 1.119 2.5 2.5s-1.119 2.5-2.5 2.5z"/></g><g><path d="m230.16 201.682h-48.32c-1.381 0-2.5-1.119-2.5-2.5s1.119-2.5 2.5-2.5h48.32c1.381 0 2.5 1.119 2.5 2.5s-1.119 2.5-2.5 2.5z"/></g><g><path d="m236.164 169.621h-60.328c-1.381 0-2.5-1.119-2.5-2.5s1.119-2.5 2.5-2.5h60.328c1.381 0 2.5 1.119 2.5 2.5s-1.119 2.5-2.5 2.5z"/></g><g><path d="m236.164 190.995h-60.328c-1.381 0-2.5-1.119-2.5-2.5s1.119-2.5 2.5-2.5h60.328c1.381 0 2.5 1.119 2.5 2.5s-1.119 2.5-2.5 2.5z"/></g><g><path d="m240.441 212.369h-68.883c-1.381 0-2.5-1.119-2.5-2.5s1.119-2.5 2.5-2.5h68.883c1.381 0 2.5 1.119 2.5 2.5s-1.119 2.5-2.5 2.5z"/></g><g><path d="m213.201 239.721h-14.402c-1.381 0-2.5-1.119-2.5-2.5s1.119-2.5 2.5-2.5h14.402c1.381 0 2.5 1.119 2.5 2.5s-1.119 2.5-2.5 2.5z"/></g><g><path d="m196.232 253.513c-.315 0-.636-.06-.945-.187-1.277-.522-1.891-1.982-1.368-3.26l5.14-12.572c.523-1.278 1.983-1.892 3.261-1.368 1.277.522 1.891 1.982 1.368 3.26l-5.14 12.572c-.397.968-1.33 1.555-2.316 1.555z"/></g><g><path d="m206 256c-1.381 0-2.5-1.119-2.5-2.5v-28.145c0-1.381 1.119-2.5 2.5-2.5s2.5 1.119 2.5 2.5v28.145c0 1.381-1.119 2.5-2.5 2.5z"/></g><g><path d="m215.768 253.513c-.985 0-1.919-.586-2.315-1.555l-5.14-12.572c-.522-1.278.091-2.737 1.368-3.26 1.276-.524 2.737.089 3.261 1.368l5.14 12.572c.522 1.278-.091 2.737-1.368 3.26-.311.127-.631.187-.946.187z"/></g><g><path d="m231.188 148.247h-50.377c-1.025 0-1.947-.626-2.324-1.58-.378-.953-.135-2.041.613-2.743l25.188-23.646c.961-.903 2.461-.903 3.422 0l25.188 23.646c.748.702.991 1.79.613 2.743-.375.953-1.297 1.58-2.323 1.58zm-44.061-5h37.746l-18.873-17.718z"/></g><g><path d="m206 225.949c-4.78 0-8.669-3.889-8.669-8.669s3.889-8.668 8.669-8.668 8.669 3.889 8.669 8.668c0 4.78-3.889 8.669-8.669 8.669zm0-12.338c-2.023 0-3.669 1.646-3.669 3.668s1.646 3.669 3.669 3.669 3.669-1.646 3.669-3.669-1.646-3.668-3.669-3.668z"/></g><g><path d="m120.123 123.456c-15.394 0-30.143-5.708-41.53-16.072-1.021-.929-1.096-2.51-.166-3.531s2.511-1.096 3.531-.166c10.464 9.524 24.018 14.769 38.165 14.769.949 0 1.963-.032 3.101-.098 1.369-.087 2.561.972 2.641 2.351.081 1.378-.972 2.561-2.351 2.641-1.236.07-2.345.106-3.391.106z"/></g><g><path d="m175.791 84.464c-.284 0-.572-.048-.854-.151-1.298-.472-1.967-1.907-1.495-3.204 2.263-6.219 3.409-12.74 3.409-19.381 0-31.28-25.449-56.728-56.728-56.728-31.28 0-56.728 25.448-56.728 56.728 0 5.043.674 10.07 2.003 14.942.364 1.332-.421 2.707-1.753 3.07-1.332.368-2.707-.421-3.07-1.753-1.446-5.301-2.18-10.771-2.18-16.258.001-34.038 27.691-61.729 61.728-61.729s61.728 27.691 61.728 61.728c0 7.226-1.248 14.321-3.71 21.09-.37 1.015-1.329 1.646-2.35 1.646z"/></g><g><path d="m165.863 44.876c-7.522 0-13.642-6.12-13.642-13.642 0-5.988 4.009-11.363 9.748-13.071.89-.266 1.86-.013 2.51.658 5.221 5.396 9.367 11.602 12.324 18.445.37.856.232 1.846-.355 2.569-2.605 3.204-6.464 5.041-10.585 5.041zm-3.845-21.375c-2.883 1.442-4.796 4.441-4.796 7.733 0 4.765 3.877 8.642 8.642 8.642 2.11 0 4.113-.762 5.676-2.127-2.43-5.202-5.625-9.983-9.522-14.248z"/></g><g><path d="m110.154 85.925c-10.433 0-18.92-8.487-18.92-18.92 0-10.432 8.487-18.919 18.92-18.919 10.432 0 18.919 8.487 18.919 18.919 0 10.433-8.487 18.92-18.919 18.92zm0-32.839c-7.675 0-13.92 6.244-13.92 13.919s6.245 13.92 13.92 13.92 13.919-6.245 13.919-13.92-6.243-13.919-13.919-13.919z"/></g><g><path d="m123.055 36.667c-5.259 0-9.537-4.278-9.537-9.537s4.278-9.537 9.537-9.537c5.258 0 9.537 4.278 9.537 9.537s-4.279 9.537-9.537 9.537zm0-14.075c-2.502 0-4.537 2.035-4.537 4.537s2.035 4.537 4.537 4.537c2.501 0 4.537-2.035 4.537-4.537s-2.035-4.537-4.537-4.537z"/></g><g><path d="m219.56 135.846h-82.407c-8.21 0-15.272-6.735-15.422-14.708-.074-3.97 1.421-7.685 4.21-10.459 2.792-2.779 6.658-4.318 10.527-4.225 1.395.054 2.552-.757 3.12-2.059 1.667-3.827 4.904-6.738 8.88-7.986 1.167-.367 2.008-1.26 2.248-2.391 1.513-7.112 6.996-12.613 14.311-14.355 7.286-1.735 14.636.697 19.181 6.35.452.562 1.205.716 1.754.357 7.203-4.728 16.465-4.955 24.169-.596 7.729 4.374 12.139 12.175 11.793 20.868-.028.698.391 1.295 1.019 1.453 6.496 1.629 11.059 7.687 10.85 14.404-.231 7.359-6.615 13.347-14.233 13.347zm-83.43-24.396c-2.467 0-4.885 1.004-6.664 2.773-1.813 1.804-2.785 4.227-2.737 6.821.1 5.313 4.874 9.802 10.423 9.802h82.407c4.945 0 9.087-3.814 9.232-8.503.137-4.385-2.836-8.337-7.068-9.399-2.948-.74-4.921-3.413-4.798-6.501.27-6.785-3.191-12.885-9.259-16.317-6.066-3.433-13.333-3.269-18.964.424-2.707 1.779-6.318 1.177-8.394-1.404-3.322-4.133-8.738-5.904-14.125-4.619-5.419 1.291-9.473 5.325-10.579 10.53-.61 2.875-2.772 5.221-5.641 6.122-2.594.814-4.706 2.714-5.795 5.214-1.377 3.155-4.468 5.133-7.822 5.059-.072-.001-.144-.002-.216-.002zm83.294-4.908h.01z"/></g><g><path d="m90.298 107.74h-48.716c-5.05 0-9.282-3.984-9.434-8.881-.136-4.387 2.803-8.35 7.012-9.492-.172-5.478 2.622-10.383 7.494-13.139 4.814-2.725 10.593-2.622 15.143.253 2.944-3.554 7.626-5.073 12.26-3.971 4.712 1.123 8.246 4.674 9.223 9.268.064.303.302.547.636.651 2.632.826 4.776 2.753 5.881 5.288.168.387.492.614.882.603 2.576-.063 5.121.957 6.969 2.795s2.839 4.298 2.79 6.927c-.1 5.257-4.743 9.698-10.14 9.698zm-36.224-28.485c-1.688 0-3.396.44-4.958 1.324-3.247 1.837-5.1 5.096-4.956 8.716.091 2.314-1.393 4.318-3.609 4.875-2.039.512-3.472 2.418-3.406 4.533.069 2.226 2.059 4.036 4.436 4.036h48.716c2.69 0 5.092-2.239 5.14-4.792.023-1.252-.444-2.42-1.317-3.289-.886-.881-2.098-1.364-3.322-1.34-2.411.038-4.606-1.357-5.586-3.604-.525-1.207-1.544-2.123-2.794-2.516-2.048-.643-3.591-2.322-4.029-4.382-.683-3.211-3.284-4.917-5.49-5.443-2.841-.676-5.577.212-7.317 2.376-1.558 1.937-4.275 2.386-6.319 1.044-1.563-1.023-3.364-1.538-5.189-1.538z"/></g></g></g></svg>