<svg enable-background="new 0 0 256 256" height="512" viewBox="0 0 256 256" width="512" xmlns="http://www.w3.org/2000/svg"><g id="Layer_10"><g><g><path d="m198.073 242.471v-116.307c0-.564-.084-1.108-.234-1.623-2.621 3.152-6.601 5.177-10.958 5.177h-10.545c-3.13 0-5.667 2.537-5.667 5.667v5.178c0 3.264-2.695 5.899-5.981 5.8-3.176-.095-5.625-2.866-5.625-6.044v-4.691c0-2.96-2.164-5.603-5.11-5.884-3.38-.322-6.224 2.327-6.224 5.64v26.919c0 3.264-2.695 5.899-5.981 5.8-3.176-.095-5.625-2.866-5.625-6.044v-18.505c0-3.264-2.695-5.899-5.981-5.8-3.176.095-5.625 2.866-5.625 6.044v2.435c0 3.264-2.695 5.899-5.981 5.8-3.176-.095-5.625-2.866-5.625-6.044v-13.782c0-1.393-.935-2.624-2.286-2.963-2.339-.587-4.487-1.712-6.275-3.247-.176.079-.191.086-.367.165v116.307c0 5.365 3.73 9.85 8.735 11.029h74.048c4.537 0 8.805-2.604 10.496-6.814.523-1.3.811-2.723.811-4.213z" fill="#edf4fc"/></g><g><path d="m219.874 135.763h-21.801v12.975h21.801c2.179 0 4.019 1.84 4.019 4.019v58.373c0 7.633-6.21 13.843-13.843 13.843h-11.977v12.975h11.977c14.788 0 26.818-12.031 26.818-26.818v-58.373c0-9.371-7.623-16.994-16.994-16.994z" fill="#dae6f1"/></g><g><path d="m101.655 2.5h-25.922c-3.196 0-5.81 2.615-5.81 5.81v10.832c0 3.196 2.615 5.81 5.81 5.81h25.922c3.196 0 5.81-2.615 5.81-5.81v-10.832c0-3.195-2.614-5.81-5.81-5.81z" fill="#5b5d60"/></g><g><g><path d="m103.983 242.471v-116.307c0-.158.011-.314.024-.469-2.275-2.076-3.912-4.842-4.509-8.037-1.524-8.155 4.116-15.336 11.711-16.368-2.996-6.213-4.8-12.957-5.281-19.883l-3.922-56.471c-.117.007-.233.018-.351.018h-25.922c-.119 0-.234-.011-.351-.018l-3.922 56.47c-.656 9.447-3.764 18.559-9.016 26.438-5.964 8.947-9.147 19.458-9.147 30.211v101.962c0 7.447 6.037 13.483 13.483 13.483h43.828c.566 0 1.12-.046 1.668-.114-4.781-1.333-8.293-5.709-8.293-10.915z" fill="#f5c84c"/></g></g><g><path d="m186.881 129.718h-10.545c-3.13 0-5.667 2.537-5.667 5.667v5.178c0 3.264-2.695 5.899-5.982 5.8-3.176-.095-5.624-2.866-5.624-6.044v-4.934c0-3.13-2.537-5.667-5.667-5.667s-5.667 2.537-5.667 5.667v26.919c0 3.264-2.695 5.899-5.982 5.8-3.176-.095-5.624-2.866-5.624-6.044v-18.505c0-3.264-2.695-5.899-5.981-5.8-3.176.095-5.624 2.866-5.624 6.044v2.435c0 3.264-2.695 5.899-5.982 5.8-3.176-.095-5.624-2.866-5.624-6.044v84.564c0 4.083 3.31 7.393 7.393 7.393h61.448c4.083 0 7.393-3.31 7.393-7.393v-101.036c-.742.121-1.495.2-2.265.2z" fill="#e7974e"/></g><g><g><path d="m103.983 126.164c0-.158.011-.314.024-.469-.688-.628-1.317-1.318-1.876-2.065h-46.882c-1.284 4.675-1.953 9.524-1.953 14.425v76.771h50.687z" fill="#fca265"/></g></g><g><path d="m68.935 169.228c0-4.141.579-8.079 1.618-11.653h-17.257v23.306h17.256c-1.038-3.573-1.617-7.512-1.617-11.653z" fill="#fc657e"/></g><g><circle cx="165.759" cy="162.304" fill="#fce4be" r="5.803"/></g><g><circle cx="160.402" cy="210.514" fill="#feb872" r="5.803"/></g><g><circle cx="138.083" cy="190.873" fill="#feb872" r="9.374"/></g><g><path d="m130.142 137.756c-3.176.095-5.624 2.866-5.624 6.044v2.435c0 .151-.012.299-.023.446h11.629v-3.125c-.001-3.264-2.696-5.899-5.982-5.8z" fill="#fed690"/></g><g><path d="m176.336 129.718c-3.13 0-5.667 2.537-5.667 5.667v5.178c0 3.264-2.695 5.899-5.982 5.8-3.176-.095-5.624-2.866-5.624-6.044v-4.934c0-3.13-2.537-5.667-5.667-5.667s-5.667 2.537-5.667 5.667v11.296h41.416v-17.163c-.741.121-1.494.201-2.264.201h-10.545z" fill="#fed690"/></g><g><path d="m188.762 102.074c-1.537-.074-2.894-1.374-3.131-2.972-1.256-8.462-7.888-14.915-16.747-14.915-6.827 0-12.745 3.837-15.746 9.468-.575 1.078-1.806 1.626-3.012 1.427-.723-.119-1.465-.182-2.222-.182-1.649 0-3.227.295-4.692.829-.959.349-2.012.101-2.813-.531-2.356-1.862-5.329-2.975-8.565-2.975-5.424 0-10.111 3.125-12.377 7.67-.603 1.21-1.919 1.923-3.235 1.616-1.007-.234-2.057-.359-3.135-.359-8.516 0-15.235 7.693-13.588 16.508 1.082 5.792 5.57 10.186 11.112 11.584 1.357.342 2.302 1.568 2.302 2.967v13.782c0 3.177 2.448 5.948 5.624 6.044 3.286.099 5.982-2.536 5.982-5.8v-2.435c0-3.177 2.448-5.948 5.624-6.044 3.286-.099 5.981 2.536 5.981 5.8v18.505c0 3.177 2.448 5.948 5.624 6.044 3.286.099 5.982-2.536 5.982-5.8v-26.919c0-3.13 2.537-5.667 5.667-5.667 3.13 0 5.667 2.537 5.667 5.667v4.934c0 3.177 2.448 5.948 5.624 6.044 3.286.099 5.982-2.536 5.982-5.8v-5.178c0-3.13 2.537-5.667 5.667-5.667h10.545c7.681 0 14.201-6.285 14.141-13.965-.057-7.278-4.97-13.33-12.261-13.68z" fill="#fce4be"/></g><g><path d="m101.655 24.953h-25.922c-.119 0-.234-.011-.351-.018l-1.377 19.828h29.378l-1.377-19.828c-.117.007-.233.018-.351.018z" fill="#fc657e"/></g><g><path d="m103.983 150.616c-3.624-6.576-9.126-10.773-15.289-10.773-10.913 0-19.759 13.156-19.759 29.385s8.846 29.385 19.759 29.385c6.163 0 11.666-4.198 15.289-10.773z" fill="#f5c84c"/></g><g><path d="m45.432 84.2c-3.1-.6-5.6-3-6.2-6.1 0-.1-.3-.1-.3 0-.6 3.1-3.1 5.5-6.2 6.1-.1 0-.1.2 0 .3 3.1.6 5.6 3 6.2 6.1 0 .1.3.1.3 0 .6-3.1 3.1-5.5 6.2-6.1.1-.1.1-.3 0-.3z" fill="#fc657e"/></g><g><path d="m143.982 43.9h2.3v2.3c0 1.8 1.4 3.2 3.2 3.2 1.7 0 3.2-1.4 3.2-3.1v-.1-2.3h2.3c1.8 0 3.2-1.4 3.2-3.2 0-1.7-1.4-3.2-3.1-3.2h-.1-2.3v-2.3c0-1.8-1.4-3.2-3.2-3.2-1.7 0-3.2 1.4-3.2 3.1v.1 2.3h-2.3c-1.8 0-3.2 1.4-3.2 3.2-.1 1.7 1.3 3.2 3.2 3.2-.1 0-.1 0 0 0z" fill="#70d6f9"/></g><g><circle cx="35.382" cy="215.9" fill="#87d147" r="3.4"/></g><g><circle cx="135.382" cy="11.4" fill="#f5c84c" r="3.4"/></g><g><path d="m16.782 186.2c4.5-.8 8-4.3 8.9-8.7 0-.2.4-.2.4 0 .9 4.4 4.4 7.9 8.9 8.7.2 0 .2.3 0 .4-4.5.8-8 4.3-8.9 8.7 0 .2-.4.2-.4 0-.9-4.4-4.4-7.9-8.9-8.7-.2-.1-.2-.4 0-.4z" fill="#f5c84c"/></g><g><path d="m186.767 256h-74.048c-.193 0-.386-.022-.573-.066-6.277-1.479-10.662-7.015-10.662-13.463v-116.018c0-1.381 1.119-2.5 2.5-2.5s2.5 1.119 2.5 2.5v116.018c0 4.025 2.677 7.495 6.544 8.529h73.739c3.631 0 6.916-2.108 8.176-5.246.419-1.042.631-2.147.631-3.284v-116.306c0-.219-.023-.441-.069-.662-.282-1.352.585-2.676 1.937-2.958 1.345-.283 2.676.584 2.958 1.937.116.556.175 1.122.175 1.683v116.307c0 1.777-.333 3.508-.99 5.146-2.016 5.014-7.166 8.383-12.818 8.383z"/></g><g><path d="m210.05 227.473h-11.133c-1.381 0-2.5-1.119-2.5-2.5s1.119-2.5 2.5-2.5h11.133c6.255 0 11.343-5.088 11.343-11.343v-58.373c0-.795-.724-1.519-1.519-1.519h-21.311c-1.381 0-2.5-1.119-2.5-2.5s1.119-2.5 2.5-2.5h21.311c3.533 0 6.519 2.985 6.519 6.519v58.373c0 9.011-7.331 16.343-16.343 16.343z"/></g><g><path d="m210.05 240.448h-11.236c-1.381 0-2.5-1.119-2.5-2.5s1.119-2.5 2.5-2.5h11.236c13.409 0 24.318-10.909 24.318-24.318v-58.373c0-7.992-6.502-14.494-14.494-14.494h-20.936c-1.381 0-2.5-1.119-2.5-2.5s1.119-2.5 2.5-2.5h20.936c10.749 0 19.494 8.745 19.494 19.494v58.373c0 16.166-13.152 29.318-29.318 29.318z"/></g><g><path d="m112.954 149.181h-.043c-1.381 0-2.5-1.119-2.5-2.5v-.689c0-1.381 1.119-2.5 2.5-2.5s2.5 1.119 2.5 2.5c0 .135.011.269.026.402.082.708-.143 1.418-.616 1.951-.474.531-1.154.836-1.867.836z"/></g><g><path d="m101.655 27.453h-25.923c-4.582 0-8.31-3.728-8.31-8.311v-10.832c0-4.582 3.728-8.31 8.31-8.31h25.923c4.582 0 8.31 3.728 8.31 8.31v10.833c0 4.582-3.728 8.31-8.31 8.31zm-25.923-22.453c-1.825 0-3.31 1.485-3.31 3.31v10.833c0 1.826 1.484 3.311 3.31 3.311h25.923c1.825 0 3.31-1.485 3.31-3.311v-10.833c0-1.825-1.484-3.31-3.31-3.31z"/></g><g><g><path d="m110.927 103.192c-.941 0-1.842-.533-2.267-1.442-2.981-6.378-4.739-13.164-5.227-20.17l-3.867-55.688c-.096-1.377.943-2.572 2.321-2.667 1.362-.091 2.57.943 2.667 2.321l3.867 55.688c.443 6.391 2.048 12.581 4.768 18.4.585 1.251.045 2.739-1.206 3.323-.342.159-.702.235-1.056.235z"/></g><g><path d="m110.607 256h-43.827c-8.813 0-15.983-7.17-15.983-15.983v-101.962c0-11.283 3.308-22.209 9.566-31.597 5.003-7.504 7.978-16.227 8.603-25.225l3.87-55.722c.096-1.378 1.3-2.414 2.667-2.321 1.378.096 2.417 1.29 2.321 2.667l-3.87 55.722c-.686 9.864-3.946 19.426-9.431 27.651-5.709 8.564-8.727 18.531-8.727 28.824v101.962c0 6.056 4.927 10.983 10.983 10.983h43.827c.406 0 .839-.03 1.36-.095 1.372-.172 2.619.803 2.789 2.174.169 1.37-.804 2.619-2.174 2.788-.72.091-1.365.134-1.974.134z"/></g></g><g><path d="m181.752 240.448h-61.448c-5.455 0-9.893-4.438-9.893-9.893v-84.564c0-1.381 1.119-2.5 2.5-2.5s2.5 1.119 2.5 2.5v84.564c0 2.698 2.194 4.893 4.893 4.893h61.448c2.698 0 4.894-2.195 4.894-4.893v-99.992c0-1.381 1.119-2.5 2.5-2.5s2.5 1.119 2.5 2.5v99.992c0 5.455-4.439 9.893-9.894 9.893z"/></g><g><g><path d="m102.781 217.326h-48.875c-1.381 0-2.5-1.119-2.5-2.5s1.119-2.5 2.5-2.5h48.875c1.381 0 2.5 1.119 2.5 2.5s-1.119 2.5-2.5 2.5z"/></g><g><path d="m101.625 126.13h-45.78c-1.381 0-2.5-1.119-2.5-2.5s1.119-2.5 2.5-2.5h45.78c1.381 0 2.5 1.119 2.5 2.5s-1.119 2.5-2.5 2.5z"/></g></g><g><path d="m70.146 183.381h-16.177c-1.381 0-2.5-1.119-2.5-2.5s1.119-2.5 2.5-2.5h16.178c1.381 0 2.5 1.119 2.5 2.5s-1.12 2.5-2.501 2.5z"/></g><g><path d="m70 160.075h-15.917c-1.381 0-2.5-1.119-2.5-2.5s1.119-2.5 2.5-2.5h15.917c1.381 0 2.5 1.119 2.5 2.5s-1.119 2.5-2.5 2.5z"/></g><g><path d="m165.759 170.607c-4.578 0-8.303-3.725-8.303-8.303s3.725-8.303 8.303-8.303 8.303 3.725 8.303 8.303c0 4.579-3.725 8.303-8.303 8.303zm0-11.606c-1.821 0-3.303 1.481-3.303 3.303s1.481 3.303 3.303 3.303 3.303-1.482 3.303-3.303-1.482-3.303-3.303-3.303z"/></g><g><path d="m160.402 218.817c-4.578 0-8.303-3.725-8.303-8.303s3.725-8.303 8.303-8.303 8.303 3.725 8.303 8.303-3.725 8.303-8.303 8.303zm0-11.606c-1.821 0-3.303 1.481-3.303 3.303s1.481 3.303 3.303 3.303 3.303-1.482 3.303-3.303-1.481-3.303-3.303-3.303z"/></g><g><path d="m138.083 202.747c-6.547 0-11.874-5.327-11.874-11.874 0-6.548 5.327-11.875 11.874-11.875s11.874 5.327 11.874 11.875c0 6.547-5.327 11.874-11.874 11.874zm0-18.748c-3.79 0-6.874 3.084-6.874 6.875s3.084 6.874 6.874 6.874 6.874-3.083 6.874-6.874-3.084-6.875-6.874-6.875z"/></g><g><path d="m141.931 170.607c-.086 0-.172-.001-.258-.004-4.438-.133-8.05-3.965-8.05-8.542v-18.505c0-.901-.356-1.743-1.003-2.371-.646-.627-1.503-.949-2.403-.931-1.765.053-3.199 1.643-3.199 3.544v2.435c0 2.265-.896 4.381-2.521 5.959-1.625 1.577-3.773 2.395-6.035 2.34-4.438-.133-8.05-3.965-8.05-8.542v-13.782c0-.258-.17-.482-.413-.543-6.647-1.676-11.733-6.995-12.957-13.549-.91-4.867.355-9.81 3.471-13.562 3.117-3.753 7.7-5.906 12.574-5.906 1.248 0 2.493.143 3.701.424.148.032.332-.097.431-.295 2.786-5.586 8.386-9.056 14.616-9.056 3.709 0 7.206 1.215 10.114 3.514.165.13.334.171.409.144 2.608-.95 5.43-1.216 8.175-.764.167.024.343-.033.399-.137 3.548-6.656 10.427-10.792 17.952-10.792 9.827 0 17.73 7.01 19.22 17.048.068.456.475.827.778.842 8.413.404 14.571 7.199 14.641 16.157.033 4.296-1.654 8.381-4.751 11.502-3.143 3.167-7.476 4.982-11.89 4.982h-10.546c-1.746 0-3.167 1.421-3.167 3.167v5.178c0 2.265-.896 4.381-2.521 5.959-1.626 1.577-3.788 2.399-6.035 2.34-4.438-.133-8.049-3.965-8.049-8.542v-4.935c0-1.746-1.421-3.167-3.167-3.167s-3.167 1.421-3.167 3.167v26.919c0 2.265-.896 4.381-2.521 5.959-1.564 1.518-3.607 2.345-5.778 2.345zm-11.607-35.354c2.171 0 4.214.827 5.777 2.344 1.626 1.578 2.521 3.694 2.521 5.959v18.505c0 1.901 1.436 3.492 3.2 3.544.908.032 1.757-.303 2.403-.931s1.003-1.47 1.003-2.371v-26.919c0-4.503 3.664-8.167 8.167-8.167s8.167 3.664 8.167 8.167v4.935c0 1.901 1.435 3.492 3.199 3.544.916.033 1.757-.303 2.403-.931s1.003-1.47 1.003-2.371v-5.178c0-4.503 3.664-8.167 8.167-8.167h10.546c3.091 0 6.13-1.277 8.34-3.504 2.151-2.168 3.324-4.988 3.301-7.941-.048-6.218-4.204-10.929-9.881-11.202-2.714-.131-5.071-2.324-5.483-5.102-1.117-7.526-6.987-12.782-14.274-12.782-5.675 0-10.862 3.121-13.54 8.144-1.069 2.005-3.33 3.093-5.625 2.719-1.894-.312-3.846-.128-5.651.529-1.74.633-3.69.289-5.219-.919-2.017-1.594-4.442-2.437-7.015-2.437-4.321 0-8.207 2.409-10.141 6.286-1.14 2.289-3.623 3.495-6.038 2.936-.839-.195-1.703-.294-2.569-.294-3.383 0-6.563 1.494-8.728 4.1-2.194 2.643-3.048 5.998-2.403 9.449.867 4.643 4.505 8.418 9.266 9.62 2.468.623 4.19 2.839 4.19 5.391v13.782c0 1.901 1.436 3.492 3.2 3.544.915.028 1.757-.303 2.403-.931s1.003-1.47 1.003-2.371v-2.435c0-4.577 3.61-8.409 8.049-8.542.087-.002.173-.003.259-.003z"/></g><g><path d="m102.542 47.263h-27.854c-1.381 0-2.5-1.119-2.5-2.5s1.119-2.5 2.5-2.5h27.854c1.381 0 2.5 1.119 2.5 2.5s-1.119 2.5-2.5 2.5z"/></g><g><path d="m88.693 201.113c-12.273 0-22.259-14.304-22.259-31.885s9.985-31.885 22.259-31.885c6.781 0 13.093 4.292 17.316 11.776.679 1.202.255 2.727-.948 3.406-1.2.679-2.728.254-3.405-.949-3.313-5.868-8.037-9.233-12.963-9.233-9.517 0-17.259 12.061-17.259 26.885s7.742 26.885 17.259 26.885c4.932 0 9.659-3.371 12.972-9.25.678-1.203 2.2-1.627 3.405-.951 1.203.678 1.628 2.203.95 3.406-4.223 7.496-10.539 11.795-17.327 11.795z"/></g></g></g></svg>