<svg enable-background="new 0 0 256 256" height="512" viewBox="0 0 256 256" width="512" xmlns="http://www.w3.org/2000/svg"><g id="Layer_27"><g><g><path d="m209.663 137.5h-175c-3.314 0-6-2.686-6-6 0-3.314 2.686-6 6-6h175c3.314 0 6 2.686 6 6 0 3.314-2.687 6-6 6z" fill="#dae6f1"/></g><g><g><path d="m147.756 232.948c0-11.35 8.027-20.552 17.928-20.552.637 0 1.266.039 1.886.114 2.391.291 4.793.291 7.184 0 .62-.075 1.249-.114 1.886-.114 3.574 0 6.895 1.212 9.691 3.278 1.892-1.397 4.023-2.401 6.313-2.902l13.275-75.273h-167.513l18.887 107.093c.909 5.152 5.384 8.907 10.615 8.907h97.776c-9.901.001-17.928-9.2-17.928-20.551z" fill="#c7d7e5"/></g></g><g><path d="m73.064 93.382c2.391.291 4.794.291 7.184 0 .62-.075 1.249-.114 1.886-.114 3.574 0 6.895 1.212 9.691 3.278 2.796-2.066 6.117-3.278 9.691-3.278.095 0 .189.007.285.009-1.921-3.274-3.044-7.215-3.044-11.457 0-7.254 3.287-13.616 8.237-17.274-2.796-2.066-6.117-3.278-9.691-3.278-.637 0-1.266.039-1.886.114-2.391.291-4.793.291-7.184 0-.62-.075-1.249-.114-1.886-.114-9.901 0-17.928 9.201-17.928 20.552 0 4.242 1.123 8.183 3.044 11.457.539.009 1.074.041 1.601.105z" fill="#fc8c48"/></g><g><path d="m145.569 81.819c0 4.242-1.123 8.183-3.044 11.457.095-.002.189-.009.285-.009 3.574 0 6.895 1.212 9.691 3.278 2.796-2.066 6.117-3.278 9.691-3.278.637 0 1.266.039 1.886.114 2.391.291 4.793.291 7.184 0 .527-.064 1.062-.096 1.601-.106 1.921-3.274 3.044-7.215 3.044-11.457 0-11.35-8.027-20.552-17.928-20.552-.637 0-1.266.039-1.886.114-2.391.291-4.794.291-7.184 0-.62-.075-1.249-.114-1.886-.114-3.574 0-6.895 1.212-9.691 3.278 4.95 3.659 8.237 10.021 8.237 17.275z" fill="#fc8c48"/></g><g><path d="m103.402 93.382c2.391.291 4.793.291 7.184 0 .62-.075 1.249-.114 1.886-.114 3.574 0 6.895 1.212 9.691 3.278 2.796-2.066 6.117-3.278 9.691-3.278.637 0 1.266.039 1.886.114 2.391.291 4.793.291 7.184 0 .527-.064 1.062-.096 1.601-.106 1.921-3.274 3.044-7.215 3.044-11.457 0-11.35-8.027-20.552-17.928-20.552-.637 0-1.266.039-1.886.114-2.391.291-4.793.291-7.184 0-.62-.075-1.249-.114-1.886-.114-9.901 0-17.928 9.201-17.928 20.552 0 4.242 1.123 8.183 3.044 11.457.539.01 1.074.042 1.601.106z" fill="#fca265"/></g><g><path d="m96.876 125.5c2.005-3.318 3.186-7.339 3.186-11.681 0-11.35-8.027-20.552-17.928-20.552-.637 0-1.266.039-1.886.114-2.391.291-4.793.291-7.184 0-.62-.075-1.249-.114-1.886-.114-9.901 0-17.928 9.201-17.928 20.552 0 4.342 1.181 8.363 3.186 11.681z" fill="#fca265"/></g><g><path d="m100.062 113.819c0 4.345-1.186 8.365-3.196 11.681h20.255c-2.01-3.316-3.196-7.335-3.196-11.681 0-7.254 3.287-13.616 8.237-17.274-2.796-2.066-6.117-3.278-9.691-3.278-.637 0-1.266.039-1.886.114-2.391.291-4.793.291-7.184 0-.62-.075-1.249-.114-1.886-.114-3.574 0-6.895 1.212-9.691 3.278 4.952 3.658 8.238 10.02 8.238 17.274z" fill="#fc8c48"/></g><g><path d="m157.552 125.5c2.005-3.318 3.186-7.339 3.186-11.681 0-11.35-8.027-20.552-17.928-20.552-.637 0-1.266.039-1.886.114-2.391.291-4.793.291-7.184 0-.62-.075-1.249-.114-1.886-.114-9.901 0-17.928 9.201-17.928 20.552 0 4.342 1.181 8.363 3.186 11.681z" fill="#fca265"/></g><g><path d="m160.738 113.819c0 4.345-1.186 8.365-3.196 11.681h30.348c2.005-3.318 3.186-7.339 3.186-11.681 0-11.35-8.027-20.552-17.928-20.552-.637 0-1.266.039-1.886.114-2.391.291-4.794.291-7.184 0-.62-.075-1.249-.114-1.886-.114-3.574 0-6.895 1.212-9.691 3.278 4.95 3.658 8.237 10.02 8.237 17.274z" fill="#fca265"/></g><g><path d="m119.659 48.797c-2.493-2.493-6.078-3.222-9.214-2.195-.457.15-.825.518-.975.975-1.027 3.136-.298 6.721 2.195 9.214s6.078 3.222 9.214 2.195c.457-.15.825-.518.975-.975 1.027-3.137.298-6.721-2.195-9.214z" fill="#b2e26d"/></g><g><path d="m206.978 212.396c-.637 0-1.266.039-1.886.114-2.391.291-4.793.291-7.184 0-.62-.075-1.249-.114-1.886-.114-9.901 0-17.928 9.201-17.928 20.552s8.027 20.552 17.928 20.552c.637 0 1.266-.039 1.886-.114 2.391-.291 4.793-.291 7.184 0 .62.075 1.249.114 1.886.114 9.901 0 17.928-9.201 17.928-20.552s-8.026-20.552-17.928-20.552z" fill="#fca265"/></g><g><path d="m178.094 232.948c0-7.254 3.287-13.616 8.237-17.274-2.796-2.066-6.117-3.278-9.691-3.278-.637 0-1.266.039-1.886.114-2.391.291-4.793.291-7.184 0-.62-.075-1.249-.114-1.886-.114-9.901 0-17.928 9.201-17.928 20.552s8.027 20.552 17.928 20.552c.637 0 1.266-.039 1.886-.114 2.391-.291 4.793-.291 7.184 0 .62.075 1.249.114 1.886.114 3.574 0 6.895-1.212 9.691-3.278-4.95-3.658-8.237-10.02-8.237-17.274z" fill="#fc8c48"/></g><g><path d="m168.659 198.797c-2.493-2.493-6.078-3.222-9.214-2.195-.457.15-.825.518-.975.975-1.027 3.136-.298 6.721 2.195 9.214s6.078 3.222 9.214 2.195c.457-.15.825-.518.975-.975 1.027-3.137.298-6.721-2.195-9.214z" fill="#b2e26d"/></g><g><path d="m34.513 215.2c-3.1-.6-5.6-3-6.2-6.1 0-.1-.3-.1-.3 0-.6 3.1-3.1 5.5-6.2 6.1-.1 0-.1.2 0 .3 3.1.6 5.6 3 6.2 6.1 0 .1.3.1.3 0 .6-3.1 3.1-5.5 6.2-6.1.1-.1.1-.3 0-.3z" fill="#87d147"/></g><g><path d="m220.063 168.9h2.3v2.3c0 1.8 1.4 3.2 3.2 3.2 1.7 0 3.2-1.4 3.2-3.1v-.1-2.3h2.3c1.8 0 3.2-1.4 3.2-3.2 0-1.7-1.4-3.2-3.1-3.2h-.1-2.3v-2.3c0-1.8-1.4-3.2-3.2-3.2-1.7 0-3.2 1.4-3.2 3.1v.1 2.3h-2.3c-1.8 0-3.2 1.4-3.2 3.2-.1 1.7 1.3 3.2 3.2 3.2-.1 0-.1 0 0 0z" fill="#fc657e"/></g><g><circle cx="215.463" cy="195.9" fill="#f5c84c" r="3.4"/></g><g><circle cx="100.463" cy="3.4" fill="#70d6f9" r="3.4"/></g><g><path d="m56.863 15.2c4.5-.8 8-4.3 8.9-8.7 0-.2.4-.2.4 0 .9 4.4 4.4 7.9 8.9 8.7.2 0 .2.3 0 .4-4.5.8-8 4.3-8.9 8.7 0 .2-.4.2-.4 0-.9-4.4-4.4-7.9-8.9-8.7-.2-.1-.2-.4 0-.4z" fill="#f5c84c"/></g><g><path d="m209.663 140h-175c-4.687 0-8.5-3.813-8.5-8.5s3.813-8.5 8.5-8.5h175c4.687 0 8.5 3.813 8.5 8.5s-3.813 8.5-8.5 8.5zm-175-12c-1.93 0-3.5 1.57-3.5 3.5s1.57 3.5 3.5 3.5h175c1.93 0 3.5-1.57 3.5-3.5s-1.57-3.5-3.5-3.5z"/></g><g><g><path d="m192.772 214.566c-.144 0-.29-.013-.437-.039-1.36-.24-2.268-1.537-2.028-2.896l13.011-73.778c.24-1.359 1.539-2.264 2.896-2.028 1.36.24 2.268 1.536 2.028 2.896l-13.011 73.779c-.214 1.213-1.269 2.066-2.459 2.066z"/></g><g><path d="m165.685 256h-97.777c-6.456 0-11.956-4.615-13.077-10.973l-18.761-106.375c-.24-1.36.668-2.656 2.028-2.896 1.36-.238 2.657.668 2.896 2.028l18.76 106.375c.699 3.964 4.128 6.841 8.153 6.841h97.777c1.381 0 2.5 1.119 2.5 2.5s-1.119 2.5-2.499 2.5z"/></g></g><g><path d="m203.859 170h-163.394c-1.381 0-2.5-1.119-2.5-2.5s1.119-2.5 2.5-2.5h163.394c1.381 0 2.5 1.119 2.5 2.5s-1.119 2.5-2.5 2.5z"/></g><g><path d="m201.663 180h-159c-1.381 0-2.5-1.119-2.5-2.5s1.119-2.5 2.5-2.5h159c1.381 0 2.5 1.119 2.5 2.5s-1.12 2.5-2.5 2.5z"/></g><g><g><path d="m34.163 127.063c-1.381 0-2.5-1.119-2.5-2.5v-6.063c0-4.687 3.813-8.5 8.5-8.5s8.5 3.813 8.5 8.5v5.938c0 1.381-1.119 2.5-2.5 2.5s-2.5-1.119-2.5-2.5v-5.938c0-1.93-1.57-3.5-3.5-3.5s-3.5 1.57-3.5 3.5v6.063c0 1.381-1.12 2.5-2.5 2.5z"/></g></g><g><g><path d="m198.163 127.375c-1.381 0-2.5-1.119-2.5-2.5v-6.375c0-4.687 3.813-8.5 8.5-8.5s8.5 3.813 8.5 8.5v6.25c0 1.381-1.119 2.5-2.5 2.5s-2.5-1.119-2.5-2.5v-6.25c0-1.93-1.57-3.5-3.5-3.5s-3.5 1.57-3.5 3.5v6.375c0 1.381-1.12 2.5-2.5 2.5z"/></g></g><g><path d="m204.163 115c-1.381 0-2.5-1.119-2.5-2.5v-9c0-38.828-27.742-71.769-65.963-78.326-2.963-.508-5.633-1.881-7.721-3.969l-3.079-3.079c-1.508-1.508-3.963-1.508-5.473 0l-3.079 3.079c-2.088 2.088-4.758 3.461-7.721 3.969-38.223 6.557-65.964 39.498-65.964 78.326v9c0 1.381-1.119 2.5-2.5 2.5s-2.5-1.119-2.5-2.5v-9c0-41.27 29.489-76.283 70.117-83.254 1.938-.333 3.679-1.224 5.032-2.577l3.079-3.079c3.458-3.458 9.086-3.458 12.544 0l3.079 3.08c1.353 1.353 3.093 2.244 5.031 2.577 40.629 6.97 70.118 41.984 70.118 83.254v9c0 1.38-1.12 2.499-2.5 2.499z"/></g><g><path d="m92.291 98.714c-.793 0-1.574-.376-2.059-1.079-.785-1.136-.5-2.693.635-3.478 3.209-2.218 6.892-3.39 10.649-3.39 1.381 0 2.5 1.119 2.5 2.5s-1.119 2.5-2.5 2.5c-2.737 0-5.437.866-7.806 2.503-.434.301-.93.444-1.419.444z"/></g><g><path d="m71.061 95.057c-.892 0-1.755-.479-2.206-1.32-1.921-3.586-2.937-7.707-2.937-11.917 0-12.711 9.164-23.052 20.428-23.052.731 0 1.468.044 2.189.133 2.182.266 4.397.265 6.579 0 4.151-.508 8.48.48 12.156 2.807 1.167.738 1.514 2.283.775 3.449-.738 1.167-2.283 1.513-3.449.775-2.27-1.436-4.724-2.165-7.294-2.165-.53 0-1.062.032-1.583.096-2.584.315-5.204.316-7.79 0-.521-.063-1.054-.096-1.583-.096-8.507 0-15.428 8.098-15.428 18.052 0 3.389.811 6.693 2.344 9.557.652 1.217.194 2.732-1.023 3.384-.376.201-.78.297-1.178.297z"/></g><g><path d="m173.389 94.821c-.389 0-.783-.091-1.151-.282-1.225-.637-1.702-2.146-1.065-3.371 1.462-2.813 2.234-6.045 2.234-9.349 0-9.954-6.921-18.052-15.428-18.052-.53 0-1.063.032-1.583.096-2.585.314-5.206.315-7.79 0-3.128-.381-6.392.41-9.168 2.257-1.15.765-2.701.454-3.466-.697-.765-1.149-.453-2.701.697-3.466 3.768-2.507 8.238-3.584 12.543-3.057 2.182.266 4.396.266 6.579 0 .72-.088 1.457-.133 2.188-.133 11.264 0 20.428 10.341 20.428 23.052 0 4.103-.967 8.133-2.798 11.654-.445.858-1.317 1.348-2.22 1.348z"/></g><g><path d="m121.487 98.572c-.479 0-.962-.137-1.389-.424-2.786-1.867-6.068-2.668-9.208-2.285-2.585.314-5.205.315-7.79 0-.41-.05-.851-.079-1.346-.088-.87-.017-1.668-.484-2.109-1.234-2.216-3.776-3.388-8.175-3.388-12.722 0-12.711 9.164-23.052 20.428-23.052.731 0 1.468.044 2.189.133 2.182.266 4.396.266 6.579 0 .72-.088 1.457-.133 2.188-.133 11.264 0 20.428 10.341 20.428 23.052 0 4.317-1.064 8.528-3.078 12.177-.667 1.208-2.188 1.649-3.396.981-1.209-.667-1.648-2.188-.981-3.396 1.606-2.912 2.456-6.287 2.456-9.762 0-9.954-6.921-18.052-15.428-18.052-.53 0-1.063.032-1.583.096-2.585.314-5.206.315-7.79 0-.521-.063-1.054-.096-1.583-.096-8.507 0-15.428 8.098-15.428 18.052 0 3.201.715 6.299 2.078 9.041.124.012.247.025.369.04 2.184.266 4.398.266 6.581 0 4.324-.529 8.818.561 12.597 3.094 1.147.769 1.454 2.321.685 3.468-.484.721-1.276 1.109-2.081 1.11z"/></g><g><path d="m97.287 127.286c-.409 0-.823-.101-1.206-.312-1.208-.667-1.647-2.188-.98-3.397 1.61-2.916 2.461-6.29 2.461-9.758 0-9.954-6.921-18.052-15.428-18.052-.53 0-1.062.032-1.583.096-2.585.314-5.205.315-7.79 0-.521-.063-1.053-.096-1.583-.096-8.507 0-15.428 8.098-15.428 18.052 0 3.44.838 6.791 2.425 9.69.663 1.211.218 2.73-.994 3.393-1.212.662-2.73.217-3.393-.994-1.987-3.633-3.038-7.813-3.038-12.09 0-12.711 9.164-23.052 20.428-23.052.732 0 1.469.044 2.189.133 2.182.266 4.396.266 6.579 0 .72-.088 1.457-.133 2.188-.133 11.264 0 20.428 10.341 20.428 23.052 0 4.311-1.066 8.521-3.084 12.175-.457.827-1.311 1.293-2.191 1.293z"/></g><g><path d="m116.797 127.46c-.873 0-1.72-.458-2.18-1.271-2.088-3.701-3.192-7.978-3.192-12.369 0-12.711 9.164-23.052 20.428-23.052.731 0 1.468.044 2.189.133 2.182.266 4.396.266 6.579 0 .72-.088 1.457-.133 2.188-.133 11.264 0 20.428 10.341 20.428 23.052 0 4.331-1.076 8.558-3.111 12.223-.67 1.206-2.192 1.641-3.399.972-1.207-.67-1.642-2.192-.972-3.399 1.624-2.924 2.482-6.312 2.482-9.795 0-9.954-6.921-18.052-15.428-18.052-.53 0-1.063.032-1.583.096-2.585.314-5.206.315-7.79 0-.521-.063-1.054-.096-1.583-.096-8.507 0-15.428 8.098-15.428 18.052 0 3.532.881 6.959 2.547 9.911.679 1.203.254 2.728-.948 3.406-.389.218-.811.322-1.227.322z"/></g><g><path d="m188.518 126.882c-.392 0-.789-.092-1.16-.287-1.223-.642-1.694-2.153-1.052-3.375 1.485-2.83 2.27-6.08 2.27-9.4 0-9.954-6.921-18.052-15.428-18.052-.53 0-1.063.032-1.583.096-2.585.314-5.206.315-7.79 0-3.119-.38-6.377.407-9.148 2.244-1.152.763-2.702.448-3.465-.702-.763-1.151-.449-2.702.702-3.465 3.761-2.494 8.223-3.565 12.517-3.04 2.182.266 4.396.266 6.579 0 .72-.088 1.457-.133 2.188-.133 11.264 0 20.428 10.341 20.428 23.052 0 4.126-.983 8.18-2.842 11.724-.447.851-1.317 1.338-2.216 1.338z"/></g><g><path d="m118.034 61.942c-3.006 0-5.931-1.178-8.136-3.383-3.091-3.092-4.165-7.598-2.803-11.76.396-1.212 1.358-2.174 2.571-2.572 4.164-1.363 8.668-.29 11.76 2.802 3.091 3.091 4.166 7.597 2.803 11.759-.398 1.215-1.36 2.176-2.574 2.573-1.191.39-2.413.581-3.621.581zm-6.326-13.103c-.546 2.221.093 4.551 1.725 6.184 1.631 1.632 3.961 2.271 6.184 1.725.546-2.22-.093-4.55-1.726-6.183-1.632-1.634-3.962-2.273-6.183-1.726z"/></g><g><path d="m206.979 256c-.727 0-1.463-.044-2.188-.132-2.184-.267-4.398-.266-6.581 0-.726.088-1.461.133-2.188.133-11.264 0-20.428-10.341-20.428-23.052s9.164-23.052 20.428-23.052c.732 0 1.468.044 2.189.133 2.182.266 4.396.266 6.579 0 .72-.088 1.457-.133 2.188-.133 11.264 0 20.428 10.341 20.428 23.052s-9.163 23.051-20.427 23.051zm-5.479-5.332c1.301 0 2.602.079 3.895.236.524.063 1.058.096 1.584.096 8.507 0 15.428-8.098 15.428-18.052s-6.921-18.052-15.428-18.052c-.53 0-1.063.032-1.583.096-2.585.314-5.206.315-7.79 0-.521-.063-1.054-.096-1.584-.096-8.507 0-15.428 8.098-15.428 18.052s6.921 18.052 15.428 18.052c.526 0 1.06-.032 1.585-.096 1.291-.157 2.592-.236 3.893-.236z"/></g><g><path d="m176.641 256c-.727 0-1.463-.044-2.188-.132-2.184-.267-4.398-.266-6.581 0-.726.088-1.461.133-2.188.133-11.264 0-20.428-10.341-20.428-23.052s9.164-23.052 20.428-23.052c.731 0 1.468.044 2.189.133 2.182.266 4.396.266 6.579 0 .72-.088 1.457-.133 2.188-.133 3.691 0 7.317 1.134 10.486 3.279 1.144.774 1.443 2.328.669 3.472-.774 1.143-2.328 1.442-3.472.669-2.799-1.896-6.107-2.709-9.267-2.324-2.585.314-5.206.315-7.79 0-.521-.063-1.054-.096-1.583-.096-8.507 0-15.428 8.098-15.428 18.052s6.922 18.051 15.43 18.051c.526 0 1.06-.032 1.584-.096 2.583-.314 5.203-.315 7.788 0 3.203.389 6.475-.432 9.274-2.329 1.143-.775 2.698-.475 3.472.667.774 1.143.476 2.698-.667 3.472-3.173 2.15-6.802 3.286-10.495 3.286z"/></g><g><path d="m167.034 211.942c-3.006 0-5.931-1.178-8.136-3.383-3.091-3.092-4.165-7.598-2.803-11.76.396-1.212 1.358-2.174 2.571-2.572 4.164-1.363 8.668-.29 11.76 2.802 3.091 3.091 4.166 7.597 2.803 11.759-.398 1.215-1.36 2.176-2.574 2.573-1.191.39-2.413.581-3.621.581zm-6.326-13.103c-.546 2.221.093 4.551 1.725 6.184 1.632 1.632 3.961 2.27 6.184 1.725.546-2.22-.093-4.55-1.726-6.183-1.632-1.633-3.962-2.273-6.183-1.726z"/></g></g></g></svg>