<svg enable-background="new 0 0 256 256" height="512" viewBox="0 0 256 256" width="512" xmlns="http://www.w3.org/2000/svg"><g id="Layer_44"><g><g><path d="m219.662 177.436h-100.215c-3.375 0-6.136-3.017-6.136-6.391 0-3.375 2.761-6.391 6.136-6.391h100.216c3.375 0 6.136 3.017 6.136 6.391-.001 3.374-2.762 6.391-6.137 6.391z" fill="#feb872"/></g><g><path d="m219.662 189.963h-100.215c-3.375 0-6.136-2.761-6.136-6.136 0-3.375 2.761-6.391 6.136-6.391h100.216c3.375 0 6.136 3.017 6.136 6.391-.001 3.375-2.762 6.136-6.137 6.136z" fill="#fed690"/></g><g><path d="m243.74 189.963h-148.371c-1.669 0-3.021 1.353-3.021 3.021 0 6.238 5.057 11.295 11.295 11.295h.702c2.628 0 4.999 1.361 6.569 3.469 1.666 2.235 4.327 3.69 7.313 3.69h102.654c2.986 0 5.647-1.455 7.313-3.69 1.571-2.107 3.941-3.469 6.569-3.469h.702c6.238 0 11.295-5.057 11.295-11.295.001-1.668-1.351-3.021-3.02-3.021z" fill="#dae6f1"/></g><g><path d="m194.317 82.593c-1.48-.052-2.84.426-3.92 1.254-1.38 1.058-3.502 1.064-4.839.025-1.032-.802-2.323-1.283-3.732-1.283s-2.7.481-3.732 1.283c-1.329 1.033-3.477 1.033-4.806 0-1.032-.802-2.323-1.283-3.732-1.283s-2.7.481-3.732 1.283c-1.378 1.071-3.461 1.046-4.806 0-1.032-.802-2.323-1.283-3.732-1.283s-2.7.481-3.732 1.283c-1.362 1.059-3.422 1.061-4.839-.025-1.08-.828-2.44-1.307-3.92-1.254-3.347.118-5.916 3.045-5.916 6.394v41.408c0 3.36 2.589 6.289 5.947 6.39 3.475.104 6.324-2.681 6.324-6.133v-6.901c0-3.36 2.589-6.289 5.947-6.39 3.475-.104 6.324 2.681 6.324 6.133v18.15c0 3.36 2.589 6.289 5.947 6.39 3.475.104 6.324-2.681 6.324-6.133v-18.15c0-3.36 2.589-6.289 5.947-6.39 3.475-.104 6.324 2.681 6.324 6.133v6.901c0 3.36 2.589 6.289 5.947 6.39 3.475.104 6.324-2.681 6.324-6.133v-41.665c-.001-3.349-2.57-6.276-5.917-6.394z" fill="#f98fa6"/></g><g><path d="m138.876 88.987c0-.261.021-.519.051-.773h-19.481c-3.375 0-6.136 2.761-6.136 6.136s2.761 6.391 6.136 6.391h19.43z" fill="#feb872"/></g><g><path d="m219.662 88.213h-19.481c.03.255.051.512.051.773v11.753h19.43c3.375 0 6.136-3.017 6.136-6.391s-2.761-6.135-6.136-6.135z" fill="#feb872"/></g><g><path d="m138.876 100.74h-19.43c-3.375 0-6.136 3.017-6.136 6.391s2.761 6.391 6.136 6.391h19.43z" fill="#fed690"/></g><g><path d="m219.662 100.74h-19.43v12.783h19.43c3.375 0 6.136-3.017 6.136-6.391s-2.761-6.392-6.136-6.392z" fill="#fed690"/></g><g><path d="m157.094 117.361c-3.358.101-5.947 3.031-5.947 6.39v2.555h12.271v-2.812c.001-3.452-2.849-6.238-6.324-6.133z" fill="#feb872"/></g><g><path d="m181.637 117.361c-3.358.101-5.947 3.031-5.947 6.39v2.555h12.271v-2.812c0-3.452-2.849-6.238-6.324-6.133z" fill="#feb872"/></g><g><path d="m219.662 113.523h-19.43v12.783h19.43c3.375 0 6.136-3.017 6.136-6.391s-2.761-6.392-6.136-6.392z" fill="#feb872"/></g><g><path d="m138.876 113.523h-19.43c-3.375 0-6.136 3.017-6.136 6.391s2.761 6.391 6.136 6.391h19.43z" fill="#feb872"/></g><g><path d="m163.419 126.306h-12.271v4.346c0 3.451-2.85 6.237-6.324 6.133-3.358-.101-5.947-3.03-5.947-6.39v-4.089h-19.43c-3.375 0-6.136 3.017-6.136 6.391 0 3.375 2.761 6.391 6.136 6.391h43.972z" fill="#fed690"/></g><g><path d="m219.662 126.306h-19.43v4.346c0 3.451-2.85 6.237-6.324 6.133-3.358-.101-5.947-3.03-5.947-6.39v-4.089h-12.271v12.783h43.972c3.375 0 6.136-3.017 6.136-6.391 0-3.376-2.761-6.392-6.136-6.392z" fill="#fed690"/></g><g><path d="m219.662 139.088h-43.972v2.812c0 3.451-2.85 6.237-6.324 6.133-3.358-.101-5.947-3.03-5.947-6.39v-2.555h-43.972c-3.375 0-6.136 3.017-6.136 6.391 0 3.375 2.761 6.391 6.136 6.391h68.65c.588-2.775 3.05-4.857 6-4.857s5.412 2.083 6 4.857h19.565c3.375 0 6.136-3.017 6.136-6.391s-2.761-6.391-6.136-6.391z" fill="#feb872"/></g><g><path d="m219.662 151.871h-19.565c.088.412.135.84.135 1.278v2.045c0 3.389-2.747 6.136-6.136 6.136s-6.136-2.747-6.136-6.136v-2.045c0-.439.048-.866.135-1.278h-68.65c-3.375 0-6.136 3.017-6.136 6.391 0 3.375 2.761 6.391 6.136 6.391h100.215c3.375 0 6.136-3.017 6.136-6.391.002-3.375-2.759-6.391-6.134-6.391z" fill="#fed690"/></g><g><path d="m194.097 147.013c-3.389 0-6.136 2.747-6.136 6.136v2.045c0 3.389 2.747 6.136 6.136 6.136s6.136-2.747 6.136-6.136v-2.045c0-3.389-2.747-6.136-6.136-6.136z" fill="#f98fa6"/></g><g><path d="m44.194 35.642h8.291c1.838 0 3.37 1.249 3.836 2.939h71.49c-.646-1.985-1.323-3.936-2.039-5.841-2.41-6.413-8.527-10.669-15.378-10.669h-74.486c-6.85 0-12.968 4.257-15.378 10.669-.716 1.905-1.393 3.856-2.039 5.841h21.866c.467-1.69 1.999-2.939 3.837-2.939z" fill="#6cadef"/></g><g><path d="m130.798 48.768c-.128.01-.25.039-.38.039h-74.097c-.377 1.369-1.46 2.436-2.833 2.796v15.382c0 .711-.149 1.388-.414 2.005.758.17 1.543.269 2.352.269 2.761 0 5.278-1.044 7.179-2.756.972-.875 2.395-.875 3.366 0 1.902 1.713 4.418 2.757 7.18 2.757 2.761 0 5.278-1.044 7.18-2.757.972-.875 2.395-.875 3.366 0 1.902 1.713 4.418 2.756 7.179 2.756s5.278-1.044 7.18-2.756c.972-.875 2.395-.875 3.366 0 1.902 1.713 4.418 2.756 7.18 2.756 2.761 0 5.278-1.044 7.179-2.756.971-.875 2.393-.877 3.363-.002 2.211 1.993 5.254 3.081 8.546 2.675 4.721-.582 8.583-4.355 9.259-9.064.718-4.997-2.011-9.443-6.151-11.344z" fill="#6cadef"/></g><g><path d="m43.263 66.985v-15.363c-1.407-.341-2.521-1.422-2.904-2.815h-24.474c-.13 0-.252-.029-.38-.039-4.14 1.901-6.87 6.347-6.152 11.342.676 4.709 4.537 8.482 9.259 9.064 3.293.406 6.335-.682 8.546-2.675.97-.875 2.393-.872 3.363.002 1.902 1.713 4.418 2.756 7.179 2.756 2.066 0 3.994-.584 5.63-1.596-.029-.222-.067-.444-.067-.676z" fill="#6cadef"/></g><g><path d="m44.194 51.746h8.291c2.207 0 3.995-1.789 3.995-3.995v-8.113c0-2.207-1.789-3.995-3.995-3.995h-8.291c-2.207 0-3.995 1.789-3.995 3.995v8.113c0 2.206 1.789 3.995 3.995 3.995z" fill="#edf4fc"/></g><g><path d="m40.199 47.75v-8.113c0-.368.066-.718.159-1.057h-24.473c-2.812 0-5.113 2.301-5.113 5.113s2.301 5.113 5.113 5.113h24.473c-.093-.338-.159-.687-.159-1.056z" fill="#edf4fc"/></g><g><path d="m130.418 38.581h-74.097c.093.339.159.688.159 1.057v8.113c0 .368-.066.718-.159 1.057h74.096c2.812 0 5.113-2.301 5.113-5.113.001-2.813-2.3-5.114-5.112-5.114z" fill="#edf4fc"/></g><g><path d="m52.485 51.745h-8.291c-.322 0-.631-.048-.932-.12v15.36c0 2.812 2.301 5.113 5.113 5.113s5.113-2.301 5.113-5.113v-15.382c-.322.084-.654.142-1.003.142z" fill="#c7d7e5"/></g><g><path d="m63.89 48.807h-7.569c-.377 1.369-1.46 2.436-2.833 2.796v4.255c.578 2.293 2.648 4.009 5.113 4.009 2.909 0 5.289-2.38 5.289-5.289z" fill="#c7d7e5"/></g><g><path d="m113.311 171.045c0-2.978 2.152-5.675 4.977-6.267.042-.075.083-.151.125-.227-2.886-.539-5.102-3.267-5.102-6.288 0-3.375 2.761-6.391 6.136-6.391-3.375 0-6.136-3.017-6.136-6.391 0-3.375 2.761-6.391 6.136-6.391-3.375 0-6.136-3.017-6.136-6.391 0-3.375 2.761-6.391 6.136-6.391-3.375 0-6.136-3.017-6.136-6.391s2.761-6.391 6.136-6.391c-3.375 0-6.136-3.017-6.136-6.391s2.761-6.391 6.136-6.391c-3.375 0-6.136-3.017-6.136-6.391s2.761-6.136 6.136-6.136h16.204c-.101-7.627-.648-15.062-1.632-22.215-1.662 1.707-3.876 2.874-6.327 3.176-3.293.406-6.335-.682-8.546-2.675-.97-.875-2.393-.872-3.363.002-1.902 1.713-4.418 2.756-7.179 2.756s-5.278-1.044-7.18-2.756c-.972-.875-2.395-.875-3.366 0-1.902 1.713-4.418 2.756-7.18 2.756-2.761 0-5.278-1.044-7.179-2.756-.972-.875-2.395-.875-3.366 0-1.902 1.713-4.418 2.757-7.18 2.757-2.761 0-5.278-1.044-7.18-2.757-.972-.875-2.395-.875-3.366 0-1.902 1.713-4.418 2.756-7.179 2.756-.809 0-1.594-.099-2.352-.269-.784 1.823-2.598 3.108-4.699 3.108-2.58 0-4.707-1.943-5.044-4.434-1.637 1.011-3.565 1.596-5.63 1.596-2.761 0-5.278-1.044-7.179-2.756-.971-.875-2.393-.877-3.363-.002-2.211 1.993-5.254 3.081-8.546 2.675-2.451-.302-4.665-1.469-6.327-3.176-1.089 7.915-1.674 16.163-1.674 24.65 0 31.467 7.916 59.752 20.513 79.36 2.994 4.66 8.198 7.427 13.737 7.427h56.581c4.58 0 8.927-1.896 11.989-5.185-.081-.398-.123-.801-.123-1.21z" fill="#a57453"/></g><g><path d="m143.35 229.954c-3.1-.6-5.6-3-6.2-6.1 0-.1-.3-.1-.3 0-.6 3.1-3.1 5.5-6.2 6.1-.1 0-.1.2 0 .3 3.1.6 5.6 3 6.2 6.1 0 .1.3.1.3 0 .6-3.1 3.1-5.5 6.2-6.1.1-.1.1-.3 0-.3z" fill="#fc657e"/></g><g><path d="m229.205 67.654h2.3v2.3c0 1.8 1.4 3.2 3.2 3.2 1.7 0 3.2-1.4 3.2-3.1v-.1-2.3h2.3c1.8 0 3.2-1.4 3.2-3.2 0-1.7-1.4-3.2-3.1-3.2h-.1-2.3v-2.3c0-1.8-1.4-3.2-3.2-3.2-1.7 0-3.2 1.4-3.2 3.1v.1 2.3h-2.3c-1.8 0-3.2 1.4-3.2 3.2-.1 1.7 1.3 3.2 3.2 3.2-.1 0-.1 0 0 0z" fill="#70d6f9"/></g><g><circle cx="252.6" cy="88.154" fill="#f5c84c" r="3.4"/></g><g><circle cx="3.4" cy="165.154" fill="#87d147" r="3.4"/></g><g><path d="m13.65 190.006c4.487-.87 7.932-4.425 8.763-8.838-.003-.2.397-.206.4-.006.969 4.385 4.523 7.83 9.035 8.56.2-.003.205.297.006.4-4.487.87-7.932 4.425-8.763 8.838.003.2-.397.206-.4.006-.969-4.385-4.523-7.83-9.035-8.56-.202-.096-.206-.396-.006-.4z" fill="#f5c84c"/></g><g><path d="m219.662 179.936h-100.215c-4.681 0-8.636-4.072-8.636-8.892 0-4.819 3.955-8.891 8.636-8.891h100.215c4.681 0 8.636 4.072 8.636 8.891 0 4.82-3.955 8.892-8.636 8.892zm-100.215-12.783c-1.937 0-3.636 1.818-3.636 3.891s1.699 3.892 3.636 3.892h100.215c1.937 0 3.636-1.818 3.636-3.892 0-2.073-1.699-3.891-3.636-3.891z"/></g><g><path d="m219.662 192.463h-100.215c-4.762 0-8.636-3.874-8.636-8.636 0-4.819 3.955-8.891 8.636-8.891h100.215c4.681 0 8.636 4.072 8.636 8.891 0 4.762-3.874 8.636-8.636 8.636zm-100.215-12.527c-1.937 0-3.636 1.818-3.636 3.891 0 2.005 1.631 3.636 3.636 3.636h100.215c2.005 0 3.636-1.631 3.636-3.636 0-2.073-1.699-3.891-3.636-3.891z"/></g><g><path d="m220.882 213.938h-102.654c-3.643 0-7.126-1.755-9.317-4.695-1.167-1.565-2.831-2.463-4.565-2.463h-.702c-7.606 0-13.795-6.188-13.795-13.795 0-3.044 2.477-5.521 5.521-5.521h148.37c3.045 0 5.521 2.477 5.521 5.521 0 7.606-6.188 13.795-13.795 13.795h-.703c-1.734 0-3.398.898-4.565 2.463-2.19 2.939-5.674 4.695-9.316 4.695zm-125.513-21.475c-.287 0-.521.234-.521.521 0 4.85 3.945 8.795 8.795 8.795h.702c3.33 0 6.455 1.631 8.574 4.475 1.252 1.68 3.237 2.683 5.309 2.683h102.654c2.103 0 4.037-.978 5.308-2.684 2.121-2.844 5.246-4.475 8.574-4.475h.703c4.85 0 8.795-3.945 8.795-8.795 0-.288-.234-.521-.521-.521h-148.372z"/></g><g><path d="m169.559 150.536c-.089 0-.178-.001-.268-.004-4.616-.138-8.372-4.126-8.372-8.889v-18.149c0-.992-.393-1.919-1.104-2.61-.711-.69-1.643-1.063-2.645-1.024-1.942.058-3.522 1.803-3.522 3.891v6.901c0 2.355-.931 4.557-2.622 6.197-1.69 1.64-3.91 2.492-6.277 2.435-4.616-.139-8.372-4.126-8.372-8.889v-41.408c0-4.741 3.735-8.729 8.327-8.893 1.989-.069 3.95.558 5.53 1.769.507.389 1.309.404 1.783.035 1.523-1.183 3.345-1.809 5.267-1.809s3.743.625 5.266 1.808c.467.361 1.278.361 1.739 0 1.523-1.183 3.345-1.809 5.267-1.809s3.743.625 5.266 1.808c.432.336 1.31.335 1.739 0 1.523-1.183 3.345-1.809 5.267-1.809s3.743.625 5.266 1.808c.447.347 1.311.329 1.783-.034 1.582-1.211 3.543-1.834 5.53-1.769h.001c4.591.163 8.326 4.152 8.326 8.893v41.665c0 2.355-.931 4.557-2.622 6.197-1.69 1.64-3.9 2.492-6.277 2.435-4.616-.139-8.371-4.127-8.371-8.889v-6.901c0-.992-.393-1.918-1.104-2.609s-1.658-1.063-2.646-1.024c-1.942.058-3.521 1.803-3.521 3.891v18.15c0 2.355-.931 4.557-2.622 6.197-1.629 1.579-3.754 2.439-6.012 2.439zm-12.271-35.678c2.258 0 4.383.86 6.009 2.438 1.69 1.641 2.622 3.842 2.622 6.198v18.149c0 2.087 1.58 3.833 3.522 3.891 1.004.04 1.935-.334 2.645-1.024.713-.691 1.104-1.618 1.104-2.609v-18.15c0-4.763 3.756-8.75 8.371-8.889 2.367-.057 4.588.794 6.278 2.434 1.69 1.641 2.622 3.842 2.622 6.198v6.901c0 2.087 1.58 3.833 3.521 3.891 1.003.045 1.934-.333 2.645-1.024.713-.691 1.104-1.618 1.104-2.609v-41.666c0-2.08-1.571-3.827-3.504-3.896-1.05-.035-1.844.382-2.312.741-2.271 1.741-5.664 1.747-7.893.014-1.273-.989-3.122-.99-4.397.001-2.244 1.743-5.63 1.744-7.874 0-1.273-.99-3.122-.991-4.397 0-2.279 1.772-5.593 1.772-7.874 0-1.273-.99-3.122-.991-4.397 0-2.264 1.761-5.584 1.754-7.894-.016-.467-.358-1.244-.766-2.311-.74-1.932.068-3.504 1.816-3.504 3.896v41.408c0 2.087 1.58 3.833 3.522 3.891 1.006.045 1.933-.333 2.646-1.024.712-.691 1.104-1.618 1.104-2.609v-6.901c0-4.763 3.756-8.75 8.372-8.889.091-.004.181-.005.27-.005z"/></g><g><path d="m137.75 103.24h-18.303c-4.681 0-8.636-4.072-8.636-8.891 0-4.762 3.874-8.636 8.636-8.636h18.616c1.381 0 2.5 1.119 2.5 2.5s-1.119 2.5-2.5 2.5h-18.616c-2.005 0-3.636 1.631-3.636 3.636 0 2.073 1.699 3.891 3.636 3.891h18.303c1.381 0 2.5 1.119 2.5 2.5s-1.119 2.5-2.5 2.5z"/></g><g><path d="m219.662 103.24h-18.475c-1.381 0-2.5-1.119-2.5-2.5s1.119-2.5 2.5-2.5h18.475c1.937 0 3.636-1.818 3.636-3.891 0-2.005-1.631-3.636-3.636-3.636h-18.725c-1.381 0-2.5-1.119-2.5-2.5s1.119-2.5 2.5-2.5h18.725c4.762 0 8.636 3.874 8.636 8.636 0 4.819-3.955 8.891-8.636 8.891z"/></g><g><path d="m138.063 116.023h-18.616c-4.681 0-8.636-4.072-8.636-8.891 0-4.82 3.955-8.892 8.636-8.892h18.949c1.381 0 2.5 1.119 2.5 2.5s-1.119 2.5-2.5 2.5h-18.949c-1.937 0-3.636 1.818-3.636 3.892 0 2.073 1.699 3.891 3.636 3.891h18.616c1.381 0 2.5 1.119 2.5 2.5s-1.119 2.5-2.5 2.5z"/></g><g><path d="m219.662 116.023h-18.224c-1.381 0-2.5-1.119-2.5-2.5s1.119-2.5 2.5-2.5h18.224c1.937 0 3.636-1.818 3.636-3.891s-1.699-3.892-3.636-3.892h-18.287c-1.381 0-2.5-1.119-2.5-2.5s1.119-2.5 2.5-2.5h18.287c4.681 0 8.636 4.072 8.636 8.892 0 4.819-3.955 8.891-8.636 8.891z"/></g><g><path d="m219.662 128.806h-18.623c-1.381 0-2.5-1.119-2.5-2.5s1.119-2.5 2.5-2.5h18.623c1.937 0 3.636-1.818 3.636-3.892 0-2.073-1.699-3.891-3.636-3.891h-18.623c-1.381 0-2.5-1.119-2.5-2.5s1.119-2.5 2.5-2.5h18.623c4.681 0 8.636 4.072 8.636 8.891 0 4.82-3.955 8.892-8.636 8.892z"/></g><g><path d="m138.01 128.806h-18.563c-4.681 0-8.636-4.072-8.636-8.892 0-4.819 3.955-8.891 8.636-8.891h18.563c1.381 0 2.5 1.119 2.5 2.5s-1.119 2.5-2.5 2.5h-18.563c-1.937 0-3.636 1.818-3.636 3.891s1.699 3.892 3.636 3.892h18.563c1.381 0 2.5 1.119 2.5 2.5s-1.119 2.5-2.5 2.5z"/></g><g><path d="m162.708 128.806h-10.833c-1.381 0-2.5-1.119-2.5-2.5s1.119-2.5 2.5-2.5h10.833c1.381 0 2.5 1.119 2.5 2.5s-1.119 2.5-2.5 2.5z"/></g><g><path d="m162.708 141.588h-43.261c-4.681 0-8.636-4.072-8.636-8.892 0-4.819 3.955-8.891 8.636-8.891h18.459c1.381 0 2.5 1.119 2.5 2.5s-1.119 2.5-2.5 2.5h-18.459c-1.937 0-3.636 1.818-3.636 3.891s1.699 3.892 3.636 3.892h43.261c1.381 0 2.5 1.119 2.5 2.5s-1.119 2.5-2.5 2.5z"/></g><g><path d="m187.405 128.806h-10.988c-1.381 0-2.5-1.119-2.5-2.5s1.119-2.5 2.5-2.5h10.988c1.381 0 2.5 1.119 2.5 2.5s-1.119 2.5-2.5 2.5z"/></g><g><path d="m219.662 141.588h-43.382c-1.381 0-2.5-1.119-2.5-2.5s1.119-2.5 2.5-2.5h43.382c1.937 0 3.636-1.818 3.636-3.892 0-2.073-1.699-3.891-3.636-3.891h-18.623c-1.381 0-2.5-1.119-2.5-2.5s1.119-2.5 2.5-2.5h18.623c4.681 0 8.636 4.072 8.636 8.891 0 4.821-3.955 8.892-8.636 8.892z"/></g><g><path d="m219.662 154.371h-18.918c-1.381 0-2.5-1.119-2.5-2.5s1.119-2.5 2.5-2.5h18.918c1.937 0 3.636-1.818 3.636-3.891s-1.699-3.891-3.636-3.891h-43.079c-1.381 0-2.5-1.119-2.5-2.5s1.119-2.5 2.5-2.5h43.079c4.681 0 8.636 4.072 8.636 8.891s-3.955 8.891-8.636 8.891z"/></g><g><path d="m187.417 154.371h-67.97c-4.681 0-8.636-4.072-8.636-8.891s3.955-8.891 8.636-8.891h43.261c1.381 0 2.5 1.119 2.5 2.5s-1.119 2.5-2.5 2.5h-43.261c-1.937 0-3.636 1.818-3.636 3.891s1.699 3.891 3.636 3.891h67.97c1.381 0 2.5 1.119 2.5 2.5s-1.119 2.5-2.5 2.5z"/></g><g><path d="m219.662 167.153h-100.215c-4.681 0-8.636-4.072-8.636-8.891 0-4.82 3.955-8.892 8.636-8.892h67.97c1.381 0 2.5 1.119 2.5 2.5s-1.119 2.5-2.5 2.5h-67.97c-1.937 0-3.636 1.818-3.636 3.892 0 2.073 1.699 3.891 3.636 3.891h100.215c1.937 0 3.636-1.818 3.636-3.891s-1.699-3.892-3.636-3.892h-18.995c-1.381 0-2.5-1.119-2.5-2.5s1.119-2.5 2.5-2.5h18.995c4.681 0 8.636 4.072 8.636 8.892s-3.955 8.891-8.636 8.891z"/></g><g><path d="m194.097 163.83c-4.761 0-8.635-3.874-8.635-8.636v-2.045c0-4.762 3.874-8.636 8.635-8.636 4.762 0 8.636 3.874 8.636 8.636v2.045c-.001 4.762-3.875 8.636-8.636 8.636zm0-14.317c-2.004 0-3.635 1.631-3.635 3.636v2.045c0 2.005 1.631 3.636 3.635 3.636 2.005 0 3.636-1.631 3.636-3.636v-2.045c-.001-2.005-1.631-3.636-3.636-3.636z"/></g><g><path d="m18.66 40.567c-.259 0-.521-.041-.781-.125-1.312-.432-2.025-1.845-1.594-3.156.622-1.89 1.263-3.715 1.904-5.424 2.764-7.352 9.884-12.291 17.719-12.291h74.486c7.835 0 14.955 4.939 17.718 12.29.635 1.687 1.272 3.501 1.896 5.392.432 1.312-.281 2.725-1.593 3.157-1.314.432-2.726-.282-3.157-1.592-.601-1.826-1.215-3.575-1.825-5.197-2.034-5.413-7.274-9.049-13.038-9.049h-74.487c-5.764 0-11.004 3.637-13.038 9.049-.617 1.645-1.235 3.404-1.835 5.229-.347 1.05-1.324 1.717-2.375 1.717z"/></g><g><path d="m108.602 71.759c-3.275 0-6.419-1.207-8.852-3.399-2.454 2.192-5.599 3.399-8.873 3.399-3.276 0-6.42-1.207-8.853-3.399-2.453 2.192-5.597 3.399-8.873 3.399-3.274 0-6.419-1.207-8.853-3.398-3.058 2.731-7.174 3.957-11.324 3.161-1.356-.26-2.244-1.57-1.984-2.926.261-1.356 1.57-2.246 2.926-1.984 2.629.501 5.138-.274 7.017-1.966 1.912-1.723 4.798-1.723 6.712 0 1.514 1.363 3.47 2.114 5.507 2.114 2.038 0 3.993-.75 5.507-2.114 1.912-1.723 4.798-1.723 6.712 0 1.514 1.364 3.469 2.114 5.507 2.114 2.037 0 3.993-.751 5.507-2.114 1.913-1.723 4.799-1.722 6.712 0 1.514 1.364 3.469 2.114 5.506 2.114 2.038 0 3.993-.75 5.507-2.114 1.914-1.726 4.801-1.726 6.711-.001 1.798 1.621 4.125 2.354 6.566 2.049 3.594-.443 6.576-3.361 7.09-6.938.508-3.534-1.278-6.982-4.444-8.582-1.232-.623-1.727-2.126-1.104-3.358.621-1.233 2.125-1.728 3.358-1.104 5.083 2.567 7.952 8.095 7.14 13.755-.843 5.863-5.542 10.465-11.428 11.19-3.838.472-7.677-.73-10.526-3.299-2.452 2.194-5.595 3.401-8.871 3.401z"/></g><g><path d="m37.701 71.759c-3.274 0-6.419-1.207-8.853-3.398-2.868 2.567-6.71 3.767-10.542 3.296-5.887-.726-10.586-5.327-11.429-11.19-.804-5.6 1.885-10.939 6.848-13.603 1.218-.654 2.731-.197 3.386 1.021.652 1.216.195 2.732-1.021 3.385-3.092 1.66-4.766 4.991-4.264 8.487.514 3.577 3.496 6.495 7.091 6.938 2.435.302 4.768-.428 6.566-2.05 1.911-1.724 4.796-1.721 6.711.002 1.513 1.363 3.469 2.114 5.506 2.114 1.441 0 2.859-.378 4.102-1.094 1.192-.689 2.724-.279 3.414.918.689 1.196.278 2.725-.918 3.414-1.999 1.15-4.28 1.76-6.597 1.76z"/></g><g><path d="m52.485 54.246h-8.291c-3.581 0-6.495-2.914-6.495-6.496v-8.112c0-3.582 2.914-6.496 6.495-6.496h8.291c3.581 0 6.495 2.914 6.495 6.496v8.112c0 3.582-2.914 6.496-6.495 6.496zm-8.291-16.104c-.824 0-1.495.671-1.495 1.496v8.112c0 .825.671 1.496 1.495 1.496h8.291c.824 0 1.495-.671 1.495-1.496v-8.112c0-.825-.671-1.496-1.495-1.496z"/></g><g><path d="m39.594 51.307h-23.708c-4.198 0-7.613-3.415-7.613-7.613s3.415-7.613 7.613-7.613h23.833c1.381 0 2.5 1.119 2.5 2.5s-1.119 2.5-2.5 2.5h-23.833c-1.441 0-2.613 1.172-2.613 2.613s1.172 2.613 2.613 2.613h23.708c1.381 0 2.5 1.119 2.5 2.5s-1.119 2.5-2.5 2.5z"/></g><g><path d="m130.418 51.307h-73.324c-1.381 0-2.5-1.119-2.5-2.5s1.119-2.5 2.5-2.5h73.324c1.44 0 2.612-1.172 2.612-2.613s-1.172-2.613-2.612-2.613h-73.543c-1.381 0-2.5-1.119-2.5-2.5s1.119-2.5 2.5-2.5h73.543c4.197 0 7.612 3.416 7.612 7.613s-3.415 7.613-7.612 7.613z"/></g><g><path d="m48.376 74.598c-4.198 0-7.613-3.416-7.613-7.613v-14.61c0-1.381 1.119-2.5 2.5-2.5s2.5 1.119 2.5 2.5v14.609c0 1.441 1.172 2.613 2.613 2.613 1.44 0 2.612-1.172 2.612-2.613v-14.567c0-1.381 1.119-2.5 2.5-2.5s2.5 1.119 2.5 2.5v14.567c0 4.198-3.415 7.614-7.612 7.614z"/></g><g><path d="m58.602 62.368c-3.387 0-6.444-2.276-7.437-5.535-.402-1.321.343-2.718 1.663-3.12 1.323-.401 2.718.343 3.12 1.664.357 1.172 1.448 1.991 2.653 1.991 1.538 0 2.789-1.251 2.789-2.789v-4.704c0-1.381 1.119-2.5 2.5-2.5s2.5 1.119 2.5 2.5v4.704c.001 4.295-3.494 7.789-7.788 7.789z"/></g><g><path d="m135.641 90.086c-1.361 0-2.477-1.092-2.499-2.459-.118-7.162-.641-14.211-1.555-20.95-.186-1.368.773-2.628 2.142-2.813 1.38-.18 2.629.774 2.813 2.142.939 6.934 1.478 14.181 1.6 21.54.022 1.38-1.078 2.518-2.459 2.541-.014-.001-.029-.001-.042-.001z"/></g><g><path d="m101.441 179.936h-56.58c-6.469 0-12.391-3.206-15.841-8.575-13.289-20.685-20.91-50.103-20.91-80.712 0-8.307.559-16.626 1.661-24.726.187-1.368 1.445-2.331 2.814-2.14 1.368.186 2.326 1.446 2.141 2.814-1.072 7.876-1.616 15.969-1.616 24.051 0 29.676 7.332 58.109 20.117 78.009 2.525 3.931 6.875 6.278 11.634 6.278h56.58c3.663 0 7.235-1.464 9.8-4.016.979-.974 2.561-.971 3.536.009.974.979.97 2.562-.009 3.535-3.495 3.478-8.352 5.473-13.327 5.473z"/></g></g></g></svg>