<svg enable-background="new 0 0 256 256" height="512" viewBox="0 0 256 256" width="512" xmlns="http://www.w3.org/2000/svg"><g id="Layer_51"><g><g><circle cx="52.632" cy="37" fill="#edf4fc" r="14.5"/></g><g><path d="m52.632 51.5c-2.241 0-4.355-.523-6.25-1.431v203.431h12.5v-203.431c-1.895.908-4.009 1.431-6.25 1.431z" fill="#c7d7e5"/></g><g><path d="m175.661 56.187c-30.122 0-30.122 10.625-60.245 10.625-28.824 0-30.081-9.725-56.534-10.562v137c26.453.836 27.71 10.562 56.534 10.562 30.122 0 30.122-10.625 60.245-10.625 28.535 0 30.039 9.535 55.725 10.54 2.471.097 4.52-1.9 4.52-4.373v-128.245c0-2.36-1.877-4.285-4.236-4.371-25.959-.945-27.369-10.551-56.009-10.551z" fill="#70d6f9"/></g><g><path d="m143.767 79.302c-28.408 0-51.519 23.111-51.519 51.518 0 28.408 23.111 51.519 51.519 51.519s51.519-23.111 51.519-51.519c0-28.407-23.111-51.518-51.519-51.518zm40.587 51.518c0 6.887-1.73 13.377-4.769 19.065l-30.352-23.786v-35.487c19.803 2.679 35.121 19.683 35.121 40.208zm-46.053-40.208v35.487l-30.352 23.786c-3.04-5.688-4.769-12.177-4.769-19.065 0-20.525 15.318-37.529 35.121-40.208zm-23.941 68.138 23.942-18.762v31.042c-9.37-1.268-17.729-5.741-23.942-12.28zm34.873 12.28v-31.042l23.942 18.762c-6.213 6.539-14.573 11.012-23.942 12.28z" fill="#dae6f1"/></g><g><path d="m52.632 54c-9.374 0-17-7.626-17-17s7.626-17 17-17 17 7.626 17 17-7.626 17-17 17zm0-29c-6.617 0-12 5.383-12 12s5.383 12 12 12 12-5.383 12-12-5.383-12-12-12z"/></g><g><path d="m46.382 256c-1.381 0-2.5-1.119-2.5-2.5v-202.812c0-1.381 1.119-2.5 2.5-2.5s2.5 1.119 2.5 2.5v202.812c0 1.381-1.119 2.5-2.5 2.5z"/></g><g><path d="m58.882 256c-1.381 0-2.5-1.119-2.5-2.5v-202.812c0-1.381 1.119-2.5 2.5-2.5s2.5 1.119 2.5 2.5v202.812c0 1.381-1.119 2.5-2.5 2.5z"/></g><g><path d="m115.416 206.313c-15.487 0-23.353-2.771-30.96-5.451-6.789-2.393-13.202-4.652-25.085-5.093-1.379-.051-2.457-1.211-2.405-2.591s1.208-2.464 2.591-2.405c12.643.469 19.718 2.962 26.561 5.372 7.542 2.658 14.666 5.168 29.298 5.168 14.633 0 21.753-2.512 29.291-5.17 7.603-2.682 15.465-5.455 30.954-5.455s23.351 2.773 30.954 5.455c6.746 2.38 13.117 4.627 24.869 5.087.502.022.978-.162 1.343-.515.374-.359.58-.842.58-1.36v-128.246c0-1.013-.803-1.835-1.827-1.873-12.689-.462-19.775-2.961-26.627-5.379-7.538-2.658-14.658-5.17-29.291-5.17s-21.753 2.512-29.291 5.17c-7.603 2.682-15.465 5.455-30.954 5.455-15.487 0-23.353-2.771-30.959-5.451-6.745-2.377-13.115-4.621-24.848-5.083-1.38-.055-2.454-1.217-2.4-2.597s1.244-2.436 2.596-2.399c12.487.491 19.516 2.968 26.313 5.363 7.542 2.657 14.667 5.167 29.298 5.167 14.633 0 21.753-2.512 29.291-5.17 7.603-2.682 15.465-5.455 30.954-5.455s23.351 2.773 30.954 5.455c6.798 2.398 13.219 4.663 25.146 5.098 3.727.136 6.646 3.153 6.646 6.869v128.245c0 1.863-.771 3.673-2.114 4.965-1.354 1.303-3.133 1.991-5.004 1.906-12.506-.489-19.538-2.97-26.337-5.368-7.538-2.658-14.657-5.17-29.291-5.17s-21.753 2.512-29.291 5.17c-7.604 2.682-15.466 5.456-30.955 5.456z"/></g><g><path d="m30.369 181.2c-3.1-.6-5.6-3-6.2-6.1 0-.1-.3-.1-.3 0-.6 3.1-3.1 5.5-6.2 6.1-.1 0-.1.2 0 .3 3.1.6 5.6 3 6.2 6.1 0 .1.3.1.3 0 .6-3.1 3.1-5.5 6.2-6.1.1-.1.1-.3 0-.3z" fill="#70d6f9"/></g><g><path d="m172.919 234.9h2.3v2.3c0 1.8 1.4 3.2 3.2 3.2 1.7 0 3.2-1.4 3.2-3.1v-.1-2.3h2.3c1.8 0 3.2-1.4 3.2-3.2 0-1.7-1.4-3.2-3.1-3.2h-.1-2.3v-2.3c0-1.8-1.4-3.2-3.2-3.2-1.7 0-3.2 1.4-3.2 3.1v.1 2.3h-2.3c-1.8 0-3.2 1.4-3.2 3.2-.1 1.7 1.3 3.2 3.2 3.2-.1 0-.1 0 0 0z" fill="#fc657e"/></g><g><circle cx="153.319" cy="214.9" fill="#f5c84c" r="3.4"/></g><g><circle cx="104.319" cy="32.4" fill="#87d147" r="3.4"/></g><g><path d="m70.719 8.85c4.5-.8 8-4.3 8.9-8.7 0-.2.4-.2.4 0 .9 4.4 4.4 7.9 8.9 8.7.2 0 .2.3 0 .4-4.5.8-8 4.3-8.9 8.7 0 .2-.4.2-.4 0-.9-4.4-4.4-7.9-8.9-8.7-.2-.1-.2-.4 0-.4z" fill="#f5c84c"/></g><g><path d="m143.767 184.84c-29.786 0-54.019-24.233-54.019-54.02s24.232-54.019 54.019-54.019 54.019 24.232 54.019 54.019-24.233 54.02-54.019 54.02zm0-103.038c-27.029 0-49.019 21.989-49.019 49.019s21.99 49.02 49.019 49.02 49.019-21.99 49.019-49.02-21.99-49.019-49.019-49.019zm-5.466 91.727c-.111 0-.223-.008-.335-.022-9.645-1.305-18.672-5.935-25.419-13.035-.485-.51-.732-1.202-.681-1.904s.396-1.351.951-1.785l23.942-18.763c.752-.59 1.775-.699 2.636-.28.86.419 1.406 1.292 1.406 2.248v31.042c0 .722-.312 1.408-.855 1.883-.458.4-1.044.616-1.645.616zm-20.156-14.57c4.985 4.537 11.105 7.689 17.656 9.097v-22.933zm31.088 14.57c-.601 0-1.187-.217-1.645-.617-.543-.475-.855-1.161-.855-1.883v-31.042c0-.956.546-1.829 1.406-2.248s1.883-.31 2.636.28l23.942 18.763c.555.435.9 1.083.951 1.785.052.702-.196 1.395-.681 1.904-6.747 7.101-15.774 11.73-25.419 13.035-.112.015-.224.023-.335.023zm2.5-28.406v22.933c6.551-1.407 12.671-4.56 17.656-9.097zm27.852 7.262c-.554 0-1.098-.185-1.542-.532l-30.352-23.786c-.605-.474-.958-1.199-.958-1.968v-35.487c0-.722.312-1.408.855-1.883s1.264-.688 1.98-.595c21.257 2.875 37.287 21.227 37.287 42.686 0 7.042-1.751 14.042-5.064 20.242-.348.652-.967 1.116-1.689 1.269-.172.036-.345.054-.517.054zm-27.852-27.503 26.955 21.123c2.078-4.771 3.167-9.965 3.167-15.185 0-18.002-12.761-33.528-30.122-37.237zm-43.783 27.503c-.172 0-.344-.018-.515-.054-.723-.152-1.342-.616-1.69-1.268-3.313-6.2-5.064-13.2-5.064-20.243 0-21.459 16.029-39.811 37.286-42.686.713-.095 1.437.12 1.98.595s.855 1.161.855 1.883v35.486c0 .769-.353 1.494-.958 1.968l-30.352 23.786c-.444.348-.988.533-1.542.533zm27.851-58.802c-17.36 3.709-30.121 19.235-30.121 37.237 0 5.221 1.088 10.414 3.167 15.185l26.954-21.123z"/></g></g></g></svg>