<svg enable-background="new 0 0 256 256" height="512" viewBox="0 0 256 256" width="512" xmlns="http://www.w3.org/2000/svg"><g id="Layer_6"><g><path d="m115.416 158.146c-28.623 0-30.044-9.596-55.965-10.55h-.569v22.833h.57c25.92.953 27.342 10.55 55.965 10.55 30.122 0 30.122-10.626 60.245-10.626s30.123 10.626 60.245 10.626v-22.833c-30.122 0-30.122-10.626-60.245-10.626-30.123.001-30.123 10.626-60.246 10.626z" fill="#70d6f9"/></g><g><path d="m175.661 101.854c-30.122 0-30.122 10.626-60.245 10.626-28.622 0-30.044-9.596-55.962-10.549h-.572v22.833h.57c25.92.953 27.342 10.55 55.965 10.55 30.122 0 30.122-10.626 60.245-10.626s30.123 10.626 60.245 10.626v-22.833c-30.123-.002-30.123-10.627-60.246-10.627z" fill="#f5c84c"/></g><g><path d="m115.416 89.646c30.122 0 30.122-10.626 60.245-10.626s30.123 10.626 60.245 10.626v-18.537c0-2.36-1.877-4.285-4.236-4.371-25.959-.945-27.369-10.551-56.009-10.551-30.122 0-30.122 10.625-60.245 10.625-28.824 0-30.081-9.725-56.534-10.562v22.846h.572c25.918.954 27.34 10.55 55.962 10.55z" fill="#fc657e"/></g><g><path d="m115.416 180.979c-28.622 0-30.044-9.596-55.965-10.55h-.57v22.821c26.453.836 27.71 10.562 56.534 10.562 30.122 0 30.122-10.625 60.245-10.625 28.535 0 30.039 9.535 55.725 10.54 2.471.097 4.52-1.901 4.52-4.373v-18.375c-30.122 0-30.122-10.626-60.245-10.626-30.121.001-30.121 10.626-60.244 10.626z" fill="#b598f9"/></g><g><path d="m115.416 135.313c-28.622 0-30.044-9.596-55.965-10.55h-.57v22.833h.569c25.921.953 27.342 10.55 55.965 10.55 30.122 0 30.122-10.626 60.245-10.626s30.123 10.626 60.245 10.626v-22.833c-30.122 0-30.122-10.626-60.245-10.626-30.121 0-30.121 10.626-60.244 10.626z" fill="#87d147"/></g><g><path d="m59.454 101.93c25.918.954 27.341 10.549 55.962 10.549 30.122 0 30.122-10.626 60.245-10.626s30.123 10.626 60.245 10.626v-22.833c-30.122 0-30.122-10.626-60.245-10.626-30.122 0-30.122 10.626-60.245 10.626-28.622 0-30.044-9.596-55.962-10.549h-.572v22.833z" fill="#fca265"/></g><g><circle cx="52.632" cy="37" fill="#edf4fc" r="14.5"/></g><g><path d="m52.632 51.5c-2.241 0-4.355-.523-6.25-1.431v203.431h12.5v-203.431c-1.895.908-4.009 1.431-6.25 1.431z" fill="#c7d7e5"/></g><g><path d="m52.632 54c-9.374 0-17-7.626-17-17s7.626-17 17-17 17 7.626 17 17-7.626 17-17 17zm0-29c-6.617 0-12 5.383-12 12s5.383 12 12 12 12-5.383 12-12-5.383-12-12-12z"/></g><g><path d="m46.382 256c-1.381 0-2.5-1.119-2.5-2.5v-202.812c0-1.381 1.119-2.5 2.5-2.5s2.5 1.119 2.5 2.5v202.812c0 1.381-1.119 2.5-2.5 2.5z"/></g><g><path d="m58.882 256c-1.381 0-2.5-1.119-2.5-2.5v-202.812c0-1.381 1.119-2.5 2.5-2.5s2.5 1.119 2.5 2.5v202.812c0 1.381-1.119 2.5-2.5 2.5z"/></g><g><path d="m235.906 92.146c-15.489 0-23.351-2.773-30.954-5.455-7.538-2.659-14.658-5.17-29.291-5.17s-21.753 2.511-29.291 5.17c-7.603 2.682-15.465 5.455-30.954 5.455-15.487 0-23.348-2.773-30.95-5.455-6.79-2.396-13.203-4.658-25.104-5.096-1.38-.051-2.457-1.21-2.407-2.59.051-1.379 1.217-2.444 2.59-2.407 12.662.466 19.739 2.963 26.583 5.377 7.537 2.659 14.656 5.17 29.287 5.17 14.633 0 21.753-2.511 29.291-5.17 7.603-2.682 15.465-5.455 30.954-5.455s23.351 2.773 30.954 5.455c7.538 2.659 14.658 5.17 29.291 5.17 1.381 0 2.5 1.119 2.5 2.5s-1.118 2.501-2.499 2.501z"/></g><g><path d="m235.906 114.979c-15.489 0-23.351-2.773-30.954-5.455-7.538-2.659-14.658-5.17-29.291-5.17s-21.753 2.511-29.291 5.17c-7.603 2.682-15.465 5.455-30.954 5.455-15.487 0-23.348-2.773-30.95-5.455-6.79-2.396-13.203-4.658-25.104-5.096-1.38-.051-2.457-1.21-2.407-2.59.051-1.379 1.217-2.437 2.59-2.407 12.662.466 19.739 2.963 26.583 5.377 7.537 2.659 14.656 5.17 29.287 5.17 14.633 0 21.753-2.511 29.291-5.17 7.603-2.682 15.465-5.455 30.954-5.455s23.351 2.773 30.954 5.455c7.538 2.659 14.658 5.17 29.291 5.17 1.381 0 2.5 1.119 2.5 2.5s-1.118 2.501-2.499 2.501z"/></g><g><path d="m235.906 137.813c-15.489 0-23.351-2.773-30.954-5.456-7.538-2.659-14.658-5.17-29.291-5.17s-21.753 2.512-29.291 5.17c-7.603 2.682-15.465 5.456-30.954 5.456-15.487 0-23.348-2.773-30.95-5.456-6.79-2.396-13.204-4.658-25.106-5.096-1.38-.051-2.457-1.21-2.407-2.59.051-1.379 1.198-2.451 2.59-2.407 12.664.466 19.741 2.963 26.586 5.378 7.537 2.659 14.655 5.17 29.287 5.17 14.633 0 21.753-2.512 29.291-5.17 7.603-2.682 15.465-5.456 30.954-5.456s23.351 2.773 30.954 5.456c7.538 2.659 14.658 5.17 29.291 5.17 1.381 0 2.5 1.119 2.5 2.5s-1.119 2.501-2.5 2.501z"/></g><g><path d="m235.906 160.646c-15.489 0-23.351-2.773-30.954-5.455-7.538-2.659-14.658-5.17-29.291-5.17s-21.753 2.511-29.291 5.17c-7.603 2.682-15.465 5.455-30.954 5.455-15.487 0-23.348-2.773-30.95-5.455-6.79-2.396-13.204-4.658-25.106-5.096-1.38-.051-2.457-1.21-2.407-2.59.051-1.379 1.198-2.444 2.59-2.407 12.664.466 19.742 2.963 26.586 5.377 7.537 2.659 14.656 5.17 29.287 5.17 14.633 0 21.753-2.511 29.291-5.17 7.603-2.682 15.465-5.455 30.954-5.455s23.351 2.773 30.954 5.455c7.538 2.659 14.658 5.17 29.291 5.17 1.381 0 2.5 1.119 2.5 2.5s-1.119 2.501-2.5 2.501z"/></g><g><path d="m235.906 183.479c-15.489 0-23.351-2.773-30.954-5.455-7.538-2.659-14.658-5.17-29.291-5.17s-21.753 2.511-29.291 5.17c-7.603 2.682-15.465 5.455-30.954 5.455-15.487 0-23.348-2.773-30.95-5.455-6.791-2.396-13.204-4.659-25.106-5.096-1.38-.051-2.457-1.21-2.407-2.59.051-1.379 1.198-2.436 2.59-2.407 12.664.466 19.741 2.963 26.586 5.378 7.537 2.659 14.655 5.17 29.287 5.17 14.633 0 21.753-2.511 29.291-5.17 7.603-2.682 15.465-5.455 30.954-5.455s23.351 2.773 30.954 5.455c7.538 2.659 14.658 5.17 29.291 5.17 1.381 0 2.5 1.119 2.5 2.5s-1.119 2.5-2.5 2.5z"/></g><g><path d="m115.416 206.313c-15.487 0-23.353-2.771-30.959-5.452-6.797-2.395-13.217-4.657-25.127-5.093-1.38-.051-2.458-1.21-2.407-2.59.051-1.379 1.207-2.436 2.59-2.407 12.671.464 19.755 2.96 26.606 5.374 7.542 2.658 14.666 5.167 29.298 5.167 14.633 0 21.753-2.511 29.291-5.17 7.603-2.682 15.465-5.455 30.954-5.455s23.351 2.773 30.954 5.455c6.746 2.379 13.118 4.627 24.869 5.087.51.021.978-.163 1.343-.514.374-.359.58-.843.58-1.361v-128.245c0-1.013-.802-1.835-1.827-1.872-12.689-.462-19.775-2.962-26.627-5.379-7.538-2.659-14.658-5.17-29.291-5.17s-21.753 2.511-29.291 5.17c-7.603 2.682-15.465 5.455-30.954 5.455-15.487 0-23.353-2.771-30.959-5.452-6.797-2.395-13.216-4.656-25.125-5.093-1.379-.051-2.457-1.21-2.407-2.59.051-1.379 1.204-2.437 2.59-2.407 12.668.465 19.752 2.96 26.602 5.374 7.542 2.658 14.667 5.167 29.298 5.167 14.633 0 21.753-2.511 29.291-5.17 7.603-2.682 15.465-5.455 30.954-5.455s23.351 2.773 30.954 5.455c6.798 2.398 13.219 4.663 25.146 5.097 3.726.135 6.646 3.152 6.646 6.869v128.246c0 1.863-.771 3.673-2.114 4.965-1.354 1.303-3.133 1.977-5.004 1.906-12.506-.489-19.537-2.969-26.336-5.368-7.538-2.659-14.658-5.17-29.291-5.17s-21.753 2.511-29.291 5.17c-7.605 2.683-15.467 5.456-30.956 5.456z"/></g><g><path d="m30.369 181.2c-3.1-.6-5.6-3-6.2-6.1 0-.1-.3-.1-.3 0-.6 3.1-3.1 5.5-6.2 6.1-.1 0-.1.2 0 .3 3.1.6 5.6 3 6.2 6.1 0 .1.3.1.3 0 .6-3.1 3.1-5.5 6.2-6.1.1-.1.1-.3 0-.3z" fill="#fc657e"/></g><g><path d="m172.919 234.9h2.3v2.3c0 1.8 1.4 3.2 3.2 3.2 1.7 0 3.2-1.4 3.2-3.1v-.1-2.3h2.3c1.8 0 3.2-1.4 3.2-3.2 0-1.7-1.4-3.2-3.1-3.2h-.1-2.3v-2.3c0-1.8-1.4-3.2-3.2-3.2-1.7 0-3.2 1.4-3.2 3.1v.1 2.3h-2.3c-1.8 0-3.2 1.4-3.2 3.2-.1 1.7 1.3 3.2 3.2 3.2-.1 0-.1 0 0 0z" fill="#87d147"/></g><g><circle cx="153.319" cy="214.9" fill="#f5c84c" r="3.4"/></g><g><circle cx="104.319" cy="32.4" fill="#70d6f9" r="3.4"/></g><g><path d="m70.719 8.85c4.5-.8 8-4.3 8.9-8.7 0-.2.4-.2.4 0 .9 4.4 4.4 7.9 8.9 8.7.2 0 .2.3 0 .4-4.5.8-8 4.3-8.9 8.7 0 .2-.4.2-.4 0-.9-4.4-4.4-7.9-8.9-8.7-.2-.1-.2-.4 0-.4z" fill="#f5c84c"/></g></g></svg>