<svg enable-background="new 0 0 256 256" height="512" viewBox="0 0 256 256" width="512" xmlns="http://www.w3.org/2000/svg"><g id="Layer_3"><g><g><path d="m171.624 253.5c1.716 0 3.108-1.396 3.108-3.112 0-20.763 0-75.407 0-81.128 0-1.556-1.261-2.818-2.818-2.818h-80.246c-1.556 0-2.818 1.262-2.818 2.818v81.13c0 1.716 1.391 3.11 3.108 3.11z" fill="#fca265"/></g><g><path d="m88.85 200h85.881c0-6.668 0-12.89 0-18h-85.881z" fill="#f5c84c"/></g><g><path d="m204.35 141.55c-3.1-.6-5.6-3-6.2-6.1 0-.1-.3-.1-.3 0-.6 3.1-3.1 5.5-6.2 6.1-.1 0-.1.2 0 .3 3.1.6 5.6 3 6.2 6.1 0 .1.3.1.3 0 .6-3.1 3.1-5.5 6.2-6.1.1-.1.1-.3 0-.3z" fill="#fc657e"/></g><g><path d="m194.9 29.25h2.3v2.3c0 1.8 1.4 3.2 3.2 3.2 1.7 0 3.2-1.4 3.2-3.1v-.1-2.3h2.3c1.8 0 3.2-1.4 3.2-3.2 0-1.7-1.4-3.2-3.1-3.2h-.1-2.3v-2.3c0-1.8-1.4-3.2-3.2-3.2-1.7 0-3.2 1.4-3.2 3.1v.1 2.3h-2.3c-1.8 0-3.2 1.4-3.2 3.2-.1 1.7 1.3 3.2 3.2 3.2-.1 0-.1 0 0 0z" fill="#70d6f9"/></g><g><circle cx="67.8" cy="235.6" fill="#87d147" r="3.4"/></g><g><circle cx="179.6" cy="3.4" fill="#f5c84c" r="3.4"/></g><g><path d="m48.719 206.85c4.5-.8 8-4.3 8.9-8.7 0-.2.4-.2.4 0 .9 4.4 4.4 7.9 8.9 8.7.2 0 .2.3 0 .4-4.5.8-8 4.3-8.9 8.7 0 .2-.4.2-.4 0-.9-4.4-4.4-7.9-8.9-8.7-.2-.1-.2-.4 0-.4z" fill="#f5c84c"/></g><g><path d="m132.289 154.311c-14.061 0-25.972-9.177-30.089-21.865-.013 19.837-.018 31.186-.02 33.996h59.741v-32.682c-4.491 12.003-16.061 20.551-29.632 20.551z" fill="#f9d0b4"/></g><g><path d="m167.934 21.014c-5.378-.616-10.004 3.365-10.404 8.566v-4.381c-.485-4.344-3.76-8.06-8.175-8.566-5.42-.621-10.077 3.427-10.413 8.688-.436-4.396-3.733-8.176-8.19-8.687-5.464-.626-10.154 3.492-10.422 8.815-.379-4.449-3.715-8.302-8.212-8.816-5.546-.635-10.303 3.663-10.407 9.11-.002.089-.738 21.981-.738 21.981.115-6.08-5.072-11.087-11.286-10.579-5.414.443-9.449 5.242-9.552 10.673l-.308 16.195c-.186 9.746 2.612 19.316 8.016 27.429 3.399 6.156 11.473 11.35 13.76 23.537 3.439-13.749 15.871-23.934 30.685-23.934 14.129 0 26.09 9.264 30.151 22.048 2.008-8.758 9.269-18.244 10.593-22.701 1.362-3.952 2.097-8.094 2.176-12.275l.971-47.236c.093-4.883-3.393-9.311-8.245-9.867z" fill="#f9d0b4"/></g><g><path d="m100.656 122.677c0-1.829.164-3.618.462-5.362h-5.823c-2.961 0-5.362 2.401-5.362 5.362s2.401 5.362 5.362 5.362h5.823c-.298-1.744-.462-3.533-.462-5.362z" fill="#fca265"/></g><g><path d="m169.284 117.316h-5.823c.298 1.744.462 3.533.462 5.362s-.164 3.618-.462 5.362h5.823c2.961 0 5.362-2.401 5.362-5.362s-2.4-5.362-5.362-5.362z" fill="#fca265"/></g><g><circle cx="132.289" cy="122.677" fill="#fc657e" r="31.633"/></g><g><path d="m171.624 256h-79.666c-3.092 0-5.607-2.517-5.607-5.61v-81.13c0-2.932 2.386-5.318 5.318-5.318h80.246c2.932 0 5.317 2.386 5.317 5.318v81.128c-.001 3.094-2.516 5.612-5.608 5.612zm-79.956-87.058c-.175 0-.318.143-.318.318v81.13c0 .336.272.61.607.61h79.667c.335 0 .607-.274.607-.612v-81.128c0-.175-.143-.318-.317-.318z"/></g><g><path d="m161.922 168.094c-1.381 0-2.5-1.119-2.5-2.5v-31.476c0-1.381 1.119-2.5 2.5-2.5s2.5 1.119 2.5 2.5v31.476c0 1.381-1.119 2.5-2.5 2.5z"/></g><g><path d="m102.181 167.93h-.001c-1.381-.001-2.5-1.121-2.499-2.501l.019-32.743c.001-1.38 1.12-2.499 2.5-2.499h.001c1.381.001 2.5 1.121 2.499 2.501l-.019 32.743c-.001 1.381-1.12 2.499-2.5 2.499z"/></g><g><path d="m101.538 117.152c-1.169 0-2.213-.824-2.449-2.015-1.479-7.464-5.371-12.113-8.804-16.214-1.736-2.074-3.377-4.035-4.578-6.181-5.677-8.559-8.574-18.508-8.379-28.778l.308-16.194c.13-6.822 5.334-12.583 11.848-13.117 3.38-.278 6.736.794 9.329 2.953.191-5.696.394-11.736.4-11.933.063-3.311 1.54-6.482 4.052-8.68 2.498-2.187 5.833-3.223 9.138-2.845 3.185.364 5.986 2.058 7.887 4.531.505-.656 1.081-1.262 1.72-1.804 2.52-2.136 5.727-3.104 9.028-2.726 3.16.362 5.956 2.056 7.86 4.526.521-.677 1.116-1.3 1.778-1.854 2.51-2.098 5.694-3.044 8.964-2.673 4.187.48 7.756 3.326 9.432 7.211.08-.07.161-.139.243-.207 2.501-2.063 5.668-2.994 8.904-2.624 5.984.686 10.579 6.131 10.462 12.397l-.972 47.24c-.084 4.429-.856 8.8-2.296 12.99-.605 2-2.014 4.484-3.792 7.622-2.447 4.318-5.493 9.693-6.683 14.614-.324 1.342-1.674 2.166-3.017 1.843-1.343-.324-2.167-1.675-1.843-3.017 1.354-5.602 4.591-11.315 7.192-15.905 1.507-2.66 2.931-5.172 3.365-6.634.01-.035.021-.069.033-.104 1.278-3.71 1.965-7.582 2.04-11.508l.972-47.239c.069-3.714-2.58-6.936-6.032-7.332-1.88-.217-3.71.321-5.151 1.512-1.452 1.198-2.33 2.889-2.475 4.761-.103 1.341-1.285 2.364-2.588 2.307-1.343-.051-2.404-1.155-2.404-2.498v-4.232c-.422-3.271-2.91-5.881-5.961-6.231-1.894-.217-3.739.33-5.187 1.541-1.457 1.218-2.326 2.931-2.446 4.822-.083 1.299-1.149 2.317-2.451 2.34-1.283.039-2.402-.957-2.531-2.252-.336-3.378-2.854-6.091-5.986-6.45-1.922-.222-3.772.338-5.226 1.572-1.44 1.221-2.32 3.001-2.415 4.884-.066 1.313-1.139 2.351-2.454 2.374-1.28.051-2.422-.976-2.534-2.287-.292-3.428-2.818-6.18-6.006-6.544-1.941-.224-3.815.36-5.277 1.64-1.454 1.272-2.309 3.107-2.346 5.035 0 .021-.001.103-.738 22.017-.046 1.373-1.215 2.446-2.564 2.415-1.373-.036-2.459-1.173-2.434-2.546.042-2.223-.873-4.38-2.51-5.917-1.654-1.554-3.811-2.308-6.073-2.123-3.987.327-7.175 3.941-7.257 8.229l-.307 16.196c-.177 9.28 2.45 18.27 7.597 25.996.039.058.075.117.108.178.971 1.759 2.415 3.484 4.086 5.481 3.63 4.336 8.147 9.732 9.875 18.452.269 1.354-.612 2.67-1.966 2.938-.164.032-.328.047-.489.047z"/></g><g><path d="m100.438 130.539h-5.144c-4.335 0-7.862-3.527-7.862-7.862s3.527-7.861 7.862-7.861h5.189c1.381 0 2.5 1.119 2.5 2.5s-1.119 2.5-2.5 2.5h-5.189c-1.578 0-2.862 1.284-2.862 2.861 0 1.578 1.284 2.862 2.862 2.862h5.144c1.381 0 2.5 1.119 2.5 2.5s-1.119 2.5-2.5 2.5z"/></g><g><path d="m169.284 130.539h-5.117c-1.381 0-2.5-1.119-2.5-2.5s1.119-2.5 2.5-2.5h5.117c1.578 0 2.861-1.284 2.861-2.862s-1.283-2.861-2.861-2.861h-4.972c-1.381 0-2.5-1.119-2.5-2.5s1.119-2.5 2.5-2.5h4.972c4.335 0 7.861 3.526 7.861 7.861s-3.526 7.862-7.861 7.862z"/></g><g><path d="m100.716 63.815c-.016 0-.032 0-.048 0-1.38-.026-2.479-1.167-2.452-2.547l.263-13.845c.026-1.38 1.164-2.502 2.547-2.452 1.38.026 2.479 1.167 2.452 2.547l-.263 13.845c-.026 1.364-1.14 2.452-2.499 2.452z"/></g><g><path d="m120.33 44.254c-1.381 0-2.5-1.119-2.5-2.5v-16.306c0-1.381 1.119-2.5 2.5-2.5s2.5 1.119 2.5 2.5v16.306c0 1.381-1.119 2.5-2.5 2.5z"/></g><g><path d="m138.941 44.61c-1.381 0-2.5-1.119-2.5-2.5v-16.368c0-1.381 1.119-2.5 2.5-2.5s2.5 1.119 2.5 2.5v16.368c0 1.381-1.119 2.5-2.5 2.5z"/></g><g><path d="m157.53 44.965c-1.381 0-2.5-1.119-2.5-2.5v-17.266c0-1.381 1.119-2.5 2.5-2.5s2.5 1.119 2.5 2.5v17.267c0 1.38-1.119 2.499-2.5 2.499z"/></g><g><path d="m132.289 156.811c-18.821 0-34.133-15.312-34.133-34.133s15.312-34.133 34.133-34.133 34.134 15.312 34.134 34.133-15.313 34.133-34.134 34.133zm0-63.267c-16.064 0-29.133 13.069-29.133 29.133s13.069 29.133 29.133 29.133 29.134-13.069 29.134-29.133-13.069-29.133-29.134-29.133z"/></g><g><path d="m124.039 142.918c-5.248 0-11.974-3.317-13.991-12.731-.29-1.35.57-2.679 1.92-2.968 1.354-.29 2.679.571 2.968 1.92 1.408 6.571 5.668 8.863 9.236 8.778 2.656-.048 5.584-1.5 6.137-4.633.271-1.532.046-2.725-.685-3.646-1.507-1.899-4.919-2.484-6.107-2.549-1.153-.063-2.118-.908-2.327-2.044s.383-2.268 1.438-2.737c1.065-.48 4.294-2.342 5.061-4.497.262-.735.199-1.447-.197-2.24-.48-.96-1.06-1.225-1.511-1.348-1.988-.545-5.275.993-6.556 1.822-1.16.75-2.707.418-3.458-.741-.75-1.159-.418-2.707.741-3.458.595-.384 5.935-3.715 10.589-2.447 2.044.558 3.658 1.919 4.667 3.935 1.007 2.014 1.155 4.148.429 6.173-.573 1.599-1.624 2.951-2.771 4.043 1.405.652 2.811 1.594 3.898 2.955 1.64 2.052 2.231 4.696 1.711 7.647-.893 5.058-5.403 8.662-10.97 8.763-.072.002-.147.003-.222.003z"/></g><g><path d="m142.313 138.976c-.169 0-.338-.003-.506-.01-1.38-.056-2.452-1.22-2.396-2.6s1.239-2.445 2.6-2.396c2.844.125 7.199-1.52 7.531-6.501.064-.967-.04-1.906-.312-2.789-.487-1.595-1.858-2.044-2.425-2.163-1.235-.259-2.449.138-3.247 1.065-4.951 5.748-11.259 6.508-11.524 6.538-1.38.149-2.608-.837-2.761-2.208-.152-1.368.829-2.6 2.193-2.759.109-.015 4.705-.656 8.303-4.833 1.975-2.292 5.059-3.325 8.064-2.695 2.989.628 5.299 2.718 6.178 5.592.449 1.466.624 3.01.519 4.587-.489 7.345-6.563 11.172-12.217 11.172z"/></g><g><path d="m141.463 114.588c-5.74 0-9.424-4.405-9.612-4.636-.875-1.069-.717-2.644.352-3.518 1.065-.87 2.634-.719 3.509.341.169.199 3.576 4.131 8.33 2.302 1.29-.496 2.735.148 3.23 1.436.496 1.289-.146 2.735-1.436 3.231-1.559.6-3.024.844-4.373.844z"/></g><g><path d="m140.973 105.07c-1.381 0-2.5-1.119-2.5-2.5v-1.088c0-1.381 1.119-2.5 2.5-2.5s2.5 1.119 2.5 2.5v1.088c0 1.381-1.119 2.5-2.5 2.5z"/></g><g><path d="m173.708 202.5h-84.302c-1.381 0-2.5-1.119-2.5-2.5s1.119-2.5 2.5-2.5h84.302c1.381 0 2.5 1.119 2.5 2.5s-1.119 2.5-2.5 2.5z"/></g><g><path d="m173.792 184.5h-84.136c-1.381 0-2.5-1.119-2.5-2.5s1.119-2.5 2.5-2.5h84.136c1.381 0 2.5 1.119 2.5 2.5s-1.119 2.5-2.5 2.5z"/></g></g></g></svg>