<svg enable-background="new 0 0 256 256" height="512" viewBox="0 0 256 256" width="512" xmlns="http://www.w3.org/2000/svg"><g id="Layer_43"><g><g><path d="m129.55 218.5h-3c-6.6 0-12 5.4-12 12v11c0 6.6 5.4 12 12 12h3c6.6 0 12-5.4 12-12v-11c0-6.6-5.4-12-12-12z" fill="#f5c84c"/></g><g><path d="m128.05 2.5c-41.041 0-74.311 34.441-74.311 76.927 0 17.793 5.844 34.167 15.646 47.196 6.3 8.374 9.665 18.59 9.665 29.069v28.808c0 22.377 15.006 41.237 35.5 47.101v-1.101c0-6.6 5.4-12 12-12h3c6.6 0 12 5.4 12 12v1.101c20.494-5.864 35.5-24.724 35.5-47.101v-28.808c0-10.479 3.365-20.695 9.665-29.069 9.802-13.028 15.646-29.402 15.646-47.196 0-42.486-33.27-76.927-74.311-76.927z" fill="#a57453"/></g><g><path d="m211.05 66.5c-3.401 0-6.601.854-9.406 2.353.46 3.459.716 6.985.716 10.575 0 8.01-1.194 15.728-3.39 22.986 3.358 2.553 7.535 4.086 12.079 4.086 11.046 0 20-8.954 20-20s-8.953-20-19.999-20z" fill="#c18e6b"/></g><g><circle cx="211.05" cy="186" fill="#c18e6b" r="24"/></g><g><path d="m211.05 106.5c-2.009 0-3.945-.304-5.774-.854l-2.334 57.762c2.533-.909 5.262-1.407 8.108-1.407s5.574.498 8.107 1.407l-2.334-57.762c-1.829.55-3.765.854-5.773.854z" fill="#a57453"/></g><g><path d="m53.739 79.427c0-3.59.257-7.116.716-10.575-2.804-1.498-6.004-2.353-9.406-2.353-11.046 0-20 8.954-20 20s8.954 20 20 20c4.544 0 8.721-1.533 12.079-4.086-2.195-7.258-3.389-14.976-3.389-22.986z" fill="#c18e6b"/></g><g><circle cx="45.05" cy="186" fill="#c18e6b" r="24"/></g><g><path d="m45.05 106.5c-2.009 0-3.945-.304-5.774-.854l-2.334 57.762c2.533-.909 5.262-1.407 8.108-1.407s5.574.498 8.107 1.407l-2.334-57.762c-1.829.55-3.765.854-5.773.854z" fill="#a57453"/></g><g><path d="m136.09 161.5h-16.18c-2.889 0-5.14-2.506-4.83-5.379l6.486-60.121h12.867l6.486 60.121c.311 2.873-1.94 5.379-4.829 5.379z" fill="#c18e6b"/></g><g><path d="m169.5 114.5c-15.595 0-29.015-7.591-35.066-18.5l2.749 25.479c6.49 10.207 17.893 17.021 30.818 17.021 4.658 0 9.114-.894 13.219-2.503 1.465-3.303 3.297-6.453 5.496-9.375 5.145-6.839 9.186-14.606 11.877-23.01-7.058 6.667-17.468 10.888-29.093 10.888z" fill="#f5c84c"/></g><g><path d="m169.5 77.5c13.317 0 25.031 5.546 31.942 13.956.154-1.012.29-2.031.405-3.056-5.423-13.389-18.574-22.9-33.847-22.9-18.032 0-33.11 13.254-35.995 30.5h2.428c6.052-10.909 19.472-18.5 35.067-18.5z" fill="#f5c84c"/></g><g><g><path d="m86.5 114.5c-11.543 0-21.884-4.166-28.938-10.75 2.689 8.351 6.706 16.072 11.823 22.873 2.209 2.936 4.048 6.102 5.517 9.423 4.072 1.579 8.486 2.455 13.098 2.455 12.925 0 24.328-6.814 30.818-17.021l2.748-25.48c-6.051 10.909-19.471 18.5-35.066 18.5z" fill="#f5c84c"/></g></g><g><path d="m88 65.5c-15.197 0-28.296 9.416-33.767 22.699.116 1.058.253 2.11.411 3.155 6.921-8.352 18.593-13.854 31.856-13.854 15.595 0 29.015 7.591 35.066 18.5h2.428c-2.884-17.246-17.962-30.5-35.994-30.5z" fill="#f5c84c"/></g><g><path d="m192.663 41.447c-7.908-14.387-20.16-25.873-34.919-32.542-5.049 4.4-8.244 10.872-8.244 18.095 0 13.255 10.745 24 24 24 7.83 0 14.782-3.751 19.163-9.553z" fill="#f5c84c"/></g><g><path d="m63.395 41.522c4.384 5.758 11.309 9.478 19.105 9.478 13.255 0 24-10.745 24-24 0-7.206-3.18-13.666-8.209-18.065-14.755 6.686-27 18.186-34.896 32.587z" fill="#f5c84c"/></g><g><path d="m98.968 169.912c-1.564 2.113-2.902 4.403-3.979 6.835-.578 1.305-.532 2.808.125 4.075 6.164 11.885 18.573 20.009 32.886 20.009s26.721-8.124 32.885-20.008c.659-1.271.7-2.778.12-4.087-1.162-2.623-2.628-5.08-4.352-7.329-1.605-2.093-4.565-2.474-6.659-.871-6.23 4.769-14.016 7.606-22.469 7.606-8.206 0-15.785-2.672-21.922-7.191-2.117-1.559-5.071-1.153-6.635.961z" fill="#f5c84c"/></g><g><path d="m211.05 75.5c-3.542 0-6.685 1.681-8.697 4.282-.018 4.081-.348 8.085-.957 11.991 1.868 3.412 5.49 5.727 9.654 5.727 6.075 0 11-4.925 11-11s-4.925-11-11-11z" fill="#f5c84c"/></g><g><circle cx="211.05" cy="186" fill="#f5c84c" r="13.2"/></g><g><circle cx="45.05" cy="186" fill="#f5c84c" r="13.2"/></g><g><path d="m53.747 79.782c-2.012-2.6-5.154-4.282-8.697-4.282-6.075 0-11 4.925-11 11s4.925 11 11 11c4.164 0 7.786-2.315 9.654-5.727-.61-3.907-.939-7.91-.957-11.991z" fill="#f5c84c"/></g><g><path d="m185.98 31.27c-4.974-6.404-10.917-11.959-17.6-16.44-4.747 2-8.081 6.695-8.081 12.17 0 7.29 5.91 13.2 13.2 13.2 5.795 0 10.705-3.738 12.481-8.93z" fill="#fca265"/></g><g><path d="m70.052 31.359c1.802 5.145 6.688 8.841 12.448 8.841 7.29 0 13.2-5.91 13.2-13.2 0-5.451-3.306-10.129-8.021-12.143-6.697 4.497-12.649 10.074-17.627 16.502z" fill="#fca265"/></g><g><path d="m121.566 96c-6.051-10.909-19.471-18.5-35.066-18.5-13.263 0-24.935 5.502-31.856 13.854.641 4.254 1.618 8.39 2.903 12.383 7.054 6.592 17.402 10.763 28.953 10.763 15.595 0 29.015-7.591 35.066-18.5z" fill="#dae6f1"/></g><g><path d="m198.592 103.613c1.256-3.923 2.215-7.983 2.85-12.158-6.911-8.409-18.625-13.955-31.942-13.955-15.595 0-29.015 7.591-35.066 18.5 6.051 10.909 19.471 18.5 35.066 18.5 11.625 0 22.036-4.221 29.092-10.887z" fill="#dae6f1"/></g><g><circle cx="93.5" cy="99.5" fill="#5b5d60" r="11"/></g><g><circle cx="162.5" cy="99.5" fill="#5b5d60" r="11"/></g><g><path d="m222.35 44.2c-3.1-.6-5.6-3-6.2-6.1 0-.1-.3-.1-.3 0-.6 3.1-3.1 5.5-6.2 6.1-.1 0-.1.2 0 .3 3.1.6 5.6 3 6.2 6.1 0 .1.3.1.3 0 .6-3.1 3.1-5.5 6.2-6.1.1-.1.1-.3 0-.3z" fill="#fc657e"/></g><g><path d="m43.205 25.9h2.3v2.3c0 1.8 1.4 3.2 3.2 3.2 1.7 0 3.2-1.4 3.2-3.1v-.1-2.3h2.3c1.8 0 3.2-1.4 3.2-3.2 0-1.7-1.4-3.2-3.1-3.2h-.1-2.3v-2.3c0-1.8-1.4-3.2-3.2-3.2-1.7 0-3.2 1.4-3.2 3.1v.1 2.3h-2.3c-1.8 0-3.2 1.4-3.2 3.2-.1 1.7 1.3 3.2 3.2 3.2-.1 0-.1 0 0 0z" fill="#70d6f9"/></g><g><circle cx="72.522" cy="3.4" fill="#f5c84c" r="3.4"/></g><g><circle cx="159.522" cy="252.6" fill="#87d147" r="3.4"/></g><g><path d="m176.65 231.252c4.487-.87 7.932-4.425 8.763-8.838-.003-.2.397-.206.4-.006.969 4.385 4.523 7.83 9.035 8.56.2-.003.205.297.006.4-4.487.87-7.932 4.425-8.763 8.838.003.2-.397.206-.4.006-.969-4.385-4.523-7.83-9.035-8.56-.202-.097-.206-.397-.006-.4z" fill="#f5c84c"/></g><g><path d="m129.55 256h-3c-7.995 0-14.5-6.505-14.5-14.5v-11c0-7.995 6.505-14.5 14.5-14.5h3c7.995 0 14.5 6.505 14.5 14.5v11c0 7.995-6.505 14.5-14.5 14.5zm-3-35c-5.238 0-9.5 4.262-9.5 9.5v11c0 5.238 4.262 9.5 9.5 9.5h3c5.238 0 9.5-4.262 9.5-9.5v-11c0-5.238-4.262-9.5-9.5-9.5z"/></g><g><path d="m142.028 233.962c-1.078 0-2.072-.702-2.396-1.788-.394-1.324.36-2.715 1.685-3.109 19.566-5.816 33.232-24.142 33.232-44.565v-28.808c0-11 3.61-21.856 10.167-30.572 9.907-13.168 15.144-28.968 15.144-45.693 0-41.039-32.214-74.427-71.81-74.427s-71.811 33.388-71.811 74.427c0 16.725 5.236 32.525 15.143 45.693 6.557 8.714 10.167 19.572 10.167 30.572v28.808c0 20.406 13.651 38.727 33.198 44.554 1.323.395 2.076 1.787 1.682 3.11-.395 1.322-1.787 2.075-3.11 1.682-21.649-6.454-36.769-26.746-36.769-49.346v-28.808c0-9.922-3.254-19.712-9.163-27.566-10.564-14.042-16.148-30.881-16.148-48.699 0-43.796 34.457-79.427 76.811-79.427s76.811 35.631 76.811 79.427c0 17.817-5.584 34.657-16.147 48.699-5.909 7.854-9.163 17.644-9.163 27.566v28.808c0 22.619-15.136 42.916-36.809 49.358-.238.07-.478.104-.714.104z"/></g><g><path d="m211.05 109c-4.72 0-9.25-1.464-13.102-4.233-1.12-.806-1.376-2.368-.569-3.489.806-1.122 2.366-1.376 3.489-.57 2.995 2.154 6.517 3.293 10.182 3.293 9.649 0 17.5-7.851 17.5-17.5s-7.851-17.501-17.5-17.501c-2.659 0-5.217.585-7.602 1.739-1.241.601-2.737.082-3.339-1.162-.602-1.243-.082-2.738 1.161-3.339 3.069-1.485 6.36-2.238 9.779-2.238 12.406 0 22.5 10.093 22.5 22.5s-10.093 22.5-22.499 22.5z"/></g><g><path d="m211.05 212.5c-14.612 0-26.5-11.888-26.5-26.5s11.888-26.5 26.5-26.5 26.5 11.888 26.5 26.5-11.888 26.5-26.5 26.5zm0-48c-11.855 0-21.5 9.645-21.5 21.5s9.645 21.5 21.5 21.5 21.5-9.645 21.5-21.5-9.645-21.5-21.5-21.5z"/></g><g><path d="m219.121 165.063c-1.334 0-2.441-1.054-2.496-2.399l-2.266-56.063c-.056-1.38 1.018-2.543 2.397-2.599 1.369-.051 2.543 1.018 2.599 2.397l2.266 56.063c.056 1.38-1.018 2.543-2.397 2.599-.035.002-.069.002-.103.002z"/></g><g><path d="m202.971 165.245c-.034 0-.068 0-.103-.002-1.38-.056-2.453-1.219-2.397-2.599l2.272-56.245c.056-1.379 1.234-2.447 2.599-2.397 1.38.056 2.453 1.219 2.397 2.599l-2.272 56.245c-.055 1.345-1.162 2.399-2.496 2.399z"/></g><g><path d="m45.05 109c-12.407 0-22.5-10.093-22.5-22.5s10.093-22.5 22.5-22.5c3.539 0 6.932.804 10.086 2.39 1.233.62 1.731 2.123 1.11 3.356-.62 1.233-2.123 1.73-3.356 1.11-2.451-1.231-5.089-1.856-7.84-1.856-9.649 0-17.5 7.851-17.5 17.5s7.85 17.5 17.5 17.5c3.442 0 6.783-1.014 9.662-2.932 1.147-.766 2.7-.456 3.467.694.766 1.149.455 2.701-.694 3.467-3.703 2.467-8.003 3.771-12.435 3.771z"/></g><g><path d="m45.05 212.5c-14.612 0-26.5-11.888-26.5-26.5s11.888-26.5 26.5-26.5 26.5 11.888 26.5 26.5-11.888 26.5-26.5 26.5zm0-48c-11.855 0-21.5 9.645-21.5 21.5s9.645 21.5 21.5 21.5 21.5-9.645 21.5-21.5-9.645-21.5-21.5-21.5z"/></g><g><path d="m53.12 165.042c-1.334 0-2.442-1.054-2.496-2.399l-2.277-56.352c-.056-1.38 1.018-2.543 2.397-2.599 1.385-.054 2.543 1.018 2.599 2.397l2.277 56.352c.056 1.38-1.018 2.543-2.397 2.599-.035.001-.069.002-.103.002z"/></g><g><path d="m36.979 165.042c-.034 0-.068 0-.103-.002-1.379-.056-2.453-1.219-2.397-2.599l2.274-56.294c.056-1.379 1.207-2.449 2.599-2.397 1.379.056 2.453 1.219 2.397 2.599l-2.274 56.294c-.054 1.346-1.162 2.399-2.496 2.399z"/></g><g><path d="m128 190.741c-12.575 0-24.483-4.816-33.53-13.562-.993-.959-1.02-2.542-.06-3.535.958-.994 2.541-1.021 3.535-.06 8.11 7.839 18.784 12.156 30.056 12.156 11.298 0 21.99-4.335 30.107-12.207.99-.96 2.574-.937 3.535.055.961.991.937 2.574-.055 3.535-9.055 8.782-20.984 13.618-33.588 13.618z"/></g><g><path d="m136.09 164h-16.18c-2.085 0-4.081-.89-5.475-2.442s-2.064-3.631-1.841-5.705l6.487-60.121c.137-1.27 1.208-2.232 2.485-2.232h12.867c1.277 0 2.349.962 2.485 2.232l6.486 60.121c.224 2.074-.447 4.154-1.841 5.706-1.392 1.551-3.387 2.441-5.473 2.441zm-12.279-65.5-6.246 57.889c-.072.674.137 1.324.59 1.828.453.505 1.076.783 1.754.783h16.18c.679 0 1.302-.278 1.755-.782.453-.505.662-1.154.59-1.829l-6.246-57.889z"/></g><g><path d="m168 141c-13.326 0-25.609-6.754-32.856-18.068-.744-1.163-.405-2.709.757-3.454s2.709-.407 3.454.756c6.323 9.872 17.031 15.766 28.645 15.766 4.059 0 8.049-.726 11.861-2.159 1.287-.484 2.734.168 3.219 1.461.486 1.292-.168 2.734-1.461 3.22-4.376 1.644-8.958 2.478-13.619 2.478z"/></g><g><path d="m132.176 97.576c-.158 0-.318-.015-.479-.046-1.355-.263-2.24-1.575-1.978-2.93 3.552-18.31 19.652-31.6 38.281-31.6 15.755 0 29.885 9.442 35.996 24.054.532 1.274-.068 2.738-1.342 3.271-1.276.532-2.738-.068-3.271-1.341-5.331-12.748-17.65-20.984-31.383-20.984-16.239 0-30.274 11.587-33.373 27.552-.231 1.195-1.278 2.024-2.451 2.024z"/></g><g><g><path d="m88 141c-4.63 0-9.182-.822-13.529-2.444-1.294-.482-1.951-1.922-1.469-3.216.483-1.293 1.922-1.951 3.216-1.469 3.787 1.413 7.751 2.129 11.782 2.129 11.627 0 22.343-5.904 28.664-15.792.744-1.164 2.29-1.503 3.453-.76 1.164.744 1.504 2.29.76 3.453-7.245 11.333-19.535 18.099-32.877 18.099z"/></g></g><g><path d="m123.847 97.693c-1.176 0-2.225-.834-2.453-2.032-3.056-16.028-17.1-27.661-33.394-27.661-13.68 0-25.98 8.191-31.337 20.868-.538 1.272-2.003 1.868-3.276 1.33-1.272-.538-1.867-2.004-1.33-3.276 6.141-14.532 20.25-23.922 35.943-23.922 18.691 0 34.801 13.342 38.306 31.724.259 1.356-.631 2.666-1.987 2.924-.159.03-.317.045-.472.045z"/></g><g><path d="m173.5 53.5c-14.612 0-26.5-11.888-26.5-26.5 0-7.276 2.894-14.062 8.148-19.107.994-.956 2.577-.925 3.535.072.956.996.924 2.578-.072 3.535-4.263 4.093-6.611 9.598-6.611 15.5 0 11.855 9.645 21.5 21.5 21.5 6.436 0 12.48-2.851 16.585-7.821.879-1.066 2.456-1.215 3.52-.336s1.215 2.455.336 3.52c-5.059 6.124-12.509 9.637-20.441 9.637z"/></g><g><path d="m82.5 53.5c-8.072 0-15.606-3.616-20.668-9.92-.865-1.077-.693-2.65.384-3.515 1.077-.864 2.65-.692 3.515.384 4.108 5.116 10.22 8.051 16.769 8.051 11.855 0 21.5-9.645 21.5-21.5 0-5.935-2.37-11.461-6.674-15.562-1-.953-1.038-2.535-.085-3.535.952-.999 2.536-1.037 3.535-.085 5.303 5.054 8.224 11.866 8.224 19.182 0 14.612-11.888 26.5-26.5 26.5z"/></g><g><path d="m128 203.331c-14.821 0-28.272-8.184-35.105-21.358-1.013-1.953-1.083-4.226-.192-6.238 1.141-2.576 2.572-5.035 4.255-7.31 2.363-3.193 6.906-3.86 10.128-1.487 5.956 4.385 13.024 6.704 20.439 6.704 7.646 0 14.89-2.452 20.949-7.091 3.174-2.431 7.733-1.833 10.163 1.335 1.856 2.421 3.422 5.058 4.654 7.838.895 2.019.826 4.297-.188 6.25-6.832 13.173-20.283 21.357-35.103 21.357zm-27.022-31.932c-1.465 1.98-2.711 4.121-3.703 6.361-.269.607-.247 1.322.059 1.912 5.97 11.51 17.721 18.66 30.667 18.66 12.945 0 24.696-7.15 30.667-18.66.306-.589.325-1.308.054-1.922-1.072-2.419-2.436-4.714-4.051-6.821-.767-1-2.153-1.176-3.156-.407-6.939 5.313-15.234 8.121-23.988 8.121-8.49 0-16.583-2.655-23.404-7.678-1.026-.755-2.405-.563-3.145.434z"/></g><g><path d="m211.05 100c-4.796 0-9.272-2.581-11.682-6.734-.693-1.194-.286-2.724.908-3.417 1.194-.692 2.725-.286 3.416.908 1.519 2.617 4.338 4.243 7.358 4.243 4.687 0 8.5-3.813 8.5-8.5s-3.813-8.5-8.5-8.5c-2.539 0-4.928 1.131-6.553 3.104-.878 1.065-2.454 1.216-3.52.34-1.065-.878-1.218-2.454-.34-3.52 2.579-3.129 6.374-4.924 10.413-4.924 7.444 0 13.5 6.056 13.5 13.5s-6.056 13.5-13.5 13.5z"/></g><g><path d="m211.05 201.7c-8.657 0-15.7-7.043-15.7-15.7s7.043-15.7 15.7-15.7 15.7 7.043 15.7 15.7-7.043 15.7-15.7 15.7zm0-26.4c-5.9 0-10.7 4.8-10.7 10.7s4.8 10.7 10.7 10.7 10.7-4.8 10.7-10.7-4.8-10.7-10.7-10.7z"/></g><g><path d="m45.05 201.7c-8.657 0-15.7-7.043-15.7-15.7s7.043-15.7 15.7-15.7 15.7 7.043 15.7 15.7-7.043 15.7-15.7 15.7zm0-26.4c-5.9 0-10.7 4.8-10.7 10.7s4.8 10.7 10.7 10.7 10.7-4.8 10.7-10.7-4.8-10.7-10.7-10.7z"/></g><g><path d="m45.05 100c-7.444 0-13.5-6.056-13.5-13.5s6.056-13.5 13.5-13.5c4.059 0 7.867 1.81 10.447 4.966.874 1.069.716 2.644-.353 3.518-1.068.873-2.645.716-3.518-.353-1.627-1.99-4.024-3.131-6.576-3.131-4.687 0-8.5 3.813-8.5 8.5s3.813 8.5 8.5 8.5c3.011 0 5.736-1.544 7.291-4.129.71-1.184 2.248-1.567 3.43-.855 1.184.711 1.566 2.247.855 3.43-2.43 4.043-6.866 6.554-11.576 6.554z"/></g><g><path d="m173.5 42.7c-8.657 0-15.7-7.043-15.7-15.7 0-6.052 3.54-11.629 9.018-14.209 1.252-.588 2.739-.052 3.327 1.196.588 1.249.053 2.739-1.196 3.327-3.735 1.759-6.148 5.561-6.148 9.686 0 5.9 4.8 10.7 10.7 10.7 4.366 0 8.253-2.619 9.903-6.673.52-1.278 1.979-1.896 3.258-1.373 1.279.521 1.894 1.979 1.373 3.258-2.421 5.946-8.126 9.788-14.535 9.788z"/></g><g><path d="m82.5 42.7c-6.391 0-12.09-3.828-14.518-9.753-.523-1.278.088-2.738 1.365-3.262 1.279-.521 2.738.087 3.262 1.365 1.655 4.04 5.538 6.649 9.891 6.649 5.9 0 10.7-4.8 10.7-10.7 0-4.073-2.264-7.739-5.909-9.568-1.234-.62-1.732-2.122-1.113-3.356.62-1.234 2.123-1.731 3.356-1.113 5.346 2.684 8.666 8.063 8.666 14.038 0 8.657-7.043 15.7-15.7 15.7z"/></g><g><path d="m86.5 117c-11.524 0-22.582-4.06-30.337-11.138-1.02-.931-1.092-2.512-.161-3.532.932-1.02 2.514-1.091 3.532-.161 6.845 6.248 16.674 9.831 26.966 9.831 13.618 0 26.066-6.236 32.166-16-6.1-9.764-18.547-16-32.166-16-11.722 0-22.752 4.653-29.506 12.448-.904 1.043-2.483 1.157-3.526.252-1.043-.904-1.156-2.483-.252-3.526 7.689-8.876 20.132-14.174 33.284-14.174 15.962 0 30.584 7.767 37.252 19.787.418.754.418 1.671 0 2.426-6.668 12.02-21.29 19.787-37.252 19.787z"/></g><g><path d="m169.5 117c-15.962 0-30.584-7.767-37.253-19.787-.418-.754-.418-1.671 0-2.426 6.669-12.02 21.291-19.787 37.253-19.787 13.21 0 25.685 5.334 33.369 14.269.9 1.047.781 2.625-.266 3.526-1.047.899-2.627.781-3.525-.265-6.747-7.846-17.805-12.53-29.578-12.53-13.618 0-26.065 6.236-32.165 16 6.1 9.764 18.547 16 32.165 16 10.296 0 20.125-3.582 26.967-9.826 1.021-.931 2.602-.858 3.532.162s.858 2.601-.161 3.532c-7.753 7.074-18.811 11.132-30.338 11.132z"/></g><g><path d="m93.5 113c-7.444 0-13.5-6.056-13.5-13.5s6.056-13.5 13.5-13.5 13.5 6.056 13.5 13.5-6.056 13.5-13.5 13.5zm0-22c-4.687 0-8.5 3.813-8.5 8.5s3.813 8.5 8.5 8.5 8.5-3.813 8.5-8.5-3.813-8.5-8.5-8.5z"/></g><g><path d="m162.5 113c-7.444 0-13.5-6.056-13.5-13.5s6.056-13.5 13.5-13.5 13.5 6.056 13.5 13.5-6.056 13.5-13.5 13.5zm0-22c-4.687 0-8.5 3.813-8.5 8.5s3.813 8.5 8.5 8.5 8.5-3.813 8.5-8.5-3.813-8.5-8.5-8.5z"/></g></g></g></svg>