<svg enable-background="new 0 0 256 256" height="512" viewBox="0 0 256 256" width="512" xmlns="http://www.w3.org/2000/svg"><g id="Layer_52"><g><g><path d="m102.512 150.119c0-5.659 1.409-10.987 3.886-15.662-8.18-9.529-14.607-20.606-18.776-32.737-.686-.236-1.367-.483-2.059-.704-10.389-3.318-21.884-.777-29.76 6.767-11.14 10.669-18.078 25.69-18.078 42.333 0 16.648 6.941 31.672 18.087 42.342 7.875 7.539 19.364 10.081 29.75 6.767.692-.221 1.373-.468 2.059-.703 4.169-12.133 10.596-23.211 18.777-32.741-2.478-4.675-3.886-10.003-3.886-15.662z" fill="#fc657e"/></g><g><path d="m216.239 107.782c-7.876-7.544-19.371-10.085-29.76-6.767-.691.221-1.371.467-2.056.702-4.167 12.136-10.592 23.217-18.773 32.751 2.473 4.672 3.879 9.996 3.879 15.65s-1.406 10.978-3.879 15.65c8.182 9.534 14.608 20.616 18.774 32.754.685.235 1.364.481 2.055.702 10.386 3.314 21.875.772 29.75-6.767 11.145-10.67 18.087-25.694 18.087-42.342.001-16.643-6.937-31.663-18.077-42.333z" fill="#fc657e"/></g><g><path d="m178.36 69.909c-10.67-11.145-25.694-18.086-42.342-18.086-16.644 0-31.664 6.937-42.333 18.077-7.544 7.876-10.085 19.372-6.767 29.76 4.133 12.941 10.832 24.729 19.481 34.794 5.623-10.612 16.776-17.845 29.623-17.845 12.851 0 24.007 7.238 29.629 17.857 8.649-10.07 15.346-21.862 19.477-34.807 3.313-10.386.771-21.875-6.768-29.75z" fill="#f98fa6"/></g><g><path d="m185.127 200.578c-4.131-12.946-10.829-24.738-19.477-34.807-5.621 10.619-16.777 17.857-29.629 17.857-12.847 0-23.999-7.233-29.623-17.845-8.648 10.066-15.347 21.853-19.481 34.794-3.318 10.389-.777 21.884 6.767 29.76 10.67 11.14 25.69 18.078 42.333 18.078 16.648 0 31.672-6.942 42.342-18.087 7.54-7.875 10.082-19.364 6.768-29.75z" fill="#f98fa6"/></g><g><circle cx="136.021" cy="150.119" fill="#5b5d60" r="33.509"/></g><g><g><path d="m47.079 99.606c-4.852 2.675-4.037 9.884 1.29 11.409l3.443.985c1.26-1.471 2.592-2.879 3.99-4.218 7.876-7.544 19.371-10.085 29.76-6.767.693.221 1.373.468 2.059.704.064.186.14.367.205.553-.305-.87-.627-1.731-.909-2.612-3.318-10.389-.777-21.884 6.767-29.76 2.249-2.348 4.702-4.496 7.312-6.445l-.237-1.137c-1.132-5.424-8.262-6.763-11.284-2.119-1.548 2.378-5.15 1.95-6.098-.724l-4.941-13.935c-1.822-5.138-8.863-5.7-11.477-.917-1.224 2.239-4.379 2.401-5.826.299l-8.01-11.637c-2.307-3.351-7.506-2.294-8.321 1.692-.45 2.2-2.86 3.38-4.873 2.384l-12.629-6.247c-2.825-1.398-5.878 1.441-4.69 4.36l5.309 13.051c.846 2.08-.505 4.399-2.733 4.687-4.035.522-5.468 5.631-2.295 8.176l11.021 8.838c1.991 1.596 1.599 4.731-.724 5.789-4.961 2.258-4.914 9.322.077 11.513l13.538 5.945c2.597 1.139 2.761 4.763.276 6.133z" fill="#b2e26d"/></g></g><g><g><path d="m81.777 48.149c-.844-.146-1.64-.074-2.362.152l3.962 11.174c.948 2.674 4.55 3.102 6.098.724 3.022-4.644 10.152-3.305 11.284 2.119l.237 1.137c-.001.001-.002.001-.002.002 6.671-4.982 14.428-8.59 22.865-10.37l1.234-4.68c1.104-4.185-3.263-7.705-7.118-5.737-1.805.921-3.947-.384-3.955-2.41l-.047-11.217c-.014-3.23-3.897-4.863-6.215-2.613-1.28 1.242-3.388.937-4.263-.617l-5.489-9.748c-1.228-2.181-4.5-1.685-5.027.761l-2.359 10.934c-.376 1.743-2.3 2.659-3.89 1.851-2.88-1.463-6.106 1.247-5.163 4.336l3.275 10.729c.591 1.938-1.068 3.819-3.065 3.473z" fill="#87d147"/></g></g><g><path d="m44.35 200.2c-3.1-.6-5.6-3-6.2-6.1 0-.1-.3-.1-.3 0-.6 3.1-3.1 5.5-6.2 6.1-.1 0-.1.2 0 .3 3.1.6 5.6 3 6.2 6.1 0 .1.3.1.3 0 .6-3.1 3.1-5.5 6.2-6.1.1-.1.1-.3 0-.3z" fill="#fc657e"/></g><g><path d="m204.9 236.9h2.3v2.3c0 1.8 1.4 3.2 3.2 3.2 1.7 0 3.2-1.4 3.2-3.1v-.1-2.3h2.3c1.8 0 3.2-1.4 3.2-3.2 0-1.7-1.4-3.2-3.1-3.2h-.1-2.3v-2.3c0-1.8-1.4-3.2-3.2-3.2-1.7 0-3.2 1.4-3.2 3.1v.1 2.3h-2.3c-1.8 0-3.2 1.4-3.2 3.2-.1 1.7 1.3 3.2 3.2 3.2-.1 0-.1 0 0 0z" fill="#70d6f9"/></g><g><circle cx="183.3" cy="252.6" fill="#f5c84c" r="3.4"/></g><g><circle cx="117.3" cy="3.4" fill="#87d147" r="3.4"/></g><g><path d="m135.7 21.2c4.5-.8 8-4.3 8.9-8.7 0-.2.4-.2.4 0 .9 4.4 4.4 7.9 8.9 8.7.2 0 .2.3 0 .4-4.5.8-8 4.3-8.9 8.7 0 .2-.4.2-.4 0-.9-4.4-4.4-7.9-8.9-8.7-.2-.1-.2-.4 0-.4z" fill="#f5c84c"/></g><g><path d="m76.347 203.163c-8.205 0-16.204-3.098-22.265-8.899-12.161-11.643-18.858-27.321-18.858-44.148 0-16.822 6.694-32.497 18.849-44.139 8.521-8.162 20.878-10.974 32.25-7.343.498.159.99.331 1.483.503l.519.181c1.305.45 1.998 1.874 1.548 3.179-.451 1.305-1.874 1.998-3.179 1.548l-.537-.187c-.45-.157-.899-.314-1.354-.46-9.625-3.074-20.073-.703-27.27 6.19-11.161 10.688-17.307 25.082-17.307 40.527 0 15.45 6.149 29.847 17.316 40.537 7.195 6.887 17.639 9.259 27.261 6.19.458-.146.911-.305 1.364-.462l.265-.093c1.307-.455 2.729.236 3.182 1.541.453 1.304-.236 2.729-1.541 3.182l-.261.091c-.495.173-.989.345-1.489.504-3.282 1.047-6.646 1.558-9.976 1.558z"/></g><g><path d="m195.694 203.163c-3.33 0-6.692-.51-9.974-1.557-.513-.163-1.021-.341-1.528-.519l-.348-.121c-1.304-.454-1.994-1.879-1.54-3.183.454-1.305 1.878-1.996 3.183-1.54l.356.124c.464.162.927.325 1.396.475 9.622 3.066 20.067.698 27.263-6.19 11.166-10.691 17.315-25.087 17.315-40.537 0-15.446-6.146-29.839-17.307-40.527-7.196-6.893-17.644-9.265-27.27-6.19-.457.146-.907.303-1.357.46l-.167.058c-1.305.456-2.73-.233-3.184-1.538-.454-1.304.234-2.729 1.538-3.183l.166-.059c.493-.172.985-.343 1.484-.502 11.372-3.632 23.728-.817 32.249 7.343 12.154 11.641 18.848 27.316 18.848 44.139 0 16.826-6.697 32.506-18.857 44.148-6.061 5.8-14.062 8.899-22.266 8.899z"/></g><g><path d="m165.798 136.792c-.575 0-1.152-.197-1.624-.6-1.049-.897-1.173-2.476-.276-3.525 8.545-9.994 14.886-21.355 18.847-33.768 3.07-9.62.697-20.066-6.191-27.262-10.69-11.166-25.086-17.315-40.537-17.315-15.446 0-29.839 6.146-40.528 17.308-6.893 7.196-9.265 17.646-6.191 27.27 3.943 12.343 10.241 23.648 18.718 33.602.895 1.051.769 2.629-.282 3.524-1.052.894-2.629.768-3.524-.282-8.91-10.46-15.529-22.345-19.674-35.322-3.632-11.371-.819-23.729 7.342-32.25 11.642-12.154 27.317-18.849 44.139-18.849 16.827 0 32.506 6.697 44.148 18.858 8.156 8.519 10.97 20.872 7.343 32.238-4.165 13.051-10.83 24.994-19.81 35.498-.493.578-1.195.875-1.9.875z"/></g><g><path d="m136.018 250.915c-16.821 0-32.497-6.694-44.139-18.849-8.161-8.521-10.975-20.879-7.342-32.25 4.135-12.946 10.734-24.806 19.613-35.25.895-1.053 2.473-1.181 3.524-.285 1.052.894 1.18 2.472.286 3.523-8.449 9.938-14.727 21.22-18.66 33.533-3.074 9.624-.702 20.073 6.191 27.27 10.69 11.161 25.083 17.308 40.528 17.308 15.449 0 29.845-6.149 40.537-17.315 6.888-7.196 9.261-17.642 6.191-27.262-3.885-12.176-10.068-23.351-18.377-33.216-.89-1.056-.754-2.633.301-3.522 1.057-.889 2.633-.754 3.523.302 8.733 10.367 15.232 22.115 19.317 34.917 3.626 11.365.813 23.719-7.343 32.238-11.646 12.161-27.325 18.858-44.15 18.858z"/></g><g><path d="m136.021 186.128c-19.855 0-36.009-16.153-36.009-36.009s16.154-36.01 36.009-36.01 36.009 16.154 36.009 36.01-16.154 36.009-36.009 36.009zm0-67.019c-17.099 0-31.009 13.911-31.009 31.01s13.911 31.009 31.009 31.009 31.009-13.91 31.009-31.009-13.911-31.01-31.009-31.01z"/></g><g><g><path d="m50.609 114.156c-.228 0-.459-.031-.689-.098l-2.239-.641c-3.456-.989-5.854-3.822-6.258-7.395-.404-3.572 1.301-6.87 4.449-8.606.438-.241.487-.637.477-.852-.01-.214-.094-.604-.552-.805l-13.537-5.943c-3.225-1.416-5.242-4.482-5.266-8.003-.023-3.521 1.953-6.616 5.158-8.075.409-.187.51-.535.534-.727s.012-.555-.338-.836l-11.022-8.838c-2.264-1.815-3.183-4.679-2.399-7.473s3.059-4.761 5.937-5.133c.392-.051.594-.305.68-.451s.207-.447.058-.813l-5.309-13.051c-.936-2.302-.365-4.882 1.455-6.573 1.819-1.689 4.433-2.071 6.66-.971l12.629 6.247c.355.176.664.076.816.002.153-.074.42-.258.5-.646.581-2.843 2.709-4.968 5.553-5.546 2.842-.58 5.631.547 7.277 2.937l8.01 11.637c.255.371.62.401.81.4.193-.011.548-.086.764-.48 1.689-3.089 4.918-4.832 8.428-4.555 3.51.28 6.422 2.517 7.599 5.835l4.941 13.935c.167.472.549.585.762.61.211.021.611.006.884-.415 1.961-3.012 5.375-4.469 8.908-3.809 3.533.664 6.185 3.263 6.918 6.781l.126.605c.282 1.352-.584 2.676-1.936 2.958-1.35.285-2.676-.584-2.959-1.937l-.126-.605c-.317-1.521-1.419-2.602-2.947-2.889-1.53-.286-2.946.318-3.794 1.622-1.238 1.904-3.405 2.922-5.665 2.652-2.254-.268-4.126-1.764-4.885-3.904l-4.941-13.934c-.516-1.457-1.744-2.399-3.284-2.522-1.55-.126-2.902.613-3.643 1.969-.995 1.819-2.825 2.969-4.895 3.075-2.075.095-4.009-.851-5.184-2.558l-8.01-11.637c-.736-1.069-1.842-.938-2.163-.873s-1.391.378-1.65 1.648c-.371 1.814-1.538 3.321-3.202 4.136-1.663.813-3.569.81-5.23-.013l-12.629-6.243c-.498-.249-.865-.013-1.039.151-.175.162-.437.511-.227 1.026l5.309 13.05c.698 1.716.563 3.617-.37 5.217-.933 1.601-2.521 2.654-4.358 2.892-1.287.166-1.675 1.209-1.764 1.524-.089.316-.299 1.41.713 2.222l11.021 8.838c1.617 1.296 2.43 3.299 2.172 5.356s-1.538 3.799-3.425 4.657c-1.406.641-2.239 1.945-2.229 3.49.011 1.545.861 2.838 2.276 3.459l13.538 5.944c2.079.913 3.435 2.889 3.537 5.157.103 2.269-1.069 4.359-3.057 5.456-1.362.751-2.07 2.121-1.896 3.666.175 1.544 1.171 2.722 2.666 3.149l2.239.641c1.327.38 2.095 1.764 1.715 3.091-.314 1.099-1.314 1.815-2.402 1.815z"/></g></g><g><path d="m86.409 101.909c-.67 0-1.339-.269-1.832-.798l-38.417-41.33c-.94-1.012-.882-2.593.129-3.533 1.011-.939 2.593-.882 3.533.129l38.417 41.33c.94 1.012.882 2.593-.129 3.533-.481.448-1.091.669-1.701.669z"/></g><g><path d="m102.338 64.191c-1.216 0-2.281-.888-2.469-2.126l-2.828-18.683c-.207-1.365.732-2.64 2.098-2.846 1.365-.213 2.639.733 2.846 2.098l2.828 18.683c.207 1.365-.732 2.64-2.098 2.846-.127.02-.253.028-.377.028z"/></g><g><g><path d="m123.979 55.137c-.211 0-.425-.027-.639-.084-1.335-.352-2.132-1.72-1.78-3.055l1.116-4.229c.385-1.459-.554-2.353-.851-2.592-.297-.238-1.371-.965-2.713-.281-1.626.83-3.528.76-5.088-.19s-2.497-2.608-2.504-4.436l-.047-11.217c-.003-.695-.5-.979-.713-1.068-.214-.091-.763-.246-1.261.237-1.171 1.137-2.765 1.656-4.384 1.42-1.614-.233-2.999-1.184-3.799-2.605l-5.488-9.747c-.034-.06-.077-.132-.224-.109-.149.022-.166.101-.181.17l-2.357 10.937c-.344 1.596-1.386 2.912-2.859 3.613-1.473.702-3.152.68-4.606-.06-.619-.312-1.098-.001-1.275.146-.177.149-.567.566-.365 1.231l3.275 10.729c.533 1.747.13 3.608-1.079 4.978-1.208 1.37-3.003 2-4.804 1.688-.324-.056-.646-.053-.955.014-1.356.286-2.678-.576-2.964-1.928-.286-1.351.577-2.677 1.928-2.963.933-.199 1.888-.213 2.843-.05.043.009.123.021.204-.069.081-.092.057-.172.045-.21l-3.275-10.729c-.734-2.404.006-4.902 1.932-6.52 1.926-1.617 4.514-1.913 6.755-.774.026.013.097.048.193.002.098-.047.114-.123.121-.152l2.357-10.936c.46-2.14 2.156-3.733 4.32-4.061 2.162-.332 4.255.692 5.33 2.6l5.488 9.748c.015.026.053.095.159.109.108.015.164-.039.185-.06 1.804-1.751 4.365-2.231 6.681-1.259 2.318.975 3.765 3.142 3.775 5.656l.047 11.217c0 .04 0 .123.105.187.104.063.177.026.213.008 2.675-1.364 5.788-1.042 8.125.841 2.337 1.884 3.314 4.857 2.548 7.761l-1.116 4.229c-.298 1.121-1.31 1.863-2.418 1.863z"/></g></g></g></g></svg>