<svg id="Layer_1" enable-background="new 0 0 512 512" height="512" viewBox="0 0 512 512" width="512" xmlns="http://www.w3.org/2000/svg"><g><path d="m231.142 250.04-22.542-5.682c-.771 2.518-1.904 5.133-3.513 7.815-3.333 5.595-1.362 11.223.88 14.956 5.795 9.648 20.981 18.943 40.295 20.368l-.858-20.083c-.47-8.139-6.336-15.314-14.262-17.374z" fill="#dae6f1"/><path d="m184.421 298.675c-.033-.038-.065-.077-.097-.116-10.191-12.507-13.452-28.817-9.711-43.918l-19.195 8.609c4.294 4.703 9.533 11.759 13.411 21.261 1.686 3.984 1.001 8.609-1.811 12.011-2.36 2.854-5.825 4.445-9.448 4.445-.868 0-1.745-.091-2.618-.278-6.249-1.387-17.716-6.021-26.365-21.484-8.07 14.192-18.607 19.406-26.205 21.254-.969.242-1.949.36-2.918.36-3.453.001-6.783-1.499-9.118-4.228-2.946-3.442-3.701-8.142-1.976-12.279 3.643-9.181 8.821-16.205 13.165-20.994l-33.804-15.366c-3.045-1.384-5.505-3.583-7.195-6.279-.341.088-.668.175-.954.271-.124.041-.25.078-.377.109l-33 8.2c-8.175 2.084-13.896 9.054-14.209 17.336l-2.202 46.646c-.018.388-.092.758-.192 1.117 21 6.338 104.313 31.511 210.038 7.351-9.967-3.393-19.008-8.515-26.544-15.15-3.468-3.005-6.333-6.176-8.675-8.878z" fill="#dae6f1"/><path d="m128.8 198.4c30.769 0 55.8-25.032 55.8-55.8v-50.935c-.183-6.699-2.892-13.34-7.439-18.235-2.216-2.308-5.694-2.517-8.28-.492-8.019 6.237-21.471 13.662-40.081 13.662-18.775 0-32.262-7.425-40.27-13.653-1.196-.936-2.578-1.397-3.938-1.397-1.603 0-3.174.64-4.372 1.898-4.664 4.832-7.22 11.269-7.22 18.152v51c0 30.768 25.032 55.8 55.8 55.8zm28.2-82c4.529 0 8.2 3.671 8.2 8.2s-3.671 8.2-8.2 8.2-8.2-3.671-8.2-8.2 3.671-8.2 8.2-8.2zm-40.204 39.146c2.82 3.29 7.531 5.254 12.604 5.254s9.784-1.964 12.604-5.254c1.797-2.096 4.952-2.34 7.05-.542 2.097 1.797 2.34 4.953.543 7.05-4.693 5.477-12.244 8.746-20.196 8.746s-15.502-3.27-20.196-8.746c-1.797-2.097-1.554-5.253.542-7.05 2.095-1.798 5.252-1.554 7.049.542zm-14.796-39.146c4.529 0 8.2 3.671 8.2 8.2s-3.671 8.2-8.2 8.2-8.2-3.671-8.2-8.2 3.671-8.2 8.2-8.2z" fill="#f9d0b4"/><path d="m194.6 101.461v40.679c10.689-.626 19.2-9.495 19.2-20.34 0-10.844-8.511-19.713-19.2-20.339z" fill="#f9d0b4"/><path d="m43.6 121.8c0 10.911 8.617 19.823 19.4 20.35v-40.699c-10.783.526-19.4 9.438-19.4 20.349z" fill="#f9d0b4"/><path d="m56 74.4v18.076c2.243-.613 4.588-.972 7.004-1.051.044-9.422 3.588-18.259 9.999-24.898 5.722-6.01 15.052-6.651 21.678-1.464 6.76 5.258 18.179 11.538 34.118 11.538 15.774 0 27.158-6.279 33.93-11.547 6.614-5.176 15.945-4.536 21.69 1.499.013.014.026.027.039.041 6.205 6.664 9.897 15.714 10.137 24.837 2.274.089 4.484.425 6.604.989v-13.22c0-18.535-4.486-29.6-12-29.6-4.853 0-8.8-3.858-8.8-8.6-.16-8.99-3.276-15.908-9.527-21.061-11.82-9.744-34.567-12.521-62.405-7.615-30.41 5.224-52.467 31.329-52.467 62.076z" fill="#5b5d60"/><path d="m103.388 216.853c1.153 1.182 2.203 2.492 3.09 3.958l12.32 20.654c.98-.16 1.978-.265 3.002-.265h13.6c1.038 0 2.05.107 3.042.271l12.467-20.838c.838-1.448 1.842-2.745 2.952-3.917-1.348-3.087-2.062-6.598-2.062-10.316v-2.157c-7.164 2.682-14.912 4.157-23 4.157-8.164 0-15.98-1.506-23.2-4.236v2.236c.001 3.672-.765 7.232-2.211 10.453z" fill="#f9d0b4"/><g fill="#fc657e"><path d="m159.527 225.705-11.987 20.035c2.375 2.054 4.217 4.696 5.315 7.699l27.168-12.185c.955-1.648 1.999-3.262 3.153-4.824 1.932-2.543 3.59-5.133 4.941-7.669-.578-.829-1.391-1.552-2.457-2.142l-10.531-5.365c-5.65-2.825-12.518-.877-15.602 4.451z"/><path d="m71.869 238.848 32.422 14.737c1.096-3.076 2.97-5.781 5.397-7.872l-11.782-19.753c-3.237-5.348-10.108-7.343-15.625-4.512l-10.612 5.406c-2.36 1.18-3.72 3.431-3.672 6.039.05 2.649 1.497 4.876 3.872 5.955z"/><path d="m149.546 271.712c-2.573 3.033-6.078 5.254-10.02 6.189 5.916 8.708 12.631 11.924 17.559 13.018 1.252.27 2.021-.521 2.227-.769.459-.556.555-1.162.284-1.802-2.917-7.145-6.694-12.663-10.05-16.636z"/><path d="m117.59 277.902c-4.013-.934-7.536-3.156-10.088-6.223-3.391 4.016-7.132 9.488-9.853 16.361-.014.036-.029.072-.044.108-.381.899.049 1.603.339 1.941.309.359.984.925 2.043.659 6.862-1.668 12.854-6.071 17.603-12.846z"/></g><path d="m121.8 268.4h13.6c4.662 0 8.6-3.938 8.6-8.601 0-4.742-3.858-8.6-8.6-8.6h-13.6c-4.742 0-8.6 3.858-8.6 8.6 0 4.743 3.858 8.601 8.6 8.601z" fill="#f98fa6"/><path d="m109.204 162.054c4.694 5.477 12.244 8.746 20.196 8.746 7.953 0 15.503-3.27 20.196-8.746 1.797-2.097 1.554-5.253-.543-7.05-2.098-1.797-5.253-1.554-7.05.542-2.819 3.29-7.531 5.254-12.604 5.254-5.072 0-9.784-1.964-12.604-5.254-1.797-2.096-4.954-2.34-7.05-.542-2.096 1.797-2.338 4.953-.541 7.05z"/><circle cx="157" cy="124.6" r="8.2"/><circle cx="102" cy="124.6" r="8.2"/><path d="m425.8 243.4c0 .2.6.2.6 0 1.2-6.2 6.2-11 12.4-12.2.2-.2.2-.6 0-.6-6.2-1.2-11.2-6-12.4-12.2 0-.2-.6-.2-.6 0-1.2 6.2-6.2 11-12.4 12.2-.2 0-.2.4 0 .6 6.2 1.2 11.2 6 12.4 12.2z" fill="#fc657e"/><path d="m186.8 465.8c-.1 0-.15 0-.15 0" fill="none"/><path d="m209 453h-.2-4.6v-4.6c0-3.6-2.8-6.4-6.4-6.4-3.4 0-6.4 2.8-6.4 6.2v.2 4.6h-4.6c-3.6 0-6.4 2.8-6.4 6.4-.2 3.4 2.6 6.4 6.4 6.4h4.6v4.6c0 3.6 2.8 6.4 6.4 6.4 3.4 0 6.4-2.8 6.4-6.2v-.2-4.6h4.6c3.6 0 6.4-2.8 6.4-6.4 0-3.4-2.8-6.4-6.2-6.4z" fill="#70d6f9"/><circle cx="256" cy="17.4" fill="#87d147" r="6.8"/><ellipse cx="135.8" cy="409" fill="#f5c84c" rx="6.8" ry="6.8" transform="matrix(.383 -.924 .924 .383 -294.035 377.945)"/><path d="m294 67c9 1.6 16 8.6 17.8 17.4 0 .4.8.4.8 0 1.8-8.8 8.8-15.8 17.8-17.4.4-.2.4-.8 0-.8-9-1.6-16-8.6-17.8-17.4 0-.4-.8-.4-.8 0-1.8 8.8-8.8 15.8-17.8 17.4-.4 0-.4.6 0 .8z" fill="#f5c84c"/><path d="m406.866 363.81c-2.439-7.173-3.716-14.013-4.95-20.628-2.216-11.871-4.13-22.124-12.251-30.246-10.725-10.726-29.46-15.13-39.673-16.801-4.813-.713-9.771-.713-14.66.012-8.108 1.179-28.169 5.169-39.566 16.76-8.132 8.132-10.049 18.399-12.268 30.287-1.237 6.634-2.518 13.492-4.97 20.631-2.928 8.614-1.645 17.678 3.527 24.852 7.512 10.419 15.068 19.577 21.279 25.789 6.67 6.669 9.537 17.739 8.585 32.971 1.747-.75 3.602-1.29 5.538-1.58.908-.119 1.809-.173 2.705-.197-.692-33.626-11.118-46.393-12.997-48.423-5.693-.1-11.54-3.537-14.937-9.42-2.253-3.903-3.133-8.339-2.476-12.491.708-4.478 3.201-8.25 6.839-10.351 7.26-4.19 17.112-.763 21.964 7.642 2.253 3.903 3.133 8.339 2.476 12.491-.517 3.267-1.992 6.15-4.161 8.29 4.811 6.725 13.019 22.781 13.31 54.111 1.222.521 2.396 1.142 3.502 1.872 3.169 1.924 6.004 2.82 8.916 2.82h.2c2.982 0 6.055-.968 8.885-2.799 1.201-.801 2.451-1.477 3.736-2.031.31-30.962 8.362-46.981 13.182-53.801-5.051-4.909-5.971-13.577-1.763-20.865 2.254-3.903 5.656-6.883 9.579-8.39 4.235-1.625 8.747-1.354 12.385.749 3.637 2.1 6.13 5.872 6.839 10.35.656 4.152-.224 8.588-2.477 12.491-3.372 5.839-9.158 9.268-14.81 9.416-2.077 2.29-12.225 15.15-12.918 48.278.845.045 1.692.123 2.544.263 1.943.295 3.806.836 5.555 1.588-.746-12.208.774-25.231 8.528-32.984 6.211-6.211 13.769-15.369 21.28-25.789 5.174-7.176 6.457-16.239 3.523-24.867zm-29.251-8.677c-12.024 1.994-29.815 8.289-29.815 15.467v12.892c0 2.761-2.238 5-5 5-.034 0-.066-.009-.1-.01-.034.001-.066.01-.1.01-2.762 0-5-2.239-5-5v-12.892c0-7.178-17.791-13.473-29.815-15.467-2.723-.451-4.566-3.024-4.116-5.748.449-2.724 3.013-4.562 5.744-4.118.367.061 9.102 1.521 17.973 4.913 6.832 2.612 11.939 5.678 15.315 9.169 3.376-3.491 8.483-6.557 15.315-9.169 8.871-3.392 17.605-4.853 17.973-4.913 2.729-.448 5.298 1.397 5.746 4.121s-1.397 5.296-4.12 5.745z" fill="#a57453"/><path d="m493.994 242.192c-2.471-3.251-5.532-7.858-7.778-13.146-1.509 4.889-1.584 11.02 2.472 17.78 4.578 7.604 4.28 16.518-.842 25.093-9.661 16.174-33.474 26.658-57.886 25.475-15.522-.821-28.798 1.098-38.983 3.591 2.042 1.493 3.984 3.104 5.76 4.879 2.422 2.422 4.388 4.953 6.03 7.571 7.105 1.717 13.484 3.583 19.114 5.587 5.42-.795 11.475-1.406 18.009-1.814 17.626-.793 33.792-6.957 45.606-17.362 2.831-2.427 5.379-5.036 7.624-7.8 11.71-14.37 12.068-34.869.874-49.854z" fill="#fce4be"/><path d="m263.161 319.229c5.673-2.017 12.155-3.912 19.404-5.677 1.655-2.661 3.644-5.231 6.1-7.686 1.697-1.726 3.534-3.3 5.461-4.749-10.167-2.461-23.389-4.339-38.863-3.523-24.432 1.179-48.21-9.235-57.868-25.315-5.155-8.584-5.472-17.547-.891-25.236 4.196-6.994 3.931-13.229 2.503-17.841-2.243 5.294-5.326 9.935-7.827 13.226-11.077 15.007-10.741 35.482.849 49.759 2.101 2.423 4.648 5.24 7.645 7.837 11.845 10.431 28.012 16.595 45.55 17.384 6.499.199 12.426 1.006 17.937 1.821z" fill="#fce4be"/><path d="m377.214 466.974c-.423-5.635-4.946-10.357-10.756-11.229-.026-.004-.053-.008-.08-.013-4.075-.682-7.255.729-9.204 2.028-4.509 2.918-9.459 4.44-14.374 4.44h-.2c-4.788 0-9.436-1.418-14.207-4.334-.056-.034-.111-.07-.166-.106-2.572-1.714-5.99-2.445-9.38-2.002-5.633.846-10.148 5.564-10.886 11.462-.411 3.778.773 7.48 3.345 10.348 2.526 2.817 6.133 4.433 9.895 4.433 2.197 0 4.028-.404 5.764-1.271.032-.017.063-.032.096-.047 4.946-2.343 9.571-3.481 14.141-3.481h2.8c4.697 0 9.62 1.22 14.236 3.528 1.641.819 3.688 1.271 5.764 1.271 3.762 0 7.368-1.615 9.895-4.433 2.571-2.867 3.756-6.569 3.335-10.426-.008-.056-.013-.112-.018-.168zm-51.89 7.929c-.922.738-2.025 1.097-3.121 1.097-1.466 0-2.919-.642-3.906-1.876l-1.601-2c-1.726-2.156-1.377-5.303.779-7.027 2.155-1.727 5.303-1.378 7.027.779l1.601 2c1.726 2.156 1.377 5.303-.779 7.027zm43.58-2.78-1.6 2c-.987 1.234-2.44 1.877-3.907 1.877-1.096 0-2.198-.358-3.12-1.096-2.156-1.725-2.507-4.871-.781-7.027l1.6-2c1.725-2.157 4.87-2.506 7.027-.781 2.156 1.724 2.507 4.871.781 7.027z" fill="#818182"/><path d="m368.758 491.503c-1.554.326-3.147.497-4.758.497-3.651 0-7.19-.805-10.236-2.328-3.188-1.594-6.655-2.472-9.764-2.472h-2.8c-3.044 0-6.256.817-9.816 2.498-3.118 1.549-6.449 2.302-10.184 2.302-1.538 0-3.06-.16-4.548-.458 1.861 6.048 7.498 10.458 14.148 10.458h23.8c6.664 0 12.31-4.43 14.158-10.497z" fill="#5b5d60"/><path d="m411.746 341.348c1.005 5.387 2.045 10.932 3.717 16.507 13.346 4.662 29.726 2.245 41.304-.7 1.704-.451 2.23-1.748 2.389-2.48.108-.504.335-2.254-1.314-3.597-3.467-2.75-7.975-5.541-13.194-8.772-2.984-1.849-6.071-3.759-9.379-5.916-6.069-4.084-15.378-7.916-27.217-11.242 1.637 5.203 2.655 10.634 3.694 16.2z" fill="#754e34"/><path d="m273.668 341.359c1.033-5.535 2.047-10.938 3.666-16.115-12.071 3.369-21.182 7.092-27.142 11.103-3.924 2.646-7.681 4.962-10.996 7.006-4.584 2.827-8.543 5.269-11.689 7.764-1.488 1.214-1.339 2.837-1.204 3.477.13.614.625 2.095 2.413 2.582 11.455 2.964 27.898 5.468 41.218.713 1.683-5.564 2.725-11.126 3.734-16.53z" fill="#754e34"/><path d="m301.593 373.634c-1.386.801-1.824 2.382-1.962 3.254-.296 1.869.163 4.029 1.259 5.928 2.059 3.568 5.864 5.389 8.304 3.981 1.386-.8 1.824-2.382 1.962-3.254.296-1.869-.163-4.029-1.259-5.928-2.06-3.568-5.867-5.389-8.304-3.981z" fill="#818182"/><path d="m384.506 382.905c1.097-1.898 1.556-4.059 1.26-5.929-.138-.871-.576-2.453-1.963-3.253-.596-.345-1.229-.465-1.824-.465-.787 0-1.505.211-1.974.392-1.768.679-3.409 2.156-4.505 4.055-2.06 3.567-1.737 7.772.703 9.182 2.442 1.41 6.243-.415 8.303-3.982z" fill="#818182"/><path d="m375.987 345.267c-.367.061-9.102 1.521-17.973 4.913-6.832 2.612-11.939 5.678-15.315 9.169-3.376-3.491-8.483-6.557-15.315-9.169-8.871-3.392-17.605-4.853-17.973-4.913-2.731-.444-5.295 1.395-5.744 4.118-.45 2.724 1.394 5.297 4.116 5.748 12.024 1.994 29.815 8.289 29.815 15.467v12.892c0 2.761 2.238 5 5 5 .034 0 .066-.009.1-.01.034.001.066.01.1.01 2.762 0 5-2.239 5-5v-12.892c0-7.178 17.791-13.473 29.815-15.467 2.723-.449 4.566-3.021 4.118-5.745s-3.015-4.57-5.744-4.121z"/><path d="m324.503 465.876c-1.725-2.157-4.872-2.506-7.027-.779-2.156 1.725-2.505 4.871-.779 7.027l1.601 2c.987 1.234 2.44 1.876 3.906 1.876 1.096 0 2.199-.358 3.121-1.097 2.156-1.725 2.505-4.871.779-7.027z"/><path d="m368.123 465.096c-2.157-1.725-5.303-1.376-7.027.781l-1.6 2c-1.726 2.156-1.375 5.303.781 7.027.922.737 2.024 1.096 3.12 1.096 1.467 0 2.92-.643 3.907-1.877l1.6-2c1.726-2.156 1.375-5.303-.781-7.027z"/><path d="m501.98 236.175c-4.011-5.278-6.901-10.827-8.156-15.69-.797-2.924-3.134-5.04-6.099-5.52-2.909-.473-5.85.808-7.486 3.263-.044.065-.086.132-.126.2-3.759 6.264-8.757 18.951.004 33.552 3.315 5.507 1.364 11.095-.856 14.813-6.627 11.093-25.545 21.733-48.795 20.615-22.141-1.179-40.104 2.867-51.633 6.65-9.236-4.113-19.138-6.468-27.301-7.803-5.86-.866-11.804-.868-17.652-.002-6.972 1.014-17.6 3.214-27.775 7.853-11.277-3.65-28.551-7.461-49.83-6.558l-.883-20.635c-.721-12.494-9.658-23.412-21.77-26.561l-23.689-5.97c-.257-7.249-3.077-12.904-4.846-15.753-1.57-2.618-4.401-3.988-7.373-3.577-2.376.328-4.404 1.766-5.579 3.846-.556-.387-1.133-.755-1.742-1.087-.041-.022-.082-.044-.124-.065l-10.634-5.417c-5.555-2.778-11.739-3.002-17.169-1.131-.436-1.461-.667-3.076-.667-4.797v-6.91c16.963-9.878 29.133-27.108 32.094-47.302 16.535-.266 29.906-13.791 29.906-30.388 0-10.118-4.974-19.092-12.6-24.621v-17.98c0-14.369-2.421-25.01-7.195-31.626-3.463-4.799-8.274-7.586-13.645-7.937-.494-11.42-4.906-20.639-13.127-27.415-19.278-15.891-52.446-12.927-70.48-9.75-35.201 6.048-60.752 36.298-60.752 71.928v22.921c-7.514 5.54-12.4 14.448-12.4 24.479 0 16.664 13.479 30.234 30.107 30.393 2.951 20.113 15.036 37.287 31.893 47.182v7.025c0 1.745-.274 3.437-.8 5.011-5.463-1.891-11.62-1.662-17.07 1.134l-10.566 5.383c-5.448 2.724-8.878 8.048-9.147 14.068-.443.114-.904.238-1.398.396l-32.854 8.164c-12.536 3.195-21.281 13.908-21.76 26.61l-2.2 46.6c-.13 2.758 2 5.1 4.759 5.229.081.004.16.006.24.006 2.269 0 4.203-1.531 4.798-3.648.101-.359.174-.729.192-1.117l2.202-46.646c.312-8.282 6.034-15.252 14.209-17.336l33-8.2c.127-.032.253-.068.377-.109.286-.095.613-.183.954-.271 1.689 2.696 4.15 4.895 7.195 6.279l33.804 15.366c-4.344 4.789-9.522 11.813-13.165 20.994-1.725 4.138-.97 8.837 1.976 12.279 2.334 2.729 5.665 4.229 9.118 4.228.969 0 1.949-.118 2.918-.36 7.599-1.848 18.135-7.062 26.205-21.254 8.649 15.464 20.117 20.097 26.365 21.484.873.188 1.75.278 2.618.278 3.623 0 7.088-1.591 9.448-4.445 2.812-3.401 3.497-8.026 1.811-12.011-3.878-9.502-9.118-16.558-13.411-21.261l19.195-8.609c-3.741 15.1-.48 31.411 9.711 43.918.032.039.064.078.097.116 2.342 2.702 5.207 5.873 8.674 8.878 7.536 6.636 16.577 11.758 26.544 15.15 7.913 2.694 16.408 4.299 25.205 4.695.243.008.475.029.717.039-.321.205-.648.41-.956.616-3.759 2.534-7.266 4.696-10.658 6.788-4.854 2.993-9.046 5.579-12.706 8.482-3.97 3.234-5.78 8.347-4.722 13.342 1.046 4.942 4.711 8.835 9.628 10.175 7.526 1.946 16.991 3.695 26.693 3.695 4.798 0 9.65-.443 14.358-1.486-.962 9.028 1.346 17.986 6.745 25.473 5.528 7.669 13.889 18.58 22.32 27.012 5.735 5.735 7.298 18.611 4.401 36.254-.002.014 0 .027-.003.04-1.342 2.504-2.265 5.275-2.634 8.228-.722 6.62 1.403 13.249 5.831 18.187.67.747 1.388 1.439 2.14 2.087v.869c0 13.675 11.125 24.8 24.8 24.8h23.8c13.675 0 24.801-11.125 24.801-24.8v-1.04c.679-.599 1.329-1.235 1.939-1.916 4.409-4.917 6.535-11.51 5.84-18.103-.233-2.951-1.09-5.753-2.418-8.295-.011-.153-.003-.303-.029-.457-2.86-17.422-1.297-30.155 4.401-35.854 8.432-8.431 16.793-19.343 22.321-27.013 5.407-7.501 7.714-16.477 6.738-25.52 4.727 1.032 9.598 1.462 14.414 1.462 9.665 0 19.102-1.707 26.672-3.632 4.896-1.296 8.594-5.147 9.651-10.052 1.083-5.021-.745-10.178-4.823-13.499-3.974-3.152-8.71-6.085-14.195-9.48-2.936-1.818-5.972-3.697-9.12-5.751-.399-.268-.817-.533-1.236-.798.29-.019.577-.04.868-.058 19.807-.891 38.16-7.938 51.629-19.799 3.234-2.772 6.204-5.815 8.822-9.038 14.611-17.927 15.076-43.484 1.107-62.182zm-16.485 63.673c-11.814 10.405-27.98 16.569-45.606 17.362-6.534.408-12.589 1.018-18.009 1.814-5.63-2.004-12.008-3.87-19.114-5.587-1.642-2.618-3.608-5.149-6.03-7.571-1.775-1.776-3.717-3.387-5.76-4.879 10.185-2.493 23.462-4.412 38.983-3.591 24.412 1.184 48.225-9.301 57.886-25.475 5.122-8.575 5.42-17.489.842-25.093-4.056-6.76-3.98-12.892-2.472-17.78 2.246 5.288 5.308 9.895 7.778 13.146 11.193 14.984 10.836 35.483-.875 49.855-2.244 2.763-4.792 5.372-7.623 7.799zm-40.848 42.457c5.22 3.231 9.728 6.022 13.194 8.772 1.649 1.343 1.423 3.093 1.314 3.597-.158.732-.685 2.029-2.389 2.48-11.579 2.945-27.959 5.362-41.304.7-1.672-5.575-2.712-11.12-3.717-16.507-1.039-5.565-2.057-10.996-3.695-16.201 11.839 3.326 21.148 7.158 27.217 11.242 3.309 2.158 6.396 4.068 9.38 5.917zm-127.994 149.237c1.488.298 3.009.458 4.548.458 3.734 0 7.065-.753 10.184-2.302 3.561-1.681 6.772-2.498 9.816-2.498h2.8c3.108 0 6.575.878 9.764 2.472 3.045 1.523 6.584 2.328 10.235 2.328 1.611 0 3.204-.171 4.758-.497-1.848 6.067-7.494 10.497-14.158 10.497h-23.8c-6.65 0-12.287-4.41-14.147-10.458zm57.242-13.975c-2.527 2.818-6.133 4.433-9.895 4.433-2.076 0-4.123-.452-5.764-1.271-4.616-2.309-9.539-3.528-14.236-3.528h-2.8c-4.569 0-9.194 1.139-14.141 3.481-.032.015-.063.03-.096.047-1.735.867-3.566 1.271-5.764 1.271-3.762 0-7.368-1.615-9.895-4.433-2.571-2.867-3.756-6.569-3.345-10.348.737-5.897 5.253-10.616 10.886-11.462 3.39-.443 6.808.288 9.38 2.002.055.036.11.072.166.106 4.771 2.916 9.419 4.334 14.207 4.334h.2c4.915 0 9.865-1.522 14.374-4.44 1.949-1.3 5.129-2.71 9.204-2.028.027.005.054.009.08.013 5.81.872 10.333 5.595 10.756 11.229.005.057.01.112.016.168.422 3.857-.762 7.559-3.333 10.426zm-.358-30.118c-1.749-.751-3.612-1.293-5.555-1.588-.852-.14-1.699-.218-2.544-.263.693-33.128 10.841-45.988 12.918-48.278 5.652-.148 11.439-3.577 14.81-9.416 2.253-3.903 3.133-8.339 2.477-12.491-.709-4.478-3.202-8.25-6.839-10.35-3.638-2.103-8.149-2.374-12.385-.749-3.923 1.507-7.325 4.486-9.579 8.39-4.207 7.288-3.287 15.956 1.763 20.865-4.82 6.82-12.872 22.839-13.182 53.801-1.285.554-2.535 1.23-3.736 2.031-2.83 1.831-5.902 2.799-8.885 2.799h-.2c-2.912 0-5.747-.896-8.916-2.82-1.106-.73-2.28-1.351-3.502-1.872-.29-31.33-8.499-47.386-13.31-54.111 2.169-2.141 3.644-5.023 4.161-8.29.657-4.152-.223-8.588-2.476-12.491-4.852-8.404-14.704-11.832-21.964-7.642-3.638 2.101-6.131 5.873-6.839 10.351-.657 4.152.223 8.588 2.476 12.491 3.397 5.883 9.243 9.321 14.937 9.42 1.879 2.03 12.305 14.797 12.997 48.423-.896.024-1.797.078-2.705.197-1.935.29-3.791.83-5.538 1.58.952-15.232-1.915-26.301-8.585-32.971-6.211-6.212-13.768-15.37-21.279-25.789-5.172-7.174-6.455-16.237-3.527-24.852 2.452-7.139 3.732-13.997 4.97-20.631 2.219-11.888 4.136-22.155 12.268-30.287 11.397-11.591 31.458-15.581 39.566-16.76 4.889-.725 9.847-.725 14.66-.012 10.213 1.671 28.948 6.075 39.673 16.801 8.121 8.122 10.035 18.375 12.251 30.246 1.234 6.615 2.511 13.455 4.95 20.628 2.934 8.629 1.65 17.691-3.521 24.866-7.512 10.42-15.069 19.578-21.28 25.789-7.756 7.754-9.277 20.777-8.53 32.985zm2.666-60.562c-2.44-1.409-2.763-5.614-.703-9.182 1.096-1.898 2.737-3.376 4.505-4.055.469-.181 1.187-.392 1.974-.392.595 0 1.229.12 1.824.465 1.387.8 1.825 2.382 1.963 3.253.296 1.87-.163 4.03-1.26 5.929-2.06 3.567-5.861 5.392-8.303 3.982zm-65.048-3.344c-.138.872-.576 2.454-1.962 3.254-2.439 1.407-6.245-.413-8.304-3.981-1.096-1.898-1.555-4.059-1.259-5.928.138-.872.576-2.453 1.962-3.254 2.438-1.408 6.244.413 8.304 3.981 1.096 1.899 1.555 4.059 1.259 5.928zm-82.44-26.367c-1.787-.487-2.282-1.968-2.413-2.582-.135-.64-.284-2.263 1.204-3.477 3.146-2.495 7.105-4.937 11.689-7.764 3.314-2.044 7.071-4.36 10.996-7.006 5.96-4.011 15.071-7.734 27.142-11.103-1.619 5.177-2.633 10.58-3.666 16.115-1.009 5.403-2.051 10.966-3.735 16.53-13.319 4.755-29.761 2.251-41.217-.713zm-69.404-67.026c-.205.248-.975 1.038-2.227.769-4.928-1.095-11.643-4.311-17.559-13.018 3.943-.934 7.447-3.156 10.02-6.189 3.356 3.973 7.132 9.491 10.049 16.637.272.639.177 1.246-.283 1.801zm-61.367-.06c-.29-.339-.72-1.042-.339-1.941.015-.036.03-.072.044-.108 2.721-6.874 6.462-12.345 9.853-16.361 2.552 3.067 6.075 5.289 10.088 6.223-4.749 6.775-10.741 11.178-17.602 12.847-1.06.265-1.736-.301-2.044-.66zm-26.275-63.235 10.612-5.406c5.517-2.831 12.388-.835 15.625 4.512l11.782 19.753c-2.428 2.091-4.302 4.795-5.397 7.872l-32.422-14.737c-2.375-1.08-3.822-3.306-3.871-5.955-.048-2.608 1.312-4.859 3.671-6.039zm-28.069-105.055c0-10.911 8.617-19.823 19.4-20.349v40.699c-10.783-.527-19.4-9.439-19.4-20.35zm127.273-101.861c6.251 5.153 9.367 12.071 9.527 21.061 0 4.742 3.948 8.6 8.8 8.6 7.514 0 12 11.065 12 29.6v13.219c-2.12-.563-4.33-.9-6.604-.989-.24-9.123-3.932-18.174-10.137-24.837-.013-.014-.025-.027-.039-.041-5.746-6.034-15.076-6.674-21.69-1.499-6.772 5.268-18.156 11.547-33.93 11.547-15.939 0-27.358-6.279-34.118-11.538-6.626-5.187-15.957-4.545-21.678 1.464-6.411 6.639-9.956 15.476-9.999 24.898-2.416.078-4.761.438-7.004 1.051v-18.075c0-30.747 22.057-56.852 52.468-62.076 27.837-4.906 50.583-2.129 62.404 7.615zm23.727 122.2v-40.679c10.689.627 19.2 9.496 19.2 20.339 0 10.845-8.511 19.714-19.2 20.34zm-121.6-50.539c0-6.883 2.556-13.32 7.221-18.152 1.198-1.258 2.77-1.898 4.372-1.898 1.359 0 2.742.461 3.938 1.397 8.007 6.228 21.494 13.653 40.269 13.653 18.61 0 32.062-7.425 40.082-13.663 2.585-2.024 6.063-1.816 8.28.492 4.547 4.895 7.256 11.536 7.439 18.235v50.936c0 30.768-25.032 55.8-55.8 55.8s-55.8-25.032-55.8-55.8v-51zm55.8 116.8c8.088 0 15.836-1.475 23-4.157v2.157c0 3.719.714 7.23 2.062 10.316-1.11 1.172-2.114 2.469-2.952 3.917l-12.467 20.838c-.992-.164-2.004-.271-3.042-.271h-13.6c-1.024 0-2.023.105-3.002.265l-12.32-20.654c-.887-1.466-1.937-2.776-3.09-3.958 1.446-3.221 2.213-6.781 2.213-10.454v-2.236c7.218 2.731 15.034 4.237 23.198 4.237zm46.33 12.855 10.531 5.365c1.066.59 1.88 1.313 2.457 2.142-1.351 2.536-3.009 5.126-4.941 7.669-1.153 1.562-2.198 3.176-3.153 4.824l-27.168 12.185c-1.098-3.004-2.94-5.646-5.315-7.699l11.987-20.035c3.083-5.329 9.951-7.277 15.602-4.451zm-53.33 29.945h13.6c4.742 0 8.6 3.858 8.6 8.6 0 4.662-3.938 8.601-8.6 8.601h-13.6c-4.742 0-8.6-3.858-8.6-8.601 0-4.742 3.858-8.6 8.6-8.6zm70.23 40.985c-11.59-14.277-11.925-34.752-.849-49.759 2.5-3.291 5.583-7.932 7.827-13.226 1.428 4.612 1.693 10.848-2.503 17.841-4.581 7.689-4.265 16.652.891 25.236 9.657 16.08 33.436 26.494 57.868 25.315 15.474-.816 28.696 1.063 38.863 3.523-1.927 1.449-3.763 3.023-5.461 4.749-2.456 2.456-4.445 5.026-6.1 7.686-7.249 1.765-13.731 3.66-19.404 5.677-5.512-.815-11.438-1.622-17.937-1.824-17.539-.789-33.705-6.953-45.55-17.384-2.997-2.594-5.545-5.412-7.645-7.834zm13.938-25.056c-2.242-3.733-4.213-9.361-.88-14.956 1.609-2.682 2.742-5.296 3.513-7.815l22.542 5.682c7.926 2.06 13.792 9.236 14.262 17.375l.858 20.083c-19.314-1.426-34.5-10.721-40.295-20.369z"/></g></svg>