<svg enable-background="new 0 0 256 256" height="512" viewBox="0 0 256 256" width="512" xmlns="http://www.w3.org/2000/svg"><g id="Layer_16"><g><g><path d="m176.57 120.02-38.394-38.394c-1.377-1.377-3.609-1.377-4.986 0l-3.783 3.783c-1.377 1.377-1.377 3.609 0 4.986l38.394 38.394c1.377 1.377 3.609 1.377 4.986 0l3.783-3.783c1.377-1.377 1.377-3.61 0-4.986z" fill="#f98fa6"/></g><g><path d="m92.579 204.011-38.394-38.394c-1.377-1.377-3.609-1.377-4.986 0l-3.783 3.783c-1.377 1.377-1.377 3.609 0 4.986l38.394 38.394c1.377 1.377 3.609 1.377 4.986 0l3.783-3.783c1.377-1.377 1.377-3.609 0-4.986z" fill="#fcdd86"/></g><g><path d="m52.891 243.699-38.394-38.394c-1.377-1.377-3.609-1.377-4.986 0l-3.783 3.783c-1.377 1.377-1.377 3.609 0 4.986l38.394 38.394c1.377 1.377 3.609 1.377 4.986 0l3.783-3.783c1.377-1.377 1.377-3.609 0-4.986z" fill="#6cadef"/></g><g><path d="m57.803 122.402h106.381v49.601h-106.381z" fill="#f5c84c" transform="matrix(.707 -.707 .707 .707 -71.579 121.599)"/></g><g><g><path d="m48.461 239.27 1.259-1.259c4.638-4.638 4.638-12.226 0-16.864l-12.672-12.672c-4.638-4.638-12.226-4.638-16.864 0l-1.259 1.259z" fill="#5290db"/></g></g><g><g><path d="m38.988 197.996h30.022v12.4h-30.022z" fill="#dae6f1" transform="matrix(.707 -.707 .707 .707 -128.573 97.991)"/></g></g><g><path d="m186.64 83.013c.563-1.697.12-3.566-1.144-4.831l-5.483-5.483c-1.264-1.264-3.134-1.707-4.831-1.144l-35.347 11.73 35.073 35.073z" fill="#fc657e"/></g><g><path d="m193.321 48.37c7.819-14.265 8.823-25.232 7.108-33.977-1.181-6.022-7.728-9.312-13.276-6.69-4.737 2.239-6.799 7.942-4.452 12.627 5.168 10.316 7.159 21.507 7.9 27.542.173 1.406 2.039 1.741 2.72.498z" fill="#70d6f9"/></g><g><path d="m177.853 50.132c-1.843-9.812-5.64-15.778-9.95-19.704-3.265-2.973-8.447-2.102-10.52 1.796-1.774 3.336-.458 7.476 2.915 9.179 6.018 3.037 11.066 7.308 14.341 10.475 1.342 1.298 3.558.088 3.214-1.746z" fill="#70d6f9"/></g><g><path d="m209.727 64.776c14.265-7.819 25.232-8.823 33.977-7.108 6.022 1.181 9.312 7.728 6.69 13.276-2.239 4.737-7.942 6.799-12.627 4.452-10.316-5.168-21.507-7.159-27.542-7.9-1.406-.173-1.74-2.039-.498-2.72z" fill="#70d6f9"/></g><g><path d="m207.966 80.244c9.812 1.843 15.778 5.64 19.704 9.95 2.973 3.265 2.102 8.447-1.796 10.52-3.336 1.774-7.476.458-9.179-2.915-3.037-6.018-7.308-11.066-10.475-14.341-1.298-1.341-.089-3.558 1.746-3.214z" fill="#70d6f9"/></g><g><path d="m210.823 45.159c8.679-14.927 18.099-21.86 26.993-25.104 6.131-2.236 12.726 1.914 13.39 8.406.567 5.543-3.491 10.557-9.046 10.996-12.196.965-23.448 5.284-29.364 7.93-1.392.624-2.74-.91-1.973-2.228z" fill="#70d6f9"/></g><g><path d="m86.4 122.402h49.187v49.601h-49.187z" fill="#fca265" transform="matrix(.707 -.707 .707 .707 -71.579 121.599)"/></g><g><path d="m184.35 153.2c-3.1-.6-5.6-3-6.2-6.1 0-.1-.3-.1-.3 0-.6 3.1-3.1 5.5-6.2 6.1-.1 0-.1.2 0 .3 3.1.6 5.6 3 6.2 6.1 0 .1.3.1.3 0 .6-3.1 3.1-5.5 6.2-6.1.1-.1.1-.3 0-.3z" fill="#fc657e"/></g><g><path d="m124.9 22.9h2.3v2.3c0 1.8 1.4 3.2 3.2 3.2 1.7 0 3.2-1.4 3.2-3.1v-.1-2.3h2.3c1.8 0 3.2-1.4 3.2-3.2 0-1.7-1.4-3.2-3.1-3.2h-.1-2.3v-2.3c0-1.8-1.4-3.2-3.2-3.2-1.7 0-3.2 1.4-3.2 3.1v.1 2.3h-2.3c-1.8 0-3.2 1.4-3.2 3.2-.1 1.7 1.3 3.2 3.2 3.2-.1 0-.1 0 0 0z" fill="#70d6f9"/></g><g><circle cx="101.3" cy="252.6" fill="#87d147" r="3.4"/></g><g><circle cx="161.3" cy="3.4" fill="#f5c84c" r="3.4"/></g><g><path d="m121.7 230.2c4.5-.8 8-4.3 8.9-8.7 0-.2.4-.2.4 0 .9 4.4 4.4 7.9 8.9 8.7.2 0 .2.3 0 .4-4.5.8-8 4.3-8.9 8.7 0 .2-.4.2-.4 0-.9-4.4-4.4-7.9-8.9-8.7-.2-.1-.2-.4 0-.4z" fill="#f5c84c"/></g><g><path d="m170.294 132.317c-1.543 0-3.085-.587-4.26-1.761l-38.394-38.395c-1.138-1.137-1.765-2.65-1.765-4.26 0-1.609.627-3.123 1.765-4.261l3.783-3.783c1.137-1.138 2.65-1.765 4.26-1.765s3.123.627 4.261 1.765l38.394 38.394c2.349 2.35 2.349 6.172 0 8.521l-3.783 3.783c-1.174 1.175-2.718 1.762-4.261 1.762zm-34.611-49.224c-.159 0-.463.039-.725.3l-3.783 3.783c-.261.261-.3.566-.3.725s.039.463.3.725l38.394 38.395c.4.399 1.051.4 1.451 0l3.783-3.782c.399-.4.399-1.051 0-1.451l-38.394-38.394c-.263-.262-.567-.301-.726-.301z"/></g><g><path d="m86.304 216.309c-1.543 0-3.086-.587-4.261-1.762l-38.394-38.395c-1.138-1.137-1.765-2.65-1.765-4.26s.627-3.123 1.765-4.261l3.782-3.782c2.35-2.349 6.173-2.35 8.521 0l38.395 38.394c2.348 2.349 2.348 6.172 0 8.521l-3.783 3.783c-1.174 1.175-2.717 1.762-4.26 1.762zm-34.613-49.225c-.262 0-.525.1-.725.3l-3.782 3.783c-.262.262-.301.566-.301.725s.039.463.3.725l38.394 38.395c.401.4 1.051.399 1.451 0l3.783-3.783c.399-.4.399-1.051 0-1.451l-38.394-38.394c-.2-.199-.463-.3-.726-.3z"/></g><g><path d="m46.615 256c-1.61 0-3.123-.627-4.261-1.765l-38.394-38.394c-2.349-2.35-2.349-6.172 0-8.521l3.783-3.783c2.349-2.35 6.173-2.349 8.521 0l38.394 38.395c1.138 1.138 1.765 2.651 1.765 4.26s-.626 3.123-1.765 4.26l-3.783 3.783c-1.137 1.138-2.65 1.765-4.26 1.765zm-34.611-49.228c-.263 0-.525.1-.726.3l-3.783 3.783c-.399.4-.399 1.051 0 1.451l38.395 38.394c.262.261.566.3.725.3s.464-.039.726-.3l3.783-3.783c.261-.261.3-.566.3-.725 0-.158-.039-.463-.3-.725l-38.394-38.395c-.201-.199-.464-.3-.726-.3z"/></g><g><path d="m91.322 204.447c-.64 0-1.28-.244-1.768-.732-.977-.976-.977-2.559 0-3.535l74.229-74.229c.976-.977 2.56-.977 3.535 0 .977.976.977 2.559 0 3.535l-74.229 74.229c-.487.488-1.128.732-1.767.732z"/></g><g><path d="m56.342 169.28c-.64 0-1.28-.244-1.768-.732-.977-.976-.977-2.559 0-3.535l74.297-74.297c.976-.977 2.56-.977 3.535 0 .977.976.977 2.559 0 3.535l-74.296 74.296c-.488.489-1.128.733-1.768.733z"/></g><g><g><path d="m49.095 241.136c-.64 0-1.28-.244-1.768-.732-.977-.976-.977-2.559 0-3.535l.626-.626c3.674-3.675 3.674-9.654 0-13.329l-12.671-12.672c-3.674-3.673-9.653-3.674-13.329 0l-.647.647c-.976.977-2.56.977-3.535 0-.977-.976-.977-2.559 0-3.535l.647-.647c5.623-5.624 14.775-5.624 20.399 0l12.671 12.672c5.625 5.624 5.625 14.775 0 20.399l-.626.626c-.487.488-1.128.732-1.767.732z"/></g></g><g><g><path d="m48.281 221.182c-.64 0-1.28-.244-1.768-.732-.977-.976-.977-2.559 0-3.535l20.216-20.216c.976-.977 2.56-.977 3.535 0 .977.976.977 2.559 0 3.535l-20.215 20.216c-.488.488-1.128.732-1.768.732z"/></g><g><path d="m39.469 212.458c-.64 0-1.28-.244-1.768-.732-.977-.976-.977-2.559 0-3.535l20.275-20.276c.976-.977 2.56-.977 3.535 0 .977.976.977 2.559 0 3.535l-20.275 20.276c-.487.488-1.127.732-1.767.732z"/></g></g><g><path d="m175.083 120.34c-.261 0-.526-.041-.788-.128-1.31-.435-2.02-1.85-1.585-3.16l11.558-34.827c.267-.804.06-1.676-.539-2.275l-5.483-5.483c-.599-.599-1.47-.805-2.274-.539l-34.73 11.525c-1.308.437-2.725-.274-3.16-1.585s.275-2.726 1.585-3.16l34.729-11.525c2.611-.869 5.44-.198 7.386 1.749l5.483 5.483c1.945 1.944 2.615 4.774 1.749 7.385l-11.559 34.828c-.349 1.048-1.325 1.712-2.372 1.712z"/></g><g><path d="m192.038 51.639c-.249 0-.5-.023-.752-.072-1.684-.323-2.956-1.685-3.166-3.39-.696-5.666-2.615-16.67-7.654-26.728-1.421-2.837-1.629-6.064-.586-9.085 1.061-3.074 3.265-5.532 6.206-6.921 3.351-1.584 7.171-1.534 10.482.138 3.302 1.668 5.603 4.705 6.314 8.331 2.16 11.009-.25 22.673-7.368 35.66-.709 1.293-2.047 2.067-3.476 2.067zm-.909-4.47s0 0 0 0zm.057-37.876c-1.009 0-2.019.223-2.964.67-1.714.81-2.998 2.242-3.616 4.032-.601 1.739-.483 3.59.331 5.214 4.521 9.025 6.68 18.695 7.689 25.102 5.37-10.76 7.12-20.416 5.35-29.438-.413-2.103-1.748-3.863-3.663-4.831-.99-.498-2.058-.749-3.127-.749z"/></g><g><path d="m175.958 54.916c-1.114 0-2.214-.425-3.058-1.241-3.069-2.968-7.943-7.12-13.729-10.041-2.237-1.129-3.887-3.065-4.645-5.453-.758-2.387-.527-4.919.648-7.131 1.348-2.535 3.743-4.27 6.571-4.761 2.843-.491 5.701.341 7.84 2.29 5.489 4.999 8.997 11.898 10.724 21.091.357 1.902-.55 3.797-2.256 4.715-.661.357-1.381.531-2.095.531zm-.562-4.326v.001s0 0 0-.001zm-12.057-19.438c-.245 0-.492.021-.739.064-1.295.225-2.392 1.02-3.01 2.182-.54 1.014-.645 2.176-.298 3.271.348 1.096 1.105 1.984 2.132 2.502 5.546 2.799 10.284 6.587 13.605 9.64-1.611-7.191-4.503-12.612-8.81-16.535-.802-.732-1.823-1.124-2.88-1.124z"/></g><g><path d="m241.866 78.873c-1.793 0-3.571-.416-5.218-1.241-10.055-5.038-21.062-6.958-26.728-7.654-1.704-.209-3.066-1.481-3.389-3.165-.326-1.697.476-3.396 1.994-4.229 12.987-7.118 24.651-9.528 35.66-7.368 3.626.711 6.662 3.013 8.331 6.314 1.672 3.31 1.723 7.13.139 10.482-1.39 2.941-3.848 5.145-6.921 6.206-1.268.438-2.572.655-3.868.655zm-28.081-13.401c6.408 1.01 16.081 3.169 25.103 7.689 1.625.814 3.477.931 5.215.331 1.79-.618 3.222-1.902 4.032-3.616.92-1.948.891-4.168-.081-6.091-.968-1.916-2.728-3.25-4.831-3.663-9.021-1.77-18.678-.02-29.438 5.35zm-2.856 1.496s.001-.001.002-.001c0 0-.002.001-.002.001z"/></g><g><path d="m222.724 104.008c-.939 0-1.884-.145-2.807-.438-2.388-.758-4.325-2.407-5.454-4.645-2.921-5.787-7.072-10.66-10.041-13.729-1.339-1.385-1.625-3.457-.709-5.155.918-1.705 2.815-2.609 4.714-2.254 9.193 1.727 16.092 5.234 21.091 10.723 1.948 2.14 2.783 4.997 2.29 7.841-.49 2.828-2.225 5.222-4.76 6.57-1.357.722-2.835 1.087-4.324 1.087zm-13.437-20.94c3.052 3.321 6.84 8.058 9.64 13.605.518 1.027 1.407 1.784 2.503 2.132 1.093.347 2.256.242 3.27-.298 1.162-.618 1.957-1.714 2.182-3.01.228-1.311-.159-2.63-1.06-3.62-3.923-4.306-9.344-7.198-16.535-8.809z"/></g><g><path d="m212.155 50.026c-1.122 0-2.218-.467-3.004-1.342-1.188-1.321-1.384-3.242-.489-4.781 7.882-13.558 17.138-22.127 28.297-26.196 3.646-1.33 7.625-.909 10.917 1.153 3.3 2.067 5.42 5.474 5.816 9.348.348 3.398-.665 6.714-2.852 9.337-2.149 2.578-5.163 4.143-8.484 4.406-11.921.943-22.999 5.242-28.541 7.72-.535.239-1.101.355-1.66.355zm-1.332-4.867h.01zm30.424-23.213c-.865 0-1.735.151-2.575.458-9.339 3.406-17.276 10.465-24.2 21.542 6.339-2.618 16.546-6.115 27.49-6.98 1.969-.156 3.758-1.087 5.039-2.623 1.317-1.581 1.928-3.579 1.718-5.626-.238-2.329-1.513-4.377-3.497-5.62-1.217-.762-2.59-1.151-3.975-1.151z"/></g><g><path d="m110.585 184.075c-.64 0-1.28-.244-1.768-.732l-34.024-34.024c-.977-.976-.977-2.559 0-3.535.976-.977 2.56-.977 3.535 0l34.024 34.024c.977.976.977 2.559 0 3.535-.487.488-1.127.732-1.767.732z"/></g><g><path d="m145.496 149.424c-.64 0-1.28-.244-1.768-.732l-33.979-33.979c-.977-.976-.977-2.559 0-3.535.976-.977 2.56-.977 3.535 0l33.979 33.979c.977.976.977 2.559 0 3.535-.488.488-1.128.732-1.767.732z"/></g></g></g></svg>