<svg enable-background="new 0 0 256 256" height="512" viewBox="0 0 256 256" width="512" xmlns="http://www.w3.org/2000/svg"><g id="Layer_7"><g><path d="m120.57 149.666c-3.756.02-6.796 3.091-6.776 6.847l.056 16.543c.02 3.756 3.091 6.796 6.847 6.776l14.596-.056c3.756-.02 6.796-3.091 6.776-6.847l-.056-16.543c-.02-3.756-3.091-6.796-6.847-6.776z" fill="#5b5d60"/></g><g><g><path d="m188.957 48.65c-10.33-3.22-29.866-8.52-52.121-10.594-.031-.003-.062-.006-.094-.009-6.249-.58-12.546-.547-18.788.098-.031.003-.062.006-.093.01-22.232 2.305-41.712 7.808-52.008 11.135-4.146 1.34-6.304 5.886-4.727 9.948 17.108 44.08 15.74 100.452 14.665 119.621 9.394-.049 19.254-.1 29.355-.153-.644-1.75-1.017-3.63-1.028-5.6l-.056-16.543c-.047-9.122 7.335-16.581 16.457-16.629l14.596-.056c9.122-.047 16.581 7.335 16.629 16.457l.056 16.543c.01 1.962-.341 3.839-.962 5.59 9.961-.052 19.867-.103 29.53-.154-1.274-19.157-3.228-75.512 13.42-119.767 1.534-4.077-.671-8.6-4.831-9.897z" fill="#87d147"/></g></g><g><path d="m149.762 148.586c1.248 2.31 1.968 4.946 1.983 7.75l.056 16.543c.01 1.962-.341 3.839-.962 5.59 9.961-.052 19.867-.103 29.53-.154-.426-6.409-.925-16.994-.782-29.884z" fill="#5b5d60"/></g><g><path d="m105.146 178.706c-.644-1.75-1.017-3.63-1.028-5.6l-.056-16.543c-.015-2.796.675-5.432 1.892-7.75l-29.693.154c.278 12.888-.111 23.478-.471 29.891 9.395-.048 19.255-.099 29.356-.152z" fill="#5b5d60"/></g><g><path d="m220.242 156.75c-3.385-1.221-7.114.526-8.346 3.902-.034.092-1.804 4.786-5.543 9.314-4.521 5.474-9.838 8.265-15.804 8.296-12.822.067-26.214.136-39.711.207-2.265 6.39-8.335 11.001-15.495 11.039l-14.596.056c-7.152.037-13.264-4.502-15.601-10.857-13.823.072-27.189.141-39.536.206-5.966.031-11.312-2.705-15.889-8.131-3.786-4.488-5.604-9.164-5.639-9.256-1.267-3.362-5.014-5.071-8.386-3.815-3.378 1.258-5.096 5.017-3.837 8.395.246.661 2.551 6.633 7.575 12.721 7.138 8.648 16.214 13.192 26.246 13.14 13.744-.072 110.847-.577 124.939-.65 10.032-.052 19.06-4.69 26.107-13.412 4.961-6.139 7.203-12.135 7.442-12.799 1.222-3.392-.535-7.132-3.926-8.356z" fill="#b2e26d"/></g><g><path d="m245.313 91.057c-2.05-3.726-6.873-4.967-10.559-2.846l-.952.548c-.22.126-.5.051-.627-.169l-.548-.952c-2.121-3.687-6.914-5.038-10.559-2.847-3.533 2.123-4.729 6.694-2.665 10.282l7.511 13.055c.5.869 1.611 1.169 2.48.669l13.055-7.511c3.588-2.065 4.851-6.618 2.864-10.229z" fill="#87d147"/></g><g><path d="m243.768 129.904c3.633-1.216 5.511-5.291 4.225-8.9l-.332-.932c-.077-.215.036-.452.251-.528l.932-.332c3.61-1.285 5.58-5.316 4.226-8.9-1.312-3.473-5.17-5.271-8.684-4.02l-12.782 4.552c-.851.303-1.296 1.239-.992 2.09l4.552 12.782c1.252 3.513 5.083 5.367 8.604 4.188z" fill="#b2e26d"/></g><g><path d="m203.877 119.15c-2.53-2.878-2.105-7.344.821-9.818l.756-.639c.174-.147.196-.408.049-.583l-.639-.756c-2.474-2.925-2.152-7.4.82-9.818 2.88-2.343 7.119-1.958 9.527.89l8.762 10.36c.584.69.497 1.722-.193 2.306l-10.36 8.762c-2.847 2.408-7.091 2.085-9.543-.704z" fill="#b2e26d"/></g><g><path d="m10.687 91.057c2.05-3.726 6.873-4.967 10.559-2.846l.952.548c.22.126.5.051.627-.169l.548-.952c2.121-3.687 6.914-5.038 10.559-2.847 3.533 2.123 4.729 6.694 2.665 10.282l-7.511 13.055c-.5.869-1.611 1.169-2.48.669l-13.055-7.511c-3.588-2.065-4.851-6.618-2.864-10.229z" fill="#87d147"/></g><g><path d="m12.232 129.904c-3.633-1.216-5.511-5.291-4.225-8.9l.332-.932c.077-.215-.036-.452-.251-.528l-.932-.332c-3.61-1.285-5.58-5.316-4.226-8.9 1.312-3.473 5.17-5.271 8.684-4.02l12.782 4.552c.851.303 1.296 1.239.992 2.09l-4.552 12.782c-1.252 3.513-5.083 5.367-8.604 4.188z" fill="#b2e26d"/></g><g><path d="m52.123 119.15c2.53-2.878 2.105-7.344-.821-9.818l-.756-.639c-.174-.147-.196-.408-.049-.583l.639-.756c2.474-2.925 2.152-7.4-.82-9.818-2.88-2.343-7.119-1.958-9.527.89l-8.762 10.36c-.584.69-.497 1.722.193 2.306l10.36 8.762c2.847 2.408 7.091 2.085 9.543-.704z" fill="#b2e26d"/></g><g><g><path d="m135.343 189.507-14.596.056c-9.122.047-16.581-7.335-16.629-16.457l-.056-16.543c-.047-9.122 7.335-16.581 16.457-16.629l14.596-.056c9.122-.047 16.581 7.335 16.629 16.457l.056 16.543c.047 9.123-7.335 16.582-16.457 16.629zm-14.773-39.841c-3.756.02-6.796 3.091-6.776 6.847l.056 16.543c.02 3.756 3.091 6.796 6.847 6.776l14.596-.056c3.756-.02 6.796-3.091 6.776-6.847l-.056-16.543c-.02-3.756-3.091-6.796-6.847-6.776z" fill="#f5c84c"/></g></g><g><g><path d="m75.835 180.596c-.045 0-.09-.001-.136-.003-1.379-.074-2.437-1.251-2.363-2.63 3.417-63.721-9.031-103.622-14.541-117.82-1-2.577-.894-5.484.292-7.977 1.202-2.527 3.332-4.393 5.997-5.254 9.866-3.188 29.809-8.889 52.519-11.244.008 0 .11-.011.118-.012 6.367-.657 12.853-.691 19.252-.098 22.822 2.126 42.826 7.619 52.727 10.705 2.674.833 4.823 2.678 6.052 5.192 1.211 2.48 1.348 5.386.375 7.973-5.359 14.246-17.386 54.254-13.318 117.91.088 1.378-.958 2.566-2.335 2.655-1.387.081-2.567-.958-2.655-2.335-1.375-21.528-2.801-76.316 13.628-119.99.498-1.323.431-2.75-.188-4.018-.618-1.265-1.7-2.193-3.047-2.613-9.714-3.027-29.336-8.416-51.608-10.492-6.167-.571-12.324-.54-18.393.087-.008.001-.109.011-.117.012-22.231 2.306-41.792 7.898-51.473 11.026-1.342.434-2.414 1.373-3.019 2.644-.606 1.274-.658 2.702-.146 4.02 16.892 43.523 16.029 98.346 14.874 119.896-.072 1.333-1.176 2.366-2.495 2.366z"/></g></g><g><path d="m150.166 151.084c-1.375 0-2.492-1.111-2.5-2.487-.007-1.381 1.106-2.506 2.487-2.513l28.834-.15h.014c1.375 0 2.492 1.111 2.5 2.487.007 1.381-1.106 2.506-2.487 2.513l-28.834.15c-.005 0-.01 0-.014 0z"/></g><g><path d="m76.624 151.466c-1.375 0-2.492-1.111-2.5-2.487-.007-1.381 1.106-2.506 2.487-2.513l28.917-.15h.014c1.375 0 2.492 1.111 2.5 2.487.007 1.381-1.106 2.506-2.487 2.513l-28.917.15c-.005 0-.01 0-.014 0z"/></g><g><path d="m65.507 194.466c-10.735 0-20.414-4.855-28.003-14.049-5.285-6.403-7.729-12.738-7.99-13.439-.842-2.259-.753-4.711.249-6.904s2.799-3.864 5.059-4.706c4.648-1.732 9.851.637 11.598 5.276.011.026 1.726 4.393 5.211 8.525 4.055 4.807 8.725 7.244 13.881 7.244h.084l39.078-.203h.014c1.375 0 2.492 1.111 2.5 2.487.007 1.381-1.106 2.506-2.487 2.513l-39.078.203c-.038 0-.077 0-.115 0-6.696 0-12.65-3.034-17.699-9.02-4.063-4.816-5.983-9.765-6.063-9.974-.784-2.083-3.105-3.138-5.179-2.366-1.008.375-1.809 1.121-2.256 2.099s-.486 2.072-.111 3.08c.231.621 2.396 6.23 7.161 12.002 6.606 8.004 14.955 12.232 24.149 12.232h.155l124.938-.65c9.256-.048 17.616-4.365 24.176-12.484 4.703-5.821 6.811-11.453 7.035-12.076.365-1.012.314-2.105-.143-3.079s-1.267-1.71-2.278-2.076c-2.082-.749-4.391.329-5.149 2.407-.082.22-1.945 5.182-5.964 10.049-5.015 6.073-10.977 9.169-17.719 9.204l-39.174.204c-.004 0-.009 0-.014 0-1.375 0-2.492-1.111-2.5-2.487-.007-1.38 1.106-2.505 2.487-2.513l39.174-.204c5.19-.027 9.863-2.512 13.889-7.388 3.443-4.169 5.112-8.552 5.128-8.596 1.694-4.642 6.873-7.064 11.537-5.38 2.269.818 4.082 2.471 5.107 4.653 1.025 2.183 1.139 4.634.321 6.902-.254.704-2.632 7.064-7.85 13.521-7.536 9.326-17.231 14.285-28.039 14.341l-124.939.65c-.059.002-.12.002-.181.002z"/></g><g><path d="m228.495 111.54c-.377 0-.756-.05-1.13-.151-1.113-.3-2.043-1.016-2.618-2.016l-7.51-13.054c-2.72-4.729-1.131-10.861 3.543-13.671 2.303-1.385 5.028-1.769 7.667-1.084 2.373.616 4.466 2.077 5.862 4.066 2.207-1.018 4.75-1.229 7.111-.568 2.628.736 4.788 2.437 6.083 4.792 2.628 4.778.92 10.879-3.809 13.6l-13.055 7.51c-.662.38-1.398.576-2.144.576zm-2.61-25.306c-.892 0-1.76.236-2.529.698-2.356 1.417-3.157 4.509-1.785 6.893l7.17 12.462 12.462-7.169c2.384-1.372 3.246-4.447 1.921-6.856-.643-1.168-1.726-2.016-3.05-2.387-1.367-.382-2.852-.2-4.072.502l-.952.548c-.685.395-1.483.5-2.248.292-.764-.206-1.401-.698-1.794-1.384l-.546-.949c-.702-1.22-1.893-2.124-3.269-2.481-.436-.113-.875-.169-1.308-.169zm9.454 1.103.003.005c-.001-.001-.002-.003-.003-.005z"/></g><g><path d="m241.637 132.752c-3.844 0-7.476-2.401-8.828-6.197l-4.552-12.782c-.765-2.149.361-4.519 2.509-5.284l12.782-4.551c4.752-1.697 10.077.769 11.861 5.491.879 2.327.779 4.871-.282 7.162-.924 1.995-2.528 3.619-4.485 4.573.498 2.12.253 4.389-.709 6.366-1.105 2.271-3.013 3.956-5.372 4.745-.965.323-1.952.477-2.924.477zm-8.379-19.843 4.262 11.968c.787 2.208 3.232 3.399 5.455 2.656 1.076-.36 1.95-1.138 2.463-2.192.531-1.091.605-2.366.201-3.499l-.332-.933c-.261-.732-.221-1.524.113-2.228.334-.703.921-1.233 1.654-1.494l.932-.332c1.132-.403 2.074-1.266 2.584-2.368.492-1.063.543-2.233.142-3.293-.828-2.192-3.296-3.336-5.506-2.548z"/></g><g><path d="m209.021 123.952c-2.601 0-5.19-1.069-7.021-3.151-1.643-1.869-2.445-4.284-2.259-6.802.162-2.192 1.091-4.278 2.586-5.86-1.212-1.809-1.782-4.019-1.578-6.207.234-2.515 1.426-4.764 3.356-6.334 3.917-3.184 9.754-2.64 13.014 1.215l8.762 10.359c1.472 1.741 1.254 4.355-.486 5.829l-10.361 8.762c-1.737 1.469-3.88 2.189-6.013 2.189zm.963-25.438c-.962 0-1.928.315-2.724.962-.88.716-1.424 1.752-1.533 2.919-.113 1.208.268 2.428 1.044 3.345l.639.756c1.037 1.227.884 3.068-.343 4.106l-.757.64c-.917.775-1.495 1.915-1.584 3.125-.086 1.168.278 2.281 1.027 3.132 1.547 1.759 4.261 1.959 6.05.445l9.7-8.204-8.204-9.7c-.849-1.005-2.078-1.526-3.315-1.526z"/></g><g><path d="m213.593 142.619c-.58 0-1.161-.2-1.634-.608-1.044-.903-1.16-2.482-.257-3.526 10.052-11.629 13.858-28.01 13.896-28.174.306-1.347 1.646-2.19 2.992-1.884 1.347.306 2.19 1.646 1.884 2.992-.164.72-4.129 17.773-14.988 30.336-.495.571-1.193.864-1.893.864z"/></g><g><path d="m27.505 111.54c-.746 0-1.482-.195-2.146-.577l-13.054-7.51c-4.729-2.721-6.437-8.822-3.809-13.6 1.295-2.354 3.456-4.056 6.083-4.792 2.361-.661 4.904-.449 7.111.568 1.396-1.989 3.489-3.45 5.862-4.066 2.642-.685 5.365-.299 7.667 1.084 4.675 2.81 6.264 8.943 3.544 13.671l-7.511 13.055c-.575 1-1.504 1.715-2.618 2.015-.372.102-.752.152-1.129.152zm.348-4.912h.01zm-14.976-14.366c-1.325 2.409-.463 5.484 1.921 6.856l12.462 7.169 7.17-12.462c1.372-2.384.571-5.477-1.786-6.893-1.143-.686-2.503-.875-3.836-.53-1.375.357-2.567 1.261-3.269 2.481l-.548.952c-.392.683-1.029 1.175-1.792 1.381-.764.208-1.562.103-2.248-.292l-.951-.547c-1.22-.702-2.705-.885-4.072-.502-1.325.371-2.408 1.219-3.051 2.387zm7.782-4.921c-.001.001-.002.003-.003.005z"/></g><g><path d="m14.363 132.752c-.973 0-1.958-.153-2.924-.477-2.359-.789-4.267-2.475-5.372-4.745-.962-1.977-1.207-4.246-.709-6.366-1.957-.954-3.561-2.578-4.485-4.573-1.061-2.292-1.161-4.835-.282-7.163 1.783-4.722 7.104-7.188 11.861-5.491l12.781 4.551c2.148.765 3.274 3.135 2.51 5.283l-4.552 12.783c-1.353 3.797-4.984 6.198-8.828 6.198zm-5.026-24.353c-1.755 0-3.418 1.075-4.069 2.796-.401 1.061-.351 2.231.142 3.294.51 1.102 1.452 1.964 2.584 2.368l.933.332c.732.261 1.32.791 1.654 1.494.334.704.375 1.496.113 2.229l-.332.931c-.403 1.133-.33 2.408.201 3.499.513 1.054 1.387 1.832 2.463 2.192 2.221.743 4.668-.448 5.455-2.656l4.262-11.968-11.968-4.262c-.474-.169-.96-.249-1.438-.249z"/></g><g><path d="m46.979 123.952c-2.134 0-4.276-.72-6.014-2.189l-10.36-8.762c-1.741-1.474-1.959-4.088-.487-5.829l8.762-10.359c3.26-3.855 9.096-4.4 13.014-1.215 1.93 1.57 3.122 3.82 3.356 6.334.204 2.188-.366 4.398-1.579 6.207 1.496 1.583 2.425 3.668 2.587 5.86.186 2.518-.616 4.934-2.259 6.802-1.829 2.082-4.418 3.151-7.02 3.151zm-12.485-14.211 9.7 8.204c1.791 1.513 4.504 1.314 6.05-.445.749-.852 1.114-1.964 1.027-3.132-.089-1.21-.667-2.35-1.585-3.126l-.755-.638c-1.228-1.039-1.381-2.88-.343-4.107l.638-.755c.776-.918 1.157-2.137 1.044-3.346-.108-1.167-.653-2.203-1.533-2.919-1.817-1.479-4.526-1.224-6.041.565z"/></g><g><path d="m42.407 142.619c-.701 0-1.398-.293-1.893-.865-10.859-12.563-14.825-29.617-14.988-30.336-.306-1.346.537-2.684 1.883-2.991 1.35-.305 2.685.537 2.993 1.882.038.165 3.871 16.578 13.896 28.176.903 1.044.788 2.623-.257 3.526-.473.408-1.055.608-1.634.608z"/></g><g><path d="m44.35 63.55c-3.1-.6-5.6-3-6.2-6.1 0-.1-.3-.1-.3 0-.6 3.1-3.1 5.5-6.2 6.1-.1 0-.1.2 0 .3 3.1.6 5.6 3 6.2 6.1 0 .1.3.1.3 0 .6-3.1 3.1-5.5 6.2-6.1.1-.1.1-.3 0-.3z" fill="#f5c84c"/></g><g><path d="m218.9 52.25h2.3v2.3c0 1.8 1.4 3.2 3.2 3.2 1.7 0 3.2-1.4 3.2-3.1v-.1-2.3h2.3c1.8 0 3.2-1.4 3.2-3.2 0-1.7-1.4-3.2-3.1-3.2h-.1-2.3v-2.3c0-1.8-1.4-3.2-3.2-3.2-1.7 0-3.2 1.4-3.2 3.1v.1 2.3h-2.3c-1.8 0-3.2 1.4-3.2 3.2-.1 1.7 1.3 3.2 3.2 3.2-.1 0-.1 0 0 0z" fill="#70d6f9"/></g><g><circle cx="202.3" cy="28.25" fill="#87d147" r="3.4"/></g><g><circle cx="119.3" cy="227.75" fill="#f5c84c" r="3.4"/></g><g><path d="m140.7 216.55c4.5-.8 8-4.3 8.9-8.7 0-.2.4-.2.4 0 .9 4.4 4.4 7.9 8.9 8.7.2 0 .2.3 0 .4-4.5.8-8 4.3-8.9 8.7 0 .2-.4.2-.4 0-.9-4.4-4.4-7.9-8.9-8.7-.2-.1-.2-.4 0-.4z" fill="#fc657e"/></g><g><g><path d="m120.656 192.063c-10.452 0-18.984-8.477-19.038-18.943l-.056-16.547c-.055-10.496 8.443-19.083 18.943-19.137l14.6-.056h.101c10.451 0 18.983 8.477 19.038 18.943l.056 16.548c.026 5.075-1.931 9.865-5.513 13.484s-8.351 5.626-13.431 5.653c-.001 0-.002 0-.003 0l-14.596.056c-.034-.001-.068-.001-.101-.001zm14.687-2.556h.01zm-.14-47.128c-.025 0-.049 0-.074 0l-14.6.056c-7.74.04-14.006 6.373-13.966 14.116l.056 16.547c.02 3.739 1.5 7.256 4.17 9.898 2.669 2.642 6.229 4.081 9.946 4.067l14.596-.056c3.744-.02 7.261-1.5 9.903-4.17s4.086-6.202 4.066-9.945l-.056-16.548c-.02-3.739-1.5-7.256-4.17-9.898-2.652-2.624-6.155-4.067-9.871-4.067zm-14.547 39.953c-2.462 0-4.786-.956-6.543-2.695-1.77-1.751-2.751-4.083-2.764-6.568l-.056-16.547c-.013-2.479.944-4.822 2.695-6.592 1.751-1.769 4.084-2.75 6.568-2.764h.003l14.597-.056c2.483.028 4.824.944 6.593 2.696 1.769 1.751 2.75 4.083 2.764 6.567l.056 16.547c.027 5.13-4.128 9.329-9.263 9.355l-14.6.056c-.017.001-.033.001-.05.001zm-.073-30.166c-1.149.006-2.229.461-3.04 1.281-.812.82-1.255 1.904-1.25 3.053l.056 16.547c.006 1.144.461 2.224 1.281 3.036.815.806 1.89 1.249 3.03 1.249h.023l14.6-.056c2.374-.012 4.298-1.957 4.286-4.334l-.056-16.547c-.006-1.144-.461-2.224-1.281-3.036-.814-.806-1.89-1.249-3.03-1.249-.008 0-.016 0-.023 0z"/></g></g></g></svg>