<svg enable-background="new 0 0 256 256" height="512" viewBox="0 0 256 256" width="512" xmlns="http://www.w3.org/2000/svg"><g id="Layer_35"><g><g><path d="m50.429 208.3c-1.484-1.992-3.724-3.278-6.208-3.278h-.664c-5.895 0-10.674-4.779-10.674-10.674 0-1.577 1.278-2.855 2.855-2.855h21.734c-2.009-2.557-3.217-5.773-3.217-9.277 0-8.309 6.736-15.045 15.045-15.045.896 0 1.768.095 2.621.246v-44.409c0-3.977-.926-7.899-2.704-11.456l-13.875-27.75c-1.957-3.915-2.976-8.231-2.976-12.608v-39.19c-.743.442-1.599.713-2.522.713h-16.015c-.923 0-1.779-.271-2.522-.713v39.19c0 4.377-1.019 8.694-2.976 12.608l-13.874 27.748c-1.779 3.557-2.704 7.479-2.704 11.456v80.101c0 4.794 3.886 8.68 8.68 8.68h36.908c-2.823 0-5.338-1.375-6.912-3.487z" fill="#818182"/></g><g><path d="m250.645 191.492h-214.907c-1.577 0-2.855 1.278-2.855 2.855 0 5.895 4.779 10.674 10.674 10.674h.664c2.484 0 4.724 1.286 6.208 3.278 1.575 2.112 4.089 3.487 6.911 3.487h171.703c2.822 0 5.337-1.375 6.911-3.487 1.484-1.992 3.724-3.278 6.208-3.278h.664c5.895 0 10.674-4.779 10.674-10.674 0-1.577-1.278-2.855-2.855-2.855z" fill="#dae6f1"/></g><g><path d="m219.829 99.091c.29 2.303-.768 4.573-2.563 6.045l-11.11 9.111c2.045 1.164 3.919 2.767 5.544 4.748s2.829 4.133 3.571 6.367l11.11-9.111c1.795-1.472 4.228-2.065 6.43-1.33 2.805.937 6.099.161 8.191-2.496 1.807-2.295 2.03-5.545.587-8.085-.89-1.567-2.215-2.657-3.705-3.248-1.82-.722-3.148-2.342-3.499-4.267-.288-1.578-1.097-3.09-2.46-4.27-2.208-1.913-5.438-2.331-8.043-1.008-3.016 1.532-4.422 4.61-4.053 7.544z" fill="#fce4be"/></g><g><path d="m198.164 82.24c.29 2.303-.768 4.573-2.563 6.045l-11.11 9.111c2.045 1.164 3.919 2.767 5.544 4.748s2.829 4.133 3.571 6.367l11.11-9.111c1.795-1.472 4.228-2.065 6.43-1.33 2.805.937 6.099.161 8.191-2.496 1.807-2.295 2.03-5.545.587-8.085-.89-1.567-2.215-2.657-3.705-3.248-1.82-.722-3.148-2.342-3.499-4.267-.288-1.578-1.097-3.09-2.46-4.27-2.208-1.913-5.438-2.331-8.043-1.008-3.016 1.532-4.422 4.61-4.053 7.544z" fill="#fce4be"/></g><g><path d="m163.983 124.168c3.103-1.388 6.394-2.166 9.705-2.324 4.631-.22 9.032-1.869 12.604-4.825.032-.026.064-.053.096-.079 2.682-2.199 5.386-3.565 8.028-4.256-.213-3.713-1.76-7.346-4.38-10.54-6.178-7.533-15.897-9.777-25.313-2.055-.032.026-.064.053-.096.079-3.571 2.957-7.972 4.605-12.604 4.825-4.841.23-9.647 1.758-13.871 4.642 9.979 2.345 18.872 7.474 25.831 14.533z" fill="#754e34"/></g><g><path d="m78.102 191.492c-1.743-2.453-2.783-5.437-2.783-8.676 0-4.357 1.863-8.27 4.823-11.017-2.738-2.849-6.578-4.63-10.841-4.63-8.309 0-15.045 6.736-15.045 15.045 0 3.504 1.208 6.72 3.217 9.277h20.629z" fill="#fc8c48"/></g><g><path d="m110.928 179.609c1.48.05 2.794-.9 3.147-2.338 1.311-5.336 7.101-8.379 12.217-6.617 1.357.468 2.863-.048 3.607-1.276 2.927-4.828 9.649-5.939 13.998-2.389 1.127.92 2.738.92 3.865 0 1.616-1.319 3.559-1.992 5.512-2.072-8.462-11.573-6.541-27.843 4.63-37.004 1.895-1.554 3.943-2.789 6.077-3.744-10.401-10.551-25.126-16.825-41.319-15.881-27.054 1.577-48.914 23.617-50.284 50.683-.148 2.915-.056 5.78.246 8.582 2.919.66 5.513 2.164 7.516 4.248 2.685-2.492 6.27-4.028 10.222-4.028 7.782 0 14.183 5.909 14.964 13.485 1.616-1.102 3.563-1.717 5.602-1.649z" fill="#a57453"/></g><g><path d="m205.354 147.695c-1.831 2.353-3.158 5.074-3.892 8.019-1.355 5.427-4.389 10.474-9.041 14.288-4.5 3.69-9.839 5.676-15.243 6.049.158.393.3.796.404 1.219.354 1.438 1.667 2.389 3.147 2.339 5.089-.171 9.633 3.862 9.742 9.254.018.905-.102 1.788-.333 2.629h38.765l.234-.995c4.316-18.354-6.256-36.884-23.783-42.802z" fill="#a57453"/></g><g><path d="m211.7 118.995c-6.178-7.533-15.896-9.777-25.313-2.055-.032.026-.064.053-.096.079-3.572 2.957-7.973 4.605-12.604 4.825-5.587.266-11.131 2.253-15.782 6.067-11.171 9.161-13.093 25.431-4.63 37.004 3.306-.136 6.644 1.428 8.484 4.46.745 1.227 2.25 1.745 3.607 1.276 4.718-1.63 9.981.843 11.813 5.399 5.404-.374 10.742-2.359 15.242-6.049 4.651-3.814 7.686-8.861 9.041-14.288 1.123-4.498 3.601-8.491 7.2-11.415.032-.026.064-.052.096-.079 9.417-7.721 9.12-17.691 2.942-25.224z" fill="#c18e6b"/></g><g><path d="m101.188 188.855c.067-3.228 1.729-5.958 4.139-7.6-.781-7.576-7.182-13.485-14.964-13.485-8.309 0-15.045 6.736-15.045 15.045 0 3.234 1.03 6.223 2.767 8.676h23.436c-.231-.843-.351-1.728-.333-2.636z" fill="#f5c84c"/></g><g><path d="m190.139 191.492c.231-.842.351-1.724.333-2.629-.108-5.392-4.652-9.425-9.742-9.254-1.48.05-2.793-.901-3.147-2.339-1.312-5.325-7.091-8.388-12.217-6.618-1.357.469-2.862-.049-3.607-1.276-2.927-4.825-9.648-5.939-13.997-2.388-1.127.92-2.738.92-3.865 0-4.349-3.55-11.07-2.439-13.998 2.389-.744 1.228-2.25 1.744-3.607 1.276-5.116-1.762-10.906 1.282-12.217 6.617-.353 1.438-1.667 2.388-3.147 2.338-5.085-.17-9.628 3.856-9.74 9.247-.019.908.101 1.792.333 2.636h88.618z" fill="#87d147"/></g><g><path d="m49.844 32.717h-16.015c-2.741 0-4.984-2.243-4.984-4.984v-10.545c0-2.741 2.243-4.984 4.984-4.984h16.015c2.741 0 4.984 2.243 4.984 4.984v10.545c0 2.741-2.243 4.984-4.984 4.984z" fill="#fc657e"/></g><g><path d="m49.844 32.717h-16.015c-.923 0-1.779-.271-2.522-.713v39.19c0 3.577-.692 7.11-2.009 10.42 3.374 2.889 7.748 4.644 12.538 4.644s9.164-1.755 12.538-4.644c-1.317-3.31-2.009-6.843-2.009-10.42v-39.19c-.742.442-1.598.713-2.521.713z" fill="#f98fa6"/></g><g><path d="m61.416 169.418v-31.477c0-2.225-1.804-4.029-4.029-4.029h-31.101c-2.225 0-4.029 1.804-4.029 4.029v38.161c0 2.225 1.804 4.029 4.029 4.029h28.131c.629-4.532 3.27-8.41 6.999-10.713z" fill="#f5c84c"/></g><g><path d="m33.829 32.717c-.923 0-1.779-.271-2.522-.713v33.104h21.059v-33.104c-.743.442-1.599.713-2.522.713z" fill="#ef4460"/></g><g><path d="m12.775 79.196c-3.1-.6-5.6-3-6.2-6.1 0-.1-.3-.1-.3 0-.6 3.1-3.1 5.5-6.2 6.1-.1 0-.1.2 0 .3 3.1.6 5.6 3 6.2 6.1 0 .1.3.1.3 0 .6-3.1 3.1-5.5 6.2-6.1.1-.1.1-.3 0-.3z" fill="#87d147"/></g><g><path d="m112.9 65.896h2.3v2.3c0 1.8 1.4 3.2 3.2 3.2 1.7 0 3.2-1.4 3.2-3.1v-.1-2.3h2.3c1.8 0 3.2-1.4 3.2-3.2 0-1.7-1.4-3.2-3.1-3.2h-.1-2.3v-2.3c0-1.8-1.4-3.2-3.2-3.2-1.7 0-3.2 1.4-3.2 3.1v.1 2.3h-2.3c-1.8 0-3.2 1.4-3.2 3.2-.1 1.7 1.3 3.2 3.2 3.2-.1 0-.1 0 0 0z" fill="#70d6f9"/></g><g><circle cx="115.3" cy="242.896" fill="#fc657e" r="3.4"/></g><g><circle cx="147.3" cy="45.396" fill="#f5c84c" r="3.4"/></g><g><path d="m138.7 233.196c4.5-.8 8-4.3 8.9-8.7 0-.2.4-.2.4 0 .9 4.4 4.4 7.9 8.9 8.7.2 0 .2.3 0 .4-4.5.8-8 4.3-8.9 8.7 0 .2-.4.2-.4 0-.9-4.4-4.4-7.9-8.9-8.7-.2-.1-.2-.4 0-.4z" fill="#f5c84c"/></g><g><path d="m56.417 214.287h-35.985c-6.164 0-11.18-5.015-11.18-11.18v-80.101c0-4.342 1.026-8.69 2.968-12.574l13.875-27.749c1.774-3.548 2.712-7.521 2.712-11.49v-38.476c0-1.381 1.119-2.5 2.5-2.5s2.5 1.119 2.5 2.5v38.476c0 4.741-1.12 9.487-3.239 13.726l-13.875 27.749c-1.597 3.193-2.44 6.768-2.44 10.338v80.101c0 3.408 2.772 6.18 6.18 6.18h35.985c1.381 0 2.5 1.119 2.5 2.5s-1.12 2.5-2.501 2.5z"/></g><g><path d="m71.921 169.479c-1.381 0-2.5-1.119-2.5-2.5v-43.973c0-3.57-.844-7.145-2.44-10.338l-13.875-27.748c-2.12-4.238-3.24-8.985-3.24-13.727v-38.476c0-1.381 1.119-2.5 2.5-2.5s2.5 1.119 2.5 2.5v38.476c0 3.969.938 7.942 2.713 11.49l13.874 27.748c1.941 3.884 2.968 8.232 2.968 12.574v43.973c0 1.381-1.119 2.501-2.5 2.501z"/></g><g><path d="m229.042 214.287h-171.702c-3.486 0-6.819-1.68-8.916-4.493-1.076-1.444-2.608-2.272-4.203-2.272h-.664c-7.265 0-13.175-5.91-13.175-13.174 0-2.953 2.402-5.355 5.355-5.355h214.907c2.953 0 5.355 2.402 5.355 5.355 0 7.264-5.91 13.174-13.175 13.174h-.663c-1.596 0-3.128.828-4.204 2.272-2.096 2.813-5.429 4.493-8.915 4.493zm-193.305-20.295c-.196 0-.355.16-.355.355 0 4.507 3.667 8.174 8.175 8.174h.664c3.189 0 6.184 1.562 8.213 4.284 1.157 1.554 2.991 2.481 4.906 2.481h171.702c1.915 0 3.749-.927 4.906-2.481 2.029-2.723 5.023-4.284 8.214-4.284h.663c4.508 0 8.175-3.667 8.175-8.174 0-.196-.159-.355-.355-.355z"/></g><g><path d="m215.648 127.552c-.723 0-1.439-.312-1.935-.915-.875-1.068-.72-2.643.349-3.519l10.733-8.802c2.517-2.065 5.893-2.742 8.807-1.768 1.979.661 4.114.006 5.436-1.671 1.177-1.496 1.328-3.626.376-5.302-.568-1.002-1.417-1.749-2.453-2.16-2.604-1.032-4.535-3.386-5.037-6.143-.199-1.095-.766-2.074-1.637-2.828-1.456-1.261-3.575-1.532-5.274-.668-1.902.966-2.964 2.93-2.703 5.002.384 3.049-.94 6.226-3.458 8.29l-10.647 8.731c-1.065.875-2.641.72-3.519-.348-.875-1.068-.72-2.643.349-3.519l10.647-8.731c1.199-.984 1.838-2.44 1.667-3.799-.527-4.192 1.592-8.151 5.4-10.085 3.488-1.773 7.836-1.231 10.812 1.347 1.74 1.508 2.876 3.482 3.282 5.71.196 1.074.947 1.99 1.961 2.392 2.107.835 3.821 2.336 4.958 4.339 1.945 3.422 1.626 7.789-.796 10.865-2.643 3.355-6.937 4.658-10.947 3.321-1.296-.437-2.852-.093-4.053.891l-10.733 8.802c-.465.383-1.026.568-1.585.568z"/></g><g><path d="m194.071 110.63c-.723 0-1.439-.312-1.935-.915-.875-1.068-.72-2.643.349-3.519l10.646-8.73c2.516-2.065 5.892-2.742 8.807-1.768 1.979.661 4.114.006 5.436-1.671 1.177-1.496 1.328-3.626.376-5.302-.569-1.002-1.417-1.749-2.453-2.16-2.604-1.032-4.535-3.386-5.037-6.143-.199-1.095-.766-2.074-1.637-2.828-1.455-1.261-3.575-1.531-5.274-.668-1.902.966-2.964 2.93-2.703 5.002.384 3.049-.94 6.226-3.458 8.29l-10.717 8.789c-1.065.875-2.642.72-3.518-.348s-.721-2.643.348-3.519l10.717-8.789c1.199-.984 1.838-2.44 1.667-3.799-.527-4.192 1.592-8.151 5.4-10.085 3.489-1.773 7.836-1.23 10.812 1.347 1.74 1.508 2.876 3.482 3.282 5.71.196 1.074.947 1.99 1.961 2.392 2.106.835 3.821 2.335 4.958 4.338 1.945 3.423 1.626 7.79-.796 10.865-2.642 3.355-6.938 4.658-10.947 3.321-1.297-.436-2.852-.093-4.053.891l-10.646 8.73c-.466.383-1.026.569-1.585.569z"/></g><g><path d="m194.331 114.26c-1.251 0-2.331-.937-2.48-2.209-.334-2.861-1.631-5.738-3.749-8.321-7.078-8.632-15.898-6.54-21.795-1.707l-1.681-1.854 1.594 1.926c-3.964 3.282-8.832 5.147-14.079 5.396-4.288.204-8.454 1.538-12.049 3.857-1.158.749-2.706.416-3.456-.745-.749-1.16-.415-2.708.745-3.456 4.334-2.796 9.355-4.405 14.522-4.65 4.157-.197 8.005-1.668 11.129-4.254.003-.002.102-.084.104-.086 9.755-8 21.074-7.057 28.832 2.403 2.726 3.325 4.402 7.098 4.849 10.911.16 1.372-.821 2.613-2.193 2.773-.099.01-.196.016-.293.016z"/></g><g><path d="m56.958 193.295c-.789 0-1.566-.373-2.053-1.069-2.061-2.955-3.15-6.417-3.15-10.011 0-9.674 7.871-17.545 17.546-17.545 4.467 0 8.726 1.688 11.992 4.753 1.007.945 1.057 2.527.112 3.534-.945 1.006-2.526 1.058-3.534.112-2.336-2.192-5.379-3.399-8.57-3.399-6.918 0-12.546 5.627-12.546 12.545 0 2.566.778 5.039 2.252 7.15.79 1.132.512 2.691-.62 3.481-.436.303-.935.449-1.429.449z"/></g><g><path d="m72.583 169.669c-1.268 0-2.354-.96-2.484-2.249-.287-2.843-.359-5.729-.216-8.578.694-13.707 6.459-26.682 16.232-36.534 9.775-9.854 22.703-15.72 36.403-16.518 15.977-.927 31.645 5.021 42.956 16.333.977.976.977 2.559 0 3.535-.977.977-2.559.977-3.535 0-10.303-10.303-24.563-15.719-39.13-14.876-25.582 1.491-46.637 22.713-47.933 48.313-.132 2.598-.065 5.23.196 7.823.139 1.374-.862 2.6-2.236 2.738-.084.01-.169.013-.253.013z"/></g><g><path d="m229.14 192.998c-.189 0-.382-.021-.574-.067-1.344-.316-2.178-1.662-1.861-3.006 3.962-16.854-5.36-33.922-21.685-39.701-1.302-.46-1.983-1.889-1.522-3.191s1.893-1.982 3.19-1.522c18.733 6.632 29.431 26.218 24.884 45.559-.271 1.151-1.299 1.928-2.432 1.928z"/></g><g><path d="m177.178 178.551c-1.015 0-1.937-.616-2.318-1.568-1.355-3.371-5.245-5.155-8.677-3.968-2.463.851-5.221-.134-6.561-2.342-1.284-2.118-3.679-3.376-6.244-3.26-.826.041-1.628-.349-2.12-1.022-9.296-12.71-7.071-30.462 5.063-40.413 4.922-4.036 10.887-6.329 17.248-6.631 4.158-.197 8.006-1.668 11.128-4.254l.107-.088c9.757-7.999 21.073-7.054 28.829 2.405 7.759 9.46 6.468 20.743-3.289 28.744l-.099.081c-3.153 2.561-5.35 6.046-6.357 10.085-1.542 6.179-4.959 11.579-9.882 15.616-4.755 3.9-10.514 6.186-16.654 6.61-.059.003-.117.005-.174.005zm-8.846-10.894c4.123 0 8.11 2.165 10.298 5.734 4.488-.608 8.68-2.431 12.206-5.322 4.085-3.35 6.92-7.832 8.2-12.96 1.272-5.097 4.057-9.506 8.05-12.75l.09-.074c5.893-4.833 9.67-13.074 2.592-21.705-7.081-8.634-15.902-6.541-21.796-1.708-.006.005-.08.067-.086.072-3.964 3.281-8.832 5.147-14.08 5.396-5.28.251-10.23 2.154-14.315 5.503-9.769 8.012-11.803 22.114-4.891 32.597 3.836.288 7.313 2.367 9.297 5.638.129.212.398.298.653.21 1.241-.428 2.518-.631 3.782-.631z"/></g><g><path d="m77.622 193.296c-.831 0-1.644-.414-2.118-1.17-1.757-2.794-2.686-6.014-2.686-9.31 0-9.675 7.871-17.545 17.545-17.545 8.605 0 16.063 6.408 17.347 14.906.206 1.365-.733 2.639-2.099 2.846-1.362.206-2.64-.733-2.845-2.099-.918-6.073-6.25-10.653-12.403-10.653-6.917 0-12.545 5.628-12.545 12.545 0 2.353.663 4.652 1.918 6.648.735 1.169.383 2.712-.785 3.447-.414.261-.874.385-1.329.385z"/></g><g><path d="m190.304 193.301c-.16 0-.323-.016-.486-.048-1.354-.267-2.236-1.582-1.97-2.936.093-.467.134-.939.125-1.403-.038-1.87-.805-3.605-2.158-4.889-1.353-1.28-3.162-1.975-5.001-1.918-2.656.106-5.021-1.652-5.658-4.239-.451-1.833-1.692-3.418-3.405-4.35-1.732-.942-3.763-1.125-5.567-.503-2.464.851-5.221-.134-6.561-2.342-1.013-1.668-2.733-2.821-4.724-3.164-2.006-.347-4.031.17-5.555 1.415-2.035 1.662-4.99 1.662-7.027 0-1.525-1.245-3.55-1.763-5.558-1.415-1.989.342-3.71 1.496-4.722 3.164-1.336 2.206-4.095 3.191-6.558 2.344-1.813-.625-3.847-.438-5.582.509-1.733.944-2.938 2.486-3.395 4.341-.634 2.587-2.991 4.33-5.658 4.24-1.838-.065-3.648.638-4.998 1.917-1.354 1.282-2.12 3.016-2.159 4.883-.007.321.011.647.053.971.176 1.37-.791 2.622-2.16 2.798-1.373.178-2.623-.791-2.799-2.161-.073-.57-.104-1.147-.092-1.715.066-3.213 1.388-6.199 3.719-8.407 2.314-2.192 5.422-3.392 8.604-3.284.237.01.558-.122.635-.435.784-3.19 2.919-5.938 5.856-7.54 2.97-1.618 6.469-1.926 9.604-.846.253.088.525.004.654-.208 1.762-2.906 4.732-4.911 8.148-5.499 3.436-.592 6.921.309 9.568 2.469.207.169.496.169.703 0 2.646-2.16 6.137-3.062 9.564-2.469 3.417.588 6.388 2.592 8.15 5.498.129.212.398.298.653.209 3.13-1.081 6.626-.776 9.59.837 2.943 1.602 5.084 4.352 5.871 7.545.077.314.375.43.635.438 3.146-.114 6.292 1.091 8.607 3.286 2.333 2.21 3.653 5.2 3.718 8.416.018.821-.056 1.653-.217 2.472-.232 1.194-1.277 2.019-2.447 2.019z"/></g><g><path d="m49.844 35.217h-16.015c-4.126 0-7.483-3.357-7.483-7.484v-10.545c0-4.126 3.357-7.483 7.483-7.483h16.015c4.127 0 7.484 3.357 7.484 7.483v10.545c0 4.126-3.357 7.484-7.484 7.484zm-16.015-20.512c-1.369 0-2.483 1.114-2.483 2.483v10.545c0 1.37 1.114 2.484 2.483 2.484h16.015c1.37 0 2.484-1.114 2.484-2.484v-10.545c0-1.369-1.114-2.483-2.484-2.483z"/></g><g><path d="m41.837 88.757c-4.963 0-9.646-1.636-13.54-4.73-1.081-.859-1.262-2.432-.402-3.513.859-1.081 2.434-1.261 3.512-.402 3.002 2.385 6.608 3.645 10.431 3.645 3.733 0 7.272-1.208 10.237-3.494 1.092-.843 2.663-.64 3.506.453.844 1.094.641 2.664-.453 3.507-3.848 2.966-8.443 4.534-13.291 4.534z"/></g><g><path d="m53.655 182.631h-27.369c-3.601 0-6.529-2.929-6.529-6.529v-38.161c0-3.6 2.929-6.529 6.529-6.529h31.102c3.6 0 6.528 2.929 6.528 6.529v30.997c0 1.381-1.119 2.5-2.5 2.5s-2.5-1.119-2.5-2.5v-30.997c0-.843-.686-1.529-1.528-1.529h-31.102c-.843 0-1.529.686-1.529 1.529v38.161c0 .843.687 1.529 1.529 1.529h27.369c1.381 0 2.5 1.119 2.5 2.5s-1.119 2.5-2.5 2.5z"/></g><g><path d="m51.531 67.608h-19.562c-1.381 0-2.5-1.119-2.5-2.5s1.119-2.5 2.5-2.5h19.563c1.381 0 2.5 1.119 2.5 2.5s-1.12 2.5-2.501 2.5z"/></g></g></g></svg>