<svg enable-background="new 0 0 256 256" height="512" viewBox="0 0 256 256" width="512" xmlns="http://www.w3.org/2000/svg"><g id="Layer_12"><g><g><path d="m195.914 157.93c-2.802 0-5.51.481-8.074 1.375-3.308 1.154-6.909 1.246-10.17-.037-2.843-1.118-5.877-1.723-9.027-1.723-16.122 0-29.191 15.821-29.191 35.337s13.069 35.337 29.191 35.337c.914 0 1.819-.051 2.711-.151 7.11-.797 14.265-.612 21.357.325 1.052.139 2.12.21 3.202.21 16.122 0 29.191-15.821 29.191-35.337s-13.068-35.336-29.19-35.336z" fill="#fc657e"/></g><g><path d="m81.337 127.895c-1.583-3.201-4.309-5.849-7.895-7.259-3.314-1.303-6.81-1.332-9.957-.329-4.124 1.313-8.535 1.314-12.659 0-3.147-1.002-6.644-.974-9.957.329-3.586 1.41-6.312 4.057-7.895 7.259-.48.972-.034 2.129.979 2.513 2.55.965 5.368 1.232 8.155.678.769-.153 1.416.608 1.127 1.337-1.114 2.809-1.436 5.804-1.028 8.688.191 1.354 1.541 2.22 2.861 1.863 3.883-1.05 7.415-3.459 9.807-7.08.011-.016.021-.032.032-.048 1.077-1.642 3.42-1.642 4.497 0 .011.016.021.032.032.048 2.392 3.621 5.924 6.03 9.807 7.08 1.32.357 2.67-.508 2.861-1.863.408-2.884.086-5.879-1.028-8.688-.289-.729.358-1.489 1.127-1.337 2.787.554 5.605.287 8.155-.678 1.014-.384 1.46-1.542.979-2.513z" fill="#87d147"/></g><g><path d="m152.182 127.895c-1.583-3.201-4.309-5.849-7.895-7.259-3.314-1.303-6.81-1.332-9.957-.329-4.124 1.313-8.535 1.314-12.659 0-3.147-1.002-6.644-.974-9.957.329-3.586 1.41-6.312 4.057-7.895 7.259-.48.972-.034 2.129.979 2.513 2.55.965 5.368 1.232 8.155.678.769-.153 1.416.608 1.127 1.337-1.114 2.809-1.436 5.804-1.028 8.688.191 1.354 1.541 2.22 2.861 1.863 3.883-1.05 7.415-3.459 9.807-7.08.011-.016.021-.032.032-.048 1.077-1.642 3.42-1.642 4.497 0 .011.016.021.032.032.048 2.392 3.621 5.924 6.03 9.807 7.08 1.32.357 2.67-.508 2.861-1.863.408-2.884.086-5.879-1.028-8.688-.289-.729.358-1.489 1.127-1.337 2.787.554 5.605.287 8.155-.678 1.013-.384 1.46-1.542.979-2.513z" fill="#87d147"/></g><g><path d="m152.182 23.492c-1.583-3.201-4.309-5.849-7.895-7.259-3.314-1.303-6.81-1.332-9.957-.329-4.124 1.313-8.535 1.314-12.659 0-3.147-1.002-6.644-.974-9.957.329-3.586 1.41-6.312 4.057-7.895 7.259-.48.972-.034 2.129.979 2.513 2.55.965 5.368 1.232 8.155.678.769-.153 1.416.608 1.127 1.337-1.114 2.809-1.436 5.804-1.028 8.688.191 1.354 1.541 2.22 2.861 1.863 3.883-1.05 7.415-3.459 9.807-7.08.011-.016.021-.032.032-.048 1.077-1.642 3.42-1.642 4.497 0 .011.016.021.032.032.048 2.392 3.621 5.924 6.03 9.807 7.08 1.32.357 2.67-.508 2.861-1.863.408-2.884.086-5.879-1.028-8.688-.289-.729.358-1.489 1.127-1.337 2.787.554 5.605.287 8.155-.678 1.013-.384 1.46-1.541.979-2.513z" fill="#87d147"/></g><g><path d="m223.027 127.895c-1.583-3.201-4.309-5.849-7.895-7.259-3.314-1.303-6.81-1.332-9.957-.329-4.124 1.313-8.535 1.314-12.659 0-3.147-1.002-6.644-.974-9.957.329-3.586 1.41-6.312 4.057-7.895 7.259-.48.972-.034 2.129.979 2.513 2.55.965 5.368 1.232 8.155.678.769-.153 1.416.608 1.127 1.337-1.114 2.809-1.436 5.804-1.028 8.688.191 1.354 1.541 2.22 2.861 1.863 3.883-1.05 7.415-3.459 9.807-7.08.011-.016.021-.032.032-.048 1.077-1.642 3.42-1.642 4.497 0 .011.016.021.032.032.048 2.392 3.621 5.924 6.03 9.807 7.08 1.32.357 2.67-.508 2.861-1.863.408-2.884.086-5.879-1.028-8.688-.289-.729.358-1.489 1.127-1.337 2.787.554 5.605.287 8.155-.678 1.013-.384 1.459-1.542.979-2.513z" fill="#87d147"/></g><g><path d="m116.76 75.693c-1.583-3.201-4.309-5.849-7.895-7.259-3.314-1.303-6.81-1.332-9.957-.329-4.124 1.313-8.535 1.314-12.659 0-3.147-1.002-6.644-.974-9.957.329-3.586 1.41-6.312 4.057-7.895 7.259-.48.972-.034 2.129.979 2.513 2.55.965 5.368 1.232 8.155.678.769-.153 1.416.608 1.127 1.337-1.114 2.809-1.436 5.804-1.028 8.688.191 1.354 1.541 2.22 2.861 1.863 3.883-1.05 7.415-3.459 9.807-7.08.011-.016.021-.032.032-.048 1.077-1.642 3.42-1.642 4.497 0 .011.016.021.032.032.048 2.392 3.621 5.924 6.03 9.807 7.08 1.32.357 2.67-.508 2.861-1.863.408-2.884.086-5.879-1.028-8.688-.289-.729.358-1.489 1.127-1.337 2.787.554 5.605.287 8.155-.678 1.013-.384 1.459-1.541.979-2.513z" fill="#87d147"/></g><g><path d="m187.604 75.693c-1.583-3.201-4.309-5.849-7.895-7.259-3.314-1.303-6.81-1.332-9.957-.329-4.124 1.313-8.535 1.314-12.659 0-3.147-1.002-6.644-.974-9.957.329-3.586 1.41-6.312 4.057-7.895 7.259-.48.972-.034 2.129.979 2.513 2.55.965 5.368 1.232 8.155.678.769-.153 1.416.608 1.127 1.337-1.114 2.809-1.436 5.804-1.028 8.688.191 1.354 1.541 2.22 2.861 1.863 3.883-1.05 7.415-3.459 9.807-7.08.011-.016.021-.032.032-.048 1.077-1.642 3.42-1.642 4.497 0 .011.016.021.032.032.048 2.392 3.621 5.924 6.03 9.807 7.08 1.32.357 2.67-.508 2.861-1.863.408-2.884.086-5.879-1.028-8.688-.289-.729.358-1.489 1.127-1.337 2.787.554 5.605.287 8.155-.678 1.014-.384 1.46-1.541.979-2.513z" fill="#87d147"/></g><g><g><path d="m98.907 68.105c3.147-1.002 6.644-.974 9.957.329 3.586 1.41 6.312 4.057 7.895 7.259.332.671.214 1.425-.22 1.958 4.377 2.005 8.239 5.261 11.321 9.387 3.081-4.245 6.975-7.605 11.406-9.679-.264-.498-.301-1.111-.026-1.666 1.583-3.201 4.309-5.849 7.895-7.259 3.314-1.303 6.81-1.332 9.957-.329 4.115 1.311 8.516 1.312 12.633.007.712-3.056 1.101-6.276 1.101-9.609 0-15.114-7.841-28.005-18.865-33.054-.194.238-.445.436-.759.555-2.55.965-5.368 1.232-8.155.678-.769-.153-1.416.608-1.127 1.337 1.114 2.809 1.436 5.804 1.028 8.688-.191 1.354-1.541 2.22-2.861 1.863-3.883-1.05-7.415-3.459-9.807-7.08-.011-.016-.021-.032-.032-.048-1.077-1.642-3.42-1.642-4.497 0-.011.016-.021.032-.032.048-2.392 3.621-5.924 6.03-9.807 7.08-1.32.357-2.67-.508-2.861-1.863-.408-2.884-.086-5.879 1.028-8.688.289-.729-.358-1.489-1.127-1.337-2.787.554-5.605.287-8.155-.678-.434-.164-.755-.474-.953-.846-10.921 5.112-18.671 17.938-18.671 32.962 0 3.482.423 6.842 1.198 10.019 4.089 1.275 8.453 1.267 12.536-.034z" fill="#f98fa6"/></g></g><g><g><path d="m134.33 120.307c3.147-1.002 6.644-.974 9.957.329 3.586 1.41 6.312 4.057 7.895 7.259.332.671.214 1.425-.22 1.958 4.377 2.005 8.239 5.261 11.321 9.387 3.081-4.245 6.975-7.605 11.406-9.679-.264-.498-.301-1.111-.026-1.666 1.583-3.201 4.309-5.849 7.895-7.259 3.314-1.303 6.81-1.332 9.957-.329 4.115 1.311 8.516 1.312 12.633.007.712-3.056 1.101-6.276 1.101-9.609 0-15.114-7.841-28.005-18.865-33.054-.194.238-.445.436-.759.555-2.55.965-5.368 1.232-8.155.678-.769-.153-1.416.608-1.127 1.337 1.114 2.809 1.436 5.804 1.028 8.688-.191 1.354-1.541 2.22-2.861 1.863-3.883-1.05-7.415-3.459-9.807-7.08-.011-.016-.021-.032-.032-.048-1.077-1.642-3.42-1.642-4.497 0-.011.016-.021.032-.032.048-2.392 3.621-5.924 6.03-9.807 7.08-1.32.357-2.67-.508-2.861-1.863-.408-2.884-.086-5.879 1.028-8.688.289-.729-.358-1.489-1.127-1.337-2.787.554-5.605.287-8.155-.678-.434-.164-.755-.474-.953-.846-10.921 5.112-18.671 17.937-18.671 32.962 0 3.482.423 6.842 1.198 10.019 4.088 1.274 8.453 1.266 12.536-.034z" fill="#fc657e"/></g></g><g><g><path d="m63.485 120.307c3.147-1.002 6.644-.974 9.957.329 3.586 1.41 6.312 4.057 7.895 7.259.332.671.214 1.425-.22 1.958 4.377 2.005 8.239 5.261 11.321 9.387 3.081-4.245 6.975-7.605 11.406-9.679-.264-.498-.301-1.111-.026-1.666 1.583-3.201 4.309-5.849 7.895-7.259 3.314-1.303 6.81-1.332 9.957-.329.039.012.079.021.119.033-.775-3.176-1.193-6.538-1.193-10.018 0-8.929 2.752-17.065 7.265-23.283-3.082-4.126-6.944-7.382-11.321-9.387-.194.238-.445.436-.759.555-2.55.965-5.368 1.232-8.155.678-.769-.153-1.416.608-1.127 1.337 1.114 2.809 1.436 5.804 1.028 8.688-.191 1.354-1.541 2.22-2.861 1.863-3.883-1.05-7.415-3.459-9.807-7.08-.011-.016-.021-.032-.032-.048-1.077-1.642-3.42-1.642-4.497 0-.011.016-.021.032-.032.048-2.392 3.621-5.924 6.03-9.807 7.08-1.32.357-2.67-.508-2.861-1.863-.408-2.884-.086-5.879 1.028-8.688.289-.729-.358-1.489-1.127-1.337-2.787.554-5.605.287-8.155-.678-.434-.164-.755-.474-.953-.846-10.921 5.112-18.671 17.937-18.671 32.962 0 3.482.423 6.842 1.198 10.019 4.088 1.273 8.452 1.265 12.535-.035z" fill="#ef4460"/></g></g><g><path d="m85.173 162.523c0-8.929 2.752-17.065 7.265-23.283-3.082-4.126-6.944-7.382-11.321-9.387-.194.238-.445.436-.759.555-2.55.965-5.368 1.232-8.155.678-.769-.153-1.416.608-1.127 1.337 1.114 2.809 1.436 5.804 1.028 8.688-.191 1.354-1.541 2.22-2.861 1.863-3.883-1.05-7.415-3.459-9.807-7.08-.011-.016-.021-.032-.032-.048-1.077-1.642-3.42-1.642-4.497 0-.011.016-.021.032-.032.048-2.392 3.621-5.924 6.03-9.807 7.08-1.32.357-2.67-.508-2.861-1.863-.408-2.884-.086-5.879 1.028-8.688.289-.729-.358-1.489-1.127-1.337-2.787.554-5.605.287-8.155-.678-.434-.164-.755-.474-.953-.846-10.921 5.112-18.671 17.937-18.671 32.962 0 19.516 13.069 35.337 29.191 35.337.914 0 1.819-.051 2.712-.151 7.11-.797 14.265-.612 21.357.325 1.052.139 2.12.21 3.202.21 8.739 0 16.575-4.654 21.925-12.02-4.687-6.27-7.543-14.582-7.543-23.702z" fill="#fc657e"/></g><g><path d="m222.806 129.852c-.194.238-.445.436-.759.555-2.55.965-5.368 1.232-8.155.678-.769-.153-1.416.608-1.127 1.337 1.114 2.809 1.436 5.804 1.028 8.688-.191 1.354-1.541 2.22-2.861 1.863-3.883-1.05-7.415-3.459-9.807-7.08-.011-.016-.021-.032-.032-.048-1.077-1.642-3.42-1.642-4.497 0-.011.016-.021.032-.032.048-2.392 3.621-5.924 6.03-9.807 7.08-1.32.357-2.67-.508-2.861-1.863-.408-2.884-.086-5.879 1.028-8.688.289-.729-.358-1.489-1.127-1.337-2.787.554-5.605.287-8.155-.678-.434-.164-.755-.474-.953-.846-4.431 2.074-8.325 5.434-11.406 9.679 3.759 5.032 6.343 11.373 7.215 18.395 2.487.189 4.893.737 7.172 1.634 3.261 1.283 6.861 1.191 10.17.037 2.564-.895 5.272-1.375 8.074-1.375 16.122 0 29.191 15.821 29.191 35.337 0 .512-.014 1.02-.032 1.526 9.817-5.692 16.598-17.83 16.598-31.886 0-15.115-7.841-28.006-18.865-33.056z" fill="#fc657e"/></g><g><path d="m139.452 192.883c0-19.516 13.069-35.337 29.191-35.337.624 0 1.239.042 1.852.089-1.582-12.786-8.818-23.332-18.534-27.782-.194.238-.445.436-.759.555-2.55.965-5.368 1.232-8.155.678-.769-.153-1.416.608-1.127 1.337 1.114 2.809 1.436 5.804 1.028 8.688-.191 1.354-1.541 2.22-2.861 1.863-3.883-1.05-7.415-3.459-9.807-7.08-.011-.016-.021-.032-.032-.048-1.077-1.642-3.42-1.642-4.497 0-.011.016-.021.032-.032.048-2.392 3.621-5.924 6.03-9.807 7.08-1.32.357-2.67-.508-2.861-1.863-.408-2.884-.086-5.879 1.028-8.688.289-.729-.358-1.489-1.127-1.337-2.787.554-5.605.287-8.155-.678-.434-.164-.755-.474-.953-.846-10.921 5.112-18.671 17.937-18.671 32.962 0 19.516 13.069 35.337 29.191 35.337.914 0 1.819-.051 2.712-.151 7.11-.797 14.265-.612 21.357.325.445.059.894.099 1.345.133-.213-1.726-.326-3.49-.326-5.285z" fill="#f98fa6"/></g><g><path d="m176.91 173.734c0-1.95-1.194-3.701-3.01-4.414l-.161-.063c-1.648-.648-3.363-.977-5.096-.977-10.004 0-18.456 11.265-18.456 24.6 0 13.167 8.752 25.775 19.97 24.517.06-.007.12-.013.18-.02 3.725-.409 6.573-3.501 6.573-7.248z" fill="#ef4460"/></g><g><path d="m195.914 168.664c-1.534 0-3.06.261-4.537.776-.14.049-.28.096-.421.142-1.965.643-3.31 2.447-3.31 4.514v36.411c0 3.684 2.754 6.751 6.407 7.231.022.003.043.006.065.009 11.45 1.504 20.251-11.259 20.251-24.483 0-13.334-8.452-24.6-18.455-24.6z" fill="#ef4460"/></g><g><path d="m12.775 126.101c-3.1-.6-5.6-3-6.2-6.1 0-.1-.3-.1-.3 0-.6 3.1-3.1 5.5-6.2 6.1-.1 0-.1.2 0 .3 3.1.6 5.6 3 6.2 6.1 0 .1.3.1.3 0 .6-3.1 3.1-5.5 6.2-6.1.1-.1.1-.3 0-.3z" fill="#70d6f9"/></g><g><path d="m114.9 237.801h2.3v2.3c0 1.8 1.4 3.2 3.2 3.2 1.7 0 3.2-1.4 3.2-3.1v-.1-2.3h2.3c1.8 0 3.2-1.4 3.2-3.2 0-1.7-1.4-3.2-3.1-3.2h-.1-2.3v-2.3c0-1.8-1.4-3.2-3.2-3.2-1.7 0-3.2 1.4-3.2 3.1v.1 2.3h-2.3c-1.8 0-3.2 1.4-3.2 3.2-.1 1.7 1.3 3.2 3.2 3.2-.1 0-.1 0 0 0z" fill="#87d147"/></g><g><circle cx="94.3" cy="215.501" fill="#f5c84c" r="3.4"/></g><g><circle cx="252.6" cy="108.301" fill="#fc657e" r="3.4"/></g><g><path d="m225.7 82.101c4.5-.8 8-4.3 8.9-8.7 0-.2.4-.2.4 0 .9 4.4 4.4 7.9 8.9 8.7.2 0 .2.3 0 .4-4.5.8-8 4.3-8.9 8.7 0 .2-.4.2-.4 0-.9-4.4-4.4-7.9-8.9-8.7-.2-.1-.2-.4 0-.4z" fill="#f5c84c"/></g><g><path d="m195.914 231.104c-1.179 0-2.366-.078-3.53-.232-7.188-.95-14.168-1.058-20.75-.319-.987.111-1.994.167-2.99.167-17.475 0-31.691-16.973-31.691-37.836s14.217-37.837 31.691-37.837c3.399 0 6.744.638 9.943 1.897 2.558 1.006 5.552 1.006 8.43.002 2.882-1.005 5.875-1.515 8.897-1.515 17.475 0 31.691 16.973 31.691 37.836s-14.217 37.837-31.691 37.837zm-15.444-6.035c4.103 0 8.304.282 12.569.845.947.125 1.915.189 2.875.189 14.718 0 26.691-14.73 26.691-32.837 0-18.106-11.974-32.836-26.691-32.836-2.46 0-4.899.416-7.25 1.236-4.007 1.398-8.236 1.373-11.908-.07-2.613-1.028-5.342-1.55-8.112-1.55-14.718 0-26.691 14.73-26.691 32.837 0 18.106 11.974 32.836 26.691 32.836.811 0 1.629-.046 2.433-.136 3.058-.342 6.196-.514 9.393-.514z"/></g><g><path d="m199.314 183.765h-1.153c-1.381 0-2.5-1.119-2.5-2.5s1.119-2.5 2.5-2.5h1.153c1.381 0 2.5 1.119 2.5 2.5s-1.119 2.5-2.5 2.5z"/></g><g><path d="m199.314 207.384h-1.153c-1.381 0-2.5-1.119-2.5-2.5s1.119-2.5 2.5-2.5h1.153c1.381 0 2.5 1.119 2.5 2.5s-1.119 2.5-2.5 2.5z"/></g><g><path d="m202.898 195.575h-2.755c-1.381 0-2.5-1.119-2.5-2.5s1.119-2.5 2.5-2.5h2.755c1.381 0 2.5 1.119 2.5 2.5s-1.119 2.5-2.5 2.5z"/></g><g><path d="m166.396 183.765h-1.153c-1.381 0-2.5-1.119-2.5-2.5s1.119-2.5 2.5-2.5h1.153c1.381 0 2.5 1.119 2.5 2.5s-1.12 2.5-2.5 2.5z"/></g><g><path d="m166.396 207.384h-1.153c-1.381 0-2.5-1.119-2.5-2.5s1.119-2.5 2.5-2.5h1.153c1.381 0 2.5 1.119 2.5 2.5s-1.12 2.5-2.5 2.5z"/></g><g><path d="m164.415 195.575h-2.756c-1.381 0-2.5-1.119-2.5-2.5s1.119-2.5 2.5-2.5h2.756c1.381 0 2.5 1.119 2.5 2.5s-1.12 2.5-2.5 2.5z"/></g><g><path d="m69.845 145.553c-.42 0-.841-.055-1.254-.167-4.616-1.249-8.608-4.131-11.241-8.116-.167-.255-.258-.199-.352-.056-2.669 4.041-6.661 6.923-11.277 8.171-1.331.36-2.751.131-3.899-.626-1.138-.75-1.9-1.954-2.09-3.3-.36-2.548-.214-5.14.418-7.614-2.4.13-4.812-.241-7.082-1.101-1.137-.43-2.044-1.323-2.488-2.45-.445-1.132-.39-2.411.153-3.508 1.921-3.884 5.196-6.895 9.222-8.477 3.706-1.457 7.835-1.593 11.631-.385 3.645 1.161 7.497 1.16 11.142 0 3.795-1.209 7.926-1.072 11.631.385 4.025 1.583 7.3 4.593 9.221 8.477.542 1.098.598 2.376.153 3.508-.444 1.127-1.351 2.021-2.489 2.451-2.27.86-4.677 1.232-7.081 1.1.633 2.474.778 5.066.418 7.615-.19 1.346-.952 2.548-2.09 3.299-.793.523-1.715.794-2.646.794zm-27.543-16.987c1.029 0 2.018.454 2.692 1.264.818.982 1.034 2.329.564 3.514-.895 2.259-1.209 4.726-.911 7.151 3.341-.962 6.226-3.079 8.142-5.98.996-1.52 2.618-2.402 4.366-2.402s3.37.882 4.339 2.361c1.943 2.941 4.828 5.059 8.169 6.021.298-2.426-.016-4.893-.912-7.151-.47-1.185-.253-2.532.565-3.515.823-.987 2.115-1.443 3.374-1.195 2.013.4 4.087.292 6.043-.311-1.399-2.439-3.578-4.327-6.206-5.36-2.677-1.053-5.542-1.148-8.284-.274-4.636 1.477-9.538 1.477-14.177 0-2.743-.874-5.606-.779-8.284.274-2.628 1.033-4.807 2.921-6.206 5.36 1.957.603 4.031.711 6.042.311.229-.046.457-.068.684-.068zm36.793.434c0 .001.001.001.001.001s0 0-.001-.001z"/></g><g><path d="m140.689 145.553c-.419 0-.841-.055-1.254-.167-4.616-1.249-8.608-4.131-11.241-8.116-.167-.255-.258-.199-.352-.056-2.669 4.041-6.661 6.923-11.277 8.171-1.332.36-2.752.131-3.899-.626-1.138-.75-1.9-1.954-2.09-3.3-.36-2.549-.214-5.141.418-7.614-2.4.13-4.812-.241-7.082-1.101-1.137-.43-2.044-1.323-2.488-2.45-.445-1.132-.39-2.411.153-3.508 1.921-3.884 5.196-6.895 9.222-8.477 3.706-1.457 7.835-1.593 11.631-.385 3.645 1.161 7.497 1.161 11.142 0 3.794-1.208 7.925-1.072 11.631.385 4.025 1.583 7.3 4.593 9.221 8.477.542 1.098.598 2.376.153 3.508-.444 1.127-1.351 2.021-2.489 2.451-2.27.86-4.678 1.232-7.081 1.1.633 2.474.778 5.066.418 7.615-.19 1.346-.952 2.549-2.09 3.299-.793.523-1.714.794-2.646.794zm-27.543-16.987c1.029 0 2.018.454 2.692 1.264.818.982 1.034 2.329.564 3.514-.896 2.258-1.209 4.725-.911 7.151 3.341-.962 6.226-3.079 8.142-5.98.996-1.52 2.618-2.402 4.366-2.402s3.37.882 4.339 2.361c1.943 2.941 4.828 5.059 8.169 6.021.298-2.426-.016-4.893-.912-7.151-.47-1.185-.253-2.532.565-3.515.822-.987 2.111-1.444 3.373-1.195 2.014.4 4.088.292 6.043-.311-1.399-2.439-3.578-4.327-6.206-5.36-2.677-1.053-5.542-1.148-8.284-.274-4.638 1.477-9.539 1.477-14.177 0-2.743-.874-5.606-.779-8.284.274-2.628 1.033-4.807 2.921-6.207 5.36 1.957.603 4.03.711 6.043.311.231-.046.459-.068.685-.068zm36.794.434c0 .001.001.001.001.001s-.001 0-.001-.001z"/></g><g><path d="m115.311 41.15c-.932 0-1.853-.271-2.644-.792-1.138-.751-1.9-1.954-2.091-3.3-.36-2.549-.214-5.141.418-7.615-2.404.129-4.811-.241-7.082-1.1-1.139-.431-2.045-1.325-2.489-2.452-.445-1.132-.389-2.411.154-3.507 1.92-3.884 5.195-6.895 9.221-8.477 3.706-1.457 7.835-1.593 11.631-.385 3.645 1.161 7.497 1.161 11.142 0 3.794-1.208 7.925-1.072 11.631.385 4.025 1.583 7.3 4.593 9.221 8.477.543 1.097.599 2.375.154 3.507-.444 1.127-1.351 2.021-2.489 2.452-2.271.859-4.683 1.232-7.082 1.1.633 2.474.779 5.065.418 7.615-.19 1.346-.953 2.549-2.091 3.3-1.149.757-2.572.985-3.899.625-4.616-1.248-8.607-4.13-11.24-8.115-.083-.127-.13-.158-.194-.158-.063 0-.111.031-.158.103-2.668 4.04-6.66 6.922-11.276 8.17-.414.112-.836.167-1.255.167zm12.689-13.44c1.748 0 3.37.883 4.339 2.361 1.942 2.941 4.828 5.058 8.169 6.021.298-2.426-.016-4.893-.911-7.151-.47-1.186-.254-2.533.565-3.515.822-.987 2.114-1.444 3.373-1.195 2.012.399 4.086.292 6.043-.311-1.399-2.439-3.578-4.327-6.206-5.36-2.677-1.053-5.542-1.147-8.284-.274-4.638 1.477-9.539 1.477-14.177 0-2.743-.874-5.606-.779-8.284.274-2.628 1.033-4.807 2.921-6.207 5.36 1.956.602 4.03.71 6.043.311 1.263-.25 2.551.208 3.373 1.195.819.983 1.035 2.33.565 3.515-.896 2.258-1.209 4.725-.911 7.151 3.341-.963 6.226-3.079 8.142-5.98.998-1.519 2.62-2.402 4.368-2.402zm21.941-3.109h.01z"/></g><g><path d="m211.534 145.553c-.419 0-.841-.055-1.254-.167-4.616-1.249-8.608-4.131-11.241-8.116-.008-.012-.047-.072-.055-.084-.057-.086-.203-.115-.297.028-2.669 4.041-6.661 6.923-11.277 8.171-1.331.359-2.751.131-3.9-.626-1.138-.751-1.899-1.954-2.09-3.3-.36-2.549-.214-5.141.418-7.614-2.402.128-4.812-.241-7.082-1.101-1.137-.43-2.044-1.323-2.488-2.45-.445-1.132-.39-2.411.153-3.508 1.921-3.884 5.196-6.895 9.222-8.477 3.706-1.457 7.836-1.593 11.631-.385 3.645 1.161 7.497 1.161 11.142 0 3.795-1.208 7.925-1.072 11.631.385 4.025 1.583 7.3 4.593 9.221 8.477.542 1.098.598 2.376.153 3.508-.444 1.127-1.351 2.021-2.489 2.451-2.27.86-4.683 1.232-7.081 1.1.633 2.475.778 5.066.418 7.615-.19 1.346-.952 2.549-2.09 3.299-.792.523-1.714.794-2.645.794zm-27.543-16.987c1.029 0 2.019.454 2.692 1.264.818.982 1.035 2.329.564 3.514-.896 2.258-1.209 4.725-.911 7.151 3.341-.962 6.225-3.079 8.142-5.98.996-1.519 2.618-2.402 4.366-2.402s3.37.882 4.339 2.36c1.943 2.941 4.829 5.059 8.169 6.021.298-2.425-.016-4.892-.912-7.152-.47-1.185-.253-2.531.565-3.514.822-.987 2.113-1.444 3.373-1.195 2.014.4 4.087.292 6.043-.311-1.399-2.439-3.578-4.327-6.206-5.36-2.678-1.053-5.542-1.148-8.284-.274-4.638 1.477-9.539 1.477-14.177 0-2.742-.874-5.606-.779-8.284.274-2.628 1.033-4.807 2.921-6.207 5.36 1.957.603 4.03.711 6.043.311.23-.045.459-.067.685-.067zm36.794.434s.001.001.001.001-.001 0-.001-.001z"/></g><g><path d="m105.267 93.352c-.42 0-.841-.055-1.254-.167-4.617-1.25-8.608-4.131-11.241-8.116-.167-.255-.258-.199-.353-.056-2.668 4.04-6.66 6.922-11.276 8.171-1.331.36-2.752.131-3.899-.626-1.138-.75-1.9-1.954-2.09-3.3-.36-2.549-.214-5.141.418-7.615-2.399.13-4.811-.241-7.082-1.1-1.139-.431-2.045-1.325-2.489-2.452-.445-1.132-.39-2.41.153-3.507 1.92-3.884 5.195-6.894 9.221-8.478 3.707-1.457 7.836-1.593 11.631-.385 3.643 1.161 7.496 1.161 11.142 0 3.794-1.208 7.926-1.071 11.631.385 4.026 1.583 7.301 4.594 9.222 8.477.542 1.097.598 2.375.153 3.507-.443 1.127-1.35 2.021-2.488 2.451-2.271.859-4.683 1.232-7.082 1.1.633 2.474.779 5.066.418 7.615-.19 1.346-.952 2.548-2.09 3.299-.792.526-1.713.797-2.645.797zm-27.542-16.987c1.027 0 2.017.454 2.691 1.263.819.982 1.035 2.33.565 3.515-.896 2.259-1.209 4.726-.911 7.151 3.341-.963 6.226-3.08 8.142-5.98.997-1.52 2.619-2.402 4.366-2.402s3.37.882 4.339 2.36c1.943 2.941 4.828 5.059 8.169 6.022.298-2.426-.016-4.893-.912-7.151-.47-1.186-.253-2.533.565-3.515.822-.987 2.113-1.443 3.373-1.195 2.012.401 4.086.292 6.043-.311-1.399-2.439-3.578-4.327-6.206-5.36-2.678-1.053-5.542-1.148-8.284-.274-4.638 1.477-9.54 1.477-14.176 0-2.742-.874-5.607-.779-8.284.273-2.628 1.033-4.807 2.921-6.206 5.36 1.956.602 4.03.709 6.043.311.228-.045.456-.067.683-.067zm36.793.434c0 .001.001.001.001.001s-.001 0-.001-.001z"/></g><g><path d="m176.111 93.352c-.419 0-.841-.055-1.254-.167-4.617-1.25-8.608-4.131-11.241-8.116-.167-.255-.258-.199-.353-.056-2.668 4.04-6.66 6.922-11.276 8.171-1.331.359-2.752.131-3.9-.626-1.138-.751-1.899-1.954-2.09-3.3-.36-2.549-.214-5.141.418-7.615-2.399.13-4.811-.241-7.082-1.1-1.139-.431-2.045-1.325-2.489-2.452-.445-1.132-.39-2.41.153-3.507 1.92-3.884 5.195-6.894 9.221-8.478 3.705-1.457 7.837-1.593 11.631-.385 3.643 1.161 7.496 1.161 11.142 0 3.795-1.208 7.925-1.071 11.631.385 4.026 1.583 7.3 4.594 9.221 8.477.542 1.097.598 2.375.153 3.507-.443 1.127-1.35 2.021-2.488 2.451-2.271.859-4.679 1.232-7.083 1.1.633 2.475.779 5.067.419 7.615-.19 1.346-.952 2.549-2.09 3.299-.789.526-1.711.797-2.643.797zm-27.542-16.987c1.027 0 2.017.454 2.691 1.263.819.982 1.035 2.33.565 3.515-.896 2.259-1.209 4.726-.911 7.151 3.341-.963 6.226-3.08 8.142-5.98.997-1.52 2.619-2.402 4.366-2.402s3.37.882 4.339 2.36c1.943 2.941 4.828 5.059 8.169 6.022.298-2.425-.016-4.892-.912-7.152-.47-1.185-.253-2.532.565-3.515.822-.987 2.114-1.443 3.373-1.195 2.012.401 4.086.292 6.043-.311-1.399-2.439-3.579-4.327-6.206-5.36-2.676-1.053-5.541-1.147-8.284-.274-4.638 1.477-9.54 1.477-14.176 0-2.742-.874-5.607-.779-8.284.273-2.628 1.033-4.807 2.921-6.206 5.36 1.955.602 4.03.709 6.043.311.229-.044.457-.066.683-.066zm36.793.434s.001.001.001.001 0 0-.001-.001z"/></g><g><g><path d="m169.887 69.901c-.174 0-.35-.018-.527-.056-1.35-.29-2.209-1.619-1.919-2.969.588-2.739.886-5.555.886-8.372 0-13.519-6.61-25.496-16.84-30.513-1.239-.608-1.751-2.106-1.144-3.346s2.105-1.752 3.346-1.144c11.929 5.851 19.638 19.59 19.638 35.002 0 3.168-.335 6.338-.998 9.421-.252 1.174-1.288 1.977-2.442 1.977z"/></g><g><path d="m86.266 70.206c-1.137 0-2.165-.78-2.433-1.934-.769-3.309-1.159-6.724-1.159-10.152 0-15.409 7.708-29.146 19.636-34.999 1.239-.608 2.737-.096 3.346 1.144.608 1.239.096 2.737-1.144 3.346-10.229 5.018-16.839 16.993-16.839 30.509 0 3.047.346 6.082 1.029 9.019.313 1.345-.524 2.689-1.869 3.001-.189.045-.38.066-.567.066z"/></g></g><g><g><path d="m205.23 122.464c-.181 0-.365-.02-.549-.061-1.347-.302-2.195-1.639-1.893-2.986.638-2.847.961-5.778.961-8.711 0-13.423-6.844-25.723-17.031-30.606-1.245-.597-1.771-2.09-1.174-3.335s2.09-1.771 3.335-1.174c12.071 5.787 19.87 19.57 19.87 35.115 0 3.3-.364 6.599-1.082 9.804-.26 1.163-1.293 1.954-2.437 1.954z"/></g><g><path d="m121.618 122.103c-1.144 0-2.176-.79-2.437-1.953-.721-3.207-1.086-6.513-1.086-9.829 0-15.34 7.66-29.054 19.515-34.938 1.236-.614 2.737-.109 3.351 1.127s.109 2.737-1.127 3.351c-10.168 5.047-16.738 17.003-16.738 30.46 0 2.947.324 5.885.964 8.733.303 1.347-.544 2.685-1.891 2.987-.185.042-.369.062-.551.062z"/></g></g><g><g><path d="m127.5 89.063c-.747 0-1.486-.333-1.979-.97-2.711-3.502-6.048-6.266-9.648-7.993-1.245-.597-1.77-2.09-1.173-3.335.596-1.246 2.089-1.771 3.335-1.173 4.299 2.062 8.254 5.326 11.439 9.44.846 1.091.646 2.662-.446 3.507-.454.353-.993.524-1.528.524z"/></g><g><path d="m50.826 122.333c-1.138 0-2.167-.782-2.434-1.938-.757-3.284-1.142-6.673-1.142-10.074 0-15.33 7.653-29.041 19.498-34.93 1.235-.614 2.737-.111 3.352 1.126.614 1.236.11 2.737-1.126 3.352-10.159 5.051-16.724 17.004-16.724 30.453 0 3.023.341 6.034 1.014 8.95.311 1.345-.529 2.688-1.874 2.998-.188.043-.378.063-.564.063z"/></g></g><g><path d="m91.998 141.161c-.744 0-1.48-.33-1.973-.962-2.665-3.414-5.932-6.124-9.448-7.837-1.241-.604-1.757-2.101-1.153-3.342.605-1.241 2.101-1.757 3.342-1.153 4.197 2.044 8.07 5.245 11.2 9.256.85 1.088.656 2.66-.433 3.509-.455.356-.997.529-1.535.529z"/></g><g><path d="m70.791 200.744c-1.174 0-2.362-.078-3.529-.232-7.187-.95-14.169-1.057-20.751-.319-.988.111-1.994.167-2.99.167-17.475 0-31.691-16.974-31.691-37.837 0-15.391 7.695-29.123 19.605-34.983 1.238-.61 2.737-.1 3.347 1.139.609 1.239.1 2.738-1.139 3.347-10.213 5.025-16.813 16.996-16.813 30.497 0 18.106 11.974 32.837 26.691 32.837.811 0 1.629-.046 2.433-.136 6.986-.783 14.375-.671 21.963.331.95.125 1.918.189 2.875.189 7.452 0 14.373-3.704 19.486-10.43.836-1.099 2.404-1.313 3.503-.477s1.313 2.404.477 3.503c-5.994 7.883-14.548 12.404-23.467 12.404z"/></g><g><path d="m163.42 141.549c-.515 0-1.034-.158-1.48-.487-1.112-.818-1.35-2.383-.531-3.495 3.253-4.42 7.354-7.912 11.859-10.098 1.244-.603 2.739-.084 3.341 1.157.603 1.242.084 2.738-1.157 3.341-3.778 1.833-7.242 4.795-10.016 8.564-.49.665-1.248 1.018-2.016 1.018z"/></g><g><path d="m225.178 197.233c-.859 0-1.694-.443-2.16-1.237-.698-1.191-.297-2.723.894-3.42 9.27-5.429 15.259-17.074 15.259-29.669 0-13.421-6.843-25.72-17.028-30.604-1.245-.597-1.77-2.09-1.173-3.335.598-1.245 2.089-1.77 3.335-1.173 12.068 5.788 19.866 19.57 19.866 35.113 0 14.556-6.794 27.578-17.732 33.983-.397.232-.832.342-1.261.342z"/></g><g><path d="m170.426 159.623c-1.231 0-2.304-.91-2.474-2.164-1.517-11.143-7.763-20.717-16.302-24.985-1.235-.618-1.736-2.119-1.119-3.354s2.119-1.736 3.354-1.119c9.997 4.997 17.285 16.026 19.021 28.784.187 1.368-.772 2.628-2.14 2.814-.115.016-.228.024-.34.024z"/></g><g><path d="m139.158 200.614c-.079 0-.159-.003-.239-.011-.272-.026-.544-.055-.814-.091-7.186-.951-14.168-1.057-20.75-.319-.988.111-1.994.167-2.99.167-17.475 0-31.691-16.974-31.691-37.837 0-15.228 7.583-28.903 19.319-34.84 1.232-.623 2.735-.13 3.359 1.103.623 1.232.129 2.736-1.103 3.359-10.069 5.094-16.576 17.018-16.576 30.378 0 18.106 11.974 32.837 26.691 32.837.811 0 1.629-.046 2.433-.136 6.986-.783 14.375-.671 21.963.331.21.028.419.05.63.07 1.375.13 2.383 1.351 2.252 2.725-.121 1.294-1.21 2.264-2.484 2.264z"/></g><g><path d="m168.595 219.985c-4.182 0-8.177-1.612-11.655-4.723-5.707-5.102-9.251-13.678-9.251-22.382 0-14.69 9.597-27.101 20.956-27.101 2.048 0 4.071.387 6.012 1.151l.158.062c2.793 1.096 4.597 3.742 4.597 6.741v36.396c0 4.998-3.783 9.182-8.8 9.733l-.17.019c-.62.07-1.236.104-1.847.104zm.049-49.205c-8.649 0-15.956 10.121-15.956 22.101 0 7.324 2.906 14.472 7.584 18.654 2.02 1.806 5.323 3.858 9.607 3.378l.193-.021c2.47-.271 4.338-2.319 4.338-4.762v-36.396c0-.928-.559-1.747-1.423-2.086l-.16-.063c-1.358-.534-2.764-.805-4.183-.805z"/></g><g><path d="m195.973 220.371c-.722 0-1.449-.048-2.181-.144-4.957-.652-8.646-4.827-8.646-9.719v-36.411c0-3.137 2.022-5.906 5.033-6.891l.372-.126c1.744-.608 3.548-.917 5.362-.917 11.359 0 20.955 12.411 20.955 27.101 0 8.815-3.597 17.447-9.387 22.526-3.44 3.02-7.382 4.581-11.508 4.581zm-.059-49.207c-1.252 0-2.502.214-3.714.637l-.465.158c-.95.311-1.588 1.17-1.588 2.139v36.411c0 2.392 1.82 4.436 4.233 4.753 4.414.581 7.762-1.436 9.805-3.228 4.668-4.095 7.685-11.462 7.685-18.768-.001-11.981-7.308-22.102-15.956-22.102z"/></g></g></g></svg>