<svg enable-background="new 0 0 256 256" height="512" viewBox="0 0 256 256" width="512" xmlns="http://www.w3.org/2000/svg"><g id="Layer_56"><g><g><path d="m236.297 111.763c-13.095-13.605-35.204-13.351-48.556.002l-3.448 3.449c-.796.796-2.086.796-2.881 0l-3.448-3.449c-13.352-13.353-35.461-13.607-48.556-.002-12.69 13.185-12.536 34.16.46 47.156l47.283 47.283c3.149 3.149 8.255 3.149 11.404 0l47.283-47.283c12.996-12.996 13.149-33.972.459-47.156z" fill="#f98fa6"/></g><g><path d="m129.867 158.919c-12.996-12.996-13.15-33.972-.46-47.156 13.095-13.605 35.203-13.351 48.556.002l3.448 3.449c.796.796 2.086.796 2.881 0l3.448-3.449c2.725-2.725 5.819-4.895 9.122-6.522 2.413-15.048-2.035-30.982-13.361-42.75-19.501-20.265-52.429-19.886-72.316.001l-5.136 5.136c-1.185 1.185-3.106 1.185-4.292 0l-5.136-5.136c-19.886-19.887-52.815-20.266-72.317-.003-18.899 19.637-18.671 50.877.686 70.233l70.422 70.422c4.69 4.69 12.294 4.69 16.984 0l30.85-30.85z" fill="#fc657e"/></g><g><path d="m116.35 27.2c-3.1-.6-5.6-3-6.2-6.1 0-.1-.3-.1-.3 0-.6 3.1-3.1 5.5-6.2 6.1-.1 0-.1.2 0 .3 3.1.6 5.6 3 6.2 6.1 0 .1.3.1.3 0 .6-3.1 3.1-5.5 6.2-6.1.1-.1.1-.3 0-.3z" fill="#fc657e"/></g><g><path d="m224.9 77.9h2.3v2.3c0 1.8 1.4 3.2 3.2 3.2 1.7 0 3.2-1.4 3.2-3.1v-.1-2.3h2.3c1.8 0 3.2-1.4 3.2-3.2 0-1.7-1.4-3.2-3.1-3.2h-.1-2.3v-2.3c0-1.8-1.4-3.2-3.2-3.2-1.7 0-3.2 1.4-3.2 3.1v.1 2.3h-2.3c-1.8 0-3.2 1.4-3.2 3.2-.1 1.7 1.3 3.2 3.2 3.2-.1 0-.1 0 0 0z" fill="#70d6f9"/></g><g><circle cx="252.6" cy="97.9" fill="#f5c84c" r="3.4"/></g><g><circle cx="3.4" cy="144.9" fill="#87d147" r="3.4"/></g><g><path d="m14.7 172.2c4.5-.8 8-4.3 8.9-8.7 0-.2.4-.2.4 0 .9 4.4 4.4 7.9 8.9 8.7.2 0 .2.3 0 .4-4.5.8-8 4.3-8.9 8.7 0 .2-.4.2-.4 0-.9-4.4-4.4-7.9-8.9-8.7-.2-.1-.2-.4 0-.4z" fill="#f5c84c"/></g><g><path d="m182.852 211.064c-2.822 0-5.475-1.1-7.47-3.095l-47.282-47.282c-13.838-13.838-14.059-36.563-.494-50.657 6.658-6.918 15.715-10.78 25.5-10.873.117-.002.234-.002.351-.002 9.813 0 19.371 3.939 26.274 10.843l3.122 3.121 3.122-3.121c6.902-6.902 16.461-10.843 26.273-10.843.117 0 .233 0 .35.002 9.786.093 18.842 3.955 25.501 10.873 13.565 14.095 13.344 36.819-.494 50.657l-47.283 47.283c-1.995 1.995-4.648 3.094-7.47 3.094zm-29.394-106.91c-.102 0-.202 0-.304.001-8.432.081-16.226 3.398-21.946 9.341-11.69 12.146-11.499 31.729.426 43.655l47.283 47.283c1.051 1.051 2.448 1.63 3.934 1.63s2.883-.579 3.934-1.63l47.284-47.283c11.925-11.926 12.116-31.509.426-43.655-5.72-5.942-13.514-9.26-21.946-9.341-8.606-.103-17 3.335-23.041 9.377l-3.449 3.448c-.856.857-1.996 1.329-3.208 1.329s-2.352-.472-3.208-1.329l-3.448-3.448c-5.969-5.969-14.242-9.378-22.737-9.378z"/></g><g><path d="m103.903 209.156c-3.715 0-7.431-1.414-10.26-4.242l-70.422-70.422c-9.819-9.819-15.295-22.873-15.42-36.757-.125-13.865 5.096-26.997 14.702-36.977 9.687-10.066 22.867-15.683 37.111-15.82.169-.001.34-.002.509-.002 14.293 0 28.214 5.737 38.266 15.79l5.136 5.136c.259.26.497.261.756 0l5.136-5.136c10.171-10.172 24.297-15.893 38.776-15.788 14.244.137 27.423 5.754 37.11 15.819 11.53 11.98 16.65 28.295 14.047 44.762-.215 1.364-1.497 2.288-2.859 2.079-1.364-.216-2.295-1.496-2.079-2.86 2.355-14.905-2.277-29.672-12.711-40.514-8.749-9.089-20.665-14.163-33.555-14.286-.154-.001-.31-.002-.463-.002-12.976 0-25.61 5.205-34.73 14.325l-5.136 5.136c-1.045 1.046-2.435 1.622-3.913 1.622-1.479 0-2.869-.576-3.914-1.622l-5.136-5.136c-9.119-9.119-21.755-14.325-34.729-14.325-.154 0-.308.001-.462.002-12.891.123-24.808 5.197-33.557 14.286-17.87 18.567-17.577 48.503.651 66.732l70.422 70.422c3.708 3.708 9.742 3.706 13.449 0l30.555-30.555c.976-.977 2.56-.977 3.535 0 .977.977.977 2.559 0 3.535l-30.555 30.555c-2.828 2.829-6.544 4.243-10.26 4.243z"/></g></g></g></svg>