<svg enable-background="new 0 0 256 256" height="512" viewBox="0 0 256 256" width="512" xmlns="http://www.w3.org/2000/svg"><g id="Layer_48"><g><g><path d="m3.722 160.327 15.67-6.462c1.434-.591 2.397-1.958 2.472-3.508l.895-18.602c.077-1.603 1.932-2.45 3.187-1.449 9.011 7.18 24.341 19.238 46.631 27.079 1.835.646 2.705 2.743 1.879 4.504l-5.19 11.068c-3.584-1.543-6.976-3.17-10.176-4.841-1.544-.806-3.444-.273-4.359 1.209l-11.951 19.355c-18.089-8.527-31.234-18.46-39.531-24.991-1.184-.931-.919-2.788.473-3.362z" fill="#fcdd86"/></g><g><path d="m35.106 201.124c-1.009 1.634-.435 3.776 1.255 4.689 22.188 11.988 52.669 22.999 91.645 22.999 39.045 0 69.48-11.019 91.637-23.016 1.688-.914 2.26-3.055 1.252-4.688l-19.626-31.784c-.915-1.482-2.815-2.015-4.359-1.209-17.26 9.017-40.065 16.764-68.904 16.764-28.869 0-51.661-7.743-68.907-16.758-1.544-.807-3.445-.274-4.36 1.209z" fill="#fcdd86"/></g><g><path d="m252.278 160.327-15.67-6.462c-1.434-.591-2.397-1.958-2.472-3.508l-.895-18.602c-.077-1.603-1.932-2.45-3.187-1.449-9.011 7.18-24.341 19.238-46.631 27.079-1.835.646-2.705 2.743-1.879 4.504l5.19 11.068c3.584-1.543 6.976-3.17 10.176-4.841 1.544-.806 3.444-.273 4.359 1.209l11.952 19.356c18.089-8.527 31.234-18.46 39.531-24.991 1.183-.932.918-2.789-.474-3.363z" fill="#fcdd86"/></g><g><path d="m70.224 144.12c2.001 2.241 3.273 5.001 3.888 7.941 1.008 4.815 4.381 13.033 15.022 23.674 2.3 2.3 4.808 4.235 7.424 5.891 9.557 2.026 20.018 3.253 31.447 3.253 1.553 0 3.079-.033 4.597-.077.388-1.706.171-3.579-.885-5.295-4.112-6.677-8.916-15.232-11.182-22.029-2.865-8.594-7.602-10.945-10.539-11.543-1.622-.33-3.022-1.357-3.841-2.795-3.39-5.953-8.982-7.316-12.244-7.575-1.681-.133-3.152-1.096-4.123-2.475-5.66-8.041-13.829-9.084-19.212-8.718-3.43.233-6.001 3.15-5.777 6.58.407 6.247 3.092 10.555 5.425 13.168z" fill="#57af12"/></g><g><path d="m84.366 124.333c.096 1.099.298 2.392.646 3.855 1.697 1.237 3.32 2.835 4.775 4.903.971 1.379 2.442 2.341 4.123 2.475 3.262.259 8.854 1.622 12.245 7.575.819 1.438 2.22 2.465 3.841 2.795 2.581.526 6.551 2.409 9.42 8.688 2.79-6.357 5.574-13.569 6.768-19.388.461-2.245 1.089-4.105 1.815-5.65-2.144-4.562-5.15-6.361-7.275-7.065-1.571-.521-2.839-1.707-3.482-3.232-2.658-6.314-8.048-8.333-11.256-8.978-1.654-.333-3-1.463-3.8-2.948-4.663-8.657-12.65-10.665-18.038-10.942-3.433-.177-6.333 2.413-6.519 5.846-.338 6.249 1.816 10.847 3.821 13.718 1.72 2.463 2.655 5.356 2.916 8.348z" fill="#87d147"/></g><g><path d="m120.535 157.479c1.6 4.801 4.47 10.471 7.465 15.744 2.995-5.273 5.864-10.943 7.465-15.744 2.864-8.594 7.602-10.945 10.539-11.543 1.622-.33 3.022-1.357 3.841-2.795 3.39-5.953 8.982-7.316 12.245-7.575 1.681-.134 3.152-1.096 4.123-2.475 1.455-2.067 3.078-3.666 4.775-4.903.347-1.463.55-2.756.646-3.855.261-2.992 1.196-5.885 2.916-8.347 2.005-2.871 4.159-7.469 3.821-13.718-.186-3.433-3.085-6.023-6.519-5.846-5.389.277-13.375 2.285-18.038 10.942-.8 1.485-2.146 2.615-3.8 2.948-3.208.645-8.598 2.664-11.256 8.978-.642 1.525-1.911 2.711-3.482 3.232-2.845.943-7.269 3.841-9.091 12.715-1.195 5.819-3.978 13.031-6.768 19.388.395.865.771 1.812 1.118 2.854z" fill="#b2e26d"/></g><g><path d="m132.608 184.803c9.647-.279 18.583-1.428 26.842-3.181 2.613-1.656 5.119-3.589 7.416-5.886 10.641-10.641 14.014-18.859 15.022-23.674.615-2.94 1.888-5.7 3.888-7.941 2.332-2.612 5.018-6.921 5.426-13.166.224-3.431-2.347-6.347-5.777-6.58-5.383-.366-13.552.677-19.212 8.718-.971 1.379-2.442 2.341-4.123 2.475-3.262.259-8.854 1.622-12.244 7.575-.819 1.439-2.22 2.465-3.841 2.795-2.937.598-7.674 2.949-10.539 11.543-1.6 4.801-4.47 10.47-7.465 15.744 1.245 2.193 2.51 4.324 3.717 6.285 1.056 1.714 1.279 3.588.89 5.293z" fill="#87d147"/></g><g><g><path d="m104.908 109.952c.343.154.701.283 1.079.359 3.208.645 8.598 2.664 11.256 8.978.642 1.525 1.911 2.711 3.482 3.232 2.125.705 5.131 2.503 7.275 7.065 2.144-4.562 5.15-6.361 7.275-7.065 1.571-.521 2.839-1.707 3.482-3.232 2.658-6.314 8.048-8.333 11.256-8.978.379-.076.736-.205 1.08-.359.894-1.5 1.432-3.238 1.432-5.114 0-4.619-3.085-8.41-7.164-9.64-2.511-.758-4.199-3.201-4.151-5.824.127-6.994-5.429-13.462-13.209-13.462s-13.341 6.47-13.21 13.468c.05 2.674-1.739 5.051-4.288 5.86-4.311 1.369-7.469 5.608-6.976 10.628.144 1.478.641 2.859 1.381 4.084z" fill="#b2e26d"/></g></g><g><path d="m53.177 85.346c-2.079-.526-4.139.947-4.314 3.085-.299 3.664.553 7.252 2.696 10.248s5.262 4.962 8.826 5.864c2.079.526 4.139-.948 4.314-3.085.299-3.664-.553-7.252-2.696-10.248s-5.262-4.962-8.826-5.864z" fill="#87d147"/></g><g><path d="m209.158 85.346c2.079-.526 4.139.947 4.314 3.085.299 3.664-.553 7.252-2.696 10.248s-5.262 4.962-8.826 5.864c-2.079.526-4.139-.948-4.314-3.085-.299-3.664.553-7.252 2.696-10.248s5.263-4.962 8.826-5.864z" fill="#87d147"/></g><g><g><path d="m72.578 157.384c.618.218 1.115.609 1.486 1.087.621-.299 1.224-.628 1.818-.972-.915-2.121-1.457-3.944-1.77-5.439-.615-2.94-1.888-5.701-3.888-7.941-2.332-2.612-5.018-6.921-5.426-13.166-.224-3.431 2.347-6.347 5.777-6.58 3.999-.272 9.534.24 14.437 3.815-.347-1.463-.55-2.756-.646-3.854-.261-2.992-1.196-5.885-2.916-8.348-.633-.907-1.281-1.988-1.861-3.237-4.722-3.894-10.775-6.233-17.373-6.233-15.092 0-27.326 12.234-27.326 27.326 0 1.191.085 2.363.233 3.514 9.064 6.608 21.457 14.401 37.455 20.028z" fill="#fca265"/></g></g><g><path d="m183.422 157.384c22.29-7.841 37.62-19.899 46.631-27.079.172-.137.357-.233.546-.303-.184-12.836-6.43-23.102-15.514-24.168-1.614-.19-3.225-.077-4.804.306-6.361 1.541-12.963 1.541-19.323 0-1.579-.382-3.189-.495-4.804-.306-3.427.402-6.447 2.119-8.894 4.784-.74 2.186-1.742 3.981-2.711 5.368-1.72 2.462-2.655 5.355-2.916 8.348-.096 1.099-.298 2.392-.646 3.854 4.903-3.574 10.438-4.086 14.437-3.815 3.43.233 6.001 3.15 5.777 6.58-.408 6.245-3.093 10.554-5.426 13.166-2.001 2.241-3.273 5.001-3.888 7.941-.288 1.376-.78 3.04-1.569 4.949.511.536 1.037 1.04 1.574 1.513.375-.503.889-.912 1.53-1.138z" fill="#fc657e"/></g><g><path d="m84.149 96.421c3.353.172 7.711 1.018 11.649 3.714l-4.869-30.941c-1.235-7.848-9.197-12.729-16.751-10.27s-11.117 11.093-7.495 18.163l11.62 22.686c1.078-2.106 3.315-3.482 5.846-3.352z" fill="#fc8c48"/></g><g><path d="m68.375 62.789c1.482-1.732 3.448-3.099 5.803-3.866 2.355-.767 4.749-.819 6.966-.291 1.907-1.794 3.354-4.396 3.918-7.49.602-3.302.09-6.515-1.219-9.052-.676-1.31-2.364-1.678-3.448-.751-1.561 1.335-2.843 3.201-3.647 5.426-.167-.829-.367-1.661-.638-2.494-1.471-4.519-4.227-8.137-7.496-10.352-1.688-1.144-3.969-.401-4.661 1.517-1.338 3.715-1.436 8.262.035 12.781.271.833.599 1.623.953 2.391-1.96-1.325-4.095-2.079-6.142-2.239-1.422-.111-2.57 1.179-2.345 2.636.435 2.822 1.913 5.72 4.344 8.035 2.278 2.17 4.979 3.422 7.577 3.749z" fill="#87d147"/></g><g><path d="m108.889 95.915c.515-.27 1.053-.498 1.612-.675 2.549-.81 4.339-3.186 4.288-5.86-.091-4.857 2.563-9.453 6.794-11.816l-2.747-17.455c-1.235-7.848-9.197-12.73-16.751-10.27-7.554 2.459-11.117 11.092-7.495 18.163z" fill="#fc8c48"/></g><g><path d="m96.283 53.704c1.482-1.732 3.448-3.099 5.803-3.866 2.355-.767 4.749-.819 6.966-.291 1.907-1.794 3.353-4.396 3.918-7.49.602-3.302.09-6.515-1.219-9.052-.676-1.31-2.364-1.678-3.448-.751-1.561 1.335-2.843 3.201-3.647 5.426-.167-.829-.367-1.661-.638-2.494-1.471-4.519-4.227-8.137-7.496-10.352-1.688-1.144-3.969-.401-4.661 1.517-1.338 3.715-1.436 8.262.035 12.781.271.833.599 1.623.953 2.391-1.96-1.325-4.095-2.079-6.142-2.239-1.422-.111-2.57 1.179-2.345 2.636.435 2.822 1.913 5.72 4.344 8.035 2.278 2.17 4.98 3.421 7.577 3.749z" fill="#87d147"/></g><g><path d="m186.76 60.166c-.224-3.569-1.532-7.1-3.99-10.066-3.316-4.001-8.035-6.138-12.85-6.326l-4.922-.461c-4.766-.709-9.799.514-13.801 3.83-3.023 2.505-4.981 5.811-5.84 9.353-.461 1.902 1.085 3.768 3.04 3.668 3.386-.173 6.748-1.319 9.634-3.495.402-.303.928-.385 1.392-.189.543.23.864.777.842 1.367-.133 3.508.79 6.835 2.491 9.664 1.053 1.751 3.517 1.981 4.876.457 2.197-2.464 3.721-5.561 4.242-9.033.087-.583.505-1.061 1.081-1.187.492-.107.994.071 1.332.444 2.382 2.619 5.395 4.352 8.614 5.172 2.064.526 3.993-1.072 3.859-3.198z" fill="#87d147"/></g><g><path d="m174.287 58.192c-.339-.372-.84-.551-1.332-.444-.576.125-.993.604-1.081 1.187-.521 3.472-2.045 6.569-4.242 9.033-1.359 1.525-3.823 1.294-4.876-.457-1.701-2.829-2.624-6.156-2.491-9.664.022-.589-.299-1.137-.842-1.367-.464-.196-.99-.114-1.392.189-2.686 2.025-5.785 3.147-8.932 3.434-1.518 7.187-4.03 16.73-8.062 26.986.12.751.186 1.513.172 2.285-.048 2.623 1.64 5.066 4.151 5.824 4.079 1.23 7.164 5.021 7.164 9.64 0 1.875-.538 3.613-1.432 5.114l-.002.008c1.159-.52 2.104-1.45 2.722-2.597 4.663-8.657 12.65-10.664 18.038-10.942 2.22-.114 4.211.932 5.396 2.611 2.089-10.4 3.639-22.369 4.283-36.083-2.698-.927-5.202-2.514-7.242-4.757z" fill="#b598f9"/></g><g><g><path d="m19.392 153.865c1.434-.591 2.397-1.958 2.472-3.508l.421-8.75c11.829 10.147 25.131 18.224 39.787 24.12l-3.87 2.09h.001c-1.327-.263-2.726.3-3.471 1.507l-5.835 9.45c-12.932-5.883-24.852-13.362-35.701-22.354z" fill="#f5c84c"/></g></g><g><path d="m128.005 196.213c-27.559 0-53.802-6.386-78.159-18.96l-10.661 17.265c27.629 14.546 57.459 21.936 88.82 21.936 31.391 0 61.219-7.394 88.814-21.947l-10.661-17.264c-24.325 12.581-50.566 18.97-78.153 18.97z" fill="#f5c84c"/></g><g><g><path d="m236.608 153.865c-1.434-.591-2.397-1.958-2.472-3.508l-.421-8.75c-11.829 10.147-25.131 18.224-39.787 24.12l3.87 2.09h-.001c1.327-.263 2.726.3 3.471 1.507l5.835 9.45c12.932-5.883 24.852-13.362 35.701-22.354z" fill="#f5c84c"/></g></g><g><path d="m74.426 159.054-16.23 8.766c.307.06.611.149.902.301 3.197 1.671 6.586 3.297 10.167 4.84l5.192-11.072c.442-.942.386-1.974-.031-2.835z" fill="#edb311"/></g><g><path d="m181.574 159.054c-.417.861-.472 1.893-.031 2.834l5.19 11.068c3.584-1.543 6.976-3.17 10.176-4.841.286-.15.586-.238.889-.298z" fill="#edb311"/></g><g><path d="m26.35 104.2c-3.1-.6-5.6-3-6.2-6.1 0-.1-.3-.1-.3 0-.6 3.1-3.1 5.5-6.2 6.1-.1 0-.1.2 0 .3 3.1.6 5.6 3 6.2 6.1 0 .1.3.1.3 0 .6-3.1 3.1-5.5 6.2-6.1.1-.1.1-.3 0-.3z" fill="#87d147"/></g><g><path d="m127.9 24.9h2.3v2.3c0 1.8 1.4 3.2 3.2 3.2 1.7 0 3.2-1.4 3.2-3.1v-.1-2.3h2.3c1.8 0 3.2-1.4 3.2-3.2 0-1.7-1.4-3.2-3.1-3.2h-.1-2.3v-2.3c0-1.8-1.4-3.2-3.2-3.2-1.7 0-3.2 1.4-3.2 3.1v.1 2.3h-2.3c-1.8 0-3.2 1.4-3.2 3.2-.1 1.7 1.3 3.2 3.2 3.2-.1 0-.1 0 0 0z" fill="#70d6f9"/></g><g><circle cx="160.3" cy="7.6" fill="#f5c84c" r="3.4"/></g><g><circle cx="165.3" cy="248.4" fill="#70d6f9" r="3.4"/></g><g><path d="m188.7 237.2c4.5-.8 8-4.3 8.9-8.7 0-.2.4-.2.4 0 .9 4.4 4.4 7.9 8.9 8.7.2 0 .2.3 0 .4-4.5.8-8 4.3-8.9 8.7 0 .2-.4.2-.4 0-.9-4.4-4.4-7.9-8.9-8.7-.2-.1-.2-.4 0-.4z" fill="#fc657e"/></g><g><path d="m41.973 190.799c-.361 0-.728-.079-1.075-.245-17.04-8.137-29.898-17.582-39.196-24.901-1.259-.991-1.879-2.53-1.66-4.117.221-1.591 1.24-2.907 2.726-3.521l15.67-6.462c.536-.221.9-.738.928-1.317l.895-18.602c.082-1.687 1.087-3.165 2.623-3.86 1.534-.694 3.303-.473 4.619.576 8.269 6.588 23.659 18.851 45.903 26.676 1.537.541 2.78 1.714 3.411 3.219.633 1.51.597 3.225-.098 4.706l-4.993 10.647c-.586 1.25-2.076 1.788-3.325 1.202-1.25-.586-1.788-2.075-1.202-3.325l4.993-10.647c.131-.279.065-.526.014-.649-.05-.12-.177-.336-.459-.435-22.32-7.852-37.865-19.927-46.542-26.831l-.845 17.565c-.121 2.506-1.697 4.743-4.016 5.699l-14.829 6.116c9.539 7.473 21.445 16.067 37.535 23.751 1.246.595 1.774 2.087 1.179 3.333-.427.897-1.323 1.422-2.256 1.422z"/></g><g><path d="m128.005 231.313c-32.984 0-64.217-7.839-92.833-23.299-1.409-.761-2.454-2.084-2.867-3.629s-.167-3.211.673-4.573l19.633-31.794c1.599-2.589 4.956-3.517 7.645-2.111 20.912 10.932 43.706 16.474 67.75 16.474 24.02 0 46.814-5.544 67.747-16.48 2.69-1.404 6.047-.475 7.644 2.111l19.626 31.784c.84 1.36 1.086 3.025.675 4.569-.412 1.545-1.456 2.868-2.863 3.63-28.577 15.472-59.81 23.318-92.83 23.318zm-90.772-28.876c-.166.268-.132.526-.097.655.035.13.135.372.413.521 27.878 15.062 58.312 22.699 90.457 22.699 32.18 0 62.611-7.643 90.447-22.715.278-.151.378-.392.412-.522.035-.13.068-.387-.097-.654l-19.626-31.784c-.228-.368-.701-.503-1.075-.306-21.654 11.312-45.227 17.048-70.061 17.048-24.859 0-48.432-5.734-70.065-17.043-.376-.194-.847-.061-1.074.307z"/></g><g><path d="m213.889 190.865c-.935 0-1.83-.526-2.259-1.425-.594-1.246-.065-2.738 1.182-3.332 16.153-7.697 28.101-16.317 37.672-23.816l-14.829-6.116c-2.319-.957-3.896-3.194-4.016-5.699l-.846-17.564c-8.677 6.904-24.22 18.979-46.542 26.831-.281.099-.407.315-.458.435-.051.123-.118.37.014.649l4.759 10.148c.586 1.25.048 2.739-1.202 3.325-1.249.585-2.738.047-3.325-1.202l-4.759-10.148c-.694-1.48-.73-3.196-.098-4.705.631-1.505 1.874-2.678 3.41-3.219 22.246-7.825 37.636-20.088 45.904-26.676 1.317-1.049 3.086-1.269 4.619-.576 1.536.695 2.541 2.174 2.622 3.86l.896 18.602c.027.579.392 1.096.928 1.317l15.67 6.462c1.486.613 2.506 1.929 2.727 3.52.221 1.586-.399 3.126-1.658 4.117-9.33 7.343-22.231 16.817-39.337 24.968-.348.166-.714.244-1.074.244z"/></g><g><path d="m132.704 186.784c-.125 0-.251-.009-.379-.029-1.364-.208-2.303-1.482-2.096-2.847.163-1.074-.059-2.142-.642-3.089-5.653-9.182-9.497-16.769-11.424-22.549-2.526-7.579-6.514-9.445-8.666-9.884-2.324-.473-4.334-1.934-5.515-4.008-2.713-4.764-7.083-6.066-10.27-6.319-2.346-.186-4.522-1.472-5.969-3.528-4.896-6.956-11.95-8.006-16.999-7.663-2.07.141-3.586 1.864-3.452 3.924.366 5.611 2.81 9.439 4.796 11.664 2.194 2.458 3.74 5.602 4.47 9.094.976 4.66 4.255 12.331 14.343 22.419 1.98 1.98 4.277 3.811 6.827 5.44 1.163.744 1.503 2.29.76 3.453s-2.289 1.503-3.453.76c-2.854-1.824-5.434-3.882-7.669-6.118-10.958-10.958-14.587-19.605-15.701-24.93-.552-2.637-1.695-4.984-3.306-6.789-2.509-2.81-5.597-7.636-6.056-14.668-.311-4.77 3.324-8.914 8.103-9.238 8.949-.616 16.562 2.862 21.426 9.773.588.835 1.418 1.354 2.277 1.422 3.595.286 10.223 1.813 14.219 8.83.467.821 1.257 1.397 2.167 1.583 3.21.654 9.091 3.238 12.412 13.202 1.781 5.34 5.563 12.778 10.939 21.509 1.212 1.968 1.671 4.202 1.327 6.461-.189 1.237-1.254 2.125-2.469 2.125z"/></g><g><path d="m127.891 131.855c-.927 0-1.817-.518-2.25-1.407-1.756-3.609-4.071-5.013-5.704-5.554-2.25-.746-4.073-2.436-4.999-4.635-2.127-5.054-6.311-6.866-9.445-7.497-2.308-.465-4.315-2-5.507-4.213-4.033-7.487-10.909-9.37-15.966-9.631-2.073-.104-3.782 1.425-3.894 3.485-.304 5.615 1.667 9.708 3.374 12.151 1.886 2.7 3.046 6.006 3.357 9.562.086.989.261 2.067.52 3.205.306 1.346-.538 2.686-1.884 2.992-1.343.302-2.686-.538-2.992-1.884-.309-1.357-.519-2.662-.625-3.877-.235-2.685-1.09-5.151-2.475-7.134-2.157-3.088-4.648-8.248-4.268-15.285.259-4.771 4.361-8.454 9.144-8.208 8.962.462 16.104 4.813 20.112 12.253.484.899 1.247 1.513 2.092 1.683 3.535.711 9.933 3.016 13.067 10.458.366.87 1.082 1.537 1.963 1.829 2.546.844 6.109 2.938 8.627 8.114.604 1.241.087 2.737-1.155 3.341-.353.171-.725.252-1.092.252z"/></g><g><path d="m119.646 156.596c-.333 0-.672-.067-.997-.208-1.266-.551-1.845-2.024-1.293-3.291 3.276-7.522 5.423-13.701 6.381-18.364 2.112-10.288 7.643-13.554 10.752-14.585.882-.292 1.598-.959 1.965-1.83 3.133-7.442 9.531-9.747 13.066-10.458.845-.17 1.607-.784 2.092-1.683 4.008-7.439 11.149-11.791 20.111-12.253 4.812-.234 8.887 3.438 9.144 8.208.381 7.037-2.11 12.196-4.267 15.284-1.386 1.984-2.241 4.451-2.476 7.133-.105 1.204-.313 2.498-.618 3.847-.305 1.346-1.644 2.191-2.989 1.888-1.347-.304-2.192-1.643-1.888-2.989.256-1.131.429-2.201.515-3.181.31-3.552 1.47-6.859 3.356-9.56 1.707-2.444 3.678-6.536 3.374-12.152-.112-2.061-1.818-3.599-3.895-3.485-5.057.261-11.933 2.144-15.966 9.631-1.192 2.213-3.199 3.749-5.508 4.213-3.135.631-7.317 2.443-9.445 7.498-.927 2.2-2.749 3.89-4.999 4.635-2.084.691-5.821 3.02-7.428 10.845-1.027 5.003-3.279 11.515-6.694 19.355-.41.941-1.329 1.502-2.293 1.502z"/></g><g><path d="m159.61 184.021c-.824 0-1.632-.408-2.108-1.154-.743-1.163-.403-2.709.76-3.453 2.555-1.633 4.855-3.465 6.837-5.447 10.087-10.087 13.367-17.759 14.342-22.419.732-3.494 2.278-6.639 4.472-9.094 1.985-2.225 4.43-6.054 4.795-11.664.135-2.06-1.382-3.783-3.452-3.924-5.052-.343-12.102.708-16.998 7.663-1.446 2.055-3.622 3.341-5.969 3.528-3.188.253-7.558 1.555-10.271 6.32-1.181 2.074-3.19 3.534-5.514 4.007-2.152.438-6.141 2.305-8.666 9.884-1.404 4.211-3.884 9.483-7.37 15.671-.677 1.203-2.202 1.629-3.406.951-1.203-.678-1.628-2.203-.951-3.406 3.331-5.91 5.68-10.888 6.982-14.797 3.321-9.964 9.202-12.548 12.412-13.202.91-.186 1.7-.762 2.168-1.583 3.996-7.017 10.624-8.544 14.219-8.83.859-.068 1.689-.586 2.276-1.422 4.865-6.91 12.466-10.386 21.427-9.773 4.778.325 8.413 4.469 8.103 9.237-.459 7.031-3.547 11.857-6.056 14.668-1.61 1.803-2.754 4.151-3.307 6.789-1.115 5.325-4.743 13.973-15.701 24.93-2.236 2.237-4.82 4.298-7.679 6.125-.417.268-.884.395-1.345.395z"/></g><g><g><path d="m104.705 112.097c-.881 0-1.735-.466-2.191-1.292-.819-1.484-1.315-3.063-1.476-4.692-.589-5.989 2.992-11.44 8.707-13.255 1.527-.485 2.574-1.896 2.545-3.431-.079-4.194 1.578-8.333 4.545-11.356 2.949-3.004 6.914-4.659 11.164-4.659 4.249 0 8.212 1.653 11.159 4.655 2.968 3.021 4.626 7.159 4.55 11.353-.028 1.538.971 2.962 2.374 3.386 5.349 1.613 8.942 6.449 8.942 12.033 0 2.034-.494 3.996-1.468 5.831-.647 1.22-2.163 1.684-3.38 1.037-1.22-.647-1.684-2.161-1.036-3.38.586-1.105.884-2.279.884-3.487 0-3.362-2.165-6.274-5.387-7.246-3.56-1.075-5.997-4.473-5.93-8.263.053-2.861-1.084-5.689-3.117-7.759-2-2.037-4.696-3.158-7.592-3.158-2.897 0-5.595 1.123-7.596 3.162-2.033 2.071-3.168 4.899-3.115 7.76.07 3.73-2.41 7.139-6.03 8.29-3.444 1.093-5.601 4.383-5.246 8 .094.95.389 1.88.877 2.765.667 1.209.229 2.73-.98 3.397-.381.208-.795.309-1.203.309z"/></g></g><g><path d="m117.465 187.026c-.409 0-.823-.101-1.207-.312-7.736-4.273-12.204-12.092-16.145-18.991-1.05-1.838-2.042-3.575-3.078-5.231-4.805-7.688-13.622-15.572-13.71-15.65-1.032-.917-1.124-2.498-.207-3.529.918-1.032 2.497-1.124 3.529-.208.383.34 9.437 8.431 14.628 16.737 1.088 1.741 2.151 3.602 3.179 5.401 3.792 6.637 7.712 13.5 14.221 17.094 1.208.667 1.647 2.188.979 3.397-.454.826-1.308 1.292-2.189 1.292z"/></g><g><path d="m101.183 168.728c-.137 0-.275-.011-.414-.035l-6.072-1.012c-1.362-.227-2.282-1.515-2.055-2.877.227-1.361 1.509-2.286 2.877-2.055l6.072 1.012c1.362.227 2.282 1.515 2.055 2.877-.204 1.223-1.263 2.09-2.463 2.09z"/></g><g><path d="m112.311 182.896c-.376 0-.757-.085-1.116-.265-1.235-.617-1.735-2.119-1.118-3.354 1.712-3.425 1.76-7.945 1.76-7.99 0-1.381 1.119-2.5 2.5-2.5s2.5 1.119 2.5 2.5c0 .23-.026 5.702-2.289 10.227-.437.876-1.32 1.382-2.237 1.382z"/></g><g><path d="m138.629 187.026c-.881 0-1.734-.466-2.19-1.292-.667-1.209-.229-2.729.979-3.397 6.509-3.595 10.43-10.458 14.222-17.095 1.027-1.799 2.091-3.66 3.179-5.401 5.19-8.306 14.245-16.396 14.628-16.737 1.032-.917 2.611-.824 3.529.208.917 1.032.824 2.612-.207 3.529-.089.079-8.906 7.962-13.71 15.65-1.036 1.657-2.027 3.393-3.078 5.231-3.941 6.898-8.408 14.718-16.145 18.991-.384.213-.798.313-1.207.313z"/></g><g><path d="m154.911 168.728c-1.2 0-2.259-.867-2.463-2.089-.228-1.362.692-2.65 2.055-2.877l6.072-1.012c1.354-.23 2.649.692 2.877 2.055.228 1.362-.692 2.65-2.055 2.877l-6.072 1.012c-.138.022-.277.034-.414.034z"/></g><g><path d="m143.783 182.896c-.917 0-1.8-.506-2.238-1.382-2.262-4.524-2.288-9.996-2.288-10.227 0-1.381 1.119-2.5 2.5-2.5 1.379 0 2.498 1.117 2.5 2.496 0 .045.035 4.545 1.761 7.995.617 1.235.117 2.737-1.118 3.354-.36.18-.741.264-1.117.264zm.474-11.608h.01z"/></g><g><path d="m127.494 128.245c-1.381 0-2.5-1.119-2.5-2.5v-23.277c0-1.381 1.119-2.5 2.5-2.5s2.5 1.119 2.5 2.5v23.277c0 1.38-1.119 2.5-2.5 2.5z"/></g><g><path d="m61.238 107.149c-.489 0-.981-.06-1.466-.183-4.281-1.083-7.825-3.446-10.247-6.833-2.422-3.388-3.513-7.504-3.154-11.905.143-1.753 1.047-3.347 2.48-4.372s3.235-1.365 4.938-.934c4.281 1.083 7.824 3.447 10.247 6.834 2.421 3.386 3.512 7.503 3.154 11.905-.144 1.754-1.047 3.347-2.481 4.372-1.024.733-2.238 1.116-3.471 1.116zm-8.915-19.41c-.259 0-.456.108-.563.184-.138.099-.374.322-.405.711-.262 3.207.512 6.178 2.238 8.591 1.725 2.412 4.286 4.105 7.406 4.894.379.097.666-.055.803-.153.138-.099.374-.322.405-.711.261-3.208-.513-6.178-2.238-8.59-1.726-2.413-4.286-4.105-7.406-4.895-.084-.022-.165-.031-.24-.031z"/></g><g><path d="m201.098 107.149c-1.233 0-2.447-.383-3.474-1.117-1.433-1.025-2.337-2.618-2.479-4.371-.358-4.401.732-8.518 3.154-11.905s5.965-5.75 10.246-6.834c1.706-.431 3.507-.09 4.939.935s2.337 2.619 2.479 4.372c.358 4.401-.732 8.518-3.154 11.905-2.421 3.387-5.964 5.75-10.246 6.833-.484.121-.976.182-1.465.182zm8.673-19.379c-3.12.79-5.681 2.482-7.406 4.895s-2.498 5.383-2.236 8.591c.031.389.267.612.404.71s.431.249.804.153c3.12-.79 5.681-2.482 7.406-4.894 1.725-2.413 2.498-5.383 2.236-8.591-.031-.389-.267-.612-.404-.711s-.426-.25-.804-.153z"/></g><g><g><path d="m35.059 139.341c-1.257 0-2.339-.945-2.481-2.223-.124-1.112-.187-2.214-.187-3.277 0-16.446 13.38-29.826 29.826-29.826 6.805 0 13.212 2.231 18.53 6.454 1.082.858 1.262 2.431.404 3.512-.859 1.083-2.432 1.262-3.512.404-4.425-3.513-9.758-5.37-15.422-5.37-13.689 0-24.826 11.137-24.826 24.826 0 .878.053 1.794.156 2.723.153 1.372-.836 2.608-2.208 2.761-.095.011-.188.016-.28.016z"/></g></g><g><path d="m230.592 132.172c-1.354 0-2.468-1.083-2.498-2.444-.264-11.719-5.732-20.524-13.3-21.412-1.285-.149-2.606-.066-3.924.252-6.704 1.624-13.793 1.625-20.501 0-1.315-.319-2.636-.403-3.923-.252-2.7.316-5.143 1.629-7.262 3.903-.942 1.011-2.522 1.067-3.534.124-1.01-.941-1.065-2.523-.124-3.533 2.909-3.12 6.483-5.008 10.337-5.459 1.876-.222 3.791-.101 5.684.359 5.938 1.438 12.213 1.438 18.146 0 1.895-.459 3.808-.58 5.685-.359 10.109 1.186 17.395 11.986 17.715 26.265.031 1.38-1.063 2.524-2.442 2.556-.021 0-.041 0-.059 0z"/></g><g><path d="m95.726 102.199c-1.209 0-2.273-.879-2.467-2.112l-4.8-30.505c-.475-3.016-2.24-5.661-4.843-7.257-2.604-1.596-5.762-1.972-8.665-1.024-2.903.945-5.237 3.106-6.401 5.929s-1.034 6 .358 8.718l11.3 22.061c.629 1.229.144 2.735-1.085 3.365-1.228.629-2.735.144-3.365-1.085l-11.3-22.061c-2.061-4.022-2.254-8.726-.53-12.904s5.178-7.377 9.476-8.776c4.299-1.4 8.974-.847 12.827 1.516 3.853 2.362 6.466 6.278 7.168 10.742l4.8 30.505c.214 1.364-.717 2.644-2.081 2.858-.132.02-.263.03-.392.03z"/></g><g><path d="m83.072 75.363c-1.053 0-2.033-.671-2.376-1.727-.428-1.313.29-2.724 1.603-3.151l6.895-2.245c1.313-.428 2.724.291 3.151 1.603.428 1.313-.29 2.724-1.603 3.151l-6.895 2.245c-.257.085-.518.124-.775.124z"/></g><g><path d="m86.279 85.212c-1.053 0-2.033-.671-2.377-1.727-.427-1.313.291-2.724 1.604-3.151l4.924-1.603c1.314-.427 2.724.291 3.151 1.604s-.291 2.724-1.604 3.151l-4.924 1.603c-.257.084-.518.123-.774.123z"/></g><g><path d="m67.877 65.215c-.14 0-.282-.012-.424-.036-3.058-.523-5.955-2.02-8.379-4.328-2.744-2.614-4.552-5.975-5.09-9.464-.227-1.474.22-2.94 1.226-4.024.98-1.057 2.359-1.602 3.786-1.486.625.049 1.252.142 1.875.278-.792-3.991-.549-8.012.731-11.566.593-1.646 1.882-2.899 3.535-3.437s3.431-.284 4.88.698c3.127 2.12 5.692 5.226 7.4 8.919.424-.478.875-.922 1.353-1.33 1.087-.93 2.522-1.305 3.936-1.027 1.451.284 2.675 1.207 3.358 2.531 1.619 3.138 2.136 6.918 1.457 10.646-.602 3.297-2.065 6.215-4.232 8.438-.964.989-2.547 1.009-3.535.045-.989-.964-1.009-2.547-.045-3.535 1.45-1.487 2.478-3.563 2.894-5.845.464-2.546.159-5.094-.857-7.208-1.14 1.063-2.05 2.482-2.646 4.129-.38 1.055-1.408 1.721-2.537 1.644-1.118-.083-2.044-.901-2.266-2.001-.171-.854-.351-1.558-.564-2.212-1.249-3.836-3.564-7.053-6.521-9.057-.209-.142-.402-.124-.528-.082-.125.041-.293.139-.378.377-1.21 3.359-1.189 7.323.06 11.16.213.654.482 1.328.847 2.12.469 1.019.202 2.226-.653 2.951-.854.726-2.088.795-3.018.165-1.452-.981-3.024-1.593-4.57-1.781.422 2.307 1.676 4.546 3.551 6.333 1.678 1.597 3.728 2.67 5.773 3.02 1.361.233 2.275 1.525 2.043 2.886-.209 1.218-1.266 2.079-2.462 2.079z"/></g><g><path d="m108.589 97.826c-.908 0-1.785-.497-2.227-1.361l-13.996-27.323c-2.061-4.022-2.254-8.726-.53-12.905 1.724-4.178 5.178-7.376 9.476-8.776 4.296-1.398 8.972-.847 12.826 1.516 3.853 2.363 6.466 6.278 7.169 10.744l2.674 16.991c.214 1.364-.717 2.644-2.081 2.858-1.372.212-2.644-.718-2.858-2.081l-2.674-16.991c-.475-3.017-2.24-5.662-4.843-7.258-2.604-1.596-5.762-1.97-8.664-1.024-2.903.945-5.237 3.106-6.401 5.929-1.165 2.823-1.034 6 .358 8.718l13.996 27.324c.629 1.229.144 2.735-1.085 3.365-.367.186-.756.274-1.14.274z"/></g><g><path d="m110.98 66.278c-1.053 0-2.033-.671-2.376-1.727-.428-1.313.29-2.724 1.603-3.151l6.895-2.245c1.313-.43 2.724.291 3.151 1.603.428 1.313-.29 2.724-1.603 3.151l-6.895 2.245c-.257.084-.518.124-.775.124z"/></g><g><path d="m95.308 56.038c-.173 0-.349-.018-.525-.056-2.844-.607-5.542-2.065-7.8-4.216-2.744-2.614-4.552-5.975-5.09-9.464-.227-1.474.22-2.94 1.226-4.024.98-1.057 2.361-1.601 3.786-1.486.625.049 1.252.142 1.875.278-.792-3.991-.549-8.012.731-11.566.593-1.646 1.882-2.899 3.535-3.437 1.652-.538 3.432-.284 4.88.698 3.127 2.12 5.691 5.226 7.4 8.918.423-.477.875-.921 1.352-1.329 1.088-.93 2.524-1.304 3.937-1.027 1.451.285 2.675 1.207 3.358 2.531 1.619 3.138 2.136 6.919 1.457 10.646-.608 3.338-2.169 6.393-4.394 8.602-.979.973-2.563.966-3.536-.013-.973-.98-.967-2.563.013-3.536 1.506-1.495 2.571-3.608 2.998-5.95.464-2.547.16-5.094-.857-7.209-1.14 1.063-2.05 2.482-2.646 4.129-.381 1.055-1.411 1.728-2.537 1.644-1.118-.083-2.044-.901-2.266-2.001-.171-.854-.351-1.558-.564-2.212-1.249-3.836-3.564-7.053-6.521-9.057-.209-.142-.403-.123-.528-.082s-.293.139-.378.377c-1.21 3.359-1.189 7.323.06 11.16.213.654.482 1.328.847 2.12.469 1.019.202 2.226-.653 2.951-.854.727-2.088.794-3.018.165-1.452-.981-3.024-1.593-4.57-1.781.422 2.307 1.676 4.546 3.551 6.333 1.589 1.513 3.456 2.533 5.397 2.947 1.35.289 2.211 1.617 1.922 2.967-.251 1.176-1.288 1.98-2.442 1.98z"/></g><g><path d="m165.38 71.482c-.177 0-.355-.008-.534-.025-1.774-.166-3.316-1.134-4.232-2.657-1.647-2.741-2.605-5.803-2.816-8.96-2.802 1.685-5.968 2.652-9.271 2.821-1.732.085-3.359-.635-4.479-1.985-1.119-1.35-1.526-3.087-1.119-4.768 1.022-4.221 3.331-7.917 6.674-10.689 4.354-3.607 10.065-5.204 15.695-4.388l4.791.449c5.678.241 10.998 2.873 14.606 7.226 2.717 3.279 4.293 7.257 4.56 11.504.114 1.82-.616 3.524-2.006 4.675-1.389 1.151-3.196 1.553-4.966 1.102-3.121-.795-5.974-2.314-8.354-4.436-.793 3.064-2.303 5.895-4.431 8.281-1.063 1.192-2.541 1.85-4.118 1.85zm-6.479-17.606c.509 0 1.018.1 1.497.302 1.5.635 2.429 2.113 2.365 3.764-.11 2.911.628 5.774 2.135 8.281.114.189.288.244.413.255.134.011.308-.01.454-.175 1.946-2.182 3.203-4.859 3.636-7.741.244-1.633 1.431-2.913 3.022-3.259 1.351-.291 2.771.17 3.712 1.204 1.977 2.174 4.529 3.707 7.383 4.434.259.064.438-.021.54-.107.104-.085.223-.244.206-.512 0 0 0 0 0-.001-.199-3.185-1.382-6.168-3.419-8.626-2.718-3.279-6.735-5.256-11.022-5.423-.045-.002-.091-.005-.136-.009l-4.922-.461c-.045-.004-.09-.01-.135-.017-4.246-.63-8.559.566-11.838 3.283-2.507 2.078-4.237 4.85-5.005 8.017-.044.181.05.328.109.4.061.072.166.181.374.182 3.006-.154 5.861-1.189 8.256-2.995.697-.524 1.535-.796 2.375-.796zm15.446 5.427v.002s0-.001 0-.002zm-14.808-.638c-.001 0-.001.001-.002.002.001-.001.001-.002.002-.002z"/></g><g><path d="m141.129 89.353c-.303 0-.61-.055-.91-.172-1.285-.503-1.92-1.953-1.417-3.239 3.242-8.286 5.854-17.014 7.765-25.942.289-1.35 1.627-2.208 2.967-1.922 1.351.289 2.211 1.618 1.922 2.968-1.966 9.191-4.656 18.181-7.997 26.718-.387.986-1.331 1.589-2.33 1.589z"/></g><g><path d="m177.306 101.255c-.162 0-.326-.016-.491-.049-1.354-.27-2.233-1.586-1.964-2.94 2.16-10.835 3.561-22.611 4.161-35.001.066-1.379 1.253-2.441 2.618-2.376 1.379.067 2.442 1.239 2.376 2.618-.613 12.636-2.043 24.659-4.251 35.736-.237 1.189-1.281 2.012-2.449 2.012z"/></g><g><path d="m167.455 46.017c-.078 0-.157-.003-.236-.011-1.374-.129-2.385-1.348-2.256-2.722 1.514-16.16 13.844-22.115 14.368-22.36 1.253-.587 2.739-.046 3.324 1.203.585 1.248.05 2.732-1.195 3.321-.447.215-10.281 5.092-11.519 18.302-.121 1.295-1.211 2.267-2.486 2.267z"/></g><g><g><path d="m48.065 180.895c-.351 0-.707-.074-1.046-.231-12.542-5.791-24.304-13.172-34.959-21.94-1.066-.877-1.219-2.453-.342-3.519.878-1.066 2.453-1.219 3.519-.342 10.326 8.497 21.724 15.65 33.878 21.262 1.254.579 1.801 2.064 1.222 3.317-.423.914-1.327 1.453-2.272 1.453z"/></g><g><path d="m61.679 168.069c-.313 0-.631-.059-.939-.184-14.532-5.895-27.899-13.997-39.729-24.079-1.051-.896-1.177-2.474-.281-3.524.896-1.052 2.474-1.176 3.524-.281 11.423 9.735 24.331 17.558 38.366 23.251 1.279.519 1.896 1.977 1.377 3.257-.394.97-1.33 1.56-2.318 1.56z"/></g></g><g><path d="m128.005 218.955c-31.46 0-61.525-7.367-89.359-21.896-1.224-.639-1.698-2.149-1.06-3.373.639-1.224 2.151-1.698 3.373-1.06 27.113 14.153 56.399 21.329 87.046 21.329 30.658 0 59.928-7.172 86.995-21.316 1.225-.636 2.734-.166 3.374 1.058s.166 2.734-1.058 3.374c-27.79 14.521-57.837 21.884-89.311 21.884z"/></g><g><path d="m128.005 198.713c-27.67 0-54.155-6.371-78.718-18.937-1.229-.629-1.716-2.135-1.087-3.364s2.136-1.715 3.364-1.087c23.851 12.201 49.569 18.388 76.44 18.388 26.863 0 52.548-6.173 76.34-18.349 1.227-.627 2.734-.144 3.364 1.087.629 1.229.143 2.735-1.087 3.364-24.503 12.54-50.953 18.898-78.616 18.898z"/></g><g><g><path d="m207.525 181.083c-.948 0-1.854-.541-2.274-1.459-.575-1.255-.024-2.739 1.23-3.314 12.328-5.651 23.879-12.88 34.332-21.488 1.064-.877 2.641-.726 3.519.34s.726 2.642-.341 3.519c-10.786 8.882-22.705 16.343-35.426 22.173-.337.156-.692.229-1.04.229z"/></g><g><path d="m194.252 168.097c-.988 0-1.924-.59-2.318-1.562-.519-1.28.099-2.737 1.379-3.255 14.087-5.707 27.039-13.557 38.497-23.333 1.05-.894 2.629-.771 3.524.279.896 1.05.771 2.628-.278 3.524-11.868 10.126-25.28 18.256-39.866 24.164-.308.125-.626.183-.938.183z"/></g></g><g><path d="m58.993 169.892c-.889 0-1.75-.475-2.202-1.313-.656-1.215-.203-2.731 1.012-3.388l14.613-7.893c1.213-.658 2.731-.204 3.388 1.012.656 1.215.203 2.731-1.012 3.388l-14.613 7.893c-.378.204-.785.301-1.186.301z"/></g><g><path d="m197.319 170.06c-.401 0-.809-.097-1.187-.301l-15.035-8.121c-1.215-.656-1.667-2.173-1.011-3.388.655-1.215 2.173-1.668 3.388-1.012l15.035 8.121c1.215.656 1.667 2.173 1.011 3.388-.451.837-1.312 1.313-2.201 1.313z"/></g></g></g></svg>