<svg enable-background="new 0 0 256 256" height="512" viewBox="0 0 256 256" width="512" xmlns="http://www.w3.org/2000/svg"><g id="Layer_29"><g><g><path d="m137.953 159.413c38.753-4.908 68.82-38.076 68.82-78.14 0-44.858-37.69-81.079-83.067-78.658-40.092 2.139-72.46 34.693-74.386 74.796-1.988 41.404 28.19 76.299 67.659 81.851 1.258.177 2.205 1.23 2.205 2.5v33.951c0 1.391-1.127 2.52-2.518 2.523l-27.606.054c-1.393.003-2.521 1.134-2.518 2.527l.02 11.486c.002 1.393 1.134 2.521 2.527 2.518l27.569-.054c1.395-.002 2.527 1.128 2.527 2.523v33.687c0 1.393 1.129 2.523 2.523 2.523h11.486c1.393 0 2.523-1.13 2.523-2.523v-33.725c0-1.392 1.127-2.52 2.518-2.523l27.606-.054c1.393-.002 2.521-1.134 2.518-2.527l-.019-11.486c-.002-1.393-1.134-2.521-2.527-2.518l-27.569.054c-1.395.002-2.527-1.128-2.527-2.523v-33.76c-.003-1.282.963-2.341 2.236-2.502z" fill="#f98fa6"/></g><g><circle cx="128" cy="81.273" fill="#6cadef" r="62.242"/></g><g><path d="m190.242 81.273c0-22.62-12.069-42.419-30.116-53.316-3.199.812-8.931 3.138-11.636 9.631-3.678 8.828 12.371 2.32 16.237 12.371s3.866 12.371 10.051 14.691c6.186 2.32 6.959 18.557-2.32 22.422-9.278 3.866-17.01 13.917-13.917 20.876s3.866 13.917-1.546 19.33c-2.906 2.906-2.69 6.926-1.868 10.027 20.783-10.081 35.115-31.381 35.115-56.032z" fill="#b2e26d"/></g><g><path d="m133.525 37.826c-9.258-4.097-22.634 5.804-35.293 2.081-5.788-1.702-10.674-2.355-14.333-2.552-9.088 9.126-15.363 21.054-17.413 34.377 4.198 2.544 8.55 5.951 8.55 9.154 0 3.251-4.486 6.288-8.742 8.438 2.507 19.399 13.934 35.992 30.046 45.533 1.247-6.775 4.975-14.519 7.304-19.177 3.866-7.732-4.639-8.505-10.825-14.691s-2.32-13.917 2.32-17.783c4.639-3.866 12.371 2.32 18.557 2.32s10.825-.773 14.691-4.639 0-10.051-5.412-15.464c-5.412-5.412-3.866-13.917 5.412-17.783 6.299-2.625 6.896-5.962 6.63-7.835-.124-.869-.689-1.624-1.492-1.979z" fill="#b2e26d"/></g><g><path d="m142.938 108.138c-3.811 3.811-9.321 3.375-13.453 2.241-3.374-.926-5.696-4.013-5.696-7.512 0-2.777 1.445-5.402 3.879-6.738 4.25-2.331 6.861-7.343 11.167-3.037 5.471 5.471 10.942 8.207 4.103 15.046z" fill="#b2e26d"/></g><g><path d="m193.35 223.2c-3.1-.6-5.6-3-6.2-6.1 0-.1-.3-.1-.3 0-.6 3.1-3.1 5.5-6.2 6.1-.1 0-.1.2 0 .3 3.1.6 5.6 3 6.2 6.1 0 .1.3.1.3 0 .6-3.1 3.1-5.5 6.2-6.1.1-.1.1-.3 0-.3z" fill="#f5c84c"/></g><g><path d="m46.9 160.9h2.3v2.3c0 1.8 1.4 3.2 3.2 3.2 1.7 0 3.2-1.4 3.2-3.1v-.1-2.3h2.3c1.8 0 3.2-1.4 3.2-3.2 0-1.7-1.4-3.2-3.1-3.2h-.1-2.3v-2.3c0-1.8-1.4-3.2-3.2-3.2-1.7 0-3.2 1.4-3.2 3.1v.1 2.3h-2.3c-1.8 0-3.2 1.4-3.2 3.2-.1 1.7 1.3 3.2 3.2 3.2-.1 0-.1 0 0 0z" fill="#87d147"/></g><g><circle cx="190.3" cy="3.4" fill="#fc657e" r="3.4"/></g><g><circle cx="70.3" cy="179.4" fill="#70d6f9" r="3.4"/></g><g><path d="m205.7 25.2c4.5-.8 8-4.3 8.9-8.7 0-.2.4-.2.4 0 .9 4.4 4.4 7.9 8.9 8.7.2 0 .2.3 0 .4-4.5.8-8 4.3-8.9 8.7 0 .2-.4.2-.4 0-.9-4.4-4.4-7.9-8.9-8.7-.2-.1-.2-.4 0-.4z" fill="#70d6f9"/></g><g><path d="m133.191 256h-11.485c-2.77 0-5.022-2.253-5.022-5.022v-33.688l-27.591.031c-.004 0-.007 0-.011 0-2.764 0-5.016-2.247-5.021-5.013l-.02-11.487c-.004-2.77 2.245-5.026 5.015-5.031l27.604-.054.023-33.974c-19.926-2.819-38.019-12.888-50.997-28.375-13.147-15.689-19.848-35.611-18.864-56.096.961-20.016 9.345-38.937 23.605-53.277 14.262-14.342 33.136-22.827 53.146-23.895 22.521-1.197 43.944 6.678 60.305 22.188 16.377 15.526 25.396 36.467 25.396 58.966 0 40.834-30.526 75.493-71.006 80.62-.042.005-.055.026-.055.026l.002 33.757 27.591-.031h.009c1.339 0 2.598.52 3.546 1.465.95.947 1.475 2.208 1.477 3.55l.02 11.485c.003 1.341-.518 2.604-1.465 3.554-.946.95-2.207 1.475-3.549 1.477l-27.605.054-.022 33.748c-.002 2.769-2.256 5.022-5.026 5.022zm-16.531-43.733c1.341 0 2.601.521 3.549 1.468.951.949 1.475 2.212 1.475 3.555v33.688l11.507.022.023-33.748c0-2.765 2.249-5.018 5.014-5.023l27.605-.054.003-11.508-27.591.031c-.003 0-.006 0-.009 0-1.34 0-2.6-.521-3.548-1.468-.951-.949-1.475-2.212-1.475-3.555v-33.759c0-2.521 1.902-4.664 4.424-4.983 37.988-4.812 66.635-37.338 66.635-75.66 0-21.112-8.465-40.765-23.836-55.337-15.354-14.557-35.446-21.952-56.599-20.824-18.77 1.001-36.479 8.966-49.866 22.428-13.384 13.46-21.253 31.214-22.155 49.991-.923 19.225 5.364 37.921 17.702 52.644 12.184 14.538 29.162 23.988 47.809 26.611 2.483.349 4.356 2.488 4.356 4.976v33.951c0 2.765-2.249 5.018-5.015 5.023l-27.604.054-.004 11.508 27.591-.031zm21.293-52.854h.01z"/></g><g><path d="m128 146.015c-35.699 0-64.742-29.043-64.742-64.742s29.043-64.742 64.742-64.742 64.742 29.043 64.742 64.742-29.043 64.742-64.742 64.742zm0-124.484c-32.942 0-59.742 26.8-59.742 59.742s26.8 59.742 59.742 59.742 59.742-26.8 59.742-59.742-26.8-59.742-59.742-59.742z"/></g><g><path d="m154.948 139.08c-1.147 0-2.181-.793-2.438-1.959-1.056-4.763-.116-8.777 2.717-11.61 3.96-3.96 4.287-9.217 1.03-16.546-1.271-2.86-1.207-6.223.188-9.724 2.379-5.975 8.287-11.657 15.052-14.476 4.119-1.716 5.501-6.726 5.433-10.495-.063-3.526-1.365-6.656-3.028-7.28-6.395-2.398-7.48-5.325-10.103-12.397-.412-1.111-.871-2.35-1.404-3.737-1.319-3.43-4.568-4.266-9.014-5.073-3.091-.561-6.011-1.091-7.347-3.548-.834-1.533-.785-3.368.148-5.609 2.982-7.158 9.172-9.897 12.597-10.894 1.326-.387 2.713.375 3.099 1.702.386 1.326-.376 2.713-1.702 3.099-3.135.912-7.306 3.043-9.378 8.016-.321.772-.354 1.162-.351 1.299.505.413 2.494.773 3.826 1.016 4.125.749 10.357 1.88 12.787 8.198.542 1.408 1.008 2.666 1.427 3.793 2.525 6.811 2.913 7.857 7.17 9.454 3.705 1.39 6.167 6.049 6.272 11.871.126 7.027-3.214 12.994-8.509 15.2-5.499 2.291-10.454 6.997-12.331 11.71-.616 1.549-1.162 3.82-.264 5.843 4.094 9.21 3.399 16.65-2.063 22.113-1.586 1.586-2.048 3.939-1.371 6.993.299 1.348-.552 2.683-1.899 2.982-.182.04-.365.059-.544.059zm-4.498-99.173h.01z"/></g><g><path d="m66.838 91.547c-.902 0-1.773-.49-2.219-1.345-.639-1.224-.163-2.734 1.062-3.372 5.06-2.637 6.855-4.85 6.855-5.943 0-.407-.327-2.642-6.782-6.669-1.172-.731-1.528-2.273-.798-3.444.732-1.171 2.275-1.528 3.444-.798 6.147 3.836 9.136 7.405 9.136 10.912 0 3.636-3.122 7.03-9.545 10.377-.369.191-.763.282-1.153.282z"/></g><g><path d="m96.494 136.591c-.17 0-.342-.017-.514-.053-1.352-.282-2.219-1.606-1.937-2.958 1.362-6.528 4.651-13.593 7.364-19.018 1.522-3.043.813-3.823-3.85-6.84-2.046-1.323-4.363-2.822-6.506-4.965-2.73-2.73-4.088-6.045-3.928-9.586.193-4.256 2.591-8.7 6.414-11.885 3.938-3.283 8.963-1.513 13.395.049 2.36.831 4.801 1.691 6.763 1.691 5.71 0 9.654-.639 12.923-3.907 2.94-2.94-2.806-9.321-5.412-11.928-3.092-3.09-4.412-7.151-3.623-11.142.906-4.583 4.493-8.489 9.841-10.717 3.563-1.485 5.381-3.323 5.117-5.175-3.797-1.71-8.979-.434-14.471.918-6.307 1.554-13.455 3.316-20.544 1.231-4.495-1.322-8.913-2.135-13.13-2.416-1.378-.092-2.42-1.283-2.328-2.661s1.307-2.407 2.66-2.329c4.582.305 9.362 1.183 14.208 2.608 5.793 1.706 11.968.183 17.938-1.289 6.344-1.563 12.335-3.039 17.661-.681 1.58.7 2.713 2.2 2.956 3.914.355 2.502-.229 7.194-8.144 10.493-3.782 1.576-6.282 4.153-6.859 7.072-.467 2.36.333 4.717 2.253 6.636 10.62 10.62 7.949 16.462 5.412 19-4.458 4.458-9.804 5.372-16.458 5.372-2.816 0-5.667-1.004-8.424-1.975-4.092-1.441-6.896-2.287-8.532-.924-2.133 1.777-4.467 4.883-4.62 8.271-.097 2.13.733 4.09 2.468 5.825 1.768 1.767 3.76 3.056 5.686 4.302 4.122 2.666 9.252 5.984 5.607 13.274-2.578 5.155-5.697 11.838-6.942 17.803-.246 1.18-1.286 1.99-2.444 1.99z"/></g><g><path d="m134.946 113.683c-1.902 0-3.95-.296-6.123-.893-4.437-1.216-7.535-5.297-7.535-9.923 0-3.756 1.983-7.177 5.176-8.93.965-.529 1.904-1.285 2.812-2.015 2.472-1.988 6.607-5.318 11.326-.598.797.797 1.595 1.534 2.352 2.233 2.883 2.667 5.605 5.185 5.675 8.723.048 2.478-1.198 4.901-3.923 7.625-2.507 2.507-5.821 3.778-9.76 3.778zm.613-19.782c-.646 0-1.474.568-3.148 1.916-1.026.826-2.189 1.763-3.541 2.504-1.592.874-2.581 2.616-2.581 4.546 0 2.381 1.586 4.479 3.857 5.101 3.374.926 8.024 1.401 11.024-1.598 1.628-1.628 2.478-3.008 2.459-3.992-.027-1.41-1.901-3.143-4.071-5.149-.804-.744-1.636-1.514-2.491-2.369-.605-.605-1-.959-1.508-.959z"/></g></g></g></svg>