<svg enable-background="new 0 0 256 256" height="512" viewBox="0 0 256 256" width="512" xmlns="http://www.w3.org/2000/svg"><g id="Layer_39"><g><g><circle cx="128" cy="187.07" fill="#6cadef" r="66.43"/></g><g><path d="m194.43 187.07c0-24.142-12.881-45.273-32.143-56.904-3.414.867-9.532 3.349-12.419 10.279-3.926 9.422 13.204 2.476 17.33 13.204s4.126 13.204 10.728 15.679c6.602 2.476 7.427 19.805-2.476 23.931s-18.155 14.854-14.854 22.281 4.126 14.854-1.65 20.63c-3.102 3.102-2.871 7.392-1.994 10.701 22.182-10.758 37.478-33.492 37.478-59.801z" fill="#b2e26d"/></g><g><path d="m133.897 140.699c-9.882-4.373-24.157 6.195-37.668 2.221-6.177-1.817-11.393-2.513-15.298-2.724-9.7 9.74-16.397 22.471-18.584 36.691 4.481 2.715 9.125 6.352 9.125 9.77 0 3.47-4.788 6.711-9.331 9.006 2.676 20.704 14.872 38.415 32.068 48.597 1.33-7.231 5.31-15.496 7.796-20.468 4.126-8.252-4.951-9.077-11.553-15.679s-2.476-14.854 2.476-18.98 13.204 2.476 19.805 2.476c6.602 0 11.553-.825 15.679-4.951s0-10.728-5.777-16.504c-5.777-5.777-4.126-14.854 5.777-18.98 6.723-2.801 7.36-6.363 7.076-8.362-.131-.929-.735-1.734-1.591-2.113z" fill="#b2e26d"/></g><g><path d="m143.943 215.742c-4.068 4.068-9.948 3.602-14.359 2.392-3.602-.988-6.08-4.283-6.08-8.018 0-2.964 1.542-5.766 4.14-7.191 4.536-2.488 7.323-7.837 11.918-3.242 5.841 5.84 11.68 8.76 4.381 16.059z" fill="#b2e26d"/></g><g><path d="m161.403 96.285-23.586-33.157 19.13-26.893c4.77-6.705 5.286-15.462 1.293-22.703-3.818-6.926-11.296-11.032-19.204-11.032h-22.073c-7.907 0-15.386 4.106-19.204 11.031-3.992 7.241-3.477 15.998 1.293 22.703l19.13 26.893-23.585 33.157c-.878 1.235-.589 2.948.645 3.827l8.566 6.093c1.235.878 2.948.589 3.826-.645l20.366-28.63 20.365 28.63c.878 1.235 2.592 1.524 3.827.645l8.566-6.093c1.235-.878 1.523-2.592.645-3.826zm-49.314-69.326c-1.707-2.4-.846-4.688-.396-5.56s1.813-2.9 4.759-2.9h23.094c2.945 0 4.309 2.028 4.759 2.9s1.312 3.159-.396 5.56l-15.909 22.367z" fill="#fc657e"/></g><g><path d="m211.35 231.2c-3.1-.6-5.6-3-6.2-6.1 0-.1-.3-.1-.3 0-.6 3.1-3.1 5.5-6.2 6.1-.1 0-.1.2 0 .3 3.1.6 5.6 3 6.2 6.1 0 .1.3.1.3 0 .6-3.1 3.1-5.5 6.2-6.1.1-.1.1-.3 0-.3z" fill="#fc657e"/></g><g><path d="m185.9 31.9h2.3v2.3c0 1.8 1.4 3.2 3.2 3.2 1.7 0 3.2-1.4 3.2-3.1v-.1-2.3h2.3c1.8 0 3.2-1.4 3.2-3.2 0-1.7-1.4-3.2-3.1-3.2h-.1-2.3v-2.3c0-1.8-1.4-3.2-3.2-3.2-1.7 0-3.2 1.4-3.2 3.1v.1 2.3h-2.3c-1.8 0-3.2 1.4-3.2 3.2-.1 1.7 1.3 3.2 3.2 3.2-.1 0-.1 0 0 0z" fill="#70d6f9"/></g><g><circle cx="177.3" cy="3.4" fill="#f5c84c" r="3.4"/></g><g><path d="m33.699 132.245c4.496-.822 7.979-4.34 8.857-8.744-.001-.2.399-.202.4-.002.922 4.395 4.439 7.878 8.943 8.656.2-.001.201.299.002.4-4.496.822-7.979 4.34-8.857 8.744.001.2-.399.202-.4.002-.922-4.395-4.439-7.878-8.943-8.656-.2-.099-.202-.399-.002-.4z" fill="#f5c84c"/></g><g><path d="m128 256c-38.008 0-68.93-30.922-68.93-68.93s30.922-68.93 68.93-68.93 68.93 30.922 68.93 68.93-30.922 68.93-68.93 68.93zm0-132.86c-35.251 0-63.93 28.679-63.93 63.93s28.679 63.93 63.93 63.93 63.93-28.679 63.93-63.93-28.679-63.93-63.93-63.93z"/></g><g><g><path d="m150.612 109.214c-.293 0-.589-.024-.884-.074-1.381-.233-2.589-.99-3.4-2.132l-49.312-69.325c-5.361-7.536-5.916-17.252-1.446-25.359 4.192-7.602 12.389-12.324 21.393-12.324h22.073c9.004 0 17.201 4.722 21.394 12.324 4.47 8.106 3.916 17.824-1.445 25.359l-18.099 25.444 22.555 31.708c1.675 2.356 1.122 5.636-1.233 7.313l-8.566 6.094c-.899.638-1.95.972-3.03.972zm-33.649-104.214c-7.183 0-13.702 3.731-17.015 9.738-3.534 6.409-3.097 14.091 1.142 20.047l49.313 69.325c.039.055.092.088.158.099.068.011.127-.003.182-.042l8.566-6.094c.109-.078.135-.23.058-.34l-23.58-33.149c-.002-.002-.004-.005-.006-.008l-9.817-13.801c-.003-.004-.006-.009-.01-.013l-15.9-22.354c-1.738-2.444-1.955-5.493-.58-8.156s3.983-4.252 6.979-4.252h23.094c2.996 0 5.605 1.59 6.98 4.253s1.158 5.712-.58 8.155l-14.879 20.918 6.749 9.488 17.093-24.03c4.237-5.957 4.675-13.638 1.141-20.047-3.313-6.006-9.832-9.737-17.015-9.737zm-.51 16c-1.438 0-2.173.841-2.537 1.547-.364.705-.623 1.791.211 2.964l13.873 19.502 13.873-19.503c.834-1.172.575-2.259.211-2.963-.364-.706-1.1-1.547-2.537-1.547z"/></g></g><g><path d="m105.388 109.213c-1.08 0-2.131-.333-3.028-.972l-8.566-6.094c-2.355-1.676-2.908-4.956-1.233-7.312l23.192-32.604c.801-1.126 2.362-1.388 3.486-.588 1.125.8 1.389 2.361.588 3.486l-23.193 32.604c-.077.109-.052.262.058.34l8.566 6.094c.054.039.112.054.182.042.066-.011.119-.044.158-.099l19.824-27.87c.801-1.126 2.363-1.388 3.486-.588 1.125.8 1.389 2.361.588 3.486l-19.824 27.869c-.812 1.141-2.02 1.898-3.4 2.131-.295.05-.591.075-.884.075z"/></g><g><circle cx="48.3" cy="163.9" fill="#87d147" r="3.4"/></g><g><path d="m156.831 248.902c-1.131 0-2.155-.772-2.43-1.919-1.236-5.176-.276-9.526 2.776-12.58 4.283-4.282 4.643-9.953 1.134-17.847-1.338-3.01-1.268-6.553.202-10.247 2.523-6.337 8.793-12.365 15.975-15.358 4.474-1.864 5.975-7.284 5.901-11.358-.07-3.892-1.476-7.225-3.342-7.924-6.753-2.532-7.903-5.635-10.683-13.132-.44-1.187-.931-2.509-1.5-3.99-1.439-3.743-4.948-4.648-9.748-5.52-3.258-.591-6.335-1.15-7.723-3.701-.864-1.588-.81-3.5.166-5.841 3.178-7.627 9.789-10.518 13.447-11.562 1.333-.38 2.712.391 3.091 1.718.379 1.328-.391 2.711-1.718 3.09-3.412.974-7.952 3.27-10.205 8.677-.475 1.139-.38 1.55-.379 1.554.377.45 2.778.886 4.214 1.146 4.365.792 10.962 1.99 13.521 8.645.578 1.502 1.075 2.844 1.521 4.047 2.657 7.167 3.137 8.458 7.751 10.189 3.89 1.458 6.475 6.372 6.585 12.516.134 7.43-3.39 13.735-8.977 16.063-5.909 2.462-11.234 7.522-13.253 12.592-.67 1.683-1.263 4.153-.279 6.366 4.339 9.76 3.61 17.637-2.167 23.414-1.784 1.785-2.271 4.437-1.448 7.882.32 1.343-.508 2.692-1.851 3.013-.193.044-.389.067-.581.067z"/></g><g><path d="m62.462 198.002c-.907 0-1.782-.495-2.226-1.358-.631-1.228-.147-2.735 1.081-3.366 5.645-2.901 7.655-5.322 7.655-6.621 0-1.319-1.962-3.944-7.469-7.354-1.174-.727-1.536-2.268-.809-3.442.727-1.173 2.268-1.535 3.441-.809 6.618 4.1 9.836 7.896 9.836 11.605 0 3.861-3.392 7.481-10.37 11.068-.364.188-.754.277-1.139.277z"/></g><g><path d="m94.316 246.22c-.163 0-.328-.016-.494-.049-1.354-.271-2.231-1.589-1.96-2.943 1.407-7.017 4.965-14.67 7.907-20.554 1.676-3.351.84-4.277-4.169-7.517-2.176-1.408-4.643-3.003-6.916-5.276-2.879-2.879-4.312-6.374-4.143-10.105.204-4.496 2.74-9.193 6.785-12.563 4.132-3.442 9.445-1.569 14.134.082 2.531.892 5.15 1.814 7.272 1.814 6.139 0 10.383-.69 13.912-4.219.777-.777 1.515-2.035.295-4.88-.989-2.309-3.09-5.105-6.072-8.088-3.259-3.259-4.651-7.538-3.819-11.741.956-4.835 4.748-8.959 10.402-11.315 3.88-1.616 5.854-3.642 5.563-5.704-.011-.074-.063-.147-.129-.176-4.071-1.802-9.634-.432-15.522 1.018-6.711 1.654-14.317 3.528-21.838 1.315-4.92-1.447-9.747-2.323-14.347-2.604-1.378-.084-2.427-1.27-2.343-2.647s1.251-2.446 2.647-2.343c4.975.304 10.173 1.245 15.452 2.797 6.225 1.831 12.837.203 19.231-1.374 6.741-1.661 13.106-3.229 18.742-.735 1.633.723 2.804 2.273 3.057 4.046.371 2.625-.25 7.546-8.59 11.021-4.09 1.704-6.794 4.5-7.422 7.67-.51 2.575.36 5.145 2.45 7.234 3.478 3.477 5.877 6.725 7.133 9.654 2.239 5.225.499 8.532-1.355 10.386-4.718 4.717-10.387 5.684-17.447 5.684-2.978 0-6.006-1.067-8.934-2.098-4.423-1.558-7.459-2.467-9.271-.957-2.304 1.919-4.825 5.278-4.991 8.949-.105 2.323.797 4.457 2.683 6.343 1.899 1.899 4.033 3.279 6.097 4.614 4.343 2.809 9.748 6.305 5.926 13.951-2.804 5.605-6.187 12.864-7.478 19.301-.238 1.187-1.282 2.009-2.448 2.009z"/></g><g><path d="m135.411 221.491c-2.015 0-4.185-.314-6.488-.946-4.662-1.279-7.918-5.567-7.918-10.429 0-3.948 2.083-7.544 5.438-9.383 1.042-.572 2.05-1.383 3.024-2.167 2.76-2.222 6.933-5.583 11.864-.651.843.842 1.692 1.629 2.516 2.39 3.049 2.821 5.929 5.485 6.001 9.189.051 2.596-1.265 5.143-4.138 8.016-2.642 2.642-6.14 3.981-10.299 3.981zm.638-21.116c-.749 0-1.662.649-3.447 2.086-1.09.877-2.325 1.872-3.755 2.656-1.753.961-2.842 2.877-2.842 5 0 2.616 1.744 4.922 4.24 5.606 3.646 1.001 8.674 1.508 11.93-1.749 1.796-1.795 2.695-3.27 2.674-4.383-.03-1.576-2.055-3.448-4.397-5.615-.857-.793-1.744-1.614-2.655-2.525-.698-.696-1.175-1.076-1.748-1.076z"/></g></g></g></svg>