<svg viewBox="0 0 160 160" version="1.1" id="svg_null">
	<g id="root" stroke="none" stroke-width="1" fill="none" fill-rule="evenodd">
		<rect id="background.accent" fill="#fff" x="0" y="0" width="160" height="160"></rect>
		<polygon id="shape.primary" fill="#653208" fill-rule="nonzero" points="18 98 18 50 142 50 142 98 96 98 96 100 144 100 144 48 16 48 16 100 64 100 64 98"></polygon>
		<g id="group" transform="translate(28.000000, 61.000000)">
			<rect id="Rectangle-14" x="0" y="0" width="104" height="22"></rect>
			<text id="headerText.primary" font-family="Anonymous Pro" font-size="14.666589916663483" font-weight="700" letter-spacing="NaN" fill="#653208" data-text-alignment="C" font-style="normal" style="color:#653208">
				<tspan x="3.9652442932128906" y="15">Digital Guru</tspan>
			</text>
		</g>
		<rect id="icon.primary" x="68" y="87" width="24" height="24" display="none" fill="#343434"></rect>
		<svg
			xmlns="http://www.w3.org/2000/svg"
			xmlns:xlink="http://www.w3.org/1999/xlink" viewBox="0 0 50 50" version="1.1" fill="#653208" id="svg_icon.primary" x="68" y="87" width="24" height="24">
			<g id="surface1">
				<path style=" " d="M 3 3 C 1.355469 3 0 4.355469 0 6 L 0 47 L 50 47 L 50 6 C 50 4.355469 48.644531 3 47 3 Z M 3 5 L 47 5 C 47.566406 5 48 5.433594 48 6 L 48 9 L 2 9 L 2 6 C 2 5.433594 2.433594 5 3 5 Z M 2 11 L 48 11 L 48 45 L 2 45 Z M 28.90625 14.96875 C 28.863281 14.976563 28.820313 14.988281 28.78125 15 C 28.453125 15.074219 28.179688 15.308594 28.0625 15.625 L 19.0625 37.625 C 18.855469 38.144531 19.105469 38.730469 19.625 38.9375 C 20.144531 39.144531 20.730469 38.894531 20.9375 38.375 L 29.9375 16.375 C 30.085938 16.046875 30.046875 15.660156 29.832031 15.371094 C 29.621094 15.078125 29.265625 14.925781 28.90625 14.96875 Z M 15.9375 20.96875 C 15.90625 20.976563 15.875 20.988281 15.84375 21 C 15.722656 21.019531 15.605469 21.0625 15.5 21.125 L 8.5 25.125 C 8.183594 25.300781 7.984375 25.636719 7.984375 26 C 7.984375 26.363281 8.183594 26.699219 8.5 26.875 L 15.5 30.875 C 15.984375 31.152344 16.597656 30.984375 16.875 30.5 C 17.152344 30.015625 16.984375 29.402344 16.5 29.125 L 11.03125 26 L 16.5 22.875 C 16.96875 22.675781 17.214844 22.160156 17.070313 21.671875 C 16.925781 21.183594 16.4375 20.878906 15.9375 20.96875 Z M 33.8125 21 C 33.386719 21.066406 33.046875 21.398438 32.976563 21.824219 C 32.90625 22.25 33.117188 22.675781 33.5 22.875 L 38.96875 26 L 33.5 29.125 C 33.015625 29.402344 32.847656 30.015625 33.125 30.5 C 33.402344 30.984375 34.015625 31.152344 34.5 30.875 L 41.5 26.875 C 41.816406 26.699219 42.015625 26.363281 42.015625 26 C 42.015625 25.636719 41.816406 25.300781 41.5 25.125 L 34.5 21.125 C 34.292969 21.003906 34.050781 20.957031 33.8125 21 Z "></path>
			</g>
		</svg>
	</g>
</svg>