<svg id="Layer_2" height="512" viewBox="0 0 512 512" width="512" xmlns="http://www.w3.org/2000/svg" xmlns:xlink="http://www.w3.org/1999/xlink" data-name="Layer 2"><linearGradient id="linear-gradient" gradientUnits="userSpaceOnUse" x1="43.93" x2="468.07" y1="43.93" y2="468.07"><stop offset="0" stop-color="#64b5f6"/><stop offset="1" stop-color="#1976d2"/></linearGradient><linearGradient id="linear-gradient-2" gradientUnits="userSpaceOnUse" x1="195.17" x2="467.69" y1="195.91" y2="468.43"><stop offset="0" stop-opacity=".35"/><stop offset="1" stop-opacity="0"/></linearGradient><g id="Icon"><g id="_0" data-name="0"><rect id="Background" fill="url(#linear-gradient)" height="512" rx="150" width="512"/><path d="m512 343.72v18.28c0 82.84-67.16 150-150 150h-19.77l-150.94-150.94-5.61-90.93 42.89-107.62 89.88-12.35z" fill="url(#linear-gradient-2)"/><path d="m168.24 323.25c3.42 9.29 7.75 17.8 12.99 25.55s11.51 14.38 18.8 19.91 15.55 9.83 24.78 12.9 19.59 4.61 31.1 4.61 21.93-1.71 31.27-5.13 17.63-8.09 24.87-14.01c7.23-5.92 13.5-12.9 18.8-20.94s9.63-16.69 12.99-25.98c3.36-9.28 5.87-18.97 7.52-29.05s2.48-20.14 2.48-30.16c0-21.76-2.28-41.04-6.84-57.85-4.56-16.8-11.05-30.93-19.48-42.38s-18.69-20.14-30.76-26.06c-12.08-5.92-25.69-8.89-40.84-8.89-13.56 0-26.29 3.28-38.2 9.83s-22.28 15.75-31.1 27.6c-8.83 11.85-15.78 26.06-20.85 42.64s-7.6 34.95-7.6 55.11c0 11.17.83 22.02 2.48 32.56s4.19 20.45 7.61 29.74zm59.3-93.05c1.48-7.52 3.5-14.21 6.07-20.08 2.56-5.87 5.64-10.6 9.23-14.18s7.55-5.38 11.88-5.38c4.56 0 8.69 1.43 12.39 4.27 3.7 2.85 6.84 6.98 9.4 12.39s4.56 11.99 5.98 19.74 2.14 16.52 2.14 26.32c0 9.23-.6 17.58-1.79 25.04-1.2 7.46-3.05 13.79-5.55 18.97-2.51 5.19-5.61 9.17-9.31 11.96s-8.12 4.19-13.24 4.19-9.37-1.42-13.07-4.27-6.75-6.89-9.14-12.13-4.19-11.56-5.38-18.97c-1.2-7.4-1.79-15.66-1.79-24.78 0-7.86.74-15.55 2.22-23.07z" fill="#fff"/></g></g></svg>