<svg id="Layer_2" height="512" viewBox="0 0 512 512" width="512" xmlns="http://www.w3.org/2000/svg" xmlns:xlink="http://www.w3.org/1999/xlink" data-name="Layer 2"><linearGradient id="linear-gradient" gradientUnits="userSpaceOnUse" x1="43.93" x2="468.07" y1="43.93" y2="468.07"><stop offset="0" stop-color="#64b5f6"/><stop offset="1" stop-color="#1976d2"/></linearGradient><linearGradient id="linear-gradient-2" gradientUnits="userSpaceOnUse" x1="199.99" x2="474.99" y1="186.15" y2="461.14"><stop offset="0" stop-opacity=".35"/><stop offset="1" stop-opacity="0"/></linearGradient><g id="Icon"><g id="_1" data-name="1"><rect id="Background" fill="url(#linear-gradient)" height="512" rx="150" width="512"/><path d="m512 325.97v36.03c0 82.84-67.16 150-150 150h-8.34l-129.53-129.54 10.32-5.23 41.23-87.45-89.66-89.66 132.61-67.51z" fill="url(#linear-gradient-2)"/><path d="m220.11 204.56c6.21 1.03 12.45 2.17 18.71 3.42.23 5.81.43 11.31.6 16.49.17 5.19.31 9.77.43 13.76.11 3.99.2 7.21.26 9.66s.09 3.85.09 4.19c0 2.17-.03 6.15-.09 11.96s-.26 12.71-.6 20.68c-.34 7.98-.85 16.58-1.54 25.81s-1.62 18.32-2.82 27.26c-1.2 8.95-2.71 17.35-4.53 25.21s-3.99 14.36-6.49 19.48c14.24-2.28 27.46-3.82 39.65-4.61 12.19-.8 22.9-1.2 32.13-1.2 4.79 0 9 .06 12.65.17 3.64.12 6.78.29 9.4.51 2.96.23 5.64.46 8.03.68-2.96-10.6-5.44-21.7-7.43-33.33-1.99-11.62-3.65-23.47-4.96-35.55s-2.25-24.24-2.82-36.49-.85-24.29-.85-36.15c0-10.25.2-20.22.6-29.91.4-9.68 1-18.94 1.79-27.77.8-8.83 1.71-17.15 2.73-24.95 1.03-7.8 2.22-14.9 3.59-21.28-2.51.34-5.41.68-8.72 1.03-2.85.23-6.32.46-10.42.68-4.1.23-8.72.34-13.84.34-7.75 0-16.44-.34-26.06-1.03-9.63-.68-20.2-2.05-31.7-4.1-.91 3.87-2.14 8.32-3.67 13.33-1.54 5.01-3.82 10.54-6.84 16.58s-7.04 12.48-12.05 19.31c-5.01 6.84-11.45 13.96-19.31 21.36 5.47.46 11.16 1.08 17.09 1.88 5.13.68 10.79 1.54 17 2.56z" fill="#fff"/></g></g></svg>