<svg id="Layer_2" height="512" viewBox="0 0 512 512" width="512" xmlns="http://www.w3.org/2000/svg" xmlns:xlink="http://www.w3.org/1999/xlink" data-name="Layer 2"><linearGradient id="linear-gradient" gradientUnits="userSpaceOnUse" x1="43.93" x2="468.07" y1="43.93" y2="468.07"><stop offset="0" stop-color="#64b5f6"/><stop offset="1" stop-color="#1976d2"/></linearGradient><linearGradient id="linear-gradient-2" gradientUnits="userSpaceOnUse" x1="135.27" x2="463.63" y1="144.14" y2="472.5"><stop offset="0" stop-opacity=".35"/><stop offset="1" stop-opacity="0"/></linearGradient><g id="Icon"><g id="_10" data-name="10"><rect id="Background" fill="url(#linear-gradient)" height="512" rx="150" width="512"/><path d="m512 265.02v96.98c0 82.84-67.16 150-150 150h-114.72l-129.71-129.71 60.75-83.48-98.86-98.86 15.07-4.5 117.55-63.01 61.81 61.81 123.08-44.26z" fill="url(#linear-gradient-2)"/><path d="m96.55 201.83c-5.93-.8-11.62-1.42-17.09-1.88 7.86-7.4 14.3-14.53 19.31-21.36 5.01-6.84 9.03-13.27 12.05-19.31s5.3-11.56 6.84-16.58c1.54-5.01 2.76-9.46 3.67-13.33 11.51 2.05 22.07 3.42 31.7 4.1s18.31 1.03 26.06 1.03c5.13 0 9.74-.11 13.84-.34s7.58-.45 10.42-.68c3.3-.34 6.21-.68 8.72-1.03-1.37 6.38-2.56 13.47-3.59 21.28-1.03 7.8-1.94 16.12-2.73 24.95-.8 8.83-1.4 18.09-1.79 27.77-.4 9.69-.6 19.65-.6 29.91 0 11.85.28 23.9.85 36.14.57 12.25 1.51 24.41 2.82 36.49s2.96 23.93 4.96 35.55c1.99 11.62 4.47 22.73 7.43 33.33-2.39-.23-5.07-.45-8.03-.68-2.62-.23-5.75-.4-9.4-.51s-7.86-.17-12.65-.17c-9.23 0-19.94.4-32.13 1.2s-25.41 2.33-39.65 4.61c2.5-5.13 4.67-11.62 6.49-19.48s3.33-16.26 4.53-25.21c1.2-8.94 2.14-18.03 2.82-27.26s1.2-17.83 1.54-25.81c.34-7.97.54-14.87.6-20.68s.09-9.8.09-11.96c0-.34-.03-1.74-.09-4.19s-.14-5.67-.26-9.66-.26-8.57-.43-13.76c-.17-5.18-.37-10.68-.6-16.49-6.27-1.25-12.5-2.39-18.71-3.42s-11.88-1.88-17-2.56zm199.87-66.22c11.9-6.55 24.64-9.83 38.2-9.83 15.15 0 28.77 2.96 40.84 8.89 12.08 5.93 22.33 14.61 30.76 26.06s14.92 25.58 19.48 42.38c4.56 16.81 6.84 36.09 6.84 57.85 0 10.03-.83 20.08-2.48 30.16s-4.16 19.77-7.52 29.05c-3.36 9.29-7.69 17.94-12.99 25.98-5.3 8.03-11.56 15.01-18.8 20.93-7.24 5.93-15.52 10.6-24.87 14.01-9.34 3.42-19.77 5.13-31.27 5.13s-21.88-1.54-31.1-4.61-17.49-7.38-24.78-12.9c-7.29-5.53-13.56-12.16-18.8-19.91s-9.57-16.26-12.99-25.55-5.96-19.2-7.61-29.74-2.48-21.39-2.48-32.56c0-20.17 2.53-38.54 7.6-55.12s12.02-30.79 20.85-42.64 19.2-21.05 31.1-27.6zm7.61 117.66c0 9.12.6 17.38 1.79 24.78 1.2 7.41 2.99 13.73 5.38 18.97s5.44 9.29 9.14 12.13c3.7 2.85 8.06 4.27 13.07 4.27s9.54-1.39 13.24-4.19c3.7-2.79 6.81-6.78 9.31-11.96s4.36-11.51 5.55-18.97c1.2-7.46 1.79-15.81 1.79-25.04 0-9.8-.71-18.57-2.14-26.32s-3.42-14.33-5.98-19.74-5.7-9.54-9.4-12.39-7.83-4.27-12.39-4.27-8.29 1.79-11.88 5.38-6.67 8.32-9.23 14.19-4.59 12.56-6.07 20.08-2.22 15.21-2.22 23.07z" fill="#fff"/></g></g></svg>