<svg id="Layer_2" height="512" viewBox="0 0 512 512" width="512" xmlns="http://www.w3.org/2000/svg" xmlns:xlink="http://www.w3.org/1999/xlink" data-name="Layer 2"><linearGradient id="linear-gradient" gradientUnits="userSpaceOnUse" x1="43.93" x2="468.07" y1="43.93" y2="468.07"><stop offset="0" stop-color="#64b5f6"/><stop offset="1" stop-color="#1976d2"/></linearGradient><linearGradient id="linear-gradient-2" gradientUnits="userSpaceOnUse" x1="115.18" x2="464.48" y1="122.35" y2="471.65"><stop offset="0" stop-opacity=".35"/><stop offset="1" stop-opacity="0"/></linearGradient><g id="Icon"><g id="_100" data-name="100"><rect id="Background" fill="url(#linear-gradient)" height="512" rx="150" width="512"/><path d="m512 225.9v136.1c0 82.84-67.16 150-150 150h-150.43l-153.94-153.95 44.83-71.72-75.63-75.63 107.16-54.54 47.79 47.78 101.59-33.63 63.81 63.81 48.12-46.59 61.25-17.08z" fill="url(#linear-gradient-2)"/><path d="m139.93 354.46c-1.93-.18-4.1-.37-6.49-.55-2.12-.18-4.65-.32-7.6-.41s-6.35-.14-10.22-.14c-7.46 0-16.11.32-25.96.97s-20.53 1.89-32.04 3.73c2.02-4.14 3.77-9.39 5.25-15.74 1.47-6.35 2.69-13.14 3.66-20.37s1.73-14.57 2.28-22.03.97-14.41 1.24-20.85c.28-6.44.44-12.01.48-16.71.05-4.7.07-7.92.07-9.67 0-.28-.02-1.4-.07-3.38s-.12-4.58-.21-7.8-.21-6.93-.35-11.12-.3-8.63-.48-13.33c-5.06-1.01-10.1-1.93-15.12-2.76s-9.6-1.52-13.74-2.07c-4.79-.64-9.39-1.15-13.81-1.52 6.35-5.98 11.55-11.74 15.6-17.26s7.3-10.72 9.74-15.6 4.28-9.34 5.52-13.4c1.24-4.05 2.23-7.64 2.97-10.77 9.3 1.66 17.84 2.76 25.62 3.31s14.8.83 21.06.83c4.14 0 7.87-.09 11.19-.28 3.31-.18 6.12-.37 8.42-.55 2.67-.28 5.02-.55 7.04-.83-1.1 5.16-2.07 10.89-2.9 17.19-.83 6.31-1.57 13.03-2.21 20.16-.65 7.14-1.13 14.62-1.45 22.44-.32 7.83-.48 15.88-.48 24.17 0 9.58.23 19.31.69 29.21s1.22 19.73 2.28 29.48c1.06 9.76 2.39 19.33 4 28.72s3.61 18.37 6.01 26.93zm172.21-94.46c0 8.1-.67 16.23-2 24.37-1.34 8.15-3.36 15.97-6.08 23.48-2.72 7.5-6.21 14.5-10.5 20.99-4.28 6.49-9.34 12.13-15.19 16.92s-12.54 8.56-20.09 11.32-15.97 4.14-25.27 4.14-17.68-1.24-25.13-3.73c-7.46-2.49-14.13-5.96-20.02-10.43-5.89-4.46-10.96-9.83-15.19-16.09-4.24-6.26-7.73-13.14-10.5-20.64-2.76-7.5-4.81-15.51-6.15-24.03-1.34-8.51-2-17.28-2-26.31 0-16.3 2.05-31.14 6.14-44.54 4.1-13.39 9.71-24.88 16.85-34.45 7.13-9.57 15.51-17.01 25.13-22.3s19.91-7.94 30.86-7.94c12.24 0 23.25 2.39 33 7.18 9.76 4.79 18.04 11.81 24.86 21.06 6.81 9.25 12.06 20.67 15.74 34.25s5.52 29.16 5.52 46.75zm-55.93-6.21c0-7.92-.58-15.01-1.73-21.27s-2.76-11.58-4.83-15.95-4.6-7.71-7.59-10.01-6.33-3.45-10.01-3.45-6.7 1.45-9.6 4.35-5.39 6.72-7.46 11.46-3.71 10.15-4.9 16.23c-1.2 6.08-1.8 12.29-1.8 18.64 0 7.37.48 14.04 1.45 20.02.97 5.99 2.42 11.1 4.35 15.33 1.93 4.24 4.4 7.5 7.39 9.8s6.51 3.45 10.56 3.45 7.71-1.13 10.7-3.38c2.99-2.26 5.5-5.48 7.53-9.67 2.02-4.19 3.52-9.3 4.49-15.33s1.45-12.77 1.45-20.23zm228.96 6.21c0 8.1-.67 16.23-2 24.37-1.34 8.15-3.36 15.97-6.08 23.48-2.72 7.5-6.21 14.5-10.5 20.99-4.28 6.49-9.34 12.13-15.19 16.92s-12.54 8.56-20.09 11.32-15.97 4.14-25.27 4.14-17.68-1.24-25.13-3.73c-7.46-2.49-14.13-5.96-20.02-10.43-5.89-4.46-10.96-9.83-15.19-16.09-4.24-6.26-7.73-13.14-10.5-20.64-2.76-7.5-4.81-15.51-6.15-24.03-1.34-8.51-2-17.28-2-26.31 0-16.3 2.05-31.14 6.14-44.54 4.1-13.39 9.71-24.88 16.85-34.45 7.13-9.57 15.51-17.01 25.13-22.3s19.91-7.94 30.86-7.94c12.24 0 23.25 2.39 33 7.18 9.76 4.79 18.04 11.81 24.86 21.06 6.81 9.25 12.06 20.67 15.74 34.25s5.52 29.16 5.52 46.75zm-55.93-6.21c0-7.92-.58-15.01-1.73-21.27s-2.76-11.58-4.83-15.95-4.6-7.71-7.59-10.01-6.33-3.45-10.01-3.45-6.7 1.45-9.6 4.35-5.39 6.72-7.46 11.46-3.71 10.15-4.9 16.23c-1.2 6.08-1.8 12.29-1.8 18.64 0 7.37.48 14.04 1.45 20.02.97 5.99 2.42 11.1 4.35 15.33 1.93 4.24 4.4 7.5 7.39 9.8s6.51 3.45 10.56 3.45 7.71-1.13 10.7-3.38c2.99-2.26 5.5-5.48 7.53-9.67 2.02-4.19 3.52-9.3 4.49-15.33s1.45-12.77 1.45-20.23z" fill="#fff"/></g></g></svg>