<svg id="Layer_2" height="512" viewBox="0 0 512 512" width="512" xmlns="http://www.w3.org/2000/svg" xmlns:xlink="http://www.w3.org/1999/xlink" data-name="Layer 2"><linearGradient id="linear-gradient" gradientUnits="userSpaceOnUse" x1="43.93" x2="468.07" y1="43.93" y2="468.07"><stop offset="0" stop-color="#64b5f6"/><stop offset="1" stop-color="#1976d2"/></linearGradient><linearGradient id="linear-gradient-2" gradientUnits="userSpaceOnUse" x1="140.41" x2="464.76" y1="147.03" y2="471.37"><stop offset="0" stop-opacity=".35"/><stop offset="1" stop-opacity="0"/></linearGradient><g id="Icon"><g id="_12" data-name="12"><rect id="Background" fill="url(#linear-gradient)" height="512" rx="150" width="512"/><path d="m512 263.59v98.41c0 82.84-67.16 150-150 150h-111.65l-127.22-127.23 23.74-16.47 18.95-85.08-80.8-80.8 132.61-67.5 42.75 42.74 141.48-24.22z" fill="url(#linear-gradient-2)"/><path d="m102.11 204.3c-5.93-.8-11.62-1.42-17.09-1.88 7.86-7.4 14.3-14.53 19.31-21.36 5.01-6.84 9.03-13.27 12.05-19.31s5.3-11.56 6.84-16.58c1.54-5.01 2.76-9.46 3.67-13.33 11.51 2.05 22.07 3.42 31.7 4.1s18.31 1.03 26.06 1.03c5.13 0 9.74-.11 13.84-.34s7.58-.45 10.42-.68c3.3-.34 6.21-.68 8.72-1.03-1.37 6.38-2.56 13.47-3.59 21.28-1.03 7.8-1.94 16.12-2.73 24.95-.8 8.83-1.4 18.09-1.79 27.77-.4 9.69-.6 19.65-.6 29.91 0 11.85.28 23.9.85 36.14.57 12.25 1.51 24.41 2.82 36.49s2.96 23.93 4.96 35.55c1.99 11.62 4.47 22.73 7.43 33.33-2.39-.23-5.07-.45-8.03-.68-2.62-.23-5.75-.4-9.4-.51s-7.86-.17-12.65-.17c-9.23 0-19.94.4-32.13 1.2s-25.41 2.33-39.65 4.61c2.5-5.13 4.67-11.62 6.49-19.48s3.33-16.26 4.53-25.21c1.2-8.94 2.14-18.03 2.82-27.26s1.2-17.83 1.54-25.81c.34-7.97.54-14.87.6-20.68s.09-9.8.09-11.96c0-.34-.03-1.74-.09-4.19s-.14-5.67-.26-9.66-.26-8.57-.43-13.76c-.17-5.18-.37-10.68-.6-16.49-6.27-1.25-12.5-2.39-18.71-3.42s-11.88-1.88-17-2.56zm225.93 113.13c5.24-4.21 10.85-8 16.83-11.37 5.98-3.36 12.16-6.46 18.54-9.31s12.62-5.84 18.71-8.97 11.85-6.58 17.26-10.34 10.17-8.2 14.27-13.33 7.35-11.16 9.74-18.12c2.39-6.95 3.59-15.15 3.59-24.61 0-13.33-2.02-25.75-6.07-37.26-4.04-11.51-10.14-21.47-18.29-29.91-8.15-8.43-18.4-15.04-30.76-19.82-12.36-4.79-26.92-7.18-43.67-7.18-14.7 0-27.51 2.08-38.45 6.24s-20.05 9.71-27.34 16.66-12.73 14.87-16.32 23.75-5.38 18.06-5.38 27.51c0 7.07 1.14 13.19 3.42 18.37 2.28 5.19 5.44 9.51 9.48 12.99s8.77 6.07 14.18 7.78 11.19 2.56 17.35 2.56c4.79 0 9.48-.51 14.1-1.54s8.94-2.5 12.99-4.44c4.04-1.94 7.69-4.36 10.94-7.26s5.84-6.18 7.78-9.83c-2.39.68-4.44 1.03-6.15 1.03-1.6 0-3.16-.37-4.7-1.11s-2.93-1.74-4.19-2.99c-1.25-1.25-2.25-2.71-2.99-4.36s-1.11-3.39-1.11-5.21c0-1.94.37-3.96 1.11-6.07s1.88-4.02 3.42-5.73 3.47-3.13 5.81-4.27c2.33-1.14 5.04-1.71 8.12-1.71 3.64 0 6.72.68 9.23 2.05 2.5 1.37 4.5 3.11 5.98 5.21 1.48 2.11 2.53 4.36 3.16 6.75.62 2.39.94 4.61.94 6.67 0 8.77-1.54 16.24-4.61 22.39s-7.15 11.68-12.22 16.58-10.85 9.46-17.35 13.67c-6.49 4.22-13.13 8.72-19.91 13.5-6.78 4.79-13.42 10.14-19.91 16.06-6.49 5.93-12.28 13.1-17.35 21.53s-9.14 18.37-12.22 29.82-4.61 25.09-4.61 40.93c14.81-2.05 29.93-3.59 45.37-4.61 15.44-1.03 31.13-1.54 47.08-1.54s31.04.51 46.31 1.54 30.02 2.56 44.26 4.61c-2.05-9.23-3.56-18.54-4.53-27.94s-1.45-18.83-1.45-28.28c0-5.81.17-11.65.51-17.52s.91-11.82 1.71-17.86c-12.19 10.94-27.17 19.85-44.95 26.75-17.77 6.89-38.17 11.14-61.18 12.73 3.76-5.92 8.26-10.99 13.5-15.21z" fill="#fff"/></g></g></svg>