<svg id="Layer_2" height="512" viewBox="0 0 512 512" width="512" xmlns="http://www.w3.org/2000/svg" xmlns:xlink="http://www.w3.org/1999/xlink" data-name="Layer 2"><linearGradient id="linear-gradient" gradientUnits="userSpaceOnUse" x1="43.93" x2="468.07" y1="43.93" y2="468.07"><stop offset="0" stop-color="#64b5f6"/><stop offset="1" stop-color="#1976d2"/></linearGradient><linearGradient id="linear-gradient-2" gradientUnits="userSpaceOnUse" x1="149.75" x2="473.92" y1="138.04" y2="462.21"><stop offset="0" stop-opacity=".35"/><stop offset="1" stop-opacity="0"/></linearGradient><g id="Icon"><g id="_14" data-name="14"><rect id="Background" fill="url(#linear-gradient)" height="512" rx="150" width="512"/><path d="m412.71 132.61 99.29 99.29v130.1c0 82.84-67.16 150-150 150h-106.69l-129.53-129.54 56.43-87.8-94.54-94.54 132.61-67.51 68.5 68.5z" fill="url(#linear-gradient-2)"/><path d="m104.75 202c-5.93-.8-11.62-1.42-17.09-1.88 7.86-7.4 14.3-14.53 19.31-21.36 5.01-6.84 9.03-13.27 12.05-19.31s5.3-11.56 6.84-16.58c1.54-5.01 2.76-9.46 3.67-13.33 11.51 2.05 22.07 3.42 31.7 4.1s18.31 1.03 26.06 1.03c5.13 0 9.74-.11 13.84-.34s7.58-.45 10.42-.68c3.3-.34 6.21-.68 8.72-1.03-1.37 6.38-2.56 13.47-3.59 21.28-1.03 7.8-1.94 16.12-2.73 24.95-.8 8.83-1.4 18.09-1.79 27.77-.4 9.69-.6 19.65-.6 29.91 0 11.85.28 23.9.85 36.14.57 12.25 1.51 24.41 2.82 36.49s2.96 23.93 4.96 35.55c1.99 11.62 4.47 22.73 7.43 33.33-2.39-.23-5.07-.45-8.03-.68-2.62-.23-5.75-.4-9.4-.51s-7.86-.17-12.65-.17c-9.23 0-19.94.4-32.13 1.2s-25.41 2.33-39.65 4.61c2.5-5.13 4.67-11.62 6.49-19.48s3.33-16.26 4.53-25.21c1.2-8.94 2.14-18.03 2.82-27.26s1.2-17.83 1.54-25.81c.34-7.97.54-14.87.6-20.68s.09-9.8.09-11.96c0-.34-.03-1.74-.09-4.19s-.14-5.67-.26-9.66-.26-8.57-.43-13.76c-.17-5.18-.37-10.68-.6-16.49-6.27-1.25-12.5-2.39-18.71-3.42s-11.88-1.88-17-2.56zm299.24 34.52v20.68c3.87-.91 7.52-1.82 10.94-2.73s6.55-2.11 9.4-3.59c-.91 5.13-1.57 10.17-1.96 15.12-.4 4.96-.6 10-.6 15.12 0 9.91.85 19.82 2.56 29.74-2.62-1.25-5.41-2.39-8.37-3.42s-5.93-1.99-8.89-2.91c1.25 12.99 2.93 25.66 5.04 38.03 2.11 12.36 4.75 24.18 7.95 35.46-2.28-.23-4.9-.45-7.86-.68-2.62-.23-5.78-.4-9.49-.51-3.7-.11-7.95-.17-12.73-.17-9.12 0-19.8.4-32.04 1.2-12.25.8-25.49 2.33-39.73 4.61 2.05-4.21 3.87-9.46 5.47-15.72 1.59-6.26 2.99-13.01 4.19-20.25 1.2-7.23 2.16-14.78 2.91-22.64.74-7.86 1.34-15.49 1.79-22.9-2.28.12-6.27.06-11.96-.17-5.7-.23-12.79-.23-21.28 0s-18.14.85-28.97 1.88-22.5 2.79-35.03 5.3c5.7-17.54 10.99-33.78 15.89-48.71 4.9-14.92 9.34-29.28 13.33-43.07 3.99-13.78 7.4-27.4 10.25-40.84s5.07-27.46 6.67-42.04c21.99 1.94 43.86 2.76 65.62 2.48s43.63-1.34 65.62-3.16c-2.62 12.88-4.73 28.28-6.32 46.23-1.6 17.94-2.39 37.17-2.39 57.68zm-69.73 25.63c0-2.96-.03-6.89-.09-11.79s-.17-10.42-.34-16.58-.37-12.79-.6-19.91-.57-14.38-1.03-21.79c-5.13 9.91-9.23 20.79-12.3 32.64-3.08 11.85-5.87 23.98-8.37 36.4 2.62.23 4.96.4 7.01.51 2.05.12 3.93.2 5.64.26s3.36.11 4.96.17c1.59.06 3.3.09 5.13.09z" fill="#fff"/></g></g></svg>