<svg id="Layer_2" height="512" viewBox="0 0 512 512" width="512" xmlns="http://www.w3.org/2000/svg" xmlns:xlink="http://www.w3.org/1999/xlink" data-name="Layer 2"><linearGradient id="linear-gradient" gradientUnits="userSpaceOnUse" x1="43.93" x2="468.07" y1="43.93" y2="468.07"><stop offset="0" stop-color="#64b5f6"/><stop offset="1" stop-color="#1976d2"/></linearGradient><linearGradient id="linear-gradient-2" gradientUnits="userSpaceOnUse" x1="140.92" x2="468.22" y1="140.62" y2="467.91"><stop offset="0" stop-opacity=".35"/><stop offset="1" stop-opacity="0"/></linearGradient><g id="Icon"><g id="_16" data-name="16"><rect id="Background" fill="url(#linear-gradient)" height="512" rx="150" width="512"/><path d="m512 250.85v111.15c0 82.84-67.16 150-150 150h-110.54l-130.73-130.73 58.03-86.22-96.14-96.13 132.62-67.5 60.51 60.51 42.82-21.76 86.57-26.18z" fill="url(#linear-gradient-2)"/><path d="m99.71 200.8c-5.93-.8-11.62-1.42-17.09-1.88 7.86-7.4 14.3-14.53 19.31-21.36 5.01-6.84 9.03-13.27 12.05-19.31s5.3-11.56 6.84-16.58c1.54-5.01 2.76-9.46 3.67-13.33 11.51 2.05 22.07 3.42 31.7 4.1s18.31 1.03 26.06 1.03c5.13 0 9.74-.11 13.84-.34s7.58-.45 10.42-.68c3.3-.34 6.21-.68 8.72-1.03-1.37 6.38-2.56 13.47-3.59 21.28-1.03 7.8-1.94 16.12-2.73 24.95-.8 8.83-1.4 18.09-1.79 27.77-.4 9.69-.6 19.65-.6 29.91 0 11.85.28 23.9.85 36.14.57 12.25 1.51 24.41 2.82 36.49s2.96 23.93 4.96 35.55c1.99 11.62 4.47 22.73 7.43 33.33-2.39-.23-5.07-.45-8.03-.68-2.62-.23-5.75-.4-9.4-.51s-7.86-.17-12.65-.17c-9.23 0-19.94.4-32.13 1.2s-25.41 2.33-39.65 4.61c2.5-5.13 4.67-11.62 6.49-19.48s3.33-16.26 4.53-25.21c1.2-8.94 2.14-18.03 2.82-27.26s1.2-17.83 1.54-25.81c.34-7.97.54-14.87.6-20.68s.09-9.8.09-11.96c0-.34-.03-1.74-.09-4.19s-.14-5.67-.26-9.66-.26-8.57-.43-13.76c-.17-5.18-.37-10.68-.6-16.49-6.27-1.25-12.5-2.39-18.71-3.42s-11.88-1.88-17-2.56zm329.66 95.87c0 15.04-2.34 28.28-7.01 39.73s-11.19 21.05-19.57 28.8c-8.37 7.75-18.34 13.59-29.91 17.52s-24.24 5.9-38.03 5.9c-14.58 0-27.71-2.42-39.39-7.26s-21.56-12.08-29.65-21.71-14.3-21.67-18.63-36.14-6.49-31.33-6.49-50.59c0-11.05.48-22.41 1.45-34.09s2.82-23.04 5.55-34.09 6.58-21.5 11.54-31.36c4.96-9.85 11.45-18.48 19.48-25.89 8.03-7.4 17.74-13.27 29.14-17.6 11.39-4.33 24.95-6.49 40.67-6.49 9.11 0 17.83 1.2 26.15 3.59s15.66 5.75 22.05 10.08c6.38 4.33 11.45 9.49 15.21 15.47s5.64 12.62 5.64 19.91c0 5.47-1.14 10.57-3.42 15.29-2.28 4.73-5.33 8.83-9.14 12.3-3.82 3.48-8.2 6.21-13.16 8.2-4.96 2-10.06 2.99-15.29 2.99-6.72 0-13.22-1.76-19.48-5.3-6.27-3.53-11.79-9.23-16.58-17.09 1.25.23 2.48.4 3.67.51 1.2.12 2.31.17 3.33.17 2.28 0 3.96-.71 5.04-2.14 1.08-1.42 1.62-3.05 1.62-4.87 0-1.71-.91-3.42-2.73-5.13s-4.67-2.56-8.54-2.56c-6.15 0-11.14 1.57-14.95 4.7-3.82 3.14-6.78 7.09-8.89 11.88s-3.5 10.08-4.19 15.89-1.03 11.45-1.03 16.92c1.03-1.03 2.5-2.14 4.44-3.33 1.94-1.2 4.19-2.25 6.75-3.16s5.35-1.68 8.37-2.31c3.02-.62 6.18-.94 9.49-.94 6.72 0 13.53.6 20.42 1.79 6.89 1.2 13.53 3.11 19.91 5.72 6.38 2.62 12.39 6.07 18.03 10.34s10.54 9.43 14.7 15.47 7.43 13.1 9.83 21.19c2.39 8.09 3.59 17.32 3.59 27.69zm-74.51 1.37c0-9.68-1.65-17.29-4.96-22.82-3.31-5.52-8.54-8.29-15.72-8.29-5.81 0-10.65 2.76-14.53 8.29s-5.93 13.13-6.15 22.82c-.12 4.33.28 8.46 1.2 12.39.91 3.93 2.28 7.38 4.1 10.34s4.02 5.36 6.58 7.18 5.5 2.73 8.8 2.73 6.24-.85 8.8-2.56 4.73-4.04 6.49-7.01c1.77-2.96 3.1-6.44 4.02-10.42.91-3.99 1.37-8.2 1.37-12.65z" fill="#fff"/></g></g></svg>