<svg id="Layer_2" height="512" viewBox="0 0 512 512" width="512" xmlns="http://www.w3.org/2000/svg" xmlns:xlink="http://www.w3.org/1999/xlink" data-name="Layer 2"><linearGradient id="linear-gradient" gradientUnits="userSpaceOnUse" x1="43.93" x2="468.07" y1="43.93" y2="468.07"><stop offset="0" stop-color="#64b5f6"/><stop offset="1" stop-color="#1976d2"/></linearGradient><linearGradient id="linear-gradient-2" gradientUnits="userSpaceOnUse" x1="155.39" x2="476.91" y1="137.7" y2="459.22"><stop offset="0" stop-opacity=".35"/><stop offset="1" stop-opacity="0"/></linearGradient><g id="Icon"><g id="_17" data-name="17"><rect id="Background" fill="url(#linear-gradient)" height="512" rx="150" width="512"/><path d="m512 225.23v136.77c0 82.84-67.16 150-150 150h-101.39l-129.54-129.54 58.77-85.47-96.88-96.87 132.62-67.51 42.23 42.24 151.23-42.58z" fill="url(#linear-gradient-2)"/><path d="m110.05 202c-5.93-.8-11.62-1.42-17.09-1.88 7.86-7.4 14.3-14.53 19.31-21.36 5.01-6.84 9.03-13.27 12.05-19.31s5.3-11.56 6.84-16.58c1.54-5.01 2.76-9.46 3.67-13.33 11.51 2.05 22.07 3.42 31.7 4.1s18.31 1.03 26.06 1.03c5.13 0 9.74-.11 13.84-.34s7.58-.45 10.42-.68c3.3-.34 6.21-.68 8.72-1.03-1.37 6.38-2.56 13.47-3.59 21.28-1.03 7.8-1.94 16.12-2.73 24.95-.8 8.83-1.4 18.09-1.79 27.77-.4 9.69-.6 19.65-.6 29.91 0 11.85.28 23.9.85 36.14.57 12.25 1.51 24.41 2.82 36.49s2.96 23.93 4.96 35.55c1.99 11.62 4.47 22.73 7.43 33.33-2.39-.23-5.07-.45-8.03-.68-2.62-.23-5.75-.4-9.4-.51s-7.86-.17-12.65-.17c-9.23 0-19.94.4-32.13 1.2s-25.41 2.33-39.65 4.61c2.5-5.13 4.67-11.62 6.49-19.48s3.33-16.26 4.53-25.21c1.2-8.94 2.14-18.03 2.82-27.26s1.2-17.83 1.54-25.81c.34-7.97.54-14.87.6-20.68s.09-9.8.09-11.96c0-.34-.03-1.74-.09-4.19s-.14-5.67-.26-9.66-.26-8.57-.43-13.76c-.17-5.18-.37-10.68-.6-16.49-6.27-1.25-12.5-2.39-18.71-3.42s-11.88-1.88-17-2.56zm138.77-17.69c-.12 2.68-.2 5.5-.26 8.46s-.2 5.81-.43 8.54-.46 5.19-.68 7.35c-.23 2.17-.51 3.76-.85 4.79 5.47-3.53 11.39-6.38 17.77-8.54s12.96-3.87 19.74-5.13c6.78-1.25 13.59-2.11 20.42-2.56 6.84-.45 13.5-.74 20-.85-.68 6.27-1.97 14.04-3.85 23.33s-4.25 19.4-7.09 30.33c-2.85 10.94-6.15 22.39-9.91 34.35s-7.83 23.78-12.22 35.46-9.12 22.9-14.18 33.67c-5.07 10.77-10.28 20.42-15.64 28.97 7.29-1.14 13.93-2.08 19.91-2.82s11.59-1.34 16.83-1.79 10.2-.77 14.87-.94 9.28-.26 13.84-.26c4.79 0 9.17.06 13.16.17 3.99.12 7.46.29 10.42.51 3.53.23 6.72.46 9.57.68 1.82-17.2 3.76-33.44 5.81-48.71s4.33-29.85 6.84-43.75c2.5-13.9 5.27-27.29 8.29-40.16s6.41-25.55 10.17-38.03c3.76-12.47 7.92-24.89 12.48-37.26 4.56-12.36 9.63-24.98 15.21-37.85-13.33 2.28-27.46 3.96-42.38 5.04-14.93 1.08-29.91 1.54-44.95 1.37s-29.82-.94-44.35-2.31-28.11-3.42-40.76-6.15c.68 7.07 1.25 14.07 1.71 21.02.45 6.95.68 13.96.68 21.02v4.79c0 2.17-.06 4.59-.17 7.26z" fill="#fff"/></g></g></svg>