<svg id="Layer_2" height="512" viewBox="0 0 512 512" width="512" xmlns="http://www.w3.org/2000/svg" xmlns:xlink="http://www.w3.org/1999/xlink" data-name="Layer 2"><linearGradient id="linear-gradient" gradientUnits="userSpaceOnUse" x1="43.93" x2="468.07" y1="43.93" y2="468.07"><stop offset="0" stop-color="#64b5f6"/><stop offset="1" stop-color="#1976d2"/></linearGradient><linearGradient id="linear-gradient-2" gradientUnits="userSpaceOnUse" x1="140.17" x2="466.74" y1="142.82" y2="469.39"><stop offset="0" stop-opacity=".35"/><stop offset="1" stop-opacity="0"/></linearGradient><g id="Icon"><g id="_18" data-name="18"><rect id="Background" fill="url(#linear-gradient)" height="512" rx="150" width="512"/><path d="m512 259.06v102.94c0 82.84-67.16 150-150 150h-108.22l-131.17-131.16 61.51-82.73-99.62-99.62 132.62-67.5 51.65 51.65 130.85-35.95z" fill="url(#linear-gradient-2)"/><path d="m101.59 200.37c-5.93-.8-11.62-1.42-17.09-1.88 7.86-7.4 14.3-14.53 19.31-21.36 5.01-6.84 9.03-13.27 12.05-19.31s5.3-11.56 6.84-16.58c1.54-5.01 2.76-9.46 3.67-13.33 11.51 2.05 22.07 3.42 31.7 4.1s18.31 1.03 26.06 1.03c5.13 0 9.74-.11 13.84-.34s7.58-.45 10.42-.68c3.3-.34 6.21-.68 8.72-1.03-1.37 6.38-2.56 13.47-3.59 21.28-1.03 7.8-1.94 16.12-2.73 24.95-.8 8.83-1.4 18.09-1.79 27.77-.4 9.69-.6 19.65-.6 29.91 0 11.85.28 23.9.85 36.14.57 12.25 1.51 24.41 2.82 36.49s2.96 23.93 4.96 35.55c1.99 11.62 4.47 22.73 7.43 33.33-2.39-.23-5.07-.45-8.03-.68-2.62-.23-5.75-.4-9.4-.51s-7.86-.17-12.65-.17c-9.23 0-19.94.4-32.13 1.2s-25.41 2.33-39.65 4.61c2.5-5.13 4.67-11.62 6.49-19.48s3.33-16.26 4.53-25.21c1.2-8.94 2.14-18.03 2.82-27.26s1.2-17.83 1.54-25.81c.34-7.97.54-14.87.6-20.68s.09-9.8.09-11.96c0-.34-.03-1.74-.09-4.19s-.14-5.67-.26-9.66-.26-8.57-.43-13.76c-.17-5.18-.37-10.68-.6-16.49-6.27-1.25-12.5-2.39-18.71-3.42s-11.88-1.88-17-2.56zm295.65 44.18c-4.1 3.36-8.03 5.21-11.79 5.55 5.24 1.48 10.4 3.79 15.47 6.92 5.07 3.14 9.57 7.21 13.5 12.22s7.09 11 9.48 17.94c2.39 6.95 3.59 14.98 3.59 24.1 0 10.48-1.82 20.4-5.47 29.74s-9.26 17.55-16.83 24.61c-7.58 7.07-17.23 12.67-28.97 16.83s-25.69 6.24-41.87 6.24-30.14-2.08-41.87-6.24c-11.74-4.16-21.39-9.77-28.97-16.83s-13.19-15.27-16.83-24.61c-3.65-9.34-5.47-19.25-5.47-29.74 0-9.11 1.2-17.15 3.59-24.1s5.55-12.93 9.48-17.94 8.43-9.08 13.5-12.22c5.07-3.13 10.22-5.44 15.47-6.92-3.99-.23-8.03-2.08-12.13-5.55s-7.86-7.75-11.28-12.82-6.21-10.51-8.37-16.32c-2.17-5.81-3.25-11.16-3.25-16.06 0-9.57 1.79-18.91 5.38-28.03 3.59-9.11 8.97-17.23 16.15-24.35s16.15-12.84 26.92-17.17 23.33-6.49 37.68-6.49 27.97 2.17 38.79 6.49c10.82 4.33 19.74 10.06 26.75 17.17 7.01 7.12 12.19 15.24 15.55 24.35 3.36 9.12 5.04 18.46 5.04 28.03 0 5.36-1.11 10.91-3.33 16.66s-5.07 11.11-8.54 16.06c-3.48 4.96-7.26 9.12-11.37 12.48zm-47.17 61.1c0-3.19-.4-6.41-1.2-9.66s-1.91-6.32-3.33-9.23c-1.43-2.9-3.11-5.58-5.04-8.03-1.94-2.45-3.99-4.53-6.15-6.24-2.28 1.71-4.39 3.85-6.32 6.41-1.94 2.56-3.59 5.3-4.96 8.2-1.37 2.91-2.45 5.96-3.25 9.14-.8 3.19-1.2 6.32-1.2 9.4 0 1.82.26 3.93.77 6.32s1.37 4.64 2.56 6.75c1.2 2.11 2.82 3.9 4.87 5.38s4.56 2.22 7.52 2.22 5.47-.74 7.52-2.22 3.67-3.27 4.87-5.38 2.05-4.36 2.56-6.75.77-4.5.77-6.32zm0-102.88c0-1.82-.26-3.9-.77-6.24-.51-2.33-1.37-4.55-2.56-6.66-1.2-2.11-2.82-3.87-4.87-5.3-2.05-1.42-4.56-2.14-7.52-2.14s-5.47.71-7.52 2.14-3.67 3.19-4.87 5.3-2.05 4.33-2.56 6.66c-.51 2.34-.77 4.42-.77 6.24 0 3.19.48 6.35 1.45 9.48.97 3.14 2.19 6.18 3.67 9.14s3.16 5.84 5.04 8.63 3.73 5.38 5.55 7.78c5.24-5.81 9.17-11.73 11.79-17.77s3.93-11.79 3.93-17.26z" fill="#fff"/></g></g></svg>