<svg id="Layer_2" height="512" viewBox="0 0 512 512" width="512" xmlns="http://www.w3.org/2000/svg" xmlns:xlink="http://www.w3.org/1999/xlink" data-name="Layer 2"><linearGradient id="linear-gradient" gradientUnits="userSpaceOnUse" x1="43.93" x2="468.07" y1="43.93" y2="468.07"><stop offset="0" stop-color="#64b5f6"/><stop offset="1" stop-color="#1976d2"/></linearGradient><linearGradient id="linear-gradient-2" gradientUnits="userSpaceOnUse" x1="121.75" x2="454.02" y1="149.84" y2="482.11"><stop offset="0" stop-opacity=".35"/><stop offset="1" stop-opacity="0"/></linearGradient><g id="Icon"><g id="_20" data-name="20"><rect id="Background" fill="url(#linear-gradient)" height="512" rx="150" width="512"/><path d="m512 241.68v120.32c0 82.84-67.16 150-150 150h-176.5l-129.19-129.19 73.47-90.62-63.11-63.11 31.31-55.46 118.63-22.3 74.77 74.77 20.3-49.41 109.38-25.93z" fill="url(#linear-gradient-2)"/><path d="m143.12 125.26c16.75 0 31.3 2.39 43.66 7.18s22.62 11.39 30.76 19.82 14.24 18.4 18.29 29.91c4.04 11.51 6.07 23.93 6.07 37.26 0 9.46-1.2 17.66-3.59 24.61s-5.64 12.99-9.74 18.12-8.86 9.57-14.27 13.33-11.17 7.21-17.26 10.34c-6.1 3.13-12.33 6.12-18.71 8.97s-12.56 5.96-18.54 9.31c-5.98 3.36-11.59 7.15-16.83 11.37s-9.74 9.29-13.5 15.21c23.01-1.59 43.41-5.84 61.18-12.73s32.75-15.81 44.95-26.75c-.8 6.04-1.37 11.99-1.71 17.86s-.51 11.71-.51 17.52c0 9.46.48 18.88 1.45 28.28s2.48 18.71 4.53 27.94c-14.24-2.05-29-3.59-44.26-4.61-15.27-1.03-30.71-1.54-46.31-1.54s-31.65.51-47.08 1.54c-15.44 1.03-30.56 2.56-45.37 4.61 0-15.83 1.54-29.48 4.61-40.93 3.08-11.45 7.15-21.39 12.22-29.82s10.85-15.61 17.35-21.53c6.49-5.92 13.13-11.28 19.91-16.06 6.78-4.79 13.42-9.28 19.91-13.5 6.49-4.21 12.28-8.77 17.35-13.67s9.14-10.42 12.22-16.58 4.61-13.61 4.61-22.39c0-2.05-.32-4.27-.94-6.67-.63-2.39-1.68-4.64-3.16-6.75s-3.48-3.85-5.98-5.21c-2.51-1.37-5.58-2.05-9.23-2.05-3.08 0-5.78.57-8.12 1.71s-4.27 2.56-5.81 4.27-2.68 3.62-3.42 5.73-1.11 4.13-1.11 6.07c0 1.82.37 3.56 1.11 5.21s1.74 3.11 2.99 4.36 2.65 2.25 4.19 2.99 3.1 1.11 4.7 1.11c1.71 0 3.76-.34 6.15-1.03-1.94 3.65-4.53 6.92-7.78 9.83s-6.89 5.33-10.94 7.26c-4.04 1.94-8.37 3.42-12.99 4.44s-9.31 1.54-14.1 1.54c-6.15 0-11.94-.85-17.35-2.56s-10.14-4.3-14.18-7.78c-4.04-3.47-7.21-7.8-9.48-12.99-2.28-5.18-3.42-11.31-3.42-18.37 0-9.46 1.79-18.63 5.38-27.51s9.03-16.8 16.32-23.75 16.41-12.5 27.34-16.66c10.94-4.16 23.75-6.24 38.45-6.24zm215.33 1.03c15.15 0 28.77 2.96 40.84 8.89 12.08 5.93 22.33 14.61 30.76 26.06s14.92 25.58 19.48 42.38c4.56 16.81 6.84 36.09 6.84 57.85 0 10.03-.83 20.08-2.48 30.16s-4.16 19.77-7.52 29.05c-3.36 9.29-7.69 17.94-12.99 25.98-5.3 8.03-11.56 15.01-18.8 20.93-7.24 5.93-15.52 10.6-24.87 14.01-9.34 3.42-19.77 5.13-31.27 5.13s-21.88-1.54-31.1-4.61-17.49-7.38-24.78-12.9c-7.29-5.53-13.56-12.16-18.8-19.91s-9.57-16.26-12.99-25.55-5.96-19.2-7.61-29.74-2.48-21.39-2.48-32.56c0-20.17 2.53-38.54 7.6-55.12s12.02-30.79 20.85-42.64 19.2-21.05 31.1-27.6 24.64-9.83 38.2-9.83zm11.19 69.04c-3.7-2.85-7.83-4.27-12.39-4.27s-8.29 1.79-11.88 5.38-6.67 8.32-9.23 14.19-4.59 12.56-6.07 20.08-2.22 15.21-2.22 23.07c0 9.12.6 17.38 1.79 24.78 1.2 7.41 2.99 13.73 5.38 18.97s5.44 9.29 9.14 12.13c3.7 2.85 8.06 4.27 13.07 4.27s9.54-1.39 13.24-4.19c3.7-2.79 6.81-6.78 9.31-11.96s4.36-11.51 5.55-18.97c1.2-7.46 1.79-15.81 1.79-25.04 0-9.8-.71-18.57-2.14-26.32s-3.42-14.33-5.98-19.74-5.7-9.54-9.4-12.39z" fill="#fff"/></g></g></svg>