<svg id="Layer_2" height="512" viewBox="0 0 512 512" width="512" xmlns="http://www.w3.org/2000/svg" xmlns:xlink="http://www.w3.org/1999/xlink" data-name="Layer 2"><linearGradient id="linear-gradient" gradientUnits="userSpaceOnUse" x1="43.93" x2="468.07" y1="43.93" y2="468.07"><stop offset="0" stop-color="#64b5f6"/><stop offset="1" stop-color="#1976d2"/></linearGradient><linearGradient id="linear-gradient-2" gradientUnits="userSpaceOnUse" x1="143.51" x2="464.47" y1="150.69" y2="471.65"><stop offset="0" stop-opacity=".35"/><stop offset="1" stop-opacity="0"/></linearGradient><g id="Icon"><g id="_21" data-name="21"><rect id="Background" fill="url(#linear-gradient)" height="512" rx="150" width="512"/><path d="m512 231.47v130.53c0 82.84-67.16 150-150 150h-144.89l-127.22-127.23 69.49-94.6-59.36-59.36 40.72-77.35h109.64l45.7 45.71 119.37-64.25z" fill="url(#linear-gradient-2)"/><path d="m89.2 201.4c0-9.46 1.79-18.63 5.38-27.51s9.03-16.8 16.32-23.75 16.41-12.5 27.34-16.66c10.94-4.16 23.75-6.24 38.45-6.24 16.75 0 31.3 2.39 43.66 7.18s22.62 11.39 30.76 19.82 14.24 18.4 18.29 29.91c4.04 11.51 6.07 23.93 6.07 37.26 0 9.46-1.2 17.66-3.59 24.61s-5.64 12.99-9.74 18.12-8.86 9.57-14.27 13.33-11.17 7.21-17.26 10.34c-6.1 3.13-12.33 6.12-18.71 8.97s-12.56 5.95-18.54 9.31-11.59 7.15-16.83 11.37-9.74 9.29-13.5 15.21c23.01-1.59 43.41-5.84 61.18-12.73s32.75-15.81 44.95-26.75c-.8 6.04-1.37 11.99-1.71 17.86s-.51 11.71-.51 17.52c0 9.46.48 18.88 1.45 28.29.97 9.4 2.48 18.71 4.53 27.94-14.24-2.05-29-3.59-44.26-4.61-15.27-1.03-30.71-1.54-46.31-1.54s-31.65.51-47.08 1.54c-15.44 1.02-30.56 2.56-45.37 4.61 0-15.83 1.54-29.48 4.61-40.93 3.08-11.45 7.15-21.39 12.22-29.82s10.85-15.61 17.35-21.53c6.49-5.92 13.13-11.28 19.91-16.06 6.78-4.79 13.42-9.29 19.91-13.5s12.28-8.77 17.35-13.67 9.14-10.42 12.22-16.58 4.61-13.61 4.61-22.39c0-2.05-.32-4.27-.94-6.66-.63-2.39-1.68-4.64-3.16-6.75s-3.48-3.85-5.98-5.21c-2.51-1.37-5.58-2.05-9.23-2.05-3.08 0-5.78.57-8.12 1.71s-4.27 2.56-5.81 4.27-2.68 3.62-3.42 5.72c-.74 2.11-1.11 4.13-1.11 6.07 0 1.82.37 3.56 1.11 5.21s1.74 3.11 2.99 4.36c1.25 1.26 2.65 2.25 4.19 2.99s3.1 1.11 4.7 1.11c1.71 0 3.76-.34 6.15-1.03-1.94 3.65-4.53 6.92-7.78 9.83s-6.89 5.33-10.94 7.26c-4.04 1.94-8.37 3.42-12.99 4.44s-9.31 1.54-14.1 1.54c-6.15 0-11.94-.85-17.35-2.56s-10.14-4.3-14.18-7.78c-4.04-3.47-7.21-7.8-9.48-12.99-2.28-5.18-3.42-11.31-3.42-18.37zm319.92-20.25c.8-8.83 1.71-17.15 2.73-24.95 1.03-7.8 2.22-14.9 3.59-21.28-2.51.34-5.41.68-8.72 1.03-2.85.23-6.32.46-10.42.68-4.1.23-8.72.34-13.84.34-7.75 0-16.44-.34-26.06-1.03-9.63-.68-20.2-2.05-31.7-4.1-.91 3.88-2.14 8.32-3.67 13.33-1.54 5.01-3.82 10.54-6.84 16.58s-7.04 12.48-12.05 19.31c-5.01 6.84-11.45 13.96-19.31 21.36 5.47.46 11.16 1.08 17.09 1.88 5.13.68 10.79 1.54 17 2.56 6.21 1.03 12.45 2.17 18.71 3.42.23 5.81.43 11.31.6 16.49.17 5.19.31 9.77.43 13.76.11 3.99.2 7.21.26 9.66s.09 3.84.09 4.19c0 2.16-.03 6.15-.09 11.96s-.26 12.71-.6 20.68c-.34 7.98-.85 16.58-1.54 25.8-.68 9.23-1.62 18.32-2.82 27.26-1.2 8.95-2.71 17.35-4.53 25.21s-3.99 14.36-6.49 19.48c14.24-2.28 27.46-3.82 39.65-4.61 12.19-.8 22.9-1.2 32.13-1.2 4.79 0 9 .06 12.65.17 3.64.12 6.78.29 9.4.51 2.96.23 5.64.46 8.03.68-2.96-10.6-5.44-21.71-7.43-33.33s-3.65-23.47-4.96-35.55c-1.31-12.07-2.25-24.24-2.82-36.49s-.85-24.29-.85-36.14c0-10.25.2-20.22.6-29.91.4-9.68 1-18.94 1.79-27.77z" fill="#fff"/></g></g></svg>