<svg id="Layer_2" height="512" viewBox="0 0 512 512" width="512" xmlns="http://www.w3.org/2000/svg" xmlns:xlink="http://www.w3.org/1999/xlink" data-name="Layer 2"><linearGradient id="linear-gradient" gradientUnits="userSpaceOnUse" x1="43.93" x2="468.07" y1="43.93" y2="468.07"><stop offset="0" stop-color="#64b5f6"/><stop offset="1" stop-color="#1976d2"/></linearGradient><linearGradient id="linear-gradient-2" gradientUnits="userSpaceOnUse" x1="119.96" x2="455.4" y1="145.29" y2="480.73"><stop offset="0" stop-opacity=".35"/><stop offset="1" stop-opacity="0"/></linearGradient><g id="Icon"><g id="_22" data-name="22"><rect id="Background" fill="url(#linear-gradient)" height="512" rx="150" width="512"/><path d="m512 239.75v122.25c0 82.84-67.16 150-150 150h-172.91l-127.23-127.23 71.7-92.39-61.58-61.58 40.68-78.2h108.82l68.12 68.12 35.74-43.66 99.51-24.46z" fill="url(#linear-gradient-2)"/><path d="m61.18 201.4c0-9.46 1.79-18.63 5.38-27.51s9.03-16.8 16.32-23.76c7.29-6.95 16.41-12.5 27.34-16.66 10.94-4.16 23.75-6.24 38.45-6.24 16.75 0 31.3 2.39 43.66 7.18s22.62 11.39 30.76 19.82 14.24 18.4 18.29 29.91c4.04 11.51 6.07 23.93 6.07 37.26 0 9.46-1.2 17.66-3.59 24.61s-5.64 12.99-9.74 18.12-8.86 9.57-14.27 13.33-11.17 7.21-17.26 10.34c-6.1 3.13-12.33 6.12-18.71 8.97s-12.56 5.95-18.54 9.31-11.59 7.15-16.83 11.37-9.74 9.29-13.5 15.21c23.01-1.59 43.41-5.84 61.18-12.73s32.75-15.81 44.95-26.75c-.8 6.04-1.37 11.99-1.71 17.86s-.51 11.71-.51 17.52c0 9.46.48 18.88 1.45 28.29.97 9.4 2.48 18.71 4.53 27.94-14.24-2.05-29-3.59-44.26-4.61-15.27-1.03-30.71-1.54-46.31-1.54s-31.65.51-47.08 1.54c-15.44 1.02-30.56 2.56-45.37 4.61 0-15.83 1.54-29.48 4.61-40.93 3.08-11.45 7.15-21.39 12.22-29.82s10.85-15.61 17.35-21.53c6.49-5.92 13.13-11.28 19.91-16.06 6.78-4.79 13.42-9.29 19.91-13.5s12.28-8.77 17.35-13.67 9.14-10.42 12.22-16.58 4.61-13.61 4.61-22.39c0-2.05-.32-4.27-.94-6.66-.63-2.39-1.68-4.64-3.16-6.75s-3.48-3.85-5.98-5.21c-2.51-1.37-5.58-2.05-9.23-2.05-3.08 0-5.78.57-8.12 1.71s-4.27 2.56-5.81 4.27-2.68 3.62-3.42 5.72c-.74 2.11-1.11 4.13-1.11 6.07 0 1.82.37 3.56 1.11 5.21s1.74 3.11 2.99 4.36c1.25 1.26 2.65 2.25 4.19 2.99s3.1 1.11 4.7 1.11c1.71 0 3.76-.34 6.15-1.03-1.94 3.65-4.53 6.92-7.78 9.83s-6.89 5.33-10.94 7.26c-4.04 1.94-8.37 3.42-12.99 4.44s-9.31 1.54-14.1 1.54c-6.15 0-11.94-.85-17.35-2.56s-10.14-4.3-14.18-7.78c-4.04-3.47-7.21-7.8-9.48-12.99-2.28-5.18-3.42-11.31-3.42-18.37zm290.7 116.04c5.24-4.21 10.85-8 16.83-11.37 5.98-3.36 12.16-6.46 18.54-9.31s12.62-5.84 18.71-8.97 11.85-6.58 17.26-10.34 10.17-8.2 14.27-13.33 7.35-11.16 9.74-18.12c2.39-6.95 3.59-15.15 3.59-24.61 0-13.33-2.02-25.75-6.07-37.26-4.04-11.51-10.14-21.47-18.29-29.91-8.15-8.43-18.4-15.04-30.76-19.82-12.36-4.79-26.92-7.18-43.67-7.18-14.7 0-27.51 2.08-38.45 6.24s-20.05 9.71-27.34 16.66-12.73 14.87-16.32 23.76-5.38 18.06-5.38 27.51c0 7.07 1.14 13.19 3.42 18.37 2.28 5.19 5.44 9.51 9.48 12.99s8.77 6.07 14.18 7.78 11.19 2.56 17.35 2.56c4.79 0 9.49-.51 14.1-1.54 4.62-1.03 8.94-2.5 12.99-4.44 4.04-1.94 7.69-4.36 10.94-7.26s5.84-6.18 7.78-9.83c-2.39.68-4.44 1.03-6.15 1.03-1.6 0-3.16-.37-4.7-1.11s-2.93-1.73-4.19-2.99c-1.25-1.25-2.25-2.71-2.99-4.36s-1.11-3.39-1.11-5.21c0-1.94.37-3.96 1.11-6.07s1.88-4.02 3.42-5.72c1.54-1.71 3.47-3.13 5.81-4.27 2.33-1.14 5.04-1.71 8.12-1.71 3.64 0 6.72.68 9.23 2.05 2.5 1.37 4.5 3.11 5.98 5.21 1.48 2.11 2.53 4.36 3.16 6.75.62 2.39.94 4.61.94 6.66 0 8.78-1.54 16.24-4.61 22.39s-7.15 11.68-12.22 16.58-10.85 9.46-17.35 13.67c-6.49 4.22-13.13 8.72-19.91 13.5-6.78 4.79-13.42 10.14-19.91 16.06-6.49 5.93-12.28 13.1-17.35 21.53s-9.14 18.37-12.22 29.82-4.61 25.1-4.61 40.93c14.81-2.05 29.93-3.59 45.37-4.61 15.44-1.03 31.13-1.54 47.08-1.54s31.04.51 46.31 1.54c15.27 1.02 30.02 2.56 44.26 4.61-2.05-9.23-3.56-18.54-4.53-27.94s-1.45-18.83-1.45-28.29c0-5.81.17-11.65.51-17.52s.91-11.82 1.71-17.86c-12.19 10.94-27.17 19.85-44.95 26.75-17.77 6.89-38.17 11.14-61.18 12.73 3.76-5.92 8.26-10.99 13.5-15.21z" fill="#fff"/></g></g></svg>