<svg id="Layer_2" height="512" viewBox="0 0 512 512" width="512" xmlns="http://www.w3.org/2000/svg" xmlns:xlink="http://www.w3.org/1999/xlink" data-name="Layer 2"><linearGradient id="linear-gradient" gradientUnits="userSpaceOnUse" x1="43.93" x2="468.07" y1="43.93" y2="468.07"><stop offset="0" stop-color="#64b5f6"/><stop offset="1" stop-color="#1976d2"/></linearGradient><linearGradient id="linear-gradient-2" gradientUnits="userSpaceOnUse" x1="132.32" x2="463.41" y1="141.63" y2="472.72"><stop offset="0" stop-opacity=".35"/><stop offset="1" stop-opacity="0"/></linearGradient><g id="Icon"><g id="_24" data-name="24"><rect id="Background" fill="url(#linear-gradient)" height="512" rx="150" width="512"/><path d="m512 210.37v151.63c0 82.84-67.16 150-150 150h-170.26l-127.23-127.23 69.04-95.06-59.12-59.12 46.14-77.21h104.35l74.75 74.76 27.71-46.86 109.17-46.36z" fill="url(#linear-gradient-2)"/><path d="m63.82 201.4c0-9.46 1.79-18.63 5.38-27.51s9.03-16.8 16.32-23.76c7.29-6.95 16.41-12.5 27.34-16.66 10.94-4.16 23.75-6.24 38.45-6.24 16.75 0 31.3 2.39 43.66 7.18s22.62 11.39 30.76 19.82 14.24 18.4 18.29 29.91c4.04 11.51 6.07 23.93 6.07 37.26 0 9.46-1.2 17.66-3.59 24.61s-5.64 12.99-9.74 18.12-8.86 9.57-14.27 13.33-11.17 7.21-17.26 10.34c-6.1 3.13-12.33 6.12-18.71 8.97s-12.56 5.95-18.54 9.31-11.59 7.15-16.83 11.37-9.74 9.29-13.5 15.21c23.01-1.59 43.41-5.84 61.18-12.73s32.75-15.81 44.95-26.75c-.8 6.04-1.37 11.99-1.71 17.86s-.51 11.71-.51 17.52c0 9.46.48 18.88 1.45 28.29.97 9.4 2.48 18.71 4.53 27.94-14.24-2.05-29-3.59-44.26-4.61-15.27-1.03-30.71-1.54-46.31-1.54s-31.65.51-47.08 1.54c-15.44 1.02-30.56 2.56-45.37 4.61 0-15.83 1.54-29.48 4.61-40.93 3.08-11.45 7.15-21.39 12.22-29.82s10.85-15.61 17.35-21.53c6.49-5.92 13.13-11.28 19.91-16.06 6.78-4.79 13.42-9.29 19.91-13.5s12.28-8.77 17.35-13.67 9.14-10.42 12.22-16.58 4.61-13.61 4.61-22.39c0-2.05-.32-4.27-.94-6.66-.63-2.39-1.68-4.64-3.16-6.75s-3.48-3.85-5.98-5.21c-2.51-1.37-5.58-2.05-9.23-2.05-3.08 0-5.78.57-8.12 1.71s-4.27 2.56-5.81 4.27-2.68 3.62-3.42 5.72c-.74 2.11-1.11 4.13-1.11 6.07 0 1.82.37 3.56 1.11 5.21s1.74 3.11 2.99 4.36c1.25 1.26 2.65 2.25 4.19 2.99s3.1 1.11 4.7 1.11c1.71 0 3.76-.34 6.15-1.03-1.94 3.65-4.53 6.92-7.78 9.83s-6.89 5.33-10.94 7.26c-4.04 1.94-8.37 3.42-12.99 4.44s-9.31 1.54-14.1 1.54c-6.15 0-11.94-.85-17.35-2.56s-10.14-4.3-14.18-7.78c-4.04-3.47-7.21-7.8-9.48-12.99-2.28-5.18-3.42-11.31-3.42-18.37zm364.01 37.43v20.68c3.87-.91 7.52-1.82 10.94-2.73s6.55-2.11 9.4-3.59c-.91 5.13-1.57 10.17-1.96 15.12-.4 4.96-.6 10-.6 15.12 0 9.91.85 19.82 2.56 29.74-2.62-1.25-5.41-2.39-8.37-3.42s-5.93-1.99-8.89-2.91c1.25 12.99 2.93 25.66 5.04 38.03 2.11 12.36 4.75 24.18 7.95 35.46-2.28-.23-4.9-.45-7.86-.68-2.62-.23-5.78-.4-9.49-.51-3.7-.11-7.95-.17-12.73-.17-9.12 0-19.8.4-32.04 1.2-12.25.8-25.49 2.33-39.73 4.61 2.05-4.21 3.87-9.46 5.47-15.72 1.59-6.26 2.99-13.02 4.19-20.25s2.16-14.78 2.91-22.64c.74-7.86 1.34-15.49 1.79-22.9-2.28.12-6.27.06-11.96-.17-5.7-.23-12.79-.23-21.28 0s-18.15.85-28.97 1.88c-10.83 1.02-22.5 2.79-35.03 5.3 5.7-17.54 10.99-33.78 15.89-48.71 4.9-14.92 9.34-29.28 13.33-43.07 3.99-13.78 7.4-27.4 10.25-40.84s5.07-27.46 6.67-42.04c21.99 1.94 43.86 2.76 65.62 2.48s43.63-1.34 65.62-3.16c-2.62 12.88-4.73 28.28-6.32 46.23-1.6 17.94-2.39 37.17-2.39 57.68zm-69.73 25.63c0-2.96-.03-6.89-.08-11.79-.06-4.9-.17-10.42-.34-16.58-.17-6.15-.37-12.79-.6-19.91s-.57-14.38-1.03-21.79c-5.13 9.91-9.23 20.79-12.3 32.64s-5.87 23.98-8.37 36.4c2.62.23 4.96.4 7.01.51s3.93.2 5.64.26 3.36.12 4.96.17c1.59.06 3.3.09 5.13.09z" fill="#fff"/></g></g></svg>