<svg id="Layer_2" height="512" viewBox="0 0 512 512" width="512" xmlns="http://www.w3.org/2000/svg" xmlns:xlink="http://www.w3.org/1999/xlink" data-name="Layer 2"><linearGradient id="linear-gradient" gradientUnits="userSpaceOnUse" x1="43.93" x2="468.07" y1="43.93" y2="468.07"><stop offset="0" stop-color="#64b5f6"/><stop offset="1" stop-color="#1976d2"/></linearGradient><linearGradient id="linear-gradient-2" gradientUnits="userSpaceOnUse" x1="115.72" x2="458.86" y1="134.12" y2="477.27"><stop offset="0" stop-opacity=".35"/><stop offset="1" stop-opacity="0"/></linearGradient><g id="Icon"><g id="_26" data-name="26"><rect id="Background" fill="url(#linear-gradient)" height="512" rx="150" width="512"/><path d="m512 227.01v134.99c0 82.84-67.16 150-150 150h-171.8l-130.73-130.73 73.3-90.79-62.66-62.67 30.55-78.63h118.51l67.47 67.47 36.91-43.03 105.47-29.59z" fill="url(#linear-gradient-2)"/><path d="m58.78 197.89c0-9.46 1.79-18.63 5.38-27.51s9.03-16.8 16.32-23.76c7.29-6.95 16.41-12.5 27.34-16.66 10.94-4.16 23.75-6.24 38.45-6.24 16.75 0 31.3 2.39 43.66 7.18s22.62 11.39 30.76 19.82 14.24 18.4 18.29 29.91c4.04 11.51 6.07 23.93 6.07 37.26 0 9.46-1.2 17.66-3.59 24.61s-5.64 12.99-9.74 18.12-8.86 9.57-14.27 13.33-11.17 7.21-17.26 10.34c-6.1 3.13-12.33 6.12-18.71 8.97s-12.56 5.95-18.54 9.31-11.59 7.15-16.83 11.37-9.74 9.29-13.5 15.21c23.01-1.59 43.41-5.84 61.18-12.73s32.75-15.81 44.95-26.75c-.8 6.04-1.37 11.99-1.71 17.86s-.51 11.71-.51 17.52c0 9.46.48 18.88 1.45 28.29.97 9.4 2.48 18.71 4.53 27.94-14.24-2.05-29-3.59-44.26-4.61-15.27-1.03-30.71-1.54-46.31-1.54s-31.65.51-47.08 1.54c-15.44 1.02-30.56 2.56-45.37 4.61 0-15.83 1.54-29.48 4.61-40.93 3.08-11.45 7.15-21.39 12.22-29.82s10.85-15.61 17.35-21.53c6.49-5.92 13.13-11.28 19.91-16.06 6.78-4.79 13.42-9.29 19.91-13.5s12.28-8.77 17.35-13.67 9.14-10.42 12.22-16.58 4.61-13.61 4.61-22.39c0-2.05-.32-4.27-.94-6.66-.63-2.39-1.68-4.64-3.16-6.75s-3.48-3.85-5.98-5.21c-2.51-1.37-5.58-2.05-9.23-2.05-3.08 0-5.78.57-8.12 1.71s-4.27 2.56-5.81 4.27-2.68 3.62-3.42 5.72c-.74 2.11-1.11 4.13-1.11 6.07 0 1.82.37 3.56 1.11 5.21s1.74 3.11 2.99 4.36c1.25 1.26 2.65 2.25 4.19 2.99s3.1 1.11 4.7 1.11c1.71 0 3.76-.34 6.15-1.03-1.94 3.65-4.53 6.92-7.78 9.83s-6.89 5.33-10.94 7.26c-4.04 1.94-8.37 3.42-12.99 4.44s-9.31 1.54-14.1 1.54c-6.15 0-11.94-.85-17.35-2.56s-10.14-4.3-14.18-7.78c-4.04-3.47-7.21-7.8-9.48-12.99-2.28-5.18-3.42-11.31-3.42-18.37zm394.43 98.78c0 15.04-2.34 28.28-7.01 39.73s-11.19 21.05-19.57 28.8c-8.37 7.75-18.34 13.59-29.91 17.52s-24.24 5.89-38.03 5.89c-14.58 0-27.71-2.42-39.39-7.26s-21.56-12.08-29.65-21.71c-8.09-9.62-14.3-21.67-18.63-36.14s-6.49-31.33-6.49-50.59c0-11.05.48-22.41 1.45-34.09s2.82-23.04 5.55-34.1c2.73-11.05 6.58-21.5 11.54-31.36 4.96-9.85 11.45-18.48 19.48-25.89 8.03-7.4 17.74-13.27 29.14-17.6 11.39-4.33 24.95-6.5 40.67-6.5 9.11 0 17.83 1.2 26.15 3.59s15.66 5.75 22.05 10.08c6.38 4.33 11.45 9.49 15.21 15.47s5.64 12.62 5.64 19.91c0 5.47-1.14 10.57-3.42 15.29-2.28 4.73-5.33 8.83-9.14 12.3-3.82 3.48-8.2 6.21-13.16 8.2-4.96 2-10.06 2.99-15.29 2.99-6.72 0-13.22-1.77-19.48-5.3-6.27-3.53-11.79-9.23-16.58-17.09 1.25.23 2.48.4 3.67.51 1.2.11 2.31.17 3.33.17 2.28 0 3.96-.71 5.04-2.14 1.08-1.42 1.62-3.05 1.62-4.87 0-1.71-.91-3.42-2.73-5.13s-4.67-2.56-8.54-2.56c-6.15 0-11.14 1.57-14.95 4.7-3.82 3.13-6.78 7.09-8.89 11.88s-3.5 10.08-4.19 15.89-1.03 11.45-1.03 16.92c1.03-1.03 2.5-2.14 4.44-3.33 1.94-1.2 4.19-2.25 6.75-3.16s5.35-1.68 8.37-2.31c3.02-.62 6.18-.94 9.49-.94 6.72 0 13.53.6 20.42 1.79 6.89 1.2 13.53 3.11 19.91 5.72 6.38 2.62 12.39 6.07 18.03 10.34s10.54 9.43 14.7 15.46c4.16 6.04 7.43 13.1 9.83 21.19 2.39 8.09 3.59 17.32 3.59 27.69zm-74.51 1.37c0-9.68-1.65-17.29-4.96-22.82-3.31-5.52-8.54-8.29-15.72-8.29-5.81 0-10.65 2.77-14.53 8.29-3.88 5.53-5.93 13.13-6.15 22.82-.12 4.33.28 8.46 1.2 12.39.91 3.93 2.28 7.38 4.1 10.34s4.02 5.36 6.58 7.18 5.5 2.73 8.8 2.73 6.24-.86 8.8-2.56c2.56-1.71 4.73-4.04 6.49-7.01 1.77-2.96 3.1-6.44 4.02-10.43.91-3.99 1.37-8.2 1.37-12.64z" fill="#fff"/></g></g></svg>