<svg id="Layer_2" height="512" viewBox="0 0 512 512" width="512" xmlns="http://www.w3.org/2000/svg" xmlns:xlink="http://www.w3.org/1999/xlink" data-name="Layer 2"><linearGradient id="linear-gradient" gradientUnits="userSpaceOnUse" x1="43.93" x2="468.07" y1="43.93" y2="468.07"><stop offset="0" stop-color="#64b5f6"/><stop offset="1" stop-color="#1976d2"/></linearGradient><linearGradient id="linear-gradient-2" gradientUnits="userSpaceOnUse" x1="134.59" x2="466.4" y1="137.92" y2="469.73"><stop offset="0" stop-opacity=".35"/><stop offset="1" stop-opacity="0"/></linearGradient><g id="Icon"><g id="_27" data-name="27"><rect id="Background" fill="url(#linear-gradient)" height="512" rx="150" width="512"/><path d="m512 203.7v158.3c0 82.84-67.16 150-150 150h-164.96l-127.23-127.23 72.32-91.77-62.18-62.18 40.24-78.51h108.94l47.46 47.46 166.29-65.19z" fill="url(#linear-gradient-2)"/><path d="m69.12 201.4c0-9.46 1.79-18.63 5.38-27.51s9.03-16.8 16.32-23.76c7.29-6.95 16.41-12.5 27.34-16.66 10.94-4.16 23.75-6.24 38.45-6.24 16.75 0 31.3 2.39 43.66 7.18s22.62 11.39 30.76 19.82 14.24 18.4 18.29 29.91c4.04 11.51 6.07 23.93 6.07 37.26 0 9.46-1.2 17.66-3.59 24.61s-5.64 12.99-9.74 18.12-8.86 9.57-14.27 13.33-11.17 7.21-17.26 10.34c-6.1 3.13-12.33 6.12-18.71 8.97s-12.56 5.95-18.54 9.31-11.59 7.15-16.83 11.37-9.74 9.29-13.5 15.21c23.01-1.59 43.41-5.84 61.18-12.73s32.75-15.81 44.95-26.75c-.8 6.04-1.37 11.99-1.71 17.86s-.51 11.71-.51 17.52c0 9.46.48 18.88 1.45 28.29.97 9.4 2.48 18.71 4.53 27.94-14.24-2.05-29-3.59-44.26-4.61-15.27-1.03-30.71-1.54-46.31-1.54s-31.65.51-47.08 1.54c-15.44 1.02-30.56 2.56-45.37 4.61 0-15.83 1.54-29.48 4.61-40.93 3.08-11.45 7.15-21.39 12.22-29.82s10.85-15.61 17.35-21.53c6.49-5.92 13.13-11.28 19.91-16.06 6.78-4.79 13.42-9.29 19.91-13.5s12.28-8.77 17.35-13.67 9.14-10.42 12.22-16.58 4.61-13.61 4.61-22.39c0-2.05-.32-4.27-.94-6.66-.63-2.39-1.68-4.64-3.16-6.75s-3.48-3.85-5.98-5.21c-2.51-1.37-5.58-2.05-9.23-2.05-3.08 0-5.78.57-8.12 1.71s-4.27 2.56-5.81 4.27-2.68 3.62-3.42 5.72c-.74 2.11-1.11 4.13-1.11 6.07 0 1.82.37 3.56 1.11 5.21s1.74 3.11 2.99 4.36c1.25 1.26 2.65 2.25 4.19 2.99s3.1 1.11 4.7 1.11c1.71 0 3.76-.34 6.15-1.03-1.94 3.65-4.53 6.92-7.78 9.83s-6.89 5.33-10.94 7.26c-4.04 1.94-8.37 3.42-12.99 4.44s-9.31 1.54-14.1 1.54c-6.15 0-11.94-.85-17.35-2.56s-10.14-4.3-14.18-7.78c-4.04-3.47-7.21-7.8-9.48-12.99-2.28-5.18-3.42-11.31-3.42-18.37zm286.43-60.41c-15.04-.17-29.82-.94-44.35-2.31s-28.11-3.42-40.76-6.15c.68 7.07 1.25 14.07 1.71 21.02.45 6.95.68 13.96.68 21.02v4.79c0 2.17-.06 4.59-.17 7.26-.12 2.68-.2 5.5-.26 8.46s-.2 5.81-.43 8.54-.46 5.19-.68 7.35c-.23 2.17-.51 3.76-.85 4.79 5.47-3.53 11.39-6.38 17.77-8.54s12.96-3.87 19.74-5.13c6.78-1.25 13.59-2.11 20.42-2.56 6.84-.45 13.5-.74 20-.86-.68 6.27-1.97 14.04-3.84 23.33-1.88 9.29-4.25 19.4-7.09 30.34-2.85 10.94-6.15 22.39-9.91 34.35s-7.83 23.79-12.22 35.46c-4.39 11.68-9.12 22.9-14.18 33.67-5.07 10.77-10.28 20.42-15.64 28.97 7.29-1.14 13.93-2.08 19.91-2.82s11.59-1.34 16.83-1.79c5.24-.46 10.2-.77 14.87-.94s9.28-.26 13.84-.26c4.79 0 9.17.06 13.16.17 3.99.12 7.46.29 10.42.51 3.53.23 6.72.46 9.57.68 1.82-17.2 3.76-33.44 5.81-48.71s4.33-29.85 6.84-43.75c2.5-13.9 5.27-27.29 8.29-40.16s6.41-25.55 10.17-38.03c3.76-12.47 7.92-24.89 12.48-37.26 4.56-12.36 9.63-24.98 15.21-37.85-13.33 2.28-27.46 3.96-42.38 5.04-14.93 1.08-29.91 1.54-44.95 1.37z" fill="#fff"/></g></g></svg>