<svg id="Layer_2" height="512" viewBox="0 0 512 512" width="512" xmlns="http://www.w3.org/2000/svg" xmlns:xlink="http://www.w3.org/1999/xlink" data-name="Layer 2"><linearGradient id="linear-gradient" gradientUnits="userSpaceOnUse" x1="43.93" x2="468.07" y1="43.93" y2="468.07"><stop offset="0" stop-color="#64b5f6"/><stop offset="1" stop-color="#1976d2"/></linearGradient><linearGradient id="linear-gradient-2" gradientUnits="userSpaceOnUse" x1="116.46" x2="457.39" y1="137.82" y2="478.74"><stop offset="0" stop-opacity=".35"/><stop offset="1" stop-opacity="0"/></linearGradient><g id="Icon"><g id="_28" data-name="28"><rect id="Background" fill="url(#linear-gradient)" height="512" rx="150" width="512"/><path d="m512 235.22v126.78c0 82.84-67.16 150-150 150h-169.49l-131.16-131.16 71.68-92.4-61.42-61.43 33.26-77.6h116.84l62.84 62.83 34.02-41.3 104.73-24.42z" fill="url(#linear-gradient-2)"/><path d="m60.66 197.47c0-9.46 1.79-18.63 5.38-27.51s9.03-16.8 16.32-23.76c7.29-6.95 16.41-12.5 27.34-16.66 10.94-4.16 23.75-6.24 38.45-6.24 16.75 0 31.3 2.39 43.66 7.18s22.62 11.39 30.76 19.82 14.24 18.4 18.29 29.91c4.04 11.51 6.07 23.93 6.07 37.26 0 9.46-1.2 17.66-3.59 24.61s-5.64 12.99-9.74 18.12-8.86 9.57-14.27 13.33-11.17 7.21-17.26 10.34c-6.1 3.13-12.33 6.12-18.71 8.97s-12.56 5.95-18.54 9.31-11.59 7.15-16.83 11.37-9.74 9.29-13.5 15.21c23.01-1.59 43.41-5.84 61.18-12.73s32.75-15.81 44.95-26.75c-.8 6.04-1.37 11.99-1.71 17.86s-.51 11.71-.51 17.52c0 9.46.48 18.88 1.45 28.29.97 9.4 2.48 18.71 4.53 27.94-14.24-2.05-29-3.59-44.26-4.61-15.27-1.03-30.71-1.54-46.31-1.54s-31.65.51-47.08 1.54c-15.44 1.02-30.56 2.56-45.37 4.61 0-15.83 1.54-29.48 4.61-40.93 3.08-11.45 7.15-21.39 12.22-29.82s10.85-15.61 17.35-21.53c6.49-5.92 13.13-11.28 19.91-16.06 6.78-4.79 13.42-9.29 19.91-13.5s12.28-8.77 17.35-13.67 9.14-10.42 12.22-16.58 4.61-13.61 4.61-22.39c0-2.05-.32-4.27-.94-6.66-.63-2.39-1.68-4.64-3.16-6.75s-3.48-3.85-5.98-5.21c-2.51-1.37-5.58-2.05-9.23-2.05-3.08 0-5.78.57-8.12 1.71s-4.27 2.56-5.81 4.27-2.68 3.62-3.42 5.72c-.74 2.11-1.11 4.13-1.11 6.07 0 1.82.37 3.56 1.11 5.21s1.74 3.11 2.99 4.36c1.25 1.26 2.65 2.25 4.19 2.99s3.1 1.11 4.7 1.11c1.71 0 3.76-.34 6.15-1.03-1.94 3.65-4.53 6.92-7.78 9.83s-6.89 5.33-10.94 7.26c-4.04 1.94-8.37 3.42-12.99 4.44s-9.31 1.54-14.1 1.54c-6.15 0-11.94-.85-17.35-2.56s-10.14-4.3-14.18-7.78c-4.04-3.47-7.21-7.8-9.48-12.99-2.28-5.18-3.42-11.31-3.42-18.37zm360.42 47.08c-4.1 3.36-8.03 5.21-11.79 5.55 5.24 1.48 10.4 3.79 15.47 6.92s9.57 7.21 13.5 12.22c3.93 5.02 7.09 11 9.48 17.95s3.59 14.98 3.59 24.1c0 10.48-1.82 20.39-5.47 29.73s-9.26 17.55-16.83 24.61c-7.58 7.07-17.23 12.67-28.97 16.83s-25.69 6.24-41.87 6.24-30.14-2.08-41.87-6.24c-11.74-4.16-21.39-9.77-28.97-16.83s-13.19-15.27-16.83-24.61c-3.65-9.34-5.47-19.25-5.47-29.73 0-9.12 1.2-17.15 3.59-24.1s5.55-12.93 9.48-17.95c3.93-5.01 8.43-9.08 13.5-12.22 5.07-3.13 10.22-5.44 15.47-6.92-3.99-.23-8.03-2.08-12.13-5.55s-7.86-7.75-11.28-12.82-6.21-10.51-8.37-16.32c-2.17-5.81-3.25-11.16-3.25-16.06 0-9.57 1.79-18.91 5.38-28.03 3.59-9.11 8.97-17.23 16.15-24.35s16.15-12.84 26.92-17.18c10.77-4.33 23.33-6.49 37.68-6.49s27.97 2.16 38.79 6.49 19.74 10.06 26.75 17.18 12.19 15.24 15.55 24.35c3.36 9.12 5.04 18.46 5.04 28.03 0 5.36-1.11 10.91-3.33 16.66-2.22 5.76-5.07 11.11-8.54 16.06-3.48 4.96-7.26 9.12-11.37 12.48zm-47.17 61.1c0-3.19-.4-6.41-1.2-9.66s-1.91-6.32-3.33-9.23c-1.43-2.9-3.11-5.58-5.04-8.03-1.94-2.45-3.99-4.53-6.15-6.24-2.28 1.71-4.39 3.85-6.32 6.41-1.94 2.56-3.59 5.3-4.96 8.2-1.37 2.91-2.45 5.96-3.25 9.14-.8 3.19-1.2 6.32-1.2 9.4 0 1.82.26 3.93.77 6.32s1.37 4.64 2.56 6.75c1.2 2.11 2.82 3.9 4.87 5.38s4.56 2.22 7.52 2.22 5.47-.74 7.52-2.22 3.67-3.27 4.87-5.38 2.05-4.36 2.56-6.75.77-4.5.77-6.32zm0-102.88c0-1.82-.26-3.9-.77-6.24-.51-2.33-1.37-4.55-2.56-6.66-1.2-2.11-2.82-3.87-4.87-5.3-2.05-1.42-4.56-2.14-7.52-2.14s-5.47.71-7.52 2.14-3.67 3.19-4.87 5.3-2.05 4.33-2.56 6.66c-.51 2.34-.77 4.42-.77 6.24 0 3.19.48 6.35 1.45 9.48s2.19 6.18 3.67 9.14 3.16 5.84 5.04 8.63 3.73 5.38 5.55 7.78c5.24-5.81 9.17-11.73 11.79-17.77s3.93-11.79 3.93-17.26z" fill="#fff"/></g></g></svg>