<svg id="Layer_2" height="512" viewBox="0 0 512 512" width="512" xmlns="http://www.w3.org/2000/svg" xmlns:xlink="http://www.w3.org/1999/xlink" data-name="Layer 2"><linearGradient id="linear-gradient" gradientUnits="userSpaceOnUse" x1="43.93" x2="468.07" y1="43.93" y2="468.07"><stop offset="0" stop-color="#64b5f6"/><stop offset="1" stop-color="#1976d2"/></linearGradient><linearGradient id="linear-gradient-2" gradientUnits="userSpaceOnUse" x1="124.92" x2="467.04" y1="126.96" y2="469.08"><stop offset="0" stop-opacity=".35"/><stop offset="1" stop-opacity="0"/></linearGradient><g id="Icon"><g id="_33" data-name="33"><rect id="Background" fill="url(#linear-gradient)" height="512" rx="150" width="512"/><path d="m512 232.45v129.55c0 82.84-67.16 150-150 150h-133.63l-147.81-147.81 44.86-83.2-53.9-53.9 29.91-76.63h123.85l55.67 55.68 44.9-25.25 104.16-30.43z" fill="url(#linear-gradient-2)"/><path d="m132.7 303.34c-.74 1.65-1.11 3.39-1.11 5.21 0 1.94.37 3.96 1.11 6.07s1.88 4.02 3.42 5.72 3.47 3.13 5.81 4.27c2.33 1.14 5.04 1.71 8.12 1.71 3.64 0 6.72-.71 9.23-2.14 2.5-1.42 4.5-3.16 5.98-5.21s2.53-4.27 3.16-6.67c.62-2.39.94-4.61.94-6.66 0-8.43-1.65-15.35-4.96-20.76s-7.32-9.85-12.05-13.33c-4.73-3.47-9.68-6.29-14.87-8.46-5.19-2.16-9.71-4.21-13.59-6.15 7.29-2.05 13.76-4.27 19.4-6.66s10.4-5.41 14.27-9.06c3.87-3.64 6.81-8.26 8.8-13.84s2.99-12.59 2.99-21.02c0-2.05-.32-4.27-.94-6.66-.63-2.39-1.68-4.64-3.16-6.75s-3.48-3.85-5.98-5.21c-2.51-1.37-5.58-2.05-9.23-2.05-3.08 0-5.78.57-8.12 1.71s-4.27 2.56-5.81 4.27-2.68 3.62-3.42 5.72c-.74 2.11-1.11 4.13-1.11 6.07 0 1.82.37 3.56 1.11 5.21s1.74 3.11 2.99 4.36c1.25 1.26 2.65 2.25 4.19 2.99s3.1 1.11 4.7 1.11c1.71 0 3.76-.34 6.15-1.03-1.94 3.65-4.53 6.92-7.78 9.83s-6.89 5.33-10.94 7.26c-4.04 1.94-8.37 3.42-12.99 4.44s-9.31 1.54-14.1 1.54c-6.15 0-11.94-.85-17.35-2.56s-10.14-4.3-14.18-7.78c-4.04-3.47-7.21-7.8-9.48-12.99-2.28-5.18-3.42-11.31-3.42-18.37 0-9.46 1.79-18.63 5.38-27.51s9.03-16.8 16.32-23.76c7.29-6.95 16.41-12.5 27.34-16.66 10.94-4.16 23.75-6.24 38.45-6.24 16.75 0 31.3 2.22 43.66 6.66s22.62 10.37 30.76 17.77c8.14 7.41 14.24 15.89 18.29 25.46 4.04 9.57 6.07 19.43 6.07 29.56 0 7.41-1.23 14.21-3.67 20.42-2.45 6.21-5.67 11.65-9.66 16.32s-8.49 8.49-13.5 11.45-10.08 4.96-15.21 5.98c5.24 1.48 10.4 3.45 15.47 5.9s9.57 5.76 13.5 9.91c3.93 4.16 7.09 9.34 9.49 15.55 2.39 6.21 3.59 13.87 3.59 22.99 0 11.05-2.02 21.3-6.07 30.76-4.04 9.46-10.14 17.63-18.29 24.52s-18.4 12.3-30.76 16.23-26.92 5.9-43.66 5.9c-14.7 0-27.51-2.08-38.45-6.24s-20.05-9.71-27.34-16.66-12.73-14.89-16.32-23.84c-3.59-8.94-5.38-18.14-5.38-27.6 0-6.95 1.14-13.01 3.42-18.2 2.28-5.18 5.44-9.51 9.48-12.99 4.04-3.47 8.77-6.07 14.18-7.78s11.19-2.56 17.35-2.56c4.79 0 9.48.51 14.1 1.54 4.61 1.02 8.94 2.54 12.99 4.53 4.04 2 7.69 4.42 10.94 7.26 3.25 2.85 5.84 6.1 7.78 9.74-2.39-.68-4.44-1.02-6.15-1.02-1.6 0-3.16.37-4.7 1.11s-2.93 1.74-4.19 2.99c-1.25 1.25-2.25 2.71-2.99 4.36zm305.48-63.83c3.99-4.67 7.2-10.11 9.66-16.32 2.45-6.21 3.67-13.01 3.67-20.42 0-10.14-2.02-19.99-6.07-29.56-4.04-9.57-10.14-18.06-18.29-25.46s-18.4-13.33-30.76-17.77-26.92-6.66-43.67-6.66c-14.7 0-27.51 2.08-38.45 6.24s-20.05 9.71-27.34 16.66-12.73 14.87-16.32 23.76-5.38 18.06-5.38 27.51c0 7.07 1.14 13.19 3.42 18.37 2.28 5.19 5.44 9.51 9.48 12.99s8.77 6.07 14.18 7.78 11.19 2.56 17.35 2.56c4.79 0 9.49-.51 14.1-1.54 4.62-1.03 8.94-2.5 12.99-4.44 4.04-1.94 7.69-4.36 10.94-7.26s5.84-6.18 7.78-9.83c-2.39.68-4.44 1.03-6.15 1.03-1.6 0-3.16-.37-4.7-1.11s-2.93-1.73-4.19-2.99c-1.25-1.25-2.25-2.71-2.99-4.36s-1.11-3.39-1.11-5.21c0-1.94.37-3.96 1.11-6.07s1.88-4.02 3.42-5.72c1.54-1.71 3.47-3.13 5.81-4.27 2.33-1.14 5.04-1.71 8.12-1.71 3.64 0 6.72.68 9.23 2.05 2.5 1.37 4.5 3.11 5.98 5.21 1.48 2.11 2.53 4.36 3.16 6.75.62 2.39.94 4.61.94 6.66 0 8.43-1 15.44-2.99 21.02-2 5.58-4.93 10.2-8.8 13.84-3.88 3.65-8.63 6.67-14.27 9.06s-12.11 4.61-19.4 6.66c3.87 1.94 8.4 3.99 13.59 6.15 5.18 2.17 10.14 4.99 14.87 8.46 4.73 3.48 8.74 7.92 12.05 13.33 3.3 5.41 4.96 12.33 4.96 20.76 0 2.05-.32 4.27-.94 6.66-.63 2.39-1.68 4.62-3.16 6.67s-3.48 3.79-5.98 5.21c-2.51 1.43-5.58 2.14-9.23 2.14-3.08 0-5.78-.57-8.12-1.71s-4.27-2.56-5.81-4.27-2.68-3.62-3.42-5.72c-.74-2.11-1.11-4.13-1.11-6.07 0-1.82.37-3.56 1.11-5.21s1.74-3.1 2.99-4.36c1.25-1.25 2.65-2.25 4.19-2.99s3.1-1.11 4.7-1.11c1.71 0 3.76.34 6.15 1.02-1.94-3.64-4.53-6.89-7.78-9.74s-6.89-5.27-10.94-7.26c-4.04-1.99-8.37-3.5-12.99-4.53-4.61-1.03-9.31-1.54-14.1-1.54-6.15 0-11.94.86-17.35 2.56-5.41 1.71-10.14 4.3-14.18 7.78s-7.21 7.8-9.48 12.99c-2.28 5.19-3.42 11.25-3.42 18.2 0 9.46 1.79 18.66 5.38 27.6 3.59 8.95 9.03 16.89 16.32 23.84s16.41 12.5 27.34 16.66c10.94 4.16 23.75 6.24 38.45 6.24 16.75 0 31.3-1.96 43.67-5.9 12.36-3.93 22.61-9.34 30.76-16.23 8.14-6.89 14.24-15.07 18.29-24.52 4.04-9.46 6.07-19.71 6.07-30.76 0-9.12-1.2-16.78-3.59-22.99s-5.55-11.39-9.48-15.55-8.43-7.46-13.5-9.91-10.23-4.41-15.47-5.9c5.13-1.02 10.2-3.02 15.21-5.98s9.51-6.78 13.5-11.45z" fill="#fff"/></g></g></svg>