<svg id="Layer_2" height="512" viewBox="0 0 512 512" width="512" xmlns="http://www.w3.org/2000/svg" xmlns:xlink="http://www.w3.org/1999/xlink" data-name="Layer 2"><linearGradient id="linear-gradient" gradientUnits="userSpaceOnUse" x1="43.93" x2="468.07" y1="43.93" y2="468.07"><stop offset="0" stop-color="#64b5f6"/><stop offset="1" stop-color="#1976d2"/></linearGradient><linearGradient id="linear-gradient-2" gradientUnits="userSpaceOnUse" x1="135.57" x2="474.38" y1="122.94" y2="461.75"><stop offset="0" stop-opacity=".35"/><stop offset="1" stop-opacity="0"/></linearGradient><g id="Icon"><g id="_34" data-name="34"><rect id="Background" fill="url(#linear-gradient)" height="512" rx="150" width="512"/><path d="m512 206.09v155.91c0 82.84-67.16 150-150 150h-130.65l-147.71-147.71 46.08-81.99-55.49-55.49 34.34-76.87h119.17l66.64 66.64 142.52-85.59z" fill="url(#linear-gradient-2)"/><path d="m135.69 303.34c-.74 1.65-1.11 3.39-1.11 5.21 0 1.94.37 3.96 1.11 6.07s1.88 4.02 3.42 5.72 3.47 3.13 5.81 4.27c2.33 1.14 5.04 1.71 8.12 1.71 3.64 0 6.72-.71 9.23-2.14 2.5-1.42 4.5-3.16 5.98-5.21s2.53-4.27 3.16-6.67c.62-2.39.94-4.61.94-6.66 0-8.43-1.65-15.35-4.96-20.76s-7.32-9.85-12.05-13.33c-4.73-3.47-9.68-6.29-14.87-8.46-5.19-2.16-9.71-4.21-13.59-6.15 7.29-2.05 13.76-4.27 19.4-6.66s10.4-5.41 14.27-9.06c3.87-3.64 6.81-8.26 8.8-13.84s2.99-12.59 2.99-21.02c0-2.05-.32-4.27-.94-6.66-.63-2.39-1.68-4.64-3.16-6.75s-3.48-3.85-5.98-5.21c-2.51-1.37-5.58-2.05-9.23-2.05-3.08 0-5.78.57-8.12 1.71s-4.27 2.56-5.81 4.27-2.68 3.62-3.42 5.72c-.74 2.11-1.11 4.13-1.11 6.07 0 1.82.37 3.56 1.11 5.21s1.74 3.11 2.99 4.36c1.25 1.26 2.65 2.25 4.19 2.99s3.1 1.11 4.7 1.11c1.71 0 3.76-.34 6.15-1.03-1.94 3.65-4.53 6.92-7.78 9.83s-6.89 5.33-10.94 7.26c-4.04 1.94-8.37 3.42-12.99 4.44s-9.31 1.54-14.1 1.54c-6.15 0-11.94-.85-17.35-2.56s-10.14-4.3-14.18-7.78c-4.04-3.47-7.21-7.8-9.48-12.99-2.28-5.18-3.42-11.31-3.42-18.37 0-9.46 1.79-18.63 5.38-27.51s9.03-16.8 16.32-23.76c7.29-6.95 16.41-12.5 27.34-16.66 10.94-4.16 23.75-6.24 38.45-6.24 16.75 0 31.3 2.22 43.66 6.66s22.62 10.37 30.76 17.77c8.14 7.41 14.24 15.89 18.29 25.46 4.04 9.57 6.07 19.43 6.07 29.56 0 7.41-1.23 14.21-3.67 20.42-2.45 6.21-5.67 11.65-9.66 16.32s-8.49 8.49-13.5 11.45-10.08 4.96-15.21 5.98c5.24 1.48 10.4 3.45 15.47 5.9s9.57 5.76 13.5 9.91c3.93 4.16 7.09 9.34 9.49 15.55 2.39 6.21 3.59 13.87 3.59 22.99 0 11.05-2.02 21.3-6.07 30.76-4.04 9.46-10.14 17.63-18.29 24.52s-18.4 12.3-30.76 16.23-26.92 5.9-43.66 5.9c-14.7 0-27.51-2.08-38.45-6.24s-20.05-9.71-27.34-16.66-12.73-14.89-16.32-23.84c-3.59-8.94-5.38-18.14-5.38-27.6 0-6.95 1.14-13.01 3.42-18.2 2.28-5.18 5.44-9.51 9.48-12.99 4.04-3.47 8.77-6.07 14.18-7.78s11.19-2.56 17.35-2.56c4.79 0 9.48.51 14.1 1.54 4.61 1.02 8.94 2.54 12.99 4.53 4.04 2 7.69 4.42 10.94 7.26 3.25 2.85 5.84 6.1 7.78 9.74-2.39-.68-4.44-1.02-6.15-1.02-1.6 0-3.16.37-4.7 1.11s-2.93 1.74-4.19 2.99c-1.25 1.25-2.25 2.71-2.99 4.36zm292.49-68.45v20.68c3.87-.91 7.52-1.82 10.94-2.73s6.55-2.11 9.4-3.59c-.91 5.13-1.57 10.17-1.96 15.12-.4 4.96-.6 10-.6 15.12 0 9.91.85 19.82 2.56 29.74-2.62-1.25-5.41-2.39-8.37-3.42s-5.93-1.99-8.89-2.91c1.25 12.99 2.93 25.66 5.04 38.03 2.11 12.36 4.75 24.18 7.95 35.46-2.28-.23-4.9-.45-7.86-.68-2.62-.23-5.78-.4-9.49-.51-3.7-.11-7.95-.17-12.73-.17-9.12 0-19.8.4-32.04 1.2-12.25.8-25.49 2.33-39.73 4.61 2.05-4.21 3.87-9.46 5.47-15.72 1.59-6.26 2.99-13.02 4.19-20.25s2.16-14.78 2.91-22.64c.74-7.86 1.34-15.49 1.79-22.9-2.28.12-6.27.06-11.96-.17-5.7-.23-12.79-.23-21.28 0s-18.15.85-28.97 1.88c-10.83 1.02-22.5 2.79-35.03 5.3 5.7-17.54 10.99-33.78 15.89-48.71 4.9-14.92 9.34-29.28 13.33-43.07 3.99-13.78 7.4-27.4 10.25-40.84s5.07-27.46 6.67-42.04c21.99 1.94 43.86 2.76 65.62 2.48s43.63-1.34 65.62-3.16c-2.62 12.88-4.73 28.28-6.32 46.23-1.6 17.94-2.39 37.17-2.39 57.68zm-69.73 25.63c0-2.96-.03-6.89-.08-11.79-.06-4.9-.17-10.42-.34-16.58-.17-6.15-.37-12.79-.6-19.91s-.57-14.38-1.03-21.79c-5.13 9.91-9.23 20.79-12.3 32.64s-5.87 23.98-8.37 36.4c2.62.23 4.96.4 7.01.51s3.93.2 5.64.26 3.36.12 4.96.17c1.59.06 3.3.09 5.13.09z" fill="#fff"/></g></g></svg>