<svg id="Layer_2" height="512" viewBox="0 0 512 512" width="512" xmlns="http://www.w3.org/2000/svg" xmlns:xlink="http://www.w3.org/1999/xlink" data-name="Layer 2"><linearGradient id="linear-gradient" gradientUnits="userSpaceOnUse" x1="43.93" x2="468.07" y1="43.93" y2="468.07"><stop offset="0" stop-color="#64b5f6"/><stop offset="1" stop-color="#1976d2"/></linearGradient><linearGradient id="linear-gradient-2" gradientUnits="userSpaceOnUse" x1="139.04" x2="474.47" y1="126.23" y2="461.66"><stop offset="0" stop-opacity=".35"/><stop offset="1" stop-opacity="0"/></linearGradient><g id="Icon"><g id="_35" data-name="35"><rect id="Background" fill="url(#linear-gradient)" height="512" rx="150" width="512"/><path d="m512 202.93v159.07c0 82.84-67.16 150-150 150h-133.46l-147.63-147.63 44.28-83.79-53.94-53.93 43.96-76.59h109.83l72.33 72.33 17.37-51.45 121.56-43.71z" fill="url(#linear-gradient-2)"/><path d="m132.87 303.34c-.74 1.65-1.11 3.39-1.11 5.21 0 1.94.37 3.96 1.11 6.07s1.88 4.02 3.42 5.72 3.47 3.13 5.81 4.27c2.33 1.14 5.04 1.71 8.12 1.71 3.64 0 6.72-.71 9.23-2.14 2.5-1.42 4.5-3.16 5.98-5.21s2.53-4.27 3.16-6.67c.62-2.39.94-4.61.94-6.66 0-8.43-1.65-15.35-4.96-20.76s-7.32-9.85-12.05-13.33c-4.73-3.47-9.68-6.29-14.87-8.46-5.19-2.16-9.71-4.21-13.59-6.15 7.29-2.05 13.76-4.27 19.4-6.66s10.4-5.41 14.27-9.06c3.87-3.64 6.81-8.26 8.8-13.84s2.99-12.59 2.99-21.02c0-2.05-.32-4.27-.94-6.66-.63-2.39-1.68-4.64-3.16-6.75s-3.48-3.85-5.98-5.21c-2.51-1.37-5.58-2.05-9.23-2.05-3.08 0-5.78.57-8.12 1.71s-4.27 2.56-5.81 4.27-2.68 3.62-3.42 5.72c-.74 2.11-1.11 4.13-1.11 6.07 0 1.82.37 3.56 1.11 5.21s1.74 3.11 2.99 4.36c1.25 1.26 2.65 2.25 4.19 2.99s3.1 1.11 4.7 1.11c1.71 0 3.76-.34 6.15-1.03-1.94 3.65-4.53 6.92-7.78 9.83s-6.89 5.33-10.94 7.26c-4.04 1.94-8.37 3.42-12.99 4.44s-9.31 1.54-14.1 1.54c-6.15 0-11.94-.85-17.35-2.56s-10.14-4.3-14.18-7.78c-4.04-3.47-7.21-7.8-9.48-12.99-2.28-5.18-3.42-11.31-3.42-18.37 0-9.46 1.79-18.63 5.38-27.51s9.03-16.8 16.32-23.76c7.29-6.95 16.41-12.5 27.34-16.66 10.94-4.16 23.75-6.24 38.45-6.24 16.75 0 31.3 2.22 43.66 6.66s22.62 10.37 30.76 17.77c8.14 7.41 14.24 15.89 18.29 25.46 4.04 9.57 6.07 19.43 6.07 29.56 0 7.41-1.23 14.21-3.67 20.42-2.45 6.21-5.67 11.65-9.66 16.32s-8.49 8.49-13.5 11.45-10.08 4.96-15.21 5.98c5.24 1.48 10.4 3.45 15.47 5.9s9.57 5.76 13.5 9.91c3.93 4.16 7.09 9.34 9.49 15.55 2.39 6.21 3.59 13.87 3.59 22.99 0 11.05-2.02 21.3-6.07 30.76-4.04 9.46-10.14 17.63-18.29 24.52s-18.4 12.3-30.76 16.23-26.92 5.9-43.66 5.9c-14.7 0-27.51-2.08-38.45-6.24s-20.05-9.71-27.34-16.66-12.73-14.89-16.32-23.84c-3.59-8.94-5.38-18.14-5.38-27.6 0-6.95 1.14-13.01 3.42-18.2 2.28-5.18 5.44-9.51 9.48-12.99 4.04-3.47 8.77-6.07 14.18-7.78s11.19-2.56 17.35-2.56c4.79 0 9.48.51 14.1 1.54 4.61 1.02 8.94 2.54 12.99 4.53 4.04 2 7.69 4.42 10.94 7.26 3.25 2.85 5.84 6.1 7.78 9.74-2.39-.68-4.44-1.02-6.15-1.02-1.6 0-3.16.37-4.7 1.11s-2.93 1.74-4.19 2.99c-1.25 1.25-2.25 2.71-2.99 4.36zm207.39-4.36c1.25-1.25 2.65-2.25 4.19-2.99s3.1-1.11 4.7-1.11c1.71 0 3.76.34 6.15 1.02-1.94-3.64-4.53-6.89-7.78-9.74s-6.89-5.27-10.94-7.26c-4.04-1.99-8.37-3.5-12.99-4.53-4.61-1.03-9.31-1.54-14.1-1.54-6.15 0-11.94.86-17.35 2.56-5.41 1.71-10.14 4.3-14.18 7.78s-7.21 7.8-9.48 12.99c-2.28 5.19-3.42 11.25-3.42 18.2 0 9.46 1.79 18.66 5.38 27.6 3.59 8.95 9.03 16.89 16.32 23.84s16.41 12.5 27.34 16.66c10.94 4.16 23.75 6.24 38.45 6.24 16.75 0 31.3-2.14 43.67-6.41 12.36-4.27 22.61-10.34 30.76-18.2 8.14-7.86 14.24-17.35 18.29-28.46 4.04-11.11 6.07-23.44 6.07-37 0-14.7-2.11-27.2-6.32-37.51-4.22-10.31-9.63-18.91-16.24-25.8s-13.96-12.3-22.05-16.24c-8.09-3.93-16.01-6.92-23.75-8.97-7.75-2.05-14.9-3.36-21.45-3.93s-11.54-.91-14.95-1.03l1.37-15.38h17.26c4.56 0 9.68.49 15.38 1.45 5.7.97 11.65 2.54 17.86 4.7 6.21 2.17 12.53 5.04 18.97 8.63 6.43 3.59 12.73 8.01 18.88 13.24v-90.56c-9.8 1.71-20.22 3.19-31.27 4.44-9.46 1.14-20.2 2.14-32.21 2.99-12.02.86-24.35 1.28-37 1.28-11.05 0-22.22-.48-33.5-1.45s-22.39-2.59-33.33-4.87c1.48 2.96 2.76 7.09 3.84 12.39s2.05 11.28 2.91 17.94c.85 6.67 1.57 13.79 2.14 21.36.57 7.58 1.05 15.1 1.45 22.56s.71 14.67.94 21.62.4 13.13.51 18.54.2 9.83.26 13.25.09 5.3.09 5.64c5.01-1.94 10.88-3.27 17.6-4.02 6.72-.74 13.59-.8 20.59-.17 7.01.63 13.93 1.94 20.76 3.93 6.84 1.99 12.93 4.73 18.29 8.2 5.35 3.48 9.68 7.75 12.99 12.82 3.3 5.07 4.96 10.91 4.96 17.52 0 7.52-1.77 13.59-5.3 18.2s-9 6.92-16.41 6.92c-3.08 0-5.78-.57-8.12-1.71s-4.27-2.56-5.81-4.27-2.68-3.62-3.42-5.72c-.74-2.11-1.11-4.13-1.11-6.07 0-1.82.37-3.56 1.11-5.21s1.74-3.1 2.99-4.36z" fill="#fff"/></g></g></svg>