<svg id="Layer_2" height="512" viewBox="0 0 512 512" width="512" xmlns="http://www.w3.org/2000/svg" xmlns:xlink="http://www.w3.org/1999/xlink" data-name="Layer 2"><linearGradient id="linear-gradient" gradientUnits="userSpaceOnUse" x1="43.93" x2="468.07" y1="43.93" y2="468.07"><stop offset="0" stop-color="#64b5f6"/><stop offset="1" stop-color="#1976d2"/></linearGradient><linearGradient id="linear-gradient-2" gradientUnits="userSpaceOnUse" x1="134.06" x2="465.75" y1="138.69" y2="470.38"><stop offset="0" stop-opacity=".35"/><stop offset="1" stop-opacity="0"/></linearGradient><g id="Icon"><g id="_39" data-name="39"><rect id="Background" fill="url(#linear-gradient)" height="512" rx="150" width="512"/><path d="m512 236.61v125.39c0 82.84-67.16 150-150 150h-134.66l-147.46-147.46 46.94-81.12-55.95-55.96 40.9-66.48 109.79-13.07 66.34 66.34 24.93-39.48 109.33-28z" fill="url(#linear-gradient-2)"/><path d="m131.84 303.51c-.74 1.65-1.11 3.39-1.11 5.21 0 1.94.37 3.96 1.11 6.07s1.88 4.02 3.42 5.72c1.54 1.71 3.47 3.14 5.81 4.27 2.33 1.14 5.04 1.71 8.12 1.71 3.64 0 6.72-.71 9.23-2.14 2.5-1.43 4.5-3.16 5.98-5.21s2.53-4.27 3.16-6.66c.62-2.39.94-4.61.94-6.66 0-8.43-1.65-15.35-4.96-20.77-3.31-5.41-7.32-9.85-12.05-13.33s-9.68-6.3-14.87-8.46-9.71-4.21-13.59-6.15c7.29-2.05 13.76-4.27 19.4-6.66s10.4-5.41 14.27-9.06c3.87-3.64 6.81-8.26 8.8-13.84s2.99-12.59 2.99-21.02c0-2.05-.32-4.27-.94-6.66-.63-2.39-1.68-4.64-3.16-6.75s-3.48-3.85-5.98-5.21c-2.51-1.37-5.58-2.05-9.23-2.05-3.08 0-5.78.57-8.12 1.71s-4.27 2.56-5.81 4.27-2.68 3.62-3.42 5.72c-.74 2.11-1.11 4.13-1.11 6.07 0 1.82.37 3.56 1.11 5.21s1.74 3.11 2.99 4.36c1.25 1.26 2.65 2.25 4.19 2.99s3.1 1.11 4.7 1.11c1.71 0 3.76-.34 6.15-1.02-1.94 3.65-4.53 6.92-7.78 9.82-3.25 2.91-6.89 5.33-10.94 7.27-4.04 1.94-8.37 3.42-12.99 4.44-4.61 1.03-9.31 1.54-14.1 1.54-6.15 0-11.94-.86-17.35-2.56-5.41-1.71-10.14-4.3-14.18-7.78-4.04-3.47-7.21-7.8-9.48-12.99-2.28-5.18-3.42-11.3-3.42-18.37 0-9.46 1.79-18.63 5.38-27.52s9.03-16.8 16.32-23.75 16.41-12.5 27.34-16.66c10.94-4.16 23.75-6.23 38.45-6.23 16.75 0 31.3 2.22 43.66 6.66s22.62 10.37 30.76 17.77c8.14 7.41 14.24 15.89 18.29 25.46 4.04 9.57 6.07 19.43 6.07 29.56 0 7.41-1.23 14.21-3.67 20.42-2.45 6.21-5.67 11.65-9.66 16.32s-8.49 8.49-13.5 11.45-10.08 4.96-15.21 5.98c5.24 1.48 10.4 3.45 15.47 5.89 5.07 2.45 9.57 5.76 13.5 9.91 3.93 4.16 7.09 9.34 9.49 15.55 2.39 6.21 3.59 13.87 3.59 22.99 0 11.05-2.02 21.3-6.07 30.76-4.04 9.46-10.14 17.63-18.29 24.52s-18.4 12.3-30.76 16.23-26.92 5.89-43.66 5.89c-14.7 0-27.51-2.08-38.45-6.24s-20.05-9.71-27.34-16.66-12.73-14.89-16.32-23.84-5.38-18.14-5.38-27.6c0-6.95 1.14-13.02 3.42-18.2s5.44-9.51 9.48-12.99 8.77-6.07 14.18-7.78 11.19-2.56 17.35-2.56c4.79 0 9.48.51 14.1 1.54 4.61 1.02 8.94 2.54 12.99 4.53 4.04 2 7.69 4.42 10.94 7.26 3.25 2.85 5.84 6.1 7.78 9.74-2.39-.68-4.44-1.02-6.15-1.02-1.6 0-3.16.37-4.7 1.11s-2.93 1.74-4.19 2.99c-1.25 1.25-2.25 2.71-2.99 4.36zm314.03-115.1c4.33 14.47 6.49 31.33 6.49 50.59 0 11.05-.49 22.39-1.45 34.01-.97 11.62-2.82 22.98-5.55 34.09s-6.58 21.59-11.54 31.45-11.45 18.46-19.48 25.8c-8.03 7.35-17.75 13.19-29.14 17.52s-24.95 6.49-40.67 6.49c-9.12 0-17.83-1.2-26.15-3.59s-15.64-5.72-21.96-10-11.36-9.4-15.12-15.38-5.64-12.62-5.64-19.91c0-5.47 1.14-10.6 3.42-15.38 2.28-4.79 5.32-8.91 9.14-12.39 3.82-3.47 8.17-6.21 13.07-8.2s9.97-2.99 15.21-2.99c6.72 0 13.21 1.77 19.48 5.3 6.26 3.53 11.79 9.29 16.58 17.26-2.62-.57-4.96-.86-7.01-.86-2.28 0-3.96.74-5.04 2.22s-1.62 3.07-1.62 4.79c0 1.82.91 3.56 2.73 5.21s4.67 2.48 8.54 2.48c6.15 0 11.13-1.54 14.95-4.61s6.78-7.01 8.89-11.79c2.11-4.79 3.5-10.08 4.19-15.89.68-5.81 1.03-11.45 1.03-16.92-1.03 1.03-2.51 2.11-4.44 3.25-1.94 1.14-4.16 2.19-6.67 3.16s-5.3 1.77-8.37 2.39c-3.08.63-6.27.94-9.57.94-6.72 0-13.53-.6-20.42-1.79-6.89-1.2-13.53-3.13-19.91-5.81s-12.39-6.12-18.03-10.34c-5.64-4.21-10.54-9.37-14.7-15.46s-7.43-13.19-9.83-21.28-3.59-17.26-3.59-27.52c0-15.04 2.33-28.31 7.01-39.82 4.67-11.51 11.19-21.13 19.57-28.88 8.37-7.75 18.34-13.59 29.91-17.52 11.56-3.93 24.24-5.89 38.03-5.89 14.58 0 27.69 2.42 39.31 7.26s21.5 12.11 29.65 21.79c8.14 9.68 14.38 21.76 18.71 36.23zm-66.31 25.46c.11-4.33-.32-8.46-1.28-12.39-.97-3.93-2.34-7.4-4.1-10.42-1.77-3.02-3.96-5.41-6.58-7.18s-5.53-2.65-8.72-2.65-6.24.86-8.8 2.56c-2.56 1.71-4.73 4.05-6.49 7.01-1.77 2.96-3.11 6.44-4.02 10.43s-1.37 8.2-1.37 12.64c0 9.69 1.65 17.29 4.96 22.82 3.3 5.53 8.54 8.29 15.72 8.29 2.85 0 5.52-.71 8.03-2.14 2.5-1.42 4.67-3.5 6.49-6.24 1.82-2.73 3.27-6.01 4.36-9.83 1.08-3.81 1.68-8.12 1.79-12.9z" fill="#fff"/></g></g></svg>