<svg id="Layer_2" height="512" viewBox="0 0 512 512" width="512" xmlns="http://www.w3.org/2000/svg" xmlns:xlink="http://www.w3.org/1999/xlink" data-name="Layer 2"><linearGradient id="linear-gradient" gradientUnits="userSpaceOnUse" x1="43.93" x2="468.07" y1="43.93" y2="468.07"><stop offset="0" stop-color="#64b5f6"/><stop offset="1" stop-color="#1976d2"/></linearGradient><linearGradient id="linear-gradient-2" gradientUnits="userSpaceOnUse" x1="155.01" x2="472.73" y1="145.68" y2="463.4"><stop offset="0" stop-opacity=".35"/><stop offset="1" stop-opacity="0"/></linearGradient><g id="Icon"><g id="_40" data-name="40"><rect id="Background" fill="url(#linear-gradient)" height="512" rx="150" width="512"/><path d="m512 240.16v121.84c0 82.84-67.16 150-150 150h-103.19l-204.21-204.22 64.44-126.12 112.95-49.22 60.66 60.66 128.77-43.53z" fill="url(#linear-gradient-2)"/><path d="m89.63 302.49c10.82-1.03 20.48-1.65 28.97-1.88s15.58-.23 21.28 0 9.68.29 11.96.17c-.46 7.41-1.05 15.04-1.79 22.9s-1.71 15.41-2.91 22.64c-1.2 7.24-2.59 13.99-4.19 20.25-1.6 6.27-3.42 11.51-5.47 15.72 14.24-2.28 27.49-3.82 39.73-4.61 12.25-.8 22.93-1.2 32.04-1.2 4.79 0 9.03.06 12.73.17s6.86.29 9.49.51c2.96.23 5.58.46 7.86.68-3.19-11.28-5.84-23.1-7.95-35.46s-3.79-25.04-5.04-38.02c2.96.91 5.92 1.88 8.89 2.91 2.96 1.02 5.75 2.16 8.37 3.42-1.71-9.91-2.56-19.82-2.56-29.74 0-5.12.2-10.17.6-15.12.4-4.96 1.05-10 1.97-15.12-2.85 1.48-5.98 2.68-9.4 3.59s-7.07 1.82-10.94 2.73v-20.68c0-20.51.8-39.73 2.39-57.68s3.7-33.35 6.32-46.23c-21.99 1.82-43.87 2.88-65.62 3.16-21.76.29-43.64-.54-65.62-2.48-1.6 14.59-3.82 28.6-6.67 42.04-2.85 13.45-6.27 27.06-10.25 40.84-3.99 13.79-8.43 28.14-13.33 43.07s-10.2 31.16-15.89 48.71c12.53-2.5 24.21-4.27 35.03-5.3zm49.56-77.93c3.08-11.85 7.18-22.73 12.3-32.64.45 7.41.8 14.67 1.03 21.79s.43 13.76.6 19.91.28 11.68.34 16.58.09 8.83.09 11.79c-1.82 0-3.53-.03-5.13-.09-1.6-.05-3.25-.11-4.96-.17-1.71-.05-3.59-.14-5.64-.25s-4.39-.29-7.01-.52c2.5-12.41 5.3-24.55 8.37-36.4zm318.21 36.4c0-21.76-2.28-41.04-6.84-57.85-4.56-16.8-11.05-30.93-19.48-42.38s-18.69-20.14-30.76-26.06c-12.08-5.92-25.69-8.89-40.84-8.89-13.56 0-26.29 3.28-38.2 9.83s-22.28 15.75-31.1 27.6c-8.83 11.85-15.78 26.06-20.85 42.64s-7.6 34.95-7.6 55.11c0 11.17.83 22.02 2.48 32.56s4.19 20.45 7.61 29.73c3.42 9.29 7.75 17.8 12.99 25.55s11.51 14.38 18.8 19.91 15.55 9.82 24.78 12.9c9.23 3.07 19.59 4.61 31.1 4.61s21.93-1.71 31.27-5.12c9.34-3.42 17.63-8.09 24.87-14.02 7.23-5.92 13.5-12.9 18.8-20.93 5.3-8.04 9.63-16.69 12.99-25.98s5.87-18.97 7.52-29.05 2.48-20.14 2.48-30.16zm-71.01 17.35c-1.2 7.46-3.05 13.79-5.55 18.97-2.51 5.19-5.61 9.17-9.31 11.96s-8.12 4.19-13.24 4.19-9.37-1.43-13.07-4.27c-3.7-2.85-6.75-6.89-9.14-12.13s-4.19-11.56-5.38-18.97c-1.2-7.4-1.79-15.66-1.79-24.78 0-7.86.74-15.55 2.22-23.07s3.5-14.21 6.07-20.08c2.56-5.87 5.64-10.6 9.23-14.19s7.55-5.38 11.88-5.38c4.56 0 8.69 1.43 12.39 4.27 3.7 2.85 6.84 6.98 9.4 12.39s4.56 11.99 5.98 19.74 2.14 16.52 2.14 26.32c0 9.23-.6 17.57-1.79 25.04z" fill="#fff"/></g></g></svg>