<svg id="Layer_2" height="512" viewBox="0 0 512 512" width="512" xmlns="http://www.w3.org/2000/svg" xmlns:xlink="http://www.w3.org/1999/xlink" data-name="Layer 2"><linearGradient id="linear-gradient" gradientUnits="userSpaceOnUse" x1="43.93" x2="468.07" y1="43.93" y2="468.07"><stop offset="0" stop-color="#64b5f6"/><stop offset="1" stop-color="#1976d2"/></linearGradient><linearGradient id="linear-gradient-2" gradientUnits="userSpaceOnUse" x1="185.52" x2="484.09" y1="153.48" y2="452.04"><stop offset="0" stop-opacity=".35"/><stop offset="1" stop-opacity="0"/></linearGradient><g id="Icon"><g id="_41" data-name="41"><rect id="Background" fill="url(#linear-gradient)" height="512" rx="150" width="512"/><path d="m512 228.13v133.87c0 82.84-67.16 150-150 150h-69.78l-204.04-204.05 65.33-122.46 112.06-52.88 56.2 56.2 94.7-56.2z" fill="url(#linear-gradient-2)"/><path d="m123.21 302.66c10.82-1.03 20.48-1.65 28.97-1.88s15.58-.23 21.28 0 9.68.29 11.96.17c-.46 7.41-1.05 15.04-1.79 22.9s-1.71 15.41-2.91 22.64c-1.2 7.24-2.59 13.99-4.19 20.25-1.6 6.27-3.42 11.51-5.47 15.72 14.24-2.28 27.49-3.82 39.73-4.61 12.25-.8 22.93-1.2 32.04-1.2 4.79 0 9.03.06 12.73.17s6.86.29 9.49.51c2.96.23 5.58.46 7.86.68-3.19-11.28-5.84-23.1-7.95-35.46s-3.79-25.04-5.04-38.02c2.96.91 5.92 1.88 8.89 2.91 2.96 1.02 5.75 2.16 8.37 3.42-1.71-9.91-2.56-19.82-2.56-29.74 0-5.12.2-10.17.6-15.12.4-4.96 1.05-10 1.97-15.12-2.85 1.48-5.98 2.68-9.4 3.59s-7.07 1.82-10.94 2.73v-20.68c0-20.51.8-39.73 2.39-57.68s3.7-33.35 6.32-46.23c-21.99 1.82-43.87 2.88-65.62 3.16-21.76.29-43.64-.54-65.62-2.48-1.6 14.59-3.82 28.6-6.67 42.04-2.85 13.45-6.27 27.06-10.25 40.84-3.99 13.79-8.43 28.14-13.33 43.07s-10.2 31.16-15.89 48.71c12.53-2.5 24.21-4.27 35.03-5.3zm49.56-77.93c3.08-11.85 7.18-22.73 12.3-32.64.45 7.41.8 14.67 1.03 21.79s.43 13.76.6 19.91.28 11.68.34 16.58.09 8.83.09 11.79c-1.82 0-3.53-.03-5.13-.09-1.6-.05-3.25-.11-4.96-.17-1.71-.05-3.59-.14-5.64-.25s-4.39-.29-7.01-.52c2.5-12.41 5.3-24.55 8.37-36.4zm130.4-45.97c5.01-6.84 9.03-13.27 12.05-19.31s5.3-11.56 6.84-16.58c1.54-5.01 2.76-9.45 3.67-13.33 11.51 2.05 22.07 3.42 31.7 4.1s18.31 1.02 26.06 1.02c5.13 0 9.74-.11 13.84-.34s7.58-.45 10.42-.68c3.3-.34 6.21-.68 8.72-1.03-1.37 6.38-2.56 13.48-3.59 21.28s-1.94 16.12-2.73 24.95c-.8 8.83-1.4 18.09-1.79 27.77-.4 9.68-.6 19.65-.6 29.91 0 11.85.28 23.9.85 36.14.57 12.25 1.51 24.41 2.82 36.49s2.96 23.93 4.96 35.55c1.99 11.62 4.47 22.73 7.43 33.32-2.39-.23-5.07-.45-8.03-.68-2.62-.23-5.75-.4-9.4-.51s-7.86-.17-12.65-.17c-9.23 0-19.94.4-32.13 1.2s-25.41 2.33-39.65 4.61c2.5-5.13 4.67-11.62 6.49-19.48s3.33-16.26 4.53-25.21c1.2-8.94 2.14-18.03 2.82-27.26s1.2-17.83 1.54-25.8.54-14.87.6-20.68.09-9.8.09-11.96c0-.34-.03-1.74-.09-4.19s-.14-5.67-.26-9.66-.26-8.57-.43-13.76-.37-10.68-.6-16.49c-6.27-1.25-12.5-2.39-18.71-3.42-6.21-1.02-11.88-1.88-17-2.56-5.93-.8-11.62-1.43-17.09-1.88 7.86-7.41 14.3-14.53 19.31-21.36z" fill="#fff"/></g></g></svg>