<svg id="Layer_2" height="512" viewBox="0 0 512 512" width="512" xmlns="http://www.w3.org/2000/svg" xmlns:xlink="http://www.w3.org/1999/xlink" data-name="Layer 2"><linearGradient id="linear-gradient" gradientUnits="userSpaceOnUse" x1="43.93" x2="468.07" y1="43.93" y2="468.07"><stop offset="0" stop-color="#64b5f6"/><stop offset="1" stop-color="#1976d2"/></linearGradient><linearGradient id="linear-gradient-2" gradientUnits="userSpaceOnUse" x1="160.41" x2="476.49" y1="143.55" y2="459.64"><stop offset="0" stop-opacity=".35"/><stop offset="1" stop-opacity="0"/></linearGradient><g id="Icon"><g id="_43" data-name="43"><rect id="Background" fill="url(#linear-gradient)" height="512" rx="150" width="512"/><path d="m512 231.77v130.23c0 82.84-67.16 150-150 150h-96.52l-205.67-205.67 72.45-134.63 104.94-40.71 60.09 60.08 133.27-40.74z" fill="url(#linear-gradient-2)"/><path d="m94.84 301.03c10.82-1.03 20.48-1.65 28.97-1.88s15.58-.23 21.28 0 9.68.29 11.96.17c-.46 7.41-1.05 15.04-1.79 22.9s-1.71 15.41-2.91 22.64c-1.2 7.24-2.59 13.99-4.19 20.25-1.6 6.27-3.42 11.51-5.47 15.72 14.24-2.28 27.49-3.82 39.73-4.61 12.25-.8 22.93-1.2 32.04-1.2 4.79 0 9.03.06 12.73.17s6.86.29 9.49.51c2.96.23 5.58.46 7.86.68-3.19-11.28-5.84-23.1-7.95-35.46s-3.79-25.04-5.04-38.02c2.96.91 5.92 1.88 8.89 2.91 2.96 1.02 5.75 2.16 8.37 3.42-1.71-9.91-2.56-19.82-2.56-29.74 0-5.12.2-10.17.6-15.12.4-4.96 1.05-10 1.97-15.12-2.85 1.48-5.98 2.68-9.4 3.59s-7.07 1.82-10.94 2.73v-20.68c0-20.51.8-39.73 2.39-57.68s3.7-33.35 6.32-46.23c-21.99 1.82-43.87 2.88-65.62 3.16-21.76.29-43.64-.54-65.62-2.48-1.6 14.59-3.82 28.6-6.67 42.04-2.85 13.45-6.27 27.06-10.25 40.84-3.99 13.79-8.43 28.14-13.33 43.07s-10.2 31.16-15.89 48.71c12.53-2.5 24.21-4.27 35.03-5.3zm49.56-77.93c3.08-11.85 7.18-22.73 12.3-32.64.45 7.41.8 14.67 1.03 21.79s.43 13.76.6 19.91.28 11.68.34 16.58.09 8.83.09 11.79c-1.82 0-3.53-.03-5.13-.09-1.6-.05-3.25-.11-4.96-.17-1.71-.05-3.59-.14-5.64-.25s-4.39-.29-7.01-.52c2.5-12.41 5.3-24.55 8.37-36.4zm280.96 27.86c-5.01 2.96-10.08 4.96-15.21 5.98 5.24 1.48 10.4 3.45 15.47 5.89 5.07 2.45 9.57 5.76 13.5 9.91 3.93 4.16 7.09 9.34 9.48 15.55s3.59 13.87 3.59 22.99c0 11.05-2.02 21.3-6.07 30.76-4.04 9.46-10.14 17.63-18.29 24.52s-18.4 12.3-30.76 16.23-26.92 5.89-43.67 5.89c-14.7 0-27.51-2.08-38.45-6.24s-20.05-9.71-27.34-16.66-12.73-14.89-16.32-23.84-5.38-18.14-5.38-27.6c0-6.95 1.14-13.02 3.42-18.2s5.44-9.51 9.48-12.99 8.77-6.07 14.18-7.78 11.19-2.56 17.35-2.56c4.79 0 9.49.51 14.1 1.54 4.62 1.02 8.94 2.54 12.99 4.53 4.04 2 7.69 4.42 10.94 7.26 3.25 2.85 5.84 6.1 7.78 9.74-2.39-.68-4.44-1.02-6.15-1.02-1.6 0-3.16.37-4.7 1.11s-2.93 1.74-4.19 2.99c-1.25 1.25-2.25 2.71-2.99 4.36s-1.11 3.39-1.11 5.21c0 1.94.37 3.96 1.11 6.07s1.88 4.02 3.42 5.72c1.54 1.71 3.47 3.14 5.81 4.27 2.33 1.14 5.04 1.71 8.12 1.71 3.64 0 6.72-.71 9.23-2.14 2.5-1.43 4.5-3.16 5.98-5.21s2.53-4.27 3.16-6.66c.62-2.39.94-4.61.94-6.66 0-8.43-1.65-15.35-4.96-20.77-3.31-5.41-7.32-9.85-12.05-13.33s-9.69-6.3-14.87-8.46c-5.19-2.16-9.71-4.21-13.59-6.15 7.29-2.05 13.76-4.27 19.4-6.66s10.4-5.41 14.27-9.06c3.87-3.64 6.81-8.26 8.8-13.84s2.99-12.59 2.99-21.02c0-2.05-.32-4.27-.94-6.66-.63-2.39-1.68-4.64-3.16-6.75s-3.48-3.85-5.98-5.21c-2.51-1.37-5.58-2.05-9.23-2.05-3.08 0-5.78.57-8.12 1.71s-4.27 2.56-5.81 4.27-2.68 3.62-3.42 5.72c-.74 2.11-1.11 4.13-1.11 6.07 0 1.82.37 3.56 1.11 5.21s1.74 3.11 2.99 4.36c1.25 1.26 2.65 2.25 4.19 2.99s3.1 1.11 4.7 1.11c1.71 0 3.76-.34 6.15-1.02-1.94 3.65-4.53 6.92-7.78 9.82-3.25 2.91-6.89 5.33-10.94 7.27-4.04 1.94-8.37 3.42-12.99 4.44-4.61 1.03-9.31 1.54-14.1 1.54-6.15 0-11.94-.86-17.35-2.56-5.41-1.71-10.14-4.3-14.18-7.78-4.04-3.47-7.21-7.8-9.48-12.99-2.28-5.18-3.42-11.3-3.42-18.37 0-9.46 1.79-18.63 5.38-27.52s9.03-16.8 16.32-23.75 16.41-12.5 27.34-16.66c10.94-4.16 23.75-6.23 38.45-6.23 16.75 0 31.3 2.22 43.67 6.66 12.36 4.44 22.61 10.37 30.76 17.77 8.14 7.41 14.24 15.89 18.29 25.46 4.04 9.57 6.07 19.43 6.07 29.56 0 7.41-1.23 14.21-3.67 20.42-2.45 6.21-5.67 11.65-9.66 16.32s-8.49 8.49-13.5 11.45z" fill="#fff"/></g></g></svg>