<svg id="Layer_2" height="512" viewBox="0 0 512 512" width="512" xmlns="http://www.w3.org/2000/svg" xmlns:xlink="http://www.w3.org/1999/xlink" data-name="Layer 2"><linearGradient id="linear-gradient" gradientUnits="userSpaceOnUse" x1="43.93" x2="468.07" y1="43.93" y2="468.07"><stop offset="0" stop-color="#64b5f6"/><stop offset="1" stop-color="#1976d2"/></linearGradient><linearGradient id="linear-gradient-2" gradientUnits="userSpaceOnUse" x1="172.32" x2="484.9" y1="138.65" y2="451.23"><stop offset="0" stop-opacity=".35"/><stop offset="1" stop-opacity="0"/></linearGradient><g id="Icon"><g id="_45" data-name="45"><rect id="Background" fill="url(#linear-gradient)" height="512" rx="150" width="512"/><path d="m512 200.28v161.72c0 82.84-67.16 150-150 150h-94.38l-207.64-207.63 76.22-129.6 101.17-45.75 56.39 56.39 143.22-60.15z" fill="url(#linear-gradient-2)"/><path d="m95.01 299.07c10.82-1.03 20.48-1.65 28.97-1.88s15.58-.23 21.28 0 9.68.29 11.96.17c-.46 7.41-1.05 15.04-1.79 22.9s-1.71 15.41-2.91 22.64c-1.2 7.24-2.59 13.99-4.19 20.25-1.6 6.27-3.42 11.51-5.47 15.72 14.24-2.28 27.49-3.82 39.73-4.61 12.25-.8 22.93-1.2 32.04-1.2 4.79 0 9.03.06 12.73.17s6.86.29 9.49.51c2.96.23 5.58.46 7.86.68-3.19-11.28-5.84-23.1-7.95-35.46s-3.79-25.04-5.04-38.02c2.96.91 5.92 1.88 8.89 2.91 2.96 1.02 5.75 2.16 8.37 3.42-1.71-9.91-2.56-19.82-2.56-29.74 0-5.12.2-10.17.6-15.12.4-4.96 1.05-10 1.97-15.12-2.85 1.48-5.98 2.68-9.4 3.59s-7.07 1.82-10.94 2.73v-20.68c0-20.51.8-39.73 2.39-57.68s3.7-33.35 6.32-46.23c-21.99 1.82-43.87 2.88-65.62 3.16-21.76.29-43.64-.54-65.62-2.48-1.6 14.59-3.82 28.6-6.67 42.04-2.85 13.45-6.27 27.06-10.25 40.84-3.99 13.79-8.43 28.14-13.33 43.07s-10.2 31.16-15.89 48.71c12.53-2.5 24.21-4.27 35.03-5.3zm49.56-77.93c3.08-11.85 7.18-22.73 12.3-32.64.45 7.41.8 14.67 1.03 21.79s.43 13.76.6 19.91.28 11.68.34 16.58.09 8.83.09 11.79c-1.82 0-3.53-.03-5.13-.09-1.6-.05-3.25-.11-4.96-.17-1.71-.05-3.59-.14-5.64-.25s-4.39-.29-7.01-.52c2.5-12.41 5.3-24.55 8.37-36.4zm193.37 80.23c-.74 1.65-1.11 3.39-1.11 5.21 0 1.94.37 3.96 1.11 6.07s1.88 4.02 3.42 5.72c1.54 1.71 3.47 3.14 5.81 4.27 2.33 1.14 5.04 1.71 8.12 1.71 7.4 0 12.87-2.31 16.41-6.92 3.53-4.62 5.3-10.68 5.3-18.2 0-6.61-1.65-12.45-4.96-17.52s-7.63-9.34-12.99-12.82-11.45-6.21-18.29-8.2-13.76-3.3-20.76-3.93c-7.01-.62-13.87-.57-20.59.17s-12.59 2.08-17.6 4.02c0-.34-.03-2.22-.09-5.64s-.14-7.83-.26-13.25c-.12-5.41-.29-11.59-.51-18.54-.23-6.95-.54-14.16-.94-21.62s-.88-14.98-1.45-22.56-1.28-14.7-2.14-21.36-1.82-12.65-2.91-17.95c-1.08-5.3-2.37-9.43-3.84-12.39 10.94 2.28 22.05 3.91 33.33 4.87 11.28.97 22.44 1.45 33.5 1.45 12.65 0 24.98-.43 37-1.28 12.02-.86 22.76-1.85 32.21-2.99 11.05-1.25 21.47-2.73 31.27-4.44v90.57c-6.15-5.24-12.45-9.66-18.88-13.24-6.44-3.59-12.76-6.46-18.97-8.63-6.21-2.16-12.16-3.73-17.86-4.7-5.7-.96-10.83-1.45-15.38-1.45h-17.26l-1.37 15.38c3.42.11 8.4.46 14.95 1.02 6.55.57 13.7 1.88 21.45 3.93s15.66 5.04 23.75 8.97 15.44 9.34 22.05 16.24c6.61 6.89 12.02 15.5 16.24 25.8 4.21 10.31 6.32 22.82 6.32 37.51 0 13.56-2.02 25.89-6.07 37-4.04 11.11-10.14 20.59-18.29 28.45s-18.4 13.93-30.76 18.2-26.92 6.41-43.67 6.41c-14.7 0-27.51-2.08-38.45-6.24s-20.05-9.71-27.34-16.66-12.73-14.89-16.32-23.84-5.38-18.14-5.38-27.6c0-6.95 1.14-13.02 3.42-18.2s5.44-9.51 9.48-12.99 8.77-6.07 14.18-7.78 11.19-2.56 17.35-2.56c4.79 0 9.49.51 14.1 1.54 4.62 1.02 8.94 2.54 12.99 4.53 4.04 2 7.69 4.42 10.94 7.26 3.25 2.85 5.84 6.1 7.78 9.74-2.39-.68-4.44-1.02-6.15-1.02-1.6 0-3.16.37-4.7 1.11s-2.93 1.74-4.19 2.99c-1.25 1.25-2.25 2.71-2.99 4.36z" fill="#fff"/></g></g></svg>