<svg id="Layer_2" height="512" viewBox="0 0 512 512" width="512" xmlns="http://www.w3.org/2000/svg" xmlns:xlink="http://www.w3.org/1999/xlink" data-name="Layer 2"><linearGradient id="linear-gradient" gradientUnits="userSpaceOnUse" x1="43.93" x2="468.07" y1="43.93" y2="468.07"><stop offset="0" stop-color="#64b5f6"/><stop offset="1" stop-color="#1976d2"/></linearGradient><linearGradient id="linear-gradient-2" gradientUnits="userSpaceOnUse" x1="161.57" x2="475.84" y1="146.02" y2="460.29"><stop offset="0" stop-opacity=".35"/><stop offset="1" stop-opacity="0"/></linearGradient><g id="Icon"><g id="_48" data-name="48"><rect id="Background" fill="url(#linear-gradient)" height="512" rx="150" width="512"/><path d="m512 234.21v127.79c0 82.84-67.16 150-150 150h-96.7l-205.66-205.67 65.53-123.9 111.86-51.44 59.02 59.02 63.17-29.51 64.96-14.12z" fill="url(#linear-gradient-2)"/><path d="m94.67 301.03c10.82-1.03 20.48-1.65 28.97-1.88s15.58-.23 21.28 0 9.68.29 11.96.17c-.46 7.41-1.05 15.04-1.79 22.9s-1.71 15.41-2.91 22.64c-1.2 7.24-2.59 13.99-4.19 20.25-1.6 6.27-3.42 11.51-5.47 15.72 14.24-2.28 27.49-3.82 39.73-4.61 12.25-.8 22.93-1.2 32.04-1.2 4.79 0 9.03.06 12.73.17s6.86.29 9.49.51c2.96.23 5.58.46 7.86.68-3.19-11.28-5.84-23.1-7.95-35.46s-3.79-25.04-5.04-38.02c2.96.91 5.92 1.88 8.89 2.91 2.96 1.02 5.75 2.16 8.37 3.42-1.71-9.91-2.56-19.82-2.56-29.74 0-5.12.2-10.17.6-15.12.4-4.96 1.05-10 1.97-15.12-2.85 1.48-5.98 2.68-9.4 3.59s-7.07 1.82-10.94 2.73v-20.68c0-20.51.8-39.73 2.39-57.68s3.7-33.35 6.32-46.23c-21.99 1.82-43.87 2.88-65.62 3.16-21.76.29-43.64-.54-65.62-2.48-1.6 14.59-3.82 28.6-6.67 42.04-2.85 13.45-6.27 27.06-10.25 40.84-3.99 13.79-8.43 28.14-13.33 43.07s-10.2 31.16-15.89 48.71c12.53-2.5 24.21-4.27 35.03-5.3zm49.56-77.93c3.08-11.85 7.18-22.73 12.3-32.64.45 7.41.8 14.67 1.03 21.79s.43 13.76.6 19.91.28 11.68.34 16.58.09 8.83.09 11.79c-1.82 0-3.53-.03-5.13-.09-1.6-.05-3.25-.11-4.96-.17-1.71-.05-3.59-.14-5.64-.25s-4.39-.29-7.01-.52c2.5-12.41 5.3-24.55 8.37-36.4zm289.25 8.97c3.47-4.95 6.32-10.31 8.54-16.06s3.33-11.3 3.33-16.66c0-9.57-1.68-18.91-5.04-28.03-3.36-9.11-8.54-17.23-15.55-24.35s-15.92-12.84-26.75-17.18c-10.83-4.33-23.75-6.49-38.79-6.49s-26.92 2.16-37.68 6.49c-10.77 4.33-19.74 10.05-26.92 17.18s-12.56 15.24-16.15 24.35c-3.59 9.12-5.38 18.46-5.38 28.03 0 4.9 1.08 10.25 3.25 16.07 2.16 5.81 4.96 11.25 8.37 16.32s7.18 9.34 11.28 12.82 8.14 5.33 12.13 5.55c-5.24 1.48-10.4 3.79-15.47 6.92s-9.57 7.21-13.5 12.22c-3.93 5.02-7.09 11-9.48 17.95s-3.59 14.98-3.59 24.1c0 10.48 1.82 20.39 5.47 29.73 3.64 9.34 9.25 17.55 16.83 24.61 7.58 7.07 17.23 12.67 28.97 16.83 11.73 4.16 25.69 6.24 41.87 6.24s30.13-2.08 41.87-6.24c11.73-4.16 21.39-9.77 28.97-16.83s13.19-15.27 16.83-24.61 5.47-19.25 5.47-29.73c0-9.12-1.2-17.15-3.59-24.1s-5.55-12.93-9.48-17.95c-3.93-5.01-8.43-9.09-13.5-12.22s-10.23-5.44-15.47-6.92c3.76-.34 7.69-2.19 11.79-5.55s7.89-7.52 11.37-12.48zm-59.3 79.9c-.51 2.39-1.37 4.64-2.56 6.75-1.2 2.11-2.82 3.9-4.87 5.38s-4.56 2.22-7.52 2.22-5.47-.74-7.52-2.22-3.67-3.27-4.87-5.38-2.05-4.36-2.56-6.75-.77-4.5-.77-6.32c0-3.08.4-6.21 1.2-9.4s1.88-6.24 3.25-9.14 3.02-5.64 4.96-8.2 4.04-4.7 6.32-6.41c2.16 1.71 4.21 3.79 6.15 6.24s3.62 5.13 5.04 8.03c1.42 2.91 2.53 5.98 3.33 9.23s1.2 6.47 1.2 9.66c0 1.82-.26 3.93-.77 6.32zm-3.16-91.95c-2.62 6.04-6.55 11.96-11.79 17.77-1.82-2.39-3.67-4.98-5.55-7.78-1.88-2.79-3.56-5.66-5.04-8.63-1.48-2.96-2.71-6.01-3.67-9.14-.97-3.13-1.45-6.29-1.45-9.48 0-1.82.26-3.9.77-6.24.51-2.33 1.37-4.55 2.56-6.66 1.2-2.11 2.82-3.87 4.87-5.3 2.05-1.42 4.56-2.14 7.52-2.14s5.47.71 7.52 2.14 3.67 3.19 4.87 5.3 2.05 4.33 2.56 6.66c.51 2.34.77 4.42.77 6.24 0 5.47-1.31 11.22-3.93 17.26z" fill="#fff"/></g></g></svg>