<svg id="Layer_2" height="512" viewBox="0 0 512 512" width="512" xmlns="http://www.w3.org/2000/svg" xmlns:xlink="http://www.w3.org/1999/xlink" data-name="Layer 2"><linearGradient id="linear-gradient" gradientUnits="userSpaceOnUse" x1="43.93" x2="468.07" y1="43.93" y2="468.07"><stop offset="0" stop-color="#64b5f6"/><stop offset="1" stop-color="#1976d2"/></linearGradient><linearGradient id="linear-gradient-2" gradientUnits="userSpaceOnUse" x1="154.67" x2="475.07" y1="140.67" y2="461.06"><stop offset="0" stop-opacity=".35"/><stop offset="1" stop-opacity="0"/></linearGradient><g id="Icon"><g id="_49" data-name="49"><rect id="Background" fill="url(#linear-gradient)" height="512" rx="150" width="512"/><path d="m512 236.18v125.82c0 82.84-67.16 150-150 150h-97.8l-205.25-205.24 70.05-140.42 107.35-34.93 60.87 60.88 125.53-45.36z" fill="url(#linear-gradient-2)"/><path d="m93.99 301.46c10.82-1.03 20.48-1.65 28.97-1.88s15.58-.23 21.28 0 9.68.29 11.96.17c-.46 7.41-1.05 15.04-1.79 22.9s-1.71 15.41-2.91 22.64c-1.2 7.24-2.59 13.99-4.19 20.25-1.6 6.27-3.42 11.51-5.47 15.72 14.24-2.28 27.49-3.82 39.73-4.61 12.25-.8 22.93-1.2 32.04-1.2 4.79 0 9.03.06 12.73.17s6.86.29 9.49.51c2.96.23 5.58.46 7.86.68-3.19-11.28-5.84-23.1-7.95-35.46s-3.79-25.04-5.04-38.02c2.96.91 5.92 1.88 8.89 2.91 2.96 1.02 5.75 2.16 8.37 3.42-1.71-9.91-2.56-19.82-2.56-29.74 0-5.12.2-10.17.6-15.12.4-4.96 1.05-10 1.97-15.12-2.85 1.48-5.98 2.68-9.4 3.59s-7.07 1.82-10.94 2.73v-20.68c0-20.51.8-39.73 2.39-57.68s3.7-33.35 6.32-46.23c-21.99 1.82-43.87 2.88-65.62 3.16-21.76.29-43.64-.54-65.62-2.48-1.6 14.59-3.82 28.6-6.67 42.04-2.85 13.45-6.27 27.06-10.25 40.84-3.99 13.79-8.43 28.14-13.33 43.07s-10.2 31.16-15.89 48.71c12.53-2.5 24.21-4.27 35.03-5.3zm49.56-77.93c3.08-11.85 7.18-22.73 12.3-32.64.45 7.41.8 14.67 1.03 21.79s.43 13.76.6 19.91.28 11.68.34 16.58.09 8.83.09 11.79c-1.82 0-3.53-.03-5.13-.09-1.6-.05-3.25-.11-4.96-.17-1.71-.05-3.59-.14-5.64-.25s-4.39-.29-7.01-.52c2.5-12.41 5.3-24.55 8.37-36.4zm202.69 98.95c2.05 0 4.38.29 7.01.86-4.79-7.98-10.31-13.73-16.58-17.26s-12.76-5.3-19.48-5.3c-5.24 0-10.31 1-15.21 2.99-4.9 2-9.26 4.73-13.07 8.2-3.82 3.48-6.87 7.61-9.14 12.39-2.28 4.79-3.42 9.91-3.42 15.38 0 7.29 1.88 13.93 5.64 19.91s8.8 11.11 15.12 15.38 13.64 7.61 21.96 10 17.03 3.59 26.15 3.59c15.72 0 29.28-2.16 40.67-6.49s21.11-10.17 29.14-17.52 14.53-15.95 19.48-25.8c4.96-9.86 8.8-20.34 11.54-31.45s4.58-22.47 5.55-34.09 1.45-22.96 1.45-34.01c0-19.25-2.17-36.12-6.49-50.59-4.33-14.47-10.57-26.55-18.71-36.23-8.15-9.68-18.03-16.95-29.65-21.79s-24.72-7.26-39.31-7.26c-13.79 0-26.46 1.96-38.03 5.89-11.56 3.93-21.53 9.77-29.91 17.52-8.37 7.75-14.9 17.38-19.57 28.88-4.67 11.51-7.01 24.78-7.01 39.82 0 10.25 1.2 19.43 3.59 27.52s5.67 15.18 9.83 21.28 9.06 11.25 14.7 15.46c5.64 4.22 11.65 7.66 18.03 10.34s13.01 4.61 19.91 5.81c6.89 1.2 13.7 1.79 20.42 1.79 3.3 0 6.49-.31 9.57-.94 3.08-.62 5.87-1.42 8.37-2.39s4.73-2.02 6.67-3.16 3.42-2.22 4.44-3.25c0 5.47-.34 11.11-1.03 16.92-.68 5.81-2.08 11.11-4.19 15.89-2.11 4.79-5.07 8.72-8.89 11.79-3.82 3.08-8.8 4.61-14.95 4.61-3.88 0-6.72-.82-8.54-2.48-1.82-1.65-2.73-3.39-2.73-5.21 0-1.71.54-3.3 1.62-4.79 1.08-1.48 2.76-2.22 5.04-2.22zm32.21-95.45c-1.08 3.82-2.54 7.09-4.36 9.83-1.82 2.73-3.99 4.82-6.49 6.24-2.51 1.43-5.19 2.14-8.03 2.14-7.18 0-12.42-2.76-15.72-8.29-3.31-5.52-4.96-13.13-4.96-22.82 0-4.44.45-8.66 1.37-12.64.91-3.99 2.25-7.46 4.02-10.43 1.76-2.96 3.93-5.3 6.49-7.01s5.5-2.56 8.8-2.56 6.09.88 8.72 2.65c2.62 1.77 4.81 4.16 6.58 7.18s3.13 6.49 4.1 10.42 1.39 8.06 1.28 12.39c-.12 4.79-.71 9.09-1.79 12.9z" fill="#fff"/></g></g></svg>