<svg id="Layer_2" height="512" viewBox="0 0 512 512" width="512" xmlns="http://www.w3.org/2000/svg" xmlns:xlink="http://www.w3.org/1999/xlink" data-name="Layer 2"><linearGradient id="linear-gradient" gradientUnits="userSpaceOnUse" x1="43.93" x2="468.07" y1="43.93" y2="468.07"><stop offset="0" stop-color="#64b5f6"/><stop offset="1" stop-color="#1976d2"/></linearGradient><linearGradient id="linear-gradient-2" gradientUnits="userSpaceOnUse" x1="188.88" x2="475.45" y1="174.11" y2="460.68"><stop offset="0" stop-opacity=".35"/><stop offset="1" stop-opacity="0"/></linearGradient><g id="Icon"><g id="_5" data-name="5"><rect id="Background" fill="url(#linear-gradient)" height="512" rx="150" width="512"/><path d="m512 303.16v58.84c0 82.84-67.16 150-150 150h-29.3l-149.85-149.85 19.55-77.72-23.48-23.47 21.31-98.2h96.38l37.49-37.5z" fill="url(#linear-gradient-2)"/><path d="m238.06 297.02c1.25-1.25 2.65-2.25 4.19-2.99s3.1-1.11 4.7-1.11c1.71 0 3.76.34 6.15 1.03-1.94-3.64-4.53-6.89-7.78-9.74s-6.89-5.27-10.94-7.26c-4.04-1.99-8.37-3.5-12.99-4.53s-9.31-1.54-14.1-1.54c-6.15 0-11.94.85-17.35 2.56s-10.14 4.3-14.18 7.78-7.21 7.8-9.48 12.99c-2.28 5.19-3.42 11.25-3.42 18.2 0 9.46 1.79 18.66 5.38 27.6 3.59 8.95 9.03 16.89 16.32 23.84s16.41 12.5 27.34 16.66c10.94 4.16 23.75 6.24 38.45 6.24 16.75 0 31.3-2.14 43.66-6.41s22.62-10.34 30.76-18.2 14.24-17.35 18.29-28.46c4.04-11.11 6.07-23.44 6.07-37 0-14.7-2.11-27.2-6.32-37.51-4.22-10.31-9.63-18.91-16.24-25.8s-13.96-12.3-22.05-16.24c-8.09-3.93-16.01-6.92-23.75-8.97-7.75-2.05-14.9-3.36-21.45-3.93s-11.54-.91-14.95-1.03l1.37-15.38h17.26c4.56 0 9.68.49 15.38 1.45 5.7.97 11.65 2.54 17.86 4.7 6.21 2.17 12.53 5.04 18.97 8.63s12.73 8 18.88 13.24v-90.58c-9.8 1.71-20.22 3.19-31.27 4.44-9.46 1.14-20.2 2.14-32.21 2.99-12.02.86-24.35 1.28-37 1.28-11.05 0-22.22-.48-33.5-1.45s-22.39-2.59-33.33-4.87c1.48 2.96 2.76 7.09 3.84 12.39s2.05 11.28 2.91 17.94c.85 6.67 1.57 13.79 2.14 21.36.57 7.58 1.05 15.1 1.45 22.56s.71 14.67.94 21.62.4 13.13.51 18.54.2 9.83.26 13.25.09 5.3.09 5.64c5.01-1.94 10.88-3.27 17.6-4.02 6.72-.74 13.59-.8 20.59-.17 7.01.63 13.93 1.94 20.76 3.93 6.84 1.99 12.93 4.73 18.29 8.2 5.35 3.48 9.68 7.75 12.99 12.82 3.3 5.07 4.96 10.91 4.96 17.52 0 7.52-1.77 13.59-5.3 18.2s-9 6.92-16.41 6.92c-3.08 0-5.78-.57-8.12-1.71s-4.27-2.56-5.81-4.27-2.68-3.62-3.42-5.72c-.74-2.11-1.11-4.13-1.11-6.07 0-1.82.37-3.56 1.11-5.21s1.74-3.1 2.99-4.36z" fill="#fff"/></g></g></svg>