<svg id="Layer_2" height="512" viewBox="0 0 512 512" width="512" xmlns="http://www.w3.org/2000/svg" xmlns:xlink="http://www.w3.org/1999/xlink" data-name="Layer 2"><linearGradient id="linear-gradient" gradientUnits="userSpaceOnUse" x1="43.93" x2="468.07" y1="43.93" y2="468.07"><stop offset="0" stop-color="#64b5f6"/><stop offset="1" stop-color="#1976d2"/></linearGradient><linearGradient id="linear-gradient-2" gradientUnits="userSpaceOnUse" x1="144.16" x2="464.26" y1="151.76" y2="471.86"><stop offset="0" stop-opacity=".35"/><stop offset="1" stop-opacity="0"/></linearGradient><g id="Icon"><g id="_50" data-name="50"><rect id="Background" fill="url(#linear-gradient)" height="512" rx="150" width="512"/><path d="m512 239.75v122.25c0 82.84-67.16 150-150 150h-137.45l-146.71-146.71 24.7-72.54-30.34-30.34 41.67-80.37 113.5-55.32 73.27 73.26 45.89-36.63 73.13-15.94z" fill="url(#linear-gradient-2)"/><path d="m128.34 302.83c-.74 1.65-1.11 3.39-1.11 5.21 0 1.94.37 3.96 1.11 6.07s1.88 4.02 3.42 5.72c1.54 1.71 3.47 3.14 5.81 4.27 2.33 1.14 5.04 1.71 8.12 1.71 7.4 0 12.87-2.31 16.41-6.92 3.53-4.62 5.3-10.68 5.3-18.2 0-6.61-1.65-12.45-4.96-17.52s-7.63-9.34-12.99-12.82-11.45-6.21-18.29-8.2-13.76-3.3-20.76-3.93c-7.01-.62-13.87-.57-20.59.17s-12.59 2.08-17.6 4.02c0-.34-.03-2.22-.09-5.64s-.14-7.83-.26-13.25c-.12-5.41-.29-11.59-.51-18.54-.23-6.95-.54-14.16-.94-21.62s-.88-14.98-1.45-22.56-1.28-14.7-2.14-21.36-1.82-12.65-2.91-17.95c-1.08-5.3-2.37-9.43-3.84-12.39 10.94 2.28 22.05 3.91 33.33 4.87 11.28.97 22.44 1.45 33.5 1.45 12.65 0 24.98-.43 37-1.28 12.02-.86 22.76-1.85 32.21-2.99 11.05-1.25 21.47-2.73 31.27-4.44v90.57c-6.15-5.24-12.45-9.66-18.88-13.24-6.44-3.59-12.76-6.46-18.97-8.63-6.21-2.16-12.16-3.73-17.86-4.7-5.7-.96-10.83-1.45-15.38-1.45h-17.26l-1.37 15.38c3.42.11 8.4.46 14.95 1.02 6.55.57 13.7 1.88 21.45 3.93s15.66 5.04 23.75 8.97 15.44 9.34 22.05 16.24c6.61 6.89 12.02 15.5 16.24 25.8 4.21 10.31 6.32 22.82 6.32 37.51 0 13.56-2.02 25.89-6.07 37-4.04 11.11-10.14 20.59-18.29 28.45s-18.4 13.93-30.76 18.2-26.92 6.41-43.66 6.41c-14.7 0-27.51-2.08-38.45-6.24s-20.05-9.71-27.34-16.66-12.73-14.89-16.32-23.84-5.38-18.14-5.38-27.6c0-6.95 1.14-13.02 3.42-18.2s5.44-9.51 9.48-12.99 8.77-6.07 14.18-7.78 11.19-2.56 17.35-2.56c4.79 0 9.48.51 14.1 1.54 4.61 1.02 8.94 2.54 12.99 4.53 4.04 2 7.69 4.42 10.94 7.26 3.25 2.85 5.84 6.1 7.78 9.74-2.39-.68-4.44-1.02-6.15-1.02-1.6 0-3.16.37-4.7 1.11s-2.93 1.74-4.19 2.99c-1.25 1.25-2.25 2.71-2.99 4.36zm325.05-13.67c-1.65 10.08-4.16 19.77-7.52 29.05-3.36 9.29-7.69 17.94-12.99 25.98-5.3 8.03-11.56 15.01-18.8 20.93-7.24 5.93-15.52 10.6-24.87 14.02-9.34 3.42-19.77 5.12-31.27 5.12s-21.88-1.54-31.1-4.61c-9.23-3.08-17.49-7.38-24.78-12.9-7.29-5.53-13.56-12.16-18.8-19.91s-9.57-16.26-12.99-25.55-5.96-19.2-7.61-29.73c-1.65-10.54-2.48-21.39-2.48-32.56 0-20.16 2.53-38.54 7.6-55.11 5.07-16.58 12.02-30.79 20.85-42.64s19.2-21.05 31.1-27.6 24.64-9.83 38.2-9.83c15.15 0 28.77 2.96 40.84 8.89 12.08 5.93 22.33 14.61 30.76 26.06s14.92 25.58 19.48 42.38 6.84 36.09 6.84 57.85c0 10.03-.83 20.08-2.48 30.16zm-66.74-37.85c0-9.8-.71-18.57-2.14-26.32s-3.42-14.32-5.98-19.74c-2.56-5.41-5.7-9.54-9.4-12.39s-7.83-4.27-12.39-4.27-8.29 1.8-11.88 5.38c-3.59 3.59-6.67 8.32-9.23 14.19s-4.59 12.56-6.07 20.08-2.22 15.21-2.22 23.07c0 9.11.6 17.38 1.79 24.78 1.2 7.41 2.99 13.73 5.38 18.97s5.44 9.29 9.14 12.13c3.7 2.85 8.06 4.27 13.07 4.27s9.54-1.39 13.24-4.19c3.7-2.79 6.81-6.78 9.31-11.96s4.36-11.5 5.55-18.97c1.2-7.46 1.79-15.81 1.79-25.04z" fill="#fff"/></g></g></svg>