<svg id="Layer_2" height="512" viewBox="0 0 512 512" width="512" xmlns="http://www.w3.org/2000/svg" xmlns:xlink="http://www.w3.org/1999/xlink" data-name="Layer 2"><linearGradient id="linear-gradient" gradientUnits="userSpaceOnUse" x1="43.93" x2="468.07" y1="43.93" y2="468.07"><stop offset="0" stop-color="#64b5f6"/><stop offset="1" stop-color="#1976d2"/></linearGradient><linearGradient id="linear-gradient-2" gradientUnits="userSpaceOnUse" x1="174.42" x2="476.44" y1="157.67" y2="459.69"><stop offset="0" stop-opacity=".35"/><stop offset="1" stop-opacity="0"/></linearGradient><g id="Icon"><g id="_51" data-name="51"><rect id="Background" fill="url(#linear-gradient)" height="512" rx="150" width="512"/><path d="m512 226.09v135.91c0 82.84-67.16 150-150 150h-102.41l-148.17-148.16 26.83-70.41-32.47-32.47 43.13-77.77 112.05-57.93 54.51 54.52 99.47-50.76z" fill="url(#linear-gradient-2)"/><path d="m89.72 312.4c0-6.95 1.14-13.02 3.42-18.2s5.44-9.51 9.48-12.99 8.77-6.07 14.18-7.78 11.19-2.56 17.35-2.56c4.79 0 9.48.51 14.1 1.54 4.61 1.02 8.94 2.54 12.99 4.53 4.04 2 7.69 4.42 10.94 7.26 3.25 2.85 5.84 6.1 7.78 9.74-2.39-.68-4.44-1.02-6.15-1.02-1.6 0-3.16.37-4.7 1.11s-2.93 1.74-4.19 2.99c-1.25 1.25-2.25 2.71-2.99 4.36s-1.11 3.39-1.11 5.21c0 1.94.37 3.96 1.11 6.07s1.88 4.02 3.42 5.72c1.54 1.71 3.47 3.14 5.81 4.27 2.33 1.14 5.04 1.71 8.12 1.71 7.4 0 12.87-2.31 16.41-6.92 3.53-4.62 5.3-10.68 5.3-18.2 0-6.61-1.65-12.45-4.96-17.52s-7.63-9.34-12.99-12.82-11.45-6.21-18.29-8.2-13.76-3.3-20.76-3.93c-7.01-.62-13.87-.57-20.59.17s-12.59 2.08-17.6 4.02c0-.34-.03-2.22-.09-5.64s-.14-7.83-.26-13.25c-.12-5.41-.29-11.59-.51-18.54-.23-6.95-.54-14.16-.94-21.62s-.88-14.98-1.45-22.56-1.28-14.7-2.14-21.36-1.82-12.65-2.91-17.95c-1.08-5.3-2.37-9.43-3.84-12.39 10.94 2.28 22.05 3.91 33.33 4.87 11.28.97 22.44 1.45 33.5 1.45 12.65 0 24.98-.43 37-1.28 12.02-.86 22.76-1.85 32.21-2.99 11.05-1.25 21.47-2.73 31.27-4.44v90.57c-6.15-5.24-12.45-9.66-18.88-13.24-6.44-3.59-12.76-6.46-18.97-8.63-6.21-2.16-12.16-3.73-17.86-4.7-5.7-.96-10.83-1.45-15.38-1.45h-17.26l-1.37 15.38c3.42.11 8.4.46 14.95 1.02 6.55.57 13.7 1.88 21.45 3.93s15.66 5.04 23.75 8.97 15.44 9.34 22.05 16.24c6.61 6.89 12.02 15.5 16.24 25.8 4.21 10.31 6.32 22.82 6.32 37.51 0 13.56-2.02 25.89-6.07 37-4.04 11.11-10.14 20.59-18.29 28.45s-18.4 13.93-30.76 18.2-26.92 6.41-43.66 6.41c-14.7 0-27.51-2.08-38.45-6.24s-20.05-9.71-27.34-16.66-12.73-14.89-16.32-23.84-5.38-18.14-5.38-27.6zm318.89-137.15c.8-8.83 1.71-17.15 2.73-24.95 1.03-7.8 2.22-14.89 3.59-21.28-2.51.34-5.41.68-8.72 1.03-2.85.23-6.32.46-10.42.68-4.1.23-8.72.34-13.84.34-7.75 0-16.44-.34-26.06-1.02-9.63-.68-20.2-2.05-31.7-4.1-.91 3.88-2.14 8.32-3.67 13.33-1.54 5.02-3.82 10.54-6.84 16.58s-7.04 12.48-12.05 19.31c-5.01 6.84-11.45 13.96-19.31 21.36 5.47.45 11.16 1.08 17.09 1.88 5.13.68 10.79 1.54 17 2.56 6.21 1.03 12.45 2.16 18.71 3.42.23 5.81.43 11.31.6 16.49s.31 9.77.43 13.76c.11 3.99.2 7.21.26 9.66s.09 3.84.09 4.19c0 2.16-.03 6.15-.09 11.96s-.26 12.71-.6 20.68c-.34 7.98-.85 16.58-1.54 25.8-.68 9.23-1.62 18.32-2.82 27.26-1.2 8.95-2.71 17.35-4.53 25.21s-3.99 14.36-6.49 19.48c14.24-2.28 27.46-3.82 39.65-4.61 12.19-.8 22.9-1.2 32.13-1.2 4.79 0 9 .06 12.65.17 3.64.11 6.78.29 9.4.51 2.96.23 5.64.46 8.03.68-2.96-10.59-5.44-21.7-7.43-33.32s-3.65-23.47-4.96-35.55c-1.31-12.07-2.25-24.24-2.82-36.49s-.85-24.29-.85-36.14c0-10.25.2-20.22.6-29.91.4-9.68 1-18.94 1.79-27.77z" fill="#fff"/></g></g></svg>