<svg id="Layer_2" height="512" viewBox="0 0 512 512" width="512" xmlns="http://www.w3.org/2000/svg" xmlns:xlink="http://www.w3.org/1999/xlink" data-name="Layer 2"><linearGradient id="linear-gradient" gradientUnits="userSpaceOnUse" x1="43.93" x2="468.07" y1="43.93" y2="468.07"><stop offset="0" stop-color="#64b5f6"/><stop offset="1" stop-color="#1976d2"/></linearGradient><linearGradient id="linear-gradient-2" gradientUnits="userSpaceOnUse" x1="148.67" x2="466.38" y1="152.03" y2="469.75"><stop offset="0" stop-opacity=".35"/><stop offset="1" stop-opacity="0"/></linearGradient><g id="Icon"><g id="_52" data-name="52"><rect id="Background" fill="url(#linear-gradient)" height="512" rx="150" width="512"/><path d="m512 236.32v125.68c0 82.84-67.16 150-150 150h-132.41l-146.2-146.2 22.25-74.99-27.89-27.89 35.16-75.13 120.02-60.56 57.64 57.64 134.47-35.51z" fill="url(#linear-gradient-2)"/><path d="m61.69 314.36c0-6.95 1.14-13.02 3.42-18.2s5.44-9.51 9.48-12.99 8.77-6.07 14.18-7.78 11.19-2.56 17.35-2.56c4.79 0 9.48.51 14.1 1.54 4.61 1.02 8.94 2.54 12.99 4.53 4.04 2 7.69 4.42 10.94 7.26 3.25 2.85 5.84 6.1 7.78 9.74-2.39-.68-4.44-1.02-6.15-1.02-1.6 0-3.16.37-4.7 1.11s-2.93 1.74-4.19 2.99c-1.25 1.25-2.25 2.71-2.99 4.36s-1.11 3.39-1.11 5.21c0 1.94.37 3.96 1.11 6.07s1.88 4.02 3.42 5.72c1.54 1.71 3.47 3.14 5.81 4.27 2.33 1.14 5.04 1.71 8.12 1.71 7.4 0 12.87-2.31 16.41-6.92 3.53-4.62 5.3-10.68 5.3-18.2 0-6.61-1.65-12.45-4.96-17.52s-7.63-9.34-12.99-12.82-11.45-6.21-18.29-8.2-13.76-3.3-20.76-3.93c-7.01-.62-13.87-.57-20.59.17s-12.59 2.08-17.6 4.02c0-.34-.03-2.22-.09-5.64s-.14-7.83-.26-13.25c-.12-5.41-.29-11.59-.51-18.54-.23-6.95-.54-14.16-.94-21.62s-.88-14.98-1.45-22.56-1.28-14.7-2.14-21.36-1.82-12.65-2.91-17.95c-1.08-5.3-2.37-9.43-3.84-12.39 10.94 2.28 22.05 3.91 33.33 4.87 11.28.97 22.44 1.45 33.5 1.45 12.65 0 24.98-.43 37-1.28 12.02-.86 22.76-1.85 32.21-2.99 11.05-1.25 21.47-2.73 31.27-4.44v90.57c-6.15-5.24-12.45-9.66-18.88-13.24-6.44-3.59-12.76-6.46-18.97-8.63-6.21-2.16-12.16-3.73-17.86-4.7-5.7-.96-10.83-1.45-15.38-1.45h-17.26l-1.37 15.38c3.42.11 8.4.46 14.95 1.02 6.55.57 13.7 1.88 21.45 3.93s15.66 5.04 23.75 8.97 15.44 9.34 22.05 16.24c6.61 6.89 12.02 15.5 16.24 25.8 4.21 10.31 6.32 22.82 6.32 37.51 0 13.56-2.02 25.89-6.07 37-4.04 11.11-10.14 20.59-18.29 28.45s-18.4 13.93-30.76 18.2-26.92 6.41-43.66 6.41c-14.7 0-27.51-2.08-38.45-6.24s-20.05-9.71-27.34-16.66-12.73-14.89-16.32-23.84-5.38-18.14-5.38-27.6zm289.67-.86c5.24-4.21 10.85-8 16.83-11.36s12.16-6.46 18.54-9.31 12.62-5.84 18.71-8.97 11.85-6.58 17.26-10.34 10.17-8.2 14.27-13.33c4.1-5.12 7.35-11.16 9.74-18.11s3.59-15.15 3.59-24.61c0-13.33-2.02-25.75-6.07-37.26-4.04-11.5-10.14-21.47-18.29-29.91-8.15-8.43-18.4-15.04-30.76-19.82-12.36-4.79-26.92-7.18-43.67-7.18-14.7 0-27.51 2.08-38.45 6.23-10.94 4.16-20.05 9.71-27.34 16.66s-12.73 14.87-16.32 23.75-5.38 18.06-5.38 27.52c0 7.07 1.14 13.19 3.42 18.37 2.28 5.19 5.44 9.52 9.48 12.99 4.04 3.48 8.77 6.07 14.18 7.78s11.19 2.56 17.35 2.56c4.79 0 9.49-.51 14.1-1.54 4.62-1.02 8.94-2.5 12.99-4.44 4.04-1.94 7.69-4.36 10.94-7.27 3.25-2.9 5.84-6.18 7.78-9.82-2.39.68-4.44 1.02-6.15 1.02-1.6 0-3.16-.37-4.7-1.11s-2.93-1.73-4.19-2.99c-1.25-1.25-2.25-2.7-2.99-4.36-.74-1.65-1.11-3.39-1.11-5.21 0-1.93.37-3.96 1.11-6.07s1.88-4.02 3.42-5.72c1.54-1.71 3.47-3.13 5.81-4.27 2.33-1.14 5.04-1.71 8.12-1.71 3.64 0 6.72.68 9.23 2.05 2.5 1.37 4.5 3.11 5.98 5.21 1.48 2.11 2.53 4.36 3.16 6.75.62 2.39.94 4.61.94 6.66 0 8.77-1.54 16.23-4.61 22.39s-7.15 11.68-12.22 16.58-10.85 9.46-17.35 13.67-13.13 8.71-19.91 13.5-13.42 10.14-19.91 16.07-12.28 13.1-17.35 21.53-9.14 18.37-12.22 29.82-4.61 25.09-4.61 40.93c14.81-2.05 29.93-3.59 45.37-4.61 15.44-1.03 31.13-1.54 47.08-1.54s31.04.51 46.31 1.54c15.27 1.02 30.02 2.56 44.26 4.61-2.05-9.23-3.56-18.54-4.53-27.94s-1.45-18.83-1.45-28.29c0-5.81.17-11.65.51-17.52s.91-11.82 1.71-17.86c-12.19 10.94-27.17 19.85-44.95 26.75s-38.17 11.14-61.18 12.73c3.76-5.92 8.26-10.99 13.5-15.21z" fill="#fff"/></g></g></svg>