<svg id="Layer_2" height="512" viewBox="0 0 512 512" width="512" xmlns="http://www.w3.org/2000/svg" xmlns:xlink="http://www.w3.org/1999/xlink" data-name="Layer 2"><linearGradient id="linear-gradient" gradientUnits="userSpaceOnUse" x1="43.93" x2="468.07" y1="43.93" y2="468.07"><stop offset="0" stop-color="#64b5f6"/><stop offset="1" stop-color="#1976d2"/></linearGradient><linearGradient id="linear-gradient-2" gradientUnits="userSpaceOnUse" x1="144.23" x2="467.05" y1="146.26" y2="469.08"><stop offset="0" stop-opacity=".35"/><stop offset="1" stop-opacity="0"/></linearGradient><g id="Icon"><g id="_53" data-name="53"><rect id="Background" fill="url(#linear-gradient)" height="512" rx="150" width="512"/><path d="m512 233.32v128.68c0 82.84-67.16 150-150 150h-132.75l-146.2-146.2 17.57-79.67-23.21-23.21 36.53-86.37 118.65-49.32 52.49 52.5 143.73-29.6z" fill="url(#linear-gradient-2)"/><path d="m61.35 314.36c0-6.95 1.14-13.02 3.42-18.2s5.44-9.51 9.48-12.99 8.77-6.07 14.18-7.78 11.19-2.56 17.35-2.56c4.79 0 9.48.51 14.1 1.54 4.61 1.02 8.94 2.54 12.99 4.53 4.04 2 7.69 4.42 10.94 7.26 3.25 2.85 5.84 6.1 7.78 9.74-2.39-.68-4.44-1.02-6.15-1.02-1.6 0-3.16.37-4.7 1.11s-2.93 1.74-4.19 2.99c-1.25 1.25-2.25 2.71-2.99 4.36s-1.11 3.39-1.11 5.21c0 1.94.37 3.96 1.11 6.07s1.88 4.02 3.42 5.72c1.54 1.71 3.47 3.14 5.81 4.27 2.33 1.14 5.04 1.71 8.12 1.71 7.4 0 12.87-2.31 16.41-6.92 3.53-4.62 5.3-10.68 5.3-18.2 0-6.61-1.65-12.45-4.96-17.52s-7.63-9.34-12.99-12.82-11.45-6.21-18.29-8.2-13.76-3.3-20.76-3.93c-7.01-.62-13.87-.57-20.59.17s-12.59 2.08-17.6 4.02c0-.34-.03-2.22-.09-5.64s-.14-7.83-.26-13.25c-.12-5.41-.29-11.59-.51-18.54-.23-6.95-.54-14.16-.94-21.62s-.88-14.98-1.45-22.56-1.28-14.7-2.14-21.36-1.82-12.65-2.91-17.95c-1.08-5.3-2.37-9.43-3.84-12.39 10.94 2.28 22.05 3.91 33.33 4.87 11.28.97 22.44 1.45 33.5 1.45 12.65 0 24.98-.43 37-1.28 12.02-.86 22.76-1.85 32.21-2.99 11.05-1.25 21.47-2.73 31.27-4.44v90.57c-6.15-5.24-12.45-9.66-18.88-13.24-6.44-3.59-12.76-6.46-18.97-8.63-6.21-2.16-12.16-3.73-17.86-4.7-5.7-.96-10.83-1.45-15.38-1.45h-17.26l-1.37 15.38c3.42.11 8.4.46 14.95 1.02 6.55.57 13.7 1.88 21.45 3.93s15.66 5.04 23.75 8.97 15.44 9.34 22.05 16.24c6.61 6.89 12.02 15.5 16.24 25.8 4.21 10.31 6.32 22.82 6.32 37.51 0 13.56-2.02 25.89-6.07 37-4.04 11.11-10.14 20.59-18.29 28.45s-18.4 13.93-30.76 18.2-26.92 6.41-43.66 6.41c-14.7 0-27.51-2.08-38.45-6.24s-20.05-9.71-27.34-16.66-12.73-14.89-16.32-23.84-5.38-18.14-5.38-27.6zm375.98-74.85c3.99-4.67 7.2-10.11 9.66-16.32 2.45-6.21 3.67-13.01 3.67-20.42 0-10.14-2.02-19.99-6.07-29.56-4.04-9.57-10.14-18.06-18.29-25.46-8.15-7.41-18.4-13.33-30.76-17.77-12.36-4.45-26.92-6.66-43.67-6.66-14.7 0-27.51 2.08-38.45 6.23-10.94 4.16-20.05 9.71-27.34 16.66s-12.73 14.87-16.32 23.75-5.38 18.06-5.38 27.52c0 7.07 1.14 13.19 3.42 18.37 2.28 5.19 5.44 9.52 9.48 12.99 4.04 3.48 8.77 6.07 14.18 7.78s11.19 2.56 17.35 2.56c4.79 0 9.49-.51 14.1-1.54 4.62-1.02 8.94-2.5 12.99-4.44 4.04-1.94 7.69-4.36 10.94-7.27 3.25-2.9 5.84-6.18 7.78-9.82-2.39.68-4.44 1.02-6.15 1.02-1.6 0-3.16-.37-4.7-1.11s-2.93-1.73-4.19-2.99c-1.25-1.25-2.25-2.7-2.99-4.36-.74-1.65-1.11-3.39-1.11-5.21 0-1.93.37-3.96 1.11-6.07s1.88-4.02 3.42-5.72c1.54-1.71 3.47-3.13 5.81-4.27 2.33-1.14 5.04-1.71 8.12-1.71 3.64 0 6.72.68 9.23 2.05 2.5 1.37 4.5 3.11 5.98 5.21 1.48 2.11 2.53 4.36 3.16 6.75.62 2.39.94 4.61.94 6.66 0 8.43-1 15.44-2.99 21.02-2 5.59-4.93 10.2-8.8 13.84-3.88 3.65-8.63 6.66-14.27 9.06-5.64 2.39-12.11 4.61-19.4 6.66 3.87 1.94 8.4 3.99 13.59 6.15 5.18 2.16 10.14 4.98 14.87 8.46s8.74 7.92 12.05 13.33c3.3 5.41 4.96 12.34 4.96 20.77 0 2.05-.32 4.27-.94 6.66-.63 2.39-1.68 4.61-3.16 6.66s-3.48 3.79-5.98 5.21c-2.51 1.43-5.58 2.14-9.23 2.14-3.08 0-5.78-.57-8.12-1.71s-4.27-2.56-5.81-4.27-2.68-3.61-3.42-5.72-1.11-4.13-1.11-6.07c0-1.82.37-3.56 1.11-5.21s1.74-3.1 2.99-4.36c1.25-1.25 2.65-2.25 4.19-2.99s3.1-1.11 4.7-1.11c1.71 0 3.76.34 6.15 1.02-1.94-3.64-4.53-6.89-7.78-9.74-3.25-2.84-6.89-5.27-10.94-7.26-4.04-1.99-8.37-3.5-12.99-4.53-4.61-1.03-9.31-1.54-14.1-1.54-6.15 0-11.94.86-17.35 2.56-5.41 1.71-10.14 4.3-14.18 7.78s-7.21 7.8-9.48 12.99c-2.28 5.18-3.42 11.25-3.42 18.2 0 9.46 1.79 18.66 5.38 27.6s9.03 16.89 16.32 23.84 16.41 12.5 27.34 16.66 23.75 6.24 38.45 6.24c16.75 0 31.3-1.96 43.67-5.89 12.36-3.93 22.61-9.34 30.76-16.23 8.14-6.89 14.24-15.07 18.29-24.52 4.04-9.46 6.07-19.71 6.07-30.76 0-9.12-1.2-16.78-3.59-22.99s-5.55-11.39-9.48-15.55-8.43-7.46-13.5-9.91-10.23-4.41-15.47-5.89c5.13-1.02 10.2-3.02 15.21-5.98s9.51-6.78 13.5-11.45z" fill="#fff"/></g></g></svg>