<svg id="Layer_2" height="512" viewBox="0 0 512 512" width="512" xmlns="http://www.w3.org/2000/svg" xmlns:xlink="http://www.w3.org/1999/xlink" data-name="Layer 2"><linearGradient id="linear-gradient" gradientUnits="userSpaceOnUse" x1="43.93" x2="468.07" y1="43.93" y2="468.07"><stop offset="0" stop-color="#64b5f6"/><stop offset="1" stop-color="#1976d2"/></linearGradient><linearGradient id="linear-gradient-2" gradientUnits="userSpaceOnUse" x1="158.14" x2="475.37" y1="143.53" y2="460.76"><stop offset="0" stop-opacity=".35"/><stop offset="1" stop-opacity="0"/></linearGradient><g id="Icon"><g id="_54" data-name="54"><rect id="Background" fill="url(#linear-gradient)" height="512" rx="150" width="512"/><path d="m512 204.98v157.02c0 82.84-67.16 150-150 150h-127.8l-148.16-148.16 21.62-75.63-27.26-27.25 39.22-78.92 115.96-56.78 75.25 75.25 125.21-71.49z" fill="url(#linear-gradient-2)"/><path d="m64.34 312.4c0-6.95 1.14-13.02 3.42-18.2s5.44-9.51 9.48-12.99 8.77-6.07 14.18-7.78 11.19-2.56 17.35-2.56c4.79 0 9.48.51 14.1 1.54 4.61 1.02 8.94 2.54 12.99 4.53 4.04 2 7.69 4.42 10.94 7.26 3.25 2.85 5.84 6.1 7.78 9.74-2.39-.68-4.44-1.02-6.15-1.02-1.6 0-3.16.37-4.7 1.11s-2.93 1.74-4.19 2.99c-1.25 1.25-2.25 2.71-2.99 4.36s-1.11 3.39-1.11 5.21c0 1.94.37 3.96 1.11 6.07s1.88 4.02 3.42 5.72c1.54 1.71 3.47 3.14 5.81 4.27 2.33 1.14 5.04 1.71 8.12 1.71 7.4 0 12.87-2.31 16.41-6.92 3.53-4.62 5.3-10.68 5.3-18.2 0-6.61-1.65-12.45-4.96-17.52s-7.63-9.34-12.99-12.82-11.45-6.21-18.29-8.2-13.76-3.3-20.76-3.93c-7.01-.62-13.87-.57-20.59.17s-12.59 2.08-17.6 4.02c0-.34-.03-2.22-.09-5.64s-.14-7.83-.26-13.25c-.12-5.41-.29-11.59-.51-18.54-.23-6.95-.54-14.16-.94-21.62s-.88-14.98-1.45-22.56-1.28-14.7-2.14-21.36-1.82-12.65-2.91-17.95c-1.08-5.3-2.37-9.43-3.84-12.39 10.94 2.28 22.05 3.91 33.33 4.87 11.28.97 22.44 1.45 33.5 1.45 12.65 0 24.98-.43 37-1.28 12.02-.86 22.76-1.85 32.21-2.99 11.05-1.25 21.47-2.73 31.27-4.44v90.57c-6.15-5.24-12.45-9.66-18.88-13.24-6.44-3.59-12.76-6.46-18.97-8.63-6.21-2.16-12.16-3.73-17.86-4.7-5.7-.96-10.83-1.45-15.38-1.45h-17.26l-1.37 15.38c3.42.11 8.4.46 14.95 1.02 6.55.57 13.7 1.88 21.45 3.93s15.66 5.04 23.75 8.97 15.44 9.34 22.05 16.24c6.61 6.89 12.02 15.5 16.24 25.8 4.21 10.31 6.32 22.82 6.32 37.51 0 13.56-2.02 25.89-6.07 37-4.04 11.11-10.14 20.59-18.29 28.45s-18.4 13.93-30.76 18.2-26.92 6.41-43.66 6.41c-14.7 0-27.51-2.08-38.45-6.24s-20.05-9.71-27.34-16.66-12.73-14.89-16.32-23.84-5.38-18.14-5.38-27.6zm362.99-79.47v20.68c3.87-.91 7.52-1.82 10.94-2.73s6.55-2.11 9.4-3.59c-.91 5.13-1.57 10.17-1.96 15.12-.4 4.96-.6 10-.6 15.12 0 9.91.85 19.82 2.56 29.74-2.62-1.25-5.41-2.39-8.37-3.42s-5.93-1.99-8.89-2.91c1.25 12.99 2.93 25.66 5.04 38.02s4.75 24.18 7.95 35.46c-2.28-.23-4.9-.45-7.86-.68-2.62-.23-5.78-.4-9.49-.51-3.7-.11-7.95-.17-12.73-.17-9.12 0-19.8.4-32.04 1.2-12.25.8-25.49 2.33-39.73 4.61 2.05-4.21 3.87-9.46 5.47-15.72 1.59-6.27 2.99-13.02 4.19-20.25s2.16-14.78 2.91-22.64c.74-7.86 1.34-15.5 1.79-22.9-2.28.11-6.27.06-11.96-.17-5.7-.23-12.79-.23-21.28 0s-18.15.86-28.97 1.88c-10.83 1.02-22.5 2.79-35.03 5.3 5.7-17.54 10.99-33.78 15.89-48.71s9.34-29.28 13.33-43.07 7.4-27.4 10.25-40.84 5.07-27.46 6.67-42.04c21.99 1.94 43.86 2.77 65.62 2.48s43.63-1.34 65.62-3.16c-2.62 12.88-4.73 28.29-6.32 46.23-1.6 17.94-2.39 37.17-2.39 57.68zm-69.73 25.64c0-2.96-.03-6.89-.08-11.79-.06-4.9-.17-10.43-.34-16.58s-.37-12.79-.6-19.91-.57-14.38-1.03-21.79c-5.13 9.91-9.23 20.79-12.3 32.64-3.08 11.85-5.87 23.98-8.37 36.4 2.62.23 4.96.4 7.01.52s3.93.2 5.64.25c1.71.06 3.36.12 4.96.17 1.59.06 3.3.09 5.13.09z" fill="#fff"/></g></g></svg>