<svg id="Layer_2" height="512" viewBox="0 0 512 512" width="512" xmlns="http://www.w3.org/2000/svg" xmlns:xlink="http://www.w3.org/1999/xlink" data-name="Layer 2"><linearGradient id="linear-gradient" gradientUnits="userSpaceOnUse" x1="43.93" x2="468.07" y1="43.93" y2="468.07"><stop offset="0" stop-color="#64b5f6"/><stop offset="1" stop-color="#1976d2"/></linearGradient><linearGradient id="linear-gradient-2" gradientUnits="userSpaceOnUse" x1="152.48" x2="475.45" y1="137.7" y2="460.67"><stop offset="0" stop-opacity=".35"/><stop offset="1" stop-opacity="0"/></linearGradient><g id="Icon"><g id="_55" data-name="55"><rect id="Background" fill="url(#linear-gradient)" height="512" rx="150" width="512"/><path d="m512 201.82v160.18c0 82.84-67.16 150-150 150h-130.62l-148.16-148.16 26.76-70.48-32.4-32.4 22.51-70.87 132.67-64.83 55.4 55.41 147.28-55.41z" fill="url(#linear-gradient-2)"/><path d="m61.52 312.4c0-6.95 1.14-13.02 3.42-18.2s5.44-9.51 9.48-12.99 8.77-6.07 14.18-7.78 11.19-2.56 17.35-2.56c4.79 0 9.48.51 14.1 1.54 4.61 1.02 8.94 2.54 12.99 4.53 4.04 2 7.69 4.42 10.94 7.26 3.25 2.85 5.84 6.1 7.78 9.74-2.39-.68-4.44-1.02-6.15-1.02-1.6 0-3.16.37-4.7 1.11s-2.93 1.74-4.19 2.99c-1.25 1.25-2.25 2.71-2.99 4.36s-1.11 3.39-1.11 5.21c0 1.94.37 3.96 1.11 6.07s1.88 4.02 3.42 5.72c1.54 1.71 3.47 3.14 5.81 4.27 2.33 1.14 5.04 1.71 8.12 1.71 7.4 0 12.87-2.31 16.41-6.92 3.53-4.62 5.3-10.68 5.3-18.2 0-6.61-1.65-12.45-4.96-17.52s-7.63-9.34-12.99-12.82-11.45-6.21-18.29-8.2-13.76-3.3-20.76-3.93c-7.01-.62-13.87-.57-20.59.17s-12.59 2.08-17.6 4.02c0-.34-.03-2.22-.09-5.64s-.14-7.83-.26-13.25c-.12-5.41-.29-11.59-.51-18.54-.23-6.95-.54-14.16-.94-21.62s-.88-14.98-1.45-22.56-1.28-14.7-2.14-21.36-1.82-12.65-2.91-17.95c-1.08-5.3-2.37-9.43-3.84-12.39 10.94 2.28 22.05 3.91 33.33 4.87 11.28.97 22.44 1.45 33.5 1.45 12.65 0 24.98-.43 37-1.28 12.02-.86 22.76-1.85 32.21-2.99 11.05-1.25 21.47-2.73 31.27-4.44v90.57c-6.15-5.24-12.45-9.66-18.88-13.24-6.44-3.59-12.76-6.46-18.97-8.63-6.21-2.16-12.16-3.73-17.86-4.7-5.7-.96-10.83-1.45-15.38-1.45h-17.26l-1.37 15.38c3.42.11 8.4.46 14.95 1.02 6.55.57 13.7 1.88 21.45 3.93s15.66 5.04 23.75 8.97 15.44 9.34 22.05 16.24c6.61 6.89 12.02 15.5 16.24 25.8 4.21 10.31 6.32 22.82 6.32 37.51 0 13.56-2.02 25.89-6.07 37-4.04 11.11-10.14 20.59-18.29 28.45s-18.4 13.93-30.76 18.2-26.92 6.41-43.66 6.41c-14.7 0-27.51-2.08-38.45-6.24s-20.05-9.71-27.34-16.66-12.73-14.89-16.32-23.84-5.38-18.14-5.38-27.6zm224.39 51.44c7.29 6.95 16.41 12.5 27.34 16.66s23.75 6.24 38.45 6.24c16.75 0 31.3-2.14 43.67-6.41 12.36-4.27 22.61-10.34 30.76-18.2 8.14-7.86 14.24-17.34 18.29-28.45 4.04-11.11 6.07-23.44 6.07-37 0-14.7-2.11-27.2-6.32-37.51-4.22-10.31-9.63-18.91-16.24-25.8s-13.96-12.3-22.05-16.24c-8.09-3.93-16.01-6.92-23.75-8.97-7.75-2.05-14.9-3.36-21.45-3.93s-11.54-.91-14.95-1.02l1.37-15.38h17.26c4.56 0 9.68.49 15.38 1.45 5.7.97 11.65 2.54 17.86 4.7 6.21 2.17 12.53 5.04 18.97 8.63 6.43 3.59 12.73 8 18.88 13.24v-90.59c-9.8 1.71-20.22 3.19-31.27 4.44-9.46 1.14-20.2 2.14-32.21 2.99-12.02.86-24.35 1.28-37 1.28-11.05 0-22.22-.48-33.5-1.45-11.28-.96-22.39-2.59-33.33-4.87 1.48 2.96 2.76 7.09 3.84 12.39s2.05 11.28 2.91 17.95 1.57 13.79 2.14 21.36c.57 7.58 1.05 15.1 1.45 22.56s.71 14.67.94 21.62.4 13.13.51 18.54.2 9.83.26 13.25.09 5.3.09 5.64c5.01-1.93 10.88-3.27 17.6-4.02 6.72-.74 13.59-.8 20.59-.17 7.01.63 13.93 1.94 20.76 3.93s12.93 4.73 18.29 8.2c5.35 3.48 9.68 7.75 12.99 12.82 3.3 5.07 4.96 10.91 4.96 17.52 0 7.52-1.77 13.59-5.3 18.2s-9 6.92-16.41 6.92c-3.08 0-5.78-.57-8.12-1.71s-4.27-2.56-5.81-4.27-2.68-3.61-3.42-5.72-1.11-4.13-1.11-6.07c0-1.82.37-3.56 1.11-5.21s1.74-3.1 2.99-4.36c1.25-1.25 2.65-2.25 4.19-2.99s3.1-1.11 4.7-1.11c1.71 0 3.76.34 6.15 1.02-1.94-3.64-4.53-6.89-7.78-9.74-3.25-2.84-6.89-5.27-10.94-7.26-4.04-1.99-8.37-3.5-12.99-4.53-4.61-1.03-9.31-1.54-14.1-1.54-6.15 0-11.94.86-17.35 2.56-5.41 1.71-10.14 4.3-14.18 7.78s-7.21 7.8-9.48 12.99c-2.28 5.18-3.42 11.25-3.42 18.2 0 9.46 1.79 18.66 5.38 27.6s9.03 16.89 16.32 23.84z" fill="#fff"/></g></g></svg>