<svg id="Layer_2" height="512" viewBox="0 0 512 512" width="512" xmlns="http://www.w3.org/2000/svg" xmlns:xlink="http://www.w3.org/1999/xlink" data-name="Layer 2"><linearGradient id="linear-gradient" gradientUnits="userSpaceOnUse" x1="43.93" x2="468.07" y1="43.93" y2="468.07"><stop offset="0" stop-color="#64b5f6"/><stop offset="1" stop-color="#1976d2"/></linearGradient><linearGradient id="linear-gradient-2" gradientUnits="userSpaceOnUse" x1="162.94" x2="478.35" y1="142.36" y2="457.78"><stop offset="0" stop-opacity=".35"/><stop offset="1" stop-opacity="0"/></linearGradient><g id="Icon"><g id="_57" data-name="57"><rect id="Background" fill="url(#linear-gradient)" height="512" rx="150" width="512"/><path d="m512 198.32v163.68c0 82.84-67.16 150-150 150h-122.53l-149.6-149.6 37.19-60.08-41.36-41.36 54.79-96.15 100.39-39.55 41.29 41.3h118.36l41.83-37.88z" fill="url(#linear-gradient-2)"/><path d="m69.64 312.4c0-6.95 1.14-13.02 3.42-18.2s5.44-9.51 9.48-12.99 8.77-6.07 14.18-7.78 11.19-2.56 17.35-2.56c4.79 0 9.48.51 14.1 1.54 4.61 1.02 8.94 2.54 12.99 4.53 4.04 2 7.69 4.42 10.94 7.26 3.25 2.85 5.84 6.1 7.78 9.74-2.39-.68-4.44-1.02-6.15-1.02-1.6 0-3.16.37-4.7 1.11s-2.93 1.74-4.19 2.99c-1.25 1.25-2.25 2.71-2.99 4.36s-1.11 3.39-1.11 5.21c0 1.94.37 3.96 1.11 6.07s1.88 4.02 3.42 5.72c1.54 1.71 3.47 3.14 5.81 4.27 2.33 1.14 5.04 1.71 8.12 1.71 7.4 0 12.87-2.31 16.41-6.92 3.53-4.62 5.3-10.68 5.3-18.2 0-6.61-1.65-12.45-4.96-17.52s-7.63-9.34-12.99-12.82-11.45-6.21-18.29-8.2-13.76-3.3-20.76-3.93c-7.01-.62-13.87-.57-20.59.17s-12.59 2.08-17.6 4.02c0-.34-.03-2.22-.09-5.64s-.14-7.83-.26-13.25c-.12-5.41-.29-11.59-.51-18.54-.23-6.95-.54-14.16-.94-21.62s-.88-14.98-1.45-22.56-1.28-14.7-2.14-21.36-1.82-12.65-2.91-17.95c-1.08-5.3-2.37-9.43-3.84-12.39 10.94 2.28 22.05 3.91 33.33 4.87 11.28.97 22.44 1.45 33.5 1.45 12.65 0 24.98-.43 37-1.28 12.02-.86 22.76-1.85 32.21-2.99 11.05-1.25 21.47-2.73 31.27-4.44v90.57c-6.15-5.24-12.45-9.66-18.88-13.24-6.44-3.59-12.76-6.46-18.97-8.63-6.21-2.16-12.16-3.73-17.86-4.7-5.7-.96-10.83-1.45-15.38-1.45h-17.26l-1.37 15.38c3.42.11 8.4.46 14.95 1.02 6.55.57 13.7 1.88 21.45 3.93s15.66 5.04 23.75 8.97 15.44 9.34 22.05 16.24c6.61 6.89 12.02 15.5 16.24 25.8 4.21 10.31 6.32 22.82 6.32 37.51 0 13.56-2.02 25.89-6.07 37-4.04 11.11-10.14 20.59-18.29 28.45s-18.4 13.93-30.76 18.2-26.92 6.41-43.66 6.41c-14.7 0-27.51-2.08-38.45-6.24s-20.05-9.71-27.34-16.66-12.73-14.89-16.32-23.84-5.38-18.14-5.38-27.6zm285.4-177.31c-15.04-.17-29.82-.94-44.35-2.3-14.53-1.37-28.11-3.42-40.76-6.15.68 7.07 1.25 14.07 1.71 21.02.45 6.95.68 13.96.68 21.02v4.79c0 2.17-.06 4.59-.17 7.27-.12 2.68-.2 5.5-.26 8.46s-.2 5.81-.43 8.55c-.23 2.73-.46 5.18-.68 7.35-.23 2.16-.51 3.76-.85 4.79 5.47-3.53 11.39-6.38 17.77-8.54s12.96-3.88 19.74-5.13 13.59-2.11 20.42-2.56c6.84-.45 13.5-.74 20-.86-.68 6.27-1.97 14.04-3.84 23.33-1.88 9.29-4.25 19.4-7.09 30.34-2.85 10.94-6.15 22.39-9.91 34.35s-7.83 23.79-12.22 35.46c-4.39 11.68-9.12 22.9-14.18 33.67-5.07 10.77-10.28 20.42-15.64 28.97 7.29-1.14 13.93-2.08 19.91-2.82s11.59-1.34 16.83-1.79c5.24-.46 10.2-.77 14.87-.94s9.28-.26 13.84-.26c4.79 0 9.17.06 13.16.17s7.46.29 10.42.51c3.53.23 6.72.46 9.57.68 1.82-17.2 3.76-33.44 5.81-48.7 2.05-15.27 4.33-29.85 6.84-43.75 2.5-13.9 5.27-27.29 8.29-40.16s6.41-25.55 10.17-38.02 7.92-24.89 12.48-37.26c4.56-12.36 9.63-24.98 15.21-37.85-13.33 2.28-27.46 3.96-42.38 5.04-14.93 1.09-29.91 1.54-44.95 1.37z" fill="#fff"/></g></g></svg>