<svg id="Layer_2" height="512" viewBox="0 0 512 512" width="512" xmlns="http://www.w3.org/2000/svg" xmlns:xlink="http://www.w3.org/1999/xlink" data-name="Layer 2"><linearGradient id="linear-gradient" gradientUnits="userSpaceOnUse" x1="43.93" x2="468.07" y1="43.93" y2="468.07"><stop offset="0" stop-color="#64b5f6"/><stop offset="1" stop-color="#1976d2"/></linearGradient><linearGradient id="linear-gradient-2" gradientUnits="userSpaceOnUse" x1="148.56" x2="466.4" y1="151.89" y2="469.73"><stop offset="0" stop-opacity=".35"/><stop offset="1" stop-opacity="0"/></linearGradient><g id="Icon"><g id="_58" data-name="58"><rect id="Background" fill="url(#linear-gradient)" height="512" rx="150" width="512"/><path d="m512 235.75v126.25c0 82.84-67.16 150-150 150h-132.92l-146.2-146.2 25.44-71.8-31.08-31.08 40.78-80.49 114.4-55.2 60.05 60.05 130.54-40.53z" fill="url(#linear-gradient-2)"/><path d="m61.18 314.36c0-6.95 1.14-13.02 3.42-18.2s5.44-9.51 9.48-12.99 8.77-6.07 14.18-7.78 11.19-2.56 17.35-2.56c4.79 0 9.48.51 14.1 1.54 4.61 1.02 8.94 2.54 12.99 4.53 4.04 2 7.69 4.42 10.94 7.26 3.25 2.85 5.84 6.1 7.78 9.74-2.39-.68-4.44-1.02-6.15-1.02-1.6 0-3.16.37-4.7 1.11s-2.93 1.74-4.19 2.99c-1.25 1.25-2.25 2.71-2.99 4.36s-1.11 3.39-1.11 5.21c0 1.94.37 3.96 1.11 6.07s1.88 4.02 3.42 5.72c1.54 1.71 3.47 3.14 5.81 4.27 2.33 1.14 5.04 1.71 8.12 1.71 7.4 0 12.87-2.31 16.41-6.92 3.53-4.62 5.3-10.68 5.3-18.2 0-6.61-1.65-12.45-4.96-17.52s-7.63-9.34-12.99-12.82-11.45-6.21-18.29-8.2-13.76-3.3-20.76-3.93c-7.01-.62-13.87-.57-20.59.17s-12.59 2.08-17.6 4.02c0-.34-.03-2.22-.09-5.64s-.14-7.83-.26-13.25c-.12-5.41-.29-11.59-.51-18.54-.23-6.95-.54-14.16-.94-21.62s-.88-14.98-1.45-22.56-1.28-14.7-2.14-21.36-1.82-12.65-2.91-17.95c-1.08-5.3-2.37-9.43-3.84-12.39 10.94 2.28 22.05 3.91 33.33 4.87 11.28.97 22.44 1.45 33.5 1.45 12.65 0 24.98-.43 37-1.28 12.02-.86 22.76-1.85 32.21-2.99 11.05-1.25 21.47-2.73 31.27-4.44v90.57c-6.15-5.24-12.45-9.66-18.88-13.24-6.44-3.59-12.76-6.46-18.97-8.63-6.21-2.16-12.16-3.73-17.86-4.7-5.7-.96-10.83-1.45-15.38-1.45h-17.26l-1.37 15.38c3.42.11 8.4.46 14.95 1.02 6.55.57 13.7 1.88 21.45 3.93s15.66 5.04 23.75 8.97 15.44 9.34 22.05 16.24c6.61 6.89 12.02 15.5 16.24 25.8 4.21 10.31 6.32 22.82 6.32 37.51 0 13.56-2.02 25.89-6.07 37-4.04 11.11-10.14 20.59-18.29 28.45s-18.4 13.93-30.76 18.2-26.92 6.41-43.66 6.41c-14.7 0-27.51-2.08-38.45-6.24s-20.05-9.71-27.34-16.66-12.73-14.89-16.32-23.84-5.38-18.14-5.38-27.6zm359.4-69.81c-4.1 3.36-8.03 5.21-11.79 5.55 5.24 1.48 10.4 3.79 15.47 6.92s9.57 7.21 13.5 12.22c3.93 5.02 7.09 11 9.48 17.95s3.59 14.98 3.59 24.1c0 10.48-1.82 20.39-5.47 29.73s-9.26 17.55-16.83 24.61c-7.58 7.07-17.23 12.67-28.97 16.83s-25.69 6.24-41.87 6.24-30.14-2.08-41.87-6.24c-11.74-4.16-21.39-9.77-28.97-16.83s-13.19-15.27-16.83-24.61c-3.65-9.34-5.47-19.25-5.47-29.73 0-9.12 1.2-17.15 3.59-24.1s5.55-12.93 9.48-17.95c3.93-5.01 8.43-9.09 13.5-12.22s10.22-5.44 15.47-6.92c-3.99-.23-8.03-2.08-12.13-5.55s-7.86-7.75-11.28-12.82-6.21-10.51-8.37-16.32c-2.17-5.81-3.25-11.16-3.25-16.07 0-9.57 1.79-18.91 5.38-28.03 3.59-9.11 8.97-17.23 16.15-24.35s16.15-12.84 26.92-17.18c10.77-4.33 23.33-6.49 37.68-6.49s27.97 2.16 38.79 6.49 19.74 10.05 26.75 17.18c7.01 7.12 12.19 15.24 15.55 24.35 3.36 9.12 5.04 18.46 5.04 28.03 0 5.36-1.11 10.91-3.33 16.66s-5.07 11.11-8.54 16.06c-3.48 4.96-7.26 9.12-11.37 12.48zm-47.17 61.1c0-3.19-.4-6.41-1.2-9.66s-1.91-6.32-3.33-9.23c-1.43-2.9-3.11-5.58-5.04-8.03-1.94-2.45-3.99-4.53-6.15-6.24-2.28 1.71-4.39 3.85-6.32 6.41-1.94 2.56-3.59 5.3-4.96 8.2s-2.45 5.95-3.25 9.14-1.2 6.32-1.2 9.4c0 1.82.26 3.93.77 6.32s1.37 4.64 2.56 6.75c1.2 2.11 2.82 3.9 4.87 5.38s4.56 2.22 7.52 2.22 5.47-.74 7.52-2.22 3.67-3.27 4.87-5.38 2.05-4.36 2.56-6.75.77-4.5.77-6.32zm0-102.88c0-1.82-.26-3.9-.77-6.24-.51-2.33-1.37-4.55-2.56-6.66-1.2-2.11-2.82-3.87-4.87-5.3-2.05-1.42-4.56-2.14-7.52-2.14s-5.47.71-7.52 2.14-3.67 3.19-4.87 5.3-2.05 4.33-2.56 6.66c-.51 2.34-.77 4.42-.77 6.24 0 3.19.48 6.36 1.45 9.48.97 3.14 2.19 6.18 3.67 9.14s3.16 5.84 5.04 8.63 3.73 5.39 5.55 7.78c5.24-5.81 9.17-11.73 11.79-17.77s3.93-11.79 3.93-17.26z" fill="#fff"/></g></g></svg>