<svg id="Layer_2" height="512" viewBox="0 0 512 512" width="512" xmlns="http://www.w3.org/2000/svg" xmlns:xlink="http://www.w3.org/1999/xlink" data-name="Layer 2"><linearGradient id="linear-gradient" gradientUnits="userSpaceOnUse" x1="43.93" x2="468.07" y1="43.93" y2="468.07"><stop offset="0" stop-color="#64b5f6"/><stop offset="1" stop-color="#1976d2"/></linearGradient><linearGradient id="linear-gradient-2" gradientUnits="userSpaceOnUse" x1="137.7" x2="465.75" y1="142.33" y2="470.38"><stop offset="0" stop-opacity=".35"/><stop offset="1" stop-opacity="0"/></linearGradient><g id="Icon"><g id="_59" data-name="59"><rect id="Background" fill="url(#linear-gradient)" height="512" rx="150" width="512"/><path d="m512 237.45v124.55c0 82.84-67.16 150-150 150h-133.81l-147.81-147.82 27.26-70.01-31.08-31.08 29.21-88.83 125.96-46.86 56.96 56.96 132.97-37.25z" fill="url(#linear-gradient-2)"/><path d="m60.49 314.53c0-6.95 1.14-13.02 3.42-18.2s5.44-9.51 9.48-12.99 8.77-6.07 14.18-7.78 11.19-2.56 17.35-2.56c4.79 0 9.48.51 14.1 1.54 4.61 1.02 8.94 2.54 12.99 4.53 4.04 2 7.69 4.42 10.94 7.26 3.25 2.85 5.84 6.1 7.78 9.74-2.39-.68-4.44-1.02-6.15-1.02-1.6 0-3.16.37-4.7 1.11s-2.93 1.74-4.19 2.99c-1.25 1.25-2.25 2.71-2.99 4.36s-1.11 3.39-1.11 5.21c0 1.94.37 3.96 1.11 6.07s1.88 4.02 3.42 5.72c1.54 1.71 3.47 3.14 5.81 4.27 2.33 1.14 5.04 1.71 8.12 1.71 7.4 0 12.87-2.31 16.41-6.92 3.53-4.62 5.3-10.68 5.3-18.2 0-6.61-1.65-12.45-4.96-17.52s-7.63-9.34-12.99-12.82-11.45-6.21-18.29-8.2-13.76-3.3-20.76-3.93c-7.01-.62-13.87-.57-20.59.17s-12.59 2.08-17.6 4.02c0-.34-.03-2.22-.09-5.64s-.14-7.83-.26-13.25c-.12-5.41-.29-11.59-.51-18.54-.23-6.95-.54-14.16-.94-21.62s-.88-14.98-1.45-22.56-1.28-14.7-2.14-21.36-1.82-12.65-2.91-17.95c-1.08-5.3-2.37-9.43-3.84-12.39 10.94 2.28 22.05 3.91 33.33 4.87 11.28.97 22.44 1.45 33.5 1.45 12.65 0 24.98-.43 37-1.28 12.02-.86 22.76-1.85 32.21-2.99 11.05-1.25 21.47-2.73 31.27-4.44v90.57c-6.15-5.24-12.45-9.66-18.88-13.24-6.44-3.59-12.76-6.46-18.97-8.63-6.21-2.16-12.16-3.73-17.86-4.7-5.7-.96-10.83-1.45-15.38-1.45h-17.26l-1.37 15.38c3.42.11 8.4.46 14.95 1.02 6.55.57 13.7 1.88 21.45 3.93s15.66 5.04 23.75 8.97 15.44 9.34 22.05 16.24c6.61 6.89 12.02 15.5 16.24 25.8 4.21 10.31 6.32 22.82 6.32 37.51 0 13.56-2.02 25.89-6.07 37-4.04 11.11-10.14 20.59-18.29 28.45s-18.4 13.93-30.76 18.2-26.92 6.41-43.66 6.41c-14.7 0-27.51-2.08-38.45-6.24s-20.05-9.71-27.34-16.66-12.73-14.89-16.32-23.84-5.38-18.14-5.38-27.6zm279.16 9.91c-1.08 1.48-1.62 3.07-1.62 4.79 0 1.82.91 3.56 2.73 5.21s4.67 2.48 8.54 2.48c6.15 0 11.13-1.54 14.95-4.61s6.78-7.01 8.89-11.79c2.11-4.79 3.5-10.08 4.19-15.89.68-5.81 1.03-11.45 1.03-16.92-1.03 1.03-2.51 2.11-4.44 3.25-1.94 1.14-4.16 2.19-6.67 3.16s-5.3 1.77-8.37 2.39c-3.08.63-6.27.94-9.57.94-6.72 0-13.53-.6-20.42-1.79-6.89-1.2-13.53-3.13-19.91-5.81s-12.39-6.12-18.03-10.34c-5.64-4.21-10.54-9.37-14.7-15.46s-7.43-13.19-9.83-21.28-3.59-17.26-3.59-27.52c0-15.04 2.33-28.31 7.01-39.82 4.67-11.51 11.19-21.13 19.57-28.88 8.37-7.75 18.34-13.59 29.91-17.52 11.56-3.93 24.24-5.89 38.03-5.89 14.58 0 27.69 2.42 39.31 7.26s21.5 12.11 29.65 21.79c8.14 9.68 14.38 21.76 18.71 36.23s6.49 31.33 6.49 50.59c0 11.05-.49 22.39-1.45 34.01-.97 11.62-2.82 22.98-5.55 34.09s-6.58 21.59-11.54 31.45-11.45 18.46-19.48 25.8c-8.03 7.35-17.75 13.19-29.14 17.52s-24.95 6.49-40.67 6.49c-9.12 0-17.83-1.2-26.15-3.59s-15.64-5.72-21.96-10c-6.32-4.27-11.36-9.4-15.12-15.38s-5.64-12.62-5.64-19.91c0-5.47 1.14-10.6 3.42-15.38 2.28-4.79 5.32-8.91 9.14-12.39 3.82-3.47 8.17-6.21 13.07-8.2s9.97-2.99 15.21-2.99c6.72 0 13.21 1.77 19.48 5.3 6.26 3.53 11.79 9.29 16.58 17.26-2.62-.57-4.96-.86-7.01-.86-2.28 0-3.96.74-5.04 2.22zm39.05-110.57c.11-4.33-.32-8.46-1.28-12.39-.97-3.93-2.34-7.4-4.1-10.42-1.77-3.02-3.96-5.41-6.58-7.18s-5.53-2.65-8.72-2.65-6.24.86-8.8 2.56c-2.56 1.71-4.73 4.05-6.49 7.01-1.77 2.96-3.11 6.44-4.02 10.43s-1.37 8.2-1.37 12.64c0 9.69 1.65 17.29 4.96 22.82 3.3 5.53 8.54 8.29 15.72 8.29 2.85 0 5.52-.71 8.03-2.14 2.5-1.42 4.67-3.5 6.49-6.24 1.82-2.73 3.27-6.01 4.36-9.83 1.08-3.81 1.68-8.12 1.79-12.9z" fill="#fff"/></g></g></svg>