<svg id="Layer_2" height="512" viewBox="0 0 512 512" width="512" xmlns="http://www.w3.org/2000/svg" xmlns:xlink="http://www.w3.org/1999/xlink" data-name="Layer 2"><linearGradient id="linear-gradient" gradientUnits="userSpaceOnUse" x1="43.93" x2="468.07" y1="43.93" y2="468.07"><stop offset="0" stop-color="#64b5f6"/><stop offset="1" stop-color="#1976d2"/></linearGradient><linearGradient id="linear-gradient-2" gradientUnits="userSpaceOnUse" x1="190.01" x2="470.27" y1="185.59" y2="465.86"><stop offset="0" stop-opacity=".35"/><stop offset="1" stop-opacity="0"/></linearGradient><g id="Icon"><g id="_6" data-name="6"><rect id="Background" fill="url(#linear-gradient)" height="512" rx="150" width="512"/><path d="m512 329.89v32.11c0 82.84-67.16 150-150 150h-23.29l-147.42-147.42 40.35-220.62h94.43z" fill="url(#linear-gradient-2)"/><path d="m346.75 268.99c-2.39-8.09-5.67-15.15-9.83-21.19s-9.06-11.19-14.7-15.47c-5.64-4.27-11.65-7.72-18.03-10.34s-13.02-4.53-19.91-5.72c-6.89-1.2-13.7-1.79-20.42-1.79-3.31 0-6.47.32-9.49.94-3.02.63-5.81 1.4-8.37 2.31s-4.81 1.97-6.75 3.16c-1.94 1.2-3.42 2.31-4.44 3.33 0-5.47.34-11.11 1.03-16.92s2.08-11.11 4.19-15.89c2.11-4.79 5.07-8.74 8.89-11.88 3.82-3.13 8.8-4.7 14.95-4.7 3.87 0 6.72.85 8.54 2.56s2.73 3.42 2.73 5.13c0 1.82-.54 3.45-1.62 4.87-1.08 1.43-2.76 2.14-5.04 2.14-1.03 0-2.14-.06-3.33-.17-1.2-.11-2.42-.28-3.67-.51 4.79 7.86 10.31 13.56 16.58 17.09 6.26 3.53 12.76 5.3 19.48 5.3 5.24 0 10.34-1 15.29-2.99 4.96-1.99 9.34-4.73 13.16-8.2s6.86-7.58 9.14-12.3c2.28-4.73 3.42-9.83 3.42-15.29 0-7.29-1.88-13.93-5.64-19.91s-8.83-11.13-15.21-15.47c-6.38-4.33-13.73-7.69-22.05-10.08s-17.03-3.59-26.15-3.59c-15.72 0-29.28 2.17-40.67 6.49-11.39 4.33-21.11 10.2-29.14 17.6-8.03 7.41-14.53 16.04-19.48 25.89-4.96 9.86-8.8 20.31-11.54 31.36-2.73 11.05-4.59 22.42-5.55 34.09-.97 11.68-1.45 23.04-1.45 34.09 0 19.26 2.16 36.12 6.49 50.59s10.54 26.52 18.63 36.14c8.09 9.63 17.97 16.86 29.65 21.71 11.68 4.84 24.81 7.26 39.39 7.26 13.78 0 26.46-1.97 38.02-5.9s21.53-9.77 29.91-17.52c8.37-7.75 14.9-17.35 19.57-28.8s7.01-24.69 7.01-39.73c0-10.37-1.2-19.59-3.59-27.69zm-72.29 41.7c-.91 3.99-2.25 7.46-4.02 10.42s-3.93 5.3-6.49 7.01-5.5 2.56-8.8 2.56-6.24-.91-8.8-2.73-4.76-4.21-6.58-7.18c-1.82-2.96-3.19-6.41-4.1-10.34s-1.31-8.06-1.2-12.39c.23-9.68 2.28-17.29 6.15-22.82 3.87-5.52 8.72-8.29 14.53-8.29 7.18 0 12.42 2.76 15.72 8.29s4.96 13.13 4.96 22.82c0 4.44-.46 8.66-1.37 12.65z" fill="#fff"/></g></g></svg>