<svg id="Layer_2" height="512" viewBox="0 0 512 512" width="512" xmlns="http://www.w3.org/2000/svg" xmlns:xlink="http://www.w3.org/1999/xlink" data-name="Layer 2"><linearGradient id="linear-gradient" gradientUnits="userSpaceOnUse" x1="43.93" x2="468.07" y1="43.93" y2="468.07"><stop offset="0" stop-color="#64b5f6"/><stop offset="1" stop-color="#1976d2"/></linearGradient><linearGradient id="linear-gradient-2" gradientUnits="userSpaceOnUse" x1="124.42" x2="466.19" y1="128.17" y2="469.94"><stop offset="0" stop-opacity=".35"/><stop offset="1" stop-opacity="0"/></linearGradient><g id="Icon"><g id="_60" data-name="60"><rect id="Background" fill="url(#linear-gradient)" height="512" rx="150" width="512"/><path d="m512 240.16v121.84c0 82.84-67.16 150-150 150h-129.33l-146.76-146.76 22.79-221.35h111.26l79.68 79.68 50.72-59.14 70.55-15.36z" fill="url(#linear-gradient-2)"/><path d="m230.88 247.8c-4.16-6.04-9.06-11.19-14.7-15.46s-11.65-7.72-18.03-10.34-13.02-4.53-19.91-5.73-13.7-1.79-20.42-1.79c-3.31 0-6.47.32-9.49.94s-5.81 1.39-8.37 2.3-4.81 1.96-6.75 3.16-3.42 2.3-4.44 3.33c0-5.47.34-11.11 1.03-16.92.68-5.81 2.08-11.11 4.19-15.89 2.11-4.79 5.07-8.74 8.89-11.88 3.82-3.13 8.8-4.7 14.95-4.7 3.87 0 6.72.86 8.54 2.56 1.82 1.71 2.73 3.42 2.73 5.13 0 1.82-.54 3.45-1.62 4.87-1.08 1.43-2.76 2.14-5.04 2.14-1.03 0-2.14-.06-3.33-.17s-2.42-.29-3.67-.52c4.79 7.86 10.31 13.56 16.58 17.09 6.26 3.53 12.76 5.3 19.48 5.3 5.24 0 10.34-1 15.29-2.99 4.96-1.99 9.34-4.73 13.16-8.2s6.86-7.57 9.14-12.3 3.42-9.83 3.42-15.3c0-7.29-1.88-13.93-5.64-19.91s-8.83-11.13-15.21-15.46-13.73-7.69-22.05-10.08-17.03-3.59-26.15-3.59c-15.72 0-29.28 2.16-40.67 6.5-11.39 4.33-21.11 10.2-29.14 17.6s-14.53 16.04-19.48 25.89-8.8 20.31-11.54 31.36c-2.73 11.05-4.59 22.42-5.55 34.09-.97 11.68-1.45 23.05-1.45 34.1 0 19.25 2.16 36.12 6.49 50.59s10.54 26.52 18.63 36.14c8.09 9.63 17.97 16.86 29.65 21.7s24.81 7.26 39.39 7.26c13.78 0 26.46-1.96 38.02-5.89s21.53-9.77 29.91-17.52c8.37-7.75 14.9-17.34 19.57-28.79s7.01-24.7 7.01-39.73c0-10.37-1.2-19.59-3.59-27.69-2.39-8.09-5.67-15.15-9.83-21.19zm-62.46 62.89c-.91 3.99-2.25 7.46-4.02 10.43-1.77 2.96-3.93 5.3-6.49 7.01s-5.5 2.56-8.8 2.56-6.24-.91-8.8-2.73-4.76-4.21-6.58-7.18c-1.82-2.96-3.19-6.41-4.1-10.34s-1.31-8.06-1.2-12.39c.23-9.68 2.28-17.29 6.15-22.82 3.87-5.52 8.72-8.29 14.53-8.29 7.18 0 12.42 2.77 15.72 8.29 3.3 5.53 4.96 13.13 4.96 22.82 0 4.44-.46 8.66-1.37 12.64zm261.64-150.99c-8.43-11.45-18.69-20.14-30.76-26.06-12.08-5.92-25.69-8.89-40.84-8.89-13.56 0-26.29 3.28-38.2 9.83s-22.28 15.75-31.1 27.6c-8.83 11.85-15.78 26.06-20.85 42.64s-7.6 34.95-7.6 55.11c0 11.17.83 22.02 2.48 32.56s4.19 20.45 7.61 29.73c3.42 9.29 7.75 17.8 12.99 25.55s11.51 14.39 18.8 19.91c7.29 5.53 15.55 9.82 24.78 12.9s19.59 4.61 31.1 4.61 21.93-1.71 31.27-5.12c9.34-3.42 17.63-8.09 24.87-14.02 7.23-5.92 13.5-12.9 18.8-20.93s9.63-16.69 12.99-25.98 5.87-18.97 7.52-29.05 2.48-20.14 2.48-30.16c0-21.76-2.28-41.04-6.84-57.85-4.56-16.8-11.05-30.93-19.48-42.38zm-44.69 117.58c-1.2 7.46-3.05 13.79-5.55 18.97-2.51 5.19-5.61 9.18-9.31 11.96-3.7 2.79-8.12 4.19-13.24 4.19s-9.37-1.43-13.07-4.27c-3.7-2.85-6.75-6.89-9.14-12.13s-4.19-11.56-5.38-18.97c-1.2-7.41-1.79-15.66-1.79-24.78 0-7.86.74-15.55 2.22-23.07s3.5-14.21 6.07-20.08c2.56-5.87 5.64-10.6 9.23-14.18 3.59-3.59 7.55-5.38 11.88-5.38 4.56 0 8.69 1.43 12.39 4.27 3.7 2.85 6.84 6.98 9.4 12.39s4.56 11.99 5.98 19.74 2.14 16.52 2.14 26.32c0 9.23-.6 17.57-1.79 25.04z" fill="#fff"/></g></g></svg>