<svg id="Layer_2" height="512" viewBox="0 0 512 512" width="512" xmlns="http://www.w3.org/2000/svg" xmlns:xlink="http://www.w3.org/1999/xlink" data-name="Layer 2"><linearGradient id="linear-gradient" gradientUnits="userSpaceOnUse" x1="43.93" x2="468.07" y1="43.93" y2="468.07"><stop offset="0" stop-color="#64b5f6"/><stop offset="1" stop-color="#1976d2"/></linearGradient><linearGradient id="linear-gradient-2" gradientUnits="userSpaceOnUse" x1="134.73" x2="468.57" y1="133.72" y2="467.56"><stop offset="0" stop-opacity=".35"/><stop offset="1" stop-opacity="0"/></linearGradient><g id="Icon"><g id="_62" data-name="62"><rect id="Background" fill="url(#linear-gradient)" height="512" rx="150" width="512"/><path d="m512 236.24v125.76c0 82.84-67.16 150-150 150h-123.75l-147.4-147.4 33.81-220.81h100.76l65.61 65.61 24.48-42.29 109.87-17.48z" fill="url(#linear-gradient-2)"/><path d="m246.26 268.99c-2.39-8.09-5.67-15.15-9.83-21.19s-9.06-11.19-14.7-15.46-11.65-7.72-18.03-10.34-13.02-4.53-19.91-5.73-13.7-1.79-20.42-1.79c-3.31 0-6.47.32-9.49.94s-5.81 1.39-8.37 2.3-4.81 1.96-6.75 3.16-3.42 2.3-4.44 3.33c0-5.47.34-11.11 1.03-16.92.68-5.81 2.08-11.11 4.19-15.89 2.11-4.79 5.07-8.74 8.89-11.88 3.82-3.13 8.8-4.7 14.95-4.7 3.87 0 6.72.86 8.54 2.56 1.82 1.71 2.73 3.42 2.73 5.13 0 1.82-.54 3.45-1.62 4.87-1.08 1.43-2.76 2.14-5.04 2.14-1.03 0-2.14-.06-3.33-.17s-2.42-.29-3.67-.52c4.79 7.86 10.31 13.56 16.58 17.09 6.26 3.53 12.76 5.3 19.48 5.3 5.24 0 10.34-1 15.29-2.99 4.96-1.99 9.34-4.73 13.16-8.2s6.86-7.57 9.14-12.3 3.42-9.83 3.42-15.3c0-7.29-1.88-13.93-5.64-19.91s-8.83-11.14-15.21-15.47-13.73-7.69-22.05-10.08-17.03-3.59-26.15-3.59c-15.72 0-29.28 2.17-40.67 6.5s-21.11 10.2-29.14 17.6-14.53 16.04-19.48 25.89c-4.96 9.86-8.8 20.31-11.54 31.36-2.73 11.05-4.59 22.42-5.55 34.09-.97 11.68-1.45 23.05-1.45 34.1 0 19.25 2.16 36.12 6.49 50.59s10.54 26.52 18.63 36.14c8.09 9.63 17.97 16.86 29.65 21.7s24.81 7.26 39.39 7.26c13.78 0 26.46-1.96 38.02-5.89s21.53-9.77 29.91-17.52c8.37-7.75 14.9-17.34 19.57-28.79s7.01-24.7 7.01-39.73c0-10.37-1.2-19.59-3.59-27.69zm-72.29 41.7c-.91 3.99-2.25 7.46-4.02 10.43-1.77 2.96-3.93 5.3-6.49 7.01s-5.5 2.56-8.8 2.56-6.24-.91-8.8-2.73-4.76-4.21-6.58-7.18c-1.82-2.96-3.19-6.41-4.1-10.34s-1.31-8.06-1.2-12.39c.23-9.68 2.28-17.29 6.15-22.82 3.87-5.52 8.72-8.29 14.53-8.29 7.18 0 12.42 2.77 15.72 8.29 3.3 5.53 4.96 13.13 4.96 22.82 0 4.44-.46 8.66-1.37 12.64zm164.4 18.46c23.01-1.59 43.41-5.84 61.18-12.73s32.75-15.81 44.95-26.75c-.8 6.04-1.37 11.99-1.71 17.86s-.51 11.71-.51 17.52c0 9.46.48 18.89 1.45 28.29s2.48 18.71 4.53 27.94c-14.24-2.05-29-3.59-44.26-4.61-15.27-1.03-30.71-1.54-46.31-1.54s-31.65.51-47.08 1.54c-15.44 1.02-30.56 2.56-45.37 4.61 0-15.84 1.54-29.48 4.61-40.93s7.15-21.39 12.22-29.82 10.85-15.61 17.35-21.53c6.49-5.92 13.13-11.28 19.91-16.06 6.78-4.79 13.42-9.29 19.91-13.5s12.28-8.77 17.35-13.67c5.07-4.89 9.14-10.43 12.22-16.57 3.08-6.16 4.61-13.61 4.61-22.39 0-2.05-.32-4.27-.94-6.66-.63-2.39-1.68-4.64-3.16-6.75s-3.48-3.84-5.98-5.21c-2.51-1.37-5.58-2.05-9.23-2.05-3.08 0-5.78.57-8.12 1.71s-4.27 2.56-5.81 4.27-2.68 3.62-3.42 5.72c-.74 2.11-1.11 4.13-1.11 6.07 0 1.82.37 3.56 1.11 5.21s1.74 3.11 2.99 4.36c1.25 1.26 2.65 2.25 4.19 2.99s3.1 1.11 4.7 1.11c1.71 0 3.76-.34 6.15-1.02-1.94 3.65-4.53 6.92-7.78 9.83-3.25 2.9-6.89 5.32-10.94 7.26-4.04 1.94-8.37 3.42-12.99 4.44-4.61 1.03-9.31 1.54-14.1 1.54-6.15 0-11.94-.85-17.35-2.56s-10.14-4.3-14.18-7.78c-4.04-3.47-7.21-7.8-9.48-12.99-2.28-5.18-3.42-11.3-3.42-18.37 0-9.45 1.79-18.63 5.38-27.51 3.59-8.89 9.03-16.8 16.32-23.76 7.29-6.95 16.41-12.5 27.34-16.66s23.75-6.24 38.45-6.24c16.75 0 31.3 2.39 43.67 7.18 12.36 4.79 22.61 11.39 30.76 19.82 8.14 8.43 14.24 18.4 18.29 29.91 4.04 11.51 6.07 23.93 6.07 37.26 0 9.46-1.2 17.66-3.59 24.61s-5.64 12.99-9.74 18.12c-4.1 5.12-8.86 9.57-14.27 13.33s-11.17 7.21-17.26 10.34c-6.1 3.13-12.33 6.12-18.71 8.97s-12.56 5.95-18.54 9.31-11.59 7.15-16.83 11.37c-5.24 4.21-9.74 9.29-13.5 15.21z" fill="#fff"/></g></g></svg>