<svg id="Layer_2" height="512" viewBox="0 0 512 512" width="512" xmlns="http://www.w3.org/2000/svg" xmlns:xlink="http://www.w3.org/1999/xlink" data-name="Layer 2"><linearGradient id="linear-gradient" gradientUnits="userSpaceOnUse" x1="43.93" x2="468.07" y1="43.93" y2="468.07"><stop offset="0" stop-color="#64b5f6"/><stop offset="1" stop-color="#1976d2"/></linearGradient><linearGradient id="linear-gradient-2" gradientUnits="userSpaceOnUse" x1="144.11" x2="476.78" y1="126.68" y2="459.35"><stop offset="0" stop-opacity=".35"/><stop offset="1" stop-opacity="0"/></linearGradient><g id="Icon"><g id="_65" data-name="65"><rect id="Background" fill="url(#linear-gradient)" height="512" rx="150" width="512"/><path d="m512 203.45v158.55c0 82.84-67.16 150-150 150h-123.7l-147.63-147.64-11.2-71.38 47.74-149.41h98.07l76.03 76.03v-45.22l134.65-46.98z" fill="url(#linear-gradient-2)"/><path d="m246.09 268.73c-2.39-8.09-5.67-15.15-9.83-21.19s-9.06-11.19-14.7-15.46-11.65-7.72-18.03-10.34-13.02-4.53-19.91-5.73-13.7-1.79-20.42-1.79c-3.31 0-6.47.32-9.49.94s-5.81 1.39-8.37 2.3-4.81 1.96-6.75 3.16-3.42 2.3-4.44 3.33c0-5.47.34-11.11 1.03-16.92.68-5.81 2.08-11.11 4.19-15.89 2.11-4.79 5.07-8.74 8.89-11.88 3.82-3.13 8.8-4.7 14.95-4.7 3.87 0 6.72.86 8.54 2.56 1.82 1.71 2.73 3.42 2.73 5.13 0 1.82-.54 3.45-1.62 4.87-1.08 1.43-2.76 2.14-5.04 2.14-1.03 0-2.14-.06-3.33-.17s-2.42-.29-3.67-.52c4.79 7.86 10.31 13.56 16.58 17.09 6.26 3.53 12.76 5.3 19.48 5.3 5.24 0 10.34-1 15.29-2.99 4.96-1.99 9.34-4.73 13.16-8.2s6.86-7.57 9.14-12.3 3.42-9.83 3.42-15.3c0-7.29-1.88-13.93-5.64-19.91s-8.83-11.14-15.21-15.47-13.73-7.69-22.05-10.08-17.03-3.59-26.15-3.59c-15.72 0-29.28 2.17-40.67 6.5s-21.11 10.2-29.14 17.6-14.53 16.04-19.48 25.89c-4.96 9.86-8.8 20.31-11.54 31.36-2.73 11.05-4.59 22.42-5.55 34.09-.97 11.68-1.45 23.05-1.45 34.1 0 19.25 2.16 36.12 6.49 50.59s10.54 26.52 18.63 36.14c8.09 9.63 17.97 16.86 29.65 21.7s24.81 7.26 39.39 7.26c13.78 0 26.46-1.96 38.02-5.89s21.53-9.77 29.91-17.52c8.37-7.75 14.9-17.34 19.57-28.79s7.01-24.7 7.01-39.73c0-10.37-1.2-19.59-3.59-27.69zm-72.29 41.7c-.91 3.99-2.25 7.46-4.02 10.43-1.77 2.96-3.93 5.3-6.49 7.01s-5.5 2.56-8.8 2.56-6.24-.91-8.8-2.73-4.76-4.21-6.58-7.18c-1.82-2.96-3.19-6.41-4.1-10.34s-1.31-8.06-1.2-12.39c.23-9.68 2.28-17.29 6.15-22.82 3.87-5.52 8.72-8.29 14.53-8.29 7.18 0 12.42 2.77 15.72 8.29 3.3 5.53 4.96 13.13 4.96 22.82 0 4.44-.46 8.66-1.37 12.64zm163.12-6.92c-.74 1.66-1.11 3.39-1.11 5.21 0 1.94.37 3.96 1.11 6.07s1.88 4.02 3.42 5.73 3.47 3.13 5.81 4.27c2.33 1.14 5.04 1.71 8.12 1.71 7.4 0 12.87-2.31 16.41-6.92 3.53-4.61 5.3-10.68 5.3-18.2 0-6.61-1.65-12.45-4.96-17.52s-7.63-9.34-12.99-12.82c-5.36-3.47-11.45-6.21-18.29-8.2s-13.76-3.3-20.76-3.93c-7.01-.62-13.87-.57-20.59.17s-12.59 2.08-17.6 4.02c0-.34-.03-2.22-.09-5.64s-.14-7.83-.26-13.25c-.12-5.41-.29-11.59-.51-18.54-.23-6.95-.54-14.15-.94-21.62-.4-7.46-.88-14.98-1.45-22.56-.57-7.57-1.28-14.7-2.14-21.36s-1.82-12.64-2.91-17.95c-1.08-5.3-2.37-9.43-3.84-12.39 10.94 2.28 22.05 3.91 33.33 4.87 11.28.97 22.44 1.45 33.5 1.45 12.65 0 24.98-.43 37-1.28 12.02-.86 22.76-1.85 32.21-2.99 11.05-1.25 21.47-2.73 31.27-4.45v90.58c-6.15-5.24-12.45-9.66-18.88-13.25-6.44-3.59-12.76-6.46-18.97-8.63-6.21-2.16-12.16-3.73-17.86-4.7-5.7-.96-10.83-1.45-15.38-1.45h-17.26l-1.37 15.38c3.42.11 8.4.46 14.95 1.02 6.55.57 13.7 1.88 21.45 3.93s15.66 5.04 23.75 8.97 15.44 9.34 22.05 16.23 12.02 15.5 16.24 25.8c4.21 10.31 6.32 22.82 6.32 37.51 0 13.56-2.02 25.89-6.07 37-4.04 11.11-10.14 20.59-18.29 28.46-8.15 7.86-18.4 13.93-30.76 18.2s-26.92 6.41-43.67 6.41c-14.7 0-27.51-2.08-38.45-6.24s-20.05-9.71-27.34-16.66-12.73-14.89-16.32-23.84c-3.59-8.94-5.38-18.14-5.38-27.6 0-6.95 1.14-13.02 3.42-18.2s5.44-9.51 9.48-12.99c4.04-3.47 8.77-6.07 14.18-7.78s11.19-2.56 17.35-2.56c4.79 0 9.49.51 14.1 1.54 4.62 1.02 8.94 2.54 12.99 4.53 4.04 2 7.69 4.42 10.94 7.27s5.84 6.09 7.78 9.74c-2.39-.68-4.44-1.02-6.15-1.02-1.6 0-3.16.37-4.7 1.11s-2.93 1.74-4.19 2.99c-1.25 1.25-2.25 2.71-2.99 4.36z" fill="#fff"/></g></g></svg>