<svg id="Layer_2" height="512" viewBox="0 0 512 512" width="512" xmlns="http://www.w3.org/2000/svg" xmlns:xlink="http://www.w3.org/1999/xlink" data-name="Layer 2"><linearGradient id="linear-gradient" gradientUnits="userSpaceOnUse" x1="43.93" x2="468.07" y1="43.93" y2="468.07"><stop offset="0" stop-color="#64b5f6"/><stop offset="1" stop-color="#1976d2"/></linearGradient><linearGradient id="linear-gradient-2" gradientUnits="userSpaceOnUse" x1="153.29" x2="479.56" y1="130.3" y2="456.57"><stop offset="0" stop-opacity=".35"/><stop offset="1" stop-opacity="0"/></linearGradient><g id="Icon"><g id="_67" data-name="67"><rect id="Background" fill="url(#linear-gradient)" height="512" rx="150" width="512"/><path d="m512 200.19v161.81c0 82.84-67.16 150-150 150h-115.84l-147.53-147.53-2.76-110.43 43.85-110.17h93.72l50.93 50.93 158.51-63.73z" fill="url(#linear-gradient-2)"/><path d="m254.21 268.99c-2.39-8.09-5.67-15.15-9.83-21.19s-9.06-11.19-14.7-15.46-11.65-7.72-18.03-10.34-13.02-4.53-19.91-5.73-13.7-1.79-20.42-1.79c-3.31 0-6.47.32-9.49.94s-5.81 1.39-8.37 2.3-4.81 1.96-6.75 3.16-3.42 2.3-4.44 3.33c0-5.47.34-11.11 1.03-16.92.68-5.81 2.08-11.11 4.19-15.89 2.11-4.79 5.07-8.74 8.89-11.88 3.82-3.13 8.8-4.7 14.95-4.7 3.87 0 6.72.86 8.54 2.56 1.82 1.71 2.73 3.42 2.73 5.13 0 1.82-.54 3.45-1.62 4.87-1.08 1.43-2.76 2.14-5.04 2.14-1.03 0-2.14-.06-3.33-.17s-2.42-.29-3.67-.52c4.79 7.86 10.31 13.56 16.58 17.09 6.26 3.53 12.76 5.3 19.48 5.3 5.24 0 10.34-1 15.29-2.99 4.96-1.99 9.34-4.73 13.16-8.2s6.86-7.57 9.14-12.3 3.42-9.83 3.42-15.3c0-7.29-1.88-13.93-5.64-19.91s-8.83-11.14-15.21-15.47-13.73-7.69-22.05-10.08-17.03-3.59-26.15-3.59c-15.72 0-29.28 2.17-40.67 6.5s-21.11 10.2-29.14 17.6-14.53 16.04-19.48 25.89c-4.96 9.86-8.8 20.31-11.54 31.36-2.73 11.05-4.59 22.42-5.55 34.09-.97 11.68-1.45 23.05-1.45 34.1 0 19.25 2.16 36.12 6.49 50.59s10.54 26.52 18.63 36.14c8.09 9.63 17.97 16.86 29.65 21.7s24.81 7.26 39.39 7.26c13.78 0 26.46-1.96 38.02-5.89s21.53-9.77 29.91-17.52c8.37-7.75 14.9-17.34 19.57-28.79s7.01-24.7 7.01-39.73c0-10.37-1.2-19.59-3.59-27.69zm-72.29 41.7c-.91 3.99-2.25 7.46-4.02 10.43-1.77 2.96-3.93 5.3-6.49 7.01s-5.5 2.56-8.8 2.56-6.24-.91-8.8-2.73-4.76-4.21-6.58-7.18c-1.82-2.96-3.19-6.41-4.1-10.34s-1.31-8.06-1.2-12.39c.23-9.68 2.28-17.29 6.15-22.82 3.87-5.52 8.72-8.29 14.53-8.29 7.18 0 12.42 2.77 15.72 8.29 3.3 5.53 4.96 13.13 4.96 22.82 0 4.44-.46 8.66-1.37 12.64zm218.58-174.57c14.92-1.08 29.05-2.76 42.38-5.04-5.58 12.88-10.65 25.49-15.21 37.86-4.56 12.36-8.72 24.78-12.48 37.25s-7.15 25.15-10.17 38.03-5.78 26.26-8.29 40.16-4.79 28.48-6.84 43.75-3.99 31.5-5.81 48.71c-2.85-.23-6.04-.46-9.57-.69-2.96-.23-6.44-.39-10.42-.51-3.99-.11-8.37-.17-13.16-.17s-9.17.08-13.84.25-9.63.49-14.87.94c-5.24.46-10.85 1.05-16.83 1.79s-12.62 1.68-19.91 2.82c5.35-8.54 10.57-18.2 15.64-28.97s9.8-21.98 14.18-33.66 8.46-23.5 12.22-35.46 7.06-23.41 9.91-34.35 5.21-21.05 7.09-30.34 3.16-17.06 3.84-23.33c-6.49.12-13.16.4-20 .86s-13.65 1.31-20.42 2.56c-6.78 1.26-13.36 2.96-19.74 5.13-6.38 2.16-12.3 5.02-17.77 8.54.34-1.02.62-2.62.85-4.79.23-2.16.45-4.61.68-7.35.23-2.73.37-5.58.43-8.55.06-2.96.14-5.78.26-8.46.11-2.68.17-5.1.17-7.26v-4.79c0-7.06-.23-14.07-.68-21.02-.46-6.95-1.03-13.95-1.71-21.02 12.65 2.73 26.23 4.79 40.76 6.15 14.53 1.37 29.31 2.14 44.35 2.31s30.02-.29 44.95-1.37z" fill="#fff"/></g></g></svg>