<svg id="Layer_2" height="512" viewBox="0 0 512 512" width="512" xmlns="http://www.w3.org/2000/svg" xmlns:xlink="http://www.w3.org/1999/xlink" data-name="Layer 2"><linearGradient id="linear-gradient" gradientUnits="userSpaceOnUse" x1="43.93" x2="468.07" y1="43.93" y2="468.07"><stop offset="0" stop-color="#64b5f6"/><stop offset="1" stop-color="#1976d2"/></linearGradient><linearGradient id="linear-gradient-2" gradientUnits="userSpaceOnUse" x1="188.07" x2="471.31" y1="181.57" y2="464.82"><stop offset="0" stop-opacity=".35"/><stop offset="1" stop-opacity="0"/></linearGradient><g id="Icon"><g id="_7" data-name="7"><rect id="Background" fill="url(#linear-gradient)" height="512" rx="150" width="512"/><path d="m512 301.71v60.29c0 82.84-67.16 150-150 150h-47.3l-129.88-129.88 76.38-77.6-91.42-91.42 17.43-30.67 155.01-50.5z" fill="url(#linear-gradient-2)"/><path d="m172 183.97c-.12 2.68-.2 5.5-.26 8.46s-.2 5.81-.43 8.54-.46 5.19-.68 7.35c-.23 2.17-.51 3.76-.85 4.79 5.47-3.53 11.39-6.38 17.77-8.54s12.96-3.87 19.74-5.13c6.78-1.25 13.59-2.11 20.42-2.56 6.84-.45 13.5-.74 20-.85-.68 6.27-1.97 14.04-3.85 23.33s-4.25 19.4-7.09 30.33c-2.85 10.94-6.15 22.39-9.91 34.35s-7.83 23.78-12.22 35.46-9.12 22.9-14.18 33.67c-5.07 10.77-10.28 20.42-15.64 28.97 7.29-1.14 13.93-2.08 19.91-2.82s11.59-1.34 16.83-1.79 10.2-.77 14.87-.94 9.28-.26 13.84-.26c4.79 0 9.17.06 13.16.17 3.99.12 7.46.29 10.42.51 3.53.23 6.72.46 9.57.68 1.82-17.2 3.76-33.44 5.81-48.71s4.33-29.85 6.84-43.75c2.5-13.9 5.27-27.29 8.29-40.16s6.41-25.55 10.17-38.03c3.76-12.47 7.92-24.89 12.48-37.26 4.56-12.36 9.63-24.98 15.21-37.85-13.33 2.28-27.46 3.96-42.38 5.04-14.93 1.08-29.91 1.54-44.95 1.37s-29.82-.94-44.35-2.31-28.11-3.42-40.76-6.15c.68 7.07 1.25 14.07 1.71 21.02.45 6.95.68 13.96.68 21.02v4.79c0 2.17-.06 4.59-.17 7.26z" fill="#fff"/></g></g></svg>