<svg id="Layer_2" height="512" viewBox="0 0 512 512" width="512" xmlns="http://www.w3.org/2000/svg" xmlns:xlink="http://www.w3.org/1999/xlink" data-name="Layer 2"><linearGradient id="linear-gradient" gradientUnits="userSpaceOnUse" x1="43.93" x2="468.07" y1="43.93" y2="468.07"><stop offset="0" stop-color="#64b5f6"/><stop offset="1" stop-color="#1976d2"/></linearGradient><linearGradient id="linear-gradient-2" gradientUnits="userSpaceOnUse" x1="117.17" x2="457.86" y1="137.57" y2="478.27"><stop offset="0" stop-opacity=".35"/><stop offset="1" stop-opacity="0"/></linearGradient><g id="Icon"><g id="_70" data-name="70"><rect id="Background" fill="url(#linear-gradient)" height="512" rx="150" width="512"/><path d="m512 255.45v106.55c0 82.84-67.16 150-150 150h-147.36l-129.71-129.71 82.2-71.78-97.24-97.23 18.51-46.94h89.62l64.31-34.24 55.56 55.56 108.81-37.51z" fill="url(#linear-gradient-2)"/><path d="m72.28 176.88v-4.79c0-7.06-.23-14.07-.68-21.02-.46-6.95-1.03-13.95-1.71-21.02 12.65 2.73 26.23 4.79 40.76 6.15s29.31 2.14 44.35 2.31 30.02-.29 44.95-1.37c14.92-1.08 29.05-2.76 42.38-5.04-5.58 12.88-10.65 25.49-15.21 37.86-4.56 12.36-8.72 24.78-12.48 37.25s-7.15 25.15-10.17 38.03-5.78 26.26-8.29 40.16-4.79 28.48-6.84 43.75-3.99 31.5-5.81 48.71c-2.85-.23-6.04-.46-9.57-.69-2.96-.23-6.44-.39-10.42-.51-3.99-.11-8.37-.17-13.16-.17s-9.17.08-13.84.25-9.63.49-14.87.94c-5.24.46-10.85 1.05-16.83 1.79s-12.62 1.68-19.91 2.82c5.35-8.54 10.57-18.2 15.64-28.97s9.8-21.98 14.18-33.66 8.46-23.5 12.22-35.46 7.06-23.41 9.91-34.35 5.21-21.05 7.09-30.34 3.16-17.06 3.85-23.33c-6.49.12-13.16.4-20 .86s-13.65 1.31-20.42 2.56c-6.78 1.26-13.36 2.96-19.74 5.13-6.38 2.16-12.3 5.02-17.77 8.54.34-1.02.62-2.62.85-4.79.23-2.16.45-4.61.68-7.35.23-2.73.37-5.58.43-8.55.06-2.96.14-5.78.26-8.46.11-2.68.17-5.1.17-7.26zm367.35 114.24c-1.65 10.09-4.16 19.77-7.52 29.05-3.36 9.29-7.69 17.95-12.99 25.98s-11.56 15.01-18.8 20.93c-7.24 5.93-15.52 10.6-24.87 14.02-9.34 3.42-19.77 5.12-31.27 5.12s-21.88-1.54-31.1-4.61-17.49-7.38-24.78-12.9-13.56-12.16-18.8-19.91-9.57-16.26-12.99-25.55c-3.42-9.28-5.96-19.2-7.61-29.73-1.65-10.54-2.48-21.39-2.48-32.56 0-20.16 2.53-38.54 7.6-55.11 5.07-16.58 12.02-30.79 20.85-42.64s19.2-21.05 31.1-27.6 24.64-9.83 38.2-9.83c15.15 0 28.77 2.96 40.84 8.89 12.08 5.93 22.33 14.61 30.76 26.06s14.92 25.58 19.48 42.38c4.56 16.81 6.84 36.09 6.84 57.85 0 10.03-.83 20.08-2.48 30.16zm-66.74-37.85c0-9.8-.71-18.57-2.14-26.32s-3.42-14.32-5.98-19.74c-2.56-5.41-5.7-9.54-9.4-12.39-3.7-2.84-7.83-4.27-12.39-4.27s-8.29 1.79-11.88 5.38-6.67 8.32-9.23 14.18c-2.56 5.87-4.59 12.56-6.07 20.08s-2.22 15.21-2.22 23.07c0 9.12.6 17.38 1.79 24.78s2.99 13.73 5.38 18.97 5.44 9.29 9.14 12.13c3.7 2.85 8.06 4.27 13.07 4.27s9.54-1.39 13.24-4.19c3.7-2.79 6.81-6.78 9.31-11.96s4.36-11.5 5.55-18.97c1.2-7.46 1.79-15.81 1.79-25.04z" fill="#fff"/></g></g></svg>