<svg id="Layer_2" height="512" viewBox="0 0 512 512" width="512" xmlns="http://www.w3.org/2000/svg" xmlns:xlink="http://www.w3.org/1999/xlink" data-name="Layer 2"><linearGradient id="linear-gradient" gradientUnits="userSpaceOnUse" x1="43.93" x2="468.07" y1="43.93" y2="468.07"><stop offset="0" stop-color="#64b5f6"/><stop offset="1" stop-color="#1976d2"/></linearGradient><linearGradient id="linear-gradient-2" gradientUnits="userSpaceOnUse" x1="154.64" x2="469.22" y1="152.32" y2="466.91"><stop offset="0" stop-opacity=".35"/><stop offset="1" stop-opacity="0"/></linearGradient><g id="Icon"><g id="_71" data-name="71"><rect id="Background" fill="url(#linear-gradient)" height="512" rx="150" width="512"/><path d="m512 242.15v119.85c0 82.84-67.16 150-150 150h-115.23l-129.54-129.54 77.45-76.52-92.49-92.49 7.66-16.34 164.78-64.84 39.49 39.49 88.34-39.15z" fill="url(#linear-gradient-2)"/><path d="m104.58 177.05v-4.79c0-7.06-.23-14.07-.68-21.02-.46-6.95-1.03-13.95-1.71-21.02 12.65 2.73 26.23 4.79 40.76 6.15s29.31 2.14 44.35 2.31 30.02-.29 44.95-1.37c14.92-1.08 29.05-2.76 42.38-5.04-5.58 12.88-10.65 25.49-15.21 37.86-4.56 12.36-8.72 24.78-12.48 37.25s-7.15 25.15-10.17 38.03-5.78 26.26-8.29 40.16-4.79 28.48-6.84 43.75-3.99 31.5-5.81 48.71c-2.85-.23-6.04-.46-9.57-.69-2.96-.23-6.44-.39-10.42-.51-3.99-.11-8.37-.17-13.16-.17s-9.17.08-13.84.25-9.63.49-14.87.94c-5.24.46-10.85 1.05-16.83 1.79s-12.62 1.68-19.91 2.82c5.35-8.54 10.57-18.2 15.64-28.97s9.8-21.98 14.18-33.66 8.46-23.5 12.22-35.46 7.06-23.41 9.91-34.35 5.21-21.05 7.09-30.34 3.16-17.06 3.85-23.33c-6.49.12-13.16.4-20 .86s-13.65 1.31-20.42 2.56c-6.78 1.26-13.36 2.96-19.74 5.13-6.38 2.16-12.3 5.02-17.77 8.54.34-1.02.62-2.62.85-4.79.23-2.16.45-4.61.68-7.35.23-2.73.37-5.58.43-8.55.06-2.96.14-5.78.26-8.46.11-2.68.17-5.1.17-7.26zm291.55 1.79c.8-8.83 1.71-17.14 2.73-24.95 1.03-7.8 2.22-14.89 3.59-21.28-2.51.34-5.41.69-8.72 1.03-2.85.23-6.32.46-10.42.68-4.1.23-8.72.34-13.84.34-7.75 0-16.44-.34-26.06-1.03-9.63-.68-20.2-2.05-31.7-4.1-.91 3.88-2.14 8.32-3.67 13.33-1.54 5.01-3.82 10.54-6.84 16.57-3.02 6.04-7.04 12.48-12.05 19.31-5.01 6.84-11.45 13.96-19.31 21.36 5.47.46 11.16 1.08 17.09 1.88 5.13.68 10.79 1.54 17 2.56 6.21 1.03 12.45 2.17 18.71 3.42.23 5.81.43 11.31.6 16.49.17 5.19.31 9.77.43 13.76.11 3.99.2 7.21.26 9.66s.09 3.84.09 4.19c0 2.16-.03 6.15-.09 11.96s-.26 12.71-.6 20.68c-.34 7.98-.85 16.58-1.54 25.8-.68 9.23-1.62 18.32-2.82 27.26-1.2 8.95-2.71 17.35-4.53 25.21s-3.99 14.35-6.49 19.48c14.24-2.28 27.46-3.82 39.65-4.61 12.19-.8 22.9-1.2 32.13-1.2 4.79 0 9 .06 12.65.17 3.64.12 6.78.29 9.4.51 2.96.23 5.64.46 8.03.69-2.96-10.6-5.44-21.71-7.43-33.33s-3.65-23.47-4.96-35.55c-1.31-12.07-2.25-24.24-2.82-36.48-.57-12.25-.85-24.3-.85-36.15 0-10.25.2-20.22.6-29.91.4-9.68 1-18.94 1.79-27.77z" fill="#fff"/></g></g></svg>