<svg id="Layer_2" height="512" viewBox="0 0 512 512" width="512" xmlns="http://www.w3.org/2000/svg" xmlns:xlink="http://www.w3.org/1999/xlink" data-name="Layer 2"><linearGradient id="linear-gradient" gradientUnits="userSpaceOnUse" x1="43.93" x2="468.07" y1="43.93" y2="468.07"><stop offset="0" stop-color="#64b5f6"/><stop offset="1" stop-color="#1976d2"/></linearGradient><linearGradient id="linear-gradient-2" gradientUnits="userSpaceOnUse" x1="128.54" x2="458.99" y1="146.69" y2="477.14"><stop offset="0" stop-opacity=".35"/><stop offset="1" stop-opacity="0"/></linearGradient><g id="Icon"><g id="_72" data-name="72"><rect id="Background" fill="url(#linear-gradient)" height="512" rx="150" width="512"/><path d="m512 252.72v109.28c0 82.84-67.16 150-150 150h-145.57l-127.23-127.23 79.02-74.97-94.06-94.05 16.73-31.41 155.71-49.76 34.83 34.82 131.12-16.12z" fill="url(#linear-gradient-2)"/><path d="m76.56 179.35v-4.79c0-7.06-.23-14.07-.68-21.02-.46-6.95-1.03-13.95-1.71-21.02 12.65 2.73 26.23 4.79 40.76 6.15s29.31 2.14 44.35 2.31 30.02-.29 44.95-1.37c14.92-1.08 29.05-2.76 42.38-5.04-5.58 12.88-10.65 25.49-15.21 37.86-4.56 12.36-8.72 24.78-12.48 37.25s-7.15 25.15-10.17 38.03-5.78 26.26-8.29 40.16-4.79 28.48-6.84 43.75-3.99 31.5-5.81 48.71c-2.85-.23-6.04-.46-9.57-.69-2.96-.23-6.44-.39-10.42-.51-3.99-.11-8.37-.17-13.16-.17s-9.17.08-13.84.25-9.63.49-14.87.94c-5.24.46-10.85 1.05-16.83 1.79s-12.62 1.68-19.91 2.82c5.35-8.54 10.57-18.2 15.64-28.97s9.8-21.98 14.18-33.66 8.46-23.5 12.22-35.46 7.06-23.41 9.91-34.35 5.21-21.05 7.09-30.34 3.16-17.06 3.85-23.33c-6.49.12-13.16.4-20 .86s-13.65 1.31-20.42 2.56c-6.78 1.26-13.36 2.96-19.74 5.13-6.38 2.16-12.3 5.02-17.77 8.54.34-1.02.62-2.62.85-4.79.23-2.16.45-4.61.68-7.35.23-2.73.37-5.58.43-8.55.06-2.96.14-5.78.26-8.46.11-2.68.17-5.1.17-7.26zm262.33 138.09c5.24-4.21 10.85-8 16.83-11.37 5.98-3.36 12.16-6.46 18.54-9.31s12.62-5.84 18.71-8.97 11.85-6.58 17.26-10.34 10.17-8.2 14.27-13.33 7.35-11.17 9.74-18.12 3.59-15.15 3.59-24.61c0-13.33-2.02-25.75-6.07-37.26-4.04-11.5-10.14-21.47-18.29-29.91-8.15-8.43-18.4-15.04-30.76-19.82-12.36-4.79-26.92-7.18-43.67-7.18-14.7 0-27.51 2.08-38.45 6.24s-20.05 9.71-27.34 16.66-12.73 14.87-16.32 23.76c-3.59 8.88-5.38 18.06-5.38 27.51 0 7.07 1.14 13.19 3.42 18.37 2.28 5.19 5.44 9.52 9.48 12.99 4.04 3.48 8.77 6.07 14.18 7.78s11.19 2.56 17.35 2.56c4.79 0 9.48-.51 14.1-1.54 4.61-1.02 8.94-2.5 12.99-4.44 4.04-1.94 7.69-4.36 10.94-7.26 3.25-2.91 5.84-6.18 7.78-9.83-2.39.68-4.44 1.02-6.15 1.02-1.6 0-3.16-.37-4.7-1.11s-2.93-1.73-4.19-2.99c-1.25-1.25-2.25-2.7-2.99-4.36-.74-1.65-1.11-3.39-1.11-5.21 0-1.93.37-3.96 1.11-6.07s1.88-4.02 3.42-5.72c1.54-1.71 3.47-3.13 5.81-4.27 2.33-1.14 5.04-1.71 8.12-1.71 3.64 0 6.72.69 9.23 2.05 2.5 1.37 4.5 3.11 5.98 5.21 1.48 2.11 2.53 4.36 3.16 6.75.62 2.39.94 4.61.94 6.66 0 8.78-1.54 16.23-4.61 22.39-3.08 6.15-7.15 11.68-12.22 16.57-5.07 4.9-10.85 9.46-17.35 13.67-6.49 4.22-13.13 8.71-19.91 13.5-6.78 4.78-13.42 10.14-19.91 16.06-6.49 5.93-12.28 13.1-17.35 21.53s-9.14 18.38-12.22 29.82-4.61 25.09-4.61 40.93c14.81-2.05 29.93-3.59 45.37-4.61 15.44-1.03 31.13-1.54 47.08-1.54s31.04.51 46.31 1.54c15.27 1.02 30.02 2.56 44.26 4.61-2.05-9.23-3.56-18.54-4.53-27.94s-1.45-18.82-1.45-28.29c0-5.81.17-11.65.51-17.52s.91-11.82 1.71-17.86c-12.19 10.94-27.17 19.86-44.95 26.75-17.77 6.89-38.17 11.14-61.18 12.73 3.76-5.92 8.26-10.99 13.5-15.21z" fill="#fff"/></g></g></svg>