<svg id="Layer_2" height="512" viewBox="0 0 512 512" width="512" xmlns="http://www.w3.org/2000/svg" xmlns:xlink="http://www.w3.org/1999/xlink" data-name="Layer 2"><linearGradient id="linear-gradient" gradientUnits="userSpaceOnUse" x1="43.93" x2="468.07" y1="43.93" y2="468.07"><stop offset="0" stop-color="#64b5f6"/><stop offset="1" stop-color="#1976d2"/></linearGradient><linearGradient id="linear-gradient-2" gradientUnits="userSpaceOnUse" x1="131.84" x2="461.62" y1="144.72" y2="474.5"><stop offset="0" stop-opacity=".35"/><stop offset="1" stop-opacity="0"/></linearGradient><g id="Icon"><g id="_73" data-name="73"><rect id="Background" fill="url(#linear-gradient)" height="512" rx="150" width="512"/><path d="m512 245.78v116.22c0 82.84-67.16 150-150 150h-141.98l-131.16-131.16 73.3-80.68-88.34-88.34 19.56-28.63 152.88-52.55 42.04 42.04 128.27-22.33z" fill="url(#linear-gradient-2)"/><path d="m76.21 175.42v-4.79c0-7.06-.23-14.07-.68-21.02-.46-6.95-1.03-13.95-1.71-21.02 12.65 2.73 26.23 4.79 40.76 6.15s29.31 2.14 44.35 2.31 30.02-.29 44.95-1.37c14.92-1.08 29.05-2.76 42.38-5.04-5.58 12.88-10.65 25.49-15.21 37.86-4.56 12.36-8.72 24.78-12.48 37.25s-7.15 25.15-10.17 38.03-5.78 26.26-8.29 40.16-4.79 28.48-6.84 43.75-3.99 31.5-5.81 48.71c-2.85-.23-6.04-.46-9.57-.69-2.96-.23-6.44-.39-10.42-.51-3.99-.11-8.37-.17-13.16-.17s-9.17.08-13.84.25-9.63.49-14.87.94c-5.24.46-10.85 1.05-16.83 1.79s-12.62 1.68-19.91 2.82c5.35-8.54 10.57-18.2 15.64-28.97s9.8-21.98 14.18-33.66 8.46-23.5 12.22-35.46 7.06-23.41 9.91-34.35 5.21-21.05 7.09-30.34 3.16-17.06 3.85-23.33c-6.49.12-13.16.4-20 .86s-13.65 1.31-20.42 2.56c-6.78 1.26-13.36 2.96-19.74 5.13-6.38 2.16-12.3 5.02-17.77 8.54.34-1.02.62-2.62.85-4.79.23-2.16.45-4.61.68-7.35.23-2.73.37-5.58.43-8.55.06-2.96.14-5.78.26-8.46.11-2.68.17-5.1.17-7.26zm348.63 64.09c3.99-4.67 7.2-10.11 9.66-16.32 2.45-6.21 3.67-13.02 3.67-20.42 0-10.14-2.02-20-6.07-29.57-4.04-9.57-10.14-18.06-18.29-25.46-8.15-7.41-18.4-13.33-30.76-17.77-12.36-4.45-26.92-6.66-43.67-6.66-14.7 0-27.51 2.08-38.45 6.24s-20.05 9.71-27.34 16.66-12.73 14.87-16.32 23.76c-3.59 8.88-5.38 18.06-5.38 27.51 0 7.07 1.14 13.19 3.42 18.37 2.28 5.19 5.44 9.52 9.48 12.99 4.04 3.48 8.77 6.07 14.18 7.78s11.19 2.56 17.35 2.56c4.79 0 9.48-.51 14.1-1.54 4.61-1.02 8.94-2.5 12.99-4.44 4.04-1.94 7.69-4.36 10.94-7.26 3.25-2.91 5.84-6.18 7.78-9.83-2.39.68-4.44 1.02-6.15 1.02-1.6 0-3.16-.37-4.7-1.11s-2.93-1.73-4.19-2.99c-1.25-1.25-2.25-2.7-2.99-4.36-.74-1.65-1.11-3.39-1.11-5.21 0-1.93.37-3.96 1.11-6.07s1.88-4.02 3.42-5.72c1.54-1.71 3.47-3.13 5.81-4.27 2.33-1.14 5.04-1.71 8.12-1.71 3.64 0 6.72.69 9.23 2.05 2.5 1.37 4.5 3.11 5.98 5.21 1.48 2.11 2.53 4.36 3.16 6.75.62 2.39.94 4.61.94 6.66 0 8.43-1 15.44-2.99 21.02-2 5.58-4.93 10.2-8.8 13.84-3.88 3.65-8.63 6.67-14.27 9.06s-12.11 4.61-19.4 6.66c3.87 1.94 8.4 3.99 13.59 6.15 5.18 2.17 10.14 4.99 14.87 8.46 4.73 3.48 8.74 7.92 12.05 13.33 3.3 5.41 4.96 12.34 4.96 20.77 0 2.05-.32 4.27-.94 6.66-.63 2.39-1.68 4.61-3.16 6.67-1.48 2.05-3.48 3.79-5.98 5.21-2.51 1.43-5.58 2.14-9.23 2.14-3.08 0-5.78-.57-8.12-1.71s-4.27-2.56-5.81-4.27-2.68-3.62-3.42-5.73-1.11-4.13-1.11-6.07c0-1.82.37-3.56 1.11-5.21s1.74-3.1 2.99-4.36c1.25-1.25 2.65-2.25 4.19-2.99s3.1-1.11 4.7-1.11c1.71 0 3.76.34 6.15 1.02-1.94-3.64-4.53-6.89-7.78-9.74s-6.89-5.27-10.94-7.27c-4.04-1.99-8.37-3.5-12.99-4.53-4.61-1.03-9.31-1.54-14.1-1.54-6.15 0-11.94.86-17.35 2.56-5.41 1.71-10.14 4.3-14.18 7.78s-7.21 7.8-9.48 12.99c-2.28 5.18-3.42 11.25-3.42 18.2 0 9.46 1.79 18.66 5.38 27.6 3.59 8.95 9.03 16.89 16.32 23.84s16.41 12.5 27.34 16.66c10.94 4.16 23.75 6.24 38.45 6.24 16.75 0 31.3-1.97 43.67-5.9 12.36-3.93 22.61-9.34 30.76-16.23 8.14-6.89 14.24-15.07 18.29-24.52 4.04-9.46 6.07-19.71 6.07-30.76 0-9.11-1.2-16.78-3.59-22.99s-5.55-11.39-9.48-15.55-8.43-7.46-13.5-9.91-10.23-4.41-15.47-5.9c5.13-1.02 10.2-3.02 15.21-5.98s9.51-6.78 13.5-11.45z" fill="#fff"/></g></g></svg>