<svg id="Layer_2" height="512" viewBox="0 0 512 512" width="512" xmlns="http://www.w3.org/2000/svg" xmlns:xlink="http://www.w3.org/1999/xlink" data-name="Layer 2"><linearGradient id="linear-gradient" gradientUnits="userSpaceOnUse" x1="43.93" x2="468.07" y1="43.93" y2="468.07"><stop offset="0" stop-color="#64b5f6"/><stop offset="1" stop-color="#1976d2"/></linearGradient><linearGradient id="linear-gradient-2" gradientUnits="userSpaceOnUse" x1="144.35" x2="468.32" y1="143.84" y2="467.81"><stop offset="0" stop-opacity=".35"/><stop offset="1" stop-opacity="0"/></linearGradient><g id="Icon"><g id="_74" data-name="74"><rect id="Background" fill="url(#linear-gradient)" height="512" rx="150" width="512"/><path d="m512 222.33v139.67c0 82.84-67.16 150-150 150h-138.64l-129.88-129.88 66.77-87.2-81.81-81.82 29.62-32.97 142.81-48.2 55.85 55.84 115.22-55.5z" fill="url(#linear-gradient-2)"/><path d="m80.83 176.71v-4.79c0-7.06-.23-14.07-.68-21.02-.46-6.95-1.03-13.95-1.71-21.02 12.65 2.73 26.23 4.79 40.76 6.15s29.31 2.14 44.35 2.31 30.02-.29 44.95-1.37c14.92-1.08 29.05-2.76 42.38-5.04-5.58 12.88-10.65 25.49-15.21 37.86-4.56 12.36-8.72 24.78-12.48 37.25-3.76 12.48-7.15 25.15-10.17 38.03s-5.78 26.26-8.29 40.16-4.79 28.48-6.84 43.75-3.99 31.5-5.81 48.71c-2.85-.23-6.04-.46-9.57-.69-2.96-.23-6.44-.39-10.42-.51-3.99-.11-8.37-.17-13.16-.17s-9.17.08-13.84.25-9.63.49-14.87.94c-5.24.46-10.85 1.05-16.83 1.79s-12.62 1.68-19.91 2.82c5.35-8.54 10.57-18.2 15.64-28.97s9.8-21.98 14.18-33.66 8.46-23.5 12.22-35.46 7.06-23.41 9.91-34.35 5.21-21.05 7.09-30.34 3.16-17.06 3.85-23.33c-6.49.12-13.16.4-20 .86s-13.65 1.31-20.42 2.56c-6.78 1.26-13.36 2.96-19.74 5.13-6.38 2.16-12.3 5.02-17.77 8.54.34-1.02.62-2.62.85-4.79.23-2.16.45-4.61.68-7.35.23-2.73.37-5.58.43-8.55.06-2.96.14-5.78.26-8.46.11-2.68.17-5.1.17-7.26zm198.75 125.61c-10.83 1.02-22.5 2.79-35.03 5.3 5.7-17.54 10.99-33.78 15.89-48.71 4.9-14.92 9.34-29.28 13.33-43.07 3.99-13.78 7.4-27.4 10.25-40.84s5.07-27.46 6.67-42.04c21.99 1.94 43.86 2.76 65.62 2.48 21.76-.29 43.63-1.34 65.62-3.16-2.62 12.88-4.73 28.29-6.32 46.23-1.6 17.95-2.39 37.17-2.39 57.68v20.68c3.87-.91 7.52-1.82 10.94-2.73s6.55-2.11 9.4-3.59c-.91 5.12-1.57 10.17-1.96 15.12-.4 4.96-.6 10-.6 15.12 0 9.91.85 19.82 2.56 29.74-2.62-1.25-5.41-2.39-8.37-3.42s-5.93-1.99-8.89-2.91c1.25 12.99 2.93 25.66 5.04 38.02s4.75 24.18 7.95 35.46c-2.28-.23-4.9-.46-7.86-.69-2.62-.23-5.78-.39-9.49-.51-3.7-.11-7.95-.17-12.73-.17-9.12 0-19.8.4-32.04 1.2-12.25.8-25.49 2.33-39.73 4.61 2.05-4.21 3.87-9.46 5.47-15.72 1.59-6.27 2.99-13.02 4.19-20.25s2.16-14.79 2.91-22.64c.74-7.86 1.34-15.49 1.79-22.9-2.28.12-6.27.06-11.96-.17-5.7-.23-12.79-.23-21.28 0s-18.14.86-28.97 1.88zm41.19-41.53c2.62.23 4.96.4 7.01.52s3.93.2 5.64.25c1.71.06 3.36.12 4.96.17 1.59.06 3.3.09 5.13.09 0-2.96-.03-6.89-.08-11.79-.06-4.89-.17-10.42-.34-16.58-.17-6.15-.37-12.79-.6-19.91s-.57-14.38-1.03-21.79c-5.13 9.91-9.23 20.79-12.3 32.64-3.08 11.85-5.87 23.98-8.37 36.4z" fill="#fff"/></g></g></svg>