<svg id="Layer_2" height="512" viewBox="0 0 512 512" width="512" xmlns="http://www.w3.org/2000/svg" xmlns:xlink="http://www.w3.org/1999/xlink" data-name="Layer 2"><linearGradient id="linear-gradient" gradientUnits="userSpaceOnUse" x1="43.93" x2="468.07" y1="43.93" y2="468.07"><stop offset="0" stop-color="#64b5f6"/><stop offset="1" stop-color="#1976d2"/></linearGradient><linearGradient id="linear-gradient-2" gradientUnits="userSpaceOnUse" x1="141.59" x2="470.03" y1="137.66" y2="466.1"><stop offset="0" stop-opacity=".35"/><stop offset="1" stop-opacity="0"/></linearGradient><g id="Icon"><g id="_75" data-name="75"><rect id="Background" fill="url(#linear-gradient)" height="512" rx="150" width="512"/><path d="m512 214.29v147.71c0 82.84-67.16 150-150 150h-139.84l-133.13-133.12 82.43-71.56-97.47-97.46 28.58-33.18 143.86-48 35.18 35.18h111.65l29.71-38.6z" fill="url(#linear-gradient-2)"/><path d="m76.39 173.46v-4.79c0-7.06-.23-14.07-.68-21.02-.46-6.95-1.03-13.95-1.71-21.02 12.65 2.73 26.23 4.79 40.76 6.15s29.31 2.14 44.35 2.31 30.02-.29 44.95-1.37c14.92-1.08 29.05-2.76 42.38-5.04-5.58 12.88-10.65 25.49-15.21 37.86-4.56 12.36-8.72 24.78-12.48 37.25s-7.15 25.15-10.17 38.03-5.78 26.26-8.29 40.16-4.79 28.48-6.84 43.75-3.99 31.5-5.81 48.71c-2.85-.23-6.04-.46-9.57-.69-2.96-.23-6.44-.39-10.42-.51-3.99-.11-8.37-.17-13.16-.17s-9.17.08-13.84.25-9.63.49-14.87.94c-5.24.46-10.85 1.05-16.83 1.79s-12.62 1.68-19.91 2.82c5.35-8.54 10.57-18.2 15.64-28.97s9.8-21.98 14.18-33.66 8.46-23.5 12.22-35.46 7.06-23.41 9.91-34.35 5.21-21.05 7.09-30.34 3.16-17.06 3.85-23.33c-6.49.12-13.16.4-20 .86s-13.65 1.31-20.42 2.56c-6.78 1.26-13.36 2.96-19.74 5.13-6.38 2.16-12.3 5.02-17.77 8.54.34-1.02.62-2.62.85-4.79.23-2.16.45-4.61.68-7.35.23-2.73.37-5.58.43-8.55.06-2.96.14-5.78.26-8.46.11-2.68.17-5.1.17-7.26zm197.05 190.38c7.29 6.95 16.41 12.5 27.34 16.66 10.94 4.16 23.75 6.24 38.45 6.24 16.75 0 31.3-2.14 43.67-6.41 12.36-4.27 22.61-10.34 30.76-18.2 8.14-7.86 14.24-17.35 18.29-28.46 4.04-11.11 6.07-23.44 6.07-37 0-14.7-2.11-27.2-6.32-37.51-4.22-10.31-9.63-18.91-16.24-25.8s-13.96-12.3-22.05-16.23-16.01-6.92-23.75-8.97c-7.75-2.05-14.9-3.36-21.45-3.93s-11.54-.91-14.95-1.02l1.37-15.38h17.26c4.56 0 9.68.49 15.38 1.45 5.7.97 11.65 2.54 17.86 4.7s12.53 5.04 18.97 8.63c6.43 3.59 12.73 8 18.88 13.25v-90.6c-9.8 1.71-20.22 3.19-31.27 4.45-9.46 1.14-20.2 2.13-32.21 2.99-12.02.86-24.35 1.28-37 1.28-11.05 0-22.22-.48-33.5-1.45-11.28-.96-22.39-2.59-33.33-4.87 1.48 2.96 2.76 7.09 3.84 12.39s2.05 11.28 2.91 17.95 1.57 13.79 2.14 21.36c.57 7.58 1.05 15.1 1.45 22.56s.71 14.67.94 21.62.4 13.13.51 18.54.2 9.83.26 13.25.09 5.3.09 5.64c5.01-1.94 10.88-3.28 17.6-4.02s13.59-.79 20.59-.17 13.93 1.94 20.76 3.93c6.84 2 12.93 4.73 18.29 8.2 5.35 3.48 9.68 7.75 12.99 12.82 3.3 5.07 4.96 10.91 4.96 17.52 0 7.52-1.77 13.59-5.3 18.2s-9 6.92-16.41 6.92c-3.08 0-5.78-.57-8.12-1.71s-4.27-2.56-5.81-4.27-2.68-3.62-3.42-5.73-1.11-4.13-1.11-6.07c0-1.82.37-3.56 1.11-5.21s1.74-3.1 2.99-4.36c1.25-1.25 2.65-2.25 4.19-2.99s3.1-1.11 4.7-1.11c1.71 0 3.76.34 6.15 1.02-1.94-3.64-4.53-6.89-7.78-9.74s-6.89-5.27-10.94-7.27c-4.04-1.99-8.37-3.5-12.99-4.53-4.61-1.03-9.31-1.54-14.1-1.54-6.15 0-11.94.86-17.35 2.56-5.41 1.71-10.14 4.3-14.18 7.78s-7.21 7.8-9.48 12.99c-2.28 5.18-3.42 11.25-3.42 18.2 0 9.46 1.79 18.66 5.38 27.6 3.59 8.95 9.03 16.89 16.32 23.84z" fill="#fff"/></g></g></svg>