<svg id="Layer_2" height="512" viewBox="0 0 512 512" width="512" xmlns="http://www.w3.org/2000/svg" xmlns:xlink="http://www.w3.org/1999/xlink" data-name="Layer 2"><linearGradient id="linear-gradient" gradientUnits="userSpaceOnUse" x1="43.93" x2="468.07" y1="43.93" y2="468.07"><stop offset="0" stop-color="#64b5f6"/><stop offset="1" stop-color="#1976d2"/></linearGradient><linearGradient id="linear-gradient-2" gradientUnits="userSpaceOnUse" x1="124.44" x2="462.45" y1="135.67" y2="473.68"><stop offset="0" stop-opacity=".35"/><stop offset="1" stop-opacity="0"/></linearGradient><g id="Icon"><g id="_76" data-name="76"><rect id="Background" fill="url(#linear-gradient)" height="512" rx="150" width="512"/><path d="m512 241.27v120.73c0 82.84-67.16 150-150 150h-143.18l-130.73-130.73 72.71-81.28-87.75-87.74 26.46-51.65h93.83l52.15-29.53 43.26 43.26 125.69-30.61z" fill="url(#linear-gradient-2)"/><path d="m75.45 175.85v-4.79c0-7.06-.23-14.07-.68-21.02-.46-6.95-1.03-13.95-1.71-21.02 12.65 2.73 26.23 4.79 40.76 6.15s29.31 2.14 44.35 2.31 30.02-.29 44.95-1.37c14.92-1.08 29.05-2.76 42.38-5.04-5.58 12.88-10.65 25.49-15.21 37.86-4.56 12.36-8.72 24.78-12.48 37.25s-7.15 25.15-10.17 38.03-5.78 26.26-8.29 40.16-4.79 28.48-6.84 43.75-3.99 31.5-5.81 48.71c-2.85-.23-6.04-.46-9.57-.69-2.96-.23-6.44-.39-10.42-.51-3.99-.11-8.37-.17-13.16-.17s-9.17.08-13.84.25-9.63.49-14.87.94c-5.24.46-10.85 1.05-16.83 1.79s-12.62 1.68-19.91 2.82c5.35-8.54 10.57-18.2 15.64-28.97s9.8-21.98 14.18-33.66 8.46-23.5 12.22-35.46 7.06-23.41 9.91-34.35 5.21-21.05 7.09-30.34 3.16-17.06 3.85-23.33c-6.49.12-13.16.4-20 .86s-13.65 1.31-20.42 2.56c-6.78 1.26-13.36 2.96-19.74 5.13-6.38 2.16-12.3 5.02-17.77 8.54.34-1.02.62-2.62.85-4.79.23-2.16.45-4.61.68-7.35.23-2.73.37-5.58.43-8.55.06-2.96.14-5.78.26-8.46.11-2.68.17-5.1.17-7.26zm363.5 120.82c0 15.04-2.34 28.28-7.01 39.73s-11.19 21.05-19.57 28.79c-8.37 7.75-18.34 13.59-29.91 17.52s-24.24 5.89-38.03 5.89c-14.58 0-27.71-2.42-39.39-7.26s-21.56-12.07-29.65-21.7-14.3-21.68-18.63-36.14c-4.33-14.47-6.49-31.33-6.49-50.59 0-11.05.48-22.42 1.45-34.1s2.82-23.04 5.55-34.09 6.58-21.5 11.54-31.36c4.96-9.85 11.45-18.48 19.48-25.89s17.74-13.27 29.14-17.6c11.39-4.33 24.95-6.5 40.67-6.5 9.11 0 17.83 1.2 26.15 3.59s15.66 5.75 22.05 10.08c6.38 4.33 11.45 9.48 15.21 15.47 3.76 5.98 5.64 12.62 5.64 19.91 0 5.47-1.14 10.57-3.42 15.3s-5.33 8.83-9.14 12.3c-3.82 3.48-8.2 6.21-13.16 8.2-4.96 2-10.06 2.99-15.29 2.99-6.72 0-13.22-1.77-19.48-5.3-6.27-3.53-11.79-9.23-16.58-17.09 1.25.23 2.48.4 3.67.52 1.2.11 2.31.17 3.33.17 2.28 0 3.96-.71 5.04-2.14s1.62-3.05 1.62-4.87c0-1.71-.91-3.42-2.73-5.13s-4.67-2.56-8.54-2.56c-6.15 0-11.14 1.57-14.95 4.7-3.82 3.14-6.78 7.09-8.89 11.88s-3.5 10.08-4.19 15.89c-.68 5.81-1.03 11.45-1.03 16.92 1.03-1.03 2.5-2.14 4.44-3.33 1.94-1.2 4.19-2.25 6.75-3.16s5.35-1.68 8.37-2.3 6.18-.94 9.49-.94c6.72 0 13.53.6 20.42 1.79 6.89 1.2 13.53 3.11 19.91 5.73s12.39 6.07 18.03 10.34 10.54 9.43 14.7 15.46c4.16 6.04 7.43 13.11 9.83 21.19 2.39 8.09 3.59 17.32 3.59 27.69zm-74.51 1.37c0-9.68-1.65-17.29-4.96-22.82-3.31-5.52-8.54-8.29-15.72-8.29-5.81 0-10.65 2.77-14.53 8.29-3.88 5.53-5.93 13.13-6.15 22.82-.12 4.33.28 8.46 1.2 12.39.91 3.93 2.28 7.38 4.1 10.34s4.02 5.36 6.58 7.18 5.5 2.73 8.8 2.73 6.24-.86 8.8-2.56c2.56-1.71 4.73-4.04 6.49-7.01 1.77-2.96 3.1-6.43 4.02-10.43.91-3.98 1.37-8.2 1.37-12.64z" fill="#fff"/></g></g></svg>