<svg id="Layer_2" height="512" viewBox="0 0 512 512" width="512" xmlns="http://www.w3.org/2000/svg" xmlns:xlink="http://www.w3.org/1999/xlink" data-name="Layer 2"><linearGradient id="linear-gradient" gradientUnits="userSpaceOnUse" x1="43.93" x2="468.07" y1="43.93" y2="468.07"><stop offset="0" stop-color="#64b5f6"/><stop offset="1" stop-color="#1976d2"/></linearGradient><linearGradient id="linear-gradient-2" gradientUnits="userSpaceOnUse" x1="138.53" x2="471.31" y1="132.03" y2="464.81"><stop offset="0" stop-opacity=".35"/><stop offset="1" stop-opacity="0"/></linearGradient><g id="Icon"><g id="_77" data-name="77"><rect id="Background" fill="url(#linear-gradient)" height="512" rx="150" width="512"/><path d="m512 213.18v148.82c0 82.84-67.16 150-150 150h-135.82l-129.88-129.88 73.43-80.54-88.47-88.48 28.97-52.76h85.15l58.31-28.41 19.11 19.1h108.58l49.36-19.1z" fill="url(#linear-gradient-2)"/><path d="m83.65 176.71v-4.79c0-7.06-.23-14.07-.68-21.02-.46-6.95-1.03-13.95-1.71-21.02 12.65 2.73 26.23 4.79 40.76 6.15s29.31 2.14 44.35 2.31 30.02-.29 44.95-1.37c14.92-1.08 29.05-2.76 42.38-5.04-5.58 12.88-10.65 25.49-15.21 37.86-4.56 12.36-8.72 24.78-12.48 37.25s-7.15 25.15-10.17 38.03-5.78 26.26-8.29 40.16-4.79 28.48-6.84 43.75-3.99 31.5-5.81 48.71c-2.85-.23-6.04-.46-9.57-.69-2.96-.23-6.44-.39-10.42-.51-3.99-.11-8.37-.17-13.16-.17s-9.17.08-13.84.25-9.63.49-14.87.94c-5.24.46-10.85 1.05-16.83 1.79s-12.62 1.68-19.91 2.82c5.35-8.54 10.57-18.2 15.64-28.97s9.8-21.98 14.18-33.66 8.46-23.5 12.22-35.46 7.06-23.41 9.91-34.35 5.21-21.05 7.09-30.34 3.16-17.06 3.85-23.33c-6.49.12-13.16.4-20 .86s-13.65 1.31-20.42 2.56c-6.78 1.26-13.36 2.96-19.74 5.13-6.38 2.16-12.3 5.02-17.77 8.54.34-1.02.62-2.62.85-4.79.23-2.16.45-4.61.68-7.35.23-2.73.37-5.58.43-8.55.06-2.96.14-5.78.26-8.46.11-2.68.17-5.1.17-7.26zm241.65 72.97c-2.85 10.94-6.15 22.39-9.91 34.35s-7.83 23.79-12.22 35.46c-4.39 11.68-9.12 22.9-14.18 33.66-5.07 10.77-10.28 20.43-15.64 28.97 7.29-1.14 13.93-2.08 19.91-2.82s11.59-1.34 16.83-1.79 10.2-.77 14.87-.94 9.28-.25 13.84-.25c4.79 0 9.17.06 13.16.17 3.99.12 7.46.29 10.42.51 3.53.23 6.72.46 9.57.69 1.82-17.2 3.76-33.44 5.81-48.71s4.33-29.85 6.84-43.75c2.5-13.9 5.27-27.29 8.29-40.16 3.02-12.88 6.41-25.55 10.17-38.03s7.92-24.89 12.48-37.25 9.63-24.98 15.21-37.86c-13.33 2.28-27.46 3.96-42.38 5.04-14.93 1.08-29.91 1.54-44.95 1.37s-29.82-.94-44.35-2.31-28.11-3.42-40.76-6.15c.68 7.07 1.25 14.07 1.71 21.02.45 6.95.68 13.96.68 21.02v4.79c0 2.16-.06 4.59-.17 7.26-.12 2.68-.2 5.5-.26 8.46s-.2 5.81-.43 8.55c-.23 2.73-.46 5.19-.68 7.35-.23 2.17-.51 3.76-.85 4.79 5.47-3.53 11.39-6.38 17.77-8.54s12.96-3.87 19.74-5.13c6.78-1.25 13.59-2.11 20.42-2.56 6.84-.45 13.5-.74 20-.86-.68 6.27-1.97 14.04-3.85 23.33s-4.25 19.4-7.09 30.34z" fill="#fff"/></g></g></svg>