<svg id="Layer_2" height="512" viewBox="0 0 512 512" width="512" xmlns="http://www.w3.org/2000/svg" xmlns:xlink="http://www.w3.org/1999/xlink" data-name="Layer 2"><linearGradient id="linear-gradient" gradientUnits="userSpaceOnUse" x1="43.93" x2="468.07" y1="43.93" y2="468.07"><stop offset="0" stop-color="#64b5f6"/><stop offset="1" stop-color="#1976d2"/></linearGradient><linearGradient id="linear-gradient-2" gradientUnits="userSpaceOnUse" x1="126.41" x2="460.97" y1="140.59" y2="475.15"><stop offset="0" stop-opacity=".35"/><stop offset="1" stop-opacity="0"/></linearGradient><g id="Icon"><g id="_78" data-name="78"><rect id="Background" fill="url(#linear-gradient)" height="512" rx="150" width="512"/><path d="m512 249.16v112.84c0 82.84-67.16 150-150 150h-141.21l-131.16-131.16 72.53-81.45-87.57-87.57 22.75-42.16 84.77-4.09 64.92-34.93 43.85 43.86 118.49-27.98z" fill="url(#linear-gradient-2)"/><path d="m148.68 218.06c1.88-9.29 3.16-17.06 3.85-23.33-6.49.12-13.16.4-20 .86s-13.65 1.31-20.42 2.56c-6.78 1.26-13.36 2.96-19.74 5.13-6.38 2.16-12.3 5.02-17.77 8.54.34-1.02.62-2.62.85-4.79.23-2.16.45-4.61.68-7.35.23-2.73.37-5.58.43-8.55.06-2.96.14-5.78.26-8.46.11-2.68.17-5.1.17-7.26v-4.79c0-7.06-.23-14.07-.68-21.02-.46-6.95-1.03-13.95-1.71-21.02 12.65 2.73 26.23 4.79 40.76 6.15s29.31 2.14 44.35 2.31 30.02-.29 44.95-1.37c14.92-1.08 29.05-2.76 42.38-5.04-5.58 12.88-10.65 25.49-15.21 37.86-4.56 12.36-8.72 24.78-12.48 37.25s-7.15 25.15-10.17 38.03-5.78 26.26-8.29 40.16-4.79 28.48-6.84 43.75-3.99 31.5-5.81 48.71c-2.85-.23-6.04-.46-9.57-.69-2.96-.23-6.44-.39-10.42-.51-3.99-.11-8.37-.17-13.16-.17s-9.17.08-13.84.25-9.63.49-14.87.94c-5.24.46-10.85 1.05-16.83 1.79s-12.62 1.68-19.91 2.82c5.35-8.54 10.57-18.2 15.64-28.97s9.8-21.98 14.18-33.66 8.46-23.5 12.22-35.46 7.06-23.41 9.91-34.35 5.21-21.05 7.09-30.34zm107.92 122.96c-3.65-9.34-5.47-19.25-5.47-29.73 0-9.11 1.2-17.15 3.59-24.1s5.55-12.93 9.48-17.95c3.93-5.01 8.43-9.08 13.5-12.22 5.07-3.13 10.22-5.44 15.47-6.92-3.99-.23-8.03-2.08-12.13-5.55s-7.86-7.75-11.28-12.82-6.21-10.51-8.37-16.32c-2.17-5.81-3.25-11.16-3.25-16.07 0-9.57 1.79-18.91 5.38-28.02 3.59-9.12 8.97-17.23 16.15-24.36 7.18-7.12 16.15-12.84 26.92-17.18 10.77-4.33 23.33-6.49 37.68-6.49s27.97 2.16 38.79 6.49 19.74 10.06 26.75 17.18 12.19 15.24 15.55 24.36c3.36 9.11 5.04 18.45 5.04 28.02 0 5.36-1.11 10.91-3.33 16.66s-5.07 11.11-8.54 16.07c-3.48 4.95-7.26 9.11-11.37 12.47-4.1 3.36-8.03 5.21-11.79 5.55 5.24 1.48 10.4 3.79 15.47 6.92 5.07 3.14 9.57 7.21 13.5 12.22 3.93 5.02 7.09 11 9.48 17.95s3.59 14.98 3.59 24.1c0 10.48-1.82 20.39-5.47 29.73s-9.26 17.55-16.83 24.61c-7.58 7.07-17.23 12.68-28.97 16.84s-25.69 6.24-41.87 6.24-30.14-2.08-41.87-6.24c-11.74-4.16-21.39-9.77-28.97-16.84-7.58-7.06-13.19-15.27-16.83-24.61zm71.95-138.25c0 3.19.48 6.35 1.45 9.48s2.19 6.18 3.67 9.14 3.16 5.84 5.04 8.63 3.73 5.38 5.55 7.77c5.24-5.81 9.17-11.73 11.79-17.77s3.93-11.79 3.93-17.26c0-1.82-.26-3.9-.77-6.24s-1.37-4.56-2.56-6.67c-1.2-2.11-2.82-3.87-4.87-5.3-2.05-1.42-4.56-2.14-7.52-2.14s-5.47.71-7.52 2.14-3.67 3.19-4.87 5.3-2.05 4.33-2.56 6.67-.77 4.41-.77 6.24zm0 102.88c0 1.82.26 3.93.77 6.32s1.37 4.64 2.56 6.75c1.2 2.11 2.82 3.9 4.87 5.38s4.56 2.22 7.52 2.22 5.47-.74 7.52-2.22 3.67-3.27 4.87-5.38 2.05-4.36 2.56-6.75.77-4.5.77-6.32c0-3.19-.4-6.41-1.2-9.66s-1.91-6.32-3.33-9.23c-1.43-2.91-3.11-5.58-5.04-8.04-1.94-2.45-3.99-4.53-6.15-6.23-2.28 1.71-4.39 3.84-6.32 6.41-1.94 2.56-3.59 5.3-4.96 8.2s-2.45 5.96-3.25 9.14c-.8 3.19-1.2 6.32-1.2 9.4z" fill="#fff"/></g></g></svg>