<svg id="Layer_2" height="512" viewBox="0 0 512 512" width="512" xmlns="http://www.w3.org/2000/svg" xmlns:xlink="http://www.w3.org/1999/xlink" data-name="Layer 2"><linearGradient id="linear-gradient" gradientUnits="userSpaceOnUse" x1="43.93" x2="468.07" y1="43.93" y2="468.07"><stop offset="0" stop-color="#64b5f6"/><stop offset="1" stop-color="#1976d2"/></linearGradient><linearGradient id="linear-gradient-2" gradientUnits="userSpaceOnUse" x1="134.44" x2="460.2" y1="150.17" y2="475.93"><stop offset="0" stop-opacity=".35"/><stop offset="1" stop-opacity="0"/></linearGradient><g id="Icon"><g id="_79" data-name="79"><rect id="Background" fill="url(#linear-gradient)" height="512" rx="150" width="512"/><path d="m512 250.19v111.81c0 82.84-67.16 150-150 150h-143.26l-130.73-130.73 72.74-81.24-87.78-87.78 23.09-23.7 149.34-57.48 45.22 45.22 118.79-28.69z" fill="url(#linear-gradient-2)"/><path d="m75.36 175.85v-4.79c0-7.06-.23-14.07-.68-21.02-.46-6.95-1.03-13.95-1.71-21.02 12.65 2.73 26.23 4.79 40.76 6.15s29.31 2.14 44.35 2.31 30.02-.29 44.95-1.37c14.92-1.08 29.05-2.76 42.38-5.04-5.58 12.88-10.65 25.49-15.21 37.86-4.56 12.36-8.72 24.78-12.48 37.25s-7.15 25.15-10.17 38.03-5.78 26.26-8.29 40.16-4.79 28.48-6.84 43.75-3.99 31.5-5.81 48.71c-2.85-.23-6.04-.46-9.57-.69-2.96-.23-6.44-.39-10.42-.51-3.99-.11-8.37-.17-13.16-.17s-9.17.08-13.84.25-9.63.49-14.87.94c-5.24.46-10.85 1.05-16.83 1.79s-12.62 1.68-19.91 2.82c5.35-8.54 10.57-18.2 15.64-28.97s9.8-21.98 14.18-33.66 8.46-23.5 12.22-35.46 7.06-23.41 9.91-34.35 5.21-21.05 7.09-30.34 3.16-17.06 3.85-23.33c-6.49.12-13.16.4-20 .86s-13.65 1.31-20.42 2.56c-6.78 1.26-13.36 2.96-19.74 5.13-6.38 2.16-12.3 5.02-17.77 8.54.34-1.02.62-2.62.85-4.79.23-2.16.45-4.61.68-7.35.23-2.73.37-5.58.43-8.55.06-2.96.14-5.78.26-8.46.11-2.68.17-5.1.17-7.26zm192.6 183.8c-3.76-5.98-5.64-12.62-5.64-19.91 0-5.47 1.14-10.6 3.42-15.38 2.28-4.79 5.32-8.91 9.14-12.39 3.82-3.47 8.17-6.21 13.07-8.2s9.97-2.99 15.21-2.99c6.72 0 13.21 1.77 19.48 5.3 6.26 3.53 11.79 9.29 16.58 17.26-2.62-.57-4.96-.86-7.01-.86-2.28 0-3.96.74-5.04 2.22s-1.62 3.07-1.62 4.79c0 1.82.91 3.56 2.73 5.21s4.67 2.48 8.54 2.48c6.15 0 11.13-1.54 14.95-4.62 3.82-3.07 6.78-7.01 8.89-11.79 2.11-4.79 3.5-10.09 4.19-15.89.68-5.81 1.03-11.45 1.03-16.92-1.03 1.02-2.51 2.11-4.44 3.25-1.94 1.14-4.16 2.2-6.67 3.16-2.51.97-5.3 1.77-8.37 2.39s-6.27.94-9.57.94c-6.72 0-13.53-.6-20.42-1.79-6.89-1.2-13.53-3.13-19.91-5.81s-12.39-6.12-18.03-10.34-10.54-9.37-14.7-15.47c-4.16-6.09-7.43-13.18-9.83-21.28-2.39-8.09-3.59-17.26-3.59-27.51 0-15.04 2.33-28.31 7.01-39.82 4.67-11.51 11.19-21.13 19.57-28.88 8.37-7.75 18.34-13.59 29.91-17.52 11.56-3.93 24.24-5.9 38.03-5.9 14.58 0 27.69 2.42 39.31 7.27s21.5 12.11 29.65 21.79c8.14 9.68 14.38 21.76 18.71 36.23s6.49 31.33 6.49 50.59c0 11.05-.49 22.39-1.45 34.01-.97 11.62-2.82 22.98-5.55 34.09s-6.58 21.59-11.54 31.45-11.45 18.46-19.48 25.8c-8.03 7.35-17.75 13.19-29.14 17.52s-24.95 6.49-40.67 6.49c-9.12 0-17.83-1.2-26.15-3.59s-15.64-5.73-21.96-10-11.36-9.4-15.12-15.38zm98.27-145.52c.11-4.33-.32-8.46-1.28-12.39-.97-3.93-2.34-7.41-4.1-10.43-1.77-3.02-3.96-5.41-6.58-7.18-2.62-1.76-5.53-2.65-8.72-2.65s-6.24.86-8.8 2.57-4.73 4.04-6.49 7c-1.77 2.96-3.11 6.44-4.02 10.43s-1.37 8.2-1.37 12.65c0 9.68 1.65 17.29 4.96 22.81 3.3 5.53 8.54 8.29 15.72 8.29 2.85 0 5.52-.71 8.03-2.14 2.5-1.42 4.67-3.5 6.49-6.24 1.82-2.73 3.27-6.01 4.36-9.82 1.08-3.82 1.68-8.12 1.79-12.9z" fill="#fff"/></g></g></svg>