<svg id="Layer_2" height="512" viewBox="0 0 512 512" width="512" xmlns="http://www.w3.org/2000/svg" xmlns:xlink="http://www.w3.org/1999/xlink" data-name="Layer 2"><linearGradient id="linear-gradient" gradientUnits="userSpaceOnUse" x1="43.93" x2="468.07" y1="43.93" y2="468.07"><stop offset="0" stop-color="#64b5f6"/><stop offset="1" stop-color="#1976d2"/></linearGradient><linearGradient id="linear-gradient-2" gradientUnits="userSpaceOnUse" x1="186.81" x2="466.59" y1="189.76" y2="469.54"><stop offset="0" stop-opacity=".35"/><stop offset="1" stop-opacity="0"/></linearGradient><g id="Icon"><g id="_8" data-name="8"><rect id="Background" fill="url(#linear-gradient)" height="512" rx="150" width="512"/><path d="m512 337.42v24.58c0 82.84-67.16 150-150 150h-30.47l-146.37-146.37 22.23-106.2-18-18 40.21-94.46h91.94z" fill="url(#linear-gradient-2)"/><path d="m175.93 269.24c-3.93 5.01-7.09 11-9.48 17.94-2.39 6.95-3.59 14.98-3.59 24.1 0 10.48 1.82 20.4 5.47 29.74 3.64 9.34 9.25 17.55 16.83 24.61 7.58 7.07 17.23 12.67 28.97 16.83 11.73 4.16 25.69 6.24 41.87 6.24s30.13-2.08 41.87-6.24c11.73-4.16 21.39-9.77 28.97-16.83s13.19-15.27 16.83-24.61 5.47-19.25 5.47-29.74c0-9.11-1.2-17.15-3.59-24.1s-5.55-12.93-9.49-17.94c-3.93-5.01-8.43-9.08-13.5-12.22-5.07-3.13-10.23-5.44-15.47-6.92 3.76-.34 7.69-2.19 11.79-5.55s7.89-7.52 11.36-12.48 6.32-10.31 8.54-16.06 3.33-11.31 3.33-16.66c0-9.57-1.68-18.91-5.04-28.03-3.36-9.11-8.54-17.23-15.55-24.35s-15.92-12.84-26.75-17.17-23.75-6.49-38.79-6.49-26.92 2.17-37.68 6.49c-10.77 4.33-19.74 10.06-26.92 17.17-7.18 7.12-12.56 15.24-16.15 24.35-3.59 9.12-5.38 18.46-5.38 28.03 0 4.9 1.08 10.25 3.25 16.06 2.16 5.81 4.96 11.25 8.37 16.32 3.42 5.07 7.18 9.34 11.28 12.82s8.14 5.33 12.13 5.55c-5.24 1.48-10.4 3.79-15.47 6.92-5.07 3.14-9.57 7.21-13.5 12.22zm65.11-72.72c.51-2.33 1.37-4.55 2.56-6.66 1.2-2.11 2.82-3.87 4.87-5.3 2.05-1.42 4.56-2.14 7.52-2.14s5.47.71 7.52 2.14 3.67 3.19 4.87 5.3 2.05 4.33 2.56 6.66c.51 2.34.77 4.42.77 6.24 0 5.47-1.31 11.22-3.93 17.26s-6.55 11.96-11.79 17.77c-1.82-2.39-3.67-4.98-5.55-7.78-1.88-2.79-3.56-5.67-5.04-8.63s-2.71-6.01-3.67-9.14c-.97-3.13-1.45-6.29-1.45-9.48 0-1.82.26-3.9.77-6.24zm.43 99.72c.8-3.19 1.88-6.24 3.25-9.14s3.02-5.64 4.96-8.2 4.04-4.7 6.32-6.41c2.16 1.71 4.21 3.79 6.15 6.24s3.62 5.13 5.04 8.03c1.42 2.91 2.53 5.98 3.33 9.23s1.2 6.47 1.2 9.66c0 1.82-.26 3.93-.77 6.32s-1.37 4.64-2.56 6.75c-1.2 2.11-2.82 3.9-4.87 5.38s-4.56 2.22-7.52 2.22-5.47-.74-7.52-2.22-3.67-3.27-4.87-5.38-2.05-4.36-2.56-6.75-.77-4.5-.77-6.32c0-3.08.4-6.21 1.2-9.4z" fill="#fff"/></g></g></svg>