<svg id="Layer_2" height="512" viewBox="0 0 512 512" width="512" xmlns="http://www.w3.org/2000/svg" xmlns:xlink="http://www.w3.org/1999/xlink" data-name="Layer 2"><linearGradient id="linear-gradient" gradientUnits="userSpaceOnUse" x1="43.93" x2="468.07" y1="43.93" y2="468.07"><stop offset="0" stop-color="#64b5f6"/><stop offset="1" stop-color="#1976d2"/></linearGradient><linearGradient id="linear-gradient-2" gradientUnits="userSpaceOnUse" x1="123.4" x2="464.21" y1="131.11" y2="471.92"><stop offset="0" stop-opacity=".35"/><stop offset="1" stop-opacity="0"/></linearGradient><g id="Icon"><g id="_80" data-name="80"><rect id="Background" fill="url(#linear-gradient)" height="512" rx="150" width="512"/><path d="m512 240.41v121.59c0 82.84-67.16 150-150 150h-137.02l-146.37-146.37 17.58-110.85-13.48-13.48 24.84-94.34h107.43l67.71 67.71 75.17-45.46 62.31-20.63z" fill="url(#linear-gradient-2)"/><path d="m223.7 232.07c3.47-4.96 6.32-10.31 8.54-16.07 2.22-5.75 3.33-11.3 3.33-16.66 0-9.57-1.68-18.91-5.04-28.02-3.36-9.12-8.54-17.23-15.55-24.36-7.01-7.12-15.92-12.84-26.75-17.18-10.83-4.33-23.75-6.49-38.79-6.49s-26.92 2.16-37.68 6.49c-10.77 4.33-19.74 10.06-26.92 17.18s-12.56 15.24-16.15 24.36c-3.59 9.11-5.38 18.45-5.38 28.02 0 4.9 1.08 10.26 3.25 16.07 2.16 5.81 4.96 11.25 8.37 16.32 3.42 5.07 7.18 9.34 11.28 12.82s8.14 5.33 12.13 5.55c-5.24 1.48-10.4 3.79-15.47 6.92-5.07 3.14-9.57 7.21-13.5 12.22-3.93 5.02-7.09 11-9.48 17.95s-3.59 14.98-3.59 24.1c0 10.48 1.82 20.39 5.47 29.73 3.64 9.34 9.25 17.55 16.83 24.61 7.58 7.07 17.23 12.68 28.97 16.84 11.73 4.16 25.69 6.24 41.87 6.24s30.13-2.08 41.87-6.24c11.73-4.16 21.39-9.77 28.97-16.84 7.58-7.06 13.19-15.27 16.83-24.61s5.47-19.25 5.47-29.73c0-9.11-1.2-17.15-3.59-24.1s-5.55-12.93-9.49-17.95c-3.93-5.01-8.43-9.08-13.5-12.22-5.07-3.13-10.23-5.44-15.47-6.92 3.76-.34 7.69-2.19 11.79-5.55s7.89-7.52 11.36-12.47zm-59.3 79.89c-.51 2.39-1.37 4.64-2.56 6.75-1.2 2.11-2.82 3.9-4.87 5.38s-4.56 2.22-7.52 2.22-5.47-.74-7.52-2.22-3.67-3.27-4.87-5.38-2.05-4.36-2.56-6.75-.77-4.5-.77-6.32c0-3.07.4-6.21 1.2-9.4s1.88-6.24 3.25-9.14 3.02-5.64 4.96-8.2 4.04-4.7 6.32-6.41c2.16 1.71 4.21 3.79 6.15 6.23 1.94 2.45 3.62 5.13 5.04 8.04 1.42 2.9 2.53 5.98 3.33 9.23s1.2 6.47 1.2 9.66c0 1.82-.26 3.93-.77 6.32zm-3.16-91.95c-2.62 6.04-6.55 11.96-11.79 17.77-1.82-2.39-3.67-4.98-5.55-7.77s-3.56-5.67-5.04-8.63-2.71-6.01-3.67-9.14c-.97-3.13-1.45-6.3-1.45-9.48 0-1.82.26-3.9.77-6.24s1.37-4.56 2.56-6.67c1.2-2.11 2.82-3.87 4.87-5.3 2.05-1.42 4.56-2.14 7.52-2.14s5.47.71 7.52 2.14 3.67 3.19 4.87 5.3 2.05 4.33 2.56 6.67.77 4.41.77 6.24c0 5.47-1.31 11.22-3.93 17.26zm268.14-60.75c-8.43-11.45-18.69-20.14-30.76-26.06-12.08-5.92-25.69-8.89-40.84-8.89-13.56 0-26.29 3.28-38.2 9.83s-22.28 15.75-31.1 27.6c-8.83 11.85-15.78 26.06-20.85 42.64s-7.6 34.95-7.6 55.11c0 11.17.83 22.02 2.48 32.56s4.19 20.45 7.61 29.73c3.42 9.29 7.75 17.8 12.99 25.55s11.51 14.39 18.8 19.91c7.29 5.53 15.55 9.82 24.78 12.9s19.59 4.61 31.1 4.61 21.93-1.71 31.27-5.12c9.34-3.42 17.63-8.09 24.87-14.02 7.23-5.92 13.5-12.9 18.8-20.93s9.63-16.69 12.99-25.98 5.87-18.97 7.52-29.05 2.48-20.14 2.48-30.16c0-21.76-2.28-41.04-6.84-57.85-4.56-16.8-11.05-30.93-19.48-42.38zm-44.69 117.58c-1.2 7.46-3.05 13.79-5.55 18.97-2.51 5.19-5.61 9.18-9.31 11.96-3.7 2.79-8.12 4.19-13.24 4.19s-9.37-1.43-13.07-4.27c-3.7-2.85-6.75-6.89-9.14-12.13s-4.19-11.56-5.38-18.97c-1.2-7.41-1.79-15.66-1.79-24.78 0-7.86.74-15.55 2.22-23.07s3.5-14.21 6.07-20.08c2.56-5.87 5.64-10.6 9.23-14.18 3.59-3.59 7.55-5.38 11.88-5.38 4.56 0 8.69 1.43 12.39 4.27 3.7 2.85 6.84 6.98 9.4 12.39s4.56 11.99 5.98 19.74 2.14 16.52 2.14 26.32c0 9.23-.6 17.57-1.79 25.04z" fill="#fff"/></g></g></svg>