<svg id="Layer_2" height="512" viewBox="0 0 512 512" width="512" xmlns="http://www.w3.org/2000/svg" xmlns:xlink="http://www.w3.org/1999/xlink" data-name="Layer 2"><linearGradient id="linear-gradient" gradientUnits="userSpaceOnUse" x1="43.93" x2="468.07" y1="43.93" y2="468.07"><stop offset="0" stop-color="#64b5f6"/><stop offset="1" stop-color="#1976d2"/></linearGradient><linearGradient id="linear-gradient-2" gradientUnits="userSpaceOnUse" x1="131.51" x2="466.57" y1="134.49" y2="469.55"><stop offset="0" stop-opacity=".35"/><stop offset="1" stop-opacity="0"/></linearGradient><g id="Icon"><g id="_82" data-name="82"><rect id="Background" fill="url(#linear-gradient)" height="512" rx="150" width="512"/><path d="m512 236.5v125.5c0 82.84-67.16 150-150 150h-131.47l-146.37-146.37 23.44-104.99-19.09-19.09 30.53-94.59h101.5l58.9 58.9 36.07-28.22 109.45-28.19z" fill="url(#linear-gradient-2)"/><path d="m244.55 287.19c-2.39-6.95-5.55-12.93-9.49-17.95-3.93-5.01-8.43-9.08-13.5-12.22-5.07-3.13-10.23-5.44-15.47-6.92 3.76-.34 7.69-2.19 11.79-5.55s7.89-7.52 11.36-12.47c3.47-4.96 6.32-10.31 8.54-16.07 2.22-5.75 3.33-11.3 3.33-16.66 0-9.57-1.68-18.91-5.04-28.02-3.36-9.12-8.54-17.23-15.55-24.36-7.01-7.12-15.92-12.84-26.75-17.18-10.83-4.33-23.75-6.49-38.79-6.49s-26.92 2.16-37.68 6.49c-10.77 4.33-19.74 10.06-26.92 17.18s-12.56 15.24-16.15 24.36c-3.59 9.11-5.38 18.45-5.38 28.02 0 4.9 1.08 10.26 3.25 16.07 2.16 5.81 4.96 11.25 8.37 16.32 3.42 5.07 7.18 9.34 11.28 12.82s8.14 5.33 12.13 5.55c-5.24 1.48-10.4 3.79-15.47 6.92-5.07 3.14-9.57 7.21-13.5 12.22-3.93 5.02-7.09 11-9.48 17.95s-3.59 14.98-3.59 24.1c0 10.48 1.82 20.39 5.47 29.73 3.64 9.34 9.25 17.55 16.83 24.61 7.58 7.07 17.23 12.68 28.97 16.84 11.73 4.16 25.69 6.24 41.87 6.24s30.13-2.08 41.87-6.24c11.73-4.16 21.39-9.77 28.97-16.84 7.58-7.06 13.19-15.27 16.83-24.61s5.47-19.25 5.47-29.73c0-9.11-1.2-17.15-3.59-24.1zm-74.6 24.78c-.51 2.39-1.37 4.64-2.56 6.75-1.2 2.11-2.82 3.9-4.87 5.38s-4.56 2.22-7.52 2.22-5.47-.74-7.52-2.22-3.67-3.27-4.87-5.38-2.05-4.36-2.56-6.75-.77-4.5-.77-6.32c0-3.07.4-6.21 1.2-9.4s1.88-6.24 3.25-9.14 3.02-5.64 4.96-8.2 4.04-4.7 6.32-6.41c2.16 1.71 4.21 3.79 6.15 6.23 1.94 2.45 3.62 5.13 5.04 8.04 1.42 2.9 2.53 5.98 3.33 9.23s1.2 6.47 1.2 9.66c0 1.82-.26 3.93-.77 6.32zm-3.16-91.95c-2.62 6.04-6.55 11.96-11.79 17.77-1.82-2.39-3.67-4.98-5.55-7.77s-3.56-5.67-5.04-8.63-2.71-6.01-3.67-9.14c-.97-3.13-1.45-6.3-1.45-9.48 0-1.82.26-3.9.77-6.24s1.37-4.56 2.56-6.67c1.2-2.11 2.82-3.87 4.87-5.3 2.05-1.42 4.56-2.14 7.52-2.14s5.47.71 7.52 2.14 3.67 3.19 4.87 5.3 2.05 4.33 2.56 6.67.77 4.41.77 6.24c0 5.47-1.31 11.22-3.93 17.26zm170.9 108.69c23.01-1.59 43.41-5.84 61.18-12.73s32.75-15.81 44.95-26.75c-.8 6.04-1.37 11.99-1.71 17.86s-.51 11.71-.51 17.52c0 9.46.48 18.89 1.45 28.29s2.48 18.71 4.53 27.94c-14.24-2.05-29-3.59-44.26-4.61-15.27-1.03-30.71-1.54-46.31-1.54s-31.65.51-47.08 1.54c-15.44 1.02-30.56 2.56-45.37 4.61 0-15.84 1.54-29.48 4.61-40.93s7.15-21.39 12.22-29.82 10.85-15.61 17.35-21.53c6.49-5.92 13.13-11.28 19.91-16.06 6.78-4.79 13.42-9.29 19.91-13.5s12.28-8.77 17.35-13.67c5.07-4.89 9.14-10.43 12.22-16.57 3.08-6.16 4.61-13.61 4.61-22.39 0-2.05-.32-4.27-.94-6.66-.63-2.39-1.68-4.64-3.16-6.75s-3.48-3.84-5.98-5.21c-2.51-1.37-5.58-2.05-9.23-2.05-3.08 0-5.78.57-8.12 1.71s-4.27 2.56-5.81 4.27-2.68 3.62-3.42 5.72c-.74 2.11-1.11 4.13-1.11 6.07 0 1.82.37 3.56 1.11 5.21s1.74 3.11 2.99 4.36c1.25 1.26 2.65 2.25 4.19 2.99s3.1 1.11 4.7 1.11c1.71 0 3.76-.34 6.15-1.02-1.94 3.65-4.53 6.92-7.78 9.83-3.25 2.9-6.89 5.32-10.94 7.26-4.04 1.94-8.37 3.42-12.99 4.44-4.61 1.03-9.31 1.54-14.1 1.54-6.15 0-11.94-.85-17.35-2.56s-10.14-4.3-14.18-7.78c-4.04-3.47-7.21-7.8-9.48-12.99-2.28-5.18-3.42-11.3-3.42-18.37 0-9.45 1.79-18.63 5.38-27.51 3.59-8.89 9.03-16.8 16.32-23.76 7.29-6.95 16.41-12.5 27.34-16.66s23.75-6.24 38.45-6.24c16.75 0 31.3 2.39 43.67 7.18 12.36 4.79 22.61 11.39 30.76 19.82 8.14 8.43 14.24 18.4 18.29 29.91 4.04 11.51 6.07 23.93 6.07 37.26 0 9.46-1.2 17.66-3.59 24.61s-5.64 12.99-9.74 18.12c-4.1 5.12-8.86 9.57-14.27 13.33s-11.17 7.21-17.26 10.34c-6.1 3.13-12.33 6.12-18.71 8.97s-12.56 5.95-18.54 9.31-11.59 7.15-16.83 11.37c-5.24 4.21-9.74 9.29-13.5 15.21z" fill="#fff"/></g></g></svg>