<svg id="Layer_2" height="512" viewBox="0 0 512 512" width="512" xmlns="http://www.w3.org/2000/svg" xmlns:xlink="http://www.w3.org/1999/xlink" data-name="Layer 2"><linearGradient id="linear-gradient" gradientUnits="userSpaceOnUse" x1="43.93" x2="468.07" y1="43.93" y2="468.07"><stop offset="0" stop-color="#64b5f6"/><stop offset="1" stop-color="#1976d2"/></linearGradient><linearGradient id="linear-gradient-2" gradientUnits="userSpaceOnUse" x1="137.02" x2="474.67" y1="123.81" y2="461.46"><stop offset="0" stop-opacity=".35"/><stop offset="1" stop-opacity="0"/></linearGradient><g id="Icon"><g id="_85" data-name="85"><rect id="Background" fill="url(#linear-gradient)" height="512" rx="150" width="512"/><path d="m512 203.95v158.05c0 82.84-67.16 150-150 150h-131.64l-146.37-146.37 18.93-109.5-14.6-14.6 25.55-94.57h106.5l71.91 71.91 28.02-46.4 114.97-45.24z" fill="url(#linear-gradient-2)"/><path d="m244.38 287.19c-2.39-6.95-5.55-12.93-9.49-17.95-3.93-5.01-8.43-9.08-13.5-12.22-5.07-3.13-10.23-5.44-15.47-6.92 3.76-.34 7.69-2.19 11.79-5.55s7.89-7.52 11.36-12.47c3.47-4.96 6.32-10.31 8.54-16.07 2.22-5.75 3.33-11.3 3.33-16.66 0-9.57-1.68-18.91-5.04-28.02-3.36-9.12-8.54-17.23-15.55-24.36-7.01-7.12-15.92-12.84-26.75-17.18-10.83-4.33-23.75-6.49-38.79-6.49s-26.92 2.16-37.68 6.49c-10.77 4.33-19.74 10.06-26.92 17.18s-12.56 15.24-16.15 24.36c-3.59 9.11-5.38 18.45-5.38 28.02 0 4.9 1.08 10.26 3.25 16.07 2.16 5.81 4.96 11.25 8.37 16.32 3.42 5.07 7.18 9.34 11.28 12.82s8.14 5.33 12.13 5.55c-5.24 1.48-10.4 3.79-15.47 6.92-5.07 3.14-9.57 7.21-13.5 12.22-3.93 5.02-7.09 11-9.48 17.95s-3.59 14.98-3.59 24.1c0 10.48 1.82 20.39 5.47 29.73 3.64 9.34 9.25 17.55 16.83 24.61 7.58 7.07 17.23 12.68 28.97 16.84 11.73 4.16 25.69 6.24 41.87 6.24s30.13-2.08 41.87-6.24c11.73-4.16 21.39-9.77 28.97-16.84 7.58-7.06 13.19-15.27 16.83-24.61s5.47-19.25 5.47-29.73c0-9.11-1.2-17.15-3.59-24.1zm-74.6 24.78c-.51 2.39-1.37 4.64-2.56 6.75-1.2 2.11-2.82 3.9-4.87 5.38s-4.56 2.22-7.52 2.22-5.47-.74-7.52-2.22-3.67-3.27-4.87-5.38-2.05-4.36-2.56-6.75-.77-4.5-.77-6.32c0-3.07.4-6.21 1.2-9.4s1.88-6.24 3.25-9.14 3.02-5.64 4.96-8.2 4.04-4.7 6.32-6.41c2.16 1.71 4.21 3.79 6.15 6.23 1.94 2.45 3.62 5.13 5.04 8.04 1.42 2.9 2.53 5.98 3.33 9.23s1.2 6.47 1.2 9.66c0 1.82-.26 3.93-.77 6.32zm-3.16-91.95c-2.62 6.04-6.55 11.96-11.79 17.77-1.82-2.39-3.67-4.98-5.55-7.77s-3.56-5.67-5.04-8.63-2.71-6.01-3.67-9.14c-.97-3.13-1.45-6.3-1.45-9.48 0-1.82.26-3.9.77-6.24s1.37-4.56 2.56-6.67c1.2-2.11 2.82-3.87 4.87-5.3 2.05-1.42 4.56-2.14 7.52-2.14s5.47.71 7.52 2.14 3.67 3.19 4.87 5.3 2.05 4.33 2.56 6.67.77 4.41.77 6.24c0 5.47-1.31 11.22-3.93 17.26zm169.62 83.31c-.74 1.66-1.11 3.39-1.11 5.21 0 1.94.37 3.96 1.11 6.07s1.88 4.02 3.42 5.73 3.47 3.13 5.81 4.27c2.33 1.14 5.04 1.71 8.12 1.71 7.4 0 12.87-2.31 16.41-6.92 3.53-4.61 5.3-10.68 5.3-18.2 0-6.61-1.65-12.45-4.96-17.52s-7.63-9.34-12.99-12.82c-5.36-3.47-11.45-6.21-18.29-8.2s-13.76-3.3-20.76-3.93c-7.01-.62-13.87-.57-20.59.17s-12.59 2.08-17.6 4.02c0-.34-.03-2.22-.09-5.64s-.14-7.83-.26-13.25c-.12-5.41-.29-11.59-.51-18.54-.23-6.95-.54-14.15-.94-21.62-.4-7.46-.88-14.98-1.45-22.56-.57-7.57-1.28-14.7-2.14-21.36s-1.82-12.64-2.91-17.95c-1.08-5.3-2.37-9.43-3.84-12.39 10.94 2.28 22.05 3.91 33.33 4.87 11.28.97 22.44 1.45 33.5 1.45 12.65 0 24.98-.43 37-1.28 12.02-.86 22.76-1.85 32.21-2.99 11.05-1.25 21.47-2.73 31.27-4.45v90.58c-6.15-5.24-12.45-9.66-18.88-13.25-6.44-3.59-12.76-6.46-18.97-8.63-6.21-2.16-12.16-3.73-17.86-4.7-5.7-.96-10.83-1.45-15.38-1.45h-17.26l-1.37 15.38c3.42.11 8.4.46 14.95 1.02 6.55.57 13.7 1.88 21.45 3.93s15.66 5.04 23.75 8.97 15.44 9.34 22.05 16.23 12.02 15.5 16.24 25.8c4.21 10.31 6.32 22.82 6.32 37.51 0 13.56-2.02 25.89-6.07 37-4.04 11.11-10.14 20.59-18.29 28.46-8.15 7.86-18.4 13.93-30.76 18.2s-26.92 6.41-43.67 6.41c-14.7 0-27.51-2.08-38.45-6.24s-20.05-9.71-27.34-16.66-12.73-14.89-16.32-23.84c-3.59-8.94-5.38-18.14-5.38-27.6 0-6.95 1.14-13.02 3.42-18.2s5.44-9.51 9.48-12.99c4.04-3.47 8.77-6.07 14.18-7.78s11.19-2.56 17.35-2.56c4.79 0 9.49.51 14.1 1.54 4.62 1.02 8.94 2.54 12.99 4.53 4.04 2 7.69 4.42 10.94 7.27s5.84 6.09 7.78 9.74c-2.39-.68-4.44-1.02-6.15-1.02-1.6 0-3.16.37-4.7 1.11s-2.93 1.74-4.19 2.99c-1.25 1.25-2.25 2.71-2.99 4.36z" fill="#fff"/></g></g></svg>