<svg id="Layer_2" height="512" viewBox="0 0 512 512" width="512" xmlns="http://www.w3.org/2000/svg" xmlns:xlink="http://www.w3.org/1999/xlink" data-name="Layer 2"><linearGradient id="linear-gradient" gradientUnits="userSpaceOnUse" x1="43.93" x2="468.07" y1="43.93" y2="468.07"><stop offset="0" stop-color="#64b5f6"/><stop offset="1" stop-color="#1976d2"/></linearGradient><linearGradient id="linear-gradient-2" gradientUnits="userSpaceOnUse" x1="133.23" x2="468.2" y1="132.95" y2="467.93"><stop offset="0" stop-opacity=".35"/><stop offset="1" stop-opacity="0"/></linearGradient><g id="Icon"><g id="_86" data-name="86"><rect id="Background" fill="url(#linear-gradient)" height="512" rx="150" width="512"/><path d="m512 227.43v134.57c0 82.84-67.16 150-150 150h-134.03l-146.2-146.2 21.8-106.63-17.53-17.52 33-94.51h99.11l66.26 66.26 28.61-31.93 115.21-37.81z" fill="url(#linear-gradient-2)"/><path d="m242.16 287.36c-2.39-6.95-5.55-12.93-9.49-17.95-3.93-5.01-8.43-9.08-13.5-12.22-5.07-3.13-10.23-5.44-15.47-6.92 3.76-.34 7.69-2.19 11.79-5.55s7.89-7.52 11.36-12.47c3.47-4.96 6.32-10.31 8.54-16.07 2.22-5.75 3.33-11.3 3.33-16.66 0-9.57-1.68-18.91-5.04-28.02-3.36-9.12-8.54-17.23-15.55-24.36-7.01-7.12-15.92-12.84-26.75-17.18-10.83-4.33-23.75-6.49-38.79-6.49s-26.92 2.16-37.68 6.49c-10.77 4.33-19.74 10.06-26.92 17.18s-12.56 15.24-16.15 24.36c-3.59 9.11-5.38 18.45-5.38 28.02 0 4.9 1.08 10.26 3.25 16.07 2.16 5.81 4.96 11.25 8.37 16.32 3.42 5.07 7.18 9.34 11.28 12.82s8.14 5.33 12.13 5.55c-5.24 1.48-10.4 3.79-15.47 6.92-5.07 3.14-9.57 7.21-13.5 12.22-3.93 5.02-7.09 11-9.48 17.95s-3.59 14.98-3.59 24.1c0 10.48 1.82 20.39 5.47 29.73 3.64 9.34 9.25 17.55 16.83 24.61 7.58 7.07 17.23 12.68 28.97 16.84 11.73 4.16 25.69 6.24 41.87 6.24s30.13-2.08 41.87-6.24c11.73-4.16 21.39-9.77 28.97-16.84 7.58-7.06 13.19-15.27 16.83-24.61s5.47-19.25 5.47-29.73c0-9.11-1.2-17.15-3.59-24.1zm-74.6 24.78c-.51 2.39-1.37 4.64-2.56 6.75-1.2 2.11-2.82 3.9-4.87 5.38s-4.56 2.22-7.52 2.22-5.47-.74-7.52-2.22-3.67-3.27-4.87-5.38-2.05-4.36-2.56-6.75-.77-4.5-.77-6.32c0-3.07.4-6.21 1.2-9.4s1.88-6.24 3.25-9.14 3.02-5.64 4.96-8.2 4.04-4.7 6.32-6.41c2.16 1.71 4.21 3.79 6.15 6.23 1.94 2.45 3.62 5.13 5.04 8.04 1.42 2.9 2.53 5.98 3.33 9.23s1.2 6.47 1.2 9.66c0 1.82-.26 3.93-.77 6.32zm-3.16-91.95c-2.62 6.04-6.55 11.96-11.79 17.77-1.82-2.39-3.67-4.98-5.55-7.77s-3.56-5.67-5.04-8.63-2.71-6.01-3.67-9.14c-.97-3.13-1.45-6.3-1.45-9.48 0-1.82.26-3.9.77-6.24s1.37-4.56 2.56-6.67c1.2-2.11 2.82-3.87 4.87-5.3 2.05-1.42 4.56-2.14 7.52-2.14s5.47.71 7.52 2.14 3.67 3.19 4.87 5.3 2.05 4.33 2.56 6.67.77 4.41.77 6.24c0 5.47-1.31 11.22-3.93 17.26zm284.55 48.54c-2.39-8.09-5.67-15.15-9.83-21.19s-9.06-11.19-14.7-15.46-11.65-7.72-18.03-10.34-13.02-4.53-19.91-5.73c-6.9-1.2-13.7-1.79-20.42-1.79-3.31 0-6.47.32-9.49.94s-5.81 1.39-8.37 2.3-4.82 1.96-6.75 3.16c-1.94 1.2-3.42 2.3-4.44 3.33 0-5.47.34-11.11 1.03-16.92.68-5.81 2.08-11.11 4.19-15.89 2.11-4.79 5.07-8.74 8.89-11.88 3.82-3.13 8.8-4.7 14.95-4.7 3.87 0 6.72.86 8.54 2.56 1.82 1.71 2.73 3.42 2.73 5.13 0 1.82-.54 3.45-1.62 4.87-1.08 1.43-2.76 2.14-5.04 2.14-1.03 0-2.14-.06-3.33-.17-1.2-.11-2.42-.29-3.67-.52 4.79 7.86 10.31 13.56 16.58 17.09 6.26 3.53 12.76 5.3 19.48 5.3 5.24 0 10.34-1 15.29-2.99 4.96-1.99 9.34-4.73 13.16-8.2s6.86-7.57 9.14-12.3 3.42-9.83 3.42-15.3c0-7.29-1.88-13.93-5.64-19.91s-8.83-11.14-15.21-15.47-13.73-7.69-22.05-10.08-17.03-3.59-26.15-3.59c-15.72 0-29.28 2.17-40.67 6.5s-21.11 10.2-29.14 17.6c-8.03 7.41-14.53 16.04-19.48 25.89-4.96 9.86-8.8 20.31-11.54 31.36-2.73 11.05-4.59 22.42-5.55 34.09-.97 11.68-1.45 23.05-1.45 34.1 0 19.25 2.16 36.12 6.49 50.59s10.54 26.52 18.63 36.14c8.09 9.63 17.97 16.86 29.65 21.7s24.81 7.26 39.39 7.26c13.78 0 26.46-1.96 38.03-5.89 11.56-3.93 21.53-9.77 29.91-17.52s14.9-17.34 19.57-28.79 7.01-24.7 7.01-39.73c0-10.37-1.2-19.59-3.59-27.69zm-72.29 41.7c-.91 3.99-2.25 7.46-4.02 10.43-1.77 2.96-3.93 5.3-6.49 7.01s-5.5 2.56-8.8 2.56-6.24-.91-8.8-2.73-4.76-4.21-6.58-7.18c-1.82-2.96-3.19-6.41-4.1-10.34s-1.31-8.06-1.2-12.39c.23-9.68 2.28-17.29 6.15-22.82 3.87-5.52 8.72-8.29 14.53-8.29 7.18 0 12.42 2.77 15.72 8.29 3.3 5.53 4.96 13.13 4.96 22.82 0 4.44-.46 8.66-1.37 12.64z" fill="#fff"/></g></g></svg>