<svg id="Layer_2" height="512" viewBox="0 0 512 512" width="512" xmlns="http://www.w3.org/2000/svg" xmlns:xlink="http://www.w3.org/1999/xlink" data-name="Layer 2"><linearGradient id="linear-gradient" gradientUnits="userSpaceOnUse" x1="43.93" x2="468.07" y1="43.93" y2="468.07"><stop offset="0" stop-color="#64b5f6"/><stop offset="1" stop-color="#1976d2"/></linearGradient><linearGradient id="linear-gradient-2" gradientUnits="userSpaceOnUse" x1="130.66" x2="465.95" y1="134.89" y2="470.18"><stop offset="0" stop-opacity=".35"/><stop offset="1" stop-opacity="0"/></linearGradient><g id="Icon"><g id="_89" data-name="89"><rect id="Background" fill="url(#linear-gradient)" height="512" rx="150" width="512"/><path d="m512 237.63v124.37c0 82.84-67.16 150-150 150h-132.83l-146.21-146.2 19.71-108.72-15.36-15.36 31.73-95.21h99.68l56.11 56.11 47.19-28.05 99.41-27.51z" fill="url(#linear-gradient-2)"/><path d="m73.74 269.41c-3.93 5.02-7.09 11-9.48 17.95s-3.59 14.98-3.59 24.1c0 10.48 1.82 20.39 5.47 29.73 3.64 9.34 9.25 17.55 16.83 24.61 7.58 7.07 17.23 12.68 28.97 16.84 11.73 4.16 25.69 6.24 41.87 6.24s30.13-2.08 41.87-6.24c11.73-4.16 21.39-9.77 28.97-16.84 7.58-7.06 13.19-15.27 16.83-24.61s5.47-19.25 5.47-29.73c0-9.11-1.2-17.15-3.59-24.1s-5.55-12.93-9.49-17.95c-3.93-5.01-8.43-9.08-13.5-12.22-5.07-3.13-10.23-5.44-15.47-6.92 3.76-.34 7.69-2.19 11.79-5.55s7.89-7.52 11.36-12.47c3.47-4.96 6.32-10.31 8.54-16.07 2.22-5.75 3.33-11.3 3.33-16.66 0-9.57-1.68-18.91-5.04-28.02-3.36-9.12-8.54-17.23-15.55-24.36-7.01-7.12-15.92-12.84-26.75-17.18-10.83-4.33-23.75-6.49-38.79-6.49s-26.92 2.16-37.68 6.49c-10.77 4.33-19.74 10.06-26.92 17.18s-12.56 15.24-16.15 24.36c-3.59 9.11-5.38 18.45-5.38 28.02 0 4.9 1.08 10.26 3.25 16.07 2.16 5.81 4.96 11.25 8.37 16.32 3.42 5.07 7.18 9.34 11.28 12.82s8.14 5.33 12.13 5.55c-5.24 1.48-10.4 3.79-15.47 6.92-5.07 3.14-9.57 7.21-13.5 12.22zm65.11-72.71c.51-2.34 1.37-4.56 2.56-6.67 1.2-2.11 2.82-3.87 4.87-5.3 2.05-1.42 4.56-2.14 7.52-2.14s5.47.71 7.52 2.14 3.67 3.19 4.87 5.3 2.05 4.33 2.56 6.67.77 4.41.77 6.24c0 5.47-1.31 11.22-3.93 17.26s-6.55 11.96-11.79 17.77c-1.82-2.39-3.67-4.98-5.55-7.77s-3.56-5.67-5.04-8.63-2.71-6.01-3.67-9.14c-.97-3.13-1.45-6.3-1.45-9.48 0-1.82.26-3.9.77-6.24zm.43 99.72c.8-3.19 1.88-6.24 3.25-9.14s3.02-5.64 4.96-8.2 4.04-4.7 6.32-6.41c2.16 1.71 4.21 3.79 6.15 6.23 1.94 2.45 3.62 5.13 5.04 8.04 1.42 2.9 2.53 5.98 3.33 9.23s1.2 6.47 1.2 9.66c0 1.82-.26 3.93-.77 6.32s-1.37 4.64-2.56 6.75c-1.2 2.11-2.82 3.9-4.87 5.38s-4.56 2.22-7.52 2.22-5.47-.74-7.52-2.22-3.67-3.27-4.87-5.38-2.05-4.36-2.56-6.75-.77-4.5-.77-6.32c0-3.07.4-6.21 1.2-9.4zm205.25 25.8c2.05 0 4.38.29 7.01.86-4.79-7.97-10.31-13.73-16.58-17.26s-12.76-5.3-19.48-5.3c-5.24 0-10.31 1-15.21 2.99-4.9 2-9.26 4.73-13.07 8.2-3.82 3.48-6.87 7.61-9.14 12.39-2.28 4.79-3.42 9.91-3.42 15.38 0 7.29 1.88 13.93 5.64 19.91s8.8 11.11 15.12 15.38 13.64 7.61 21.96 10 17.03 3.59 26.15 3.59c15.72 0 29.28-2.16 40.67-6.49s21.11-10.17 29.14-17.52 14.53-15.95 19.48-25.8c4.96-9.85 8.8-20.34 11.54-31.45s4.58-22.47 5.55-34.09 1.45-22.96 1.45-34.01c0-19.25-2.17-36.12-6.49-50.59-4.33-14.47-10.57-26.55-18.71-36.23-8.15-9.68-18.03-16.95-29.65-21.79s-24.72-7.27-39.31-7.27c-13.79 0-26.46 1.96-38.03 5.9-11.56 3.93-21.53 9.77-29.91 17.52-8.37 7.75-14.9 17.38-19.57 28.88-4.67 11.51-7.01 24.78-7.01 39.82 0 10.25 1.2 19.43 3.59 27.51 2.39 8.09 5.67 15.18 9.83 21.28s9.06 11.25 14.7 15.47 11.65 7.66 18.03 10.34 13.01 4.62 19.91 5.81c6.89 1.2 13.7 1.79 20.42 1.79 3.3 0 6.49-.31 9.57-.94s5.87-1.43 8.37-2.39 4.73-2.02 6.67-3.16 3.42-2.22 4.44-3.25c0 5.47-.34 11.11-1.03 16.92-.68 5.81-2.08 11.11-4.19 15.89s-5.07 8.71-8.89 11.79-8.8 4.62-14.95 4.62c-3.88 0-6.72-.83-8.54-2.48s-2.73-3.39-2.73-5.21c0-1.71.54-3.3 1.62-4.79 1.08-1.48 2.76-2.22 5.04-2.22zm32.21-95.45c-1.08 3.82-2.54 7.09-4.36 9.82s-3.99 4.82-6.49 6.24c-2.51 1.43-5.19 2.14-8.03 2.14-7.18 0-12.42-2.76-15.72-8.29-3.31-5.52-4.96-13.13-4.96-22.81 0-4.45.45-8.66 1.37-12.65.91-3.99 2.25-7.46 4.02-10.43 1.76-2.96 3.93-5.3 6.49-7 2.56-1.71 5.5-2.57 8.8-2.57s6.09.89 8.72 2.65c2.62 1.77 4.81 4.16 6.58 7.18s3.13 6.49 4.1 10.43c.97 3.93 1.39 8.06 1.28 12.39-.12 4.78-.71 9.09-1.79 12.9z" fill="#fff"/></g></g></svg>