<svg id="Layer_2" height="512" viewBox="0 0 512 512" width="512" xmlns="http://www.w3.org/2000/svg" xmlns:xlink="http://www.w3.org/1999/xlink" data-name="Layer 2"><linearGradient id="linear-gradient" gradientUnits="userSpaceOnUse" x1="43.93" x2="468.07" y1="43.93" y2="468.07"><stop offset="0" stop-color="#64b5f6"/><stop offset="1" stop-color="#1976d2"/></linearGradient><linearGradient id="linear-gradient-2" gradientUnits="userSpaceOnUse" x1="187.96" x2="465.82" y1="192.46" y2="470.31"><stop offset="0" stop-opacity=".35"/><stop offset="1" stop-opacity="0"/></linearGradient><g id="Icon"><g id="_9" data-name="9"><rect id="Background" fill="url(#linear-gradient)" height="512" rx="150" width="512"/><path d="m512 338.88v23.12c0 82.84-67.16 150-150 150h-32.11l-144.59-144.6 34.63-56.59-36.81-36.81 50.31-127.01h86.68z" fill="url(#linear-gradient-2)"/><path d="m243.52 322.48c2.05 0 4.38.29 7.01.85-4.79-7.97-10.31-13.73-16.58-17.26s-12.76-5.3-19.48-5.3c-5.24 0-10.31 1-15.21 2.99s-9.26 4.73-13.07 8.2c-3.82 3.48-6.87 7.6-9.14 12.39-2.28 4.79-3.42 9.91-3.42 15.38 0 7.29 1.88 13.93 5.64 19.91s8.8 11.11 15.12 15.38 13.64 7.61 21.96 10 17.03 3.59 26.15 3.59c15.72 0 29.28-2.17 40.67-6.49 11.39-4.33 21.11-10.17 29.14-17.52s14.53-15.95 19.48-25.81c4.96-9.85 8.8-20.34 11.54-31.45 2.73-11.11 4.58-22.47 5.55-34.09s1.45-22.96 1.45-34.01c0-19.25-2.17-36.12-6.49-50.59-4.33-14.47-10.57-26.54-18.71-36.23-8.15-9.68-18.03-16.95-29.65-21.79s-24.72-7.26-39.31-7.26c-13.79 0-26.46 1.97-38.03 5.9-11.56 3.93-21.53 9.77-29.91 17.52-8.37 7.75-14.9 17.38-19.57 28.88-4.67 11.51-7.01 24.78-7.01 39.82 0 10.25 1.2 19.43 3.59 27.51 2.39 8.09 5.67 15.18 9.83 21.28s9.06 11.25 14.7 15.47 11.65 7.66 18.03 10.34 13.01 4.61 19.91 5.81c6.89 1.2 13.7 1.79 20.42 1.79 3.3 0 6.49-.31 9.57-.94 3.08-.62 5.87-1.42 8.37-2.39s4.73-2.02 6.67-3.16 3.42-2.22 4.44-3.25c0 5.47-.34 11.11-1.03 16.92s-2.08 11.11-4.19 15.89c-2.11 4.79-5.07 8.72-8.89 11.79-3.82 3.08-8.8 4.61-14.95 4.61-3.88 0-6.72-.83-8.54-2.48s-2.73-3.39-2.73-5.21c0-1.71.54-3.3 1.62-4.79 1.08-1.48 2.76-2.22 5.04-2.22zm32.21-95.45c-1.08 3.82-2.54 7.09-4.36 9.83-1.82 2.73-3.99 4.81-6.49 6.24-2.51 1.43-5.19 2.14-8.03 2.14-7.18 0-12.42-2.76-15.72-8.29-3.31-5.52-4.96-13.13-4.96-22.81 0-4.44.45-8.66 1.37-12.65.91-3.99 2.25-7.46 4.02-10.42s3.93-5.3 6.49-7.01 5.5-2.56 8.8-2.56 6.09.88 8.72 2.65c2.62 1.77 4.81 4.16 6.58 7.18s3.13 6.49 4.1 10.42 1.39 8.06 1.28 12.39c-.12 4.79-.71 9.09-1.79 12.9z" fill="#fff"/></g></g></svg>