<svg id="Layer_2" height="512" viewBox="0 0 512 512" width="512" xmlns="http://www.w3.org/2000/svg" xmlns:xlink="http://www.w3.org/1999/xlink" data-name="Layer 2"><linearGradient id="linear-gradient" gradientUnits="userSpaceOnUse" x1="43.93" x2="468.07" y1="43.93" y2="468.07"><stop offset="0" stop-color="#64b5f6"/><stop offset="1" stop-color="#1976d2"/></linearGradient><linearGradient id="linear-gradient-2" gradientUnits="userSpaceOnUse" x1="127.11" x2="463.98" y1="135.28" y2="472.15"><stop offset="0" stop-opacity=".35"/><stop offset="1" stop-opacity="0"/></linearGradient><g id="Icon"><g id="_90" data-name="90"><rect id="Background" fill="url(#linear-gradient)" height="512" rx="150" width="512"/><path d="m512 239.14v122.86c0 82.84-67.16 150-150 150h-139.18l-143.78-143.77 28.73-62.52-32.3-32.3 39.74-126.23h98.01l82.18 82.17 49.98-63.39 76.56-16.88z" fill="url(#linear-gradient-2)"/><path d="m218.06 152.44c-8.15-9.68-18.03-16.95-29.65-21.79s-24.72-7.27-39.31-7.27c-13.79 0-26.46 1.96-38.03 5.9-11.56 3.93-21.53 9.77-29.91 17.52-8.37 7.75-14.9 17.38-19.57 28.88-4.67 11.51-7.01 24.78-7.01 39.82 0 10.25 1.2 19.43 3.59 27.51 2.39 8.09 5.67 15.18 9.83 21.28s9.06 11.25 14.7 15.47 11.65 7.66 18.03 10.34 13.01 4.62 19.91 5.81c6.89 1.2 13.7 1.79 20.42 1.79 3.3 0 6.49-.31 9.57-.94s5.87-1.43 8.37-2.39 4.73-2.02 6.67-3.16 3.42-2.22 4.44-3.25c0 5.47-.34 11.11-1.03 16.92-.68 5.81-2.08 11.11-4.19 15.89s-5.07 8.71-8.89 11.79-8.8 4.62-14.95 4.62c-3.88 0-6.72-.83-8.54-2.48s-2.73-3.39-2.73-5.21c0-1.71.54-3.3 1.62-4.79 1.08-1.48 2.76-2.22 5.04-2.22 2.05 0 4.38.29 7.01.86-4.79-7.97-10.31-13.73-16.58-17.26s-12.76-5.3-19.48-5.3c-5.24 0-10.31 1-15.21 2.99-4.9 2-9.26 4.73-13.07 8.2-3.82 3.48-6.87 7.61-9.14 12.39-2.28 4.79-3.42 9.91-3.42 15.38 0 7.29 1.88 13.93 5.64 19.91s8.8 11.11 15.12 15.38 13.64 7.61 21.96 10 17.03 3.59 26.15 3.59c15.72 0 29.28-2.16 40.67-6.49s21.11-10.17 29.14-17.52 14.53-15.95 19.48-25.8c4.96-9.85 8.8-20.34 11.54-31.45s4.58-22.47 5.55-34.09 1.45-22.96 1.45-34.01c0-19.25-2.17-36.12-6.49-50.59-4.33-14.47-10.57-26.55-18.71-36.23zm-49.39 74.6c-1.08 3.82-2.54 7.09-4.36 9.82s-3.99 4.82-6.49 6.24c-2.51 1.43-5.19 2.14-8.03 2.14-7.18 0-12.42-2.76-15.72-8.29-3.31-5.52-4.96-13.13-4.96-22.81 0-4.45.45-8.66 1.37-12.65.91-3.99 2.25-7.46 4.02-10.43 1.77-2.96 3.93-5.3 6.49-7 2.56-1.71 5.5-2.57 8.8-2.57s6.09.89 8.72 2.65c2.62 1.77 4.81 4.16 6.58 7.18s3.13 6.49 4.1 10.43c.97 3.93 1.39 8.06 1.28 12.39-.12 4.78-.71 9.09-1.79 12.9zm286.25 63.06c1.65-10.08 2.48-20.14 2.48-30.16 0-21.76-2.28-41.04-6.84-57.85-4.56-16.8-11.05-30.93-19.48-42.38s-18.69-20.14-30.76-26.06c-12.08-5.92-25.69-8.89-40.84-8.89-13.56 0-26.29 3.28-38.2 9.83s-22.28 15.75-31.1 27.6c-8.83 11.85-15.78 26.06-20.85 42.64s-7.6 34.95-7.6 55.11c0 11.17.83 22.02 2.48 32.56s4.19 20.45 7.61 29.73c3.42 9.29 7.75 17.8 12.99 25.55s11.51 14.39 18.8 19.91c7.29 5.53 15.55 9.82 24.78 12.9s19.59 4.61 31.1 4.61 21.93-1.71 31.27-5.12c9.34-3.42 17.63-8.09 24.87-14.02 7.23-5.92 13.5-12.9 18.8-20.93s9.63-16.69 12.99-25.98 5.87-18.97 7.52-29.05zm-68.53-12.82c-1.2 7.46-3.05 13.79-5.55 18.97-2.51 5.19-5.61 9.18-9.31 11.96-3.7 2.79-8.12 4.19-13.24 4.19s-9.37-1.43-13.07-4.27c-3.7-2.85-6.75-6.89-9.14-12.13s-4.19-11.56-5.38-18.97c-1.2-7.41-1.79-15.66-1.79-24.78 0-7.86.74-15.55 2.22-23.07s3.5-14.21 6.07-20.08c2.56-5.87 5.64-10.6 9.23-14.18 3.59-3.59 7.55-5.38 11.88-5.38 4.56 0 8.69 1.43 12.39 4.27 3.7 2.85 6.84 6.98 9.4 12.39s4.56 11.99 5.98 19.74 2.14 16.52 2.14 26.32c0 9.23-.6 17.57-1.79 25.04z" fill="#fff"/></g></g></svg>