<svg id="Layer_2" height="512" viewBox="0 0 512 512" width="512" xmlns="http://www.w3.org/2000/svg" xmlns:xlink="http://www.w3.org/1999/xlink" data-name="Layer 2"><linearGradient id="linear-gradient" gradientUnits="userSpaceOnUse" x1="43.93" x2="468.07" y1="43.93" y2="468.07"><stop offset="0" stop-color="#64b5f6"/><stop offset="1" stop-color="#1976d2"/></linearGradient><linearGradient id="linear-gradient-2" gradientUnits="userSpaceOnUse" x1="129.52" x2="466.35" y1="132.94" y2="469.78"><stop offset="0" stop-opacity=".35"/><stop offset="1" stop-opacity="0"/></linearGradient><g id="Icon"><g id="_92" data-name="92"><rect id="Background" fill="url(#linear-gradient)" height="512" rx="150" width="512"/><path d="m512 235.22v126.78c0 82.84-67.16 150-150 150h-133.63l-143.79-143.78 37.36-53.89-40.29-40.29 33.56-126.79h103.64l67.83 67.83 39.36-35.34 100.41-30.08z" fill="url(#linear-gradient-2)"/><path d="m242.33 188.67c-4.33-14.47-10.57-26.55-18.71-36.23-8.15-9.68-18.03-16.95-29.65-21.79s-24.72-7.27-39.31-7.27c-13.79 0-26.46 1.96-38.03 5.9-11.56 3.93-21.53 9.77-29.91 17.52-8.37 7.75-14.9 17.38-19.57 28.88-4.67 11.51-7.01 24.78-7.01 39.82 0 10.25 1.2 19.43 3.59 27.51 2.39 8.09 5.67 15.18 9.83 21.28s9.06 11.25 14.7 15.47 11.65 7.66 18.03 10.34 13.01 4.62 19.91 5.81c6.89 1.2 13.7 1.79 20.42 1.79 3.3 0 6.49-.31 9.57-.94s5.87-1.43 8.37-2.39 4.73-2.02 6.67-3.16 3.42-2.22 4.44-3.25c0 5.47-.34 11.11-1.03 16.92-.68 5.81-2.08 11.11-4.19 15.89s-5.07 8.71-8.89 11.79-8.8 4.62-14.95 4.62c-3.88 0-6.72-.83-8.54-2.48s-2.73-3.39-2.73-5.21c0-1.71.54-3.3 1.62-4.79 1.08-1.48 2.76-2.22 5.04-2.22 2.05 0 4.38.29 7.01.86-4.79-7.97-10.31-13.73-16.58-17.26s-12.76-5.3-19.48-5.3c-5.24 0-10.31 1-15.21 2.99-4.9 2-9.26 4.73-13.07 8.2-3.82 3.48-6.87 7.61-9.14 12.39-2.28 4.79-3.42 9.91-3.42 15.38 0 7.29 1.88 13.93 5.64 19.91s8.8 11.11 15.12 15.38 13.64 7.61 21.96 10 17.03 3.59 26.15 3.59c15.72 0 29.28-2.16 40.67-6.49s21.11-10.17 29.14-17.52 14.53-15.95 19.48-25.8c4.96-9.85 8.8-20.34 11.54-31.45s4.58-22.47 5.55-34.09 1.45-22.96 1.45-34.01c0-19.25-2.17-36.12-6.49-50.59zm-68.1 38.37c-1.08 3.82-2.54 7.09-4.36 9.82s-3.99 4.82-6.49 6.24c-2.51 1.43-5.19 2.14-8.03 2.14-7.18 0-12.42-2.76-15.72-8.29-3.31-5.52-4.96-13.13-4.96-22.81 0-4.45.45-8.66 1.37-12.65.91-3.99 2.25-7.46 4.02-10.43 1.77-2.96 3.93-5.3 6.49-7 2.56-1.71 5.5-2.57 8.8-2.57s6.09.89 8.72 2.65c2.62 1.77 4.81 4.16 6.58 7.18s3.13 6.49 4.1 10.43c.97 3.93 1.39 8.06 1.28 12.39-.12 4.78-.71 9.09-1.79 12.9zm94.76-10.77c-2.28-5.18-3.42-11.3-3.42-18.37 0-9.45 1.79-18.63 5.38-27.51 3.59-8.89 9.03-16.8 16.32-23.76 7.29-6.95 16.41-12.5 27.34-16.66s23.75-6.24 38.45-6.24c16.75 0 31.3 2.39 43.67 7.18 12.36 4.79 22.61 11.39 30.76 19.82 8.14 8.43 14.24 18.4 18.29 29.91 4.04 11.51 6.07 23.93 6.07 37.26 0 9.46-1.2 17.66-3.59 24.61s-5.64 12.99-9.74 18.12c-4.1 5.12-8.86 9.57-14.27 13.33s-11.17 7.21-17.26 10.34c-6.1 3.13-12.33 6.12-18.71 8.97s-12.56 5.95-18.54 9.31-11.59 7.15-16.83 11.37c-5.24 4.21-9.74 9.29-13.5 15.21 23.01-1.59 43.41-5.84 61.18-12.73s32.75-15.81 44.95-26.75c-.8 6.04-1.37 11.99-1.71 17.86s-.51 11.71-.51 17.52c0 9.46.48 18.89 1.45 28.29s2.48 18.71 4.53 27.94c-14.24-2.05-29-3.59-44.26-4.61-15.27-1.03-30.71-1.54-46.31-1.54s-31.65.51-47.08 1.54c-15.44 1.02-30.56 2.56-45.37 4.61 0-15.84 1.54-29.48 4.61-40.93s7.15-21.39 12.22-29.82 10.85-15.61 17.35-21.53c6.49-5.92 13.13-11.28 19.91-16.06 6.78-4.79 13.42-9.29 19.91-13.5s12.28-8.77 17.35-13.67c5.07-4.89 9.14-10.43 12.22-16.57 3.08-6.16 4.61-13.61 4.61-22.39 0-2.05-.32-4.27-.94-6.66-.63-2.39-1.68-4.64-3.16-6.75s-3.48-3.84-5.98-5.21c-2.51-1.37-5.58-2.05-9.23-2.05-3.08 0-5.78.57-8.12 1.71s-4.27 2.56-5.81 4.27-2.68 3.62-3.42 5.72c-.74 2.11-1.11 4.13-1.11 6.07 0 1.82.37 3.56 1.11 5.21s1.74 3.11 2.99 4.36c1.25 1.26 2.65 2.25 4.19 2.99s3.1 1.11 4.7 1.11c1.71 0 3.76-.34 6.15-1.02-1.94 3.65-4.53 6.92-7.78 9.83-3.25 2.9-6.89 5.32-10.94 7.26-4.04 1.94-8.37 3.42-12.99 4.44-4.61 1.03-9.31 1.54-14.1 1.54-6.15 0-11.94-.85-17.35-2.56s-10.14-4.3-14.18-7.78c-4.04-3.47-7.21-7.8-9.48-12.99z" fill="#fff"/></g></g></svg>