<svg id="Layer_2" height="512" viewBox="0 0 512 512" width="512" xmlns="http://www.w3.org/2000/svg" xmlns:xlink="http://www.w3.org/1999/xlink" data-name="Layer 2"><linearGradient id="linear-gradient" gradientUnits="userSpaceOnUse" x1="43.93" x2="468.07" y1="43.93" y2="468.07"><stop offset="0" stop-color="#64b5f6"/><stop offset="1" stop-color="#1976d2"/></linearGradient><linearGradient id="linear-gradient-2" gradientUnits="userSpaceOnUse" x1="142.93" x2="474.58" y1="129.91" y2="461.55"><stop offset="0" stop-opacity=".35"/><stop offset="1" stop-opacity="0"/></linearGradient><g id="Icon"><g id="_95" data-name="95"><rect id="Background" fill="url(#linear-gradient)" height="512" rx="150" width="512"/><path d="m512 202.41v159.59c0 82.84-67.16 150-150 150h-133.55l-144.03-144.04 34.12-57.12-36.84-36.84 44.24-127.09h92.66l85.36 85.36 8.49-63.63 124.53-41.24z" fill="url(#linear-gradient-2)"/><path d="m141.84 322.22c2.05 0 4.38.29 7.01.86-4.79-7.97-10.31-13.73-16.58-17.26s-12.76-5.3-19.48-5.3c-5.24 0-10.31 1-15.21 2.99-4.9 2-9.26 4.73-13.07 8.2-3.82 3.48-6.87 7.61-9.14 12.39-2.28 4.79-3.42 9.91-3.42 15.38 0 7.29 1.88 13.93 5.64 19.91s8.8 11.11 15.12 15.38 13.64 7.61 21.96 10 17.03 3.59 26.15 3.59c15.72 0 29.28-2.16 40.67-6.49s21.11-10.17 29.14-17.52 14.53-15.95 19.48-25.8c4.96-9.85 8.8-20.34 11.54-31.45s4.58-22.47 5.55-34.09 1.45-22.96 1.45-34.01c0-19.25-2.17-36.12-6.49-50.59-4.33-14.47-10.57-26.55-18.71-36.23-8.15-9.68-18.03-16.95-29.65-21.79s-24.72-7.27-39.31-7.27c-13.79 0-26.46 1.96-38.03 5.9-11.56 3.93-21.53 9.77-29.91 17.52-8.37 7.75-14.9 17.38-19.57 28.88-4.67 11.51-7.01 24.78-7.01 39.82 0 10.25 1.2 19.43 3.59 27.51 2.39 8.09 5.67 15.18 9.83 21.28s9.06 11.25 14.7 15.47 11.65 7.66 18.03 10.34 13.01 4.62 19.91 5.81c6.89 1.2 13.7 1.79 20.42 1.79 3.3 0 6.49-.31 9.57-.94s5.87-1.43 8.37-2.39 4.73-2.02 6.67-3.16 3.42-2.22 4.44-3.25c0 5.47-.34 11.11-1.03 16.92-.68 5.81-2.08 11.11-4.19 15.89s-5.07 8.71-8.89 11.79-8.8 4.62-14.95 4.62c-3.88 0-6.72-.83-8.54-2.48s-2.73-3.39-2.73-5.21c0-1.71.54-3.3 1.62-4.79 1.08-1.48 2.76-2.22 5.04-2.22zm32.21-95.45c-1.08 3.82-2.54 7.09-4.36 9.82s-3.99 4.82-6.49 6.24c-2.51 1.43-5.19 2.14-8.03 2.14-7.18 0-12.42-2.76-15.72-8.29-3.31-5.52-4.96-13.13-4.96-22.81 0-4.45.45-8.66 1.37-12.65.91-3.99 2.25-7.46 4.02-10.43 1.77-2.96 3.93-5.3 6.49-7 2.56-1.71 5.5-2.57 8.8-2.57s6.09.89 8.72 2.65c2.62 1.77 4.81 4.16 6.58 7.18s3.13 6.49 4.1 10.43c.97 3.93 1.39 8.06 1.28 12.39-.12 4.78-.71 9.09-1.79 12.9zm97.07 115.36c-3.59-8.94-5.38-18.14-5.38-27.6 0-6.95 1.14-13.02 3.42-18.2s5.44-9.51 9.48-12.99c4.04-3.47 8.77-6.07 14.18-7.78s11.19-2.56 17.35-2.56c4.79 0 9.49.51 14.1 1.54 4.62 1.02 8.94 2.54 12.99 4.53 4.04 2 7.69 4.42 10.94 7.27s5.84 6.09 7.78 9.74c-2.39-.68-4.44-1.02-6.15-1.02-1.6 0-3.16.37-4.7 1.11s-2.93 1.74-4.19 2.99c-1.25 1.25-2.25 2.71-2.99 4.36-.74 1.66-1.11 3.39-1.11 5.21 0 1.94.37 3.96 1.11 6.07s1.88 4.02 3.42 5.73 3.47 3.13 5.81 4.27c2.33 1.14 5.04 1.71 8.12 1.71 7.4 0 12.87-2.31 16.41-6.92 3.53-4.61 5.3-10.68 5.3-18.2 0-6.61-1.65-12.45-4.96-17.52s-7.63-9.34-12.99-12.82c-5.36-3.47-11.45-6.21-18.29-8.2s-13.76-3.3-20.76-3.93c-7.01-.62-13.87-.57-20.59.17s-12.59 2.08-17.6 4.02c0-.34-.03-2.22-.09-5.64s-.14-7.83-.26-13.25c-.12-5.41-.29-11.59-.51-18.54-.23-6.95-.54-14.15-.94-21.62-.4-7.46-.88-14.98-1.45-22.56-.57-7.57-1.28-14.7-2.14-21.36s-1.82-12.64-2.91-17.95c-1.08-5.3-2.37-9.43-3.84-12.39 10.94 2.28 22.05 3.91 33.33 4.87 11.28.97 22.44 1.45 33.5 1.45 12.65 0 24.98-.43 37-1.28 12.02-.86 22.76-1.85 32.21-2.99 11.05-1.25 21.47-2.73 31.27-4.45v90.58c-6.15-5.24-12.45-9.66-18.88-13.25-6.44-3.59-12.76-6.46-18.97-8.63-6.21-2.16-12.16-3.73-17.86-4.7-5.7-.96-10.83-1.45-15.38-1.45h-17.26l-1.37 15.38c3.42.11 8.4.46 14.95 1.02 6.55.57 13.7 1.88 21.45 3.93s15.66 5.04 23.75 8.97 15.44 9.34 22.05 16.23 12.02 15.5 16.24 25.8c4.21 10.31 6.32 22.82 6.32 37.51 0 13.56-2.02 25.89-6.07 37-4.04 11.11-10.14 20.59-18.29 28.46-8.15 7.86-18.4 13.93-30.76 18.2s-26.92 6.41-43.67 6.41c-14.7 0-27.51-2.08-38.45-6.24s-20.05-9.71-27.34-16.66-12.73-14.89-16.32-23.84z" fill="#fff"/></g></g></svg>