<svg id="Layer_2" height="512" viewBox="0 0 512 512" width="512" xmlns="http://www.w3.org/2000/svg" xmlns:xlink="http://www.w3.org/1999/xlink" data-name="Layer 2"><linearGradient id="linear-gradient" gradientUnits="userSpaceOnUse" x1="43.93" x2="468.07" y1="43.93" y2="468.07"><stop offset="0" stop-color="#64b5f6"/><stop offset="1" stop-color="#1976d2"/></linearGradient><linearGradient id="linear-gradient-2" gradientUnits="userSpaceOnUse" x1="146.4" x2="477.35" y1="127.83" y2="458.78"><stop offset="0" stop-opacity=".35"/><stop offset="1" stop-opacity="0"/></linearGradient><g id="Icon"><g id="_97" data-name="97"><rect id="Background" fill="url(#linear-gradient)" height="512" rx="150" width="512"/><path d="m512 199.17v162.83c0 82.84-67.16 150-150 150h-125.68l-143.78-143.78 41.23-50.01-44.75-44.74 38.07-126.33h99.58l54.02 54.02 163.21-70.09z" fill="url(#linear-gradient-2)"/><path d="m183.62 287.96c-1.03 1.03-2.51 2.11-4.44 3.25-1.94 1.14-4.16 2.19-6.67 3.16s-5.3 1.77-8.37 2.39c-3.08.63-6.27.94-9.57.94-6.72 0-13.53-.6-20.42-1.79-6.89-1.2-13.53-3.13-19.91-5.81s-12.39-6.12-18.03-10.34c-5.64-4.21-10.54-9.37-14.7-15.47-4.16-6.09-7.43-13.19-9.83-21.28-2.39-8.09-3.59-17.26-3.59-27.51 0-15.04 2.33-28.31 7.01-39.82 4.67-11.51 11.19-21.13 19.57-28.88 8.37-7.75 18.34-13.59 29.91-17.52 11.56-3.93 24.24-5.9 38.03-5.9 14.58 0 27.69 2.42 39.31 7.26s21.5 12.11 29.65 21.79c8.14 9.69 14.38 21.76 18.71 36.23s6.49 31.33 6.49 50.59c0 11.05-.49 22.39-1.45 34.01-.97 11.62-2.82 22.99-5.55 34.09s-6.58 21.59-11.54 31.45-11.45 18.46-19.48 25.81-17.75 13.19-29.14 17.52-24.95 6.49-40.67 6.49c-9.12 0-17.83-1.2-26.15-3.59s-15.64-5.73-21.96-10-11.36-9.4-15.12-15.38-5.64-12.62-5.64-19.91c0-5.47 1.14-10.6 3.42-15.38 2.28-4.79 5.32-8.91 9.14-12.39 3.82-3.47 8.17-6.21 13.07-8.2s9.97-2.99 15.21-2.99c6.72 0 13.21 1.77 19.48 5.3 6.26 3.53 11.79 9.29 16.58 17.26-2.62-.57-4.96-.85-7.01-.85-2.28 0-3.96.74-5.04 2.22s-1.62 3.08-1.62 4.79c0 1.82.91 3.56 2.73 5.21s4.67 2.48 8.54 2.48c6.15 0 11.13-1.54 14.95-4.61 3.82-3.08 6.78-7.01 8.89-11.79 2.11-4.79 3.5-10.08 4.19-15.89s1.03-11.45 1.03-16.92zm-41.02-73.83c0 9.69 1.65 17.29 4.96 22.81 3.3 5.53 8.54 8.29 15.72 8.29 2.85 0 5.52-.71 8.03-2.14 2.5-1.42 4.67-3.5 6.49-6.24 1.82-2.73 3.27-6.01 4.36-9.83 1.08-3.82 1.68-8.12 1.79-12.9.11-4.33-.32-8.46-1.28-12.39-.97-3.93-2.34-7.4-4.1-10.42-1.77-3.02-3.96-5.41-6.58-7.18s-5.53-2.65-8.72-2.65-6.24.85-8.8 2.56-4.73 4.05-6.49 7.01c-1.77 2.96-3.11 6.44-4.02 10.42-.91 3.99-1.37 8.2-1.37 12.65zm301.29-83.06c-5.58 12.88-10.65 25.49-15.21 37.85s-8.72 24.78-12.48 37.26-7.15 25.15-10.17 38.02c-3.02 12.88-5.78 26.26-8.29 40.16s-4.79 28.48-6.84 43.75-3.99 31.5-5.81 48.71c-2.85-.23-6.04-.45-9.57-.68-2.96-.23-6.44-.4-10.42-.51-3.99-.11-8.37-.17-13.16-.17s-9.17.09-13.84.26-9.63.49-14.87.94c-5.24.46-10.85 1.05-16.83 1.79s-12.62 1.68-19.91 2.82c5.35-8.54 10.57-18.2 15.64-28.97s9.8-21.99 14.18-33.67 8.46-23.5 12.22-35.46 7.06-23.41 9.91-34.35 5.21-21.05 7.09-30.33 3.16-17.06 3.84-23.33c-6.49.11-13.16.4-20 .85-6.84.46-13.65 1.31-20.42 2.56-6.78 1.25-13.36 2.96-19.74 5.13s-12.3 5.01-17.77 8.54c.34-1.03.62-2.62.85-4.79.23-2.16.45-4.61.68-7.35.23-2.73.37-5.58.43-8.54s.14-5.78.26-8.46c.11-2.68.17-5.1.17-7.26v-4.79c0-7.06-.23-14.07-.68-21.02-.46-6.95-1.03-13.96-1.71-21.02 12.65 2.73 26.23 4.79 40.76 6.15 14.53 1.37 29.31 2.14 44.35 2.31s30.02-.28 44.95-1.37c14.92-1.08 29.05-2.76 42.38-5.04z" fill="#fff"/></g></g></svg>