<svg id="Layer_2" height="512" viewBox="0 0 512 512" width="512" xmlns="http://www.w3.org/2000/svg" xmlns:xlink="http://www.w3.org/1999/xlink" data-name="Layer 2"><linearGradient id="linear-gradient" gradientUnits="userSpaceOnUse" x1="43.93" x2="468.07" y1="43.93" y2="468.07"><stop offset="0" stop-color="#64b5f6"/><stop offset="1" stop-color="#1976d2"/></linearGradient><linearGradient id="linear-gradient-2" gradientUnits="userSpaceOnUse" x1="128.04" x2="466.49" y1="131.18" y2="469.63"><stop offset="0" stop-opacity=".35"/><stop offset="1" stop-opacity="0"/></linearGradient><g id="Icon"><g id="_98" data-name="98"><rect id="Background" fill="url(#linear-gradient)" height="512" rx="150" width="512"/><path d="m512 234.39v127.61c0 82.84-67.16 150-150 150h-133.89l-143.95-143.95 34.97-56.27-38.11-38.11 26.02-121.49h116.06l70.92 70.91 28.19-48.13 102.29-28.07z" fill="url(#linear-gradient-2)"/><path d="m175.17 287.7c-1.03 1.03-2.51 2.11-4.44 3.25-1.94 1.14-4.16 2.19-6.67 3.16s-5.3 1.77-8.37 2.39c-3.08.63-6.27.94-9.57.94-6.72 0-13.53-.6-20.42-1.79-6.89-1.2-13.53-3.13-19.91-5.81s-12.39-6.12-18.03-10.34c-5.64-4.21-10.54-9.37-14.7-15.47-4.16-6.09-7.43-13.19-9.83-21.28-2.39-8.09-3.59-17.26-3.59-27.51 0-15.04 2.33-28.31 7.01-39.82 4.67-11.51 11.19-21.13 19.57-28.88 8.37-7.75 18.34-13.59 29.91-17.52 11.56-3.93 24.24-5.9 38.03-5.9 14.58 0 27.69 2.42 39.31 7.26s21.5 12.11 29.65 21.79c8.14 9.69 14.38 21.76 18.71 36.23s6.49 31.33 6.49 50.59c0 11.05-.49 22.39-1.45 34.01-.97 11.62-2.82 22.99-5.55 34.09s-6.58 21.59-11.54 31.45-11.45 18.46-19.48 25.81-17.75 13.19-29.14 17.52-24.95 6.49-40.67 6.49c-9.12 0-17.83-1.2-26.15-3.59s-15.64-5.72-21.96-10c-6.32-4.27-11.36-9.4-15.12-15.38s-5.64-12.62-5.64-19.91c0-5.47 1.14-10.6 3.42-15.38 2.28-4.79 5.32-8.91 9.14-12.39 3.82-3.47 8.17-6.21 13.07-8.2s9.97-2.99 15.21-2.99c6.72 0 13.21 1.77 19.48 5.3 6.26 3.53 11.79 9.29 16.58 17.26-2.62-.57-4.96-.85-7.01-.85-2.28 0-3.96.74-5.04 2.22s-1.62 3.08-1.62 4.79c0 1.82.91 3.56 2.73 5.21s4.67 2.48 8.54 2.48c6.15 0 11.13-1.54 14.95-4.61 3.82-3.08 6.78-7.01 8.89-11.79 2.11-4.79 3.5-10.08 4.19-15.89s1.03-11.45 1.03-16.92zm-41.02-73.83c0 9.69 1.65 17.29 4.96 22.81 3.3 5.53 8.54 8.29 15.72 8.29 2.85 0 5.52-.71 8.03-2.14 2.5-1.42 4.67-3.5 6.49-6.24 1.82-2.73 3.27-6.01 4.36-9.83 1.08-3.82 1.68-8.12 1.79-12.9.11-4.33-.32-8.46-1.28-12.39-.97-3.93-2.34-7.4-4.1-10.42-1.77-3.02-3.96-5.41-6.58-7.18s-5.53-2.65-8.72-2.65-6.24.85-8.8 2.56-4.73 4.05-6.49 7.01c-1.77 2.96-3.11 6.44-4.02 10.42-.91 3.99-1.37 8.2-1.37 12.65zm276.17 36.4c5.24 1.48 10.4 3.79 15.47 6.92s9.57 7.21 13.5 12.22 7.09 11 9.48 17.94c2.39 6.95 3.59 14.98 3.59 24.1 0 10.48-1.82 20.4-5.47 29.74s-9.26 17.55-16.83 24.61c-7.58 7.07-17.23 12.67-28.97 16.83s-25.69 6.24-41.87 6.24-30.14-2.08-41.87-6.24c-11.74-4.16-21.39-9.77-28.97-16.83s-13.19-15.27-16.83-24.61c-3.65-9.34-5.47-19.25-5.47-29.74 0-9.11 1.2-17.15 3.59-24.1s5.55-12.93 9.48-17.94 8.43-9.08 13.5-12.22c5.07-3.13 10.22-5.44 15.47-6.92-3.99-.23-8.03-2.08-12.13-5.55s-7.86-7.75-11.28-12.82-6.21-10.51-8.37-16.32c-2.17-5.81-3.25-11.16-3.25-16.06 0-9.57 1.79-18.91 5.38-28.03 3.59-9.11 8.97-17.23 16.15-24.35s16.15-12.84 26.92-17.18c10.77-4.33 23.33-6.49 37.68-6.49s27.97 2.17 38.79 6.49c10.82 4.33 19.74 10.06 26.75 17.18s12.19 15.24 15.55 24.35c3.36 9.12 5.04 18.46 5.04 28.03 0 5.36-1.11 10.91-3.33 16.66s-5.07 11.11-8.54 16.06c-3.48 4.96-7.26 9.12-11.37 12.48-4.1 3.36-8.03 5.21-11.79 5.55zm-66.82-47.34c0 3.19.48 6.35 1.45 9.48s2.19 6.18 3.67 9.14 3.16 5.84 5.04 8.63 3.73 5.38 5.55 7.78c5.24-5.81 9.17-11.73 11.79-17.77s3.93-11.79 3.93-17.26c0-1.82-.26-3.9-.77-6.24-.51-2.33-1.37-4.56-2.56-6.67-1.2-2.11-2.82-3.87-4.87-5.3-2.05-1.42-4.56-2.14-7.52-2.14s-5.47.71-7.52 2.14-3.67 3.19-4.87 5.3-2.05 4.33-2.56 6.67-.77 4.42-.77 6.24zm0 102.88c0 1.82.26 3.93.77 6.32s1.37 4.64 2.56 6.75c1.2 2.11 2.82 3.9 4.87 5.38s4.56 2.22 7.52 2.22 5.47-.74 7.52-2.22 3.67-3.27 4.87-5.38 2.05-4.36 2.56-6.75.77-4.5.77-6.32c0-3.19-.4-6.41-1.2-9.66s-1.91-6.32-3.33-9.23c-1.43-2.91-3.11-5.58-5.04-8.03-1.94-2.45-3.99-4.53-6.15-6.24-2.28 1.71-4.39 3.85-6.32 6.41-1.94 2.56-3.59 5.3-4.96 8.2s-2.45 5.95-3.25 9.14-1.2 6.32-1.2 9.4z" fill="#fff"/></g></g></svg>