<svg height="512pt" viewBox="0 0 512 512" width="512pt" xmlns="http://www.w3.org/2000/svg"><path d="m136.921875 34.261719-119.3125 74.496093c-7.78125 4.855469-10.398437 14.957032-5.949219 22.980469 9.238282 16.664063 32.792969 37.742188 91.136719 15.503907 0 0 68.664063 136.324218 68.363281 163.144531-.226562 20.039062-.117187 129.34375-.042968 169.660156.019531 12.414063 10.089843 22.460937 22.507812 22.460937 12.429688 0 22.507812-10.078124 22.507812-22.507812v-146.699219h155.707032s19.332031 34.78125 48.46875 46.617188v100.964843c0 11.941407 9.683594 21.625 21.628906 21.625s21.625-9.683593 21.625-21.625v-118.929687s32.027344-84.894531 16.015625-130.148437c-16.015625-45.257813-41.078125-37.597657-57.09375-55.003907-16.011719-17.40625-22.277344-54.308593-60.570313-54.308593-38.292968 0-49.433593 34.8125-49.433593 34.8125s-29.582031-5.671876-48.628907 11.753906c-19.042968 17.425781-34.847656 21.882812-44.976562 7.699218-10.132812-14.183593-51.464844-115.085937-51.464844-115.085937s30.386719-14.335937 22.972656-33.441406c-7.375-19.003907-37.347656-32.726563-53.460937 6.03125zm0 0" fill="#dd8858"/><g fill="#d97f4a"><path d="m163.382812 28.230469c4.1875 10.789062-3.683593 20.058593-11.328124 26.082031-6.570313 5.179688-8.875 14.113281-5.660157 21.839844 11.835938 28.4375 37.746094 89.78125 45.476563 100.605468 7.351562 10.292969 17.695312 10.761719 30.09375 3.585938-1.082032-1.027344-2.113282-2.214844-3.09375-3.585938-10.128906-14.183593-51.460938-115.085937-51.460938-115.085937s30.386719-14.335937 22.972656-33.441406c-5.457031-14.0625-23.289062-25.226563-38.722656-14.378907 5.28125 3.476563 9.515625 8.6875 11.722656 14.378907zm0 0"/><path d="m189.136719 480c0 7.367188-3.542969 13.90625-9.011719 18.011719 3.710938 2.785156 8.3125 4.453125 13.300781 4.496093 12.492188.109376 22.710938-10.5625 22.710938-23.054687v-146.152344c-14.914063 0-27 12.089844-27 27zm0 0"/><path d="m479.578125 231.804688c-16.015625-45.257813-41.078125-37.597657-57.09375-55.003907-16.011719-17.40625-22.277344-54.308593-60.570313-54.308593-5.082031 0-9.671874.628906-13.832031 1.691406 26.875 7.410156 33.144531 42.777344 47.113281 57.960937 16.015626 17.40625 42.925782 17.566407 58.9375 62.820313 16.015626 45.257812-17.570312 116.988281-17.570312 116.988281v118.929687c0 6.832032-3.175781 12.914063-8.125 16.878907 3.699219 2.964843 8.390625 4.746093 13.5 4.746093 11.945312 0 21.625-9.683593 21.625-21.625v-118.929687c.003906 0 32.03125-84.894531 16.015625-130.148437zm0 0"/></g><path d="m162.800781 384.648438c0 4.171874 3.386719 7.558593 7.558594 7.554687 4.175781 0 7.558594-3.382813 7.558594-7.558594-.003907-39.886719.039062-65.390625.132812-73.75.058594-5.089843.234375-20.585937-42.820312-112.40625-1.769531-3.78125-6.269531-5.40625-10.050781-3.636719-3.78125 1.773438-5.40625 6.273438-3.636719 10.054688 37.53125 80.046875 41.449219 100.667969 41.390625 105.820312-.117188 10.632813-.136719 46.066407-.132813 73.921876zm0 0"/><path d="m475.644531 329.546875c-4.007812-1.144531-8.195312 1.175781-9.34375 5.191406-4.289062 15.003907-8.140625 25.277344-8.179687 25.375-.320313.855469-.488282 1.757813-.488282 2.667969v119.863281c0 7.851563-6.386718 14.238281-14.238281 14.238281-7.847656 0-14.234375-6.386718-14.234375-14.238281v-101.753906c0-3.078125-1.867187-5.84375-4.714844-7.003906-26.484374-10.757813-44.910156-43.328125-45.089843-43.652344-1.335938-2.398437-3.863281-3.886719-6.609375-3.886719h-156.921875c-4.175781 0-7.5625 3.386719-7.5625 7.558594v147.847656c0 8.34375-6.785157 15.128906-15.125 15.128906-8.328125 0-15.113281-6.773437-15.125-15.097656-.027344-14.128906-.054688-36.660156-.074219-60.898437-.003906-4.171875-3.386719-7.550781-7.558594-7.550781 0 0-.003906 0-.007812 0-4.171875.003906-7.554688 3.390624-7.550782 7.5625.019532 24.242187.046876 46.785156.070313 60.914062.03125 16.648438 13.597656 30.1875 30.246094 30.1875 16.675781 0 30.246093-13.566406 30.246093-30.246094v-140.285156h145.089844c5.855469 9.3125 22.292969 32.785156 45.570313 44.300781v96.875c0 16.1875 13.167969 29.355469 29.355469 29.355469 16.183593 0 29.355468-13.167969 29.355468-29.355469v-118.515625c1.203125-3.316406 4.46875-12.582031 8.082032-25.234375 1.148437-4.015625-1.175782-8.199219-5.191407-9.347656zm0 0"/><path d="m83.046875 101.3125c0 10.683594 6.738281 19.054688 15.34375 19.054688 8.601563 0 15.339844-8.371094 15.339844-19.054688 0-10.6875-6.738281-19.054688-15.339844-19.054688-8.605469 0-15.34375 8.367188-15.34375 19.054688zm0 0"/><path d="m470 197.34375c-8.105469-8.308594-16.640625-12.308594-24.167969-15.824219-6.449219-3.011719-12.019531-5.613281-16.476562-10.457031-4-4.34375-7.546875-10.476562-11.300781-16.964844-10.363282-17.914062-23.265626-40.210937-55.308594-40.210937-30.421875 0-47.75 20.058593-54.648438 34.449219-10.734375-.84375-33.003906-.433594-49.285156 14.464843-10.738281 9.824219-20.078125 14.867188-26.261719 14.222657-1.878906-.199219-4.734375-.960938-7.820312-5.28125-6.757813-9.460938-31.722657-67.632813-48.445313-108.191407 12.925782-7.898437 27.390625-22.417969 20.628906-39.839843-5.355468-13.796876-18.671874-23.542969-32.386718-23.70703175-.113282-.00390625-.226563-.00390625-.34375-.00390625-8.4375 0-23.558594 3.714844-34.199219 27.359375l-118.25 73.828125c-11.257813 7.03125-15.039063 21.632812-8.601563 33.242188 6.949219 12.53125 22.058594 29.214843 53.25 29.214843 11.5-.003906 25.191407-2.273437 41.457032-7.855469 2.4375 4.910157 6.203125 12.546876 10.691406 21.820313 1.820312 3.757813 6.339844 5.328125 10.097656 3.507813 3.757813-1.816407 5.328125-6.335938 3.511719-10.09375-8.011719-16.546876-13.734375-27.917969-13.792969-28.03125-1.742187-3.460938-5.820312-5.042969-9.441406-3.664063-51.695312 19.703125-73.425781 4.226563-82.550781-12.226563-2.535157-4.570312-1.046875-10.320312 3.386719-13.085937l120.25-75.078125c1.332031-.832031 2.371093-2.058594 2.976562-3.511719 5.484375-13.191406 13.074219-20.445312 21.378906-20.304687 7.453125.089844 15.398438 6.132812 18.472656 14.058594 4.679688 12.058593-19.101562 24.023437-19.332031 24.132812-3.636719 1.71875-5.292969 5.980469-3.769531 9.703125 4.296875 10.492187 42.292969 102.925781 52.710938 117.515625 4.839843 6.773438 11.25 10.761719 18.539062 11.527344 11.019531 1.175781 23.464844-4.761719 38.046875-18.105469 16.085937-14.714844 42.242187-10.039063 42.484375-9.996094 3.730469.714844 7.421875-1.480469 8.613281-5.089843.402344-1.21875 10.226563-29.859376 42.632813-29.859376 23.328125 0 32.503906 15.863282 42.222656 32.660157 4.1875 7.230469 8.136719 14.0625 13.261719 19.632812 6.480469 7.042969 13.964843 10.539063 21.203125 13.921875 12.941406 6.039063 25.160156 11.75 34.773437 38.914063 5.6875 16.078125 5.402344 40.875-.820312 71.707031-.792969 3.929688 1.738281 7.90625 5.636719 8.84375 4.113281.988281 8.347656-1.707031 9.183593-5.851562 3.238281-16.039063 4.945313-30.464844 5.167969-43.238282 2.683594 11.191406 4.054688 24.035156 3.089844 38.53125-.273438 4.109375 2.929687 7.773438 7.042968 8.046875 4.109376.269531 7.769532-2.933593 8.042969-7.042969 4.566407-68.652343-37.167969-104.253906-41.550781-107.789062zm0 0"/></svg>