<svg height="511pt" viewBox="0 -57 511.99819 511" width="511pt" xmlns="http://www.w3.org/2000/svg"><path d="m382.53125 111.585938c-84.429688-31.992188-146.34375-2.742188-146.34375-2.742188s8.988281-74.90625-15.980469-93.382812c-24.96875-18.480469-93 3.253906-148.441406 61.691406-55.421875 58.417968-82.773437 146.046875-46.316406 160.03125 13.628906 5.226562 25.136719 2.488281 35.011719-3.128906 0 0 36.636718 35.820312 84.035156 23.476562 9.035156-2.351562 16.855468-5.242188 23.617187-8.382812l-.003906.003906-23.886719 40.785156s-37.824218 1.421875-36.683594 31.851562h54.714844c8.234375 0 15.882813-4.273437 20.191406-11.289062l37.710938-61.347656h91.132812l-23.886718 40.785156s-37.824219 1.421875-36.6875 31.851562h54.71875c8.234375 0 15.878906-4.273437 20.191406-11.289062l37.707031-61.347656s39.195313-23.128906 64.078125 10.964844c24.882813 34.097656-6.71875 86.109374-55.988281 90.53125-18.128906 1.625-31.296875.21875-40.332031-1.84375-8.421875-1.921876-17.179688 2.441406-20.121094 10.5625-3.472656 9.566406 2.09375 19.785156 11.691406 22.230468 13.046875 3.324219 32.53125 7.1875 52.761719 7.261719 42.542969.160156 112.371094-35.539063 124.417969-94.644531 13.613281-66.789063-13.691406-143.363282-117.308594-182.628906zm0 0" fill="#aee295"/><g fill="#98db7c"><path d="m332.183594 255.90625-40.5 65.886719h13.75c8.234375 0 15.878906-4.273438 20.191406-11.289063l37.707031-61.347656s5.9375-3.503906 14.652344-5.773438c-12.277344-3.804687-24.507813-1.144531-32.507813 1.695313-5.542968 1.96875-10.214843 5.820313-13.292968 10.828125zm0 0"/><path d="m193.207031 15.460938c14.621094 10.820312 17.597657 40.996093 17.554688 64.144531-.027344 13.574219 12.371093 23.722656 25.664062 20.984375.175781-.035156.351563-.074219.527344-.109375 1.496094-20.058594 3.089844-70.34375-16.746094-85.019531-8.488281-6.28125-21.957031-7.910157-38.214843-5.035157 4.332031 1.058594 8.109374 2.734375 11.214843 5.035157zm0 0"/><path d="m343.265625 350.742188c-4.882813-.484376-9.078125-1.210938-12.613281-2.039063-4.574219-1.066406-9.144532-.148437-12.832032 2.183594 7.046876.601562 15.488282.6875 25.445313-.144531zm0 0"/><path d="m148.507812 321.792969h13.746094c8.234375 0 15.882813-4.273438 20.191406-11.289063l37.710938-61.347656c-16.777344 0-32.351562 8.707031-41.136719 23zm0 0"/><path d="m382.53125 111.585938c-36.074219-13.667969-68.03125-16.152344-92.8125-14.519532 19.5 1.261719 41.738281 5.398438 65.8125 14.519532 103.617188 39.265624 130.921875 115.839843 117.308594 182.628906-11.015625 54.027344-70.304688 88.492187-112.902344 93.894531 5.046875.453125 10.238281.734375 15.484375.753906 42.542969.15625 112.367187-35.542969 124.417969-94.648437 13.613281-66.789063-13.691406-143.363282-117.308594-182.628906zm0 0"/></g><path d="m169.132812 134.046875c0 26.757813-21.691406 48.453125-48.453124 48.453125-26.761719 0-48.457032-21.695312-48.457032-48.453125 0-26.761719 21.695313-48.457031 48.457032-48.457031 26.761718 0 48.453124 21.695312 48.453124 48.457031zm0 0" fill="#e6e2e6"/><path d="m120.679688 85.589844c-4.6875 0-9.214844.679687-13.5 1.921875 20.1875 5.847656 34.953124 24.460937 34.953124 46.535156 0 22.070313-14.765624 40.6875-34.953124 46.53125 4.285156 1.242187 8.8125 1.921875 13.5 1.921875 26.761718 0 48.453124-21.695312 48.453124-48.453125 0-26.761719-21.691406-48.457031-48.453124-48.457031zm0 0" fill="#d8d1d7"/><path d="m63.6875 133.691406c0 31.023438 25.238281 56.261719 56.257812 56.261719 31.019532 0 56.257813-25.238281 56.257813-56.261719 0-31.019531-25.238281-56.257812-56.257813-56.257812-31.019531 0-56.257812 25.238281-56.257812 56.257812zm97.433594 0c0 22.707032-18.46875 41.179688-41.175782 41.179688-22.703124 0-41.175781-18.472656-41.175781-41.179688 0-22.703125 18.472657-41.175781 41.175781-41.175781 22.707032 0 41.175782 18.472656 41.175782 41.175781zm0 0"/><path d="m104.640625 133.691406c0 10.660156 6.722656 19.011719 15.304687 19.011719 8.582032 0 15.304688-8.351563 15.304688-19.011719 0-10.65625-6.722656-19.007812-15.304688-19.007812-8.582031 0-15.304687 8.351562-15.304687 19.007812zm0 0"/><path d="m492.972656 188.871094c-20.765625-37.21875-56.792968-65.75-107.085937-84.808594-3.328125-1.261719-6.71875-2.464844-10.074219-3.578125-3.953125-1.308594-8.21875.835937-9.527344 4.789063-1.308594 3.953124.832032 8.21875 4.785156 9.527343 3.15625 1.046875 6.339844 2.175781 9.472657 3.363281 46.878906 17.765626 80.273437 44.027344 99.257812 78.054688 16.167969 28.976562 21 62.519531 13.96875 97.003906-6.375 31.28125-36.6875 69.65625-90.027343 84.875-3.796876 1.082032-6.152344 5.054688-5.285157 8.910156.9375 4.164063 5.316407 6.761719 9.425781 5.589844 42.816407-12.214844 90.550782-46.75 100.664063-96.363281 7.761719-38.0625 2.375-75.191406-15.574219-107.363281zm0 0"/><path d="m376.097656 382.351562c-19.667968-.074218-38.710937-3.886718-51.21875-7.070312-5.011718-1.277344-8.082031-6.414062-6.839844-11.453125 1.238282-5.011719 6.308594-8.132813 11.300782-6.96875 12.328125 2.882813 26.921875 3.597656 43.382812 2.121094 28.695313-2.574219 54.648438-20.589844 66.117188-45.902344 9.066406-20.007813 7.460937-40.808594-4.410156-57.070313-11.929688-16.347656-28.722657-23.753906-48.566407-21.410156-14.394531 1.695313-25.324219 8.066406-25.78125 8.335938-1.058593.625-1.945312 1.5-2.589843 2.546875l-37.914063 61.679687c-2.941406 4.785156-8.261719 7.757813-13.878906 7.757813h-46.648438c1.65625-5.613281 5.761719-9.871094 12.402344-12.914063 7.921875-3.628906 16.335937-4.03125 16.402344-4.03125 2.574219-.097656 4.921875-1.503906 6.222656-3.726562l24.015625-41.007813c2.894531-4.941406-.796875-11.347656-6.507812-11.347656h-91.625c-2.617188 0-5.050782 1.359375-6.421876 3.589844l-15.460937 25.152343c-2.183594 3.546876-1.074219 8.191407 2.472656 10.375 3.550781 2.179688 8.195313 1.070313 10.375-2.476562l13.253907-21.5625h74.253906l-15.425782 26.335938c-4.15625.554687-10.78125 1.835937-17.382812 4.785156-15.074219 6.730468-23.058594 19.039062-22.472656 34.652344.148437 4.050781 3.480468 7.257812 7.535156 7.257812h55.011719c10.820312 0 21.058593-5.726562 26.726562-14.941406l36.839844-59.929688c2.964844-1.476562 9.984375-4.566406 18.359375-5.554687 14.320312-1.699219 25.972656 3.472656 34.621094 15.324219 8.574218 11.75 9.617187 27.042968 2.859375 41.960937-9.261719 20.441406-30.355469 35.003906-53.730469 37.101563-14.855469 1.332031-27.84375.730468-38.601562-1.785157-12.988282-3.039062-26.167969 5.058594-29.375 18.042969-3.21875 13.050781 4.746093 26.367188 17.761718 29.679688 13.328125 3.390624 33.671875 7.457031 54.878906 7.535156h.03125c4.148438 0 7.523438-3.359375 7.539063-7.511719.015625-4.167969-3.347656-7.554687-7.511719-7.570313zm0 0"/><path d="m192.648438 293.863281c-3.546876-2.179687-8.191407-1.074219-10.371094 2.472657l-6.652344 10.820312c-2.941406 4.785156-8.261719 7.761719-13.878906 7.761719h-46.648438c1.65625-5.613281 5.761719-9.871094 12.402344-12.914063 7.921875-3.628906 16.339844-4.03125 16.402344-4.035156 2.574218-.097656 4.921875-1.5 6.222656-3.722656l22.851562-39.019532c29.066407-14.152343 39.128907-32.597656 39.640626-33.574218 1.945312-3.683594.53125-8.246094-3.152344-10.1875s-8.246094-.53125-10.1875 3.152344c-.128906.242187-13.351563 24.496093-57.285156 35.9375-31.078126 8.089843-57.597657-6.828126-69.9375-15.742188 4.949218-3.75 9.335937-7.78125 13.175781-11.3125 5.074219-4.667969 10.828125-9.957031 13.707031-10.4375 5.035156-.84375 8.101562.347656 13.183594 2.316406 6.90625 2.671875 15.503906 6.003906 31.105468 4.832032 29.621094-2.222657 41.65625-25.636719 42.152344-26.632813 1.863282-3.722656.363282-8.273437-3.359375-10.136719-3.726562-1.863281-8.246093-.378906-10.105469 3.347656-.355468.6875-8.929687 16.816407-29.816406 18.382813-12.207031.914063-18.472656-1.511719-24.53125-3.859375-5.898437-2.285156-12-4.640625-21.109375-3.128906-7.304687 1.21875-13.851562 7.242187-21.433593 14.214844-13.09375 12.042968-27.9375 25.695312-48.121094 17.953124-5.558594-2.132812-9.078125-6.789062-10.765625-14.238281-7.773438-34.324219 24.800781-97.21875 60.101562-134.425781 25.117188-26.476562 54.722657-47.136719 83.355469-58.171875 24.320312-9.375 45.757812-10.523437 55.933594-2.988281 15.699218 11.613281 16.34375 59.488281 13.066406 86.929687-.691406 5.761719 5.433594 10.183594 10.695312 7.722657.417969-.195313 42.679688-19.480469 103.527344-7.769532 4.089844.785156 8.042969-1.890625 8.828125-5.980468.789063-4.089844-1.886719-8.042969-5.980469-8.828126-46.972656-9.039062-83.300781-1.121093-101 4.507813 1.574219-23.496094 1.9375-72.351563-20.164062-88.703125-14.71875-10.894531-40.351562-10.515625-70.332031 1.039062-30.679688 11.824219-62.242188 33.792969-88.871094 61.863282-21.167969 22.3125-39.425781 49.886718-51.40625 77.648437-12.023437 27.859375-16.449219 52.890625-12.464844 70.488281 2.804688 12.386719 9.746094 21.027344 20.074219 24.988282 6.050781 2.320312 11.75 3.3125 17.113281 3.3125 7.140625 0 13.675781-1.765625 19.628907-4.488282 9.320312 7.683594 33.605468 24.765626 65.25 24.765626 7.09375 0 14.558593-.859376 22.304687-2.875 1.582031-.414063 3.132813-.84375 4.648437-1.285157l-11.386718 19.441407c-4.15625.554687-10.78125 1.835937-17.382813 4.785156-15.078125 6.730468-23.058593 19.039062-22.476562 34.648437.152343 4.054688 3.480469 7.261719 7.535156 7.261719h55.015625c10.820312 0 21.058594-5.726562 26.726562-14.945312l6.648438-10.820313c2.179688-3.546875 1.070312-8.191406-2.476562-10.371094zm0 0"/></svg>