<svg height="511pt" viewBox="0 -65 511.99963 511" width="511pt" xmlns="http://www.w3.org/2000/svg"><path d="m131.175781 128.800781s-11.9375-95.925781 88.003907-115.726562c99.941406-19.800781 156.511718 28.578125 156.511718 28.578125l-34.648437 26.90625s72.835937-7.675782 124.460937 32.769531l-45.96875 19.234375s52.332032 12.730469 84.152344 57.988281h-43.84375s48.796875 59.398438 43.84375 121.628907l-84.601562-20.527344" fill="#dd8858"/><path d="m503.3125 277.917969-369.464844-186.3125c-4.714844 20.710937-2.671875 37.195312-2.671875 37.195312l287.910157 150.851563 84.601562 20.527344c.597656-7.496094.40625-14.949219-.375-22.261719zm0 0" fill="#d97f4a"/><path d="m326.554688 281.386719c-21.742188 38.824219 4.625 61.300781 4.625 61.300781-44.53125 4.050781-45.109376 31.808594-45.109376 31.808594h117.980469c45.109375-53.78125 15.035157-94.84375 15.035157-94.84375l-287.910157-150.851563s-33.496093 61.882813-60.179687 63.585938c-13.304688.847656-24.070313-.417969-31.519532-1.902344-8.285156-1.652344-16.707031 2.703125-19.980468 10.492187-4.234375 10.066407-6.339844 24.273438 5.210937 37.699219 21.007813 24.414063 79.21875 57.605469 114.984375 61.578125l-12.660156 43.59375s-38.167969 15.613282-37.011719 30.648438h69.976563l23.710937-68.820313s76.128907 15.378907 135.117188 14.21875" fill="#ffcb9d"/><path d="m419.085938 279.652344-29.824219-15.628906c9.035156 31.550781 15.085937 77.925781-12.210938 110.472656h27c45.109375-53.785156 15.035157-94.84375 15.035157-94.84375zm0 0" fill="#ffba7e"/><path d="m148.300781 330.074219-15.304687 44.421875h27l22.15625-64.296875c-.15625-.027344-.308594-.050781-.464844-.074219-14.503906-2.363281-28.597656 6.054688-33.386719 19.949219zm0 0" fill="#ffba7e"/><path d="m159.832031 155.691406s-2.875-41.402344 27.503907-42.632812c35.003906-1.417969 44.597656 43.511718 11.242187 57.617187" fill="#ffcb9d"/><path d="m502.226562 239.082031c-1.394531-3.910156-5.695312-5.941406-9.601562-4.550781-3.90625 1.394531-5.945312 5.695312-4.550781 9.601562 5.855469 16.398438 8.835937 32.078126 8.898437 46.746094l-74.921875-18.183594-114.542969-60.011718c-3.675781-1.925782-8.214843-.511719-10.144531 3.167968-1.921875 3.675782-.503906 8.214844 3.171875 10.140626l113.632813 59.539062c4.238281 6.960938 20.421875 39.285156-13.414063 81.75h-104.375c3.875-6.4375 13.199219-14.832031 35.617188-16.867188 3.011718-.273437 5.566406-2.328124 6.480468-5.207031.914063-2.882812.015626-6.035156-2.285156-7.996093-.21875-.183594-21.503906-18.898438-2.953125-52.023438 2.027344-3.621094.734375-8.199219-2.886719-10.226562-3.621093-2.027344-8.199218-.734376-10.226562 2.882812-7.496094 13.390625-9.769531 25.140625-9.527344 34.792969-12.722656-.066407-27.023437-.820313-42.640625-2.246094-43.234375-3.957031-82.5-11.824219-82.890625-11.90625-3.699218-.746094-7.363281 1.359375-8.589844 4.917969l-22.007812 63.878906h-52.425781c5.621093-5.058594 15.679687-11.347656 27.605469-16.238281 2.121093-.867188 3.730468-2.65625 4.367187-4.859375l12.679687-43.667969c.621094-2.128906.265626-4.425781-.964843-6.269531-1.234375-1.84375-3.214844-3.050782-5.417969-3.292969-33.859375-3.761719-90.855469-36.496094-110.324219-59.125-3.566406-4.144531-5.714843-8.640625-6.460937-13.445313 11.203125-.84375 20.074218-10.15625 20.214844-21.539062 8.722656 1.246094 18.070312 1.609375 27.398437 1.011719 13.574219-.867188 28.527344-12.476563 45.710937-35.492188 7.371094-9.871093 13.410157-19.566406 17.027344-25.6875l18.332032 9.605469c-.261719 4.4375-.070313 7.484375-.046876 7.835938.289063 4.140624 3.875 7.253906 8.015626 6.972656 4.140624-.285156 7.261718-3.875 6.976562-8.015625-.015625-.191407-1.082031-19.320313 7.660156-29.078125 3.179688-3.550782 7.335938-5.382813 12.699219-5.601563 9.0625-.378906 20.679687 3.757813 23.554687 16.597657 1.644532 7.34375-.332031 17.375-10.285156 23.917968-.144531.089844-.285156.179688-.421875.277344-1.441406.910156-3.039062 1.75-4.816406 2.5-3.820313 1.617188-5.609375 6.027344-3.992187 9.847656.953124 2.253906 2.992187 3.929688 5.386718 4.429688 2.878906.601562 5.472656-.796875 7.957032-2.078125l71.53125 37.476562c3.632812 1.902344 8.242187.457031 10.144531-3.167969 1.921875-3.675781.503906-8.214843-3.171875-10.140624l-65.542969-34.34375c8.113281-9.628907 10.167969-21.765626 7.875-32.003907-3.300781-14.746093-16.558594-29.210937-38.828125-28.328125-9.5.386719-17.332031 3.949219-23.28125 10.589844-4.371094 4.875-7.101562 10.863281-8.808594 16.710938l-16.6875-8.742188c-.539062-11.574219.054688-47.261719 24.886719-74.078125 2.820313-3.046875 2.636719-7.800781-.40625-10.621094-3.046875-2.816406-7.800781-2.632812-10.621094.410157-30.644531 33.09375-29.5625 76.472656-28.734375 87.410156-12.59375 22.628906-37.117187 56.78125-53.070312 57.800781-12.96875.824219-23.269532-.511719-29.625-1.777344-1.242188-.246093-2.484375-.378906-3.71875-.441406-3.917969-3.679687-9.179688-5.941406-14.964844-5.941406-12.0625.003906-21.875 9.816406-21.875 21.875 0 6.910156 3.222656 13.074219 8.238281 17.085937-.210937 10.148438 3.269531 19.730469 10.359375 27.972656 20.214844 23.492188 72.980469 54.96875 111.300782 62.847657l-9.332032 32.128906c-3.789062 1.714844-10.234375 4.820313-16.675781 8.785156-15.296875 9.414063-22.382813 18.566407-21.660156 27.976563.300781 3.914062 3.566406 6.9375 7.492187 6.9375h70.101563c3.207031 0 6.0625-2.035156 7.105469-5.066406l21.632812-62.792969c13.101562 2.425781 44.382812 7.828125 78.027344 10.90625 17.125 1.566406 32.761718 2.34375 46.585937 2.316406.199219.597656.398438 1.183594.609375 1.746094 1.121094 3.03125 2.433594 5.714843 3.777344 8.046875-37.875 8.566406-38.921875 35.898437-38.949219 37.175781-.085937 4.148437 3.359375 7.667969 7.511719 7.667969h118.191406c2.222656 0 4.328125-.984375 5.753906-2.683594 25.050782-29.867188 28.070313-56.382812 26.191407-73.367188-.65625-5.90625-1.929688-11.105468-3.382813-15.46875l69.480469 16.859376c4.429687 1.078124 8.902344-2.175782 9.261719-6.707032 1.535156-19.285156-1.625-40.097656-9.394532-61.859375zm0 0"/><path d="m184.769531 32.832031c10.285157-5.785156 22.332031-10.070312 35.804688-12.738281 49.65625-9.835938 87.890625-1.996094 111.222656 6.320312 14.332031 5.105469 24.96875 11.015626 31.523437 15.199219l-26.734374 20.761719c-2.648438 2.054688-3.609376 5.617188-2.363282 8.730469 1.25 3.113281 4.40625 5.019531 7.753906 4.671875.648438-.0625 60.890626-5.878906 108.417969 23.691406l-33.464843 14.003906c-2.996094 1.253906-4.84375 4.289063-4.589844 7.523438s2.558594 5.941406 5.714844 6.707031c.445312.109375 40.640624 10.214844 70.476562 43.277344h-28.320312c-2.902344 0-5.546876 1.675781-6.789063 4.300781s-.859375 5.734375.980469 7.980469c.109375.132812 11.207031 13.769531 21.964844 34.316406 1.339843 2.5625 3.953124 4.03125 6.660156 4.03125 1.175781 0 2.367187-.277344 3.480468-.859375 3.675782-1.925781 5.09375-6.464844 3.171876-10.140625-5.21875-9.96875-10.464844-18.355469-14.691407-24.601563h29.144531c2.804688 0 5.375-1.558593 6.667969-4.046874 1.292969-2.492188 1.089844-5.492188-.523437-7.785157-21.105469-30.023437-50.410156-46.359375-69.472656-54.402343l27.972656-11.707032c2.460937-1.027344 4.191406-3.285156 4.546875-5.925781s-.714844-5.277344-2.8125-6.917969c-35.605469-27.902344-80.074219-34.039062-106.75-34.929687l16.753906-13.007813c1.785156-1.386718 2.847656-3.5 2.902344-5.757812.054687-2.257813-.910157-4.417969-2.628907-5.886719-.617187-.53125-15.527343-13.121094-43.183593-23.109375-45.730469-16.515625-90.472657-13.019531-119.953125-7.179688-15.035156 2.980469-28.574219 7.816407-40.246094 14.378907-3.617188 2.035156-4.902344 6.613281-2.867188 10.230469 2.03125 3.621093 6.613282 4.902343 10.230469 2.871093zm0 0"/><path d="m101.777344 212.378906c0 10.625 6.699218 18.941406 15.25 18.941406 8.550781 0 15.25-8.320312 15.25-18.941406s-6.699219-18.9375-15.25-18.9375c-8.550782 0-15.25 8.320313-15.25 18.9375zm0 0"/></svg>