<svg height="512pt" viewBox="0 -44 512.00066 512" width="512pt" xmlns="http://www.w3.org/2000/svg"><path d="m173.492188 49.707031c-1.550782-5.015625-2.261719-10.144531-1.933594-14.726562.4375-6.074219 2.722656-11.570313 6.257812-15.988281-4.695312-4.492188-10.921875-7.433594-17.910156-7.933594-15.933594-1.144532-29.773438 10.84375-30.914062 26.777344-.582032 8.105468 2.074218 17.925781 6.921874 25.777343 9.527344-6.738281 21.488282-12.023437 37.578126-13.90625zm0 0" fill="#d8d1d7"/><path d="m483.367188 189.503906c-55.5625-73.539062-127.46875-31.050781-187.933594-50.660156-47.667969-15.460938-39.996094-62.394531-72.234375-81.574219 3.417969-5.820312 5.636719-12.308593 6.054687-18.152343 1.144532-15.933594-10.847656-29.773438-26.777344-30.917969-15.933593-1.140625-29.773437 10.847656-30.917968 26.78125-.328125 4.582031.382812 9.710937 1.933594 14.726562-63.304688 7.402344-62.78125 67.488281-101.128907 61.351563-40.855469-6.535156-56.378906 8.171875-62.914062 49.84375-6.539063 41.675781 13.070312 88.25 74.355469 101.320312 20.203124 4.3125 39.875 1.78125 57.167968-3.546875 5.257813 71.195313 38.199219 125.265625 53.808594 147.238281 4.785156 6.738282 12.523438 10.742188 20.789062 10.742188h16.585938c11.726562 0 21.941406-8 24.75-19.386719l9.925781-40.261719h125.835938l9.925781 40.261719c2.808594 11.386719 13.023438 19.386719 24.75 19.386719h19.886719c10.246093 0 19.496093-6.128906 23.480469-15.570312 17.246093-40.894532 57.464843-152.277344 12.65625-211.582032zm0 0" fill="#e6e2e6"/><g fill="#d8d1d7"><path d="m202.253906 39.117188c-.417968 5.84375-2.636718 12.332031-6.054687 18.152343 32.238281 19.179688 24.566406 66.117188 72.234375 81.574219 19.332031 6.269531 39.832031 6.191406 60.59375 5.585938-11.460938-.542969-22.714844-2.058594-33.59375-5.585938-47.667969-15.457031-39.996094-62.394531-72.234375-81.574219 3.417969-5.820312 5.636719-12.308593 6.054687-18.152343 1.140625-15.929688-10.847656-29.773438-26.78125-30.914063-5.601562-.402344-10.941406.824219-15.5625 3.269531 9.828125 5.195313 16.191406 15.84375 15.34375 27.644532zm0 0"/><path d="m229.90625 397.269531c-2.382812 9.664063-10.109375 16.871094-19.5625 18.835938 1.703125.355469 3.453125.550781 5.226562.550781h16.585938c11.726562 0 21.941406-8 24.75-19.386719l9.925781-40.261719c-15.855469 0-29.667969 10.820313-33.460937 26.214844zm0 0"/><path d="m483.367188 189.503906c-34.523438-45.691406-75.351563-46.59375-115.828126-45.425781 31.335938 1.453125 61.988282 9.902344 88.828126 45.425781 44.808593 59.304688 4.589843 170.6875-12.65625 211.582032-3.507813 8.320312-11.105469 14.058593-19.871094 15.308593 1.152344.160157 2.316406.261719 3.503906.261719h19.886719c10.246093 0 19.496093-6.125 23.480469-15.570312 17.246093-40.894532 57.464843-152.277344 12.65625-211.582032zm0 0"/></g><path d="m153.964844 297.183594c-2.476563-10.980469-4.257813-22.082032-5.324219-33.09375 33.328125-11.6875 56.621094-32.050782 57.648437-32.960938 3.109376-2.75 3.402344-7.496094.65625-10.609375-2.746093-3.113281-7.5-3.40625-10.617187-.664062-.242187.214843-24.707031 21.539062-57.878906 31.761719-.011719.003906-.019531.003906-.027344.007812-18.855469 5.808594-36.875 6.949219-53.554687 3.390625-26.246094-5.597656-46.308594-18.296875-58.015626-36.730469-10.105468-15.902344-13.90625-35.921875-10.699218-56.367187 3.296875-21.011719 8.597656-33.167969 17.191406-39.410157 7.914062-5.746093 19.761719-7.121093 37.292969-4.316406 22.167969 3.550782 34.15625-11.070312 45.75-25.203125 12.566406-15.3125 26.8125-32.671875 57.734375-36.285156 4.597656-.539063 7.679687-5.265625 6.3125-9.695313-1.300782-4.203124-1.875-8.46875-1.621094-12.011718.410156-5.722656 3.023438-10.945313 7.363281-14.703125 8.855469-7.667969 22.640625-6.675781 30.304688 2.175781 3.757812 4.335938 5.601562 9.878906 5.191406 15.601562-.328125 4.578126-2.171875 10.023438-5.054687 14.933594-2.097657 3.566406-.917969 8.160156 2.636718 10.273438 11.980469 7.125 17.644532 18.835937 24.203125 32.390625 9.132813 18.886719 19.492188 40.292969 49.769531 50.113281 22.367188 7.257812 46.035157 6.511719 68.925782 5.796875 7.992187-.25 16.261718-.507813 24.296875-.417969 2.394531.027344 4.734375.089844 6.964843.179688 4.15625.160156 7.648438-3.0625 7.820313-7.210938.167969-4.152344-3.0625-7.652344-7.214844-7.820312-2.371093-.097656-4.859375-.160156-7.394531-.191406-8.367188-.101563-16.792969.167968-24.945312.421874-22.59375.707032-43.933594 1.378907-63.8125-5.066406-24.171876-7.839844-32.28125-24.605468-40.867188-42.359375-6.0625-12.523437-12.296875-25.417969-24.222656-34.773437 2.195312-5.09375 3.550781-10.324219 3.898437-15.195313.699219-9.734375-2.433593-19.152343-8.824219-26.527343-6.386718-7.375-15.265624-11.824219-24.996093-12.5195318-9.46875-.6835942-18.652344 2.2812498-25.9375 8.3359378-5.027344-3.140625-10.785157-5.046875-16.757813-5.472656-20.078125-1.449219-37.605468 13.730468-39.046875 33.820312-.550781 7.671875 1.21875 16.359375 4.8125 24.253906-8.609375 7.113282-15.207031 15.148438-21.167969 22.410156-11.898437 14.5-18.714843 21.980469-31.746093 19.886719-21.730469-3.472656-37.148438-1.25-48.507813 7.003907-12.089844 8.78125-19.246094 23.96875-23.214844 49.25-3.773437 24.058593.796876 47.769531 12.863282 66.765624 13.925781 21.917969 37.292968 36.914063 67.574218 43.375 16.539063 3.527344 34.066407 3.09375 52.230469-1.285156 1.148438 10.679688 2.933594 21.421875 5.328125 32.046875.914063 4.050781 5.097656 6.644531 9.132813 5.648438 3.929687-.960938 6.433593-5.007813 5.546875-8.953125zm-17.84375-259.324219c.808594-11.296875 10.261718-19.949219 21.414062-19.949219 3.453125 0 6.882813.839844 9.941406 2.4375-3.484374 7.054688-4.398437 14.949219-3.308593 22.695313-8.929688 1.769531-17.625 4.824219-25.574219 9.28125-1.855469-4.917969-2.785156-10.121094-2.472656-14.464844zm0 0"/><path d="m490.039062 184.902344c-17.367187-22.984375-37.957031-37.371094-62.949218-43.988282-4.015625-1.070312-8.132813 1.332032-9.195313 5.347657-1.066406 4.015625 1.328125 8.132812 5.34375 9.195312 21.917969 5.804688 39.328125 18.039063 54.796875 38.515625 29.164063 38.59375 19.40625 102.316406 6.085938 148.976563-1.082032 3.789062 1.046875 7.878906 4.765625 9.171875 4.027343 1.398437 8.53125-.945313 9.699219-5.039063 14.257812-49.953125 24.351562-118.636719-8.546876-162.179687zm0 0"/><path d="m483.96875 368.683594c-3.902344-1.40625-8.214844.625-9.621094 4.535156-3.101562 8.644531-6.445312 17.222656-9.933594 25.5-2.824218 6.691406-9.347656 11.019531-16.621093 11.019531h-19.945313c-8.320312 0-15.523437-5.644531-17.515625-13.726562l-9.957031-40.378907c-.828125-3.359374-3.84375-5.71875-7.304688-5.71875h-126.203124c-3.460938 0-6.476563 2.359376-7.304688 5.71875l-9.957031 40.378907c-1.992188 8.082031-9.195313 13.726562-17.519531 13.726562h-16.632813c-5.832031 0-11.335937-2.84375-14.722656-7.609375-9.210938-12.964844-26.503907-40.164062-38.808594-76.644531-1.328125-3.933594-5.59375-6.050781-9.535156-4.722656-3.933594 1.328125-6.050781 5.597656-4.722657 9.53125 12.925782 38.308593 31.113282 66.910156 40.800782 80.550781 6.203125 8.726562 16.289062 13.9375 26.984375 13.9375h16.636719c15.261718 0 28.472656-10.347656 32.125-25.167969l8.546874-34.65625h114.417969l8.546875 34.65625c3.65625 14.820313 16.863282 25.167969 32.125 25.167969h19.945313c13.335937 0 25.300781-7.933594 30.480469-20.214844 3.597656-8.527344 7.039062-17.363281 10.234374-26.261718 1.40625-3.910157-.628906-8.21875-4.539062-9.621094zm0 0"/><path d="m142.085938 121.886719c0 10.632812 6.703124 18.960937 15.265624 18.960937s15.265626-8.328125 15.265626-18.960937c0-10.636719-6.703126-18.964844-15.265626-18.964844s-15.265624 8.328125-15.265624 18.964844zm0 0"/><path d="m36.683594 146.964844v10.742187c0 4.15625 3.367187 7.523438 7.523437 7.523438 4.152344 0 7.519531-3.367188 7.519531-7.523438v-10.742187c0-4.15625-3.367187-7.523438-7.519531-7.523438-4.15625 0-7.523437 3.367188-7.523437 7.523438zm0 0"/></svg>