<svg height="511pt" viewBox="0 -29 511.99987 511" width="511pt" xmlns="http://www.w3.org/2000/svg"><path d="m80.605469 100.433594-62.625 44.832031c-8.933594 6.394531-12.117188 18.253906-7.464844 28.203125 8.664063 18.527344 27.085937 44.242188 62.03125 41.746094 21.851563-1.558594 44.175781-8.679688 63.03125-16.617188 27.8125-11.707031 41.488281-43.226562 31.128906-71.570312-12.847656-35.152344-55.667969-48.378906-86.101562-26.59375zm0 0" fill="#ffcb9d"/><path d="m166.707031 127.027344c-1.390625-3.804688-3.148437-7.332032-5.1875-10.605469 2.226563 24-11.125 47.5625-34.332031 57.332031-18.851562 7.933594-41.175781 15.054688-63.027344 16.617188-27.867187 1.988281-45.214844-13.957032-55.5-29.894532-.652344 4.304688-.097656 8.8125 1.855469 12.992188 8.664063 18.527344 27.085937 44.242188 62.03125 41.746094 21.851563-1.5625 44.175781-8.683594 63.027344-16.617188 27.816406-11.710937 41.492187-43.230468 31.132812-71.570312zm0 0" fill="#ffba7e"/><path d="m455.195312 195.441406c-15.929687-13.683594-36.425781-20.871094-57.421874-20.871094h-106.851563c-64.367187 28.480469-16.765625 116.929688-112.679687 124.230469-4.304688.328125-8.449219.390625-12.449219.226563 11.449219 23.964844 17.429687 50.210937 17.429687 76.832031v45.550781c0 12.707032 10.300782 23.007813 23.007813 23.007813s23.007812-10.300781 23.007812-23.007813v-94.5h134.042969c12.765625 33.1875 50.421875 41.488282 50.421875 41.488282v55.164062c0 11.519531 9.339844 20.855469 20.855469 20.855469 10.058594 0 18.679687-7.167969 20.507812-17.054688 3.945313-21.324219 11.972656-72.074219 25.660156-136.652343 10.515626-49.625-6.179687-78.648438-25.53125-95.269532zm0 0" fill="#ffcb9d"/><path d="m455.195312 195.441406c-15.929687-13.683594-36.425781-20.871094-57.421874-20.871094h-27c20.996093 0 41.492187 7.1875 57.421874 20.871094 19.351563 16.621094 36.046876 45.644532 25.53125 95.269532-13.6875 64.578124-21.714843 115.328124-25.660156 136.652343-.898437 4.863281-3.449218 9.066407-7 12.082031 3.640625 3.09375 8.34375 4.972657 13.496094 4.972657 10.054688 0 18.675781-7.167969 20.507812-17.054688 3.941407-21.324219 11.96875-72.074219 25.65625-136.652343 10.515626-49.625-6.179687-78.648438-25.53125-95.269532zm0 0" fill="#ffba7e"/><path d="m202.238281 421.410156c0 7.660156-3.746093 14.445313-9.507812 18.625 3.796875 2.757813 8.464843 4.382813 13.515625 4.382813 12.648437-.007813 22.992187-10.90625 22.992187-23.558594v-93.949219c-14.910156 0-27 12.085938-27 27zm0 0" fill="#ffba7e"/><path d="m154.785156 8.8125c-72.035156.175781-90.796875 59.109375-94.308594 106.03125l20.128907-14.410156c30.433593-21.785156 73.253906-8.5625 86.101562 26.59375 10.359375 28.339844-3.316406 59.859375-31.128906 71.570312-18.789063 7.90625-41.027344 15.003906-62.808594 16.597656 13.285157 38.652344 42.664063 88.386719 105.476563 83.605469 95.910156-7.300781 48.308594-95.75 112.675781-124.230469 0 0-22.179687-166.039062-136.136719-165.757812zm0 0" fill="#ad5e2e"/><path d="m179.808594 11.625c24.1875 11.402344 43.984375 29.878906 56.492187 50.15625 25.089844 40.667969 26.390625 91.285156 5.347657 134.1875-18.265626 37.234375-18.472657 88.355469-90.40625 93.832031-8.324219.632813-16.054688.300781-23.246094-.828125 13.753906 7.367188 30.3125 11.347656 50.246094 9.828125 95.914062-7.300781 48.3125-95.75 112.679687-124.230469 0 0-18.851563-141.144531-111.113281-162.945312zm0 0" fill="#a05528"/><path d="m147.808594 75.882812s4.015625-21.433593 22.355468-17.707031c18.339844 3.730469 21.445313 27.027344 8.707032 36.347657zm0 0" fill="#ffcb9d"/><path d="m171.386719 50.195312c-6.898438-1.402343-13.359375-.253906-18.675781 3.324219-9.820313 6.613281-12.398438 19.039063-12.660157 20.4375-.578125 3.089844.828125 6.21875 3.527344 7.839844l31.175781 18.707031c2.570313 1.539063 5.902344 1.386719 8.320313-.378906 8.570312-6.277344 12.554687-17.445312 10.140625-28.460938-2.40625-10.996093-10.769532-19.222656-21.828125-21.46875zm5.878906 34.257813-20.785156-12.472656c1.042969-2.230469 2.578125-4.605469 4.679687-6 1.238282-.824219 3.332032-1.824219 7.226563-1.035157 7.507812 1.527344 9.582031 7.457032 10.125 9.9375.75 3.441407.261719 6.855469-1.246094 9.570313zm0 0"/><path d="m107.394531 161.085938c8.566407 0 15.277344-8.335938 15.277344-18.972657 0-10.640625-6.710937-18.976562-15.277344-18.976562-8.566406 0-15.273437 8.335937-15.273437 18.976562 0 10.636719 6.707031 18.972657 15.273437 18.972657zm0 0"/><path d="m500.335938 228.632812c-9.140626-14.617187-21.046876-21.910156-25.796876-24.390624-3.800781-5.113282-8.324218-10.015626-13.6875-14.625-17.089843-14.679688-39.296874-22.761719-62.53125-22.761719h-100.828124c-2.402344-13.554688-9.335938-46.082031-25.042969-78.996094-27.328125-57.273437-68.113281-87.496094-118.015625-87.359375-34.996094.085938-61.675782 13.167969-79.304688 38.886719-12.351562 18.023437-19.914062 41.890625-22.523437 70.953125l-39.832031 28.515625c-11.945313 8.550781-16.117188 24.367187-9.925782 37.613281 14.003906 29.945312 36.613282 46.238281 64.066406 46.394531 8.625 23.191407 20.121094 41.996094 34.222657 55.941407 16.703125 16.515624 36.628906 25.785156 59.410156 27.714843 9.769531 21.902344 14.921875 45.964844 14.921875 69.878907v45.714843c0 16.882813 13.734375 30.617188 30.617188 30.617188 16.882812 0 30.617187-13.734375 30.617187-30.617188v-30.226562c0-4.15625-3.371094-7.523438-7.527344-7.523438s-7.527343 3.367188-7.527343 7.523438v30.226562c0 8.582031-6.980469 15.5625-15.5625 15.5625-8.582032 0-15.566407-6.980469-15.566407-15.5625v-45.714843c0-23.753907-4.675781-47.632813-13.574219-69.738282.542969-.035156 1.078126-.054687 1.625-.09375 59.480469-4.527344 69.355469-39.355468 78.066407-70.085937l1.039062-3.644531c1.144531-3.996094-1.167969-8.164063-5.164062-9.308594-3.992188-1.144532-8.164063 1.167968-9.308594 5.164062l-1.046875 3.683594c-8.4375 29.753906-15.722656 55.449219-64.730469 59.179688-52.847656 4.027343-80.558593-33.90625-94.875-69.960938 17.058594-2.390625 35.6875-7.800781 55.546875-16.160156 31.648438-13.324219 47.195313-49.058594 35.390625-81.351563-6.960937-19.042969-22.0625-33.398437-41.4375-39.378906-19.375-5.984375-39.9375-2.644531-56.425781 9.15625l-6.414062 4.59375c3.195312-20.453125 9.335937-37.417969 18.339843-50.558594 14.65625-21.386719 37.171875-32.269531 66.921875-32.34375 44.171875-.113281 79.253906 26.296875 104.242188 78.480469 15.136718 31.601562 21.851562 63.675781 24.042968 76.042969-12.359374 6.625-21.726562 16.152343-28.527343 28.972656-1.800781 3.390625-.691407 7.714844 2.515625 9.820313 3.660156 2.402343 8.730468 1.097656 10.78125-2.765626 5.9375-11.191406 13.980468-18.90625 25.214844-24.191406h105.578124c19.636719 0 38.359376 6.792969 52.722657 19.128906 23.511719 20.195313 31.304687 49.917969 23.164062 88.34375-1.902343 8.96875-3.789062 18.128907-5.613281 27.21875-.785156 3.914063 1.742188 7.871094 5.625 8.800782 4.09375.980468 8.308594-1.710938 9.136719-5.839844 1.8125-9.035156 3.6875-18.140625 5.578125-27.058594 3.148437-14.855468 4.828125-32.609375 1.667968-50.375 9.132813 19.011719 8.417969 44.210938-2.175781 73.386719-1.328125 3.652344.4375 7.839844 3.984375 9.433594 3.941406 1.769531 8.691406-.238281 10.164063-4.296875 9.269531-25.523438 16.402343-62.207032-2.238281-92.019532zm-415.949219-122.53125c8.515625-6.09375 18.449219-9.242187 28.566406-9.242187 4.886719 0 9.820313.734375 14.65625 2.226563 14.839844 4.582031 26.40625 15.578124 31.738281 30.164062 9.042969 24.738281-2.855468 52.105469-27.09375 62.308594-22.324218 9.398437-42.804687 14.816406-60.871094 16.109375-27.914062 1.988281-44.117187-16.5625-53.113281-33.949219 9.9375-4.148438 16.804688-13.898438 16.804688-25.382812 0-2.148438-.261719-4.292969-.761719-6.386719zm0 0"/><path d="m471.613281 340.257812c-4.085937-.769531-8.023437 1.914063-8.796875 6-4.605468 24.339844-8.21875 45.164063-10.855468 60.367188-1.457032 8.394531-2.605469 15.023438-3.542969 20.09375-1.175781 6.351562-6.714844 10.957031-13.179688 10.957031-7.390625 0-13.40625-6.011719-13.40625-13.40625v-55.359375c0-3.519531-2.457031-6.574218-5.886719-7.347656-.339843-.078125-34.066406-7.992188-45.21875-36.992188-1.121093-2.910156-3.910156-4.828124-7.027343-4.828124h-134.523438c-4.15625 0-7.527343 3.371093-7.527343 7.527343v34.511719c0 4.15625 3.371093 7.527344 7.527343 7.527344s7.527344-3.371094 7.527344-7.527344v-26.984375h122.046875c12.046875 25.222656 36.683594 36.003906 48.03125 39.769531v49.703125c0 15.695313 12.765625 28.460938 28.457031 28.460938 13.71875 0 25.488281-9.785157 27.980469-23.273438.953125-5.152343 2.113281-11.816406 3.574219-20.253906 2.632812-15.160156 6.234375-35.917969 10.816406-60.148437.773437-4.085938-1.910156-8.023438-5.996094-8.796876zm0 0"/></svg>