<svg height="512pt" viewBox="-12 0 512 512.00165" width="512pt" xmlns="http://www.w3.org/2000/svg"><path d="m111.292969 117.8125v-97.324219c0-.789062.074219-1.550781.203125-2.289062-4.695313-3.085938-9.402344-5.8125-13.824219-8.164063-10.707031-5.695312-23.625 2.039063-23.625 14.167969v111.117187c20.234375-10.800781 37.246094-17.507812 37.246094-17.507812zm0 0" fill="#ffdca7"/><path d="m447.386719 400.609375c-1.28125 15.082031-5.660157 28.566406-11.710938 40.421875-5.066406 9.917969-11.464843 18.871094-18.910156 26.71875 6.839844 6.117188 15.863281 9.839844 25.757813 9.839844 21.34375 0 38.648437-17.300782 38.648437-38.648438 0-19.695312-14.738281-35.9375-33.785156-38.332031zm0 0" fill="#ffdca7"/><path d="m438.042969 344.050781c-42.082031-105.195312-224.261719-143.484375-224.261719-143.484375-5.902344-47.152344-37.578125-72.542968-37.578125-72.542968 21.398437-68.597657-19.496094-103.863282-45.585937-118.734376-8.617188-4.914062-19.324219 1.28125-19.324219 11.199219v97.324219s-98.1875 38.6875-103.328125 79.980469c-4.445313 35.6875 28.074218 63.902343 101.324218 83.265625 0 0 40.054688 60.859375 46.277344 91.984375 4.230469 21.148437 5.90625 74.242187 6.546875 106.09375.28125 14.0625 11.765625 25.308593 25.832031 25.308593 14.128907 0 25.605469-11.34375 25.824219-25.421874.289063 14.085937 11.792969 25.421874 25.949219 25.421874h91.003906c44.046875 0 84.921875-24.183593 104.953125-63.414062 12.820313-25.113281 18.144531-57.527344 2.367188-96.980469zm-198.324219 108.472657c-14.019531 0-25.4375 11.113281-25.9375 25.011718v-80.285156s35.691406 40.632812 94.28125 55.273438zm0 0" fill="#ffe9c8"/><path d="m436.566406 477.125c8.199219-8.273438 15.21875-17.835938 20.679688-28.53125 5.730468-11.226562 9.957031-23.921875 11.476562-38.042969-5.765625-5.320312-13.152344-8.914062-21.339844-9.941406-1.277343 15.082031-5.65625 28.570313-11.710937 40.425781-5.0625 9.917969-11.460937 18.867188-18.90625 26.714844 5.4375 4.863281 12.261719 8.207031 19.800781 9.375zm0 0" fill="#ffcf86"/><path d="m438.042969 344.050781c-42.082031-105.195312-224.261719-143.484375-224.261719-143.484375-5.902344-47.152344-37.578125-72.542968-37.578125-72.542968 21.398437-68.597657-19.496094-103.863282-45.585937-118.734376-6.835938-3.898437-14.980469-.800781-18.058594 5.59375 25.308594 17.34375 55.714844 52.007813 36.644531 113.140626 0 0 32.953125 40.777343 40.914063 85.65625.636718 3.59375 3.355468 6.453124 6.90625 7.289062 30.414062 7.136719 167.746093 43.261719 214.015624 123.082031 21.308594 36.761719 10.457032 71.867188-2.367187 96.980469-20.027344 39.230469-60.902344 63.414062-104.949219 63.414062h27c44.144532 0 85.089844-24.292968 105.074219-63.65625 12.734375-25.078124 17.972656-57.414062 2.246094-96.738281zm0 0" fill="#ffdca7"/><path d="m159.878906 424.394531c4.253906 0 7.738282-3.679687 7.496094-7.925781-1.175781-20.824219-2.679688-35.921875-4.472656-44.871094-6.4375-32.191406-45.707032-92.121094-47.375-94.65625-1.015625-1.542968-2.5625-2.65625-4.351563-3.128906-67.558593-17.863281-99.800781-43.128906-95.820312-75.105469 3.761719-30.222656 72.492187-63.625 98.660156-73.945312 2.863281-1.128907 4.75-3.898438 4.75-6.976563v-97.347656c0-4.109375 4.539063-6.722656 8.109375-4.6875 11.644531 6.636719 27.648438 18.335938 37.785156 36.386719 11.660156 20.765625 13.128906 45.535156 4.367188 73.625-.917969 2.949219.0625 6.15625 2.46875 8.089843.292968.234376 29.375 23.996094 34.835937 67.636719.394531 3.175781 2.765625 5.75 5.898438 6.410157.722656.148437 72.882812 15.625 135.363281 52.621093 3.566406 2.109375 8.167969.933594 10.277344-2.632812 2.109375-3.566407.933594-8.167969-2.632813-10.277344-55.621093-32.9375-116.808593-48.980469-134.785156-53.234375-6.210937-37.0625-27.019531-60.417969-35.730469-68.789062 8.457032-30.3125 6.117188-57.472657-6.980468-80.796876-11.820313-21.046874-30.144532-34.496093-43.4375-42.074218-6.402344-3.648438-14.027344-3.617188-20.394532.082031-2.136718 1.238281-3.972656 2.8125-5.484375 4.628906-2.355469-1.390625-4.78125-2.75-7.261719-4.066406-7.382812-3.925781-16.066406-3.703125-23.234374.601563-7.148438 4.296874-11.417969 11.847656-11.417969 20.191406v35.519531c0 4.144531 3.355469 7.503906 7.5 7.503906s7.503906-3.359375 7.503906-7.503906v-35.515625c0-6.382812 6.953125-10.554688 12.605469-7.550781 3.34375 1.777343 6.566406 3.632812 9.640625 5.53125v90.625c-4.777344 2.023437-12.761719 5.535156-22.246094 10.234375v-33.316406c0-4.140626-3.359375-7.5-7.503906-7.5s-7.5 3.359374-7.5 7.5v41.144531c-2.898438 1.59375-5.84375 3.261719-8.800781 5.003906-35.550782 20.933594-54.808594 41.464844-57.242188 61.023437-4.992188 40.105469 30.011719 70.613282 104.0625 90.710938 7.320312 11.40625 38.464844 60.992188 43.660156 86.976562 1.652344 8.261719 3.066406 22.65625 4.203125 42.773438.226563 3.996094 3.535157 7.082031 7.484375 7.082031zm0 0"/><path d="m82.917969 188.835938c0 10.605468 6.6875 18.914062 15.226562 18.914062 8.535157 0 15.226563-8.308594 15.226563-18.914062 0-10.601563-6.691406-18.910157-15.226563-18.910157-8.539062 0-15.226562 8.308594-15.226562 18.910157zm0 0"/><path d="m455.316406 394.632812c.457032-17.265624-2.964844-35.085937-10.269531-53.347656-11.210937-28.03125-32.804687-53.886718-64.175781-76.835937-3.34375-2.449219-8.039063-1.71875-10.484375 1.621093-2.449219 3.34375-1.71875 8.039063 1.625 10.484376 29.066406 21.269531 48.953125 44.921874 59.105469 70.304687 12.90625 32.261719 12.207031 62.8125-2.082032 90.800781-9.148437 17.914063-23.207031 32.925782-40.660156 43.410156-17.347656 10.417969-37.277344 15.925782-57.632812 15.925782h-91.027344c-10.058594 0-18.25-8.085938-18.445313-18.101563 0-.078125.003907-.15625.003907-.238281v-.605469c.261718-9.957031 8.421874-17.984375 18.441406-17.984375h68.359375c6.5 0 9.886719-8.097656 5.359375-12.75-1.074219-1.105468-26.101563-27.429687-12.332032-65.628906 12.425782-34.464844 39.140626-35.691406 40.335938-35.730469 4.117188-.085937 7.402344-3.480469 7.34375-7.605469-.0625-4.105468-3.40625-7.394531-7.5-7.394531-.035156 0-.074219 0-.109375 0-1.546875.023438-38.109375 1.054688-54.183594 45.644531-9.484375 26.308594-3.957031 48.0625 3.046875 62.421876-43.769531-16.707032-70.328125-46.363282-70.625-46.695313-4.472656-5.09375-13.136718-1.808594-13.136718 4.949219v80.292968c-.011719.320313-.023438.640626-.023438.960938 0 .136719.007812.269531.007812.40625-.152343 9.984375-8.308593 18.058594-18.328124 18.058594-9.910157 0-18.136719-8.054688-18.335938-17.960938-.226562-11.160156-.511719-21.882812-.859375-31.867187-.140625-4.140625-3.617187-7.375-7.753906-7.238281-4.140625.144531-7.382813 3.613281-7.238281 7.757812.339843 9.914062.625 20.5625.851562 31.648438.359375 18.011718 15.316406 32.664062 33.335938 32.664062 10.425781 0 19.746093-4.808594 25.863281-12.324219 6.140625 7.515625 15.480469 12.324219 25.921875 12.324219h91.027344c23.074218 0 45.675781-6.246094 65.355468-18.066406 7.75-4.65625 14.902344-10.105469 21.375-16.226563 7.433594 4.824219 16.121094 7.433594 25.09375 7.433594 25.449219 0 46.15625-20.707031 46.15625-46.160156 0-20.804688-13.945312-38.765625-33.40625-44.347657zm-188.910156 50.433594h-26.691406c-6.808594 0-13.148438 2.050782-18.441406 5.558594v-35.683594c9.933593 8.636719 25.246093 20.234375 45.132812 30.125zm176.160156 25.070313c-5.140625 0-10.144531-1.265625-14.609375-3.636719 6.683594-8.105469 12.296875-17.105469 16.675781-26.652344 4.484376-9.734375 7.5625-19.707031 9.234376-29.898437 11.707031 4.558593 19.851562 15.96875 19.851562 29.03125 0 17.179687-13.972656 31.15625-31.152344 31.15625zm0 0"/></svg>