<svg height="511pt" viewBox="0 -51 511.99987 511" width="511pt" xmlns="http://www.w3.org/2000/svg"><path d="m77.585938 159.113281c-8.390626.1875-18.28125-.640625-29.945313-2.882812-6.988281-1.339844-12.910156-3.5-17.859375-6.324219 4.738281 21.046875 12.929688 55.109375 20.3125 74.183594 11.21875 28.972656 25.703125 60.746094 24.765625 3.738281-.46875-28.726563 1.078125-52.34375 2.726563-68.714844zm0 0" fill="#ffe9c8"/><path d="m47.640625 183.230469c10.75 2.066406 19.972656 2.921875 27.921875 2.898437.53125-10.394531 1.265625-19.480468 2.023438-27.015625-8.386719.1875-18.277344-.640625-29.945313-2.882812-6.988281-1.339844-12.910156-3.5-17.859375-6.324219 1.933594 8.589844 4.445312 19.34375 7.238281 30.367188 3.226563 1.214843 6.757813 2.214843 10.621094 2.957031zm0 0" fill="#ffdca7"/><path d="m381.710938 264.1875h-.003907c-71.113281-214.621094-236.234375-271.800781-298.179687-250.523438-64.398438 22.121094-110.117188 128.3125-35.886719 142.566407 11.917969 2.289062 21.972656 3.101562 30.476563 2.863281 0 .003906 19.136718 183.664062 157.207031 184.144531 138.070312.476563 118.003906-27.710937 172.949219 1.910157 54.941406 29.621093 82.171874 53.03125 92.683593 12.898437 9.96875-38.058594-22.175781-79.125-119.246093-93.859375zm0 0" fill="#cac0c9"/><path d="m500.734375 331.183594c-10.886719 40.175781-38.773437 16.308594-94.730469-13.859375-56.261718-30.332031-35.710937-1.464844-177.097656-1.957031-81.828125-.28125-122.859375-63.394532-142.90625-116.515626 14.335938 54.03125 52.710938 144.050782 149.324219 144.386719 138.070312.476563 118.003906-27.710937 172.945312 1.910157 54.941407 29.621093 82.175781 53.03125 92.6875 12.898437 2.335938-8.914063 2.359375-17.996094-.222656-26.863281zm0 0" fill="#bbb0ba"/><path d="m254.191406 271.886719s12.074219 53.183593 42.171875 73.675781c30.09375 20.492188 53.660157 33.179688 40.042969 47.816406-13.613281 14.640625-151.335938 19.03125-178.042969-115.148437" fill="#cac0c9"/><path d="m330.410156 369.539062c-25.292968 8.070313-113.789062 2.664063-162.710937-59.421874 40.375 101.429687 156.277343 96.628906 168.707031 83.261718 7.4375-7.996094 3.765625-15.414062-5.996094-23.839844zm0 0" fill="#bbb0ba"/><path d="m113.890625 267.878906c-6.355469 18.308594-16.960937 40.707032-33.121094 51.988282-30.070312 20.996093-54.566406 29.496093-42.066406 41.492187 11.183594 10.738281 75.441406 23.066406 138.714844-31.097656-28.375-13.863281-48.84375-37.261719-63.527344-62.382813zm0 0" fill="#bbb0ba"/><path d="m113.890625 267.878906c-3.039063 8.75-7.050781 18.433594-12.171875 27.390625 13.421875 20.382813 31.007812 38.902344 53.972656 51.097657 7.203125-4.566407 14.46875-9.894532 21.726563-16.105469-28.375-13.863281-48.84375-37.261719-63.527344-62.382813zm0 0" fill="#ab9faa"/><path d="m209.449219 46.085938c36.65625 21.179687 69.597656 50.878906 97.90625 88.277343 33.414062 44.140625 59.007812 97.5625 76.074219 158.78125 1.132812 4.070313 5.546874 6.449219 9.578124 5.167969 3.820313-1.21875 6.054688-5.367188 4.976563-9.226562-1.40625-5.042969-2.890625-10.019532-4.40625-14.960938 11.484375 2.132812 22.199219 4.707031 31.964844 7.691406 3.941406 1.203125 8.230469-1.082031 9.433593-5.019531 1.21875-3.988281-1.027343-8.214844-5.019531-9.433594-12.554687-3.835937-26.554687-7.015625-41.640625-9.484375-17.078125-50.15625-40.175781-94.675781-68.910156-132.636718-29.535156-39.015626-63.984375-70.046876-102.398438-92.238282-3.613281-2.089844-8.234374-.851562-10.320312 2.761719-2.089844 3.613281-.851562 8.234375 2.761719 10.320313zm0 0"/><path d="m209.695312 359.714844c-22.738281-20.101563-37.757812-47.835938-44.644531-82.421875-.8125-4.089844-4.792969-6.746094-8.882812-5.933594-4.09375.8125-6.75 4.792969-5.933594 8.882813 2.171875 10.929687 5.128906 21.226562 8.808594 30.914062-29.410157-22.886719-47.222657-57.207031-57.449219-84.347656-9.734375-25.828125-14.320312-49.378906-16.183594-61.078125 12.171875-1.398438 22.214844-5.132813 30.023438-11.214844 14.40625-11.222656 15.433594-26.300781 15.46875-26.9375.242187-4.164063-2.941406-7.78125-7.105469-8.019531-4.175781-.234375-7.734375 2.894531-7.972656 7.0625-.03125.375-.871094 9.292968-9.972657 16.203125-11.578124 8.785156-31.746093 10.730469-58.324218 5.625-14.78125-2.835938-24.542969-9.636719-29.214844-20.246094 6.726562-4.441406 11.003906-12.042969 11.003906-20.453125 0-7.859375-3.78125-15.085938-9.867187-19.636719 3.25-9.457031 8.242187-19.179687 14.703125-28.34375 13.597656-19.292969 32.027344-34.007812 50.554687-40.371093 23.5625-8.097657 61.398438-2.929688 98.742188 13.480468 3.820312 1.683594 8.277343-.058594 9.957031-3.875 1.675781-3.820312-.058594-8.277344-3.878906-9.957031-41.292969-18.148437-82.3125-23.359375-109.726563-13.941406-21.46875 7.375-42.609375 24.125-58 45.957031-8.832031 12.53125-15.175781 25.816406-18.671875 38.667969-.03125.121093-.066406.238281-.09375.363281-2.433594 9.078125-3.457031 17.9375-2.875 26.136719 1.179688 16.730469 8.566406 29.71875 21.292969 38.070312 5.390625 23.714844 13.027344 54.445313 20.074219 72.65625 10.648437 27.511719 17.308594 40.515625 26.515625 40.515625.664062 0 1.34375-.066406 2.039062-.203125 9.753907-1.90625 11.390625-15.316406 10.996094-39.398437-.082031-5.046875-.097656-9.917969-.066406-14.625 1.828125 5.945312 3.914062 12.160156 6.308593 18.539062 5.046876 13.445313 10.824219 25.875 17.253907 37.242188-5.851563 15.988281-15.457031 35.742187-29.421875 45.496094-7.535156 5.257812-14.769532 9.757812-21.152344 13.726562-16.085938 10.003906-26.714844 16.617188-27.742188 26.445312-.5 4.753907 1.390626 9.21875 5.609376 13.269532 6.234374 5.984375 21.996093 11.515625 43.660156 11.511718 3.964844 0 8.125-.183593 12.460937-.585937 21.4375-1.980469 53.371094-10.007813 86.953125-36.378906 7.019532 10.628906 15.277344 20.152343 24.746094 28.523437 3.085938 2.730469 7.9375 2.429688 10.664062-.65625 2.761719-3.125 2.46875-7.898437-.65625-10.664062zm-144.046874-114.769532c-2.351563-4.6875-5.601563-12.007812-10.027344-23.441406-5.839844-15.085937-12.292969-40.191406-16.890625-59.601562 1.917969.523437 3.894531.996094 5.945312 1.386718 8.324219 1.601563 16.09375 2.566407 23.320313 2.917969-1.292969 15.261719-2.441406 36.597657-2.027344 61.914063.121094 7.519531-.042969 12.941406-.320312 16.824218zm20.945312 118.898438c-23.976562 2.21875-40.660156-3.320312-44.265625-6.78125-.472656-.457031-.753906-.796875-.910156-1.019531 1.699219-3.230469 12.550781-9.980469 20.5625-14.960938 6.542969-4.070312 13.957031-8.679687 21.820312-14.171875 11.929688-8.328125 22.222657-22.414062 30.695313-41.964844 13.941406 20.308594 30.351562 36.320313 48.800781 47.460938-29.84375 22.691406-57.8125 29.691406-76.703125 31.4375zm0 0"/><path d="m69.25 86.222656c0 10.765625 6.777344 19.195313 15.433594 19.195313 8.652344 0 15.433594-8.429688 15.433594-19.195313 0-10.761718-6.777344-19.191406-15.433594-19.191406s-15.433594 8.429688-15.433594 19.191406zm0 0"/><path d="m459.152344 278.613281c-3.757813-1.816406-8.273438-.238281-10.089844 3.519531-1.8125 3.757813-.234375 8.273438 3.523438 10.085938 34.296874 16.550781 49.523437 39.652344 42.871093 65.046875-2.234375 8.53125-5.222656 13.640625-8.886719 15.191406-8.519531 3.609375-27.09375-6.882812-50.613281-20.164062-6.886719-3.886719-14.691406-8.292969-22.972656-12.761719-33.019531-17.800781-42.367187-16.097656-67.339844-11.554688-11.613281 2.109376-27.363281 4.964844-51.550781 6.820313-22.609375-21.554687-32.441406-63.632813-32.546875-64.09375-.925781-4.070313-4.96875-6.617187-9.039063-5.691406-4.066406.921875-6.617187 4.96875-5.695312 9.039062.523438 2.304688 13.191406 56.730469 45.597656 78.792969 3.472656 2.367188 6.863282 4.628906 10.117188 6.804688 14.839844 9.910156 30.183594 20.160156 30.882812 26.160156.046875.378906.179688 1.535156-1.902344 3.773437-1.726562 1.59375-13.070312 5.644531-34.28125 4.613281-12.917968-.628906-38.425781-3.804687-64.144531-18.023437-3.648437-2.015625-8.25-.691406-10.269531 2.957031-2.019531 3.652344-.695312 8.25 2.957031 10.269532 21.328125 11.789062 46.761719 18.867187 71.621094 19.933593 2.039063.085938 4.132813.132813 6.253906.132813 15.46875 0 32.304688-2.472656 38.890625-9.550782 4.5625-4.902343 6.542969-10.242187 5.882813-15.859374-1.46875-12.574219-15.773438-22.453126-35.761719-35.8125 15.511719-1.730469 26.777344-3.78125 35.6875-5.402344 23.523438-4.277344 29.113281-5.292969 57.46875 9.992187 8.152344 4.398438 15.554688 8.578125 22.714844 12.621094 23.386718 13.207031 40.429687 22.828125 54.175781 22.828125 3.441406 0 6.679687-.605469 9.757813-1.910156 8.320312-3.519532 14.082031-11.789063 17.613281-25.28125 4.046875-15.457032 7.191406-54.4375-50.921875-82.476563zm0 0"/></svg>