<?xml version="1.0"?>
<svg xmlns="http://www.w3.org/2000/svg" viewBox="0 0 64 64" width="512" height="512"><g id="_6-binder_clip" data-name="6-binder clip"><polygon points="60 60 4 60 1 32 63 32 60 60" style="fill:#8f6f61"/><path d="M46.041,60.40186l-8-39a1.9982,1.9982,0,0,1,.71-1.96338C38.78711,19.4082,43,15.93018,43,11c0-2.9668-1.30664-6-11-6S21,8.0332,21,11c0,4.981,4.207,8.4043,4.249,8.43848a1.9982,1.9982,0,0,1,.71,1.96338l-8,39-3.918-.80372,7.77246-37.89355C20.18066,20.07324,17,16.22607,17,11,17,1,28.29,1,32,1S47,1,47,11c0,5.22607-3.18066,9.07324-4.81348,10.70459L49.959,59.59814Z" style="fill:#f6f0e5"/><path d="M1,57H19a0,0,0,0,1,0,0v2a4,4,0,0,1-4,4H1a0,0,0,0,1,0,0V57A0,0,0,0,1,1,57Z" style="fill:#8f6f61"/><path d="M45,57H63a0,0,0,0,1,0,0v6a0,0,0,0,1,0,0H49a4,4,0,0,1-4-4V57A0,0,0,0,1,45,57Z" style="fill:#8f6f61"/><rect x="23" y="57" width="18" height="6" rx="3" style="fill:#8f6f61"/><path d="M63,56H61.434l2.56018-23.89355A.99915.99915,0,0,0,63,31H45.11383l-1.84137-8.978A16.32912,16.32912,0,0,0,48,11C48,3.70117,42.61719,0,32,0S16,3.70117,16,11a16.32912,16.32912,0,0,0,4.72754,11.022L18.88617,31H1a.99915.99915,0,0,0-.99414,1.10645L2.566,56H1a.99974.99974,0,0,0-1,1v6a.99974.99974,0,0,0,1,1H15a5.00324,5.00324,0,0,0,4.57617-3H22.142A3.99577,3.99577,0,0,0,26,64H38a3.99577,3.99577,0,0,0,3.858-3h2.56586A5.00324,5.00324,0,0,0,49,64H63a.99974.99974,0,0,0,1-1V57A.99974.99974,0,0,0,63,56ZM61.88672,33,59.42285,56H50.24133L45.52405,33ZM22.52051,20.99707A14.537,14.537,0,0,1,18,11c0-8.06689,7.99023-9,14-9s14,.93311,14,9a14.537,14.537,0,0,1-4.52051,9.99707,1.00185,1.00185,0,0,0-.27246.9082L48.2,56H45.82349l-6.803-34.7998a1.00206,1.00206,0,0,1,.37109-.99415C39.58008,20.04932,44,16.30762,44,11c0-4.84131-3.70117-7-12-7S20,6.15869,20,11c0,5.39355,4.42871,9.06055,4.625,9.21973a.99654.99654,0,0,1,.35254.99023L18.17651,56H15.8l6.993-34.09473A1.00185,1.00185,0,0,0,22.52051,20.99707Zm3.35937-2.334C25.8418,18.63135,22,15.45312,22,11c0-1.74756,0-5,10-5s10,3.25244,10,5c0,4.38135-3.72949,7.53711-3.873,7.65723a2.98078,2.98078,0,0,0-1.06738,2.93652L38.89838,31H25.10162l1.83686-9.39648A2.98043,2.98043,0,0,0,25.87988,18.66309ZM2.11328,33H18.476L13.75867,56H4.57715ZM18,59a3.00328,3.00328,0,0,1-3,3H2V58H18Zm20,3H26a2,2,0,0,1,0-4H38a2,2,0,0,1,0,4Zm3.858-3A3.99577,3.99577,0,0,0,38,56H26a3.99577,3.99577,0,0,0-3.858,3H20V57.097L24.71063,33H39.28937L44,57.097V59ZM62,62H49a3.00328,3.00328,0,0,1-3-3V58H62Z"/></g></svg>
