<svg transform="rotate(90)" height="512" viewBox="0 0 64 64" width="512" xmlns="http://www.w3.org/2000/svg"><g id="_7-calculator" data-name="7-calculator"><rect fill="#7bace6" height="62" rx="4" width="58" x="3" y="1"/><g fill="#a8d7e4"><path d="m9 7h46v12h-46z"/><path d="m9 23h6v6h-6z"/><path d="m19 23h6v6h-6z"/><path d="m9 33h6v6h-6z"/><path d="m19 33h6v6h-6z"/><path d="m29 33h6v6h-6z"/><path d="m39 33h6v6h-6z"/><path d="m49 33h6v6h-6z"/><path d="m9 43h6v6h-6z"/><path d="m19 43h6v6h-6z"/><path d="m29 43h6v6h-6z"/><path d="m39 43h6v6h-6z"/><path d="m39 53h10v-10h6v16h-16z"/><rect height="6" rx="2" width="16" x="9" y="53"/><path d="m29 53h6v6h-6z"/><path d="m29 23h26v6h-26z"/></g><path d="m57 0h-50a5.00588 5.00588 0 0 0 -5 5v54a5.00588 5.00588 0 0 0 5 5h50a5.00588 5.00588 0 0 0 5-5v-54a5.00588 5.00588 0 0 0 -5-5zm3 59a3.00328 3.00328 0 0 1 -3 3h-50a3.00328 3.00328 0 0 1 -3-3v-54a3.00328 3.00328 0 0 1 3-3h50a3.00328 3.00328 0 0 1 3 3z"/><path d="m55 6h-46a1 1 0 0 0 -1 1v12a1 1 0 0 0 1 1h46a1 1 0 0 0 1-1v-12a1 1 0 0 0 -1-1zm-1 12h-44v-10h44z"/><path d="m9 30h6a1 1 0 0 0 1-1v-6a1 1 0 0 0 -1-1h-6a1 1 0 0 0 -1 1v6a1 1 0 0 0 1 1zm1-6h4v4h-4z"/><path d="m25 22h-6a1 1 0 0 0 -1 1v6a1 1 0 0 0 1 1h6a1 1 0 0 0 1-1v-6a1 1 0 0 0 -1-1zm-1 6h-4v-4h4z"/><path d="m9 40h6a1 1 0 0 0 1-1v-6a1 1 0 0 0 -1-1h-6a1 1 0 0 0 -1 1v6a1 1 0 0 0 1 1zm1-6h4v4h-4z"/><path d="m25 32h-6a1 1 0 0 0 -1 1v6a1 1 0 0 0 1 1h6a1 1 0 0 0 1-1v-6a1 1 0 0 0 -1-1zm-1 6h-4v-4h4z"/><path d="m35 32h-6a1 1 0 0 0 -1 1v6a1 1 0 0 0 1 1h6a1 1 0 0 0 1-1v-6a1 1 0 0 0 -1-1zm-1 6h-4v-4h4z"/><path d="m39 40h6a1 1 0 0 0 1-1v-6a1 1 0 0 0 -1-1h-6a1 1 0 0 0 -1 1v6a1 1 0 0 0 1 1zm1-6h4v4h-4z"/><path d="m55 32h-6a1 1 0 0 0 -1 1v6a1 1 0 0 0 1 1h6a1 1 0 0 0 1-1v-6a1 1 0 0 0 -1-1zm-1 6h-4v-4h4z"/><path d="m9 50h6a1 1 0 0 0 1-1v-6a1 1 0 0 0 -1-1h-6a1 1 0 0 0 -1 1v6a1 1 0 0 0 1 1zm1-6h4v4h-4z"/><path d="m25 42h-6a1 1 0 0 0 -1 1v6a1 1 0 0 0 1 1h6a1 1 0 0 0 1-1v-6a1 1 0 0 0 -1-1zm-1 6h-4v-4h4z"/><path d="m35 42h-6a1 1 0 0 0 -1 1v6a1 1 0 0 0 1 1h6a1 1 0 0 0 1-1v-6a1 1 0 0 0 -1-1zm-1 6h-4v-4h4z"/><path d="m38 49a1 1 0 0 0 1 1h6a1 1 0 0 0 1-1v-6a1 1 0 0 0 -1-1h-6a1 1 0 0 0 -1 1zm2-5h4v4h-4z"/><path d="m55 42h-6a1 1 0 0 0 -1 1v9h-9a1 1 0 0 0 -1 1v6a1 1 0 0 0 1 1h16a1 1 0 0 0 1-1v-16a1 1 0 0 0 -1-1zm-1 16h-14v-4h9a1 1 0 0 0 1-1v-9h4z"/><path d="m23 52h-12a3.00328 3.00328 0 0 0 -3 3v2a3.00328 3.00328 0 0 0 3 3h12a3.00328 3.00328 0 0 0 3-3v-2a3.00328 3.00328 0 0 0 -3-3zm1 5a1.0013 1.0013 0 0 1 -1 1h-12a1.0013 1.0013 0 0 1 -1-1v-2a1.0013 1.0013 0 0 1 1-1h12a1.0013 1.0013 0 0 1 1 1z"/><path d="m31 16h4a1 1 0 0 0 0-2h-4a1 1 0 0 0 0 2z"/><path d="m39 16h4a1 1 0 0 0 0-2h-4a1 1 0 0 0 0 2z"/><path d="m47 16h4a1 1 0 0 0 0-2h-4a1 1 0 0 0 0 2z"/><path d="m35 52h-6a1 1 0 0 0 -1 1v6a1 1 0 0 0 1 1h6a1 1 0 0 0 1-1v-6a1 1 0 0 0 -1-1zm-1 6h-4v-4h4z"/><path d="m55 22h-26a1 1 0 0 0 -1 1v6a1 1 0 0 0 1 1h26a1 1 0 0 0 1-1v-6a1 1 0 0 0 -1-1zm-1 6h-24v-4h24z"/></g></svg>