<svg transform="rotate(25)" height="512" viewBox="0 0 64 64" width="512" xmlns="http://www.w3.org/2000/svg"><g id="_26-correction_tape" data-name="26-correction tape"><path d="m33.12 2.97255a21 21 0 0 1 17.75 38.06492l-38.97126 18.17259-4.22619-9.06306s-.83547-34.91852 25.44745-47.17445z" fill="#a8d7e4"/><path d="m11.89874 59.21006-4.22619-9.06306s-6.67255 2.853-6.67255 12.853z" fill="#7bace6"/><path d="m55.58961 15.66574c.52977 1.13611-.997 2.90383-.78852 4.08225.21574 1.21922 2.24564 2.36039 2.139 3.56564-.10812 1.22253-2.31222 1.99222-2.72925 3.13792s.77664 3.152.07365 4.15793c-.693.99168-2.98147.56093-3.93035 1.35616-.91719.76866-.88384 3.10422-2.01993 3.634s-2.90383-.997-4.08225-.78852c-1.21922.21574-2.36039 2.24564-3.56564 2.139-1.22253-.10812-1.99222-2.31222-3.13792-2.72924s-3.152.77663-4.15793.07364c-.99168-.693-.56093-2.98146-1.35616-3.93035-.76866-.91718-3.10422-.88383-3.634-2.01992s.997-2.90384.78852-4.08225c-.21574-1.21923-2.24564-2.36039-2.13905-3.56565.10812-1.22252 2.31222-1.99222 2.72924-3.13792s-.77663-3.152-.07364-4.15793c.693-.99167 2.98146-.56093 3.93035-1.35615.91718-.76867.88383-3.10423 2.01992-3.634s2.90384.997 4.08225.78852c1.21923-.21574 2.36039-2.24564 3.56565-2.139 1.22252.10812 1.99222 2.31222 3.13792 2.72925s3.152-.77664 4.15793-.07365c.99167.693.56093 2.98147 1.35615 3.93035.76873.91718 3.10429.88383 3.63406 2.01992z" fill="#f6f0e5"/><circle cx="41.995" cy="22.005" fill="#ccc7be" r="9"/><circle cx="41.995" cy="22.005" fill="#f6f0e5" r="5"/><circle cx="21.389" cy="39.337" fill="#ccc7be" r="8"/><circle cx="21.389" cy="39.337" fill="#f6f0e5" r="4"/><path d="m30.80906 54.80554a10 10 0 1 1 18.12615-8.45236z" fill="#7bace6"/><path d="m61.927 12.70209a22.02028 22.02028 0 0 0 -29.23322-10.64165c-24.63578 11.48982-25.96421 42.71743-26.0203 47.48004-1.74529.99716-6.67348 4.59187-6.67348 13.45942a.99955.99955 0 0 0 1.32847.94443s10.95947-3.81354 10.99153-3.82849l16.69852-7.78784a10.951 10.951 0 0 0 .88113 2.89963 1 1 0 0 0 1.329.48345l18.124-8.453a1.00017 1.00017 0 0 0 .48335-1.32923 11.03666 11.03666 0 0 0 -1.64875-2.54156l3.10026-1.44612a22.00327 22.00327 0 0 0 10.63949-29.23908zm-54.705 38.84621 3.30147 7.08039-8.47486 2.94725c.43159-6.17168 3.61717-9.00081 5.17339-10.02764zm24.11743 1.90381a9.00005 9.00005 0 0 1 16.21214-7.56127zm29.44316-24.60979a19.87036 19.87036 0 0 1 -10.3407 11.28624l-3.81069 1.77752a10.986 10.986 0 0 0 -17.74377 8.27606l-12.12213 5.65356 8.60181-8.43709a8.99047 8.99047 0 0 0 -4.5968-17.03454l6.29358-7.442c.10149.11812.20359.2344.30429.34745a3.75548 3.75548 0 0 1 .83292 1.16222 3.7983 3.7983 0 0 1 -.3774 1.30969 3.77633 3.77633 0 0 0 -.33249 3.02276 3.77387 3.77387 0 0 0 2.52805 1.68766 3.79449 3.79449 0 0 1 1.245.55181 3.74629 3.74629 0 0 1 .35543 1.38588 3.716 3.716 0 0 0 1.19518 2.72291 3.74835 3.74835 0 0 0 2.99334.1885 3.7437 3.7437 0 0 1 1.39438-.14357 3.75246 3.75246 0 0 1 .976 1.00693 3.743 3.743 0 0 0 2.41576 1.77947c.06249.00586.1245.00781.186.00781a3.95778 3.95778 0 0 0 2.47777-1.32532 3.75311 3.75311 0 0 1 1.16394-.83309 3.76125 3.76125 0 0 1 1.30845.378 3.779 3.779 0 0 0 3.02116.33206 3.77188 3.77188 0 0 0 1.68733-2.52859 3.78567 3.78567 0 0 1 .55219-1.24524 3.73487 3.73487 0 0 1 1.3856-.3555 3.70979 3.70979 0 0 0 2.72187-1.19543 3.7437 3.7437 0 0 0 .18992-2.99345 3.74592 3.74592 0 0 1 -.144-1.39564 3.73338 3.73338 0 0 1 1.00624-.97471 3.74393 3.74393 0 0 0 1.7791-2.41624 3.71473 3.71473 0 0 0 -1.31724-2.66628 3.7525 3.7525 0 0 1 -.83243-1.16222 3.79233 3.79233 0 0 1 .3774-1.30969 3.77642 3.77642 0 0 0 .33249-3.02178 3.77383 3.77383 0 0 0 -2.52814-1.68766 3.77931 3.77931 0 0 1 -1.246-.55279 3.75129 3.75129 0 0 1 -.35494-1.3849 3.70968 3.70968 0 0 0 -1.19421-2.72194 3.73507 3.73507 0 0 0 -2.99431-.19045 3.74443 3.74443 0 0 1 -1.39389.14357 3.73 3.73 0 0 1 -.97548-1.00693 3.744 3.744 0 0 0 -2.41617-1.77947 3.70926 3.70926 0 0 0 -2.66475 1.31751 3.75593 3.75593 0 0 1 -1.16248.83406 3.85655 3.85655 0 0 1 -1.30845-.378 3.78287 3.78287 0 0 0 -3.02214-.333 3.778 3.778 0 0 0 -1.68734 2.52853 3.802 3.802 0 0 1 -.55219 1.24622 3.77639 3.77639 0 0 1 -1.38608.3555 3.71318 3.71318 0 0 0 -2.7209 1.19347 3.74642 3.74642 0 0 0 -.18993 2.99541 3.73921 3.73921 0 0 1 .144 1.39369 3.72734 3.72734 0 0 1 -1.00624.97568 3.74413 3.74413 0 0 0 -1.77959 2.41722 2.10053 2.10053 0 0 0 .00555.41209l-8.69021 10.27598a9.001 9.001 0 0 0 4.02649 17.048c.056 0-9.186 9.16537-9.186 9.16537l-3.53725-7.58511c-.0044-2.84988.52094-34.69084 24.86991-46.0474a20.00042 20.00042 0 0 1 27.24319 24.9692zm-42.35389 4.14786a7.00164 7.00164 0 1 1 -3.6187 3.95057 6.95262 6.95262 0 0 1 3.6187-3.95057zm12.22184-17.58177c-.09813-.46782-.2612-1.25012-.1284-1.43959.125-.17971.935-.29788 1.37046-.36137a4.6831 4.6831 0 0 0 2.38207-.80183 4.48694 4.48694 0 0 0 1.16687-2.1545c.15135-.461.40523-1.23352.63274-1.34.23045-.10157.98281.19631 1.43344.377a4.50439 4.50439 0 0 0 2.40014.49028 4.6827 4.6827 0 0 0 2.1443-1.30872c.32858-.293.90469-.80867 1.15857-.81941.23142.02051.72551.6485 1.0204 1.02451a4.55881 4.55881 0 0 0 1.86308 1.6486 4.5535 4.5535 0 0 0 2.487-.06446c.46724-.09864 1.25036-.26175 1.44077-.12794.17869.124.29684.93466.36031 1.37025a4.67822 4.67822 0 0 0 .80118 2.38108 4.48345 4.48345 0 0 0 2.15505 1.16906c.46089.15138 1.23278.40434 1.33921.63288.106.22756-.19627.98153-.37642 1.43177a4.49535 4.49535 0 0 0 -.49068 2.4016 4.67825 4.67825 0 0 0 1.30895 2.14474c.29245.32913.8378.9415.81827 1.15929-.02051.23147-.64837.72566-1.02382 1.02061a4.55765 4.55765 0 0 0 -1.64875 1.86346 4.5647 4.5647 0 0 0 .06543 2.48852c.09764.46684.2612 1.24914.1284 1.43861-.125.17971-.93545.29788-1.371.36137a4.68467 4.68467 0 0 0 -2.38207.80183 4.49135 4.49135 0 0 0 -1.16687 2.15451c-.15135.462-.40474 1.23351-.63274 1.34-.22605.10645-.98134-.19533-1.43247-.376a4.443 4.443 0 0 0 -2.40013-.49029 4.67419 4.67419 0 0 0 -2.14568 1.30873 3.99157 3.99157 0 0 1 -1.15759.81844c-.23142-.02051-.72551-.6485-1.0204-1.02353a4.55248 4.55248 0 0 0 -1.86357-1.64958 2.70258 2.70258 0 0 0 -.93349-.15236 7.68436 7.68436 0 0 0 -1.55453.2178c-.46674.09766-1.24986.26174-1.43832.12892-.17967-.126-.29782-.93662-.36178-1.3722a4.69074 4.69074 0 0 0 -.80118-2.38207 4.487 4.487 0 0 0 -2.15456-1.1671c-.46089-.15139-1.23278-.40532-1.33921-.63288s.19578-.98251.37642-1.43373a4.4934 4.4934 0 0 0 .49067-2.4016 4.68838 4.68838 0 0 0 -1.30894-2.14376c-.29294-.32913-.8378-.9415-.81876-1.15929.02051-.23049.64886-.72566 1.02382-1.02061a4.54809 4.54809 0 0 0 1.64875-1.86345 4.55659 4.55659 0 0 0 -.06494-2.48759z"/><path d="m38.5706 31.39921a10.00223 10.00223 0 1 0 -5.642-5.1714 10.00333 10.00333 0 0 0 5.642 5.1714zm-4.09673-12.135a8.00155 8.00155 0 1 1 .26706 6.11778 7.94814 7.94814 0 0 1 -.26706-6.11774z"/><path d="m39.93862 27.64005a5.9628 5.9628 0 0 0 4.5863-.20094l.0011-.00025.00122-.00091a5.997 5.997 0 1 0 -4.58862.2021zm-.48469-8.713.36263.77772a1 1 0 1 0 1.81231-.84578l-.36355-.7798a3.87537 3.87537 0 0 1 3.80468 1.38186l-.78373.36575a1.00011 1.00011 0 0 0 .84561 1.81268l.7772-.36271a3.99463 3.99463 0 0 1 -1.38224 3.798l-.36263-.77778a1 1 0 1 0 -1.81231.84578l.36282.77816a3.90076 3.90076 0 0 1 -3.79848-1.38283l.77823-.36319a1.00011 1.00011 0 0 0 -.84561-1.81268l-.7772.36271a3.99472 3.99472 0 0 1 1.38227-3.79794z"/><path d="m19.6771 44.03421a5.00189 5.00189 0 1 0 -2.821-2.58619 5.00017 5.00017 0 0 0 2.821 2.58619zm-.38631-6.829.34481.73958a1 1 0 1 0 1.81231-.84579l-.34249-.73463c.09246-.00866.18491-.03009.27707-.03009a3.01135 3.01135 0 0 1 2.13917.90158l-.74479.34756a1.00011 1.00011 0 0 0 .84561 1.81268l.73876-.34476a2.99768 2.99768 0 0 1 -.87821 2.41313l-.34487-.74012a1 1 0 0 0 -1.81231.84579l.34573.74189a2.90307 2.90307 0 0 1 -2.41582-.87985l.74113-.34549a.9999.9999 0 1 0 -.84463-1.81267l-.73937.34463a2.99588 2.99588 0 0 1 .8779-2.41347z"/></g></svg>