<svg transform="rotate(45)" height="512" viewBox="0 0 64 64" width="512" xmlns="http://www.w3.org/2000/svg"><g id="_10-cutter" data-name="10-cutter"><path d="m36.44364-.44364h10a6 6 0 0 1 6 6v36a4 4 0 0 1 -4 4h-14a4 4 0 0 1 -4-4v-36a6 6 0 0 1 6-6z" fill="#bd4f48" transform="matrix(.707 .707 -.707 .707 28.088 -22.698)"/><path d="m61.24263 9.82843-7.07106-7.07106a6 6 0 0 0 -8.48528 0l-2.82843 2.82842 15.55635 15.55635 2.82842-2.82843a6 6 0 0 0 0-8.48528z" fill="#bd4f48"/><path d="m38.222 12.778h22v4h-22z" fill="#d89670" transform="matrix(.707 .707 -.707 .707 24.866 -30.477)"/><path d="m36.387 17.713 9.9 9.9-37.287 35.387v-18z" fill="#f6f0e5"/><path d="m27.54415 6.55636h8a0 0 0 0 1 0 0v32a0 0 0 0 1 0 0h-4a4 4 0 0 1 -4-4v-28a0 0 0 0 1 0 0z" fill="#e36861" transform="matrix(.707 .707 -.707 .707 25.189 -15.698)"/><path d="m37.44364 16.45585h8a0 0 0 0 1 0 0v28a4 4 0 0 1 -4 4h-4a0 0 0 0 1 0 0v-32a0 0 0 0 1 0 0z" fill="#e36861" transform="matrix(.707 .707 -.707 .707 35.088 -19.799)"/><path d="m33.615 18.385h10v14h-10z" fill="#d89670" transform="matrix(.707 .707 -.707 .707 29.26 -19.87)"/><path d="m40.443 20.556h2v4h-2z" transform="matrix(.707 -.707 .707 .707 -3.812 35.908)"/><path d="m37.615 23.385h2v4h-2z" transform="matrix(.707 -.707 .707 .707 -6.64 34.74)"/><path d="m34.787 26.213h2v4h-2z" transform="matrix(.707 -.707 .707 .707 -9.468 33.569)"/><path d="m64 14.0708a6.95255 6.95255 0 0 0 -2.05078-4.94922l-7.07031-7.07129a6.99982 6.99982 0 0 0 -9.89942 0l-5.65582 5.65583-.0014.00091-19.79883 19.79932a4.98764 4.98764 0 0 0 -.65747 6.25146l-10.57197 10.53369a1.00038 1.00038 0 0 0 -.294.7085v18a.99988.99988 0 0 0 1.68848.7251l20.02893-19.0081a4.96078 4.96078 0 0 0 6.77673-.24042l19.79886-19.79885 5.65625-5.65722a6.95284 6.95284 0 0 0 2.05075-4.94971zm-8.41412 8.48578-14.14228-14.14227 1.41407-1.41407 14.14239 14.14191zm-35.58588 12.89526.1994-.19867 2.15216 2.15259a.99378.99378 0 0 0 .64844.28131v10.64728l-3 2.84723zm-2 17.62793-3 2.84723v-15.49353l3-2.989zm7-16.90832 3-2.99982v5.657l-1.40527 1.40528a.99962.99962 0 0 0 0 1.41406l1.68 1.6803-3.27473 3.10795zm5-4.9997 1.54443-1.54431 2.82837 2.82837-4.3728 4.3728zm1.544-4.37292 8.48535-8.48535 5.65722 5.65722-8.48535 8.48535zm11.314-8.48487 2.82861-2.82861 2.82819 2.82819-2.82843 2.82879zm-21.9205 10.60645 19.0918-19.09229 4.24316 4.24317-2.82861 2.82861-.70752-.70752a.99964.99964 0 0 0 -1.41406 0l-9.89942 9.89942a.99964.99964 0 0 0 0 1.41406l.70752.70752-7.07178 7.07129-2.12109-2.12158a2.99949 2.99949 0 0 1 0-4.24268zm-10.9375 16.49459 3-2.98895v15.399l-3 2.84723zm25.08008-2.3525a3.00541 3.00541 0 0 1 -4.24317 0l-2.12109-2.12158 7.07105-7.071.70727.70728a.99963.99963 0 0 0 1.41406 0l9.89942-9.89942a.99964.99964 0 0 0 0-1.41406l-.70728-.70727 2.82837-2.82886 4.24317 4.24316zm23.33392-23.3345-14.14227-14.14182 2.12182-2.12182a5.00052 5.00052 0 0 1 7.07129 0l7.07032 7.07128a4.99879 4.99879 0 0 1 0 7.07081z"/></g></svg>