<svg height="512" viewBox="0 0 64 64" width="512" xmlns="http://www.w3.org/2000/svg"><g id="_9-dividers" data-name="9-dividers"><path d="m48 52-14-34h6l14 34z" fill="#a8d7e4"/><path d="m18 52 14-34h-6l-14 34z" fill="#a8d7e4"/><path d="m32 1h2a2 2 0 0 1 2 2v6a0 0 0 0 1 0 0h-6a0 0 0 0 1 0 0v-6a2 2 0 0 1 2-2z" fill="#5c92d6"/><path d="m33 6a8 8 0 1 0 8 8 8 8 0 0 0 -8-8zm0 12a4 4 0 1 1 4-4 4 4 0 0 1 -4 4z" fill="#7bace6"/><path d="m48 52h6a0 0 0 0 1 0 0v5a2 2 0 0 1 -2 2h-2a2 2 0 0 1 -2-2v-5a0 0 0 0 1 0 0z" fill="#7bace6"/><path d="m18 59-3 4-3-4v-14h6z" fill="#e36861"/><path d="m10 52h10v4h-10z" fill="#7bace6"/><path d="m33 9a5 5 0 1 0 5 5 5.00588 5.00588 0 0 0 -5-5zm0 8a3 3 0 1 1 3-3 3.00328 3.00328 0 0 1 -3 3z"/><path d="m54.92322 51.61981.00158-.00067-.00341-.00824-.00006-.00024-13.85413-33.64576a8.95653 8.95653 0 0 0 -4.0672-12.01513v-2.94977a3.00328 3.00328 0 0 0 -3-3h-2a3.00328 3.00328 0 0 0 -3 3v2.94977a8.95653 8.95653 0 0 0 -4.0672 12.01513l-10.72034 26.0351h-2.21246a1 1 0 0 0 -1 1v6h-1a1 1 0 0 0 -1 1v4a1 1 0 0 0 1 1h1v2a1.00071 1.00071 0 0 0 .2002.6001l3 4a.99975.99975 0 0 0 1.5996 0l3-4a1.00071 1.00071 0 0 0 .2002-.6001v-2h1a1 1 0 0 0 1-1v-4a1 1 0 0 0 -1-1h-.50659l11.61359-28.20422a8.8757 8.8757 0 0 0 3.786 0l12.107 29.40246v4.80176a3.00328 3.00328 0 0 0 3 3v3a1 1 0 0 0 2 0v-3a3.00328 3.00328 0 0 0 3-3v-5a.99433.99433 0 0 0 -.07678-.38019zm-23.92322-48.61981a1.0013 1.0013 0 0 1 1-1h2a1.0013 1.0013 0 0 1 1 1v2.23175a8.74586 8.74586 0 0 0 -4 0zm-18 43h4v5h-4zm4 12.6665-2 2.667-2-2.667v-1.6665h4zm2-3.6665h-8v-2h8zm0-8.05536v-1.94464a1 1 0 0 0 -1-1h-1.62427l9.89887-24.0401a9.03492 9.03492 0 0 0 2.93457 2.19122zm7-32.94464a7 7 0 1 1 7 7 7.00787 7.00787 0 0 1 -7-7zm13.7254 5.9599 12.78119 31.0401h-3.83673l-11.879-28.84888a9.03492 9.03492 0 0 0 2.93454-2.19122zm13.2746 37.0401a1.0013 1.0013 0 0 1 -1 1h-2a1.0013 1.0013 0 0 1 -1-1v-4h4z"/></g></svg>