<svg transform="rotate(90)" height="512" viewBox="0 0 64 64" width="512" xmlns="http://www.w3.org/2000/svg"><g id="_17-clasp_envelope" data-name="17-clasp envelope"><path d="m7 1h50v62h-50z" fill="#fcea81"/><path d="m32 1h25v62h-25z" fill="#f0dc62"/><path d="m7 1h6v62h-6z" fill="#dbb55c"/><path d="m51 1h6v62h-6z" fill="#dbb55c"/><path d="m47.23393 13h-30.46786a8 8 0 0 1 -7.58946-5.47018l-2.17661-6.52982h50l-2.17661 6.52982a8 8 0 0 1 -7.58946 5.47018z" fill="#f0dc62"/><path d="m57 63h-50l6-6h38z" fill="#dbb55c"/><circle cx="32" cy="26" fill="#a8d7e4" r="5"/><circle cx="32" cy="26" fill="#87bbc9" r="2"/><path d="m57 0h-50a.99974.99974 0 0 0 -1 1v62a.99943.99943 0 0 0 1 1h50a.99943.99943 0 0 0 1-1v-62a.99974.99974 0 0 0 -1-1zm-7 56h-17v-24.09033a6.002 6.002 0 0 0 4.99426-5.79688l1.86353-12.11279h7.37659a9.00594 9.00594 0 0 0 2.76562-.43469zm-36-42.43469a9.00594 9.00594 0 0 0 2.76562.43469h7.37659l1.86353 12.11279a6.002 6.002 0 0 0 4.99426 5.79688v24.09033h-17zm22.58289 8.57031a5.99471 5.99471 0 0 0 -3.58289-2.04529v-6.09033h4.83453zm-4.58289 7.86438a4 4 0 1 1 4-4 4.00427 4.00427 0 0 1 -4 4zm-1-9.90967a5.99471 5.99471 0 0 0 -3.58289 2.04529l-1.25164-8.13562h4.83453zm16.23438-8.09033h-30.46876a6.99147 6.99147 0 0 1 -6.64062-4.78662l-1.73792-5.21338h47.22584l-1.73792 5.21338a6.99147 6.99147 0 0 1 -6.64062 4.78662zm-39.00586-4.15381a8.98307 8.98307 0 0 0 3.77148 4.78772v43.952l-4 4v-53.4252zm5.18554 50.15381h37.17188l4 4h-45.17188zm38.58594-1.41406v-43.952a8.98307 8.98307 0 0 0 3.77148-4.78772l.22852-.68551v53.42523z"/><path d="m32 23a3 3 0 1 0 3 3 3.00328 3.00328 0 0 0 -3-3zm0 4a1 1 0 1 1 1-1 1.001 1.001 0 0 1 -1 1z"/></g></svg>