<svg transform="rotate(45)" height="512" viewBox="0 0 64 64" width="512" xmlns="http://www.w3.org/2000/svg"><g id="_4-eraser" data-name="4-eraser"><path d="m12.154 11.749h44.986v35.207h-44.986z" fill="#7bace6" transform="matrix(.707 -.707 .707 .707 -10.607 33.097)"/><path d="m18.74237 61.85424-16.59661-16.59661a3.91185 3.91185 0 0 1 0-5.5322l5.53224-5.53221 22.12878 22.12878-5.53221 5.5322a3.91185 3.91185 0 0 1 -5.5322.00004z" fill="#f6f0e5"/><path d="m63.707 25.18088-24.89536-24.89958a1.02926 1.02926 0 0 0 -1.41412 0l-31.81163 31.81589a.99992.99992 0 0 0 0 1.41432l.676.67615-4.82556 4.82634a4.91885 4.91885 0 0 0 0 6.94756l16.59725 16.59921a4.9106 4.9106 0 0 0 6.94653 0l4.82536-4.82565.6758.676a.99957.99957 0 0 0 1.41411 0l31.81162-31.81592a.99992.99992 0 0 0 0-1.41432zm-24.70786-21.8834 6.00021 6.00122v33.17807l-6.00021 6.001zm8.00028 8.00165 6.0002 6.00122v17.17508l-6.0002 6.001zm-32.0011 28.79769v-14.5847l6.0002-6.001v26.587zm8.00027-22.586 6.00021-6.001v42.58987l-6.00021-6.00122zm-10.00034 10.0016v10.584l-5.2912-5.2921zm10.56775 33.63403a2.98263 2.98263 0 0 1 -4.1183 0l-16.59726-16.59923a2.91725 2.91725 0 0 1 0-4.11892l4.82556-4.8263 20.71536 20.7188zm7.43288-5.04633v-46.59069l6.0002-6.001v46.96968zm24.00081-23.62506v-13.17428l6.58616 6.58722z"/></g></svg>