<svg transform="rotate(90)" height="512" viewBox="0 0 64 64" width="512" xmlns="http://www.w3.org/2000/svg"><g id="_25-file_folder" data-name="25-file folder"><path d="m10 1h44a0 0 0 0 1 0 0v62a0 0 0 0 1 0 0h-44a4 4 0 0 1 -4-4v-54a4 4 0 0 1 4-4z" fill="#dbb55c"/><path d="m54 15v-14h-44a4 4 0 0 0 -4 4v54a4 4 0 0 0 4 4h38v-44z" fill="#fcea81"/><path d="m48 25h10v6h-10z" fill="#e36861"/><path d="m48 37h10v6h-10z" fill="#7bace6"/><path d="m48 49h10v6h-10z" fill="#997cd9"/><path d="m17 9h26v14h-26z" fill="#a8d7e4"/><path d="m58 32a.99974.99974 0 0 0 1-1v-6a.99974.99974 0 0 0 -1-1h-3v-23a.99974.99974 0 0 0 -1-1h-44a5.00588 5.00588 0 0 0 -5 5v54a5.00588 5.00588 0 0 0 5 5h44a.99974.99974 0 0 0 1-1v-7h3a.99974.99974 0 0 0 1-1v-6a.99974.99974 0 0 0 -1-1h-3v-4h3a.99974.99974 0 0 0 1-1v-6a.99974.99974 0 0 0 -1-1h-3v-4zm-1-2h-8v-4h8zm-8-6v-4.46484l4-2.66669v7.13153zm-42 35v-54a3.00328 3.00328 0 0 1 3-3h43v12.46484l-5.55469 3.70316a1.00028 1.00028 0 0 0 -.44531.832v43h-37a3.00328 3.00328 0 0 1 -3-3zm46 3h-4v-6h4zm4-8h-8v-4h8zm-4-6h-4v-4h4zm4-6h-8v-4h8zm-4-6h-4v-4h4z"/><path d="m43 8h-26a.99974.99974 0 0 0 -1 1v14a.99974.99974 0 0 0 1 1h26a.99974.99974 0 0 0 1-1v-14a.99974.99974 0 0 0 -1-1zm-1 14h-24v-12h24z"/><path d="m27 56h-10a1 1 0 0 0 0 2h10a1 1 0 0 0 0-2z"/><path d="m33 56h-2a1 1 0 0 0 0 2h2a1 1 0 0 0 0-2z"/><path d="m33 52h-10a1 1 0 0 0 0 2h10a1 1 0 0 0 0-2z"/><path d="m17 54h2a1 1 0 0 0 0-2h-2a1 1 0 0 0 0 2z"/></g></svg>