<svg transform="rotate(45)" height="512" viewBox="0 0 64 64" width="512" xmlns="http://www.w3.org/2000/svg"><g id="_3-fountain_pen" data-name="3-fountain pen"><path d="m23.092 48.03448s15.67811-12.82758 21.37926-18.52873 18.52874-21.37931 18.52874-21.37931l-7.12644-7.12644s-15.67816 12.82759-21.37931 18.52874-18.52873 21.37931-18.52873 21.37931z" fill="#8f6f61"/><rect fill="#fcea81" height="14.11" rx="2.016" transform="matrix(.707 -.707 .707 .707 -27.151 26.244)" width="4.031" x="16.088" y="38.842"/><path d="m13.11494 43.75862s-4.9885 3.56322-9.26437 3.56322l-2.85057 15.67816 15.67816-2.85057c0-4.27587 3.56322-9.26437 3.56322-9.26437z" fill="#f6f0e5"/><path d="m27.03433 27.747c-1.33247 1.5389-2.67463 3.11108-3.94238 4.60935l8.55173 8.55173c1.49827-1.26775 3.07045-2.60991 4.60935-3.94238z" fill="#fcea81"/><path d="m59.127 12.80521c2.29352-2.74854 3.873-4.67877 3.873-4.67877l-7.12644-7.12644s-1.93023 1.57948-4.67877 3.873z" fill="#fcea81"/><circle cx="10" cy="54" fill="#ccc7be" r="2"/><path d="m51.59232 9.55736a.99962.99962 0 0 0 -1.41406 0l-9.26467 9.26464a.99989.99989 0 1 0 1.41407 1.414l9.26466-9.26461a.99961.99961 0 0 0 0-1.41403z"/><path d="m38.483 20.659h2v2.016h-2z" transform="matrix(.707 -.707 .707 .707 -3.757 34.265)"/><path d="m63.70709 7.41967-7.12648-7.12643a.99914.99914 0 0 0 -1.34033-.0669c-.6416.5249-15.78177 12.92426-21.45317 18.59566-5.06019 5.06016-15.4692 17.6494-18.02841 20.76175a3.00956 3.00956 0 0 0 -4.014 3.87926c-1.51178.94592-4.93452 2.85887-7.89412 2.85887a1 1 0 0 0 -.98389.82129l-2.85069 15.67812a.99994.99994 0 0 0 1.1626 1.1626l15.6783-2.85058a1 1 0 0 0 .8213-.98388c0-2.95165 1.91394-6.37979 2.85962-7.89383a3.00858 3.00858 0 0 0 3.87849-4.01426c3.11237-2.55913 15.70175-12.96815 20.76194-18.02834 5.6714-5.67133 18.07083-20.8114 18.59575-21.453a1.00014 1.00014 0 0 0 -.06691-1.34033zm-41.33919 38.47713 6.42506-6.425 1.37348 1.37347c-3.109 2.6223-5.79084 4.8386-7.00886 5.84122zm-5.05433-5.0543c1.00263-1.218 3.21894-3.89982 5.84126-7.00882l1.37348 1.37347-6.42506 6.425zm8.6288-4.22129 1.43653 1.43652-6.42506 6.425-1.43653-1.43652zm-1.49137-4.31944c.861-1.01465 1.7478-2.053 2.6377-3.08593l7.69557 7.69553c-1.0329.88989-2.0713 1.77666-3.08595 2.63768zm-8.73375 27.00587-11.74678 2.13591 4.74378-4.74375a2.96517 2.96517 0 0 0 3.40681-.57818v-.00049h.00048a3.00006 3.00006 0 0 0 0-4.24217 3.07217 3.07217 0 0 0 -4.24268-.00049 2.9654 2.9654 0 0 0 -.57874 3.40733l-4.74372 4.7437 2.13593-11.74672c3.36787-.30456 6.83913-2.30687 8.29469-3.23753l5.96779 5.96775c-.93067 1.45555-2.93299 4.92679-3.23756 8.29464zm-6.71725-5.30764a1 1 0 1 1 1.707.70654l-.00049.00049a1.022 1.022 0 0 1 -1.41357-.00049.99117.99117 0 0 1 -.29294-.70654zm13.38479-3.82176a1.01792 1.01792 0 0 1 -1.43653 0l-7.12648-7.12643a1.01578 1.01578 0 0 1 1.43653-1.43652l7.12648 7.12643a1.01747 1.01747 0 0 1 -.00004 1.43656zm21.37939-21.37924c-1.76453 1.76451-4.51685 4.2371-7.46382 6.80032l-7.89955-7.8995c2.56324-2.947 5.03584-5.69926 6.80037-7.46378 3.49451-3.49449 10.8492-9.75466 15.93405-14.0083l6.63734 6.6373c-4.25367 5.0848-10.51387 12.43944-14.00839 15.93396zm15.29489-17.4756-6.38221-6.38217c1.35852-1.13074 2.46851-2.0476 3.1308-2.59283l5.84425 5.84422c-.54523.66229-1.4621 1.77227-2.59284 3.13078z"/></g></svg>