<svg transform="rotate(-90)" height="512" viewBox="0 0 64 64" width="512" xmlns="http://www.w3.org/2000/svg"><g id="_12-glue_stick" data-name="12-glue stick"><path d="m38 49h14a4 4 0 0 1 4 4v10a0 0 0 0 1 0 0h-22a0 0 0 0 1 0 0v-10a4 4 0 0 1 4-4z" fill="#dbb55c"/><path d="m8 19h22a0 0 0 0 1 0 0v40a4 4 0 0 1 -4 4h-14a4 4 0 0 1 -4-4v-40a0 0 0 0 1 0 0z" fill="#fcea81"/><path d="m12 53h14a4 4 0 0 1 4 4v6a0 0 0 0 1 0 0h-22a0 0 0 0 1 0 0v-6a4 4 0 0 1 4-4z" fill="#dbb55c" transform="matrix(-1 0 0 -1 38 116)"/><path d="m10 11h18v8h-18z" fill="#ccc7be"/><path d="m14 1h10a2 2 0 0 1 2 2v8a0 0 0 0 1 0 0h-14a0 0 0 0 1 0 0v-8a2 2 0 0 1 2-2z" fill="#f6f0e5"/><ellipse cx="19" cy="29" fill="#a8d7e4" rx="7" ry="4"/><path d="m52 48h-14a5.00588 5.00588 0 0 0 -5 5v10a.99974.99974 0 0 0 1 1h22a.99974.99974 0 0 0 1-1v-10a5.00588 5.00588 0 0 0 -5-5zm3 14h-20v-9a3.00328 3.00328 0 0 1 3-3h14a3.00328 3.00328 0 0 1 3 3z"/><path d="m45 51a.99974.99974 0 0 0 -1 1v8a1 1 0 0 0 2 0v-8a.99974.99974 0 0 0 -1-1z"/><path d="m39 51a.99974.99974 0 0 0 -1 1v8a1 1 0 0 0 2 0v-8a.99974.99974 0 0 0 -1-1z"/><path d="m51 51a.99974.99974 0 0 0 -1 1v8a1 1 0 0 0 2 0v-8a.99974.99974 0 0 0 -1-1z"/><path d="m30 18h-1v-7a.99974.99974 0 0 0 -1-1h-1v-7a3.00328 3.00328 0 0 0 -3-3h-10a3.00328 3.00328 0 0 0 -3 3v7h-1a.99974.99974 0 0 0 -1 1v7h-1a.99974.99974 0 0 0 -1 1v40a5.00588 5.00588 0 0 0 5 5h14a5.00588 5.00588 0 0 0 5-5v-40a.99974.99974 0 0 0 -1-1zm-17-15a1.001 1.001 0 0 1 1-1h10a1.001 1.001 0 0 1 1 1v7h-12zm-2 9h16v6h-16zm18 8v32h-20v-32zm-3 42h-14a3.00328 3.00328 0 0 1 -3-3v-5h20v5a3.00328 3.00328 0 0 1 -3 3z"/><path d="m19 55a.99974.99974 0 0 0 -1 1v4a1 1 0 0 0 2 0v-4a.99974.99974 0 0 0 -1-1z"/><path d="m25 55a.99974.99974 0 0 0 -1 1v4a1 1 0 0 0 2 0v-4a.99974.99974 0 0 0 -1-1z"/><path d="m13 55a.99974.99974 0 0 0 -1 1v4a1 1 0 0 0 2 0v-4a.99974.99974 0 0 0 -1-1z"/><path d="m19 34c4.48633 0 8-2.19629 8-5s-3.51367-5-8-5-8 2.19629-8 5 3.51367 5 8 5zm0-8c3.53613 0 6 1.58105 6 3s-2.46387 3-6 3-6-1.58105-6-3 2.46387-3 6-3z"/><path d="m13 38h8v2h-8z"/><path d="m23 38h2v2h-2z"/><path d="m17 44h8v2h-8z"/><path d="m13 44h2v2h-2z"/></g></svg>