<?xml version="1.0"?>
<svg transform="rotate(-90)" xmlns="http://www.w3.org/2000/svg" viewBox="0 0 64 64" width="512" height="512"><g id="_28-glue" data-name="28-glue"><rect x="14" y="25" width="36" height="38" rx="6" style="fill:#f6f0e5"/><polygon points="38 19 26 19 30 1 34 1 38 19" style="fill:#f6f0e5"/><path d="M44,24H38a2,2,0,0,1,0-4h6a2.0026,2.0026,0,0,0,2-2V14a2.0026,2.0026,0,0,0-2-2H22a2,2,0,0,1,0-4H44a6.00657,6.00657,0,0,1,6,6v4A6.00657,6.00657,0,0,1,44,24Z" style="fill:#ccc7be"/><path d="M50,39H41.78955a10.98627,10.98627,0,0,0-19.5791,0H14V49h8.21045a10.98627,10.98627,0,0,0,19.5791,0H50Z" style="fill:#a8d7e4"/><path d="M37,46a5,5,0,0,1-10,0c0-2.76142,5-9,5-9S37,43.23858,37,46Z" style="fill:#7bace6"/><polygon points="44 25 20 25 21 19 43 19 44 25" style="fill:#ccc7be"/><path d="M51,18V14a7.00848,7.00848,0,0,0-7-7H36.35815L34.97656.7832A1.00073,1.00073,0,0,0,34,0H30a1.00073,1.00073,0,0,0-.97656.7832L27.64185,7H22a3,3,0,0,0,0,6h4.30865l-1.11114,5H21a.99947.99947,0,0,0-.98633.83594l-.87036,5.222A7.00717,7.00717,0,0,0,13,31V57a7.00848,7.00848,0,0,0,7,7H44a7.00848,7.00848,0,0,0,7-7V31a7.00734,7.00734,0,0,0-4.41718-6.5A7.00734,7.00734,0,0,0,51,18ZM30.80176,2h2.39648l1.1106,5H29.69116ZM28.35815,13h7.2837l1.11108,5H27.24707ZM26.847,20H31v4H26.18036ZM33,20h4.153l.66662,4H33Zm6.847,4-.66662-4h2.973l.666,4Zm4.13935-5.16406A.99947.99947,0,0,0,43,18H38.80249l-1.11114-5H44a1.00067,1.00067,0,0,1,1,1v4a.99917.99917,0,0,1-.98676.99731ZM21.84668,20h2.973L24.153,24H21.18066ZM49,48H41.78906a1.002,1.002,0,0,0-.89062.544,9.98439,9.98439,0,0,1-17.79688,0A1.002,1.002,0,0,0,22.21094,48H15V40h7.21094a1.002,1.002,0,0,0,.89062-.544,9.98439,9.98439,0,0,1,17.79688,0,1.002,1.002,0,0,0,.89062.544H49ZM44,62H20a5.00588,5.00588,0,0,1-5-5V50h6.61719a11.98356,11.98356,0,0,0,20.76562,0H49v7A5.00588,5.00588,0,0,1,44,62Zm5-31v7H42.38281a11.98356,11.98356,0,0,0-20.76562,0H15V31a5.00588,5.00588,0,0,1,5-5H44A5.00588,5.00588,0,0,1,49,31Zm-4.33093-8.06763-.32782-1.96685A2.99366,2.99366,0,0,0,47,18V14a3.00328,3.00328,0,0,0-3-3H22a1,1,0,0,1,0-2H44a5.00588,5.00588,0,0,1,5,5v4A4.99144,4.99144,0,0,1,44.66907,22.93237Z"/><path d="M31.21973,36.375C30.68555,37.041,26,42.97461,26,46a6,6,0,0,0,12,0c0-3.02539-4.68555-8.959-5.21973-9.625A1.03317,1.03317,0,0,0,31.21973,36.375ZM32,50a4.004,4.004,0,0,1-4-4c0-1.52246,2.208-4.97168,4-7.36523C33.792,41.02832,36,44.47754,36,46A4.004,4.004,0,0,1,32,50Z"/></g></svg>
