<svg transform="rotate(45)" height="512" viewBox="0 0 64 64" width="512" xmlns="http://www.w3.org/2000/svg"><g id="_15-marker_pen" data-name="15-marker pen"><path d="m53.229 28.73305-18.60212-18.18246 8.58559-8.39191a4.11364 4.11364 0 0 1 5.72373 0l12.87838 12.58786a3.89318 3.89318 0 0 1 0 5.5946z" fill="#899c69"/><path d="m27.472 51.111-15.74-15.385 24.326-23.777 15.74 15.385z" fill="#95c590"/><path d="m24.61 56.706-18.602-18.182 4.293-4.196 18.602 18.182z" fill="#fcea81"/><path d="m7.439 39.922-1.431 11.189-3.577 3.497 5.724 5.595 3.577-3.497 11.447-1.399z" fill="#899c69"/><path d="m2.431 63-1.431-4.196 2.862-2.797 2.862 2.797z" fill="#95c590"/><path d="m43.21247 27.3344-1.43093-1.39865a1.94659 1.94659 0 0 1 0-2.7973l5.72373-5.59461a2.05683 2.05683 0 0 1 2.86186 0l1.43093 1.39865a1.94659 1.94659 0 0 1 0 2.7973l-5.72373 5.59461a2.05683 2.05683 0 0 1 -2.86186 0z" fill="#899c69"/><path d="m62.5137 14.028-12.87843-12.5887a5.12491 5.12491 0 0 0 -7.12208 0l-8.58545 8.39264a1.00109 1.00109 0 0 0 0 1.43075l.69885.68315-22.89468 22.38048-.73144-.715a.998.998 0 0 0 -1.398 0l-4.293 4.19559a.99939.99939 0 0 0 -.00049 1.42978l1.075 1.05084-1.32346 10.35125-3.32862 3.25412a1 1 0 0 0 0 1.42978l.69953.68382-2.13019 2.082a.99948.99948 0 0 0 -.24756 1.03816l1.43115 4.19654a.99989.99989 0 0 0 1.64551.39163l3.59308-3.51274.73212.71568a.99981.99981 0 0 0 1.39844 0l3.335-3.26095 10.63478-1.29928 1.0874 1.06293a.99978.99978 0 0 0 1.39844 0l4.293-4.19656a1 1 0 0 0 0-1.42978l-.69959-.68382 22.89529-22.37981.732.7155a1.00041 1.00041 0 0 0 1.398 0l8.58545-8.39214a4.89455 4.89455 0 0 0 0-7.02585zm-59.64801 47.14857-.71582-2.09876 1.71167-1.67333 1.43134 1.3992zm8.74513-5.46324a1.00074 1.00074 0 0 0 -.57813.27736l-2.87793 2.81366-4.293-4.19656 2.8457-2.78241a.99575.99575 0 0 0 .29254-.58793l1.176-9.19829 12.81624 12.528zm12.99952-.40628-17.1714-16.78526 2.86231-2.79706 17.1714 16.78427zm2.862-5.59509-14.30982-13.98729 22.89516-22.38 7.155 6.99392-2.1297 2.082a2.94609 2.94609 0 0 0 -.00049 4.22733l1.43066 1.399.00049.00049a3.06514 3.06514 0 0 0 4.25977 0l2.16279-2.11439 1.431 1.39865zm17.90266-23.09476a1.05409 1.05409 0 0 1 -1.46386-.00048l-1.43067-1.399a.9457.9457 0 0 1 .00049-1.3663l5.72364-5.59558a1.05349 1.05349 0 0 1 1.46338.00049l1.43115 1.39853a.94626.94626 0 0 1 -.00049 1.36679zm15.74026-6.9941-7.88624 7.709-2.86225-2.79754 2.12982-2.08217a2.94724 2.94724 0 0 0 .00049-4.2283l-1.43115-1.39853a3.06579 3.06579 0 0 0 -4.25977 0l-2.16248 2.11409-8.58607-8.39233 7.854-7.67725a3.11108 3.11108 0 0 1 4.3252 0l12.87846 12.5887a2.89243 2.89243 0 0 1 0 4.16433z"/><path d="m34.64307 17.52482-8.58546 8.39263a1.00034 1.00034 0 0 0 1.39844 1.43076l8.58546-8.39264a1.00033 1.00033 0 0 0 -1.39844-1.43075z"/><path d="m23.61 27.73h2v2.001h-2z" transform="matrix(.699 -.715 .715 .699 -13.138 26.239)"/></g></svg>