<?xml version="1.0"?>
<svg xmlns="http://www.w3.org/2000/svg" viewBox="0 0 64 64" width="512" height="512"><g id="_29-fountain_pen_ink" data-name="29-fountain pen ink"><rect x="20" y="19" width="24" height="8" style="fill:#8f6f61"/><rect x="13" y="7" width="38" height="12" rx="2" style="fill:#4e3c36"/><path d="M51.7821,63A5.97934,5.97934,0,0,0,56.862,60.19415C59.22569,56.40527,63,49.495,63,44c0-19-28-21-31-21S1,25,1,44c0,5.495,3.77431,12.40527,6.138,16.19415A5.97934,5.97934,0,0,0,12.2179,63Z" style="fill:#8f6f61"/><path d="M12,57C8.7373,51.76953,7,44,7,44S17,31,32,31,57,44,57,44s-1.72656,7.75-5,13Z" style="fill:#a8d7e4"/><rect x="20" y="39" width="24" height="6" style="fill:#87bbc9"/><path d="M48.98828,25.44336C47.66162,24.92621,46.32,24.484,45,24.10461V20h4a3.00328,3.00328,0,0,0,3-3V9a3.00328,3.00328,0,0,0-3-3H15a3.00328,3.00328,0,0,0-3,3v8a3.00328,3.00328,0,0,0,3,3h4v4.10461c-1.31995.37934-2.66162.8216-3.98828,1.33875C5.19141,29.27148,0,35.68848,0,44c0,5.77734,3.94043,12.958,6.28906,16.72363A6.94088,6.94088,0,0,0,12.21777,64H51.78223a6.94088,6.94088,0,0,0,5.92871-3.27637C60.05957,56.958,64,49.77734,64,44,64,35.68848,58.80859,29.27148,48.98828,25.44336ZM14,17V9a1.00067,1.00067,0,0,1,1-1H49a1.00067,1.00067,0,0,1,1,1v8a1.00067,1.00067,0,0,1-1,1H15A1.00067,1.00067,0,0,1,14,17Zm7,3H43v3.57544A53.19447,53.19447,0,0,0,32,22a53.195,53.195,0,0,0-11,1.57544ZM56.01367,59.665A4.9528,4.9528,0,0,1,51.78223,62H12.21777a4.9528,4.9528,0,0,1-4.23144-2.335C5.751,56.08105,2,49.2793,2,44,2,25.1748,31.7002,24,32,24s30,1.1748,30,20C62,49.2793,58.249,56.08105,56.01367,59.665Z"/><path d="M57.793,43.39062C57.37207,42.84375,47.31641,30,32,30S6.62793,42.84375,6.207,43.39062a.996.996,0,0,0-.18262.82715c.07227.32422,1.8125,7.99707,5.127,13.31153A1.00029,1.00029,0,0,0,12,58H52a1.00029,1.00029,0,0,0,.84863-.4707c3.3252-5.334,5.05567-12.98828,5.127-13.31153A.99871.99871,0,0,0,57.793,43.39062ZM51.43652,56h-38.873A49.06911,49.06911,0,0,1,8.08789,44.249C9.82617,42.18652,19.06934,32,32,32S54.17383,42.18652,55.91211,44.25A48.92172,48.92172,0,0,1,51.43652,56Z"/><path d="M44,38H20a.99943.99943,0,0,0-1,1v6a.99943.99943,0,0,0,1,1H44a.99943.99943,0,0,0,1-1V39A.99943.99943,0,0,0,44,38Zm-1,6H21V40H43Z"/><path d="M38,50H20a1,1,0,0,0,0,2H38a1,1,0,0,0,0-2Z"/><path d="M44,50H42a1,1,0,0,0,0,2h2a1,1,0,0,0,0-2Z"/><path d="M17,9a.99943.99943,0,0,0-1,1v6a1,1,0,0,0,2,0V10A.99943.99943,0,0,0,17,9Z"/><path d="M23,17a.99943.99943,0,0,0,1-1V10a1,1,0,0,0-2,0v6A.99943.99943,0,0,0,23,17Z"/><path d="M29,17a.99943.99943,0,0,0,1-1V10a1,1,0,0,0-2,0v6A.99943.99943,0,0,0,29,17Z"/><path d="M35,17a.99943.99943,0,0,0,1-1V10a1,1,0,0,0-2,0v6A.99943.99943,0,0,0,35,17Z"/><path d="M41,17a.99943.99943,0,0,0,1-1V10a1,1,0,0,0-2,0v6A.99943.99943,0,0,0,41,17Z"/><path d="M47,17a.99943.99943,0,0,0,1-1V10a1,1,0,0,0-2,0v6A.99943.99943,0,0,0,47,17Z"/></g></svg>
