<?xml version="1.0"?>
<svg xmlns="http://www.w3.org/2000/svg" viewBox="0 0 64 64" width="512" height="512"><g id="_22-stamp" data-name="22-stamp"><path d="M48,47S38,41,38,32s2.48541-13,2.48541-13a11,11,0,1,0-16.97082,0S26,23,26,32,16,47,16,47Z" style="fill:#e7cea0"/><path d="M40.48541,19a11,11,0,1,0-16.97082,0Z" style="fill:#d89670"/><path d="M63,63H1L6.02669,49.59551A4,4,0,0,1,9.772,47H54.228a4,4,0,0,1,3.74531,2.59551Z" style="fill:#d89670"/><polygon points="1 63 63 63 61.5 59 2.5 59 1 63" style="fill:#e7cea0"/><path d="M63.93632,62.64844,58.91,49.24414A5.0255,5.0255,0,0,0,54.2274,46H48.29146C46.909,45.1048,39,39.64893,39,32c0-8.04492,2.05369-11.97168,2.30858-12.42773a11.99944,11.99944,0,1,0-18.618,0C22.95318,20.042,25,23.96973,25,32c0,7.63153-7.911,13.10352-9.29278,14H9.7726A5.0255,5.0255,0,0,0,5.09,49.24414L.06368,62.64844A1.0002,1.0002,0,0,0,1.0002,64H62.9998a1.0002,1.0002,0,0,0,.93652-1.35156ZM22.00006,12a10,10,0,1,1,17.98817,6H24.01177A10.00619,10.00619,0,0,1,22.00006,12Zm5,20a32.584,32.584,0,0,0-1.91362-12H38.91359A32.584,32.584,0,0,0,37,32c0,6.52808,4.79147,11.47607,7.90071,14H19.09932C22.20856,43.47607,27,38.52808,27,32ZM6.96305,49.94727A3.01353,3.01353,0,0,1,9.7726,48H54.2274A3.01353,3.01353,0,0,1,57.037,49.94727L60.05652,58H3.94348ZM2.44355,62l.74993-2h57.613l.74993,2Z"/><path d="M38.03024,11.24219a.99951.99951,0,1,0,1.93944-.48438,11.78706,11.78706,0,0,0-4.415-6.58984,1,1,0,0,0-1.1123,1.66211A9.92748,9.92748,0,0,1,38.03024,11.24219Z"/><rect x="37.99996" y="13" width="1.99999" height="2"/></g></svg>
