<svg  transform="rotate(90)" height="512" viewBox="0 0 64 64" width="512" xmlns="http://www.w3.org/2000/svg"><g id="_11-organizer_notebook" data-name="11-organizer notebook"><path d="m13 7h38a6 6 0 0 1 6 6v50a0 0 0 0 1 0 0h-50a0 0 0 0 1 0 0v-50a6 6 0 0 1 6-6z" fill="#f6f0e5"/><path d="m7 13h44v50h-44z" fill="#7bace6"/><path d="m18 5h8v5h-8z" fill="#f5b3bd"/><path d="m29 3h8v7h-8z" fill="#95c590"/><path d="m40 1h8v9h-8z" fill="#e36861"/><path d="m41 33h17a2 2 0 0 1 2 2v6a2 2 0 0 1 -2 2h-17a5 5 0 0 1 -5-5 5 5 0 0 1 5-5z" fill="#5c92d6"/><circle cx="42" cy="38" fill="#fcea81" r="2"/><path d="m19 19h26v8h-26z" fill="#a8d7e4"/><path d="m7 13h6v50h-6z" fill="#5c92d6"/><g fill="#fcea81"><rect height="4" rx="2" width="6" x="4" y="21"/><rect height="4" rx="2" width="6" x="4" y="31"/><rect height="4" rx="2" width="6" x="4" y="41"/><rect height="4" rx="2" width="6" x="4" y="51"/></g><path d="m58 32v-19a7.00818 7.00818 0 0 0 -7-7h-2v-5a.99974.99974 0 0 0 -1-1h-8a.99974.99974 0 0 0 -1 1v5h-1v-3a.99974.99974 0 0 0 -1-1h-8a.99974.99974 0 0 0 -1 1v3h-1v-1a.99974.99974 0 0 0 -1-1h-8a.99974.99974 0 0 0 -1 1v1h-4a7.00818 7.00818 0 0 0 -7 7v7a3 3 0 0 0 0 6v4a3 3 0 0 0 0 6v4a3 3 0 0 0 0 6v4a3 3 0 0 0 0 6v7a.99974.99974 0 0 0 1 1h50a.99974.99974 0 0 0 1-1v-19a3.00328 3.00328 0 0 0 3-3v-6a3.00328 3.00328 0 0 0 -3-3zm-17-30h6v7h-6zm-11 2h6v5h-6zm-11 2h6v3h-6zm-6 2h4v2a.99974.99974 0 0 0 1 1h8a.99974.99974 0 0 0 1-1v-2h1v2a.99974.99974 0 0 0 1 1h8a.99974.99974 0 0 0 1-1v-2h1v2a.99974.99974 0 0 0 1 1h8a.99974.99974 0 0 0 1-1v-2h2a5.00588 5.00588 0 0 1 5 5v19h-4v-19a.99974.99974 0 0 0 -1-1h-42.89893a5.00837 5.00837 0 0 1 4.89893-4zm-8 15a1.001 1.001 0 0 1 1-1h2a1 1 0 0 1 0 2h-2a1.001 1.001 0 0 1 -1-1zm0 10a1.001 1.001 0 0 1 1-1h2a1 1 0 0 1 0 2h-2a1.001 1.001 0 0 1 -1-1zm0 10a1.001 1.001 0 0 1 1-1h2a1 1 0 0 1 0 2h-2a1.001 1.001 0 0 1 -1-1zm0 10a1.001 1.001 0 0 1 1-1h2a1 1 0 0 1 0 2h-2a1.001 1.001 0 0 1 -1-1zm3 3a3 3 0 0 0 0-6v-4a3 3 0 0 0 0-6v-4a3 3 0 0 0 0-6v-4a3 3 0 0 0 0-6v-6h4v48h-4zm6 6v-48h36v18h-9a6 6 0 0 0 0 12h9v18zm42 0h-4v-18h4zm3-21a1.001 1.001 0 0 1 -1 1h-17a4 4 0 0 1 0-8h17a1.001 1.001 0 0 1 1 1z"/><path d="m42 35a3 3 0 1 0 3 3 3.00328 3.00328 0 0 0 -3-3zm0 4a1 1 0 1 1 1-1 1.001 1.001 0 0 1 -1 1z"/><path d="m19 28h26a.99974.99974 0 0 0 1-1v-8a.99974.99974 0 0 0 -1-1h-26a.99974.99974 0 0 0 -1 1v8a.99974.99974 0 0 0 1 1zm1-8h24v6h-24z"/><path d="m19 51h20a1 1 0 0 0 0-2h-20a1 1 0 0 0 0 2z"/><path d="m45 49h-2a1 1 0 0 0 0 2h2a1 1 0 0 0 0-2z"/><path d="m45 55h-20a1 1 0 0 0 0 2h20a1 1 0 0 0 0-2z"/><path d="m21 55h-2a1 1 0 0 0 0 2h2a1 1 0 0 0 0-2z"/></g></svg>