<svg height="512" viewBox="0 0 64 64" width="512" xmlns="http://www.w3.org/2000/svg"><g id="_14-paint_board" data-name="14-paint board"><path d="m36 49c0-9.38885 27-7 27-22 0-17-13.87915-26-31-26a31.00061 31.00061 0 1 0 5.39538 61.52863 4.00014 4.00014 0 0 0 2.68178-5.99434c-1.32831-2.26957-4.07716-4.82639-4.07716-7.53429z" fill="#f6f0e5"/><circle cx="31" cy="31" fill="#f5b3bd" r="6"/><circle cx="38" cy="12" fill="#e36861" r="6"/><circle cx="22" cy="14" fill="#fcea81" r="6"/><circle cx="12" cy="27" fill="#7bace6" r="6"/><circle cx="14" cy="43" fill="#b295f0" r="6"/><circle cx="27" cy="53" fill="#d89670" r="5"/><ellipse cx="50.5" cy="24.5" fill="#a8d7e4" rx="7.794" ry="4.871" transform="matrix(.707 -.707 .707 .707 -2.533 42.885)"/><path d="m32.00045 0a32.00165 32.00165 0 0 0 -31.94487 33.89941 31.97409 31.97409 0 0 0 29.92442 30.03809q1.00707.063 2.01218.0625a32.01745 32.01745 0 0 0 5.57756-.4873 4.84876 4.84876 0 0 0 3.60346-2.78028 5.08684 5.08684 0 0 0 -.23242-4.70312 24.847 24.847 0 0 0 -1.50925-2.18457c-1.19533-1.6084-2.43115-3.27149-2.43115-4.84473 0-3.43848 4.85686-5.14355 10.48032-7.11719 7.35976-2.58398 16.5193-5.79981 16.5193-14.88281 0-16.14941-12.85968-27-31.99955-27zm14.81815 39.99512c-6.07755 2.13379-11.81819 4.14941-11.81819 9.00488 0 2.23535 1.50095 4.25586 2.82564 6.03809a23.33381 23.33381 0 0 1 1.38816 2.001 3.0883 3.0883 0 0 1 .14405 2.85449 2.87951 2.87951 0 0 1 -2.13669 1.6504 30.2951 30.2951 0 0 1 -7.11758.39746 30.00072 30.00072 0 0 1 1.89646-59.94144c18.22386 0 29.99955 9.813 29.99955 25 0 7.666-7.71764 10.375-15.1814 12.99512z"/><path d="m31.00046 24a7 7 0 1 0 6.9999 7 7.00781 7.00781 0 0 0 -6.9999-7zm0 12a5 5 0 1 1 4.99993-5 5.00585 5.00585 0 0 1 -4.99993 5z"/><path d="m38.00036 5a7 7 0 1 0 6.99991 7 7.00781 7.00781 0 0 0 -6.99991-7zm0 12a5 5 0 1 1 4.99993-5 5.00585 5.00585 0 0 1 -4.99993 5z"/><path d="m22.00059 21a7 7 0 1 0 -6.9999-7 7.00781 7.00781 0 0 0 6.9999 7zm0-12a5 5 0 1 1 -4.99993 5 5.00585 5.00585 0 0 1 4.99993-5z"/><path d="m12.00073 34a7 7 0 1 0 -6.9999-7 7.00781 7.00781 0 0 0 6.9999 7zm0-12a5 5 0 1 1 -4.99993 5 5.00585 5.00585 0 0 1 4.99993-5z"/><path d="m14.0007 36a7 7 0 1 0 6.9999 7 7.00812 7.00812 0 0 0 -6.9999-7zm0 12a5 5 0 1 1 4.99993-5 5.00585 5.00585 0 0 1 -4.99993 5z"/><path d="m27.00052 47a6 6 0 1 0 5.99991 6 6.00652 6.00652 0 0 0 -5.99991-6zm0 10a4 4 0 1 1 3.99994-4 4.00425 4.00425 0 0 1 -3.99994 4z"/><path d="m51.7365 17.19287a11.531 11.531 0 0 0 -5.38762 3.15576 11.53135 11.53135 0 0 0 -3.15572 5.3877 5.15392 5.15392 0 0 0 1.08884 4.98193 4.60587 4.60587 0 0 0 3.352 1.28418 7.2536 7.2536 0 0 0 1.62986-.19531 11.53109 11.53109 0 0 0 5.38762-3.15576 11.53135 11.53135 0 0 0 3.15572-5.3877 5.1539 5.1539 0 0 0 -1.08886-4.98193 5.15369 5.15369 0 0 0 -4.98184-1.08887zm4.122 5.62109a9.52376 9.52376 0 0 1 -2.62105 4.42334 9.52373 9.52373 0 0 1 -4.42328 2.6211 3.26006 3.26006 0 0 1 -3.11812-.5542 3.2592 3.2592 0 0 1 -.55419-3.11816 9.52376 9.52376 0 0 1 2.62105-4.42334 9.52373 9.52373 0 0 1 4.42328-2.6211 5.2494 5.2494 0 0 1 1.17284-.14306 2.66861 2.66861 0 0 1 1.94528.69726 3.2592 3.2592 0 0 1 .5542 3.1182z"/></g></svg>