<svg transform="rotate(45)" height="512" viewBox="0 0 64 64" width="512" xmlns="http://www.w3.org/2000/svg"><g id="_13-paintbrush" data-name="13-paintbrush"><path d="m24 50a13 13 0 0 1 -13 13 14.3481 14.3481 0 0 1 -10-4c4.68719-.31262 9-4.2337 9-9 0 0 0-10 7-10s7 10 7 10z" fill="#f6f0e5"/><rect fill="#dbb55c" height="4" rx="2" transform="matrix(.707 .707 -.707 .707 36.047 -3.485)" width="18" x="13.23" y="39.77"/><path d="m40.02944-4.02944h4a4 4 0 0 1 4 4v48a0 0 0 0 1 0 0h-12a0 0 0 0 1 0 0v-48a4 4 0 0 1 4-4z" fill="#e7cea0" transform="matrix(.707 .707 -.707 .707 27.846 -23.284)"/><path d="m21.887 30.113h12v12h-12z" fill="#fcea81" transform="matrix(.707 .707 -.707 .707 33.704 -9.142)"/><path d="m62.53767 4.29069-2.82867-2.82869a5.006 5.006 0 0 0 -7.071 0l-33.23547 33.23512a3.00013 3.00013 0 0 0 -4.24232 4.24333l.24585.24586c-5.01022 1.10643-6.40571 7.35294-6.40571 10.81316 0 4.04605-3.694 7.71123-8.06666 8.00225a1.00006 1.00006 0 0 0 -.65676 1.68855 15.42181 15.42181 0 0 0 10.72348 4.30973 14.01621 14.01621 0 0 0 14.00044-14.00053c0-.04041-.00232-.53689-.07514-1.29345l.13422.13422a3.00013 3.00013 0 1 0 4.24232-4.24332l33.23542-33.23516a5.00517 5.00517 0 0 0 0-7.07107zm-34.64967 24.74931 7.07176 7.07131-7.07157 7.0715-7.07151-7.07156zm-5.42141 17.21714a16.50034 16.50034 0 0 1 .5342 3.74233 12.01385 12.01385 0 0 1 -12.00038 12.00045 13.94369 13.94369 0 0 1 -7.74241-2.38778c4.37221-1.25786 7.74243-5.257 7.74243-9.6117.001-.3672.08692-9.00132 6.00019-9.00132a.95266.95266 0 0 0 .18158-.03668l5.28374 5.28377zm5.42107 1.169a1.02044 1.02044 0 0 1 -1.41313 0h-.00053l-9.89973-9.8998a1.00027 1.00027 0 0 1 1.41411-1.41509l9.89977 9.89975a1.00131 1.00131 0 0 1 -.00049 1.41513zm33.23591-37.47849-24.74974 24.74954-7.07176-7.07132 24.75-24.74978a3.00221 3.00221 0 0 1 4.2428 0l2.82871 2.82872a3.00406 3.00406 0 0 1 -.00001 4.24284z"/><path d="m49.30484 10.78068-9.89973 9.8998a.99993.99993 0 1 0 1.41411 1.41411l9.89972-9.89979a.99993.99993 0 0 0 -1.4141-1.41412z"/><path d="m36.991 22.509h2v2h-2z" transform="matrix(.707 -.707 .707 .707 -5.496 33.749)"/></g></svg>