<svg transform="rotate(-90)" height="512" viewBox="0 0 64 64" width="512" xmlns="http://www.w3.org/2000/svg"><g id="_19-paperclip" data-name="19-paperclip"><path d="m27 63a12.01343 12.01343 0 0 1 -12-12v-33a17 17 0 0 1 34 0v33h-4v-33a13 13 0 0 0 -26 0v33a8 8 0 0 0 16 0v-33a3 3 0 0 0 -6 0v33h-4v-33a7 7 0 0 1 14 0v33a12.01343 12.01343 0 0 1 -12 12z" fill="#f6f0e5"/><path d="m32 0a18.02063 18.02063 0 0 0 -18 18v33a13 13 0 0 0 26 0v-33a8 8 0 0 0 -16 0v33a.99974.99974 0 0 0 1 1h4a.99974.99974 0 0 0 1-1v-33a2 2 0 0 1 4 0v33a7 7 0 0 1 -14 0v-33a12 12 0 0 1 24 0v33a.99974.99974 0 0 0 1 1h4a.99974.99974 0 0 0 1-1v-33a18.02063 18.02063 0 0 0 -18-18zm16 50h-2v-32a14 14 0 0 0 -28 0v33a9 9 0 0 0 18 0v-33a4 4 0 0 0 -8 0v32h-2v-32a6 6 0 0 1 12 0v33a11 11 0 0 1 -22 0v-33a16 16 0 0 1 32 0z"/></g></svg>