<svg transform="rotate(-90)" height="512" viewBox="0 0 64 64" width="512" xmlns="http://www.w3.org/2000/svg"><g id="_20-ruler_paper" data-name="20-ruler paper"><path d="m57 18v45h-50v-62h33z" fill="#f6f0e5"/><path d="m40 1v17h17z" fill="#ccc7be"/><path d="m57.707 17.293-17-17a1.00012 1.00012 0 0 0 -.707-.293h-33a.99974.99974 0 0 0 -1 1v62a.99974.99974 0 0 0 1 1h50a.99974.99974 0 0 0 1-1v-45a.99928.99928 0 0 0 -.293-.707zm-16.707-13.87894 13.58594 13.58594h-13.58594zm-33 58.58594v-60h31v16a.99974.99974 0 0 0 1 1h16v43z"/><path d="m14 23h36v2h-36z"/><path d="m14 15h23v2h-23z"/><path d="m14 7h23v2h-23z"/><path d="m14 31h36v2h-36z"/><path d="m14 39h36v2h-36z"/><path d="m14 47h36v2h-36z"/><path d="m14 55h36v2h-36z"/></g></svg>