<svg transform="rotate(45)" height="512" viewBox="0 0 64 64" width="512" xmlns="http://www.w3.org/2000/svg"><g id="_2-pen" data-name="2-pen"><path d="m9.28246 60.2027s20.01593-13.28719 24.84736-18.18247 25.53758-28.67234 25.53758-28.67234l-9.66287-9.79056s-23.467 20.97977-28.29839 25.875-17.94532 25.17576-17.94532 25.17576z" fill="#7bace6"/><path d="m58.287 11.94924-6.90206-6.99324 2.76082-2.7973a3.86848 3.86848 0 0 1 5.52164 0l1.38041 1.39865a3.99307 3.99307 0 0 1 0 5.59461z" fill="#a8d7e4"/><path d="m5.141 56.007-4.141 6.993 6.902-4.196z" fill="#a8d7e4"/><g fill="#5c92d6"><path d="m10.42843 44.58 8.75133 8.867c1.06686-.74538 2.161-1.5165 3.25513-2.29646l-9.74-9.86867c-.76974 1.1086-1.5308 2.21713-2.26646 3.29813z"/><path d="m57.076 16.31682c1.59976-1.83022 2.59143-2.96893 2.59143-2.96893l-9.6629-9.79056s-1.12386 1.00477-2.93021 2.62567z"/><path d="m57.076 16.31682c-.74455.85179-1.62576 1.85886-2.59513 2.96518l3.80613 3.85645-12.4237 12.58786a1.99652 1.99652 0 0 0 0 2.7973 1.93424 1.93424 0 0 0 2.76081 0l13.80411-13.98651a1.99655 1.99655 0 0 0 0-2.79731z"/></g><path d="m63.14267 21.03711-4.6999-4.7619c1.10924-1.27 1.83485-2.103 1.981-2.27082a1.00016 1.00016 0 0 0 -.042-1.35937l-.68677-.69592 2.06728-2.09461a5.0016 5.0016 0 0 0 0-7l-1.38047-1.39844a4.86947 4.86947 0 0 0 -6.94559 0l-2.04922 2.07595-.66866-.67749a1.00072 1.00072 0 0 0 -1.37848-.043c-.95902.85749-23.54635 21.05665-28.34486 25.91849-4.84788 4.9116-17.53638 24.5034-18.074 25.33494a1.001 1.001 0 0 0 .12794 1.24561l.839.85009-3.7483 6.32959a1.00008 1.00008 0 0 0 1.37994 1.36426l6.22626-3.78491.8248.83569a1.0005 1.0005 0 0 0 1.26519.13037c.82084-.54492 20.15853-13.40039 25.00736-18.313 3.20691-3.24921 13.17118-14.54432 19.68347-21.97242l2.35745 2.38843-11.73094 11.88528a3.00263 3.00263 0 0 0 0 4.20166 2.9352 2.9352 0 0 0 4.18474.00048l13.80476-13.98681a3.00323 3.00323 0 0 0 0-4.20215zm-8.28256-18.17627a2.93507 2.93507 0 0 1 4.09782.00049l1.38042 1.39844a2.99315 2.99315 0 0 1 0 4.18945l-2.04885 2.076-5.497-5.56934zm-4.8962 2.07666 8.34262 8.45215c-.31605.36236-.74868.858-1.27281 1.458l-8.50877-8.6206c.58999-.52911 1.07939-.96759 1.43896-1.28955zm-37.132 37.90656 8.06527 8.17126q-.80341.56891-1.59882 1.127l-7.57866-7.67821q.54897-.80365 1.11222-1.62005zm-8.93284 17.22332 1.44171-2.43469.96122.97394zm5.51536-1.15478-4.37664-4.43408c.88315-1.35437 3.00994-4.59827 5.53538-8.32807l7.06083 7.15355c-3.671 2.55177-6.8682 4.70393-8.21957 5.6086zm24.00487-17.59522a105.59511 105.59511 0 0 1 -10.87147 8.52246l-8.55583-8.66827a106.82108 106.82108 0 0 1 8.42686-11.03632c3.60238-3.65033 17.82921-16.47674 24.61549-22.57055l8.67912 8.79321c-6.00756 6.86798-18.68801 21.30621-22.29417 24.95947zm28.29948-17.48291-13.80478 13.98682a.9563.9563 0 0 1 -1.337 0 .99508.99508 0 0 1 0-1.39258l12.42433-12.5874a1.00057 1.00057 0 0 0 0-1.40527l-3.15284-3.1944c.45192-.51612.87436-.999 1.2741-1.45606l4.59613 4.65631a.99508.99508 0 0 1 .00006 1.39258z"/><path d="m47.291 11.9707a.99937.99937 0 0 0 -1.41314-.05761l-15.18523 13.98681a1.00005 1.00005 0 0 0 1.35552 1.47071l15.18518-13.98682a1.00013 1.00013 0 0 0 .05767-1.41309z"/><path d="m28.3 27.75h2v1.965h-2z" transform="matrix(.712 -.702 .702 .712 -11.737 28.861)"/></g></svg>