<svg transform="rotate(45)" id="_1-pencil" height="512" viewBox="0 0 64 64" width="512" xmlns="http://www.w3.org/2000/svg" data-name="1-pencil"><path d="m16.49633 58.77373-15.49633 4.22627 4.22627-15.49633 45.33662-45.33662a3.98457 3.98457 0 0 1 5.635 0l5.635 5.635a3.98457 3.98457 0 0 1 0 5.635z" fill="#bdccd4"/><path d="m57.60667 17.66339-11.27006-11.27006 4.22628-4.22628a3.98457 3.98457 0 0 1 5.635 0l5.635 5.635a3.98457 3.98457 0 0 1 0 5.635z" fill="#f6f0e5"/><path d="m5.226 47.504-4.226 15.496 15.496-4.226-1.408-5.635h-4.227v-4.227z" fill="#e7cea0"/><path d="m3.11314 55.25183a10.30361 10.30361 0 0 1 3.52186 2.11317 10.30361 10.30361 0 0 1 2.11314 3.52189l-7.74814 2.11311z" fill="#8f6f61"/><path d="m46.337 6.393-41.111 41.111 5.635 1.408 38.998-38.997z" fill="#bd4f48"/><path d="m57.607 17.663-41.111 41.111-1.408-5.635 38.997-38.998z" fill="#bd4f48"/><path d="m49.859 9.915 4.226 4.226-38.997 38.998h-4.227v-4.227z" fill="#e36861"/><path d="m48.571 5.468h3.985v15.938h-3.985z" fill="#fcea81" transform="matrix(.707 -.707 .707 .707 5.308 39.689)"/><path d="m62.54243 7.093-5.63543-5.63542a4.99012 4.99012 0 0 0 -7.0491 0l-45.33866 45.33864a1.00055 1.00055 0 0 0 -.25783.44386l-4.22623 15.49669a1.00035 1.00035 0 0 0 1.22807 1.22807l15.49668-4.22623a1.00044 1.00044 0 0 0 .44387-.25783l45.33863-45.33864a4.99014 4.99014 0 0 0 0-7.04914zm-51.98726 40.7115-3.37244-.843 36.33804-36.3385 2.10793 2.108zm1.30663 1.5216 35.181-35.181 2.81211 2.81212-35.181 35.181h-2.81211zm4.33372 4.11875 35.07353-35.07354 2.10795 2.10793-36.33841 36.338zm28.73937-44.23594 1.40331-1.40344 9.85633 9.85634-1.40344 1.40331zm-39.00123 39.50209 3.92806.98178v3.44545a1.00009 1.00009 0 0 0 1 1h3.44548l.98179 3.92806-5.94627 1.62178a10.4788 10.4788 0 0 0 -2.00013-3.03064 10.4788 10.4788 0 0 0 -3.03059-2.00013zm-2.15627 7.90646a8.05814 8.05814 0 0 1 2.15108 1.45409 8.05859 8.05859 0 0 1 1.4541 2.15108l-4.95716 1.352zm57.35092-43.88946-3.51966 3.51967-9.85633-9.85631 3.51968-3.51967a3.05732 3.05732 0 0 1 4.22086 0l5.63547 5.63547a2.98486 2.98486 0 0 1 0 4.22086z"/></svg>