<svg transform="rotate(-90)" height="512" viewBox="0 0 64 64" width="512" xmlns="http://www.w3.org/2000/svg"><g id="_16-pencil_sharpener" data-name="16-pencil sharpener"><path d="m51 24h4a2 2 0 0 1 2 2v14a0 0 0 0 1 0 0h-8a0 0 0 0 1 0 0v-14a2 2 0 0 1 2-2z" fill="#a8d7e4"/><path d="m55 44h5a3 3 0 0 1 3 3 3 3 0 0 1 -3 3h-5a0 0 0 0 1 0 0v-6a0 0 0 0 1 0 0z" fill="#a8d7e4"/><path d="m50 40h6v10h-6z" fill="#87bbc9"/><path d="m50 63h-38s-3-36-3-38c0-4 8-16 8-16h28s8 12 8 16c0 2-3 38-3 38z" fill="#87bbc9"/><path d="m42 63h-38s-3-36-3-38c0-4 8-16 8-16h28s8 12 8 16c0 2-3 38-3 38z" fill="#a8d7e4"/><path d="m40 25c-.34375-1.55957-3.60254-7.69922-6.27441-12h-21.45118c-2.66699 4.292-5.92382 10.43213-6.27441 12 0 0 3 8 17 8s17-8 17-8z" fill="#7bace6"/><circle cx="23" cy="23" fill="#87bbc9" r="5"/><path d="m10 41h26v16h-26z" fill="#f6f0e5"/><path d="m12 1h8v6h-8z" fill="#7bace6"/><path d="m14 7h4v6h-4z" fill="#87bbc9"/><path d="m26 1h8v6h-8z" fill="#7bace6"/><path d="m28 7h4v6h-4z" fill="#87bbc9"/><path d="m60 43h-3v-2a.99943.99943 0 0 0 1-1v-14a3.00328 3.00328 0 0 0 -3-3h-1.35962c-1.47894-4.968-7.08362-13.46759-7.80838-14.55469a1.00028 1.00028 0 0 0 -.832-.44531h-11a.99974.99974 0 0 0 1-1v-6a.99974.99974 0 0 0 -1-1h-8a.99974.99974 0 0 0 -1 1v6a.99974.99974 0 0 0 1 1h-6a.99974.99974 0 0 0 1-1v-6a.99974.99974 0 0 0 -1-1h-8a.99974.99974 0 0 0 -1 1v6a.99974.99974 0 0 0 1 1h-3a1.00028 1.00028 0 0 0 -.832.44531c-.836 1.25391-8.168 12.37256-8.168 16.55469 0 2.01855 2.88086 36.61133 3.00391 38.083a.999.999 0 0 0 .99609.917h46a.999.999 0 0 0 .99609-.917c.046-.5495.47651-5.718.99787-12.083h8.00604a4 4 0 0 0 0-8zm-5-18a1.001 1.001 0 0 1 1 1v13h-3.03363c.56622-7.08856 1.03363-13.187 1.03363-14zm-40-17h2v4h-2zm18.167 6a83.5595 83.5595 0 0 1 5.77149 10.92041c-.66896 1.3291-4.24513 7.07959-15.93849 7.07959-11.75488 0-15.27148-5.72021-15.93945-7.0752a83.52794 83.52794 0 0 1 5.77245-10.9248zm-4.167-2v-4h2v4zm-2-10h6v4h-6zm0 8v2h-8v-2zm-14-8h6v4h-6zm28.08008 60h-36.16016c-1.05273-12.6582-2.91992-35.48828-2.91992-37 0-2.90332 5.18555-11.41455 7.53809-15h3.46191v2h-.72559a1.001 1.001 0 0 0 -.84961.47217c-2.63574 4.2417-6.0058 10.54248-6.40039 12.30957a.99369.99369 0 0 0 .03907.56933c.13281.35303 3.41015 8.64893 17.93652 8.64893s17.80371-8.2959 17.93652-8.64893a1.00031 1.00031 0 0 0 .04-.5664c-.38672-1.75293-3.75879-8.05811-6.40136-12.3125a1.001 1.001 0 0 0 -.84957-.47217h-.72559v-2h3.46191c2.35254 3.58545 7.53809 12.09668 7.53809 15 0 1.51172-1.86719 24.3418-2.91992 37zm8 0h-5.99378c.50696-6.09631 2.9137-35.15448 2.9137-37 0-3.425-4.91559-11.4989-7.15527-15h5.61718c2.35254 3.58545 7.53809 12.09668 7.53809 15 0 1.51172-1.86719 24.3418-2.91992 37zm3.07745-13c.21283-2.60577.43494-5.34137.64856-8h2.19391v8zm7.84247 0h-3v-4h3a2 2 0 0 1 0 4z"/><path d="m23 29a6 6 0 1 0 -6-6 6.00657 6.00657 0 0 0 6 6zm-1-9.858v.858a1 1 0 0 0 2 0v-.858a3.99383 3.99383 0 0 1 2.858 2.858h-.858a1 1 0 0 0 0 2h.858a3.99383 3.99383 0 0 1 -2.858 2.858v-.858a1 1 0 0 0 -2 0v.858a3.99383 3.99383 0 0 1 -2.858-2.858h.858a1 1 0 0 0 0-2h-.858a3.99383 3.99383 0 0 1 2.858-2.858z"/><path d="m36 40h-26a.99943.99943 0 0 0 -1 1v16a.99943.99943 0 0 0 1 1h26a.99943.99943 0 0 0 1-1v-16a.99943.99943 0 0 0 -1-1zm-1 16h-24v-14h24z"/><path d="m31.293 48.707a.99989.99989 0 0 0 1.414-1.414l-4-4a.99989.99989 0 0 0 -1.414 1.414z"/><path d="m27.293 54.707a.99989.99989 0 1 0 1.414-1.414l-10-10a.99989.99989 0 0 0 -1.414 1.414z"/><path d="m17.293 53.707a.99989.99989 0 1 0 1.414-1.414l-4-4a.99989.99989 0 0 0 -1.414 1.414z"/></g></svg>