<svg height="512" viewBox="0 0 64 64" width="512" xmlns="http://www.w3.org/2000/svg"><g id="_21-push_pin" data-name="21-push pin"><path d="m38.908 12.092h10v16h-10z" fill="#bd4f48" transform="matrix(.707 .707 -.707 .707 27.068 -25.163)"/><path d="m11.3812 22.92031c8.98206-8.98206 20.79037-7.4939 28.99138.70711s9.68917 20.00932.70711 28.99138z" fill="#e36861"/><path d="m36.97918 10.02082h28a0 0 0 0 1 0 0v2a4 4 0 0 1 -4 4h-20a4 4 0 0 1 -4-4v-2a0 0 0 0 1 0 0z" fill="#e36861" transform="matrix(.707 .707 -.707 .707 24.139 -32.234)"/><rect fill="#bd4f48" height="4" rx="2" transform="matrix(.707 .707 -.707 .707 34.976 -6.071)" width="48" x=".816" y="37.184"/><path d="m5.967 62.276-4.967.724.724-4.967 19.557-19.556 4.242 4.242z" fill="#f6f0e5"/><path d="m63.707 20.0918-19.79875-19.7988a.99962.99962 0 0 0 -1.41406 0l-1.41455 1.414a5.00646 5.00646 0 0 0 0 7.07129l2.82843 2.82831-7.56029 7.5603a19.97435 19.97435 0 0 0 -24.93348 2.37131l-.03332-.03333a3.00037 3.00037 0 0 0 -4.24218 4.24412l12.72788 12.72768-18.84945 18.84949a1.00123 1.00123 0 0 0 -.28271.5625l-.72412 4.9668a1.00053 1.00053 0 0 0 .98974 1.14453 1.03468 1.03468 0 0 0 .14453-.01074l4.96679-.72461a1.0005 1.0005 0 0 0 .5625-.28223l18.84969-18.84881 12.72787 12.72772a2.99968 2.99968 0 0 0 4.24218-4.24219l-.03259-.03259a19.97569 19.97569 0 0 0 2.37218-24.93445l7.56023-7.56024 2.82818 2.82806a4.99932 4.99932 0 0 0 7.07127 0l1.41403-1.41406a.99962.99962 0 0 0 0-1.41406zm-58.21273 41.2422-3.311.48243.48291-3.31055 18.61456-18.61513 2.82885 2.82885zm35.58488-5.88671a1.02042 1.02042 0 0 1 -1.41308 0h-.00049l-31.11272-31.11229a1.00041 1.00041 0 0 1 1.41455-1.415l31.11223 31.1132a1.001 1.001 0 0 1 -.00049 1.41407zm-.03106-4.27381-28.2207-28.22213c7.96661-7.30987 18.63319-6.82092 26.83819 1.38265 8.20555 8.20555 8.69407 18.87187 1.38251 26.83946zm2.64165-25.20593a26.01088 26.01088 0 0 0 -5.65733-5.65711l7.28971-7.28973 5.65734 5.65711zm17.18917-4.46167a3.07372 3.07372 0 0 1 -4.24315 0l-14.14206-14.14162a3.00453 3.00453 0 0 1 0-4.24317l.70752-.707 18.38472 18.38474z"/><path d="m26.93758 20.50586a28.67636 28.67636 0 0 0 -9.5864 2.20215 1 1 0 0 0 .39453 1.91894.98436.98436 0 0 0 .39306-.08105 27.11977 27.11977 0 0 1 8.79881-2.04 1 1 0 0 0 0-2z"/><path d="m29.473 21.213h2v2h-2z" transform="matrix(.707 -.707 .707 .707 -6.781 28.054)"/></g></svg>