<svg transform="rotate(90)" height="512" viewBox="0 0 64 64" width="512" xmlns="http://www.w3.org/2000/svg"><g id="_5-rulers" data-name="5-rulers"><g fill="#a8d7e4"><path d="m8.32234 8.32234a25 25 0 0 0 0 35.35533l35.35533-35.35533a25 25 0 0 0 -35.35533 0zm1.41628 22.62534a16.99512 16.99512 0 0 1 21.20906-21.20906z"/><path d="m1 63h42v-42zm34-8h-14.68652l14.68652-14.68652z"/><path d="m47 1h16v62h-16z"/></g><path d="m44.37207 7.61523a26 26 0 0 0 -36.76953 36.76954.99965.99965 0 0 0 1.41406 0l35.35547-35.35547a.99964.99964 0 0 0 0-1.41407zm-3.53571 2.12116-2.82855-2.82819-1.41406 1.41407 2.82861 2.82818-2.82873 2.82874-1.41394-1.41425-1.41407 1.41406 1.41395 1.41425-2.8285 2.82855-2.82861-2.82825-1.41406 1.41407 2.82867 2.82824-2.82873 2.82874-1.414-1.41431-1.41407 1.41407 1.414 1.4143-2.82827 2.82834-2.82892-2.82812-1.41403 1.41412 2.82895 2.82809-2.82874 2.8288-1.41426-1.41425-1.41406 1.41407 1.41423 1.41429-2.82843 2.82849-2.829-2.82818-1.41404 1.41401 2.829 2.82819-2.82876 2.82879-1.41431-1.4143-1.41406 1.41406 1.41431 1.41431-1.39966 1.39963a24.00054 24.00054 0 0 1 33.91211-33.91257z"/><path d="m8.76855 31.2373a.99967.99967 0 0 0 .71387.68018.98145.98145 0 0 0 .24317.03027.99921.99921 0 0 0 .707-.293l21.209-21.209a.99987.99987 0 0 0 -.418-1.66406 17.995 17.995 0 0 0 -22.45504 22.45561zm17.209-21.23339a16.0727 16.0727 0 0 1 2.99609.28173l-18.70118 18.70069a15.98909 15.98909 0 0 1 15.70508-18.98242z"/><path d="m20.3137 56h14.68652a.99974.99974 0 0 0 1-1v-14.68652a.99991.99991 0 0 0 -1.707-.707l-14.68655 14.68652a.99991.99991 0 0 0 .70703 1.707zm13.68652-13.27246v11.27246h-11.27246z"/><path d="m43.383 20.07617a.99977.99977 0 0 0 -1.08984.2168l-42 42a.99991.99991 0 0 0 .70706 1.70703h42a.99974.99974 0 0 0 1-1v-42a.99945.99945 0 0 0 -.61722-.92383zm-1.38278 9.92383h-2v2h2v4h-4v2h4v4h-2v2h2v4h-4v2h4v4h-2v2h2v6h-3v-4h-2v4h-4v-2h-2v2h-4v-4h-2v4h-4v-2h-2v2h-4v-4h-2v4h-4v-2h-2v2h-3.58594l38.58594-38.58594z"/><path d="m63 0h-16a.99974.99974 0 0 0 -1 1v62a.99974.99974 0 0 0 1 1h16a.99974.99974 0 0 0 1-1v-62a.99974.99974 0 0 0 -1-1zm-15 62v-60h14v2h-2v2h2v4h-4v2h4v4h-2v2h2v4h-4v2h4v4h-2v2h2v4h-4v2h4v4h-2v2h2v4h-4v2h4v4h-2v2h2v4h-4v2h4v2z"/></g></svg>