<svg transform="rotate(90)" height="512" viewBox="0 0 64 64" width="512" xmlns="http://www.w3.org/2000/svg"><g id="_8-scissors" data-name="8-scissors"><path d="m21.45478 39.2673 31.06748-38.2673.38979 11.88574a8.00007 8.00007 0 0 1 -1.45905 4.87442l-14.252 20.19854-11.3545 5.56921z" fill="#ccc7be"/><path d="m9.52 45.65567c-4.06163 5.73406-2.77238 13.9511.74356 16.38474 4.14329 2.86788 10.6909-1.14546 14.1723-6.06037s5.05706-12.3697.91376-15.23759c-3.5159-2.43363-11.76796-.82085-15.82962 4.91322zm3.31466 2.29433c2.9618-4.18135 8.7524-4.92878 10.19406-3.93091 1.44732 1.0018.78235 5.8693-1.90746 9.66668s-7.08942 6.07986-8.53674 5.07806c-1.44166-.99791-2.71165-6.6325.25014-10.81383z" fill="#e36861"/><path d="m42.54522 39.2673-31.06748-38.2673-.38974 11.88574a8.00007 8.00007 0 0 0 1.459 4.87442l14.252 20.19854 11.3545 5.56921z" fill="#f6f0e5"/><path d="m38.65035 40.74245c-4.1433 2.86789-2.56764 10.32268.91376 15.23759s10.029 8.92825 14.1723 6.06037c3.51594-2.43364 4.80519-10.65068.74356-16.38474s-12.31369-7.34685-15.82962-4.91322zm12.76513 18.02135c-1.44732 1.0018-5.84692-1.28069-8.53674-5.07806s-3.35478-8.66488-1.90746-9.66668c1.44166-.99787 7.23226-.25044 10.19406 3.93091s1.6918 9.81595.25014 10.81383z" fill="#e36861"/><circle cx="32" cy="34" fill="#a8d7e4" r="2"/><path d="m23.59832 43.20012c-1.93062-1.337-8.29084-.4678-11.57935 4.17561a11.57028 11.57028 0 0 0 -1.80465 8.54213 5.69681 5.69681 0 0 0 1.80123 3.67263 2.53307 2.53307 0 0 0 1.4697.41507c2.5434 0 6.30016-2.69941 8.452-5.73772 2.02242-2.8552 3.17913-6.69044 2.75092-9.12031a2.84626 2.84626 0 0 0 -1.08985-1.94741zm-3.2929 9.91138c-2.58784 3.65359-6.44323 5.32364-7.15171 4.83434a4.29166 4.29166 0 0 1 -.97019-2.37517 9.53345 9.53345 0 0 1 1.46725-7.03861c2.79438-3.94609 8.00521-4.243 8.8089-3.68728a1.12729 1.12729 0 0 1 .25878.64995c.28808 1.63391-.45995 4.85927-2.41303 7.61677z"/><path d="m55.29541 45.08112a15.9324 15.9324 0 0 0 -12.02941-6.39628l.05554-.04511-2.87591-3.54268 11.824-16.75863a9.05383 9.05383 0 0 0 1.64157-5.48429l-.38967-11.88662a1.00008 1.00008 0 0 0 -1.77585-.5977l-19.74556 24.3237-19.7458-24.3237a1.00008 1.00008 0 0 0 -1.77585.5977l-.38964 11.88662a9.05383 9.05383 0 0 0 1.64157 5.48429l11.8241 16.759-2.876 3.54232.055.04462a15.93236 15.93236 0 0 0 -12.02891 6.39676 15.55517 15.55517 0 0 0 -2.47212 11.47688 9.61227 9.61227 0 0 0 3.46233 6.30959 6.47687 6.47687 0 0 0 3.75627 1.13241c4.12247 0 8.8587-3.28345 11.801-7.43756 2.7021-3.81474 4.04533-8.56216 3.42278-12.09416a8.319 8.319 0 0 0 -.27129-1.07735l3.5966-1.7641 3.5963 1.764a8.31271 8.31271 0 0 0 -.27135 1.07741c-.62255 3.532.72068 8.27942 3.42278 12.09416 2.94234 4.1546 7.67811 7.43809 11.80104 7.4376a6.47582 6.47582 0 0 0 3.75627-1.13241 9.61227 9.61227 0 0 0 3.46233-6.30959 15.55517 15.55517 0 0 0 -2.47212-11.47688zm-3.68498-41.37122.30175 9.20967a7.04306 7.04306 0 0 1 -1.27634 4.26543l-11.49964 16.299-5.848-7.20371zm-27.99014 51.6962c-3.36614 4.75328-9.30938 8.22522-12.78684 5.81684a7.77448 7.77448 0 0 1 -2.6313-5.01258 13.51449 13.51449 0 0 1 2.13424-9.9729 13.7575 13.7575 0 0 1 10.80251-5.58879 6.49048 6.49048 0 0 1 3.642.9195 4.76648 4.76648 0 0 1 1.92428 3.2478c.52636 2.98557-.71336 7.24174-3.08489 10.59013zm3.922-13.82078a6.22064 6.22064 0 0 0 -1.6232-1.66181 7.14736 7.14736 0 0 0 -2.82184-1.08968l1.65518-2.03854 1.22965 1.74287a1.00183 1.00183 0 0 0 .37646.32131l3.37046 1.65326zm-.07343-4.40908-14.1047-19.99124a7.04306 7.04306 0 0 1 -1.27634-4.26545l.30175-9.20967 28.51363 35.12432a7.14636 7.14636 0 0 0 -2.82178 1.08931 6.21938 6.21938 0 0 0 -1.62363 1.66181zm28.329 19.03412a7.77448 7.77448 0 0 1 -2.6313 5.01258c-3.47649 2.40643-9.42021-1.06307-12.78684-5.81684-2.37153-3.34839-3.61125-7.60456-3.0849-10.59013a4.76648 4.76648 0 0 1 1.92428-3.2478h.00049a6.48485 6.48485 0 0 1 3.64152-.9195 13.75825 13.75825 0 0 1 10.80251 5.58879 13.51449 13.51449 0 0 1 2.13423 9.9729z"/><path d="m40.40168 43.20012a2.84626 2.84626 0 0 0 -1.08982 1.94741c-.42821 2.42987.7285 6.26511 2.75092 9.12031 2.15181 3.03879 5.90857 5.73772 8.452 5.73772a2.53148 2.53148 0 0 0 1.46921-.41507h.00049a5.69681 5.69681 0 0 0 1.80123-3.67263 11.57028 11.57028 0 0 0 -1.80471-8.54213c-3.289-4.64439-9.64967-5.51164-11.57932-4.17561zm11.4148 12.37055a4.29166 4.29166 0 0 1 -.97019 2.37517h-.00049c-.7036.48441-4.56241-1.1788-7.15122-4.83434-1.95308-2.75753-2.70111-5.98286-2.413-7.61677a1.12729 1.12729 0 0 1 .25878-.64995 2.44656 2.44656 0 0 1 1.20993-.21486 9.74474 9.74474 0 0 1 7.599 3.90214 9.53345 9.53345 0 0 1 1.46719 7.03861z"/><path d="m32 31.00245a3.00022 3.00022 0 1 0 2.99994 3.00022 3.00336 3.00336 0 0 0 -2.99994-3.00022zm0 4.00029a1.00008 1.00008 0 1 1 1-1.00007 1.00133 1.00133 0 0 1 -1 1.00007z"/></g></svg>