<?xml version="1.0"?>
<svg transform="rotate(45)" xmlns="http://www.w3.org/2000/svg" viewBox="0 0 64 64" width="512" height="512"><g id="_23-sharpener" data-name="23-sharpener"><path d="M31.29545,7.34091c1.55642,1.55641-2.47055,8.10692-9.86363,15.5S8.19278,33.55642,6.63636,32L1,37.63636,26.36364,63,32,57.36364c-1.55646-1.55646,1.766-7.40238,9.15909-14.79546s13.94354-11.42009,15.5-9.86363L63,26.36364,37.63636,1Z" style="fill:#bd4f48"/><path d="M12.27273,40.45455,38.34091,14.38636V11.56818l4.93182-4.93182L37.63636,1,31.29545,7.34091c1.55642,1.55641-2.47055,8.10692-9.86363,15.5S8.19278,33.55642,6.63636,32L1,37.63636,26.36364,63,32,57.36364c-1.55646-1.55646,1.766-7.40238,9.15909-14.79546s13.94354-11.42009,15.5-9.86363L63,26.36364l-7.04545-7.04546L23.54545,51.72727Z" style="fill:#e36861"/><rect x="13.31058" y="27.01811" width="45.83338" height="9.96378" transform="translate(-12.01669 34.98913) rotate(-45)" style="fill:#f6f0e5"/><circle cx="34" cy="34" r="2" style="fill:#a8d7e4"/><path d="M63.707,25.65625,38.34375.293a.99962.99962,0,0,0-1.41406,0L30.58887,6.63379a.997.997,0,0,0-.00293,1.41113c.51465.72949-1.5918,5.82031-9.86133,14.08887a53.53881,53.53881,0,0,1-9.39649,7.78711C8.55957,31.5957,7.47949,31.42969,7.34375,31.293a.99963.99963,0,0,0-1.41406,0L.293,36.92969a.99962.99962,0,0,0,0,1.41406L25.65625,63.707a.99963.99963,0,0,0,1.41406,0L32.707,58.07031a.99963.99963,0,0,0,0-1.41406c-.13672-.13672-.30371-1.21289,1.37207-3.98437a53.53881,53.53881,0,0,1,7.78711-9.39649c8.26758-8.26855,13.36328-10.375,14.08594-9.86426a.99962.99962,0,0,0,1.41406,0L63.707,27.07031A.99962.99962,0,0,0,63.707,25.65625ZM16.5,43.26758,13.68652,40.4541,39.04785,15.09375a.99928.99928,0,0,0,.293-.707v-2.4043L43.273,8.05029l4.22217,4.22217ZM48.90918,13.68652l5.63135,5.63135L23.5459,50.31348l-5.63184-5.63184Zm7.55566,17.79786c-3.24707-.88086-10.43164,4.79687-16.01269,10.377a55.41685,55.41685,0,0,0-8.085,9.77637c-1.47754,2.44335-2.01563,4.30566-1.61035,5.55468l-4.39356,4.39356L2.41406,37.63672l4.39356-4.39356c1.24707.40332,3.11035-.13281,5.55468-1.61035a55.41685,55.41685,0,0,0,9.77637-8.085c5.58106-5.58008,11.25391-12.75976,10.37695-16.01269l5.1211-5.1211,4.22217,4.22217-4.2251,4.2251a.99927.99927,0,0,0-.293.707v2.4043L11.56543,39.74707a.99963.99963,0,0,0,0,1.41406L22.83887,52.43457a.99963.99963,0,0,0,1.41406,0L55.95459,20.73193l5.63135,5.63135Z"/><path d="M34,37a3,3,0,1,0-3-3A3.00328,3.00328,0,0,0,34,37Zm0-4a1,1,0,1,1-1,1A1.00067,1.00067,0,0,1,34,33Z"/></g></svg>
