<svg transform="rotate(45)" height="512" viewBox="0 0 64 64" width="512" xmlns="http://www.w3.org/2000/svg"><g id="_18-stapler" data-name="18-stapler"><path d="m60.09579 23.04444-42.111 39.95556-1.45211-1.37778a3.75747 3.75747 0 0 1 0-5.51111l39.2068-37.2z" fill="#7bace6"/><path d="m45.575 16.156-34.851 33.066-7.26-6.889 34.85-33.066z" fill="#f6f0e5"/><path d="m3.46375 32.68889 45.01525-31.68889 2.17816 8.95556-47.91946 35.82222s-4.35631-8.26667.72605-13.08889z" fill="#7bace6"/><path d="m63 20.28889-10.16473 9.64444-12.49873-16.60258a3.7495 3.7495 0 0 1 .43793-5.02061l7.70453-7.31014z" fill="#5c92d6"/><circle cx="48" cy="11" fill="#a8d7e4" r="3"/><path d="m63.79906 19.68738-14.51823-19.28912a.99968.99968 0 0 0 -.71566-.395.97612.97612 0 0 0 -.64689.19464l-.01117-.0159-45.00456 31.689a1.0374 1.0374 0 0 0 -.11325.09228c-5.56614 5.28273-1.115 13.91557-.92265 14.27983a1.00055 1.00055 0 0 0 .66489.50976.98375.98375 0 0 0 .21968.02442.99725.99725 0 0 0 .5985-.19922l1.76053-1.31635 4.93816 4.68647a1.00047 1.00047 0 0 0 1.37665 0l32.21488-30.57356 4.23325 5.62484-32.01846 30.38625a4.758 4.758 0 0 0 0 6.96193l1.45182 1.37794a1.0005 1.0005 0 0 0 1.37665 0l34.77248-33.0001-.013-.01367a.9771.9771 0 0 0 .08329-.05322l10.16276-9.64407a1.00124 1.00124 0 0 0 .11033-1.32715zm-60.64559 24.5401c-.89628-2.2461-2.435-7.47463.9617-10.76467l35.07594-24.69807a4.69042 4.69042 0 0 0 .35264 5.16725l1.48679 1.97553zm7.58327 3.61623-4.00118-3.7972 35.49735-26.54145.19631.26086zm7.25813 13.77738-.7635-.72461a2.75671 2.75671 0 0 1 0-4.05959l31.85254-30.22878 2.41847 3.21345zm34.96775-33.18515-11.82157-15.70708a2.74973 2.74973 0 0 1 .32708-3.69337l6.88908-6.53859 13.30756 17.68071z"/><path d="m9.461 42.022h4.003v2h-4.003z" transform="matrix(.725 -.688 .688 .725 -26.469 19.708)"/><path d="m44.00467 10.99985a3.99911 3.99911 0 1 0 3.9991-4 4.00382 4.00382 0 0 0 -3.9991 4zm5.99865 0a1.99955 1.99955 0 1 1 -1.99955-2 2.00207 2.00207 0 0 1 1.99955 2z"/></g></svg>