<?xml version="1.0"?>
<svg transform="rotate(90)" xmlns="http://www.w3.org/2000/svg" viewBox="0 0 64 64" width="512" height="512"><g id="_24-sticky_tape" data-name="24-sticky tape"><path d="M33,15H25V29a10,10,0,0,1,0,20V63h8a24,24,0,0,0,0-48Z" style="fill:#ccc7be"/><path d="M25,15A24,24,0,1,0,49,39,24,24,0,0,0,25,15Zm0,34A10,10,0,1,1,35,39,10,10,0,0,1,25,49Z" style="fill:#f6f0e5"/><path d="M25,63H43A20,20,0,0,0,63,43V1L59,5,56,1,53,5,49,1V39A24,24,0,0,1,25,63Z" style="fill:#f6f0e5"/><rect x="49" y="27" width="14" height="10" style="fill:#95c590"/><path d="M25,50.00005a11,11,0,1,0-11-11A11.01243,11.01243,0,0,0,25,50.00005Zm0-19.99993a9,9,0,1,1-9,9A9.00982,9.00982,0,0,1,25,30.00012Z"/><path d="M26,56a.99943.99943,0,0,0-1-1A16.0183,16.0183,0,0,1,9,39.00009a1,1,0,0,0-2,0A18.0209,18.0209,0,0,0,25,57,.99942.99942,0,0,0,26,56Z"/><path d="M25,23.00014a16.0183,16.0183,0,0,1,16,16,1,1,0,0,0,2,0A18.02091,18.02091,0,0,0,25,21.00015a1,1,0,1,0,0,2Z"/><path d="M63.38281.07639A.99924.99924,0,0,0,62.293.29319L59.1084,3.47775,56.7998.40061a1.03525,1.03525,0,0,0-1.5996,0L52.8916,3.47775,49.707.29319a.99991.99991,0,0,0-1.707.707V19.00644a24.95026,24.95026,0,0,0-15-5.00627H25A24.99992,24.99992,0,1,0,25,64H43A21.02419,21.02419,0,0,0,64,43.00007V1.00022A.99894.99894,0,0,0,63.38281.07639ZM52.293,5.70723a.96805.96805,0,0,0,.77832.29.99693.99693,0,0,0,.72851-.39746L56,2.6672l2.2002,2.93261a.99693.99693,0,0,0,.72851.39746.96325.96325,0,0,0,.77832-.29L62,3.41427V26.00013H50V3.41427ZM62,36.0001H50v-8H62ZM48,21.58492v7.622a25.14513,25.14513,0,0,0-13.00513-13.1155A22.93377,22.93377,0,0,1,48,21.58492ZM2,39.00009A23,23,0,1,1,25,62,23.02552,23.02552,0,0,1,2,39.00009ZM43,62H34.79315A25.03667,25.03667,0,0,0,50,39.00009v-1H62v5A19.02158,19.02158,0,0,1,43,62Z"/></g></svg>
