<svg id="Layer_1" height="512" viewBox="0 0 66 66" width="512" xmlns="http://www.w3.org/2000/svg"><g><g><path d="m52 11.1v-5.7" fill="none"/></g><g><path d="m58.6 11.1v-5.7" fill="none"/></g><g><path d="m64.1 13.7v6.9h-17.6v-6.9c0-1.4 1.2-2.6 2.6-2.6h12.5c1.3 0 2.5 1.2 2.5 2.6z" fill="#fecb4d"/></g><g><path d="m64.1 13.7v6.9h-1.9c-.8-4.4-4.7-7.7-9.3-7.7h-5.5c-.3 0-.5 0-.7.1.3-1.1 1.3-1.8 2.5-1.8h12.5c1.2-.1 2.4 1.1 2.4 2.5z" fill="#f9b826"/></g><g><path d="m46.5 20.7 2.5 7.7h12.6l2.5-7.7z" fill="#1de9b6"/></g><g><path d="m64.1 20.7-2.5 7.7h-12.6l-.6-2h3.1c4.1 0 7.8-2.2 9.8-5.7z" fill="#12d69e"/></g><g><path d="m49 28.4h12.7v32.2h-12.7z" fill="#c7d9f9"/></g><g><path d="m61.6 28.4v32.2h-3.3v-18.2c0-5.8-3.9-10.7-9.3-12.1v-1.8h12.7v-.1z" fill="#b0cdf7"/></g><g><path d="m1.9 30.6c0 1.2 1 2.1 2.2 2.1h44.8v-4.3h-44.8c-1.2 0-2.2 1-2.2 2.2z" fill="#cc87fe"/></g><g><path d="m6 32.7h7.1v8.2h-7.1z" fill="#ff7daf"/></g><g><path d="m13.1 32.7h7.1v8.2h-7.1z" fill="#ff7daf"/></g><g><path d="m20.2 32.7h7.1v8.2h-7.1z" fill="#ff7daf"/></g><g><path d="m27.4 32.7h7.1v8.2h-7.1z" fill="#ff7daf"/></g><g><path d="m34.5 32.7h7.1v8.2h-7.1z" fill="#ff7daf"/></g><g><path d="m41.6 32.7h7.1v8.2h-7.1z" fill="#ff7daf"/></g><g><path d="m6 40.9h42.9v19.7h-42.9z" fill="#02beff"/></g><g><g><path d="m40.9 40.9-19.7 19.7h-15.2v-3.5l16.2-16.2z" fill="#27d1ff"/></g><g><path d="m48.8 40.9v3.5l-16.2 16.2h-6.6l19.7-19.7z" fill="#27d1ff"/></g></g><g><path d="m3.9 60.6h60.2" fill="none"/></g><g><path d="m52.7 34.6h5.2" fill="none"/></g><g><path d="m52.7 41.2h5.2" fill="none"/></g><g><path d="m52.7 47.9h5.2" fill="none"/></g><g><path d="m52.7 54.5h5.2" fill="none"/></g><g><path d="m52 12c-.5 0-.9-.4-.9-.9v-5.7c0-.5.4-.9.9-.9s.9.4.9.9v5.7c-.1.5-.4.9-.9.9z" fill="#2a3c65"/></g><g><path d="m58.6 12c-.5 0-.9-.4-.9-.9v-5.7c0-.5.4-.9.9-.9s.9.4.9.9v5.7c0 .5-.4.9-.9.9z" fill="#2a3c65"/></g><g><path d="m64.1 21.5h-17.6c-.5 0-.9-.4-.9-.9v-6.9c0-1.9 1.6-3.5 3.5-3.5h12.5c1.9 0 3.5 1.6 3.5 3.5v6.9c-.1.5-.5.9-1 .9zm-16.8-1.7h16v-6.1c0-.9-.8-1.7-1.8-1.7h-12.4c-.9 0-1.8.8-1.8 1.7z" fill="#2a3c65"/></g><g><path d="m61.6 29.2h-12.6c-.4 0-.7-.2-.8-.6l-2.5-7.7c-.1-.3 0-.5.1-.8.2-.2.4-.4.7-.4h17.7c.3 0 .5.1.7.4s.2.5.1.8l-2.5 7.7c-.2.4-.5.6-.9.6zm-12-1.7h11.4l2-6h-15.4z" fill="#2a3c65"/></g><g><path d="m61.6 61.5h-12.6c-.5 0-.9-.4-.9-.9v-32.2c0-.5.4-.9.9-.9h12.7c.5 0 .9.4.9.9v32.2c-.1.5-.5.9-1 .9zm-11.8-1.8h10.9v-30.5h-10.9z" fill="#2a3c65"/></g><g><path d="m45.6 33.6h-41.6c-1.6 0-3-1.3-3-3s1.4-3.1 3-3.1h41.5c.5 0 .9.4.9.9s-.4.9-.9.9h-41.5c-.7 0-1.2.6-1.2 1.3 0 .6.5 1.2 1.2 1.2h41.6c.5 0 .9.4.9.9s-.5.9-.9.9z" fill="#2a3c65"/></g><g><path d="m13.1 41.8h-7.1c-.5 0-.9-.4-.9-.9v-8.2c0-.5.4-.9.9-.9h7.1c.5 0 .9.4.9.9v8.2c0 .5-.4.9-.9.9zm-6.3-1.7h5.4v-6.5h-5.4z" fill="#2a3c65"/></g><g><path d="m20.2 41.8h-7.1c-.5 0-.9-.4-.9-.9v-8.2c0-.5.4-.9.9-.9h7.1c.5 0 .9.4.9.9v8.2c0 .5-.4.9-.9.9zm-6.2-1.7h5.4v-6.5h-5.4z" fill="#2a3c65"/></g><g><path d="m27.4 41.8h-7.1c-.5 0-.9-.4-.9-.9v-8.2c0-.5.4-.9.9-.9h7.1c.5 0 .9.4.9.9v8.2c-.1.5-.4.9-.9.9zm-6.3-1.7h5.4v-6.5h-5.4z" fill="#2a3c65"/></g><g><path d="m34.5 41.8h-7.1c-.5 0-.9-.4-.9-.9v-8.2c0-.5.4-.9.9-.9h7.1c.5 0 .9.4.9.9v8.2c0 .5-.4.9-.9.9zm-6.3-1.7h5.4v-6.5h-5.4z" fill="#2a3c65"/></g><g><path d="m41.6 41.8h-7.1c-.5 0-.9-.4-.9-.9v-8.2c0-.5.4-.9.9-.9h7.1c.5 0 .9.4.9.9v8.2c0 .5-.4.9-.9.9zm-6.2-1.7h5.4v-6.5h-5.4z" fill="#2a3c65"/></g><g><path d="m45.6 41.8h-3.9c-.5 0-.9-.4-.9-.9v-8.2c0-.5.4-.9.9-.9h3.9c.5 0 .9.4.9.9s-.4.9-.9.9h-3.1v6.5h3.1c.5 0 .9.4.9.9s-.5.8-.9.8z" fill="#2a3c65"/></g><g><path d="m45.6 61.5h-39.6c-.5 0-.9-.4-.9-.9v-19.7c0-.5.4-.9.9-.9h39.6c.5 0 .9.4.9.9s-.4.9-.9.9h-38.8v17.9h38.7c.5 0 .9.4.9.9s-.4.9-.8.9z" fill="#2a3c65"/></g><g><path d="m64.1 61.5h-60.2c-.5 0-.9-.4-.9-.9s.4-.9.9-.9h60.3c.5 0 .9.4.9.9s-.5.9-1 .9z" fill="#2a3c65"/></g><g><path d="m57.9 35.5h-5.2c-.5 0-.9-.4-.9-.9s.4-.9.9-.9h5.2c.5 0 .9.4.9.9s-.4.9-.9.9z" fill="#2a3c65"/></g><g><path d="m57.9 42.1h-5.2c-.5 0-.9-.4-.9-.9s.4-.9.9-.9h5.2c.5 0 .9.4.9.9s-.4.9-.9.9z" fill="#2a3c65"/></g><g><path d="m57.9 48.7h-5.2c-.5 0-.9-.4-.9-.9s.4-.9.9-.9h5.2c.5 0 .9.4.9.9s-.4.9-.9.9z" fill="#2a3c65"/></g><g><path d="m57.9 55.3h-5.2c-.5 0-.9-.4-.9-.9s.4-.9.9-.9h5.2c.5 0 .9.4.9.9s-.4.9-.9.9z" fill="#2a3c65"/></g></g></svg>