<svg id="Layer_1" height="512" viewBox="0 0 66 66" width="512" xmlns="http://www.w3.org/2000/svg"><g><g><path d="m58.4 62.2h-44.6v-58.4h38.5c3.4 0 6.1 2.7 6.1 6.1z" fill="#c7d9f9"/></g><g><path d="m58.4 9.9v52.4h-5.9v-10.3c0-12.3-5-23.5-13.1-31.5-6.7-6.9-15.7-11.5-25.6-12.8v-4h38.5c3.4.1 6.1 2.8 6.1 6.2z" fill="#b0cdf7"/></g><g><path d="m58.4 63.2h-44.6c-.6 0-1-.4-1-1v-48.3c0-.6.4-1 1-1s1 .4 1 1v47.3h42.6v-47.3c0-.6.4-1 1-1s1 .4 1 1v48.3c0 .5-.4 1-1 1z" fill="#2a3c65"/></g><g><path d="m58.4 9.9c0-3.4-2.7-6.1-6.1-6.1h-45.5c-1.7 0-3.1 1.4-3.1 3.1 0 1.7 1.4 3.1 3.1 3.1z" fill="#ffd880"/><path d="m58.4 11h-51.6c-2.3 0-4.1-1.8-4.1-4.1s1.8-4.1 4.1-4.1h45.5c4 0 7.1 3.1 7.1 7.1v.1c0 .6-.4 1-1 1zm-51.6-6.2c-1.1 0-2.1 1-2.1 2.1s1 2.1 2.1 2.1h50.5c-.4-2.4-2.5-4.2-5-4.2z" fill="#2a3c65"/></g><g><path d="m13.8 31.4v5.3h-8.3c-2 0-3.5-1.6-3.5-3.6 0-.9.8-1.7 1.7-1.7z" fill="#ff7daf"/><path d="m13.8 37.7h-8.3c-2.5 0-4.5-2-4.5-4.6 0-1.5 1.2-2.7 2.7-2.7h10.1c.6 0 1 .4 1 1v5.3c0 .5-.4 1-1 1zm-10.1-5.3c-.3 0-.7.4-.7.7 0 1.5 1.1 2.6 2.5 2.6h7.3v-3.3z" fill="#2a3c65"/></g><g><path d="m3.8 32.4c-.6 0-1-.4-1-1v-8c0-.6.4-1 1-1s1 .4 1 1v8c0 .6-.4 1-1 1z" fill="#2a3c65"/></g><g><path d="m8.8 32.4c-.6 0-1-.4-1-1v-8c0-.6.4-1 1-1s1 .4 1 1v8c0 .6-.4 1-1 1z" fill="#2a3c65"/></g><g><path d="m13.8 24.4h-11.8c-.6 0-1-.4-1-1s.4-1 1-1h11.8c.6 0 1 .4 1 1s-.4 1-1 1z" fill="#2a3c65"/></g><g><path d="m50.9 42.3v19.9h-13.9v-19.9c0-1.1.9-2 2-2h9.9c1.1 0 2 .9 2 2z" fill="#e3ecff"/></g><g><path d="m50.9 63.2h-13.9c-.6 0-1-.4-1-1v-19.9c0-1.7 1.3-3 3-3h9.9c1.7 0 3 1.3 3 3v19.9c0 .5-.4 1-1 1zm-12.9-2h11.9v-18.9c0-.6-.4-1-1-1h-9.9c-.6 0-1 .4-1 1z" fill="#2a3c65"/></g><g><g><path d="m30.6 19.5v10.1c0 .5-.4.9-.9.9h-7.5c-.5 0-.9-.4-.9-.9v-10.1c0-.5.4-.9.9-.9h7.5c.5-.1.9.3.9.9z" fill="#27d1ff"/></g><g><path d="m30.6 41.3v10.1c0 .5-.4.9-.9.9h-7.5c-.5 0-.9-.4-.9-.9v-10.1c0-.5.4-.9.9-.9h7.5c.5-.1.9.3.9.9z" fill="#27d1ff"/></g><g><path d="m50.9 19.5v10.1c0 .5-.4.9-.9.9h-7.5c-.5 0-.9-.4-.9-.9v-10.1c0-.5.4-.9.9-.9h7.5c.5-.1.9.3.9.9z" fill="#27d1ff"/></g></g><g><g><path d="m29.7 31.5h-7.5c-1 0-1.9-.9-1.9-1.9v-10.1c0-1 .9-1.9 1.9-1.9h7.4c1.1-.1 2 .7 2 1.9v10.1c0 1.1-.9 1.9-1.9 1.9zm-7.4-2h7.3v-9.9h-7.3z" fill="#2a3c65"/></g><g><path d="m29.7 53.3h-7.5c-1 0-1.9-.9-1.9-1.9v-10.1c0-1 .9-1.9 1.9-1.9h7.4c1.1-.2 2 .7 2 1.9v10.1c0 1-.9 1.9-1.9 1.9zm-7.4-2h7.3v-9.9h-7.3z" fill="#2a3c65"/></g><g><path d="m50 31.5h-7.5c-1 0-1.9-.9-1.9-1.9v-10.1c0-1 .9-1.9 1.9-1.9h7.4c1.1-.1 2 .7 2 1.9v10.1c0 1.1-.9 1.9-1.9 1.9zm-7.4-2h7.3v-9.9h-7.3z" fill="#2a3c65"/></g></g><g><path d="m64 63.2h-56.1c-.6 0-1-.4-1-1s.4-1 1-1h56.1c.6 0 1 .4 1 1s-.4 1-1 1z" fill="#2a3c65"/></g><g><path d="m40.6 53.3c-.6 0-1-.4-1-1v-2.1c0-.6.4-1 1-1s1 .4 1 1v2.1c0 .5-.4 1-1 1z" fill="#2a3c65"/></g></g></svg>