<svg id="Layer_1" height="512" viewBox="0 0 66 66" width="512" xmlns="http://www.w3.org/2000/svg"><g><g><path d="m7.2 26.1h51.6v33.5h-51.6z" fill="#e3ecff"/></g><g><path d="m54.3 26.1h4.4v33.5h-4.4z" fill="#ff7daf"/></g><g><path d="m42.9 26.1h4.4v33.5h-4.4z" fill="#ff7daf"/></g><g><path d="m18.7 26.1h4.4v33.5h-4.4z" fill="#ff7daf"/></g><g><path d="m7.2 26.1h4.4v33.5h-4.4z" fill="#ff7daf"/></g><g><path d="m54.3 52.6c-.6 0-1-.5-1-1v-12.4c0-.6.5-1 1-1s1 .5 1 1v12.4c0 .6-.4 1-1 1z" fill="#2a3c65"/></g><g><path d="m58.8 52.6c-.6 0-1-.5-1-1v-12.4c0-.6.5-1 1-1s1 .5 1 1v12.4c0 .6-.5 1-1 1z" fill="#2a3c65"/></g><g><path d="m42.9 52.6c-.6 0-1-.5-1-1v-12.4c0-.6.5-1 1-1s1 .5 1 1v12.4c0 .6-.5 1-1 1z" fill="#2a3c65"/></g><g><path d="m47.3 52.6c-.6 0-1-.5-1-1v-12.4c0-.6.5-1 1-1s1 .5 1 1v12.4c0 .6-.5 1-1 1z" fill="#2a3c65"/></g><g><path d="m18.7 52.6c-.6 0-1-.5-1-1v-12.4c0-.6.5-1 1-1s1 .5 1 1v12.4c0 .6-.4 1-1 1z" fill="#2a3c65"/></g><g><path d="m23.1 52.6c-.6 0-1-.5-1-1v-12.4c0-.6.5-1 1-1s1 .5 1 1v12.4c.1.6-.4 1-1 1z" fill="#2a3c65"/></g><g><path d="m7.2 52.6c-.6 0-1-.5-1-1v-12.4c0-.6.5-1 1-1s1 .5 1 1v12.4c.1.6-.4 1-1 1z" fill="#2a3c65"/></g><g><path d="m11.7 52.6c-.6 0-1-.5-1-1v-12.4c0-.6.5-1 1-1s1 .5 1 1v12.4c0 .6-.5 1-1 1z" fill="#2a3c65"/></g><g><path d="m62.9 26.1v3.3c0 1.1-.9 1.9-2 1.9h-55.8c-1.1 0-2-.9-2-1.9v-3.3l26.6-23.1c.9-.8 2.1-1.2 3.3-1.2s2.4.4 3.3 1.2z" fill="#e3ecff"/></g><g><path d="m36.3 3c-.9-.8-2.1-1.2-3.3-1.2s-2.4.4-3.3 1.2l-8.1 7h.8l2-1.7c.9-.8 2.1-1.2 3.3-1.2s2.4.4 3.3 1.2l26.5 22.9h3.4c1.1 0 2-.9 2-1.9v-3.3z" fill="#c7d9f9"/></g><g><path d="m60.9 32.3h-55.8c-1.6 0-3-1.3-3-2.9v-3.3c0-.3.1-.6.4-.8l26.5-23c1.1-.9 2.5-1.5 4-1.5s2.9.5 4 1.5l26.5 23c.2.2.3.5.3.8v3.3c.1 1.6-1.2 2.9-2.9 2.9zm-56.8-5.8v2.9c0 .4.4.9 1 .9h55.7c.5 0 1-.3 1-.9v-2.9l-26.1-22.7c-.7-.6-1.6-1-2.7-1-1 0-2 .3-2.6 1z" fill="#2a3c65"/></g><g><circle cx="33" cy="14.8" fill="#38fcc4" r="5.4"/></g><g><path d="m33 21.2c-3.6 0-6.4-2.9-6.4-6.4s2.9-6.4 6.4-6.4c3.6 0 6.4 2.9 6.4 6.4s-2.8 6.4-6.4 6.4zm0-10.8c-2.4 0-4.4 2-4.4 4.4s2 4.4 4.4 4.4 4.4-2 4.4-4.4-2-4.4-4.4-4.4z" fill="#2a3c65"/></g><g><path d="m38.5 59.5h-11v-10.3c0-3 2.4-5.5 5.5-5.5 3 0 5.5 2.4 5.5 5.5z" fill="#e3ecff"/><path d="m38.5 60.6h-11c-.6 0-1-.5-1-1v-10.4c0-3.6 2.9-6.5 6.5-6.5s6.5 2.9 6.5 6.5v10.4c0 .5-.4 1-1 1zm-10-2.1h9v-9.3c0-2.5-2-4.5-4.5-4.5s-4.5 2-4.5 4.5z" fill="#2a3c65"/></g><g><path d="m38.5 59.5h-11v-10.3c0-3 2.4-5.5 5.5-5.5 3 0 5.5 2.4 5.5 5.5z" fill="#d5a6ff"/></g><g><path d="m38.5 60.6h-11c-.6 0-1-.5-1-1v-10.4c0-3.6 2.9-6.5 6.5-6.5s6.5 2.9 6.5 6.5v10.4c0 .5-.4 1-1 1zm-10-2.1h9v-9.3c0-2.5-2-4.5-4.5-4.5s-4.5 2-4.5 4.5z" fill="#2a3c65"/></g><g><g><path d="m13.3 31.4v1.8c0 1.1-.9 2-2 2h-3.6c-1.1 0-2-.9-2-2v-1.8" fill="#27d1ff"/></g><g><path d="m24.7 31.4v1.8c0 1.1-.9 2-2 2h-3.5c-1.1 0-2-.9-2-2v-1.8" fill="#27d1ff"/></g><g><path d="m48.9 31.4v1.8c0 1.1-.9 2-2 2h-3.5c-1.1 0-2-.9-2-2v-1.8" fill="#27d1ff"/></g><g><path d="m60.3 31.4v1.8c0 1.1-.9 2-2 2h-3.5c-1.1 0-2-.9-2-2v-1.8" fill="#27d1ff"/></g><g><path d="m5.7 59.5v-1.8c0-1.1.9-2 2-2h3.5c1.1 0 2 .9 2 2v1.8" fill="#27d1ff"/></g><g><path d="m17.1 59.5v-1.8c0-1.1.9-2 2-2h3.5c1.1 0 2 .9 2 2v1.8" fill="#27d1ff"/></g><g><path d="m41.3 59.5v-1.8c0-1.1.9-2 2-2h3.5c1.1 0 2 .9 2 2v1.8" fill="#27d1ff"/></g><g><path d="m52.7 59.5v-1.8c0-1.1.9-2 2-2h3.5c1.1 0 2 .9 2 2v1.8" fill="#27d1ff"/></g><g><path d="m11.3 36.2h-3.6c-1.7 0-3-1.4-3-3v-1.8c0-.6.5-1 1-1h7.5c.6 0 1 .5 1 1v1.8c.1 1.7-1.3 3-2.9 3zm-4.5-3.8v.8c0 .5.4 1 1 1h3.5c.5 0 1-.4 1-1v-.8z" fill="#2a3c65"/></g><g><path d="m22.6 36.2h-3.5c-1.7 0-3-1.4-3-3v-1.8c0-.6.5-1 1-1h7.5c.6 0 1 .5 1 1v1.8c.1 1.7-1.3 3-3 3zm-4.5-3.8v.8c0 .5.4 1 1 1h3.5c.5 0 1-.4 1-1v-.8z" fill="#2a3c65"/></g><g><path d="m46.9 36.2h-3.5c-1.7 0-3-1.4-3-3v-1.8c0-.6.5-1 1-1h7.5c.6 0 1 .5 1 1v1.8c0 1.7-1.3 3-3 3zm-4.5-3.8v.8c0 .5.4 1 1 1h3.5c.5 0 1-.4 1-1v-.8z" fill="#2a3c65"/></g><g><path d="m58.3 36.2h-3.5c-1.7 0-3-1.4-3-3v-1.8c0-.6.5-1 1-1h7.5c.6 0 1 .5 1 1v1.8c0 1.7-1.4 3-3 3zm-4.6-3.8v.8c0 .5.4 1 1 1h3.5c.5 0 1-.4 1-1v-.8z" fill="#2a3c65"/></g><g><path d="m13.3 60.6h-7.6c-.6 0-1-.5-1-1v-1.8c0-1.7 1.4-3 3-3h3.5c1.7 0 3 1.4 3 3v1.8c.1.5-.4 1-.9 1zm-6.5-2.1h5.5v-.8c0-.5-.4-1-1-1h-3.6c-.5 0-1 .4-1 1v.8z" fill="#2a3c65"/></g><g><path d="m24.6 60.6h-7.5c-.6 0-1-.5-1-1v-1.8c0-1.7 1.4-3 3-3h3.5c1.7 0 3 1.4 3 3v1.8c.1.5-.4 1-1 1zm-6.5-2.1h5.5v-.8c0-.5-.4-1-1-1h-3.5c-.5 0-1 .4-1 1z" fill="#2a3c65"/></g><g><path d="m48.9 60.6h-7.5c-.6 0-1-.5-1-1v-1.8c0-1.7 1.4-3 3-3h3.5c1.7 0 3 1.4 3 3v1.8c0 .5-.4 1-1 1zm-6.5-2.1h5.5v-.8c0-.5-.4-1-1-1h-3.5c-.5 0-1 .4-1 1z" fill="#2a3c65"/></g><g><path d="m60.3 60.6h-7.5c-.6 0-1-.5-1-1v-1.8c0-1.7 1.4-3 3-3h3.5c1.7 0 3 1.4 3 3v1.8c0 .5-.5 1-1 1zm-6.6-2.1h5.5v-.8c0-.5-.4-1-1-1h-3.5c-.5 0-1 .4-1 1z" fill="#2a3c65"/></g></g><g><path d="m64 63.2c0 .6-.5 1-1 1h-60c-.6 0-1-.5-1-1 0-2 1.6-3.6 3.6-3.6h54.7c2.1-.1 3.7 1.5 3.7 3.6z" fill="#b0cdf7"/></g><g><path d="m63 65.2h-60c-1.1 0-2-.9-2-2 0-2.6 2.1-4.6 4.6-4.6h54.7c2.6 0 4.6 2.1 4.6 4.6.1 1.1-.8 2-1.9 2zm-57.4-4.6c-1.5 0-2.6 1.1-2.6 2.6h59.9c0-1.5-1.1-2.6-2.6-2.6z" fill="#2a3c65"/></g><g><path d="m56.6 27.1h-47.2c-.6 0-1-.5-1-1s.5-1 1-1h47.3c.6 0 1 .5 1 1s-.5 1-1.1 1z" fill="#2a3c65"/></g></g></svg>