<svg id="Layer_1" height="512" viewBox="0 0 66 66" width="512" xmlns="http://www.w3.org/2000/svg"><g><g><path d="m6.6 16.6h52.8v44h-52.8z" fill="#c7d9f9"/></g><g><path d="m59.4 16.6v3.9h-4.8c-12.2 0-23.3 5-31.3 12.9-7.1 7.1-11.9 16.6-12.8 27.2h-4v-44z" fill="#b0cdf7"/></g><g><path d="m59.4 61.5h-52.8c-.6 0-1-.4-1-1v-28.1c0-.6.4-1 1-1s1 .4 1 1v27.1h50.7v-27.1c0-.6.4-1 1-1s1 .4 1 1v28.1c.1.5-.4 1-.9 1z" fill="#2a3c65"/></g><g><path d="m62.1 14.2c0-1.3-1.1-2.4-2.4-2.4h-53.4c-1.3 0-2.4 1.1-2.4 2.4 0 1.3 1.1 2.4 2.4 2.4h53.4c1.4 0 2.4-1.1 2.4-2.4z" fill="#e3ecff"/></g><g><path d="m59.8 17.6h-53.5c-1.8 0-3.4-1.5-3.4-3.4s1.6-3.4 3.4-3.4h53.3c1.8 0 3.4 1.5 3.4 3.4.1 1.9-1.4 3.4-3.2 3.4zm-53.5-4.7c-.7 0-1.4.6-1.4 1.4s.7 1.4 1.4 1.4h53.4c.7 0 1.3-.6 1.3-1.4 0-.7-.7-1.4-1.4-1.4z" fill="#2a3c65"/></g><g><path d="m55.3 36v13.1c0 1.1-.9 2-2 2h-19.7c-1.1 0-2-.9-2-2v-13.1c0-1.1.9-2 2-2h19.7c1.1 0 2 .9 2 2z" fill="#38fcc4"/></g><g><path d="m53.3 52.1h-19.7c-1.7 0-3-1.3-3-3v-13.1c0-1.6 1.3-3 3-3h19.7c1.7 0 3 1.3 3 3v13.1c0 1.6-1.4 3-3 3zm-19.7-17.1c-.6 0-1 .4-1 1v13.1c0 .5.4 1 1 1h19.7c.5 0 1-.4 1-1v-13.1c0-.5-.4-1-1-1z" fill="#2a3c65"/></g><g><path d="m27 39.7v20.7h-15.2v-20.7c0-1.5 1.2-2.6 2.6-2.6h9.8c1.6.1 2.8 1.3 2.8 2.6z" fill="#ffd880"/></g><g><path d="m27 61.5h-15.2c-.6 0-1-.4-1-1v-20.7c0-2 1.6-3.6 3.6-3.6h9.8c2.1 0 3.8 1.6 3.8 3.6v20.7c0 .5-.4 1-1 1zm-14.2-2h13.2v-19.7c0-.9-.8-1.6-1.8-1.6h-9.8c-.9 0-1.6.7-1.6 1.6z" fill="#2a3c65"/></g><g><path d="m61.2 61.6h-56.4c-.6 0-1-.4-1-1s.4-1 1-1h56.3c.6 0 1 .4 1 1s-.4 1-.9 1z" fill="#2a3c65"/></g><g><path d="m14.8 50.5c-.6 0-1-.4-1-1v-1.5c0-.6.4-1 1-1s1 .4 1 1v1.5c0 .5-.4 1-1 1z" fill="#2a3c65"/></g><g><g><path d="m50.9 28.4c-1.9 0-3.5-1.2-4-3.1l-2.5-8.8h7.6l2.8 6c1.2 2.8-.8 5.9-3.9 5.9z" fill="#ff7daf"/></g><g><path d="m14.1 16.6h7.6l-2.5 8.8c-.5 1.8-2.2 3.1-4.1 3.1-3.1 0-5.1-3.2-3.8-6z" fill="#ff7daf"/></g><g><path d="m36.8 16.6.7 7c.3 2.6-1.8 4.9-4.5 4.9s-4.7-2.3-4.5-4.9l.7-7z" fill="#ff7daf"/></g></g><g><g><path d="m50.9 29.4c-2.4 0-4.4-1.5-5-3.8l-2.5-8.8c-.1-.3 0-.6.2-.9.2-.2.5-.4.8-.4h7.6c.4 0 .7.2.9.6l2.8 6c.7 1.7.6 3.5-.4 5s-2.7 2.3-4.4 2.3zm-5.2-11.9 2.1 7.6c.4 1.4 1.6 2.3 3 2.3 1.1 0 2.1-.5 2.7-1.5.6-.9.7-2.1.3-3.1l-2.5-5.4h-5.6z" fill="#2a3c65"/></g><g><path d="m15.1 29.5c-1.8 0-3.4-.9-4.4-2.4s-1.1-3.4-.3-5l2.8-6c.2-.4.5-.6.9-.6h7.6c.3 0 .6.1.8.4s.3.6.2.9l-2.5 8.8c-.6 2.4-2.7 3.9-5.1 3.9zm-.3-11.9-2.6 5.4c-.5 1-.4 2.1.2 3.1.6.9 1.6 1.5 2.7 1.5 1.4 0 2.8-1 3.1-2.3l2.1-7.6h-5.5z" fill="#2a3c65"/></g><g><path d="m33 29.5c-1.6 0-3-.6-4-1.8-1-1.1-1.6-2.7-1.5-4.2l.7-7.1c.1-.5.5-.9 1-.9h7.6c.5 0 .9.4 1 .9l.7 7c.2 1.5-.3 3-1.3 4.1-1.1 1.4-2.6 2-4.2 2zm-2.9-11.9-.6 6.1c-.1 1 .3 1.9.9 2.7.7.7 1.6 1.1 2.6 1.1s2-.4 2.7-1.2c.6-.7.9-1.6.8-2.6l-.6-6.2h-5.8z" fill="#2a3c65"/></g></g><g><path d="m21.7 16.6h7.5l-.8 7.9c-.2 2.3-2.1 4-4.4 4-2.9 0-5-2.8-4.2-5.6z" fill="#27d1ff"/></g><g><path d="m60.1 28.4c-1.5 0-2.9-.9-3.5-2.2l-4.6-9.6h7.5l3.9 5.8c1.7 2.6-.2 6-3.3 6z" fill="#27d1ff"/></g><g><path d="m6.6 16.6h7.5l-4.6 9.6c-.7 1.4-2 2.2-3.6 2.2-3.1 0-5-3.5-3.3-6.1z" fill="#27d1ff"/></g><g><path d="m46.2 22.9c.8 2.8-1.3 5.6-4.2 5.6-2.3 0-4.2-1.7-4.4-4l-.8-7.9h7.5z" fill="#27d1ff"/></g><g><path d="m24 29.5c-1.7 0-3.3-.8-4.3-2.1-1-1.4-1.3-3.1-.9-4.7l1.9-6.4c.1-.4.5-.7 1-.7h7.5c.3 0 .6.1.7.3.2.2.3.5.3.8l-.8 7.9c-.2 2.8-2.6 4.9-5.4 4.9zm-1.5-11.9-1.7 5.6c-.3 1-.1 2.1.5 2.9.6.9 1.6 1.3 2.7 1.3 1.8 0 3.2-1.3 3.4-3.1l.7-6.9h-5.6z" fill="#2a3c65"/></g><g><path d="m60.1 29.4c-1.9 0-3.6-1.1-4.4-2.8l-4.6-9.6c-.1-.3-.1-.7.1-1s.5-.5.8-.5h7.5c.3 0 .6.2.8.4l3.9 5.8c1 1.5 1.1 3.4.2 5-.9 1.7-2.5 2.7-4.3 2.7zm-6.5-11.8 3.9 8.2c.4 1 1.5 1.6 2.6 1.6s2.1-.6 2.6-1.6.5-2.1-.1-3l-3.6-5.3h-5.4z" fill="#2a3c65"/></g><g><path d="m5.9 29.4c-1.8 0-3.5-1-4.3-2.6-.9-1.6-.8-3.5.2-5l4-5.8c.2-.3.5-.4.8-.4h7.5c.3 0 .7.2.8.5.2.3.2.7.1 1l-4.6 9.6c-.9 1.7-2.5 2.7-4.5 2.7zm1.3-11.8-3.7 5.3c-.6.9-.6 2-.1 2.9.5 1 1.5 1.6 2.6 1.6 1.2 0 2.2-.6 2.7-1.6l3.9-8.2z" fill="#2a3c65"/></g><g><path d="m42 29.4c-2.8 0-5.1-2.1-5.4-4.9l-.8-7.9c0-.3.1-.6.3-.8s.5-.3.7-.3h7.5c.4 0 .8.3 1 .7l1.9 6.4c.5 1.6.2 3.3-.9 4.7-1 1.4-2.6 2.1-4.3 2.1zm-4.1-11.9.7 6.8c.2 1.8 1.6 3.1 3.4 3.1 1.1 0 2-.5 2.7-1.3.6-.9.8-1.9.5-2.9l-1.7-5.6h-5.6z" fill="#2a3c65"/></g><g><path d="m52.4 8.4v3.5h-14v-3.5c0-1.7 1.3-3 3-3h8c1.7 0 3 1.4 3 3z" fill="#cc87fe"/></g><g><path d="m27.6 8.4v3.5h-14v-3.5c0-1.7 1.3-3 3-3h8c1.7 0 3 1.4 3 3z" fill="#cc87fe"/></g><g><path d="m52.4 12.9h-14c-.6 0-1-.4-1-1v-3.5c0-2.2 1.8-4 4-4h8c2.2 0 4 1.8 4 4v3.5c0 .5-.5 1-1 1zm-13-2h12v-2.5c0-1.1-.9-2-2-2h-8c-1.1 0-2 .9-2 2z" fill="#2a3c65"/></g><g><path d="m27.6 12.9h-14c-.6 0-1-.4-1-1v-3.5c0-2.2 1.8-4 4-4h8c2.2 0 4 1.8 4 4v3.5c0 .5-.4 1-1 1zm-13-2h12v-2.5c0-1.1-.9-2-2-2h-8c-1.1 0-2 .9-2 2z" fill="#2a3c65"/></g><g><path d="m38.6 52.1c-.6 0-1-.4-1-1v-5.2c0-.6.4-1 1-1s1 .4 1 1v5.2c0 .5-.5 1-1 1z" fill="#2a3c65"/></g><g><path d="m38.6 47.2c-1.5 0-2.7-1.2-2.7-2.7v-3.6h5.4v3.6c-.1 1.5-1.3 2.7-2.7 2.7z" fill="#e3ecff"/><path d="m38.6 48.2c-2 0-3.7-1.7-3.7-3.7v-3.6c0-.6.4-1 1-1h5.4c.6 0 1 .4 1 1v3.6c-.1 2.1-1.8 3.7-3.7 3.7zm-1.7-6.3v2.6c0 .9.7 1.7 1.7 1.7.9 0 1.6-.8 1.7-1.7v-2.5h-3.4z" fill="#2a3c65"/></g><g><path d="m48.3 52.1c-.6 0-1-.4-1-1v-5.2c0-.6.4-1 1-1s1 .4 1 1v5.2c0 .5-.5 1-1 1z" fill="#2a3c65"/></g><g><path d="m48.3 47.2c-1.5 0-2.7-1.2-2.7-2.7v-3.6h5.4v3.6c0 1.5-1.2 2.7-2.7 2.7z" fill="#e3ecff"/><path d="m48.3 48.2c-2 0-3.7-1.7-3.7-3.7v-3.6c0-.6.4-1 1-1h5.4c.6 0 1 .4 1 1v3.6c0 2-1.7 3.7-3.7 3.7zm-1.7-6.3v2.6c0 .9.7 1.7 1.7 1.7s1.7-.7 1.7-1.7v-2.6z" fill="#2a3c65"/></g></g></svg>