<svg id="Layer_1" enable-background="new 0 0 512 512" height="512" viewBox="0 0 512 512" width="512" xmlns="http://www.w3.org/2000/svg"><g><g><path d="m496.5 483.3h-481c-4.7 0-7.8-3.1-7.8-7.8s3.1-7.8 7.8-7.8h481c4.7 0 7.8 3.1 7.8 7.8s-3.2 7.8-7.8 7.8z" fill="#2a3c65"/></g><g><g><path d="m44.2 212.6h422.8v262.2h-422.8z" fill="#e3ecff"/></g><g><path d="m467.8 212.6v262.2h-23.3c-11.6-134.2-124.1-240.5-261.4-240.5h-138.9v-22.5z" fill="#c7d9f9"/></g><g><path d="m467.8 482.5h-423.6c-3.9 0-7-3.1-7-7v-234.2c0-3.9 3.1-7 7-7s7 3.1 7 7v226.5h408.8v-226.5c0-3.9 3.1-7 7-7s7 3.1 7 7v234.3c.8 3.8-2.3 6.9-6.2 6.9z" fill="#2a3c65"/></g><g><path d="m488.7 193.9c0-10.9-8.5-18.6-18.6-18.6h-428.2c-10.1-.8-18.6 7.8-18.6 18.6 0 10.9 8.5 18.6 18.6 18.6h428.2c10.1.1 18.6-8.5 18.6-18.6z" fill="#27d1ff"/></g><g><path d="m470.1 219.5h-428.2c-14.7 0-25.6-11.6-25.6-25.6 0-14.7 11.6-27.2 26.4-25.6h427.4c14.7 0 25.6 11.6 25.6 25.6s-11.6 25.6-25.6 25.6zm-429.8-37.2c-5.4 0-10.1 5.4-10.1 11.6s4.7 11.6 11.6 11.6h428.2c6.2 0 11.6-5.4 11.6-11.6s-4.7-11.6-11.6-11.6z" fill="#2a3c65"/></g><g><path d="m422 58.2v58.2c0 11.6-9.3 20.9-20.9 20.9h-290.2c-11.6 0-20.9-9.3-20.9-20.9v-58.2c0-11.6 9.3-20.9 20.9-20.9h290.1c11.7-.8 21 9.2 21 20.9z" fill="#e3ecff"/></g><g><path d="m401.1 145.1h-290.2c-15.5 0-27.9-12.4-27.9-27.9v-59c0-15.5 12.4-27.9 27.9-27.9h290.1 1.6c14.7 0 27.2 12.4 27.2 27.9v58.2c-.8 15.5-13.2 28.7-28.7 28.7zm-290.2-100.1c-7.8 0-14 6.2-14 14v57.4c0 7.8 6.2 14 14 14h290.1c7.8 0 14-6.2 14-14v-58.2c0-7.8-5.4-14-12.4-14 0 0-.8 0-1.6 0h-290.1z" fill="#2a3c65"/></g><g><path d="m144.3 182.3c-3.9 0-7-3.1-7-7v-36.5c0-3.9 3.1-7 7-7s7 3.1 7 7v36.5c0 3.1-3.1 7-7 7z" fill="#2a3c65"/></g><g><path d="m367.7 182.3c-3.9 0-7-3.1-7-7v-36.5c0-3.9 3.1-7 7-7s7 3.1 7 7v36.5c0 3.1-3.1 7-7 7z" fill="#2a3c65"/></g><g><path d="m310.3 311.1v163.7h-108.6v-163.7c0-10.1 8.5-18.6 18.6-18.6h70.6c10.9 0 19.4 8.5 19.4 18.6z" fill="#38fcc4"/></g><g><path d="m310.3 481.7h-108.6c-3.9 0-7-3.1-7-7v-163.6c0-14 11.6-25.6 25.6-25.6h70.6c14.7 0 26.4 11.6 26.4 25.6v163.7c0 3.8-3.1 6.9-7 6.9zm-101.6-14.7h93.9v-155.9c0-6.2-5.4-11.6-12.4-11.6h-70.6c-6.2 0-11.6 5.4-11.6 11.6v155.9z" fill="#2a3c65"/></g><g><path d="m222.6 401.1c-3.9 0-7-3.1-7-7v-10.1c0-3.9 3.1-7 7-7s7 3.1 7 7v10.1c0 3.9-3.1 7-7 7z" fill="#2a3c65"/></g><g><path d="m169.9 306.4v58.2c0 7.8-6.2 14-14 14h-58.2c-.8 0-2.3 0-3.1 0-6.2-1.6-10.9-7-10.9-14v-58.2c0-7.8 6.2-14 14-14h58.2c7 0 12.4 4.7 14 10.9z" fill="#02beff"/></g><g><path d="m428.2 306.4v58.2c0 7.8-6.2 14-14 14h-58.2c-.8 0-2.3 0-3.1 0-6.2-1.6-10.9-7-10.9-14v-58.2c0-7.8 6.2-14 14-14h58.2c7 0 12.4 4.7 14 10.9z" fill="#02beff"/></g><g><g><path d="m169.9 303.3-75.2 75.2c-6.2-1.6-10.9-7-10.9-14v-30.3l41.9-41.9h30.3c6.1.2 12.3 4.8 13.9 11z" fill="#27d1ff"/></g><g><path d="m169.9 317.3v19.4l-41.9 41.9h-20.2z" fill="#27d1ff"/></g></g><g><g><path d="m428.2 303.3-74.5 75.2c-6.2-1.6-10.9-7-10.9-14v-30.3l41.9-41.9h30.3c6.2.2 11.7 4.8 13.2 11z" fill="#27d1ff"/></g><g><path d="m428.2 317.3v19.4l-41.9 41.9h-19.4z" fill="#27d1ff"/></g></g><g><path d="m155.9 385.6h-58.2c-11.6 0-20.9-9.3-20.9-20.9v-58.2c0-11.6 9.3-20.9 20.9-20.9h58.2c11.6 0 20.9 9.3 20.9 20.9v58.2c.1 11.5-9.2 20.9-20.9 20.9zm-58.2-86.2c-3.9 0-7 3.1-7 7v58.2c0 3.9 3.1 7 7 7h58.2c3.9 0 7-3.1 7-7v-58.2c0-3.9-3.1-7-7-7z" fill="#2a3c65"/></g><g><path d="m414.3 385.6h-58.2c-11.6 0-20.9-9.3-20.9-20.9v-58.2c0-11.6 9.3-20.9 20.9-20.9h58.2c11.6 0 20.9 9.3 20.9 20.9v58.2c0 11.5-9.3 20.9-20.9 20.9zm-58.2-86.2c-3.9 0-7 3.1-7 7v58.2c0 3.9 3.1 7 7 7h58.2c3.9 0 7-3.1 7-7v-58.2c0-3.9-3.1-7-7-7z" fill="#2a3c65"/></g><g><path d="m325.8 112.5c-10.1 4.7-20.2 5.4-30.3 3.9-11.6-1.6-22.5-5.4-32.6-13.2-1.6-1.6-3.9-3.1-5.4-4.7-.8-.8-2.3-.8-3.1 0-10.1 10.9-23.3 16.3-38 17.8-12.4 1.6-24 .8-34.9-7-9.3-6.2-13.2-18.6-9.3-28.7 0-.8.8-1.6 1.6-1.6.8 0 1.6.8 1.6 1.6s0 2.3.8 3.1c3.1 10.9 14 13.2 21.7 9.3 4.7-2.3 8.5-6.2 11.6-10.9.8-1.6 1.6-2.3 3.1-3.9 3.1-4.7 7-8.5 10.1-13.2 3.1-3.9 7.8-6.2 12.4-7.8 7-1.6 13.2 0 19.4 4.7.8.8 1.6.8 3.1 0 3.1-1.6 5.4-3.9 8.5-4.7 7-.8 13.2.8 18.6 4.7 6.2 3.9 10.1 9.3 14 15.5 0 .8.8.8.8 1.6 2.3 3.9 5.4 7 7.8 10.1 3.9 4.7 9.3 6.2 15.5 5.4 7-.8 12.4-7 13.2-14 0-.8.8-1.6 1.6-1.6 2.1-.1 2.2 2.4 2.3 3.1 3.8 13.4-2.4 24.3-14.1 30.5z" fill="none"/></g><g><path d="m325.8 112.5c-10.1 4.7-20.2 5.4-30.3 3.9-11.6-1.6-22.5-5.4-32.6-13.2-1.6-1.6-3.9-3.1-5.4-4.7-.8-.8-2.3-.8-3.1 0-10.1 10.9-23.3 16.3-38 17.8-12.4 1.6-24 .8-34.9-7-9.3-6.2-13.2-18.6-9.3-28.7 0-.8.8-1.6 1.6-1.6.8 0 1.6.8 1.6 1.6s0 2.3.8 3.1c3.1 10.9 14 13.2 21.7 9.3 4.7-2.3 8.5-6.2 11.6-10.9.8-1.6 1.6-2.3 3.1-3.9 3.1-4.7 7-8.5 10.1-13.2 3.1-3.9 7.8-6.2 12.4-7.8 7-1.6 13.2 0 19.4 4.7.8.8 1.6.8 3.1 0 3.1-1.6 5.4-3.9 8.5-4.7 7-.8 13.2.8 18.6 4.7 6.2 3.9 10.1 9.3 14 15.5 0 .8.8.8.8 1.6 2.3 3.9 5.4 7 7.8 10.1 3.9 4.7 9.3 6.2 15.5 5.4 7-.8 12.4-7 13.2-14 0-.8.8-1.6 1.6-1.6 2.1-.1 2.1 2.2 2.3 3.1 3.8 13.4-2.4 24.3-14.1 30.5z" fill="#ff7daf"/><path d="m294.8 124.1c-14-1.6-25.6-7-35.7-14.7l-.8-.8c-.8-.8-.8-.8-1.6-1.6-10.1 9.3-23.3 14.7-38.8 16.3-16.3 2.3-28.7-.8-39.6-8.5-11.6-7.8-17.1-23.3-12.4-36.5.8-3.9 4.7-7 8.5-7 11.8.4 5.5 15 16.3 15.5 12.1-2.3 19.3-17.1 26.4-25.6 3.9-4.7 9.3-8.5 16.3-10.9 3.1-.8 5.4-.8 7.8-.8 5.4 0 10.9 1.6 16.3 4.7 24.1-17.8 45.9 13.6 57.4 31 3.7 5.2 14.4 2.4 15.5-4.7 0-4.7 3.9-8.5 8.5-8.5 5 0 8.1 4.1 9.3 7.8 4.7 15.5-2.3 30.3-17.8 38.8-9.2 4-26.1 6.4-35.6 5.5zm-27.2-26.4c8.5 6.2 17.8 10.1 28.7 11.6 10.1 1.6 17.8.8 26.4-3.1 2.3-.8 4.7-3.1 7-5.4-25.6 10.4-28-19-47.3-32.6-3.9-3.1-14.5-4.6-20.6-.4-2.3.8-5 3.5-9.7-.3-4.7-3.1-8.5-3.9-13.2-3.1-19.4 5.1-21 28.2-38.8 34.9-4.8 1.8-13.2 3.1-18.6.8.8.8 1.6 1.6 3.1 2.3 22.8 16.1 55.9-1.6 63.6-10.1 3.9-3.9 10.1-3.9 14 0 .8.8 4.7 4.7 5.4 5.4z" fill="#2a3c65"/></g></g></g></svg>