<svg id="Layer_1" height="512" viewBox="0 0 66 66" width="512" xmlns="http://www.w3.org/2000/svg"><g><g><path d="m58.9 21.9v1h-51.8v-1c0-2.1 1.7-3.9 3.9-3.9h44.1c2.1 0 3.8 1.7 3.8 3.9z" fill="#38fcc4"/></g><g><path d="m5.6 29.4h55.2v34.6h-55.2z" fill="#e3ecff"/></g><g><path d="m60.8 29.4v34.6h-3.8c-.8-8.1-4.5-15.4-10-20.9-6.2-6.3-14.9-10.1-24.5-10.1h-17v-3.6z" fill="#c7d9f9"/></g><g><path d="m58.9 23.9h-21.1c-.5 0-1-.4-1-1s.4-1 1-1h20.1c0-1.6-1.3-2.9-2.9-2.9h-11.3c-.5 0-1-.4-1-1s.4-1 1-1h11.3c2.7 0 4.9 2.2 4.9 4.9v1c0 .5-.5 1-1 1z" fill="#2a3c65"/></g><g><path d="m54.9 46.3v17.7h-15.5v-17.7c0-2.1.9-4.1 2.3-5.5s3.3-2.3 5.5-2.3c4.2 0 7.7 3.5 7.7 7.8z" fill="#ffd880"/></g><g><path d="m54.9 64.9h-15.5c-.5 0-1-.4-1-1v-17.6c0-2.3.9-4.5 2.6-6.2s3.9-2.6 6.2-2.6c4.8 0 8.7 3.9 8.7 8.8v17.7c0 .5-.5.9-1 .9zm-14.5-1.9h13.6v-16.7c0-3.8-3-6.8-6.7-6.8-2.3 0-3.9 1.1-4.8 2-1.3 1.3-2 3-2 4.8v16.7z" fill="#2a3c65"/></g><g><path d="m35.1 47h-23.8c-.5 0-1-.4-1-1s.4-1 1-1h23.8c.5 0 1 .4 1 1s-.5 1-1 1z" fill="#2a3c65"/></g><g><path d="m43.4 55.1c-1.3 0-2.4-1.1-2.4-2.4s1.1-2.4 2.4-2.4 2.4 1.1 2.4 2.4-1.1 2.4-2.4 2.4zm0-2.7c-.2 0-.4.2-.4.4s.2.4.4.4.4-.2.4-.4-.2-.4-.4-.4z" fill="#2a3c65"/></g><g><path d="m64 65h-62c-.6 0-1-.4-1-1s.4-1 1-1h62c.6 0 1 .4 1 1s-.4 1-1 1z" fill="#2a3c65"/></g><g><path d="m60.8 64.9h-55.2c-.5 0-1-.4-1-1v-30.8c0-.5.4-1 1-1s1 .4 1 1v29.9h53.3v-29.9c0-.5.4-1 1-1s1 .4 1 1v30.9c-.1.5-.6.9-1.1.9z" fill="#2a3c65"/></g><g><path d="m28.1 23.9h-21.1c-.5 0-1-.4-1-1v-1c0-2.7 2.2-4.9 4.9-4.9h11.4c.5 0 1 .4 1 1s-.4 1-1 1h-11.4c-1.6 0-2.9 1.3-2.9 2.9h20.1c.5 0 1 .4 1 1s-.5 1-1 1z" fill="#2a3c65"/></g><g><path d="m63 24.7v2.6c0 1.1-.9 1.9-1.9 1.9h-56.2c-1.1 0-1.9-.9-1.9-1.9v-2.6c0-1.1.9-1.9 1.9-1.9h56.2c1.1 0 1.9.9 1.9 1.9z" fill="#ff7daf"/></g><g><path d="m61.1 30.2h-56.2c-1.6 0-2.9-1.3-2.9-2.9v-2.6c0-1.6 1.3-2.9 2.9-2.9h23.2c.5 0 1 .4 1 1s-.4 1-1 1h-23.2c-.4 0-.9.4-.9.9v2.6c0 .4.4.9.9.9h56.2c.4 0 .9-.4.9-.9v-2.6c0-.4-.4-.9-.9-.9h-23.2c-.5 0-1-.4-1-1s.4-1 1-1h23.2c1.6 0 2.9 1.3 2.9 2.9v2.6c0 1.6-1.3 2.9-2.9 2.9z" fill="#2a3c65"/></g><g><path d="m35.1 39.3v15.7c0 1-.8 1.8-1.8 1.8h-20.3c-1 0-1.8-.8-1.8-1.8v-15.7z" fill="#02beff"/></g><g><g><path d="m34.3 39.3-17.5 17.5h-3.8c-1 0-1.8-.8-1.8-1.8v-4.7l11.1-11.1z" fill="#27d1ff"/></g><g><path d="m35.1 41.5v4.2l-11.1 11.1h-4.2z" fill="#27d1ff"/></g></g><g><path d="m33.3 57.7h-20.3c-1.5 0-2.8-1.2-2.8-2.8v-15.6c0-.5.4-1 1-1h23.9c.5 0 1 .4 1 1v15.7c0 1.5-1.3 2.7-2.8 2.7zm-21.1-17.4v14.7c0 .5.4.8.8.8h20.3c.5 0 .8-.4.8-.8v-14.7z" fill="#2a3c65"/></g><g><path d="m27.4 57.7c-.5 0-1-.4-1-1v-17.4c0-.5.4-1 1-1s1 .4 1 1v17.5c0 .5-.5.9-1 .9z" fill="#2a3c65"/></g><g><path d="m19 57.7c-.5 0-1-.4-1-1v-17.4c0-.5.4-1 1-1s1 .4 1 1v17.5c0 .5-.5.9-1 .9z" fill="#2a3c65"/></g><g><path d="m36.7 41.2h-27c-.4 0-.7-.5-.5-.8.3-.5.6-1.1.8-1.6.5-1.3 1.7-2.2 3.1-2.2h20.1c1.4 0 2.6.9 3.2 2.2.2.5.5 1.1.8 1.6.2.3-.1.8-.5.8z" fill="#38fcc4"/></g><g><path d="m36.7 42.2h-27c-.6 0-1.1-.3-1.3-.8-.3-.5-.2-1 0-1.5l.7-1.4c.7-1.7 2.2-2.8 4-2.8h20.1c1.7 0 3.3 1.1 4.1 2.8.2.5.5 1.1.8 1.5s.3 1 0 1.4-.8.8-1.4.8zm-26.3-2h25.6c-.2-.4-.4-.7-.5-1.1-.4-1-1.3-1.6-2.3-1.6h-20.1c-1 0-1.8.6-2.2 1.6-.1.4-.3.8-.5 1.1z" fill="#2a3c65"/></g><g><ellipse cx="33" cy="11" fill="#d5a6ff" rx="9" ry="9"/></g><g><path d="m33 16c-2.8 0-5.1-2.3-5.1-5.1s2.3-5.1 5.1-5.1 5.1 2.3 5.1 5.1c0 2.9-2.3 5.1-5.1 5.1z" fill="#b45fff"/></g><g><path d="m33 21c-5.5 0-10-4.5-10-10s4.5-10 10-10 10 4.5 10 10-4.5 10-10 10zm0-18c-4.4 0-8 3.6-8 8s3.6 8 8 8 8-3.6 8-8-3.6-8-8-8z" fill="#2a3c65"/></g></g></svg>