<svg id="Layer_1" height="512" viewBox="0 0 66 66" width="512" xmlns="http://www.w3.org/2000/svg"><g><g><g><path d="m53.4 27c0 1.4-1.2 2.6-2.6 2.6h-35.8c-1.3 0-2.4-1.1-2.4-2.4v-2c0-1.3 1.1-2.4 2.4-2.4h2.1c.8 0 1.6-.4 2.1-1.1l3.5-5.6c.4-.7 1.2-1.1 2.1-1.1h11.6c.8 0 1.6.4 2.1 1.1l3.5 5.6c.4.7 1.2 1.1 2.1 1.1h5.2c2.2-.1 4.1 1.8 4.1 4.2z" fill="#fecb4d"/></g><g><path d="m50.8 30.6h-35.8c-1.8 0-3.4-1.5-3.4-3.4v-2c0-1.8 1.5-3.4 3.4-3.4h2.1c.5 0 1-.3 1.3-.7l3.5-5.5c.5-1 1.6-1.6 2.9-1.6h11.6c1.1 0 2.2.6 2.9 1.5l3.5 5.6c.2.4.7.6 1.3.6h5.4c2.7 0 4.9 2.3 4.9 5.2 0 2-1.7 3.7-3.6 3.7zm-35.8-6.8c-.8 0-1.4.7-1.4 1.4v2c0 .8.7 1.4 1.4 1.4h35.8c.9 0 1.6-.8 1.6-1.6 0-1.8-1.3-3.2-3-3.2h-.1-5.2c-1.3 0-2.4-.6-2.9-1.6l-3.5-5.6c-.3-.4-.8-.6-1.3-.6h-11.6c-.6 0-1 .2-1.3.6l-3.5 5.6c-.7 1-1.8 1.6-2.9 1.6z" fill="#2a3c65"/></g><g><path d="m43.4 22.6c-.6-.1-1.2-.5-1.5-1.1l-3.5-5.5c-.4-.7-1.2-1.1-2.1-1.1h-11.6c-.8 0-1.6.4-2.1 1.1l-3.5 5.6c-.4.6-.9.9-1.5 1.1z" fill="#e3ecff"/><path d="m43.4 23.7h-25.8c-.5 0-.9-.3-1-.8s.2-.9.6-1.1c.5-.2.8-.4 1-.7l3.5-5.6c.7-1 1.8-1.6 2.9-1.6h11.6c1.3 0 2.4.6 2.9 1.6l3.5 5.5v.1c.1.3.5.5.8.6.5.1.8.5.8 1 .2.4-.3 1-.8 1zm-23.2-2h20.7l-3.3-5.2c-.2-.4-.7-.7-1.3-.7h-11.6c-.5 0-1 .3-1.3.7z" fill="#2a3c65"/></g><g><path d="m29.3 22.6h14.1c-.6-.1-1.2-.5-1.5-1.1l-3.5-5.5c-.4-.7-1.2-1.1-2.1-1.1h-7z" fill="#e3ecff"/><path d="m43.4 23.6h-14.1c-.5 0-1-.4-1-1v-7.7c0-.5.4-1 1-1h7c1.3 0 2.4.6 2.9 1.6l3.5 5.5v.1c.1.3.5.5.8.6.5.1.8.5.8 1s-.4.9-.9.9zm-13.1-2h10.6l-3.3-5.1c-.2-.4-.7-.7-1.3-.7h-6z" fill="#2a3c65"/></g><g><path d="m25.1 28.2c.5 2.4-1.6 4.5-4 4-1.3-.3-2.4-1.3-2.7-2.7-.5-2.4 1.6-4.5 4-4 1.3.3 2.4 1.4 2.7 2.7z" fill="#cc87fe"/><path d="m21.8 33.2c-.3 0-.6 0-.9-.1-1.7-.4-3.1-1.7-3.4-3.4-.3-1.3 0-2.6.9-3.6 1-1.3 2.7-1.8 4.3-1.5 1.7.4 3.1 1.8 3.4 3.4.3 1.3 0 2.6-.9 3.7-.9 1-2.1 1.5-3.4 1.5zm-.1-6.8c-.7 0-1.4.3-1.9.9s-.6 1.3-.5 2c.2 1 1 1.7 2 2h.5c.7 0 1.4-.3 1.9-.9s.6-1.3.5-2c-.2-.9-1-1.7-2-2-.2 0-.3 0-.5 0z" fill="#2a3c65"/></g><g><path d="m47.6 28.2c.5 2.4-1.6 4.5-4 4-1.3-.3-2.4-1.3-2.7-2.7-.5-2.4 1.6-4.5 4-4 1.4.3 2.5 1.4 2.7 2.7z" fill="#cc87fe"/><path d="m44.3 33.2c-.3 0-.6 0-.9-.1-1.7-.4-3.1-1.8-3.4-3.4-.3-1.3 0-2.6.9-3.6 1-1.3 2.7-1.8 4.3-1.5 1.8.4 3.2 1.8 3.5 3.5.3 1.2-.1 2.6-.9 3.6-1 1-2.2 1.5-3.5 1.5zm-.1-6.8c-.7 0-1.4.3-1.9.9s-.6 1.3-.5 2c.2 1 1 1.7 2 2h.5c.7 0 1.4-.3 1.9-.9s.6-1.3.5-2c-.1-1-.9-1.7-2-1.9-.2-.1-.3-.1-.5-.1z" fill="#2a3c65"/></g><g opacity=".5"><path d="m7.2 8.2h51.6v24.1h-51.6z" fill="#27d1ff"/></g><g opacity=".4"><g><g><path d="m32.2 8.2-24.1 24.1h-.9v-12.9l11.2-11.2z" fill="#fff"/></g><g><path d="m40.5 8.2-24 24.1h-4.9l24-24.1z" fill="#fff"/></g></g><g><g><path d="m58.8 8.2v4.6l-19.5 19.5h-13.8l24-24.1z" fill="#fff"/></g><g><path d="m58.8 16.2v4.9l-11.2 11.2h-4.9z" fill="#fff"/></g></g></g><g><path d="m58.8 33.3h-51.6c-.5 0-1-.4-1-1v-20.3c0-.5.4-1 1-1s1 .4 1 1v19.3h49.7v-19.3c0-.5.4-1 1-1s1 .4 1 1v20.3c-.1.5-.6 1-1.1 1z" fill="#2a3c65"/></g><g><path d="m7.2 37h51.6v25.5h-51.6z" fill="#c7d9f9"/></g><g><path d="m58.8 37v25.5h-4c-2-12.1-12.5-21.3-25.2-21.3h-22.4v-4.2z" fill="#b0cdf7"/></g><g><path d="m58.8 59.7c-.5 0-1-.4-1-1v-20.7h-49.6v20.8c0 .5-.4 1-1 1s-1-.4-1-1v-21.8c0-.5.4-1 1-1h51.6c.5 0 1 .4 1 1v21.8c0 .5-.5.9-1 .9z" fill="#2a3c65"/></g><g><path d="m4.9 5.4c1.2-1.8 3.2-2.9 5.3-2.9h45.6c2.1 0 4.2 1.1 5.3 2.9.8 1.2-.1 2.9-1.6 2.9h-53c-1.5-.1-2.4-1.7-1.6-2.9z" fill="#ff7daf"/></g><g><path d="m63 34.6c0 1.3-1 2.3-2.3 2.3h-55.3c-1.3 0-2.3-1-2.3-2.3 0-1.3 1-2.3 2.3-2.3h55.3c1.2 0 2.3 1.1 2.3 2.3z" fill="#1de9b6"/></g><g><path d="m59.5 9.3h-53c-1.1-.1-2.1-.7-2.6-1.7-.4-.9-.4-1.9.2-2.7 1.4-2.1 3.7-3.3 6.1-3.3h45.6c2.5 0 4.9 1.3 6.1 3.4.5.8.6 1.9.1 2.8s-1.4 1.5-2.5 1.5zm-49.3-5.8c-1.8 0-3.5.9-4.5 2.5-.2.3-.1.7 0 .8.1.2.4.5.9.6h52.9c.5 0 .8-.4.8-.5.1-.1.2-.5 0-.9-.9-1.5-2.7-2.5-4.5-2.5z" fill="#2a3c65"/></g><g><path d="m60.7 37.9h-55.3c-1.8 0-3.3-1.4-3.3-3.3s1.4-3.3 3.3-3.3h55.3c1.7 0 3.3 1.5 3.3 3.3s-1.5 3.3-3.3 3.3zm-55.3-4.6c-.8 0-1.3.6-1.3 1.3s.6 1.3 1.3 1.3h55.3c.8 0 1.3-.6 1.3-1.3s-.7-1.3-1.3-1.3z" fill="#2a3c65"/></g><g><path d="m12.9 44.8v17.7h18.6v-17.7c0-1-.8-1.9-1.9-1.9h-14.8c-1 .1-1.9.9-1.9 1.9z" fill="#27d1ff"/></g><g><path d="m31.5 59.7c-.5 0-1-.4-1-1v-14c0-.4-.4-.9-.9-.9h-14.8c-.4 0-.9.4-.9.9v13.9c0 .5-.4 1-1 1s-1-.4-1-1v-13.8c0-1.6 1.3-2.9 2.9-2.9h14.8c1.6 0 2.9 1.3 2.9 2.9v14c0 .5-.5.9-1 .9z" fill="#2a3c65"/></g><g><path d="m12.9 44.8v3.7h18.6v-3.7c0-1-.8-1.9-1.9-1.9h-14.8c-1 .1-1.9.9-1.9 1.9z" fill="#cc87fe"/></g><g><path d="m31.5 49.5h-18.6c-.5 0-1-.4-1-1v-3.7c0-1.4 1.2-2.7 2.8-2.9h14.9c1.6 0 2.9 1.3 2.9 2.9v3.7c0 .5-.5 1-1 1zm-17.6-2h16.7v-2.7c0-.4-.4-.9-.9-.9h-14.9c-.5.1-.9.5-.9.9z" fill="#2a3c65"/></g><g><path d="m22.2 49.6c-.5 0-1-.4-1-1v-5.6c0-.5.4-1 1-1s1 .4 1 1v5.6c0 .5-.5 1-1 1z" fill="#2a3c65"/></g></g><g><path d="m64 64.5h-62c-.6 0-1-.4-1-1s.4-1 1-1h62c.6 0 1 .4 1 1s-.4 1-1 1z" fill="#2a3c65"/></g></g></svg>