<svg id="Layer_1" height="512" viewBox="0 0 66 66" width="512" xmlns="http://www.w3.org/2000/svg"><g><g><path d="m64 62h-62c-.6 0-1-.4-1-1s.4-1 1-1h62c.6 0 1 .4 1 1s-.4 1-1 1z" fill="#2a3c65"/></g><g><path d="m5.7 23.5h54.5v37.5h-54.5z" fill="#c7d9f9"/></g><g><path d="m60.3 61.9h-54.6c-.5 0-.9-.4-.9-.9v-37.5c0-.5.4-.9.9-.9h6.3c.5 0 .9.4.9.9s-.4.9-.9.9h-5.4v35.6h52.7v-35.6h-5.3c-.5 0-.9-.4-.9-.9s.4-.9.9-.9h6.3c.5 0 .9.4.9.9v37.5c0 .5-.4.9-.9.9z" fill="#2a3c65"/></g><g><path d="m63 21.1c0-1.4-1.1-2.4-2.4-2.4h-55.2c-1.4 0-2.4 1.1-2.4 2.4 0 1.4 1.1 2.4 2.4 2.4h55.2c1.3 0 2.4-1 2.4-2.4z" fill="#ff7daf"/></g><g><path d="m12 24.4h-6.6c-.9 0-1.7-.4-2.4-1-.6-.6-1-1.5-1-2.4 0-1.9 1.5-3.3 3.3-3.3h5.8c.5 0 .9.4.9.9s-.4.9-.9.9h-5.7c-.8 0-1.5.6-1.5 1.5 0 .6.3.9.4 1s.5.4 1 .4h6.7c.5 0 .9.4.9.9s-.4 1.1-.9 1.1z" fill="#2a3c65"/></g><g><path d="m54.8 34.3v16c0 1.5-1.2 2.7-2.7 2.7h-16.7c-1.5 0-2.7-1.2-2.7-2.7v-16c0-1.5 1.2-2.7 2.7-2.7h16.7c1.4 0 2.6 1.1 2.7 2.5z" fill="#1de9b6"/></g><g><g><path d="m54.8 34.1-18.9 18.9h-.4c-1.5 0-2.7-1.2-2.7-2.7v-8.5l10.2-10.2h9.1c1.4 0 2.6 1.1 2.7 2.5z" fill="#38fcc4"/></g><g><path d="m54.8 37.7v5l-10.3 10.3h-5z" fill="#38fcc4"/></g></g><g><path d="m52.1 53.9h-16.7c-2 0-3.6-1.6-3.6-3.6v-16c0-2 1.6-3.6 3.6-3.6h16.7c2 0 3.6 1.6 3.6 3.6v16c0 2-1.6 3.6-3.6 3.6zm-16.7-21.4c-1 0-1.8.8-1.8 1.8v16c0 1 .8 1.8 1.8 1.8h16.7c1 0 1.8-.8 1.8-1.8v-16c0-1-.8-1.8-1.8-1.8z" fill="#2a3c65"/></g><g><path d="m26.8 39.4v21.6h-15.6v-21.6c0-1.5 1.2-2.7 2.7-2.7h10.2c1.5 0 2.7 1.2 2.7 2.7z" fill="#02beff"/></g><g><path d="m26.8 61.9h-15.6c-.5 0-.9-.4-.9-.9v-21.6c0-2 1.6-3.6 3.6-3.6h10.2c2 0 3.6 1.6 3.6 3.6v21.6c0 .5-.4.9-.9.9zm-14.7-1.9h13.7v-20.6c0-1-.8-1.8-1.8-1.8h-10.1c-1 0-1.8.8-1.8 1.8z" fill="#2a3c65"/></g><g><path d="m14.2 50.4c-.5 0-.9-.4-.9-.9v-1.5c0-.5.4-.9.9-.9s.9.4.9.9v1.5c0 .5-.4.9-.9.9z" fill="#2a3c65"/></g><g><path d="m43.8 50.3c-.5 0-.9-.4-.9-.9v-14.2c0-.5.4-.9.9-.9s.9.4.9.9v14.2c0 .5-.4.9-.9.9z" fill="#2a3c65"/></g><g><path d="m51.2 43.2h-14.9c-.5 0-.9-.4-.9-.9s.4-.9.9-.9h14.9c.5 0 .9.4.9.9s-.4.9-.9.9z" fill="#2a3c65"/></g><g><path d="m53.5 13.2-2.5 1.9c-.6.4-.8 1.2-.6 1.8l1 3c.5 1.5-1.2 2.8-2.5 1.8l-2.5-1.8c-.6-.4-1.4-.4-1.9 0l-2.5 1.8c-1.3.9-3-.3-2.5-1.8l1-3c.2-.7 0-1.4-.6-1.8l-2.5-1.8c-1.3-.9-.6-3 1-3h3.1c.7 0 1.3-.5 1.6-1.1l1-3c.5-1.5 2.6-1.5 3.1 0l1 3c.2.7.9 1.1 1.6 1.1h3.1c1.2-.1 1.9 2 .6 2.9z" fill="#fecb4d"/></g><g><path d="m28.9 13.2-2.5 1.8c-.6.4-.8 1.2-.6 1.8l1 3c.5 1.5-1.2 2.8-2.5 1.8l-2.5-1.8c-.6-.4-1.4-.4-1.9 0l-2.5 1.8c-1.3.9-3-.3-2.5-1.8l1-3c.2-.7 0-1.4-.6-1.8l-2.5-1.8c-1.3-.9-.6-3 1-3h3.1c.7 0 1.3-.5 1.6-1.1l1-3c.5-1.5 2.6-1.5 3.1 0l1 3c.2.7.9 1.1 1.6 1.1h3.1c1.2 0 1.9 2.1.6 3z" fill="#fecb4d"/></g><g><path d="m49.7 22.9c-.5 0-1-.2-1.5-.5l-2.5-1.8c-.2-.2-.6-.2-.8 0l-2.3 1.7c-.4.3-1 .2-1.3-.2s-.2-1 .2-1.3l2.3-1.7c1-.7 2.2-.6 3 0l2.5 1.8c.3.2.6.1.8 0 .1-.1.3-.3.2-.7l-1-3c-.3-1.2.1-2.3 1-2.9l2.5-1.8c.4-.3.3-.6.3-.8-.1-.3-.3-.5-.7-.5h-3.1c-1 0-1.9-.6-2.4-1.6 0 0 0-.1-.1-.1l-1-3c-.2-.5-.6-.6-.8-.6s-.5 0-.7.5l-1 3c-.3 1-1.3 1.7-2.5 1.7h-2.8c-.5 0-.9-.4-.9-.9s.4-.9.9-.9h2.8c.3 0 .6-.1.7-.4l1-3c.5-1.1 1.4-1.8 2.5-1.8s2.1.7 2.4 1.8l1 2.9c.1.3.4.5.7.5h3.1c1.1 0 2.1.7 2.5 1.9.3 1.1 0 2.2-1 2.9l-2.5 1.8c-.2.1-.2.5-.1.7l1 3c.4 1.1 0 2.2-.9 2.8-.4.3-1 .5-1.5.5z" fill="#2a3c65"/></g><g><path d="m16.3 22.9c-.5 0-1.1-.2-1.5-.5-.9-.7-1.2-1.8-.9-2.8l1-3c0-.2.1-.5-.2-.7l-2.5-1.9c-.9-.6-1.3-1.7-.9-2.8.3-1.1 1.3-1.9 2.5-1.9h3.1c.3 0 .6-.3.7-.5l1-2.9c.4-1.1 1.3-1.8 2.4-1.8s2.1.7 2.4 1.8l1 3c.1.3.4.5.7.5h2.8c.5 0 .9.4.9.9s-.4.9-.9.9h-2.8c-1.2 0-2.2-.7-2.5-1.8l-1-3c-.1-.4-.5-.5-.6-.5s-.5 0-.7.5l-1 3s0 .1-.1.1c-.5 1-1.4 1.6-2.4 1.6h-3.1c-.4 0-.6.3-.7.5 0 .1-.1.5.2.8l2.5 1.8c.9.6 1.3 1.7 1 2.8l-1 3c-.1.4.1.6.2.7.2.2.5.2.9 0l2.5-1.8c.8-.6 2-.6 3 0l2.3 1.7c.4.3.5.9.2 1.3s-.9.5-1.3.2l-2.3-1.7c-.2-.2-.6-.1-.8 0l-2.5 1.8c-.5.5-1.1.7-1.6.7z" fill="#2a3c65"/></g><g><path d="m41.2 17.4-2.5 1.8c-.6.4-.8 1.2-.6 1.8l1 3c.5 1.5-1.2 2.8-2.5 1.8l-2.6-1.7c-.6-.4-1.4-.4-1.9 0l-2.5 1.8c-1.3.9-3-.3-2.5-1.8l1-3c.2-.7 0-1.4-.6-1.8l-2.5-1.8c-1.3-.9-.6-3 1-3h3.1c.7 0 1.3-.5 1.6-1.1l1-3c.5-1.5 2.6-1.5 3.1 0l1 3c.2.7.9 1.1 1.6 1.1h3.1c1.3 0 2 2 .7 2.9z" fill="#ffd880"/></g><g><path d="m28.6 27.2c-.8 0-1.6-.4-2.1-1.1s-.6-1.5-.3-2.3l1-3c0-.2.1-.5-.2-.7l-2.5-1.8c-.9-.6-1.3-1.7-.9-2.8.3-1.1 1.3-1.9 2.5-1.9h3.1c.3 0 .6-.3.7-.5l1-2.9c.4-1.1 1.3-1.8 2.4-1.8s2.1.7 2.4 1.8l1 3c.1.3.4.5.7.5h3.1c1 0 1.9.7 2.2 1.7.3 1.1 0 2.2-1 2.9l-2.5 1.7c-.3.2-.3.5-.3.7l1 3c.3.8.1 1.6-.3 2.3-.8 1.1-2.5 1.4-3.6.5l-2.5-1.7c-.3-.2-.6-.2-.8-.1l-2.5 1.8c-.5.5-1 .7-1.6.7zm-2.6-11.7c-.4 0-.6.3-.7.5 0 .1-.1.5.2.8l2.5 1.8c.9.6 1.3 1.7 1 2.8l-1 3c-.1.2 0 .4.1.6.2.3.7.4 1 .1l2.5-1.8c.7-.6 2.1-.6 3 0l2.6 1.7c.5.4.8.2 1-.1.1-.1.2-.3.1-.6l-1-3c-.4-1.1.1-2.3 1-2.9l2.5-1.8c.4-.3.3-.6.3-.8-.1-.2-.2-.4-.4-.4h-3.1c-1.2 0-2.2-.7-2.5-1.8l-1-3c-.1-.4-.5-.5-.7-.5s-.5 0-.7.5l-1 3s0 .1-.1.1c-.5 1-1.4 1.6-2.4 1.6h-3.2z" fill="#2a3c65"/></g><g><path d="m60.4 24.9h-7c-.6 0-1-.4-1-1s.4-1 1-1h7c.9 0 1.6-.7 1.6-1.6s-.7-1.6-1.6-1.6h-6.2c-.6 0-1-.4-1-1s.4-1 1-1h6.2c2 0 3.6 1.6 3.6 3.6s-1.6 3.6-3.6 3.6z" fill="#2a3c65"/></g></g></svg>