<svg id="Layer_1" height="512" viewBox="0 0 66 66" width="512" xmlns="http://www.w3.org/2000/svg"><g><g><path d="m11.1 18.5c-.6 0-1-.4-1-1v-11.4c0-.6.4-1 1-1s1 .4 1 1v11.4c0 .6-.4 1-1 1z" fill="#2a3c65"/></g><g><path d="m11.1 6.1h4.8c1.1 0 2 .9 2 2v1c0 1.1-.9 2-2 2h-4.8" fill="#02beff"/></g><g><path d="m54.9 6.1h4.8c1.1 0 2 .9 2 2v1c0 1.1-.9 2-2 2h-4.8" fill="#02beff"/></g><g><path d="m15.9 12.1h-4.8c-.6 0-1-.4-1-1v-5c0-.6.4-1 1-1h4.8c1.7 0 3 1.3 3 3v1c0 1.7-1.3 3-3 3zm-3.8-2h3.8c.6 0 1-.4 1-1v-1c0-.6-.4-1-1-1h-3.8z" fill="#2a3c65"/></g><g><path d="m54.9 18.5c-.6 0-1-.4-1-1v-11.4c0-.6.4-1 1-1s1 .4 1 1v11.4c0 .6-.4 1-1 1z" fill="#2a3c65"/></g><g><path d="m59.7 12.1h-4.8c-.6 0-1-.4-1-1v-5c0-.6.4-1 1-1h4.8c1.7 0 3 1.3 3 3v1c0 1.7-1.3 3-3 3zm-3.8-2h3.8c.6 0 1-.4 1-1v-1c0-.6-.4-1-1-1h-3.8z" fill="#2a3c65"/></g><g><path d="m4.3 25.2h13.7v34.7h-13.7z" fill="#ffd880"/></g><g><path d="m48.1 25.2h13.7v34.7h-13.7z" fill="#ffd880"/></g><g><path d="m17.9 25.2v34.7h-3v-18.1c0-3.8-1.5-7.2-4-9.7-1.8-1.8-4.1-3.1-6.7-3.7v-3.4h13.7z" fill="#fecb4d"/></g><g><path d="m61.7 25.2v34.7h-3v-18.1c0-3.8-1.5-7.2-4-9.7-1.8-1.8-4.1-3.1-6.7-3.7v-3.4h13.7z" fill="#fecb4d"/></g><g><path d="m17.9 30.7h30.1v29.2h-30.1z" fill="#fecb4d"/></g><g><path d="m48.1 30.7v29.2h-2.4c-1.1-14.6-13-26.2-27.7-26.9v-2.4z" fill="#f9b826"/></g><g><path d="m18 60.9h-13.7c-.6 0-1-.4-1-1v-34.7c0-.6.4-1 1-1h13.7c.6 0 1 .4 1 1v34.7c0 .5-.4 1-1 1zm-12.7-2h11.7v-32.7h-11.7z" fill="#2a3c65"/></g><g><path d="m20.2 17.2v3.3c0 .9-.3 1.8-.8 2.5l-1.5 2.1h-13.6l-1.5-2.1c-.5-.7-.8-1.6-.8-2.5v-3.3c0-.8.7-1.5 1.5-1.5h.7c.8 0 1.5.7 1.5 1.5v1.3c0 .8.7 1.5 1.5 1.5h.7c.8 0 1.5-.7 1.5-1.5v-1.3c0-.8.7-1.5 1.5-1.5h.7c.8 0 1.5.7 1.5 1.5v1.3c0 .8.7 1.5 1.5 1.5h.7c.8 0 1.5-.7 1.5-1.5v-1.3c0-.8.7-1.5 1.5-1.5h.7c.5.1 1.2.7 1.2 1.5z" fill="#1de9b6"/></g><g><path d="m64 17.2v3.3c0 .9-.3 1.8-.8 2.5l-1.5 2.1h-13.6l-1.5-2.1c-.5-.7-.8-1.6-.8-2.5v-3.3c0-.8.7-1.5 1.5-1.5h.7c.8 0 1.5.7 1.5 1.5v1.3c0 .8.7 1.5 1.5 1.5h.7c.8 0 1.5-.7 1.5-1.5v-1.3c0-.8.7-1.5 1.5-1.5h.7c.8 0 1.5.7 1.5 1.5v1.3c0 .8.7 1.5 1.5 1.5h.7c.8 0 1.5-.7 1.5-1.5v-1.3c0-.8.7-1.5 1.5-1.5h.7c.5.1 1.2.7 1.2 1.5z" fill="#1de9b6"/></g><g><path d="m17.9 26.1h-13.6c-.3 0-.6-.2-.8-.4l-1.5-2.1c-.6-.9-1-2-1-3.1v-3.3c0-1.4 1.1-2.5 2.5-2.5h.7c1.4 0 2.5 1.1 2.5 2.5v1.3c0 .3.3.5.5.5h.7c.2 0 .5-.3.5-.5v-1.3c0-1.4 1.1-2.5 2.5-2.5h.7c1.4 0 2.5 1.1 2.5 2.5v1.3c0 .2.3.5.5.5h.7c.2 0 .5-.3.5-.5v-1.3c0-1.4 1.1-2.5 2.5-2.5h.7.2c1 .2 2 1.2 2 2.5v3.3c0 1.1-.4 2.2-1 3.1l-1.5 2.1c-.2.3-.5.4-.8.4zm-13.1-2h12.6l1.2-1.7c.4-.5.6-1.2.6-1.9v-3.3c0-.2-.2-.4-.4-.5h-.5c-.2 0-.5.3-.5.5v1.3c0 1.4-1.1 2.5-2.5 2.5h-.7c-1.4 0-2.5-1.1-2.5-2.5v-1.3c0-.2-.3-.5-.5-.5h-.7c-.2 0-.5.3-.5.5v1.3c0 1.4-1.1 2.5-2.5 2.5h-.7c-1.4 0-2.5-1.1-2.5-2.5v-1.3c0-.2-.3-.5-.5-.5h-.7c-.2 0-.5.3-.5.5v3.3c0 .7.2 1.4.6 1.9z" fill="#2a3c65"/></g><g><path d="m61.8 60.9h-13.7c-.6 0-1-.4-1-1v-34.7c0-.6.4-1 1-1h13.7c.6 0 1 .4 1 1v34.7c0 .5-.4 1-1 1zm-12.7-2h11.7v-32.7h-11.7z" fill="#2a3c65"/></g><g><path d="m61.7 26.1h-13.6c-.3 0-.6-.2-.8-.4l-1.5-2.1c-.6-.9-1-2-1-3.1v-3.3c0-1.4 1.1-2.5 2.5-2.5h.7c1.4 0 2.5 1.1 2.5 2.5v1.3c0 .2.3.5.5.5h.7c.2 0 .5-.3.5-.5v-1.3c0-1.4 1.1-2.5 2.5-2.5h.7c1.4 0 2.5 1.1 2.5 2.5v1.3c0 .2.3.5.5.5h.7c.2 0 .5-.3.5-.5v-1.3c0-1.4 1.1-2.5 2.5-2.5h.7.2c1 .2 2 1.2 2 2.5v3.3c0 1.1-.4 2.2-1 3.1l-1.5 2.1c-.2.3-.5.4-.8.4zm-13.1-2h12.6l1.2-1.7c.4-.5.6-1.2.6-1.9v-3.3c0-.2-.2-.4-.4-.5h-.5c-.2 0-.5.3-.5.5v1.3c0 1.4-1.1 2.5-2.5 2.5h-.7c-1.4 0-2.5-1.1-2.5-2.5v-1.3c0-.2-.3-.5-.5-.5h-.7c-.2 0-.5.3-.5.5v1.3c0 1.4-1.1 2.5-2.5 2.5h-.7c-1.4 0-2.5-1.1-2.5-2.5v-1.3c0-.2-.3-.5-.5-.5h-.7c-.2 0-.5.3-.5.5v3.3c0 .7.2 1.4.6 1.9z" fill="#2a3c65"/></g><g><path d="m44.1 60.9h-22.2c-.6 0-1-.4-1-1s.4-1 1-1h22.2c.6 0 1 .4 1 1s-.4 1-1 1z" fill="#2a3c65"/></g><g><path d="m44.1 31.7h-22.2c-.6 0-1-.4-1-1s.4-1 1-1h22.2c.6 0 1 .4 1 1s-.4 1-1 1z" fill="#2a3c65"/></g><g><path d="m40.7 48.4v11.5h-15.4v-11.5c0-4.2 3.4-7.7 7.6-7.7 2.1 0 4 .9 5.4 2.2 1.5 1.5 2.4 3.4 2.4 5.5z" fill="#e3ecff"/></g><g><path d="m40.7 60.9h-15.4c-.6 0-1-.4-1-1v-11.5c0-4.8 3.9-8.7 8.6-8.7 2.2 0 4.4.9 6.1 2.5 1.8 1.8 2.7 3.9 2.7 6.2v11.5c0 .5-.4 1-1 1zm-14.4-2h13.4v-10.5c0-1.8-.7-3.4-2.1-4.8-1.3-1.2-3-1.9-4.7-1.9-3.6 0-6.6 3-6.6 6.7z" fill="#2a3c65"/></g><g><path d="m64 60.9h-62c-.6 0-1-.4-1-1s.4-1 1-1h62c.6 0 1 .4 1 1s-.4 1-1 1z" fill="#2a3c65"/></g></g></svg>