<svg id="Layer_1" height="512" viewBox="0 0 66 66" width="512" xmlns="http://www.w3.org/2000/svg"><g><g><path d="m20.2 17.9v13.8h25.7v-13.8l-10.9-6.6c-1.2-.7-2.7-.7-3.9 0z" fill="#ffd880"/></g><g><path d="m45.8 28.5c-.6 0-1.1-.5-1.1-1.1v-8.9l-10.3-6.4c-.8-.5-1.9-.5-2.8 0l-10.3 6.4v8.9c0 .6-.5 1.1-1.1 1.1s-1.1-.5-1.1-1.1v-9.5c0-.4.2-.7.5-.9l10.9-6.7c1.6-.9 3.5-.9 5 0l10.9 6.7c.3.2.5.5.5.9v9.5c0 .6-.5 1.1-1.1 1.1z" fill="#2a3c65"/></g><g><path d="m48.8 20.8c-.2 0-.4-.1-.6-.2l-13.8-8.5c-.8-.5-1.9-.5-2.8 0l-13.8 8.5c-.5.3-1.2.2-1.5-.4-.3-.5-.2-1.2.4-1.5l13.8-8.5c1.6-.9 3.5-.9 5 0l13.9 8.5c.5.3.7 1 .4 1.5-.2.4-.6.6-1 .6z" fill="#2a3c65"/></g><g><path d="m56 37.3v26.6h-46v-26.6l10.2-5.6h25.6z" fill="#e3ecff"/></g><g><path d="m56 37.3v26.6h-3.8c-1.6-13.8-12.1-24.9-26-27.1l-9.6-1.5-6.6 3.7v-1.6l10.2-5.6h25.6z" fill="#c7d9f9"/></g><g><path d="m56 60.7c-.6 0-1.1-.5-1.1-1.1v-21.7l-9.4-5.1h-25.1l-9.4 5.1v21.7c0 .6-.5 1.1-1.1 1.1s-1.1-.5-1.1-1.1v-22.3c0-.4.2-.8.6-.9l10.2-5.6c.2-.1.3-.1.5-.1h25.7c.2 0 .4 0 .5.1l10.2 5.6c.3.2.6.6.6.9v22.3c0 .6-.5 1.1-1.1 1.1z" fill="#2a3c65"/></g><g><path d="m6.6 40.3c-.4 0-.7-.2-.9-.6-.3-.5-.1-1.2.4-1.5l3.4-1.9 10.2-5.6c.5-.3 1.2-.1 1.5.4s.1 1.2-.4 1.5l-13.7 7.5c-.1.1-.3.2-.5.2z" fill="#2a3c65"/></g><g><path d="m59.4 40.3c-.2 0-.4 0-.5-.1l-3.4-1.9-10.2-5.6c-.5-.3-.7-.9-.4-1.5.3-.5.9-.7 1.5-.4l13.6 7.5c.5.3.7.9.4 1.5-.3.3-.6.5-1 .5z" fill="#2a3c65"/></g><g><path d="m40 49.8v14.2h-14v-14.2c0-3.9 3.1-7 7-7 1.9 0 3.7.8 5 2 1.2 1.3 2 3.1 2 5z" fill="#27d1ff"/></g><g><path d="m40 60.8c-.6 0-1.1-.5-1.1-1.1v-9.9c0-1.7-.6-3.1-1.7-4.2s-2.7-1.8-4.2-1.8c-3.3 0-5.9 2.6-5.9 5.9v9.9c0 .6-.5 1.1-1.1 1.1s-1.1-.5-1.1-1.1v-9.9c0-4.5 3.5-8.1 8.1-8.1 2.1 0 4.2.9 5.7 2.4s2.3 3.5 2.3 5.8v9.9c.1.6-.4 1.1-1 1.1z" fill="#2a3c65"/></g><g><ellipse cx="33" cy="22.1" fill="#e3ecff" rx="4.6" ry="4.6"/></g><g><path d="m33 27.8c-3.1 0-5.7-2.5-5.7-5.7s2.5-5.7 5.7-5.7 5.7 2.5 5.7 5.7-2.6 5.7-5.7 5.7zm0-9.2c-1.9 0-3.5 1.6-3.5 3.5s1.6 3.5 3.5 3.5 3.5-1.6 3.5-3.5-1.6-3.5-3.5-3.5z" fill="#2a3c65"/></g><g><path d="m33 11.7c-.6 0-1.1-.5-1.1-1.1v-8.5c0-.6.5-1.1 1.1-1.1s1.1.5 1.1 1.1v8.6c0 .6-.5 1-1.1 1z" fill="#2a3c65"/></g><g><path d="m35.6 5.5h-5.2c-.6 0-1.1-.5-1.1-1.1s.5-1.1 1.1-1.1h5.2c.6 0 1.1.5 1.1 1.1s-.5 1.1-1.1 1.1z" fill="#2a3c65"/></g><g><path d="m59.9 65h-53.8c-.6 0-1.1-.5-1.1-1.1s.5-1.1 1.1-1.1h53.8c.6 0 1.1.5 1.1 1.1s-.5 1.1-1.1 1.1z" fill="#2a3c65"/></g></g></svg>