<svg id="Layer_1" height="512" viewBox="0 0 66 66" width="512" xmlns="http://www.w3.org/2000/svg"><g><g><path d="m5.3 21.4h55.4v42h-55.4z" fill="#e3ecff"/></g><g><path d="m60.7 21.4v42h-6.2c-1.3-9.3-5.6-17.6-11.9-23.9-7.6-7.6-18.1-12.3-29.7-12.3h-7.6v-5.8z" fill="#c7d9f9"/></g><g><path d="m5.3 26.3h55.4v4.8h-55.4z" fill="#ff7daf"/></g><g><path d="m60.7 60.5c-.5 0-1-.4-1-1v-34.3c0-.5.4-1 1-1s1 .4 1 1v34.3c0 .5-.4 1-1 1z" fill="#2a3c65"/></g><g><path d="m5.3 60.5c-.5 0-1-.4-1-1v-34.3c0-.5.4-1 1-1s1 .4 1 1v34.3c-.1.5-.5 1-1 1z" fill="#2a3c65"/></g><g><path d="m56.8 27.3h-47.6c-.5 0-1-.4-1-1s.4-1 1-1h47.6c.5 0 1 .4 1 1s-.4 1-1 1z" fill="#2a3c65"/></g><g><path d="m56.8 32.1h-47.6c-.5 0-1-.4-1-1s.4-1 1-1h47.6c.5 0 1 .4 1 1s-.4 1-1 1z" fill="#2a3c65"/></g><g><path d="m58.6 5.1c2.3-.3 4.4 1.5 4.4 3.8v9.6c0 1.6-1.3 2.9-2.9 2.9h-54.3c-1.6 0-2.9-1.3-2.9-2.9v-5.3l28.9-4.2z" fill="#f9b826"/></g><g><path d="m63 14c-.5 0-1-.4-1-1v-4.2c0-.8-.4-1.6-1-2.1-.6-.6-1.5-.8-2.3-.7l-16.8 2.5c-.5.1-1-.3-1.1-.8s.3-1 .8-1.1l16.9-2.6c1.4-.2 2.8.2 3.9 1.2 1 .9 1.6 2.2 1.6 3.6v4.2c0 .5-.4 1-1 1z" fill="#2a3c65"/></g><g><path d="m63.1 17v1.4c0 1.6-1.3 2.9-2.9 2.9h-54.4c-1.6 0-2.9-1.3-2.9-2.9v-12c0-2.5 2.4-4.4 4.8-3.8l24 6.2z" fill="#ffd880"/></g><g><path d="m63.1 17v1.4c0 1.6-1.3 2.9-2.9 2.9h-5l-28.5-7.3-23.8-6.1v-1.4c0-2.5 2.4-4.4 4.8-3.8l24 6.2z" fill="#fecb4d"/></g><g><path d="m60.2 22.3h-54.4c-2.1 0-3.9-1.7-3.9-3.9v-12c0-2.6 2.2-4.9 4.9-4.9.4 0 .8 0 1.1.1l24 6.2 31.4 8.2c.4.1.7.5.7.9v1.4c.1 2.2-1.6 4-3.8 4zm-53.4-18.8c-1.6 0-2.9 1.3-2.9 2.9v12c0 1.1.9 1.9 1.9 1.9h54.5c1.1 0 1.9-.9 1.9-1.9v-.7l-30.7-8-24-6.2c-.3 0-.5 0-.7 0z" fill="#2a3c65"/></g><g><path d="m55.1 37.7v25.7h-16.7v-25.7c0-1.1.9-1.9 1.9-1.9h12.9c1.1-.1 1.9.8 1.9 1.9z" fill="#27d1ff"/></g><g><path d="m55.1 60.5c-.5 0-1-.4-1-1v-21.8c0-.4-.4-.9-.9-.9h-12.9c-.4 0-.9.4-.9.9v21.8c0 .5-.4 1-1 1s-1-.4-1-1v-21.8c0-1.6 1.3-2.9 2.9-2.9h12.9c1.6 0 2.9 1.3 2.9 2.9v21.8c0 .5-.4 1-1 1z" fill="#2a3c65"/></g><g><g><path d="m34.2 37.7v13.5c0 1.1-.9 1.9-1.9 1.9h-6.7c-1 0-1.9-.8-1.9-1.8v-.1-13.5c0-1.1.9-1.9 1.9-1.9h6.7c1 0 1.8.7 1.9 1.7-.1 0 0 .1 0 .2z" fill="#1de9b6"/></g><g><path d="m19.9 37.7v13.5c0 1.1-.9 1.9-1.9 1.9h-6.7c-1.1 0-1.9-.9-1.9-1.9v-13.5c0-1.1.9-1.9 1.9-1.9h6.7c1 0 1.9.8 1.9 1.8z" fill="#1de9b6"/></g></g><g><g><path d="m19.9 37.7v10.2l-7.2 5.3h-1.4c-1.1 0-1.9-.9-1.9-1.9v-5.9l10.5-7.7c0-.1 0-.1 0 0z" fill="#38fcc4"/></g><g><path d="m34.1 37.4-10.5 7.7v-7.4c0-1.1.9-1.9 1.9-1.9h6.7c1-.1 1.8.6 1.9 1.6z" fill="#38fcc4"/></g><g><path d="m16.2 53.1 3.7-2.8v.8c0 1.1-.9 1.9-1.9 1.9z" fill="#38fcc4"/></g><g><path d="m34.2 39.9v3.6l-10.5 7.7v-.1-3.5z" fill="#38fcc4"/></g></g><g><path d="m32.3 54.1h-6.7c-1.6 0-2.9-1.3-2.9-2.9v-13.5c0-1.6 1.3-2.9 2.9-2.9h6.7.2c1.5 0 2.7 1.3 2.7 2.9v13.5c0 1.6-1.3 2.9-2.9 2.9zm-6.7-17.3c-.4 0-.9.4-.9.9v13.5c0 .4.4.9.9.9h6.7c.4 0 .9-.4.9-.9v-13.5c0-.5-.4-.9-.8-.9 0 0-.1 0-.2 0z" fill="#2a3c65"/></g><g><path d="m18 54.1h-6.7c-1.6 0-2.9-1.3-2.9-2.9v-13.5c0-1.7 1.3-3 3-2.9h6.6c1.6 0 2.9 1.3 2.9 2.9v13.5c0 1.6-1.3 2.9-2.9 2.9zm-6.9-17.3c-.5 0-.8.5-.8.9v13.5c0 .6.5.9.9.9h6.8c.6 0 .9-.5.9-.9v-13.5c0-.6-.5-.9-.9-.9z" fill="#2a3c65"/></g><g><path d="m41.2 51.6c-.5 0-1-.4-1-1v-2.1c0-.5.4-1 1-1s1 .4 1 1v2.1c0 .5-.5 1-1 1z" fill="#2a3c65"/></g><g><path d="m64 64.4h-62c-.5 0-1-.4-1-1s.4-1 1-1h62c.5 0 1 .4 1 1s-.4 1-1 1z" fill="#2a3c65"/></g></g></svg>