<svg id="Layer_1" height="512" viewBox="0 0 66 66" width="512" xmlns="http://www.w3.org/2000/svg"><g><g><path d="m59.7 30.2v33h-15.5v-37h11.5c2.2 0 4 1.7 4 4z" fill="#ff7daf"/></g><g><path d="m59.7 30.2v33h-4.2v-21.5c0-4.3-1.7-8.2-4.5-11-1.9-1.9-4.2-3.3-6.8-4v-.6h11.5c2.2.1 4 1.8 4 4.1z" fill="#ff5892"/></g><g><path d="m59.7 64.2h-11.5c-.6 0-1-.4-1-1s.4-1 1-1h10.5v-32c0-1.7-1.3-3-3-3h-7.5c-.6 0-1-.4-1-1s.4-1 1-1h7.5c2.8 0 5 2.2 5 5v33c0 .5-.4 1-1 1z" fill="#2a3c65"/></g><g><path d="m10.3 13.2h11.5v49.8h-15.5v-45.8c0-2.2 1.8-4 4-4z" fill="#38fcc4"/></g><g><path d="m21.8 13.2v49.8h-2.7l-.8-27.7c-.2-8.3-3.9-16.1-10.1-21.6.6-.4 1.3-.6 2.1-.6 0 .1 11.5.1 11.5.1z" fill="#1de9b6"/></g><g><path d="m17.8 64.1h-11.5c-.6 0-1-.4-1-1v-45.9c0-2.8 2.2-5 5-5h7.5c.6 0 1 .4 1 1s-.4 1-1 1h-7.5c-1.7 0-3 1.3-3 3v44.9h10.5c.6 0 1 .4 1 1s-.4 1-1 1z" fill="#2a3c65"/></g><g><path d="m54.7 32.3h-5.4c-.6 0-1-.4-1-1s.4-1 1-1h5.4c.6 0 1 .4 1 1s-.4 1-1 1z" fill="#2a3c65"/></g><g><path d="m54.7 36.7h-5.4c-.6 0-1-.4-1-1s.4-1 1-1h5.4c.6 0 1 .4 1 1s-.4 1-1 1z" fill="#2a3c65"/></g><g><path d="m54.7 41.2h-5.4c-.6 0-1-.4-1-1s.4-1 1-1h5.4c.6 0 1 .4 1 1s-.4 1-1 1z" fill="#2a3c65"/></g><g><path d="m54.7 45.6h-5.4c-.6 0-1-.4-1-1s.4-1 1-1h5.4c.6 0 1 .4 1 1s-.4 1-1 1z" fill="#2a3c65"/></g><g><path d="m54.7 50.1h-5.4c-.6 0-1-.4-1-1s.4-1 1-1h5.4c.6 0 1 .4 1 1s-.4 1-1 1z" fill="#2a3c65"/></g><g><path d="m54.7 54.5h-5.4c-.6 0-1-.4-1-1s.4-1 1-1h5.4c.6 0 1 .4 1 1s-.4 1-1 1z" fill="#2a3c65"/></g><g><path d="m54.7 59h-5.4c-.6 0-1-.4-1-1s.4-1 1-1h5.4c.6 0 1 .4 1 1s-.4 1-1 1z" fill="#2a3c65"/></g><g><path d="m16.8 19.6h-5.5c-.6 0-1-.4-1-1s.4-1 1-1h5.5c.6 0 1 .4 1 1s-.4 1-1 1z" fill="#2a3c65"/></g><g><path d="m16.8 26.1h-5.5c-.6 0-1-.4-1-1s.4-1 1-1h5.5c.6 0 1 .4 1 1s-.4 1-1 1z" fill="#2a3c65"/></g><g><path d="m16.8 32.7h-5.5c-.6 0-1-.4-1-1s.4-1 1-1h5.5c.6 0 1 .4 1 1s-.4 1-1 1z" fill="#2a3c65"/></g><g><path d="m16.8 39.2h-5.5c-.6 0-1-.4-1-1s.4-1 1-1h5.5c.6 0 1 .4 1 1s-.4 1-1 1z" fill="#2a3c65"/></g><g><path d="m16.8 45.7h-5.5c-.6 0-1-.4-1-1s.4-1 1-1h5.5c.6 0 1 .4 1 1s-.4 1-1 1z" fill="#2a3c65"/></g><g><path d="m16.8 52.2h-5.5c-.6 0-1-.4-1-1s.4-1 1-1h5.5c.6 0 1 .4 1 1s-.4 1-1 1z" fill="#2a3c65"/></g><g><path d="m16.8 58.7h-5.5c-.6 0-1-.4-1-1s.4-1 1-1h5.5c.6 0 1 .4 1 1s-.4 1-1 1z" fill="#2a3c65"/></g><g><path d="m44.2 63.1h-22.4v-56.2c0-2.7 2.7-4.7 5.3-3.8l14.4 4.8c1.6.5 2.7 2.1 2.7 3.8z" fill="#c7d9f9"/></g><g><path d="m44.2 11.7v51.3h-5.9v-51.3c0-1.7-1.1-3.2-2.7-3.8l-12.3-4.1c1-.8 2.4-1.2 3.8-.7l14.4 4.8c1.6.6 2.7 2.1 2.7 3.8z" fill="#b0cdf7"/></g><g><path d="m44.2 64.1h-22.4c-.6 0-1-.4-1-1v-56.2c0-2.8 2.2-5 5-5 .5 0 1.1.1 1.6.3l14.4 4.8c2 .6 3.4 2.6 3.4 4.7v51.3c0 .6-.4 1.1-1 1.1zm-21.4-2h20.4v-50.4c0-1.3-.8-2.5-2-2.8l-14.4-4.8c-2-.7-4 .9-4 2.8z" fill="#2a3c65"/></g><g><path d="m44.2 64.1h-22.4c-.6 0-1-.4-1-1v-56.2c0-2.8 2.2-5 5-5 .5 0 1.1.1 1.6.3l14.4 4.8c2 .6 3.4 2.6 3.4 4.7v51.3c0 .6-.4 1.1-1 1.1zm-21.4-2h20.4v-50.4c0-1.3-.8-2.5-2-2.8l-14.4-4.8c-2-.7-4 .9-4 2.8z" fill="#2a3c65"/></g><g><path d="m64 64.1h-62c-.6 0-1-.4-1-1s.4-1 1-1h62c.6 0 1 .4 1 1s-.4 1-1 1z" fill="#2a3c65"/></g><g><path d="m38.9 13.4h-11.8c-.6 0-1-.4-1-1s.4-1 1-1h11.8c.6 0 1 .4 1 1s-.4 1-1 1z" fill="#2a3c65"/></g><g><path d="m38.9 19.3h-11.8c-.6 0-1-.4-1-1s.4-1 1-1h11.8c.6 0 1 .4 1 1s-.4 1-1 1z" fill="#2a3c65"/></g><g><path d="m38.9 25.2h-11.8c-.6 0-1-.4-1-1s.4-1 1-1h11.8c.6 0 1 .4 1 1s-.4 1-1 1z" fill="#2a3c65"/></g><g><path d="m38.9 31.1h-11.8c-.6 0-1-.4-1-1s.4-1 1-1h11.8c.6 0 1 .4 1 1s-.4 1-1 1z" fill="#2a3c65"/></g><g><path d="m38.9 36.9h-11.8c-.6 0-1-.4-1-1s.4-1 1-1h11.8c.6 0 1 .4 1 1s-.4 1-1 1z" fill="#2a3c65"/></g><g><path d="m38.9 42.8h-11.8c-.6 0-1-.4-1-1s.4-1 1-1h11.8c.6 0 1 .4 1 1s-.4 1-1 1z" fill="#2a3c65"/></g><g><path d="m38.9 48.7h-11.8c-.6 0-1-.4-1-1s.4-1 1-1h11.8c.6 0 1 .4 1 1s-.4 1-1 1z" fill="#2a3c65"/></g><g><path d="m37.3 56.6v6.5h-8.5v-6.5c0-2.4 1.9-4.3 4.3-4.3 1.2 0 2.2.5 3 1.3.7.8 1.2 1.9 1.2 3z" fill="#ffd880"/></g><g><path d="m37.3 64.1h-8.5c-.6 0-1-.4-1-1v-6.5c0-3 2.3-5.3 5.3-5.3 1.4 0 2.7.6 3.7 1.6 1 1.1 1.5 2.4 1.5 3.7v6.5c0 .5-.4 1-1 1zm-7.5-2h6.5v-5.5c0-.8-.4-1.7-1-2.3s-1.4-1-2.2-1c-1.9 0-3.3 1.4-3.3 3.3z" fill="#2a3c65"/></g></g></svg>