<svg id="Layer_1" height="512" viewBox="0 0 66 66" width="512" xmlns="http://www.w3.org/2000/svg"><g><g><path d="m64 61.4h-62c-.6 0-1-.4-1-1s.4-1 1-1h62c.6 0 1 .4 1 1s-.4 1-1 1z" fill="#2a3c65"/></g><g><path d="m61.5 33.8c-.6 0-1-.4-1-1v-1.4c0-.6.4-1 1-1s1 .4 1 1v1.4c0 .6-.4 1-1 1z" fill="#2a3c65"/></g><g><path d="m61.5 47c-.6 0-1-.4-1-1v-1.5c0-.6.4-1 1-1s1 .4 1 1v1.5c0 .5-.4 1-1 1z" fill="#2a3c65"/></g><g><path d="m64 51.8c0 1.6-1.3 3-2.9 3h-5c-1.5 0-2.7-1.1-2.9-2.5h.4 5c1.6 0 2.9-1.3 2.9-3 0-.1 0-.3 0-.4 1.4.2 2.5 1.4 2.5 2.9z" fill="#ff5892"/></g><g><g><path d="m17.5 5.6h31v11h-31z" fill="#ffd880"/></g><g><path d="m48.5 17.6h-31c-.5 0-1-.4-1-1v-11c0-.5.4-1 1-1h31c.5 0 1 .4 1 1v11c0 .6-.5 1-1 1zm-30-2h29.1v-9h-29.1z" fill="#2a3c65"/></g><g><path d="m52.5 6.6h-39c-.5 0-1-.4-1-1s.4-1 1-1h39c.5 0 1 .4 1 1s-.5 1-1 1z" fill="#2a3c65"/></g><g><path d="m17.7 16.6h30.5v43.8h-30.5z" fill="#38fcc4"/></g><g><path d="m48.3 16.6v43.8h-2.9v-10.5c0-15.9-12.1-28.9-27.6-30.4v-2.9z" fill="#1de9b6"/></g><g><path d="m48.2 61.3h-30.5c-.5 0-1-.4-1-1v-43.7c0-.5.4-1 1-1h30.5c.5 0 1 .4 1 1v43.8c0 .5-.5.9-1 .9zm-29.5-1.9h28.6v-41.8h-28.6z" fill="#2a3c65"/></g><g><path d="m60.6 19.4v40.9h-12.3v-43.7h9.6c1.5 0 2.7 1.3 2.7 2.8z" fill="#c7d9f9"/></g><g><path d="m17.8 16.6v43.8h-12.4v-41c0-1.6 1.3-2.8 2.8-2.8z" fill="#c7d9f9"/></g><g><path d="m60.6 61.3h-12.3c-.5 0-1-.4-1-1v-43.7c0-.5.4-1 1-1h9.6c2.1 0 3.8 1.7 3.8 3.8v.7c0 .5-.4 1-1 1s-1-.4-1-1v-.7c0-1-.8-1.8-1.8-1.8h-8.6v41.8h10.4v-2.5c0-.5.4-1 1-1s1 .4 1 1v3.5c-.1.5-.6.9-1.1.9z" fill="#2a3c65"/></g><g><path d="m5.4 46.6c-.5 0-1-.4-1-1v-1.5c0-.5.4-1 1-1s1 .4 1 1v1.5c0 .5-.5 1-1 1z" fill="#2a3c65"/></g><g><path d="m17.8 61.3h-12.4c-.5 0-1-.4-1-1v-3.5c0-.5.4-1 1-1s1 .4 1 1v2.5h10.5v-41.7h-8.7c-1 0-1.8.8-1.8 1.8v.7c0 .5-.4 1-1 1s-1-.4-1-1v-.7c0-2.1 1.7-3.8 3.8-3.8h9.6c.5 0 1 .4 1 1v43.8c0 .5-.5.9-1 .9z" fill="#2a3c65"/></g><g><path d="m5.4 33.8c-.5 0-1-.4-1-1v-1.4c0-.5.4-1 1-1s1 .4 1 1v1.4c0 .5-.5 1-1 1z" fill="#2a3c65"/></g><g><path d="m13.5 25.8c0 1.6-1.3 2.9-2.9 2.9h-4.8c-1.6 0-2.9-1.3-2.9-2.9 0-.8.3-1.5.8-2s1.2-.8 2-.8h4.8c1.7-.1 3 1.2 3 2.8z" fill="#ff7daf"/></g><g><path d="m13.5 51.2c0 1.6-1.3 2.9-2.9 2.9h-4.8c-1.6 0-2.9-1.3-2.9-2.9 0-.8.3-1.5.8-2s1.2-.8 2-.8h4.8c1.7 0 3 1.2 3 2.8z" fill="#ff7daf"/></g><g><path d="m13.5 38.5c0 1.6-1.3 2.9-2.9 2.9h-4.8c-1.6 0-2.9-1.3-2.9-2.9 0-.8.3-1.5.8-2s1.2-.8 2-.8h4.8c1.7-.1 3 1.2 3 2.8z" fill="#ff7daf"/></g><g><path d="m63 38.5c0 1.6-1.3 2.9-2.9 2.9h-4.8c-1.6 0-2.9-1.3-2.9-2.9 0-.8.3-1.5.8-2s1.2-.8 2-.8h4.8c1.8-.1 3 1.2 3 2.8z" fill="#ff7daf"/></g><g><path d="m52.5 25.8c0-.8.3-1.5.8-2s1.2-.8 2-.8h4.8c1.6 0 2.9 1.3 2.9 2.9s-1.3 2.9-2.9 2.9h-4.8c-1.5-.2-2.8-1.5-2.8-3z" fill="#ff7daf"/></g><g><path d="m63 51.2c0 1.6-1.3 2.9-2.9 2.9h-4.8c-1.6 0-2.9-1.3-2.9-2.9 0-.8.3-1.5.8-2s1.2-.8 2-.8h4.8c1.8 0 3 1.2 3 2.8z" fill="#ff7daf"/></g><g><path d="m13.5 25.8c0 1.6-1.3 2.9-2.9 2.9h-4.8c-1.5 0-2.6-1.1-2.8-2.5h.4 4.8c1.6 0 2.9-1.3 2.9-2.9 0-.1 0-.3 0-.4 1.3.2 2.4 1.4 2.4 2.9z" fill="#ff5892"/></g><g><path d="m13.5 51.2c0 1.6-1.3 2.9-2.9 2.9h-4.8c-1.5 0-2.6-1.1-2.8-2.5h.4 4.8c1.6 0 2.9-1.3 2.9-2.9 0-.1 0-.3 0-.4 1.3.3 2.4 1.5 2.4 2.9z" fill="#ff5892"/></g><g><path d="m13.5 38.5c0 1.6-1.3 2.9-2.9 2.9h-4.8c-1.5 0-2.6-1.1-2.8-2.5h.4 4.8c1.6 0 2.9-1.3 2.9-2.9 0-.1 0-.3 0-.4 1.3.2 2.4 1.4 2.4 2.9z" fill="#ff5892"/></g><g><path d="m63 38.5c0 1.6-1.3 2.9-2.9 2.9h-4.8c-1.4 0-2.6-1.1-2.8-2.5h.4 4.8c1.6 0 2.9-1.3 2.9-2.9 0-.1 0-.3 0-.4 1.4.2 2.4 1.4 2.4 2.9z" fill="#ff5892"/></g><g><path d="m63 25.8c0 1.6-1.3 2.9-2.9 2.9h-4.8c-1.5 0-2.6-1.1-2.8-2.5h.4 4.8c1.6 0 2.9-1.3 2.9-2.9 0-.1 0-.3 0-.4 1.4.2 2.4 1.4 2.4 2.9z" fill="#ff5892"/></g><g><path d="m10.6 29.7h-4.8c-2.1 0-3.9-1.7-3.9-3.9 0-1 .4-2 1.1-2.7s1.7-1.1 2.7-1.1h4.8.2c2.1 0 3.8 1.7 3.8 3.8s-1.8 3.9-3.9 3.9zm.1-5.7h-.1-4.9c-.5 0-1 .2-1.3.5s-.5.8-.5 1.3c0 1.1.9 1.9 1.9 1.9h4.8c1.1 0 1.9-.9 1.9-1.9s-.8-1.8-1.8-1.8z" fill="#2a3c65"/></g><g><path d="m10.6 55h-4.8c-2.1 0-3.9-1.7-3.9-3.9 0-1 .4-2 1.1-2.7s1.7-1.1 2.7-1.1h4.8c2.2 0 4 1.7 4 3.8 0 2.2-1.8 3.9-3.9 3.9zm-4.9-5.6c-.5 0-1 .2-1.3.5s-.5.8-.5 1.3c0 1.1.9 1.9 1.9 1.9h4.8c1.1 0 1.9-.9 1.9-1.9 0-1.1-.9-1.8-2-1.8z" fill="#2a3c65"/></g><g><path d="m10.6 42.4h-4.8c-2.1 0-3.9-1.7-3.9-3.9 0-1 .4-2 1.1-2.7s1.7-1.1 2.7-1.1h4.8.2c2.1 0 3.8 1.7 3.8 3.8s-1.8 3.9-3.9 3.9zm.1-5.7h-.1-4.9c-.5 0-1 .2-1.3.5s-.5.8-.5 1.3c0 1.1.9 1.9 1.9 1.9h4.8c1.1 0 1.9-.9 1.9-1.9s-.8-1.8-1.8-1.8z" fill="#2a3c65"/></g><g><path d="m60.1 42.4h-4.8c-2.1 0-3.9-1.7-3.9-3.9 0-1 .4-2 1.1-2.7s1.7-1.1 2.7-1.1h4.8.2c2.2 0 3.8 1.6 3.8 3.8 0 2.1-1.8 3.9-3.9 3.9zm.1-5.7h-.1-4.9c-.5 0-1 .2-1.3.5s-.5.8-.5 1.3c0 1.1.9 1.9 1.9 1.9h4.8c1.1 0 1.9-.9 1.9-1.9 0-1.1-.7-1.8-1.8-1.8z" fill="#2a3c65"/></g><g><path d="m60.1 29.8h-4.8-.1c-2-.3-3.6-2-3.6-4 0-1 .4-2 1.1-2.7s1.7-1.1 2.7-1.1h4.8c2.1 0 3.9 1.7 3.9 3.9s-1.9 3.9-4 3.9zm-4.7-2h4.7c1.1 0 1.9-.9 1.9-1.9s-.8-1.9-1.9-1.9h-4.8c-.5 0-1 .2-1.3.5s-.5.8-.5 1.3c0 1 .8 1.9 1.9 2z" fill="#2a3c65"/></g><g><path d="m60.1 55h-4.8c-2.1 0-3.9-1.7-3.9-3.9 0-1 .4-2 1.1-2.7s1.7-1.1 2.7-1.1h4.8c2.3 0 4 1.6 4 3.8s-1.8 3.9-3.9 3.9zm-4.9-5.6c-.5 0-1 .2-1.3.5s-.5.8-.5 1.3c0 1.1.9 1.9 1.9 1.9h4.8c1.1 0 1.9-.9 1.9-1.9 0-1.1-.8-1.8-2-1.8z" fill="#2a3c65"/></g><g><path d="m42.7 40.7v19.7h-19.4v-19.7c0-1.7 1.4-3.1 3-3.1h13.3c1.7 0 3.1 1.4 3.1 3.1z" fill="#c7d9f9"/></g><g><g><path d="m42.7 40.7v1.6l-18.1 18.1h-1.2v-13.6l9.2-9.2h7.1c1.6 0 3 1.4 3 3.1z" fill="#e3ecff"/></g><g><path d="m42.7 46v5.2l-9.2 9.2h-5.2z" fill="#e3ecff"/></g></g><g><path d="m42.7 61.3h-19.4c-.5 0-1-.4-1-1v-19.6c0-2.2 1.8-4 4-4h13.3.2c2.1 0 3.9 1.8 3.9 4v19.7c0 .5-.5.9-1 .9zm-18.4-1.9h17.5v-18.7c0-1.1-.9-2-2-2h-.1-13.4c-1.1 0-2 .9-2 2z" fill="#2a3c65"/></g><g><path d="m33 61.3c-.5 0-1-.4-1-1v-22.7c0-.5.4-1 1-1s1 .4 1 1v22.8c0 .5-.5.9-1 .9z" fill="#2a3c65"/></g><g><path d="m38.8 26c1 4.4-2.8 8.2-7.2 7.2-2.2-.5-4-2.3-4.5-4.5-1-4.4 2.8-8.2 7.2-7.2 2.3.5 4 2.3 4.5 4.5z" fill="#cc87fe"/></g><g><path d="m33 34.3c-.5 0-1.1-.1-1.6-.2-2.5-.6-4.7-2.7-5.2-5.2-.5-2.1 0-4.3 1.3-5.9 1.7-2.1 4.4-3 7-2.4s4.6 2.6 5.2 5.2c.5 2.1 0 4.3-1.3 5.9-1.3 1.7-3.3 2.6-5.4 2.6zm-.1-12c-1.5 0-2.9.7-3.9 1.9s-1.3 2.8-.9 4.3c.4 1.8 1.9 3.3 3.8 3.8 1.9.4 3.9-.2 5.1-1.7 1-1.2 1.3-2.8.9-4.3-.4-1.9-1.9-3.4-3.8-3.8-.4-.1-.8-.2-1.2-.2z" fill="#2a3c65"/></g></g></g></svg>