<svg id="Layer_1" height="512" viewBox="0 0 66 66" width="512" xmlns="http://www.w3.org/2000/svg"><g><g><path d="m64 64h-62c-.6 0-1-.4-1-1s.4-1 1-1h62c.6 0 1 .4 1 1s-.4 1-1 1z" fill="#2a3c65"/></g><g><g><path d="m3 5.8c0 1.6 1.3 2.8 2.8 2.8h54.4c1.6 0 2.8-1.3 2.8-2.8 0-1.6-1.2-2.8-2.8-2.8h-54.4c-1.6 0-2.8 1.2-2.8 2.8z" fill="#ffd880"/></g><g><path d="m5.8 8.6h54.4v24.4h-54.4z" fill="#c7d9f9"/></g><g><path d="m60.2 8.6v24.4h-4.1c-.8-5.2-3.3-9.9-6.9-13.4-4.4-4.4-10.5-7.2-17.2-7.2h-26.2v-3.8z" fill="#b0cdf7"/></g><g><path d="m5.8 38.6h54.4v24.4h-54.4z" fill="#c7d9f9"/></g><g><path d="m60.2 38.6v24.4h-7c-.9-4.9-3.3-9.2-6.7-12.6-4.4-4.4-10.5-7.2-17.3-7.2h-23.4v-4.7z" fill="#b0cdf7"/></g><g><path d="m5.8 30.2c-.5 0-1-.4-1-1v-16.8c0-.5.4-1 1-1s1 .4 1 1v16.8c0 .5-.5 1-1 1z" fill="#2a3c65"/></g><g><path d="m60.2 30.2c-.5 0-1-.4-1-1v-16.8c0-.5.4-1 1-1s1 .4 1 1v16.8c0 .5-.5 1-1 1z" fill="#2a3c65"/></g><g><path d="m60.2 63.9h-54.4c-.5 0-1-.4-1-1v-20.5c0-.5.4-1 1-1s1 .4 1 1v19.6h52.5v-19.6c0-.5.4-1 1-1s1 .4 1 1v20.6c-.1.5-.6.9-1.1.9z" fill="#2a3c65"/></g><g><g><path d="m22 19.6v6.4.4c-.2.7-.7 1.2-1.4 1.4-.1 0-.3 0-.4 0h-7.5c-.4 0-.7-.1-1-.3-.4-.3-.7-.7-.8-1.2 0-.1-.1-.3-.1-.4v-6.6c0-.3 0-.6.1-.9.2-1.2.8-2.2 1.6-3s1.9-1.4 3-1.6c.3 0 .5-.1.8-.1 1.9 0 3.6 1 4.7 2.5.3.4.5.8.7 1.3.2.7.3 1.4.3 2.1z" fill="#02beff"/></g><g><path d="m38.6 19.6v6.4c0 1-.8 1.9-1.9 1.9h-7.5c-.2 0-.5 0-.7-.1-.7-.3-1.2-.9-1.2-1.7v-6.6c0-1.6.6-3 1.7-4 1-1 2.4-1.6 3.9-1.6.5 0 1 .1 1.5.2 1.9.5 3.4 2 4 3.9.1.4.2 1 .2 1.6z" fill="#02beff"/></g><g><path d="m55.3 19.6v6.4c0 1-.8 1.9-1.9 1.9h-7.5c-1 0-1.9-.8-1.9-1.9v-6.6c0-1.6.6-3 1.7-4 1-1 2.4-1.6 3.9-1.6.9 0 1.7.2 2.5.6 1.7.9 3 2.7 3.2 4.7z" fill="#02beff"/></g></g><g><g><path d="m20.9 16.3-10.1 10.1c0-.1-.1-.3-.1-.4v-6.6c0-.3 0-.6.1-.9l4.6-4.6c.3 0 .5-.1.8-.1 2-.1 3.7.9 4.7 2.5z" fill="#27d1ff"/></g><g><path d="m22 19.6v.4l-7.9 7.9h-1.5c-.4 0-.7-.1-1-.3l10-10c.3.6.4 1.3.4 2z" fill="#27d1ff"/></g></g><g><g><path d="m20.6 27.8 1.4-1.4c-.2.7-.8 1.2-1.4 1.4z" fill="#27d1ff"/></g><g><path d="m38.4 17.9-9.8 9.8c-.7-.3-1.2-.9-1.2-1.7v-5l7-7c1.9.5 3.4 2 4 3.9z" fill="#27d1ff"/></g><g><path d="m38.6 19.6v2.8l-5.4 5.4h-2.8z" fill="#27d1ff"/></g></g><g><g><path d="m55.2 19-8.8 8.8h-.5c-1 0-1.9-.8-1.9-1.9v-3.7l8-8c1.8 1 3 2.8 3.2 4.8z" fill="#27d1ff"/></g><g><path d="m55.3 20.9v2.8l-4.1 4.1h-2.8z" fill="#27d1ff"/></g></g><g><path d="m20.1 28.8h-7.5c-1.6 0-2.9-1.3-2.9-2.9v-6.6c0-1.9.7-3.5 2-4.7 1.2-1.2 2.8-1.8 4.6-1.8 3.6 0 6.7 3.2 6.7 6.9v6.3c0 1.5-1.3 2.8-2.9 2.8zm-3.8-14.1c-1.2 0-2.4.5-3.2 1.3-.9.9-1.4 2-1.4 3.3v6.6c0 .6.5.9.9.9h7.5c.6 0 .9-.5.9-.9v-6.3c0-2.6-2.2-4.9-4.7-4.9z" fill="#2a3c65"/></g><g><path d="m36.7 28.9h-7.5c-1.6 0-2.9-1.3-2.9-2.9v-6.6c0-1.9.7-3.5 2-4.7 1.2-1.2 2.8-1.9 4.6-1.9h.2c3.5 0 6.5 3.1 6.5 6.8v6.4c0 1.6-1.3 2.9-2.9 2.9zm-3.6-14.1h-.1c-1.2 0-2.4.5-3.2 1.3-.9.9-1.4 2-1.4 3.3v6.6c0 .6.5.9.9.9h7.5c.6 0 .9-.5.9-.9v-6.4c-.1-2.6-2.2-4.8-4.6-4.8z" fill="#2a3c65"/></g><g><path d="m53.4 28.9h-7.5c-1.6 0-2.9-1.3-2.9-2.9v-6.6c0-1.9.7-3.5 2-4.7 1.2-1.2 2.8-1.9 4.6-1.9h.2c3.5 0 6.5 3.1 6.5 6.8v6.4c0 1.6-1.3 2.9-2.9 2.9zm-3.6-14.1h-.1c-1.2 0-2.4.5-3.2 1.3-.9.9-1.4 2-1.4 3.3v6.6c0 .6.5.9.9.9h7.5c.6 0 .9-.5.9-.9v-6.4c-.1-2.6-2.2-4.8-4.6-4.8z" fill="#2a3c65"/></g><g><path d="m26.4 50.5v12.5h13.1v-12.5c0-3.6-2.9-6.6-6.6-6.6-3.5.1-6.5 3-6.5 6.6z" fill="#ff7daf"/></g><g><path d="m39.5 63.9h-13.1c-.5 0-1-.4-1-1v-12.4c0-4.1 3.3-7.4 7.4-7.6 4.2 0 7.6 3.4 7.6 7.6v12.5c.1.5-.4.9-.9.9zm-12.1-1.9h11.2v-11.5c0-3.1-2.5-5.6-5.6-5.6-3 .1-5.5 2.6-5.5 5.6v11.5z" fill="#2a3c65"/></g><g><path d="m45 45.2v9.4c0 .5.4.9.9.9h7.5c.5 0 .9-.4.9-.9v-9.4c0-.5-.4-.9-.9-.9h-7.5c-.5 0-.9.4-.9.9z" fill="#1de9b6"/></g><g><path d="m21.1 45.2v9.4c0 .5-.4.9-.9.9h-7.5c-.5 0-.9-.4-.9-.9v-9.4c0-.5.4-.9.9-.9h7.5c.4 0 .9.4.9.9z" fill="#1de9b6"/></g><g><g><path d="m21.1 45.2-8 10.3h-.5c-.5 0-.9-.4-.9-.9v-4.3l4.6-6h3.8c.5 0 1 .4 1 .9z" fill="#38fcc4"/></g><g><path d="m21.1 47v2.5l-4.7 6h-1.9z" fill="#38fcc4"/></g></g><g><g><path d="m54.3 45.2-8 10.3h-.5c-.5 0-.9-.4-.9-.9v-4.3l4.7-6h3.8c.5 0 .9.4.9.9z" fill="#38fcc4"/></g><g><path d="m54.3 47v2.5l-4.6 6h-2z" fill="#38fcc4"/></g></g><g><path d="m53.4 56.4h-7.5c-1 0-1.9-.8-1.9-1.9v-9.4c0-1 .8-1.9 1.9-1.9h7.5c1 0 1.9.8 1.9 1.9v9.4c0 1.1-.9 1.9-1.9 1.9zm-.1-11.2-7.4.1.1 9.3 7.4-.1v-9.3z" fill="#2a3c65"/></g><g><path d="m20.1 56.4h-7.5c-1 0-1.9-.8-1.9-1.9v-9.4c0-1 .8-1.9 1.9-1.9h7.5c1 0 1.9.8 1.9 1.9v9.4c0 1.1-.9 1.9-1.9 1.9zm-.1-11.2-7.4.1.1 9.3 7.4-.1v-9.3z" fill="#2a3c65"/></g><g><path d="m33 63.9c-.5 0-1-.4-1-1v-18.9c0-.5.4-1 1-1s1 .4 1 1v19c0 .5-.5.9-1 .9z" fill="#2a3c65"/></g><g><path d="m60.2 9.6h-54.4c-2.1 0-3.8-1.7-3.8-3.8s1.6-3.8 3.8-3.8h54.4c2.1 0 3.8 1.6 3.8 3.8 0 2.1-1.7 3.8-3.8 3.8zm-54.4-5.6c-1.1 0-1.8.8-1.8 1.8s.8 1.8 1.8 1.8h54.4c1 0 1.8-.8 1.8-1.8s-.7-1.8-1.8-1.8z" fill="#2a3c65"/></g><g><path d="m3 35.8c0 1.6 1.3 2.8 2.8 2.8h54.4c1.6 0 2.8-1.3 2.8-2.8 0-1.6-1.3-2.8-2.8-2.8h-54.4c-1.6 0-2.8 1.3-2.8 2.8z" fill="#ffd880"/></g><g><path d="m60.2 39.6h-54.4c-2.1 0-3.8-1.7-3.8-3.8s1.7-3.8 3.8-3.8h54.4c2.1 0 3.8 1.7 3.8 3.8s-1.7 3.8-3.8 3.8zm-54.4-5.6c-1 0-1.8.8-1.8 1.8s.8 1.8 1.8 1.8h54.4c1 0 1.8-.8 1.8-1.8s-.8-1.8-1.8-1.8z" fill="#2a3c65"/></g></g></g></svg>