<svg id="Layer_1" height="512" viewBox="0 0 66 66" width="512" xmlns="http://www.w3.org/2000/svg"><g><g><path d="m6.7 26.7h52.5v37.3h-52.5z" fill="#c7d9f9"/></g><g><path d="m15.3 35.3h35.4v28.8h-35.4z" fill="#02beff"/></g><g><g><path d="m50.7 35.3v.2l-28.5 28.5h-6.9v-11.1l17.6-17.6z" fill="#27d1ff"/></g><g><path d="m50.7 40v6.4l-17.6 17.6h-6.4z" fill="#27d1ff"/></g></g><g><path d="m59.3 61c-.6 0-1-.4-1-1v-32.3h-50.6v32.3c0 .6-.4 1-1 1s-1-.4-1-1v-33.3c0-.6.4-1 1-1h52.5c.6 0 1 .4 1 1v33.3c.1.6-.4 1-.9 1z" fill="#2a3c65"/></g><g><path d="m30.3 51.8v1.7" fill="none"/></g><g><path d="m35.7 51.8v1.7" fill="none"/></g><g><path d="m24.3 41.3h-9" fill="none"/></g><g><path d="m50.7 41.3h-9" fill="none"/></g><g><path d="m41.7 61c-.6 0-1-.4-1-1v-20.7c0-.6.4-1 1-1s1 .4 1 1v20.7c0 .6-.5 1-1 1z" fill="#2a3c65"/></g><g><path d="m24.3 61c-.6 0-1-.4-1-1v-20.7c0-.6.4-1 1-1s1 .4 1 1v20.7c0 .6-.4 1-1 1z" fill="#2a3c65"/></g><g><path d="m33 61c-.6 0-1-.4-1-1v-18.7c0-.6.4-1 1-1s1 .4 1 1v18.7c0 .6-.4 1-1 1z" fill="#2a3c65"/></g><g><path d="m30.3 54.5c-.6 0-1-.4-1-1v-1.7c0-.6.4-1 1-1s1 .4 1 1v1.7c0 .6-.4 1-1 1z" fill="#2a3c65"/></g><g><path d="m35.7 54.5c-.6 0-1-.4-1-1v-1.7c0-.6.4-1 1-1s1 .4 1 1v1.7c0 .6-.4 1-1 1z" fill="#2a3c65"/></g><g><path d="m46.7 42.3h-27.4c-.6 0-1-.4-1-1s.4-1 1-1h27.4c.6 0 1 .4 1 1s-.5 1-1 1z" fill="#2a3c65"/></g><g><path d="m50.7 36.3h-35.4c-.6 0-1-.4-1-1v-8.6c0-.6.4-1 1-1h35.4c.6 0 1 .4 1 1v8.6c0 .6-.5 1-1 1zm-34.4-2h33.4v-6.6h-33.4z" fill="#2a3c65"/></g><g><path d="m58 16.2v7.8h-50v-7.8c0-1.3 1-2.3 2.3-2.3h45.3c1.4 0 2.4 1 2.4 2.3z" fill="#c7d9f9"/></g><g><path d="m58 25h-50c-.6 0-1-.4-1-1v-7.8c0-1.9 1.4-3.3 3.3-3.3h4.4c.6 0 1 .4 1 1s-.4 1-1 1h-4.4c-.8 0-1.3.5-1.3 1.3v6.8h48v-6.8c0-.8-.5-1.3-1.3-1.3h-12.3c-.6 0-1-.4-1-1s.4-1 1-1h12.3c1.8 0 3.3 1.4 3.3 3.3v7.8c0 .6-.5 1-1 1z" fill="#2a3c65"/></g><g><path d="m61.3 24.7c0 1.1-.9 1.9-1.9 1.9h-52.8c-1.1 0-1.9-.9-1.9-1.9 0-1.1.9-1.9 1.9-1.9h52.6c1.2 0 2.1.8 2.1 1.9z" fill="#fecb4d"/></g><g><path d="m59.4 27.6h-52.8c-1.6 0-2.9-1.3-2.9-2.9s1.3-2.9 2.9-2.9h52.6c1.7 0 3 1.3 3 2.9.1 1.6-1.2 2.9-2.8 2.9zm-52.8-3.8c-.4 0-.9.3-.9.9 0 .4.3.9.9.9h52.7c.4 0 .9-.3.9-.9s-.5-.9-1-.9z" fill="#2a3c65"/></g><g><path d="m33.8 15.2-9.4 4c-1.6.7-3.4 0-4.1-1.6l-1.5-3.3c-.7-1.6 0-3.4 1.6-4l9.5-4.1c1.4-.6 3 0 3.6 1.4l1.7 3.9c.6 1.5 0 3.1-1.4 3.7z" fill="#1de9b6"/></g><g><path d="m33.8 15.2-9.4 4c-1.6.7-3.4 0-4.1-1.6l-.7-1.6c.9.6 2 .8 3.1.3l5.1-2.2 4.3-1.8c1.4-.6 2-2.2 1.4-3.6l-1-2.3c.4.3.8.7 1 1.2l1.7 3.9c.6 1.5 0 3.1-1.4 3.7z" fill="#12d69e"/></g><g><path d="m23.1 20.5c-1.6 0-3.1-1-3.7-2.5l-1.5-3.3c-.5-1.1-.5-2.2 0-3.2.4-1 1.2-1.7 2.2-2.1l9.4-4.1c.5-.2 1-.3 1.5-.3 1.5 0 2.8.9 3.4 2.2l1.7 3.9c.8 2 0 4.2-1.9 5l-9.4 4c-.5.3-1.1.4-1.7.4zm7.9-13.5c-.2 0-.5.1-.7.2l-9.5 4.1c-.5.2-.9.6-1.1 1-.2.5-.2 1.1 0 1.6l1.5 3.3c.5 1.1 1.7 1.6 2.8 1.1l9.4-4c.9-.4 1.3-1.4.9-2.4l-1.7-3.9c-.3-.6-.9-1-1.6-1z" fill="#2a3c65"/></g><g><path d="m29.1 17.2 4.7-2c1.4-.6 2-2.2 1.4-3.6l-1.7-3.9c-.6-1.4-2.2-2-3.6-1.4l-4.6 2z" fill="#d5a6ff"/></g><g><path d="m33.8 15.2-4.7 2-1.3-3.1 4.3-1.8c1.4-.6 2-2.2 1.4-3.6l-1-2.3c.4.3.8.7 1 1.2l1.7 3.9c.6 1.5 0 3.1-1.4 3.7z" fill="#cc87fe"/></g><g><path d="m29.1 18.2c-.4 0-.8-.2-.9-.6l-3.8-8.9c-.2-.5 0-1.1.5-1.3l4.6-2c.5-.2 1-.3 1.5-.3 1.5 0 2.8.9 3.4 2.2l1.7 3.9c.8 1.9 0 4.1-1.9 4.9l-4.7 2c-.1.1-.3.1-.4.1zm-2.5-9.4 3 7.1 3.8-1.6c.9-.4 1.3-1.4.9-2.3l-1.7-3.9c-.4-.9-1.4-1.3-2.3-.9z" fill="#2a3c65"/></g><g><path d="m45.5 8.6-9.7 4.2-2.8-6.3 9.7-4.2c1.8-.8 3.9 0 4.6 1.8.8 1.7 0 3.8-1.8 4.5z" fill="#ff5892"/></g><g><path d="m35.8 13.8c-.4 0-.7-.2-.9-.6l-2.8-6.3c-.1-.2-.1-.5 0-.8.1-.2.3-.4.5-.6l9.7-4.2c.6-.2 1.2-.3 1.8-.3 1.8 0 3.4 1.1 4.1 2.7.5 1 .5 2.3.1 3.4s-1.3 2-2.4 2.4l-9.7 4.2c-.1.1-.3.1-.4.1zm-1.5-6.8 2 4.5 8.8-3.8c.6-.2 1.1-.7 1.3-1.3s.2-1.3 0-1.8c-.4-1-1.3-1.6-2.3-1.6-.4 0-.7.1-1 .2z" fill="#2a3c65"/></g><g><path d="m45.5 8.6-.3.1c-1.8.8-3.8 0-4.6-1.8-.8-1.7.1-3.8 1.8-4.5l.3-.1c1.8-.8 3.9 0 4.6 1.8.8 1.7 0 3.8-1.8 4.5z" fill="#f93580"/><path d="m43.8 10c-1.8 0-3.3-1-4.1-2.7-.5-1-.5-2.2-.1-3.3s1.3-2 2.4-2.5l.4-.1c.5-.3 1.1-.4 1.7-.4 1.8 0 3.4 1.1 4.1 2.7.5 1 .5 2.3.1 3.4s-1.3 2-2.4 2.4l-.3.1c-.6.3-1.2.4-1.8.4zm.3-7c-.4 0-.7.1-1 .2l-.4.1c-.5.2-1 .7-1.2 1.3s-.2 1.2 0 1.8c.6 1.3 2 1.9 3.3 1.3l.4-.1c.6-.2 1-.7 1.3-1.3.2-.6.2-1.3 0-1.8-.5-.9-1.4-1.5-2.4-1.5z" fill="#2a3c65"/></g><g><path d="m63 65h-60c-.6 0-1-.4-1-1s.4-1 1-1h60c.6 0 1 .4 1 1s-.5 1-1 1z" fill="#2a3c65"/></g><g><path d="m50.7 61c-.6 0-1-.4-1-1v-23.7h-33.4v23.7c0 .6-.4 1-1 1s-1-.4-1-1v-24.7c0-.6.4-1 1-1h35.4c.6 0 1 .4 1 1v24.7c0 .6-.5 1-1 1z" fill="#2a3c65"/></g></g></svg>