<svg id="Layer_1" height="512" viewBox="0 0 66 66" width="512" xmlns="http://www.w3.org/2000/svg"><g><g><path d="m11.8 26.9h43.3v32.6h-43.3z" fill="#27d1ff"/></g><g><path d="m55.1 26.9v32.6h-5.1c-2.3-15.8-15.9-27.9-32.2-27.9h-6v-4.8h43.3z" fill="#02beff"/></g><g><path d="m25.6 47v12.6h14.6v-12.6c0-4.1-3.2-7.3-7.3-7.3-4.1 0-7.3 3.2-7.3 7.3z" fill="#38fcc4"/></g><g><path d="m40.2 47v12.6h-4.6v-8c0-4.1-3.2-7.3-7.3-7.3-.8 0-1.6.1-2.3.4.4-1.1.9-2 1.7-2.8 1.3-1.3 3.1-2.1 5.2-2.1 4.1-.1 7.3 3.1 7.3 7.2z" fill="#1de9b6"/></g><g><path d="m55.1 60.6h-43.3c-.6 0-1-.5-1-1v-32.7c0-.6.5-1 1-1h43.3c.6 0 1 .5 1 1v32.6c0 .6-.5 1.1-1 1.1zm-42.3-2.1h41.2v-30.6h-41.2z" fill="#2a3c65"/></g><g><path d="m3.6 23.8v2.1c0 1.6 1.3 2.9 2.9 2.9h52.9c1.6 0 2.9-1.3 2.9-2.9v-2.1z" fill="#b0cdf7"/></g><g><path d="m62.4 61.3v2.7h-58.8v-2.1c0-1.3 1-2.3 2.3-2.3h54.5c1.2 0 2 .8 2 1.7z" fill="#c7d9f9"/></g><g><path d="m62.4 23.8h-58.8l26.3-20.7c1.8-1.4 4.5-1.4 6.4 0z" fill="#c7d9f9"/></g><g><path d="m55.7 24.8h-45.4c-.6 0-1-.5-1-1s.5-1 1-1h45.4c.6 0 1 .5 1 1s-.5 1-1 1z" fill="#2a3c65"/></g><g><path d="m59.4 29.9h-52.8c-2.2 0-3.9-1.8-3.9-3.9v-2.1c0-.6.5-1 1-1s1 .5 1 1v2.1c0 1.1.9 1.9 1.9 1.9h52.9c1.1 0 1.9-.9 1.9-1.9v-2.1c0-.6.5-1 1-1s1 .5 1 1v2.1c0 2.1-1.8 3.9-4 3.9z" fill="#2a3c65"/></g><g><path d="m62.4 65h-58.8c-.6 0-1-.5-1-1v-2.1c0-1.9 1.5-3.3 3.3-3.3h54.5c1.6 0 2.9 1.2 2.9 2.7v2.7c.1.6-.4 1-.9 1zm-57.8-2h56.7v-1.7c0-.3-.3-.7-.9-.7h-54.4c-.8 0-1.3.6-1.3 1.3v1.1z" fill="#2a3c65"/></g><g><path d="m40.2 56.4c-.6 0-1-.5-1-1v-8.4c0-3.5-2.8-6.3-6.3-6.3-1.7 0-3.3.7-4.5 1.8-1.2 1.2-1.8 2.8-1.8 4.5v8.4c0 .6-.5 1-1 1s-1-.5-1-1v-8.4c0-2.2.9-4.3 2.4-5.9 1.6-1.6 3.7-2.4 5.9-2.4 4.6 0 8.3 3.7 8.3 8.3v8.4c0 .6-.4 1-1 1z" fill="#2a3c65"/></g><g><path d="m62.4 24.8c-.2 0-.4-.1-.6-.2l-26.2-20.7c-1.5-1.1-3.7-1.1-5.1 0l-26.3 20.7c-.4.3-1.1.3-1.4-.2-.3-.4-.2-1.1.2-1.4l26.2-20.7c2.2-1.7 5.3-1.7 7.6 0l26.2 20.7c.4.3.5 1 .2 1.4-.2.3-.5.4-.8.4z" fill="#2a3c65"/></g><g><circle cx="33" cy="14.2" fill="#ff7daf" r="4.7"/></g><g><path d="m33 19.9c-3.1 0-5.7-2.5-5.7-5.7 0-3.1 2.5-5.7 5.7-5.7s5.7 2.5 5.7 5.7-2.6 5.7-5.7 5.7zm0-9.3c-2 0-3.6 1.6-3.6 3.7 0 2 1.6 3.7 3.6 3.7s3.7-1.6 3.7-3.7-1.7-3.7-3.7-3.7z" fill="#2a3c65"/></g><g><path d="m9.8 33.3h4v21.7h-4z" fill="#fecb4d"/></g><g><path d="m52.2 33.3h4v21.7h-4z" fill="#fecb4d"/></g><g><path d="m9.8 52c-.6 0-1-.5-1-1v-13.5c0-.6.5-1 1-1s1 .5 1 1v13.5c0 .5-.4 1-1 1z" fill="#2a3c65"/></g><g><path d="m13.8 52c-.6 0-1-.5-1-1v-13.5c0-.6.5-1 1-1s1 .5 1 1v13.5c0 .5-.5 1-1 1z" fill="#2a3c65"/></g><g><path d="m15.9 59.6h-8.1v-2.4c0-1.1.9-2 2-2h4.1c1.1 0 2 .9 2 2z" fill="#ffd880"/></g><g><path d="m7.8 28.8h8.1v2.4c0 1.1-.9 2-2 2h-4.1c-1.1 0-2-.9-2-2z" fill="#ffd880"/></g><g><path d="m58.2 59.6h-8.1v-2.4c0-1.1.9-2 2-2h4.1c1.1 0 2 .9 2 2z" fill="#ffd880"/></g><g><path d="m50.1 28.8h8.1v2.4c0 1.1-.9 2-2 2h-4.1c-1.1 0-2-.9-2-2z" fill="#ffd880"/></g><g><path d="m15.9 60.6h-8.1c-.6 0-1-.5-1-1v-2.4c0-1.7 1.4-3 3-3h4.1c1.7 0 3 1.4 3 3v2.4c0 .5-.5 1-1 1zm-7.1-2.1h6.1v-1.4c0-.6-.5-1-1-1h-4.1c-.6 0-1 .5-1 1z" fill="#2a3c65"/></g><g><path d="m13.9 34.3h-4.1c-1.7 0-3-1.4-3-3v-2.4c0-.6.5-1 1-1h8.1c.6 0 1 .5 1 1v2.4c0 1.7-1.4 3-3 3zm-5.1-4.4v1.4c0 .6.5 1 1 1h4.1c.6 0 1-.5 1-1v-1.4z" fill="#2a3c65"/></g><g><path d="m52.2 52c-.6 0-1-.5-1-1v-13.5c0-.6.5-1 1-1s1 .5 1 1v13.5c.1.5-.4 1-1 1z" fill="#2a3c65"/></g><g><path d="m56.2 52c-.6 0-1-.5-1-1v-13.5c0-.6.5-1 1-1s1 .5 1 1v13.5c0 .5-.4 1-1 1z" fill="#2a3c65"/></g><g><path d="m58.2 60.6h-8.1c-.6 0-1-.5-1-1v-2.4c0-1.7 1.4-3 3-3h4.1c1.7 0 3 1.4 3 3v2.4c0 .5-.4 1-1 1zm-7.1-2.1h6.1v-1.4c0-.6-.5-1-1-1h-4.1c-.6 0-1 .5-1 1z" fill="#2a3c65"/></g><g><path d="m56.2 34.3h-4.1c-1.7 0-3-1.4-3-3v-2.4c0-.6.5-1 1-1h8.1c.6 0 1 .5 1 1v2.4c0 1.7-1.3 3-3 3zm-5.1-4.4v1.4c0 .6.5 1 1 1h4.1c.6 0 1-.5 1-1v-1.4z" fill="#2a3c65"/></g><g><path d="m64.4 65h-62.8c-.6 0-1-.5-1-1s.5-1 1-1h62.8c.6 0 1 .5 1 1s-.4 1-1 1z" fill="#2a3c65"/></g></g></svg>