<svg id="Layer_1" enable-background="new 0 0 512 512" height="512" viewBox="0 0 512 512" width="512" xmlns="http://www.w3.org/2000/svg"><g><g><path d="m15.5 494.9h481" fill="none"/></g><g><path d="m496.5 502.7h-481c-4.7 0-7.8-3.1-7.8-7.8s3.1-7.8 7.8-7.8h481c4.7 0 7.8 3.1 7.8 7.8-.1 4.7-3.9 7.8-7.8 7.8z" fill="#2a3c65"/></g><g><g><path d="m474.8 272.3v224.2h-107.1v-248.3h83.8c12.4 0 23.3 10.9 23.3 24.1z" fill="#c7d9f9"/></g><g><path d="m60.5 248.2h83.8v248.2h-107.1v-224.1c0-13.2 10.9-24.1 23.3-24.1z" fill="#c7d9f9"/></g><g><path d="m474.8 272.3v224.2h-31.8v-109.4c0-29.5-11.6-55.9-31.8-75.2-12.4-12.4-27.2-21.7-44.2-26.4v-37.2h83.8c13.1-.1 24 10.8 24 24z" fill="#b0cdf7"/></g><g><path d="m144.3 248.2v248.2h-31.8v-132.6c0-43.4-33.4-79.1-75.2-83v-8.5c0-13.2 10.9-23.3 23.3-23.3z" fill="#b0cdf7"/></g><g><path d="m144.3 168.3h223.4v328.1h-223.4z" fill="#27d1ff"/></g><g><path d="m181.5 167.6h149.7v328.1h-149.7z" fill="#e3ecff"/></g><g><path d="m296.3 415v81.5h-79.9v-81.5c0-22.5 17.8-40.3 40.3-40.3 10.9 0 20.9 4.7 28.7 11.6 7.1 7.8 10.9 17.1 10.9 28.7z" fill="#ff7daf"/></g><g><circle cx="256.8" cy="283.9" fill="#c7d9f9" r="38"/></g><g><path d="m373.1 168.3h-234.2c-14.7 0-26.4-14-23.3-27.9 5.4-24 17.8-45 34.1-62.1 23.3-23.3 55.1-37.2 90-37.2h31.8c60.5 0 111.7 42.7 124.1 99.3 3.9 14-7.7 27.9-22.5 27.9z" fill="#ffd880"/></g><g><path d="m373.1 168.3h-17.1c-16.3-52-64.4-90-121.8-90h-31.8c-25.6 0-49.6 7.8-69 20.2 4.7-7.8 10.9-14.7 17.1-20.9 23.3-23.3 55.1-37.2 90-37.2h31.8c60.5 0 111.7 42.7 124.1 99.3 3.1 14.7-8.5 28.6-23.3 28.6z" fill="#fecb4d"/></g><g><path d="m250.6 40.3v-24.8" fill="none"/></g><g><path d="m70.6 290.1h40.3" fill="none"/></g><g><path d="m70.6 331.2h40.3" fill="none"/></g><g><path d="m70.6 372.4h40.3" fill="none"/></g><g><path d="m70.6 413.5h40.3" fill="none"/></g><g><path d="m70.6 455.4h40.3" fill="none"/></g><g><path d="m401.1 290.1h40.3" fill="none"/></g><g><path d="m401.1 331.2h40.3" fill="none"/></g><g><path d="m401.1 372.4h40.3" fill="none"/></g><g><path d="m401.1 413.5h40.3" fill="none"/></g><g><path d="m401.1 455.4h40.3" fill="none"/></g><g><path d="m474.8 504.2h-107.1c-4.7 0-7.8-3.1-7.8-7.8v-248.2c0-4.7 3.1-7.8 7.8-7.8h83.8c17.1 0 31 14.7 31 31.8v224.2c0 4.7-3.9 7.8-7.7 7.8zm-99.3-15.5h91.5v-216.4c0-8.5-7-16.3-15.5-16.3h-76z" fill="#2a3c65"/></g><g><path d="m144.3 504.2h-107.1c-4.7 0-7.8-3.1-7.8-7.8v-224.1c0-17.1 14-31.8 31-31.8h83.8c4.7 0 7.8 3.9 7.8 7.8v248.2c0 4.6-3.1 7.7-7.7 7.7zm-99.3-15.5h91.5v-232.7h-76c-8.5 0-15.5 7.8-15.5 16.3z" fill="#2a3c65"/></g><g><path d="m367.7 504.2h-223.4c-4.7 0-7.8-3.1-7.8-7.8v-297c0-4.7 3.9-7.8 7.8-7.8s7.8 3.9 7.8 7.8v289.4h207.9v-289.4c0-4.7 3.1-7.8 7.8-7.8s7.8 3.9 7.8 7.8v297.1c-.1 4.6-4 7.7-7.9 7.7z" fill="#2a3c65"/></g><g><path d="m331.2 503.5h-149.7c-4.7 0-7.8-3.1-7.8-7.8v-296.3c0-4.7 3.9-7.8 7.8-7.8s7.8 3.9 7.8 7.8v288.6h134.2v-288.6c0-4.7 3.1-7.8 7.8-7.8s7.8 3.9 7.8 7.8v296.3c-.1 4.7-4 7.8-7.9 7.8z" fill="#2a3c65"/></g><g><path d="m296.3 504.2h-79.9c-4.7 0-7.8-3.1-7.8-7.8v-81.4c0-27.2 20.9-48.1 48.1-48.1 12.4 0 24 4.7 34.1 14 0 0 .8 0 .8.8 8.5 9.3 13.2 20.9 13.2 34.1v80.7c-.7 4.6-3.8 7.7-8.5 7.7zm-72.1-15.5h64.4v-73.7c0-9.3-3.1-16.3-8.5-23.3-7-6.2-14.7-9.3-23.3-9.3-17.8 0-32.6 14-32.6 32.6z" fill="#2a3c65"/></g><g><circle cx="256.8" cy="283.9" fill="#38fcc4" r="38"/><path d="m256.8 329.7c-25.6 0-45.8-20.2-45.8-45.8s20.2-45.8 45.8-45.8 45.8 20.2 45.8 45.8-20.2 45.8-45.8 45.8zm0-76c-16.3 0-30.3 13.2-30.3 30.3 0 16.3 13.2 30.3 30.3 30.3 16.3 0 30.3-13.2 30.3-30.3-.1-16.4-14-30.3-30.3-30.3z" fill="#2a3c65"/></g><g><path d="m373.1 176.1h-234.2c-9.3 0-18.6-4.7-24.8-11.6s-8.5-16.3-6.2-25.6c5.4-24 17.8-46.5 35.7-65.9 25.6-25.6 59.7-39.6 95.4-39.6h32.6c62.8 0 117.9 44.2 131.9 105.5 2.3 8.5.8 17.8-5.4 24.8-6.3 7.7-15.7 12.4-25 12.4zm-133.4-127.2c-31.8 0-62.1 12.4-84.6 34.9-16.3 17.1-27.2 36.5-31.8 58.2-.8 3.9 0 8.5 3.1 12.4s7.8 6.2 12.4 6.2h234.3c4.7 0 9.3-2.3 12.4-6.2 2.3-3.9 3.9-7.8 2.3-11.6-11.6-54.3-60.5-93.9-116.4-93.9z" fill="#2a3c65"/></g><g><path d="m256 48.1c-4.7 0-7.8-3.9-7.8-7.8v-24.8c0-4.7 3.9-7.8 7.8-7.8s7.8 3.9 7.8 7.8v24.8c0 4.7-3.1 7.8-7.8 7.8z" fill="#2a3c65"/></g><g><path d="m110.9 297.9h-40.3c-4.7 0-7.8-3.1-7.8-7.8s3.9-7.8 7.8-7.8h40.3c4.7 0 7.8 3.1 7.8 7.8s-3.1 7.8-7.8 7.8z" fill="#2a3c65"/></g><g><path d="m110.9 339h-40.3c-4.7 0-7.8-3.1-7.8-7.8s3.9-7.8 7.8-7.8h40.3c4.7 0 7.8 3.1 7.8 7.8s-3.1 7.8-7.8 7.8z" fill="#2a3c65"/></g><g><path d="m110.9 380.1h-40.3c-4.7 0-7.8-3.1-7.8-7.8s3.9-7.8 7.8-7.8h40.3c4.7 0 7.8 3.1 7.8 7.8s-3.1 7.8-7.8 7.8z" fill="#2a3c65"/></g><g><path d="m110.9 421.2h-40.3c-4.7 0-7.8-3.1-7.8-7.8s3.9-7.8 7.8-7.8h40.3c4.7 0 7.8 3.1 7.8 7.8s-3.1 7.8-7.8 7.8z" fill="#2a3c65"/></g><g><path d="m110.9 463.1h-40.3c-4.7 0-7.8-3.1-7.8-7.8s3.9-7.8 7.8-7.8h40.3c4.7 0 7.8 3.1 7.8 7.8s-3.1 7.8-7.8 7.8z" fill="#2a3c65"/></g><g><path d="m441.4 297.9h-40.3c-4.7 0-7.8-3.1-7.8-7.8s3.1-7.8 7.8-7.8h40.3c4.7 0 7.8 3.1 7.8 7.8s-3.9 7.8-7.8 7.8z" fill="#2a3c65"/></g><g><path d="m441.4 339h-40.3c-4.7 0-7.8-3.1-7.8-7.8s3.1-7.8 7.8-7.8h40.3c4.7 0 7.8 3.1 7.8 7.8s-3.9 7.8-7.8 7.8z" fill="#2a3c65"/></g><g><path d="m441.4 380.1h-40.3c-4.7 0-7.8-3.1-7.8-7.8s3.1-7.8 7.8-7.8h40.3c4.7 0 7.8 3.1 7.8 7.8s-3.9 7.8-7.8 7.8z" fill="#2a3c65"/></g><g><path d="m441.4 421.2h-40.3c-4.7 0-7.8-3.1-7.8-7.8s3.1-7.8 7.8-7.8h40.3c4.7 0 7.8 3.1 7.8 7.8s-3.9 7.8-7.8 7.8z" fill="#2a3c65"/></g><g><path d="m441.4 463.1h-40.3c-4.7 0-7.8-3.1-7.8-7.8s3.1-7.8 7.8-7.8h40.3c4.7 0 7.8 3.1 7.8 7.8s-3.9 7.8-7.8 7.8z" fill="#2a3c65"/></g></g></g></svg>