<svg id="Layer_1" height="512" viewBox="0 0 66 66" width="512" xmlns="http://www.w3.org/2000/svg"><g><g><path d="m4.7 23.4h56.4v38.7h-56.4z" fill="#c7d9f9"/></g><g><path d="m61.3 23.4v38.7h-3.3c-1.6-19.9-18.3-35.5-38.6-35.5h-14.7v-3.2z" fill="#b0cdf7"/></g><g><path d="m61.3 63.1h-56.6c-.5 0-.9-.4-.9-.9v-35c0-.5.4-.9.9-.9s.9.4.9.9v34.1h54.6v-34.2c0-.5.4-.9.9-.9s.9.4.9.9v35c.2.5-.2 1-.7 1z" fill="#2a3c65"/></g><g><path d="m64.1 20.8c0-1.4-1.1-2.5-2.5-2.5h-57.2c-1.4 0-2.5 1.1-2.5 2.5 0 1.4 1.1 2.5 2.5 2.5h57c1.6.1 2.7-1.1 2.7-2.5z" fill="#cc87fe"/></g><g><path d="m38.4 19.2h-10.8c-.5 0-.9-.4-.9-.9s.4-.9.9-.9h10.8c.5 0 .9.4.9.9s-.4.9-.9.9z" fill="#2a3c65"/></g><g><path d="m61.6 24.2h-57.2c-.8 0-1.6-.3-2.4-.9 0 0-.1 0-.1-.1-.6-.6-1-1.5-1-2.5 0-1.9 1.5-3.4 3.4-3.4h8c.5 0 .9.4.9.9s-.4.9-.9.9h-8c-.9 0-1.6.7-1.6 1.6 0 .6.2.9.4 1.1.4.3.8.5 1.2.5h57.1c.9 0 1.6-.7 1.6-1.6s-.7-1.6-1.6-1.6h-8c-.5 0-.9-.4-.9-.9s.4-.9.9-.9h8c1.9 0 3.4 1.5 3.4 3.4s-1.3 3.5-3.2 3.5z" fill="#2a3c65"/></g><g><path d="m63.1 63.1h-60.2c-.5 0-.9-.4-.9-.9s.4-.9.9-.9h60.1c.5 0 .9.4.9.9s-.3.9-.8.9z" fill="#2a3c65"/></g><g><path d="m55.6 11.1c0-1.4-1.1-2.5-2.5-2.5h-40.1c-1.4 0-2.5 1.1-2.5 2.5 0 1.4 1.1 2.5 2.5 2.5h40c1.4.1 2.6-1.1 2.6-2.5z" fill="#38fcc4"/></g><g><path d="m53.2 14.5c-.1 0-.2 0-.2 0h-40c-1.9 0-3.4-1.5-3.4-3.4s1.4-3.5 3.4-3.5h40.2c1.9 0 3.4 1.5 3.4 3.4 0 .9-.3 1.8-1 2.4-.6.8-1.5 1.1-2.4 1.1zm-40.2-5c-.9 0-1.6.7-1.6 1.6s.7 1.6 1.6 1.6h40 .2c.4 0 .8-.2 1-.5.3-.3.5-.7.5-1.1 0-.9-.7-1.6-1.6-1.6z" fill="#2a3c65"/></g><g><path d="m50.1 5.8v10.6c0 1-.8 1.9-1.9 1.9h-4.5c-1 0-1.9-.8-1.9-1.9v-10.6c0-1 .8-1.9 1.9-1.9h4.5c1 0 1.9.9 1.9 1.9z" fill="#ff5892"/></g><g><path d="m24.2 5.8v10.6c0 1-.8 1.9-1.9 1.9h-4.5c-1 0-1.9-.8-1.9-1.9v-10.6c0-1 .8-1.9 1.9-1.9h4.5c1 0 1.9.9 1.9 1.9z" fill="#ff5892"/></g><g><g><path d="m50.1 5.8v.3c-3.2.3-5.7 3-5.7 6.3v5.9h-.6c-1 0-1.9-.8-1.9-1.9v-10.6c0-1 .8-1.9 1.9-1.9h4.5c.9 0 1.8.9 1.8 1.9z" fill="#f93580"/></g><g><path d="m24.2 5.8v.3c-3.2.3-5.7 3-5.7 6.3v5.9h-.6c-1 0-1.9-.8-1.9-1.9v-10.6c0-1 .8-1.9 1.9-1.9h4.5c.9 0 1.8.9 1.8 1.9z" fill="#f93580"/></g></g><g><path d="m48.2 19.2h-4.5c-1.6 0-2.8-1.3-2.8-2.8v-10.6c0-1.6 1.3-2.8 2.8-2.8h4.5c1.5 0 2.8 1.3 2.8 2.8v10.6c.1 1.5-1.2 2.8-2.8 2.8zm-4.5-14.4c-.6 0-1 .5-1 1v10.6c0 .6.5 1 1 1h4.5c.6 0 1-.5 1-1v-10.6c0-.5-.5-1-1-1z" fill="#2a3c65"/></g><g><path d="m22.3 19.2h-4.5c-1.6 0-2.8-1.3-2.8-2.8v-10.6c0-1.6 1.3-2.8 2.8-2.8h4.5c1.5 0 2.8 1.3 2.8 2.8v10.6c0 1.5-1.3 2.8-2.8 2.8zm-4.5-14.4c-.6 0-1 .5-1 1v10.6c0 .6.5 1 1 1h4.5c.6 0 1-.5 1-1v-10.6c0-.5-.5-1-1-1z" fill="#2a3c65"/></g><g><path d="m31.8 37.2v24.8h-21.4v-24.8c0-1 .8-1.9 1.9-1.9h17.7c1 0 1.8.9 1.8 1.9z" fill="#fecb4d"/></g><g><path d="m31.8 63h-21.4c-.5 0-.9-.4-.9-.9v-24.9c0-1.6 1.3-2.8 2.8-2.8h17.7c1.5 0 2.7 1.3 2.7 2.8v24.8c0 .5-.4 1-.9 1zm-20.5-1.9h19.6v-23.9c0-.5-.4-1-.9-1h-17.7c-.6 0-1 .5-1 1z" fill="#2a3c65"/></g><g><circle cx="15.2" cy="49.8" fill="#fff" r="1.7"/><path d="m15.2 52.5c-1.5 0-2.6-1.2-2.6-2.6 0-1.5 1.2-2.6 2.6-2.6 1.5 0 2.6 1.2 2.6 2.6s-1.2 2.6-2.6 2.6zm0-3.4c-.4 0-.8.3-.8.8s.3.8.8.8c.4 0 .8-.3.8-.8s-.4-.8-.8-.8z" fill="#2a3c65"/></g><g><path d="m54.8 33.7v15.1c0 1.6-1.3 2.8-2.8 2.8h-10.9c-.1 0-.2 0-.3 0-.7-.1-1.3-.4-1.7-.8-.5-.5-.8-1.2-.8-2v-15.1c0-1.6 1.3-2.8 2.8-2.8h10.9c1.5-.1 2.8 1.2 2.8 2.8z" fill="#02beff"/></g><g><g><path d="m54.8 33.7v1.3l-15.8 15.7c-.5-.5-.8-1.2-.8-2v-7.6l10.3-10.3h3.4c1.6 0 2.9 1.3 2.9 2.9z" fill="#27d1ff"/></g><g><path d="m54.8 37.6v3.7l-10.4 10.2h-3.4c-.1 0-.2 0-.3 0z" fill="#27d1ff"/></g></g><g><path d="m52 52.6h-10.9c-2 0-3.7-1.7-3.7-3.7v-15.2c0-2.1 1.7-3.7 3.7-3.7h10.9.2c2 0 3.6 1.7 3.6 3.7v15.1c0 2.1-1.7 3.8-3.8 3.8zm.2-20.8h-11.1c-1 0-1.9.8-1.9 1.9v15.1c0 1 .9 1.9 1.9 1.9h10.9c1 0 1.9-.8 1.9-1.9v-15.1c0-1-.8-1.9-1.7-1.9z" fill="#2a3c65"/></g></g></svg>