<svg id="Layer_1" height="512" viewBox="0 0 66 66" width="512" xmlns="http://www.w3.org/2000/svg"><g><path d="m10.5 32.9c.4.4 45 0 45 0" fill="#e3ecff"/><path d="m23.8 34.1c-13.5 0-13.7-.2-14-.5-.4-.4-.4-1 0-1.4.3-.3.7-.4 1-.2 2 .2 27.7.1 44.7 0 .5 0 1 .4 1 1s-.4 1-1 1c-15 0-25 .1-31.7.1z" fill="#2a3c65"/></g><g><g><path d="m5.1 7.4h38.6v55.1h-38.6z" fill="#c7d9f9"/></g><g><path d="m43.7 7.4v55.1h-33.8c13.9 0 25.1-16.2 25.1-30 0-13.9-11.2-25.1-25.1-25.1z" fill="#b0cdf7"/></g><g><path d="m43.7 63.5h-38.6c-.6 0-1-.4-1-1v-51.6c0-.6.4-1 1-1s1 .4 1 1v50.5h36.6v-50.5c0-.6.4-1 1-1s1 .4 1 1v51.5c0 .6-.4 1.1-1 1.1z" fill="#2a3c65"/></g><g><g><path d="m39.4 14.5v3.4c0 1-.8 1.7-1.7 1.7h-26.5c-1 0-1.7-.8-1.7-1.7v-3.4c0-1 .8-1.7 1.7-1.7h26.4c1-.1 1.8.7 1.8 1.7z" fill="#02beff"/></g><g><path d="m39.4 38.7v3.4c0 1-.8 1.7-1.7 1.7h-26.5c-1 0-1.7-.8-1.7-1.7v-3.4c0-1 .8-1.7 1.7-1.7h26.4c1-.1 1.8.7 1.8 1.7z" fill="#02beff"/></g><g><path d="m39.4 26.1v3.4c0 1-.8 1.7-1.7 1.7h-26.5c-.7 0-1.2-.4-1.5-.9-.2-.2-.2-.5-.2-.8v-3.4c0-1 .8-1.7 1.7-1.7h26.4c1-.1 1.8.7 1.8 1.7 0-.1 0 0 0 0z" fill="#02beff"/></g></g><g><g><path d="m11.2 36.9h7.7l-6.9 6.9h-.8c-1 0-1.7-.8-1.7-1.7v-3.4c0-1 .8-1.8 1.7-1.8z" fill="#27d1ff"/></g><g><path d="m31.5 24.3-6.9 6.9h-13.4c-.7 0-1.2-.4-1.5-.9l6-6z" fill="#27d1ff"/></g><g><path d="m39.4 14.5v2l-3.2 3.2h-15.8l6.9-6.9h10.4c.9-.1 1.7.7 1.7 1.7z" fill="#27d1ff"/></g><g><path d="m28.5 36.9-6.9 6.9h-5.7l6.9-6.9z" fill="#27d1ff"/></g><g><path d="m39.4 26-5.2 5.2h-5.6l6.9-6.9h2.2c.9 0 1.7.8 1.7 1.7z" fill="#27d1ff"/></g></g><g><path d="m37.7 44.8h-26.5c-1.5 0-2.7-1.2-2.7-2.7v-3.4c0-1.5 1.2-2.7 2.7-2.7h26.4c1.6-.1 2.8 1.1 2.8 2.7v3.4c0 1.5-1.2 2.7-2.7 2.7zm-26.5-6.8c-.3 0-.7.2-.7.7v3.4c0 .3.2.7.7.7h26.5c.3 0 .7-.2.7-.7v-3.4c0-.4-.3-.7-.6-.7 0 0-.1 0-.2 0z" fill="#2a3c65"/></g><g><path d="m37.7 32.2h-26.5c-1.5 0-2.7-1.2-2.7-2.7v-3.4c0-1.5 1.2-2.7 2.7-2.7h26.4.2c1.5 0 2.6 1.2 2.6 2.7v3.4c0 1.5-1.2 2.7-2.7 2.7zm-26.5-6.8c-.3 0-.7.2-.7.7v3.4c0 .3.2.7.7.7h26.5c.3 0 .7-.2.7-.7v-3.4c0-.4-.3-.7-.6-.7 0 0-.1 0-.2 0z" fill="#2a3c65"/></g><g><path d="m46.9 5.4c0-1.1-.8-2-1.9-2h-41.1c-1 0-1.9.9-1.9 2 0 1.1.8 2 1.9 2h41.1c1 0 1.9-.9 1.9-2z" fill="#cc87fe"/><path d="m45 8.4h-41.1c-1.6 0-2.9-1.3-2.9-3 0-1.6 1.3-3 2.9-3h41.1c1.6 0 2.9 1.3 2.9 3s-1.3 3-2.9 3zm-41.1-4c-.4 0-.9.5-.9 1s.3 1 .9 1h41.1c.4 0 .9-.4.9-1 0-.5-.3-1-.9-1z" fill="#2a3c65"/></g><g><path d="m30.7 52.8v9.8h-12.5v-9.8c0-1.4 1.2-2.6 2.6-2.6h7.3c1.4-.1 2.6 1.1 2.6 2.6z" fill="#ffd880"/></g><g><path d="m30.7 63.6h-12.5c-.6 0-1-.4-1-1v-9.8c0-2 1.6-3.6 3.6-3.6h7.3.2c1.9 0 3.4 1.6 3.4 3.6v9.8c0 .5-.4 1-1 1zm-11.5-2h10.5v-8.8c0-.9-.7-1.6-1.4-1.6 0 0-.1 0-.2 0h-7.3c-.9 0-1.6.7-1.6 1.6z" fill="#2a3c65"/></g><g><path d="m43.7 20.8h7.5v10h-7.5z" fill="#fff"/><path d="m51.2 31.8h-7.5c-.6 0-1-.4-1-1v-10c0-.6.4-1 1-1h7.5c.6 0 1 .4 1 1v10c0 .6-.4 1-1 1zm-6.5-2h5.5v-8h-5.5z" fill="#2a3c65"/></g><g><ellipse cx="56.4" cy="25.8" fill="#ff7daf" rx="7.6" ry="10.6"/></g><g><path d="m56.4 32.4c-1.7 0-3.6-2.9-3.6-6.6s2-6.6 3.6-6.6c1.7 0 3.6 2.9 3.6 6.6s-2 6.6-3.6 6.6z" fill="#ff5892"/></g><g><path d="m56.4 37.4c-4.7 0-8.6-5.2-8.6-11.6s3.9-11.6 8.6-11.6 8.6 5.2 8.6 11.6-3.9 11.6-8.6 11.6zm0-21.2c-3.6 0-6.6 4.3-6.6 9.6s3 9.6 6.6 9.6 6.6-4.3 6.6-9.6-3-9.6-6.6-9.6z" fill="#2a3c65"/></g><g><path d="m53.2 28.6c-.3 0-.7-.2-.9-.5-.3-.5-.1-1.1.4-1.4l6.3-3.6c.5-.3 1.1-.1 1.4.4s.1 1.1-.4 1.4l-6.3 3.6c-.2.1-.3.1-.5.1z" fill="#2a3c65"/></g><g><path d="m59.5 28.6c-.2 0-.3 0-.5-.1l-6.3-3.6c-.5-.3-.6-.9-.4-1.4.3-.5.9-.6 1.4-.4l6.3 3.6c.5.3.6.9.4 1.4-.2.3-.6.5-.9.5z" fill="#2a3c65"/></g><g><path d="m56.4 30.4c-.6 0-1-.4-1-1v-7.3c0-.6.4-1 1-1s1 .4 1 1v7.3c0 .6-.4 1-1 1z" fill="#2a3c65"/></g><g><path d="m37.7 20.6h-26.5c-1.5 0-2.7-1.2-2.7-2.7v-3.4c0-1.5 1.2-2.7 2.7-2.7h26.4.2c1.5 0 2.6 1.2 2.6 2.7v3.4c0 1.5-1.2 2.7-2.7 2.7zm-26.5-6.8c-.3 0-.7.2-.7.7v3.4c0 .3.2.7.7.7h26.5c.3 0 .7-.2.7-.7v-3.4c0-.4-.3-.7-.6-.7 0 0-.1 0-.2 0z" fill="#2a3c65"/></g></g></svg>