<svg id="Layer_1" height="512" viewBox="0 0 66 66" width="512" xmlns="http://www.w3.org/2000/svg"><g><g><path d="m17.5 7.3h42.9v40.9h-42.9z" fill="#e3ecff"/></g><g><path d="m17.5 49.2c-.5 0-1-.4-1-1v-37c0-.5.4-1 1-1s1 .4 1 1v37c0 .5-.5 1-1 1z" fill="#2a3c65"/></g><g><path d="m60.4 49.2c-.5 0-1-.4-1-1v-37c0-.5.4-1 1-1s1 .4 1 1v37c0 .5-.4 1-1 1z" fill="#2a3c65"/></g><g><path d="m63.9 5.1c0-1.2-.9-2.1-2.1-2.1h-45.7c-1.1 0-2.1 1-2.1 2.2 0 1.2.9 2.2 2.1 2.2h45.7c1.2-.1 2.1-1.1 2.1-2.3z" fill="#cc87fe"/></g><g><path d="m61.8 8.4h-45.7c-1.7 0-3.1-1.4-3.1-3.2 0-1.7 1.4-3.2 3.1-3.2h45.7c1.7 0 3.1 1.3 3.1 3.1 0 1.7-1.3 3.1-3.1 3.3.1 0 .1 0 0 0zm-45.7-4.4c-.5 0-1.1.5-1.1 1.2s.5 1.2 1.1 1.2h45.7c.7 0 1.2-.6 1.2-1.3s-.5-1.1-1.2-1.1z" fill="#2a3c65"/></g><g><path d="m17.5 48.2h42.9v14.8h-42.9z" fill="#ffd880"/></g><g><path d="m60.4 64h-42.9c-.5 0-1-.4-1-1v-14.8c0-.5.4-1 1-1s1 .4 1 1v13.8h41v-13.8c0-.5.4-1 1-1s1 .4 1 1v14.8c-.1.5-.5 1-1.1 1z" fill="#2a3c65"/></g><g><path d="m56.2 49.2h-34.5c-.5 0-1-.4-1-1s.4-1 1-1h34.5c.5 0 1 .4 1 1s-.4 1-1 1z" fill="#2a3c65"/></g><g><path d="m44.3 55.6v7.4h-10.6v-7.4c0-1.6 1.3-2.9 2.9-2.9h4.8c1.6 0 2.9 1.3 2.9 2.9z" fill="#e3ecff"/></g><g><path d="m44.3 64h-10.6c-.5 0-1-.4-1-1v-7.4c0-2.1 1.7-3.9 3.9-3.9h4.8c2.1 0 3.9 1.7 3.9 3.9v7.4c0 .5-.5 1-1 1zm-9.6-2h8.7v-6.4c0-1.1-.9-1.9-1.9-1.9h-4.8c-1.1 0-1.9.9-1.9 1.9v6.4z" fill="#2a3c65"/></g><g><g><path d="m22.9 12.6h4.4v4.4h-4.4z" fill="#27d1ff"/><path d="m27.3 18h-4.4c-.5 0-1-.4-1-1v-4.4c0-.5.4-1 1-1h4.4c.5 0 1 .4 1 1v4.4c0 .5-.5 1-1 1zm-3.4-2h2.5v-2.5h-2.5z" fill="#2a3c65"/></g><g><path d="m22.9 21.3h4.4v4.4h-4.4z" fill="#27d1ff"/><path d="m27.3 26.7h-4.4c-.5 0-1-.4-1-1v-4.4c0-.5.4-1 1-1h4.4c.5 0 1 .4 1 1v4.4c0 .5-.5 1-1 1zm-3.4-2h2.5v-2.5h-2.5z" fill="#2a3c65"/></g><g><path d="m22.9 29.9h4.4v4.4h-4.4z" fill="#27d1ff"/><path d="m27.3 35.3h-4.4c-.5 0-1-.4-1-1v-4.4c0-.5.4-1 1-1h4.4c.5 0 1 .4 1 1v4.4c0 .5-.5 1-1 1zm-3.4-2h2.5v-2.5h-2.5z" fill="#2a3c65"/></g><g><path d="m22.9 38.6h4.4v4.4h-4.4z" fill="#27d1ff"/><path d="m27.3 44h-4.4c-.5 0-1-.4-1-1v-4.4c0-.5.4-1 1-1h4.4c.5 0 1 .4 1 1v4.4c0 .5-.5 1-1 1zm-3.4-2h2.5v-2.5h-2.5z" fill="#2a3c65"/></g><g><path d="m32.2 12.6h4.4v4.4h-4.4z" fill="#27d1ff"/><path d="m36.6 18h-4.4c-.5 0-1-.4-1-1v-4.4c0-.5.4-1 1-1h4.4c.5 0 1 .4 1 1v4.4c0 .5-.5 1-1 1zm-3.4-2h2.5v-2.5h-2.5z" fill="#2a3c65"/></g><g><path d="m32.2 21.3h4.4v4.4h-4.4z" fill="#27d1ff"/><path d="m36.6 26.7h-4.4c-.5 0-1-.4-1-1v-4.4c0-.5.4-1 1-1h4.4c.5 0 1 .4 1 1v4.4c0 .5-.5 1-1 1zm-3.4-2h2.5v-2.5h-2.5z" fill="#2a3c65"/></g><g><path d="m32.2 29.9h4.4v4.4h-4.4z" fill="#27d1ff"/><path d="m36.6 35.3h-4.4c-.5 0-1-.4-1-1v-4.4c0-.5.4-1 1-1h4.4c.5 0 1 .4 1 1v4.4c0 .5-.5 1-1 1zm-3.4-2h2.5v-2.5h-2.5z" fill="#2a3c65"/></g><g><path d="m32.2 38.6h4.4v4.4h-4.4z" fill="#27d1ff"/><path d="m36.6 44h-4.4c-.5 0-1-.4-1-1v-4.4c0-.5.4-1 1-1h4.4c.5 0 1 .4 1 1v4.4c0 .5-.5 1-1 1zm-3.4-2h2.5v-2.5h-2.5z" fill="#2a3c65"/></g><g><path d="m41.4 12.6h4.4v4.4h-4.4z" fill="#27d1ff"/><path d="m45.8 18h-4.4c-.5 0-1-.4-1-1v-4.4c0-.5.4-1 1-1h4.4c.5 0 1 .4 1 1v4.4c0 .5-.5 1-1 1zm-3.4-2h2.5v-2.5h-2.5z" fill="#2a3c65"/></g><g><path d="m41.4 21.3h4.4v4.4h-4.4z" fill="#27d1ff"/><path d="m45.8 26.7h-4.4c-.5 0-1-.4-1-1v-4.4c0-.5.4-1 1-1h4.4c.5 0 1 .4 1 1v4.4c0 .5-.5 1-1 1zm-3.4-2h2.5v-2.5h-2.5z" fill="#2a3c65"/></g><g><path d="m41.4 29.9h4.4v4.4h-4.4z" fill="#27d1ff"/><path d="m45.8 35.3h-4.4c-.5 0-1-.4-1-1v-4.4c0-.5.4-1 1-1h4.4c.5 0 1 .4 1 1v4.4c0 .5-.5 1-1 1zm-3.4-2h2.5v-2.5h-2.5z" fill="#2a3c65"/></g><g><path d="m41.4 38.6h4.4v4.4h-4.4z" fill="#27d1ff"/><path d="m45.8 44h-4.4c-.5 0-1-.4-1-1v-4.4c0-.5.4-1 1-1h4.4c.5 0 1 .4 1 1v4.4c0 .5-.5 1-1 1zm-3.4-2h2.5v-2.5h-2.5z" fill="#2a3c65"/></g><g><path d="m50.7 12.6h4.4v4.4h-4.4z" fill="#27d1ff"/><path d="m55.1 18h-4.4c-.5 0-1-.4-1-1v-4.4c0-.5.4-1 1-1h4.4c.5 0 1 .4 1 1v4.4c0 .5-.4 1-1 1zm-3.4-2h2.5v-2.5h-2.5z" fill="#2a3c65"/></g><g><path d="m50.7 21.3h4.4v4.4h-4.4z" fill="#27d1ff"/><path d="m55.1 26.7h-4.4c-.5 0-1-.4-1-1v-4.4c0-.5.4-1 1-1h4.4c.5 0 1 .4 1 1v4.4c0 .5-.4 1-1 1zm-3.4-2h2.5v-2.5h-2.5z" fill="#2a3c65"/></g><g><path d="m50.7 29.9h4.4v4.4h-4.4z" fill="#27d1ff"/><path d="m55.1 35.3h-4.4c-.5 0-1-.4-1-1v-4.4c0-.5.4-1 1-1h4.4c.5 0 1 .4 1 1v4.4c0 .5-.4 1-1 1zm-3.4-2h2.5v-2.5h-2.5z" fill="#2a3c65"/></g><g><path d="m50.7 38.6h4.4v4.4h-4.4z" fill="#27d1ff"/><path d="m55.1 44h-4.4c-.5 0-1-.4-1-1v-4.4c0-.5.4-1 1-1h4.4c.5 0 1 .4 1 1v4.4c0 .5-.4 1-1 1zm-3.4-2h2.5v-2.5h-2.5z" fill="#2a3c65"/></g></g><g><path d="m7 9.1c-2.7 0-5 2.2-5 5v20.7c0 2.7 2.2 5 5 5 2.7 0 5-2.2 5-5v-20.7c-.1-2.7-2.3-5-5-5z" fill="#38fcc4"/></g><g><path d="m7 35.9c-.6 0-1.1-.5-1.1-1.1v-20.7c0-.6.5-1.1 1.1-1.1s1.1.5 1.1 1.1v20.7c0 .6-.5 1.1-1.1 1.1z" fill="#1de9b6"/></g><g><path d="m7 40.8c-3.3 0-6-2.7-6-6v-20.7c0-3.3 2.7-6 6-6 3.2 0 5.9 2.7 6 5.9v20.7c-.1 3.4-2.7 6.1-6 6.1zm0-30.7c-2.2 0-4 1.8-4 4v20.7c0 2.2 1.8 4 4 4s4-1.8 4-4v-20.7c-.1-2.2-1.9-4-4-4z" fill="#2a3c65"/></g><g><path d="m17.5 16.9h-5.6c-.5 0-1-.4-1-1s.4-1 1-1h5.6c.5 0 1 .4 1 1s-.5 1-1 1z" fill="#2a3c65"/></g><g><path d="m17.5 34h-5.6c-.5 0-1-.4-1-1s.4-1 1-1h5.6c.5 0 1 .4 1 1s-.5 1-1 1z" fill="#2a3c65"/></g><g><path d="m64 64h-50.1c-.5 0-1-.4-1-1s.4-1 1-1h50.1c.5 0 1 .4 1 1s-.4 1-1 1z" fill="#2a3c65"/></g></g></svg>