<svg id="Layer_1" height="512" viewBox="0 0 66 66" width="512" xmlns="http://www.w3.org/2000/svg"><g><g><path d="m5.8 21.5h54.3v36.4h-54.3z" fill="#c7d9f9"/></g><g><path d="m60.2 21.5v36.4h-54.4v-6.7h14.2c17.9 0 32.7-12.8 35.9-29.7-.1 0 4.3 0 4.3 0z" fill="#b0cdf7"/></g><g><path d="m60.2 58.7h-54.4c-.5 0-.9-.4-.9-.9v-36.3c0-.5.4-.9.9-.9h16.5c.5 0 .9.4.9.9s-.4.9-.9.9h-15.6v34.6h52.7v-34.7h-15.7c-.5 0-.9-.4-.9-.9s.4-.9.9-.9h16.5c.5 0 .9.4.9.9v36.4c0 .6-.4.9-.9.9z" fill="#2a3c65"/></g><g><path d="m62.5 58.7h-59c-.5 0-.9-.4-.9-.9s.4-.8.9-.8h59c.5 0 .9.4.9.9s-.4.8-.9.8z" fill="#2a3c65"/></g><g><path d="m61.5 28.6h-57c-2 0-3.2-2.1-2.3-3.8l8.1-14.8c.6-1.1 1.8-1.8 3-1.8h39.3c1.3 0 2.4.7 3 1.8l8.1 14.8c1 1.7-.2 3.8-2.2 3.8z" fill="#38fcc4"/></g><g><path d="m61.5 28.6h-2.9c-2.2-3.7-5.3-6.7-8.9-8.9-3.9-2.3-8.4-3.6-13.1-3.6h-29.7l3.4-6.1c.6-1.1 1.8-1.8 3-1.8h39.3c1.3 0 2.4.7 3 1.8l8.1 14.8c1 1.7-.2 3.8-2.2 3.8z" fill="#1de9b6"/></g><g><path d="m61.5 29.5h-9.4c-.5 0-.9-.4-.9-.9s.4-.9.9-.9h9.4c.6 0 1.2-.3 1.5-.8s.3-1.2 0-1.7l-8.1-14.8c-.4-.9-1.3-1.4-2.2-1.4h-39.4c-1 0-1.8.5-2.3 1.4l-8.1 14.7c-.3.5-.3 1.2.1 1.7.3.5.9.8 1.5.8h9.4c.5 0 .9.4.9.9s-.4.9-.9.9h-9.4c-1.2 0-2.4-.6-3-1.7s-.7-2.3-.1-3.4l8.1-14.8c.8-1.4 2.2-2.3 3.8-2.3h39.4c1.5 0 3 .9 3.8 2.3l8.1 14.8c.6 1.1.5 2.4-.1 3.4-.6 1.1-1.7 1.8-3 1.8z" fill="#2a3c65"/></g><g><path d="m47.3 32.9c-1.4 0-2.6 1.2-2.6 2.6v22.4h-23.4v-22.4c0-1.4-1.2-2.6-2.6-2.6-1.8 0-2.6-2.3-1.2-3.4l14.3-11.1c.7-.5 1.6-.5 2.3 0l14.3 11.1c1.5 1.2.7 3.4-1.1 3.4z" fill="#ff7daf"/></g><g><path d="m44.6 58.7h-23.3c-.5 0-.9-.4-.9-.9v-22.3c0-.9-.8-1.7-1.7-1.7-1.2 0-2.2-.7-2.6-1.9-.4-1.1 0-2.3.9-3.1l14.3-11.1c.5-.4 1.1-.6 1.7-.6.6 0 1.2.2 1.7.5l14.3 11.2c1 .8 1.4 2 1.1 3.1-.4 1.1-1.4 1.8-2.6 1.8-.9 0-1.7.8-1.7 1.7v22.4c-.3.6-.7.9-1.2.9zm-22.5-1.7h21.7v-21.5c0-1.9 1.6-3.5 3.5-3.5.5 0 .9-.3 1-.6.1-.4 0-.9-.5-1.2l-14.3-11.2c-.3-.2-.9-.3-1.3 0l-14.2 11.2c-.5.4-.4 1-.3 1.1.1.3.4.7 1 .7 1.9 0 3.5 1.6 3.5 3.5v21.5z" fill="#2a3c65"/></g><g><path d="m39.1 43.2v14.6h-12.2v-14.6c0-1.2 1-2.2 2.2-2.2h7.8c1.2 0 2.2 1 2.2 2.2z" fill="#e3ecff"/><path d="m39.1 58.7h-12.2c-.5 0-.9-.4-.9-.9v-14.6c0-1.7 1.4-3.1 3.1-3.1h7.8c1.7 0 3.1 1.4 3.1 3.1v14.6c0 .6-.4.9-.9.9zm-11.4-1.7h10.5v-13.8c0-.7-.6-1.3-1.3-1.3h-7.8c-.7 0-1.3.6-1.3 1.3v13.8z" fill="#2a3c65"/></g><g><path d="m29.3 50.9c-.5 0-.9-.4-.9-.9v-1c0-.5.4-.9.9-.9s.9.4.9.9v1.1c-.1.4-.4.8-.9.8z" fill="#2a3c65"/></g><g><circle cx="33" cy="30.8" fill="#27d1ff" r="4.7"/></g><g><circle cx="33" cy="30.8" fill="#02beff" r="1.2"/></g><g><path d="m33 36.4c-3.1 0-5.6-2.5-5.6-5.6s2.5-5.6 5.6-5.6 5.6 2.5 5.6 5.6-2.5 5.6-5.6 5.6zm0-9.5c-2.1 0-3.9 1.7-3.9 3.9s1.7 3.9 3.9 3.9c2.1 0 3.9-1.7 3.9-3.9s-1.8-3.9-3.9-3.9z" fill="#2a3c65"/></g><g><g><path d="m55.9 43.4v4.2c0 1.1-.9 2-2 2h-2.9c-1.1 0-2-.9-2-2v-4.2c0-1.1.9-2 2-2h2.9c1.1 0 2 .9 2 2z" fill="#ffd880"/><path d="m53.9 50.5h-2.9c-1.6 0-2.9-1.3-2.9-2.9v-4.2c0-1.6 1.3-2.9 2.9-2.9h2.9c1.6 0 2.9 1.3 2.9 2.9v4.2c0 1.6-1.3 2.9-2.9 2.9zm-2.9-8.2c-.6 0-1.1.5-1.1 1.1v4.2c0 .6.5 1.1 1.1 1.1h2.9c.6 0 1.1-.5 1.1-1.1v-4.2c0-.6-.5-1.1-1.1-1.1z" fill="#2a3c65"/></g><g><path d="m17.1 43.4v4.2c0 1.1-.9 2-2 2h-2.9c-1.1 0-2-.9-2-2v-4.2c0-1.1.9-2 2-2h2.9c1.1 0 2 .9 2 2z" fill="#ffd880"/><path d="m15.1 50.5h-2.9c-1.6 0-2.9-1.3-2.9-2.9v-4.2c0-1.6 1.3-2.9 2.9-2.9h2.9c1.6 0 2.9 1.3 2.9 2.9v4.2c0 1.6-1.3 2.9-2.9 2.9zm-2.9-8.2c-.6 0-1.1.5-1.1 1.1v4.2c0 .6.5 1.1 1.1 1.1h2.9c.6 0 1.1-.5 1.1-1.1v-4.2c0-.6-.5-1.1-1.1-1.1z" fill="#2a3c65"/></g></g></g></svg>