<svg id="Layer_1" height="512" viewBox="0 0 66 66" width="512" xmlns="http://www.w3.org/2000/svg"><g><g><path d="m6.5 23.5h53v40.1h-53z" fill="#c7d9f9"/></g><g><path d="m59.5 23.5v40.1h-3.1c-.7-9.9-5-18.8-11.6-25.4-7.2-7.2-17.3-11.7-28.3-11.7h-10v-3z" fill="#b0cdf7"/></g><g><path d="m62.1 23.5h-58.2c-1.4 0-2.3-1.5-1.7-2.7l3-6.4c1.1-2.3 3.5-3.8 6.1-3.8h43.6c2.6 0 5 1.5 6.1 3.8l3 6.4c.4 1.2-.5 2.7-1.9 2.7z" fill="#38fcc4"/></g><g><path d="m62.1 23.5h-3.7c-3.2-5.2-8.9-8.5-15.1-8.5h-36.5c-.7 0-1.4.1-2 .3l.4-.9c1.1-2.3 3.5-3.8 6.1-3.8h43.6c2.6 0 5 1.5 6.1 3.8l3 6.4c.4 1.2-.5 2.7-1.9 2.7z" fill="#1de9b6"/></g><g><path d="m59.5 64.4h-53c-.5 0-1-.4-1-1v-36.1c0-.5.4-1 1-1 .5 0 1 .4 1 1v35.2h51.1v-35.2c0-.5.4-1 1-1s1 .4 1 1v36.2c-.1.5-.6.9-1.1.9z" fill="#2a3c65"/></g><g><path d="m14.1 2.5h8.1v8.1h-8.1z" fill="#ff7daf"/><path d="m22.2 11.6h-8.1c-.5 0-1-.4-1-1v-8.1c0-.5.4-1 1-1h8.1c.5 0 1 .4 1 1v8.1c0 .5-.5 1-1 1zm-7.1-1.9h6.2v-6.2h-6.2z" fill="#2a3c65"/></g><g><path d="m23.9 3.5h-11.4c-.5 0-1-.4-1-1s.4-1 1-1h11.4c.5 0 1 .4 1 1s-.5 1-1 1z" fill="#2a3c65"/></g><g><path d="m63.5 64.4h-61c-.5 0-1-.4-1-1s.4-1 1-1h61c.5 0 1 .4 1 1s-.5 1-1 1z" fill="#2a3c65"/></g><g><path d="m62.1 24.5h-58.2c-1 0-1.9-.5-2.4-1.4-.5-.8-.6-1.9-.1-2.7l3-6.4c1.3-2.6 4-4.3 7-4.3h43.6c3 0 5.7 1.7 7 4.3l3 6.4v.1c.3.9.1 1.9-.5 2.7s-1.5 1.3-2.4 1.3zm-50.8-12.9c-2.2 0-4.3 1.3-5.2 3.3l-3 6.4c-.1.3-.1.6 0 .9.1.1.3.4.8.4h58.2c.4 0 .7-.3.8-.4.2-.3.3-.7.2-1l-3-6.3c-.9-2-3-3.2-5.2-3.2h-43.6z" fill="#2a3c65"/></g><g><path d="m30.3 41.8v21.8h-17.5v-21.8c0-1 .8-1.9 1.9-1.9h13.7c1.1 0 1.9.8 1.9 1.9z" fill="#ffd880"/></g><g><path d="m30.3 64.5h-17.5c-.5 0-1-.4-1-1v-21.7c0-1.6 1.3-2.9 2.9-2.9h13.7c1.6 0 2.9 1.2 2.9 2.9v21.8c0 .5-.5.9-1 .9zm-16.5-1.9h15.6v-20.8c0-.6-.4-.9-.9-.9h-13.8c-.6 0-.9.5-.9.9z" fill="#2a3c65"/></g><g><path d="m21.6 64.4c-.5 0-1-.4-1-1v-23.5c0-.5.4-1 1-1s1 .4 1 1v23.6c0 .5-.5.9-1 .9z" fill="#2a3c65"/></g><g><path d="m19 53.3h-1.3c-.5 0-1-.4-1-1s.4-1 1-1h1.3c.5 0 1 .4 1 1s-.5 1-1 1z" fill="#2a3c65"/></g><g><path d="m25.5 53.3h-1.3c-.5 0-1-.4-1-1s.4-1 1-1h1.3c.5 0 1 .4 1 1s-.5 1-1 1z" fill="#2a3c65"/></g><g><path d="m55 34.9v13.7c0 1-.8 1.9-1.9 1.9h-16.2c-1 0-1.9-.9-1.9-1.9v-13.7c0-1 .9-1.9 1.9-1.9h16.1c.9 0 1.6.6 1.8 1.4.2.2.2.3.2.5z" fill="#02beff"/></g><g><g><path d="m54.9 34.4-16.1 16.2h-1.8c-1 0-1.9-.9-1.9-1.9v-7.3l8.4-8.4h9.6c.8 0 1.6.6 1.8 1.4z" fill="#27d1ff"/></g><g><path d="m55 37.6v4.6l-8.4 8.4h-4.6z" fill="#27d1ff"/></g></g><g><path d="m53.1 51.4h-16.2c-1.5 0-2.9-1.3-2.9-2.9v-13.6c0-1.5 1.3-2.9 2.9-2.9h16.1c1.6 0 3 1.3 3 2.9v13.7c0 1.6-1.3 2.8-2.9 2.8zm-16.2-17.4c-.5 0-.9.5-.9.9v13.7c0 .5.5.9.9.9h16.2c.6 0 .9-.5.9-.9v-13.7c0-.4-.4-.9-1-.9z" fill="#2a3c65"/></g><g><g><path d="m39.6 47.6c-.5 0-1-.4-1-1v-9.9c0-.5.4-1 1-1s1 .4 1 1v9.9c0 .6-.5 1-1 1z" fill="#2a3c65"/></g><g><path d="m45 47.6c-.5 0-1-.4-1-1v-9.9c0-.5.4-1 1-1s1 .4 1 1v9.9c0 .6-.5 1-1 1z" fill="#2a3c65"/></g><g><path d="m50.4 47.6c-.5 0-1-.4-1-1v-9.9c0-.5.4-1 1-1s1 .4 1 1v9.9c0 .6-.5 1-1 1z" fill="#2a3c65"/></g></g></g></svg>