<svg id="Layer_1" height="512" viewBox="0 0 66 66" width="512" xmlns="http://www.w3.org/2000/svg"><g><g><path d="m20.2 21.2h25.6v38.1h-25.6z" fill="#e3ecff"/></g><g><path d="m45.8 21.2v38.1h-4.8v-10.1c0-7.1-2.9-13.5-7.5-18.1-3.6-3.6-8.2-6.1-13.3-7v-2.9z" fill="#c7d9f9"/></g><g><path d="m48.1 21.2h-30.2c-1.4 0-2.1-1.8-.9-2.7l15.1-11.5c.5-.4 1.3-.4 1.8 0l15.1 11.5c1.1.9.5 2.7-.9 2.7z" fill="#ffd880"/></g><g><path d="m48.1 21.2h-3l-10-7.6c-3.1-2.4-7.5-2.4-10.7 0l-8 6.1c0-.4.2-.9.6-1.2l15.1-11.5c.5-.4 1.3-.4 1.8 0l15.1 11.5c1.1.9.5 2.7-.9 2.7z" fill="#fecb4d"/></g><g><path d="m38.2 48.8v10.4h-10.3v-10.4c0-2.8 2.3-5.1 5.1-5.1 1.4 0 2.7.6 3.6 1.5 1 .9 1.6 2.2 1.6 3.6z" fill="#38fcc4"/></g><g><ellipse cx="33.1" cy="32" fill="#27d1ff" rx="4.9" ry="4.9"/></g><g><path d="m2 59.3h62" fill="none"/></g><g><path d="m10.5 27.5h9.7v31.8h-13.7v-27.8c0-2.2 1.8-4 4-4z" fill="#d5a6ff"/></g><g><path d="m20.2 27.5v31.8h-3.8v-20.1c0-5.3-4.2-9.5-9.4-9.7.7-1.2 2-2 3.4-2z" fill="#cc87fe"/></g><g><path d="m11.3 33.4h4" fill="none"/></g><g><path d="m11.3 38.4h4" fill="none"/></g><g><path d="m11.3 43.4h4" fill="none"/></g><g><path d="m11.3 48.4h4" fill="none"/></g><g><path d="m11.3 53.4h4" fill="none"/></g><g><path d="m59.5 31.5v27.8h-13.7v-31.8h9.7c2.2 0 4 1.8 4 4z" fill="#d5a6ff"/></g><g><path d="m59.5 31.5v27.8h-3.4v-14.7c0-3.8-1.5-7.2-4-9.7-1.7-1.7-3.9-3-6.3-3.6v-3.8h9.7c2.2 0 4 1.8 4 4z" fill="#cc87fe"/></g><g><path d="m50.9 33.4h3.6" fill="none"/></g><g><path d="m50.9 38.4h3.6" fill="none"/></g><g><path d="m50.9 43.4h3.6" fill="none"/></g><g><path d="m50.9 48.4h3.6" fill="none"/></g><g><path d="m50.9 53.4h3.6" fill="none"/></g><g><path d="m45.8 60.3h-25.6c-.6 0-1-.4-1-1v-34.1c0-.6.4-1 1-1s1 .4 1 1v33.1h23.6v-33.1c0-.6.4-1 1-1s1 .4 1 1v34.1c0 .5-.4 1-1 1z" fill="#2a3c65"/></g><g><path d="m48.1 22.2h-30.2c-1.1 0-2-.7-2.4-1.7-.3-1 0-2.1.9-2.8l15.1-11.5c.8-.6 2.2-.7 3 0l15.1 11.5c.9.7 1.2 1.8.8 2.8-.3 1.1-1.2 1.7-2.3 1.7zm-15.1-14.5c-.1 0-.2 0-.3.1l-15.1 11.5c-.2.2-.2.4-.2.5s.1.4.5.4h30.2c.3 0 .4-.2.4-.3s.1-.4-.2-.6l-15-11.5c-.1 0-.2-.1-.3-.1z" fill="#2a3c65"/></g><g><path d="m38.2 60.2h-10.3c-.6 0-1-.4-1-1v-10.4c0-3.4 2.7-6.1 6.1-6.1 1.6 0 3.2.7 4.3 1.8 1.2 1.1 1.9 2.6 1.9 4.3v10.4c0 .5-.4 1-1 1zm-9.3-2h8.3v-9.4c0-1.1-.5-2.1-1.3-2.9s-1.9-1.2-2.9-1.2c-2.3 0-4.1 1.8-4.1 4.1z" fill="#2a3c65"/></g><g><path d="m33.1 37.9c-3.3 0-5.9-2.6-5.9-5.9s2.6-5.9 5.9-5.9 5.9 2.6 5.9 5.9-2.6 5.9-5.9 5.9zm0-9.8c-2.1 0-3.9 1.7-3.9 3.9 0 2.1 1.7 3.9 3.9 3.9s3.9-1.7 3.9-3.9c0-2.1-1.7-3.9-3.9-3.9z" fill="#2a3c65"/></g><g><path d="m64 60.3h-62c-.6 0-1-.4-1-1s.4-1 1-1h62c.6 0 1 .4 1 1s-.4 1-1 1z" fill="#2a3c65"/></g><g><path d="m16.2 60.3h-9.7c-.6 0-1-.4-1-1v-27.8c0-2.8 2.2-5 5-5h5.7c.6 0 1 .4 1 1s-.4 1-1 1h-5.7c-1.7 0-3 1.3-3 3v26.8h8.7c.6 0 1 .4 1 1s-.4 1-1 1z" fill="#2a3c65"/></g><g><path d="m15.3 34.4h-4c-.6 0-1-.4-1-1s.4-1 1-1h4c.6 0 1 .4 1 1s-.4 1-1 1z" fill="#2a3c65"/></g><g><path d="m15.3 39.4h-4c-.6 0-1-.4-1-1s.4-1 1-1h4c.6 0 1 .4 1 1s-.4 1-1 1z" fill="#2a3c65"/></g><g><path d="m15.3 44.4h-4c-.6 0-1-.4-1-1s.4-1 1-1h4c.6 0 1 .4 1 1s-.4 1-1 1z" fill="#2a3c65"/></g><g><path d="m15.3 49.4h-4c-.6 0-1-.4-1-1s.4-1 1-1h4c.6 0 1 .4 1 1s-.4 1-1 1z" fill="#2a3c65"/></g><g><path d="m15.3 54.4h-4c-.6 0-1-.4-1-1s.4-1 1-1h4c.6 0 1 .4 1 1s-.4 1-1 1z" fill="#2a3c65"/></g><g><path d="m59.5 60.3h-9.7c-.6 0-1-.4-1-1s.4-1 1-1h8.7v-26.8c0-1.7-1.3-3-3-3h-5.7c-.6 0-1-.4-1-1s.4-1 1-1h5.7c2.8 0 5 2.2 5 5v27.8c0 .5-.4 1-1 1z" fill="#2a3c65"/></g><g><path d="m54.5 34.4h-3.6c-.6 0-1-.4-1-1s.4-1 1-1h3.6c.6 0 1 .4 1 1s-.4 1-1 1z" fill="#2a3c65"/></g><g><path d="m54.5 39.4h-3.6c-.6 0-1-.4-1-1s.4-1 1-1h3.6c.6 0 1 .4 1 1s-.4 1-1 1z" fill="#2a3c65"/></g><g><path d="m54.5 44.4h-3.6c-.6 0-1-.4-1-1s.4-1 1-1h3.6c.6 0 1 .4 1 1s-.4 1-1 1z" fill="#2a3c65"/></g><g><path d="m54.5 49.4h-3.6c-.6 0-1-.4-1-1s.4-1 1-1h3.6c.6 0 1 .4 1 1s-.4 1-1 1z" fill="#2a3c65"/></g><g><path d="m54.5 54.4h-3.6c-.6 0-1-.4-1-1s.4-1 1-1h3.6c.6 0 1 .4 1 1s-.4 1-1 1z" fill="#2a3c65"/></g></g></svg>