<svg id="Layer_1" height="512" viewBox="0 0 66 66" width="512" xmlns="http://www.w3.org/2000/svg"><g><g><path d="m33 11.7v-5.1" fill="none"/></g><g><path d="m5.2 24.6h13.7v34.8h-13.7z" fill="#c7d9f9"/></g><g><path d="m14.9 33.5v5.7h-5.4v-5.7c0-1.5 1.2-2.7 2.7-2.7s2.7 1.2 2.7 2.7z" fill="#ff7daf"/></g><g><path d="m14.4 47.5v5.7h-5.3v-5.7c0-1.5 1.2-2.7 2.7-2.7 1.4-.1 2.6 1.1 2.6 2.7z" fill="#ff7daf"/></g><g><path d="m47.2 24.6h13.7v34.8h-13.7z" fill="#c7d9f9"/></g><g><path d="m18.2 14.8c.4.4.6.8.6 1.4v8.3h-13.6v-8.3c0-1.1.9-2 2-2 .5 0 1 .2 1.4.6s.6.8.6 1.4v.7c0 1.6 1.3 2.9 2.9 2.9.8 0 1.5-.3 2-.8s.8-1.2.8-2v-.7c0-1.1.9-2 2-2 .5-.1.9.1 1.3.5z" fill="#1de9b6"/></g><g><path d="m60.8 16.2v8.3h-13.6v-8.3c0-1.1.9-2 2-2 .5 0 1 .2 1.4.6s.6.8.6 1.4v.7c0 1.6 1.3 2.9 2.9 2.9.8 0 1.5-.3 2-.8s.8-1.2.8-2v-.7c0-1.1.9-2 2-2 .5 0 1 .2 1.4.6.3.3.5.8.5 1.3z" fill="#1de9b6"/></g><g><path d="m56.9 33.5v5.7h-5.4v-5.7c0-1.5 1.2-2.7 2.7-2.7s2.7 1.2 2.7 2.7z" fill="#ff7daf"/></g><g><path d="m56.5 47.5v5.7h-5.4v-5.7c0-1.5 1.2-2.7 2.7-2.7s2.7 1.1 2.7 2.7z" fill="#ff7daf"/></g><g><path d="m18.8 28.8h28.3v30.6h-28.3z" fill="#c7d9f9"/></g><g><path d="m47.2 28.8v30.6h-2.2v-.1c0-15-11.5-27.2-26.2-28.3v-2.3z" fill="#b0cdf7"/></g><g><path d="m40.4 49.5v10h-14.8v-10c0-4.1 3.3-7.4 7.4-7.4s7.4 3.2 7.4 7.4z" fill="#ffd880"/></g><g><path d="m40.4 49.5v10h-4.2v-5.8c0-4.1-3.3-7.4-7.4-7.4-.9 0-1.9.2-2.7.5 1.1-2.8 3.8-4.8 6.9-4.8 4.1 0 7.4 3.3 7.4 7.5z" fill="#fecb4d"/></g><g><path d="m43.6 23.2v5.4h-21.2v-5.4c0-5.8 4.7-10.6 10.6-10.6 5.8 0 10.6 4.7 10.6 10.6z" fill="#02beff"/></g><g><path d="m43.6 23.2v5.4h-4.3v-1.1c0-5.9-4.7-10.6-10.6-10.6-1.8 0-3.5.5-5 1.3 1.8-3.3 5.3-5.6 9.3-5.6 5.8 0 10.6 4.7 10.6 10.6z" fill="#00addb"/></g><g><path d="m26.5 33.8v2.6" fill="none"/></g><g><path d="m33 33.8v2.6" fill="none"/></g><g><path d="m39.5 33.8v2.6" fill="none"/></g><g><path d="m1.9 59.4h62.2" fill="none"/></g><g><path d="m33 12.6c-.5 0-.9-.4-.9-.9v-5.1c0-.5.4-.9.9-.9s.9.4.9.9v5.1c0 .5-.4.9-.9.9z" fill="#2a3c65"/></g><g><path d="m18.8 60.3h-13.6c-.5 0-.9-.4-.9-.9v-34.8c0-.5.4-.9.9-.9h13.7c.5 0 .9.4.9.9v34.8c-.1.5-.5.9-1 .9zm-12.8-1.8h12v-33.1h-12z" fill="#2a3c65"/></g><g><path d="m14.9 40.1h-5.4c-.5 0-.9-.4-.9-.9v-5.7c0-2 1.6-3.6 3.6-3.6s3.6 1.6 3.6 3.6v5.7c0 .5-.4.9-.9.9zm-4.5-1.7h3.7v-4.9c0-1-.8-1.8-1.8-1.8s-1.8.8-1.8 1.8v4.9z" fill="#2a3c65"/></g><g><path d="m14.4 54h-5.3c-.5 0-.9-.4-.9-.9v-5.7c0-2 1.6-3.6 3.6-3.6 1.9 0 3.5 1.6 3.5 3.6v5.7c0 .5-.4.9-.9.9zm-4.4-1.7h3.6v-4.9c0-1-.8-1.8-1.7-1.8-1 0-1.8.8-1.8 1.8v4.9z" fill="#2a3c65"/></g><g><path d="m60.8 60.3h-13.6c-.5 0-.9-.4-.9-.9v-34.8c0-.5.4-.9.9-.9h13.7c.5 0 .9.4.9.9v34.8c-.1.5-.5.9-1 .9zm-12.8-1.8h12v-33.1h-12z" fill="#2a3c65"/></g><g><path d="m18.8 25.4h-13.6c-.5 0-.9-.4-.9-.9v-8.3c0-1.6 1.3-2.9 2.9-2.9.7 0 1.5.3 2 .9.6.6.9 1.2.9 2v.7c0 1.1.9 2 2 2 .5 0 1-.2 1.4-.5.4-.4.5-.8.5-1.4v-.7c0-1.6 1.2-2.8 2.8-2.9.7-.1 1.4.1 2 .8.6.6.9 1.2.9 2v8.3c0 .6-.4.9-.9.9zm-12.8-1.7h12v-7.5c0-.3-.1-.5-.3-.8-.3-.3-.4-.3-.4-.3-.1 0-.2 0-.3 0-.6 0-1.1.5-1.1 1.1v.8c0 1-.4 1.9-1.1 2.6s-1.6 1.1-2.6 1.1c-2.1 0-3.8-1.7-3.8-3.8v-.7c0-.3-.1-.5-.3-.8-.2-.2-.5-.3-.8-.3-.6 0-1.1.5-1.1 1.1v7.5z" fill="#2a3c65"/></g><g><path d="m60.8 25.4h-13.6c-.5 0-.9-.4-.9-.9v-8.3c0-1.6 1.3-2.9 2.9-2.9.7 0 1.5.3 2 .9.6.6.9 1.2.9 2v.7c0 1.1.9 2 2 2 .5 0 1-.2 1.4-.5.4-.4.5-.9.5-1.4v-.7c0-1.6 1.3-2.9 2.9-2.9.7 0 1.5.3 2 .9.5.5.8 1.2.8 1.9v8.3c0 .6-.4.9-.9.9zm-12.8-1.7h12v-7.5c0-.3-.1-.6-.2-.7-.2-.2-.5-.3-.8-.3-.6 0-1.1.5-1.1 1.1v.7c0 1-.4 1.9-1.1 2.6s-1.6 1.1-2.6 1.1c-2.1 0-3.8-1.7-3.8-3.8v-.7c0-.3-.1-.5-.3-.8-.2-.2-.5-.3-.8-.3-.6 0-1.1.5-1.1 1.1v7.5z" fill="#2a3c65"/></g><g><path d="m56.9 40.1h-5.4c-.5 0-.9-.4-.9-.9v-5.7c0-2 1.6-3.6 3.6-3.6s3.6 1.6 3.6 3.6v5.7c0 .5-.4.9-.9.9zm-4.6-1.7h3.7v-4.9c0-1-.8-1.8-1.8-1.8s-1.8.8-1.8 1.8v4.9z" fill="#2a3c65"/></g><g><path d="m56.5 54h-5.4c-.5 0-.9-.4-.9-.9v-5.7c0-2 1.6-3.6 3.6-3.6s3.6 1.6 3.6 3.6v5.7c0 .5-.4.9-.9.9zm-4.6-1.7h3.7v-4.9c0-1-.8-1.8-1.8-1.8s-1.8.8-1.8 1.8v4.9z" fill="#2a3c65"/></g><g><path d="m43.7 60.3h-21.4c-.5 0-.9-.4-.9-.9s.4-.9.9-.9h21.5c.5 0 .9.4.9.9s-.5.9-1 .9z" fill="#2a3c65"/></g><g><path d="m43.7 29.7h-21.4c-.5 0-.9-.4-.9-.9s.4-.9.9-.9h21.5c.5 0 .9.4.9.9s-.5.9-1 .9z" fill="#2a3c65"/></g><g><path d="m40.4 60.4h-14.8c-.5 0-.9-.4-.9-.9v-10c0-4.6 3.7-8.3 8.3-8.3s8.3 3.7 8.3 8.3v10c0 .5-.4.9-.9.9zm-14-1.8h13.1v-9.2c0-3.6-2.9-6.6-6.6-6.6-3.6 0-6.6 2.9-6.6 6.6v9.2z" fill="#2a3c65"/></g><g><path d="m43.6 26.2c-.5 0-.9-.4-.9-.9v-2.1c0-5.5-4.3-9.8-9.8-9.8-5.4 0-9.8 4.4-9.8 9.8v2.1c0 .5-.4.9-.9.9s-.9-.4-.9-.9v-2.1c0-6.3 5.2-11.5 11.5-11.5 6.5 0 11.5 5.1 11.5 11.5v2.1c.2.6-.2.9-.7.9z" fill="#2a3c65"/></g><g><path d="m26.5 37.3c-.5 0-.9-.4-.9-.9v-2.6c0-.5.4-.9.9-.9s.9.4.9.9v2.6c-.1.5-.5.9-.9.9z" fill="#2a3c65"/></g><g><path d="m33 37.3c-.5 0-.9-.4-.9-.9v-2.6c0-.5.4-.9.9-.9s.9.4.9.9v2.6c0 .5-.4.9-.9.9z" fill="#2a3c65"/></g><g><path d="m39.5 37.3c-.5 0-.9-.4-.9-.9v-2.6c0-.5.4-.9.9-.9s.9.4.9.9v2.6c0 .5-.4.9-.9.9z" fill="#2a3c65"/></g><g><path d="m64.1 60.3h-62.2c-.5 0-.9-.4-.9-.9s.4-.9.9-.9h62.3c.5 0 .9.4.9.9s-.5.9-1 .9z" fill="#2a3c65"/></g></g></svg>