<svg id="Layer_1" height="512" viewBox="0 0 66 66" width="512" xmlns="http://www.w3.org/2000/svg"><g><g><path d="m11.8 26.4h42.6v32.8h-41.9z" fill="#38fcc4"/></g><g><path d="m54.4 26.4v32.8h-4.6c-2.1-16.1-15.8-28.5-32.5-28.5h-5.4l-.1-4.3z" fill="#1de9b6"/></g><g><path d="m54.4 60.2h-41.9c-.5 0-1-.4-1-1l-.7-32.8c0-.3.1-.5.3-.7s.4-.3.7-.3h42.6c.6 0 1 .4 1 1v32.8c0 .5-.4 1-1 1zm-40.9-2h39.9v-30.8h-40.6z" fill="#2a3c65"/></g><g><path d="m18.8 26.5v3.5c0 .9-.8 1.7-1.7 1.7h-7.7c-.9 0-1.7-.8-1.7-1.7v-3.5z" fill="#ffd880"/></g><g><path d="m18.8 55.7v3.5h-11v-3.5c0-.9.8-1.7 1.7-1.7h7.6c.9 0 1.7.7 1.7 1.7z" fill="#ffd880"/></g><g><path d="m58.5 26.5v3.5c0 .9-.8 1.7-1.7 1.7h-7.6c-.9 0-1.7-.8-1.7-1.7v-3.5z" fill="#ffd880"/></g><g><path d="m58.5 55.7v3.5h-11v-3.5c0-.9.8-1.7 1.7-1.7h7.6c.9 0 1.7.7 1.7 1.7z" fill="#ffd880"/></g><g><path d="m17.1 32.7h-7.7c-1.5 0-2.7-1.2-2.7-2.7v-.5c0-.6.4-1 1-1s1 .4 1 1v.5c0 .3.4.7.7.7h7.7c.3 0 .7-.4.7-.7v-.5c0-.6.4-1 1-1s1 .4 1 1v.5c0 1.5-1.2 2.7-2.7 2.7z" fill="#2a3c65"/></g><g><path d="m18.8 57.2c-.6 0-1-.4-1-1v-.5c0-.3-.4-.7-.7-.7h-7.7c-.3 0-.7.4-.7.7v.5c0 .6-.4 1-1 1s-1-.4-1-1v-.5c0-1.5 1.2-2.7 2.7-2.7h7.7c1.5 0 2.7 1.2 2.7 2.7v.5c0 .5-.4 1-1 1z" fill="#2a3c65"/></g><g><path d="m10.4 31.7h5.7v22.2h-5.7z" fill="#e3ecff"/></g><g><path d="m50.1 31.7h5.7v22.2h-5.7z" fill="#e3ecff"/></g><g><path d="m16.1 54.9h-5.7c-.6 0-1-.4-1-1v-22.2c0-.6.4-1 1-1h5.7c.6 0 1 .4 1 1v22.2c0 .5-.4 1-1 1zm-4.7-2h3.7v-20.2h-3.7z" fill="#2a3c65"/></g><g><path d="m56.8 32.7h-7.6c-1.5 0-2.7-1.2-2.7-2.7v-.5c0-.6.4-1 1-1s1 .4 1 1v.5c0 .3.4.7.7.7h7.6c.3 0 .7-.4.7-.7v-.5c0-.6.4-1 1-1s1 .4 1 1v.5c0 1.5-1.2 2.7-2.7 2.7z" fill="#2a3c65"/></g><g><path d="m58.5 57.2c-.6 0-1-.4-1-1v-.5c0-.3-.4-.7-.7-.7h-7.6c-.3 0-.7.4-.7.7v.5c0 .6-.4 1-1 1s-1-.4-1-1v-.5c0-1.5 1.2-2.7 2.7-2.7h7.6c1.5 0 2.7 1.2 2.7 2.7v.5c0 .5-.4 1-1 1z" fill="#2a3c65"/></g><g><path d="m55.8 54.9h-5.7c-.6 0-1-.4-1-1v-22.2c0-.6.4-1 1-1h5.7c.6 0 1 .4 1 1v22.2c0 .5-.4 1-1 1zm-4.7-2h3.7v-20.2h-3.7z" fill="#2a3c65"/></g><g><path d="m41.5 47.2v12h-17v-12c0-4.7 3.8-8.5 8.5-8.5 2.3 0 4.4 1 6 2.5 1.5 1.5 2.5 3.7 2.5 6z" fill="#e3ecff"/></g><g><path d="m41.5 57.2c-.6 0-1-.4-1-1v-9c0-1.9-.8-3.8-2.2-5.3-1.4-1.4-3.3-2.2-5.3-2.2-4.1 0-7.5 3.4-7.5 7.5v9c0 .6-.4 1-1 1s-1-.4-1-1v-9c0-5.2 4.3-9.5 9.5-9.5 2.5 0 4.9 1 6.7 2.8 1.8 1.9 2.8 4.3 2.8 6.7v9c0 .5-.4 1-1 1z" fill="#2a3c65"/></g><g><path d="m61.9 26.5h-57.8c-2 0-2.8-2.6-1.2-3.7l29-20.1c.7-.5 1.6-.5 2.3 0l29 20.1c1.6 1.1.8 3.7-1.3 3.7z" fill="#e3ecff"/></g><g><path d="m61.9 26.5h-5l-27.5-19.1c-.7-.5-1.6-.5-2.3 0l-25.1 17.4c-.1-.7.1-1.5.8-2l29-20.1c.7-.5 1.6-.5 2.3 0l28.9 20.1c1.8 1.1 1 3.7-1.1 3.7z" fill="#c7d9f9"/></g><g><path d="m61.9 27.5h-57.8c-1.4 0-2.5-.8-2.9-2.2-.4-1.3 0-2.6 1.1-3.4l29-20.1c1-.7 2.4-.7 3.5 0l29 20.1c1.1.7 1.5 2.1 1.1 3.3-.4 1.4-1.6 2.3-3 2.3zm-28.9-24.1c-.2 0-.4.1-.6.2l-29 20.1c-.5.4-.4 1-.4 1.1.1.2.3.7 1 .7h57.8c.8 0 1-.6 1.1-.8s.2-.7-.4-1.1l-29-20.1c-.1-.1-.2-.1-.5-.1z" fill="#2a3c65"/></g><g><ellipse cx="33" cy="16.8" fill="#ff7daf" rx="5.1" ry="5.1"/></g><g><circle cx="33" cy="16.8" fill="#ff5892" r="2.4"/></g><g><path d="m33 22.9c-3.4 0-6.1-2.7-6.1-6.1s2.7-6.1 6.1-6.1 6.1 2.7 6.1 6.1-2.7 6.1-6.1 6.1zm0-10.2c-2.3 0-4.1 1.8-4.1 4.1s1.8 4.1 4.1 4.1 4.1-1.8 4.1-4.1-1.8-4.1-4.1-4.1z" fill="#2a3c65"/></g><g><path d="m3.2 61.4c0 1.2 1 2.3 2.3 2.3h55.2c1.3 0 2.3-1 2.3-2.3 0-1.2-1-2.3-2.3-2.3h-55.2c-1.3.1-2.3 1.1-2.3 2.3z" fill="#c7d9f9"/></g><g><path d="m60.7 64.7h-55.2c-1.8 0-3.3-1.5-3.3-3.3 0-1.7 1.4-3.2 3.2-3.3h55.3c1.8 0 3.3 1.5 3.3 3.3s-1.4 3.3-3.3 3.3zm-55.2-4.6c-.7.1-1.3.6-1.3 1.3 0 .6.5 1.3 1.3 1.3h55.2c.8 0 1.3-.5 1.3-1.3 0-.6-.5-1.3-1.3-1.3z" fill="#2a3c65"/></g></g></svg>