<svg id="Layer_1" height="512" viewBox="0 0 66 66" width="512" xmlns="http://www.w3.org/2000/svg"><g><g><path d="m38 10.9v41.1h-32.3v-41.1c0-1.9 1.5-3.4 3.4-3.4h25.4c1.9 0 3.5 1.5 3.5 3.4z" fill="#e3ecff"/></g><g><path d="m38 10.9v41.1h-2.7v-13c0-8-3.2-15.2-8.4-20.4s-12.4-8.4-20.4-8.4c-.2 0-.5 0-.7.1.3-1.6 1.7-2.7 3.3-2.7h25.4c1.9-.2 3.5 1.4 3.5 3.3z" fill="#c7d9f9"/></g><g><path d="m38 16.3v47.5h22.3v-44c0-1.9-1.5-3.4-3.4-3.4z" fill="#c7d9f9"/></g><g><path d="m60.3 19.7v44.1h-5.1v-23.3c0-10.6-7.4-19.4-17.2-21.7v-2.4h18.9c1.9-.1 3.4 1.5 3.4 3.3z" fill="#b0cdf7"/></g><g><path d="m38 53h-32.3c-.6 0-1-.4-1-1v-41.1c0-2.5 1.9-4.4 4.4-4.4h25.4c2.5 0 4.5 2 4.5 4.4v41.1c0 .5-.4 1-1 1zm-31.3-2h30.3v-40.1c0-1.3-1.1-2.4-2.5-2.4h-25.4c-1.3 0-2.4 1.1-2.4 2.4z" fill="#2a3c65"/></g><g><path d="m5.7 52h32.2v11.8h-32.2z" fill="#38fcc4"/></g><g><path d="m38 60.8c-.6 0-1-.4-1-1v-6.8h-30.3v6.8c0 .6-.4 1-1 1s-1-.4-1-1v-7.8c0-.6.4-1 1-1h32.3c.6 0 1 .4 1 1v7.8c0 .5-.4 1-1 1z" fill="#2a3c65"/></g><g><path d="m38 60.8c-.6 0-1-.4-1-1v-3.8c0-.6.4-1 1-1s1 .4 1 1v3.8c0 .5-.4 1-1 1z" fill="#2a3c65"/></g><g><path d="m60.3 60.8c-.6 0-1-.4-1-1v-40.1c0-1.3-1.1-2.4-2.4-2.4h-14.9c-.6 0-1-.4-1-1s.4-1 1-1h14.9c2.5 0 4.4 1.9 4.4 4.4v40.1c0 .5-.4 1-1 1z" fill="#2a3c65"/></g><g><path d="m21.8 3.9v3.5h-10.1v-3.5c0-.9.8-1.7 1.7-1.7h6.8c.9 0 1.6.8 1.6 1.7z" fill="#ff7daf"/></g><g><path d="m54.2 12.7v3.5h-10.2v-3.5c0-.9.8-1.7 1.7-1.7h6.7c1 0 1.8.8 1.8 1.7z" fill="#ff7daf"/></g><g><path d="m21.8 8.4h-10.1c-.6 0-1-.4-1-1v-3.5c0-1.5 1.2-2.7 2.7-2.7h6.8c1.4 0 2.6 1.2 2.6 2.7v3.5c0 .6-.4 1-1 1zm-9.1-2h8.1v-2.5c0-.4-.3-.7-.6-.7h-6.8c-.3 0-.7.4-.7.7z" fill="#2a3c65"/></g><g><path d="m54.2 17.2h-10.2c-.6 0-1-.4-1-1v-3.5c0-1.5 1.2-2.7 2.7-2.7h6.7c1.5 0 2.8 1.2 2.8 2.7v3.5c0 .6-.4 1-1 1zm-9.2-2h8.2v-2.5c0-.3-.3-.7-.8-.7h-6.7c-.3 0-.7.4-.7.7z" fill="#2a3c65"/></g><g><path d="m14.7 52h3.6v11.8h-3.6z" fill="#fecb4d"/></g><g><path d="m25.4 52h3.6v11.8h-3.6z" fill="#fecb4d"/></g><g><path d="m18.3 60.8c-.6 0-1-.4-1-1v-6.8h-1.6v6.8c0 .6-.4 1-1 1s-1-.4-1-1v-7.8c0-.6.4-1 1-1h3.6c.6 0 1 .4 1 1v7.8c0 .5-.4 1-1 1z" fill="#2a3c65"/></g><g><path d="m29 60.8c-.6 0-1-.4-1-1v-6.8h-1.6v6.8c0 .6-.4 1-1 1s-1-.4-1-1v-7.8c0-.6.4-1 1-1h3.6c.6 0 1 .4 1 1v7.8c0 .5-.4 1-1 1z" fill="#2a3c65"/></g><g><g><path d="m15.5 13v3.5c0 .5-.4.8-.8.8h-3.5c-.5 0-.8-.4-.8-.8v-3.5c0-.5.4-.8.8-.8h3.5c.4-.1.8.3.8.8z" fill="#27d1ff"/></g><g><path d="m24.4 13v3.5c0 .5-.4.8-.8.8h-3.5c-.5 0-.8-.4-.8-.8v-3.5c0-.5.4-.8.8-.8h3.5c.4-.1.8.3.8.8z" fill="#27d1ff"/></g><g><path d="m33.3 13v3.5c0 .5-.4.8-.8.8h-3.5c-.5 0-.8-.4-.8-.8v-3.5c0-.5.4-.8.8-.8h3.5c.4-.1.8.3.8.8z" fill="#27d1ff"/></g></g><g><g><path d="m15.5 23v3.5c0 .5-.4.8-.8.8h-3.5c-.5 0-.8-.4-.8-.8v-3.5c0-.5.4-.8.8-.8h3.5c.4-.1.8.3.8.8z" fill="#27d1ff"/></g><g><path d="m24.4 23v3.5c0 .5-.4.8-.8.8h-3.5c-.5 0-.8-.4-.8-.8v-3.5c0-.5.4-.8.8-.8h3.5c.4-.1.8.3.8.8z" fill="#27d1ff"/></g><g><path d="m33.3 23v3.5c0 .5-.4.8-.8.8h-3.5c-.5 0-.8-.4-.8-.8v-3.5c0-.5.4-.8.8-.8h3.5c.4-.1.8.3.8.8z" fill="#27d1ff"/></g></g><g><g><path d="m15.5 33v3.5c0 .5-.4.8-.8.8h-3.5c-.5 0-.8-.4-.8-.8v-3.5c0-.5.4-.8.8-.8h3.5c.4 0 .8.3.8.8z" fill="#27d1ff"/></g><g><path d="m24.4 33v3.5c0 .5-.4.8-.8.8h-3.5c-.5 0-.8-.4-.8-.8v-3.5c0-.5.4-.8.8-.8h3.5c.4 0 .8.3.8.8z" fill="#27d1ff"/></g><g><path d="m33.3 33v3.5c0 .5-.4.8-.8.8h-3.5c-.5 0-.8-.4-.8-.8v-3.5c0-.5.4-.8.8-.8h3.5c.4 0 .8.3.8.8z" fill="#27d1ff"/></g></g><g><g><path d="m15.5 43v3.5c0 .5-.4.8-.8.8h-3.5c-.5 0-.8-.4-.8-.8v-3.5c0-.5.4-.8.8-.8h3.5c.4 0 .8.3.8.8z" fill="#27d1ff"/></g><g><path d="m24.4 43v3.5c0 .5-.4.8-.8.8h-3.5c-.5 0-.8-.4-.8-.8v-3.5c0-.5.4-.8.8-.8h3.5c.4 0 .8.3.8.8z" fill="#27d1ff"/></g><g><path d="m33.3 43v3.5c0 .5-.4.8-.8.8h-3.5c-.5 0-.8-.4-.8-.8v-3.5c0-.5.4-.8.8-.8h3.5c.4 0 .8.3.8.8z" fill="#27d1ff"/></g></g><g><g><path d="m47.2 23.3v3.5c0 .5-.4.8-.8.8h-3.5c-.5 0-.8-.4-.8-.8v-3.5c0-.5.4-.8.8-.8h3.5c.5 0 .8.4.8.8z" fill="#27d1ff"/></g><g><path d="m56.1 23.3v3.5c0 .5-.4.8-.8.8h-3.5c-.5 0-.8-.4-.8-.8v-3.5c0-.5.4-.8.8-.8h3.5c.5 0 .8.4.8.8z" fill="#27d1ff"/></g></g><g><g><path d="m47.2 33.3v3.5c0 .5-.4.8-.8.8h-3.5c-.5 0-.8-.4-.8-.8v-3.5c0-.5.4-.8.8-.8h3.5c.5 0 .8.4.8.8z" fill="#27d1ff"/></g><g><path d="m56.1 33.3v3.5c0 .5-.4.8-.8.8h-3.5c-.5 0-.8-.4-.8-.8v-3.5c0-.5.4-.8.8-.8h3.5c.5 0 .8.4.8.8z" fill="#27d1ff"/></g></g><g><g><path d="m47.2 43.3v3.5c0 .5-.4.8-.8.8h-3.5c-.5 0-.8-.4-.8-.8v-3.5c0-.5.4-.8.8-.8h3.5c.5 0 .8.4.8.8z" fill="#27d1ff"/></g><g><path d="m56.1 43.3v3.5c0 .5-.4.8-.8.8h-3.5c-.5 0-.8-.4-.8-.8v-3.5c0-.5.4-.8.8-.8h3.5c.5 0 .8.4.8.8z" fill="#27d1ff"/></g></g><g><g><path d="m47.2 53.3v3.5c0 .5-.4.8-.8.8h-3.5c-.5 0-.8-.4-.8-.8v-3.5c0-.5.4-.8.8-.8h3.5c.5 0 .8.4.8.8z" fill="#27d1ff"/></g><g><path d="m56.1 53.3v3.5c0 .5-.4.8-.8.8h-3.5c-.5 0-.8-.4-.8-.8v-3.5c0-.5.4-.8.8-.8h3.5c.5 0 .8.4.8.8z" fill="#27d1ff"/></g></g><g><g><path d="m14.7 18.3h-3.5c-1 0-1.8-.8-1.8-1.8v-3.5c0-1 .8-1.8 1.8-1.8h3.4c1-.1 1.9.7 1.9 1.8v3.5c0 1-.8 1.8-1.8 1.8zm-3.3-2h3.1v-3.1h-3.1z" fill="#2a3c65"/></g><g><path d="m23.6 18.3h-3.5c-1 0-1.8-.8-1.8-1.8v-3.5c0-1 .8-1.8 1.8-1.8h3.4c1-.1 1.9.7 1.9 1.8v3.5c0 1-.8 1.8-1.8 1.8zm-3.3-2h3.1v-3.1h-3.1z" fill="#2a3c65"/></g><g><path d="m32.5 18.3h-3.5c-1 0-1.8-.8-1.8-1.8v-3.5c0-1 .8-1.8 1.8-1.8h3.4c1-.1 1.9.7 1.9 1.8v3.5c0 1-.8 1.8-1.8 1.8zm-3.3-2h3.1v-3.1h-3.1z" fill="#2a3c65"/></g></g><g><g><path d="m14.7 28.3h-3.5c-1 0-1.8-.8-1.8-1.8v-3.5c0-1 .8-1.8 1.8-1.8h3.4c1-.1 1.9.7 1.9 1.8v3.5c0 1-.8 1.8-1.8 1.8zm-3.3-2h3.1v-3.1h-3.1z" fill="#2a3c65"/></g><g><path d="m23.6 28.3h-3.5c-1 0-1.8-.8-1.8-1.8v-3.5c0-1 .8-1.8 1.8-1.8h3.4c1-.1 1.9.7 1.9 1.8v3.5c0 1-.8 1.8-1.8 1.8zm-3.3-2h3.1v-3.1h-3.1z" fill="#2a3c65"/></g><g><path d="m32.5 28.3h-3.5c-1 0-1.8-.8-1.8-1.8v-3.5c0-1 .8-1.8 1.8-1.8h3.4c1-.1 1.9.7 1.9 1.8v3.5c0 1-.8 1.8-1.8 1.8zm-3.3-2h3.1v-3.1h-3.1z" fill="#2a3c65"/></g></g><g><g><path d="m14.7 38.3h-3.5c-1 0-1.8-.8-1.8-1.8v-3.5c0-1 .8-1.8 1.8-1.8h3.5c1 0 1.8.8 1.8 1.8v3.5c0 1-.8 1.8-1.8 1.8zm-3.3-2h3.1v-3.1h-3.1z" fill="#2a3c65"/></g><g><path d="m23.6 38.3h-3.5c-1 0-1.8-.8-1.8-1.8v-3.5c0-1 .8-1.8 1.8-1.8h3.5c1 0 1.8.8 1.8 1.8v3.5c0 1-.8 1.8-1.8 1.8zm-3.3-2h3.1v-3.1h-3.1z" fill="#2a3c65"/></g><g><path d="m32.5 38.3h-3.5c-1 0-1.8-.8-1.8-1.8v-3.5c0-1 .8-1.8 1.8-1.8h3.5c1 0 1.8.8 1.8 1.8v3.5c0 1-.8 1.8-1.8 1.8zm-3.3-2h3.1v-3.1h-3.1z" fill="#2a3c65"/></g></g><g><g><path d="m14.7 48.3h-3.5c-1 0-1.8-.8-1.8-1.8v-3.5c0-1 .8-1.8 1.8-1.8h3.5c1 0 1.8.8 1.8 1.8v3.5c0 1-.8 1.8-1.8 1.8zm-3.3-2h3.1v-3.1h-3.1z" fill="#2a3c65"/></g><g><path d="m23.6 48.3h-3.5c-1 0-1.8-.8-1.8-1.8v-3.5c0-1 .8-1.8 1.8-1.8h3.5c1 0 1.8.8 1.8 1.8v3.5c0 1-.8 1.8-1.8 1.8zm-3.3-2h3.1v-3.1h-3.1z" fill="#2a3c65"/></g><g><path d="m32.5 48.3h-3.5c-1 0-1.8-.8-1.8-1.8v-3.5c0-1 .8-1.8 1.8-1.8h3.5c1 0 1.8.8 1.8 1.8v3.5c0 1-.8 1.8-1.8 1.8zm-3.3-2h3.1v-3.1h-3.1z" fill="#2a3c65"/></g></g><g><g><path d="m46.4 28.6h-3.5c-1 0-1.8-.8-1.8-1.8v-3.5c0-1 .8-1.8 1.8-1.8h3.5c1 0 1.8.8 1.8 1.8v3.5c0 1-.8 1.8-1.8 1.8zm-3.3-2h3.1v-3.1h-3.1z" fill="#2a3c65"/></g><g><path d="m55.3 28.6h-3.5c-1 0-1.8-.8-1.8-1.8v-3.5c0-1 .8-1.8 1.8-1.8h3.5c1 0 1.8.8 1.8 1.8v3.5c0 1-.8 1.8-1.8 1.8zm-3.3-2h3.1v-3.1h-3.1z" fill="#2a3c65"/></g></g><g><g><path d="m46.4 38.6h-3.5c-1 0-1.8-.8-1.8-1.8v-3.5c0-1 .8-1.8 1.8-1.8h3.5c1 0 1.8.8 1.8 1.8v3.5c0 1-.8 1.8-1.8 1.8zm-3.3-2h3.1v-3.1h-3.1z" fill="#2a3c65"/></g><g><path d="m55.3 38.6h-3.5c-1 0-1.8-.8-1.8-1.8v-3.5c0-1 .8-1.8 1.8-1.8h3.5c1 0 1.8.8 1.8 1.8v3.5c0 1-.8 1.8-1.8 1.8zm-3.3-2h3.1v-3.1h-3.1z" fill="#2a3c65"/></g></g><g><g><path d="m46.4 48.6h-3.5c-1 0-1.8-.8-1.8-1.8v-3.5c0-1 .8-1.8 1.8-1.8h3.5c1 0 1.8.8 1.8 1.8v3.5c0 1-.8 1.8-1.8 1.8zm-3.3-2h3.1v-3.1h-3.1z" fill="#2a3c65"/></g><g><path d="m55.3 48.6h-3.5c-1 0-1.8-.8-1.8-1.8v-3.5c0-1 .8-1.8 1.8-1.8h3.5c1 0 1.8.8 1.8 1.8v3.5c0 1-.8 1.8-1.8 1.8zm-3.3-2h3.1v-3.1h-3.1z" fill="#2a3c65"/></g></g><g><g><path d="m46.4 58.6h-3.5c-1 0-1.8-.8-1.8-1.8v-3.5c0-1 .8-1.8 1.8-1.8h3.5c1 0 1.8.8 1.8 1.8v3.5c0 1-.8 1.8-1.8 1.8zm-3.3-2h3.1v-3.1h-3.1z" fill="#2a3c65"/></g><g><path d="m55.3 58.6h-3.5c-1 0-1.8-.8-1.8-1.8v-3.5c0-1 .8-1.8 1.8-1.8h3.5c1 0 1.8.8 1.8 1.8v3.5c0 1-.8 1.8-1.8 1.8zm-3.3-2h3.1v-3.1h-3.1z" fill="#2a3c65"/></g></g><g><path d="m64 64.8h-62c-.6 0-1-.4-1-1s.4-1 1-1h62c.6 0 1 .4 1 1s-.4 1-1 1z" fill="#2a3c65"/></g></g></svg>