<svg id="Layer_1" height="512" viewBox="0 0 66 66" width="512" xmlns="http://www.w3.org/2000/svg"><g><g><path d="m6.2 16.1h53.6v43h-53.6z" fill="#c7d9f9"/></g><g><path d="m59.8 59.9h-53.6c-.5 0-.9-.4-.9-.9v-31c0-.5.4-.9.9-.9s.9.4.9.9v30h51.7v-30c0-.5.4-.9.9-.9s.9.4.9.9v31c.1.5-.3.9-.8.9z" fill="#2a3c65"/></g><g><path d="m53.8 16.1v3.2c0 1.4-.6 2.7-1.5 3.7-.9.9-2.2 1.5-3.7 1.5-2.9 0-5.2-2.3-5.2-5.2v-3.2l-2.4-9h7.9z" fill="#e3ecff"/></g><g><path d="m25.1 7h7.9v12.2c0 1.4-.6 2.7-1.5 3.7s-2.2 1.5-3.7 1.5c-2.9 0-5.2-2.3-5.2-5.2v-3.2z" fill="#e3ecff"/></g><g><path d="m12.3 7h4.8l-4.9 9v3.2c0 1.4-.6 2.7-1.5 3.7-.9.9-2.2 1.5-3.6 1.5s-2.7-.5-3.6-1.4c-1-1-1.6-2.3-1.6-3.8v-3.2l5.3-6.6c1.3-1.5 3.1-2.4 5.1-2.4z" fill="#e3ecff"/></g><g><path d="m7 25.4c-1.6 0-3.1-.6-4.3-1.8-1.1-1.3-1.7-2.8-1.7-4.4v-3.2c0-.2.1-.5.3-.6.2-.2.4-.2.6-.3l10.3.1c.5 0 .9.4.9.9v3.2c0 1.5-.6 3.1-1.7 4.3-1.2 1.2-2.7 1.8-4.4 1.8zm-4.2-8.5v2.3c0 1.5.7 2.6 1.3 3.2.8.8 1.8 1.2 2.9 1.2 1.2 0 2.3-.4 3.1-1.2.8-.9 1.2-2 1.2-3.1v-2.3z" fill="#2a3c65"/></g><g><path d="m64.1 16.1v3.2c0 1.4-.6 2.7-1.5 3.7 0 0 0 0-.1 0-.9.9-2.2 1.5-3.6 1.5-2.8 0-5.2-2.3-5.2-5.2v-3.2l-4.9-9h4.8c2 0 3.8.9 5 2.4z" fill="#1de9b6"/></g><g><path d="m40.9 7 2.4 9v3.2c0 1.4-.6 2.7-1.5 3.7-.9.9-2.2 1.5-3.7 1.5-2.9 0-5.2-2.3-5.2-5.2v-12.2z" fill="#1de9b6"/></g><g><path d="m17.2 7h7.9l-2.4 9v3.2c0 1.4-.6 2.7-1.5 3.7s-2.2 1.5-3.7 1.5c-2.8 0-5.2-2.3-5.2-5.2v-3.2z" fill="#1de9b6"/></g><g><path d="m17.5 25.4c-3.4 0-6.1-2.7-6.1-6.1v-3.2c0-.5.4-.9.9-.9h10.4c.5 0 .9.4.9.9v3.2c0 3.4-2.7 6.1-6.1 6.1zm-4.4-8.4v2.3c0 2.4 1.9 4.3 4.3 4.3s4.3-1.9 4.3-4.3v-2.3z" fill="#2a3c65"/></g><g><path d="m27.9 25.4c-3.4 0-6.1-2.7-6.1-6.1v-3.2c0-.5.4-.9.9-.9h10.4c.5 0 .9.4.9.9v3.2c0 3.4-2.7 6.1-6.1 6.1zm-4.3-8.4v2.3c0 2.4 1.9 4.3 4.3 4.3s4.3-1.9 4.3-4.3v-2.3z" fill="#2a3c65"/></g><g><path d="m38.2 25.4c-3.4 0-6.1-2.7-6.1-6.1v-3.2c0-.5.4-.9.9-.9h10.4c.5 0 .9.4.9.9v3.2c0 3.4-2.7 6.1-6.1 6.1zm-4.3-8.4v2.3c0 2.4 1.9 4.3 4.3 4.3s4.3-1.9 4.3-4.3v-2.3z" fill="#2a3c65"/></g><g><path d="m48.5 25.4c-3.4 0-6.1-2.7-6.1-6.1v-3.2c0-.5.4-.9.9-.9h10.4c.5 0 .9.4.9.9v3.2c.1 3.4-2.6 6.1-6.1 6.1zm-4.3-8.4v2.3c0 2.4 1.9 4.3 4.3 4.3s4.3-1.9 4.3-4.3v-2.3z" fill="#2a3c65"/></g><g><path d="m59 25.4c-3.4 0-6.1-2.7-6.1-6.1v-3.2c0-.5.4-.9.9-.9h10.3c.5 0 .9.4.9.9v3.2c0 1.5-.6 3.1-1.7 4.3-1.2 1.1-2.7 1.8-4.3 1.8zm-4.3-8.4v2.3c0 2.4 1.9 4.3 4.3 4.3 1.1 0 2.2-.5 3-1.2.8-.9 1.2-2 1.2-3.1v-2.3z" fill="#2a3c65"/></g><g><path d="m12.2 17h-10.3c-.4 0-.7-.2-.8-.5s-.1-.7.1-1l5.4-6.6c1.3-1.8 3.4-2.7 5.7-2.7h4.8c.3 0 .6.2.8.4.2.3.2.6 0 .9l-4.9 9c-.1.3-.4.5-.8.5zm-8.4-1.8h7.9l3.9-7.2h-3.3c-1.7 0-3.3.7-4.3 2z" fill="#2a3c65"/></g><g><path d="m22.7 17h-10.5c-.3 0-.6-.2-.8-.4-.2-.3-.2-.6 0-.9l4.9-9c.2-.3.5-.5.8-.5h7.9c.3 0 .5.1.7.4.3.1.3.4.3.7l-2.4 9c-.2.4-.5.7-.9.7zm-8.9-1.8h8.2l1.9-7.2h-6.2z" fill="#2a3c65"/></g><g><path d="m33 17h-10.3c-.3 0-.5-.1-.7-.4-.2-.2-.2-.5-.2-.8l2.4-9c.1-.4.5-.7.9-.7h7.9c.5 0 .9.4.9.9v9c0 .6-.4 1-.9 1zm-9.2-1.8h8.2v-7.2h-6.3z" fill="#2a3c65"/></g><g><path d="m43.3 17h-10.3c-.5 0-.9-.4-.9-.9v-9.1c0-.5.4-.9.9-.9h7.9c.4 0 .8.3.9.7l2.4 9c.1.3 0 .6-.2.8-.1.2-.4.4-.7.4zm-9.4-1.8h8.2l-1.9-7.2h-6.3z" fill="#2a3c65"/></g><g><path d="m53.8 17h-10.5c-.4 0-.8-.3-.9-.7l-2.4-9c0-.3 0-.6.2-.8s.4-.4.7-.4h7.9c.3 0 .6.2.8.5l4.9 9c.2.3.1.6 0 .9s-.4.5-.7.5zm-9.8-1.8h8.2l-3.9-7.2h-6.2z" fill="#2a3c65"/></g><g><path d="m64.1 17h-10.3c-.3 0-.6-.2-.8-.5l-4.9-9c-.2-.3-.1-.6 0-.9s.5-.4.8-.4h4.7c2.3 0 4.4 1 5.8 2.7l5.4 6.6c.2.3.3.6.1 1-.1.3-.5.5-.8.5zm-9.8-1.8h7.9l-4.2-5.2c-1-1.3-2.7-2.1-4.4-2.1h-3.2z" fill="#2a3c65"/></g><g><path d="m62.1 59.9h-58.2c-.5 0-.9-.4-.9-.9s.4-1 .9-1h58.2c.5 0 .9.4.9.9s-.4 1-.9 1z" fill="#2a3c65"/></g><g><path d="m12.5 32.1h20.2v15.7h-20.2z" fill="#27d1ff"/></g><g><path d="m32.7 40.8c-.5 0-.9-.4-.9-.9v-6.9h-18.4v6.9c0 .5-.4.9-.9.9s-.9-.4-.9-.9v-7.8c0-.5.4-.9.9-.9h20.2c.5 0 .9.4.9.9v7.8c0 .5-.4.9-.9.9z" fill="#2a3c65"/></g><g><path d="m32.7 48.7h-20.2c-.5 0-.9-.4-.9-.9v-7.9c0-.5.4-.9.9-.9s.9.4.9.9v7h18.3v-7c0-.5.4-.9.9-.9s.9.4.9.9v7.9c.1.5-.3.9-.8.9z" fill="#2a3c65"/></g><g><path d="m34.7 33h-24.2c-.5 0-.9-.4-.9-.9s.4-.9.9-.9h24.2c.5 0 .9.4.9.9s-.4.9-.9.9z" fill="#2a3c65"/></g><g><path d="m34.7 48.7h-24.2c-.5 0-.9-.4-.9-.9s.4-.9.9-.9h24.2c.5 0 .9.4.9.9s-.4.9-.9.9z" fill="#2a3c65"/></g><g><g><path d="m54.8 41.8v17.2h-17v-17.2c0-3.3 2.6-5.9 5.9-5.9h5.2c3.3 0 5.9 2.6 5.9 5.9z" fill="#ff7daf"/></g><g><path d="m54.8 41.8v17.2h-4v-13.2c0-3.3-2.6-5.9-5.9-5.9h-5.2c-.6 0-1.1.1-1.7.2.7-2.4 3-4.2 5.6-4.2h5.2c3.4 0 6 2.6 6 5.9z" fill="#ff5892"/></g><g><path d="m54.8 59.9h-17c-.5 0-.9-.4-.9-.9v-17.2c0-3.8 3-6.8 6.8-6.8h5.2c3.7 0 6.7 3.1 6.7 6.8v17.2c.1.5-.3.9-.8.9zm-16.1-1.9h15.1v-16.2c0-2.8-2.2-5-4.9-5h-5.2c-2.8 0-5 2.2-5 5z" fill="#2a3c65"/></g><g><path d="m41 51.7c-.5 0-.9-.4-.9-.9v-2.4c0-.5.4-.9.9-.9s.9.4.9.9v2.4c0 .5-.4.9-.9.9z" fill="#2a3c65"/></g><g><path d="m42.4 50.5h-1.2c-.5 0-.9-.4-.9-.9s.4-.9.9-.9h1.2c.5 0 .9.4.9.9s-.4.9-.9.9z" fill="#2a3c65"/></g></g><g><g><g><path d="m15.6 44.2-.5 2.1c-.2.7.4 1.4 1.1 1.4h5c.7 0 1.3-.7 1.1-1.4l-.5-2.1c-.1-.5-.6-.9-1.1-.9h-3.9c-.7.1-1.1.4-1.2.9z" fill="#fecb4d"/><path d="m21.3 48.6h-5c-.6 0-1.2-.3-1.6-.8s-.5-1.1-.3-1.7l.5-2.1c.1-.5.5-1.4 2-1.6h.1 3.9c.9 0 1.8.7 2 1.6l.5 2.1c.2.6 0 1.2-.3 1.7-.6.5-1.2.8-1.8.8zm-4.4-4.4c-.1 0-.4.1-.4.2l-.5 2.1v.2c0 .1.1.1.2.1h5c.1 0 .1 0 .2-.1 0 0 .1-.1 0-.1l-.4-2.2c0-.1-.1-.2-.2-.2z" fill="#2a3c65"/></g><g><path d="m23.6 44.2-.6 2.2c-.2.7.4 1.4 1.1 1.4h5c.7 0 1.3-.7 1.1-1.4l-.5-2.1c-.1-.5-.6-.9-1.1-.9h-3.9c-.6 0-1 .3-1.1.8z" fill="#fecb4d"/><path d="m29.1 48.7h-5c-.6 0-1.2-.3-1.6-.8s-.5-1.1-.3-1.7l.6-2.2c.2-.9 1-1.5 2-1.5h3.9c.9 0 1.8.7 2 1.6l.5 2.1c.2.6 0 1.2-.3 1.7-.6.5-1.2.8-1.8.8zm-4.4-4.4c-.1 0-.2 0-.2 0l-.6 2.3v.1c.1.1.1.1.2.1h5c.1 0 .1 0 .2-.1 0 0 .1-.1 0-.1l-.5-2.1c0-.1-.1-.2-.2-.2z" fill="#2a3c65"/></g></g><g><path d="m19.6 39.8-.5 2.2c-.2.7.4 1.4 1.1 1.4h5c.7 0 1.3-.7 1.1-1.4l-.5-2.1c-.1-.5-.6-.9-1.1-.9h-3.9c-.6 0-1.1.3-1.2.8z" fill="#fecb4d"/><path d="m25.2 44.3h-5c-.6 0-1.2-.3-1.6-.8s-.5-1.1-.3-1.7l.5-2.2c.2-.9 1-1.5 2.1-1.5h3.9c.9 0 1.8.7 2 1.6l.5 2.1c.2.6 0 1.2-.3 1.7-.6.5-1.2.8-1.8.8zm-4.4-4.4c-.2 0-.3.1-.3.1l-.5 2.2v.2c.1.1.1.1.2.1h5c.1 0 .1 0 .2-.1 0 0 .1-.1 0-.1l-.5-2.1c0-.1-.1-.2-.2-.2h-3.9z" fill="#2a3c65"/></g></g></g></svg>