<svg id="Layer_1" height="512" viewBox="0 0 66 66" width="512" xmlns="http://www.w3.org/2000/svg"><g><g><path d="m61.1 65h-56.2c-.6 0-1-.4-1-1s.4-1 1-1h56.1c.6 0 1 .4 1 1s-.4 1-.9 1z" fill="#2a3c65"/></g><g><g><path d="m57.6 64v-40.6c0-1.6-1.3-2.9-2.9-2.9h-43.4c-1.6 0-2.9 1.3-2.9 2.9v40.6z" fill="#c7d9f9"/></g><g><path d="m57.7 65h-49.3c-.5 0-1-.4-1-1v-40.6c0-2.1 1.7-3.9 3.9-3.9h16.1c.5 0 1 .4 1 1s-.4 1-1 1h-16.1c-1.1 0-1.9.9-1.9 1.9v39.6h47.3v-39.6c0-1.1-.9-1.9-1.9-1.9h-16.1c-.5 0-1-.4-1-1s.4-1 1-1h16.1c2.1 0 3.9 1.7 3.9 3.9v40.6c0 .6-.5 1-1 1z" fill="#2a3c65"/></g><g><path d="m13.2 31.4h39.7v32.6h-39.7z" fill="#02beff"/></g><g><g><path d="m52.2 31.4-32.4 32.6h-6.6v-8.6l23.8-24z" fill="#27d1ff"/></g><g><path d="m52.8 34.6v5.4l-23.8 24h-5.5z" fill="#27d1ff"/></g></g><g><path d="m13.2 31.4h39.7v10.1h-39.7z" fill="#e3ecff"/></g><g><path d="m49 42.5h-32c-.5 0-1-.4-1-1s.4-1 1-1h32c.5 0 1 .4 1 1s-.4 1-1 1z" fill="#2a3c65"/></g><g><path d="m49 37.4h-32c-.5 0-1-.4-1-1s.4-1 1-1h32c.5 0 1 .4 1 1s-.4 1-1 1z" fill="#2a3c65"/></g><g><path d="m54.6 28v1.5c0 1.1-.9 1.9-1.9 1.9h-39.4c-1.1 0-1.9-.9-1.9-1.9v-1.5c0-1.1.9-1.9 1.9-1.9h39.4c1.1 0 1.9.8 1.9 1.9z" fill="#ff7daf"/></g><g><path d="m52.7 32.4h-39.4c-1.6 0-2.9-1.3-2.9-2.9v-1.5c0-1.6 1.3-2.9 2.9-2.9h39.4c1.6 0 2.9 1.2 2.9 2.9v1.5c0 1.6-1.3 2.9-2.9 2.9zm-39.4-5.3c-.4 0-.9.4-.9.9v1.5c0 .4.4.9.9.9h39.4c.4 0 .9-.4.9-.9v-1.5c0-.6-.4-.9-.9-.9z" fill="#2a3c65"/></g><g><path d="m13.1 41.5h19.9v5.9h-19.9z" fill="#e3ecff"/></g><g><path d="m33 48.4h-16c-.5 0-1-.4-1-1s.4-1 1-1h15v-4h-15c-.5 0-1-.4-1-1s.4-1 1-1h16c.5 0 1 .4 1 1v5.9c0 .6-.5 1.1-1 1.1z" fill="#2a3c65"/></g><g><path d="m48.2 49.6v3.5c0 .8-.7 1.5-1.5 1.5h-8.7c-.8 0-1.5-.7-1.5-1.5v-3.5c0-.8.7-1.5 1.5-1.5h8.8c.8.1 1.4.7 1.4 1.5z" fill="#ffd880"/></g><g><path d="m46.7 55.6h-8.7c-1.3 0-2.5-1.1-2.5-2.5v-3.5c0-1.3 1.1-2.5 2.5-2.5h8.8.1c1.4.2 2.4 1.2 2.4 2.5v3.5c-.1 1.3-1.2 2.5-2.6 2.5zm-8.7-6.5c-.3 0-.5.3-.5.5v3.5c0 .3.3.5.5.5h8.8c.3 0 .5-.3.5-.5v-3.5c0-.4-.4-.5-.6-.5z" fill="#2a3c65"/></g><g><path d="m46.1 49.2h-7.6c-.3 0-.7-.2-.8-.5-.2-.3-.2-.7 0-1l3.8-6.6c.3-.6 1.3-.6 1.7 0l3.8 6.6c.2.3.2.7 0 1s-.5.5-.9.5zm-5.9-2h4.2l-2.1-3.7z" fill="#2a3c65"/></g><g><path d="m33 65c-.5 0-1-.4-1-1v-32.6c0-.5.4-1 1-1s1 .4 1 1v32.6c0 .6-.5 1-1 1z" fill="#2a3c65"/></g><g><path d="m22.5 65c-.5 0-1-.4-1-1v-16.6c0-.5.4-1 1-1s1 .4 1 1v16.6c0 .6-.4 1-1 1z" fill="#2a3c65"/></g><g><path d="m52.5 18.5v2h-39v-2c0-1.6 1.3-2.9 2.9-2.9h33.3c1.5 0 2.8 1.3 2.8 2.9z" fill="#38fcc4"/></g><g><path d="m27.4 21.5h-13.9c-.5 0-1-.4-1-1v-2c0-2.1 1.7-3.9 3.9-3.9h6.2c.5 0 1 .4 1 1s-.4 1-1 1h-6.2c-1.1 0-1.9.9-1.9 1.9v1h13c.5 0 1 .4 1 1s-.5 1-1.1 1z" fill="#2a3c65"/></g><g><path d="m52.5 21.5h-13.9c-.5 0-1-.4-1-1s.4-1 1-1h13v-1c0-1.1-.9-1.9-1.9-1.9h-6.2c-.5 0-1-.4-1-1s.4-1 1-1h6.2c2.1 0 3.9 1.7 3.9 3.9v2c-.1.5-.6 1-1.1 1z" fill="#2a3c65"/></g><g><ellipse cx="33" cy="10" fill="#ffd880" rx="8" ry="8"/></g><g><path d="m33 14.1c-2.3 0-4.1-1.9-4.1-4.1 0-2.3 1.9-4.1 4.1-4.1s4.1 1.9 4.1 4.1c0 2.3-1.8 4.1-4.1 4.1z" fill="#fecb4d"/></g><g><path d="m33 19c-4.9 0-8.9-4-8.9-9s4-9 8.9-9 8.9 4 8.9 9-4 9-8.9 9zm0-16c-3.9 0-7 3.2-7 7s3.1 7 7 7 7-3.2 7-7-3.1-7-7-7z" fill="#2a3c65"/></g><g><path d="m52.9 65h-39.7c-.5 0-1-.4-1-1v-32.6c0-.5.4-1 1-1h39.7c.5 0 1 .4 1 1v32.6c0 .6-.5 1-1 1zm-38.7-2h37.8v-30.6h-37.8z" fill="#2a3c65"/></g></g></g></svg>