<svg id="Layer_1" height="512" viewBox="0 0 66 66" width="512" xmlns="http://www.w3.org/2000/svg"><g><g><path d="m44 13.7v5.2" fill="none"/></g><g><path d="m22 18.9v-5.2" fill="none"/></g><g><path d="m6.1 24.3h53.8v37.3h-53.8z" fill="#e3ecff"/></g><g><path d="m59.9 24.3v37.3h-4.3c-.9-8.6-4.8-16.4-10.7-22.3-6.7-6.7-16.1-10.9-26.4-10.9h-12.4v-4h53.8z" fill="#c7d9f9"/></g><g><path d="m4.2 61.5h57.6" fill="none"/></g><g><path d="m49.1 7.1v3.8c0 1.5-1.2 2.7-2.7 2.7h-26.7c-1.5 0-2.7-1.2-2.7-2.7v-3.8c0-1.5 1.2-2.7 2.7-2.7h26.8c1.3.1 2.6 1.3 2.6 2.7z" fill="#02beff"/></g><g><path d="m64.1 21.6c0 1.5-1.2 2.7-2.7 2.7h-56.8c-1.5 0-2.7-1.2-2.7-2.7s1.2-2.7 2.7-2.7h56.8c.7 0 1.4.3 1.9.8s.8 1.2.8 1.9z" fill="#ffd880"/></g><g><path d="m42.2 45.2v16.3h-18.4v-16.3c0-2 1.6-3.6 3.6-3.6h11.2c2 0 3.6 1.6 3.6 3.6z" fill="#ff7daf"/></g><g><circle cx="16.1" cy="32.9" fill="#cc87fe" r="4"/></g><g><circle cx="33" cy="32.9" fill="#38fcc4" r="4"/></g><g><circle cx="49.9" cy="32.9" fill="#c7d9f9" r="4"/></g><g><path d="m44 19.8c-.5 0-.9-.4-.9-.9v-5.2c0-.5.4-.9.9-.9s.9.4.9.9v5.2c0 .5-.4.9-.9.9z" fill="#2a3c65"/></g><g><path d="m22 19.8c-.5 0-.9-.4-.9-.9v-5.2c0-.5.4-.9.9-.9s.9.4.9.9v5.2c0 .5-.4.9-.9.9z" fill="#2a3c65"/></g><g><path d="m59.9 62.4h-53.8c-.5 0-.9-.4-.9-.9v-33.6c0-.5.4-.9.9-.9s.9.4.9.9v32.7h52v-32.7c0-.5.4-.9.9-.9s.9.4.9.9v33.6c0 .5-.4.9-.9.9z" fill="#2a3c65"/></g><g><path d="m61.8 62.4h-57.6c-.5 0-.9-.4-.9-.9s.4-.9.9-.9h57.6c.5 0 .9.4.9.9s-.4.9-.9.9z" fill="#2a3c65"/></g><g><path d="m46.3 14.5h-26.6c-2 0-3.6-1.6-3.6-3.6v-3.8c0-2 1.6-3.6 3.6-3.6h26.8c2 .1 3.5 1.8 3.5 3.6v3.8c-.1 2-1.7 3.6-3.7 3.6zm.1-9.2h-26.7c-1 0-1.8.8-1.8 1.8v3.8c0 1 .8 1.8 1.8 1.8h26.7c1 0 1.8-.8 1.8-1.8v-3.8c0-.9-.9-1.7-1.8-1.8z" fill="#2a3c65"/></g><g><path d="m61.4 25.2h-56.8c-2 0-3.6-1.6-3.6-3.6s1.6-3.6 3.6-3.6h56.8c.9 0 1.9.4 2.5 1.1.7.7 1.1 1.6 1.1 2.5 0 2-1.6 3.6-3.6 3.6zm-56.8-5.4c-1 0-1.8.8-1.8 1.8s.8 1.8 1.8 1.8h56.8c1 0 1.8-.8 1.8-1.8 0-.5-.2-.9-.5-1.3-.3-.3-.8-.5-1.3-.5z" fill="#2a3c65"/></g><g><path d="m42.2 62.5h-18.4c-.5 0-.9-.4-.9-.9v-16.4c0-2.5 2-4.5 4.5-4.5h11.2c2.5 0 4.5 2 4.5 4.5v16.3c0 .6-.4 1-.9 1zm-17.5-1.8h16.7v-15.5c0-1.5-1.2-2.7-2.7-2.7h-11.3c-1.5 0-2.7 1.2-2.7 2.7z" fill="#2a3c65"/></g><g><path d="m16.1 37.8c-2.7 0-4.9-2.2-4.9-4.9s2.2-4.9 4.9-4.9 4.9 2.2 4.9 4.9c.1 2.7-2.1 4.9-4.9 4.9zm0-8c-1.7 0-3.1 1.4-3.1 3.1s1.4 3.1 3.1 3.1 3.1-1.4 3.1-3.1-1.3-3.1-3.1-3.1z" fill="#2a3c65"/></g><g><path d="m33 37.8c-2.7 0-4.9-2.2-4.9-4.9s2.2-4.9 4.9-4.9 4.9 2.2 4.9 4.9-2.2 4.9-4.9 4.9zm0-8c-1.7 0-3.1 1.4-3.1 3.1s1.4 3.1 3.1 3.1 3.1-1.4 3.1-3.1-1.4-3.1-3.1-3.1z" fill="#2a3c65"/></g><g><circle cx="49.9" cy="32.9" fill="#ff7daf" r="4"/><path d="m49.9 37.8c-2.7 0-4.9-2.2-4.9-4.9s2.2-4.9 4.9-4.9 4.9 2.2 4.9 4.9-2.2 4.9-4.9 4.9zm0-8c-1.7 0-3.1 1.4-3.1 3.1s1.4 3.1 3.1 3.1 3.1-1.4 3.1-3.1-1.4-3.1-3.1-3.1z" fill="#2a3c65"/></g></g></svg>