<svg id="Layer_1" height="512" viewBox="0 0 66 66" width="512" xmlns="http://www.w3.org/2000/svg"><g><g><path d="m62.8 64.2h-59.6c-.6 0-1-.4-1-1s.4-1 1-1h59.5c.6 0 1 .4 1 1s-.4 1-.9 1z" fill="#2a3c65"/></g><g><g><path d="m6.2 27h53.4v36.2h-53.4z" fill="#e3ecff"/></g><g><path d="m59.8 27v36.2h-4.1c-.9-8.5-4.7-16.1-10.4-21.7-6.6-6.6-15.6-10.6-25.7-10.6h-13.4v-3.9z" fill="#c7d9f9"/></g><g><path d="m59.7 64.2h-53.5c-.6 0-1-.4-1-1v-36.2c0-.6.4-1 1-1h53.4c.6 0 1 .4 1 1v36.2c.1.6-.4 1-.9 1zm-52.5-2h51.4v-34.2h-51.4z" fill="#2a3c65"/></g><g><path d="m64 23.7c0 1.8-1.5 3.3-3.3 3.3h-55.4c-1.8 0-3.3-1.5-3.3-3.3s1.5-3.3 3.3-3.3h55.4c.9 0 1.7.4 2.3 1s1 1.4 1 2.3z" fill="#ff7daf"/></g><g><path d="m60.8 28.1h-55.5c-2.3-.1-4.2-2.1-4.2-4.4 0-2.4 1.9-4.3 4.3-4.3h9.2c.6 0 1 .4 1 1s-.4 1-1 1h-9.3c-1.2 0-2.3 1-2.3 2.3 0 1.2 1.1 2.3 2.3 2.4h55.4c1.2 0 2.3-1 2.3-2.3 0-.6-.3-1.1-.7-1.6-.5-.5-1-.7-1.6-.7h-9.2c-.6 0-1-.4-1-1s.4-1 1-1h9.2c1.1 0 2.2.5 3 1.3s1.3 1.9 1.3 3c.1 2.4-1.9 4.3-4.2 4.3z" fill="#2a3c65"/></g><g><path d="m26.3 45.1v18.2h-14v-18.2c0-1.6 1.3-2.9 2.9-2.9h8.2c1.6 0 2.9 1.3 2.9 2.9z" fill="#38fcc4"/></g><g><path d="m26.3 64.2h-14c-.6 0-1-.4-1-1v-18.1c0-2.1 1.7-3.9 3.9-3.9h8.2c2.1 0 3.9 1.7 3.9 3.9v18.2c0 .5-.4.9-1 .9zm-13-2h12v-17.1c0-1-.9-1.9-1.9-1.9h-8.2c-1 0-1.9.8-1.9 1.9z" fill="#2a3c65"/></g><g><path d="m15.4 54.6c-.6 0-1-.4-1-1v-2c0-.6.4-1 1-1s1 .4 1 1v2c0 .6-.4 1-1 1z" fill="#2a3c65"/></g><g><path d="m55.3 37.7v10.8c0 1.6-1.3 2.9-2.9 2.9h-18.3c-1.6 0-2.9-1.3-2.9-2.9v-10.8c0-1.6 1.3-2.9 2.9-2.9h18.3c.5 0 1 .1 1.5.4.7.4 1.2 1.2 1.4 2-.1.2 0 .3 0 .5z" fill="#02beff"/></g><g><g><path d="m53.8 35.2-16.2 16.3h-3.5c-1.6 0-2.9-1.3-2.9-2.9v-4.3l9.5-9.5h11.7c.5 0 1 .1 1.4.4z" fill="#27d1ff"/></g><g><path d="m55.3 37.7v4.3l-9.5 9.5h-4.8l14.3-14.3c-.1.2 0 .3 0 .5z" fill="#27d1ff"/></g></g><g><path d="m52.4 52.4h-18.3c-2.1 0-3.9-1.7-3.9-3.9v-10.8c0-2.1 1.7-3.9 3.9-3.9h18.3c2.1 0 3.9 1.8 3.9 3.9v10.8c0 2.1-1.8 3.9-3.9 3.9zm-18.3-16.6c-1 0-1.9.8-1.9 1.9v10.8c0 1 .9 1.9 1.9 1.9h18.3c1 0 1.9-.8 1.9-1.9v-10.8c0-1-.9-1.9-1.9-1.9z" fill="#2a3c65"/></g><g><path d="m43.2 52.5c-.6 0-1-.4-1-1v-16.7c0-.6.4-1 1-1s1 .4 1 1v16.7c0 .5-.5 1-1 1z" fill="#2a3c65"/></g><g><path d="m47.1 4.4v16.5c0 .2-.1.5-.2.7-.3.6-.8.9-1.5.9h-24.8c-.7 0-1.2-.4-1.5-.9-.1-.2-.2-.4-.2-.7v-16.5c0-.2.1-.5.2-.7.3-.6.8-.9 1.5-.9h24.8c.7 0 1.2.4 1.5.9.1.2.2.5.2.7z" fill="#ffd880"/></g><g><path d="m45.4 23.4h-24.8c-1 0-1.8-.5-2.4-1.4-.2-.3-.3-.7-.3-1.2v-16.4c0-.5.2-1 .3-1.1.5-.9 1.3-1.5 2.4-1.5h24.8c1 0 1.8.5 2.4 1.4.1.2.3.7.3 1.2v16.5c0 .4-.2.9-.3 1.1-.5.9-1.3 1.4-2.4 1.4zm-24.8-19.6c-.4 0-.5.1-.6.3 0 .1-.1.2-.1.3v16.4c0 .1 0 .1.1.2.2.3.5.3.6.3h24.8c.4 0 .5-.1.6-.3.1-.1.1-.2.1-.3v-16.4s0-.2-.1-.2c-.2-.3-.5-.3-.6-.3h-24.8z" fill="#2a3c65"/></g><g><path d="m38 12.6 8.9 8.9c-.3.6-.8.9-1.5.9h-24.8c-.7 0-1.2-.4-1.5-.9l8.9-8.9z" fill="#f9b826"/></g><g><path d="m45.4 23.4h-24.8c-1 0-1.8-.5-2.4-1.4-.2-.4-.2-.9.2-1.2l6.1-6.1c.4-.4 1-.4 1.4 0s.4 1 0 1.4l-5.3 5.3h24.7l-5.3-5.3c-.4-.4-.4-1 0-1.4s1-.4 1.4 0l6.1 6.1c.3.3.4.8.2 1.2-.4.9-1.2 1.4-2.3 1.4z" fill="#2a3c65"/></g><g><path d="m46.9 3.7-12.8 12.7c-.6.6-1.6.6-2.3 0l-3.8-3.8-8.9-8.9c.3-.6.8-.9 1.5-.9h24.8c.7 0 1.2.4 1.5.9z" fill="#fecb4d"/></g><g><path d="m33 17.9c-.7 0-1.3-.2-1.8-.7l-3.9-4-8.9-8.9c-.3-.3-.4-.8-.2-1.2.5-.9 1.3-1.4 2.4-1.4h24.8c1 0 1.8.5 2.4 1.4.2.4.2.9-.2 1.2l-12.8 12.9c-.5.4-1.1.7-1.8.7zm-12.4-14.1 8.1 8.1 3.8 3.9c.1.1.5.3.9 0l12-12z" fill="#2a3c65"/></g></g></g></svg>