<svg id="Layer_1" height="512" viewBox="0 0 66 66" width="512" xmlns="http://www.w3.org/2000/svg"><g><g><path d="m6.2 16.1h53.6v43h-53.6z" fill="#ff7daf"/></g><g><path d="m59.8 59.9h-53.6c-.5 0-.9-.4-.9-.9v-31c0-.5.4-.9.9-.9s.9.4.9.9v30h51.7v-30c0-.5.4-.9.9-.9s.9.4.9.9v31c.1.5-.3.9-.8.9z" fill="#2a3c65"/></g><g><path d="m53.8 16.1v3.2c0 1.4-.6 2.7-1.5 3.7-.9.9-2.2 1.5-3.7 1.5-2.9 0-5.2-2.3-5.2-5.2v-3.2l-2.4-9h7.9z" fill="#e3ecff"/></g><g><path d="m25.1 7h7.9v12.2c0 1.4-.6 2.7-1.5 3.7s-2.2 1.5-3.7 1.5c-2.9 0-5.2-2.3-5.2-5.2v-3.2z" fill="#e3ecff"/></g><g><path d="m12.3 7h4.8l-4.9 9v3.2c0 1.4-.6 2.7-1.5 3.7-.9.9-2.2 1.5-3.6 1.5s-2.7-.5-3.6-1.4c-1-1-1.6-2.3-1.6-3.8v-3.2l5.3-6.6c1.3-1.5 3.1-2.4 5.1-2.4z" fill="#e3ecff"/></g><g><path d="m7.1 25.3c-1.6 0-3.1-.6-4.3-1.8-1.1-1.1-1.8-2.6-1.8-4.3v-3.2c0-.2.1-.5.3-.6.2-.2.4-.2.6-.3l10.3.1c.5 0 .9.4.9.9v3.2c0 1.6-.6 3.1-1.8 4.2-1.1 1.1-2.6 1.8-4.2 1.8zm-4.3-8.4v2.3c0 1.2.5 2.3 1.3 3 .8.8 1.9 1.3 3 1.3s2.2-.5 3-1.2c.8-.8 1.2-1.9 1.2-3v-2.3z" fill="#2a3c65"/></g><g><path d="m64.1 16.1v3.2c0 1.4-.6 2.7-1.5 3.7 0 0 0 0-.1 0-.9.9-2.2 1.5-3.6 1.5-2.8 0-5.2-2.3-5.2-5.2v-3.2l-4.9-9h4.8c2 0 3.8.9 5 2.4z" fill="#fecb4d"/></g><g><path d="m40.9 7 2.4 9v3.2c0 1.4-.6 2.7-1.5 3.7-.9.9-2.2 1.5-3.7 1.5-2.9 0-5.2-2.3-5.2-5.2v-12.2z" fill="#fecb4d"/></g><g><path d="m17.2 7h7.9l-2.4 9v3.2c0 1.4-.6 2.7-1.5 3.7-.9.9-2.2 1.5-3.7 1.5-2.8 0-5.2-2.3-5.2-5.2v-3.2z" fill="#fecb4d"/></g><g><path d="m17.5 25.4c-3.4 0-6.1-2.7-6.1-6.1v-3.2c0-.5.4-.9.9-.9h10.4c.5 0 .9.4.9.9v3.2c0 3.4-2.7 6.1-6.1 6.1zm-4.4-8.4v2.3c0 2.4 1.9 4.3 4.3 4.3s4.3-1.9 4.3-4.3v-2.3z" fill="#2a3c65"/></g><g><path d="m27.9 25.4c-3.4 0-6.1-2.7-6.1-6.1v-3.2c0-.5.4-.9.9-.9h10.4c.5 0 .9.4.9.9v3.2c0 3.4-2.7 6.1-6.1 6.1zm-4.3-8.4v2.3c0 2.4 1.9 4.3 4.3 4.3s4.3-1.9 4.3-4.3v-2.3z" fill="#2a3c65"/></g><g><path d="m38.2 25.4c-3.4 0-6.1-2.7-6.1-6.1v-3.2c0-.5.4-.9.9-.9h10.4c.5 0 .9.4.9.9v3.2c0 3.4-2.7 6.1-6.1 6.1zm-4.3-8.4v2.3c0 2.4 1.9 4.3 4.3 4.3s4.3-1.9 4.3-4.3v-2.3z" fill="#2a3c65"/></g><g><path d="m48.5 25.4c-3.4 0-6.1-2.7-6.1-6.1v-3.2c0-.5.4-.9.9-.9h10.4c.5 0 .9.4.9.9v3.2c.1 3.4-2.6 6.1-6.1 6.1zm-4.3-8.4v2.3c0 2.4 1.9 4.3 4.3 4.3s4.3-1.9 4.3-4.3v-2.3z" fill="#2a3c65"/></g><g><path d="m59 25.3c-3.4 0-6.1-2.7-6.1-6.1v-3.2c0-.2.1-.5.3-.6.2-.2.4-.2.6-.3l10.3.1c.5 0 .9.4.9.9v3.2c0 1.6-.6 3.1-1.8 4.2-1.1 1.1-2.6 1.8-4.2 1.8zm-4.3-8.4v2.3c0 2.4 1.9 4.3 4.3 4.3 1.1 0 2.2-.5 3-1.2.8-.8 1.2-1.9 1.2-3v-2.3z" fill="#2a3c65"/></g><g><path d="m12.2 17h-10.3c-.4 0-.7-.2-.8-.5s-.1-.7.1-1l5.4-6.6c1.3-1.8 3.4-2.7 5.7-2.7h4.8c.3 0 .6.2.8.4.2.3.2.6 0 .9l-4.9 9c-.1.3-.4.5-.8.5zm-8.4-1.8h7.9l3.9-7.2h-3.3c-1.7 0-3.3.7-4.3 2z" fill="#2a3c65"/></g><g><path d="m22.7 17h-10.5c-.3 0-.6-.2-.8-.4-.2-.3-.2-.6 0-.9l4.9-9c.2-.3.5-.5.8-.5h7.9c.3 0 .5.1.7.4.3.1.3.4.3.7l-2.4 9c-.2.4-.5.7-.9.7zm-8.9-1.8h8.2l1.9-7.2h-6.2z" fill="#2a3c65"/></g><g><path d="m33 17h-10.3c-.3 0-.5-.1-.7-.4-.2-.2-.2-.5-.2-.8l2.4-9c.1-.4.5-.7.9-.7h7.9c.5 0 .9.4.9.9v9c0 .6-.4 1-.9 1zm-9.2-1.8h8.2v-7.2h-6.3z" fill="#2a3c65"/></g><g><path d="m43.3 17h-10.3c-.5 0-.9-.4-.9-.9v-9.1c0-.5.4-.9.9-.9h7.9c.4 0 .8.3.9.7l2.4 9c.1.3 0 .6-.2.8-.1.2-.4.4-.7.4zm-9.4-1.8h8.2l-1.9-7.2h-6.3z" fill="#2a3c65"/></g><g><path d="m53.8 17h-10.5c-.4 0-.8-.3-.9-.7l-2.4-9c0-.3 0-.6.2-.8s.4-.4.7-.4h7.9c.3 0 .6.2.8.5l4.9 9c.2.3.1.6 0 .9s-.4.5-.7.5zm-9.8-1.8h8.2l-3.9-7.2h-6.2z" fill="#2a3c65"/></g><g><path d="m64.1 17h-10.3c-.3 0-.6-.2-.8-.5l-4.9-9c-.2-.3-.1-.6 0-.9s.5-.4.8-.4h4.7c2.3 0 4.4 1 5.8 2.7l5.4 6.6c.2.3.3.6.1 1-.1.3-.5.5-.8.5zm-9.8-1.8h7.9l-4.2-5.2c-1-1.3-2.7-2.1-4.4-2.1h-3.2z" fill="#2a3c65"/></g><g><path d="m62.1 59.9h-58.2c-.5 0-.9-.4-.9-.9s.4-1 .9-1h58.2c.5 0 .9.4.9.9s-.4 1-.9 1z" fill="#2a3c65"/></g><g><path d="m40.9 42.9v16h-15.8v-16c0-3 2.5-5.5 5.5-5.5h4.8c3 0 5.5 2.5 5.5 5.5z" fill="#27d1ff"/></g><g><path d="m40.9 42.9v16h-3.7v-12.3c0-3-2.5-5.5-5.5-5.5h-4.8c-.5 0-1.1.1-1.6.2.7-2.3 2.8-3.9 5.3-3.9h4.8c3 0 5.5 2.5 5.5 5.5z" fill="#02beff"/></g><g><path d="m40.9 59.9h-15.8c-.5 0-.9-.4-.9-.9v-16c0-3.5 2.9-6.4 6.4-6.4h4.8c3.5 0 6.4 2.9 6.4 6.4v16c0 .5-.4.9-.9.9zm-14.9-1.9h14v-15.1c0-2.5-2.1-4.6-4.6-4.6h-4.8c-2.5 0-4.6 2.1-4.6 4.6z" fill="#2a3c65"/></g><g><path d="m45.3 32h9.1v15.7h-9.1z" fill="#c7d9f9"/></g><g><path d="m11.3 32h9.1v15.7h-9.1z" fill="#c7d9f9"/></g><g><path d="m20.5 40.8h-9.1c-.5 0-.9-.4-.9-.9v-7.9c0-.5.4-.9.9-.9h9.1c.5 0 .9.4.9.9v7.9c0 .5-.4.9-.9.9zm-8.3-1.8h7.3v-6.1h-7.3z" fill="#2a3c65"/></g><g><path d="m20.5 48.6h-9.1c-.5 0-.9-.4-.9-.9v-7.9c0-.5.4-.9.9-.9h9.1c.5 0 .9.4.9.9v7.9c0 .5-.4.9-.9.9zm-8.3-1.8h7.3v-6.1h-7.3z" fill="#2a3c65"/></g><g><path d="m21.4 32.9h-11c-.5 0-.9-.4-.9-.9s.4-.9.9-.9h10.9c.5 0 .9.4.9.9s-.3.9-.8.9z" fill="#2a3c65"/></g><g><path d="m21.4 48.6h-11c-.5 0-.9-.4-.9-.9s.4-.9.9-.9h10.9c.5 0 .9.4.9.9s-.3.9-.8.9z" fill="#2a3c65"/></g><g><path d="m54.5 40.8h-9.1c-.5 0-.9-.4-.9-.9v-7.9c0-.5.4-.9.9-.9h9.1c.5 0 .9.4.9.9v7.9c0 .5-.4.9-.9.9zm-8.3-1.8h7.3v-6.1h-7.3z" fill="#2a3c65"/></g><g><path d="m54.5 48.6h-9.1c-.5 0-.9-.4-.9-.9v-7.9c0-.5.4-.9.9-.9h9.1c.5 0 .9.4.9.9v7.9c0 .5-.4.9-.9.9zm-8.3-1.8h7.3v-6.1h-7.3z" fill="#2a3c65"/></g><g><path d="m55.4 32.9h-11c-.5 0-.9-.4-.9-.9s.4-.9.9-.9h10.9c.5 0 .9.4.9.9s-.3.9-.8.9z" fill="#2a3c65"/></g><g><path d="m55.4 48.6h-11c-.5 0-.9-.4-.9-.9s.4-.9.9-.9h10.9c.5 0 .9.4.9.9s-.3.9-.8.9z" fill="#2a3c65"/></g><g><path d="m28.1 52.3c-.5 0-.9-.4-.9-.9v-2.3c0-.5.4-.9.9-.9s.9.4.9.9v2.3c0 .5-.4.9-.9.9z" fill="#2a3c65"/></g><g><path d="m29.4 51.1h-1.1c-.5 0-.9-.4-.9-.9s.4-.9.9-.9h1.1c.5 0 .9.4.9.9s-.4.9-.9.9z" fill="#2a3c65"/></g></g></svg>