<svg id="Layer_1" height="512" viewBox="0 0 66 66" width="512" xmlns="http://www.w3.org/2000/svg"><g><g><path d="m5.6 23.9v36h16.2v-39.7h-12.3c-2.2 0-3.9 1.7-3.9 3.7z" fill="#b0cdf7"/></g><g><path d="m44.1 20.2v39.7h16.2v-36c0-2.1-1.7-3.8-3.8-3.8z" fill="#b0cdf7"/></g><g><path d="m18.1 60.9h-12.5c-.5 0-.9-.4-.9-.9v-36c0-2.6 2.1-4.7 4.7-4.7h8.6c.5 0 .9.4.9.9s-.4.9-.9.9h-8.5c-1.6 0-2.9 1.3-2.9 2.9v35h11.5c.5 0 .9.4.9.9s-.4 1-.9 1z" fill="#2a3c65"/></g><g><path d="m60.4 61h-12.5c-.5 0-.9-.5-.9-1s.4-.9.9-.9h11.5v-35.1c0-1.6-1.3-2.9-2.9-2.9h-8.6c-.5 0-.9-.4-.9-.9s.4-.9.9-.9h8.6c2.6 0 4.7 2.1 4.7 4.7v36c.1.5-.3 1-.8 1z" fill="#2a3c65"/></g><g><path d="m21.9 6.1h22.3v54h-22.3z" fill="#e3ecff"/></g><g><path d="m44.1 6.1v54h-22.2v-.4c4.4-.9 8.3-1.6 11.3-4.6 4-4 6.5-9.6 6.5-15.8v-10.9c0-10.8-7.7-19.8-17.8-21.8v-.5z" fill="#c7d9f9"/></g><g><path d="m44.2 61h-22.3c-.5 0-.9-.4-.9-.9v-54c0-.5.4-.9.9-.9h22.3c.5 0 .9.4.9.9v54c.1.4-.4.9-.9.9zm-21.4-1.9h20.5v-52.1h-20.5z" fill="#2a3c65"/></g><g><path d="m47.7 7h-29.4c-.5 0-.9-.4-.9-.9s.4-.9.9-.9h29.5c.5 0 .9.4.9.9s-.5.9-1 .9z" fill="#2a3c65"/></g><g><path d="m39.8 27.7v3.3c0 .5-.4.9-.9.9h-2.9c-.5 0-.9-.4-.9-.9v-3.3c0-.5.4-.9.9-.9h2.9c.5-.1.9.4.9.9z" fill="#27d1ff"/></g><g><path d="m31 27.7v3.3c0 .5-.4.9-.9.9h-2.9c-.5 0-.9-.4-.9-.9v-3.3c0-.5.4-.9.9-.9h2.8c.5-.1 1 .4 1 .9z" fill="#27d1ff"/></g><g><path d="m39.8 36.5v3.3c0 .5-.4.9-.9.9h-2.9c-.5 0-.9-.4-.9-.9v-3.3c0-.5.4-.9.9-.9h2.9c.5 0 .9.4.9.9z" fill="#27d1ff"/></g><g><path d="m31 36.5v3.3c0 .5-.4.9-.9.9h-2.9c-.5 0-.9-.4-.9-.9v-3.3c0-.5.4-.9.9-.9h2.8c.5 0 1 .4 1 .9z" fill="#27d1ff"/></g><g><path d="m38.9 32.8h-2.9c-1 0-1.8-.8-1.8-1.8v-3.3c0-1 .8-1.8 1.8-1.8h2.8c1-.1 1.9.8 1.9 1.8v3.3c.1 1-.8 1.8-1.8 1.8zm0-1.8v.9zm-2.9-3.3v3.3h2.8v-3.2h-2.8z" fill="#2a3c65"/></g><g><path d="m30.1 32.8h-2.9c-1 0-1.8-.8-1.8-1.8v-3.3c0-1 .8-1.8 1.8-1.8h2.7c1-.1 2 .8 2 1.8v3.3c0 1-.8 1.8-1.8 1.8zm0-1.8v.9zm0-3.3h-2.9v3.3h2.8v-3.3z" fill="#2a3c65"/></g><g><path d="m38.9 41.6h-2.9c-1 0-1.8-.8-1.8-1.8v-3.3c0-1 .8-1.8 1.8-1.8h2.9c1 0 1.8.8 1.8 1.8v3.3c.1 1-.8 1.8-1.8 1.8zm0-1.8v.9zm0-3.3h-2.9v3.3h2.8v-3.3z" fill="#2a3c65"/></g><g><path d="m30.1 41.6h-2.9c-1 0-1.8-.8-1.8-1.8v-3.3c0-1 .8-1.8 1.8-1.8h2.8c1.1 0 1.9.8 1.9 1.8v3.3c0 1-.8 1.8-1.8 1.8zm0-1.8v.9zm0-3.3h-2.9v3.3h2.8v-3.3z" fill="#2a3c65"/></g><g><path d="m38.6 52.2v7.7h-11.2v-7.7c0-3.1 2.5-5.6 5.6-5.6 3.1 0 5.6 2.5 5.6 5.6z" fill="#ffd880"/></g><g><path d="m38.6 60.9h-11.2c-.5 0-.9-.4-.9-.9v-7.7c0-3.6 2.9-6.5 6.5-6.5s6.5 2.9 6.5 6.5v7.7c0 .4-.4.9-.9.9zm-10.3-1.9h9.3v-6.8c0-2.6-2.1-4.7-4.7-4.7s-4.7 2.1-4.7 4.7v6.8z" fill="#2a3c65"/></g><g><path d="m38.2 14.9c0 2.9-2.3 5.2-5.2 5.2s-5.2-2.3-5.2-5.2c0-2.8 2.3-5.2 5.2-5.2 2.8 0 5.2 2.4 5.2 5.2z" fill="#38fcc4"/><path d="m33 21c-3.4 0-6.1-2.7-6.1-6.1s2.8-6.1 6.1-6.1 6.1 2.8 6.1 6.1c0 3.4-2.7 6.1-6.1 6.1zm0-10.4c-2.4 0-4.3 1.9-4.3 4.3s1.9 4.3 4.3 4.3 4.3-1.9 4.3-4.3c0-2.3-2-4.3-4.3-4.3z" fill="#2a3c65"/></g><g><path d="m33 18.2c-.5 0-.9-.4-.9-.9v-2.4c0-.2 0-.3.1-.5l1.4-2.4c.3-.4.8-.6 1.3-.3.4.3.6.8.3 1.3l-1.3 2.2v2.1c0 .5-.4.9-.9.9z" fill="#2a3c65"/></g><g><path d="m55.5 27.1h-6.5c-.5 0-.9-.4-.9-.9s.4-.9.9-.9h6.5c.5 0 .9.4.9.9s-.3.9-.9.9z" fill="#2a3c65"/></g><g><path d="m55.5 32.9h-6.5c-.5 0-.9-.4-.9-.9s.4-.9.9-.9h6.5c.5 0 .9.4.9.9s-.3.9-.9.9z" fill="#2a3c65"/></g><g><path d="m55.5 38.8h-6.5c-.5 0-.9-.4-.9-.9s.4-.9.9-.9h6.5c.5 0 .9.4.9.9s-.3.9-.9.9z" fill="#2a3c65"/></g><g><path d="m55.5 44.7h-6.5c-.5 0-.9-.4-.9-.9s.4-.9.9-.9h6.5c.5 0 .9.4.9.9s-.3.9-.9.9z" fill="#2a3c65"/></g><g><path d="m55.5 50.6h-6.5c-.5 0-.9-.4-.9-.9s.4-.9.9-.9h6.5c.5 0 .9.4.9.9s-.3.9-.9.9z" fill="#2a3c65"/></g><g><path d="m55.5 56.4h-6.5c-.5 0-.9-.4-.9-.9s.4-.9.9-.9h6.5c.5 0 .9.4.9.9s-.3.9-.9.9z" fill="#2a3c65"/></g><g><path d="m17 27.1h-6.5c-.5 0-.9-.4-.9-.9s.4-.9.9-.9h6.5c.5 0 .9.4.9.9s-.4.9-.9.9z" fill="#2a3c65"/></g><g><path d="m17 32.9h-6.5c-.5 0-.9-.4-.9-.9s.4-.9.9-.9h6.5c.5 0 .9.4.9.9s-.4.9-.9.9z" fill="#2a3c65"/></g><g><path d="m17 38.8h-6.5c-.5 0-.9-.4-.9-.9s.3-.9.9-.9h6.5c.5 0 .9.4.9.9s-.4.9-.9.9z" fill="#2a3c65"/></g><g><path d="m17 44.7h-6.5c-.5 0-.9-.4-.9-.9s.4-.9.9-.9h6.5c.5 0 .9.4.9.9s-.4.9-.9.9z" fill="#2a3c65"/></g><g><path d="m17 50.6h-6.5c-.5 0-.9-.4-.9-.9s.4-.9.9-.9h6.5c.5 0 .9.4.9.9s-.4.9-.9.9z" fill="#2a3c65"/></g><g><path d="m17 56.4h-6.5c-.5 0-.9-.4-.9-.9s.4-.9.9-.9h6.5c.5 0 .9.4.9.9s-.4.9-.9.9z" fill="#2a3c65"/></g><g><path d="m64.1 60.9h-62.2c-.5 0-.9-.4-.9-.9s.4-1 .9-1h62.1c.5 0 .9.4.9.9s-.3 1-.8 1z" fill="#2a3c65"/></g></g></svg>