<svg id="Layer_1" height="512" viewBox="0 0 66 66" width="512" xmlns="http://www.w3.org/2000/svg"><g><g><path d="m4.7 23.5h56.4v38.7h-56.4z" fill="#c7d9f9"/></g><g><path d="m61.3 23.5v38.7h-3.3c-2.4-19-18.7-33.7-38.5-33.7h-14.8v-4.9h56.5v-.1z" fill="#b0cdf7"/></g><g><path d="m61.6 18.4h-57.2c-1.4 0-2.5 1.2-2.5 2.6 0 1.4 1.1 2.5 2.5 2.5h57c1.4 0 2.5-1.1 2.5-2.5" fill="#ff7daf"/></g><g><path d="m55.5 34.6v16.5c0 1.5-1.3 2.8-2.8 2.8h-17.2c-1.6 0-2.8-1.3-2.8-2.8v-16.5c0-1.5 1.3-2.8 2.8-2.8h17.2c1.5 0 2.7 1.2 2.8 2.6z" fill="#fecb4d"/></g><g><g><path d="m55.5 34.4-19.5 19.5h-.5c-1.6 0-2.8-1.3-2.8-2.8v-8.7l10.6-10.6h9.4c1.5 0 2.7 1.1 2.8 2.6z" fill="#ffd880"/></g><g><path d="m55.5 38.1v5.2l-10.6 10.6h-5.2z" fill="#ffd880"/></g></g><g><path d="m26.6 39.9v22.3h-16.1v-22.3c0-1.5 1.3-2.8 2.8-2.8h10.5c1.5 0 2.8 1.2 2.8 2.8z" fill="#27d1ff"/></g><g><path d="m55.1 6.6v4.1c0 1.6-1.3 2.8-2.8 2.8h-38.6c-1.6 0-2.8-1.3-2.8-2.8v-4.1c0-1.6 1.3-2.8 2.8-2.8h38.7c1.5 0 2.7 1.3 2.7 2.8z" fill="#38fcc4"/></g><g><path d="m13.7 6.6h38.7v4.1h-38.7z" fill="#1de9b6"/></g><g><path d="m18.2 13.5v4.9" fill="none"/></g><g><path d="m47.8 13.5v4.9" fill="none"/></g><g><path d="m2.9 62.2h60.2" fill="none"/></g><g><path d="m13.6 48.8v1.5" fill="none"/></g><g><path d="m61.3 63.2h-56.6c-.5 0-.9-.4-.9-.9v-35c0-.5.4-.9.9-.9s.9.4.9.9v34h54.6v-34c0-.5.4-.9.9-.9s.9.4.9.9v34.9c.2.6-.2 1-.7 1z" fill="#2a3c65"/></g><g><path d="m61.5 24.4h-57c-2 0-3.5-1.5-3.5-3.4 0-2 1.6-3.6 3.5-3.4h57c1.9 0 3.4 1.5 3.4 3.4s-1.5 3.4-3.4 3.4zm-57.2-5c-.8 0-1.4.7-1.4 1.6s.7 1.6 1.6 1.6h57c1 0 1.7-.7 1.7-1.6s-.7-1.6-1.6-1.6z" fill="#2a3c65"/></g><g><path d="m52.7 54.9h-17.2c-2.1 0-3.7-1.7-3.7-3.7v-16.6c0-2.1 1.7-3.7 3.7-3.7h17.2c2.1 0 3.7 1.6 3.7 3.7v16.5c.1 2.1-1.6 3.8-3.7 3.8zm-17.2-22.2c-1 0-1.9.8-1.9 1.9v16.5c0 1 .8 1.9 1.9 1.9h17.2c1 0 1.9-.8 1.9-1.9v-16.5c0-1.1-.8-1.9-1.9-1.9z" fill="#2a3c65"/></g><g><path d="m26.6 63.2h-16.1c-.5 0-.9-.4-.9-.9v-22.4c0-2 1.7-3.7 3.7-3.7h10.5c2.1 0 3.7 1.7 3.7 3.7v22.3c0 .6-.4 1-.9 1zm-15.2-1.9h14.3v-21.4c0-1-.8-1.9-1.9-1.9h-10.5c-1 0-1.9.9-1.9 1.9z" fill="#2a3c65"/></g><g><path d="m52.3 14.4h-38.6c-2.1 0-3.7-1.7-3.7-3.7v-4.1c0-2.1 1.7-3.7 3.7-3.7h38.7c2.1 0 3.7 1.7 3.7 3.7v4.1c0 2-1.7 3.7-3.8 3.7zm-38.6-9.7c-1 0-1.9.8-1.9 1.9v4.1c0 1 .8 1.9 1.9 1.9h38.7c1 0 1.9-.8 1.9-1.9v-4.1c0-1-.8-1.9-1.9-1.9z" fill="#2a3c65"/></g><g><path d="m18.2 19.3c-.5 0-.9-.4-.9-.9v-4.9c0-.5.4-.9.9-.9s.9.4.9.9v4.9c0 .5-.4.9-.9.9z" fill="#2a3c65"/></g><g><path d="m47.8 19.3c-.5 0-.9-.4-.9-.9v-4.9c0-.5.4-.9.9-.9s.9.4.9.9v4.9c.1.5-.4.9-.9.9z" fill="#2a3c65"/></g><g><path d="m63.1 63.2h-60.2c-.5 0-.9-.4-.9-.9s.4-.9.9-.9h60.1c.5 0 .9.4.9.9s-.3.9-.8.9z" fill="#2a3c65"/></g><g><path d="m13.6 51.3c-.5 0-.9-.4-.9-.9v-1.5c0-.5.4-.9.9-.9s.9.4.9.9v1.5c0 .4-.4.9-.9.9z" fill="#2a3c65"/></g></g></svg>