<svg id="Layer_1" height="512" viewBox="0 0 66 66" width="512" xmlns="http://www.w3.org/2000/svg"><g><g><path d="m41.3 4.9v9.2h-16.6v-6.6c0-1.3.9-2.5 2.2-2.8l10.7-2.7c1.9-.5 3.7 1 3.7 2.9z" fill="#38fcc4"/></g><g><path d="m41.3 4.9v9.2h-3.1v-4.8c0-1.9-1.8-3.2-3.6-2.8l-9.8 2.4v-1.4c0-1.3.9-2.5 2.2-2.8l10.7-2.7c1.8-.5 3.6 1 3.6 2.9z" fill="#1de9b6"/></g><g><path d="m41.3 11.1c-.5 0-1-.4-1-1v-5.2c0-.6-.3-1.1-.7-1.5s-1.1-.5-1.7-.4l-10.8 2.6c-.9.2-1.5 1-1.5 1.9v2.7c0 .5-.4 1-1 1s-1-.4-1-1v-2.7c0-1.8 1.2-3.3 2.9-3.7l10.8-2.6c1.2-.3 2.4 0 3.4.8.9.7 1.4 1.8 1.4 3v5.3c.2.4-.3.8-.8.8z" fill="#2a3c65"/></g><g><path d="m15.8 26.2h4v37.9h-6.9v-35c0-1.6 1.3-2.9 2.9-2.9z" fill="#b0cdf7"/></g><g><path d="m53.1 29.1v35h-6.9v-37.9h4.1c1.5 0 2.8 1.3 2.8 2.9z" fill="#b0cdf7"/></g><g><path d="m16 65h-3.1c-.5 0-1-.4-1-1v-35c0-2.1 1.7-3.9 3.9-3.9h.2c.5 0 1 .4 1 1s-.4 1-1 1h-.2c-1.1 0-1.9.9-1.9 1.9v34h2.1c.5 0 1 .4 1 1s-.5 1-1 1z" fill="#2a3c65"/></g><g><path d="m53.1 65h-3.1c-.5 0-1-.4-1-1s.4-1 1-1h2.1v-34c0-1.1-.9-1.9-1.9-1.9h-.2c-.5 0-1-.4-1-1s.4-1 1-1h.2c2.1 0 3.9 1.7 3.9 3.9v35c0 .6-.5 1-1 1z" fill="#2a3c65"/></g><g><g><path d="m46.2 17v36h-26.4v-36c0-1.6 1.3-2.9 2.9-2.9h20.6c1.6 0 2.9 1.3 2.9 2.9z" fill="#e3ecff"/></g><g><path d="m46.2 17v36h-3.9v-7.1c0-6.5-2.6-18.1-6.9-22.4-4-4-9.5-6.6-15.6-6.9.2-1.4 1.4-2.6 2.9-2.6h20.6c1.6.1 2.9 1.4 2.9 3z" fill="#c7d9f9"/></g><g><path d="m46.2 54h-26.4c-.5 0-1-.4-1-1v-36c0-2.1 1.7-3.9 3.9-3.9h20.6c2.1 0 3.9 1.7 3.9 3.9v36c0 .6-.5 1-1 1zm-25.4-1.9h24.5v-35.1c0-1.1-.9-1.9-1.9-1.9h-20.7c-1.1 0-1.9.9-1.9 1.9z" fill="#2a3c65"/></g></g><g><g><path d="m19.8 53h26.4v11h-26.4z" fill="#ffd880"/></g><g><path d="m46.2 65h-26.4c-.5 0-1-.4-1-1v-11c0-.5.4-1 1-1h26.4c.5 0 1 .4 1 1v11c0 .6-.5 1-1 1zm-25.4-1.9h24.5v-9.1h-24.5z" fill="#2a3c65"/></g></g><g><g><g><path d="m39.3 18.7v3.1c0 .5-.4 1-1 1h-10.6c-.5 0-1-.4-1-1v-3.1c0-.5.4-1 1-1h10.6c.5 0 .9.3.9.8.1 0 .1.1.1.2z" fill="#02beff"/></g><g><g><path d="m36.8 17.7-1.3 5.1h-4.4l1.2-5.1z" fill="#27d1ff"/></g></g><g><path d="m39.2 18.5-1 4.3h-1.6l1.2-5.1h.4c.6 0 1 .3 1 .8z" fill="#27d1ff"/></g><g><path d="m38.3 23.7h-10.6c-1.1 0-2-.9-2-2v-3.1c0-1.1.9-2 2-2h10.6c1.1 0 2 .9 2 2v3.1c0 1.2-.9 2-2 2zm-10.6-5.1v3.1h10.6v-3.1z" fill="#2a3c65"/></g></g><g><g><path d="m39.3 27.5v3.1c0 .5-.4 1-1 1h-10.6c-.5 0-1-.4-1-1v-3.1c0-.5.4-1 1-1h10.6c.5.1 1 .5 1 1z" fill="#02beff"/></g><g><path d="m34.5 26.6-1.2 5h-4.5l1.3-5z" fill="#27d1ff"/></g><g><path d="m37.2 26.6-1.3 5h-1.5l1.2-5z" fill="#27d1ff"/></g><g><path d="m38.3 32.6h-10.6c-1.1 0-2-.9-2-2v-3.1c0-1 .9-1.8 1.8-1.9h.2 10.6c1.1 0 2 .9 2 2v3.1c0 1-.9 1.9-2 1.9zm-10.5-5.1c-.1 0-.2.1-.2.1v3h10.6v-3.1z" fill="#2a3c65"/></g></g><g><g><path d="m39.3 36.4v3.1c0 .5-.4 1-1 1h-10.6c-.5 0-.9-.3-.9-.8s0-.1 0-.2v-3.1c0-.5.4-1 1-1h10.6c.4 0 .9.5.9 1z" fill="#02beff"/></g><g><path d="m32.2 35.4-1.2 5.1h-3.3c-.5 0-.9-.3-.9-.8l1-4.3z" fill="#27d1ff"/></g><g><path d="m34.9 35.4-1.2 5.1h-1.6l1.2-5.1z" fill="#27d1ff"/></g><g><path d="m38.3 41.5h-10.6c-1.1 0-2-.9-2-2v-3.1c0-1 .9-2 2-2h10.6c1.1 0 2 .9 2 2v3.1c0 1.1-.9 2-2 2zm-10.6-5.1v3.1h10.6v-3.1z" fill="#2a3c65"/></g></g><g><g><path d="m39.3 45.3v3.1c0 .5-.4 1-1 1h-10.6c-.5 0-.9-.3-.9-.8s0-.1 0-.2v-3.1c0-.5.4-1 1-1h10.6c.4 0 .9.4.9 1z" fill="#02beff"/></g><g><path d="m32.2 44.3-1.2 5.1h-3.3c-.5 0-.9-.3-.9-.8l1-4.3z" fill="#27d1ff"/></g><g><path d="m34.9 44.3-1.2 5.1h-1.6l1.2-5.1z" fill="#27d1ff"/></g><g><path d="m38.3 50.4h-10.6c-1.1 0-2-.9-2-2v-3.1c0-1.1.9-2 2-2h10.6c1.1 0 2 .9 2 2v3.1c0 1.1-.9 2-2 2zm-10.6-5.1v3.1h10.6v-3.1z" fill="#2a3c65"/></g></g></g><g><path d="m57.3 65h-48.6c-.5 0-1-.4-1-1s.4-1 1-1h48.6c.5 0 1 .4 1 1s-.5 1-1 1z" fill="#2a3c65"/></g></g></svg>