<svg id="Layer_1" height="512" viewBox="0 0 66 66" width="512" xmlns="http://www.w3.org/2000/svg"><g><g><path d="m6.6 13.2h52.8v44.2h-52.8z" fill="#c7d9f9"/></g><g><path d="m59.4 13.2v3.9h-4.8c-12.2 0-23.3 5-31.3 13-7.1 7.1-11.9 16.7-12.8 27.3h-4v-44.2z" fill="#b0cdf7"/></g><g><path d="m59.4 58.4h-52.8c-.6 0-1-.4-1-1v-28.2c0-.6.4-1 1-1s1 .4 1 1v27.2h50.7v-27.2c0-.6.4-1 1-1s1 .4 1 1v28.2c.1.6-.4 1-.9 1z" fill="#2a3c65"/></g><g><path d="m62.1 11c0-1.3-1.1-2.4-2.4-2.4h-53.4c-1.3 0-2.4 1.1-2.4 2.4 0 1.3 1.1 2.4 2.4 2.4h53.4c1.4-.2 2.4-1.1 2.4-2.4z" fill="#e3ecff"/></g><g><path d="m59.8 14.3h-53.5c-1.8 0-3.4-1.6-3.4-3.4s1.6-3.4 3.4-3.4h53.3c1.8 0 3.4 1.6 3.4 3.4.1 1.8-1.3 3.3-3.2 3.4zm-53.5-4.7c-.7 0-1.4.7-1.4 1.4s.7 1.4 1.4 1.4h53.4c.8-.1 1.3-.7 1.3-1.4s-.7-1.4-1.4-1.4z" fill="#2a3c65"/></g><g><path d="m61.2 58.4h-56.4c-.6 0-1-.4-1-1s.4-1 1-1h56.3c.6 0 1 .4 1 1s-.4 1-.9 1z" fill="#2a3c65"/></g><g><path d="m50.9 25.2c-1.9 0-3.5-1.2-4-3l-2.5-8.9h7.6l2.8 5.9c1.2 2.8-.8 6-3.9 6z" fill="#ff7daf"/></g><g><path d="m14.1 13.2h7.6l-2.5 8.9c-.5 1.8-2.2 3-4 3-3.1 0-5.1-3.2-3.8-6z" fill="#ff7daf"/></g><g><path d="m36.8 13.2.7 7.1c.3 2.6-1.8 4.9-4.5 4.9-2.6 0-4.7-2.3-4.4-4.9l.7-7.1z" fill="#ff7daf"/></g><g><path d="m50.9 26.2c-2.3 0-4.3-1.5-5-3.7l-2.5-8.9c-.1-.3 0-.6.2-.9.2-.2.5-.4.8-.4h7.6c.4 0 .7.2.9.6l2.8 5.9c.7 1.7.6 3.6-.4 5.1-1 1.4-2.7 2.3-4.4 2.3zm-5.2-11.9 2.1 7.6c.4 1.4 1.6 2.3 3 2.3 1.1 0 2.1-.5 2.7-1.5.6-.9.7-2.1.3-3.1l-2.5-5.3z" fill="#2a3c65"/></g><g><path d="m15.2 26.1c-1.8 0-3.4-.9-4.4-2.4s-1.1-3.4-.3-5l2.7-5.9c.2-.4.5-.6.9-.6h7.6c.3 0 .6.1.8.4.2.2.3.6.2.9l-2.5 8.9c-.6 2.2-2.7 3.7-5 3.7zm-.4-11.8-2.4 5.3c-.5 1-.4 2.2.2 3.1s1.6 1.5 2.7 1.5c1.4 0 2.7-1 3-2.3l2.1-7.6z" fill="#2a3c65"/></g><g><path d="m33 26.2c-1.5 0-3-.7-4.1-1.8-1-1.1-1.5-2.7-1.3-4.2l.7-7.1c.1-.5.5-.9 1-.9h7.5c.5 0 .9.4 1 .9l.7 7.1c.2 1.5-.3 3-1.3 4.1-1.1 1.2-2.6 1.9-4.2 1.9zm-2.8-11.9-.6 6.2c-.1 1 .2 1.9.8 2.6.7.7 1.6 1.2 2.6 1.2s2-.4 2.7-1.2c.6-.7.9-1.6.8-2.6l-.6-6.2z" fill="#2a3c65"/></g><g><path d="m21.7 13.2h7.5l-.8 8c-.2 2.3-2.1 4-4.4 4-2.9 0-5-2.8-4.2-5.6z" fill="#27d1ff"/></g><g><path d="m60.1 25.2c-1.5 0-2.9-.9-3.5-2.2l-4.6-9.7h7.5l3.9 5.8c1.7 2.6-.2 6.1-3.3 6.1z" fill="#27d1ff"/></g><g><path d="m6.6 13.2h7.6l-4.7 9.8c-.7 1.4-2 2.2-3.6 2.2-3.1 0-5-3.5-3.3-6.1z" fill="#27d1ff"/></g><g><path d="m46.2 19.6c.8 2.8-1.3 5.6-4.2 5.6-2.3 0-4.2-1.7-4.4-4l-.8-8h7.5z" fill="#27d1ff"/></g><g><path d="m24 26.2c-1.7 0-3.3-.8-4.3-2.1-1-1.4-1.3-3.1-.9-4.7l1.9-6.4c.1-.4.5-.7 1-.7h7.5c.3 0 .6.1.7.3.2.2.3.5.3.8l-.8 8c-.2 2.7-2.6 4.8-5.4 4.8zm-1.5-11.9-1.7 5.7c-.3 1-.1 2.1.6 3 .6.9 1.6 1.3 2.7 1.3 1.8 0 3.2-1.3 3.4-3.1l.7-6.9z" fill="#2a3c65"/></g><g><path d="m60.1 26.2c-1.9 0-3.6-1.1-4.4-2.8l-4.6-9.7c-.1-.3-.1-.7.1-1s.5-.5.8-.5h7.5c.3 0 .6.2.8.4l3.9 5.8c1 1.5 1.1 3.4.2 5-.9 1.8-2.5 2.8-4.3 2.8zm-6.5-11.9 3.9 8.2c.4 1 1.5 1.6 2.6 1.6s2-.6 2.6-1.6c.5-1 .5-2.1-.1-3l-3.6-5.3h-5.4z" fill="#2a3c65"/></g><g><path d="m5.9 26.2c-1.8 0-3.4-1-4.3-2.6s-.8-3.5.2-5l4-5.9c.2-.3.5-.4.8-.4h7.6c.3 0 .7.2.8.5.2.3.2.7.1 1l-4.7 9.8c-.9 1.6-2.5 2.6-4.5 2.6zm1.3-11.9-3.7 5.4c-.6.9-.6 2-.1 3s1.5 1.6 2.6 1.6c1.2 0 2.2-.6 2.7-1.6l4-8.3h-5.5z" fill="#2a3c65"/></g><g><path d="m42 26.2c-2.8 0-5.1-2.1-5.4-4.9l-.8-8c0-.3.1-.6.3-.8s.5-.3.7-.3h7.5c.4 0 .8.3 1 .7l1.9 6.4c.5 1.6.2 3.4-.9 4.7-1.1 1.4-2.6 2.2-4.3 2.2zm-4.1-11.9.7 6.9c.2 1.8 1.6 3.1 3.4 3.1 1.1 0 2-.5 2.7-1.3.6-.9.8-1.9.6-3l-1.7-5.7z" fill="#2a3c65"/></g><g><path d="m54.2 31.6v15.5c0 1.5-1.2 2.6-2.6 2.6h-16.2c-1.5 0-2.6-1.2-2.6-2.6v-15.5c0-1.5 1.2-2.6 2.6-2.6h16.2c1.4-.1 2.6 1.1 2.6 2.6z" fill="#1de9b6"/></g><g><g><path d="m54.2 31.6v.2l-18 18h-.8c-1.5 0-2.6-1.2-2.6-2.6v-9.7l8.4-8.4h10.4c1.4-.2 2.6 1 2.6 2.5z" fill="#38fcc4"/></g><g><path d="m54.2 35.7v5.6l-8.5 8.4h-5.6z" fill="#38fcc4"/></g></g><g><path d="m27 36.6v20.8h-15.2v-20.8c0-1.5 1.2-2.6 2.6-2.6h9.8c1.6-.1 2.8 1.1 2.8 2.6z" fill="#ffd880"/></g><g><path d="m14.8 44.9v1.4" fill="none"/></g><g><path d="m51.6 50.7h-16.2c-2 0-3.6-1.6-3.6-3.6v-15.5c0-2 1.6-3.6 3.6-3.6h16.2.2c1.9 0 3.4 1.6 3.4 3.6v15.5c0 2-1.6 3.6-3.6 3.6zm-16.2-20.7c-.9 0-1.6.7-1.6 1.6v15.5c0 .9.7 1.6 1.6 1.6h16.2c.9 0 1.6-.7 1.6-1.6v-15.5c0-.9-.7-1.6-1.4-1.6 0 0-.1 0-.2 0z" fill="#2a3c65"/></g><g><path d="m27 58.4h-15.2c-.6 0-1-.4-1-1v-20.8c0-2 1.6-3.6 3.6-3.6h9.8.2c2 0 3.6 1.6 3.6 3.6v20.8c0 .6-.4 1-1 1zm-14.2-2h13.2v-19.8c0-.9-.7-1.6-1.6-1.6h-.1-9.9c-.9 0-1.6.7-1.6 1.6z" fill="#2a3c65"/></g><g><path d="m14.8 47.3c-.6 0-1-.4-1-1v-1.4c0-.6.4-1 1-1s1 .4 1 1v1.4c0 .5-.4 1-1 1z" fill="#2a3c65"/></g></g></svg>