<svg id="Layer_1" height="512" viewBox="0 0 66 66" width="512" xmlns="http://www.w3.org/2000/svg"><g><g><path d="m9.2 29.4v34.6h7.7v-37.6h-4.7c-1.6 0-3 1.3-3 3z" fill="#1de9b6"/></g><g><path d="m49.1 26.4v37.6h7.7v-34.6c0-1.7-1.3-3-3-3z" fill="#1de9b6"/></g><g><path d="m13.9 65h-4.7c-.6 0-1-.4-1-1v-34.6c0-2.2 1.8-4 4-4h1.7c.6 0 1 .4 1 1s-.4 1-1 1h-1.7c-1.1 0-2 .9-2 2v33.6h3.7c.6 0 1 .4 1 1s-.4 1-1 1z" fill="#2a3c65"/></g><g><path d="m16.9 23.2v40.8h7.8v-43.8h-4.8c-1.7 0-3 1.3-3 3z" fill="#fecb4d"/></g><g><path d="m49.1 23.2v40.8h-7.8v-43.8h4.8c1.7 0 3 1.3 3 3z" fill="#fecb4d"/></g><g><path d="m21.8 65h-4.9c-.6 0-1-.4-1-1v-40.8c0-2.2 1.8-4 4-4h1.9c.6 0 1 .4 1 1s-.4 1-1 1h-1.9c-1.1 0-2 .9-2 2v39.8h3.9c.6 0 1 .4 1 1s-.4 1-1 1z" fill="#2a3c65"/></g><g><path d="m56.8 65h-4.7c-.6 0-1-.4-1-1s.4-1 1-1h3.7v-33.6c0-1.1-.9-2-2-2h-1.7c-.6 0-1-.4-1-1s.4-1 1-1h1.7c2.2 0 4 1.8 4 4v34.6c0 .6-.5 1-1 1z" fill="#2a3c65"/></g><g><path d="m49.1 65h-4.8c-.6 0-1-.4-1-1s.4-1 1-1h3.8v-39.8c0-1.1-.9-2-2-2h-1.8c-.6 0-1-.4-1-1s.4-1 1-1h1.8c2.2 0 4 1.8 4 4v40.8c0 .6-.5 1-1 1z" fill="#2a3c65"/></g><g><path d="m45.9 26.1h-1.4c-.6 0-1-.4-1-1s.4-1 1-1h1.4c.6 0 1 .4 1 1s-.5 1-1 1z" fill="#2a3c65"/></g><g><path d="m45.9 29.8h-1.4c-.6 0-1-.4-1-1s.4-1 1-1h1.4c.6 0 1 .4 1 1s-.5 1-1 1z" fill="#2a3c65"/></g><g><path d="m45.9 33.6h-1.4c-.6 0-1-.4-1-1s.4-1 1-1h1.4c.6 0 1 .4 1 1s-.5 1-1 1z" fill="#2a3c65"/></g><g><path d="m45.9 37.3h-1.4c-.6 0-1-.4-1-1s.4-1 1-1h1.4c.6 0 1 .4 1 1s-.5 1-1 1z" fill="#2a3c65"/></g><g><path d="m45.9 41h-1.4c-.6 0-1-.4-1-1s.4-1 1-1h1.4c.6 0 1 .4 1 1s-.5 1-1 1z" fill="#2a3c65"/></g><g><path d="m45.9 44.7h-1.4c-.6 0-1-.4-1-1s.4-1 1-1h1.4c.6 0 1 .4 1 1s-.5 1-1 1z" fill="#2a3c65"/></g><g><path d="m45.9 48.5h-1.4c-.6 0-1-.4-1-1s.4-1 1-1h1.4c.6 0 1 .4 1 1s-.5 1-1 1z" fill="#2a3c65"/></g><g><path d="m45.9 52.2h-1.4c-.6 0-1-.4-1-1s.4-1 1-1h1.4c.6 0 1 .4 1 1s-.5 1-1 1z" fill="#2a3c65"/></g><g><path d="m45.9 55.9h-1.4c-.6 0-1-.4-1-1s.4-1 1-1h1.4c.6 0 1 .4 1 1s-.5 1-1 1z" fill="#2a3c65"/></g><g><path d="m45.9 59.7h-1.4c-.6 0-1-.4-1-1s.4-1 1-1h1.4c.6 0 1 .4 1 1s-.5 1-1 1z" fill="#2a3c65"/></g><g><path d="m45.9 26.1h-1.4c-.6 0-1-.4-1-1s.4-1 1-1h1.4c.6 0 1 .4 1 1s-.5 1-1 1z" fill="#2a3c65"/></g><g><path d="m45.9 29.8h-1.4c-.6 0-1-.4-1-1s.4-1 1-1h1.4c.6 0 1 .4 1 1s-.5 1-1 1z" fill="#2a3c65"/></g><g><path d="m45.9 33.6h-1.4c-.6 0-1-.4-1-1s.4-1 1-1h1.4c.6 0 1 .4 1 1s-.5 1-1 1z" fill="#2a3c65"/></g><g><path d="m45.9 37.3h-1.4c-.6 0-1-.4-1-1s.4-1 1-1h1.4c.6 0 1 .4 1 1s-.5 1-1 1z" fill="#2a3c65"/></g><g><path d="m45.9 41h-1.4c-.6 0-1-.4-1-1s.4-1 1-1h1.4c.6 0 1 .4 1 1s-.5 1-1 1z" fill="#2a3c65"/></g><g><path d="m45.9 44.7h-1.4c-.6 0-1-.4-1-1s.4-1 1-1h1.4c.6 0 1 .4 1 1s-.5 1-1 1z" fill="#2a3c65"/></g><g><path d="m45.9 48.5h-1.4c-.6 0-1-.4-1-1s.4-1 1-1h1.4c.6 0 1 .4 1 1s-.5 1-1 1z" fill="#2a3c65"/></g><g><path d="m45.9 52.2h-1.4c-.6 0-1-.4-1-1s.4-1 1-1h1.4c.6 0 1 .4 1 1s-.5 1-1 1z" fill="#2a3c65"/></g><g><path d="m45.9 55.9h-1.4c-.6 0-1-.4-1-1s.4-1 1-1h1.4c.6 0 1 .4 1 1s-.5 1-1 1z" fill="#2a3c65"/></g><g><path d="m45.9 59.7h-1.4c-.6 0-1-.4-1-1s.4-1 1-1h1.4c.6 0 1 .4 1 1s-.5 1-1 1z" fill="#2a3c65"/></g><g><path d="m53.6 31.3h-1.3c-.6 0-1-.4-1-1s.4-1 1-1h1.3c.6 0 1 .4 1 1s-.5 1-1 1z" fill="#2a3c65"/></g><g><path d="m53.6 35h-1.3c-.6 0-1-.4-1-1s.4-1 1-1h1.3c.6 0 1 .4 1 1s-.5 1-1 1z" fill="#2a3c65"/></g><g><path d="m53.6 38.7h-1.3c-.6 0-1-.4-1-1s.4-1 1-1h1.3c.6 0 1 .4 1 1s-.5 1-1 1z" fill="#2a3c65"/></g><g><path d="m53.6 42.5h-1.3c-.6 0-1-.4-1-1s.4-1 1-1h1.3c.6 0 1 .4 1 1s-.5 1-1 1z" fill="#2a3c65"/></g><g><path d="m53.6 46.2h-1.3c-.6 0-1-.4-1-1s.4-1 1-1h1.3c.6 0 1 .4 1 1s-.5 1-1 1z" fill="#2a3c65"/></g><g><path d="m53.6 49.9h-1.3c-.6 0-1-.4-1-1s.4-1 1-1h1.3c.6 0 1 .4 1 1s-.5 1-1 1z" fill="#2a3c65"/></g><g><path d="m53.6 53.6h-1.3c-.6 0-1-.4-1-1s.4-1 1-1h1.3c.6 0 1 .4 1 1s-.5 1-1 1z" fill="#2a3c65"/></g><g><path d="m53.6 57.4h-1.3c-.6 0-1-.4-1-1s.4-1 1-1h1.3c.6 0 1 .4 1 1s-.5 1-1 1z" fill="#2a3c65"/></g><g><path d="m53.6 61.1h-1.3c-.6 0-1-.4-1-1s.4-1 1-1h1.3c.6 0 1 .4 1 1s-.5 1-1 1z" fill="#2a3c65"/></g><g><path d="m21.5 25.6h-1.4c-.6 0-1-.4-1-1s.4-1 1-1h1.4c.6 0 1 .4 1 1s-.4 1-1 1z" fill="#2a3c65"/></g><g><path d="m21.5 29.3h-1.4c-.6 0-1-.4-1-1s.4-1 1-1h1.4c.6 0 1 .4 1 1s-.4 1-1 1z" fill="#2a3c65"/></g><g><path d="m21.5 33h-1.4c-.6 0-1-.4-1-1s.4-1 1-1h1.4c.6 0 1 .4 1 1s-.4 1-1 1z" fill="#2a3c65"/></g><g><path d="m21.5 36.8h-1.4c-.6 0-1-.4-1-1s.4-1 1-1h1.4c.6 0 1 .4 1 1s-.4 1-1 1z" fill="#2a3c65"/></g><g><path d="m21.5 40.5h-1.4c-.6 0-1-.4-1-1s.4-1 1-1h1.4c.6 0 1 .4 1 1s-.4 1-1 1z" fill="#2a3c65"/></g><g><path d="m21.5 44.2h-1.4c-.6 0-1-.4-1-1s.4-1 1-1h1.4c.6 0 1 .4 1 1s-.4 1-1 1z" fill="#2a3c65"/></g><g><path d="m21.5 48h-1.4c-.6 0-1-.4-1-1s.4-1 1-1h1.4c.6 0 1 .4 1 1s-.4 1-1 1z" fill="#2a3c65"/></g><g><path d="m21.5 51.7h-1.4c-.6 0-1-.4-1-1s.4-1 1-1h1.4c.6 0 1 .4 1 1s-.4 1-1 1z" fill="#2a3c65"/></g><g><path d="m21.5 55.4h-1.4c-.6 0-1-.4-1-1s.4-1 1-1h1.4c.6 0 1 .4 1 1s-.4 1-1 1z" fill="#2a3c65"/></g><g><path d="m21.5 59.1h-1.4c-.6 0-1-.4-1-1s.4-1 1-1h1.4c.6 0 1 .4 1 1s-.4 1-1 1z" fill="#2a3c65"/></g><g><path d="m13.8 30.8h-1.4c-.6 0-1-.4-1-1s.4-1 1-1h1.4c.6 0 1 .4 1 1s-.4 1-1 1z" fill="#2a3c65"/></g><g><path d="m13.8 34.5h-1.4c-.6 0-1-.4-1-1s.4-1 1-1h1.4c.6 0 1 .4 1 1s-.4 1-1 1z" fill="#2a3c65"/></g><g><path d="m13.8 38.2h-1.4c-.6 0-1-.4-1-1s.4-1 1-1h1.4c.6 0 1 .4 1 1s-.4 1-1 1z" fill="#2a3c65"/></g><g><path d="m13.8 41.9h-1.4c-.6 0-1-.4-1-1s.4-1 1-1h1.4c.6 0 1 .4 1 1s-.4 1-1 1z" fill="#2a3c65"/></g><g><path d="m13.8 45.7h-1.4c-.6 0-1-.4-1-1s.4-1 1-1h1.4c.6 0 1 .4 1 1s-.4 1-1 1z" fill="#2a3c65"/></g><g><path d="m13.8 49.4h-1.4c-.6 0-1-.4-1-1s.4-1 1-1h1.4c.6 0 1 .4 1 1s-.4 1-1 1z" fill="#2a3c65"/></g><g><path d="m13.8 53.1h-1.4c-.6 0-1-.4-1-1s.4-1 1-1h1.4c.6 0 1 .4 1 1s-.4 1-1 1z" fill="#2a3c65"/></g><g><path d="m13.8 56.9h-1.4c-.6 0-1-.4-1-1s.4-1 1-1h1.4c.6 0 1 .4 1 1s-.4 1-1 1z" fill="#2a3c65"/></g><g><path d="m13.8 60.6h-1.4c-.6 0-1-.4-1-1s.4-1 1-1h1.4c.6 0 1 .4 1 1s-.4 1-1 1z" fill="#2a3c65"/></g><g><path d="m59.6 65h-53.2c-.6 0-1-.4-1-1s.4-1 1-1h53.1c.6 0 1 .4 1 1s-.4 1-.9 1z" fill="#2a3c65"/></g><g><path d="m24.8 9.8h16.5v54.2h-16.5z" fill="#c7d9f9"/></g><g><path d="m41.3 9.8v54.2h-14.1c4.6 0 8.3-3.7 8.3-8.3v-37.7c0-2.3-.9-4.3-2.4-5.8s-3.6-2.4-5.8-2.4z" fill="#b0cdf7"/></g><g><path d="m41.3 65h-16.5c-.6 0-1-.4-1-1v-54.2c0-.6.4-1 1-1h16.5c.6 0 1 .4 1 1v54.2c0 .6-.5 1-1 1zm-15.5-2h14.5v-52.2h-14.5z" fill="#2a3c65"/></g><g><path d="m33 4.2-8.2 5.6h16.5z" fill="#ff5892"/></g><g><path d="m41.3 10.8h-16.5c-.4 0-.8-.3-1-.7-.1-.4 0-.9.4-1.1l8.2-5.6c.3-.2.8-.2 1.1 0l8.4 5.6c.4.2.5.7.4 1.1-.2.4-.6.7-1 .7zm-13.3-2h10l-5-3.4z" fill="#2a3c65"/></g><g><path d="m33 5.2c-.6 0-1-.4-1-1v-2.2c0-.6.4-1 1-1s1 .4 1 1v2.2c0 .6-.4 1-1 1z" fill="#2a3c65"/></g><g><path d="m24.8 13.9h16.5v4.7h-16.5z" fill="#02beff"/></g><g><path d="m41.3 19.6h-16.5c-.6 0-1-.4-1-1v-4.7c0-.6.4-1 1-1h16.5c.6 0 1 .4 1 1v4.7c0 .6-.5 1-1 1zm-15.5-2h14.5v-2.7h-14.5z" fill="#2a3c65"/></g><g><path d="m37.5 19.5c-.6 0-1-.4-1-1v-4.6c0-.6.4-1 1-1s1 .4 1 1v4.6c0 .6-.5 1-1 1z" fill="#2a3c65"/></g><g><path d="m33 19.5c-.6 0-1-.4-1-1v-4.6c0-.6.4-1 1-1s1 .4 1 1v4.6c0 .6-.4 1-1 1z" fill="#2a3c65"/></g><g><path d="m28.5 19.5c-.6 0-1-.4-1-1v-4.6c0-.6.4-1 1-1s1 .4 1 1v4.6c0 .6-.4 1-1 1z" fill="#2a3c65"/></g><g><path d="m37.5 60.6c-.6 0-1-.4-1-1v-1.8c0-.6.4-1 1-1s1 .4 1 1v1.8c0 .6-.5 1-1 1z" fill="#2a3c65"/></g><g><path d="m33 60.6c-.6 0-1-.4-1-1v-1.8c0-.6.4-1 1-1s1 .4 1 1v1.8c0 .6-.4 1-1 1z" fill="#2a3c65"/></g><g><path d="m28.5 60.6c-.6 0-1-.4-1-1v-1.8c0-.6.4-1 1-1s1 .4 1 1v1.8c0 .6-.4 1-1 1z" fill="#2a3c65"/></g><g><path d="m37.5 54.7c-.6 0-1-.4-1-1v-1.8c0-.6.4-1 1-1s1 .4 1 1v1.8c0 .6-.5 1-1 1z" fill="#2a3c65"/></g><g><path d="m33 54.7c-.6 0-1-.4-1-1v-1.8c0-.6.4-1 1-1s1 .4 1 1v1.8c0 .6-.4 1-1 1z" fill="#2a3c65"/></g><g><path d="m28.5 54.7c-.6 0-1-.4-1-1v-1.8c0-.6.4-1 1-1s1 .4 1 1v1.8c0 .6-.4 1-1 1z" fill="#2a3c65"/></g><g><path d="m37.5 48.8c-.6 0-1-.4-1-1v-1.7c0-.6.4-1 1-1s1 .4 1 1v1.7c0 .6-.5 1-1 1z" fill="#2a3c65"/></g><g><path d="m33 48.8c-.6 0-1-.4-1-1v-1.7c0-.6.4-1 1-1s1 .4 1 1v1.7c0 .6-.4 1-1 1z" fill="#2a3c65"/></g><g><path d="m28.5 48.8c-.6 0-1-.4-1-1v-1.7c0-.6.4-1 1-1s1 .4 1 1v1.7c0 .6-.4 1-1 1z" fill="#2a3c65"/></g><g><path d="m37.5 42.9c-.6 0-1-.4-1-1v-1.7c0-.6.4-1 1-1s1 .4 1 1v1.7c0 .6-.5 1-1 1z" fill="#2a3c65"/></g><g><path d="m33 42.9c-.6 0-1-.4-1-1v-1.7c0-.6.4-1 1-1s1 .4 1 1v1.7c0 .6-.4 1-1 1z" fill="#2a3c65"/></g><g><path d="m28.5 42.9c-.6 0-1-.4-1-1v-1.7c0-.6.4-1 1-1s1 .4 1 1v1.7c0 .6-.4 1-1 1z" fill="#2a3c65"/></g><g><path d="m37.5 37c-.6 0-1-.4-1-1v-1.7c0-.6.4-1 1-1s1 .4 1 1v1.7c0 .6-.5 1-1 1z" fill="#2a3c65"/></g><g><path d="m33 37c-.6 0-1-.4-1-1v-1.7c0-.6.4-1 1-1s1 .4 1 1v1.7c0 .6-.4 1-1 1z" fill="#2a3c65"/></g><g><path d="m28.5 37c-.6 0-1-.4-1-1v-1.7c0-.6.4-1 1-1s1 .4 1 1v1.7c0 .6-.4 1-1 1z" fill="#2a3c65"/></g><g><path d="m37.5 31.1c-.6 0-1-.4-1-1v-1.7c0-.6.4-1 1-1s1 .4 1 1v1.7c0 .6-.5 1-1 1z" fill="#2a3c65"/></g><g><path d="m33 31.1c-.6 0-1-.4-1-1v-1.7c0-.6.4-1 1-1s1 .4 1 1v1.7c0 .6-.4 1-1 1z" fill="#2a3c65"/></g><g><path d="m28.5 31.1c-.6 0-1-.4-1-1v-1.7c0-.6.4-1 1-1s1 .4 1 1v1.7c0 .6-.4 1-1 1z" fill="#2a3c65"/></g><g><path d="m37.5 25.2c-.6 0-1-.4-1-1v-1.7c0-.6.4-1 1-1s1 .4 1 1v1.7c0 .6-.5 1-1 1z" fill="#2a3c65"/></g><g><path d="m33 25.2c-.6 0-1-.4-1-1v-1.7c0-.6.4-1 1-1s1 .4 1 1v1.7c0 .6-.4 1-1 1z" fill="#2a3c65"/></g><g><path d="m28.5 25.2c-.6 0-1-.4-1-1v-1.7c0-.6.4-1 1-1s1 .4 1 1v1.7c0 .6-.4 1-1 1z" fill="#2a3c65"/></g></g></svg>