<svg id="Layer_1" height="512" viewBox="0 0 66 66" width="512" xmlns="http://www.w3.org/2000/svg"><g><g><path d="m4.8 15.4h23.5v46.5h-23.5z" fill="#b0cdf7"/></g><g><path d="m28.3 15.4v46.5h-17.8c6.5 0 11.7-5.3 11.7-11.7v-23c0-3.2-1.3-6.2-3.4-8.3s-5.1-3.4-8.3-3.4h17.8z" fill="#c7d9f9"/></g><g><path d="m30.2 12.7v.8c0 1.1-.9 1.9-1.9 1.9h-23.4c-1.1 0-1.9-.9-1.9-1.9v-.8c0-1.1.9-1.9 1.9-1.9h23.3c1.1-.1 2 .8 2 1.9z" fill="#fecb4d"/></g><g><path d="m63 26.4v1.8c0 1.1-.9 1.9-1.9 1.9h-32.8v-5.6h32.8c1.1-.1 1.9.8 1.9 1.9z" fill="#ffd880"/></g><g><path d="m28.3 30.1h32.8v31.8h-32.8z" fill="#c7d9f9"/></g><g><path d="m61.2 30.1v2.2c-16.3.6-29.5 13.5-30.6 29.6h-2.2v-31.8z" fill="#b0cdf7"/></g><g><path d="m55.8 41.5v9c0 1.1-.9 1.9-1.9 1.9h-4.8c-1.1 0-1.9-.9-1.9-1.9v-9c0-1.1.9-1.9 1.9-1.9h4.8c1.1-.1 1.9.8 1.9 1.9z" fill="#02beff"/></g><g><path d="m42.3 41.5v9c0 1.1-.9 1.9-1.9 1.9h-4.8c-1.1 0-1.9-.9-1.9-1.9v-9c0-1.1.9-1.9 1.9-1.9h4.8c1.1-.1 1.9.8 1.9 1.9z" fill="#02beff"/></g><g><path d="m33.6 46h8.7" fill="none"/></g><g><path d="m47.1 46h8.7" fill="none"/></g><g><path d="m23.4 46.6v15.3h-13.7v-15.3c0-1.6 1.3-2.9 2.9-2.9h7.9c1.6 0 2.9 1.3 2.9 2.9z" fill="#ff7daf"/></g><g><path d="m20.3 6v4.7h-7.5v-4.7c0-1.1.9-1.9 1.9-1.9h3.6c1.2 0 2 .9 2 1.9z" fill="#1de9b6"/></g><g><path d="m48.5 19.7v4.7h-7.5v-4.7c0-1.1.9-1.9 1.9-1.9h3.6c1.1 0 2 .9 2 1.9z" fill="#cc87fe"/></g><g><path d="m2 61.9h62" fill="none"/></g><g><circle cx="16.6" cy="29.4" fill="#d5a6ff" r="5"/></g><g><path d="m28.3 62.9h-23.5c-.5 0-1-.4-1-1v-46.5c0-.5.4-1 1-1h23.5c.5 0 1 .4 1 1v46.5c0 .5-.5 1-1 1zm-22.6-2h21.6v-44.5h-21.6z" fill="#2a3c65"/></g><g><path d="m28.3 16.4h-23.4c-1.6 0-2.9-1.3-2.9-2.9v-.8c0-1.6 1.3-2.9 2.9-2.9h23.3.2c1.5 0 2.8 1.3 2.8 2.9v.8c0 1.6-1.3 2.9-2.9 2.9zm-23.4-4.6c-.4 0-.9.4-.9.9v.8c0 .4.4.9.9.9h23.4c.4 0 .9-.4.9-.9v-.8c0-.5-.4-.9-.9-.9 0 0-.1 0-.2 0z" fill="#2a3c65"/></g><g><path d="m61.1 31.1h-28.9c-.5 0-1-.4-1-1s.4-1 1-1h28.9c.6 0 .9-.5.9-.9v-1.8c0-.6-.5-.9-.9-.9h-28.9c-.5 0-1-.4-1-1s.4-1 1-1h28.9c1.6 0 2.9 1.3 2.9 2.9v1.8c0 1.6-1.3 2.9-2.9 2.9z" fill="#2a3c65"/></g><g><path d="m61.2 62.9h-32.9c-.5 0-1-.4-1-1v-28c0-.5.4-1 1-1s1 .4 1 1v27h31v-27c0-.5.4-1 1-1s1 .4 1 1v28c-.1.5-.5 1-1.1 1z" fill="#2a3c65"/></g><g><path d="m53.9 53.4h-4.8c-1.6 0-2.9-1.3-2.9-2.9v-9c0-1.6 1.3-2.9 2.9-2.9h4.8.2c1.5 0 2.7 1.3 2.7 2.9v9c0 1.6-1.3 2.9-2.9 2.9zm-4.8-12.8c-.4 0-.9.4-.9.9v9c0 .4.4.9.9.9h4.8c.4 0 .9-.4.9-.9v-9c0-.5-.3-.9-.8-.9 0 0-.1 0-.2 0z" fill="#2a3c65"/></g><g><path d="m40.4 53.4h-4.8c-1.6 0-2.9-1.3-2.9-2.9v-9c0-1.6 1.3-2.9 2.9-2.9h4.8.2c1.5 0 2.7 1.3 2.7 2.9v9c0 1.6-1.3 2.9-2.9 2.9zm-4.8-12.8c-.4 0-.9.4-.9.9v9c0 .4.4.9.9.9h4.8c.4 0 .9-.4.9-.9v-9c0-.5-.3-.9-.8-.9 0 0-.1 0-.2 0z" fill="#2a3c65"/></g><g><path d="m42.3 47h-8.7c-.5 0-1-.4-1-1s.4-1 1-1h8.7c.5 0 1 .4 1 1s-.5 1-1 1z" fill="#2a3c65"/></g><g><path d="m55.8 47h-8.7c-.5 0-1-.4-1-1s.4-1 1-1h8.7c.5 0 1 .4 1 1s-.4 1-1 1z" fill="#2a3c65"/></g><g><path d="m23.4 62.9h-13.7c-.5 0-1-.4-1-1v-15.3c0-2.1 1.7-3.9 3.9-3.9h7.9c2.1 0 3.9 1.7 3.9 3.9v15.3c0 .5-.5 1-1 1zm-12.8-2h11.8v-14.3c0-1.1-.9-1.9-1.9-1.9h-7.9c-1.1 0-1.9.9-1.9 1.9v14.3z" fill="#2a3c65"/></g><g><path d="m20.3 11.7h-7.5c-.5 0-1-.4-1-1v-4.7c0-1.6 1.3-2.9 2.9-2.9h3.6c1.7 0 3 1.3 3 2.9v4.7c0 .5-.5 1-1 1zm-6.6-2h5.6v-3.7c0-.5-.4-.9-1-.9h-3.6c-.4 0-.9.4-.9.9v3.7z" fill="#2a3c65"/></g><g><path d="m48.5 25.4h-7.5c-.5 0-1-.4-1-1v-4.7c0-1.6 1.3-2.9 2.9-2.9h3.6c1.6 0 3 1.3 3 2.9v4.7c0 .5-.4 1-1 1zm-6.5-2h5.6v-3.7c0-.4-.4-.9-1-.9h-3.6c-.4 0-.9.4-.9.9v3.7z" fill="#2a3c65"/></g><g><path d="m64 62.9h-62c-.5 0-1-.4-1-1s.4-1 1-1h62c.5 0 1 .4 1 1s-.4 1-1 1z" fill="#2a3c65"/></g><g><path d="m16.6 35.4c-3.3 0-6-2.7-6-6s2.7-6 6-6 6 2.7 6 6-2.7 6-6 6zm0-10c-2.2 0-4 1.8-4 4s1.8 4 4 4 4-1.8 4-4-1.8-4-4-4z" fill="#2a3c65"/></g></g></svg>