<svg id="Layer_1" height="512" viewBox="0 0 66 66" width="512" xmlns="http://www.w3.org/2000/svg"><g><g><g><path d="m5.8 25.6h16v35h-16z" fill="#c7d9f9"/></g><g><path d="m44.2 25.6h16v35h-16z" fill="#c7d9f9"/></g><g><path d="m5.3 20.9h16.5v4.6h-16.5c-1.3.1-2.3-1-2.3-2.3 0-1.2 1-2.3 2.3-2.3z" fill="#cc87fe"/></g><g><path d="m63 23.2c0 1.3-1.1 2.3-2.3 2.3h-16.5v-4.6h16.5c1.3 0 2.3 1.1 2.3 2.3z" fill="#cc87fe"/></g><g><path d="m44.2 16.6v44h-22.4v-44c0-1.1.9-1.8 1.8-1.8h18.8c1.1-.1 1.8.8 1.8 1.8z" fill="#fecb4d"/></g><g><path d="m44.2 16.7v5.4c-11.1.3-20.1 9.4-20.1 20.6v18h-2.4v-44c0-1.1.9-1.8 1.8-1.8h18.8c1.2-.2 1.9.7 1.9 1.8z" fill="#f9b826"/></g><g><path d="m30.7 7.7v7.1h4.6v-7.1c0-1.3-1.1-2.3-2.3-2.3-1.3 0-2.3 1-2.3 2.3z" fill="#ff5892"/></g><g><path d="m56 33.3v19.6c0 1.1-.9 1.8-1.8 1.8h-3.8c-1.1 0-1.8-.9-1.8-1.8v-19.6c0-1.1.9-1.8 1.8-1.8h3.8c1 0 1.8.7 1.8 1.8z" fill="#02beff"/></g><g><path d="m40.1 23.1v11.1c0 1.1-.9 1.8-1.8 1.8h-10.4c-.1 0-.1 0-.2 0-1-.1-1.7-.9-1.7-1.8v-11.1c0-1.1.9-1.8 1.8-1.8h10.4c1 0 1.9.8 1.9 1.8z" fill="#02beff"/></g><g><g><path d="m40.1 23.1v.7l-12.4 12.4c-1-.1-1.7-.9-1.7-1.8v-7.2l5.9-5.9h6.3c1 0 1.9.8 1.9 1.8z" fill="#27d1ff"/></g><g><path d="m40.1 26.4v3.9l-5.9 5.9h-3.8z" fill="#27d1ff"/></g></g><g><path d="m26.1 28.7h13.8" fill="none"/></g><g><path d="m26.5 49.4v11.2h12.9v-11.2c0-3.6-2.9-6.5-6.5-6.5-3.5.2-6.4 3-6.4 6.5z" fill="#e3ecff"/></g><g><path d="m10 33.3v9.9h7.5v-9.9c0-1.1-.9-1.8-1.8-1.8h-3.8c-1.1 0-1.9.7-1.9 1.8z" fill="#02beff"/></g><g><path d="m10 43.1v9.9c0 1.1.9 1.8 1.8 1.8h3.8c1.1 0 1.8-.9 1.8-1.8v-9.9z" fill="#02beff"/></g><g><path d="m18 61.6h-12.2c-.5 0-1-.4-1-1v-35c0-.5.4-1 1-1h12.2c.5 0 1 .4 1 1s-.4 1-1 1h-11.3v33.1h11.3c.5 0 1 .4 1 1s-.5.9-1 .9z" fill="#2a3c65"/></g><g><path d="m60.2 61.6h-12.2c-.5 0-1-.4-1-1s.4-1 1-1h11.2v-33h-11.2c-.5 0-1-.4-1-1s.4-1 1-1h12.2c.5 0 1 .4 1 1v35c0 .6-.4 1-1 1z" fill="#2a3c65"/></g><g><path d="m18 26.5h-12.7c-1.8 0-3.3-1.5-3.3-3.3 0-.9.4-1.7 1-2.3s1.5-1 2.3-1h12.7c.5 0 1 .4 1 1s-.4 1-1 1h-12.7c-.5 0-.8.3-1 .4-.1.1-.4.4-.4 1 0 .7.6 1.4 1.4 1.4h12.7c.5 0 1 .4 1 1s-.5.8-1 .8z" fill="#2a3c65"/></g><g><path d="m60.7 26.6h-12.7c-.5 0-1-.4-1-1s.4-1 1-1h12.7c.7 0 1.4-.6 1.4-1.4 0-.7-.6-1.4-1.4-1.4h-12.7c-.5 0-1-.4-1-1s.4-1 1-1h12.7c1.8 0 3.3 1.5 3.3 3.3s-1.5 3.5-3.3 3.5z" fill="#2a3c65"/></g><g><path d="m44.2 61.5h-22.4c-.5 0-1-.4-1-1v-44c0-1.5 1.3-2.8 2.8-2.8h18.8c1.5 0 2.8 1.3 2.8 2.8v44c0 .6-.4 1-1 1zm-21.5-1.9h20.5v-43c0-.4-.3-.9-.9-.9h-18.7c-.4 0-.9.3-.9.9z" fill="#2a3c65"/></g><g><path d="m35.3 15.7h-4.7c-.5 0-1-.4-1-1v-7c0-1.8 1.5-3.3 3.3-3.3s3.3 1.5 3.3 3.3v7.1c.1.5-.3.9-.9.9zm-3.7-1.9h2.7v-6.1c0-.7-.6-1.4-1.4-1.4s-1.3.7-1.3 1.4z" fill="#2a3c65"/></g><g><path d="m56 44.1h-7.5c-.5 0-1-.4-1-1v-9.9c0-1.5 1.3-2.8 2.8-2.8h3.8c1.5 0 2.8 1.3 2.8 2.8v9.9c0 .6-.4 1-.9 1zm-6.5-1.9h5.5v-8.9c0-.5-.5-.9-.9-.9h-3.8c-.4 0-.9.3-.9.9v8.9z" fill="#2a3c65"/></g><g><path d="m54.1 55.8h-3.8c-1.5 0-2.8-1.3-2.8-2.8v-9.9c0-.5.4-1 1-1h7.5c.5 0 1 .4 1 1v9.9c-.1 1.6-1.3 2.8-2.9 2.8zm-4.6-11.7v8.9c0 .5.5.9.9.9h3.8c.5 0 .9-.5.9-.9v-8.9z" fill="#2a3c65"/></g><g><path d="m38.1 37.1h-10.3c-1.5 0-2.8-1.3-2.8-2.8v-11.2c0-1.6 1.3-2.8 2.9-2.8h10.3c1.5 0 2.8 1.3 2.8 2.8v11.1c-.1 1.6-1.3 2.9-2.9 2.9zm-10.2-14.8c-.5 0-1 .3-1 .9v11.1c0 .5.5.9.9.9h10.4c.5 0 .9-.5.9-.9v-11.2c0-.5-.5-.9-.9-.9h-10.3z" fill="#2a3c65"/></g><g><path d="m39.9 29.7h-13.8c-.5 0-1-.4-1-1s.4-1 1-1h13.8c.5 0 1 .4 1 1s-.5 1-1 1z" fill="#2a3c65"/></g><g><path d="m39.4 61.6h-12.9c-.5 0-1-.4-1-1v-11.2c0-4.1 3.2-7.3 7.3-7.4 4.1 0 7.5 3.3 7.5 7.4v11.2c.1.6-.4 1-.9 1zm-11.9-1.9h10.9v-10.3c0-3-2.5-5.5-5.5-5.5-3 .1-5.4 2.5-5.4 5.5z" fill="#2a3c65"/></g><g><path d="m17.5 44.1h-7.5c-.5 0-1-.4-1-1v-9.9c0-1.6 1.2-2.8 2.8-2.8h3.8c1.5 0 2.8 1.3 2.8 2.8v9.9c.1.6-.4 1-.9 1zm-6.5-1.9h5.5v-8.9c0-.5-.5-.9-.9-.9h-3.8c-.5 0-.9.3-.9.9v8.9z" fill="#2a3c65"/></g><g><path d="m15.7 55.8h-3.8c-1.5 0-2.8-1.3-2.8-2.8v-9.9c0-.5.4-1 1-1h7.5c.5 0 1 .4 1 1v9.9c-.1 1.6-1.4 2.8-2.9 2.8zm-4.7-11.7v8.9c0 .5.5.9.9.9h3.8c.5 0 .9-.5.9-.9v-8.9z" fill="#2a3c65"/></g></g><g><path d="m64 61.6h-62c-.6 0-1-.4-1-1s.4-1 1-1h62c.6 0 1 .4 1 1s-.4 1-1 1z" fill="#2a3c65"/></g></g></svg>