<svg id="Layer_1" height="512" viewBox="0 0 66 66" width="512" xmlns="http://www.w3.org/2000/svg"><g><g><g><path d="m48.8 7.1v5.3c0 1.1-.9 1.9-1.9 1.9h-27.7c-1.1 0-1.9-.9-1.9-1.9v-5.3c0-1.1.9-1.9 1.9-1.9h27.7c1-.1 1.9.8 1.9 1.9z" fill="#ff7daf"/></g><g><path d="m20.1 8h25.7v3.3h-25.7z" fill="#ff5892"/></g><g><path d="m46.9 15.3h-27.7c-1.6 0-2.9-1.3-2.9-2.9v-5.3c0-1.6 1.3-2.9 2.9-2.9h27.7.2c1.5 0 2.7 1.3 2.7 2.9v5.3c0 1.6-1.3 2.9-2.9 2.9zm-27.7-9.1c-.4 0-.9.4-.9.9v5.3c0 .4.4.9.9.9h27.7c.4 0 .9-.4.9-.9v-5.3c0-.5-.4-.9-.8-.9 0 0-.1 0-.2 0z" fill="#2a3c65"/></g><g><path d="m5.2 19.2h55.6v41.6h-55.6z" fill="#02beff"/></g><g><path d="m51 19.2-41.6 41.7h-4.2v-17l24.7-24.7z" fill="#27d1ff"/></g><g><path d="m60.8 19.2v2.9l-38.7 38.8h-7.5l41.6-41.7z" fill="#27d1ff"/></g><g><path d="m60.8 28.7v7.5l-24.7 24.7h-7.5z" fill="#27d1ff"/></g><g><path d="m60.7 61.8h-55.5c-.5 0-1-.4-1-1v-41.6c0-.5.4-1 1-1h55.6c.5 0 1 .4 1 1v41.6c-.1.5-.5 1-1.1 1zm-54.6-2h53.6v-39.6h-53.6z" fill="#2a3c65"/></g><g><path d="m64 20.2h-62c-.5 0-1-.4-1-1s.4-1 1-1h62c.5 0 1 .4 1 1s-.4 1-1 1z" fill="#2a3c65"/></g><g><path d="m47.1 34.9v25.9h-28.2v-25.9c0-.6.2-1.2.5-1.6.5-.8 1.4-1.3 2.4-1.3h22.5c1.5 0 2.8 1.3 2.8 2.9z" fill="#c7d9f9"/></g><g><g><path d="m47.1 53v7.9h-7.9l-17.5-28.9h12.7z" fill="#e3ecff"/></g><g><path d="m36.1 60.9h-4.5l-12.7-21v-5c0-.6.2-1.2.5-1.6z" fill="#e3ecff"/></g></g><g><path d="m47.1 61.8h-28.2c-.5 0-1-.4-1-1v-25.9c0-2.1 1.7-3.9 3.9-3.9h22.5c2 0 3.8 1.8 3.8 3.9v25.9c0 .5-.5 1-1 1zm-27.2-2h26.3v-24.9c0-1-.8-1.9-1.8-1.9h-22.6c-1.1 0-1.9.9-1.9 1.9z" fill="#2a3c65"/></g><g><path d="m33 61.9c-.5 0-1-.4-1-1v-28.9c0-.5.4-1 1-1s1 .4 1 1v28.9c0 .5-.5 1-1 1z" fill="#2a3c65"/></g><g><path d="m64 61.9h-62c-.5 0-1-.4-1-1s.4-1 1-1h62c.5 0 1 .4 1 1s-.4 1-1 1z" fill="#2a3c65"/></g></g><g><path d="m42.6 20.3h-19.2c-.5 0-1-.4-1-1v-5c0-.5.4-1 1-1h19.2c.5 0 1 .4 1 1v5c0 .5-.5 1-1 1zm-18.2-2h17.3v-3.1h-17.3z" fill="#2a3c65"/></g></g></svg>