<svg id="Layer_1" height="512" viewBox="0 0 66 66" width="512" xmlns="http://www.w3.org/2000/svg"><g><g><path d="m21.8 18.1c-.5 0-1-.4-1-1v-4.7c0-.5.4-1 1-1s1 .4 1 1v4.7c0 .5-.5 1-1 1z" fill="#2a3c65"/></g><g><path d="m44.2 18.1c-.5 0-1-.4-1-1v-4.7c0-.5.4-1 1-1s1 .4 1 1v4.7c0 .5-.5 1-1 1z" fill="#2a3c65"/></g><g><path d="m51.6 3.9v6.7c0 1-.8 1.9-1.9 1.9h-33.4c-1 0-1.9-.8-1.9-1.9v-6.7c0-1 .8-1.9 1.9-1.9h33.5c1 0 1.8.8 1.8 1.9z" fill="#cc87fe"/></g><g><path d="m49.7 13.4h-33.4c-1.6 0-2.9-1.3-2.9-2.9v-6.6c0-1.6 1.3-2.9 2.9-2.9h33.5c1.6 0 2.8 1.3 2.8 2.9v6.7c0 1.6-1.3 2.8-2.9 2.8zm-33.4-10.5c-.6 0-.9.5-.9.9v6.7c0 .6.5.9.9.9h33.4c.6 0 .9-.5.9-.9v-6.6c0-.5-.3-.9-.8-.9h-33.5z" fill="#2a3c65"/></g><g><path d="m62.9 19.9c0 1.5-1.3 2.8-2.8 2.8h-54.2c-1.5 0-2.8-1.3-2.8-2.8s1.3-2.8 2.8-2.8h54.1c.8 0 1.5.3 2 .8s.9 1.2.9 2z" fill="#e3ecff"/></g><g><path d="m60.1 23.7h-54.2c-2 0-3.8-1.7-3.8-3.8s1.7-3.8 3.8-3.8h54.1c1 0 2 .4 2.7 1.1.8.8 1.2 1.7 1.2 2.7 0 2-1.8 3.8-3.8 3.8zm-54.2-5.6c-1 0-1.8.9-1.8 1.8s.9 1.8 1.8 1.8h54.2c1 0 1.8-.9 1.8-1.8 0-.6-.4-1.1-.6-1.3-.3-.3-.8-.5-1.3-.5z" fill="#2a3c65"/></g><g><path d="m8.3 22.7h49.3v41.3h-49.3z" fill="#e3ecff"/></g><g><path d="m57.7 22.7v41.3h-49.4v-3.9h5.8c11.4 0 21.7-4.6 29.2-12.1 6.6-6.6 11-15.5 11.9-25.3z" fill="#c7d9f9"/></g><g><path d="m57.7 65h-49.4c-.5 0-1-.4-1-1v-26.4c0-.5.4-1 1-1s1 .4 1 1v25.5h47.4v-25.5c0-.5.4-1 1-1s1 .4 1 1v26.4c0 .6-.5 1-1 1z" fill="#2a3c65"/></g><g><path d="m52.7 39.8v14.5c0 1.4-1.1 2.5-2.5 2.5h-15c-1.4 0-2.5-1.1-2.5-2.5v-14.5c0-1.4 1.1-2.5 2.5-2.5h15.1c1.3 0 2.4 1.2 2.4 2.5z" fill="#02beff"/></g><g><g><path d="m52.7 39.8v.2l-16.8 16.8h-.8c-1.4 0-2.5-1.1-2.5-2.5v-9.1l7.9-7.9h9.6c1.5 0 2.6 1.2 2.6 2.5z" fill="#27d1ff"/></g><g><path d="m52.7 43.6v5.3l-7.9 7.9h-5.2z" fill="#27d1ff"/></g></g><g><path d="m50.2 57.8h-15c-1.9 0-3.5-1.5-3.5-3.5v-14.5c0-1.9 1.5-3.5 3.5-3.5h15.1c1.8 0 3.4 1.6 3.4 3.5v14.5c0 2-1.6 3.5-3.5 3.5zm-15-19.5c-.9 0-1.5.7-1.5 1.5v14.5c0 .9.7 1.5 1.5 1.5h15c.9 0 1.5-.7 1.5-1.5v-14.5c0-.8-.7-1.5-1.4-1.5z" fill="#2a3c65"/></g><g><path d="m27.4 44.5v19.5h-14.1v-19.5c0-1.4 1.1-2.5 2.5-2.5h9.2c1.3 0 2.4 1.1 2.4 2.5z" fill="#38fcc4"/></g><g><path d="m27.4 65h-14.1c-.5 0-1-.4-1-1v-19.5c0-1.9 1.5-3.5 3.5-3.5h9.2c1.9 0 3.4 1.6 3.4 3.5v19.5c0 .6-.5 1-1 1zm-13.1-1.9h12.2v-18.6c0-.8-.6-1.5-1.4-1.5h-9.2c-.9 0-1.5.7-1.5 1.5v18.6z" fill="#2a3c65"/></g><g><path d="m59.3 65h-52.6c-.5 0-1-.4-1-1s.4-1 1-1h52.6c.5 0 1 .4 1 1s-.5 1-1 1z" fill="#2a3c65"/></g><g><path d="m16 54.6c-.5 0-1-.4-1-1v-1.4c0-.5.4-1 1-1s1 .4 1 1v1.4c0 .6-.5 1-1 1z" fill="#2a3c65"/></g><g><g><path d="m15.4 22.7h7.1l-2.5 8.5c-.4 1.6-1.9 2.7-3.5 2.7h-.6c-2.7 0-4.5-2.8-3.3-5.2z" fill="#ffd880"/></g><g><path d="m36.5 22.7.6 6.6c.2 2.4-1.7 4.6-4.2 4.6s-4.4-2.1-4.2-4.6l.6-6.6z" fill="#ffd880"/></g><g><path d="m49.7 33.9c-1.8 0-3.3-1.2-3.8-2.8l-2.4-8.3h7.1l2.6 5.6c1.3 2.5-.6 5.5-3.5 5.5z" fill="#ffd880"/></g><g><path d="m16.5 34.9h-.6c-1.6 0-3.1-.8-4-2.2-.8-1.3-.9-3-.2-4.4l2.8-6c.2-.3.5-.6.9-.6h7.1c.3 0 .6.1.8.4.2.2.2.6.2.9l-2.5 8.5c-.6 1.9-2.4 3.4-4.5 3.4zm-.5-11.2-2.5 5.4c-.4.8-.4 1.8.1 2.5.5.8 1.4 1.3 2.3 1.3h.6c1.2 0 2.3-.8 2.6-2l2.1-7.3h-5.2z" fill="#2a3c65"/></g><g><path d="m32.9 34.9c-1.5 0-2.8-.6-3.8-1.7s-1.5-2.5-1.4-4l.6-6.6c0-.5.5-.9 1-.9h7.2c.5 0 .9.4 1 .9l.6 6.6c.1 1.5-.4 2.9-1.4 4s-2.4 1.7-3.8 1.7zm-2.7-11.2-.5 5.7c-.1.9.2 1.8.9 2.5 1.2 1.3 3.5 1.3 4.7 0 .6-.7.9-1.6.9-2.5l-.5-5.7z" fill="#2a3c65"/></g><g><path d="m49.7 34.9c-2.2 0-4.1-1.4-4.7-3.5l-2.4-8.3c-.1-.3 0-.6.2-.9.2-.2.5-.4.8-.4h7.1c.4 0 .7.2.9.6l2.6 5.6c.7 1.4.7 3.1-.2 4.5-1 1.5-2.6 2.4-4.3 2.4zm-4.9-11.1 2 7.1c.4 1.2 1.6 2.1 2.9 2.1 1.1 0 2-.5 2.5-1.4.5-.8.5-1.8.1-2.7l-2.3-5.1z" fill="#2a3c65"/></g><g><path d="m22.4 22.7h7l-.7 7.4c-.2 2.1-2 3.7-4.1 3.7-2.7 0-4.7-2.6-3.9-5.2z" fill="#ff7daf"/></g><g><path d="m58.2 33.9c-1.4 0-2.7-.8-3.3-2.1l-4.3-9.1h7l3.6 5.5c1.7 2.4 0 5.7-3 5.7z" fill="#ff7daf"/></g><g><path d="m8.3 22.7h7l-4.3 9.1c-.6 1.3-1.9 2.1-3.3 2.1-2.9 0-4.7-3.3-3.1-5.7z" fill="#ff7daf"/></g><g><path d="m45.3 28.6c.7 2.6-1.2 5.2-3.9 5.2-2.1 0-3.9-1.6-4.1-3.7l-.7-7.4h7z" fill="#ff7daf"/></g><g><path d="m24.6 34.8c-1.6 0-3.1-.7-4.1-2.1-.9-1.3-1.2-2.9-.8-4.4l1.7-5.9c.1-.4.5-.7.9-.7h7c.3 0 .5.1.7.3s.3.5.2.7l-.7 7.4c-.1 2.7-2.3 4.7-4.9 4.7zm-1.5-11.1-1.5 5.2c-.3.9-.1 1.9.5 2.7s1.5 1.3 2.5 1.3c1.6 0 3-1.2 3.1-2.8l.6-6.3h-5.2z" fill="#2a3c65"/></g><g><path d="m58.2 34.9c-1.8 0-3.4-1-4.2-2.7l-4.3-9.1c-.1-.3-.1-.7.1-.9s.5-.5.8-.5h7c.3 0 .6.2.8.4l3.6 5.5c1 1.4 1.1 3.2.3 4.7-.8 1.6-2.4 2.6-4.1 2.6zm-6.1-11.2 3.6 7.7c.4.9 1.4 1.5 2.4 1.5s1.9-.5 2.4-1.4.4-1.9-.2-2.7l-3.3-5.1z" fill="#2a3c65"/></g><g><path d="m7.7 34.9c-1.7 0-3.3-1-4.1-2.5s-.8-3.3.2-4.7l3.7-5.5c.2-.3.5-.4.8-.4h7c.3 0 .6.2.8.5s.2.6.1.9l-4.3 9.1c-.8 1.5-2.4 2.6-4.2 2.6zm1.1-11.2-3.4 5.1c-.5.8-.6 1.8-.1 2.7s1.4 1.5 2.4 1.5 2-.6 2.4-1.5l3.7-7.7h-5z" fill="#2a3c65"/></g><g><path d="m41.4 34.8c-2.6 0-4.8-2-5.1-4.6l-.7-7.4c0-.3.1-.5.2-.7s.4-.3.7-.3h7c.4 0 .8.3.9.7l1.7 5.9c.4 1.6.1 3.2-.9 4.5-.8 1.2-2.2 1.9-3.8 1.9zm-3.7-11.1.6 6.3c.1 1.6 1.5 2.8 3.1 2.8 1 0 1.8-.4 2.4-1.2s.8-1.8.5-2.8l-1.5-5.2h-5.1z" fill="#2a3c65"/></g></g></g></svg>