<svg id="Layer_1" height="512" viewBox="0 0 66 66" width="512" xmlns="http://www.w3.org/2000/svg"><g><g><path d="m16.7 12.7h32.6v31.7h-32.6z" fill="#e3ecff"/></g><g><path d="m5.8 28.2h54.3v30.5h-54.3z" fill="#e3ecff"/></g><g><path d="m60.2 28.2v30.5h-3.7c-4.3-11.8-15.6-20.2-29-20.2h-21.7v-10.3z" fill="#c7d9f9"/></g><g><path d="m39.2 49.5v9.1h-12.4v-9.1c0-3.4 2.8-6.1 6.2-6.1 1.7 0 3.3.7 4.4 1.8s1.8 2.6 1.8 4.3z" fill="#d5a6ff"/></g><g><path d="m5.8 55.7c-.5 0-1-.4-1-1v-17.2c0-.5.4-1 1-1s1 .4 1 1v17.3c0 .5-.4.9-1 .9z" fill="#2a3c65"/></g><g><path d="m60.2 55.7c-.5 0-1-.4-1-1v-17.2c0-.5.4-1 1-1s1 .4 1 1v17.3c0 .5-.5.9-1 .9z" fill="#2a3c65"/></g><g><path d="m49.3 25.1c-.5 0-1-.4-1-1v-10.4h-30.6v10.4c0 .5-.4 1-1 1s-1-.4-1-1v-11.4c0-.5.4-1 1-1h32.6c.5 0 1 .4 1 1v11.4c0 .5-.5 1-1 1z" fill="#2a3c65"/></g><g><path d="m53.9 9.4v1.5c0 1.1-.9 1.9-1.9 1.9h-37.9c-1.1 0-1.9-.9-1.9-1.9v-1.5c0-1.1.9-1.9 1.9-1.9h37.9c1-.1 1.9.8 1.9 1.9z" fill="#ff7daf"/></g><g><path d="m52 13.7h-37.9c-1.6 0-2.9-1.3-2.9-2.8v-1.5c0-1.6 1.3-2.8 2.9-2.8h37.9.2c1.5 0 2.7 1.3 2.7 2.9v1.5c0 1.4-1.3 2.7-2.9 2.7zm-37.9-5.2c-.4 0-.9.3-.9.9v1.5c0 .4.4.9.9.9h37.9c.4 0 .9-.3.9-.9v-1.5c0-.5-.4-.9-.8-.9 0 0-.1 0-.2 0z" fill="#2a3c65"/></g><g><path d="m64 30.8c0 1.5-1.2 2.8-2.8 2.8h-56.4c-.8 0-1.5-.3-1.9-.8-.6-.5-.9-1.2-.9-2 0-1.5 1.2-2.8 2.8-2.8h56.5c1.5.2 2.7 1.3 2.7 2.8z" fill="#ff7daf"/></g><g><path d="m61.3 34.7h-4c-.5 0-1-.4-1-1s.4-1 1-1h4c1 0 1.8-.8 1.8-1.8s-.8-1.8-1.8-1.8h-6.7c-.5 0-1-.4-1-1s.4-1 1-1h6.7c2.1 0 3.8 1.7 3.8 3.7s-1.7 3.9-3.8 3.9z" fill="#2a3c65"/></g><g><path d="m8.7 34.6h-4c-1.1 0-2-.4-2.6-1.1-.7-.7-1.1-1.6-1.1-2.6 0-2.1 1.7-3.7 3.8-3.7h6.7c.5 0 1 .4 1 1s-.4 1-1 1h-6.7c-1 0-1.8.8-1.8 1.8 0 .5.2 1 .5 1.3 0 0 0 .1.1.1.2.3.7.4 1.1.4h4c.5 0 1 .4 1 1s-.4.8-1 .8z" fill="#2a3c65"/></g><g><path d="m44.3 33.6h6.4v25h-6.4z" fill="#27d1ff"/></g><g><path d="m15.3 33.6h6.4v25h-6.4z" fill="#27d1ff"/></g><g><path d="m50.7 55.7c-.5 0-1-.4-1-1v-20.1h-4.5v20.2c0 .5-.4 1-1 1s-1-.4-1-1v-21.2c0-.5.4-1 1-1h6.4c.5 0 1 .4 1 1v21.2c.1.5-.4.9-.9.9z" fill="#2a3c65"/></g><g><path d="m21.7 55.7c-.5 0-1-.4-1-1v-20.1h-4.5v20.2c0 .5-.4 1-1 1s-1-.4-1-1v-21.2c0-.5.4-1 1-1h6.4c.5 0 1 .4 1 1v21.2c.1.5-.4.9-.9.9z" fill="#2a3c65"/></g><g><path d="m52.5 33.6h-39c-.9 0-1.3-1.2-.6-1.7l17.7-13.6c1.4-1.1 3.4-1.1 4.7 0l17.7 13.6c.9.5.5 1.7-.5 1.7z" fill="#ffd880"/></g><g><path d="m52.5 34.6h-39c-.8 0-1.6-.5-1.8-1.4-.3-.8 0-1.6.7-2.1l17.6-13.6c1.7-1.3 4.3-1.3 5.9 0l17.6 13.6c.7.4 1.1 1.2.9 2-.2.9-1 1.5-1.9 1.5zm-38.9-2h38.7l-17.6-13.6c-1-.8-2.5-.8-3.5 0z" fill="#2a3c65"/></g><g><path d="m63 59.6h-60c-.5 0-1-.4-1-1s.4-1 1-1h60c.5 0 1 .4 1 1s-.5 1-1 1z" fill="#2a3c65"/></g><g><ellipse cx="33" cy="26.6" fill="#e3ecff" rx="3.5" ry="3.5"/><path d="m33 31c-2.5 0-4.5-2-4.5-4.4s2-4.4 4.5-4.4 4.5 2 4.5 4.4-2 4.4-4.5 4.4zm0-6.9c-1.4 0-2.5 1.1-2.5 2.5s1.1 2.5 2.5 2.5 2.5-1.1 2.5-2.5-1.1-2.5-2.5-2.5z" fill="#2a3c65"/></g><g><path d="m39.2 55.7c-.5 0-1-.4-1-1v-5.2c0-1.4-.6-2.7-1.5-3.7-1-1-2.3-1.5-3.7-1.5-2.9 0-5.2 2.3-5.2 5.2v5.2c0 .5-.4 1-1 1s-1-.4-1-1v-5.2c0-3.9 3.2-7.1 7.2-7.1 1.9 0 3.8.8 5.1 2.1s2.1 3.1 2.1 5v5.2c0 .6-.5 1-1 1z" fill="#2a3c65"/></g></g></svg>