<svg id="Layer_1" height="512" viewBox="0 0 66 66" width="512" xmlns="http://www.w3.org/2000/svg"><g><g><path d="m33 4.4c-10.3 0-18.7 8.4-18.7 18.7h37.4c0-10.3-8.4-18.7-18.7-18.7z" fill="#1de9b6"/></g><g><path d="m51.7 23.2h-7.2c-2.5-7.3-9.5-12.6-17.7-12.6-3.6 0-6.9 1-9.8 2.8 3.3-5.4 9.2-8.9 16-8.9 10.3-.1 18.7 8.3 18.7 18.7z" fill="#12d69e"/></g><g><path d="m12.7 23.2h40.6" fill="none"/></g><g><path d="m5.7 28.7h54.6" fill="none"/></g><g><path d="m5.7 36.1h54.6" fill="none"/></g><g><path d="m9.7 28.7h6.5v7.4h-6.5z" fill="#fecb4d"/></g><g><path d="m23.1 28.7h6.5v7.4h-6.5z" fill="#fecb4d"/></g><g><path d="m36.4 28.7h6.5v7.4h-6.5z" fill="#fecb4d"/></g><g><path d="m49.8 28.7h6.5v7.4h-6.5z" fill="#fecb4d"/></g><g><path d="m18.1 23.2v5.5" fill="none"/></g><g><path d="m28 23.2v5.5" fill="none"/></g><g><path d="m38 23.2v5.5" fill="none"/></g><g><path d="m47.9 23.2v5.5" fill="none"/></g><g><path d="m9.7 36.1h46.5v27.9h-46.5z" fill="#c7d9f9"/></g><g><path d="m56.3 36.1v27.9h-3c-.7-6.6-3.6-12.5-8-16.9-5-5-12-8.2-19.7-8.2h-15.8v-2.8z" fill="#b0cdf7"/></g><g><path d="m33 4.4v-2.4" fill="none"/></g><g><path d="m41.1 64h-16.2v-12.3c0-6.8 8.1-10.1 8.1-10.1s8.1 3.3 8.1 10.1z" fill="#27d1ff"/></g><g><path d="m41.1 51.7v12.3h-4.8v-7.6c0-3.4-2-5.9-4-7.6s-4-2.5-4-2.5-1 .4-2.2 1.2c2.2-4 7-5.9 7-5.9s2 .8 4 2.5 4 4.2 4 7.6z" fill="#02beff"/></g><g><path d="m51.7 24.1h-37.4c-.5 0-1-.4-1-1 0-10.9 8.8-19.7 19.7-19.7s19.7 8.8 19.7 19.7c0 .5-.5 1-1 1zm-36.4-2h35.4c-.5-9.3-8.2-16.8-17.7-16.8s-17.2 7.5-17.7 16.8z" fill="#2a3c65"/></g><g><path d="m53.3 24.2h-40.6c-.5 0-1-.4-1-1s.4-1 1-1h40.6c.5 0 1 .4 1 1s-.5 1-1 1z" fill="#2a3c65"/></g><g><path d="m60.3 29.7h-54.6c-.5 0-1-.4-1-1s.4-1 1-1h54.6c.5 0 1 .4 1 1s-.5 1-1 1z" fill="#2a3c65"/></g><g><path d="m60.3 37.1h-54.6c-.5 0-1-.4-1-1s.4-1 1-1h54.6c.5 0 1 .4 1 1s-.5 1-1 1z" fill="#2a3c65"/></g><g><path d="m16.2 37.1h-6.5c-.5 0-1-.4-1-1v-7.4c0-.5.4-1 1-1h6.5c.5 0 1 .4 1 1v7.4c0 .5-.5 1-1 1zm-5.5-2h4.6v-5.5h-4.6z" fill="#2a3c65"/></g><g><path d="m29.6 37.1h-6.5c-.5 0-1-.4-1-1v-7.4c0-.5.4-1 1-1h6.5c.5 0 1 .4 1 1v7.4c0 .5-.5 1-1 1zm-5.5-2h4.6v-5.5h-4.6z" fill="#2a3c65"/></g><g><path d="m42.9 37.1h-6.5c-.5 0-1-.4-1-1v-7.4c0-.5.4-1 1-1h6.5c.5 0 1 .4 1 1v7.4c0 .5-.5 1-1 1zm-5.5-2h4.6v-5.5h-4.6z" fill="#2a3c65"/></g><g><path d="m56.3 37.1h-6.5c-.5 0-1-.4-1-1v-7.4c0-.5.4-1 1-1h6.5c.5 0 1 .4 1 1v7.4c0 .5-.5 1-1 1zm-5.5-2h4.6v-5.5h-4.6z" fill="#2a3c65"/></g><g><path d="m18.1 29.7c-.5 0-1-.4-1-1v-5.5c0-.5.4-1 1-1s1 .4 1 1v5.5c0 .5-.5 1-1 1z" fill="#2a3c65"/></g><g><path d="m28 29.7c-.5 0-1-.4-1-1v-5.5c0-.5.4-1 1-1s1 .4 1 1v5.5c0 .5-.5 1-1 1z" fill="#2a3c65"/></g><g><path d="m38 29.7c-.5 0-1-.4-1-1v-5.5c0-.5.4-1 1-1s1 .4 1 1v5.5c0 .5-.5 1-1 1z" fill="#2a3c65"/></g><g><path d="m47.9 29.7c-.5 0-1-.4-1-1v-5.5c0-.5.4-1 1-1s1 .4 1 1v5.5c0 .5-.5 1-1 1z" fill="#2a3c65"/></g><g><path d="m56.3 65h-46.5c-.5 0-1-.4-1-1v-24c0-.5.4-1 1-1s1 .4 1 1v23.1h44.6v-23.1c0-.5.4-1 1-1s1 .4 1 1v24c-.1.6-.6 1-1.1 1z" fill="#2a3c65"/></g><g><path d="m60.3 65h-54.6c-.5 0-1-.4-1-1s.4-1 1-1h54.6c.5 0 1 .4 1 1s-.5 1-1 1z" fill="#2a3c65"/></g><g><path d="m33 5.3c-.5 0-1-.4-1-1v-2.3c0-.5.4-1 1-1s1 .4 1 1v2.4c0 .5-.5.9-1 .9z" fill="#2a3c65"/></g><g><path d="m41.1 65h-16.2c-.5 0-1-.4-1-1v-12.3c0-7.4 8.3-10.9 8.7-11 .2-.1.5-.1.7 0 .4.1 8.7 3.6 8.7 11v12.3c.1.6-.4 1-.9 1zm-15.2-1.9h14.3v-11.4c0-5.3-5.6-8.3-7.1-9-1.5.7-7.1 3.8-7.1 9v11.4z" fill="#2a3c65"/></g></g></svg>