<svg id="Layer_1" height="512" viewBox="0 0 66 66" width="512" xmlns="http://www.w3.org/2000/svg"><g><g><path d="m15.8 7.5v7.9l-7.9 4.8v-12.7z" fill="#fecb4d"/></g><g><path d="m57.4 27.2v33.4h-48.8v-33.4l24.4-14.9z" fill="#c7d9f9"/></g><g><path d="m57.4 27.2v33.4h-3.5v-2.6c0-23.6-24.6-38.8-45.3-29.2v-1.6l24.4-14.9z" fill="#b0cdf7"/></g><g><path d="m63.6 27.3c-.9 1.5-2.8 1.9-4.3 1l-1.9-1.2-24.4-14.8-24.4 14.9-1.9 1.2c-1.5.9-3.4.4-4.3-1-.9-1.5-.4-3.4 1-4.3l4.5-2.9 7.8-4.8 15.6-9.5c1-.6 2.3-.6 3.3 0l28 17.1c1.5.9 1.9 2.8 1 4.3z" fill="#02beff"/></g><g><path d="m6.4 7.5h10.9" fill="none"/></g><g><path d="m40.5 44.5v16.1h-15v-16.1c0-4.1 3.4-7.5 7.5-7.5 4.1 0 7.5 3.3 7.5 7.5z" fill="#ffd880"/></g><g><path d="m40.5 44.5v16.1h-4.4v-11.7c0-4.1-3.4-7.5-7.5-7.5-.9 0-1.8.2-2.6.5 1-2.9 3.8-4.9 7-4.9 4.1 0 7.5 3.3 7.5 7.5z" fill="#fecb4d"/></g><g><path d="m52.9 50.1v-10.2c0-2.4-1.9-4.4-4.4-4.4-2.4 0-4.4 2-4.4 4.4v10.2z" fill="#38fcc4"/></g><g><path d="m21.8 50.1v-10.2c0-2.4-1.9-4.4-4.4-4.4-2.4 0-4.4 2-4.4 4.4v10.2z" fill="#38fcc4"/></g><g><path d="m38.7 26.7c0 3.1-2.5 5.7-5.7 5.7-3.1 0-5.7-2.5-5.7-5.7 0-3.1 2.5-5.7 5.7-5.7 3.1.1 5.7 2.6 5.7 5.7z" fill="#ff7daf"/></g><g><path d="m7.9 16.6c-.5 0-1-.4-1-1v-8.1c0-.5.4-1 1-1h7.8c.5 0 1 .4 1 1v3.4c0 .5-.4 1-1 1s-1-.4-1-1v-2.5h-5.8v7.2c0 .6-.4 1-1 1z" fill="#2a3c65"/></g><g><path d="m57.4 61.6h-48.8c-.5 0-1-.4-1-1v-28.9c0-.5.4-1 1-1s1 .4 1 1v28h46.8v-28c0-.5.4-1 1-1s1 .4 1 1v28.9c-.1.6-.5 1-1 1z" fill="#2a3c65"/></g><g><path d="m5.1 29.8c-1.4 0-2.7-.7-3.5-1.9-1.1-1.9-.6-4.4 1.3-5.6l4.5-2.9 7.8-4.8 15.7-9.6c1.3-.8 3-.8 4.3 0l27.9 17.1c.9.6 1.6 1.5 1.8 2.5s.1 2.1-.5 3.1c-.7 1.2-2 1.9-3.4 1.9-.8 0-1.5-.2-2.2-.6l-1.9-1.2-23.9-14.4-25.7 15.8c-.7.4-1.4.6-2.2.6zm28-23.4c-.4 0-.8.1-1.2.3l-23.4 14.3-4.5 2.9c-1 .6-1.3 2-.7 3 .6.9 2 1.3 3 .7l1.9-1.2 24.4-14.9c.3-.2.7-.2 1 0l24.4 14.8 1.9 1.2c.4.2.8.3 1.2.3.7 0 1.4-.4 1.8-1 .3-.5.4-1.1.3-1.7-.1-.5-.5-1-1-1.3l-28-17.1c-.3-.2-.7-.3-1.1-.3z" fill="#2a3c65"/></g><g><path d="m17.3 8.4h-10.9c-.5 0-1-.4-1-1s.4-1 1-1h10.8c.5 0 1 .4 1 1s-.4 1-.9 1z" fill="#2a3c65"/></g><g><path d="m40.5 61.6h-15c-.5 0-1-.4-1-1v-16.1c0-4.7 3.8-8.5 8.5-8.5s8.5 3.8 8.5 8.5v16.1c0 .6-.4 1-1 1zm-14-1.9h13.1v-15.2c0-3.6-2.9-6.5-6.5-6.5-3.5 0-6.5 3-6.5 6.5v15.2z" fill="#2a3c65"/></g><g><path d="m52.9 51.1h-8.8c-.5 0-1-.4-1-1v-10.2c0-2.9 2.5-5.4 5.4-5.4 3 0 5.4 2.4 5.4 5.4v10.2c0 .6-.4 1-1 1zm-7.8-1.9h6.9v-9.2c0-1.9-1.5-3.4-3.4-3.4s-3.4 1.6-3.4 3.4v9.2z" fill="#2a3c65"/></g><g><path d="m21.8 51.1h-8.8c-.5 0-1-.4-1-1v-10.2c0-2.9 2.5-5.4 5.4-5.4 3 0 5.4 2.4 5.4 5.4v10.2c-.1.6-.5 1-1 1zm-7.9-1.9h6.9v-9.2c0-1.9-1.5-3.4-3.4-3.4s-3.4 1.6-3.4 3.4v9.2z" fill="#2a3c65"/></g><g><path d="m33 33.4c-3.7 0-6.7-3-6.7-6.7s3-6.7 6.7-6.7c3.7.1 6.7 3.1 6.7 6.7 0 3.7-3 6.7-6.7 6.7zm0-11.4c-2.6 0-4.7 2.1-4.7 4.7s2.1 4.7 4.7 4.7 4.7-2.1 4.7-4.7c0-2.5-2.1-4.7-4.7-4.7z" fill="#2a3c65"/></g><g><path d="m60.9 61.6h-55.8c-.5 0-1-.4-1-1s.4-1 1-1h55.7c.5 0 1 .4 1 1s-.4 1-.9 1z" fill="#2a3c65"/></g></g></svg>