<svg id="Layer_1" height="512" viewBox="0 0 66 66" width="512" xmlns="http://www.w3.org/2000/svg"><g><g><path d="m25.8 36.4h14.5v7.4h-14.5z" fill="#fecb4d"/></g><g><path d="m25.8 20.3v42.4h-20v-42.4c0-1.6 1.3-2.9 2.9-2.9h14.2c1.6.1 2.9 1.3 2.9 2.9z" fill="#c7d9f9"/></g><g><path d="m60.2 20.3v42.4h-20v-42.4c0-1.6 1.3-2.9 2.9-2.9h14.2c1.6.1 2.9 1.3 2.9 2.9z" fill="#c7d9f9"/></g><g><path d="m25.8 20.3v42.4h-7.2v-42.4c0-1.6-1.3-2.9-2.9-2.9h7.2c1.6.1 2.9 1.3 2.9 2.9z" fill="#b0cdf7"/></g><g><path d="m60.2 20.3v42.4h-7.2v-42.4c0-1.6-1.3-2.9-2.9-2.9h7.2c1.6.1 2.9 1.3 2.9 2.9z" fill="#b0cdf7"/></g><g><path d="m25.8 63.7h-20c-.5 0-1-.4-1-1v-42.4c0-2.1 1.7-3.9 3.9-3.9h14.2c2.2.1 3.9 1.8 3.9 3.9v42.4c0 .5-.5 1-1 1zm-19.1-1.9h18.1v-41.5c0-1-.9-1.9-2-1.9h-14.2c-1.1 0-1.9.9-1.9 1.9z" fill="#2a3c65"/></g><g><path d="m21.7 23.7v32.4c0 1.1-.9 1.9-1.9 1.9h-7.6c-.9 0-1.7-.7-1.9-1.5 0-.1 0-.2 0-.4v-32.4c0-1.1.9-1.9 1.9-1.9h7.6c.9 0 1.7.7 1.9 1.6z" fill="#02beff"/></g><g><path d="m56.1 23.7v32.4c0 1.1-.9 1.9-1.9 1.9h-7.6c-.9 0-1.7-.7-1.9-1.5 0-.1 0-.2 0-.4v-32.4c0-1.1.9-1.9 1.9-1.9h7.6c.9 0 1.7.7 1.9 1.6z" fill="#02beff"/></g><g><g><path d="m56.1 23.7v11.7l-11.4 13.8v-12.1l11.4-13.8z" fill="#27d1ff"/></g><g><path d="m56.1 38.4v4.3l-11.3 13.8c0-.1 0-.2 0-.4v-3.9z" fill="#27d1ff"/></g></g><g><g><path d="m21.7 23.7v11.7l-11.4 13.8v-12.1l11.4-13.8z" fill="#27d1ff"/></g><g><path d="m21.7 38.4v4.3l-11.4 13.8c0-.1 0-.2 0-.4v-3.9z" fill="#27d1ff"/></g></g><g><path d="m33 36.4v-4" fill="none"/></g><g><path d="m21.5 41.1h-11.4c-.5 0-1-.4-1-1v-9.1c0-.5.4-1 1-1h11.4c.5 0 1 .4 1 1v9.1c-.1.5-.5 1-1 1zm-10.5-2h9.5v-7.1h-9.5z" fill="#2a3c65"/></g><g><path d="m21.5 50.2h-11.4c-.5 0-1-.4-1-1v-9.1c0-.5.4-1 1-1h11.4c.5 0 1 .4 1 1v9.1c-.1.5-.5 1-1 1zm-10.5-2h9.5v-7.2h-9.5z" fill="#2a3c65"/></g><g><path d="m22.2 13.3v4.1h-12.8v-4.1c0-1.1.9-1.9 1.9-1.9h8.9c1.1 0 2 .9 2 1.9z" fill="#38fcc4"/></g><g><path d="m56.6 13.3v4.1h-12.8v-4.1c0-1.1.9-1.9 1.9-1.9h8.9c1.1 0 2 .9 2 1.9z" fill="#38fcc4"/></g><g><path d="m22.2 18.4h-12.8c-.5 0-1-.4-1-1v-4.1c0-1.6 1.3-2.9 2.9-2.9h8.9c1.6 0 3 1.3 3 2.9v4.1c-.1.5-.5 1-1 1zm-11.9-2h10.9v-3.1c0-.4-.4-.9-1-.9h-8.9c-.5 0-.9.4-.9.9v3.1z" fill="#2a3c65"/></g><g><path d="m18.3 5.8v5.6h-5.1v-5.6c0-.7.3-1.3.7-1.8.5-.5 1.1-.7 1.8-.7 1.5 0 2.6 1.1 2.6 2.5z" fill="#cc87fe"/><path d="m18.3 12.4h-5.1c-.5 0-1-.4-1-1v-5.6c0-.8.3-1.6.9-2.4 0 0 0-.1.1-.1.7-.7 1.5-1 2.5-1 2 0 3.6 1.5 3.6 3.5v5.6c-.1.5-.5 1-1 1zm-4.2-2h3.2v-4.6c0-.9-.7-1.5-1.6-1.5-.5 0-.8.1-1.1.4-.3.4-.5.8-.5 1.2z" fill="#2a3c65"/></g><g><path d="m56.6 18.4h-12.8c-.5 0-1-.4-1-1v-4.1c0-1.6 1.3-2.9 2.9-2.9h8.9c1.6 0 3 1.3 3 2.9v4.1c0 .5-.4 1-1 1zm-11.8-2h10.9v-3.1c0-.4-.4-.9-1-.9h-8.9c-.5 0-.9.4-.9.9v3.1z" fill="#2a3c65"/></g><g><path d="m52.8 5.8v5.6h-5.1v-5.6c0-.7.3-1.3.7-1.8.5-.5 1.1-.7 1.8-.7 1.4 0 2.6 1.1 2.6 2.5z" fill="#cc87fe"/><path d="m52.8 12.4h-5.1c-.5 0-1-.4-1-1v-5.6c0-.8.3-1.6.9-2.4 0 0 0-.1.1-.1.7-.7 1.5-1 2.5-1 2 0 3.6 1.6 3.6 3.5v5.6c0 .5-.4 1-1 1zm-4.1-2h3.2v-4.6c0-.9-.7-1.5-1.6-1.5-.5 0-.8.1-1.1.4-.3.4-.5.8-.5 1.2z" fill="#2a3c65"/></g><g><path d="m60.2 63.7h-20c-.5 0-1-.4-1-1v-42.4c0-2.1 1.7-3.9 3.9-3.9h14.2c2.2.1 3.9 1.8 3.9 3.9v42.4c0 .5-.4 1-1 1zm-19-1.9h18.1v-41.5c0-1-.9-1.9-2-1.9h-14.2c-1.1 0-1.9.9-1.9 1.9z" fill="#2a3c65"/></g><g><path d="m55.9 41.1h-11.4c-.5 0-1-.4-1-1v-9.1c0-.5.4-1 1-1h11.4c.5 0 1 .4 1 1v9.1c0 .5-.4 1-1 1zm-10.4-2h9.5v-7.1h-9.5z" fill="#2a3c65"/></g><g><path d="m55.9 50.2h-11.4c-.5 0-1-.4-1-1v-9.1c0-.5.4-1 1-1h11.4c.5 0 1 .4 1 1v9.1c0 .5-.4 1-1 1zm-10.4-2h9.5v-7.2h-9.5z" fill="#2a3c65"/></g><g><path d="m21.5 32h-11.4c-.5 0-1-.4-1-1v-7.1c0-1.5 1.3-2.9 2.9-2.9h7.6c1.6 0 2.9 1.3 2.9 2.9v7.1c-.1.5-.5 1-1 1zm-10.5-2h9.5v-6.1c0-.6-.5-.9-.9-.9h-7.6c-.5 0-.9.5-.9.9v6.1z" fill="#2a3c65"/></g><g><path d="m19.5 59.2h-7.5c-1.6 0-2.9-1.3-2.9-2.9v-7.1c0-.5.4-1 1-1h11.3c.5 0 1 .4 1 1v7.1c-.1 1.6-1.3 2.9-2.9 2.9zm-8.5-9v6.1c0 .6.5.9.9.9h7.5c.6 0 .9-.5.9-.9v-6.1z" fill="#2a3c65"/></g><g><path d="m55.9 32h-11.4c-.5 0-1-.4-1-1v-7.1c0-1.6 1.4-2.9 3-2.9h7.5c1.6 0 2.9 1.3 2.9 2.9v7.1c0 .5-.4 1-1 1zm-10.4-2h9.5v-6.1c0-.6-.5-.9-.9-.9h-7.5c-.6 0-1 .5-1 .9v6.1z" fill="#2a3c65"/></g><g><path d="m54 59.2h-7.6c-1.6 0-2.9-1.3-2.9-2.9v-7.1c0-.5.4-1 1-1h11.4c.5 0 1 .4 1 1v7.1c0 1.6-1.3 2.9-2.9 2.9zm-8.5-9v6.1c0 .6.5.9.9.9h7.6c.6 0 .9-.5.9-.9v-6.1z" fill="#2a3c65"/></g><g><path d="m36.6 37.4h-7.2c-.5 0-1-.4-1-1s.4-1 1-1h7.2c.5 0 1 .4 1 1s-.5 1-1 1z" fill="#2a3c65"/></g><g><path d="m36.6 44.8h-7.2c-.5 0-1-.4-1-1s.4-1 1-1h7.2c.5 0 1 .4 1 1s-.5 1-1 1z" fill="#2a3c65"/></g><g><path d="m33 37.4c-.5 0-1-.4-1-1v-4c0-.5.4-1 1-1 .5 0 1 .4 1 1v4c0 .5-.5 1-1 1z" fill="#2a3c65"/></g><g><path d="m64 63.7h-62c-.5 0-1-.4-1-1s.4-1 1-1h62c.5 0 1 .4 1 1s-.4 1-1 1z" fill="#2a3c65"/></g></g></svg>