<svg id="Layer_1" height="512" viewBox="0 0 66 66" width="512" xmlns="http://www.w3.org/2000/svg"><g><g><path d="m16.7 23.3h32.6v26.4h-32.6z" fill="#e3ecff"/></g><g><path d="m49.3 30.3c-.5 0-1-.4-1-1v-5h-30.6v5c0 .5-.4 1-1 1s-1-.4-1-1v-6c0-.5.4-1 1-1h32.6c.5 0 1 .4 1 1v6c0 .5-.5 1-1 1z" fill="#2a3c65"/></g><g><path d="m63 35.9c0 1.5-1.2 2.8-2.8 2.8h-54.5c-.8 0-1.5-.3-1.9-.8-.5-.5-.8-1.2-.8-2 0-1.5 1.2-2.8 2.8-2.8h54.6c1.4.1 2.6 1.3 2.6 2.8z" fill="#ffd880"/></g><g><path d="m13.3 39.7h-7.6c-1.1 0-2-.4-2.6-1.1-.7-.7-1-1.6-1-2.6 0-2.1 1.7-3.8 3.8-3.8h14.6c.5 0 1 .4 1 1s-.4 1-1 1h-14.7c-1 0-1.8.8-1.8 1.8 0 .5.2 1 .5 1.3 0 0 0 .1.1.1.2.3.7.4 1.1.4h7.6c.5 0 1 .4 1 1s-.5.9-1 .9z" fill="#2a3c65"/></g><g><path d="m60.3 39.8h-7.5c-.5 0-1-.4-1-1s.4-1 1-1h7.5c1 0 1.8-.8 1.8-1.8s-.8-1.8-1.8-1.8h-14.6c-.5 0-1-.4-1-1s.4-1 1-1h14.6c2.1 0 3.8 1.7 3.8 3.8s-1.7 3.8-3.8 3.8z" fill="#2a3c65"/></g><g><path d="m5.8 38.7h54.3v25.3h-54.3z" fill="#e3ecff"/></g><g><path d="m60.2 65h-54.4c-.5 0-1-.4-1-1v-25.3c0-.5.4-1 1-1h7.5c.5 0 1 .4 1 1s-.4 1-1 1h-6.5v23.4h52.5v-23.4h-6.5c-.5 0-1-.4-1-1s.4-1 1-1h7.5c.5 0 1 .4 1 1v25.3c-.1.6-.6 1-1.1 1z" fill="#2a3c65"/></g><g><path d="m63 65h-60c-.5 0-1-.4-1-1s.4-1 1-1h60c.5 0 1 .4 1 1s-.5 1-1 1z" fill="#2a3c65"/></g><g><path d="m41.9 42.8h4.7v21.2h-4.7z" fill="#27d1ff"/></g><g><path d="m19.4 42.8h4.7v21.2h-4.7z" fill="#27d1ff"/></g><g><path d="m46.6 65h-4.7c-.5 0-1-.4-1-1v-21.2c0-.5.4-1 1-1h4.7c.5 0 1 .4 1 1v21.2c0 .6-.5 1-1 1zm-3.7-1.9h2.8v-19.3h-2.8z" fill="#2a3c65"/></g><g><path d="m24.1 65h-4.7c-.5 0-1-.4-1-1v-21.2c0-.5.4-1 1-1h4.7c.5 0 1 .4 1 1v21.2c0 .6-.5 1-1 1zm-3.7-1.9h2.8v-19.3h-2.8z" fill="#2a3c65"/></g><g><path d="m49.4 42.8h-32.8c-.8 0-1.1-1-.5-1.5l14.5-11.2c1.4-1.1 3.4-1.1 4.7 0l14.5 11.2c.7.5.3 1.5-.4 1.5z" fill="#ff7daf"/></g><g><path d="m49.4 42.8h-5.8l-11.8-9.1c-1.4-1.1-3.4-1.1-4.7 0l-11.2 8.7c-.1-.3-.1-.7.2-1l14.5-11.2c1.4-1.1 3.4-1.1 4.7 0l14.5 11.2c.7.4.3 1.4-.4 1.4z" fill="#ff5892"/></g><g><path d="m49.4 43.8h-32.8c-.8 0-1.4-.5-1.7-1.2s0-1.5.6-2l14.5-11.3c1.7-1.3 4.3-1.3 5.9 0l14.5 11.2c.6.4.9 1.2.7 2-.3.8-.9 1.3-1.7 1.3zm-32.4-2h31.9l-14.2-11c-1-.8-2.5-.8-3.5 0z" fill="#2a3c65"/></g><g><path d="m49.4 43.8h-32.8c-.8 0-1.4-.5-1.7-1.2s0-1.5.6-2l14.5-11.3c1.7-1.3 4.3-1.3 5.9 0l14.5 11.2c.6.4.9 1.2.7 2-.3.8-.9 1.3-1.7 1.3zm-32.4-2h31.9l-14.2-11c-1-.8-2.5-.8-3.5 0z" fill="#2a3c65"/></g><g><path d="m55.8 47.6h-4.1c-.5 0-1-.4-1-1s.4-1 1-1h4.1c.5 0 1 .4 1 1s-.5 1-1 1z" fill="#2a3c65"/></g><g><path d="m55.8 51.9h-4.1c-.5 0-1-.4-1-1s.4-1 1-1h4.1c.5 0 1 .4 1 1s-.5 1-1 1z" fill="#2a3c65"/></g><g><path d="m55.8 56.1h-4.1c-.5 0-1-.4-1-1s.4-1 1-1h4.1c.5 0 1 .4 1 1s-.5 1-1 1z" fill="#2a3c65"/></g><g><path d="m55.8 60.4h-4.1c-.5 0-1-.4-1-1s.4-1 1-1h4.1c.5 0 1 .4 1 1s-.5 1-1 1z" fill="#2a3c65"/></g><g><path d="m14.5 47.6h-4.2c-.5 0-1-.4-1-1s.4-1 1-1h4.2c.5 0 1 .4 1 1s-.5 1-1 1z" fill="#2a3c65"/></g><g><path d="m14.5 51.9h-4.2c-.5 0-1-.4-1-1s.4-1 1-1h4.2c.5 0 1 .4 1 1s-.5 1-1 1z" fill="#2a3c65"/></g><g><path d="m14.5 56.1h-4.2c-.5 0-1-.4-1-1s.4-1 1-1h4.2c.5 0 1 .4 1 1s-.5 1-1 1z" fill="#2a3c65"/></g><g><path d="m14.5 60.4h-4.2c-.5 0-1-.4-1-1s.4-1 1-1h4.2c.5 0 1 .4 1 1s-.5 1-1 1z" fill="#2a3c65"/></g><g><path d="m33 4.4c-10.3 0-18.7 8.4-18.7 18.7h37.5c-.1-10.3-8.5-18.7-18.8-18.7z" fill="#1de9b6"/></g><g><path d="m51.7 23.2h-7.2c-2.5-7.3-9.5-12.6-17.7-12.6-3.6 0-6.9 1-9.8 2.8 3.3-5.4 9.2-8.9 16-8.9 10.3-.1 18.7 8.3 18.7 18.7z" fill="#12d69e"/></g><g><path d="m12.7 23.2h40.6" fill="none"/></g><g><path d="m33 4.4v-2.4" fill="none"/></g><g><path d="m51.8 24.1h-37.5c-.5 0-1-.4-1-1 0-10.9 8.8-19.7 19.7-19.7 10.8 0 19.7 8.8 19.8 19.7 0 .3-.1.5-.3.7s-.4.3-.7.3zm-36.5-2h35.5c-.6-9.3-8.4-16.8-17.8-16.8-9.5 0-17.2 7.5-17.7 16.8z" fill="#2a3c65"/></g><g><path d="m53.3 24.2h-40.6c-.5 0-1-.4-1-1s.4-1 1-1h40.6c.5 0 1 .4 1 1s-.5 1-1 1z" fill="#2a3c65"/></g><g><path d="m33 5.3c-.5 0-1-.4-1-1v-2.3c0-.5.4-1 1-1s1 .4 1 1v2.4c0 .5-.5.9-1 .9z" fill="#2a3c65"/></g><g><path d="m38 55.6v8.4h-10v-8.4c0-2.8 2.3-5 5-5 1.4 0 2.7.6 3.6 1.5.9.8 1.4 2.1 1.4 3.5z" fill="#ffd880"/><path d="m38 65h-10c-.5 0-1-.4-1-1v-8.4c0-3.3 2.7-6 6-6 1.6 0 3.2.7 4.3 1.8 1.1.9 1.7 2.5 1.7 4.2v8.4c0 .6-.5 1-1 1zm-9-1.9h8v-7.4c0-1.1-.4-2.2-1.1-2.8-.8-.8-1.9-1.3-3-1.3-2.2 0-4 1.8-4 4v7.5z" fill="#2a3c65"/></g></g></svg>