<svg id="Layer_1" height="512" viewBox="0 0 66 66" width="512" xmlns="http://www.w3.org/2000/svg"><g><g><path d="m61 27.1v35h-56v-35c0-2.2 1-4.3 2.8-5.6l22.4-16.7c1.7-1.3 4-1.3 5.7 0l22.4 16.7c1.6 1.4 2.7 3.4 2.7 5.6z" fill="#ffd880"/></g><g><path d="m61 27.2v35h-5.3v-1.8c0-5.3-1.8-11.4-4.5-17.5-7.8-17.9-28.7-25.5-46-17.5.4-1.5 1.3-2.9 2.6-3.9l22.4-16.7c1.7-1.3 4-1.3 5.7 0l22.3 16.7c1.8 1.4 2.8 3.4 2.8 5.7z" fill="#fecb4d"/></g><g><path d="m61 59.1c-.6 0-1-.4-1-1v-31c0-1.9-.9-3.7-2.4-4.8l-22.3-16.7c-1.4-1-3.2-1-4.5 0l-22.4 16.7c-1.5 1.1-2.4 2.9-2.4 4.8v31c0 .6-.4 1-1 1s-1-.4-1-1v-31c0-2.6 1.2-5 3.2-6.4l22.4-16.7c2.1-1.6 4.8-1.6 6.9 0l22.3 16.7c2 1.4 3.2 3.8 3.2 6.4v31c0 .5-.4 1-1 1z" fill="#2a3c65"/></g><g><path d="m57.1 28.2v2.7c0 1.4-1.1 2.5-2.5 2.5h-43.2c-1.4 0-2.5-1.1-2.5-2.5v-2.7c0-1.4 1.1-2.5 2.5-2.5h43.2c1.4 0 2.5 1.1 2.5 2.5z" fill="#27d1ff"/></g><g><path d="m54.6 34.4h-43.2c-2 0-3.5-1.5-3.5-3.5v-2.7c0-2 1.5-3.5 3.5-3.5h43.2c2 0 3.5 1.5 3.5 3.5v2.7c0 2-1.5 3.5-3.5 3.5zm-43.2-7.7c-.8 0-1.5.7-1.5 1.5v2.7c0 .8.7 1.5 1.5 1.5h43.2c.8 0 1.5-.7 1.5-1.5v-2.7c0-.8-.7-1.5-1.5-1.5z" fill="#2a3c65"/></g><g><path d="m12.2 33.4h41.6v28.8h-41.6z" fill="#e3ecff"/></g><g><path d="m53.8 59.1c-.6 0-1-.4-1-1v-23.7h-39.6v23.7c0 .6-.4 1-1 1s-1-.4-1-1v-24.7c0-.6.4-1 1-1h41.6c.6 0 1 .4 1 1v24.7c0 .5-.4 1-1 1z" fill="#2a3c65"/></g><g><path d="m33 51.9v8.4c0 1-.8 1.8-1.8 1.8h-11.2c-1 0-1.8-.8-1.8-1.8v-8.4c0-1 .8-1.8 1.8-1.8h11.2c1 0 1.8.8 1.8 1.8z" fill="#ff7daf"/></g><g><path d="m47.9 51.9v8.4c0 1-.8 1.8-1.8 1.8h-11.3c-1 0-1.8-.8-1.8-1.8v-8.4c0-1 .8-1.8 1.8-1.8h11.2c1 0 1.9.8 1.9 1.8z" fill="#38fcc4"/></g><g><path d="m40.4 39.9v8.4c0 1-.8 1.8-1.8 1.8h-11.2c-1 0-1.8-.8-1.8-1.8v-8.4c0-1 .8-1.8 1.8-1.8h11.2c1 0 1.8.8 1.8 1.8z" fill="#cc87fe"/></g><g><path d="m18.2 59.2c-.6 0-1-.4-1-1v-6.2c0-1.5 1.3-2.8 2.8-2.8h11.2c1.5 0 2.8 1.3 2.8 2.8v6.1c0 .6-.4 1-1 1s-1-.4-1-1v-6.1c0-.4-.4-.8-.8-.8h-11.2c-.4 0-.8.4-.8.8v6.2c0 .5-.4 1-1 1z" fill="#2a3c65"/></g><g><path d="m27.6 55.2-2-1.7-2 1.7v-5.1h4z" fill="#e3ecff"/><path d="m27.6 56.2c-.2 0-.5-.1-.6-.2l-1.4-1.1-1.4 1.1c-.3.3-.7.3-1.1.1s-.6-.5-.6-.9v-5.1c0-.6.4-1 1-1h4c.6 0 1 .4 1 1v5.1c0 .4-.2.7-.6.9 0 0-.2.1-.3.1zm-2-3.7c.2 0 .5.1.6.2l.4.3v-1.9h-2v1.9l.4-.3c.1-.1.4-.2.6-.2z" fill="#2a3c65"/></g><g><path d="m47.8 59.2c-.6 0-1-.4-1-1v-6.2c0-.4-.4-.8-.8-.8h-11.2c-.4 0-.8.4-.8.8v6.1c0 .6-.4 1-1 1s-1-.4-1-1v-6.1c0-1.5 1.3-2.8 2.8-2.8h11.2c1.5 0 2.8 1.3 2.8 2.8v6.2c0 .5-.4 1-1 1z" fill="#2a3c65"/></g><g><path d="m42.4 55.2-2-1.7-1.9 1.7v-5.1h3.9z" fill="#e3ecff"/><path d="m38.5 56.2c-.1 0-.3 0-.4-.1-.4-.2-.6-.5-.6-.9v-5.1c0-.6.4-1 1-1h3.9c.6 0 1 .4 1 1v5.1c0 .4-.2.7-.6.9s-.8.1-1.1-.1l-1.3-1.1-1.3 1.1c-.1.1-.4.2-.6.2zm1.9-3.7c.2 0 .5.1.6.2l.4.3v-1.9h-1.9v1.9l.2-.2c.2-.2.5-.3.7-.3z" fill="#2a3c65"/></g><g><path d="m38.6 51.1h-11.2c-1.5 0-2.8-1.3-2.8-2.8v-8.4c0-1.5 1.3-2.8 2.8-2.8h11.2c1.5 0 2.8 1.3 2.8 2.8v8.4c0 1.5-1.3 2.8-2.8 2.8zm-11.2-12c-.4 0-.8.4-.8.8v8.4c0 .4.4.8.8.8h11.2c.4 0 .8-.4.8-.8v-8.4c0-.4-.4-.8-.8-.8z" fill="#2a3c65"/></g><g><path d="m35 43.2-2-1.8-2 1.8v-5.1h4z" fill="#e3ecff"/><path d="m35 44.2c-.2 0-.5-.1-.7-.3l-1.3-1.2-1.3 1.2c-.3.3-.7.3-1.1.2-.4-.2-.6-.5-.6-.9v-5.1c0-.6.4-1 1-1h4c.6 0 1 .4 1 1v5.1c0 .4-.2.8-.6.9-.1.1-.3.1-.4.1zm-2-3.8c.2 0 .5.1.7.3l.3.3v-1.9h-2v1.9l.3-.3c.2-.2.5-.3.7-.3z" fill="#2a3c65"/></g><g><ellipse cx="33" cy="15.8" fill="#38fcc4" rx="5.1" ry="5.1"/></g><g><path d="m33 21.9c-3.4 0-6.1-2.7-6.1-6.1s2.7-6.1 6.1-6.1 6.1 2.7 6.1 6.1-2.7 6.1-6.1 6.1zm0-10.2c-2.3 0-4.1 1.8-4.1 4.1s1.8 4.1 4.1 4.1 4.1-1.8 4.1-4.1c0-2.2-1.8-4.1-4.1-4.1z" fill="#2a3c65"/></g><g><path d="m64 63.1h-62c-.6 0-1-.4-1-1s.4-1 1-1h62c.6 0 1 .4 1 1s-.4 1-1 1z" fill="#2a3c65"/></g></g></svg>