<svg enable-background="new 0 0 512 512" height="512" viewBox="0 0 512 512" width="512" xmlns="http://www.w3.org/2000/svg"><g id="Layer_2"><g><path d="m7.524 345.053h496.952v159.423h-496.952z" fill="#cdcdc6"/><path d="m7.524 345.053h23.063v159.423h-23.063z" fill="#989898"/><path d="m256 253.828h219.772v91.226h-219.772z" fill="#cdcdc6"/><path d="m256 253.828h23.309v91.226h-23.309z" fill="#989898"/><path d="m281.241 208.215h169.289v45.613h-169.289z" fill="#cdcdc6"/><path d="m281.241 208.215h23.309v45.613h-23.309z" fill="#989898"/><path d="m45.402 143.914h94.502v201.14h-94.502z" fill="#cdcdc6"/><path d="m45.402 143.914h23.309v201.14h-23.309z" fill="#989898"/><path d="m139.905 103.64-17.251 40.398h-60l-17.252-40.398v-58.81h94.503z" fill="#cdcdc6"/><path d="m68.711 44.83h-23.309v58.81l17.252 40.398h23.308l-17.251-40.398z" fill="#989898"/><path d="m309.079 406.862h113.614v97.614h-113.614z" fill="#68c0e0"/><path d="m7.524 406.862h265.9v97.614h-265.9z" fill="#68c0e0"/><path d="m7.524 406.862h23.063v97.614h-23.063z" fill="#3282a1"/><path d="m256 294.202h219.772v51.362h-219.772z" fill="#68c0e0"/><path d="m256 294.202h23.309v51.362h-23.309z" fill="#3282a1"/><path d="m45.402 67.553h94.502v36.088h-94.502z" fill="#68c0e0"/><path d="m45.402 67.553h22.811v36.088h-22.811z" fill="#3282a1"/><path d="m458.667 406.862h45.809v97.614h-45.809z" fill="#68c0e0"/><g><path d="m504.476 340.053h-23.704v-86.226c0-2.761-2.239-5-5-5h-20.241v-40.613c0-2.761-2.239-5-5-5h-169.289c-2.761 0-5 2.239-5 5v40.613h-20.242c-2.761 0-5 2.239-5 5v86.226h-106.095v-196.14c0-2.761-2.239-5-5-5h-9.626l14.225-33.309c.265-.621.402-1.289.402-1.964v-58.81c0-2.761-2.239-5-5-5h-42.253v-32.307c0-2.761-2.239-5-5-5s-5 2.239-5 5v32.307h-42.251c-2.761 0-5 2.239-5 5v58.811c0 .675.137 1.343.402 1.964l14.224 33.309h-9.626c-2.761 0-5 2.239-5 5v196.14h-32.878c-2.761 0-5 2.239-5 5v159.423c0 2.761 2.239 5 5 5h496.952c2.761 0 5-2.239 5-5v-159.424c0-2.761-2.239-5-5-5zm-81.783 61.809h-113.614c-2.761 0-5 2.239-5 5v92.614h-25.655v-92.614c0-2.761-2.239-5-5-5h-260.9v-20.862h486.952v20.862h-40.81c-2.761 0-5 2.239-5 5v92.614h-25.973v-92.614c0-2.761-2.238-5-5-5zm-410.169 97.614v-87.614h255.9v87.614zm451.143-87.614h35.81v87.614h-35.81zm-139.41-112.66v40.851h-26.628v-40.851zm36.629 0v40.851h-26.629v-40.851zm36.629 0v40.851h-26.628v-40.851zm36.629 0v40.851h-26.629v-40.851zm10 40.851v-40.851h26.628v40.851zm-157.902-126.838h159.289v35.613h-159.289zm184.53 45.613v30.375h-209.772v-30.375zm-209.772 40.374h26.629v40.851h-26.629zm-126.095-59.719h-84.503v-21h84.502v21zm-84.503 10h84.502v21h-84.502zm0-176.93h84.502v26.088h-84.502zm84.503-22.723v12.723h-84.503v-12.723zm-81.931 58.811h79.358l-12.928 30.273h-53.502zm81.931 40.273v59.57h-84.503v-59.57zm-84.503 131.569h84.502v59.57h-84.502zm449.074 69.57v20.947h-486.952v-20.947zm-185.397 61.809h46.808v87.614h-46.808zm56.807 87.614v-87.614h46.807v87.614z"/></g></g></g></svg>