<svg enable-background="new 0 0 512 512" height="512" viewBox="0 0 512 512" width="512" xmlns="http://www.w3.org/2000/svg"><g id="Layer_2"><g><path d="m472.321 267.915c-33.182 9.296-59.72 29.519-76.745 58.48-25.135 42.755-56.768 47.688-65.864 48.183-31.974 1.753-68.578-23.754-105.774-73.72-54.871-73.709-113.354-109.553-152.752-126.643-28.028-12.157-50.711-16.894-63.662-18.738v30.347c31.156 5.322 114.947 28.97 192.35 132.948 42.45 57.024 85.015 85.894 126.602 85.894 1.622 0 3.243-.044 4.862-.132 20.385-1.106 39.685-9.133 57.364-23.854 15.804-13.159 26.525-28.516 32.736-39.081 13.026-22.16 32.537-37.137 57.988-44.515 9.722-2.818 18.562-3.963 25.049-4.4v-30.052c-8.235.439-19.577 1.76-32.154 5.283z" fill="#494a47"/><g fill="#68c0e0"><circle cx="350.963" cy="26.334" r="18.811"/><circle cx="350.963" cy="263.341" r="18.811"/><circle cx="434.757" cy="61.043" r="18.811"/><circle cx="267.168" cy="228.632" r="18.811"/><circle cx="434.757" cy="228.632" r="18.811"/><circle cx="267.168" cy="61.043" r="18.811"/><circle cx="469.466" cy="144.838" r="18.811"/><circle cx="232.459" cy="144.838" r="18.811"/></g><circle cx="350.963" cy="144.838" fill="#494a47" r="20.721"/><g><path d="m46.553 396.992h153.921v107.484h-153.921z" fill="#cdcdc6"/><path d="m46.553 396.992h23.309v107.484h-23.309z" fill="#989898"/><path d="m66.799 391.208h113.429v83.412h-113.429z" fill="#68c0e0"/><path d="m207.315 360.021h-167.603l-10.513 36.971v17.079c0 9.433 7.038 17.079 15.719 17.079 8.681 0 15.719-7.647 15.719-17.079 0 9.433 7.038 17.079 15.719 17.079 8.679 0 15.716-7.643 15.719-17.073.003 9.43 7.039 17.073 15.719 17.073 8.681 0 15.719-7.647 15.719-17.079 0 9.433 7.038 17.079 15.719 17.079 8.681 0 15.719-7.647 15.719-17.079 0 9.433 7.038 17.079 15.719 17.079s15.719-7.647 15.719-17.079c0 9.433 7.038 17.079 15.719 17.079 8.681 0 15.719-7.647 15.719-17.079v-17.079z" fill="#e15f4f"/><g><path d="m52.508 414.072v-17.079l10.513-36.971h-23.309l-10.513 36.971v17.079c0 9.432 7.038 17.079 15.719 17.079 4.629 0 8.778-2.187 11.654-5.647-2.518-3.029-4.064-7.029-4.064-11.432z" fill="#ca4336"/></g></g><path d="m200.474 458.667h304.002v45.81h-304.002z" fill="#fed2a4"/><path d="m7.524 458.667h39.029v45.81h-39.029z" fill="#fed2a4"/><path d="m7.524 458.667h23.309v45.81h-23.309z" fill="#f2af7c"/><path d="m30.832 160.219c-9.506-2.462-17.417-3.903-23.309-4.742v30.347c5.972 1.02 13.884 2.718 23.309 5.522z" fill="#333331"/><g><path d="m509.476 262.632c0-1.372-.564-2.685-1.56-3.629s-2.334-1.442-3.707-1.364c-11.264.602-22.447 2.438-33.237 5.462-32.615 9.137-59.049 28.46-76.788 56.031l-5.145-76.771c7.831-3.068 15.203-7.055 21.988-11.825.444 5.643 2.848 10.888 6.893 14.933v.001c4.498 4.497 10.477 6.974 16.837 6.974s12.339-2.477 16.837-6.974c4.497-4.498 6.974-10.477 6.974-16.838 0-6.359-2.477-12.339-6.974-16.836-4.046-4.046-9.291-6.45-14.933-6.893 8.647-12.3 14.716-26.535 17.416-41.917 4.154 3.528 9.526 5.663 15.39 5.663 13.129 0 23.811-10.682 23.811-23.811 0-13.13-10.682-23.812-23.811-23.812-5.864 0-11.236 2.135-15.39 5.663-2.701-15.39-8.776-29.632-17.43-41.936 5.453-.431 10.785-2.711 14.947-6.872 0-.001 0-.001 0-.001 9.283-9.284 9.283-24.39 0-33.675-9.284-9.28-24.389-9.283-33.674.001-4.162 4.162-6.442 9.495-6.872 14.948-12.304-8.654-26.546-14.729-41.937-17.43 3.528-4.154 5.663-9.525 5.663-15.39 0-13.129-10.682-23.811-23.811-23.811s-23.811 10.682-23.811 23.811c0 5.864 2.135 11.236 5.663 15.39-15.39 2.701-29.632 8.776-41.937 17.43-.43-5.453-2.711-10.786-6.872-14.949-9.284-9.282-24.39-9.281-33.674.001-9.283 9.284-9.283 24.39 0 33.674v.001c4.162 4.162 9.495 6.442 14.948 6.872-8.654 12.304-14.729 26.546-17.43 41.936-4.154-3.528-9.526-5.663-15.389-5.663-13.129 0-23.811 10.682-23.811 23.812 0 13.129 10.682 23.811 23.811 23.811 5.864 0 11.236-2.135 15.389-5.663 2.7 15.382 8.769 29.617 17.416 41.917-5.642.443-10.888 2.847-14.933 6.892-4.497 4.498-6.974 10.478-6.974 16.837 0 6.361 2.477 12.34 6.974 16.837 4.498 4.498 10.477 6.975 16.837 6.975s12.34-2.477 16.837-6.974c0-.001 0 0 0-.001 4.045-4.045 6.449-9.291 6.893-14.933 6.785 4.77 14.157 8.757 21.988 11.825l-8.247 123.064c-23.971-8.901-50.044-31.757-76.69-67.552-55.531-74.595-114.818-110.913-154.775-128.245-27.951-12.124-50.746-17.079-64.947-19.101-1.435-.201-2.887.224-3.981 1.174-1.095.949-1.723 2.327-1.723 3.776v348.998.001c0 2.762 2.239 5 5 5h496.952c2.761 0 5-2.238 5-5v-.001-241.843zm-437.677 172.98c1.467.352 2.992.539 4.558.539 6.279 0 11.916-2.993 15.719-7.711 3.803 4.718 9.439 7.711 15.719 7.711s11.917-2.993 15.719-7.71c3.803 4.717 9.439 7.71 15.719 7.71s11.917-2.993 15.719-7.71c3.803 4.717 9.439 7.71 15.719 7.71 1.565 0 3.09-.187 4.557-.539v34.008h-103.429zm109.591-21.541c0 6.66-4.809 12.079-10.719 12.079s-10.719-5.419-10.719-12.079c0-2.762-2.239-5-5-5s-5 2.238-5 5c0 6.66-4.809 12.079-10.719 12.079s-10.719-5.419-10.719-12.079c0-2.762-2.239-5-5-5s-5 2.238-5 5c0 6.66-4.809 12.079-10.719 12.079-5.908 0-10.717-5.416-10.719-12.074-.001-2.761-2.239-4.998-5-4.998s-4.999 2.237-5 4.998c-.002 6.658-4.811 12.074-10.719 12.074-5.911 0-10.719-5.419-10.719-12.079 0-2.762-2.239-5-5-5s-5 2.238-5 5c0 6.66-4.809 12.079-10.719 12.079s-10.719-5.419-10.719-12.079v-16.382l9.29-32.668h160.05l9.29 32.668v16.382c0 6.66-4.809 12.079-10.719 12.079s-10.719-5.419-10.719-12.079c0-2.762-2.239-5-5-5s-5.002 2.239-5.002 5zm-168.866-222.213c11.264 2.323 26.853 6.638 45.217 14.64v148.523h-18.029c-2.235 0-4.198 1.482-4.81 3.633l-10.513 36.971c-.126.444-.19.904-.19 1.367v17.079c0 10.954 7.525 20.065 17.354 21.783v17.813h-29.029zm110.434 163.163v-109.134c14.736 11.56 29.954 25.474 45.217 42.22v66.915h-45.217zm-10 0h-45.217v-143.915c13.966 6.775 29.234 15.64 45.217 27.232zm92.516 80.833c9.829-1.719 17.354-10.83 17.354-21.783v-17.079c0-.463-.064-.923-.19-1.367l-10.513-36.971c-.611-2.15-2.575-3.633-4.81-3.633h-29.14v-55.541c5.913 6.977 11.817 14.391 17.688 22.277 9.157 12.301 18.337 23.307 27.529 33.042v98.867h-17.917v-17.812zm27.918-70.971c15.069 14.418 30.158 25.375 45.217 32.841v55.943h-45.217zm55.216 37.285c12.661 4.98 25.294 7.498 37.867 7.498 1.705 0 3.432-.047 5.133-.14.741-.04 1.478-.11 2.216-.167v44.308h-45.217v-51.499zm55.217 5.886c15.903-2.98 31.055-10.096 45.217-21.232v66.845h-45.217zm55.217-29.934c12.49-11.971 21.278-24.753 26.707-33.987 5.118-8.708 11.311-16.228 18.51-22.57v132.104h-45.217zm55.217-64.17c7.907-5.179 16.76-9.223 26.559-12.063 6.981-2.023 13.47-3.124 18.658-3.723v155.503h-45.217zm-89.485-50.609c0 7.615-6.196 13.812-13.811 13.812s-13.811-6.196-13.811-13.812 6.196-13.811 13.811-13.811 13.811 6.196 13.811 13.811zm-77.106-48.137 48.997-48.998c2.768 1.858 5.915 3.191 9.298 3.86v69.332c-22.349-1.168-42.668-10.123-58.295-24.194zm84.664-56.068c1.858-2.768 3.191-5.915 3.86-9.298h69.331c-1.168 22.349-10.123 42.668-24.194 58.295zm-21.369 1.423c-8.668 0-15.721-7.053-15.721-15.721s7.053-15.721 15.721-15.721 15.721 7.053 15.721 15.721-7.053 15.721-15.721 15.721zm25.229-20.721c-.669-3.383-2.002-6.53-3.86-9.298l48.997-48.997c14.071 15.627 23.026 35.947 24.194 58.295zm-10.931-16.369c-2.768-1.857-5.915-3.19-9.298-3.86v-69.332c22.349 1.168 42.668 10.124 58.295 24.194zm-19.298-3.86c-3.383.669-6.53 2.002-9.298 3.86l-48.997-48.997c15.627-14.071 35.947-23.026 58.295-24.194zm-16.369 10.931c-1.858 2.768-3.191 5.915-3.861 9.298h-69.331c1.168-22.349 10.123-42.668 24.194-58.295zm-3.861 19.298c.669 3.383 2.002 6.53 3.86 9.298l-48.997 48.998c-14.071-15.627-23.026-35.947-24.194-58.295h69.331zm30.23 89.56v-69.332c3.383-.669 6.53-2.002 9.298-3.86l48.997 48.998c-15.627 14.071-35.946 23.026-58.295 24.194zm92.605-10.766c0 3.689-1.437 7.158-4.045 9.767-2.608 2.608-6.077 4.045-9.766 4.045s-7.157-1.437-9.766-4.045c0 0 0 0 0-.001-2.609-2.607-4.045-6.076-4.045-9.766 0-3.688 1.437-7.157 4.045-9.766 2.608-2.608 6.077-4.045 9.766-4.045s7.157 1.437 9.766 4.046c2.609 2.608 4.045 6.076 4.045 9.765zm20.898-97.606c7.615 0 13.811 6.196 13.811 13.812s-6.196 13.811-13.811 13.811c-7.616 0-13.812-6.195-13.812-13.811s6.197-13.812 13.812-13.812zm-44.474-79.749c2.692-2.693 6.229-4.039 9.766-4.039 3.536 0 7.074 1.347 9.766 4.038 5.385 5.386 5.385 14.147 0 19.533-5.384 5.384-14.147 5.384-19.531 0-5.386-5.385-5.386-14.147-.001-19.532zm-87.84-24.943c0-7.615 6.196-13.811 13.811-13.811s13.811 6.195 13.811 13.811-6.196 13.812-13.811 13.812-13.811-6.197-13.811-13.812zm-79.75 44.476c-5.384-5.386-5.384-14.148 0-19.532 5.384-5.387 14.147-5.384 19.532-.001 5.385 5.386 5.385 14.147 0 19.532-5.385 5.384-14.147 5.384-19.532.001zm-24.943 87.838c-7.615 0-13.811-6.195-13.811-13.811s6.196-13.812 13.811-13.812 13.811 6.196 13.811 13.812-6.195 13.811-13.811 13.811zm44.475 79.749c0 .001 0 .001 0 0-2.608 2.609-6.077 4.046-9.766 4.046s-7.157-1.437-9.766-4.046c-2.609-2.607-4.045-6.076-4.045-9.766 0-3.688 1.437-7.157 4.045-9.766 2.608-2.608 6.077-4.045 9.766-4.045s7.158 1.437 9.766 4.046c2.609 2.607 4.045 6.076 4.045 9.765 0 3.69-1.436 7.159-4.045 9.766zm45.754 7.251c3.312.93 6.691 1.701 10.126 2.304-3.528 4.153-5.662 9.525-5.662 15.389 0 13.13 10.682 23.812 23.811 23.812s23.811-10.682 23.811-23.812c0-5.863-2.135-11.235-5.662-15.389 3.435-.603 6.814-1.374 10.126-2.304l5.879 87.724c-22.551 31.833-47.923 35.793-55.679 36.214-4.868.265-9.865-.167-14.971-1.263zm-310.164-84.315c13.648 2.382 33.239 7.305 56.672 17.469 38.84 16.848 96.52 52.218 150.731 125.042 30.04 40.355 59.966 65.172 87.765 73.067.127.041.255.073.387.104 7.468 2.08 14.784 2.951 21.904 2.556 9.726-.527 43.508-5.741 69.904-50.641 16.357-27.826 41.872-47.26 73.783-56.2 9.831-2.754 18.87-4.087 25.806-4.722v20.089c-7.293.767-14.486 2.169-21.441 4.185-26.72 7.746-47.212 23.486-60.907 46.783-6.009 10.223-16.374 25.073-31.625 37.772-16.835 14.02-35.15 21.658-54.436 22.704-32.352 1.763-65.579-15.116-99.099-50.194-.022-.023-.042-.047-.065-.069-9.321-9.761-18.664-20.925-28.018-33.49-75.012-100.767-156.025-127.227-191.361-134.131zm0 302.334h29.029v35.81h-29.029zm39.029-5v-23.68c3.558-1.285 6.686-3.572 9.084-6.546.369.457.76.893 1.162 1.317v44.863c0 2.762 2.239 5 5 5h113.429c2.761 0 5-2.238 5-5v-44.862c.402-.424.793-.86 1.162-1.317 2.398 2.975 5.526 5.261 9.084 6.546v23.68 40.81h-143.921zm153.921 5h294.002v35.81h-294.002z"/></g></g></g></svg>