<svg enable-background="new 0 0 512 512" height="512" viewBox="0 0 512 512" width="512" xmlns="http://www.w3.org/2000/svg"><g id="Layer_2"><g><g><path d="m40.991 7.524h140.697v496.953h-140.697z" fill="#cdcdc6"/><path d="m40.991 7.524h23.448v496.953h-23.448z" fill="#989898"/><path d="m181.688 36.507h148.624v467.969h-148.624z" fill="#989898"/><path d="m330.312 7.524h140.697v496.953h-140.697z" fill="#cdcdc6" transform="matrix(-1 0 0 -1 801.321 512)"/><path d="m376 65.102h95.009v381.797h-95.009z" fill="#68c0e0" transform="matrix(-1 0 0 -1 847.009 512.001)"/><g fill="#fed2a4"><path d="m376 409.188h111.889v37.711h-111.889z"/><path d="m376 323.167h111.889v37.711h-111.889z"/><path d="m376 237.145h111.889v37.711h-111.889z"/><path d="m376 151.123h111.889v37.711h-111.889z"/><path d="m376 65.102h111.889v37.711h-111.889z"/></g><g fill="#68c0e0"><path d="m221.651 416.984h68.697v87.493h-68.697z"/><path d="m228.517 75.33h54.965v54.965h-54.965z"/><path d="m228.517 185.507h54.965v54.965h-54.965z"/><path d="m228.517 295.684h54.965v54.965h-54.965z"/><path d="m40.991 65.102h95.009v381.797h-95.009z"/></g><path d="m40.991 65.102h23.309v381.797h-23.309z" fill="#3282a1"/><g><g fill="#fed2a4"><path d="m24.111 409.188h111.889v37.711h-111.889z"/><path d="m24.111 323.167h111.889v37.711h-111.889z"/><path d="m24.111 237.145h111.889v37.711h-111.889z"/></g><path d="m24.111 237.145h23.309v37.711h-23.309z" fill="#f2af7c"/><path d="m24.111 323.167h23.309v37.711h-23.309z" fill="#f2af7c"/><path d="m24.111 409.188h23.309v37.711h-23.309z" fill="#f2af7c"/><path d="m24.111 151.123h111.889v37.711h-111.889z" fill="#fed2a4"/><path d="m24.111 65.102h111.889v37.711h-111.889z" fill="#fed2a4"/><path d="m24.111 151.123h23.309v37.711h-23.309z" fill="#f2af7c"/><path d="m24.111 65.102h23.309v37.711h-23.309z" fill="#f2af7c"/></g></g><g><path d="m487.889 107.813c2.761 0 5-2.239 5-5v-37.711c0-2.761-2.239-5-5-5h-11.88v-52.578c0-2.761-2.239-5-5-5h-140.697c-2.761 0-5 2.239-5 5v23.984h-138.624v-23.984c0-2.761-2.239-5-5-5h-140.697c-2.761 0-5 2.239-5 5v52.578h-11.88c-2.761 0-5 2.239-5 5v37.711c0 2.761 2.239 5 5 5h11.88v38.311h-11.88c-2.761 0-5 2.239-5 5v37.711c0 2.761 2.239 5 5 5h11.88v38.311h-11.88c-2.761 0-5 2.239-5 5v37.711c0 2.761 2.239 5 5 5h11.88v38.311h-11.88c-2.761 0-5 2.239-5 5v37.711c0 2.761 2.239 5 5 5h11.88v38.311h-11.88c-2.761 0-5 2.239-5 5v37.711c0 2.761 2.239 5 5 5h11.88v52.578c0 2.761 2.239 5 5 5h430.018c2.761 0 5-2.239 5-5v-52.578h11.88c2.761 0 5-2.239 5-5v-37.711c0-2.761-2.239-5-5-5h-11.88v-38.311h11.88c2.761 0 5-2.239 5-5v-37.711c0-2.761-2.239-5-5-5h-11.88v-38.311h11.88c2.761 0 5-2.239 5-5v-37.711c0-2.761-2.239-5-5-5h-11.88v-38.311h11.88c2.761 0 5-2.239 5-5v-37.711c0-2.761-2.239-5-5-5h-11.88v-38.311zm-458.778-10v-27.711h101.889v27.711zm101.889 10v38.311h-85.009v-38.311zm-101.889 76.021v-27.711h101.889v27.711zm101.889 10v38.311h-85.009v-38.311zm-101.889 76.022v-27.711h101.889v27.711zm101.889 10v38.311h-85.009v-38.311zm-101.889 76.021v-27.711h101.889v27.711zm101.889 10v38.311h-85.009v-38.311zm-101.889 76.022v-27.711h101.889v27.711zm147.577 57.578h-130.697v-47.578h90.009c2.761 0 5-2.239 5-5v-381.797c0-2.761-2.239-5-5-5h-90.009v-47.578h130.697zm108.661 0h-58.697v-77.493h58.697zm39.963 0h-29.963v-82.493c0-2.761-2.239-5-5-5h-68.697c-2.761 0-5 2.239-5 5v82.493h-29.963v-457.97h138.624v457.97zm140.697 0h-130.697v-486.953h130.697v47.578h-90.009c-2.761 0-5 2.239-5 5v381.797c0 2.761 2.239 5 5 5h90.009zm-85.009-391.664h85.009v38.311h-85.009zm0 86.021h85.009v38.311h-85.009zm0 86.022h85.009v38.311h-85.009zm0 86.021h85.009v38.311h-85.009zm101.889 48.311v27.711h-101.889v-27.711zm0-86.021v27.711h-101.889v-27.711zm0-86.022v27.711h-101.889v-27.711zm0-86.022v27.711h-101.889v-27.711zm-101.889-58.31v-27.711h101.889v27.711z"/><path d="m310.211 350.649v-24.161c0-2.761-2.239-5-5-5h-16.729v-25.804c0-2.761-2.239-5-5-5h-54.965c-2.761 0-5 2.239-5 5v25.804h-16.729c-2.761 0-5 2.239-5 5v24.161c0 2.761 2.239 5 5 5h98.422c2.762 0 5.001-2.238 5.001-5zm-86.693-5h-11.729v-14.161h11.729zm27.482 0h-17.482v-14.161h17.482zm27.482 0h-17.482v-14.161h17.482zm0-24.161h-44.965v-20.804h44.965zm21.729 24.161h-11.729v-14.161h11.729z"/><path d="m206.789 245.472h98.422c2.761 0 5-2.239 5-5v-24.161c0-2.761-2.239-5-5-5h-16.729v-25.804c0-2.761-2.239-5-5-5h-54.965c-2.761 0-5 2.239-5 5v25.804h-16.729c-2.761 0-5 2.239-5 5v24.161c.001 2.762 2.24 5 5.001 5zm81.693-24.161h11.729v14.161h-11.729zm-10 14.161h-17.482v-14.161h17.482zm-44.964-44.965h44.965v20.804h-44.965zm0 30.804h17.482v14.161h-17.482zm-21.729 0h11.729v14.161h-11.729z"/><path d="m206.789 135.295h98.422c2.761 0 5-2.239 5-5v-24.161c0-2.761-2.239-5-5-5h-16.729v-25.804c0-2.761-2.239-5-5-5h-54.965c-2.761 0-5 2.239-5 5v25.804h-16.729c-2.761 0-5 2.239-5 5v24.161c.001 2.762 2.24 5 5.001 5zm81.693-24.161h11.729v14.161h-11.729zm-10 14.161h-17.482v-14.161h17.482zm-44.964-44.965h44.965v20.804h-44.965zm0 30.804h17.482v14.161h-17.482zm-21.729 0h11.729v14.161h-11.729z"/></g></g></g></svg>