<svg enable-background="new 0 0 512 512" height="512" viewBox="0 0 512 512" width="512" xmlns="http://www.w3.org/2000/svg"><g id="Layer_2"><g><path d="m291.574 73.958h54.73v42.329h-54.73z" fill="#3282a1"/><path d="m256 181.282c-137.23 0-248.476 19.983-248.476 44.632l30 202.378c15.238 15.238 97.837 44.519 218.491 44.519s202.637-28.694 218.462-44.519l30-202.378c-.001-24.65-111.247-44.632-248.477-44.632z" fill="#cdcdc6"/><path d="m60.832 428.292-30-202.378c0-23.948 105.004-43.488 236.822-44.582-3.863-.032-7.747-.05-11.654-.05-137.23 0-248.476 19.983-248.476 44.632l30 202.378c15.238 15.238 97.837 44.519 218.491 44.519 3.943 0 7.842-.032 11.702-.092-114.328-1.793-192.14-29.683-206.885-44.427z" fill="#989898"/><path d="m256 270.546c68.312 0 130.18-4.953 175.098-12.967-30.35-15.397-97.334-26.096-175.098-26.096s-144.747 10.699-175.098 26.096c44.918 8.014 106.786 12.967 175.098 12.967z" fill="#4eb7a2"/><path d="m256 415.043c-22.569 0-40.864 18.295-40.864 40.864v15.758c13.072.737 26.709 1.146 40.878 1.146 14.167 0 27.793-.4 40.849-1.124v-15.78c.001-22.568-18.295-40.864-40.863-40.864z" fill="#bb5d4c"/><path d="m256 53.667h71.148v42.329h-71.148z" fill="#68c0e0"/><path d="m256 53.667h23.309v42.329h-23.309z" fill="#3282a1"/><path d="m153.454 90.334h47.524v36.756h-47.524z" fill="#ca4336"/><path d="m122.564 76.745h61.781v36.756h-61.781z" fill="#e15f4f"/><path d="m122.564 76.745h23.309v36.756h-23.309z" fill="#ca4336"/><path d="m420.326 90.334h47.524v36.756h-47.524z" fill="#f8ae46"/><path d="m389.436 76.745h61.781v36.756h-61.781z" fill="#f8d250"/><path d="m389.436 76.745h23.309v36.756h-23.309z" fill="#f8ae46"/><g><path d="m509.472 225.97c0-.019.004-.038.004-.056 0-8.337-7.384-15.524-22.572-21.975-12.858-5.461-31.135-10.342-54.321-14.507-11.807-2.121-24.583-4.003-38.147-5.634v-65.298h20.891v8.589c0 2.762 2.238 5 5 5h47.524c2.762 0 5-2.238 5-5v-36.755c0-2.762-2.238-5-5-5h-11.634v-8.589c0-2.762-2.238-5-5-5h-56.781v-7.572c0-2.762-2.238-5-5-5s-5 2.238-5 5v118.485c-37.019-4.006-79.293-6.211-123.436-6.366v-75.296h25.574v15.291c0 2.762 2.238 5 5 5h54.73c2.762 0 5-2.238 5-5v-42.329c0-2.762-2.238-5-5-5h-14.156v-15.291c0-2.762-2.238-5-5-5h-66.148v-9.478c0-2.762-2.238-5-5-5s-5 2.238-5 5v137.103c-44.143.155-86.417 2.36-123.436 6.366v-64.157h20.89v8.589c0 2.762 2.238 5 5 5h47.524c2.762 0 5-2.238 5-5v-36.756c0-2.762-2.238-5-5-5h-11.634v-8.589c0-2.762-2.238-5-5-5h-56.78v-7.572c0-2.762-2.238-5-5-5s-5 2.238-5 5v119.626c-13.564 1.631-26.341 3.513-38.147 5.634-23.187 4.165-41.463 9.046-54.321 14.507-15.188 6.45-22.572 13.638-22.572 21.975 0 .019.004.038.004.056.005 1.152.164 2.279.451 3.388l29.598 199.667c.157 1.062.652 2.044 1.411 2.803 9.505 9.504 37.117 20.729 72.061 29.294 31.061 7.613 82.292 16.688 149.966 16.688 114.845 0 202.719-26.705 221.997-45.982.759-.759 1.254-1.741 1.411-2.803l29.598-199.667c.288-1.109.447-2.237.451-3.389zm-46.621-130.636v26.756h-37.524v-3.589h25.891c2.762 0 5-2.238 5-5v-18.167zm-16.634-13.589v26.756h-51.781v-26.756zm-250.238 13.589v26.756h-37.524v-3.589h25.891c2.762 0 5-2.238 5-5v-18.167zm-16.634-13.589v26.756h-51.78v-26.756zm302.261 264.355c-39.113 16.007-126.957 26.286-225.606 26.286s-186.494-10.279-225.606-26.286l-15.304-103.24c2.845 1.727 6.176 3.401 10.007 5.028 12.857 5.461 31.134 10.341 54.32 14.506 47.214 8.48 109.926 13.151 176.583 13.151s129.369-4.671 176.583-13.151c23.187-4.165 41.463-9.045 54.32-14.506 3.831-1.627 7.162-3.301 10.007-5.028zm-225.606-109.617c63.323 0 121.858 7.275 156.756 19.013-44.06 6.509-98.873 10.05-156.756 10.05-57.901 0-112.729-3.542-156.797-10.056 34.903-11.738 93.474-19.007 156.797-19.007zm85.305-157.525v32.329h-44.73v-10.291h30.574c2.762 0 5-2.238 5-5v-17.038zm-19.157-20.291v32.329h-61.148v-32.329zm-240.963 140.608c46.648-8.38 108.732-12.994 174.815-12.994s128.167 4.614 174.815 12.994c53.264 9.567 68.149 20.926 68.648 26.358l-.226 1.525c-2.043 5.692-17.924 16.217-67.426 25.212-19.38-9.378-51.532-16.764-90.148-21.206l14.692-13.967c2.001-1.902 2.081-5.067.179-7.069-1.903-2-5.067-2.082-7.069-.179l-20.879 19.849c-21.227-2.006-44.068-3.151-67.586-3.294v-18.876c0-2.762-2.238-5-5-5s-5 2.238-5 5v18.876c-23.418.142-46.164 1.278-67.314 3.269l-20.852-19.823c-2.003-1.904-5.166-1.822-7.069.179-1.902 2.002-1.822 5.167.179 7.069l14.661 13.937c-38.735 4.438-70.99 11.835-90.415 21.236-49.503-8.995-65.383-19.52-67.426-25.212l-.226-1.525c.497-5.433 15.383-16.791 68.647-26.359zm138.951 267.657v-11.025c0-19.775 16.089-35.864 35.864-35.864s35.864 16.089 35.864 35.864v11.036c-11.511.561-23.467.868-35.85.868-12.544 0-24.511-.317-35.878-.879zm249.652-41.112c-14.893 12.797-76.119 34.79-167.924 40.565v-10.478c0-25.29-20.574-45.864-45.864-45.864s-45.864 20.574-45.864 45.864v10.455c-44.216-2.826-78.636-9.298-101.707-14.953-35.362-8.667-58.263-18.868-66.219-25.6l-10.135-68.366c42.575 15.263 128.45 24.942 223.925 24.942 95.474 0 181.349-9.68 223.924-24.942z"/></g></g></g></svg>