<svg enable-background="new 0 0 512 512" height="512" viewBox="0 0 512 512" width="512" xmlns="http://www.w3.org/2000/svg"><g id="Layer_2"><g><g><path d="m87.131 249.046h337.739v181.104h-337.739z" fill="#fed2a4"/><path d="m403.581 211.335h-295.162v-61.717l147.581-93.325 147.581 93.325z" fill="#fed2a4"/><path d="m71.349 172.92v-49.524l184.651-116.968 184.651 116.968v49.524l-184.651-116.968z" fill="#494a47"/><path d="m61.522 211.335h388.956v37.711h-388.956z" fill="#494a47"/><path d="m61.522 211.335h23.309v37.711h-23.309z" fill="#333331"/><path d="m61.522 430.15h388.956v37.711h-388.956z" fill="#494a47"/><path d="m61.522 430.15h23.228v37.711h-23.228z" fill="#333331"/><path d="m37.549 467.861h436.902v37.711h-436.902z" fill="#494a47"/><path d="m37.549 467.861h23.309v37.711h-23.309z" fill="#333331"/><path d="m78.479 249.046h61.462v31.932h-61.462z" fill="#cdcdc6"/><path d="m78.479 249.046h23.309v31.932h-23.309z" fill="#989898"/><path d="m78.479 398.218h61.462v31.932h-61.462z" fill="#cdcdc6"/><path d="m78.479 398.218h23.309v31.932h-23.309z" fill="#989898"/><path d="m86.697 280.978h45.024v117.24h-45.024z" fill="#cdcdc6"/><path d="m86.697 280.978h23.071v117.24h-23.071z" fill="#989898"/><g fill="#cdcdc6"><path d="m225.269 249.046h61.462v31.932h-61.462z"/><path d="m225.269 398.218h61.462v31.932h-61.462z"/><path d="m233.488 280.978h45.024v117.24h-45.024z"/><path d="m372.06 249.046h61.462v31.932h-61.462z"/><path d="m372.06 397.839h61.462v31.932h-61.462z"/><path d="m380.278 280.978h45.024v117.24h-45.024z"/></g><path d="m161.938 280.801h41.027v117.618h-41.027z" fill="#68c0e0"/><path d="m308.882 280.801h41.027v117.618h-41.027z" fill="#68c0e0"/><circle cx="256" cy="139.215" fill="#fff" r="49.541"/><path d="m94.658 108.631-23.309 14.765v49.524l23.309-14.765z" fill="#333331"/><path d="m131.727 134.878-23.308 14.74v61.717h23.308z" fill="#f2af7c"/></g><g><path d="m78.479 393.218c-2.761 0-5 2.239-5 5v26.932h-11.957c-2.761 0-5 2.239-5 5v32.711h-18.973c-2.761 0-5 2.239-5 5v37.711c0 2.761 2.239 5 5 5h436.902c2.761 0 5-2.239 5-5v-37.711c0-2.761-2.239-5-5-5h-18.973v-32.711c0-2.761-2.239-5-5-5h-11.957v-26.932c0-2.761-2.239-5-5-5h-3.219v-107.24h3.219c2.761 0 5-2.239 5-5v-26.932h11.957c2.761 0 5-2.239 5-5v-37.711c0-2.761-2.239-5-5-5h-41.896v-47.811l29.393 18.619c.815.516 1.745.776 2.676.776.829 0 1.659-.206 2.411-.619 1.597-.879 2.589-2.558 2.589-4.381v-49.524c0-1.713-.877-3.307-2.324-4.224l-184.651-116.967c-1.634-1.035-3.718-1.035-5.352 0l-184.65 116.968c-1.447.917-2.324 2.511-2.324 4.224v49.524c0 1.823.992 3.502 2.589 4.381 1.598.879 3.546.819 5.086-.157l29.393-18.619v47.811h-41.896c-2.761 0-5 2.239-5 5v37.711c0 2.761 2.239 5 5 5h11.957v26.932c0 2.761 2.239 5 5 5h3.219v107.24h-3.219zm390.972 79.643v27.711h-426.902v-27.711zm-393.101-309.027v-37.686l179.65-113.801 179.65 113.801v37.686l-176.974-112.106c-.817-.517-1.747-.776-2.676-.776s-1.859.259-2.676.776zm322.232-11.644v54.146h-285.164v-54.146l142.582-90.319zm-332.06 91.856v-27.711h378.956v27.711zm361.999 159.172v21.932h-51.461v-21.932zm-43.243-10v-107.24h35.024v107.24zm-8.218-117.24v-21.932h51.462v21.932zm-90.329 117.24h-3.219v-107.24h3.219c2.761 0 5-2.239 5-5v-26.932h75.329v26.932c0 2.761 2.239 5 5 5h3.219v107.24h-3.219c-2.761 0-5 2.239-5 5v26.932h-75.329v-26.932c0-2.761-2.239-5-5-5zm-5 10v21.932h-51.462v-21.932zm-43.243-10v-107.24h35.024v107.24zm-8.219-117.24v-21.932h51.462v21.932zm-90.329 117.24h-3.219v-107.24h3.219c2.761 0 5-2.239 5-5v-26.932h75.329v26.932c0 2.761 2.239 5 5 5h3.219v107.24h-3.219c-2.761 0-5 2.239-5 5v26.932h-75.329v-26.932c0-2.761-2.238-5-5-5zm-5 10v21.932h-51.461v-21.932zm-43.243-10v-107.24h35.024v107.24zm-8.218-117.24v-21.932h51.462v21.932zm361.999 159.172v27.711h-378.956v-27.711z"/><path d="m161.938 403.419h41.027c2.761 0 5-2.239 5-5v-117.618c0-2.761-2.239-5-5-5h-41.027c-2.761 0-5 2.239-5 5v117.618c0 2.762 2.239 5 5 5zm5-117.618h31.027v107.618h-31.027z"/><path d="m308.882 403.419h41.027c2.761 0 5-2.239 5-5v-117.618c0-2.761-2.239-5-5-5h-41.027c-2.761 0-5 2.239-5 5v117.618c0 2.762 2.239 5 5 5zm5-117.618h31.027v107.618h-31.027z"/><path d="m201.459 139.215c0 30.074 24.467 54.541 54.541 54.541s54.541-24.467 54.541-54.541-24.467-54.541-54.541-54.541-54.541 24.467-54.541 54.541zm99.082 0c0 24.56-19.981 44.541-44.541 44.541s-44.541-19.981-44.541-44.541 19.981-44.541 44.541-44.541 44.541 19.981 44.541 44.541z"/><path d="m251 109.92v4.344c-6.54.688-11.654 6.233-11.654 12.952v3.974c0 7.182 5.843 13.026 13.026 13.026h7.257c1.668 0 3.026 1.357 3.026 3.026v3.974c0 1.668-1.357 3.026-3.026 3.026h-7.257c-1.668 0-3.026-1.357-3.026-3.026v-1c0-2.761-2.239-5-5-5s-5 2.239-5 5v1c0 6.719 5.114 12.264 11.654 12.952v4.343c0 2.761 2.239 5 5 5s5-2.239 5-5v-4.343c6.54-.688 11.654-6.233 11.654-12.952v-3.974c0-7.182-5.843-13.026-13.026-13.026h-7.257c-1.668 0-3.026-1.357-3.026-3.026v-3.974c0-1.668 1.357-3.026 3.026-3.026h7.257c1.668 0 3.026 1.357 3.026 3.026 0 2.761 2.239 5 5 5s5-2.239 5-5c0-6.719-5.114-12.264-11.654-12.952v-4.344c0-2.761-2.239-5-5-5s-5 2.238-5 5z"/></g></g></g></svg>