<svg enable-background="new 0 0 512 512" height="512" viewBox="0 0 512 512" width="512" xmlns="http://www.w3.org/2000/svg"><g id="Layer_2"><g><path d="m416.913 118.663-160.899-63.068-161.684 63.564-40.983 61.247v293.499h405.333v-293.206z" fill="#e15f4f"/><path d="m117.638 119.159 150.047-58.989-11.671-4.575-161.684 63.564-40.983 61.247v293.499h23.309v-293.499z" fill="#ca4336"/><g><path d="m476.164 238.003-70.719-105.039-149.422-58.568-150.194 59.046-69.937 104.519-29.089-19.464 72.982-109.07c1.983-2.963 4.823-5.25 8.142-6.555l161.684-63.563c4.11-1.616 8.679-1.618 12.79-.006l160.899 63.067c3.309 1.297 6.145 3.571 8.13 6.52l73.768 109.566z" fill="#494a47"/></g><path d="m142.495 266.559h227.037v207.353h-227.037z" fill="#fff"/><path d="m168.648 290.444h174.731v183.468h-174.731z" fill="#883f2e"/><path d="m216.711 129.807h78.605v78.605h-78.605z" fill="#883f2e"/><path d="m182.423 473.777-13.775.135v-22.377l161.091-161.091h13.64v22.377z" fill="#fff"/><path d="m168.648 290.444 13.419-.221 161.312 161.312v22.377l-13.908-.268-160.823-160.823z" fill="#fff"/><g><path d="m509.345 215.663-73.768-109.567c-2.564-3.808-6.179-6.707-10.453-8.382l-160.899-63.067c-5.304-2.079-11.144-2.077-16.444.008l-161.683 63.564c-4.286 1.685-7.906 4.599-10.468 8.427l-72.983 109.07c-.738 1.102-1.007 2.452-.75 3.753s1.022 2.446 2.124 3.184l29.089 19.463c2.296 1.536 5.4.921 6.937-1.375l8.3-12.404v245.567c0 2.761 2.239 5 5 5h405.333c2.761 0 5-2.239 5-5v-245.491l8.336 12.382c.965 1.434 2.544 2.208 4.152 2.208.96 0 1.932-.276 2.788-.853l29.033-19.547c1.1-.741 1.861-1.888 2.115-3.189.255-1.302-.019-2.651-.759-3.751zm-144.813 253.242h-16.152v-178.461c0-2.761-2.239-5-5-5h-174.732c-2.761 0-5 2.239-5 5v178.461h-16.152v-197.346h217.036zm-184.314-173.461 158.162 158.162v15.208l-6.797-.131-157.935-157.933v-15.306zm158.161 15.306-64.357 64.357-10.938-10.938 68.725-68.725h6.569v15.306zm-164.731 142.856 64.357-64.357 10.938 10.938-68.61 68.61-6.684.065v-15.256zm82.366-46.348 61.647 61.647h-123.294zm-25.08-25.08-57.286 57.286v-114.572zm50.16 0 57.286-57.286v114.571zm-25.08-25.08-61.654-61.654h123.308zm197.666 111.807h-79.148v-202.346c0-2.761-2.239-5-5-5h-227.036c-2.761 0-5 2.239-5 5v202.346h-79.149v-255.512l50.767-75.87 146.912-57.756 146.143 57.283 51.511 76.51zm23.839-237.842-67.926-100.891c-.567-.842-1.377-1.492-2.323-1.863l-149.422-58.569c-.586-.23-1.206-.345-1.825-.345-.621 0-1.242.116-1.83.347l-150.194 59.046c-.948.373-1.759 1.026-2.326 1.873l-67.156 100.364-20.778-13.903 70.202-104.915c1.423-2.127 3.434-3.746 5.815-4.682l161.685-63.563c2.945-1.158 6.189-1.159 9.135-.004l160.899 63.067c2.374.931 4.382 2.541 5.807 4.657l70.975 105.419z"/><path d="m295.316 124.807h-78.605c-2.761 0-5 2.239-5 5v78.605c0 2.761 2.239 5 5 5h78.605c2.761 0 5-2.239 5-5v-78.605c0-2.761-2.238-5-5-5zm-5 78.606h-68.605v-68.605h68.605z"/></g></g></g></svg>