<svg enable-background="new 0 0 512 512" height="512" viewBox="0 0 512 512" width="512" xmlns="http://www.w3.org/2000/svg"><g id="Layer_2"><g><path d="m53.333 7.103h197.852v207.555h-197.852z" fill="#fed2a4"/><path d="m53.333 7.103h23.309v207.555h-23.309z" fill="#f2af7c"/><path d="m53.333 176.163h109.669v37.711h-109.669z" fill="#494a47"/><path d="m53.333 176.163h23.137v37.711h-23.137z" fill="#333331"/><path d="m27.259 214.658h379.466v192.488h-379.466z" fill="#fed2a4"/><path d="m27.259 214.658h23.309v192.488h-23.309z" fill="#f2af7c"/><path d="m27.259 369.435h281.715v37.711h-281.715z" fill="#494a47"/><path d="m27.259 369.435h23.309v37.711h-23.309z" fill="#333331"/><path d="m308.974 309.395h195.502v195.502h-195.502z" fill="#fed2a4"/><path d="m7.524 407.146h107.516v97.751h-107.516z" fill="#fed2a4"/><path d="m7.524 407.146h23.309v97.751h-23.309z" fill="#f2af7c"/><path d="m7.524 467.186h107.588v37.711h-107.588z" fill="#494a47"/><path d="m7.524 467.186h23.309v37.711h-23.309z" fill="#333331"/><path d="m163.002 84.912h341.474v129.746h-341.474z" fill="#fed2a4"/><path d="m163.002 84.912h23.309v129.746h-23.309z" fill="#f2af7c"/><path d="m163.002 176.163h341.474v37.711h-341.474z" fill="#494a47"/><path d="m163.002 176.163h23.449v37.711h-23.449z" fill="#333331"/><path d="m115.04 407.93h193.934v96.967h-193.934z" fill="#68c0e0"/><path d="m309.604 467.186h194.872v37.711h-194.872z" fill="#494a47"/><g fill="#68c0e0"><path d="m376.64 357.89h60.8v60.8h-60.8z"/><path d="m72.127 261.647h60.8v60.8h-60.8z"/><path d="m84.712 42.429h60.8v60.8h-60.8z"/><path d="m181.607 261.647h60.8v60.8h-60.8z"/></g><g><path d="m504.476 79.912h-248.29v-72.808c0-2.762-2.239-5-5-5h-197.853c-2.761 0-5 2.238-5 5v202.555h-21.074c-2.761 0-5 2.238-5 5v187.487h-14.735c-2.761 0-5 2.238-5 5v97.751c0 2.762 2.239 5 5 5h496.952c2.761 0 5-2.238 5-5v-195.502c0-2.762-2.239-5-5-5h-92.751v-84.736h92.751c2.761 0 5-2.238 5-5v-129.747c0-2.762-2.239-5-5-5zm-5 91.251h-331.474v-81.251h331.474zm-253.29-159.059v67.809h-83.184c-2.761 0-5 2.238-5 5v86.251h-99.669v-159.06zm-187.853 169.059h99.668v28.495h-99.668zm-26.074 193.272h271.714v27.711h-271.714zm-5 37.711h82.781v50.04h-97.516v-50.04zm-14.735 60.04h97.516v27.711h-97.516zm107.516-59.256h183.934v86.967h-183.934zm193.934 86.966v-27.711h185.502v27.711zm185.502-37.71h-185.502v-147.791h185.502zm-97.751-157.791h-92.751c-2.761 0-5 2.238-5 5v55.04h-271.715v-144.777h369.466zm-233.723-94.737v-28.495h331.474v28.495z"/><path d="m376.641 423.69h60.799c2.761 0 5-2.238 5-5v-60.8c0-2.762-2.239-5-5-5h-60.799c-2.761 0-5 2.238-5 5v60.8c0 2.762 2.238 5 5 5zm5-60.799h50.799v50.8h-50.799z"/><path d="m132.927 256.646h-60.8c-2.761 0-5 2.238-5 5v60.8c0 2.762 2.239 5 5 5h60.799c2.761 0 5-2.238 5-5v-60.8c.001-2.761-2.238-5-4.999-5zm-5 60.8h-50.8v-50.8h50.799v50.8z"/><path d="m84.712 108.229h60.8c2.761 0 5-2.238 5-5v-60.8c0-2.762-2.239-5-5-5h-60.8c-2.761 0-5 2.238-5 5v60.8c0 2.761 2.239 5 5 5zm5-60.8h50.8v50.8h-50.8z"/><path d="m242.407 256.646h-60.8c-2.761 0-5 2.238-5 5v60.8c0 2.762 2.239 5 5 5h60.8c2.761 0 5-2.238 5-5v-60.8c0-2.761-2.239-5-5-5zm-5 60.8h-50.8v-50.8h50.8z"/></g></g></g></svg>