<svg enable-background="new 0 0 512 512" height="512" viewBox="0 0 512 512" width="512" xmlns="http://www.w3.org/2000/svg"><g id="Layer_2"><g><path d="m388.137 335.797-132.137-264.273-132.137 264.273z" fill="#fed2a4"/><path d="m256 71.524-132.137 264.273h23.308l120.483-240.965z" fill="#f2af7c"/><path d="m123.863 335.797h264.274v71.229h-264.274z" fill="#fed2a4"/><path d="m123.863 335.797h23.309v71.229h-23.309z" fill="#f2af7c"/><g><path d="m426.682 388.862c-7.337 0-14.399-4.052-17.904-11.061l-152.778-305.556-152.778 305.556c-4.94 9.879-16.951 13.885-26.833 8.944-9.879-4.939-13.884-16.953-8.944-26.833l170.666-341.333c3.388-6.775 10.313-11.055 17.889-11.055 7.575 0 14.501 4.28 17.889 11.056l170.667 341.333c4.939 9.88.936 21.894-8.944 26.833-2.872 1.435-5.925 2.116-8.93 2.116z" fill="#bb5d4c"/></g><g><path d="m90.753 359.913 170.667-341.334c1.482-2.964 3.641-5.45 6.234-7.309-3.336-2.392-7.393-3.747-11.654-3.747-7.576 0-14.5 4.28-17.889 11.056l-170.666 341.334c-4.939 9.88-.935 21.894 8.944 26.833 6.875 3.437 14.774 2.535 20.612-1.653-7.86-5.623-10.707-16.262-6.248-25.18z" fill="#99473a"/></g><path d="m98.099 407.026h315.801v37.711h-315.801z" fill="#494a47"/><path d="m98.099 407.026h23.093v37.711h-23.093z" fill="#333331"/><path d="m111.189 444.737h48.22v59.739h-48.22z" fill="#bb5d4c"/><path d="m111.189 444.737h23.309v59.739h-23.309z" fill="#99473a"/><path d="m352.591 444.737h48.22v59.739h-48.22z" fill="#bb5d4c"/><path d="m231.89 444.737h48.22v59.739h-48.22z" fill="#bb5d4c"/><path d="m210.917 283.883h90.165v123.144h-90.165z" fill="#68c0e0"/><path d="m210.917 283.883h23.309v123.144h-23.309z" fill="#3282a1"/><g><path d="m449.027 357.677-170.667-341.334c-4.262-8.524-12.83-13.82-22.36-13.82s-18.098 5.295-22.361 13.82l-170.667 341.334c-6.165 12.33-1.149 27.376 11.181 33.541s27.376 1.149 33.541-11.181l11.169-22.338v44.327h-20.764c-2.761 0-5 2.239-5 5v37.711c0 2.761 2.239 5 5 5h8.09v54.739c0 2.761 2.239 5 5 5h48.22c2.761 0 5-2.239 5-5v-54.739h62.48v54.739c0 2.761 2.239 5 5 5h48.22c2.761 0 5-2.239 5-5v-54.739h62.481v54.739c0 2.761 2.239 5 5 5h48.22c2.761 0 5-2.239 5-5v-54.739h8.089c2.761 0 5-2.239 5-5v-37.711c0-2.761-2.239-5-5-5h-20.764v-44.326l11.169 22.338c4.264 8.527 12.838 13.824 22.376 13.824 3.899 0 7.656-.89 11.165-2.644 5.973-2.986 10.425-8.12 12.537-14.455 2.113-6.335 1.632-13.114-1.355-19.086zm-320.164-16.88h77.054v61.229h-77.054zm167.219 61.229h-80.165v-113.143h80.165zm-141.673 97.451h-38.22v-49.739h38.22zm120.701 0h-38.22v-49.739h38.22zm120.701 0h-38.22v-49.739h38.22zm13.089-59.74h-305.801v-27.711h305.801zm-102.818-37.711v-61.229h77.055v61.229zm0-71.229v-46.915c0-2.761-2.239-5-5-5h-90.165c-2.761 0-5 2.239-5 5v46.915h-73.603l123.686-247.372 123.686 247.373h-73.604zm134.815 42.804c-1.267 3.801-3.938 6.881-7.522 8.673-2.108 1.054-4.36 1.588-6.693 1.588-5.726 0-10.873-3.179-13.432-8.296l-152.778-305.557c-.847-1.694-2.578-2.764-4.472-2.764s-3.625 1.07-4.472 2.764l-152.778 305.556c-3.699 7.397-12.727 10.406-20.125 6.708-7.397-3.699-10.407-12.727-6.708-20.125l170.666-341.333c2.558-5.115 7.699-8.292 13.417-8.292s10.859 3.177 13.417 8.292l170.667 341.333c1.791 3.584 2.08 7.652.813 11.453z"/></g></g></g></svg>