<svg enable-background="new 0 0 512 512" height="512" viewBox="0 0 512 512" width="512" xmlns="http://www.w3.org/2000/svg"><g id="Layer_2"><g><g><path d="m21.476 320.18h469.049v126.171h-469.049z" fill="#cdcdc6"/><path d="m21.476 320.18h23.166v126.171h-23.166z" fill="#989898"/><path d="m7.524 282.469h496.952v37.711h-496.952z" fill="#494a47"/><path d="m7.524 282.469h23.309v37.711h-23.309z" fill="#333331"/><path d="m21.476 156.298h469.049v126.171h-469.049z" fill="#cdcdc6"/><path d="m21.476 156.298h23.166v126.171h-23.166z" fill="#989898"/><path d="m53.333 34.382h405.333v84.202h-405.333z" fill="#cdcdc6"/><path d="m53.333 34.382h23.309v84.202h-23.309z" fill="#989898"/><path d="m318.076 118.587c6.846-11.105 10.803-24.181 10.803-38.184 0-40.25-32.629-72.879-72.879-72.879s-72.879 32.629-72.879 72.879c0 14.003 3.958 27.079 10.803 38.184h-186.4v37.711h496.952v-37.711z" fill="#494a47"/><g><path d="m7.524 118.587h23.309v37.711h-23.309z" fill="#333331"/></g><circle cx="256" cy="80.403" fill="#fff" r="46.227"/><g fill="#494a47"><path d="m139.421 446.35h-85.292v-42.646c0-23.553 19.093-42.646 42.646-42.646 23.553 0 42.646 19.093 42.646 42.646z"/><path d="m457.871 446.35h-85.292v-42.646c0-23.553 19.093-42.646 42.646-42.646 23.553 0 42.646 19.093 42.646 42.646z"/><path d="m298.646 446.35h-85.292v-42.646c0-23.553 19.093-42.646 42.646-42.646 23.553 0 42.646 19.093 42.646 42.646z"/></g><path d="m21.476 192.631h469.049v53.504h-469.049z" fill="#68c0e0"/><path d="m21.476 192.631h23.166v53.504h-23.166z" fill="#3282a1"/></g><path d="m485.998 490.667h-211.52c-10.205 0-18.478-8.273-18.478-18.478v-70.445c0-10.205 8.273-18.478 18.478-18.478h211.519c10.205 0 18.478 8.273 18.478 18.478v70.445c.001 10.205-8.272 18.478-18.477 18.478z" fill="#e15f4f"/><path d="m279.309 472.188v-70.445c0-10.205 8.273-18.478 18.478-18.478h-23.309c-10.205 0-18.478 8.273-18.478 18.478v70.445c0 10.205 8.273 18.478 18.478 18.478h23.309c-10.205.001-18.478-8.272-18.478-18.478z" fill="#ca4336"/><path d="m485.998 383.265h-211.52c-10.205 0-18.478 8.273-18.478 18.478v31.396h248.476v-31.396c0-10.205-8.273-18.478-18.478-18.478z" fill="#68c0e0"/><path d="m297.787 383.265h-23.309c-10.205 0-18.478 8.273-18.478 18.478v31.396h23.309v-31.396c0-10.205 8.273-18.478 18.478-18.478z" fill="#3282a1"/><circle cx="309.559" cy="487.484" fill="#494a47" r="16.336"/><circle cx="450.917" cy="487.484" fill="#494a47" r="16.336"/><g><g><path d="m256 131.63c28.246 0 51.227-22.98 51.227-51.227s-22.981-51.227-51.227-51.227-51.227 22.98-51.227 51.227 22.981 51.227 51.227 51.227zm0-92.454c22.732 0 41.227 18.494 41.227 41.227s-18.494 41.227-41.227 41.227-41.227-18.494-41.227-41.227 18.495-41.227 41.227-41.227z"/><path d="m252.069 83.493c.948 1.206 2.396 1.91 3.931 1.91h8.616c2.762 0 5-2.239 5-5s-2.238-5-5-5h-6.187l-9.259-11.776c-1.707-2.172-4.852-2.546-7.021-.84-2.171 1.707-2.548 4.85-.841 7.021z"/><path d="m495.524 192.631v-31.333h8.952c2.762 0 5-2.239 5-5v-37.711c0-2.761-2.238-5-5-5h-40.81v-79.205c0-2.761-2.238-5-5-5h-143.902c-14.29-16.436-35.326-26.858-58.764-26.858s-44.474 10.422-58.764 26.858h-143.903c-2.762 0-5 2.239-5 5v79.205h-40.81c-2.762 0-5 2.239-5 5v37.711c0 2.761 2.238 5 5 5h8.952v31.333 53.504 31.333h-8.951c-2.762 0-5 2.239-5 5v37.711c0 2.761 2.238 5 5 5h8.951v121.17c0 2.761 2.238 5 5 5h229.525v20.838c0 12.946 10.532 23.478 23.479 23.478h15.382c3.217 7.714 10.832 13.153 19.698 13.153s16.482-5.439 19.698-13.153h101.962c3.217 7.714 10.832 13.153 19.698 13.153s16.482-5.439 19.698-13.153h15.383c12.946 0 23.479-10.532 23.479-23.478v-70.445c0-9.556-5.741-17.79-13.952-21.451v-55.111h8.951c2.762 0 5-2.239 5-5v-37.711c0-2.761-2.238-5-5-5h-8.951v-31.333-53.505zm-156.254 48.505v-43.504h68.198v43.504zm-78.199 0v-43.504h68.198v43.504zm-78.198 0v-43.504h68.198v43.504zm-78.199 0v-43.504h68.199v43.504zm-78.198 0v-43.504h68.198v43.504zm390.992-43.505h68.057v43.504h-68.057zm36.199-158.249v74.202h-127.204c4.87-10.331 7.416-21.651 7.416-33.181 0-15.045-4.301-29.099-11.719-41.021zm-395.334 0h131.508c-7.419 11.921-11.719 25.975-11.719 41.021 0 11.531 2.545 22.851 7.416 33.181h-127.205zm-45.81 84.205h181.401c1.813 0 3.482-.98 4.366-2.563.883-1.582.841-3.519-.11-5.061-6.581-10.675-10.06-22.972-10.06-35.561 0-37.429 30.45-67.879 67.879-67.879s67.879 30.45 67.879 67.879c0 12.589-3.479 24.886-10.06 35.561-.951 1.542-.993 3.479-.11 5.061.884 1.583 2.554 2.563 4.366 2.563h181.401v27.711h-486.952zm473.001 37.711v26.333h-459.048v-26.333zm-426.395 280.052v-37.646c0-20.758 16.888-37.646 37.646-37.646s37.646 16.888 37.646 37.646v37.646zm316.109-53.085v39.875h-53.192v-39.875zm10 39.874v-39.875h53.192v39.875zm2.276-49.874c6.885-7.495 16.755-12.207 27.71-12.207 10.956 0 20.826 4.711 27.711 12.207zm-75.468 49.874h-51.046v-26.396c0-7.432 6.047-13.479 13.479-13.479h37.567zm-37.567-49.874c-12.946 0-23.479 10.532-23.479 23.479v39.607h-32.646v-37.646c0-20.758 16.888-37.646 37.646-37.646 10.956 0 20.825 4.711 27.71 12.207h-9.231zm35.08 120.555c-6.251 0-11.336-5.085-11.336-11.336s5.085-11.335 11.336-11.335 11.336 5.085 11.336 11.335-5.085 11.336-11.336 11.336zm141.358 0c-6.25 0-11.335-5.085-11.335-11.336s5.085-11.335 11.335-11.335c6.251 0 11.336 5.085 11.336 11.335s-5.085 11.336-11.336 11.336zm35.081-13.153h-13.837c-.927-10.915-10.093-19.518-21.244-19.518-11.15 0-20.316 8.603-21.243 19.518h-98.872c-.927-10.915-10.093-19.518-21.244-19.518s-20.317 8.603-21.244 19.518h-13.836c-7.432 0-13.479-6.046-13.479-13.478v-34.049h238.477v34.049c.001 7.431-6.046 13.478-13.478 13.478zm13.479-57.528h-51.046v-39.875h37.567c7.432 0 13.479 6.046 13.479 13.479zm-13.953-49.874h-30.042c-8.454-13.333-23.335-22.207-40.258-22.207-16.922 0-31.803 8.874-40.257 22.207h-78.711c-8.454-13.333-23.335-22.207-40.257-22.207-26.271 0-47.646 21.374-47.646 47.646v37.646h-63.934v-37.646c0-26.272-21.374-47.646-47.646-47.646s-47.646 21.374-47.646 47.646v37.646h-22.651v-116.17h459.049v53.085zm13.952-63.085h-486.952v-27.711h486.951v27.711zm-473-37.711v-26.333h459.049v26.333z"/></g><path d="m256 45.559c-2.918 0-5.284 2.366-5.284 5.284s2.366 5.284 5.284 5.284 5.284-2.366 5.284-5.284-2.366-5.284-5.284-5.284z"/><path d="m256 104.678c-2.918 0-5.284 2.366-5.284 5.284 0 2.919 2.366 5.285 5.284 5.285s5.284-2.366 5.284-5.285c0-2.918-2.366-5.284-5.284-5.284z"/><path d="m285.56 75.119c-2.918 0-5.284 2.366-5.284 5.284 0 2.919 2.366 5.284 5.284 5.284s5.284-2.366 5.284-5.284c0-2.919-2.366-5.284-5.284-5.284z"/><path d="m226.44 75.119c-2.918 0-5.284 2.366-5.284 5.284 0 2.919 2.366 5.284 5.284 5.284s5.284-2.366 5.284-5.284c.001-2.919-2.365-5.284-5.284-5.284z"/></g></g></g></svg>