<svg enable-background="new 0 0 512 512" height="512" viewBox="0 0 512 512" width="512" xmlns="http://www.w3.org/2000/svg"><g id="Layer_2"><g><path d="m256 63.028-213.231 134.84v179.253h426.462v-179.253z" fill="#bb5d4c"/><path d="m267.615 70.373-11.615-7.345-213.231 134.84v179.253h23.229v-179.253z" fill="#99473a"/><g><path d="m483.891 228.196c-3.846 0-7.737-1.053-11.227-3.26l-216.664-137.012-216.665 137.012c-9.822 6.212-22.82 3.286-29.032-6.539-6.211-9.822-3.284-22.82 6.538-29.031l227.912-144.123c6.869-4.344 15.625-4.343 22.493 0l227.911 144.123c9.823 6.212 12.75 19.209 6.538 29.031-4.004 6.332-10.828 9.799-17.804 9.799z" fill="#494a47"/></g><g><path d="m33.612 218.397c-6.211-9.822-3.284-22.82 6.538-29.031l227.504-143.865-.408-.258c-6.869-4.343-15.624-4.344-22.493 0l-227.911 144.123c-9.822 6.212-12.749 19.209-6.538 29.031 6.212 9.825 19.21 12.751 29.032 6.539l.423-.267c-2.396-1.59-4.511-3.685-6.147-6.272z" fill="#333331"/></g><path d="m24.577 377.121h462.846v39.677h-462.846z" fill="#494a47"/><path d="m24.577 377.121h23.309v39.677h-23.309z" fill="#333331"/><path d="m28.628 416.798h32.664v53.217h-32.664z" fill="#bb5d4c"/><path d="m451.669 416.798h32.664v53.217h-32.664z" fill="#bb5d4c"/><g fill="#fed2a4"><path d="m112.502 377.121h95.907v23.223h-95.907z"/><path d="m100.291 400.345h120.329v23.223h-120.329z"/><path d="m89.062 423.568h142.787v23.223h-142.787z"/><path d="m80.786 446.791h159.34v23.223h-159.34z"/></g><path d="m247.638 237.44h178.178v93.248h-178.178z" fill="#68c0e0"/><path d="m112.502 237.44h95.907v139.681h-95.907z" fill="#6d3326"/><g><path d="m509.317 201.429c-1.528-6.786-5.608-12.571-11.488-16.289l-227.91-144.124c-8.455-5.344-19.381-5.345-27.838 0l-227.911 144.124c-12.136 7.675-15.767 23.793-8.092 35.929 3.718 5.88 9.503 9.961 16.29 11.489 1.918.432 3.852.646 5.771.646 3.302 0 6.558-.647 9.63-1.885v140.803h-13.192c-2.761 0-5 2.239-5 5v39.677c0 2.436 1.744 4.46 4.05 4.904v48.313c0 2.761 2.239 5 5 5h32.664c2.761 0 5-2.239 5-5v-48.217h18.109c-.21.552-.338 1.145-.338 1.77v18.223h-3.276c-2.761 0-5 2.239-5 5v23.224c0 2.761 2.239 5 5 5h159.34c2.761 0 5-2.239 5-5v-23.224c0-2.761-2.239-5-5-5h-3.276v-18.223c0-.625-.128-1.218-.338-1.77h210.158v48.217c0 2.761 2.238 5 5 5h32.664c2.762 0 5-2.239 5-5v-48.599c1.813-.75 3.09-2.534 3.09-4.618v-39.677c0-2.761-2.238-5-5-5h-13.191v-140.809c3.063 1.229 6.333 1.882 9.66 1.882 8.993 0 17.229-4.533 22.029-12.126 3.718-5.879 4.924-12.854 3.395-19.64zm-302.682-76.372h98.73l35.001 22.133h-168.732zm15.813-10 33.552-21.217 33.552 21.217zm-66.628 42.133h200.36l35 22.133h-270.36zm-50.813 32.133h301.986l35.001 22.133h-371.988zm110.613 229.245h-110.329v-13.223h110.329zm-108.118-110.713h-59.733v-22.133h59.733zm0-32.133h-59.733v-22.133h59.733zm-59.733 42.133h59.733v22.133h-59.733zm155.64 54.266h-85.907v-129.681h85.907zm-85.907 23.224v-13.224h85.907v13.224zm95.907-141.756h29.229v22.133h-29.229zm0 32.133h29.229v22.133h-29.229zm0 32.133h29.229v12.833c0 2.761 2.239 5 5 5h178.178c2.762 0 5-2.239 5-5v-12.833h33.415v22.133h-250.822zm39.229 7.833v-83.248h168.178v83.248zm178.178-72.099h33.415v22.133h-33.415zm0 32.133h33.415v22.133h-33.415zm33.415-42.133h-33.415v-6.149c0-2.761-2.238-5-5-5h-178.178c-2.761 0-5 2.239-5 5v6.149h-29.229v-6.149c0-2.761-2.239-5-5-5h-95.907c-2.761 0-5 2.239-5 5v6.149h-59.733v-18.071l6.423-4.062h403.615l6.424 4.062zm-416.462 106.399h59.733v22.133h-59.733zm-18.192 32.133h77.925v13.224h-7.211c-2.761 0-5 2.239-5 5v11.453h-65.714zm26.715 82.894h-22.665v-43.217h22.664v43.217zm178.833 0h-149.339v-13.224h149.34v13.224zm-141.063-23.224v-13.223h132.787v13.223zm385.271 23.224h-22.664v-43.217h22.664zm3.09-53.217h-256.803v-11.453c0-2.761-2.239-5-5-5h-7.21v-13.224h269.014v29.677zm-269.014-39.677v-22.133h250.822v22.133zm284.061-156.396c-2.959 4.678-8.034 7.471-13.578 7.471-3.024 0-5.983-.86-8.556-2.486l-216.664-137.012c-1.631-1.032-3.712-1.032-5.344 0l-216.665 137.012c-3.621 2.291-7.917 3.034-12.099 2.092-4.18-.941-7.744-3.455-10.034-7.078-4.728-7.476-2.491-17.405 4.985-22.133l227.911-144.122c2.604-1.647 5.588-2.47 8.574-2.47 2.984 0 5.971.823 8.574 2.47l227.911 144.123c3.622 2.29 6.135 5.854 7.076 10.034.942 4.18.199 8.477-2.091 12.099z"/></g></g></g></svg>