<svg enable-background="new 0 0 512 512" height="512" viewBox="0 0 512 512" width="512" xmlns="http://www.w3.org/2000/svg"><g id="Layer_2"><g><path d="m26.18 246.063h459.639v208.317h-459.639z" fill="#fed2a4"/><path d="m26.18 246.063h23.309v208.317h-23.309z" fill="#f2af7c"/><path d="m505.285 246.063h-499.231c0-78.308 63.481-141.789 141.789-141.789h215.654c78.307 0 141.788 63.481 141.788 141.789z" fill="#bb5d4c"/><path d="m171.151 104.274h-23.309c-78.308 0-141.789 63.481-141.789 141.789h23.309c.001-78.308 63.482-141.789 141.789-141.789z" fill="#99473a"/><path d="m50.922 272.649h128.717v142.899h-128.717z" fill="#68c0e0"/><path d="m332.361 272.649h128.717v142.899h-128.717z" fill="#68c0e0"/><path d="m210.613 272.649h90.774v181.732h-90.774z" fill="#cdcdc6"/><path d="m210.613 272.649h90.774v135.633h-90.774z" fill="#68c0e0"/><circle cx="256" cy="131.399" fill="#cdcdc6" r="73.781"/><ellipse cx="256" cy="131.399" fill="#494a47" rx="30.385" ry="42.086"/><g><path d="m363.497 99.274h-35.592c-12.32-27.466-39.905-46.655-71.905-46.655s-59.585 19.189-71.905 46.655h-36.252c-80.939 0-146.789 65.85-146.789 146.789 0 2.762 2.238 5 5 5h15.127v203.317c0 2.762 2.238 5 5 5h459.639c2.762 0 5-2.238 5-5v-203.317h14.466c2.762 0 5-2.239 5-5.001-.001-80.939-65.849-146.788-146.789-146.788zm-107.497-36.655c37.926 0 68.78 30.854 68.78 68.78s-30.854 68.78-68.78 68.78-68.78-30.854-68.78-68.78 30.854-68.78 68.78-68.78zm40.387 215.03v57.816h-35.387v-57.816zm-80.774 125.633v-57.816h35.387v57.816zm45.387-57.816h35.387v57.816h-35.387zm-10-10h-35.387v-57.816h35.387zm-35.387 113.915v-36.099h80.773v36.099zm265.206 0h-174.432v-176.732c0-2.762-2.238-5-5-5h-90.773c-2.762 0-5 2.238-5 5v176.731h-174.433v-198.317h449.639v198.318zm-469.675-208.318c2.644-73.115 62.949-131.788 136.699-131.788h32.562c-2.059 7.024-3.185 14.444-3.185 22.125 0 43.439 35.341 78.78 78.78 78.78s78.78-35.341 78.78-78.78c0-7.681-1.125-15.101-3.185-22.125h31.901c73.75 0 134.055 58.673 136.698 131.789z"/><path d="m50.922 420.548h128.717c2.762 0 5-2.238 5-5v-142.899c0-2.762-2.238-5-5-5h-128.717c-2.762 0-5 2.238-5 5v142.898c0 2.763 2.238 5.001 5 5.001zm5-142.899h118.717v132.898h-118.717z"/><path d="m332.361 420.548h128.717c2.762 0 5-2.238 5-5v-142.899c0-2.762-2.238-5-5-5h-128.717c-2.762 0-5 2.238-5 5v142.898c0 2.763 2.239 5.001 5 5.001zm5-142.899h118.717v132.898h-118.717z"/><path d="m256 178.484c19.512 0 35.386-21.122 35.386-47.085s-15.874-47.086-35.386-47.086-35.386 21.123-35.386 47.086 15.874 47.085 35.386 47.085zm25.386-47.085c0 13.462-4.937 25.27-12.303 31.768.264-.914.509-1.852.717-2.832 2.892-13.658-.357-31.823-7.241-40.492-4.865-6.127-3.99-17.913-2.663-25.093 12.154 2.747 21.49 18.135 21.49 36.649zm-31.733-35.912c-.276 1.834-.523 3.904-.666 6.111-.686 10.574 1.246 18.806 5.739 24.464 4.521 5.692 7.805 20.318 5.289 32.203-1.017 4.8-2.901 8.347-5.36 10.166-13.375-1.025-24.041-17.243-24.041-37.032 0-17.248 8.102-31.784 19.039-35.912z"/></g></g></g></svg>