<svg enable-background="new 0 0 512 512" height="512" viewBox="0 0 512 512" width="512" xmlns="http://www.w3.org/2000/svg"><g id="Layer_2"><g><path d="m28.433 99.076h23.406v372.872h-23.406z" fill="#494a47"/><path d="m7.524 69.107h496.952v29.969h-496.952z" fill="#494a47"/><path d="m408.677 128.131h-305.354c-13.154 0-23.817-10.663-23.817-23.817v-40.445c0-13.154 10.663-23.817 23.817-23.817h305.353c13.154 0 23.817 10.663 23.817 23.817v40.445c.001 13.154-10.663 23.817-23.816 23.817z" fill="#e15f4f"/><path d="m102.815 104.314v-40.445c0-13.154 10.663-23.817 23.817-23.817h-23.309c-13.154 0-23.817 10.663-23.817 23.817v40.445c0 13.154 10.663 23.817 23.817 23.817h23.309c-13.154 0-23.817-10.663-23.817-23.817z" fill="#ca4336"/><g><path d="m386.955 418.497h-261.91c-11.387 0-20.171-10.026-18.673-21.314l6.178-46.568c1.242-9.364 9.227-16.359 18.673-16.359h249.553c9.446 0 17.431 6.996 18.673 16.359l6.178 46.568c1.499 11.288-7.284 21.314-18.672 21.314z" fill="#494a47"/><path d="m129.68 397.182 6.178-46.568c1.242-9.364 9.227-16.359 18.673-16.359h-23.309c-9.446 0-17.431 6.996-18.673 16.359l-6.178 46.568c-1.498 11.288 7.286 21.314 18.673 21.314h23.309c-11.387 0-20.171-10.025-18.673-21.314z" fill="#333331"/><path d="m379.766 334.255h-247.532l5.763-45.682c3.094-24.523 23.95-42.913 48.667-42.913h138.672c24.717 0 45.573 18.39 48.667 42.913z" fill="#494a47"/><path d="m209.973 245.66h-23.309c-24.717 0-45.573 18.39-48.667 42.913l-5.763 45.682h23.309l5.763-45.682c3.094-24.522 23.95-42.913 48.667-42.913z" fill="#333331"/><path d="m364.335 264.974h-216.67c-5.102 6.682-8.55 14.737-9.668 23.599l-5.763 45.682h247.531l-5.763-45.682c-1.118-8.863-4.565-16.917-9.667-23.599z" fill="#68c0e0"/><path d="m170.974 264.974h-23.309c-5.102 6.682-8.55 14.737-9.668 23.599l-5.763 45.682h23.309l5.763-45.682c1.118-8.863 4.566-16.917 9.668-23.599z" fill="#3282a1"/><g fill="#f8d250"><path d="m177.237 395.783c7.354 0 12.147-7.727 8.88-14.316l-12.686-25.581c-1.673-3.374-5.114-5.508-8.88-5.508h-51.958c-.012.079-.032.156-.042.236l-5.993 45.169z"/><path d="m177.237 395.783c7.354 0 12.147-7.727 8.88-14.316l-12.686-25.581c-1.673-3.374-5.114-5.508-8.88-5.508h-51.958c-.012.079-.032.156-.042.236l-5.993 45.169z"/><path d="m334.777 395.783c-7.354 0-12.147-7.727-8.88-14.316l12.686-25.581c1.673-3.374 5.114-5.508 8.88-5.508h51.958c.012.079.032.156.042.236l5.993 45.169z"/></g><path d="m135.901 350.378h-23.309c-.012.079-.032.156-.042.236l-5.993 45.169h23.309l5.993-45.169c.01-.08.031-.156.042-.236z" fill="#f8ae46"/><path d="m402.706 435.532h-290.885c-6.524 0-11.813-5.289-11.813-11.813 0-6.524 5.289-11.813 11.813-11.813h290.885c6.524 0 11.813 5.289 11.813 11.813-.001 6.524-5.289 11.813-11.813 11.813z" fill="#494a47"/><path d="m123.317 423.719c0-6.524 5.289-11.813 11.813-11.813h-23.309c-6.524 0-11.813 5.289-11.813 11.813 0 6.524 5.289 11.813 11.813 11.813h23.309c-6.525 0-11.813-5.289-11.813-11.813z" fill="#333331"/><path d="m132.234 334.255h-30.73c-7.493 0-13.567-6.074-13.567-13.567v-5.799c0-7.493 6.074-13.567 13.567-13.567h17.162c7.493 0 13.567 6.074 13.567 13.567v19.366z" fill="#333331"/><path d="m379.766 334.255h30.73c7.493 0 13.567-6.074 13.567-13.567v-5.799c0-7.493-6.074-13.567-13.567-13.567h-17.162c-7.493 0-13.567 6.074-13.567 13.567v19.366z" fill="#494a47"/><path d="m172.736 468.509h-30.542c-5.501 0-9.96-4.459-9.96-9.96v-23.017h50.462v23.017c0 5.5-4.459 9.96-9.96 9.96z" fill="#494a47"/><path d="m155.543 458.548v-23.017h-23.309v23.017c0 5.501 4.459 9.96 9.96 9.96h23.309c-5.501.001-9.96-4.459-9.96-9.96z" fill="#333331"/><path d="m369.805 468.509h-30.542c-5.501 0-9.96-4.459-9.96-9.96v-23.017h50.462v23.017c.001 5.5-4.459 9.96-9.96 9.96z" fill="#494a47"/><path d="m217.609 373.516h76.782v38.391h-76.782z" fill="#cdcdc6"/></g><path d="m52.283 413.976h-24.294c-11.302 0-20.465-9.162-20.465-20.465v-211.548c0-11.302 9.162-20.465 20.465-20.465h24.294c11.302 0 20.465 9.162 20.465 20.465v211.548c-.001 11.303-9.163 20.465-20.465 20.465z" fill="#e15f4f"/><path d="m30.832 393.512v-211.549c0-11.302 9.162-20.465 20.465-20.465h-23.308c-11.302 0-20.465 9.162-20.465 20.465v211.548c0 11.302 9.162 20.465 20.465 20.465h23.309c-11.303 0-20.466-9.162-20.466-20.464z" fill="#ca4336"/><path d="m460.162 99.076h23.406v372.872h-23.406z" fill="#494a47"/><path d="m484.011 413.976h-24.294c-11.302 0-20.465-9.162-20.465-20.465v-211.548c0-11.302 9.162-20.465 20.465-20.465h24.294c11.302 0 20.465 9.162 20.465 20.465v211.548c0 11.303-9.162 20.465-20.465 20.465z" fill="#e15f4f"/><path d="m462.561 393.512v-211.549c0-11.302 9.162-20.465 20.465-20.465h-23.309c-11.302 0-20.465 9.162-20.465 20.465v211.548c0 11.302 9.162 20.465 20.465 20.465h23.309c-11.302 0-20.465-9.162-20.465-20.464z" fill="#ca4336"/><path d="m278.789 205.156c0 12.586-10.203 22.789-22.789 22.789s-22.789-10.203-22.789-22.789 22.789-59.31 22.789-59.31 22.789 46.724 22.789 59.31z" fill="#68c0e0"/><path d="m256.52 205.156c0-6.197 5.525-20.67 11.135-33.768-5.783-13.502-11.655-25.542-11.655-25.542s-22.789 46.724-22.789 59.31 10.203 22.789 22.789 22.789c4.259 0 8.244-1.172 11.654-3.206-6.667-3.976-11.134-11.256-11.134-19.583z" fill="#3282a1"/><path d="m370.415 205.156c0 12.586-10.203 22.789-22.789 22.789s-22.789-10.203-22.789-22.789 22.789-59.31 22.789-59.31 22.789 46.724 22.789 59.31z" fill="#68c0e0"/><path d="m348.051 204.731c0-6.181 5.497-20.595 11.091-33.666-5.737-13.371-11.516-25.219-11.516-25.219s-22.789 46.724-22.789 59.31 10.203 22.789 22.789 22.789c4.391 0 8.489-1.245 11.968-3.396-6.891-3.919-11.543-11.323-11.543-19.818z" fill="#3282a1"/><path d="m187.163 205.156c0 12.586-10.203 22.789-22.789 22.789s-22.789-10.203-22.789-22.789 22.789-59.31 22.789-59.31 22.789 46.724 22.789 59.31z" fill="#68c0e0"/><path d="m164.633 205.156c0-6.245 5.611-20.895 11.265-34.071-5.74-13.378-11.524-25.239-11.524-25.239s-22.789 46.724-22.789 59.31 10.203 22.789 22.789 22.789c4.206 0 8.143-1.144 11.524-3.131-6.738-3.959-11.265-11.277-11.265-19.658z" fill="#3282a1"/><g><path d="m504.476 104.076c2.761 0 5-2.238 5-5v-29.97c0-2.762-2.239-5-5-5h-66.982v-.237c0-15.89-12.927-28.817-28.817-28.817h-305.354c-15.89 0-28.817 12.928-28.817 28.817v.237h-66.982c-2.761 0-5 2.238-5 5v29.97c0 2.762 2.239 5 5 5h15.909v52.839c-11.874 2.155-20.909 12.563-20.909 25.048v211.548c0 12.485 9.035 22.894 20.909 25.048v53.388c0 2.762 2.239 5 5 5h23.406c2.761 0 5-2.238 5-5v-53.388c11.874-2.155 20.909-12.563 20.909-25.049v-211.546c0-12.485-9.035-22.894-20.909-25.049v-52.839h17.668v.238c0 15.89 12.927 28.817 28.817 28.817h305.354c15.89 0 28.817-12.928 28.817-28.817v-.238h17.668v52.839c-11.874 2.155-20.909 12.563-20.909 25.049v211.548c0 12.485 9.035 22.894 20.909 25.049v53.388c0 2.762 2.239 5 5 5h23.406c2.761 0 5-2.238 5-5v-53.389c11.874-2.155 20.909-12.563 20.909-25.048v-211.548c0-12.485-9.035-22.894-20.909-25.048v-52.839h15.907zm-471.043 362.872v-47.972h13.406v47.972zm34.314-284.984v211.548c0 8.527-6.938 15.465-15.464 15.465h-24.294c-8.527 0-15.465-6.938-15.465-15.465v-211.548c0-8.527 6.938-15.465 15.465-15.465h24.294c8.527 0 15.464 6.938 15.464 15.465zm-20.909-25.465h-13.405v-52.423h13.406v52.423zm-34.314-62.423v-19.97h61.982v19.97zm414.97 10.238c0 10.376-8.441 18.817-18.817 18.817h-305.354c-10.375 0-18.817-8.441-18.817-18.817v-40.445c0-10.376 8.441-18.817 18.817-18.817h305.354c10.375 0 18.817 8.441 18.817 18.817zm10-30.208h61.982v19.97h-61.982zm27.668 392.842v-47.972h13.406v47.972zm34.314-284.984v211.548c0 8.527-6.938 15.465-15.465 15.465h-24.294c-8.527 0-15.464-6.938-15.464-15.465v-211.548c0-8.527 6.938-15.465 15.464-15.465h24.294c8.528 0 15.465 6.938 15.465 15.465zm-20.909-25.465h-13.406v-52.423h13.406z"/><path d="m410.495 296.321h-17.162c-4.903 0-9.355 1.924-12.678 5.04l-1.692-13.414c-1.211-9.6-4.924-18.351-10.418-25.651-.116-.182-.252-.348-.39-.513-9.955-12.905-25.551-21.123-42.819-21.123h-138.672c-17.268 0-32.864 8.218-42.819 21.123-.138.166-.274.331-.39.513-5.494 7.3-9.207 16.051-10.418 25.651l-1.692 13.414c-3.322-3.116-7.774-5.04-12.678-5.04h-17.162c-10.238 0-18.568 8.329-18.568 18.567v5.799c0 10.238 8.33 18.567 18.568 18.567h10.357c-2.125 2.958-3.594 6.423-4.178 10.206-.004.022-6.268 47.064-6.268 47.064-.582 4.385.091 8.788 1.842 12.751-4.929 2.935-8.249 8.302-8.249 14.443 0 9.271 7.542 16.813 16.813 16.813h15.414v18.017c0 8.249 6.711 14.96 14.96 14.96h30.542c8.249 0 14.96-6.711 14.96-14.96v-18.017h136.607v18.017c0 8.249 6.711 14.96 14.96 14.96h30.542c8.249 0 14.96-6.711 14.96-14.96v-18.017h17.94c9.271 0 16.813-7.542 16.813-16.813 0-6.972-4.267-12.965-10.326-15.509 1.417-3.68 1.923-7.691 1.393-11.686 0 0-6.28-47.148-6.298-47.229-.601-3.719-2.055-7.126-4.149-10.042h10.357c10.238 0 18.568-8.329 18.568-18.567v-5.799c-.002-10.236-8.332-18.565-18.57-18.565zm-85.159-45.661c10.115 0 19.523 3.464 27.031 9.313h-192.734c7.508-5.849 16.916-9.313 27.031-9.313zm-182.378 38.539c.896-7.101 3.472-13.63 7.287-19.226h211.511c3.814 5.595 6.391 12.125 7.287 19.226l5.053 40.056h-236.19zm-50.021 31.489v-5.799c0-4.724 3.844-8.567 8.568-8.567h17.162c4.724 0 8.567 3.844 8.567 8.567v14.366h-25.729c-4.724 0-8.568-3.844-8.568-8.567zm23.188 41 .837-6.309h47.589c1.879 0 3.566 1.046 4.4 2.729l12.687 25.581c1.096 2.21.207 4.072-.226 4.771s-1.707 2.323-4.174 2.323h-64.973zm61.571 96.861c0 2.735-2.225 4.96-4.96 4.96h-30.542c-2.735 0-4.96-2.225-4.96-4.96v-18.017h40.462zm197.07 0c0 2.735-2.225 4.96-4.96 4.96h-30.542c-2.735 0-4.96-2.225-4.96-4.96v-18.017h40.462zm27.94-28.017h-290.885c-3.756 0-6.813-3.056-6.813-6.813s3.056-6.813 6.813-6.813h290.885c3.757 0 6.813 3.057 6.813 6.813s-3.057 6.813-6.813 6.813zm-113.315-23.626h-66.782v-28.391h66.782zm105.647-51.527 4.697 35.404h-64.959c-2.467 0-3.741-1.624-4.174-2.323-.433-.698-1.323-2.561-.227-4.771l12.687-25.581c.835-1.684 2.521-2.729 4.4-2.729zm-2.788-10h-44.787c-5.706 0-10.824 3.175-13.359 8.286l-12.687 25.581c-2.308 4.655-2.051 10.07.688 14.485 2.739 4.416 7.476 7.052 12.672 7.052h65.969c-.177 2.17-.881 4.264-2.026 6.123h-99.329v-33.391c0-2.762-2.239-5-5-5h-76.782c-2.761 0-5 2.238-5 5v33.391h-99.329c-1.145-1.859-1.849-3.953-2.026-6.123h65.983c5.196 0 9.934-2.637 12.672-7.052 2.739-4.416 2.996-9.831.687-14.485l-12.687-25.58c-2.534-5.111-7.653-8.287-13.359-8.287h-44.8c2.508-3.711 6.753-6.124 11.473-6.124h249.554c4.72 0 8.965 2.412 11.473 6.124zm26.813-24.691c0 4.724-3.844 8.567-8.568 8.567h-25.729v-14.366c0-4.724 3.843-8.567 8.567-8.567h17.162c4.724 0 8.568 3.844 8.568 8.567z"/><path d="m283.789 205.156c0-13.354-20.911-56.613-23.295-61.502-.838-1.718-2.583-2.808-4.494-2.808s-3.656 1.09-4.494 2.808c-2.384 4.889-23.295 48.147-23.295 61.502 0 15.323 12.466 27.789 27.789 27.789s27.789-12.466 27.789-27.789zm-45.578 0c0-6.979 9.607-29.986 17.789-47.65 8.182 17.664 17.789 40.672 17.789 47.65 0 9.809-7.98 17.789-17.789 17.789s-17.789-7.98-17.789-17.789z"/><path d="m347.626 232.945c15.323 0 27.789-12.466 27.789-27.789 0-13.354-20.911-56.613-23.295-61.502-.838-1.718-2.583-2.808-4.494-2.808s-3.656 1.09-4.494 2.808c-2.384 4.889-23.295 48.147-23.295 61.502 0 15.323 12.467 27.789 27.789 27.789zm0-75.439c8.182 17.664 17.789 40.672 17.789 47.65 0 9.809-7.98 17.789-17.789 17.789s-17.789-7.98-17.789-17.789c0-6.978 9.607-29.986 17.789-47.65z"/><path d="m192.163 205.156c0-13.354-20.911-56.613-23.295-61.502-.838-1.718-2.583-2.808-4.494-2.808s-3.656 1.09-4.494 2.808c-2.384 4.889-23.295 48.147-23.295 61.502 0 15.323 12.466 27.789 27.789 27.789s27.789-12.466 27.789-27.789zm-45.579 0c0-6.979 9.607-29.986 17.789-47.65 8.182 17.664 17.789 40.672 17.789 47.65 0 9.809-7.98 17.789-17.789 17.789s-17.789-7.98-17.789-17.789z"/></g></g></g></svg>