<svg enable-background="new 0 0 512 512" height="512" viewBox="0 0 512 512" width="512" xmlns="http://www.w3.org/2000/svg"><g id="Layer_2"><g><path d="m24.487 312.427h463.026v177.115h-463.026z" fill="#e15f4f"/><path d="m24.487 312.427h23.309v177.115h-23.309z" fill="#ca4336"/><path d="m24.487 97.618h463.026v177.115h-463.026z" fill="#e15f4f"/><path d="m24.487 97.618h23.309v177.115h-23.309z" fill="#ca4336"/><path d="m7.524 274.225h496.952v38.202h-496.952z" fill="#494a47"/><path d="m7.524 274.225h23.309v38.202h-23.309z" fill="#333331"/><path d="m7.524 60.66h496.952v38.202h-496.952z" fill="#494a47"/><path d="m7.524 60.66h23.309v38.202h-23.309z" fill="#333331"/><path d="m40.852 22.458h430.296v38.202h-430.296z" fill="#494a47"/><path d="m40.852 22.458h23.309v38.202h-23.309z" fill="#333331"/><path d="m150.848 369.286h210.304v120.256h-210.304z" fill="#68c0e0"/><path d="m341.818 152.362h-5.301c-10.202-14.102-26.783-23.286-45.519-23.286h-69.998c-18.736 0-35.317 9.184-45.519 23.286h-5.301c-18.878 0-34.182 15.304-34.182 34.182 0 18.878 15.304 34.182 34.182 34.182h5.301c10.202 14.102 26.783 23.286 45.519 23.286h69.998c18.736 0 35.317-9.184 45.519-23.286h5.301c18.878 0 34.182-15.304 34.182-34.182 0-18.879-15.304-34.182-34.182-34.182z" fill="#f8d250"/><path d="m256 152.689 11 22.288 24.597 3.575-17.799 17.349 4.202 24.497-22-11.566-22 11.566 4.202-24.497-17.799-17.349 24.597-3.575z" fill="#494a47"/><path d="m150.848 369.286h210.304v29.681h-210.304z" fill="#494a47"/><g><path d="m504.476 103.862c2.762 0 5-2.238 5-5v-38.202c0-2.762-2.238-5-5-5h-28.327v-33.202c0-2.762-2.238-5-5-5h-430.297c-2.762 0-5 2.238-5 5v33.202h-28.328c-2.762 0-5 2.238-5 5v38.202c0 2.762 2.238 5 5 5h11.963v165.363h-11.963c-2.762 0-5 2.238-5 5v38.202c0 2.762 2.238 5 5 5h11.963v172.114c0 2.762 2.238 5 5 5h463.025c2.762 0 5-2.238 5-5v-172.113h11.963c2.762 0 5-2.238 5-5v-38.202c0-2.762-2.238-5-5-5h-11.963v-165.364zm-458.624-76.404h420.297v28.202h-420.297zm-33.328 38.202h486.951v28.202h-486.951zm143.324 338.307h95.152v80.575h-95.152zm200.304-10h-200.304v-19.681h200.305v19.681zm-95.152 90.575v-80.575h95.152v80.575zm221.513 0h-116.36v-115.256c0-2.762-2.238-5-5-5h-210.305c-2.762 0-5 2.238-5 5v115.256h-116.361v-167.114h453.025v167.114zm16.963-177.114h-486.952v-28.202h486.951v28.202zm-16.963-38.202h-453.026v-165.364h453.025v165.364z"/><path d="m170.182 225.726h2.815c11.563 14.627 29.316 23.286 48.004 23.286h69.998c18.688 0 36.441-8.659 48.004-23.286h2.815c21.604 0 39.182-17.577 39.182-39.182s-17.577-39.183-39.182-39.183h-2.815c-11.562-14.627-29.316-23.285-48.004-23.285h-69.998c-18.688 0-36.442 8.658-48.004 23.285h-2.815c-21.604 0-39.182 17.577-39.182 39.183 0 21.604 17.577 39.182 39.182 39.182zm0-68.365h5.301c1.604 0 3.11-.77 4.051-2.069 9.611-13.284 25.113-21.216 41.468-21.216h69.998c16.354 0 31.856 7.932 41.468 21.216.94 1.3 2.446 2.069 4.051 2.069h5.301c16.091 0 29.182 13.091 29.182 29.183 0 16.091-13.091 29.182-29.182 29.182h-5.301c-1.604 0-3.11.77-4.051 2.069-9.612 13.285-25.113 21.217-41.468 21.217h-69.998c-16.354 0-31.855-7.932-41.468-21.217-.94-1.3-2.446-2.069-4.051-2.069h-5.301c-16.091 0-29.182-13.091-29.182-29.182 0-16.092 13.091-29.183 29.182-29.183z"/><path d="m232.829 197.646-3.757 21.907c-.322 1.875.449 3.771 1.989 4.89 1.538 1.117 3.577 1.268 5.266.381l19.673-10.344 19.673 10.344c.732.385 1.53.574 2.326.574 1.037 0 2.068-.322 2.939-.955 1.54-1.118 2.312-3.015 1.989-4.89l-3.757-21.907 15.916-15.515c1.362-1.328 1.854-3.315 1.265-5.125-.588-1.811-2.152-3.13-4.036-3.403l-21.995-3.196-9.837-19.932c-.842-1.707-2.58-2.787-4.483-2.787s-3.642 1.08-4.483 2.787l-9.837 19.932-21.995 3.196c-1.884.273-3.448 1.593-4.036 3.403-.589 1.81-.098 3.797 1.265 5.125zm12.89-17.72c1.629-.237 3.037-1.26 3.765-2.735l6.516-13.205 6.517 13.204c.728 1.476 2.136 2.498 3.765 2.735l14.57 2.117-10.543 10.277c-1.178 1.148-1.716 2.804-1.438 4.425l2.488 14.514-13.032-6.853c-.729-.383-1.528-.574-2.327-.574s-1.599.191-2.327.574l-13.032 6.853 2.488-14.514c.278-1.621-.26-3.276-1.438-4.425l-10.543-10.277z"/></g><path d="m165.878 180.891c-2.918 0-5.284 2.366-5.284 5.284 0 2.919 2.366 5.285 5.284 5.285s5.284-2.366 5.284-5.285c.001-2.918-2.365-5.284-5.284-5.284z"/><path d="m346.122 180.891c-2.918 0-5.284 2.366-5.284 5.284 0 2.919 2.366 5.285 5.284 5.285s5.284-2.366 5.284-5.285c0-2.918-2.366-5.284-5.284-5.284z"/><path d="m303.178 147.036c-2.918 0-5.284 2.366-5.284 5.284s2.366 5.285 5.284 5.285 5.284-2.366 5.284-5.285-2.365-5.284-5.284-5.284z"/><path d="m303.178 214.745c-2.918 0-5.284 2.366-5.284 5.285s2.366 5.284 5.284 5.284 5.284-2.366 5.284-5.284-2.365-5.285-5.284-5.285z"/><path d="m208.822 147.036c-2.918 0-5.284 2.366-5.284 5.284s2.366 5.285 5.284 5.285 5.284-2.366 5.284-5.285-2.366-5.284-5.284-5.284z"/><path d="m208.822 214.745c-2.918 0-5.284 2.366-5.284 5.285s2.366 5.284 5.284 5.284 5.284-2.366 5.284-5.284-2.366-5.285-5.284-5.285z"/></g></g></svg>