<svg enable-background="new 0 0 512 512" height="512" viewBox="0 0 512 512" width="512" xmlns="http://www.w3.org/2000/svg"><g id="Layer_2"><g><g><path d="m310.5 20.591h64.485v26.136h-64.485z" fill="#68c0e0"/><path d="m78.983 191.181h353.824v232.323h-353.824z" fill="#494a47"/><path d="m306.227 117.22h-100.664v-42.533l50.332-28.052 50.332 28.052z" fill="#bb5d4c"/><path d="m292.074 93.467v23.753h-22.026v-23.753h-28.306v23.753h-22.026v-23.753h-28.306v23.753 49.951l6.954 26.012v108.59h115.061v-108.59l6.955-26.012v-49.951-23.753z" fill="#cdcdc6"/><path d="m81.55 136-12.024 22.081-33.938-.351-11.672-21.73 28.817-57.013z" fill="#bb5d4c"/><path d="m487.378 136-12.023 22.081-33.938-.351-11.672-21.73 28.817-57.013z" fill="#bb5d4c"/><path d="m364.856 256v45.773h-35.265v-45.773h-56.064v45.773h-35.265v-45.773h-56.063v45.773h-35.265v-45.773h-56.064v248.477h330.05v-248.477z" fill="#fed2a4"/><g><path d="m90.87 256h23.384v248.477h-23.384z" fill="#f2af7c"/></g><path d="m476.061 134.294v23.787h-33.587v-23.787h-28.374v65.755l6.955 26.011v278.416h76.425v-278.416l6.955-26.011v-65.755z" fill="#cdcdc6"/><path d="m69.526 134.294v23.787h-33.587v-23.787h-28.374v65.755l6.955 26.011v278.416h76.425v-278.416l6.955-26.011v-65.755z" fill="#cdcdc6"/><g><path d="m30.563 200.049v-65.755h-22.998v65.755l6.955 26.011v278.416h22.998v-278.416z" fill="#989898"/></g><g fill="#883f2e"><path d="m313.879 504.476h-115.968v-49.566c0-32.024 25.96-57.984 57.984-57.984 32.024 0 57.984 25.96 57.984 57.984z"/><path d="m161.657 332.873h39.633v39.633h-39.633z"/><path d="m310.5 332.873h39.633v39.633h-39.633z"/><path d="m236.078 332.873h39.633v39.633h-39.633z"/></g><path d="m255.895 7.523h64.485v26.136h-64.485z" fill="#68c0e0"/><path d="m69.341 317.734h-33.217v-31.275c0-9.172 7.436-16.608 16.608-16.608 9.173 0 16.608 7.436 16.608 16.608v31.275z" fill="#883f2e"/><path d="m272.503 242.15h-33.217v-12.589c0-9.173 7.436-16.608 16.608-16.608 9.173 0 16.608 7.436 16.608 16.608v12.589z" fill="#883f2e"/><path d="m475.875 317.734h-33.217v-31.275c0-9.172 7.436-16.608 16.608-16.608 9.172 0 16.608 7.436 16.608 16.608v31.275z" fill="#883f2e"/></g><g><path d="m504.435 129.294h-14.843l-26.568-52.563c-.851-1.684-2.576-2.745-4.462-2.745s-3.612 1.061-4.462 2.745l-26.568 52.563h-13.432c-2.761 0-5 2.239-5 5v51.886h-18.2v-12.94c0-2.761-2.239-5-5-5s-5 2.239-5 5v12.94h-27.32v-12.94c0-2.761-2.239-5-5-5s-5 2.239-5 5v12.94h-23.106s4.804-18.046 4.817-18.121c.053-.293.089-.589.089-.888v-73.704c0-2.761-2.239-5-5-5h-9.153v-13.78c0-1.813-.982-3.485-2.566-4.368l-47.766-26.622v-5.039h44.605v8.068c0 2.761 2.239 5 5 5h64.485c2.761 0 5-2.239 5-5v-26.135c0-2.761-2.239-5-5-5h-49.605v-8.068c0-2.761-2.239-5-5-5h-64.485c-2.761 0-5 2.239-5 5v36.175l-47.766 26.622c-1.584.883-2.566 2.554-2.566 4.368v13.78h-9.153c-2.761 0-5 2.239-5 5v73.705c0 .299.036.595.089.888.013.075 4.817 18.121 4.817 18.121h-23.001v-12.94c0-2.761-2.239-5-5-5s-5 2.239-5 5v12.94h-27.321v-12.94c0-2.761-2.239-5-5-5s-5 2.239-5 5v12.94h-18.094v-51.886c0-2.761-2.239-5-5-5h-14.137l-26.568-52.565c-.851-1.684-2.576-2.745-4.462-2.745s-3.612 1.061-4.462 2.745l-26.568 52.563h-14.138c-2.761 0-5 2.239-5 5v65.754c0 .436.057.87.169 1.292l6.785 25.377v277.759c0 2.761 2.239 5 5 5h482.96c2.761 0 5-2.239 5-5v-277.759l6.785-25.377c.112-.421.169-.855.169-1.292v-65.754c.002-2.761-2.237-5-4.998-5zm-188.935-90.635h4.879c2.761 0 5-2.239 5-5v-8.068h44.605v16.136h-54.484zm-54.605-26.136h54.485v16.136h-54.485zm197.667 77.548 19.825 39.224h-2.326c-2.761 0-5 2.239-5 5v18.787h-23.587v-18.787c0-2.761-2.239-5-5-5h-3.737zm-247.999-12.446 45.332-25.265 45.332 25.265v10.842h-9.153c-2.761 0-5 2.239-5 5v18.753h-12.026v-18.753c0-2.761-2.239-5-5-5h-28.306c-2.761 0-5 2.239-5 5v18.753h-12.026v-18.753c0-2.761-2.239-5-5-5h-9.153zm-14.153 20.842h18.306v18.753c0 2.761 2.239 5 5 5h22.026c2.761 0 5-2.239 5-5v-18.753h18.306v18.753c0 2.761 2.239 5 5 5h22.026c2.761 0 5-2.239 5-5v-18.753h18.306v63.705h-118.97zm41.852 152.533h-34.898v-52.817h105.061v52.817h-34.898c-2.761 0-5 2.239-5 5v40.773h-25.265v-40.773c0-2.761-2.239-5-5-5zm-36.059-62.817-4.281-16.012h115.945l-4.281 16.012zm-106.258 38.534 6.785-25.376c.113-.421.17-.855.17-1.292v-3.868h90.464v54.819h-11.166c-2.761 0-5 2.239-5 5v40.773h-25.265v-40.773c0-2.761-2.239-5-5-5h-50.988zm-43.212-136.646 19.825 39.224h-3.032c-2.761 0-5 2.239-5 5v18.787h-23.587v-18.787c0-2.761-2.239-5-5-5h-3.031zm33.212 165.183c-.037.245-.075.49-.075.746v243.476h-66.35v-268.416h66.425zm1.162-34.194h-68.748l-4.281-16.011h77.31zm5.793-26.011h-80.335v-55.754h18.374v18.787c0 2.761 2.239 5 5 5h33.587c2.761 0 5-2.239 5-5v-18.787h18.374zm215.979 304.427h-105.968v-44.566c0-29.215 23.769-52.984 52.984-52.984s52.984 23.769 52.984 52.984zm107.041.001h-97.041v-44.567c0-34.729-28.254-62.984-62.984-62.984s-62.984 28.254-62.984 62.984v44.567h-96.966v-238.477h45.988v40.773c0 2.761 2.239 5 5 5h35.265c2.761 0 5-2.239 5-5v-40.773h46.063v40.773c0 2.761 2.239 5 5 5h35.265c2.761 0 5-2.239 5-5v-40.773h46.063v40.773c0 2.761 2.239 5 5 5h35.265c2.761 0 5-2.239 5-5v-40.773h46.064v238.477zm.135-248.477h-51.199c-2.761 0-5 2.239-5 5v40.773h-25.265v-40.773c0-2.761-2.239-5-5-5h-11.166v-54.819h90.675v3.868c0 .436.057.87.17 1.292l6.785 25.376zm76.425 248.476h-66.425v-268.416h66.425zm1.161-278.416h-68.748l-4.281-16.011h77.31zm5.794-26.011h-80.335v-55.754h18.374v18.787c0 2.761 2.239 5 5 5h33.587c2.761 0 5-2.239 5-5v-18.787h18.374z"/><path d="m201.29 327.873h-39.633c-2.761 0-5 2.239-5 5v39.633c0 2.761 2.239 5 5 5h39.633c2.761 0 5-2.239 5-5v-39.633c0-2.761-2.239-5-5-5zm-5 39.633h-29.633v-29.633h29.633z"/><path d="m350.133 327.873h-39.633c-2.761 0-5 2.239-5 5v39.633c0 2.761 2.239 5 5 5h39.633c2.761 0 5-2.239 5-5v-39.633c0-2.761-2.238-5-5-5zm-5 39.633h-29.633v-29.633h29.633z"/><path d="m275.711 327.873h-39.633c-2.761 0-5 2.239-5 5v39.633c0 2.761 2.239 5 5 5h39.633c2.761 0 5-2.239 5-5v-39.633c0-2.761-2.238-5-5-5zm-5 39.633h-29.633v-29.633h29.633z"/><path d="m277.503 242.15v-12.589c0-11.915-9.693-21.608-21.608-21.608s-21.608 9.693-21.608 21.608v12.589c0 2.761 2.239 5 5 5h33.216c2.761 0 5-2.239 5-5zm-10-5h-23.216v-7.589c0-6.4 5.208-11.608 11.608-11.608s11.608 5.208 11.608 11.608z"/><path d="m36.125 322.734h33.217c2.761 0 5-2.239 5-5v-31.275c0-11.915-9.693-21.608-21.608-21.608s-21.608 9.693-21.608 21.608v31.275c-.001 2.761 2.237 5 4.999 5zm5-36.276c0-6.4 5.208-11.608 11.608-11.608s11.608 5.208 11.608 11.608v26.275h-23.216z"/><path d="m442.659 322.734h33.217c2.761 0 5-2.239 5-5v-31.275c0-11.915-9.693-21.608-21.608-21.608s-21.608 9.693-21.608 21.608v31.275c-.001 2.761 2.237 5 4.999 5zm5-36.276c0-6.4 5.208-11.608 11.608-11.608s11.608 5.208 11.608 11.608v26.275h-23.217v-26.275z"/></g></g></g></svg>