<svg enable-background="new 0 0 512 512" height="512" viewBox="0 0 512 512" width="512" xmlns="http://www.w3.org/2000/svg"><g id="Layer_2"><g><g><g><path d="m28.47 184.656h63.19v244.542h-63.19z" fill="#cdcdc6"/><path d="m28.47 184.656h23.309v244.542h-23.309z" fill="#989898"/><g><path d="m7.524 174.049v9.989c0 11.952 9.78 22.102 21.73 21.878 11.588-.217 20.916-9.679 20.916-21.319h19.655c0 11.64 9.327 21.102 20.916 21.319 11.95.224 21.73-9.926 21.73-21.878v-9.989c0-10.375-8.411-18.786-18.786-18.786h-67.375c-10.375 0-18.786 8.411-18.786 18.786z" fill="#494a47"/><g><path d="m30.832 184.038v-9.989c0-10.375 8.411-18.786 18.786-18.786h-23.308c-10.375 0-18.786 8.411-18.786 18.786v9.989c0 11.952 9.78 22.102 21.73 21.878 4.2-.079 8.093-1.384 11.363-3.555-5.883-3.952-9.785-10.777-9.785-18.323z" fill="#333331"/></g></g><path d="m7.524 466.909h104.946v37.711h-104.946z" fill="#494a47"/><path d="m7.524 466.909h23.309v37.711h-23.309z" fill="#333331"/><path d="m16.441 429.198h87.111v37.711h-87.111z" fill="#494a47"/><path d="m16.441 429.198h23.309v37.711h-23.309z" fill="#333331"/></g><g><path d="m420.476 184.656h63.19v244.542h-63.19z" fill="#cdcdc6"/><g fill="#494a47"><path d="m399.53 174.049v9.989c0 11.952 9.78 22.102 21.73 21.878 11.588-.217 20.916-9.679 20.916-21.319h19.655c0 11.64 9.327 21.102 20.916 21.319 11.95.224 21.73-9.926 21.73-21.878v-9.989c0-10.375-8.411-18.786-18.786-18.786h-67.373c-10.377 0-18.788 8.411-18.788 18.786z"/><path d="m399.53 466.909h104.946v37.711h-104.946z"/><path d="m408.447 429.198h87.111v37.711h-87.111z"/></g></g><path d="m221.182 261.797h69.637v79.665h-69.637z" fill="#494a47"/><path d="m112.47 36.694h-32.547v-29.314h-39.715v29.314h-32.684v39.714h32.684v78.855h39.715v-78.855h32.547z" fill="#cdcdc6"/><g fill="#989898"><path d="m40.208 7.38h23.309v29.313h-23.309z"/><path d="m40.208 76.408h23.309v78.854h-23.309z"/><path d="m7.524 36.694h23.309v39.715h-23.309z"/></g><path d="m504.476 36.694h-32.547v-29.314h-39.715v29.314h-32.684v39.714h32.684v78.855h39.715v-78.855h32.547z" fill="#cdcdc6"/></g><g><path d="m274.336 314.426c2.762 0 5-2.239 5-5v-15.592c0-2.761-2.238-5-5-5s-5 2.239-5 5v15.592c0 2.761 2.238 5 5 5z"/><path d="m237.801 314.426c2.761 0 5-2.239 5-5v-15.592c0-2.761-2.239-5-5-5s-5 2.239-5 5v15.592c0 2.761 2.239 5 5 5z"/><path d="m504.476 31.694h-27.547v-24.314c0-2.761-2.238-5-5-5h-39.715c-2.762 0-5 2.239-5 5v24.313h-27.684c-2.762 0-5 2.239-5 5v39.715c0 2.761 2.238 5 5 5h27.684v68.854h-8.897c-13.116 0-23.786 10.671-23.786 23.787v.954l-135.129-125.477c-1.917-1.781-4.887-1.781-6.806.001l-135.126 125.58v-1.058c0-13.116-10.67-23.787-23.787-23.787h-8.761v-68.854h27.547c2.761 0 5-2.239 5-5v-39.714c0-2.761-2.239-5-5-5h-27.546v-24.314c0-2.761-2.239-5-5-5h-39.715c-2.761 0-5 2.239-5 5v24.313h-27.684c-2.761 0-5 2.239-5 5v39.715c0 2.761 2.239 5 5 5h27.684v68.854h-8.897c-13.116 0-23.787 10.671-23.787 23.787v9.989c0 7.208 2.973 14.26 8.156 19.348 3.623 3.555 8.035 5.929 12.79 6.954v213.858h-7.029c-2.761 0-5 2.239-5 5v32.711h-3.917c-2.761 0-5 2.239-5 5v37.711c0 2.761 2.239 5 5 5h496.952c2.762 0 5-2.239 5-5v-37.711c0-2.761-2.238-5-5-5h-3.917v-32.711c0-2.761-2.238-5-5-5h-6.893v-213.889c4.703-1.042 9.065-3.402 12.653-6.923 5.184-5.087 8.156-12.139 8.156-19.348v-9.989c0-13.116-10.67-23.787-23.786-23.787h-8.761v-68.854h27.547c2.762 0 5-2.239 5-5v-39.714c.001-2.762-2.238-5-4.999-5zm-261.675 40.588 13.201-12.268 13.334 12.382v184.4h-26.535zm43.017 194.515v69.666h-24.818v-69.666zm-34.818 0v69.666h-24.818v-69.666zm-238.476-195.389v-29.714h27.684c2.761 0 5-2.239 5-5v-24.314h29.715v24.313c0 2.761 2.239 5 5 5h27.547v29.715h-27.547c-2.761 0-5 2.239-5 5v73.854h-29.715v-73.854c0-2.761-2.239-5-5-5zm5.161 124.841c-3.28-3.219-5.161-7.669-5.161-12.211v-9.989c0-7.602 6.185-13.787 13.787-13.787h67.373c7.602 0 13.787 6.185 13.787 13.787v9.989c0 4.541-1.881 8.992-5.161 12.21-3.148 3.09-7.217 4.735-11.476 4.668-8.798-.165-15.957-7.438-16.005-16.232.152-4.106 2.083-6.107 5.909-6.107 2.702 0 5.922 1.145 5.922 6.597 0 2.761 2.239 5 5 5s5-2.239 5-5c0-9.772-6.547-16.597-15.922-16.597-7.542 0-13.188 4.271-15.157 11.019h-11.166c-1.969-6.748-7.616-11.019-15.158-11.019-9.375 0-15.922 6.825-15.922 16.597 0 2.761 2.239 5 5 5s5-2.239 5-5c0-5.452 3.221-6.597 5.922-6.597 3.823 0 5.754 1.998 5.909 6.097-.042 8.798-7.204 16.077-16.005 16.242-4.238.078-8.328-1.578-11.476-4.667zm68.975 14.264v213.685h-53.19v-213.706c10.65-1.918 19.146-10.321 21.216-20.895h10.622c2.078 10.619 10.638 19.045 21.352 20.916zm-65.219 223.685h77.111v27.711h-77.111zm86.029 65.422h-94.946v-27.711h94.946zm15.725-.288h-5.725v-32.423c0-2.761-2.239-5-5-5h-3.917v-32.711c0-2.761-2.239-5-5-5h-6.893v-213.884c4.702-1.041 9.067-3.408 12.654-6.929 3.923-3.85 6.577-8.826 7.637-14.144l6.245-5.803v315.894zm36.535 0h-26.535v-325.187l26.535-24.661zm36.536 0h-26.536v-359.142l26.535-24.661v383.803zm36.535 0h-26.535v-393.096l26.535-24.661v175.221h-11.619c-2.761 0-5 2.239-5 5v79.666c0 2.761 2.239 5 5 5h11.619zm36.535 0h-26.535v-152.87h26.535zm36.535 0h-26.535v-152.87h11.482c2.762 0 5-2.239 5-5v-79.666c0-2.761-2.238-5-5-5h-11.482v-175.114l26.535 24.64zm36.535 0h-26.535v-383.724l26.535 24.64zm36.535 0h-26.535v-349.798l26.535 24.64zm24.506-37.423h-3.917c-2.762 0-5 2.239-5 5v32.423h-5.589v-315.872l6.085 5.65c1.042 5.367 3.705 10.394 7.66 14.276 3.627 3.559 8.025 5.935 12.79 6.958v213.854h-7.029c-2.762 0-5 2.239-5 5zm96.029 10v27.711h-94.946v-27.711zm-8.917-37.711v27.711h-77.111v-27.711zm-65.082-10v-213.706c10.65-1.919 19.146-10.321 21.216-20.895h10.621c2.079 10.619 10.639 19.045 21.353 20.916v213.685zm60.212-263.935c7.602 0 13.786 6.185 13.786 13.787v9.989c0 4.541-1.881 8.992-5.161 12.211-3.148 3.09-7.228 4.745-11.475 4.668-8.801-.165-15.961-7.442-16.006-16.239.154-4.101 2.086-6.1 5.91-6.1 2.701 0 5.922 1.145 5.922 6.597 0 2.761 2.238 5 5 5s5-2.239 5-5c0-9.772-6.547-16.597-15.922-16.597-7.542 0-13.188 4.271-15.158 11.019h-11.165c-1.97-6.748-7.616-11.019-15.158-11.019-9.375 0-15.922 6.825-15.922 16.597 0 2.761 2.238 5 5 5s5-2.239 5-5c0-5.452 3.221-6.597 5.922-6.597 3.822 0 5.753 1.997 5.909 6.094-.041 8.8-7.203 16.081-16.006 16.246-4.233.078-8.327-1.578-11.475-4.668-3.28-3.219-5.161-7.67-5.161-12.211v-9.989c0-7.602 6.185-13.787 13.786-13.787h67.374zm13.787-88.855h-27.547c-2.762 0-5 2.239-5 5v73.854h-29.715v-73.854c0-2.761-2.238-5-5-5h-27.684v-29.714h27.684c2.762 0 5-2.239 5-5v-24.314h29.715v24.313c0 2.761 2.238 5 5 5h27.547z"/></g></g></g></svg>