<svg enable-background="new 0 0 512 512" height="512" viewBox="0 0 512 512" width="512" xmlns="http://www.w3.org/2000/svg"><g id="Layer_2"><g><g><path d="m399.206 504.476h-286.412v-164.716l143.206-90.558 143.206 90.558z" fill="#fed2a4"/><path d="m136.103 325.021-23.309 14.739v164.716h23.309z" fill="#f2af7c"/><path d="m76.824 362.702v-48.055l179.176-113.5 179.176 113.5v48.055l-179.176-113.5z" fill="#bb5d4c"/><path d="m100.133 299.882-23.309 14.765v48.055l23.309-14.765z" fill="#99473a"/><path d="m200.514 136h110.972v368.476h-110.972z" fill="#fed2a4"/><path d="m200.514 136h23.309v368.476h-23.309z" fill="#f2af7c"/><path d="m311.486 136h-110.972v-12.194c0-30.644 24.842-55.486 55.486-55.486 30.644 0 55.486 24.842 55.486 55.486z" fill="#bb5d4c"/><path d="m267.654 69.556c-3.759-.804-7.655-1.236-11.654-1.236-30.644 0-55.486 24.842-55.486 55.486v12.194h23.309v-12.194c-.001-26.645 18.785-48.895 43.831-54.25z" fill="#99473a"/><path d="m287.266 504.476h-62.532v-57.548c0-17.268 13.998-31.266 31.266-31.266 17.268 0 31.266 13.998 31.266 31.266z" fill="#bb5d4c"/><g fill="#68c0e0"><path d="m287.266 218.583h-62.532v-22.944c0-17.268 13.998-31.266 31.266-31.266 17.268 0 31.266 13.998 31.266 31.266z"/><path d="m376 462.891h-41.982v-84.785c0-11.593 9.398-20.991 20.991-20.991 11.593 0 20.991 9.398 20.991 20.991z"/><path d="m177.982 462.891h-41.982v-84.785c0-11.593 9.398-20.991 20.991-20.991 11.593 0 20.991 9.398 20.991 20.991z"/><path d="m287.266 344.227h-62.532v-22.944c0-17.268 13.998-31.266 31.266-31.266 17.268 0 31.266 13.998 31.266 31.266z"/></g></g><g><path d="m195.514 123.806v12.194 97.544l-121.365 76.88c-1.447.917-2.324 2.511-2.324 4.224v48.055c0 1.823.992 3.502 2.589 4.381 1.598.879 3.546.819 5.086-.157l28.294-17.923v155.473c0 2.761 2.239 5 5 5h286.412c2.762 0 5-2.239 5-5v-155.474l28.294 17.923c.815.516 1.745.776 2.676.776.829 0 1.659-.206 2.41-.619 1.598-.879 2.59-2.558 2.59-4.381v-48.055c0-1.713-.877-3.307-2.324-4.224l-121.365-76.88v-97.543-12.194c0-31.667-24.466-57.71-55.486-60.263v-31.284h15.477c2.762 0 5-2.239 5-5s-2.238-5-5-5h-15.478v-14.735c0-2.761-2.238-5-5-5-2.761 0-5 2.239-5 5v14.735h-15.477c-2.761 0-5 2.239-5 5s2.239 5 5 5h15.477v31.284c-31.02 2.553-55.486 28.596-55.486 60.263zm0 375.67h-77.719v-156.808l77.719-49.232zm0-217.94-113.689 72.08v-36.218l113.689-72.017zm86.752 217.94h-52.532v-52.548c0-14.483 11.783-26.266 26.266-26.266 14.482 0 26.266 11.783 26.266 26.266zm24.22 0h-14.221v-52.548c0-19.997-16.269-36.266-36.266-36.266s-36.266 16.269-36.266 36.266v52.548h-14.22v-358.476h100.973zm10-254.095 113.689 72.017v36.218l-113.689-72.08zm0 48.055 77.72 49.232v156.808h-77.72zm-60.486-220.116c27.838 0 50.486 22.648 50.486 50.486v7.194h-100.972v-7.194c0-27.838 22.648-50.486 50.486-50.486z"/><path d="m355.009 352.115c-14.331 0-25.99 11.659-25.99 25.991v84.785c0 2.761 2.238 5 5 5h41.981c2.762 0 5-2.239 5-5v-84.785c0-14.331-11.659-25.991-25.991-25.991zm15.991 105.776h-31.981v-79.785c0-8.817 7.173-15.991 15.99-15.991s15.991 7.174 15.991 15.991z"/><path d="m136 467.891h41.982c2.761 0 5-2.239 5-5v-84.785c0-14.332-11.66-25.991-25.991-25.991s-25.991 11.66-25.991 25.991v84.785c0 2.762 2.239 5 5 5zm5-89.785c0-8.817 7.174-15.991 15.991-15.991s15.991 7.174 15.991 15.991v79.785h-31.982z"/><path d="m224.734 223.583h62.532c2.762 0 5-2.239 5-5v-22.944c0-19.997-16.269-36.266-36.266-36.266s-36.266 16.269-36.266 36.266v22.944c0 2.761 2.239 5 5 5zm5-27.944c0-14.483 11.783-26.266 26.266-26.266s26.266 11.783 26.266 26.266v17.944h-52.532z"/><path d="m224.734 349.227h62.532c2.762 0 5-2.239 5-5v-22.944c0-19.997-16.269-36.266-36.266-36.266s-36.266 16.269-36.266 36.266v22.944c0 2.762 2.239 5 5 5zm5-27.944c0-14.483 11.783-26.266 26.266-26.266s26.266 11.783 26.266 26.266v17.944h-52.532z"/></g></g></g></svg>