<svg enable-background="new 0 0 512 512" height="512" viewBox="0 0 512 512" width="512" xmlns="http://www.w3.org/2000/svg"><g id="Layer_2"><g><path d="m25.148 197.166h461.705v307.311h-461.705z" fill="#e15f4f"/><path d="m25.148 197.166h23.309v307.311h-23.309z" fill="#ca4336"/><path d="m7.524 159.455h496.952v37.711h-496.952z" fill="#494a47"/><path d="m7.524 315.142h496.952v37.711h-496.952z" fill="#494a47"/><path d="m7.524 315.142h23.309v37.711h-23.309z" fill="#333331"/><path d="m355.578 504.477h-199.156v-397.376c0-54.995 44.582-99.578 99.578-99.578 54.995 0 99.578 44.582 99.578 99.578z" fill="#e15f4f"/><path d="m267.654 8.206c-3.823-.446-7.711-.683-11.654-.683-54.995 0-99.578 44.582-99.578 99.578v397.376h23.309v-397.376c0-51.052 38.42-93.124 87.923-98.895z" fill="#ca4336"/><path d="m25.148 227.376h131.275v57.248h-131.275z" fill="#68c0e0"/><path d="m25.148 227.376h23.309v57.248h-23.309z" fill="#3282a1"/><path d="m355.578 227.376h131.275v57.248h-131.275z" fill="#68c0e0"/><path d="m156.422 393.864h199.156v110.613h-199.156z" fill="#68c0e0"/><path d="m156.422 393.864h23.309v110.613h-23.309z" fill="#3282a1"/><path d="m389.24 393.864h66.715v52.734h-66.715z" fill="#68c0e0"/><path d="m389.24 446.598h66.715v18.93h-66.715z" fill="#494a47"/><path d="m57.427 393.864h66.715v52.734h-66.715z" fill="#68c0e0"/><path d="m57.427 446.598h66.715v18.93h-66.715z" fill="#494a47"/><path d="m256 51.1 14.46 29.299 32.333 4.698-23.397 22.806 5.523 32.202-28.919-15.204-28.919 15.204 5.523-32.202-23.397-22.806 32.333-4.698z" fill="#f8d250"/><path d="m205.824 365.901h100.352v27.963h-100.352z" fill="#cdcdc6"/><g><path d="m491.853 202.166h12.623c2.762 0 5-2.239 5-5v-37.711c0-2.761-2.238-5-5-5h-143.898v-47.354c0-57.664-46.914-104.578-104.578-104.578s-104.578 46.914-104.578 104.578v47.354h-143.898c-2.762 0-5 2.239-5 5v37.711c0 2.761 2.238 5 5 5h12.623v107.976h-12.623c-2.762 0-5 2.239-5 5v37.711c0 2.761 2.238 5 5 5h12.623v146.624c0 2.761 2.238 5 5 5h461.705c2.762 0 5-2.239 5-5v-146.624h12.623c2.762 0 5-2.239 5-5v-37.711c0-2.761-2.238-5-5-5h-12.623v-107.976zm-131.275 30.21h121.274v47.248h-121.274zm121.275-10h-121.275v-20.21h121.274v20.21zm17.623-57.921v27.711h-138.898v-27.711zm-469.329 67.921h121.274v47.248h-121.274zm131.275 166.488h89.578v100.612h-89.578zm154.973-10h-5.219v-22.963c0-2.761-2.238-5-5-5h-7.518v-134.441h17.736v162.404zm-105.571 0v-17.963h90.352v17.963zm77.834-27.963h-65.316v-153.94c0-18.008 14.65-32.658 32.658-32.658s32.658 14.65 32.658 32.658zm-75.316 0h-7.518c-2.762 0-5 2.239-5 5v22.963h-5.219v-162.404h17.736v134.441zm47.658 138.575v-100.612h89.578v100.612zm-99.578-392.375c0-52.15 42.428-94.578 94.578-94.578s94.578 42.428 94.578 94.578v281.763h-24.184v-167.404c0-2.761-2.238-5-5-5h-22.736v-9.5c0-23.522-19.137-42.658-42.658-42.658s-42.658 19.136-42.658 42.658v9.5h-22.736c-2.762 0-5 2.239-5 5v167.403h-24.184zm-148.898 57.354h138.897v27.711h-138.897zm138.898 37.711v20.21h-121.275v-20.21zm-121.275 87.458h121.274v20.518h-121.274zm-17.623 30.518h138.897v27.711h-138.897zm17.623 37.711h121.274v141.624h-121.274zm451.706 141.623h-121.275v-141.623h121.274v141.623zm17.623-151.623h-138.898v-27.711h138.897v27.711zm-138.898-37.711v-20.518h121.274v20.518z"/><path d="m389.24 470.528h66.716c2.762 0 5-2.239 5-5v-71.664c0-2.761-2.238-5-5-5h-66.716c-2.762 0-5 2.239-5 5v71.664c0 2.761 2.239 5 5 5zm61.716-10h-56.716v-8.93h56.716zm-20.477-18.93h-15.762v-6.419c0-4.345 3.535-7.88 7.881-7.88s7.881 3.535 7.881 7.88zm-36.239-42.734h56.716v42.734h-10.478v-6.419c0-9.859-8.021-17.88-17.881-17.88s-17.881 8.021-17.881 17.88v6.419h-10.476z"/><path d="m124.143 388.864h-66.716c-2.762 0-5 2.239-5 5v71.664c0 2.761 2.238 5 5 5h66.716c2.762 0 5-2.239 5-5v-71.664c0-2.761-2.239-5-5-5zm-61.716 10h56.716v42.734h-10.477v-6.419c0-9.859-8.021-17.88-17.881-17.88s-17.881 8.021-17.881 17.88v6.419h-10.477zm36.239 42.734h-15.762v-6.419c0-4.345 3.535-7.88 7.881-7.88s7.881 3.535 7.881 7.88zm20.477 18.93h-56.716v-8.93h56.716z"/><path d="m227.231 109.648-5.079 29.612c-.322 1.876.449 3.771 1.989 4.89 1.538 1.118 3.579 1.266 5.266.381l26.593-13.981 26.593 13.981c.732.384 1.531.574 2.326.574 1.037 0 2.068-.322 2.939-.955 1.54-1.119 2.312-3.014 1.989-4.89l-5.079-29.612 21.515-20.971c1.362-1.329 1.854-3.315 1.265-5.125-.588-1.81-2.152-3.129-4.036-3.403l-29.731-4.32-13.297-26.941c-.842-1.707-2.58-2.787-4.483-2.787s-3.642 1.081-4.483 2.787l-13.298 26.941-29.731 4.32c-1.884.274-3.448 1.593-4.036 3.403-.589 1.81-.098 3.797 1.265 5.125zm15.028-24.301c1.629-.237 3.036-1.26 3.765-2.735l9.976-20.214 9.977 20.214c.729 1.476 2.136 2.499 3.765 2.735l22.307 3.241-16.142 15.734c-1.179 1.149-1.716 2.804-1.438 4.426l3.811 22.217-19.952-10.49c-.729-.383-1.528-.574-2.327-.574s-1.599.191-2.327.574l-19.952 10.49 3.811-22.217c.278-1.622-.259-3.277-1.438-4.426l-16.142-15.734z"/><path d="m230.133 431.73c-2.762 0-5 2.239-5 5v24.881c0 2.761 2.238 5 5 5s5-2.239 5-5v-24.881c0-2.761-2.238-5-5-5z"/><path d="m283.25 431.73c-2.762 0-5 2.239-5 5v24.881c0 2.761 2.238 5 5 5s5-2.239 5-5v-24.881c0-2.761-2.238-5-5-5z"/></g></g></g></svg>