<svg enable-background="new 0 0 512 512" height="512" viewBox="0 0 512 512" width="512" xmlns="http://www.w3.org/2000/svg"><g id="Layer_2"><g><path d="m491.669 504.476h-471.338l20-339.825h431.338z" fill="#e15f4f"/><path d="m40.331 164.651-20 339.825h23.308l20-339.825z" fill="#ca4336"/><path d="m417.644 504.476h-323.288l13.718-339.825h295.852z" fill="#cdcdc6"/><path d="m305.695 504.476h-99.39l4.217-339.825h90.956z" fill="#e15f4f"/><path d="m7.524 164.651 248.476-157.127 248.476 157.127z" fill="#e15f4f"/><path d="m106.914 164.651 149.086-157.127 149.086 157.127z" fill="#cdcdc6"/><path d="m206.305 164.651 49.695-157.127 49.695 157.127z" fill="#e15f4f"/><path d="m57.219 239.04c-27.446 0-49.695-22.249-49.695-49.695v-24.694h99.39v24.694c0 27.446-22.249 49.695-49.695 49.695z" fill="#e15f4f"/><path d="m30.832 189.345v-24.694h-23.308v24.694c0 27.446 22.249 49.695 49.695 49.695 4.015 0 7.915-.489 11.654-1.388-21.82-5.246-38.041-24.877-38.041-48.307z" fill="#ca4336"/><path d="m156.61 239.04c-27.446 0-49.695-22.249-49.695-49.695v-24.694h99.39v24.694c0 27.446-22.249 49.695-49.695 49.695z" fill="#cdcdc6"/><path d="m256 239.04c-27.446 0-49.695-22.249-49.695-49.695v-24.694h99.39v24.694c0 27.446-22.249 49.695-49.695 49.695z" fill="#e15f4f"/><path d="m355.39 239.04c-27.446 0-49.695-22.249-49.695-49.695v-24.694h99.39v24.694c.001 27.446-22.249 49.695-49.695 49.695z" fill="#cdcdc6"/><path d="m454.781 235.317c-27.446 0-49.695-22.249-49.695-49.695v-24.694h99.39v24.694c0 27.446-22.249 49.695-49.695 49.695z" fill="#e15f4f"/><path d="m206.305 504.476 49.695-129.163 49.695 129.163z" fill="#494a47"/><g><path d="m509.476 189.345v-24.694s-.008-.018-.011-.025c-.009-1.673-.848-3.273-2.317-4.201l-248.476-157.127c-1.631-1.032-3.713-1.032-5.344 0l-248.475 157.127c-1.469.928-2.308 2.528-2.317 4.201-.003.008-.011.025-.011.025v24.694c0 20.683 11.541 38.718 28.519 48.011l-15.704 266.826c-.081 1.375.408 2.722 1.354 3.724.944 1.002 2.261 1.57 3.638 1.57h471.338c1.377 0 2.693-.568 3.638-1.57s1.435-2.349 1.354-3.724l-15.704-266.826c16.977-9.293 28.518-27.329 28.518-48.011zm-253.476 199.892 42.414 110.239h-84.828zm0-155.197c-24.646 0-44.695-20.05-44.695-44.695v-19.694h89.391v19.694c-.001 24.645-20.05 44.695-44.696 44.695zm-42.869-74.389 42.869-135.545 42.869 135.545zm96.227 0-42.046-132.94 126.137 132.94zm-106.716 0h-84.092l126.137-132.94zm-90.728 10h89.391v19.694c0 24.645-20.05 44.695-44.695 44.695s-44.695-20.05-44.695-44.695v-19.694zm139.086 74.151v130.581l-39.35 102.274 3.121-251.432c9.005 10.334 21.814 17.264 36.229 18.577zm10 130.581v-130.581c14.415-1.313 27.224-8.242 36.229-18.576l3.121 251.431zm49.695-204.732h89.391v19.694c0 24.645-20.05 44.695-44.695 44.695s-44.695-20.05-44.695-44.695v-19.694zm96.539-10-119.97-126.441 199.95 126.441zm-182.498-126.441-119.97 126.441h-79.98zm-212.212 156.135v-19.694h89.39v19.694c0 24.645-20.05 44.695-44.695 44.695s-44.695-20.05-44.695-44.695zm28.292 52.179c5.181 1.632 10.69 2.516 16.403 2.516 17.735 0 33.519-8.491 43.519-21.614l-11.184 277.05h-63.92zm70.057-22.235c9.783 14.892 26.625 24.751 45.736 24.751 20.893 0 39.079-11.78 48.287-29.042l-3.531 284.478h-101.802zm199.761 280.187-3.531-284.478c9.208 17.262 27.395 29.042 48.288 29.042 19.111 0 35.953-9.859 45.736-24.751l11.311 280.187zm175.732 0h-63.92l-11.184-277.051c10 13.124 25.784 21.615 43.519 21.615 5.713 0 11.222-.884 16.403-2.516zm-31.585-265.436c-24.646 0-44.695-20.05-44.695-44.695v-19.694h89.39v19.694c0 24.645-20.05 44.695-44.695 44.695z"/></g></g></g></svg>