<svg enable-background="new 0 0 512 512" height="512" viewBox="0 0 512 512" width="512" xmlns="http://www.w3.org/2000/svg"><g id="Layer_2"><g><path d="m33.065 360.256h445.871v144.435h-445.871z" fill="#fed2a4"/><path d="m33.065 360.256h23.309v144.435h-23.309z" fill="#f2af7c"/><path d="m504.476 360.256h-496.952l20-207.634h456.952z" fill="#bb5d4c"/><path d="m27.524 152.622-20 207.634h23.308l20-207.634z" fill="#99473a"/><path d="m254.679 27.309-120 199.945v277.437h240v-277.437z" fill="#fed2a4"/><path d="m266.333 46.728-11.654-19.419-120 199.945v277.437h23.308v-277.437z" fill="#f2af7c"/><g><path d="m104.246 297.933c-3.503 0-7.05-.92-10.273-2.854-9.471-5.684-12.541-17.97-6.856-27.44l150.413-250.622c3.615-6.023 10.124-9.708 17.148-9.708s13.534 3.685 17.148 9.708l150.415 250.621c5.685 9.471 2.614 21.757-6.856 27.44-9.469 5.685-21.757 2.615-27.44-6.856l-133.266-222.047-133.266 222.048c-3.75 6.248-10.375 9.71-17.167 9.71z" fill="#bb5d4c"/></g><g><path d="m110.425 267.639 150.414-250.622c1.427-2.378 3.311-4.385 5.494-5.951-3.346-2.4-7.404-3.757-11.654-3.757-7.024 0-13.534 3.685-17.148 9.708l-150.415 250.622c-5.684 9.471-2.614 21.757 6.856 27.44 3.223 1.935 6.77 2.854 10.273 2.854 4.168 0 8.269-1.309 11.686-3.76-8.391-6.002-10.908-17.534-5.506-26.534z" fill="#99473a"/></g><path d="m302.762 504.691h-93.525v-76.986c0-25.826 20.936-46.762 46.762-46.762 25.826 0 46.762 20.936 46.762 46.762v76.986z" fill="#bb5d4c"/><g fill="#68c0e0"><circle cx="256" cy="234.116" r="39.633"/><path d="m58.692 387.406h53.698v53.698h-53.698z"/><path d="m401.486 387.406h53.698v53.698h-53.698z"/></g><g><path d="m489.453 152.143c-.247-2.563-2.401-4.521-4.977-4.521h-128.433l-79.928-133.177c-4.492-7.485-12.706-12.135-21.436-12.135s-16.944 4.65-21.436 12.135l-79.929 133.178h-125.79c-2.576 0-4.73 1.957-4.977 4.521l-20 207.634c-.135 1.403.328 2.798 1.276 3.841.948 1.044 2.292 1.639 3.701 1.639h20.541v139.432c0 2.762 2.239 5 5 5h445.871c2.761 0 5-2.238 5-5v-139.434h20.541c1.41 0 2.753-.595 3.701-1.639.948-1.043 1.411-2.438 1.276-3.841zm-247.636-132.552c2.695-4.491 7.624-7.281 12.861-7.281 5.238 0 10.167 2.79 12.861 7.281l150.415 250.621c2.062 3.436 2.663 7.468 1.691 11.355s-3.398 7.163-6.834 9.225c-3.434 2.062-7.467 2.665-11.354 1.691-3.888-.971-7.164-3.398-9.226-6.834l-133.265-222.047c-.904-1.506-2.531-2.427-4.287-2.427s-3.383.921-4.287 2.427l-133.266 222.047c-2.737 4.562-7.553 7.284-12.88 7.284-2.704 0-5.366-.74-7.7-2.142-3.435-2.062-5.862-5.338-6.833-9.225-.972-3.888-.371-7.92 1.691-11.355zm154.669 407.882h-16.808v-26.108h16.808zm-16.807 10h16.808v3.632c0 2.762 2.239 5 5 5h53.698c2.761 0 5-2.238 5-5v-3.632h13.751v26.109h-94.257zm26.807-1.369v-43.698h43.698v43.698zm53.699-34.74h13.751v26.108h-13.751zm13.751-10h-13.751v-3.958c0-2.762-2.239-5-5-5h-53.698c-2.761 0-5 2.238-5 5v3.958h-16.808v-26.108h94.257zm-356.546 10h12.289v26.108h-12.289zm12.289-10h-12.289v-3.958c0-2.762-2.239-5-5-5h-53.699c-2.761 0-5 2.238-5 5v3.958h-15.627v-26.108h91.614v26.108zm-22.289 1.042v43.698h-43.699v-43.698zm-53.699 35.067h-15.627v-26.108h15.627zm-15.627 10h15.627v3.632c0 2.762 2.239 5 5 5h53.698c2.761 0 5-2.238 5-5v-3.632h12.289v26.109h-91.614zm-5.999-279.851h115.247l-64.483 107.443c-3.437 5.726-4.438 12.447-2.818 18.926 1.619 6.479 5.664 11.939 11.389 15.375 3.888 2.334 8.33 3.567 12.846 3.567 8.74 0 16.961-4.651 21.455-12.138l3.979-6.629v71.089h-116.651zm5.999 315.96h91.614v26.108h-91.614zm212.936 26.108h-36.762v-71.986c0-21.334 16.085-38.972 36.762-41.452zm10 0v-113.438c20.678 2.48 36.762 20.118 36.762 41.452v71.986zm46.762 0v-71.986c0-28.541-23.22-51.762-51.762-51.762s-51.762 23.221-51.762 51.762v71.986h-64.559v-232.185l115-191.614 115 191.612v232.187zm71.917 0v-26.108h94.257v26.108zm0-144.434v-71.092l3.979 6.631c3.436 5.727 8.896 9.771 15.376 11.391 2.024.506 4.071.756 6.104.756 4.476 0 8.884-1.212 12.82-3.575 5.726-3.436 9.771-8.896 11.39-15.375s.618-13.2-2.819-18.926l-64.484-107.443h117.89l19.037 197.634h-119.293z"/><path d="m256 189.483c-24.611 0-44.633 20.022-44.633 44.633s20.022 44.633 44.633 44.633 44.633-20.022 44.633-44.633-20.022-44.633-44.633-44.633zm0 79.266c-19.097 0-34.633-15.536-34.633-34.633s15.536-34.633 34.633-34.633 34.633 15.536 34.633 34.633-15.536 34.633-34.633 34.633z"/></g></g></g></svg>