<svg enable-background="new 0 0 512 512" height="512" viewBox="0 0 512 512" width="512" xmlns="http://www.w3.org/2000/svg"><g id="Layer_2"><g><g><path d="m7.524 133.672h496.952v37.711h-496.952z" fill="#494a47"/><path d="m7.524 133.672h23.309v37.711h-23.309z" fill="#333331"/><path d="m7.524 171.383h496.952v273.622h-496.952z" fill="#fed2a4"/><path d="m7.524 171.383h23.309v273.622h-23.309z" fill="#f2af7c"/><path d="m451.332 171.383h-390.664v-77.697l195.332-86.257 195.332 86.257z" fill="#fed2a4"/><path d="m267.654 12.575-11.654-5.146-195.332 86.257v77.697h23.309v-77.697z" fill="#f2af7c"/><path d="m93.887 141.383v-28.972l162.113-71.588 162.113 71.588v28.972z" fill="#bb5d4c"/><path d="m77.668 171.383h67.343v37.711h-67.343z" fill="#cdcdc6"/><path d="m77.668 171.383h23.309v37.711h-23.309z" fill="#989898"/><path d="m77.668 370.617h67.343v37.711h-67.343z" fill="#cdcdc6"/><path d="m77.668 370.617h23.309v37.711h-23.309z" fill="#989898"/><path d="m91.744 209.094h36.516v161.523h-36.516z" fill="#cdcdc6"/><path d="m91.744 209.094h23.309v161.523h-23.309z" fill="#989898"/><g fill="#cdcdc6"><path d="m366.989 171.383h67.343v37.711h-67.343z"/><path d="m366.989 370.617h67.343v37.711h-67.343z"/><path d="m222.329 370.617h67.343v37.711h-67.343z"/><path d="m381.065 209.094h36.516v161.523h-36.516z"/><path d="m243.971 140.502h24.058v206.938h-24.058z" transform="matrix(0 1 -1 0 499.971 -12.029)"/></g><path d="m33.825 407.811h444.35v37.711h-444.35z" fill="#494a47"/><path d="m33.825 407.811h23.309v37.711h-23.309z" fill="#333331"/><path d="m7.524 445.006h496.952v37.711h-496.952z" fill="#494a47"/><path d="m7.524 445.006h23.309v37.711h-23.309z" fill="#333331"/><path d="m243.971 209.094h24.058v161.523h-24.058z" fill="#cdcdc6"/><path d="m210.61 331.003c0 16.038-13.001 29.039-29.039 29.039s-29.039-13.001-29.039-29.039 58.078-16.038 58.078 0z" fill="#cdcdc6"/><path d="m359.469 331.003c0 16.038-13.001 29.039-29.039 29.039s-29.039-13.001-29.039-29.039 58.078-16.038 58.078 0z" fill="#cdcdc6"/></g><g><path d="m504.476 128.672h-48.144v-34.986c0-1.98-1.169-3.774-2.98-4.574l-195.332-86.257c-1.285-.568-2.754-.568-4.039 0l-195.333 86.257c-1.812.8-2.98 2.594-2.98 4.574v34.986h-48.144c-2.762 0-5 2.239-5 5v349.044c0 2.761 2.238 5 5 5h496.951c2.762 0 5-2.239 5-5v-349.044c.001-2.761-2.238-5-4.999-5zm-438.808-31.728 190.332-84.049 190.332 84.049v69.439h-380.664zm301.32 117.15h9.076v151.523h-9.076c-2.762 0-5 2.239-5 5v32.194h-67.316v-32.194c0-2.761-2.238-5-5-5h-16.643v-104.617h50.103l-24.367 62.936c-1.51 2-2.374 4.342-2.374 7.067 0 .039.003.078.003.117.001.022.001.044.002.066.099 18.685 15.326 33.856 34.034 33.856s33.936-15.171 34.035-33.857c.001-.022.001-.044.002-.066 0-.039.003-.078.003-.117 0-2.725-.864-5.067-2.374-7.067l-24.368-62.935h21.742c2.762 0 5-2.239 5-5v-24.058c0-2.761-2.238-5-5-5h-86.44v-17.848c0-2.761-2.238-5-5-5h-24.058c-2.762 0-5 2.239-5 5v17.848h-86.44c-2.762 0-5 2.239-5 5v24.058c0 2.761 2.238 5 5 5h21.741l-24.367 62.936c-1.51 2-2.374 4.342-2.374 7.067 0 .039.003.078.003.117.001.022.001.044.002.066.099 18.685 15.326 33.856 34.034 33.856s33.936-15.171 34.035-33.857c.001-.022.001-.044.002-.066 0-.039.003-.078.003-.117 0-2.725-.864-5.067-2.374-7.067l-24.369-62.935h50.103v104.617h-16.643c-2.762 0-5 2.239-5 5v32.194h-67.317v-32.194c0-2.761-2.238-5-5-5h-11.751v-151.523h11.752c2.762 0 5-2.239 5-5v-32.711h211.977v32.711c-.001 2.762 2.238 5 4.999 5zm-185.418 99.88c-5.976 0-12.33.648-17.913 2.141l17.913-46.268 17.914 46.267c-5.583-1.491-11.938-2.14-17.914-2.14zm18.238 12.7c2.126.783 3.785 1.711 4.777 2.617l1.003 2.59c-.464 12.85-11.056 23.162-24.018 23.162-12.961 0-23.553-10.312-24.017-23.162l1.003-2.59c.993-.906 2.652-1.834 4.778-2.617 4.658-1.715 11.306-2.699 18.236-2.699 6.932-.001 13.579.983 18.238 2.699zm84.864 48.943v27.194h-57.343v-27.194zm-45.7-124.617h-81.44v-14.058h81.44zm10 114.617v-151.523h14.058v151.523zm81.458-51.643c-5.976 0-12.33.648-17.913 2.141l17.913-46.268 17.914 46.267c-5.584-1.491-11.938-2.14-17.914-2.14zm18.237 12.7c2.125.783 3.785 1.711 4.777 2.617l1.003 2.59c-.464 12.85-11.056 23.162-24.018 23.162-12.961 0-23.553-10.312-24.017-23.162l1.003-2.59c.993-.906 2.652-1.834 4.778-2.617 4.658-1.715 11.306-2.699 18.236-2.699 6.932-.001 13.58.983 18.238 2.699zm-75.638-75.674v-14.058h81.44v14.058zm-133.017-46.906h-57.344v-27.711h57.344zm-16.752 10v151.523h-26.516v-151.523zm5 161.523h11.752v27.194h-57.344v-27.194h9.076zm344.915 37.194v27.194h-434.35v-27.194zm-43.843-10h-57.344v-27.194h9.076 36.517 11.751zm-43.268-37.194v-151.523h26.517v151.523zm-14.076-161.523v-27.711h57.344v27.711zm-359.464-65.422h43.144v27.711h-43.144zm0 37.711h48.144 12v32.711c0 2.761 2.238 5 5 5h9.076v151.523h-9.076c-2.762 0-5 2.239-5 5v32.194h-38.843c-2.762 0-5 2.239-5 5v32.194h-16.301zm486.952 301.333h-486.952v-27.711h486.951v27.711zm0-37.71h-16.301v-32.194c0-2.761-2.238-5-5-5h-38.843v-32.194c0-2.761-2.238-5-5-5h-11.751v-151.524h11.751c2.762 0 5-2.239 5-5v-32.711h60.144zm0-273.623h-43.144v-27.711h43.144z"/><path d="m420.133 107.837-162.113-71.588c-1.285-.568-2.754-.568-4.039 0l-162.114 71.588c-1.812.8-2.98 2.594-2.98 4.574v28.972c0 2.761 2.238 5 5 5h324.227c2.762 0 5-2.239 5-5v-28.972c-.001-1.98-1.17-3.774-2.981-4.574zm-7.02 28.546h-314.226v-20.714l157.113-69.38 157.113 69.38z"/></g></g></g></svg>