<svg enable-background="new 0 0 512 512" height="512" viewBox="0 0 512 512" width="512" xmlns="http://www.w3.org/2000/svg"><g id="Layer_2"><g><path d="m504.476 504.476h-133.24v-248.667l133.24-49.344z" fill="#cdcdc6"/><path d="m389.24 504.476h-133.24v-248.667l133.24-49.344z" fill="#cdcdc6"/><path d="m56.984 352.541h219.249v151.935h-219.249z" fill="#494a47"/><path d="m124.043 504.476h-116.519l20-462.611h76.519z" fill="#e15f4f"/><path d="m27.524 41.865-20 462.611h23.308l20-462.611z" fill="#ca4336"/><path d="m296.93 504.476h-116.519l20-462.611h76.519z" fill="#e15f4f"/><path d="m200.411 41.865-20 462.611h23.308l20-462.611z" fill="#ca4336"/><path d="m187.338 7.524h102.664v37.711h-102.664z" fill="#494a47"/><path d="m187.338 7.524h23.309v37.711h-23.309z" fill="#333331"/><path d="m14.451 7.524h102.664v37.711h-102.664z" fill="#494a47"/><path d="m14.451 7.524h23.309v37.711h-23.309z" fill="#333331"/><g fill="#68c0e0"><path d="m418.74 273.082h59.419v59.419h-59.419z"/><path d="m418.74 378.44h59.419v59.419h-59.419z"/><path d="m310.08 273.082h59.419v59.419h-59.419z"/><path d="m310.08 378.44h59.419v59.419h-59.419z"/></g><g><path d="m507.332 202.361c-1.343-.935-3.06-1.153-4.593-.585l-108.499 40.182v-35.493c0-1.636-.801-3.169-2.144-4.104s-3.06-1.153-4.593-.585l-97.102 35.961-8.106-187.502h7.706c2.762 0 5-2.239 5-5v-37.711c0-2.761-2.238-5-5-5h-102.663c-2.762 0-5 2.239-5 5v37.711c0 2.761 2.238 5 5 5h7.707l-12.854 297.306h-59.929l-12.853-297.306h7.706c2.762 0 5-2.239 5-5v-37.711c0-2.761-2.238-5-5-5h-102.664c-2.762 0-5 2.239-5 5v37.711c0 2.761 2.238 5 5 5h7.707l-19.629 454.025c-.06 1.362.44 2.689 1.384 3.674s2.248 1.542 3.611 1.542h496.951c2.762 0 5-2.239 5-5v-298.011c.001-1.636-.8-3.169-2.143-4.104zm-123.092 11.287v285.828h-82.522l-10.862-251.244zm-191.902-201.124h92.664v27.711h-92.664zm-10.579 345.017-6.136 141.935h-46.792l-6.136-141.935zm-162.308-345.017h92.664v27.711h-92.664zm12.716 37.711h67.234l19.422 449.241h-106.078zm172.886 0h67.234l19.422 449.241h-66.727-39.35zm294.423 449.241h-105.236v-246.855l105.235-38.973v285.828z"/><path d="m418.74 337.501h59.419c2.762 0 5-2.239 5-5v-59.419c0-2.761-2.238-5-5-5h-59.419c-2.762 0-5 2.239-5 5v59.419c0 2.762 2.239 5 5 5zm5-59.419h49.419v49.419h-49.419z"/><path d="m418.74 442.859h59.419c2.762 0 5-2.239 5-5v-59.419c0-2.761-2.238-5-5-5h-59.419c-2.762 0-5 2.239-5 5v59.419c0 2.761 2.239 5 5 5zm5-59.42h49.419v49.419h-49.419z"/><path d="m310.08 337.501h59.419c2.762 0 5-2.239 5-5v-59.419c0-2.761-2.238-5-5-5h-59.419c-2.762 0-5 2.239-5 5v59.419c0 2.762 2.238 5 5 5zm5-59.419h49.419v49.419h-49.419z"/><path d="m310.08 442.859h59.419c2.762 0 5-2.239 5-5v-59.419c0-2.761-2.238-5-5-5h-59.419c-2.762 0-5 2.239-5 5v59.419c0 2.761 2.238 5 5 5zm5-59.42h49.419v49.419h-49.419z"/></g></g></g></svg>