<svg enable-background="new 0 0 512 512" height="512" viewBox="0 0 512 512" width="512" xmlns="http://www.w3.org/2000/svg"><g id="Layer_2"><g><g><path d="m122.381 182.224h382.098v37.711h-382.098z" fill="#494a47"/><path d="m122.381 182.224h53.358v37.711h-53.358z" fill="#333331"/><path d="m261.727 144.514h103.406v37.711h-103.406z" fill="#494a47"/><path d="m261.727 144.514h23.309v37.711h-23.309z" fill="#333331"/><path d="m144.313 219.935h338.233v261.636h-338.233z" fill="#e15f4f"/><path d="m144.313 219.935h31.426v261.636h-31.426z" fill="#ca4336"/><path d="m193.403 275.411h240.053v206.161h-240.053z" fill="#cdcdc6"/><path d="m193.403 275.411h23.309v206.161h-23.309z" fill="#989898"/><path d="m342.857 144.514h-58.854v-37.964c0-16.252 13.175-29.427 29.427-29.427 16.252 0 29.427 13.175 29.427 29.427z" fill="#e15f4f"/><path d="m325.084 79.526c-3.574-1.544-7.513-2.403-11.654-2.403-16.252 0-29.427 13.175-29.427 29.427v37.964h23.309v-37.964c-.001-12.111 7.318-22.51 17.772-27.024z" fill="#ca4336"/><circle cx="313.43" cy="110.818" fill="#f8d250" r="12.22"/><path d="m15.117 68.139h137.313v413.432h-137.313z" fill="#e15f4f"/><path d="m15.117 68.139h23.309v413.432h-23.309z" fill="#ca4336"/><path d="m7.521 30.429h152.506v37.711h-152.506z" fill="#494a47"/><path d="m7.521 30.429h23.309v37.711h-23.309z" fill="#333331"/><g fill="#68c0e0"><path d="m40.743 104.874h89.174v59.449h-89.174z"/><path d="m40.743 237.836h89.174v59.449h-89.174z"/></g></g><g><path d="m504.479 177.224h-134.346v-32.711c0-2.761-2.238-5-5-5h-17.275v-32.963c0-18.983-15.444-34.427-34.428-34.427s-34.427 15.444-34.427 34.427v32.964h-17.275c-2.762 0-5 2.239-5 5v32.711h-99.297v-104.086h2.596c2.762 0 5-2.239 5-5v-37.71c0-2.761-2.238-5-5-5h-152.506c-2.762 0-5 2.239-5 5v37.711c0 2.761 2.238 5 5 5h2.596v408.432c0 2.761 2.238 5 5 5h467.43c2.762 0 5-2.239 5-5v-256.637h16.932c2.762 0 5-2.239 5-5v-37.711c0-2.761-2.239-5-5-5zm-215.476-70.674c0-13.469 10.958-24.427 24.427-24.427 13.47 0 24.428 10.958 24.428 24.427v32.964h-19.428v-12.221c7.063-2.148 12.221-8.718 12.221-16.474 0-9.495-7.726-17.22-17.221-17.22s-17.22 7.725-17.22 17.22c0 7.756 5.156 14.326 12.22 16.474v12.221h-19.427zm24.427 11.488c-3.981 0-7.22-3.239-7.22-7.22s3.238-7.22 7.22-7.22 7.221 3.239 7.221 7.22-3.24 7.22-7.221 7.22zm-46.702 31.475h93.405v27.711h-93.405zm-119.297 327.058h-127.314v-403.432h127.313v403.432zm7.595-413.432h-142.505v-27.71h142.505zm273.43 413.432h-230.053v-12.907h230.053zm0-22.906h-230.053v-12.907h230.053zm0-22.907h-230.053v-12.907h230.053zm0-22.907h-230.053v-12.907h230.053zm0-22.907h-230.053v-12.906h230.053zm0-22.906h-230.053v-12.907h230.053zm0-22.907h-230.053v-12.907h230.053zm0-22.907h-230.053v-12.907h230.053zm0-22.906h-230.053v-12.907h230.053zm49.091 183.253h-39.091v-201.16c0-2.761-2.238-5-5-5h-240.053c-2.762 0-5 2.239-5 5v201.16h-30.973v-251.636h320.116v251.636zm21.932-261.636h-342.048v-27.711h104.297 103.405 134.346z"/><path d="m40.743 169.324h89.175c2.762 0 5-2.239 5-5v-59.449c0-2.761-2.238-5-5-5h-89.175c-2.762 0-5 2.239-5 5v59.449c0 2.761 2.238 5 5 5zm5-59.449h79.175v49.449h-79.175z"/><path d="m40.743 302.285h89.175c2.762 0 5-2.239 5-5v-59.449c0-2.761-2.238-5-5-5h-89.175c-2.762 0-5 2.239-5 5v59.449c0 2.762 2.238 5 5 5zm5-59.449h79.175v49.449h-79.175z"/></g></g></g></svg>