<svg enable-background="new 0 0 512 512" height="512" viewBox="0 0 512 512" width="512" xmlns="http://www.w3.org/2000/svg"><g id="Layer_2"><g><path d="m504.911 477.851h-497.822v-286.299l248.911-157.403 248.911 157.403z" fill="#bb5d4c"/><path d="m267.654 41.519-11.654-7.37-248.911 157.403v286.299h23.308v-286.299z" fill="#99473a"/><path d="m256 69.645-217.675 137.985h435.349z" fill="#494a47"/><path d="m37.089 237.629h437.822v240.221h-437.822z" fill="#fed2a4"/><path d="m37.089 237.629h23.309v240.221h-23.309z" fill="#f2af7c"/><path d="m189.765 324.569h256.097v152.289h-256.097z" fill="#cdcdc6"/><path d="m66.359 325.562h93.934v152.289h-93.934z" fill="#68c0e0"/><path d="m66.359 325.562h23.309v152.289h-23.309z" fill="#3282a1"/><g><path d="m507.583 187.326-248.911-157.403c-1.632-1.032-3.713-1.032-5.345 0l-248.91 157.403c-1.449.917-2.328 2.511-2.328 4.226v286.299c0 2.761 2.239 5 5 5h497.822c2.761 0 5-2.239 5-5v-286.299c0-1.715-.878-3.31-2.328-4.226zm-352.29 143.236v51.117h-36.166v-51.117zm-46.166 51.117h-37.768v-51.117h37.768zm-37.768 91.172v-81.172h83.934v81.172zm369.503-67.138v15.381h-246.097v-15.381zm-246.097-10v-15.382h246.097v15.382zm246.097-25.381h-246.097v-15.382h246.097zm-246.097 60.763h246.097v15.381h-246.097zm246.097-86.145h-246.097v-14.388h246.097zm-246.097 127.901v-16.375h246.097v16.375zm256.097 0v-147.289c0-2.761-2.239-5-5-5h-256.097c-2.761 0-5 2.239-5 5v147.289h-19.472v-147.289c0-2.761-2.239-5-5-5h-93.934c-2.761 0-5 2.239-5 5v147.289h-19.27v-230.222h427.822v230.221h-19.049zm49.049 0h-20v-235.222c0-2.761-2.239-5-5-5h-437.822c-2.761 0-5 2.239-5 5v235.221h-20v-278.544l243.911-154.241 243.911 154.24z"/><path d="m253.323 65.421-217.675 137.985c-1.879 1.191-2.745 3.48-2.125 5.617s2.577 3.606 4.802 3.606h435.349c2.225 0 4.182-1.47 4.802-3.606s-.246-4.425-2.125-5.617l-217.674-137.985c-1.634-1.036-3.72-1.036-5.354 0zm203.125 137.208h-400.896l200.448-127.065z"/></g></g></g></svg>