<svg enable-background="new 0 0 512 512" height="512" viewBox="0 0 512 512" width="512" xmlns="http://www.w3.org/2000/svg"><g id="Layer_2"><g><path d="m7.524 7.524h496.952v37.176h-496.952z" fill="#e15f4f"/><path d="m468.997 78.782h-425.994c-15.781 0-28.575-12.793-28.575-28.575v-5.507h483.143v5.507c0 15.782-12.793 28.575-28.574 28.575z" fill="#fff"/><path d="m237.695 78.672h36.609v411.885h-36.609z" fill="#989898"/><path d="m292.36 504.366h-72.72v-25.343c0-3.559 2.885-6.443 6.443-6.443h59.832c3.559 0 6.443 2.885 6.443 6.443v25.343z" fill="#e15f4f"/><path d="m250.076 472.58h-23.309c-3.936 0-7.127 3.191-7.127 7.127v24.66h23.309v-24.66c0-3.937 3.191-7.127 7.127-7.127z" fill="#bf3730"/><g><path d="m139.365 316.869h-131.841v-20.639c0-7.376 5.979-13.355 13.355-13.355h105.131c7.376 0 13.355 5.979 13.355 13.355z" fill="#e15f4f"/><path d="m139.365 316.869h-131.841v-20.639c0-7.376 5.979-13.355 13.355-13.355h105.131c7.376 0 13.355 5.979 13.355 13.355z" fill="#e15f4f"/><path d="m44.187 282.875h-23.308c-7.376 0-13.355 5.979-13.355 13.355v20.639h23.309v-20.639c-.001-7.376 5.979-13.355 13.354-13.355z" fill="#bf3730"/><path d="m14.119 316.838h118.651v74.177h-118.651z" fill="#cdcdc6"/><path d="m14.119 316.838h23.309v74.177h-23.309z" fill="#989898"/><path d="m14.119 391.016h118.651v84.935h-118.651z" fill="#e15f4f"/><path d="m14.119 391.016h23.309v84.935h-23.309z" fill="#bf3730"/><path d="m9.773 475.951h127.344v28.525h-127.344z" fill="#e15f4f"/><path d="m52.859 337.718h41.172v32.418h-41.172z" fill="#989898"/><path d="m161.014 374.954h-28.244v-42.055h21.529z" fill="#e15f4f"/></g><g><path d="m372.635 316.869h131.841v-20.639c0-7.376-5.979-13.355-13.355-13.355h-105.131c-7.376 0-13.355 5.979-13.355 13.355z" fill="#e15f4f"/><path d="m379.23 316.838h118.651v74.177h-118.651z" fill="#cdcdc6" transform="matrix(-1 0 0 -1 877.111 707.854)"/><path d="m379.23 391.016h118.651v84.935h-118.651z" fill="#e15f4f" transform="matrix(-1 0 0 -1 877.111 866.967)"/><path d="m374.883 475.951h127.344v28.525h-127.344z" fill="#e15f4f" transform="matrix(-1 0 0 -1 877.111 980.427)"/><path d="m417.97 332.04h41.172v43.774h-41.172z" fill="#989898" transform="matrix(-1 0 0 -1 877.111 707.854)"/><path d="m350.986 374.954h28.244v-42.055h-21.529z" fill="#e15f4f"/></g><path d="m7.524 7.524h23.309v37.176h-23.309z" fill="#bf3730"/><path d="m37.737 50.207v-5.507h-23.308v5.507c0 15.781 12.793 28.575 28.575 28.575h23.309c-15.783 0-28.576-12.794-28.576-28.575z" fill="#cdcdc6"/><g><path d="m52.859 375.136h41.171c2.761 0 5-2.238 5-5v-32.418c0-2.762-2.239-5-5-5h-41.171c-2.761 0-5 2.238-5 5v32.418c0 2.761 2.239 5 5 5zm5-32.418h31.171v22.418h-31.171z"/><path d="m171.803 402.516h-15.146v-22.562h4.357c1.464 0 2.854-.642 3.804-1.755.95-1.114 1.364-2.588 1.133-4.033l-6.715-42.055c-.388-2.427-2.48-4.212-4.938-4.212h-16.528v-6.03h1.595c2.761 0 5-2.238 5-5v-20.64c0-10.121-8.234-18.354-18.355-18.354h-105.131c-10.121 0-18.355 8.233-18.355 18.354v20.64c0 2.762 2.239 5 5 5h1.595v149.148c-2.449.323-4.347 2.396-4.347 4.934v28.525c0 2.762 2.239 5 5 5h127.344c2.761 0 5-2.238 5-5v-28.525c0-2.538-1.897-4.611-4.347-4.934v-58.501h8.887v14.927c0 13.745 11.182 24.927 24.926 24.927h.22c13.745 0 24.927-11.182 24.927-24.927s-11.181-24.927-24.926-24.927zm-21.769-64.617 5.119 32.055h-17.383v-32.055zm-130.915 58.117h108.651v74.936h-108.651zm-6.595-99.787c0-4.606 3.748-8.354 8.355-8.354h105.131c4.607 0 8.355 3.748 8.355 8.354v15.64h-121.841zm115.246 25.64v64.146h-108.651v-64.146zm4.347 177.608h-117.345v-18.525h117.344v18.525zm5.653-96.961v-22.562h8.887v22.562zm34.033 39.853h-.22c-8.23 0-14.926-6.696-14.926-14.927v-14.927h15.146c8.23 0 14.927 6.696 14.927 14.927s-6.696 14.927-14.927 14.927z"/><path d="m491.121 277.875h-105.132c-10.121 0-18.354 8.233-18.354 18.354v20.64c0 2.762 2.238 5 5 5h1.595v6.03h-16.528c-2.457 0-4.55 1.785-4.938 4.212l-6.716 42.055c-.23 1.445.184 2.919 1.134 4.033.949 1.113 2.34 1.755 3.804 1.755h4.358v22.562h-15.147c-13.744 0-24.926 11.182-24.926 24.927s11.182 24.927 24.926 24.927h.221c13.745 0 24.927-11.182 24.927-24.927v-14.927h8.886v58.501c-2.449.323-4.346 2.396-4.346 4.934v28.525c0 2.762 2.238 5 5 5h127.344c2.762 0 5-2.238 5-5v-28.525c0-2.538-1.897-4.611-4.347-4.934v-149.148h1.595c2.762 0 5-2.238 5-5v-20.64c-.001-10.121-8.235-18.354-18.356-18.354zm-135.777 149.567c0 8.23-6.696 14.927-14.927 14.927h-.221c-8.23 0-14.926-6.696-14.926-14.927s6.695-14.927 14.926-14.927h15.147v14.927zm22.291-131.213c0-4.606 3.748-8.354 8.354-8.354h105.132c4.606 0 8.354 3.748 8.354 8.354v15.64h-121.84zm115.246 174.722h-108.652v-74.936h108.651v74.936zm-130.915-133.052h12.264v32.055h-17.383zm3.378 64.617v-22.562h8.886v22.562zm131.884 96.961h-117.344v-18.525h117.344zm-4.347-113.461h-108.652v-64.146h108.651v64.146z"/><path d="m417.97 380.813h41.172c2.762 0 5-2.238 5-5v-43.773c0-2.762-2.238-5-5-5h-41.172c-2.762 0-5 2.238-5 5v43.773c0 2.762 2.238 5 5 5zm5-43.773h31.172v33.773h-31.172z"/><path d="m504.476 2.524h-496.952c-2.761 0-5 2.238-5 5v37.176c0 2.762 2.239 5 5 5h1.905v.508c0 18.513 15.062 33.574 33.575 33.574h189.692v383.798h-6.611c-6.31 0-11.443 5.134-11.443 11.443v25.343c0 2.762 2.239 5 5 5h72.719c2.762 0 5-2.238 5-5v-25.343c0-6.31-5.134-11.443-11.443-11.443h-6.611v-383.798h189.692c18.513 0 33.574-15.062 33.574-33.574v-.508h1.904c2.762 0 5-2.238 5-5v-37.176c-.001-2.761-2.24-5-5.001-5zm-491.952 10h486.952v27.176h-486.952zm274.835 466.499v20.343h-62.719v-20.343c0-.796.647-1.443 1.443-1.443h59.832c.797 0 1.444.648 1.444 1.443zm-18.054-11.443h-26.609v-383.798h26.609zm223.266-417.372c0 12.999-10.575 23.574-23.574 23.574h-425.994c-12.999 0-23.575-10.575-23.575-23.574v-.508h473.143z"/></g></g></g></svg>