<svg enable-background="new 0 0 512 512" height="512" viewBox="0 0 512 512" width="512" xmlns="http://www.w3.org/2000/svg"><g id="Layer_2"><g><g><path d="m21.333 216.913h469.333v287.563h-469.333z" fill="#fed2a4"/><path d="m21.333 216.913h23.333v287.563h-23.333z" fill="#f2af7c"/><path d="m7.524 179.202h496.952v37.711h-496.952z" fill="#494a47"/><path d="m7.524 179.202h23.309v37.711h-23.309z" fill="#333331"/><path d="m117.722 45.234h276.556v459.241h-276.556z" fill="#fed2a4"/><path d="m117.722 45.234h23.309v459.241h-23.309z" fill="#f2af7c"/><path d="m98.099 7.524h315.801v37.711h-315.801z" fill="#494a47"/><path d="m98.099 7.524h23.309v37.711h-23.309z" fill="#333331"/><path d="m108.888 313.922h294.223v37.711h-294.223z" fill="#494a47"/><path d="m108.888 313.922h23.309v37.711h-23.309z" fill="#333331"/><path d="m202.496 379.644h107.009v124.832h-107.009z" fill="#68c0e0"/><path d="m117.722 207.689h276.556v48.311h-276.556z" fill="#68c0e0"/><path d="m117.722 207.689h23.309v48.311h-23.309z" fill="#3282a1"/><path d="m47.688 260.199h42.866v216.233h-42.866z" fill="#68c0e0"/><path d="m421.559 260.199h42.866v216.233h-42.866z" fill="#68c0e0"/><circle cx="256" cy="126.462" fill="#fff" r="49.541"/><path d="m281.101 112.47h-11.89v-11.89h-26.422v11.89h-11.89v26.422h11.89v11.89h26.422v-11.89h11.89z" fill="#68c0e0"/></g><g><path d="m504.476 174.202h-105.198v-123.968h14.622c2.761 0 5-2.239 5-5v-37.711c0-2.761-2.239-5-5-5h-315.8c-2.761 0-5 2.239-5 5v37.711c0 2.761 2.239 5 5 5h14.622v123.968h-105.198c-2.761 0-5 2.239-5 5v37.711c0 2.761 2.239 5 5 5h8.81v282.563c0 2.761 2.239 5 5 5h469.333c2.761 0 5-2.239 5-5v-282.563h8.81c2.761 0 5-2.239 5-5v-37.711c-.001-2.761-2.24-5-5.001-5zm-391.754 134.72h-3.833c-2.761 0-5 2.239-5 5v37.711c0 2.761 2.239 5 5 5h3.833v142.844h-86.389v-277.564h86.388v87.009zm0-97.009h-100.198v-27.711h100.198zm-9.622-171.679v-27.711h305.8v27.711zm286.178 220.766v47.923h-266.556v-47.923zm-266.556-10v-38.311h36.093v38.311zm46.092 0v-38.311h36.093v38.311zm46.093 0v-38.311h36.093v38.311zm46.093 0v-38.311h36.093v38.311zm46.093 0v-38.311h36.093v38.311zm46.093 0v-38.311h36.093v38.311zm-230.464-48.311v-152.455h266.557v152.454h-266.557zm128.278 296.787h-43.504v-114.832h43.504zm53.504 0h-43.504v-114.832h43.504zm84.774 0h-74.774v-119.832c0-2.761-2.239-5-5-5h-107.008c-2.761 0-5 2.239-5 5v119.831h-74.774v-142.842h266.557v142.843zm8.834-152.843h-284.224v-27.711h284.224zm87.555 152.844h-86.388v-142.844h3.833c2.761 0 5-2.239 5-5v-37.711c0-2.761-2.239-5-5-5h-3.833v-87.009h86.388zm13.809-287.564h-100.198v-27.711h100.198z"/><path d="m47.688 481.433h42.866c2.761 0 5-2.239 5-5v-216.234c0-2.761-2.239-5-5-5h-42.866c-2.761 0-5 2.239-5 5v216.233c0 2.762 2.239 5.001 5 5.001zm5-216.234h32.866v26.039h-32.866zm0 36.039h32.866v26.039h-32.866zm0 36.039h32.866v26.039h-32.866zm0 36.039h32.866v26.039h-32.866zm0 36.039h32.866v26.039h-32.866zm0 36.039h32.866v26.039h-32.866z"/><path d="m421.559 481.433h42.867c2.761 0 5-2.239 5-5v-216.234c0-2.761-2.239-5-5-5h-42.867c-2.761 0-5 2.239-5 5v216.233c0 2.762 2.238 5.001 5 5.001zm5-216.234h32.867v26.039h-32.867zm0 36.039h32.867v26.039h-32.867zm0 36.039h32.867v26.039h-32.867zm0 36.039h32.867v26.039h-32.867zm0 36.039h32.867v26.039h-32.867zm0 36.039h32.867v26.039h-32.867z"/><path d="m256 71.92c-30.074 0-54.541 24.467-54.541 54.541s24.467 54.541 54.541 54.541 54.541-24.467 54.541-54.541-24.467-54.541-54.541-54.541zm0 99.083c-24.56 0-44.541-19.981-44.541-44.541s19.981-44.542 44.541-44.542 44.541 19.981 44.541 44.541-19.981 44.542-44.541 44.542z"/><path d="m281.101 107.47h-6.89v-6.89c0-2.761-2.239-5-5-5h-26.422c-2.761 0-5 2.239-5 5v6.89h-6.89c-2.761 0-5 2.239-5 5v26.422c0 2.761 2.239 5 5 5h6.89v6.89c0 2.761 2.239 5 5 5h26.422c2.761 0 5-2.239 5-5v-6.89h6.89c2.761 0 5-2.239 5-5v-26.422c0-2.762-2.239-5-5-5zm-5 26.422h-6.89c-2.761 0-5 2.239-5 5v6.89h-16.422v-6.89c0-2.761-2.239-5-5-5h-6.89v-16.422h6.89c2.761 0 5-2.239 5-5v-6.89h16.422v6.89c0 2.761 2.239 5 5 5h6.89z"/></g></g></g></svg>