<svg enable-background="new 0 0 512 512" height="512" viewBox="0 0 512 512" width="512" xmlns="http://www.w3.org/2000/svg"><g id="Layer_2"><g><g><path d="m37.879 45.235h131.769v253.256h-131.769z" fill="#cdcdc6"/><path d="m37.879 45.235h23.309v253.256h-23.309z" fill="#989898"/><path d="m342.352 45.235h131.769v253.256h-131.769z" fill="#cdcdc6"/><path d="m169.648 85.333h172.704v213.157h-172.704z" fill="#cdcdc6"/><path d="m21.654 298.491h468.692v37.711h-468.692z" fill="#494a47"/><path d="m21.654 298.491h22.988v37.711h-22.988z" fill="#333331"/><path d="m23.016 7.524h161.495v37.711h-161.495z" fill="#494a47"/><path d="m23.016 7.524h23.309v37.711h-23.309z" fill="#333331"/><path d="m169.648 47.622h172.704v37.711h-172.704z" fill="#494a47"/><path d="m327.489 7.524h161.495v37.711h-161.495z" fill="#494a47"/><path d="m37.879 336.201h436.241v168.275h-436.241z" fill="#cdcdc6"/><path d="m37.879 336.201h23.309v168.275h-23.309z" fill="#989898"/><path d="m37.879 358.499h436.241v24.182h-436.241z" fill="#fed2a4"/><path d="m158.64 402.315h194.719v102.161h-194.719z" fill="#68c0e0"/><path d="m37.879 402.315h92.426v76.624h-92.426z" fill="#68c0e0"/><path d="m37.879 402.315h23.309v76.624h-23.309z" fill="#3282a1"/><g fill="#68c0e0"><path d="m380.454 402.315h92.426v76.624h-92.426z"/><path d="m85.029 81.63h37.47v37.47h-37.47z"/><path d="m85.029 150.568h37.47v37.47h-37.47z"/><path d="m85.029 219.506h37.47v37.47h-37.47z"/><path d="m237.265 138.708h37.47v37.47h-37.47z"/><path d="m237.265 207.646h37.47v37.47h-37.47z"/><path d="m389.502 81.63h37.47v37.47h-37.47z"/><path d="m389.502 150.568h37.47v37.47h-37.47z"/><path d="m389.502 219.506h37.47v37.47h-37.47z"/></g></g><g><path d="m21.654 341.201h11.225v163.275c0 2.761 2.239 5 5 5h436.241c2.761 0 5-2.239 5-5v-163.275h11.225c2.761 0 5-2.239 5-5v-37.711c0-2.761-2.239-5-5-5h-11.225v-243.255h9.863c2.761 0 5-2.239 5-5v-37.711c0-2.761-2.239-5-5-5h-161.494c-2.761 0-5 2.239-5 5v35.099h-132.978v-35.099c0-2.761-2.239-5-5-5h-161.495c-2.761 0-5 2.239-5 5v37.711c0 2.761 2.239 5 5 5h9.863v243.255h-11.225c-2.761 0-5 2.239-5 5v37.711c0 2.762 2.239 5 5 5zm229.346 158.275h-87.36v-92.161h87.36zm97.36 0h-87.36v-92.161h87.36zm120.761-102.161h-88.667c-2.761 0-5 2.239-5 5v76.624c0 2.761 2.239 5 5 5h88.667v15.538h-110.761v-97.161c0-2.761-2.239-5-5-5h-194.72c-2.761 0-5 2.239-5 5v97.161h-110.761v-15.538h87.425c2.761 0 5-2.239 5-5v-76.624c0-2.761-2.239-5-5-5h-87.425v-9.634h426.241v9.634zm0 10v66.624h-83.667v-66.624zm-426.242 66.623v-66.624h82.425v66.624zm426.242-96.258h-426.242v-14.182h426.241v14.182zm0-24.181h-426.242v-12.297h426.241v12.297zm-136.632-340.975h151.495v27.711h-151.495zm136.632 37.711v243.255h-121.769v-243.255zm-131.769 2.388v27.711h-162.704v-27.711zm0 37.71v203.157h-162.704v-203.157zm-309.336-50.098v-27.711h151.495v27.711zm136.632 10v243.255h-121.769v-243.255zm-137.994 253.255h458.691v27.711h-458.691z"/><path d="m85.029 124.099h37.47c2.761 0 5-2.239 5-5v-37.469c0-2.761-2.239-5-5-5h-37.47c-2.761 0-5 2.239-5 5v37.469c0 2.762 2.239 5 5 5zm5-37.469h27.47v27.469h-27.47z"/><path d="m85.029 193.037h37.47c2.761 0 5-2.239 5-5v-37.469c0-2.761-2.239-5-5-5h-37.47c-2.761 0-5 2.239-5 5v37.469c0 2.762 2.239 5 5 5zm5-37.469h27.47v27.469h-27.47z"/><path d="m85.029 261.976h37.47c2.761 0 5-2.239 5-5v-37.469c0-2.761-2.239-5-5-5h-37.47c-2.761 0-5 2.239-5 5v37.469c0 2.761 2.239 5 5 5zm5-37.47h27.47v27.469h-27.47z"/><path d="m237.265 181.177h37.47c2.761 0 5-2.239 5-5v-37.469c0-2.761-2.239-5-5-5h-37.47c-2.761 0-5 2.239-5 5v37.469c0 2.762 2.239 5 5 5zm5-37.469h27.47v27.469h-27.47z"/><path d="m237.265 250.116h37.47c2.761 0 5-2.239 5-5v-37.47c0-2.761-2.239-5-5-5h-37.47c-2.761 0-5 2.239-5 5v37.47c0 2.761 2.239 5 5 5zm5-37.47h27.47v27.47h-27.47z"/><path d="m389.501 124.099h37.47c2.761 0 5-2.239 5-5v-37.469c0-2.761-2.239-5-5-5h-37.47c-2.761 0-5 2.239-5 5v37.469c0 2.762 2.239 5 5 5zm5-37.469h27.47v27.469h-27.47z"/><path d="m389.501 193.037h37.47c2.761 0 5-2.239 5-5v-37.469c0-2.761-2.239-5-5-5h-37.47c-2.761 0-5 2.239-5 5v37.469c0 2.762 2.239 5 5 5zm5-37.469h27.47v27.469h-27.47z"/><path d="m389.501 261.976h37.47c2.761 0 5-2.239 5-5v-37.469c0-2.761-2.239-5-5-5h-37.47c-2.761 0-5 2.239-5 5v37.469c0 2.761 2.239 5 5 5zm5-37.47h27.47v27.469h-27.47z"/></g></g></g></svg>