<svg enable-background="new 0 0 512 512" height="512" viewBox="0 0 512 512" width="512" xmlns="http://www.w3.org/2000/svg"><g id="Layer_2"><g><g><path d="m306.091 132.295h64.888v64.888h-64.888z" fill="#f2af7c"/><path d="m392.405 414.053h-272.81v-156.894l136.405-86.257 136.405 86.257z" fill="#fed2a4"/><path d="m142.904 242.42-23.309 14.739v156.894h23.309z" fill="#f2af7c"/><path d="m85.333 279.012v-45.773l170.667-108.11 170.667 108.11v45.773l-170.667-108.11z" fill="#bb5d4c"/><g><path d="m108.642 218.474-23.309 14.765v45.773l23.309-14.765z" fill="#99473a"/></g><path d="m154.359 284.024h84.103v130.029h-84.103z" fill="#bb5d4c"/><path d="m292.627 284.024h65.015v65.015h-65.015z" fill="#68c0e0"/><path d="m292.627 97.947h91.816v34.349h-91.816z" fill="#99473a"/><path d="m100.58 335.227c0 25.697-20.831 46.528-46.528 46.528s-46.528-20.832-46.528-46.528 20.831-84.427 46.528-84.427 46.528 58.73 46.528 84.427z" fill="#4eb7a2"/><path d="m30.832 335.227c0-21.672 14.817-66.84 34.874-80.457-3.725-2.529-7.63-3.97-11.654-3.97-25.697 0-46.528 58.73-46.528 84.427s20.831 46.528 46.528 46.528c4.025 0 7.93-.512 11.654-1.472-20.056-5.174-34.874-23.384-34.874-45.056z" fill="#218e79"/><path d="m505.195 335.227c0 25.697-20.831 46.528-46.528 46.528s-46.528-20.831-46.528-46.528 20.831-84.427 46.528-84.427c25.696-.001 46.528 58.73 46.528 84.427z" fill="#4eb7a2"/></g><path d="m292.626 354.038h65.015c2.761 0 5-2.239 5-5v-65.015c0-2.761-2.239-5-5-5h-65.015c-2.761 0-5 2.239-5 5v65.015c0 2.762 2.239 5 5 5zm5-65.014h55.015v55.015h-55.015z"/><path d="m504.476 409.053h-41.528v-22.49c26.415-2.185 47.247-24.367 47.247-51.336 0-14.134-5.8-36.33-14.104-53.979-10.756-22.859-24.047-35.448-37.425-35.448-9.318 0-18.593 6.115-27 17.547v-30.108c0-1.713-.877-3.307-2.324-4.224l-53.363-33.803v-57.916h8.464c2.761 0 5-2.239 5-5v-34.349c0-2.761-2.239-5-5-5h-91.816c-2.761 0-5 2.239-5 5v34.349c0 2.761 2.239 5 5 5h8.464v10.478l-42.415-26.868c-1.634-1.035-3.718-1.035-5.352 0l-170.666 108.109c-1.447.917-2.324 2.511-2.324 4.224v29.147c-8.215-10.813-17.228-16.587-26.281-16.587-13.377 0-26.668 12.589-37.425 35.448-8.304 17.648-14.104 39.845-14.104 53.979 0 26.479 20.079 48.348 45.81 51.203v22.623h-40.81c-2.761 0-5 2.239-5 5s2.239 5 5 5h496.952c2.761 0 5-2.239 5-5s-2.239-4.999-5-4.999zm-206.85-281.757v-24.349h81.816v24.349zm68.353 10v51.582l-54.888-34.769v-16.812h54.888zm-353.455 197.931c0-12.818 5.408-33.264 13.152-49.721 8.883-18.879 19.226-29.706 28.376-29.706s19.493 10.828 28.376 29.706c7.744 16.458 13.152 36.903 13.152 49.721 0 22.899-18.629 41.528-41.528 41.528s-41.528-18.63-41.528-41.528zm102.071 73.826h-56.262v-22.49c26.415-2.185 47.247-24.367 47.247-51.336 0-14.134-5.799-36.33-14.104-53.979-.025-.054-.051-.106-.077-.16l23.195-14.693v142.658zm118.866 0h-74.103v-120.029h74.103zm153.944 0h-143.944v-125.029c0-2.761-2.239-5-5-5h-84.103c-2.761 0-5 2.239-5 5v125.029h-24.764v-148.993l131.406-83.242 131.405 83.242zm-128.733-242.377c-1.632-1.032-3.713-1.032-5.345 0l-162.994 103.25v-33.936l165.667-104.942 165.667 104.942v33.936zm194.276 242.377h-55.543v-142.658l23.75 15.045c-8.257 17.617-14.016 39.704-14.016 53.787 0 26.479 20.079 48.348 45.809 51.203zm-35.809-73.826c0-12.818 5.408-33.264 13.152-49.721 8.883-18.879 19.226-29.706 28.376-29.706s19.493 10.828 28.376 29.706c7.744 16.458 13.152 36.904 13.152 49.721 0 22.899-18.629 41.528-41.528 41.528s-41.528-18.63-41.528-41.528z"/></g></g></svg>