<svg enable-background="new 0 0 512 512" height="512" viewBox="0 0 512 512" width="512" xmlns="http://www.w3.org/2000/svg"><g id="Layer_2"><g><path d="m419.981 143.265h-327.962l20-80.576h287.962z" fill="#bb5d4c"/><path d="m116.762 143.265h278.476v121.133h-278.476z" fill="#fed2a4"/><path d="m46.048 162.01v304.4h123.647v-304.4l-63.641-67.28z" fill="#fed2a4"/><path d="m118.051 107.413-11.997-12.683-60.006 67.28v304.4h23.309v-304.4z" fill="#f2af7c"/><g><path d="m27.517 173.39c-4.738 0-9.492-1.673-13.306-5.074-8.243-7.352-8.966-19.995-1.613-28.238l78.307-87.798c3.727-4.179 9.035-6.604 14.633-6.686 5.576-.103 10.975 2.187 14.823 6.254l83.049 87.798c7.59 8.024 7.238 20.683-.786 28.273s-20.682 7.239-28.273-.786l-68.086-71.98-63.815 71.549c-3.951 4.43-9.43 6.688-14.933 6.688z" fill="#bb5d4c"/></g><g><path d="m37.52 168.316c-8.243-7.352-8.966-19.995-1.613-28.238l78.306-87.798c.985-1.104 2.086-2.077 3.268-2.926-3.459-2.484-7.644-3.84-11.944-3.76-5.598.082-10.906 2.507-14.633 6.686l-78.306 87.798c-7.353 8.244-6.63 20.886 1.613 28.238 3.814 3.401 8.568 5.075 13.306 5.074 4.112 0 8.211-1.264 11.669-3.75-.57-.41-1.129-.846-1.666-1.324z" fill="#99473a"/></g><path d="m341.645 162.01v304.4h123.646v-304.4l-63.64-67.28z" fill="#fed2a4"/><g><path d="m323.114 173.39c-4.738 0-9.492-1.673-13.306-5.074-8.243-7.352-8.966-19.995-1.613-28.238l78.306-87.798c3.727-4.179 9.035-6.604 14.633-6.686 5.576-.103 10.975 2.187 14.823 6.254l83.049 87.798c7.59 8.024 7.238 20.683-.786 28.273s-20.682 7.239-28.273-.786l-68.086-71.98-63.813 71.548c-3.952 4.431-9.431 6.689-14.934 6.689z" fill="#bb5d4c"/></g><path d="m419.981 344.998h-327.962l20-80.577h287.962z" fill="#bb5d4c"/><path d="m112.019 264.421-20 80.577h23.308l20-80.577z" fill="#99473a"/><path d="m116.762 344.998h278.476v121.133h-278.476z" fill="#fed2a4"/><path d="m116.762 344.998h23.309v121.133h-23.309z" fill="#f2af7c"/><path d="m190.606 384.631h130.789v81.5h-130.789z" fill="#494a47"/><g fill="#68c0e0"><path d="m76.991 166.649h61.761v61.761h-61.761z"/><path d="m372.918 166.649h61.761v61.761h-61.761z"/><path d="m205.262 186.657h101.477v52.844h-101.477z"/></g><g><path d="m502.638 136.21-83.049-87.799c-4.822-5.096-11.587-7.963-18.528-7.817-6.979.103-13.646 3.148-18.291 8.357l-7.793 8.737h-242.21l-8.776-9.277c-4.822-5.096-11.593-7.963-18.528-7.817-6.979.103-13.646 3.148-18.291 8.357l-78.305 87.799c-4.445 4.984-6.683 11.4-6.302 18.067s3.335 12.786 8.319 17.231c4.587 4.091 10.495 6.343 16.634 6.343 4.841 0 9.532-1.411 13.53-3.98v292c0 2.761 2.239 5 5 5h419.244c2.761 0 5-2.239 5-5v-292.436c9.507 6.554 22.647 5.824 31.364-2.423 4.851-4.589 7.625-10.792 7.811-17.467s-2.24-13.023-6.829-17.875zm-136.58-68.521-61.594 69.061c-.438.491-.847.999-1.242 1.516h-94.438c-.542-.71-1.12-1.397-1.742-2.055l-64.815-68.521h223.831zm24.18 393.441h-63.843v-76.5c0-2.761-2.239-5-5-5h-130.79c-2.761 0-5 2.239-5 5v76.5h-63.843v-111.132h268.476zm-291.827-121.132 17.518-70.577h280.142l17.518 70.577zm238.234-80.577h-161.95v-85.446c9.507 6.554 22.647 5.824 31.364-2.423 4.851-4.589 7.625-10.792 7.811-17.467.055-1.979-.125-3.928-.517-5.819h85.295c-.442 2.127-.613 4.324-.486 6.551.381 6.667 3.335 12.786 8.319 17.231 4.587 4.091 10.495 6.343 16.634 6.343 4.841 0 9.533-1.411 13.53-3.981zm-309.127-91.031c-3.682 0-7.226-1.351-9.978-3.806-2.99-2.667-4.763-6.338-4.991-10.338-.229-4 1.114-7.85 3.781-10.84l78.306-87.798c2.788-3.125 6.788-4.953 10.994-5.015.09-.001.179-.002.269-.002 4.064 0 7.999 1.702 10.829 4.694l83.049 87.798c2.753 2.911 4.208 6.719 4.097 10.725-.111 4.005-1.776 7.727-4.687 10.48-6.009 5.683-15.521 5.417-21.205-.59l-68.086-71.98c-.961-1.017-2.292-1.572-3.706-1.563-1.399.021-2.727.627-3.658 1.671l-63.813 71.548c-2.844 3.188-6.926 5.016-11.201 5.016zm23.53-3.816 55.324-62.03 58.323 61.659v95.218h-52.676c-2.297 0-4.299 1.565-4.853 3.795l-20 80.577c-.371 1.493-.034 3.073.914 4.285.948 1.211 2.4 1.919 3.938 1.919h19.744v111.413h-60.714zm144.557 296.556v-71.5h120.789v71.5zm204.633.28v-111.412h19.744c1.538 0 2.991-.708 3.938-1.919.948-1.212 1.285-2.792.914-4.285l-20-80.577c-.553-2.23-2.555-3.795-4.853-3.795h-53.336v-94.847l55.324-62.029 58.323 61.659v297.205zm94.546-297.122c-6.009 5.683-15.521 5.417-21.205-.59l-68.086-71.98c-.961-1.017-2.307-1.572-3.706-1.563-1.399.021-2.727.627-3.658 1.671l-63.813 71.548c-2.843 3.188-6.926 5.016-11.201 5.016-3.682 0-7.225-1.351-9.977-3.806-2.99-2.667-4.763-6.338-4.991-10.338-.229-4 1.114-7.85 3.781-10.84l78.306-87.798c2.788-3.125 6.788-4.953 10.994-5.015.09-.001.179-.002.269-.002 4.064 0 7.999 1.702 10.829 4.694l83.049 87.798c2.753 2.911 4.208 6.719 4.097 10.725-.113 4.004-1.778 7.726-4.688 10.48z"/><path d="m143.752 228.411v-61.761c0-2.761-2.239-5-5-5h-61.761c-2.761 0-5 2.239-5 5v61.761c0 2.761 2.239 5 5 5h61.761c2.761 0 5-2.239 5-5zm-10-5h-51.761v-51.761h51.761z"/><path d="m434.679 161.649h-61.761c-2.761 0-5 2.239-5 5v61.761c0 2.761 2.239 5 5 5h61.761c2.761 0 5-2.239 5-5v-61.761c0-2.761-2.239-5-5-5zm-5 61.762h-51.761v-51.761h51.761z"/><path d="m306.738 181.657h-101.476c-2.761 0-5 2.239-5 5v52.843c0 2.761 2.239 5 5 5h101.477c2.761 0 5-2.239 5-5v-52.844c-.001-2.76-2.239-4.999-5.001-4.999zm-5 52.843h-91.477v-42.844h91.477z"/></g></g></g></svg>