<svg enable-background="new 0 0 512 512" height="512" viewBox="0 0 512 512" width="512" xmlns="http://www.w3.org/2000/svg"><g id="Layer_2"><g><path d="m504.476 425.014h-496.952v-89.564c0-137.23 111.246-248.476 248.476-248.476 137.229 0 248.476 111.246 248.476 248.476z" fill="#68c0e0"/><path d="m267.654 87.254c-3.863-.178-7.747-.28-11.654-.28-137.23 0-248.476 111.246-248.476 248.476v89.564h23.309v-89.564c-.001-133.322 105.004-242.108 236.821-248.196z" fill="#3282a1"/><path d="m138.4 425.014v-121.215c0-64.845 52.755-117.6 117.6-117.6 64.846 0 117.601 52.755 117.601 117.6v121.215z" fill="#cdcdc6"/><path d="m343.6 425.014h-175.2v-121.215c0-48.38 39.22-87.6 87.6-87.6 48.38 0 87.6 39.22 87.6 87.6z" fill="#3282a1"/><path d="m435.234 156.215c-47.875-47.875-111.528-74.241-179.234-74.241s-131.36 26.366-179.235 74.241-74.241 111.529-74.241 179.235v89.564c0 2.761 2.239 5 5 5h496.952c2.761 0 5-2.239 5-5v-89.564c0-67.706-26.366-131.36-74.242-179.235zm-56.633 207.469v-46.342h120.216c.438 5.996.66 12.035.66 18.108v28.234zm120.875 10v46.33h-69.45v-46.33zm-243.476-162.485c-51.06 0-92.601 41.54-92.601 92.6v116.215h-20v-116.215c0-62.087 50.512-112.6 112.6-112.6s112.601 50.512 112.601 112.6v116.215h-20v-116.215c0-51.06-41.54-92.6-92.6-92.6zm82.6 92.6v116.215h-165.201v-116.215c0-45.546 37.055-82.6 82.601-82.6s82.6 37.054 82.6 82.6zm-326.076 59.885v-28.234c0-6.073.222-12.112.66-18.108h120.216v46.342zm120.876 10v46.33h-41.426v-46.33zm-51.426 0v46.33h-69.45v-46.33zm-67.839-66.342c1.81-15.849 5.148-31.353 9.942-46.342h57.897v46.342zm77.839 0v-46.342h49.139c-4.982 13.331-7.714 27.751-7.714 42.799v3.543zm-64.455-56.342c5.975-16.193 13.678-31.718 23.028-46.342h133.419c-16.408 11.955-29.751 27.873-38.601 46.342zm29.779-56.342c7.374-10.36 15.616-20.208 24.676-29.464v29.464zm137.36-46.342v46.342h-102.684v-39.138c2.705-2.471 5.46-4.869 8.256-7.204zm-81.616-10c8.12-5.915 16.558-11.293 25.274-16.119v16.119zm194.3 10v44.167c-15.627-7.236-33.019-11.284-51.342-11.284s-35.715 4.047-51.342 11.284v-44.167zm-46.342-10v-46.281c36.185.724 71.063 9.305 102.684 24.925v21.356zm-10 0h-102.684v-21.356c31.621-15.62 66.498-24.201 102.684-24.925zm77.034 66.342h35.65v40.576c-8.749-16.023-20.974-29.883-35.65-40.576zm-10.692-10v-46.342h49.82c.483.155.988.261 1.522.261s1.039-.106 1.522-.261h41.564c2.796 2.335 5.551 4.733 8.256 7.204v39.138zm56.342-56.342v-16.119c8.716 4.826 17.154 10.205 25.274 16.119zm87.442 66.342c.105 0 .203-.024.307-.031 9.359 14.633 17.068 30.168 23.048 46.373h-59.397c-.02 0-.038-.006-.058-.006s-.038.006-.058.006h-51.284v-46.342zm-31.1-10v-29.464c9.06 9.256 17.302 19.104 24.676 29.464zm57.897 66.342c4.793 14.989 8.131 30.493 9.942 46.342h-67.839v-46.342zm-67.897 0v46.342h-41.425v-3.543c0-15.048-2.731-29.468-7.714-42.799zm-41.425 112.684h41.425v46.33h-41.425z"/></g></g></svg>