<svg enable-background="new 0 0 512 512" height="512" viewBox="0 0 512 512" width="512" xmlns="http://www.w3.org/2000/svg"><g id="Layer_2"><g><path d="m359.498 123.3c-8.832 0-17.479.794-25.875 2.309-8.396-1.515-17.042-2.309-25.874-2.309-8.832 0-17.479.794-25.874 2.309-8.396-1.515-17.042-2.309-25.874-2.309-8.832 0-17.479.794-25.874 2.309-8.396-1.515-17.042-2.309-25.874-2.309-79.937 0-144.738 64.802-144.738 144.738v120.662h444.723v-120.662c-.002-79.937-64.803-144.738-144.74-144.738z" fill="#989898"/><path d="m7.764 388.7h289.477v-120.662c0-79.937-64.802-144.738-144.738-144.738-79.937 0-144.738 64.802-144.738 144.738v120.662z" fill="#cdcdc6"/><path d="m164.157 123.768c-3.845-.306-7.731-.468-11.654-.468-79.937 0-144.738 64.802-144.738 144.738v120.662h23.309v-120.662c-.002-76.013 58.596-138.335 133.083-144.27z" fill="#989898"/><path d="m57.545 388.7h189.914v-124.802c0-52.443-42.514-94.957-94.957-94.957-52.443 0-94.957 42.514-94.957 94.957z" fill="#cdcdc6"/><path d="m164.205 169.659c-3.835-.471-7.74-.718-11.702-.718-52.443 0-94.957 42.514-94.957 94.957v124.802h23.404v-124.802c0-48.481 36.333-88.472 83.255-94.239z" fill="#989898"/><path d="m184.57 388.7h-64.594v-42.646c0-17.837 14.46-32.297 32.297-32.297 17.837 0 32.297 14.46 32.297 32.297z" fill="#494a47"/><g><path d="m359.498 118.3c-8.673 0-17.374.75-25.875 2.23-17.003-2.96-34.744-2.96-51.749 0-17.002-2.961-34.746-2.961-51.748 0-8.501-1.48-17.202-2.23-25.875-2.23-8.807 0-17.431.784-25.824 2.252-8.424-1.476-17.085-2.252-25.925-2.252-82.566 0-149.738 67.172-149.738 149.738v120.662c0 2.762 2.238 5 5 5h496.473c2.762 0 5-2.238 5-5v-120.662c-.001-82.566-67.173-149.738-149.739-149.738zm-234.522 265.4v-37.646c0-15.052 12.246-27.297 27.298-27.297s27.297 12.245 27.297 27.297v37.646zm64.594 0v-37.646c0-20.565-16.731-37.297-37.298-37.297-20.565 0-37.297 16.731-37.297 37.297v37.646h-52.43v-119.803c0-49.603 40.354-89.957 89.957-89.957s89.957 40.354 89.957 89.957v119.803zm62.889 0v-119.803c0-55.116-44.841-99.957-99.957-99.957s-99.957 44.841-99.957 99.957v119.803h-39.781v-115.662c0-77.052 62.687-139.738 139.739-139.738s139.738 62.687 139.738 139.738v115.662zm91.53 0h-41.748v-115.662c0-63.584-39.841-118.031-95.867-139.708 4.592.069 9.185.351 13.741.865 69.61 7.901 123.874 67.154 123.874 138.843zm51.749 0h-41.749v-115.662c0-63.584-39.84-118.028-95.865-139.705 6.985-.506 17.939 1.404 18.744 1.525.182.027.365.053.547.081 66.922 10.336 118.323 68.327 118.323 138.098zm51.749 0h-41.749v-115.662c0-63.58-39.835-118.024-95.855-139.705 7.508.112 15.001.814 22.343 2.109.069.013.136.027.205.04 65.321 11.689 115.055 68.924 115.055 137.556v115.662zm51.749 0h-41.749v-115.662c0-63.591-39.849-118.041-95.885-139.711 76.084 1.13 137.634 63.363 137.634 139.711z"/></g></g></g></svg>