<svg enable-background="new 0 0 512 512" height="512" viewBox="0 0 512 512" width="512" xmlns="http://www.w3.org/2000/svg"><g id="Layer_2"><g><g><path d="m7.524 256h496.952v248.476h-496.952z" fill="#cdcdc6"/><path d="m7.524 256h23.309v248.476h-23.309z" fill="#989898"/><path d="m7.524 218.289h496.952v37.711h-496.952z" fill="#494a47"/><path d="m7.524 218.289h23.309v37.711h-23.309z" fill="#333331"/><path d="m98.15 45.235h315.699v459.242h-315.699z" fill="#cdcdc6"/><path d="m98.15 45.235h23.309v459.242h-23.309z" fill="#989898"/><path d="m82.15 7.524h347.699v37.711h-347.699z" fill="#494a47"/><path d="m82.15 7.524h23.309v37.711h-23.309z" fill="#333331"/><path d="m256 182.819h-73.321v-97.101h58.321c8.284 0 15 6.716 15 15z" fill="#fed2a4"/><path d="m329.321 182.819h-73.321v-82.101c0-8.284 6.716-15 15-15h58.321z" fill="#fed2a4"/><path d="m139.097 211.178h233.805v76.483h-233.805z" fill="#68c0e0"/><path d="m139.097 211.178h23.309v76.483h-23.309z" fill="#3282a1"/><path d="m187.042 353.924h137.915v150.553h-137.915z" fill="#bb5d4c"/><path d="m8.02 325.167h90.13v66.715h-90.13z" fill="#68c0e0"/><path d="m8.02 325.167h22.812v66.715h-22.812z" fill="#3282a1"/><path d="m413.85 325.167h90.13v66.715h-90.13z" fill="#68c0e0"/></g><g><path d="m504.476 213.289h-85.626v-163.054h11c2.762 0 5-2.239 5-5v-37.711c0-2.761-2.238-5-5-5h-347.7c-2.762 0-5 2.239-5 5v37.711c0 2.761 2.238 5 5 5h11v163.054h-85.626c-2.762 0-5 2.239-5 5v286.187c0 2.761 2.238 5 5 5h496.951c2.762 0 5-2.239 5-5v-286.187c.001-2.761-2.238-5-4.999-5zm-411.326 286.187h-80.626v-102.594h80.626zm0-112.594h-80.13v-56.716h80.13zm0-66.715h-80.626v-59.167h80.626zm0-69.167h-80.626v-27.711h80.626zm-6-210.765v-27.711h337.7v27.711zm331.7 289.932h80.13v56.716h-80.13zm-167.85 169.309h-58.958v-140.552h58.958zm68.958 0h-58.958v-140.552h58.958zm88.892 0h-78.892v-145.552c0-2.761-2.238-5-5-5h-137.916c-2.762 0-5 2.239-5 5v145.552h-78.892v-449.241h305.7zm90.626 0h-80.626v-102.594h80.626zm0-179.309h-80.626v-59.167h80.626zm0-69.167h-80.626v-27.711h80.626z"/><path d="m182.679 187.819h146.643c2.762 0 5-2.239 5-5v-97.101c0-2.761-2.238-5-5-5h-58.322c-5.975 0-11.332 2.648-15 6.815-3.668-4.168-9.025-6.815-15-6.815h-58.321c-2.762 0-5 2.239-5 5v97.101c0 2.761 2.238 5 5 5zm78.321-87.101c0-5.514 4.486-10 10-10h53.321v65.287h-63.321zm0 65.287h63.321v11.814h-63.321zm-73.321-75.287h53.321c5.514 0 10 4.486 10 10v55.287h-63.321zm0 75.287h63.321v11.814h-63.321z"/><path d="m237.175 100.644h-35.67c-2.762 0-5 2.239-5 5s2.238 5 5 5h35.67c2.762 0 5-2.239 5-5s-2.238-5-5-5z"/><path d="m237.175 119.69h-35.67c-2.762 0-5 2.239-5 5s2.238 5 5 5h35.67c2.762 0 5-2.239 5-5s-2.238-5-5-5z"/><path d="m237.175 136.534h-35.67c-2.762 0-5 2.239-5 5s2.238 5 5 5h35.67c2.762 0 5-2.239 5-5s-2.238-5-5-5z"/><path d="m310.495 100.644h-35.67c-2.762 0-5 2.239-5 5s2.238 5 5 5h35.67c2.762 0 5-2.239 5-5s-2.238-5-5-5z"/><path d="m310.495 119.69h-35.67c-2.762 0-5 2.239-5 5s2.238 5 5 5h35.67c2.762 0 5-2.239 5-5s-2.238-5-5-5z"/><path d="m310.495 136.534h-35.67c-2.762 0-5 2.239-5 5s2.238 5 5 5h35.67c2.762 0 5-2.239 5-5s-2.238-5-5-5z"/><path d="m139.098 292.661h233.805c2.762 0 5-2.239 5-5v-76.483c0-2.761-2.238-5-5-5h-233.805c-2.762 0-5 2.239-5 5v76.483c0 2.762 2.238 5 5 5zm5-76.483h223.805v66.483h-223.805z"/></g></g></g></svg>