<svg enable-background="new 0 0 512 512" height="512" viewBox="0 0 512 512" width="512" xmlns="http://www.w3.org/2000/svg"><g id="Layer_2"><g><g><path d="m326.348 466.765h-140.696l30-329.843h80.696z" fill="#e15f4f"/><path d="m215.651 136.922-30 329.843h23.335l30-329.843z" fill="#ca4336"/><path d="m165.475 466.765h181.049v37.711h-181.049z" fill="#494a47"/><path d="m165.475 466.765h23.424v37.711h-23.424z" fill="#333331"/><path d="m195.56 106.953h120.88v29.969h-120.88z" fill="#e15f4f"/><path d="m195.56 106.953h23.309v29.969h-23.309z" fill="#ca4336"/><path d="m195.56 67.963c0-33.38 27.06-60.44 60.44-60.44 33.38 0 60.44 27.06 60.44 60.44z" fill="#e15f4f"/><path d="m267.654 8.657c-3.772-.737-7.666-1.134-11.654-1.134-33.38 0-60.44 27.06-60.44 60.44h23.309c-.001-29.392 20.983-53.873 48.785-59.306z" fill="#ca4336"/><path d="m200.694 67.963h110.611v38.989h-110.611z" fill="#f8d250"/><path d="m200.694 67.963h23.309v38.989h-23.309z" fill="#f8ae46"/><path d="m301.278 191.124-4.929-54.202h-80.698l-4.929 54.202z" fill="#cdcdc6"/><path d="m200.694 301.372h110.612l-5.014-55.124h-100.584z" fill="#cdcdc6"/><path d="m234.057 191.124 4.929-54.202h-23.335l-4.929 54.202z" fill="#989898"/><path d="m190.667 411.62h130.666l-5.014-55.124h-120.638z" fill="#cdcdc6"/><g fill="#989898"><path d="m229.043 246.248h-23.335l-2.301 25.294-2.713 29.83h23.335z"/><path d="m219.016 356.496h-23.335l-5.014 55.124h23.335z"/></g></g><g><path d="m346.524 461.765h-15.61l-29.091-319.843h14.616c2.762 0 5-2.239 5-5v-29.97c0-2.761-2.238-5-5-5h-.135v-28.989h.135 19.321c2.762 0 5-2.239 5-5s-2.238-5-5-5h-14.53c-2.565-33.754-30.83-60.44-65.23-60.44s-62.665 26.686-65.23 60.44h-14.531c-2.761 0-5 2.239-5 5s2.239 5 5 5h19.321.135v28.989h-.135c-2.761 0-5 2.239-5 5v29.97c0 2.761 2.239 5 5 5h14.616l-29.091 319.843h-15.61c-2.761 0-5 2.239-5 5v37.711c0 2.761 2.239 5 5 5h181.049c2.762 0 5-2.239 5-5v-37.711c0-2.761-2.238-5-5-5zm-90.524-449.242c28.885 0 52.682 22.204 55.217 50.44h-110.434c2.535-28.236 26.332-50.44 55.217-50.44zm50.306 60.44v28.989h-25.811v-28.989zm-35.811 0v28.989h-28.99v-28.989zm-38.99 0v28.989h-25.811v-28.989zm-30.945 58.959v-19.97h.135 110.611.135v19.97zm96.153 64.202 4.104 45.124h-89.634l4.104-45.124zm-80.516-10 4.02-44.202h71.566l4.02 44.202zm-5.923 65.124h91.453l4.104 45.124h-99.661zm-5.014 55.124h101.48l4.104 45.125h-109.688zm-5.013 55.125h111.507l4.104 45.124h-119.716zm-5.014 55.124h121.534l4.106 45.145h-129.746zm146.291 82.855h-171.048v-27.711h171.049v27.711z"/></g></g></g></svg>