<svg enable-background="new 0 0 512 512" height="512" viewBox="0 0 512 512" width="512" xmlns="http://www.w3.org/2000/svg"><g id="Layer_2"><g><path d="m339.534 45.235-332.836 210.765v-37.711l332.836-210.765z" fill="#494a47"/><path d="m30.065 218.289 309.469-195.968v-14.797l-332.836 210.765v37.711l23.367-14.797z" fill="#333331"/><path d="m325.44 344.499h-301.345v-99.506l301.345-190.833z" fill="#68c0e0"/><path d="m325.44 68.92v-14.76l-301.345 190.833v99.506h23.308v-99.506z" fill="#3282a1"/><path d="m492.411 504.476h-195.502v-363.254h195.502v36.642h-10v64.976h10v32.015h-10v64.975h10z" fill="#cdcdc6"/><path d="m296.909 141.222h23.309v363.254h-23.309z" fill="#989898"/><path d="m284.018 103.511h221.284v37.711h-221.284z" fill="#494a47"/><path d="m284.018 103.511h23.309v37.711h-23.309z" fill="#333331"/><path d="m8.35 344.499h288.559v29.749h-288.559z" fill="#cdcdc6"/><path d="m8.35 344.499h23.309v29.749h-23.309z" fill="#989898"/><path d="m8.35 474.727h288.559v29.749h-288.559z" fill="#cdcdc6"/><path d="m8.35 474.727h23.309v29.749h-23.309z" fill="#989898"/><path d="m17.516 374.248h279.392v100.479h-279.392z" fill="#494a47"/><path d="m17.516 374.248h23.309v100.479h-23.309z" fill="#333331"/><path d="m333.167 177.864h149.244v64.976h-149.244z" fill="#68c0e0"/><path d="m333.167 274.855h149.244v64.976h-149.244z" fill="#68c0e0"/><path d="m352.246 368.763h84.827v135.713h-84.827z" fill="#fed2a4"/><g><path d="m505.302 98.511h-174.862v-41.6l11.769-7.452c1.448-.917 2.325-2.511 2.325-4.224v-37.711c0-1.823-.992-3.501-2.589-4.38-1.596-.878-3.546-.819-5.086.156l-332.836 210.765c-1.448.917-2.325 2.511-2.325 4.224v37.711c0 1.823.992 3.501 2.589 4.38.753.414 1.582.62 2.411.62.931 0 1.86-.26 2.675-.776l9.722-6.156v85.431h-10.745c-2.761 0-5 2.239-5 5v29.749c0 2.761 2.239 5 5 5h4.167v90.479h-4.167c-2.761 0-5 2.239-5 5v29.749c0 2.761 2.239 5 5 5h484.062c2.762 0 5-2.239 5-5v-164.646c0-2.761-2.238-5-5-5h-5v-54.976h5c2.762 0 5-2.239 5-5v-32.014c0-2.761-2.238-5-5-5h-5v-54.976h5c2.762 0 5-2.239 5-5v-31.642h7.891c2.762 0 5-2.239 5-5v-37.711c-.001-2.761-2.24-5-5.001-5zm-493.604 148.405v-25.875l322.836-204.433v25.875zm68.022 35.691v56.892h-20.312v-56.892zm30.313 0v56.892h-20.313v-56.892zm30.312 0v56.892h-20.313v-56.892zm30.313 0v56.892h-20.313v-56.892zm30.313 0v56.892h-20.313v-56.892zm30.312 0v56.892h-20.313v-56.892zm30.313 0v56.892h-20.313v-56.892zm-212.188 56.892h-20.313v-56.892h20.313zm242.5 159.977h-278.558v-19.749h278.559v19.749zm0-29.749h-269.392v-90.479h269.392zm0-100.479h-278.558v-19.749h278.559v19.749zm0-29.749h-20.313v-56.892h20.313zm0-66.892h-262.813v-24.863l291.346-184.5v35.267h-36.423c-2.762 0-5 2.239-5 5v37.711c0 2.761 2.238 5 5 5h7.891v126.385zm140.165 226.869h-74.827v-125.713h74.827zm55.338-326.612h-154.244c-2.762 0-5 2.239-5 5v64.976c0 2.761 2.238 5 5 5h154.244v22.015h-154.244c-2.762 0-5 2.239-5 5v64.976c0 2.761 2.238 5 5 5h154.244v154.646h-45.338v-130.714c0-2.761-2.238-5-5-5h-84.827c-2.762 0-5 2.239-5 5v130.713h-45.338v-353.254h185.503zm-10 10v54.976h-139.244v-54.976zm0 96.99v54.976h-139.244v-54.976zm22.891-143.632h-211.284v-27.711h211.284z"/></g></g></g></svg>