<svg enable-background="new 0 0 512 512" height="512" viewBox="0 0 512 512" width="512" xmlns="http://www.w3.org/2000/svg"><g id="Layer_2"><g><path d="m84.575 107.616c0 21.068-17.079 38.147-38.147 38.147s-38.146-17.079-38.146-38.147c0-9.262 7.373-23.744 15.635-37.067 10.364-16.71 34.659-16.71 45.023 0 8.263 13.323 15.635 27.805 15.635 37.067z" fill="#494a47"/><path d="m31.59 107.616c0-9.262 7.373-23.744 15.635-37.067 2.789-4.498 6.593-7.773 10.857-9.849-11.58-5.639-26.591-2.363-34.166 9.849-8.262 13.323-15.634 27.805-15.634 37.067 0 21.068 17.079 38.147 38.147 38.147 4.066 0 7.98-.642 11.654-1.82-15.366-4.927-26.493-19.325-26.493-36.327z" fill="#333331"/><circle cx="256.035" cy="235.354" fill="#494a47" r="110.772"/><path d="m168.572 235.354c0-57.241 43.418-104.338 99.118-110.162-3.83-.401-7.718-.609-11.654-.609-61.178 0-110.772 49.594-110.772 110.772s49.594 110.772 110.772 110.772c3.936 0 7.824-.209 11.654-.609-55.699-5.826-99.118-52.922-99.118-110.164z" fill="#333331"/><path d="m503.718 107.616c0 21.068-17.079 38.147-38.147 38.147s-38.147-17.079-38.147-38.147c0-9.262 7.372-23.744 15.635-37.067 10.364-16.71 34.659-16.71 45.023 0 8.264 13.323 15.636 27.805 15.636 37.067z" fill="#494a47"/><path d="m73.555 345.922h364.961v137.29h-364.961z" fill="#fed2a4"/><path d="m73.555 345.922h23.468v137.29h-23.468z" fill="#f2af7c"/><path d="m110.829 271.128h290.412v74.793h-290.412z" fill="#fed2a4"/><path d="m110.829 271.128h23.309v74.793h-23.309z" fill="#f2af7c"/><path d="m19.373 173.754h54.111v309.458h-54.111z" fill="#fed2a4"/><path d="m19.373 173.754h23.309v309.458h-23.309z" fill="#f2af7c"/><path d="m7.559 126.189h77.738v47.564h-77.738z" fill="#fed2a4"/><path d="m7.559 126.189h23.468v47.564h-23.468z" fill="#f2af7c"/><path d="m438.516 173.754h54.111v309.458h-54.111z" fill="#fed2a4"/><path d="m426.702 126.189h77.738v47.564h-77.738z" fill="#fed2a4"/><g fill="#6d3326"><path d="m302.935 483.212h-93.798v-36.018c0-25.902 20.997-46.899 46.899-46.899 25.902 0 46.899 20.997 46.899 46.899z"/><path d="m417.624 483.212h-93.798v-36.018c0-25.902 20.997-46.899 46.899-46.899 25.902 0 46.899 20.997 46.899 46.899z"/><path d="m188.209 483.212h-93.798v-36.018c0-25.902 20.997-46.899 46.899-46.899 25.902 0 46.899 20.997 46.899 46.899z"/></g><g><path d="m506.383 121.581c1.505-4.384 2.335-9.078 2.335-13.966 0-8.938-5.36-21.924-16.387-39.702-5.785-9.328-15.789-14.897-26.76-14.897s-20.975 5.569-26.76 14.897c-11.026 17.778-16.386 30.765-16.386 39.702 0 4.887.83 9.582 2.335 13.966-1.796.758-3.058 2.536-3.058 4.608v47.564c0 2.761 2.239 5 5 5h6.814v162.168h-27.274v-69.793c0-2.761-2.239-5-5-5h-33.609c2.708-9.805 4.174-20.119 4.174-30.774 0-62.161-49.246-113.029-110.772-115.657v-42.123c12.577-2.354 22.127-13.408 22.127-26.658 0-2.761-2.239-5-5-5s-5 2.239-5 5c0 9.444-7.683 17.127-17.127 17.127s-17.127-7.683-17.127-17.127 7.683-17.127 17.127-17.127c2.761 0 5-2.239 5-5s-2.239-5-5-5c-14.958 0-27.127 12.169-27.127 27.127 0 13.25 9.551 24.304 22.127 26.658v42.124c-61.526 2.628-110.772 53.496-110.772 115.657 0 10.655 1.466 20.969 4.174 30.774h-33.607c-2.761 0-5 2.239-5 5v69.793h-27.346v-162.169h6.814c2.761 0 5-2.239 5-5v-47.564c0-2.071-1.259-3.848-3.053-4.607 1.505-4.384 2.331-9.08 2.331-13.967 0-8.937-5.36-21.924-16.386-39.702-5.785-9.328-15.789-14.897-26.76-14.897s-20.975 5.569-26.76 14.897c-11.028 17.778-16.388 30.765-16.388 39.703 0 4.887.826 9.583 2.331 13.967-1.794.759-3.053 2.536-3.053 4.606v47.564c0 2.761 2.239 5 5 5h6.813v304.458c0 2.761 2.239 5 5 5h473.254c2.761 0 5-2.239 5-5v-304.458h6.813c2.761 0 5-2.239 5-5v-47.564c0-2.072-1.26-3.849-3.057-4.608zm-59.074-48.397c3.949-6.367 10.776-10.168 18.262-10.168s14.313 3.801 18.262 10.168c12.951 20.881 14.885 30.535 14.885 34.432 0 4.837-1.058 9.427-2.93 13.574h-60.433c-1.872-4.147-2.93-8.736-2.93-13.574 0-3.896 1.933-13.55 14.884-34.432zm-105.603 267.737v-21.499h22.268v21.499zm-32.269 0v-21.499h22.268v21.499zm-32.268 0v-21.499h22.268v21.499zm-32.268 0v-21.499h22.268v21.499zm-32.268 0v-21.499h22.268v21.499zm-32.268 0v-21.499h22.268v21.499zm-32.267 0v-21.499h22.268v21.499zm225.876-21.498h22.268v21.499h-22.268zm-223.71-84.069c0-58.323 47.449-105.772 105.772-105.772s105.772 47.449 105.772 105.772c0 10.702-1.615 21.03-4.585 30.774h-202.375c-2.969-9.743-4.584-20.071-4.584-30.774zm245.978 40.774v33.294h-280.412v-33.294zm-280.412 43.295h22.268v21.499h-22.268zm-87.663-246.239c3.949-6.367 10.776-10.168 18.262-10.168s14.313 3.801 18.262 10.168c12.951 20.882 14.884 30.536 14.884 34.432 0 4.839-1.064 9.426-2.937 13.574h-60.42c-1.873-4.147-2.937-8.735-2.937-13.574.001-3.897 1.934-13.551 14.886-34.432zm-15.607 58.005h67.738v37.564h-67.738zm55.924 347.022h-44.111v-299.458h44.111zm10.071-127.29h354.961v127.29h-10.892v-31.018c0-28.617-23.282-51.899-51.899-51.899s-51.899 23.282-51.899 51.899v31.018h-10.892v-31.018c0-28.617-23.282-51.899-51.899-51.899s-51.899 23.282-51.899 51.899v31.018h-10.927v-31.018c0-28.617-23.282-51.899-51.899-51.899s-51.899 23.282-51.899 51.899v31.018h-10.856zm20.856 127.29v-31.018c0-23.104 18.796-41.899 41.899-41.899s41.899 18.796 41.899 41.899v31.018zm114.726 0v-31.018c0-23.104 18.796-41.899 41.899-41.899s41.899 18.796 41.899 41.899v31.018zm114.689 0v-31.018c0-23.104 18.796-41.899 41.899-41.899s41.899 18.796 41.899 41.899v31.018zm158.801 0h-44.111v-299.458h44.111zm11.813-309.458h-67.738v-37.564h67.738z"/></g></g></g></svg>