<svg enable-background="new 0 0 512 512" height="512" viewBox="0 0 512 512" width="512" xmlns="http://www.w3.org/2000/svg"><g id="Layer_2"><g><g><path d="m64.545 301.773h382.911v202.703h-382.911z" fill="#cdcdc6"/><path d="m41.152 316.58h46.845v156.362h-46.845z" fill="#494a47"/><path d="m41.152 316.58h23.309v156.362h-23.309z" fill="#333331"/><path d="m21.318 471.556h86.513v32.921h-86.513z" fill="#494a47"/><path d="m21.318 471.556h23.324v32.921h-23.324z" fill="#333331"/><g fill="#494a47"><path d="m424.062 291.479h46.845v180.528h-46.845z"/><path d="m404.228 471.103h86.513v32.921h-86.513z"/><path d="m7.524 266.557h496.952v37.711h-496.952z"/></g><path d="m7.524 266.557h23.309v37.711h-23.309z" fill="#333331"/><path d="m7.524 112.576h496.952v37.711h-496.952z" fill="#494a47"/><path d="m7.524 112.576h23.309v37.711h-23.309z" fill="#333331"/><path d="m504.476 112.576h-496.952l248.476-105.053z" fill="#494a47"/><path d="m52.069 150.286h407.862v116.271h-407.862z" fill="#cdcdc6"/><path d="m52.069 150.286h23.309v116.271h-23.309z" fill="#989898"/><path d="m359.185 504.476h-206.37v-75.584c0-33.357 27.042-60.399 60.399-60.399h85.572c33.357 0 60.399 27.042 60.399 60.399z" fill="#68c0e0"/><path d="m404.228 319.755v8.234c0 9.852 8.063 18.22 17.913 18.035 9.553-.179 17.242-7.979 17.242-17.574h16.203c0 9.596 7.689 17.395 17.242 17.574 9.851.185 17.913-8.183 17.913-18.035v-8.234c0-8.553-6.934-15.487-15.487-15.487h-55.539c-8.553 0-15.487 6.934-15.487 15.487z" fill="#494a47"/><g><path d="m21.318 319.736v8.234c0 9.852 8.063 18.22 17.913 18.035 9.553-.179 17.242-7.979 17.242-17.574h16.203c0 9.596 7.689 17.395 17.242 17.574 9.851.185 17.913-8.183 17.913-18.035v-8.234c0-8.553-6.934-15.487-15.487-15.487h-55.54c-8.553.001-15.486 6.934-15.486 15.487z" fill="#494a47"/><g><path d="m44.656 327.886v-8.234c0-8.008 6.079-14.595 13.874-15.402h-21.726c-8.553 0-15.487 6.934-15.487 15.487v8.234c0 9.852 8.063 18.22 17.913 18.035 4.429-.083 8.444-1.818 11.491-4.596-3.707-3.341-6.065-8.209-6.065-13.524z" fill="#333331"/></g></g><path d="m230.365 184.776h51.27v47.178h-51.27z" fill="#68c0e0"/><path d="m331.724 184.776h51.27v47.178h-51.27z" fill="#68c0e0"/><path d="m128.306 184.776h51.27v47.178h-51.27z" fill="#68c0e0"/></g><g><path d="m281.635 179.777h-51.271c-2.761 0-5 2.239-5 5v47.178c0 2.761 2.239 5 5 5h51.271c2.761 0 5-2.239 5-5v-47.178c0-2.762-2.239-5-5-5zm-5 47.178h-41.271v-37.178h41.271z"/><path d="m382.995 179.777h-51.271c-2.761 0-5 2.239-5 5v47.178c0 2.761 2.239 5 5 5h51.271c2.761 0 5-2.239 5-5v-47.178c0-2.762-2.239-5-5-5zm-5 47.178h-41.271v-37.178h41.271z"/><path d="m179.576 179.777h-51.27c-2.761 0-5 2.239-5 5v47.178c0 2.761 2.239 5 5 5h51.27c2.761 0 5-2.239 5-5v-47.178c0-2.762-2.239-5-5-5zm-5 47.178h-41.27v-37.178h41.27z"/><path d="m504.476 155.286c2.761 0 5-2.239 5-5v-37.711c0-2.076-1.265-3.855-3.066-4.611l-248.463-105.046c-1.245-.526-2.649-.526-3.895 0l-248.462 105.047c-1.801.756-3.066 2.535-3.066 4.611v37.711c0 2.761 2.239 5 5 5h39.545v106.271h-39.545c-2.761 0-5 2.239-5 5v37.711c0 2.761 2.239 5 5 5h11.702c-1.835 3.068-2.909 6.641-2.909 10.469v8.234c0 6.177 2.546 12.218 6.987 16.576 3.578 3.512 8.052 5.691 12.847 6.291v115.718h-14.834c-2.761 0-5 2.239-5 5v32.921c0 2.761 2.239 5 5 5l469.424-.001c2.761 0 5-2.239 5-5v-32.921c0-2.761-2.239-5-5-5h-14.834v-115.723c4.792-.604 9.271-2.758 12.848-6.268 4.44-4.358 6.987-10.399 6.987-16.576v-8.234c0-3.835-1.079-7.414-2.92-10.487h11.655c2.761 0 5-2.239 5-5v-37.711c0-2.761-2.239-5-5-5h-39.545v-106.271zm-248.476-142.334 223.81 94.624h-447.62zm-225.691 324.458c-2.537-2.489-3.991-5.93-3.991-9.439v-8.234c0-5.661 4.511-10.276 10.125-10.469h56.262c5.614.193 10.125 4.808 10.125 10.469v8.234c0 3.509-1.455 6.95-3.991 9.439-2.425 2.38-5.562 3.652-8.829 3.597-6.774-.127-12.287-5.724-12.331-12.494.112-2.876 1.344-4.165 3.992-4.165 2.731 0 4.004 1.449 4.004 4.56 0 2.761 2.239 5 5 5s5-2.239 5-5c0-8.573-5.759-14.56-14.004-14.56-6.408 0-11.252 3.505-13.136 9.083h-7.923c-1.884-5.578-6.728-9.083-13.136-9.083-8.245 0-14.004 5.987-14.004 14.56 0 2.761 2.239 5 5 5s5-2.239 5-5c0-3.111 1.272-4.56 4.004-4.56 2.647 0 3.879 1.288 3.992 4.162-.043 6.771-5.556 12.37-12.331 12.497-3.267.051-6.403-1.217-8.828-3.597zm52.688 12.371v116.775h-36.846v-116.775c7.33-2.522 13.002-8.724 14.755-16.349h7.334c1.755 7.625 7.427 13.827 14.757 16.349zm19.834 149.696h-76.514v-22.921h76.513v22.921zm148.169-.001h-93.185v-70.584c0-30.547 24.852-55.399 55.399-55.399h37.786zm103.185 0h-93.185v-125.983h37.786c30.547 0 55.399 24.852 55.399 55.399zm45.043-27.921v27.921h-35.043v-70.584c0-36.061-29.338-65.399-65.399-65.399h-85.572c-36.061 0-65.399 29.338-65.399 65.399v70.584h-34.984v-27.92c0-2.761-2.239-5-5-5h-14.834v-115.741c4.792-.604 9.27-2.758 12.847-6.268 4.44-4.358 6.987-10.4 6.987-16.576v-8.234c0-3.827-1.074-7.4-2.909-10.469h292.226c-1.841 3.072-2.92 6.652-2.92 10.487v8.234c0 6.177 2.546 12.218 6.987 16.576 3.576 3.51 8.056 5.663 12.847 6.265v115.725h-14.834c-2.761 0-5 2.238-5 5zm86.513 5v22.921h-76.513v-22.921zm-56.679-10v-116.756c7.33-2.522 13.002-8.724 14.755-16.349h7.334c1.753 7.626 7.425 13.827 14.755 16.349v116.756zm56.679-138.566c0 3.509-1.455 6.949-3.991 9.439-2.426 2.381-5.573 3.651-8.829 3.597-6.774-.127-12.287-5.724-12.331-12.494.112-2.876 1.344-4.165 3.992-4.165 2.731 0 4.004 1.449 4.004 4.56 0 2.761 2.239 5 5 5s5-2.239 5-5c0-8.573-5.759-14.56-14.004-14.56-6.408 0-11.252 3.505-13.136 9.083h-7.923c-1.884-5.578-6.728-9.083-13.136-9.083-8.245 0-14.004 5.987-14.004 14.56 0 2.761 2.239 5 5 5s5-2.239 5-5c0-3.111 1.272-4.56 4.004-4.56 2.647 0 3.879 1.288 3.992 4.162-.043 6.771-5.556 12.37-12.331 12.497-3.271.054-6.403-1.216-8.829-3.597-2.537-2.489-3.991-5.93-3.991-9.439v-8.234c0-5.782 4.705-10.487 10.487-10.487h55.54c5.782 0 10.487 4.704 10.487 10.487v8.234zm13.735-56.432v27.711h-486.952v-27.711zm-442.407-10v-106.271h397.862v106.271zm-44.545-116.271v-27.711h486.952v27.711z"/></g></g></g></svg>