<svg enable-background="new 0 0 512 512" height="512" viewBox="0 0 512 512" width="512" xmlns="http://www.w3.org/2000/svg"><g id="Layer_2"><g><g><path d="m32.058 112.61h447.884v391.866h-447.884z" fill="#cdcdc6"/><path d="m32.058 112.61h23.333v391.866h-23.333z" fill="#989898"/><path d="m7.524 74.9h496.952v37.711h-496.952z" fill="#494a47"/><path d="m7.524 74.9h23.309v37.711h-23.309z" fill="#333331"/><path d="m117.722 45.234h276.556v459.241h-276.556z" fill="#cdcdc6"/><path d="m117.722 45.234h23.309v459.241h-23.309z" fill="#989898"/><path d="m98.099 7.524h315.801v37.711h-315.801z" fill="#494a47"/><path d="m98.099 7.524h23.309v37.711h-23.309z" fill="#333331"/><path d="m98.099 313.922h315.801v37.711h-315.801z" fill="#494a47"/><path d="m98.099 313.922h23.309v37.711h-23.309z" fill="#333331"/><path d="m202.496 379.644h107.009v124.832h-107.009z" fill="#68c0e0"/><path d="m117.722 102.183h276.556v48.311h-276.556z" fill="#68c0e0"/><path d="m117.722 102.183h23.309v48.311h-23.309z" fill="#3282a1"/><path d="m117.722 207.689h276.556v48.311h-276.556z" fill="#68c0e0"/><path d="m117.722 207.689h23.309v48.311h-23.309z" fill="#3282a1"/><path d="m32.058 146.695h46.666v308.173h-46.666z" fill="#68c0e0"/><path d="m32.058 146.695h23.309v308.173h-23.309z" fill="#3282a1"/><path d="m433.276 146.695h46.666v308.173h-46.666z" fill="#68c0e0"/></g><path d="m504.476 69.9h-105.198v-19.666h14.622c2.762 0 5-2.239 5-5v-37.71c0-2.761-2.238-5-5-5h-315.8c-2.761 0-5 2.239-5 5v37.711c0 2.761 2.239 5 5 5h14.622v19.665h-105.198c-2.761 0-5 2.239-5 5v37.711c0 2.761 2.239 5 5 5h19.534v337.258 49.608c0 2.761 2.239 5 5 5h447.883c2.762 0 5-2.239 5-5v-49.608-337.259h19.534c2.762 0 5-2.239 5-5v-37.71c.001-2.762-2.238-5-4.999-5zm-401.376-29.666v-27.71h305.8v27.711h-14.622-276.556-14.622zm286.178 220.766v47.923h-266.556v-47.923zm-266.556-10v-38.311h36.093v38.311zm46.092 0v-38.311h36.093v38.311zm46.093 0v-38.311h36.093v38.311zm46.093 0v-38.311h36.093v38.311zm46.093 0v-38.311h36.093v38.311zm46.093 0v-38.311h36.093v38.311zm-230.464-48.311v-47.195h266.557v47.195zm0-57.195v-38.311h36.093v38.311zm46.092 0v-38.311h36.093v38.311zm46.093 0v-38.311h36.093v38.311zm46.093 0v-38.311h36.093v38.311zm46.093 0v-38.311h36.093v38.311zm46.093 0v-38.311h36.093v38.311zm-230.464-48.311v-46.949h266.557v46.948h-266.557zm286.178 221.739v27.711h-305.8v-27.711zm-396.376-211.312v-27.71h100.198v22.283 5.428h-100.198zm24.534 290.896v-41.362h36.666v41.362zm36.666 10v41.362h-36.666v-41.362zm-36.666-61.362v-41.362h36.666v41.362zm0-51.362v-41.362h36.666v41.362zm0-51.362v-41.362h36.666v41.362zm0-51.362v-41.362h36.666v41.362zm75.664 306.419h-75.664v-39.608h41.666c2.761 0 5-2.239 5-5v-308.173c0-2.761-2.239-5-5-5h-41.666v-24.086h75.664v32.883 57.195 48.312 52.923h-14.622c-2.761 0-5 2.239-5 5v37.711c0 2.761 2.239 5 5 5h14.622zm138.278-.001h-43.504v-114.832h43.504zm53.505 0h-43.505v-114.832h43.505zm84.773 0h-74.773v-119.832c0-2.761-2.238-5-5-5h-107.009c-2.761 0-5 2.239-5 5v119.831h-74.774v-142.842h266.557v142.843zm85.663-49.608h-36.665v-41.362h36.665zm0-51.362h-36.665v-41.362h36.665zm0-51.362h-36.665v-41.362h36.665zm0-51.362h-36.665v-41.362h36.665zm0-51.362h-36.665v-41.362h36.665zm0-51.362h-36.665v-41.362h36.665zm0-51.362h-41.665c-2.762 0-5 2.239-5 5v308.173c0 2.761 2.238 5 5 5h41.665v39.608h-75.663v-142.844h14.622c2.762 0 5-2.239 5-5v-37.711c0-2.761-2.238-5-5-5h-14.622v-52.922-48.311-57.195-32.884h75.663zm24.535-34.086h-100.198v-5.428-22.282h100.197v27.71z"/></g></g></svg>