<svg enable-background="new 0 0 512 512" height="512" viewBox="0 0 512 512" width="512" xmlns="http://www.w3.org/2000/svg"><g id="Layer_2"><g><path d="m76.238 302.805h405.333v37.711h-405.333z" fill="#494a47"/><path d="m76.238 302.805h23.309v37.711h-23.309z" fill="#333331"/><path d="m89.162 340.516h379.485v61.507h-379.485z" fill="#cdcdc6"/><path d="m89.162 340.516h23.309v61.507h-23.309z" fill="#989898"/><path d="m127.571 402.022h62.422v102.454h-62.422z" fill="#494a47"/><path d="m127.571 402.022h23.309v102.454h-23.309z" fill="#333331"/><path d="m367.817 402.022h62.422v102.454h-62.422z" fill="#494a47"/><path d="m367.817 402.022h23.309v102.454h-23.309z" fill="#333331"/><path d="m247.694 402.022h62.422v102.454h-62.422z" fill="#494a47"/><path d="m247.694 402.022h23.309v102.454h-23.309z" fill="#333331"/><path d="m91.482 199.012h170.667v103.792h-170.667z" fill="#e15f4f"/><path d="m91.482 199.012h23.309v103.792h-23.309z" fill="#ca4336"/><circle cx="57.511" cy="53.334" fill="#e15f4f" r="27.083"/><path d="m53.737 53.334c0-11.191 6.788-20.794 16.471-24.923-3.788-2.014-8.108-3.16-12.697-3.16-14.957 0-27.083 12.125-27.083 27.083s12.125 27.083 27.083 27.083c3.767 0 7.353-.771 10.612-2.16-8.557-4.552-14.386-13.555-14.386-23.923z" fill="#ca4336"/><path d="m117.366 224.544h118.899v36.991h-118.899z" fill="#68c0e0"/><path d="m430.238 302.805h-79.523l20.639-261.747h38.245z" fill="#cdcdc6"/><path d="m359.231 7.524h62.492v33.534h-62.492z" fill="#e15f4f"/><path d="m359.231 7.524h23.309v33.534h-23.309z" fill="#ca4336"/><g><path d="m481.571 297.805h-46.712l-19.851-251.747h6.714c2.762 0 5-2.238 5-5v-33.535c0-2.762-2.238-5-5-5h-62.492c-2.762 0-5 2.238-5 5v33.534c0 2.762 2.238 5 5 5h6.714l-19.851 251.747h-78.945v-98.792c0-2.762-2.238-5-5-5h-53.013l-121.773-128.946c1.434-3.637 2.231-7.592 2.231-11.732 0-17.69-14.393-32.083-32.083-32.083s-32.081 14.393-32.081 32.083c0 15.99 11.758 29.282 27.082 31.69v419.453c0 2.762 2.238 5 5 5s5-2.238 5-5v-416.667l74.523 106.203h-45.552c-2.762 0-5 2.238-5 5v98.792h-10.244c-2.762 0-5 2.238-5 5v37.711c0 2.762 2.238 5 5 5h7.924v56.507c0 2.762 2.238 5 5 5h33.409v97.454c0 2.762 2.238 5 5 5h62.422c2.762 0 5-2.238 5-5v-97.454h47.7v97.454c0 2.762 2.238 5 5 5h62.422c2.762 0 5-2.238 5-5v-97.454h47.701v97.454c0 2.762 2.238 5 5 5h62.422c2.762 0 5-2.238 5-5v-97.454h33.409c2.762 0 5-2.238 5-5v-56.507h7.924c2.762 0 5-2.238 5-5v-37.711c0-2.762-2.238-5-5-5zm-122.634-35.659 22.405 14.653-24.842 16.248zm3.517-44.606 18.888 12.354-20.942 13.696zm3.172-40.233 15.715 10.278-17.424 11.396zm2.863-36.297 12.854 8.407-14.251 9.321zm31.122 135.79 22.405-14.653 2.437 30.9zm13.847 21.005h-45.964l22.982-15.031zm-22.981-26.979-26.726-17.479 26.726-17.479 26.726 17.479zm9.134-40.932 18.888-12.354 2.054 26.05zm-9.134-5.975-23.21-15.18 23.21-15.18 23.21 15.18zm9.134-36.334 15.715-10.278 1.709 21.675zm-9.134-5.974-20.045-13.11 20.045-13.11 20.045 13.11zm9.134-32.194 12.854-8.407 1.398 17.728zm-9.134-5.975-17.114-11.193 17.114-11.193 17.114 11.193zm9.134-28.36 10.279-6.723 1.118 14.176zm-9.134-5.975-14.575-9.532 14.574-9.591 14.576 9.591zm9.094-25.108 7.984-5.254.874 11.083zm-9.096-5.984-12.55-8.258 12.55-8.939 12.549 8.939zm8.619-23.336 6.215-4.427.74 9.381zm-8.618-6.139-3.485-2.482h6.97zm-8.619 6.139-6.952 4.952.74-9.377zm-8.459 24.069 7.982 5.252-8.855 5.827zm-2.335 29.611 10.279 6.723-11.396 7.453zm-6.833-95.836h52.492v23.534h-52.492zm-258.741 119.125-29.06-41.414c5.992 1.666 14.175 3.745 25.405 6.375zm7.453-24.931 39.509 41.836-35.448-2.91zm44.857 52.308-12.284 29.664-22.838-32.546zm8.908 4.624 28.675 30.364h-41.249zm-75.468-79.914c-5.761-1.449-11.128-2.867-15.41-4.085 2.308-1.611 4.395-3.515 6.205-5.662zm-55.81-30.401c0-12.177 9.906-22.083 22.082-22.083 12.177 0 22.083 9.906 22.083 22.083 0 12.176-9.906 22.082-22.083 22.082-12.176 0-22.082-9.906-22.082-22.082zm61.053 150.679h160.666v93.792h-160.666zm88.511 295.464h-52.422v-92.454h52.422zm120.122 0h-52.422v-92.454h52.422zm120.123 0h-52.422v-92.454h52.422zm38.409-102.455h-369.485v-51.507h369.485zm12.924-61.506h-395.333v-27.711h395.333z"/><path d="m236.265 219.544h-118.899c-2.762 0-5 2.238-5 5v36.99c0 2.762 2.238 5 5 5h118.898c2.762 0 5-2.238 5-5v-36.99c.001-2.762-2.238-5-4.999-5zm-5 36.99h-108.899v-26.99h108.898v26.99z"/></g></g></g></svg>