<svg enable-background="new 0 0 512 512" height="512" viewBox="0 0 512 512" width="512" xmlns="http://www.w3.org/2000/svg"><g id="Layer_2"><g><g><path d="m98.099 466.765h315.801v37.711h-315.801z" fill="#494a47"/><path d="m98.099 466.765h23.309v37.711h-23.309z" fill="#333331"/><path d="m126.228 429.054h259.544v37.711h-259.544z" fill="#494a47"/><path d="m126.228 429.054h23.309v37.711h-23.309z" fill="#333331"/><path d="m385.772 320.819h-259.544l34.599-37.711h190.346z" fill="#494a47"/><path d="m160.827 283.108-34.599 37.711h23.308l34.599-37.711z" fill="#333331"/><path d="m369.805 214.533h-227.61l31.946-37.711h163.718z" fill="#494a47"/><path d="m174.141 176.822-31.946 37.711h23.33l31.946-37.711z" fill="#333331"/><path d="m360.176 108.248h-208.352l104.176-77.117z" fill="#494a47"/><path d="m256 31.131-104.176 77.117h23.343l92.504-68.477z" fill="#333331"/><path d="m146.019 321.234h219.963v107.821h-219.963z" fill="#e15f4f"/><path d="m146.019 321.234h23.309v107.821h-23.309z" fill="#ca4336"/><path d="m160.827 214.257h190.347v69.127h-190.347z" fill="#e15f4f"/><path d="m160.827 214.257h23.309v69.127h-23.309z" fill="#ca4336"/><path d="m174.141 108.248h163.718v68.851h-163.718z" fill="#e15f4f"/><path d="m174.141 108.248h23.33v68.851h-23.33z" fill="#ca4336"/><circle cx="256" cy="19.327" fill="#f8d250" r="11.804"/><g fill="#68c0e0"><path d="m291.67 429.054h-71.34v-26.422c0-19.7 15.97-35.67 35.67-35.67 19.7 0 35.67 15.97 35.67 35.67z"/><path d="m365.981 366.963c-19.7 0-35.67 15.97-35.67 35.67v26.422h35.67z"/><path d="m146.019 366.963v62.092h35.67v-26.422c-.001-19.7-15.971-35.67-35.67-35.67z"/></g><path d="m146.019 366.963v62.092h23.309v-53.41c-6.253-5.405-14.396-8.682-23.309-8.682z" fill="#3282a1"/></g><g><path d="m413.9 461.765h-23.128v-32.711c0-2.761-2.238-5-5-5h-14.791v-57.092-41.144h14.336c1.366.274 2.739.419 4.105.419 3.802 0 7.539-1.052 10.854-3.099 4.715-2.91 8.014-7.481 9.289-12.872 2.234-9.439-3.628-18.937-13.067-21.171-2.687-.638-5.381 1.027-6.017 3.714-.637 2.687 1.026 5.381 3.714 6.017 4.073.964 6.604 5.063 5.64 9.137-.661 2.792-2.369 5.159-4.811 6.666-2.041 1.26-4.389 1.781-6.737 1.535l-32.114-35.003v-61.629h13.632c.563 0 1.107-.104 1.622-.281 1.132.188 2.267.286 3.397.286 3.802 0 7.539-1.052 10.854-3.099 4.715-2.91 8.014-7.481 9.289-12.872 2.234-9.439-3.627-18.936-13.065-21.171-2.688-.636-5.382 1.027-6.018 3.714-.637 2.687 1.026 5.381 3.713 6.017 4.074.964 6.604 5.063 5.64 9.137-.661 2.792-2.369 5.159-4.811 6.666-2.441 1.507-5.321 1.973-8.115 1.312-.164-.039-.327-.043-.491-.065l-28.961-34.187v-61.741h16.76c1.373.277 2.744.42 4.098.42 9.392 0 17.926-6.437 20.182-15.965 2.234-9.44-3.628-18.937-13.067-21.171-2.689-.639-5.382 1.027-6.017 3.714-.637 2.687 1.026 5.381 3.714 6.017 4.073.964 6.604 5.063 5.64 9.136-1.287 5.428-6.508 8.912-11.919 8.163l-95.922-71.007c3.934-3.078 6.477-7.857 6.477-13.228 0-9.266-7.538-16.804-16.804-16.804s-16.804 7.538-16.804 16.804c0 5.371 2.542 10.149 6.477 13.228l-95.908 70.997c-2.491.363-5.006-.149-7.173-1.487-2.441-1.507-4.149-3.874-4.811-6.666-.964-4.074 1.565-8.172 5.639-9.137 2.688-.636 4.351-3.33 3.714-6.017-.636-2.686-3.329-4.352-6.017-3.714-9.439 2.234-15.301 11.731-13.066 21.171 1.275 5.391 4.574 9.963 9.289 12.872 3.316 2.047 7.053 3.099 10.854 3.099 1.376 0 2.76-.147 4.137-.426h16.81v61.741l-29.186 34.453c-2.433.316-4.885-.204-7.004-1.512-2.441-1.507-4.149-3.874-4.811-6.666-.467-1.973-.138-4.01.927-5.736s2.739-2.933 4.712-3.4c2.688-.636 4.351-3.33 3.714-6.017-.635-2.686-3.33-4.352-6.017-3.714-4.573 1.083-8.45 3.881-10.919 7.879-2.468 3.999-3.23 8.719-2.147 13.292 1.275 5.391 4.574 9.962 9.288 12.872 3.316 2.047 7.054 3.099 10.854 3.099.827 0 1.657-.052 2.486-.152.375.089.76.148 1.157.148h13.632v61.629l-32.112 35c-5.288.552-10.306-2.89-11.564-8.198-.964-4.074 1.566-8.172 5.64-9.137 2.688-.636 4.351-3.33 3.714-6.017-.636-2.687-3.33-4.352-6.017-3.714-9.439 2.234-15.302 11.731-13.067 21.171 2.256 9.529 10.789 15.965 20.182 15.965 1.342 0 2.704-.141 4.066-.414h14.351v41.144 57.092h-14.791c-2.762 0-5 2.239-5 5v32.711h-23.13c-2.762 0-5 2.239-5 5v37.711c0 2.761 2.238 5 5 5h315.8c2.762 0 5-2.239 5-5v-37.711c0-2.762-2.238-5.001-5-5.001zm-157.9-449.242c3.752 0 6.804 3.052 6.804 6.804s-3.052 6.804-6.804 6.804-6.804-3.052-6.804-6.804 3.052-6.804 6.804-6.804zm-89.018 90.725 89.018-65.896 89.018 65.896zm165.877 10v58.575h-153.718v-58.575zm-179.876 96.285 23.241-27.435h159.551l23.241 27.435zm193.191 10v58.575h-180.348v-58.575zm-208.573 96.286 25.17-27.435h186.458l25.17 27.435zm187.711 86.813v21.422h-28.642v-21.422c0-22.425-18.244-40.67-40.67-40.67s-40.67 18.244-40.67 40.67v21.422h-28.642v-21.422c0-20.732-15.596-37.878-35.67-40.351v-36.047h209.963v36.047c-20.073 2.474-35.669 19.62-35.669 40.351zm35.669-30.262v51.684h-25.67v-21.422c.001-15.209 11.128-27.868 25.67-30.262zm-74.311 30.262v21.422h-61.34v-21.422c0-16.911 13.759-30.67 30.67-30.67s30.67 13.759 30.67 30.67zm-109.982 0v21.422h-25.67v-51.684c14.543 2.394 25.67 15.053 25.67 30.262zm-45.46 31.422h249.545v27.711h-249.545zm277.672 65.422h-305.8v-27.711h305.8z"/></g></g></g></svg>