<svg enable-background="new 0 0 512 512" height="512" viewBox="0 0 512 512" width="512" xmlns="http://www.w3.org/2000/svg"><g id="Layer_2"><g><path d="m112.929 258.1h33.052v180.823h-33.052z" fill="#989898"/><path d="m45.553 258.1h33.052v180.823h-33.052z" fill="#989898"/><path d="m163.143 461.684h-155.619v-24.247l155.619-38.197z" fill="#cdcdc6"/><path d="m163.143 260.582-155.619 50.667v-46.376l155.619-50.666z" fill="#cdcdc6"/><path d="m163.143 349.573-155.619 50.667v-46.375l155.619-50.667z" fill="#cdcdc6"/><path d="m30.832 257.285-23.308 7.588v46.376l23.308-7.589z" fill="#989898"/><path d="m30.832 346.276-23.308 7.589v46.375l23.308-7.589z" fill="#989898"/><path d="m30.832 431.716-23.308 5.721v24.247h23.308z" fill="#989898"/><g><path d="m368.465 154.372c14.051-10.544 23.143-27.338 23.143-46.258 0-31.921-25.877-57.798-57.798-57.798s-57.798 25.877-57.798 57.798c0 18.919 9.092 35.714 23.143 46.258h-136.012v307.311h341.333v-307.311z" fill="#cdcdc6"/><path d="m163.143 154.372h23.309v307.311h-23.309z" fill="#989898"/></g><path d="m193.261 254.579h281.096v42.342h-281.096z" fill="#494a47"/><path d="m193.261 182.249h281.096v42.342h-281.096z" fill="#494a47"/><path d="m193.261 326.91h281.096v42.342h-281.096z" fill="#494a47"/><path d="m193.261 399.24h281.096v42.342h-281.096z" fill="#494a47"/><g fill="#989898"><path d="m265.075 254.579h33.052v42.342h-33.052z"/><path d="m369.492 254.579h33.052v42.342h-33.052z"/><path d="m265.075 182.249h33.052v42.342h-33.052z"/><path d="m369.492 182.249h33.052v42.342h-33.052z"/><path d="m265.075 326.91h33.052v42.342h-33.052z"/><path d="m369.492 326.91h33.052v42.342h-33.052z"/><path d="m265.075 399.24h33.052v42.342h-33.052z"/><path d="m369.492 399.24h33.052v42.342h-33.052z"/></g><g><path d="m323.352 142.41c2.762 0 5-2.239 5-5v-24.295h12.039c10.834 0 19.647-8.814 19.647-19.648 0-10.833-8.813-19.647-19.647-19.647h-17.039c-2.762 0-5 2.239-5 5v58.59c0 2.761 2.238 5 5 5zm5-58.591h12.039c5.319 0 9.647 4.328 9.647 9.647s-4.328 9.648-9.647 9.648h-12.039z"/><path d="m504.477 149.372h-123.289c9.914-11.315 15.419-25.796 15.419-41.258 0-34.627-28.171-62.798-62.798-62.798s-62.798 28.171-62.798 62.798c0 15.462 5.504 29.943 15.419 41.258h-123.287c-2.761 0-5 2.239-5 5v56.204l-152.167 49.543c-2.059.67-3.452 2.589-3.452 4.754v46.375c0 1.601.767 3.105 2.063 4.046.865.628 1.895.954 2.938.954.519 0 1.042-.081 1.547-.246l31.481-10.25v32.099l-34.577 11.259c-2.059.67-3.452 2.589-3.452 4.754v46.375c0 1.601.767 3.105 2.063 4.046.865.628 1.895.954 2.938.954.519 0 1.042-.081 1.547-.246l31.481-10.25v29.437l-34.221 8.4c-2.236.549-3.808 2.554-3.808 4.856v24.247c0 2.761 2.239 5 5 5h496.953c2.762 0 5-2.239 5-5v-307.311c0-2.761-2.239-5-5-5zm-396.548 223.436v34.836l-24.324 5.97v-32.887zm10-3.256 23.052-7.505v37.484l-23.052 5.658zm33.052-10.761 7.162-2.332v38.859l-7.162 1.758zm-43.052-74.974v32.099l-24.324 7.919v-32.099zm10-3.256 23.052-7.505v32.099l-23.052 7.506zm33.052-10.761 7.162-2.332v32.099l-7.162 2.332zm-138.457-1.296 145.619-47.411v35.859l-145.619 47.41zm38.029 33.994 23.052-7.505v32.099l-23.052 7.505zm-38.029 54.997 145.619-47.411v35.859l-145.619 47.411zm38.029 33.994 23.052-7.505v32.085l-23.052 5.658zm-38.029 49.869 145.619-35.743v51.068h-145.619zm486.953 15.326h-331.334v-297.312h131.012c2.152 0 4.063-1.377 4.743-3.418s-.021-4.29-1.742-5.581c-13.438-10.082-21.144-25.485-21.144-42.258 0-29.113 23.685-52.798 52.798-52.798s52.798 23.685 52.798 52.798c0 16.773-7.706 32.176-21.144 42.259-1.722 1.292-2.423 3.54-1.742 5.581.681 2.042 2.591 3.418 4.743 3.418h131.012z"/><path d="m474.357 249.58h-281.096c-2.761 0-5 2.239-5 5v42.342c0 2.761 2.239 5 5 5h281.096c2.762 0 5-2.239 5-5v-42.342c0-2.762-2.238-5-5-5zm-109.866 10v32.342h-61.364v-32.342zm-166.23 0h61.814v32.342h-61.814zm71.814 32.341v-32.341h23.052v32.342h-23.052zm104.416 0v-32.341h23.053v32.342h-23.053zm94.866 0h-61.813v-32.341h61.813z"/><path d="m193.261 177.25c-2.761 0-5 2.239-5 5v42.342c0 2.761 2.239 5 5 5h281.096c2.762 0 5-2.239 5-5v-42.342c0-2.761-2.238-5-5-5zm5 10h61.814v32.342h-61.814zm71.814 32.341v-32.341h23.052v32.342h-23.052zm33.052-32.341h61.364v32.342h-61.364zm166.23 32.341h-61.813v-32.341h61.813zm-71.813-32.341v32.342h-23.053v-32.342z"/><path d="m474.357 321.91h-281.096c-2.761 0-5 2.239-5 5v42.342c0 2.761 2.239 5 5 5h281.096c2.762 0 5-2.239 5-5v-42.342c0-2.762-2.238-5-5-5zm-109.866 10v32.342h-61.364v-32.342zm-166.23 0h61.814v32.342h-61.814zm71.814 32.341v-32.341h23.052v32.342h-23.052zm104.416 0v-32.341h23.053v32.342h-23.053zm94.866 0h-61.813v-32.341h61.813z"/><path d="m474.357 394.24h-281.096c-2.761 0-5 2.239-5 5v42.342c0 2.761 2.239 5 5 5h281.096c2.762 0 5-2.239 5-5v-42.342c0-2.761-2.238-5-5-5zm-109.866 10v32.342h-61.364v-32.342zm-166.23 0h61.814v32.342h-61.814zm71.814 32.342v-32.342h23.052v32.342zm104.416 0v-32.342h23.053v32.342zm94.866 0h-61.813v-32.342h61.813z"/></g></g></g></svg>