<svg enable-background="new 0 0 512 512" height="512" viewBox="0 0 512 512" width="512" xmlns="http://www.w3.org/2000/svg"><g id="Layer_2"><g><g><path d="m28.385 237.314h455.23v267.162h-455.23z" fill="#cdcdc6"/><path d="m28.385 237.314h23.309v267.162h-23.309z" fill="#989898"/><path d="m144.532 118.991c0-61.562 49.906-111.468 111.468-111.468 61.562 0 111.468 49.906 111.468 111.468z" fill="#cdcdc6"/><path d="m144.532 119.991c0-61.562 49.906-111.468 111.468-111.468 61.562 0 111.468 49.906 111.468 111.468z" fill="#cdcdc6"/><path d="m267.654 9.128c-3.83-.398-7.718-.605-11.654-.605-61.562 0-111.468 49.906-111.468 111.468h23.309c0-57.626 43.729-105.036 99.813-110.863z" fill="#989898"/><path d="m137.336 118.991h240v37.711h-240z" fill="#494a47"/><path d="m137.336 118.991h22.884v37.711h-22.884z" fill="#333331"/><path d="m119.595 271.769h272.81v37.711h-272.81z" fill="#494a47"/><path d="m7.524 199.603h496.952v37.711h-496.952z" fill="#494a47"/><path d="m7.524 199.603h23.309v37.711h-23.309z" fill="#333331"/><path d="m144.532 156.702h222.935v115.068h-222.935z" fill="#cdcdc6"/><path d="m144.532 156.702h23.309v115.068h-23.309z" fill="#989898"/><path d="m119.595 271.769 136.405-86.257 136.405 86.257z" fill="#989898"/><path d="m167.956 309.48h63.839v27.907h9.25v117.744h-9.25v27.907h-63.839v-27.907h-7.736v-117.744h7.736z" fill="#989898"/><path d="m280.156 309.48h63.84v27.907h9.249v117.744h-9.249v27.907h-63.84v-27.907h-7.735v-117.744h7.735z" fill="#989898"/><g fill="#68c0e0"><path d="m56.125 271.392h37.8v37.8h-37.8z"/><path d="m56.125 411.16h37.8v37.8h-37.8z"/><path d="m56.125 341.276h37.8v37.8h-37.8z"/><path d="m418.027 271.392h37.8v37.8h-37.8z"/><path d="m418.027 411.16h37.8v37.8h-37.8z"/><path d="m418.027 341.276h37.8v37.8h-37.8z"/><path d="m294.782 358.499h37.211v68.168h-37.211z"/><path d="m182.027 358.499h37.211v68.168h-37.211z"/></g></g><g><path d="m93.925 266.392h-37.8c-2.762 0-5 2.239-5 5v37.8c0 2.761 2.238 5 5 5h37.8c2.762 0 5-2.239 5-5v-37.8c0-2.762-2.238-5-5-5zm-5 37.8h-27.8v-27.8h27.8z"/><path d="m93.925 406.16h-37.8c-2.762 0-5 2.239-5 5v37.8c0 2.761 2.238 5 5 5h37.8c2.762 0 5-2.239 5-5v-37.8c0-2.761-2.238-5-5-5zm-5 37.8h-27.8v-27.8h27.8z"/><path d="m93.925 336.276h-37.8c-2.762 0-5 2.239-5 5v37.8c0 2.761 2.238 5 5 5h37.8c2.762 0 5-2.239 5-5v-37.8c0-2.761-2.238-5-5-5zm-5 37.8h-27.8v-27.8h27.8z"/><path d="m418.027 314.192h37.799c2.762 0 5-2.239 5-5v-37.8c0-2.761-2.238-5-5-5h-37.799c-2.762 0-5 2.239-5 5v37.8c0 2.761 2.239 5 5 5zm5-37.8h27.799v27.8h-27.799z"/><path d="m418.027 453.96h37.799c2.762 0 5-2.239 5-5v-37.8c0-2.761-2.238-5-5-5h-37.799c-2.762 0-5 2.239-5 5v37.8c0 2.761 2.239 5 5 5zm5-37.8h27.799v27.8h-27.799z"/><path d="m418.027 384.076h37.799c2.762 0 5-2.239 5-5v-37.8c0-2.761-2.238-5-5-5h-37.799c-2.762 0-5 2.239-5 5v37.8c0 2.761 2.239 5 5 5zm5-37.8h27.799v27.8h-27.799z"/><path d="m294.781 431.667h37.211c2.762 0 5-2.239 5-5v-68.168c0-2.761-2.238-5-5-5h-37.211c-2.762 0-5 2.239-5 5v68.168c0 2.761 2.239 5 5 5zm5-68.168h27.211v58.168h-27.211z"/><path d="m182.027 431.667h37.211c2.762 0 5-2.239 5-5v-68.168c0-2.761-2.238-5-5-5h-37.211c-2.762 0-5 2.239-5 5v68.168c0 2.761 2.239 5 5 5zm5-68.168h27.211v58.168h-27.211z"/><path d="m504.476 194.603h-132.008v-32.901h4.868c2.762 0 5-2.239 5-5v-37.711c0-2.761-2.238-5-5-5h-4.944c-2.117-62.375-53.511-112.468-116.392-112.468s-114.275 50.093-116.392 112.468h-2.272c-2.762 0-5 2.239-5 5v37.711c0 2.761 2.238 5 5 5h2.196v32.901h-132.008c-2.762 0-5 2.239-5 5v37.711c0 2.761 2.238 5 5 5h15.86v262.162c0 2.761 2.238 5 5 5h455.23c2.762 0 5-2.239 5-5v-262.162h15.86c2.762 0 5-2.239 5-5v-37.711c.002-2.761-2.237-5-4.998-5zm-117.12 265.528v17.907h-38.36v-17.907zm-29.111-10v-107.744h21.376v107.744zm-9.249-117.744v-17.907h38.36v17.907zm-224.401-27.907.001-27.711h262.809l.001 27.711zm155.561 145.651h-2.735v-107.744h2.735c2.762 0 5-2.239 5-5v-22.907h53.84v22.907c0 2.761 2.238 5 5 5h4.249v107.744h-4.249c-2.762 0-5 2.239-5 5v22.907h-53.84v-22.907c0-2.761-2.238-5-5-5zm-5 10v17.907h-38.36v-17.907zm-29.111-10v-107.744h21.376v107.744zm-9.249-117.744v-17.907h38.36v17.907zm-68.84 117.744h-2.735v-107.744h2.735c2.762 0 5-2.239 5-5v-22.907h53.84v22.907c0 2.761 2.238 5 5 5h4.249v107.744h-4.249c-2.762 0-5 2.239-5 5v22.907h-53.84v-22.907c0-2.761-2.238-5-5-5zm207.187-183.362h-238.286l119.143-75.342zm-121.815-85.483-103.796 65.637v-85.221h212.936v85.221l-103.796-65.637c-1.631-1.032-3.713-1.032-5.344 0zm-113.796 71.96-22.608 14.297c-1.449.917-2.328 2.511-2.328 4.226l-.001 65.618c0 2.761 2.238 5 5 5h4.25v107.744h-4.25c-2.762 0-5 2.239-5 5v22.907h-81.21v-235.724h106.147zm-14.937 206.885h38.361v17.907h-38.361zm9.25-10v-107.744h21.376v107.744zm-9.25-117.744v-17.907h38.361v17.907zm237.757-219.396h-25.443c-.84-28.898-8.94-55.95-23.042-76.636-3.671-5.385-7.65-10.174-11.871-14.367 34.321 16.511 58.491 50.891 60.356 91.003zm-35.437 0h-33.114c-.363-28.368-3.803-54.922-9.785-75.232-2.712-9.206-5.833-16.723-9.3-22.478 29.064 11.925 50.749 50.92 52.199 97.71zm-70.915-101.468c11.327 0 27.013 38.462 27.806 101.468h-55.611c.792-63.006 16.478-101.468 27.805-101.468zm-18.716 3.757c-3.467 5.754-6.587 13.272-9.3 22.478-5.983 20.31-9.422 46.864-9.785 75.232h-33.114c1.45-46.789 23.135-85.784 52.199-97.71zm-27.279 6.708c-4.221 4.193-8.2 8.982-11.871 14.367-14.102 20.686-22.202 47.738-23.042 76.636h-25.443c1.864-40.112 26.034-74.492 60.356-91.003zm-67.669 102.003h230v27.711h-230zm-129.812 108.323v-27.711h127.008v27.711zm466.091 267.162h-445.23v-11.438h445.23zm0-21.438h-81.259v-22.907c0-2.761-2.238-5-5-5h-2.735v-107.744h2.735c2.762 0 5-2.239 5-5l.048-65.618c0-1.715-.879-3.31-2.328-4.226l-22.608-14.297v-10.932h106.147zm20.861-245.724h-127.008v-27.711h127.008z"/></g></g></g></svg>