<svg enable-background="new 0 0 512 512" height="512" viewBox="0 0 512 512" width="512" xmlns="http://www.w3.org/2000/svg"><g id="Layer_2"><g><g><path d="m67.083 44.195h377.834v150.894h-377.834z" fill="#494a47"/><path d="m67.083 44.195h23.309v150.894h-23.309z" fill="#333331"/><path d="m7.524 195.089h496.952v37.711h-496.952z" fill="#fed2a4"/><path d="m7.524 195.089h23.308v37.711h-23.308z" fill="#f2af7c"/><path d="m44.815 6.484h422.369v37.711h-422.369z" fill="#cdcdc6"/><path d="m44.815 6.484h23.309v37.711h-23.309z" fill="#989898"/><path d="m30.471 232.8h451.057v270.716h-451.057z" fill="#cdcdc6"/><path d="m30.471 232.8h23.309v270.716h-23.309z" fill="#989898"/><path d="m135.148 251.655h241.703v251.861h-241.703z" fill="#494a47"/><path d="m135.148 252.655h241.703v251.861h-241.703z" fill="#494a47"/><path d="m135.148 253.655h241.703v251.861h-241.703z" fill="#494a47"/><path d="m135.148 253.655h23.309v251.861h-23.309z" fill="#333331"/><path d="m111.2 213.944h289.599v37.711h-289.599z" fill="#cdcdc6"/><path d="m111.2 213.944h23.309v37.711h-23.309z" fill="#989898"/><path d="m183.011 357.539h145.977v145.977h-145.977z" fill="#68c0e0"/><path d="m183.011 357.539h23.309v145.977h-23.309z" fill="#3282a1"/><path d="m256 297.355c-28.311-8.816-47.597-35.021-47.597-64.673v-38.188l47.597-16.373 47.597 16.373v38.188c0 29.652-19.286 55.857-47.597 64.673z" fill="#f8d250"/><g fill="#68c0e0"><path d="m104.174 68.254h303.652v70.901h-303.652z"/><path d="m55.475 283.165h48.363v48.363h-48.363z"/><path d="m55.475 369.415h48.363v48.363h-48.363z"/><path d="m406.317 283.165h48.363v48.363h-48.363z"/><path d="m406.317 369.415h48.363v48.363h-48.363z"/></g></g><g><path d="m7.524 237.8h17.946v265.716c0 2.761 2.238 5 5 5h451.058c2.762 0 5-2.239 5-5v-265.716h17.947c2.762 0 5-2.239 5-5v-37.711c0-2.761-2.238-5-5-5h-54.559v-140.894h17.268c2.762 0 5-2.239 5-5v-37.711c0-2.761-2.238-5-5-5h-422.369c-2.762 0-5 2.239-5 5v37.711c0 2.761 2.238 5 5 5h17.268v140.894h-54.559c-2.762 0-5 2.239-5 5v37.711c0 2.761 2.239 5 5 5zm122.624 260.716h-94.677v-260.716h70.729v13.855c0 2.761 2.238 5 5 5h18.948zm74.596-251.861h-88.544v-27.711h87.203v13.739c0 4.765.465 9.436 1.341 13.972zm101.214-56.566c-.234-.125-.479-.234-.736-.322l-47.596-16.373c-1.055-.363-2.199-.363-3.254 0l-47.596 16.373c-.257.088-.502.197-.736.322h-133.957v-140.894h367.834v140.894zm2.639 28.855h87.203v27.711h-88.543c.875-4.536 1.34-9.207 1.34-13.972zm-10-20.882v34.62c0 27.094-17.053 50.776-42.597 59.416-25.544-8.64-42.597-32.322-42.597-59.416v-34.62l42.597-14.653zm-47.597 300.454h-62.989v-135.977h62.989zm72.988 0h-62.988v-135.977h62.988zm47.864-1-.017 1h-37.846v-140.977c0-2.761-2.238-5-5-5h-145.978c-2.762 0-5 2.239-5 5v140.977h-37.862v-241.861h67.278c7.395 21.357 24.496 38.439 47.087 45.474.483.151.985.226 1.486.226s1.003-.075 1.486-.226c22.591-7.035 39.693-24.117 47.087-45.474h67.278v240.861zm104.676 1h-94.677v-241.861h18.949c2.762 0 5-2.239 5-5v-13.855h70.729v260.716zm22.948-298.427v27.711h-93.676v-13.855c0-2.761-2.238-5-5-5h-92.203v-8.855h190.879zm-449.661-160.894v-27.711h412.369v27.711zm-37.291 160.894h190.879v8.855h-92.203c-2.762 0-5 2.239-5 5v13.856h-93.676z"/><path d="m407.826 63.254h-303.652c-2.762 0-5 2.239-5 5v70.901c0 2.761 2.238 5 5 5h303.652c2.762 0 5-2.239 5-5v-70.901c0-2.761-2.238-5-5-5zm-5 70.901h-293.652v-60.901h293.652z"/><path d="m103.838 278.165h-48.363c-2.762 0-5 2.239-5 5v48.363c0 2.761 2.238 5 5 5h48.363c2.762 0 5-2.239 5-5v-48.363c0-2.762-2.238-5-5-5zm-5 48.363h-38.363v-38.363h38.363z"/><path d="m103.838 364.415h-48.363c-2.762 0-5 2.239-5 5v48.363c0 2.761 2.238 5 5 5h48.363c2.762 0 5-2.239 5-5v-48.363c0-2.761-2.238-5-5-5zm-5 48.363h-38.363v-38.363h38.363z"/><path d="m401.317 283.165v48.363c0 2.761 2.238 5 5 5h48.362c2.762 0 5-2.239 5-5v-48.363c0-2.761-2.238-5-5-5h-48.362c-2.761 0-5 2.238-5 5zm10 5h38.362v38.363h-38.362z"/><path d="m454.68 364.415h-48.362c-2.762 0-5 2.239-5 5v48.363c0 2.761 2.238 5 5 5h48.362c2.762 0 5-2.239 5-5v-48.363c0-2.761-2.239-5-5-5zm-5 48.363h-38.362v-38.363h38.362z"/></g></g></g></svg>