<svg enable-background="new 0 0 512 512" height="512" viewBox="0 0 512 512" width="512" xmlns="http://www.w3.org/2000/svg"><g id="Layer_2"><g><path d="m421.232 407.735h-79.524l20.64-400.211h38.244z" fill="#cdcdc6"/><path d="m256 407.735h248.476v96.741h-248.476z" fill="#cdcdc6"/><path d="m256 407.735h23.309v96.741h-23.309z" fill="#989898"/><path d="m256 407.735h248.476v26.422h-248.476z" fill="#494a47"/><path d="m256 407.735h23.309v26.422h-23.309z" fill="#333331"/><path d="m7.524 35.583h496.952v32h-496.952z" fill="#f8d250"/><path d="m7.524 35.583h23.309v32h-23.309z" fill="#f8ae46"/><path d="m121.468 67.583h38.585v29.808h-38.585z" fill="#cdcdc6"/><g><path d="m80.504 305.664h120.514v89.385h-120.514z" fill="#cdcdc6"/><path d="m80.504 305.664h23.309v89.385h-23.309z" fill="#989898"/><path d="m80.504 324.923h120.514v30.439h-120.514z" fill="#68c0e0"/><path d="m204.825 474.408h-128.129l-17.403-83.411 81.468-35.636 81.467 35.636z" fill="#494a47"/><path d="m152.415 360.459-11.654-5.098-81.468 35.636 17.403 83.411h23.308l-17.402-83.411z" fill="#333331"/><path d="m116.688 272.229h48.146v33.435h-48.146z" fill="#494a47"/></g><path d="m59.513 128.831h162.495v77.978h-162.495z" fill="#e15f4f"/><path d="m59.513 128.831h23.309v77.978h-23.309z" fill="#ca4336"/><path d="m256 451.106c-20.708 0-20.708 10-41.417 10s-20.708-10-41.417-10c-20.705 0-20.705 10-41.411 10s-20.706-10-41.412-10c-20.705 0-20.705 10-41.41 10s-20.705-10-41.41-10v53.37h248.477z" fill="#68c0e0"/><path d="m30.832 457.338c-6.202-2.835-11.238-6.233-23.309-6.233v53.37h23.309z" fill="#3282a1"/><g><path d="m504.476 72.583c2.762 0 5-2.238 5-5v-32c0-2.762-2.238-5-5-5h-97.688l-1.202-23.316c-.137-2.657-2.332-4.742-4.993-4.742h-38.244c-2.661 0-4.856 2.085-4.993 4.742l-1.202 23.316h-348.63c-2.761 0-5 2.238-5 5v32c0 2.762 2.239 5 5 5h108.944v23.607l-14.079 27.641h-42.876c-2.761 0-5 2.238-5 5v77.979c0 2.762 2.239 5 5 5h162.495c2.761 0 5-2.238 5-5v-77.979c0-2.762-2.239-5-5-5h-42.876l-14.079-27.641v-23.607h188.933l-6.692 129.759c0 .019-.003.037-.003.055l-10.332 200.338h-80.959c-2.761 0-5 2.238-5 5v38.579c-8.359.704-13.381 3.115-17.883 5.288-5.003 2.416-9.324 4.503-18.534 4.503-.286 0-.553-.008-.83-.012l13.369-64.075c.483-2.316-.723-4.654-2.891-5.603l-18.214-7.967v-72.785c0-2.762-2.239-5-5-5h-31.184v-28.435c0-2.762-2.239-5-5-5h-48.146c-2.761 0-5 2.238-5 5v28.435h-31.183c-2.761 0-5 2.238-5 5v72.784l-18.215 7.968c-2.167.948-3.374 3.286-2.891 5.603l12.49 59.862c-4.766 2.295-9.102 4.225-17.954 4.225-9.208 0-13.528-2.087-18.53-4.502-5.336-2.577-11.383-5.498-22.88-5.498-2.761 0-5 2.238-5 5v53.37c0 2.762 2.239 5 5 5h496.952c2.762 0 5-2.238 5-5v-96.74c0-2.762-2.238-5-5-5h-78.496l-10.332-200.338c0-.019-.003-.037-.003-.055l-6.692-129.759h95.523zm-114.004-42-2.193-2.373 7.93-8.579.565 10.952zm-9.002-9.738-7.692-8.32h15.383zm-14.74-1.214 7.931 8.58-2.193 2.373h-6.303zm-354.206 20.952h486.952v22h-486.952zm204.484 161.227h-152.495v-67.979h152.495zm-103.396-77.979 10.921-21.44h32.456l10.921 21.44zm41.441-31.44h-28.585v-19.808h28.585zm218.603-19.808.743.743-11.006 11.006.606-11.749zm-23.633 271.013 24.377 24.377-27.028 27.028zm3.517-68.202 20.859 20.86-23.128 23.128zm6.034-117.014 14.824 14.825-16.437 16.437zm2.575-49.923 12.25 12.25-13.582 13.582zm19.321 19.321 19.178 19.178-19.178 19.178-19.178-19.178zm0 52.498 22.108 22.109-22.108 22.109-22.109-22.109zm-7.071 51.288-19.61 19.611 1.924-37.298zm7.071 7.072 25.273 25.273-25.273 25.273-25.273-25.273zm0 64.688 28.789 28.789-28.789 28.789-28.788-28.789zm0 71.72 27.691 27.691h-55.383zm7.071-7.071 24.376-24.376 2.651 51.405zm0-71.72 20.859-20.859 2.268 43.986zm0-64.689 17.686-17.687 1.923 37.297zm0-58.359 14.824-14.825 1.612 31.262zm13.582-38.916-13.582-13.582 12.25-12.25zm-20.653-20.653-16.619-16.62 16.619-16.62 16.619 16.62zm-177.657 341.144c-2.89-.826-5.241-1.959-7.763-3.177-5.336-2.576-11.384-5.497-22.882-5.497-11.497 0-17.544 2.921-22.88 5.498-1.519.733-2.977 1.436-4.526 2.059v-90.657l70.743 30.946zm-118.309-104.419v-20.438h14.95v20.438zm24.95-20.438h60.614v20.438h-60.614zm85.564 0v20.438h-14.95v-20.438zm-31.35 30.438h31.35v13.713zm-42.98-83.132h38.146v23.435h-38.146zm-5 33.435h48.146 31.184v9.259h-110.514v-9.259zm-31.184 49.697h31.35l-31.35 13.713zm50.257 2.644v92.946c-1.232.097-2.552.154-4.005.154-9.209 0-13.529-2.087-18.532-4.502-5.335-2.577-11.383-5.498-22.88-5.498-5.913 0-10.379.775-14.054 1.876l-11.273-54.031zm-123.237 93.339c5.971.612 9.533 2.333 13.531 4.264 5.335 2.577 11.382 5.498 22.879 5.498s17.544-2.921 22.879-5.498c5.002-2.415 9.322-4.502 18.531-4.502s13.529 2.087 18.532 4.502c5.335 2.577 11.383 5.498 22.88 5.498s17.544-2.921 22.88-5.498c5.002-2.415 9.323-4.502 18.531-4.502 9.21 0 13.531 2.087 18.534 4.503 5.336 2.576 11.384 5.497 22.883 5.497 11.498 0 17.546-2.921 22.882-5.497 3.999-1.932 7.562-3.652 13.534-4.265v43.132h-238.476zm248.476 43.132v-60.318h238.476v60.318zm238.476-70.319h-238.476v-16.422h238.476zm-99.93-344.825-11.006-11.006.743-.743h9.657z"/></g></g></g></svg>