<svg enable-background="new 0 0 512 512" height="512" viewBox="0 0 512 512" width="512" xmlns="http://www.w3.org/2000/svg"><g id="Layer_2"><g><path d="m411.256 466.766h-310.512v-333.447c0-58.429 47.366-105.795 105.795-105.795h98.923c58.429 0 105.795 47.366 105.795 105.795v333.447z" fill="#68c0e0"/><path d="m229.847 27.524h-23.309c-58.429 0-105.795 47.366-105.795 105.795v333.447h23.309v-333.447c0-58.429 47.366-105.795 105.795-105.795z" fill="#3282a1"/><g><path d="m411.256 153.318c-11.046 0-20-8.954-20-20 0-47.308-38.487-85.795-85.795-85.795h-98.922c-47.308 0-85.795 38.487-85.795 85.795 0 11.046-8.954 20-20 20-11.045 0-20-8.954-20-20 0-69.364 56.431-125.795 125.795-125.795h98.922c69.363 0 125.795 56.431 125.795 125.795 0 11.046-8.954 20-20 20z" fill="#cdcdc6"/></g><g><path d="m104.052 133.318c0-69.364 56.431-125.795 125.795-125.795h-23.309c-69.364 0-125.795 56.431-125.795 125.795 0 11.046 8.955 20 20 20 4.354 0 8.371-1.407 11.654-3.769-5.046-3.63-8.345-9.539-8.345-16.231z" fill="#989898"/></g><path d="m73.714 466.766h364.572v37.711h-364.572z" fill="#494a47"/><path d="m73.714 466.766h23.273v37.711h-23.273z" fill="#333331"/><path d="m346.686 466.766h-181.372v-251.878c0-16.479 13.359-29.838 29.838-29.838h121.696c16.479 0 29.838 13.359 29.838 29.838z" fill="#cdcdc6"/><path d="m218.442 185.05h-23.29c-16.479 0-29.838 13.359-29.838 29.838v251.877h23.29v-251.877c0-16.479 13.359-29.838 29.838-29.838z" fill="#989898"/><path d="m151.002 242.237h28.624v50.463h-28.624z" fill="#494a47"/><path d="m151.002 368.181h28.624v50.463h-28.624z" fill="#494a47"/><g><path d="m438.286 461.766h-22.029v-303.95c11.397-2.323 20-12.424 20-24.497 0-72.12-58.674-130.795-130.795-130.795h-98.922c-72.121 0-130.795 58.675-130.795 130.795 0 12.073 8.603 22.174 20 24.497v303.95h-22.031c-2.761 0-5 2.238-5 5v37.711c0 2.762 2.239 5 5 5h364.571c2.761 0 5-2.238 5-5v-37.711c.001-2.762-2.238-5-4.999-5zm-352.542-328.448c0-66.606 54.188-120.795 120.795-120.795h98.922c66.606 0 120.795 54.188 120.795 120.795 0 8.271-6.729 15-15 15s-15-6.729-15-15c0-50.064-40.73-90.795-90.795-90.795h-98.922c-50.064 0-90.795 40.73-90.795 90.795 0 8.271-6.729 15-15 15s-15-6.728-15-15zm20 24.497c11.397-2.323 20-12.424 20-24.497 0-44.551 36.245-80.795 80.795-80.795h98.922c44.55 0 80.795 36.244 80.795 80.795 0 12.073 8.603 22.174 20 24.497v303.95h-54.57v-246.877c0-19.21-15.628-34.838-34.838-34.838h-121.696c-19.21 0-34.838 15.628-34.838 34.838v22.349h-9.312c-2.761 0-5 2.238-5 5v50.463c0 2.762 2.239 5 5 5h9.312v65.482h-9.312c-2.761 0-5 2.238-5 5v50.462c0 2.762 2.239 5 5 5h9.312v38.122h-54.57zm68.882 215.367v40.462h-18.625v-40.462zm-4.313 50.462h9.313c2.761 0 5-2.238 5-5v-50.462c0-2.762-2.239-5-5-5h-9.313v-65.482h9.313c2.761 0 5-2.238 5-5v-50.463c0-2.762-2.239-5-5-5h-9.313v-22.349c0-13.695 11.143-24.838 24.838-24.838h121.696c13.696 0 24.838 11.143 24.838 24.838v246.878h-171.372zm4.313-176.408v40.463h-18.625v-40.463zm258.66 252.241h-354.572v-27.711h354.571v27.711z"/><path d="m289.027 381.748h-66.055c-2.761 0-5 2.238-5 5s2.239 5 5 5h66.055c2.761 0 5-2.238 5-5s-2.238-5-5-5z"/><path d="m289.027 402.748h-66.055c-2.761 0-5 2.238-5 5s2.239 5 5 5h66.055c2.761 0 5-2.238 5-5s-2.238-5-5-5z"/><path d="m289.027 423.748h-66.055c-2.761 0-5 2.238-5 5s2.239 5 5 5h66.055c2.761 0 5-2.238 5-5s-2.238-5-5-5z"/></g></g></g></svg>