<svg enable-background="new 0 0 512 512" height="512" viewBox="0 0 512 512" width="512" xmlns="http://www.w3.org/2000/svg"><g id="Layer_2"><g><g><path d="m31.638 46.694h448.725v456.323h-448.725z" fill="#e15f4f"/><path d="m31.638 46.694h23.309v456.323h-23.309z" fill="#ca4336"/><path d="m15.751 268.238h480.498v37.711h-480.498z" fill="#494a47"/><path d="m15.751 268.238h23.309v37.711h-23.309z" fill="#333331"/><path d="m15.751 8.983h480.498v37.711h-480.498z" fill="#494a47"/><path d="m15.751 8.983h23.309v37.711h-23.309z" fill="#333331"/><path d="m305.126 339.837h121.541v163.18h-121.541z" fill="#68c0e0"/><path d="m7.524 104.836h496.952v105.259h-496.952z" fill="#e15f4f"/><path d="m7.524 104.836h23.309v105.259h-23.309z" fill="#ca4336"/><path d="m7.524 133.746h496.952v47.44h-496.952z" fill="#cdcdc6"/><path d="m7.524 133.746h23.309v47.44h-23.309z" fill="#989898"/><path d="m71.846 339.837h188.257v127.816h-188.257z" fill="#68c0e0"/></g><g><path d="m504.476 99.836h-19.113v-48.142h10.887c2.762 0 5-2.239 5-5v-37.711c0-2.761-2.238-5-5-5h-480.499c-2.761 0-5 2.239-5 5v37.711c0 2.761 2.239 5 5 5h10.887v48.142h-19.114c-2.761 0-5 2.239-5 5v105.259c0 2.761 2.239 5 5 5h19.114v48.142h-10.887c-2.761 0-5 2.239-5 5v37.711c0 2.761 2.239 5 5 5h10.887v192.068c0 2.761 2.239 5 5 5h448.725c2.762 0 5-2.239 5-5v-192.068h10.887c2.762 0 5-2.239 5-5v-37.711c0-2.761-2.238-5-5-5h-10.887v-48.142h19.113c2.762 0 5-2.239 5-5v-105.259c0-2.761-2.239-5-5-5zm-483.725-58.142v-27.711h470.498v27.711zm454.611 10v48.142h-438.724v-48.142zm-53.695 446.323h-111.541v-153.18h111.541zm53.695 0h-43.695v-158.18c0-2.761-2.238-5-5-5h-121.541c-2.762 0-5 2.239-5 5v158.18h-263.488v-187.069h438.725v187.069zm15.887-224.779v27.711h-470.498v-27.711zm-454.611-10v-48.142h438.725v48.142zm462.838-58.143h-486.952v-18.909h486.952zm0-28.909h-486.952v-37.44h486.952zm0-47.44h-486.952v-18.909h486.952z"/><path d="m71.846 472.653h188.256c2.762 0 5-2.239 5-5v-127.816c0-2.761-2.238-5-5-5h-188.256c-2.761 0-5 2.239-5 5v127.816c0 2.762 2.239 5 5 5zm5-127.816h178.256v117.816h-178.256z"/><path d="m199.663 375.757h-67.376c-2.761 0-5 2.239-5 5v45.977c0 2.761 2.239 5 5 5h67.376c2.761 0 5-2.239 5-5v-45.977c0-2.762-2.239-5-5-5zm-16.198 10-17.49 11.935-17.49-11.935zm11.198 35.977h-57.376v-31.512l25.87 17.653c.85.58 1.834.87 2.818.87s1.968-.29 2.818-.87l25.87-17.653z"/></g></g></g></svg>