<svg enable-background="new 0 0 512 512" height="512" viewBox="0 0 512 512" width="512" xmlns="http://www.w3.org/2000/svg"><g id="Layer_2"><g><path d="m7.593 337.362h496.813v167.114h-496.813z" fill="#cdcdc6"/><path d="m7.593 337.362h23.17v167.114h-23.17z" fill="#989898"/><path d="m504.407 338.389h-314.91s45.171-192.962 50.797-288.979h213.316c5.625 96.017 50.797 288.979 50.797 288.979z" fill="#494a47"/><path d="m504.407 339.416h-314.91s45.171-192.962 50.797-288.979h213.316c5.625 96.017 50.797 288.979 50.797 288.979z" fill="#494a47"/><path d="m263.602 50.437h-23.309c-5.626 96.017-50.797 288.979-50.797 288.979h23.309s45.171-192.962 50.797-288.979z" fill="#333331"/><path d="m455.332 49.41h-216.762c-11.276 0-20.416-9.141-20.416-20.416 0-11.276 9.141-20.416 20.416-20.416h216.762c11.276 0 20.416 9.141 20.416 20.416.001 11.275-9.14 20.416-20.416 20.416z" fill="#e15f4f"/><path d="m241.463 28.994c0-11.276 9.141-20.417 20.417-20.417h-23.31c-11.276 0-20.417 9.141-20.417 20.416 0 11.276 9.141 20.417 20.417 20.417h23.309c-11.276 0-20.416-9.141-20.416-20.416z" fill="#ca4336"/><path d="m147.933 337.362h-79.523l20.639-284.028h38.245z" fill="#cdcdc6"/><path d="m78.767 30.682h58.808v22.652h-58.808z" fill="#e15f4f"/><path d="m78.767 30.682h23.309v22.652h-23.309z" fill="#ca4336"/><path d="m41.061 391.222h151.926v113.254h-151.926z" fill="#68c0e0"/><path d="m242.55 391.222h208.802v62.752h-208.802z" fill="#68c0e0"/><g><path d="m509.266 336.229c.001-.001.009-.006.009-.006s-43.27-185.632-50.274-282.081c12.282-1.784 21.747-12.379 21.747-25.147 0-14.015-11.402-25.417-25.417-25.417h-216.761c-14.015 0-25.417 11.402-25.417 25.417 0 12.769 9.466 23.364 21.748 25.148-6.423 88.603-43.161 251.142-49.382 278.22h-32.937l-19.912-274.029h4.905c2.761 0 5-2.238 5-5v-22.652c0-2.762-2.239-5-5-5h-58.807c-2.761 0-5 2.238-5 5v22.652c0 2.762 2.239 5 5 5h4.905l-19.913 274.028h-56.167c-2.761 0-5 2.238-5 5v167.114c0 2.762 2.239 5 5 5h496.813c2.761 0 5-2.238 5-5v-167.114c.001-.391-.055-.768-.14-1.133zm-286.112-307.235c0-8.501 6.916-15.417 15.417-15.417h216.762c8.5 0 15.417 6.916 15.417 15.417 0 8.5-6.916 15.416-15.417 15.416h-216.763c-8.5 0-15.416-6.916-15.416-15.416zm21.753 25.416h204.089c6.238 87.085 41.582 244.939 49.128 277.952h-302.345c7.547-33.012 42.89-190.867 49.128-277.952zm-168.254 238.496 22.879 16.237-25.367 18.003zm3.518-48.404 19.362 13.741-21.468 15.236zm3.172-43.657 16.189 11.49-17.95 12.739zm2.862-39.386 13.327 9.458-14.777 10.487zm2.575-35.431 10.753 7.631-11.922 8.461zm53.398 201.118-25.367-18.003 22.879-16.237zm-9.929 5.216h-48.155l24.078-17.088zm-24.077-29.35-27.221-19.319 27.221-19.319 27.221 19.319zm8.638-44.768 19.362-13.741 2.106 28.977zm-8.638-6.131-23.705-16.824 23.705-16.824 23.705 16.824zm8.638-39.779 16.19-11.489 1.761 24.229zm-8.639-6.13-20.541-14.578 20.541-14.578 20.541 14.578zm8.639-35.287 13.327-9.458 1.449 19.946zm-8.638-6.131-17.61-12.498 17.61-12.498 17.61 12.498zm8.638-31.127 10.753-7.631 1.169 16.092zm-8.639-6.131-15.051-10.681 15.051-10.682 15.051 10.682zm8.639-27.494 8.429-5.982.917 12.615zm-8.638-6.132-13.255-9.407 13.255-10.177 13.255 10.177zm8.21-25.887 6.597-5.065.78 10.729zm-8.21-6.304-4.399-3.377h8.799zm-8.211 6.304-7.377 5.664.78-10.729zm-8.857 26.036 8.429 5.982-9.346 6.633zm-7.336-58.369h48.808v12.652h-48.808zm-37.707 463.795v-103.255h141.926v103.255zm453.346 0h-301.42v-108.255c0-2.762-2.239-5-5-5h-151.926c-2.761 0-5 2.238-5 5v108.255h-23.468v-157.115h176.903 309.911z"/><path d="m242.55 458.975h208.802c2.761 0 5-2.238 5-5v-62.753c0-2.762-2.239-5-5-5h-208.802c-2.761 0-5 2.238-5 5v62.753c0 2.761 2.239 5 5 5zm5-62.753h198.802v52.753h-198.802z"/></g></g></g></svg>