<svg enable-background="new 0 0 512 512" height="512" viewBox="0 0 512 512" width="512" xmlns="http://www.w3.org/2000/svg"><g id="Layer_2"><g><g><path d="m7.524 163.382h496.952v312.998h-496.952z" fill="#cdcdc6"/><path d="m36.426 115.819h99.574v360.562h-99.574z" fill="#cdcdc6"/><path d="m36.426 115.819h23.309v360.562h-23.309z" fill="#989898"/><g fill="#cdcdc6"><path d="m376.809 115.819h99.574v360.562h-99.574z"/><path d="m460.672 212.403h-68.011c-16.51 0-29.893-13.384-29.893-29.893v-72.489h127.797v72.489c0 16.509-13.383 29.893-29.893 29.893z"/><path d="m356.851 72.31h139.632v37.711h-139.632z"/></g><path d="m362.768 108.968h127.797v42.27h-127.797z" fill="#68c0e0"/><path d="m159.985 319.881h192.03v157.52h-192.03z" fill="#494a47"/><path d="m120.29 212.403h-68.011c-16.51 0-29.893-13.384-29.893-29.893v-72.489h127.797v72.489c0 16.509-13.384 29.893-29.893 29.893z" fill="#cdcdc6"/><path d="m45.694 182.509v-72.489h-23.308v72.489c0 16.51 13.384 29.893 29.893 29.893h23.309c-16.51.001-29.894-13.383-29.894-29.893z" fill="#989898"/><path d="m16.468 72.31h139.632v37.711h-139.632z" fill="#cdcdc6"/><path d="m16.468 72.31h23.309v37.711h-23.309z" fill="#989898"/><path d="m22.386 108.968h127.797v42.27h-127.797z" fill="#68c0e0"/><path d="m22.386 108.968h23.309v42.27h-23.309z" fill="#3282a1"/><path d="m28.425 34.599h116.072v37.711h-116.072z" fill="#494a47"/><path d="m28.425 34.599h23.007v37.711h-23.007z" fill="#333331"/><path d="m368.09 34.599h116.072v37.711h-116.072z" fill="#494a47"/></g><path d="m496.483 115.021c2.761 0 5-2.239 5-5v-4.831h2.993c2.761 0 5-2.239 5-5s-2.239-5-5-5h-2.993v-22.88c0-1.064-.338-2.047-.905-2.857h3.898c2.761 0 5-2.239 5-5s-2.239-5-5-5h-15.314v-24.854c0-2.761-2.239-5-5-5h-116.072c-2.761 0-5 2.239-5 5v24.853h-24.59v-4.428c0-2.761-2.239-5-5-5s-5 2.239-5 5v4.428h-21v-4.428c0-2.761-2.239-5-5-5s-5 2.239-5 5v4.428h-21v-4.428c0-2.761-2.239-5-5-5s-5 2.239-5 5v4.428h-21v-4.428c0-2.761-2.239-5-5-5s-5 2.239-5 5v4.428h-21v-4.428c0-2.761-2.239-5-5-5s-5 2.239-5 5v4.428h-21v-4.428c0-2.761-2.239-5-5-5s-5 2.239-5 5v4.428h-24.004v-24.853c0-2.761-2.239-5-5-5h-116.072c-2.761 0-5 2.239-5 5v24.853h-15.9c-2.761 0-5 2.239-5 5s2.239 5 5 5h4.849c-.567.811-.905 1.793-.905 2.857v22.88h-3.944c-2.761 0-5 2.239-5 5s2.239 5 5 5h3.944v4.831c0 2.761 2.239 5 5 5h.917v15.907h-9.861c-2.761 0-5 2.239-5 5s2.239 5 5 5h9.862v18.455h-9.862c-2.761 0-5 2.239-5 5v312.998c0 2.761 2.239 5 5 5 0 0 152.39.021 152.461.021h192.03c.07 0 152.461-.021 152.461-.021 2.761 0 5-2.239 5-5v-312.998c0-2.761-2.239-5-5-5h-8.911v-18.455h8.911c2.761 0 5-2.239 5-5s-2.239-5-5-5h-8.911v-15.907h.918zm-10.918 0v31.217h-21.899v-31.217zm-31.898 0v31.217h-22.541v-31.217zm-32.541 0v31.217h-22.541v-31.217zm-32.541 0v31.217h-20.817v-31.217zm-15.495-75.422h106.071v27.711h-106.071zm118.393 37.711v26.658h-129.632v-26.658zm-317.983-7.858v4.428c0 2.761 2.239 5 5 5s5-2.239 5-5v-4.428h21v4.428c0 2.761 2.239 5 5 5s5-2.239 5-5v-4.428h21v4.428c0 2.761 2.239 5 5 5s5-2.239 5-5v-4.428h21v4.428c0 2.761 2.239 5 5 5s5-2.239 5-5v-4.428h21v4.428c0 2.761 2.239 5 5 5s5-2.239 5-5v-4.428h21v4.428c0 2.761 2.239 5 5 5s5-2.239 5-5v-4.428h14.256c-.567.811-.905 1.793-.905 2.857v22.88h-28.375v-4.428c0-2.761-2.239-5-5-5s-5 2.239-5 5v4.428h-21v-4.428c0-2.761-2.239-5-5-5s-5 2.239-5 5v4.428h-21v-4.428c0-2.761-2.239-5-5-5s-5 2.239-5 5v4.428h-21v-4.428c0-2.761-2.239-5-5-5s-5 2.239-5 5v4.428h-21v-4.428c0-2.761-2.239-5-5-5s-5 2.239-5 5v4.428h-28.375v-22.879c0-1.064-.338-2.047-.905-2.857h13.304zm-18.317 45.569h.917c2.761 0 5-2.239 5-5v-4.831h28.375v4.427c0 2.761 2.239 5 5 5s5-2.239 5-5v-4.427h21v4.427c0 2.761 2.239 5 5 5s5-2.239 5-5v-4.427h21v4.427c0 2.761 2.239 5 5 5s5-2.239 5-5v-4.427h21v4.427c0 2.761 2.239 5 5 5s5-2.239 5-5v-4.427h21v4.427c0 2.761 2.239 5 5 5s5-2.239 5-5v-4.427h28.375v4.831c0 2.761 2.239 5 5 5h.917v15.907h-18.792v-4.428c0-2.761-2.239-5-5-5s-5 2.239-5 5v4.428h-21v-4.428c0-2.761-2.239-5-5-5s-5 2.239-5 5v4.428h-21v-4.428c0-2.761-2.239-5-5-5s-5 2.239-5 5v4.428h-21v-4.428c0-2.761-2.239-5-5-5s-5 2.239-5 5v4.428h-21v-4.428c0-2.761-2.239-5-5-5s-5 2.239-5 5v4.428h-21v-4.428c0-2.761-2.239-5-5-5s-5 2.239-5 5v4.428h-18.792zm0 25.906h18.792v4.428c0 2.761 2.239 5 5 5s5-2.239 5-5v-4.428h21v4.428c0 2.761 2.239 5 5 5s5-2.239 5-5v-4.428h21v4.428c0 2.761 2.239 5 5 5s5-2.239 5-5v-4.428h21v4.428c0 2.761 2.239 5 5 5s5-2.239 5-5v-4.428h21v4.428c0 2.761 2.239 5 5 5s5-2.239 5-5v-4.428h21v4.428c0 2.761 2.239 5 5 5s5-2.239 5-5v-4.428h18.792v18.455h-202.584zm-10-25.906v31.217h-21.358v-31.217zm-31.358 0v31.217h-22.54v-31.217zm-32.54 0v31.217h-22.541v-31.217zm-32.541 0v31.217h-21.358v-31.217zm-15.32-75.422h106.072v27.711h-106.072zm117.677 37.711v26.658h-129.633v-26.658zm-119.675 395.07h-18.902v-20.833h18.902zm0-30.833h-18.902v-25.737h18.902zm0-35.737h-18.902v-25.738h18.902zm0-35.738h-18.902v-200.69h4.862v13.127c0 11.429 5.523 21.592 14.041 27.96v159.603zm99.574 101.309h-89.574v-255.715c3.418 1.122 7.064 1.737 10.853 1.737h68.01c3.736 0 7.333-.597 10.71-1.689v255.667zm-10.71-263.978h-68.01c-13.727 0-24.894-11.167-24.894-24.893v-26.272h117.797v26.272c0 13.726-11.167 24.893-24.893 24.893zm34.695 264.977h-13.985v-20.833h13.985zm0-30.833h-13.985v-25.737h13.985zm0-35.737h-13.985v-25.738h13.985zm96.015 66.57h-86.015v-20.833h86.015zm0-30.833h-86.015v-25.737h86.015zm0-35.737h-86.015v-25.738h86.015zm0-35.738h-86.015v-45.19h86.015zm96.015 102.308h-86.015v-20.833h86.015zm0-30.833h-86.015v-25.737h86.015zm0-35.737h-86.015v-25.738h86.015zm0-35.738h-86.015v-45.19h86.015zm24.794 102.308h-14.793v-20.833h14.793zm0-30.833h-14.793v-25.737h14.793zm0-35.737h-14.793v-25.738h14.793zm0-35.738h-14.793v-50.19c0-2.761-2.239-5-5-5h-192.03c-2.761 0-5 2.239-5 5v50.19h-13.986v-159.501c8.597-6.362 14.183-16.57 14.183-28.062v-13.127h202.585v13.127c0 11.429 5.523 21.592 14.041 27.96zm99.573 101.309h-89.574v-255.715c3.418 1.122 7.064 1.737 10.853 1.737h68.01c3.736 0 7.333-.597 10.71-1.689v255.667zm-10.71-263.978h-68.01c-13.727 0-24.894-11.167-24.894-24.893v-26.272h117.797v26.272c0 13.726-11.167 24.893-24.893 24.893zm38.804 264.977h-18.094v-20.833h18.094zm0-30.833h-18.094v-25.737h18.094zm0-35.737h-18.094v-25.738h18.094zm0-236.428v200.689h-18.094v-159.5c8.597-6.362 14.183-16.57 14.183-28.062v-13.127z"/></g></g></svg>