<svg enable-background="new 0 0 512 512" height="512" viewBox="0 0 512 512" width="512" xmlns="http://www.w3.org/2000/svg"><g id="Layer_2"><g><path d="m502.205 278.383h-492.41l30-83.444h432.41z" fill="#bb5d4c"/><path d="m39.795 194.939-30 83.444h23.309l30-83.444z" fill="#99473a"/><path d="m324.862 162.51v-49.725c0-30.998-20.484-57.207-48.653-65.843l-20.209-39.419-20.209 39.419c-28.169 8.636-48.653 34.844-48.653 65.843v49.725h-43.431v38.312h224.587v-38.312z" fill="#cdcdc6"/><path d="m158.491 200.821h195.017v77.562h-195.017z" fill="#68c0e0"/><path d="m22.583 278.383h466.834v195.768h-466.834z" fill="#cdcdc6"/><path d="m22.583 278.383h23.309v195.768h-23.309z" fill="#989898"/><path d="m324.862 436.129h-137.724v-51.395c0-38.032 30.831-68.862 68.862-68.862 38.032 0 68.862 30.831 68.862 68.862z" fill="#68c0e0"/><path d="m56.87 323.658h70.018v100.542h-70.018z" fill="#68c0e0"/><path d="m380.57 323.658h70.018v100.542h-70.018z" fill="#68c0e0"/><circle cx="256" cy="112.785" fill="#fff" r="46.227"/><g fill="#494a47"><circle cx="50.318" cy="486.311" r="18.165"/><circle cx="86.648" cy="486.311" r="18.165"/><circle cx="176.483" cy="486.311" r="18.165"/><circle cx="212.813" cy="486.311" r="18.165"/><circle cx="294.752" cy="486.311" r="18.165"/><circle cx="331.083" cy="486.311" r="18.165"/><circle cx="420.917" cy="486.311" r="18.165"/><circle cx="457.248" cy="486.311" r="18.165"/></g><path d="m236.65 479.586h-210.17c-10.929 0-19.789-8.86-19.789-19.789 0-47.524 38.526-86.049 86.049-86.049h143.91c10.929 0 19.789 8.86 19.789 19.789v66.261c0 10.928-8.86 19.788-19.789 19.788z" fill="#e15f4f"/><path d="m30 459.797c0-47.524 38.526-86.049 86.049-86.049h-23.308c-47.524 0-86.049 38.526-86.049 86.049 0 10.929 8.86 19.789 19.789 19.789h23.309c-10.93 0-19.79-8.86-19.79-19.789z" fill="#ca4336"/><path d="m485.824 479.586h-210.041c-10.926 0-19.783-8.857-19.783-19.783v-66.272c0-10.926 8.857-19.783 19.783-19.783h210.041c10.926 0 19.783 8.857 19.783 19.783v66.272c0 10.925-8.857 19.783-19.783 19.783z" fill="#e15f4f"/><path d="m146.598 396.926h68.262v38.552h-68.262z" fill="#68c0e0"/><path d="m355.896 396.926h49.814v82.659h-49.814z" fill="#494a47"/><path d="m355.896 396.926h49.814v38.552h-49.814z" fill="#68c0e0"/><path d="m283.579 396.926h45.523v38.552h-45.523z" fill="#68c0e0"/><path d="m432.505 396.926h45.523v38.552h-45.523z" fill="#68c0e0"/><path d="m86.648 373.986c-36.376 2.548-66.504 27.688-76.448 61.492h26.724c27.462 0 49.724-22.262 49.724-49.724z" fill="#68c0e0"/><path d="m86.648 373.986c-36.376 2.548-66.504 27.688-76.448 61.492h23.309c7.722-26.248 27.601-47.287 53.14-56.572v-4.92z" fill="#3282a1"/><g><path d="m256 164.012c28.246 0 51.227-22.98 51.227-51.227s-22.981-51.227-51.227-51.227c-28.247 0-51.227 22.98-51.227 51.227s22.98 51.227 51.227 51.227zm0-92.454c22.732 0 41.227 18.494 41.227 41.227s-18.495 41.227-41.227 41.227c-22.733 0-41.227-18.494-41.227-41.227s18.494-41.227 41.227-41.227z"/><circle cx="256" cy="83.225" r="5.284"/><circle cx="256" cy="142.344" r="5.284"/><circle cx="285.56" cy="112.785" r="5.284"/><circle cx="226.44" cy="112.785" r="5.284"/><path d="m252.069 115.875c.948 1.206 2.397 1.91 3.931 1.91h8.616c2.762 0 5-2.239 5-5s-2.238-5-5-5h-6.187l-9.259-11.776c-1.707-2.171-4.851-2.547-7.021-.84-2.171 1.707-2.547 4.85-.84 7.021z"/><path d="m214.86 391.926h-68.262c-2.761 0-5 2.239-5 5v38.552c0 2.761 2.239 5 5 5h68.262c2.761 0 5-2.239 5-5v-38.552c0-2.761-2.238-5-5-5zm-5 38.553h-58.262v-28.552h58.262z"/><path d="m494.417 370.286v-86.902h7.788c1.628 0 3.153-.792 4.09-2.124s1.166-3.036.615-4.567l-30-83.444c-.714-1.985-2.596-3.309-4.705-3.309h-98.912v-27.43c0-2.761-2.238-5-5-5h-38.431v-44.725c0-16.127-5.105-31.449-14.766-44.31-8.906-11.858-21.408-20.908-35.382-25.654l-19.265-37.579c-.855-1.669-2.573-2.719-4.449-2.719-1.875 0-3.594 1.05-4.449 2.719l-19.266 37.579c-13.973 4.746-26.476 13.795-35.382 25.654-9.66 12.861-14.766 28.183-14.766 44.31v44.725h-38.431c-2.761 0-5 2.239-5 5v27.43h-98.911c-2.109 0-3.992 1.324-4.705 3.309l-30 83.444c-.551 1.532-.321 3.236.615 4.567.937 1.332 2.462 2.124 4.09 2.124h7.788v125.093c-10.02 14.627-15.891 32.309-15.891 51.338 0 13.659 11.112 24.771 24.771 24.771h.759c-.043.57-.069 1.145-.069 1.726 0 12.773 10.392 23.165 23.165 23.165 7.357 0 13.919-3.451 18.165-8.815 4.246 5.364 10.808 8.815 18.165 8.815 12.773 0 23.165-10.392 23.165-23.165 0-.581-.026-1.156-.069-1.726h43.643c-.043.57-.069 1.145-.069 1.726 0 12.773 10.392 23.165 23.165 23.165 7.357 0 13.919-3.451 18.166-8.815 4.246 5.364 10.808 8.815 18.165 8.815 12.773 0 23.165-10.392 23.165-23.165 0-.581-.026-1.156-.069-1.726h.32c8.07 0 15.249-3.88 19.774-9.871 3.746 4.956 9.308 8.462 15.687 9.527-.061.683-.103 1.371-.103 2.07 0 12.773 10.393 23.165 23.166 23.165 7.357 0 13.919-3.451 18.165-8.815 4.246 5.364 10.808 8.815 18.165 8.815 12.773 0 23.165-10.392 23.165-23.165 0-.581-.028-1.155-.07-1.726h43.639c-.042.57-.065 1.145-.065 1.726 0 12.773 10.392 23.165 23.165 23.165 7.357 0 13.919-3.451 18.165-8.815 4.246 5.364 10.808 8.815 18.165 8.815 12.773 0 23.166-10.392 23.166-23.165 0-.581-.023-1.156-.065-1.726h5.476c13.665 0 24.782-11.118 24.782-24.783v-66.272c-.001-10.646-6.748-19.743-16.19-23.245zm-25.728-170.347 26.404 73.444h-134.313v-67.562h7.513c2.762 0 5-2.239 5-5v-.882zm-175.186 73.444v-28.781h22.503v28.781zm-32.503 0v-28.781h22.503v28.781zm-32.503 0v-28.781h22.503v28.781zm-32.503 0v-28.781h22.503v28.781zm-34.774 0v-28.781h24.774v28.781zm57.277-67.562v28.781h-22.503v-28.781zm32.503 0v28.781h-22.503v-28.781zm32.503 0v28.781h-22.503v-28.781zm32.503 0v28.781h-22.503v-28.781zm34.774 0v28.781h-24.774v-28.781zm-164.786 28.782h-24.774v-28.781h24.774zm140.012 10h24.774v28.781h-24.774zm-177.299-77.093h38.431c2.761 0 5-2.239 5-5v-49.725c0-28.25 18.132-52.789 45.119-61.063 1.292-.396 2.368-1.297 2.984-2.499l15.759-30.74 15.76 30.74c.616 1.202 1.692 2.104 2.983 2.499 26.987 8.273 45.119 32.813 45.119 61.063v49.725c0 2.761 2.238 5 5 5h38.431v28.312h-214.586zm-105.396 32.429h95.396v.882c0 2.761 2.239 5 5 5h7.513v67.562h-134.314zm-15.728 83.444h456.834v85.364h-28.829v-45.09c0-2.761-2.238-5-5-5h-70.019c-2.762 0-5 2.239-5 5v45.09h-47.481c-7.327-33.064-36.852-57.876-72.088-57.876-35.237 0-64.761 24.812-72.088 57.876h-52.024v-45.09c0-2.761-2.239-5-5-5h-70.018c-2.761 0-5 2.239-5 5v54.802c-9.065 4.575-17.265 10.621-24.287 17.822zm418.005 85.365h-60.019v-40.09h60.019zm-189.585 9.871c-4.526-5.991-11.705-9.872-19.774-9.872h-42.046c7.115-27.5 32.123-47.876 61.817-47.876s54.702 20.376 61.817 47.876h-42.033c-8.072.001-15.253 3.881-19.781 9.872zm-174.355.909v6.227c0 24.661-20.063 44.724-44.724 44.724h-19.716c10.489-26.92 34.953-46.89 64.44-50.951zm-19.778-5.383v-45.487h60.018v40.09h-29.13c-10.838 0-21.239 1.907-30.888 5.397zm-11.552 125.331c-7.259 0-13.165-5.906-13.165-13.165 0-.585.044-1.16.119-1.726h26.092c.075.565.119 1.14.119 1.726 0 7.259-5.906 13.165-13.165 13.165zm49.495-13.165c0 7.259-5.906 13.165-13.165 13.165s-13.165-5.906-13.165-13.165c0-.585.044-1.16.119-1.726h26.092c.075.566.119 1.141.119 1.726zm76.669 13.165c-7.259 0-13.165-5.906-13.165-13.165 0-.585.044-1.16.119-1.726h26.092c.075.565.119 1.14.119 1.726.001 7.259-5.905 13.165-13.165 13.165zm49.496-13.165c0 7.259-5.906 13.165-13.165 13.165s-13.165-5.906-13.165-13.165c0-.585.044-1.16.119-1.726h26.092c.075.566.119 1.141.119 1.726zm25.022-26.497c0 8.145-6.626 14.771-14.771 14.771h-209.766c-8.145 0-14.771-6.626-14.771-14.771 0-6.664.825-13.136 2.348-19.336h22.884c30.175 0 54.724-24.549 54.724-54.724v-6.979c.371-.005.738-.028 1.11-.028h143.471c8.145 0 14.771 6.626 14.771 14.771v.012 66.272zm43.753 39.662c-7.26 0-13.166-5.906-13.166-13.165 0-.586.049-1.16.125-1.726h26.081c.076.565.125 1.139.125 1.726 0 7.259-5.906 13.165-13.165 13.165zm49.495-13.165c0 7.259-5.906 13.165-13.165 13.165s-13.165-5.906-13.165-13.165c0-.586.049-1.16.125-1.726h26.08c.076.566.125 1.14.125 1.726zm56.463-55.832h-39.814v-28.552h39.814zm-39.815 10h39.814v34.107h-39.814zm60.021 58.997c-7.259 0-13.165-5.906-13.165-13.165 0-.585.042-1.161.118-1.726h26.094c.076.565.118 1.14.118 1.726 0 7.259-5.906 13.165-13.165 13.165zm49.496-13.165c0 7.259-5.906 13.165-13.166 13.165-7.259 0-13.165-5.906-13.165-13.165 0-.585.042-1.161.118-1.726h26.095c.076.565.118 1.141.118 1.726zm30.193-26.508c0 8.151-6.631 14.783-14.782 14.783h-75.113v-77.659c0-2.761-2.238-5-5-5h-49.814c-2.762 0-5 2.239-5 5v77.659h-75.113c-8.151 0-14.783-6.631-14.783-14.783v-66.272c0-8.151 6.632-14.783 14.783-14.783h210.041c8.151 0 14.782 6.632 14.782 14.783v66.272z"/><path d="m329.102 391.926h-45.522c-2.762 0-5 2.239-5 5v38.552c0 2.761 2.238 5 5 5h45.522c2.762 0 5-2.239 5-5v-38.552c0-2.761-2.239-5-5-5zm-5 38.553h-35.522v-28.552h35.522z"/><path d="m478.028 391.926h-45.523c-2.762 0-5 2.239-5 5v38.552c0 2.761 2.238 5 5 5h45.523c2.762 0 5-2.239 5-5v-38.552c0-2.761-2.238-5-5-5zm-5 38.553h-35.523v-28.552h35.523z"/></g></g></g></svg>