<svg enable-background="new 0 0 512 512" height="512" viewBox="0 0 512 512" width="512" xmlns="http://www.w3.org/2000/svg"><g id="Layer_2"><g><path d="m175.222 8.023h101.725v459.243h-101.725z" fill="#e15f4f"/><path d="m175.222 9.023h101.725v459.243h-101.725z" fill="#e15f4f"/><path d="m175.222 9.023h23.309v459.243h-23.309z" fill="#ca4336"/><g><path d="m312.202 317.464c-8.284 0-15-6.716-15-15v-117.952c0-40.778 33.176-73.954 73.954-73.954s73.954 33.176 73.954 73.954v7.465c0 8.284-6.716 15-15 15s-15-6.716-15-15v-7.465c0-24.236-19.718-43.954-43.954-43.954s-43.954 19.718-43.954 43.954v117.952c0 8.284-6.716 15-15 15z" fill="#494a47"/></g><path d="m26.855 144.414h202.109v360.562h-202.109z" fill="#cdcdc6"/><path d="m26.855 144.414h23.309v360.562h-23.309z" fill="#989898"/><path d="m7.524 106.703h240.77v37.711h-240.77z" fill="#494a47"/><path d="m7.524 106.703h23.309v37.711h-23.309z" fill="#333331"/><path d="m228.964 467.266h275.513v37.711h-275.513z" fill="#494a47"/><path d="m376.11 467.266h-127.816v-100.894c0-35.295 28.613-63.908 63.908-63.908 35.295 0 63.908 28.613 63.908 63.908z" fill="#68c0e0"/><path d="m323.857 303.543c-3.781-.697-7.672-1.08-11.654-1.08-35.295 0-63.908 28.613-63.908 63.908v100.894h23.309v-100.893c-.001-31.313 22.525-57.348 52.253-62.829z" fill="#3282a1"/><path d="m484.11 467.266h-108v-221.288c0-29.823 24.177-54 54-54 29.823 0 54 24.177 54 54z" fill="#68c0e0"/><path d="m441.765 193.253c-3.755-.826-7.651-1.275-11.654-1.275-29.823 0-54 24.177-54 54v221.288h23.309v-221.288c-.001-25.821 18.126-47.395 42.345-52.725z" fill="#3282a1"/><path d="m78.878 406.914h98.062v98.062h-98.062z" fill="#494a47"/><g><path d="m504.476 462.266h-15.366v-216.288c0-25.515-16.282-47.293-39-55.504v-5.962c0-43.535-35.419-78.953-78.954-78.953s-78.954 35.418-78.954 78.953v115.922c-3.548 1.078-6.974 2.434-10.256 4.045v-297.456c0-2.762-2.238-5-5-5h-101.723c-2.762 0-5 2.238-5 5v94.68h-162.699c-2.762 0-5 2.238-5 5v37.711c0 2.762 2.238 5 5 5h14.33v355.562c0 2.762 2.238 5 5 5l477.621.001c2.762 0 5-2.238 5-5v-37.711c.001-2.762-2.238-5-4.999-5zm-25.366-216.288v216.288h-98v-95.894-120.394c0-27.019 21.981-49 49-49s49 21.981 49 49zm-225.816 216.288v-95.894c0-32.482 26.426-58.908 58.908-58.908s58.908 26.426 58.908 58.908v95.894zm156.816-271.792c-22.718 8.211-39 29.989-39 55.504v84.675c-8.725-14.336-22.538-25.244-38.908-30.219v-115.922c0-21.479 17.475-38.953 38.954-38.953s38.954 17.475 38.954 38.953zm-107.908-5.962c0-38.021 30.933-68.953 68.954-68.953s68.954 30.933 68.954 68.953v3.331c-3.253-.558-6.59-.865-10-.865s-6.747.307-10 .865v-3.331c0-26.993-21.961-48.953-48.954-48.953s-48.954 21.96-48.954 48.953v113.687c-3.266-.477-6.603-.734-10-.734s-6.734.257-10 .734zm-121.979-172.489h91.724v298.474c-17.338 12.527-28.652 32.898-28.652 55.875v95.894h-9.33v-312.852h14.33c2.762 0 5-2.238 5-5v-37.711c0-2.762-2.238-5-5-5h-68.071v-89.68zm-167.699 99.68h230.77v27.711h-230.77zm19.33 37.711h192.109v350.562h-42.024v-93.062c0-2.762-2.238-5-5-5h-98.061c-2.762 0-5 2.238-5 5v93.062h-42.024zm52.024 350.562v-88.062h88.062v88.062zm415.598.001h-265.512v-27.711h265.512z"/></g></g></g></svg>