<svg enable-background="new 0 0 512 512" height="512" viewBox="0 0 512 512" width="512" xmlns="http://www.w3.org/2000/svg"><g id="Layer_2"><g><path d="m27.249 236.663h457.501v240.608h-457.501z" fill="#cdcdc6"/><path d="m27.249 236.663h23.309v240.608h-23.309z" fill="#989898"/><path d="m7.524 196.671h496.952v39.992h-496.952z" fill="#494a47"/><path d="m7.524 196.671h23.309v39.992h-23.309z" fill="#333331"/><path d="m185.95 285.014h140.101v192.257h-140.101z" fill="#e15f4f"/><path d="m185.95 285.014h140.101v86.862h-140.101z" fill="#68c0e0"/><path d="m54.956 285.014h97.37v114.882h-97.37z" fill="#68c0e0"/><path d="m54.956 399.896s48.685-52.304 48.685-114.882h-48.685z" fill="#bb5d4c"/><path d="m152.326 399.896s-48.685-52.304-48.685-114.882h48.685z" fill="#bb5d4c"/><path d="m359.674 285.014h97.37v114.882h-97.37z" fill="#68c0e0"/><path d="m359.674 399.896s48.685-52.304 48.685-114.882h-48.685z" fill="#bb5d4c"/><path d="m457.044 399.896s-48.685-52.304-48.685-114.882h48.685z" fill="#bb5d4c"/><path d="m359.661 137.319c-.583-56.758-46.766-102.59-103.661-102.59-56.895 0-103.078 45.833-103.661 102.59h-125.09v59.352h457.501v-59.352z" fill="#cdcdc6"/><g><path d="m27.249 137.319h23.309v59.352h-23.309z" fill="#989898"/></g><g><path d="m504.476 191.671h-14.725v-54.352c0-2.761-2.238-5-5-5h-120.251c-1.479-26.927-12.745-52.026-32.033-71.131-20.482-20.287-47.638-31.459-76.467-31.459s-55.985 11.172-76.467 31.458c-19.288 19.105-30.554 44.204-32.033 71.131h-120.251c-2.762 0-5 2.239-5 5v54.352h-14.725c-2.762 0-5 2.239-5 5v39.992c0 2.761 2.238 5 5 5h14.725v235.608c0 2.761 2.238 5 5 5h457.502c2.762 0 5-2.239 5-5v-235.607h14.725c2.762 0 5-2.239 5-5v-39.992c0-2.761-2.239-5-5-5zm-472.227-49.352h120.09c2.741 0 4.972-2.208 5-4.949.269-26.14 10.649-50.672 29.232-69.078 18.596-18.419 43.252-28.563 69.429-28.563s50.833 10.144 69.429 28.563c18.583 18.406 28.964 42.938 29.232 69.078.028 2.741 2.259 4.949 5 4.949h120.09v49.352h-447.502zm288.801 147.695v76.862h-60.05v-76.862zm-70.05 76.862h-60.05v-76.862h60.05zm-60.05 10h60.05v95.395h-60.05zm70.05 95.395v-95.395h60.05v95.395zm218.751 0h-148.701v-187.257c0-2.761-2.238-5-5-5h-140.1c-2.762 0-5 2.239-5 5v187.257h-148.701v-230.608h447.502zm19.725-240.608h-486.952v-29.992h486.951v29.992z"/><path d="m54.956 404.896h97.369c2.762 0 5-2.239 5-5v-114.882c0-2.761-2.238-5-5-5h-97.369c-2.762 0-5 2.239-5 5v114.882c0 2.762 2.238 5 5 5zm10.75-10c10.293-13.015 29.016-39.982 37.934-73.415 8.918 33.433 27.641 60.4 37.934 73.415zm81.619-9.025c-13.136-17.386-36.753-54.193-38.546-95.857h38.546zm-48.825-95.857c-1.793 41.667-25.408 78.467-38.544 95.852v-95.852z"/><path d="m359.675 404.896h97.369c2.762 0 5-2.239 5-5v-114.882c0-2.761-2.238-5-5-5h-97.369c-2.762 0-5 2.239-5 5v114.882c0 2.762 2.238 5 5 5zm10.753-10c10.288-13.007 29.003-39.935 37.933-73.318 8.93 33.38 27.641 60.309 37.93 73.318zm81.616-9.029c-13.137-17.379-36.782-54.173-38.575-95.853h38.575zm-48.794-95.853c-1.792 41.67-25.437 78.475-38.576 95.858v-95.858z"/><path d="m225.771 73.572c-12.699 0-23.03 12.479-23.03 27.819 0 13.266 7.728 24.385 18.03 27.151v46.858c0 2.761 2.238 5 5 5s5-2.239 5-5v-46.858c10.302-2.767 18.03-13.886 18.03-27.151.001-15.339-10.33-27.819-23.03-27.819zm0 45.639c-7.063 0-13.03-8.16-13.03-17.819s5.967-17.819 13.03-17.819 13.03 8.16 13.03 17.819-5.966 17.819-13.03 17.819z"/><path d="m304.259 73.572c-2.762 0-5 2.239-5 5v26.063c0 4.482-3.581 8.135-8.03 8.27v-33.459c0-2.761-2.238-5-5-5s-5 2.239-5 5v33.458c-4.449-.135-8.03-3.788-8.03-8.27v-26.062c0-2.761-2.238-5-5-5s-5 2.239-5 5v26.063c0 9.996 8.066 18.133 18.03 18.27v52.497c0 2.761 2.238 5 5 5s5-2.239 5-5v-52.497c9.964-.137 18.03-8.273 18.03-18.27v-26.063c0-2.761-2.238-5-5-5z"/></g></g></g></svg>