<svg enable-background="new 0 0 512 512" height="512" viewBox="0 0 512 512" width="512" xmlns="http://www.w3.org/2000/svg"><g id="Layer_2"><g><g><path d="m121.553 197.902v-36.059l134.447-85.166 134.447 85.166v36.059l-134.447-85.166z" fill="#bb5d4c"/><path d="m144.862 147.078-23.309 14.765v36.059l23.309-14.765z" fill="#99473a"/><path d="m21.333 274.855h469.333v227.999h-469.333z" fill="#cdcdc6"/><path d="m21.333 274.855h23.309v227.999h-23.309z" fill="#989898"/><path d="m7.524 237.145h496.952v37.711h-496.952z" fill="#bb5d4c"/><path d="m7.524 237.145h23.309v37.711h-23.309z" fill="#99473a"/><path d="m363.456 504.477h-214.912v-323.814l107.456-67.952 107.456 67.952z" fill="#cdcdc6"/><path d="m171.852 165.923-23.308 14.74v323.814h23.308z" fill="#989898"/><path d="m185.156 406.862h141.688v95.993h-141.688z" fill="#68c0e0"/><path d="m185.156 382.68h141.688v24.182h-141.688z" fill="#bb5d4c"/><circle cx="256" cy="216.103" fill="#fff" r="46.8"/><path d="m21.333 308.659h127.211v64.819h-127.211z" fill="#68c0e0"/><path d="m21.333 308.659h23.309v64.819h-23.309z" fill="#3282a1"/><path d="m21.333 404.232h127.211v64.819h-127.211z" fill="#68c0e0"/><path d="m21.333 404.232h23.309v64.819h-23.309z" fill="#3282a1"/><path d="m363.456 308.659h127.211v64.819h-127.211z" fill="#68c0e0"/><path d="m363.456 404.232h127.211v64.819h-127.211z" fill="#68c0e0"/><path d="m326.844 53.333h-70.844v-45.81h70.844l-20 22.905z" fill="#4eb7a2"/></g><g><path d="m7.524 279.855h8.809v222.999c0 2.761 2.238 5 5 5h469.334c2.762 0 5-2.239 5-5v-222.999h8.809c2.762 0 5-2.239 5-5v-37.711c0-2.761-2.238-5-5-5h-136.02v-42.253l19.314 12.235c.815.516 1.745.776 2.676.776.829 0 1.658-.206 2.41-.62 1.598-.879 2.59-2.557 2.59-4.38v-36.059c0-1.713-.877-3.307-2.324-4.224l-132.122-83.693v-15.593h65.844c1.961 0 3.741-1.146 4.552-2.932.812-1.785.504-3.88-.785-5.357l-17.129-19.617 17.129-19.616c1.289-1.477 1.597-3.572.785-5.357-.811-1.785-2.591-2.932-4.552-2.932h-70.844c-2.762 0-5 2.239-5 5v66.403l-132.122 83.695c-1.447.917-2.324 2.511-2.324 4.224v36.059c0 1.823.992 3.502 2.59 4.38 1.596.878 3.545.82 5.086-.157l19.314-12.235v42.253h-136.02c-2.762 0-5 2.239-5 5v37.711c0 2.762 2.239 5 5 5zm253.476-267.332h54.84l-12.763 14.617c-1.645 1.884-1.645 4.693 0 6.577l12.763 14.617h-54.84zm-10 485.331h-60.844v-85.993h60.844zm70.844 0h-60.844v-85.993h60.844zm0-95.992h-131.688v-14.182h131.688zm36.612 95.992h-26.612v-115.174c0-2.761-2.238-5-5-5h-141.688c-2.762 0-5 2.239-5 5v115.174h-26.612v-314.297l102.456-64.902 102.456 64.902zm127.211 0h-117.211v-23.803h117.211zm-117.211-33.803v-16.331h21.084v16.331zm31.084 0v-16.331h22.521v16.331zm32.522 0v-16.331h22.521v16.331zm53.605 0h-21.085v-16.331h21.085zm0-26.331h-117.211v-28.487h117.211zm0-38.488h-117.211v-20.755h117.211zm-117.211-30.754v-16.331h21.084v16.331zm31.084 0v-16.331h22.521v16.331zm32.522 0v-16.331h22.521v16.331zm53.605 0h-21.085v-16.331h21.085zm0-26.332h-117.211v-28.487h117.211zm0-38.487h-117.211v-23.804h117.211zm13.809-61.514v27.711h-131.02v-27.711zm-372.922-53.329v-24.221l129.446-81.999 129.446 81.999v24.221l-126.774-80.331c-1.631-1.032-3.713-1.032-5.344 0zm16.99 309.038h-117.211v-23.803h117.211zm-117.211-33.803v-16.331h21.085v16.331zm31.085 0v-16.331h22.521v16.331zm32.52 0v-16.331h22.521v16.331zm53.606 0h-21.084v-16.331h21.084zm0-26.331h-117.211v-28.487h117.211zm0-38.488h-117.211v-20.755h117.211zm-117.211-30.754v-16.331h21.085v16.331zm31.085 0v-16.331h22.521v16.331zm32.52 0v-16.331h22.521v16.331zm53.606 0h-21.084v-16.331h21.084zm0-26.332h-117.211v-28.487h117.211zm0-38.487h-117.211v-23.804h117.211zm-131.02-61.514h131.02v27.711h-131.02z"/><path d="m204.2 216.103c0 28.563 23.237 51.8 51.8 51.8s51.8-23.237 51.8-51.8-23.237-51.8-51.8-51.8-51.8 23.237-51.8 51.8zm93.6 0c0 23.049-18.751 41.8-41.8 41.8s-41.8-18.751-41.8-41.8 18.751-41.8 41.8-41.8 41.8 18.751 41.8 41.8z"/><path d="m250.922 186.993c0 2.804 2.273 5.078 5.078 5.078s5.078-2.274 5.078-5.078-2.273-5.078-5.078-5.078-5.078 2.273-5.078 5.078z"/><path d="m256 240.135c-2.804 0-5.078 2.273-5.078 5.078s2.273 5.078 5.078 5.078 5.078-2.274 5.078-5.078-2.274-5.078-5.078-5.078z"/><path d="m285.11 221.181c2.804 0 5.078-2.273 5.078-5.078 0-2.804-2.273-5.078-5.078-5.078s-5.078 2.274-5.078 5.078 2.273 5.078 5.078 5.078z"/><path d="m226.89 211.025c-2.804 0-5.078 2.274-5.078 5.078 0 2.805 2.273 5.078 5.078 5.078s5.078-2.273 5.078-5.078-2.273-5.078-5.078-5.078z"/><path d="m259.359 219.806c1.045-.948 1.641-2.293 1.641-3.703v-15.945c0-2.761-2.238-5-5-5s-5 2.239-5 5v13.73l-4.975 4.514c-2.046 1.855-2.199 5.018-.344 7.063.987 1.088 2.343 1.64 3.705 1.64 1.198 0 2.4-.428 3.357-1.297z"/></g></g></g></svg>