<svg enable-background="new 0 0 512 512" height="512" viewBox="0 0 512 512" width="512" xmlns="http://www.w3.org/2000/svg"><g id="Layer_2"><g><g><path d="m504.476 503.281h-496.952l18.51-264.509 229.966-145.422 229.966 145.422z" fill="#cdcdc6"/><path d="m267.654 100.72-11.654-7.37-229.966 145.422-18.51 264.509h23.308l18.511-264.509z" fill="#989898"/><path d="m354.613 396.518c-66.716-1.981-98.613-98.203-98.613-98.203s-31.897 96.221-98.613 98.203l-25.761 106.762h248.748z" fill="#494a47"/><path d="m303.383 183.502h-28.062v-28.062h-38.642v28.062h-28.062v38.642h28.062v28.063h38.642v-28.063h28.062z" fill="#68c0e0"/></g><path d="m256 7.523h63.922v49.791h-63.922z" fill="#e15f4f"/><g><path d="m490.954 238.424c-.111-1.588-.972-3.027-2.316-3.877l-227.638-143.95v-28.283h58.923c2.762 0 5-2.238 5-5v-49.791c0-2.762-2.238-5-5-5h-63.923c-2.762 0-5 2.238-5 5v83.074l-227.638 143.95c-1.345.85-2.205 2.289-2.316 3.877l-18.51 264.508c-.097 1.383.386 2.744 1.331 3.759.946 1.014 2.271 1.59 3.657 1.59h496.951c1.387 0 2.711-.576 3.657-1.59.945-1.015 1.428-2.376 1.331-3.759zm-176.031-186.11h-53.923v-39.791h53.923zm-176.947 445.966 23.401-96.979c27.513-2.271 53.191-20.116 74.486-51.841 9.425-14.04 16.09-27.879 20.137-37.358 4.047 9.479 10.712 23.318 20.137 37.358 21.295 31.725 46.974 49.57 74.486 51.841l23.401 96.979zm246.335 0-24.838-102.935c-.528-2.191-2.459-3.758-4.712-3.825-59.447-1.767-90.661-85.309-93.761-94.048v-19.854c0-2.762-2.238-5-5-5s-5 2.238-5 5v19.854c-3.09 8.735-34.234 92.279-93.761 94.047-2.253.067-4.184 1.634-4.712 3.825l-24.838 102.936h-114.802l17.959-256.635 225.154-142.378 225.154 142.379 17.959 256.635h-114.802z"/><path d="m303.383 178.502h-23.062v-23.062c0-2.762-2.238-5-5-5h-38.643c-2.762 0-5 2.238-5 5v23.062h-23.062c-2.762 0-5 2.238-5 5v38.643c0 2.762 2.238 5 5 5h23.062v23.063c0 2.762 2.238 5 5 5h38.643c2.762 0 5-2.238 5-5v-23.063h23.062c2.762 0 5-2.238 5-5v-38.643c0-2.762-2.238-5-5-5zm-5 38.643h-23.062c-2.762 0-5 2.238-5 5v23.063h-28.643v-23.063c0-2.762-2.238-5-5-5h-23.062v-28.643h23.062c2.762 0 5-2.238 5-5v-23.062h28.643v23.062c0 2.762 2.238 5 5 5h23.062z"/></g></g></g></svg>