<svg enable-background="new 0 0 512 512" height="512" viewBox="0 0 512 512" width="512" xmlns="http://www.w3.org/2000/svg"><g id="Layer_2"><g><path d="m256 7.524-248.476 89.615v39.049l248.476-89.615 248.476 89.615v-39.049z" fill="#494a47"/><g><path d="m27.998 97.139 238.239-85.923-10.237-3.692-248.476 89.615v39.049l20.474-7.384z" fill="#333331"/></g><path d="m7.524 440.626h131.974v63.85h-131.974z" fill="#cdcdc6"/><path d="m7.524 440.626h22.785v63.85h-22.785z" fill="#989898"/><path d="m372.502 440.626h131.974v63.85h-131.974z" fill="#cdcdc6"/><g fill="#f8d250"><path d="m99.865 128.323h39.633v312.303h-39.633z"/><path d="m372.502 128.323h39.633v312.303h-39.633z"/><path d="m139.498 158.99h233.005v37.749h-233.005z"/></g><g><path d="m210.918 256h90.165v53.815h-90.165z" fill="#494a47"/><path d="m334.689 399.414h-153.635v-89.4l76.818-24.551 76.817 24.551z" fill="#e15f4f"/><path d="m268.59 288.889-10.718-3.426-76.818 24.551v89.4h21.437v-89.4z" fill="#ca4336"/><path d="m337.672 500.584h-163.344l-22.185-106.336 103.857-45.429 103.857 45.429z" fill="#494a47"/><path d="m267.654 353.917-11.654-5.098-103.857 45.429 22.185 106.336h23.309l-22.186-106.336z" fill="#333331"/><path d="m210.918 316.912h90.165v20.144h-90.165z" fill="#68c0e0"/></g><path d="m63.285 440.626h-32.976v-312.655l32.976-11.894z" fill="#cdcdc6"/><path d="m448.716 440.626h32.976v-312.655l-32.976-11.894z" fill="#cdcdc6"/><g><path d="m502.779 140.892c.552.199 1.125.297 1.696.297 1.015 0 2.021-.31 2.874-.908 1.333-.937 2.126-2.463 2.126-4.092v-39.049c0-2.107-1.321-3.988-3.304-4.703l-248.475-89.617c-1.096-.396-2.296-.396-3.393 0l-248.475 89.617c-1.982.715-3.304 2.596-3.304 4.703v39.049c0 1.629.793 3.155 2.126 4.092 1.333.935 3.039 1.165 4.57.611l16.088-5.802v300.537h-17.784c-2.761 0-5 2.238-5 5v63.851c0 2.762 2.239 5 5 5h131.974c2.761 0 5-2.238 5-5 0 0 .021-302.523.009-302.738h222.996v302.738c0 2.762 2.238 5 5 5h131.973c2.762 0 5-2.238 5-5v-63.851c0-2.762-2.238-5-5-5h-17.783v-300.537zm-368.281 358.585h-121.974v-53.851h121.974zm-99.189-63.851v-304.144l22.976-8.287v312.43h-22.976zm71.62-34.675 12.77-12.816 12.77 12.816-12.77 12.77zm20.533 34.675h-15.526l7.763-7.763zm-22.597-46.771v-15.608l7.776 7.804zm2.058-27.709 12.776-12.822 12.776 12.822-12.776 12.822zm-2.058-12.103v-15.607l7.775 7.804zm14.833-14.888-12.738-12.784 12.738-12.761 12.738 12.761zm-14.833-24.839v-15.566l7.77 7.784zm2.059-27.658 12.774-12.833 12.774 12.833-12.774 12.798zm-2.059-12.105v-15.63l7.779 7.815zm14.833-14.902-12.745-12.804 12.745-12.812 12.745 12.812zm-14.833-24.884v-15.643l7.781 7.822zm2.035-27.777 12.798-12.993 12.798 12.993-12.798 12.865zm-2.035-12.183v-15.868l7.815 7.934zm14.833-15.059-12.448-12.637 12.448-10.505 12.448 10.505zm.001-36.228-6.157-5.197h12.314zm-14.834.566 7.081 5.977-7.081 5.977zm0 273.943 7.763 7.763-7.763 7.763zm29.633 15.491-7.728-7.728 7.728-7.728zm0-39.7-7.741-7.769 7.741-7.769zm0-39.812-7.74-7.769 7.74-7.769zm0-39.726-7.735-7.749 7.735-7.749zm0-39.764-7.744-7.78 7.744-7.78zm0-39.787-7.746-7.786 7.746-7.786zm0-39.96-7.781-7.898 7.781-7.899zm0-38.761-7.046-5.947 7.046-5.947zm233.005 40.728h-223.005v-27.749h223.005zm0-37.749h-223.005v-25.666c0-2.762-2.239-5-5-5h-39.633c-2.761 0-5 2.238-5 5v307.303h-26.58v-316.037l187.715-67.701 187.716 67.702v316.036h-26.58v-307.303c0-2.762-2.238-5-5-5h-39.633c-2.762 0-5 2.238-5 5zm24.816 234.146 12.77 12.816-12.77 12.77-12.77-12.77zm-14.816.703v-15.572l7.758 7.786zm2.041-27.692 12.775-12.822 12.776 12.822-12.775 12.822zm-2.041-12.121v-15.572l7.758 7.786zm2.078-27.654 12.738-12.761 12.738 12.761-12.738 12.784zm-2.078-12.073v-15.531l7.751 7.766zm2.042-27.64 12.774-12.833 12.775 12.833-12.775 12.797zm-2.042-12.123v-15.593l7.761 7.796zm2.07-27.688 12.746-12.812 12.745 12.812-12.745 12.804zm-2.07-12.098v-15.607l7.763 7.804zm2.018-27.759 12.799-12.993 12.799 12.993-12.799 12.865zm-2.018-12.201v-15.832l7.798 7.916zm14.816-15.041-12.448-12.637 12.448-10.506 12.448 10.506zm0-36.228-6.157-5.197h12.315zm-14.816.581 7.064 5.962-7.064 5.962zm0 273.945 7.746 7.746-7.746 7.746zm14.816 14.816 7.764 7.764h-15.527zm7.071-7.07 7.746-7.746v15.492zm-.012-39.74 7.758-7.786v15.572zm0-39.813 7.758-7.786v15.572zm.006-39.706 7.752-7.766v15.532zm-.01-39.795 7.762-7.797v15.595zm-.002-39.793 7.764-7.804v15.608zm-.034-40.072 7.798-7.917v15.833zm.733-36.81 7.064-5.962v11.925zm99.405 300.563v53.851h-121.973v-53.851zm-45.76-10v-312.43l22.977 8.287v304.143zm-196.02-393.757c-.548-.198-1.122-.297-1.696-.297s-1.148.099-1.696.297l-241.78 87.201v-28.419l243.476-87.812 243.476 87.813v28.419z"/><path d="m301.082 311.912h-90.165c-2.761 0-5 2.238-5 5v20.145c0 2.762 2.239 5 5 5h90.165c2.762 0 5-2.238 5-5v-20.145c0-2.762-2.238-5-5-5zm-5 20.145h-80.165v-10.145h80.165z"/><path d="m361.861 389.667-24.044-10.518v-69.135c0-2.175-1.406-4.101-3.478-4.763l-28.258-9.032v-40.219c0-2.762-2.238-5-5-5h-90.165c-2.761 0-5 2.238-5 5v40.221l-28.257 9.031c-2.072.662-3.478 2.588-3.478 4.763v69.135l-24.044 10.518c-2.167.948-3.374 3.286-2.891 5.603l22.186 106.336c.483 2.317 2.527 3.979 4.895 3.979h163.344c2.368 0 4.411-1.661 4.895-3.979l22.186-106.336c.483-2.318-.723-4.656-2.891-5.604zm-145.944-128.667h80.165v32.024l-38.56-12.324c-.99-.316-2.055-.316-3.044 0l-38.561 12.324zm-31.734 52.666 71.817-22.954 71.817 22.954v61.109l-69.813-30.538c-1.277-.559-2.73-.559-4.008 0l-69.813 30.538zm-5.79 181.918-20.526-98.382 93.133-40.74v139.122zm155.214 0h-72.607v-139.122l93.134 40.74z"/></g></g></g></svg>