<svg enable-background="new 0 0 512 512" height="512" viewBox="0 0 512 512" width="512" xmlns="http://www.w3.org/2000/svg"><g id="Layer_2"><g><g><path d="m479.631 192.209v132.92 140.484h-447.262v-70.242h222.744v-203.162z" fill="#fed2a4"/><path d="m32.369 395.371h23.309v70.242h-23.309z" fill="#f2af7c"/><path d="m37.524 192.209h217.589v203.163h-217.589z" fill="#68c0e0"/><path d="m37.524 192.209h23.309v203.163h-23.309z" fill="#3282a1"/><path d="m293.942 221.461h149.02v244.152h-149.02z" fill="#e15f4f"/><path d="m293.942 221.461h23.309v244.152h-23.309z" fill="#bf3730"/><path d="m318.787 221.461h99.33v137.406h-99.33z" fill="#68c0e0"/><path d="m318.787 221.461h23.309v137.406h-23.309z" fill="#3282a1"/><path d="m32.369 241.899c-13.722 0-24.845-11.124-24.845-24.845v-24.845h49.69v24.845c0 13.721-11.123 24.845-24.845 24.845z" fill="#e15f4f"/><path d="m30.832 217.054v-24.845h-23.308v24.845c0 13.722 11.124 24.845 24.845 24.845 4.213 0 8.178-1.052 11.654-2.902-7.846-4.177-13.191-12.434-13.191-21.943z" fill="#bf3730"/><path d="m82.059 241.899c-13.722 0-24.845-11.124-24.845-24.845v-24.845h49.69v24.845c0 13.721-11.123 24.845-24.845 24.845z" fill="#fff"/><path d="m131.749 241.899c-13.722 0-24.845-11.124-24.845-24.845v-24.845h49.69v24.845c.001 13.721-11.123 24.845-24.845 24.845z" fill="#e15f4f"/><path d="m181.44 241.899c-13.722 0-24.845-11.124-24.845-24.845v-24.845h49.69v24.845c0 13.721-11.124 24.845-24.845 24.845z" fill="#fff"/><path d="m231.13 241.899c-13.722 0-24.845-11.124-24.845-24.845v-24.845h49.69v24.845c0 13.721-11.124 24.845-24.845 24.845z" fill="#e15f4f"/><path d="m280.82 241.899c-13.722 0-24.845-11.124-24.845-24.845v-24.845h49.69v24.845c0 13.721-11.123 24.845-24.845 24.845z" fill="#fff"/><path d="m330.51 241.899c-13.722 0-24.845-11.124-24.845-24.845v-24.845h49.69v24.845c0 13.721-11.123 24.845-24.845 24.845z" fill="#e15f4f"/><path d="m380.2 241.899c-13.722 0-24.845-11.124-24.845-24.845v-24.845h49.69v24.845c0 13.721-11.123 24.845-24.845 24.845z" fill="#fff"/><path d="m429.891 241.899c-13.722 0-24.845-11.124-24.845-24.845v-24.845h49.69v24.845c0 13.721-11.124 24.845-24.845 24.845z" fill="#e15f4f"/><path d="m479.631 241.899c-13.722 0-24.845-11.124-24.845-24.845v-24.845h49.69v24.845c0 13.721-11.123 24.845-24.845 24.845z" fill="#fff"/><path d="m504.476 192.209h-496.952l30-115.547h436.952z" fill="#fff"/><path d="m37.524 46.387h436.952v30.275h-436.952z" fill="#fed2a4"/><path d="m37.524 46.387h23.309v30.275h-23.309z" fill="#f2af7c"/><path d="m37.524 76.661-30 115.548h49.69l27-115.548z" fill="#e15f4f"/><path d="m37.524 76.661-30 115.548h23.308l30-115.548z" fill="#bf3730"/><g fill="#e15f4f"><path d="m156.595 192.209 10-115.547h-39.691l-20 115.547z"/><path d="m255.975 192.209v-115.547h-39.69l-10 115.547z"/><path d="m305.678 192.209-10-115.547h49.677l10 115.547z"/><path d="m405.045 192.209-20-115.547h42.691l27 115.547z"/></g><path d="m318.737 387.919h99.38v48.318h-99.38z" fill="#bf3730"/></g><g><path d="m509.315 190.952-29.84-114.93v-29.635c0-2.761-2.238-5-5-5h-436.951c-2.762 0-5 2.239-5 5v29.635l-29.84 114.93c-.107.411-.154.829-.155 1.246-.001.001-.005.011-.005.011v24.845c0 16.457 13.389 29.845 29.845 29.845.052 0 .103-.004.155-.004v143.476h-.155c-2.762 0-5 2.239-5 5v70.242c0 2.761 2.238 5 5 5h447.262c2.762 0 5-2.239 5-5v-219.141c14.083-2.387 24.845-14.666 24.845-29.418v-24.845s-.004-.009-.005-.011c-.001-.417-.049-.835-.156-1.246zm-11.303-3.744h-39.31l-24.663-105.546h36.57zm-187.347 10h39.69v19.845c0 10.943-8.902 19.845-19.846 19.845-10.942 0-19.845-8.902-19.845-19.845v-19.845zm-.401-10-9.135-105.547h39.64l9.135 105.547zm13.523 58.918c2.162.5 4.411.773 6.723.773 10.354 0 19.491-5.302 24.846-13.332 5.354 8.03 14.491 13.332 24.845 13.332s19.491-5.302 24.846-13.332c2.141 3.21 4.885 5.984 8.071 8.158v112.142h-89.33v-107.741zm36.154-58.918-9.135-105.547h30.03l18.269 105.547zm40.105 10v19.845c0 10.943-8.902 19.845-19.846 19.845-10.942 0-19.845-8.902-19.845-19.845v-19.845zm-9.06-115.546h32.783l24.663 105.547h-39.177zm-348.462-30.275h426.951v20.274h-426.951zm257.702 135.821h-39.252v-105.546h30.117zm-187.382 0 18.269-105.547h30.03l-9.135 105.547zm38.751 10v19.845c0 10.943-8.902 19.845-19.846 19.845-10.942 0-19.845-8.902-19.845-19.845v-19.845zm-48.9-10h-39.178l24.663-105.546h32.784zm-.791 10v19.845c0 10.943-8.902 19.845-19.845 19.845s-19.846-8.902-19.846-19.845v-19.845zm-19.844 49.691c10.354 0 19.49-5.302 24.845-13.332 5.354 8.03 14.491 13.332 24.845 13.332s19.491-5.302 24.846-13.332c5.354 8.03 14.491 13.332 24.845 13.332s19.491-5.302 24.846-13.332c5.354 8.03 14.491 13.332 24.845 13.332 7.205 0 13.821-2.566 18.983-6.833v150.305h-207.591v-145.254c6.042-2.193 11.178-6.285 14.689-11.551 5.355 8.03 14.492 13.333 24.847 13.333zm119.225-49.691v19.845c0 10.943-8.902 19.845-19.846 19.845-10.942 0-19.845-8.902-19.845-19.845v-19.845zm-39.239-10 9.135-105.547h39.653l-9.135 105.547zm69.084 49.691c-10.942 0-19.845-8.902-19.845-19.845v-19.845h38.828v25.615c-2.478 8.136-10.047 14.075-18.983 14.075zm-19.393-49.691 9.135-105.547h30.103v105.547zm-170.345-105.546h36.519l-24.664 105.546h-39.259zm-9.023 155.237c-10.942 0-19.845-8.902-19.845-19.845v-19.845h39.689v19.845c.001 10.943-8.901 19.845-19.844 19.845zm256.572 223.714h-251.572v-60.242h.155 217.589c2.762 0 5-2.239 5-5v-156.854c5.371 5.184 12.671 8.382 20.707 8.382 2.815 0 5.537-.4 8.121-1.132zm-8.121-223.714c-10.943 0-19.846-8.902-19.846-19.845v-19.845h39.69v19.845c.001 10.943-8.901 19.845-19.844 19.845zm157.142 223.714h-139.021v-219.868c2.615-2.005 4.892-4.431 6.724-7.178 2.152 3.228 4.914 6.015 8.122 8.194v117.106c0 2.761 2.238 5 5 5h99.33c2.762 0 5-2.239 5-5v-112.753c2.178.508 4.443.785 6.773.785 2.797 0 5.502-.395 8.071-1.118v214.832zm-8.071-223.714c-10.942 0-19.845-8.902-19.845-19.845v-19.845h39.689v19.845c0 10.943-8.902 19.845-19.844 19.845zm44.74 223.714h-26.669v-219.829c2.649-2.022 4.95-4.476 6.799-7.257 4.472 6.729 11.597 11.542 19.87 12.945zm24.845-243.559c0 10.943-8.902 19.845-19.845 19.845s-19.845-8.902-19.845-19.845v-19.845h39.689v19.845z"/><path d="m418.117 382.919h-99.381c-2.762 0-5 2.239-5 5v48.318c0 2.761 2.238 5 5 5h99.381c2.762 0 5-2.239 5-5v-48.318c0-2.761-2.238-5-5-5zm-5 48.318h-89.381v-38.318h89.381z"/></g></g></g></svg>