<svg enable-background="new 0 0 512 512" height="512" viewBox="0 0 512 512" width="512" xmlns="http://www.w3.org/2000/svg"><g id="Layer_2"><g><g><path d="m7.524 191.478h496.952v312.998h-496.952z" fill="#cdcdc6"/><path d="m7.524 191.478h23.309v312.998h-23.309z" fill="#989898"/><path d="m7.524 238.305h496.952v158.622h-496.952z" fill="#68c0e0"/><path d="m7.524 238.305h23.309v158.622h-23.309z" fill="#3282a1"/><path d="m396.187 504.476h-280.374v-356.766c0-77.423 62.764-140.187 140.187-140.187 77.423 0 140.187 62.764 140.187 140.187z" fill="#fed2a4"/><path d="m322.732 168.254h-133.464v-48.325c0-36.855 29.877-66.732 66.732-66.732 36.855 0 66.732 29.877 66.732 66.732z" fill="#68c0e0"/><path d="m78.161 148.437h75.303v356.039h-75.303z" fill="#cdcdc6"/><path d="m78.161 148.437h23.309v356.039h-23.309z" fill="#989898"/><path d="m358.536 148.437h75.303v356.039h-75.303z" fill="#cdcdc6"/><path d="m350.874 110.726h90.627v37.711h-90.627z" fill="#494a47"/><path d="m70.499 110.726h90.627v37.711h-90.627z" fill="#494a47"/><path d="m70.499 110.726h23.309v37.711h-23.309z" fill="#333331"/><g fill="#68c0e0"><path d="m189.268 406.862h133.464v97.614h-133.464z"/><path d="m153.464 200.613h205.072v147.364h-205.072z"/></g></g><g><path d="m504.476 186.478h-65.637v-33.041h2.662c2.761 0 5-2.239 5-5v-37.71c0-2.761-2.239-5-5-5h-46.52c-18.054-59.649-73.519-103.204-138.981-103.204s-120.927 43.555-138.981 103.203h-46.52c-2.761 0-5 2.239-5 5v37.71c0 2.761 2.239 5 5 5h2.662v33.041h-65.637c-2.761 0-5 2.239-5 5v312.999c0 2.761 2.239 5 5 5h496.952c2.761 0 5-2.239 5-5v-312.998c0-2.762-2.239-5-5-5zm-431.315 312.998h-60.637v-97.55h60.637zm0-107.55h-60.637v-148.621h60.637zm0-158.621h-60.637v-36.827h60.637zm75.303 266.171h-65.303v-346.04h65.303zm7.662-356.039h-80.627v-27.71h80.627zm94.874 356.039h-56.732v-87.614h56.732zm66.732 0h-56.732v-87.614h56.732zm35.804 0h-25.804v-92.614c0-2.761-2.239-5-5-5h-133.464c-2.761 0-5 2.239-5 5v92.614h-25.804v-146.499h195.072zm-170.893-269.303v14.561h-24.179v-14.561zm-24.179-10v-14.561h24.179v14.561zm24.179 34.561v14.561h-24.179v-14.561zm0 24.561v14.561h-24.179v-14.561zm0 24.56v14.561h-24.179v-14.561zm0 24.561v14.561h-24.179v-14.561zm34.178-98.243v14.561h-24.179v-14.561zm-24.178-10v-14.561h24.179v14.561zm24.178 34.561v14.561h-24.179v-14.561zm0 24.561v14.561h-24.179v-14.561zm0 24.56v14.561h-24.179v-14.561zm0 24.561v14.561h-24.179v-14.561zm34.179-98.243v14.561h-24.179v-14.561zm-24.179-10v-14.561h24.179v14.561zm24.179 34.561v14.561h-24.179v-14.561zm0 24.561v14.561h-24.179v-14.561zm0 24.56v14.561h-24.179v-14.561zm0 24.561v14.561h-24.179v-14.561zm34.179-98.243v14.561h-24.179v-14.561zm-24.179-10v-14.561h24.179v14.561zm24.179 34.561v14.561h-24.179v-14.561zm0 24.561v14.561h-24.179v-14.561zm0 24.56v14.561h-24.179v-14.561zm0 24.561v14.561h-24.179v-14.561zm34.178-98.243v14.561h-24.179v-14.561zm-24.178-10v-14.561h24.179v14.561zm24.178 34.561v14.561h-24.179v-14.561zm0 24.561v14.561h-24.179v-14.561zm0 24.56v14.561h-24.179v-14.561zm0 24.561v14.561h-24.179v-14.561zm34.179 14.561h-24.179v-14.561h24.179zm0-24.561h-24.179v-14.561h24.179zm0-24.561h-24.179v-14.561h24.179zm0-24.56h-24.179v-14.561h24.179zm0-24.561h-24.179v-14.561h24.179zm0-24.561h-24.179v-14.561h24.179zm0-24.56h-195.072v-42.176h2.662c2.761 0 5-2.239 5-5v-37.71c0-2.761-2.239-5-5-5h-33.627c17.703-54.051 68.61-93.204 128.501-93.204s110.798 39.153 128.501 93.203h-33.627c-2.761 0-5 2.239-5 5v37.71c0 2.761 2.239 5 5 5h2.662zm75.303 303.863h-65.303v-346.04h65.303zm7.662-356.039h-80.627v-27.71h80.627zm62.975 356.039h-60.637v-97.55h60.637zm0-107.55h-60.637v-148.621h60.637zm0-158.621h-60.637v-36.827h60.637z"/><path d="m256 48.197c-39.553 0-71.732 32.179-71.732 71.732v48.325c0 2.761 2.239 5 5 5h133.464c2.761 0 5-2.239 5-5v-48.325c0-39.553-32.179-71.732-71.732-71.732zm61.732 115.057h-123.464v-43.325c0-34.039 27.693-61.732 61.732-61.732s61.732 27.693 61.732 61.732z"/></g></g></g></svg>