<svg enable-background="new 0 0 512 512" height="512" viewBox="0 0 512 512" width="512" xmlns="http://www.w3.org/2000/svg"><g id="Layer_2"><g><path d="m304.587 504.477h-97.174l20-284.998h57.174z" fill="#cdcdc6"/><path d="m227.413 219.479-20 284.998h23.308l20-284.998z" fill="#989898"/><path d="m221.475 165.974c-6.694 7.891-10.74 18.1-10.74 29.259 0 24.999 20.266 45.265 45.265 45.265s45.265-20.266 45.265-45.265c0-11.159-4.046-21.367-10.74-29.259z" fill="#cdcdc6"/><path d="m234.172 195.233c0-11.159 4.046-21.367 10.74-29.259h-23.438c-6.694 7.891-10.74 18.1-10.74 29.259 0 24.999 20.266 45.265 45.265 45.265 4.054 0 7.98-.541 11.719-1.54-19.316-5.165-33.546-22.779-33.546-43.725z" fill="#989898"/><path d="m221.475 139.883h69.05v26.092h-69.05z" fill="#cdcdc6"/><path d="m221.475 139.883h23.309v26.092h-23.309z" fill="#989898"/><path d="m218.044 256h75.912v23.919h-75.912z" fill="#cdcdc6"/><path d="m218.044 256h23.309v23.919h-23.309z" fill="#989898"/><path d="m234.173 95.603h43.655v44.28h-43.655z" fill="#cdcdc6"/><path d="m234.173 95.603h23.309v44.28h-23.309z" fill="#989898"/><path d="m223.804 70.525h64.391v25.078h-64.391z" fill="#cdcdc6"/><path d="m223.804 70.525h23.309v25.078h-23.309z" fill="#989898"/><g><path d="m294.189 284.896c2.651-.125 4.767-2.295 4.767-4.977v-23.919c0-2.762-2.238-5-5-5h-2.145l-1.349-19.226c9.719-9.171 15.803-22.155 15.803-36.541 0-11.259-3.804-22.201-10.739-31.029v-24.322c0-2.762-2.238-5-5-5h-7.698v-12.14h5.368c2.762 0 5-2.238 5-5s-2.238-5-5-5h-5.368v-12.141h5.368c2.762 0 5-2.238 5-5v-25.076c0-2.762-2.238-5-5-5h-27.196v-7.192h3.422c2.762 0 5-2.238 5-5s-2.238-5-5-5h-3.422v-7.191h3.422c2.762 0 5-2.238 5-5s-2.238-5-5-5h-3.422v-7.192h3.422c2.762 0 5-2.238 5-5s-2.238-5-5-5h-3.422v-6.427c0-2.762-2.238-5-5-5-2.761 0-5 2.238-5 5v6.426h-3.422c-2.761 0-5 2.238-5 5s2.239 5 5 5h3.422v7.192h-3.422c-2.761 0-5 2.238-5 5s2.239 5 5 5h3.422v7.191h-3.422c-2.761 0-5 2.238-5 5s2.239 5 5 5h3.422v7.192h-27.195c-2.761 0-5 2.238-5 5v25.077c0 2.762 2.239 5 5 5h5.368v12.141h-5.368c-2.761 0-5 2.238-5 5s2.239 5 5 5h5.368v12.14h-7.697c-2.761 0-5 2.238-5 5v24.322c-6.936 8.828-10.74 19.771-10.74 31.029 0 14.385 6.084 27.369 15.803 36.54l-1.351 19.227h-2.144c-2.761 0-5 2.238-5 5v23.919c0 2.682 2.116 4.852 4.766 4.977l-15.385 219.231c-.097 1.383.385 2.745 1.331 3.759.946 1.015 2.271 1.591 3.657 1.591h97.174c1.387 0 2.712-.576 3.657-1.591.945-1.014 1.428-2.376 1.33-3.759zm-71.145-9.977v-13.919h65.912v13.919zm5.761-199.394h54.391v15.077h-54.391zm10.367 25.078h33.655v12.141h-33.655zm0 22.14h33.655v12.14h-33.655zm-12.697 22.14h59.05v16.092h-59.05zm-10.74 50.35c0-8.766 2.875-17.294 8.139-24.259h64.253c5.263 6.964 8.138 15.493 8.138 24.259 0 22.202-18.063 40.265-40.265 40.265s-40.265-18.062-40.265-40.265zm15.331 43.617c7.354 4.221 15.864 6.648 24.934 6.648s17.58-2.427 24.934-6.648l.853 12.15h-51.574zm-18.29 260.627 15.057-214.558h56.334l15.056 214.558z"/></g></g></g></svg>