<svg enable-background="new 0 0 512 512" height="512" viewBox="0 0 512 512" width="512" xmlns="http://www.w3.org/2000/svg"><g id="Layer_2"><g><g><path d="m197.211 39.149h117.578v46.184h-117.578z" fill="#cdcdc6"/><path d="m177.678 85.333h156.643v419.144h-156.643z" fill="#cdcdc6"/><path d="m177.678 85.333h23.309v419.144h-23.309z" fill="#989898"/><path d="m197.211 39.149h23.338v46.184h-23.338z" fill="#989898"/><path d="m224.624 7.523h62.752v31.626h-62.752z" fill="#cdcdc6"/><path d="m224.624 7.523h23.309v31.626h-23.309z" fill="#989898"/><path d="m306.011 191.478h116.873v312.999h-116.873z" fill="#bb5d4c"/><path d="m111.809 136h104.367v366.855h-104.367z" fill="#bb5d4c"/><path d="m111.809 136h23.309v366.855h-23.309z" fill="#99473a"/><path d="m7.524 249.42h128.476v253.435h-128.476z" fill="#494a47"/><path d="m7.524 249.42h23.309v253.435h-23.309z" fill="#333331"/><path d="m390.891 294.202h113.585v209.643h-113.585z" fill="#494a47"/><g fill="#fed2a4"><path d="m195.56 383.295h60.44v121.182h-60.44z"/><path d="m40.8 429.534h60.44v74.943h-60.44z"/><path d="m147.244 426.667h48.316v77.81h-48.316z"/><path d="m316.44 458.667h60.44v45.81h-60.44z"/><path d="m256 440.864h60.44v63.613h-60.44z"/><path d="m101.241 383.295h46.003v121.182h-46.003z"/><path d="m7.524 455.984h33.276v48.493h-33.276z"/></g><path d="m7.524 455.984h23.309v48.493h-23.309z" fill="#f2af7c"/><path d="m376.88 465.864h46.003v38.613h-46.003z" fill="#fed2a4"/><path d="m458.667 452.567h45.809v51.91h-45.809z" fill="#fed2a4"/><path d="m422.884 421.194h35.783v83.283h-35.783z" fill="#fed2a4"/><path d="m360.036 119.758h46.003v71.719h-46.003z" fill="#494a47"/><path d="m65.806 177.7h46.003v71.719h-46.003z" fill="#494a47"/><path d="m65.806 177.7h23.309v71.719h-23.309z" fill="#333331"/></g><g><path d="m504.476 289.202h-76.592v-97.725c0-2.761-2.238-5-5-5h-11.845v-66.719c0-2.761-2.238-5-5-5h-46.003c-2.762 0-5 2.239-5 5v66.719h-15.715v-101.144c0-2.761-2.238-5-5-5h-14.532v-41.184c0-2.761-2.238-5-5-5h-22.413v-26.626c0-2.761-2.238-5-5-5h-62.752c-2.762 0-5 2.239-5 5v26.626h-22.413c-2.762 0-5 2.239-5 5v41.185h-14.532c-2.762 0-5 2.239-5 5v45.666h-60.869c-2.762 0-5 2.239-5 5v36.7h-41.003c-2.762 0-5 2.239-5 5v66.72h-53.283c-2.762 0-5 2.239-5 5v255.057c0 2.761 2.238 5 5 5h496.951c2.762 0 5-2.239 5-5v-210.275c.001-2.761-2.238-5-4.999-5zm-5 210.275h-35.809v-41.91h35.809zm-45.809 0h-25.783v-73.283h25.783zm45.809-51.91h-35.809v-26.373c0-2.761-2.238-5-5-5h-35.783c-2.762 0-5 2.239-5 5v39.669h-21.992v-161.661h103.584zm-81.592-158.365h-26.992c-2.762 0-5 2.239-5 5v166.662h-4.011v-2.197c0-2.761-2.238-5-5-5h-55.44v-12.803c0-2.761-2.238-5-5-5h-5.43v-239.386h106.873zm-52.848-164.444h36.003v61.719h-36.003zm-135.412-112.235h52.752v21.626h-52.752zm-27.413 31.626h107.578v36.185h-107.578zm-19.532 46.184h146.643v96.144h-23.311c-2.762 0-5 2.239-5 5v244.386h-40.011v-52.569c0-2.761-2.238-5-5-5h-34.824v-242.294c0-2.761-2.238-5-5-5h-33.497zm-65.869 50.667h94.366v237.295h-15.616c-2.762 0-5 2.239-5 5v38.372h-38.315v-38.372c0-2.761-2.238-5-5-5h-6.245v-128.875c0-2.761-2.238-5-5-5h-19.19zm25.434 358.477h-36.004v-111.182h36.004zm-46.004 0h-50.439v-64.943h50.439zm-60.439 0h-23.277v-38.493h23.276v38.493zm35.006-316.777h36.003v61.72h-36.003zm60.193 71.72v123.875h-29.76c-2.762 0-5 2.239-5 5v41.239h-55.439c-2.762 0-5 2.239-5 5v21.45h-23.277v-196.564zm21.244 177.247h38.315v67.811h-38.315zm48.316-43.372h50.44v111.182h-50.44zm60.44 57.569h50.44v53.613h-50.44zm60.44 17.803h50.44v35.811h-50.44zm60.441 7.197h36.003v28.613h-36.003z"/><circle cx="136.03" cy="163.337" r="5.284"/><path d="m191.956 168.621c2.918 0 5.284-2.366 5.284-5.284s-2.366-5.284-5.284-5.284c-2.919 0-5.284 2.366-5.284 5.284s2.366 5.284 5.284 5.284z"/><path d="m163.993 168.621c2.918 0 5.284-2.366 5.284-5.284s-2.366-5.284-5.284-5.284c-2.919 0-5.284 2.366-5.284 5.284s2.365 5.284 5.284 5.284z"/><circle cx="136.03" cy="186.193" r="5.284"/><path d="m191.956 191.478c2.918 0 5.284-2.366 5.284-5.284s-2.366-5.284-5.284-5.284c-2.919 0-5.284 2.366-5.284 5.284s2.366 5.284 5.284 5.284z"/><path d="m163.993 191.478c2.918 0 5.284-2.366 5.284-5.284s-2.366-5.284-5.284-5.284c-2.919 0-5.284 2.366-5.284 5.284s2.365 5.284 5.284 5.284z"/><circle cx="136.03" cy="209.05" r="5.284"/><path d="m191.956 214.334c2.918 0 5.284-2.366 5.284-5.284s-2.366-5.284-5.284-5.284c-2.919 0-5.284 2.366-5.284 5.284s2.366 5.284 5.284 5.284z"/><path d="m163.993 214.334c2.918 0 5.284-2.366 5.284-5.284s-2.366-5.284-5.284-5.284c-2.919 0-5.284 2.366-5.284 5.284s2.365 5.284 5.284 5.284z"/><circle cx="136.03" cy="231.877" r="5.284"/><path d="m191.956 237.161c2.918 0 5.284-2.366 5.284-5.284s-2.366-5.284-5.284-5.284c-2.919 0-5.284 2.366-5.284 5.284s2.366 5.284 5.284 5.284z"/><path d="m163.993 237.161c2.918 0 5.284-2.366 5.284-5.284s-2.366-5.284-5.284-5.284c-2.919 0-5.284 2.366-5.284 5.284s2.365 5.284 5.284 5.284z"/><circle cx="419.72" cy="329.54" r="5.284"/><circle cx="475.647" cy="329.54" r="5.284"/><circle cx="447.684" cy="329.54" r="5.284"/><path d="m419.72 357.681c2.918 0 5.284-2.366 5.284-5.284 0-2.919-2.366-5.285-5.284-5.285-2.919 0-5.284 2.366-5.284 5.285 0 2.918 2.366 5.284 5.284 5.284z"/><path d="m475.647 357.681c2.918 0 5.284-2.366 5.284-5.284 0-2.919-2.366-5.285-5.284-5.285-2.919 0-5.284 2.366-5.284 5.285 0 2.918 2.366 5.284 5.284 5.284z"/><path d="m447.684 357.681c2.918 0 5.284-2.366 5.284-5.284 0-2.919-2.366-5.285-5.284-5.285-2.919 0-5.284 2.366-5.284 5.285-.001 2.918 2.365 5.284 5.284 5.284z"/><path d="m419.72 380.537c2.918 0 5.284-2.366 5.284-5.284s-2.366-5.284-5.284-5.284c-2.919 0-5.284 2.366-5.284 5.284s2.366 5.284 5.284 5.284z"/><path d="m475.647 380.537c2.918 0 5.284-2.366 5.284-5.284s-2.366-5.284-5.284-5.284c-2.919 0-5.284 2.366-5.284 5.284s2.366 5.284 5.284 5.284z"/><path d="m447.684 380.537c2.918 0 5.284-2.366 5.284-5.284s-2.366-5.284-5.284-5.284c-2.919 0-5.284 2.366-5.284 5.284s2.365 5.284 5.284 5.284z"/><path d="m419.72 403.364c2.918 0 5.284-2.366 5.284-5.284s-2.366-5.284-5.284-5.284c-2.919 0-5.284 2.366-5.284 5.284s2.366 5.284 5.284 5.284z"/><path d="m475.647 403.364c2.918 0 5.284-2.366 5.284-5.284s-2.366-5.284-5.284-5.284c-2.919 0-5.284 2.366-5.284 5.284s2.366 5.284 5.284 5.284z"/><path d="m447.684 403.364c2.918 0 5.284-2.366 5.284-5.284s-2.366-5.284-5.284-5.284c-2.919 0-5.284 2.366-5.284 5.284s2.365 5.284 5.284 5.284z"/><circle cx="43.799" cy="285.67" r="5.284"/><circle cx="99.725" cy="285.67" r="5.284"/><circle cx="71.762" cy="285.67" r="5.284"/><circle cx="43.799" cy="308.526" r="5.284"/><circle cx="99.725" cy="308.526" r="5.284"/><circle cx="71.762" cy="308.526" r="5.284"/><circle cx="43.799" cy="331.383" r="5.284"/><circle cx="99.725" cy="331.383" r="5.284"/><circle cx="71.762" cy="331.383" r="5.284"/><circle cx="43.799" cy="354.21" r="5.284"/><circle cx="99.725" cy="354.21" r="5.284"/><circle cx="71.762" cy="354.21" r="5.284"/><circle cx="43.799" cy="377.037" r="5.284"/><circle cx="71.762" cy="377.037" r="5.284"/><circle cx="43.799" cy="399.864" r="5.284"/><circle cx="71.762" cy="399.864" r="5.284"/><path d="m191.956 259.989c2.918 0 5.284-2.366 5.284-5.284s-2.366-5.284-5.284-5.284c-2.919 0-5.284 2.366-5.284 5.284s2.366 5.284 5.284 5.284z"/><path d="m163.993 259.989c2.918 0 5.284-2.366 5.284-5.284s-2.366-5.284-5.284-5.284c-2.919 0-5.284 2.366-5.284 5.284s2.365 5.284 5.284 5.284z"/><path d="m191.956 282.816c2.918 0 5.284-2.366 5.284-5.284s-2.366-5.284-5.284-5.284c-2.919 0-5.284 2.366-5.284 5.284s2.366 5.284 5.284 5.284z"/><path d="m163.993 282.816c2.918 0 5.284-2.366 5.284-5.284s-2.366-5.284-5.284-5.284c-2.919 0-5.284 2.366-5.284 5.284s2.365 5.284 5.284 5.284z"/><path d="m191.724 305.707c2.918 0 5.284-2.366 5.284-5.285 0-2.918-2.366-5.284-5.284-5.284s-5.284 2.366-5.284 5.284c-.001 2.919 2.365 5.285 5.284 5.285z"/><path d="m163.76 305.707c2.918 0 5.284-2.366 5.284-5.285 0-2.918-2.366-5.284-5.284-5.284s-5.284 2.366-5.284 5.284c0 2.919 2.366 5.285 5.284 5.285z"/><circle cx="191.724" cy="323.313" r="5.284"/><circle cx="163.76" cy="323.313" r="5.284"/><path d="m191.724 351.488c2.918 0 5.284-2.366 5.284-5.284s-2.366-5.284-5.284-5.284-5.284 2.366-5.284 5.284 2.365 5.284 5.284 5.284z"/><path d="m163.76 351.488c2.918 0 5.284-2.366 5.284-5.284s-2.366-5.284-5.284-5.284-5.284 2.366-5.284 5.284 2.366 5.284 5.284 5.284z"/><path d="m191.724 374.379c2.918 0 5.284-2.366 5.284-5.284s-2.366-5.284-5.284-5.284-5.284 2.366-5.284 5.284 2.365 5.284 5.284 5.284z"/><path d="m163.76 374.379c2.918 0 5.284-2.366 5.284-5.284s-2.366-5.284-5.284-5.284-5.284 2.366-5.284 5.284 2.366 5.284 5.284 5.284z"/><circle cx="163.76" cy="391.985" r="5.284"/><path d="m392.643 216.762c-2.918 0-5.284 2.366-5.284 5.284s2.366 5.284 5.284 5.284 5.284-2.366 5.284-5.284-2.365-5.284-5.284-5.284z"/><path d="m336.716 227.331c2.918 0 5.284-2.366 5.284-5.284s-2.366-5.284-5.284-5.284-5.284 2.366-5.284 5.284 2.366 5.284 5.284 5.284z"/><path d="m364.68 227.331c2.918 0 5.284-2.366 5.284-5.284s-2.366-5.284-5.284-5.284-5.284 2.366-5.284 5.284 2.365 5.284 5.284 5.284z"/><path d="m392.643 239.619c-2.918 0-5.284 2.366-5.284 5.284 0 2.919 2.366 5.284 5.284 5.284s5.284-2.366 5.284-5.284-2.365-5.284-5.284-5.284z"/><path d="m336.716 250.188c2.918 0 5.284-2.366 5.284-5.284s-2.366-5.284-5.284-5.284-5.284 2.366-5.284 5.284 2.366 5.284 5.284 5.284z"/><path d="m364.68 250.188c2.918 0 5.284-2.366 5.284-5.284s-2.366-5.284-5.284-5.284-5.284 2.366-5.284 5.284 2.365 5.284 5.284 5.284z"/><path d="m392.643 262.475c-2.918 0-5.284 2.366-5.284 5.285 0 2.918 2.366 5.284 5.284 5.284s5.284-2.366 5.284-5.284c0-2.919-2.365-5.285-5.284-5.285z"/><path d="m336.716 273.044c2.918 0 5.284-2.366 5.284-5.284 0-2.919-2.366-5.285-5.284-5.285s-5.284 2.366-5.284 5.285c0 2.918 2.366 5.284 5.284 5.284z"/><path d="m364.68 273.044c2.918 0 5.284-2.366 5.284-5.284 0-2.919-2.366-5.285-5.284-5.285s-5.284 2.366-5.284 5.285c0 2.918 2.365 5.284 5.284 5.284z"/><path d="m336.716 295.871c2.918 0 5.284-2.366 5.284-5.284 0-2.919-2.366-5.285-5.284-5.285s-5.284 2.366-5.284 5.285c0 2.918 2.366 5.284 5.284 5.284z"/><path d="m364.68 295.871c2.918 0 5.284-2.366 5.284-5.284 0-2.919-2.366-5.285-5.284-5.285s-5.284 2.366-5.284 5.285c0 2.918 2.365 5.284 5.284 5.284z"/><path d="m336.716 318.698c2.918 0 5.284-2.366 5.284-5.284s-2.366-5.284-5.284-5.284-5.284 2.366-5.284 5.284c0 2.919 2.366 5.284 5.284 5.284z"/><path d="m364.68 318.698c2.918 0 5.284-2.366 5.284-5.284s-2.366-5.284-5.284-5.284-5.284 2.366-5.284 5.284c0 2.919 2.365 5.284 5.284 5.284z"/><path d="m336.716 341.525c2.918 0 5.284-2.366 5.284-5.284s-2.366-5.284-5.284-5.284-5.284 2.366-5.284 5.284c0 2.919 2.366 5.284 5.284 5.284z"/><path d="m364.68 341.525c2.918 0 5.284-2.366 5.284-5.284s-2.366-5.284-5.284-5.284-5.284 2.366-5.284 5.284c0 2.919 2.365 5.284 5.284 5.284z"/><circle cx="336.949" cy="359.132" r="5.284"/><circle cx="364.912" cy="359.132" r="5.284"/><path d="m336.949 376.738c-2.918 0-5.284 2.366-5.284 5.284s2.366 5.284 5.284 5.284 5.284-2.366 5.284-5.284-2.366-5.284-5.284-5.284z"/><path d="m364.912 376.738c-2.918 0-5.284 2.366-5.284 5.284s2.366 5.284 5.284 5.284 5.284-2.366 5.284-5.284-2.365-5.284-5.284-5.284z"/><circle cx="336.949" cy="404.913" r="5.284"/><circle cx="364.912" cy="404.913" r="5.284"/><path d="m336.949 422.52c-2.918 0-5.284 2.366-5.284 5.284s2.366 5.284 5.284 5.284 5.284-2.366 5.284-5.284c0-2.919-2.366-5.284-5.284-5.284z"/><path d="m364.912 422.52c-2.918 0-5.284 2.366-5.284 5.284s2.366 5.284 5.284 5.284 5.284-2.366 5.284-5.284c.001-2.919-2.365-5.284-5.284-5.284z"/></g></g></g></svg>