<svg enable-background="new 0 0 512 512" height="512" viewBox="0 0 512 512" width="512" xmlns="http://www.w3.org/2000/svg"><g id="Layer_2"><g><path d="m405.472 465.665h-298.944c-54.679 0-99.004-44.326-99.004-99.004v-143.325c0-54.679 44.326-99.004 99.004-99.004h298.944c54.679 0 99.004 44.326 99.004 99.004v143.325c0 54.678-44.326 99.004-99.004 99.004z" fill="#494a47"/><path d="m30.832 366.661v-143.325c0-54.679 44.326-99.004 99.004-99.004h-23.309c-54.678 0-99.004 44.326-99.004 99.004v143.325c0 54.679 44.326 99.004 99.004 99.004h23.309c-54.678 0-99.004-44.326-99.004-99.004z" fill="#333331"/><path d="m405.472 387.668h-298.944c-54.679 0-99.004-44.326-99.004-99.004v-143.325c0-54.679 44.326-99.004 99.004-99.004h298.944c54.679 0 99.004 44.326 99.004 99.004v143.325c0 54.679-44.326 99.004-99.004 99.004z" fill="#494a47"/><path d="m30.832 288.664v-143.325c0-54.679 44.326-99.004 99.004-99.004h-23.309c-54.678 0-99.004 44.326-99.004 99.004v143.325c0 54.678 44.326 99.004 99.004 99.004h23.309c-54.678 0-99.004-44.326-99.004-99.004z" fill="#333331"/><path d="m396.186 366.971h-280.372c-49.244 0-89.164-39.92-89.164-89.164v-121.611c0-49.244 39.92-89.164 89.164-89.164h280.373c49.244 0 89.164 39.92 89.164 89.164v121.612c-.001 49.243-39.921 89.163-89.165 89.163z" fill="#cdcdc6"/><path d="m49.959 277.807v-121.611c0-49.244 39.92-89.164 89.164-89.164h-23.309c-49.244 0-89.164 39.92-89.164 89.164v121.612c0 49.244 39.92 89.164 89.164 89.164h23.309c-49.245-.001-89.164-39.921-89.164-89.165z" fill="#989898"/><path d="m89.324 117.437h333.353v199.13h-333.353z" fill="#4eb7a2"/><path d="m89.324 117.437h23.309v199.13h-23.309z" fill="#218e79"/><path d="m207.189 416.985h97.622v48.492h-97.622z" fill="#68c0e0"/><g><path d="m405.472 41.335h-298.944c-57.348 0-104.004 46.656-104.004 104.004v221.322c0 57.348 46.656 104.004 104.004 104.004h298.943c57.348 0 104.004-46.656 104.004-104.004v-221.322c.001-57.348-46.655-104.004-104.003-104.004zm-392.948 104.004c0-51.834 42.17-94.004 94.004-94.004h298.943c51.834 0 94.004 42.17 94.004 94.004v143.325c0 51.834-42.17 94.004-94.004 94.004h-298.943c-51.834 0-94.004-42.17-94.004-94.004v-42.106zm287.287 276.646v38.492h-38.811v-38.492zm-48.811 38.493h-38.811v-38.492h38.811zm248.476-93.817c0 51.834-42.17 94.004-94.004 94.004h-95.661v-43.68c0-2.762-2.239-5-5-5h-97.622c-2.761 0-5 2.238-5 5v43.68h-95.661c-51.834 0-94.004-42.17-94.004-94.004v-33.528c16.701 35.163 52.558 59.535 94.004 59.535h298.943c41.446 0 77.303-24.372 94.004-59.535v33.528z"/><path d="m115.813 371.971h280.373c51.922 0 94.164-42.241 94.164-94.163v-121.613c0-51.922-42.242-94.163-94.164-94.163h-280.373c-51.922 0-94.164 42.241-94.164 94.163v121.612c.001 51.922 42.243 94.164 94.164 94.164zm15.029-164.958c3.66 1.84 6.184 5.621 6.184 9.989s-2.523 8.148-6.184 9.988zm-10 37.547h-26.518v-55.116h26.518zm-26.518 10h31.518c2.761 0 5-2.238 5-5v-11.996c9.271-2.256 16.184-10.606 16.184-20.562s-6.912-18.307-16.184-20.563v-11.996c0-2.762-2.239-5-5-5h-31.518v-57.007h156.676v43.905c-25.732 2.521-45.908 24.276-45.908 50.66s20.176 48.14 45.908 50.66v43.904h-156.676zm286.834-27.57c-3.66-1.84-6.184-5.621-6.184-9.988 0-4.369 2.523-8.149 6.184-9.989zm10-37.547h26.518v55.116h-26.518zm26.518-10h-31.518c-2.761 0-5 2.238-5 5v11.996c-9.271 2.256-16.184 10.607-16.184 20.563 0 9.955 6.912 18.306 16.184 20.562v11.996c0 2.762 2.239 5 5 5h31.518v57.007h-156.676v-43.904c25.732-2.521 45.908-24.276 45.908-50.66s-20.176-48.14-45.908-50.66v-43.905h156.676zm-156.676-3.033c20.205 2.475 35.908 19.729 35.908 40.592s-15.703 38.117-35.908 40.592zm-10 81.184c-20.205-2.475-35.908-19.729-35.908-40.592s15.703-38.117 35.908-40.592zm-92.494-145.157-40.405-40.404h275.797l-40.404 40.404zm194.988 209.129 40.404 40.404h-275.796l40.404-40.404zm53.791 39.65-39.65-39.649h55.041c2.761 0 5-2.238 5-5v-67.007-27.558h52.674v55.806c0 42.643-31.886 77.956-73.065 83.408zm73.065-205.021v55.807h-52.674v-27.559-67.007c0-2.762-2.239-5-5-5h-55.041l39.65-39.649c41.178 5.452 73.065 40.764 73.065 83.408zm-375.636-83.408 39.65 39.649h-55.04c-2.761 0-5 2.238-5 5v94.565h-52.674v-55.807c0-42.642 31.886-77.955 73.064-83.407zm-73.064 149.215h52.674v94.564c0 2.762 2.239 5 5 5h55.041l-39.65 39.649c-41.178-5.452-73.065-40.765-73.065-83.408z"/></g></g></g></svg>