<svg enable-background="new 0 0 512 512" height="512" viewBox="0 0 512 512" width="512" xmlns="http://www.w3.org/2000/svg"><g id="Layer_2"><g><path d="m247.015 401.136h-240l120-289.952z" fill="#fed2a4"/><path d="m127.334 110.864-120 289.952h23.507l108.246-261.552z" fill="#f2af7c"/><path d="m384.985 111.184h-257.97l120 289.952h257.97z" fill="#f2af7c"/><path d="m127.073 204.001-39.772 197.135h79.544z" fill="#494a47"/><path d="m166.845 401.136 40.235-26.14-80.007-170.995z" fill="#f2af7c"/><g><path d="m509.985 339.183c0-2.761-2.238-5-5-5s-5 2.239-5 5v36.795l-110.38-266.707c-.773-1.869-2.598-3.088-4.62-3.088h-257.97c-2.023 0-3.846 1.219-4.62 3.088l-110.38 266.708v-36.796c0-2.761-2.239-5-5-5s-5 2.239-5 5v61.953s.005.002.006.002c0 .975.28 1.943.838 2.776.928 1.388 2.487 2.222 4.157 2.222h497.971c1.67 0 3.229-.833 4.157-2.222.557-.833.836-1.801.837-2.775 0 0 .005-.003.005-.003v-61.953zm-369.76-95.274 60.482 129.265-30.416 19.761zm-13.152-14.625 33.662 166.852h-67.324zm82.731 149.905c2.092-1.359 2.862-4.052 1.805-6.312l-79.536-169.988v-66.408l107.461 259.655h-55.815zm-87.731-242.99v67.302l-38.864 192.635h-68.714zm129.942 259.937v-56.953c0-2.761-2.239-5-5-5s-5 2.239-5 5v36.796l-107.52-259.795h247.148l115.861 279.952z"/></g></g></g></svg>