<svg enable-background="new 0 0 512 512" height="512" viewBox="0 0 512 512" width="512" xmlns="http://www.w3.org/2000/svg"><g id="Layer_2"><g><path d="m136.748 191.383h239.252v200.162h-239.252z" fill="#fed2a4"/><path d="m451.332 191.383h-390.664v-97.697l195.332-86.257 195.332 86.257z" fill="#fed2a4"/><path d="m267.654 12.575-11.654-5.146-195.332 86.257v97.697h23.309v-97.697z" fill="#f2af7c"/><path d="m93.887 161.383v-48.972l162.113-71.588 162.113 71.588v48.972z" fill="#bb5d4c"/><path d="m267.654 45.97-11.654-5.147-162.113 71.588v48.972h23.309v-48.972z" fill="#99473a"/><path d="m79.595 391.545h352.81v37.711h-352.81z" fill="#cdcdc6"/><path d="m79.595 391.545h23.309v37.711h-23.309z" fill="#989898"/><path d="m89.595 354.115h94.306v37.711h-94.306z" fill="#cdcdc6"/><path d="m89.595 354.115h23.309v37.711h-23.309z" fill="#989898"/><path d="m89.595 191.383h94.306v37.711h-94.306z" fill="#cdcdc6"/><path d="m89.595 191.383h23.309v37.711h-23.309z" fill="#989898"/><path d="m104.127 229.094h65.242v125.021h-65.242z" fill="#cdcdc6"/><path d="m104.127 229.094h23.309v125.021h-23.309z" fill="#989898"/><g fill="#cdcdc6"><path d="m328.099 354.115h94.306v37.711h-94.306z"/><path d="m328.099 191.383h94.306v37.711h-94.306z"/><path d="m342.631 229.094h65.242v125.021h-65.242z"/><path d="m53.333 429.15h405.333v37.711h-405.333z"/></g><path d="m53.333 429.15h23.309v37.711h-23.309z" fill="#989898"/><path d="m32.044 466.86h447.911v37.711h-447.911z" fill="#cdcdc6"/><path d="m32.044 466.86h23.309v37.711h-23.309z" fill="#989898"/><path d="m303.56 391.545h-95.12v-88.051c0-26.266 21.293-47.559 47.559-47.559 26.266 0 47.559 21.293 47.559 47.559v88.051z" fill="#68c0e0"/><path d="m256 255.935s-2.173 75.743 36.139 75.743l-21.138 59.867h32.558v-88.051c.001-26.266-21.293-47.559-47.559-47.559z" fill="#e15f4f"/><path d="m256 255.935s2.173 75.743-36.139 75.743l21.138 59.867h-32.559v-88.051c0-26.266 21.294-47.559 47.56-47.559z" fill="#e15f4f"/><g><path d="m93.887 166.383h324.226c2.761 0 5-2.238 5-5v-48.972c0-1.98-1.169-3.774-2.98-4.574l-162.113-71.588c-1.287-.568-2.753-.568-4.04 0l-162.113 71.588c-1.812.8-2.98 2.594-2.98 4.574v48.972c0 2.762 2.239 5 5 5zm5-50.714 157.113-69.38 157.113 69.38v40.714h-314.226z"/><path d="m479.956 461.86h-16.289v-32.711c0-2.762-2.239-5-5-5h-21.262v-32.604c0-2.762-2.239-5-5-5h-5v-32.431c0-2.762-2.239-5-5-5h-9.532v-115.02h9.532c2.761 0 5-2.238 5-5v-32.71h23.927c2.761 0 5-2.238 5-5v-97.697c0-1.98-1.168-3.773-2.98-4.574l-195.332-86.259c-1.287-.568-2.753-.568-4.04 0l-195.332 86.258c-1.812.801-2.98 2.594-2.98 4.574v97.697c0 2.762 2.239 5 5 5h23.927v32.71c0 2.762 2.239 5 5 5h9.532v115.021h-9.532c-2.761 0-5 2.238-5 5v32.431h-5c-2.761 0-5 2.238-5 5v32.604h-21.262c-2.761 0-5 2.238-5 5v32.711h-16.289c-2.761 0-5 2.238-5 5v37.711c0 2.762 2.239 5 5 5h447.911c2.761 0 5-2.238 5-5v-37.711c.001-2.761-2.238-5-4.999-5zm-62.551-75.315h-84.306v-27.431h9.532 65.242 9.532zm-108.845 0v-83.051c0-28.981-23.578-52.56-52.56-52.56s-52.56 23.578-52.56 52.56v83.051h-14.54v-32.431c0-2.762-2.239-5-5-5h-9.532v-115.02h9.532c2.761 0 5-2.238 5-5v-32.71h134.198v32.71c0 2.762 2.239 5 5 5h9.532v115.021h-9.532c-2.761 0-5 2.238-5 5v32.431h-14.538zm-57.573-125.305c-.099 4.732-.455 12.251-1.613 20.569-2.495 17.911-7.509 31.181-14.501 38.377-4.245 4.368-9.156 6.492-15.012 6.492-1.623 0-3.145.787-4.082 2.112s-1.173 3.022-.633 4.553l18.784 53.202h-20.49v-83.051c0-21.771 16.435-39.765 37.547-42.254zm-6.452 125.305-17.863-50.591c5.767-1.271 10.917-4.216 15.372-8.8 6.777-6.974 11.143-17.087 13.956-27.521 2.812 10.433 7.179 20.547 13.956 27.521 4.454 4.584 9.604 7.528 15.372 8.8l-17.863 50.591zm52.319-53.202c.54-1.53.304-3.228-.633-4.553-.938-1.325-2.459-2.112-4.082-2.112-5.854 0-10.762-2.121-15.005-6.485-6.975-7.172-11.984-20.392-14.487-38.229-1.173-8.358-1.533-15.952-1.633-20.723 21.111 2.49 37.545 20.483 37.545 42.254v83.051h-20.49zm106.019 15.771h-55.242v-115.02h55.242zm14.532-125.02h-84.306v-27.71h84.306zm-351.737-127.15 190.332-84.049 190.332 84.05v89.439h-380.664zm28.927 99.44h84.306v27.71h-84.306zm14.532 37.71h55.242v115.021h-55.242zm-14.532 125.02h9.532 65.242 9.532v27.431h-84.306zm-10 37.431h342.81v27.604h-342.81zm-26.262 37.604h20.238c.331.069.672.106 1.023.106h352.81c.351 0 .693-.038 1.023-.106h20.238v27.711h-395.332zm416.623 65.422h-437.912v-27.711h16.289 405.333 16.289v27.711z"/></g></g></g></svg>