<svg enable-background="new 0 0 512 512" height="512" viewBox="0 0 512 512" width="512" xmlns="http://www.w3.org/2000/svg"><g id="Layer_2"><g><path d="m7.524 204.581h496.952v206.607h-496.952z" fill="#fed2a4"/><path d="m7.524 204.581h23.338v206.607h-23.338z" fill="#f2af7c"/><g fill="#68c0e0"><path d="m35.759 241.834h79.506v51.731h-79.506z"/><path d="m35.759 322.205h79.506v51.731h-79.506z"/><path d="m396.734 241.834h79.506v51.731h-79.506z"/><path d="m396.734 322.205h79.506v51.731h-79.506z"/></g><path d="m7.524 147.532h496.952v57.05h-496.952z" fill="#bb5d4c"/><path d="m7.524 147.532h23.338v57.05h-23.338z" fill="#99473a"/><path d="m436.488 186.02h-360.976l180.488-85.208z" fill="#bb5d4c"/><path d="m320.543 162.767h-129.086l64.543-30.471z" fill="#fed2a4"/><path d="m97.269 186.02h317.463v40.903h-317.463z" fill="#fed2a4"/><path d="m97.269 186.02h23.309v40.903h-23.309z" fill="#f2af7c"/><path d="m127.023 226.923h257.955v184.265h-257.955z" fill="#cdcdc6"/><path d="m304.134 411.188h-96.267v-99.773c0-26.583 21.55-48.134 48.134-48.134 26.583 0 48.134 21.55 48.134 48.134v99.773z" fill="#68c0e0"/><path d="m97.269 226.923h59.508v29.913h-59.508z" fill="#cdcdc6"/><path d="m97.269 226.923h23.309v29.913h-23.309z" fill="#989898"/><path d="m97.269 381.276h59.508v29.913h-59.508z" fill="#cdcdc6"/><path d="m97.269 381.276h23.309v29.913h-23.309z" fill="#989898"/><path d="m105.445 256.836h43.156v124.44h-43.156z" fill="#cdcdc6"/><path d="m105.445 256.836h23.309v124.44h-23.309z" fill="#989898"/><path d="m355.223 226.923h59.508v29.913h-59.508z" fill="#cdcdc6"/><path d="m355.223 381.276h59.508v29.913h-59.508z" fill="#cdcdc6"/><path d="m363.4 256.836h43.156v124.44h-43.156z" fill="#cdcdc6"/><g><path d="m504.476 142.531h-148.393l-97.948-46.241c-1.352-.639-2.918-.639-4.27 0l-97.948 46.241h-148.393c-2.762 0-5 2.238-5 5v263.657c0 2.762 2.238 5 5 5h496.951c2.762 0 5-2.238 5-5v-263.657c.001-2.761-2.238-5-4.999-5zm-5 10v47.05h-79.744v-8.562h16.756c2.34 0 4.367-1.623 4.879-3.906s-.628-4.616-2.744-5.615l-61.357-28.967zm-144.252 223.744c-2.762 0-5 2.238-5 5v24.913h-41.09v-94.773c0-29.298-23.836-53.133-53.134-53.133s-53.134 23.835-53.134 53.133v94.773h-41.09v-24.913c0-2.762-2.238-5-5-5h-3.176v-114.439h3.176c2.762 0 5-2.238 5-5v-24.913h188.447v24.913c0 2.762 2.238 5 5 5h3.176v114.439zm-56.389-69.86h-37.835v-37.834c19.794 2.297 35.538 18.041 37.835 37.834zm-47.835 0h-37.835c2.297-19.793 18.041-35.537 37.835-37.834zm-38.134 10h38.134v32.525h-38.134zm48.134 0h38.134v32.525h-38.134zm148.731-64.579h-49.508v-19.913h49.508zm0-29.913h-307.462v-30.903h307.463v30.903zm-257.955 29.913h-49.508v-19.913h49.508zm-54.507 10h3.176v26.729h-59.686v-41.73h51.51v10.002c0 2.761 2.238 4.999 5 4.999zm3.175 107.1h-59.685v-41.73h59.686v41.73zm10-107.1h33.156v114.439h-33.156zm257.955 0h33.156v114.439h-33.156zm43.157 107.1v-41.73h59.686v41.73zm0-107.1h3.176c2.762 0 5-2.238 5-5v-10.002h51.51v41.73h-59.686zm-155.556-155.495 158.185 74.679h-316.37zm-243.476 46.19h122.211l-61.357 28.967c-2.116.999-3.256 3.332-2.744 5.615s2.539 3.906 4.879 3.906h16.756v8.562h-79.745zm0 57.05h79.744v27.253h-56.51c-2.762 0-5 2.238-5 5v51.73c0 2.762 2.238 5 5 5h64.686v18.641h-64.685c-2.762 0-5 2.238-5 5v51.73c0 2.762 2.238 5 5 5h57.116c-.375.701-.606 1.489-.606 2.34v24.913h-79.745zm89.745 196.607v-19.913h49.508v19.913zm110.597-47.248h38.134v47.248h-38.134zm48.134 47.248v-47.248h38.134v47.248zm99.224 0v-19.913h49.508v19.913zm139.252 0h-79.744v-24.913c0-.851-.232-1.639-.606-2.34h57.116c2.762 0 5-2.238 5-5v-51.73c0-2.762-2.238-5-5-5h-64.686v-18.641h64.686c2.762 0 5-2.238 5-5v-51.73c0-2.762-2.238-5-5-5h-56.51v-27.253h79.744z"/><path d="m186.578 163.86c.512 2.283 2.539 3.906 4.879 3.906h129.086c2.34 0 4.367-1.623 4.879-3.906s-.628-4.616-2.744-5.615l-64.543-30.471c-1.352-.639-2.918-.639-4.27 0l-64.543 30.471c-2.116.999-3.256 3.332-2.744 5.615zm69.422-26.035 42.24 19.941h-84.48z"/></g></g></g></svg>