<svg enable-background="new 0 0 512 512" height="512" viewBox="0 0 512 512" width="512" xmlns="http://www.w3.org/2000/svg"><g id="Layer_2"><g><g><path d="m21.326 289.873h469.049v182.873h-469.049z" fill="#cdcdc6"/><path d="m21.326 289.873h23.309v182.873h-23.309z" fill="#989898"/><path d="m7.375 252.163h496.952v37.711h-496.952z" fill="#494a47"/><path d="m7.375 252.163h23.309v37.711h-23.309z" fill="#333331"/><path d="m121.052 45.234h269.598v206.928h-269.598z" fill="#cdcdc6"/><path d="m121.052 45.234h23.309v206.928h-23.309z" fill="#989898"/><path d="m113.033 7.524h285.636v37.711h-285.636z" fill="#494a47"/><path d="m113.033 7.524h23.309v37.711h-23.309z" fill="#333331"/><circle cx="255.851" cy="131.987" fill="#fff" r="46.227"/><g fill="#68c0e0"><path d="m83.251 316.765h62.092v155.982h-62.092z"/><path d="m178.465 316.765h62.092v155.982h-62.092z"/><path d="m271.144 316.765h62.092v155.982h-62.092z"/><path d="m366.359 316.765h62.092v155.982h-62.092z"/></g><path d="m121.052 199.026h269.598v53.137h-269.598z" fill="#68c0e0"/><path d="m121.052 199.026h23.309v53.137h-23.309z" fill="#3282a1"/></g><g fill="#494a47"><circle cx="50.168" cy="486.311" r="18.165"/><circle cx="86.499" cy="486.311" r="18.165"/><circle cx="176.333" cy="486.311" r="18.165"/><circle cx="212.663" cy="486.311" r="18.165"/><circle cx="294.603" cy="486.311" r="18.165"/><circle cx="330.933" cy="486.311" r="18.165"/><circle cx="420.768" cy="486.311" r="18.165"/><circle cx="457.098" cy="486.311" r="18.165"/></g><path d="m236.501 479.586h-210.17c-10.929 0-19.789-8.86-19.789-19.789v-66.261c0-10.929 8.86-19.789 19.789-19.789h210.17c10.929 0 19.789 8.86 19.789 19.789v66.261c-.001 10.929-8.86 19.789-19.789 19.789z" fill="#e15f4f"/><path d="m29.851 459.797v-66.261c0-10.929 8.86-19.789 19.789-19.789h-23.309c-10.929 0-19.789 8.86-19.789 19.789v66.261c0 10.929 8.86 19.789 19.789 19.789h23.309c-10.929 0-19.789-8.86-19.789-19.789z" fill="#ca4336"/><path d="m485.674 479.586h-210.04c-10.926 0-19.783-8.857-19.783-19.783v-66.272c0-10.926 8.857-19.783 19.783-19.783h210.041c10.926 0 19.783 8.857 19.783 19.783v66.272c0 10.926-8.858 19.783-19.784 19.783z" fill="#e15f4f"/><path d="m46.075 435.479v-61.731h-19.744c-10.929 0-19.789 8.86-19.789 19.789v41.942z" fill="#68c0e0"/><path d="m46.075 374.089v-.341h-19.744c-10.929 0-19.789 8.86-19.789 19.789v41.942h23.331v-41.942c0-9.703 6.988-17.759 16.202-19.448z" fill="#3282a1"/><path d="m81.745 396.927h132.966v38.552h-132.966z" fill="#68c0e0"/><path d="m355.747 396.927h49.814v82.659h-49.814z" fill="#494a47"/><path d="m355.747 396.927h49.814v38.552h-49.814z" fill="#68c0e0"/><path d="m283.429 396.927h45.523v38.552h-45.523z" fill="#68c0e0"/><path d="m432.356 396.927h45.523v38.552h-45.523z" fill="#68c0e0"/><g><g><path d="m255.851 80.76c-28.246 0-51.227 22.98-51.227 51.227s22.98 51.227 51.227 51.227 51.227-22.98 51.227-51.227-22.981-51.227-51.227-51.227zm0 92.454c-22.732 0-41.227-18.494-41.227-41.227 0-22.732 18.494-41.227 41.227-41.227s41.227 18.494 41.227 41.227c-.001 22.733-18.495 41.227-41.227 41.227z"/><path d="m264.467 126.987h-6.188l-9.258-11.775c-1.707-2.172-4.85-2.546-7.021-.84-2.17 1.707-2.547 4.85-.84 7.021l10.76 13.685c.948 1.206 2.396 1.91 3.931 1.91h8.616c2.762 0 5-2.239 5-5s-2.238-5.001-5-5.001z"/><path d="m214.711 391.927h-132.966c-2.762 0-5 2.239-5 5v38.552c0 2.761 2.238 5 5 5h132.966c2.762 0 5-2.239 5-5v-38.552c0-2.761-2.238-5-5-5zm-5 38.552h-122.966v-28.552h122.966z"/><path d="m495.375 370.727v-75.854h8.952c2.762 0 5-2.239 5-5v-37.711c0-2.761-2.238-5-5-5h-108.678v-196.928h3.02c2.762 0 5-2.239 5-5v-37.711c0-2.761-2.238-5-5-5h-285.637c-2.762 0-5 2.239-5 5v37.711c0 2.761 2.238 5 5 5h3.02v196.928h-108.677c-2.762 0-5 2.239-5 5v37.711c0 2.761 2.238 5 5 5h8.951v75.985c-8.331 3.687-14.267 11.831-14.751 21.394-.022.426-.033.854-.033 1.285l.001 66.278c0 13.659 11.112 24.771 24.771 24.771h.759c-.043.57-.069 1.145-.069 1.726 0 12.773 10.392 23.165 23.165 23.165 7.357 0 13.919-3.451 18.166-8.815 4.246 5.364 10.808 8.815 18.165 8.815 12.773 0 23.165-10.392 23.165-23.165 0-.581-.026-1.156-.069-1.726h43.643c-.043.57-.069 1.145-.069 1.726 0 12.773 10.392 23.165 23.165 23.165 7.357 0 13.919-3.451 18.165-8.815 4.246 5.364 10.808 8.815 18.165 8.815 12.773 0 23.165-10.392 23.165-23.165 0-.581-.026-1.156-.069-1.726h.32c8.07 0 15.249-3.88 19.775-9.872 3.746 4.957 9.309 8.463 15.688 9.528-.062.683-.104 1.371-.104 2.069 0 12.773 10.392 23.165 23.165 23.165 7.357 0 13.919-3.451 18.165-8.815 4.246 5.364 10.808 8.815 18.165 8.815 12.773 0 23.165-10.392 23.165-23.165 0-.581-.029-1.155-.072-1.726h1.721 41.928c-.043.57-.072 1.144-.072 1.726 0 12.773 10.392 23.165 23.165 23.165 7.357 0 13.919-3.451 18.166-8.815 4.246 5.364 10.808 8.815 18.165 8.815 12.773 0 23.165-10.392 23.165-23.165 0-.581-.029-1.155-.072-1.726h5.483c13.665 0 24.783-11.118 24.783-24.783v-66.271c-.002-10.224-6.227-19.021-15.085-22.804zm-377.343-358.204h275.637v27.711h-275.637zm187.751 234.64v-43.137h34.934v43.137zm-44.932 0v-43.137h34.933v43.137zm-44.933 0v-43.137h34.933v43.137zm-44.934 0v-43.137h34.934v43.137zm-44.932 0v-43.137h34.933v43.137zm224.665-43.137h34.933v43.137h-34.933zm-224.665-10v-143.792h259.598v143.792zm-113.677 90.848v-27.711h486.952v27.711zm-.832 108.646c0-.504.026-1.003.076-1.494.76-7.447 7.068-13.277 14.712-13.277h14.744v51.731h-29.532zm38.625 105.957c-7.259 0-13.165-5.906-13.165-13.165 0-.585.044-1.16.119-1.726h26.093c.075.565.119 1.14.119 1.726 0 7.259-5.906 13.165-13.166 13.165zm36.331 0c-7.259 0-13.165-5.906-13.165-13.165 0-.585.044-1.16.119-1.726h26.092c.075.565.119 1.14.119 1.726 0 7.259-5.906 13.165-13.165 13.165zm89.834 0c-7.259 0-13.165-5.906-13.165-13.165 0-.585.044-1.16.119-1.726h26.092c.075.565.119 1.14.119 1.726 0 7.259-5.906 13.165-13.165 13.165zm36.33 0c-7.259 0-13.165-5.906-13.165-13.165 0-.585.044-1.16.119-1.726h26.092c.075.565.119 1.14.119 1.726 0 7.259-5.906 13.165-13.165 13.165zm38.188-105.946v66.271.012c0 8.145-6.626 14.771-14.771 14.771h-209.767c-8.145 0-14.771-6.626-14.771-14.771v-19.336h34.532c2.762 0 5-2.239 5-5v-56.731h185.004c8.146 0 14.771 6.626 14.771 14.771v.013zm-162.6-24.783v-46.983h52.092v46.983zm95.215 0v-46.983h52.091v46.983zm72.388 9.872c-2.644-3.5-6.193-6.277-10.297-7.983v-53.872c0-2.761-2.238-5-5-5h-62.091c-2.762 0-5 2.239-5 5v51.983h-23.123v-51.983c0-2.761-2.238-5-5-5h-62.092c-2.762 0-5 2.239-5 5v51.983h-51.92-.005v-73.875h459.049v73.875h-51.925v-51.983c0-2.761-2.238-5-5-5h-62.092c-2.762 0-5 2.239-5 5v51.983h-23.122v-51.983c0-2.761-2.238-5-5-5h-62.092c-2.762 0-5 2.239-5 5v53.875c-4.1 1.707-7.647 4.483-10.29 7.98zm167.596-56.855v46.983h-52.092v-46.983zm-95.214 0v46.983h-52.092v-46.983zm-33.632 177.712c-7.259 0-13.165-5.906-13.165-13.165 0-.587.052-1.16.128-1.726h26.074c.076.566.128 1.139.128 1.726 0 7.259-5.907 13.165-13.165 13.165zm36.33 0c-7.259 0-13.165-5.906-13.165-13.165 0-.587.052-1.16.128-1.726h26.074c.076.566.128 1.139.128 1.726 0 7.259-5.907 13.165-13.165 13.165zm69.628-24.891h-39.814v-34.107h39.814zm0-44.107h-39.814v-28.552h39.814zm20.206 68.998c-7.259 0-13.165-5.906-13.165-13.165 0-.587.052-1.16.128-1.726h26.075c.076.566.128 1.139.128 1.726 0 7.259-5.907 13.165-13.166 13.165zm36.331 0c-7.259 0-13.165-5.906-13.165-13.165 0-.587.052-1.16.128-1.726h26.074c.076.566.128 1.139.128 1.726 0 7.259-5.907 13.165-13.165 13.165zm43.359-39.674c0 8.151-6.632 14.783-14.783 14.783h-75.113v-77.659c0-2.761-2.238-5-5-5h-49.814c-2.762 0-5 2.239-5 5v77.659h-75.113c-8.151 0-14.783-6.632-14.783-14.783v-66.271c0-8.151 6.632-14.783 14.783-14.783h210.041c8.151 0 14.783 6.632 14.783 14.783v66.271z"/><path d="m328.952 391.927h-45.522c-2.762 0-5 2.239-5 5v38.552c0 2.761 2.238 5 5 5h45.522c2.762 0 5-2.239 5-5v-38.552c0-2.761-2.238-5-5-5zm-5 38.552h-35.522v-28.552h35.522z"/><path d="m477.879 391.927h-45.523c-2.762 0-5 2.239-5 5v38.552c0 2.761 2.238 5 5 5h45.523c2.762 0 5-2.239 5-5v-38.552c0-2.761-2.238-5-5-5zm-5 38.552h-35.523v-28.552h35.523z"/></g><path d="m255.851 107.712c2.918 0 5.284-2.366 5.284-5.284 0-2.919-2.366-5.284-5.284-5.284-2.919 0-5.284 2.366-5.284 5.284-.001 2.918 2.365 5.284 5.284 5.284z"/><path d="m255.851 166.831c2.918 0 5.284-2.366 5.284-5.284 0-2.919-2.366-5.284-5.284-5.284-2.919 0-5.284 2.366-5.284 5.284-.001 2.918 2.365 5.284 5.284 5.284z"/><path d="m285.41 126.703c-2.919 0-5.284 2.366-5.284 5.284s2.366 5.284 5.284 5.284 5.284-2.366 5.284-5.284c.001-2.919-2.365-5.284-5.284-5.284z"/><path d="m231.575 131.987c0-2.919-2.366-5.284-5.284-5.284-2.919 0-5.284 2.366-5.284 5.284s2.366 5.284 5.284 5.284c2.919 0 5.284-2.365 5.284-5.284z"/></g></g></g></svg>