<svg enable-background="new 0 0 512 512" height="512" viewBox="0 0 512 512" width="512" xmlns="http://www.w3.org/2000/svg"><g id="Layer_2"><g><path d="m473.055 168.134c.704-3.737 1.089-7.586 1.089-11.528 0-31.171-23.049-56.948-53.031-61.246.583-3.456.904-7.002.904-10.624 0-35.017-28.387-63.403-63.403-63.403-18.651 0-35.418 8.055-47.02 20.873-10.07-20.537-31.177-34.682-55.594-34.682s-45.524 14.145-55.593 34.684c-11.602-12.818-28.369-20.873-47.02-20.873-35.017 0-63.403 28.387-63.403 63.403 0 3.622.32 7.168.904 10.624-29.982 4.297-53.031 30.075-53.031 61.246 0 3.941.384 7.791 1.089 11.528-18.926 12.496-31.421 33.944-31.421 58.32 0 38.576 31.272 69.848 69.848 69.848 24.301 0 45.695-12.417 58.207-31.245h240.842c12.512 18.829 33.906 31.245 58.207 31.245 38.576 0 69.848-31.272 69.848-69.848-.001-24.378-12.496-45.826-31.422-58.322z" fill="#4eb7a2"/><g><path d="m30.832 226.455c0-24.376 12.495-45.824 31.421-58.32-.704-3.737-1.089-7.586-1.089-11.528 0-31.171 23.049-56.948 53.031-61.246-.583-3.456-.904-7.002-.904-10.624 0-31.03 22.296-56.836 51.738-62.314-3.777-.702-7.664-1.089-11.644-1.089-35.017 0-63.403 28.387-63.403 63.403 0 3.622.32 7.168.904 10.624-29.982 4.297-53.031 30.075-53.031 61.246 0 3.941.384 7.791 1.089 11.528-18.926 12.496-31.421 33.944-31.421 58.32 0 38.576 31.272 69.848 69.848 69.848 3.983 0 7.886-.34 11.687-.981-33.041-5.536-58.226-34.253-58.226-68.867z" fill="#218e79"/></g><path d="m256 99.221-81.449 30.06v126.885h162.898v-126.885z" fill="#fed2a4"/><path d="m267.659 103.524-11.659-4.303-81.449 30.06v126.885h23.319v-126.885z" fill="#f2af7c"/><path d="m374.158 504.476c-36.596-19.8-55.954-59.639-61.681-73.179v-129.333h-112.954v129.334c-5.727 13.539-25.085 53.378-61.681 73.179h236.316z" fill="#bb5d4c"/><path d="m222.752 431.298v-129.334h-23.229v129.334c-5.727 13.539-25.085 53.378-61.681 73.179h23.229c36.596-19.801 55.955-59.64 61.681-73.179z" fill="#99473a"/><path d="m103.999 256.166h304.002v45.81h-304.002z" fill="#494a47"/><path d="m103.999 256.166h23.309v45.81h-23.309z" fill="#333331"/><g><path d="m358.178 156.607c-2.301 0-4.639-.399-6.923-1.243l-95.255-35.155-95.255 35.155c-10.362 3.823-21.863-1.475-25.688-11.838s1.476-21.863 11.838-25.688l102.18-37.711c4.47-1.65 9.381-1.65 13.85 0l102.18 37.711c10.362 3.824 15.662 15.325 11.838 25.688-2.982 8.079-10.63 13.081-18.765 13.081z" fill="#bb5d4c"/></g><g><path d="m158.366 143.526c-3.825-10.363 1.476-21.863 11.838-25.688l97.45-35.965-4.729-1.745c-4.469-1.65-9.38-1.65-13.85 0l-102.18 37.711c-10.362 3.824-15.663 15.325-11.838 25.688 3.824 10.363 15.326 15.661 25.688 11.838l5.481-2.023c-3.486-2.266-6.31-5.615-7.86-9.816z" fill="#99473a"/></g><path d="m228.599 184.801h54.803v71.365h-54.803z" fill="#bb5d4c"/><g><path d="m478.499 165.821c.429-3.076.645-6.163.645-9.214 0-31.389-22.225-58.634-52.45-65.31.214-2.199.322-4.392.322-6.561 0-37.717-30.686-68.403-68.403-68.403-16.984 0-33.35 6.365-45.86 17.658-12.163-19.568-33.339-31.468-56.753-31.468s-44.59 11.899-56.752 31.469c-12.511-11.293-28.876-17.658-45.86-17.658-37.718 0-68.403 30.686-68.403 68.403 0 2.168.108 4.362.322 6.561-30.225 6.676-52.45 33.92-52.45 65.31 0 3.052.216 6.14.645 9.215-19.458 14.084-30.977 36.511-30.977 60.633 0 41.271 33.577 74.848 74.848 74.848 7.435 0 14.706-1.11 21.627-3.198v3.871c0 2.761 2.239 5 5 5h90.524v123.298c-5.516 12.766-24.397 51.05-59.06 69.805-2.013 1.089-3.029 3.406-2.468 5.625.562 2.219 2.559 3.773 4.847 3.773h236.315c2.289 0 4.285-1.554 4.847-3.773s-.455-4.536-2.468-5.625c-34.663-18.755-53.544-57.04-59.06-69.805v-123.299h90.524c2.761 0 5-2.239 5-5v-3.878c6.922 2.089 14.192 3.206 21.627 3.206 41.271 0 74.848-33.577 74.848-74.848 0-24.123-11.519-46.551-30.977-60.635zm-170.627 267.425c5.831 13.787 21.316 44.941 49.374 66.231h-41.728c-17.658-16.966-27.352-77.679-29.633-100.171-.279-2.748-2.739-4.757-5.479-4.47-2.747.278-4.749 2.73-4.471 5.478.089.877 2.235 21.761 7.396 45.452 5.339 24.507 11.826 42.492 19.35 53.712h-49.056c1.568-17.848-2.251-48.011-2.435-49.442-.352-2.739-2.852-4.678-5.596-4.322-2.739.352-4.674 2.856-4.323 5.596.044.347 4.054 31.992 2.326 48.168h-25.556c6.012-5.932 12.477-14.181 13.659-23.043.365-2.737-1.558-5.252-4.295-5.617-2.74-.363-5.252 1.558-5.617 4.295-1.28 9.598-13.248 20.108-19.089 24.365h-47.946c28.058-21.29 43.542-52.444 49.374-66.231.261-.616.395-1.279.395-1.948v-124.323h102.954v124.322c.001.669.135 1.331.396 1.948zm95.129-136.27h-294.002v-35.81h294.002zm-282.889-73.462h19.725v27.651h-19.725zm271.786 27.652h-19.725v-27.651h19.725zm-29.725 0h-19.725v-27.651h19.725zm-104.442-135.647c-.559-.206-1.145-.309-1.731-.309s-1.172.103-1.731.309l-95.254 35.155c-7.76 2.862-16.403-1.12-19.266-8.878-1.388-3.759-1.228-7.833.449-11.472s4.67-6.406 8.429-7.793l102.18-37.711c3.35-1.237 7.038-1.236 10.387 0l102.18 37.711c7.759 2.863 11.742 11.506 8.878 19.266-2.166 5.869-7.822 9.812-14.074 9.812-1.767 0-3.514-.314-5.192-.934zm-1.731 10.02 76.449 28.214v64.761 32.651h-44.047v-66.365c0-2.761-2.239-5-5-5h-54.803c-2.761 0-5 2.239-5 5v66.365h-44.037v-32.651c0-.035-.01-.067-.01-.102v-64.659zm22.401 125.627h-44.803v-61.365h44.803zm-108.85 0h-19.714v-27.651h19.714zm265.077 40.137c-7.485 0-14.78-1.292-21.627-3.716v-31.421c0-2.761-2.239-5-5-5h-6.103v-32.651-10.705c0-2.761-2.239-5-5-5s-5 2.239-5 5v5.705h-19.725v-5.705c0-2.761-2.239-5-5-5s-5 2.239-5 5v5.705h-19.725v-56.07l7.075 2.611c2.79 1.03 5.701 1.552 8.654 1.552 10.42 0 19.846-6.57 23.456-16.35 4.772-12.933-1.866-27.336-14.798-32.109l-102.179-37.71c-5.583-2.062-11.731-2.06-17.313 0l-102.18 37.711c-6.265 2.312-11.254 6.925-14.049 12.99s-3.061 12.855-.749 19.12c4.772 12.931 19.174 19.568 32.109 14.798l7.075-2.611v56.07h-19.714v-5.705c0-2.761-2.239-5-5-5s-5 2.239-5 5v5.705h-19.725v-5.705c0-2.761-2.239-5-5-5s-5 2.239-5 5v10.705 32.651h-6.113c-2.761 0-5 2.239-5 5v31.417c-6.848 2.422-14.142 3.72-21.627 3.72-35.757 0-64.848-29.091-64.848-64.848 0-21.843 10.907-42.085 29.176-54.147 1.681-1.109 2.532-3.119 2.159-5.098-.665-3.528-1.002-7.095-1.002-10.602 0-28.111 20.954-52.313 48.741-56.296 1.334-.191 2.534-.913 3.329-2.001.794-1.088 1.116-2.452.892-3.78-.553-3.277-.833-6.571-.833-9.792 0-32.204 26.2-58.403 58.403-58.403 16.466 0 32.252 7.008 43.313 19.228 1.112 1.229 2.759 1.826 4.404 1.596 1.642-.231 3.063-1.261 3.792-2.75 9.643-19.667 29.224-31.885 51.104-31.885s41.461 12.217 51.104 31.885c.729 1.489 2.15 2.519 3.792 2.75 1.642.23 3.292-.366 4.404-1.596 11.06-12.22 26.847-19.228 43.313-19.228 32.204 0 58.403 26.199 58.403 58.403 0 3.221-.28 6.516-.833 9.792-.224 1.329.097 2.692.892 3.78s1.995 1.81 3.329 2.001c27.787 3.983 48.741 28.185 48.741 56.296 0 3.505-.337 7.072-1.002 10.602-.373 1.979.478 3.989 2.159 5.098 18.269 12.062 29.176 32.304 29.176 54.148-.002 35.754-29.092 64.845-64.85 64.845z"/></g></g></g></svg>