<svg enable-background="new 0 0 512 512" height="512" viewBox="0 0 512 512" width="512" xmlns="http://www.w3.org/2000/svg"><g id="Layer_2"><g><g><path d="m7.524 187.553h496.952v37.711h-496.952z" fill="#494a47"/><path d="m7.524 187.553h23.309v37.711h-23.309z" fill="#333331"/><path d="m7.524 225.264h496.952v279.212h-496.952z" fill="#cdcdc6"/><path d="m7.524 225.264h23.309v279.212h-23.309z" fill="#989898"/><path d="m87.131 247.951h337.739v181.104h-337.739z" fill="#fed2a4"/><path d="m61.522 210.24h388.956v37.711h-388.956z" fill="#494a47"/><path d="m85.333 7.524h341.333v37.711h-341.333z" fill="#494a47"/><path d="m85.333 7.524h23.309v37.711h-23.309z" fill="#333331"/><path d="m61.522 210.24h23.309v37.711h-23.309z" fill="#333331"/><path d="m61.522 429.054h388.956v37.711h-388.956z" fill="#494a47"/><path d="m61.522 429.054h23.228v37.711h-23.228z" fill="#333331"/><path d="m37.549 466.765h436.902v37.711h-436.902z" fill="#494a47"/><path d="m37.549 466.765h23.309v37.711h-23.309z" fill="#333331"/><path d="m78.479 247.951h61.462v31.932h-61.462z" fill="#cdcdc6"/><path d="m78.479 247.951h23.309v31.932h-23.309z" fill="#989898"/><path d="m78.479 397.122h61.462v31.932h-61.462z" fill="#cdcdc6"/><path d="m78.479 397.122h23.309v31.932h-23.309z" fill="#989898"/><path d="m86.697 279.883h45.024v117.24h-45.024z" fill="#cdcdc6"/><path d="m86.697 279.883h23.071v117.24h-23.071z" fill="#989898"/><g fill="#cdcdc6"><path d="m372.06 247.951h61.462v31.932h-61.462z"/><path d="m372.06 397.122h61.462v31.932h-61.462z"/><path d="m380.278 279.883h45.024v117.24h-45.024z"/></g><path d="m191.101 316.58h129.798v112.475h-129.798z" fill="#bb5d4c"/><path d="m223.798 286.308h64.404v30.271h-64.404z" fill="#cdcdc6"/><path d="m102.758 45.235h306.485v165.005h-306.485z" fill="#fed2a4"/><path d="m102.758 45.235h22.338v165.005h-22.338z" fill="#f2af7c"/><path d="m102.758 76.8h306.485v67.113h-306.485z" fill="#68c0e0"/><path d="m102.758 76.8h22.338v67.113h-22.338z" fill="#3282a1"/><path d="m448.365 283.163h38.053v110.679h-38.053z" fill="#68c0e0"/><path d="m25.583 283.163h38.053v110.679h-38.053z" fill="#68c0e0"/></g><g><path d="m504.476 182.553h-90.234v-132.318h12.424c2.761 0 5-2.239 5-5v-37.711c0-2.761-2.239-5-5-5h-341.333c-2.761 0-5 2.239-5 5v37.711c0 2.761 2.239 5 5 5h12.424v132.319h-90.233c-2.761 0-5 2.239-5 5v316.923c0 2.761 2.239 5 5 5h496.952c2.761 0 5-2.239 5-5v-316.924c0-2.761-2.239-5-5-5zm-414.143-142.318v-27.711h331.333v27.711zm313.909 108.679v56.326h-296.484v-56.326zm-296.484-10v-57.114h24.054v57.113h-24.054zm34.054 0v-57.114h24.054v57.113h-24.054zm34.053 0v-57.114h24.054v57.113h-24.054zm34.054 0v-57.114h24.054v57.113h-24.054zm34.054 0v-57.114h24.054v57.113h-24.054zm34.054 0v-57.114h24.054v57.113h-24.054zm34.054 0v-57.114h24.054v57.113h-24.054zm34.054 0v-57.114h24.054v57.113h-24.054zm34.053 0v-57.114h24.054v57.113h-24.054zm-272.43-67.114v-21.565h296.484v21.565zm337.72 143.44v27.711h-378.956v-27.711zm-361.999 59.643v-21.933h51.462v21.932h-51.462zm43.243 10v107.24h-35.025v-107.24zm8.218 117.239v21.932h-51.461v-21.932zm310.538 31.932v27.711h-378.956v-27.711zm-73.418-149.171h3.219v107.618h-3.219c-2.761 0-5 2.239-5 5v26.554h-41.161v-107.475c0-2.761-2.239-5-5-5h-27.697v-25.271c0-2.761-2.239-5-5-5h-64.403c-2.761 0-5 2.239-5 5v25.271h-27.697c-2.761 0-5 2.239-5 5v107.475h-41.162v-26.932c0-2.761-2.239-5-5-5h-3.219v-107.24h3.219c2.761 0 5-2.239 5-5v-26.933h222.12v26.932c0 2.762 2.238 5.001 5 5.001zm-143.262 26.697v-20.271h54.403v20.271zm22.202 10v102.475h-54.899v-102.475zm10 0h54.899v102.475h-54.899zm167.521 80.921v21.554h-51.461v-21.554zm-43.243-10.379v-107.24h35.024v107.24zm43.243-117.239h-51.461v-21.933h51.462v21.933zm-415.997-82.33h85.234v12.686h-36.236c-2.761 0-5 2.239-5 5v10.025h-43.998zm20.025 274.212v32.711h-20.025v-269.212h43.998v17.686c0 2.761 2.239 5 5 5h11.957v26.932c0 2.761 2.239 5 5 5h3.219v107.24h-3.219c-2.761 0-5 2.239-5 5v26.932h-11.957c-2.761 0-5 2.239-5 5v32.711h-18.973c-2.761 0-5 2.239-5 5zm436.902 32.711h-426.902v-27.711h426.902zm30.025 0h-20.025v-32.711c0-2.761-2.239-5-5-5h-18.973v-32.711c0-2.761-2.239-5-5-5h-11.957v-26.554c0-2.761-2.239-5-5-5h-3.219v-107.617h3.219c2.761 0 5-2.239 5-5v-26.933h11.957c2.761 0 5-2.239 5-5v-17.686h43.998zm0-279.212h-43.998v-10.024c0-2.761-2.239-5-5-5h-36.236v-12.686h85.234z"/><path d="m443.365 283.163v110.679c0 2.761 2.239 5 5 5h38.053c2.761 0 5-2.239 5-5v-110.679c0-2.761-2.239-5-5-5h-38.053c-2.761 0-5 2.239-5 5zm10 5h28.053v100.679h-28.053z"/><path d="m68.635 393.842v-110.679c0-2.761-2.239-5-5-5h-38.052c-2.761 0-5 2.239-5 5v110.679c0 2.761 2.239 5 5 5h38.053c2.76 0 4.999-2.239 4.999-5zm-10-5h-28.052v-100.679h28.053v100.679z"/></g></g></g></svg>