<svg enable-background="new 0 0 512 512" height="512" viewBox="0 0 512 512" width="512" xmlns="http://www.w3.org/2000/svg"><g id="Layer_2"><g><g><path d="m7.524 128.748v-36.059l134.447-85.166 134.446 85.166v36.059l-134.446-85.166z" fill="#bb5d4c"/><path d="m249.427 504.477h-214.912v-392.944l107.456-67.951 107.456 67.951z" fill="#fed2a4"/><path d="m30.832 77.924-23.308 14.765v36.059l23.308-14.765z" fill="#99473a"/><g fill="#f2af7c"><path d="m57.823 96.794-23.308 14.739v392.944h23.308z"/><path d="m249.427 351.047h232.29v153.429h-232.29z"/><path d="m249.427 177.916h166.235v124.048h-166.235z"/></g><path d="m438.421 177.916h-188.994v-49.168h166.235z" fill="#bb5d4c"/><path d="m504.476 351.047h-255.049v-49.168h232.29z" fill="#bb5d4c"/><path d="m249.427 280.91h232.29v21.054h-232.29z" fill="#cdcdc6"/><path d="m190.297 504.477h-96.653v-75.159c0-26.69 21.636-48.326 48.326-48.326 26.69 0 48.326 21.636 48.326 48.326v75.159z" fill="#883f2e"/><path d="m287.312 396.401h156.52v65.427h-156.52z" fill="#68c0e0"/><path d="m287.312 376h156.52v20.401h-156.52z" fill="#cdcdc6"/><g><path d="m79.331 131.626h124.415v95.501h-124.415z" fill="#68c0e0"/><path d="m62.705 227.127h158.532v35.96h-158.532z" fill="#bb5d4c"/><path d="m62.705 227.127h22.629v35.96h-22.629z" fill="#99473a"/></g></g><g><path d="m287.312 466.828h156.521c2.762 0 5-2.239 5-5v-85.828c0-2.761-2.238-5-5-5h-156.521c-2.762 0-5 2.239-5 5v85.828c0 2.761 2.238 5 5 5zm151.52-10h-68.26v-55.427h68.26zm-146.52-75.828h146.521v10.401h-146.521zm0 20.401h68.261v55.427h-68.261z"/><path d="m74.331 131.626v55.569h-11.626c-2.762 0-5 2.239-5 5v70.891c0 2.761 2.238 5 5 5h158.531c2.762 0 5-2.239 5-5v-70.891c0-2.761-2.238-5-5-5h-12.49v-55.569c0-2.761-2.238-5-5-5h-124.415c-2.762 0-5 2.239-5 5zm-6.626 65.569h6.626v24.932h-6.626zm141.041 0h7.49v24.932h-7.49zm7.49 34.932v25.96h-148.531v-25.96h11.626 124.415zm-109.418-10v-24.932h30.152v24.932zm40.153 0v-24.932h30.152v24.932zm40.152 0v-24.932h11.623v24.932zm-102.792-85.501h114.415v50.569h-114.415zm0 60.569h12.487v24.932h-12.487z"/><path d="m509.013 348.947-22.296-48.168v-19.869c0-2.761-2.238-5-5-5h-3.257v-33.895c0-2.761-2.238-5-5-5h-52.798v-54.099h17.759c1.706 0 3.295-.87 4.213-2.308.919-1.438 1.041-3.244.324-4.793l-22.759-49.168c-.818-1.768-2.589-2.9-4.537-2.9h-134.245v-31.058c0-1.713-.877-3.307-2.324-4.224l-134.447-85.166c-1.635-1.035-3.717-1.035-5.352 0l-134.445 85.166c-1.447.917-2.324 2.511-2.324 4.224v36.059c0 1.823.992 3.502 2.59 4.38 1.597.878 3.545.82 5.086-.157l19.314-12.235v383.74c0 2.761 2.238 5 5 5l447.202-.001c2.762 0 5-2.239 5-5v-148.428h17.759c1.706 0 3.295-.87 4.213-2.307.918-1.438 1.04-3.245.324-4.793zm-32.296-63.037v10.969h-222.29v-10.969zm-118.853-48.895c-2.762 0-5 2.239-5 5v33.895h-98.438v-92.994h156.235v54.099zm52.798 10v24.932h-19.277v-24.932zm-29.277 0v24.932h-18.521v-24.932zm68.554 0h18.521v24.932h-18.521zm-10 0v24.932h-19.277v-24.932zm-27.472-113.267 18.13 39.168h-176.17v-39.168zm-158.04-10v-3.011l4.753 3.011zm-69.13 375.729h-86.652v-70.159c0-23.89 19.436-43.326 43.326-43.326s43.326 19.436 43.326 43.326zm59.13 0h-49.13v-70.159c0-29.404-23.922-53.326-53.326-53.326s-53.326 23.922-53.326 53.326v70.159h-49.13v-385.075l102.456-64.905 102.456 64.905zm-99.784-460.121c-1.631-1.032-3.713-1.032-5.344 0l-126.775 80.306v-24.221l129.446-81.999 129.446 81.999v24.221zm332.074 460.12h-222.29v-143.429h222.29zm-222.29-153.429v-39.083h224.134l18.091 39.083z"/></g></g></g></svg>