<svg enable-background="new 0 0 512 512" height="512" viewBox="0 0 512 512" width="512" xmlns="http://www.w3.org/2000/svg"><g id="Layer_2"><g><path d="m505.508 504.476h-499.015v-339.173l249.507-157.779 249.508 157.779z" fill="#68c0e0"/><path d="m267.654 14.893-11.654-7.369-249.507 157.779v339.173h23.308v-339.173z" fill="#3282a1"/><path d="m78.59 225.264h354.82v279.212h-354.82z" fill="#494a47"/><path d="m78.59 225.264h354.82v63.242h-354.82z" fill="#cdcdc6"/><path d="m169.303 143.913h173.394v41.877h-173.394z" fill="#494a47"/><path d="m336.31 407.375h97.101v97.101h-97.101z" fill="#fed2a4"/><path d="m372.793 407.375h24v24h-24z" fill="#e15f4f"/><path d="m336.31 310.274h97.101v97.101h-97.101z" fill="#fed2a4"/><path d="m372.793 310.274h24v24h-24z" fill="#e15f4f"/><path d="m239.209 407.375h97.101v97.101h-97.101z" fill="#fed2a4"/><path d="m275.692 407.375h24v24h-24z" fill="#e15f4f"/><g><path d="m508.18 161.077-249.508-157.78c-1.632-1.032-3.713-1.032-5.345 0l-249.507 157.78c-1.449.917-2.328 2.512-2.328 4.226v339.174c0 2.761 2.239 5 5 5h499.015c2.761 0 5-2.239 5-5v-339.174c0-1.715-.878-3.31-2.327-4.226zm-227.488 251.298h14v14h-14zm-5 24h24c2.761 0 5-2.239 5-5v-19h26.617v87.101h-87.101v-87.101h26.483v19c.001 2.761 2.24 5 5.001 5zm102.101-121.101h14v14h-14zm-5 24h24c2.761 0 5-2.239 5-5v-19h26.617v87.101h-87.1v-87.101h26.483v19c0 2.761 2.239 5 5 5zm-31.483 73.101h26.483v19c0 2.761 2.239 5 5 5h24c2.761 0 5-2.239 5-5v-19h26.617v87.101h-87.1zm36.483 0h14v14h-14zm50.617-128.869h-344.82v-53.242h344.82zm0 10v11.769h-92.1c-2.761 0-5 2.239-5 5v92.101h-92.101c-2.761 0-5 2.239-5 5v92.101h-150.619v-205.97h344.82zm72.097 205.971h-62.097v-274.213c0-2.761-2.239-5-5-5h-354.82c-2.761 0-5 2.239-5 5v274.212h-62.097v-331.42l244.507-154.617 244.507 154.617z"/><path d="m164.303 143.913v41.877c0 2.761 2.239 5 5 5h173.395c2.761 0 5-2.239 5-5v-41.877c0-2.761-2.239-5-5-5h-173.395c-2.761 0-5 2.239-5 5zm10 5h163.395v31.877h-163.395z"/></g></g></g></svg>