<svg enable-background="new 0 0 512 512" height="512" viewBox="0 0 512 512" width="512" xmlns="http://www.w3.org/2000/svg"><g id="Layer_2"><g><path d="m419.677 505.357-327.354 1 163.677-455.718z" fill="#fed2a4"/><path d="m267.667 83.052-11.667-32.413-163.677 455.718 23.334-.071z" fill="#f2af7c"/><path d="m256 50.639-61.554 171.381h123.108z" fill="#68c0e0"/><path d="m170.923 287.514h170.154l-23.523-65.494h-123.108z" fill="#e15f4f"/><path d="m217.755 222.02 49.899-138.933-11.654-32.448-61.554 171.381z" fill="#3282a1"/><path d="m194.446 222.02-23.523 65.494h23.309l23.523-65.494z" fill="#ca4336"/><path d="m300.919 505.857h-89.838l44.919-218.343z" fill="#494a47"/><g><path d="m424.382 503.665-163.051-453.16 15.503-43.172c.933-2.599-.417-5.462-3.017-6.396-2.594-.935-5.462.416-6.396 3.016l-11.409 31.772-11.432-31.775c-.937-2.599-3.804-3.946-6.397-3.012-2.599.935-3.947 3.799-3.013 6.397l15.534 43.173-163.087 454.159c-.551 1.534-.319 3.241.621 4.573.937 1.328 2.46 2.117 4.085 2.117h.016l327.354-1c1.625-.005 3.146-.8 4.079-2.131s1.16-3.032.61-4.561zm-207.168-2.809 38.786-188.529 38.762 188.412zm-39.197-218.342 19.928-55.494h116.27l19.967 55.494zm78.005-217.226 54.594 151.732h-109.08zm-81.596 227.226h75.44l-42.893 208.493-107.534.329zm130.539 208.194-42.832-208.193h75.646l74.791 207.865z"/><path d="m256 249.483c-2.918 0-5.284 2.366-5.284 5.284s2.366 5.285 5.284 5.285 5.284-2.366 5.284-5.285-2.366-5.284-5.284-5.284z"/><path d="m231.973 249.483c-2.918 0-5.284 2.366-5.284 5.284s2.366 5.285 5.284 5.285 5.284-2.366 5.284-5.285-2.365-5.284-5.284-5.284z"/><path d="m208.467 249.483c-2.918 0-5.284 2.366-5.284 5.284s2.366 5.285 5.284 5.285c2.919 0 5.284-2.366 5.284-5.285s-2.365-5.284-5.284-5.284z"/><path d="m303.533 249.483c-2.919 0-5.284 2.366-5.284 5.284s2.366 5.285 5.284 5.285 5.284-2.366 5.284-5.285-2.366-5.284-5.284-5.284z"/><path d="m280.027 249.483c-2.918 0-5.284 2.366-5.284 5.284s2.366 5.285 5.284 5.285 5.284-2.366 5.284-5.285-2.366-5.284-5.284-5.284z"/><path d="m184.8 300.675c-2.919 0-5.284 2.366-5.284 5.284s2.366 5.285 5.284 5.285 5.284-2.366 5.284-5.285-2.365-5.284-5.284-5.284z"/><path d="m231.973 300.675c-2.918 0-5.284 2.366-5.284 5.284s2.366 5.285 5.284 5.285 5.284-2.366 5.284-5.285-2.365-5.284-5.284-5.284z"/><path d="m208.467 300.675c-2.918 0-5.284 2.366-5.284 5.284s2.366 5.285 5.284 5.285c2.919 0 5.284-2.366 5.284-5.285s-2.365-5.284-5.284-5.284z"/><path d="m303.533 300.675c-2.919 0-5.284 2.366-5.284 5.284s2.366 5.285 5.284 5.285 5.284-2.366 5.284-5.285-2.366-5.284-5.284-5.284z"/><path d="m325.991 300.675c-2.918 0-5.284 2.366-5.284 5.284s2.366 5.285 5.284 5.285c2.919 0 5.284-2.366 5.284-5.285s-2.365-5.284-5.284-5.284z"/><path d="m280.027 300.675c-2.918 0-5.284 2.366-5.284 5.284s2.366 5.285 5.284 5.285 5.284-2.366 5.284-5.285-2.366-5.284-5.284-5.284z"/></g></g></g></svg>