<svg enable-background="new 0 0 512 512" height="512" viewBox="0 0 512 512" width="512" xmlns="http://www.w3.org/2000/svg"><g id="Layer_2"><g><g><path d="m170.98 397.781h170.04v106.695h-170.04z" fill="#bb5d4c"/><path d="m170.98 397.781h23.309v106.695h-23.309z" fill="#99473a"/><path d="m182.018 163.181h147.963v189.022h-147.963z" fill="#bb5d4c"/><path d="m182.018 164.181h147.963v189.022h-147.963z" fill="#bb5d4c"/><path d="m182.018 164.181h23.309v189.022h-23.309z" fill="#99473a"/><path d="m361.627 396.781h-211.254l31.62-45.578h147.989z" fill="#fed2a4"/><path d="m181.993 351.203-31.62 45.578h23.308l31.62-45.578z" fill="#f2af7c"/><path d="m344.125 163.181h-176.25l88.125-86.17z" fill="#fed2a4"/><path d="m256 77.011-88.125 86.17h23.309l76.47-74.774z" fill="#f2af7c"/><g fill="#494a47"><path d="m312.941 12.529h54.444v97.258h-54.444z" transform="matrix(.707 .707 -.707 .707 142.877 -222.619)"/><path d="m144.615 180.856h54.444v97.258h-54.444z" transform="matrix(.707 .707 -.707 .707 212.6 -54.292)"/><path d="m312.941 180.856h54.444v97.258h-54.444z" transform="matrix(-.707 .707 -.707 -.707 742.965 151.223)"/><path d="m144.615 12.529h54.444v97.258h-54.444z" transform="matrix(-.707 .707 -.707 -.707 336.589 -17.104)"/></g><circle cx="256" cy="145.321" fill="#cdcdc6" r="13.493"/><path d="m279.78 504.476h-47.56v-40.264c0-13.133 10.647-23.78 23.78-23.78 13.133 0 23.78 10.647 23.78 23.78z" fill="#6d3326"/></g><g><path d="m321.491 118.328c.976.976 2.256 1.464 3.535 1.464s2.56-.488 3.535-1.464l68.771-68.771c1.953-1.953 1.953-5.119 0-7.071l-38.496-38.499c-.938-.938-2.209-1.464-3.535-1.464s-2.598.527-3.535 1.464l-68.772 68.772c-.938.938-1.465 2.209-1.465 3.536s.526 2.598 1.465 3.536l15.713 15.713-8.208 8.207-31.003-30.316c-1.943-1.899-5.049-1.899-6.992 0l-31.003 30.315-8.208-8.207 15.713-15.713c.938-.938 1.465-2.209 1.465-3.536s-.526-2.598-1.465-3.536l-68.772-68.771c-.938-.938-2.209-1.464-3.535-1.464s-2.598.527-3.535 1.464l-38.497 38.498c-1.953 1.953-1.953 5.119 0 7.071l68.771 68.771c.976.976 2.256 1.464 3.535 1.464s2.56-.488 3.535-1.464l15.714-15.714 8.128 8.128-49.972 48.864c-1.453 1.421-1.901 3.58-1.134 5.462.768 1.882 2.598 3.112 4.63 3.112h9.144v10.553l-62.352 62.352c-1.953 1.953-1.953 5.119 0 7.071l38.497 38.498c.976.976 2.256 1.464 3.535 1.464s2.56-.488 3.535-1.464l16.784-16.784v79.731l-30.754 44.329c-1.061 1.529-1.185 3.52-.321 5.168.862 1.648 2.569 2.682 4.43 2.682h15.606v102.695c0 2.761 2.238 5 5 5h170.041c2.762 0 5-2.239 5-5v-102.693h15.606c1.861 0 3.568-1.034 4.431-2.683s.737-3.641-.323-5.169l-30.753-44.292v-79.767l16.784 16.784c.976.976 2.256 1.464 3.535 1.464s2.56-.488 3.535-1.464l38.497-38.498c1.953-1.953 1.953-5.119 0-7.071l-62.352-62.352v-10.553h9.144c2.032 0 3.862-1.23 4.63-3.112s.319-4.042-1.134-5.462l-49.972-48.864 8.128-8.128zm-115.268-29.855-9.921-9.921 12.178-12.178 9.921 9.921zm-22.209-46.564-12.177 12.178-10.323-10.323 12.177-12.177zm-19.248 19.248-12.178 12.178-10.323-10.323 12.178-12.178zm-5.107 19.249 12.177-12.178 10.323 10.323-12.178 12.178zm19.248-19.249 12.177-12.178 10.323 10.323-12.177 12.178zm-22.208-46.563 9.921 9.921-12.178 12.177-9.92-9.921zm-19.248 19.249 9.92 9.921-12.178 12.178-9.92-9.92zm49.523 73.878-9.92-9.92 12.178-12.178 9.921 9.921zm50.247 391.755v-35.264c0-10.355 8.425-18.78 18.779-18.78s18.779 8.425 18.779 18.78v35.264zm98.8 0h-51.241v-35.264c0-15.869-12.91-28.78-28.779-28.78s-28.779 12.911-28.779 28.78v35.264h-51.241v-97.695h160.041v97.695zm-80.021-415.472 27.427 26.819-18.385 18.385c-5.599-3.138-12.483-3.139-18.083 0l-18.386-18.385zm69.026 98.917 9.92 9.92-12.177 12.178-9.92-9.921zm-14.434 48.418 12.178-12.178 10.323 10.323-12.178 12.178zm17.394 17.394 12.178-12.178 10.323 10.323-12.177 12.178zm19.248-19.248 12.177-12.178 10.323 10.323-12.178 12.178zm5.107-19.249-12.177 12.178-10.324-10.324 12.177-12.178zm-36.643 1.854-12.178 12.178-9.921-9.921 12.178-12.178zm-32.705-1.278c-.938.938-1.465 2.209-1.465 3.536s.526 2.598 1.465 3.536l41.988 41.988v86.332h-137.962v-86.332l41.988-41.988c.938-.938 1.465-2.209 1.465-3.536s-.526-2.598-1.465-3.536l-15.714-15.713 26.917-26.917h31.579l26.917 26.917zm-83.842-15.713-9.92 9.921-12.177-12.178 9.92-9.92zm9.328 29.169-12.178-12.178 9.92-9.921 12.178 12.178zm-17.394 17.395-12.178-12.178 10.323-10.323 12.178 12.178zm-8.925-29.572-10.323 10.323-12.177-12.178 10.323-10.323zm-29.572 5.216 12.177 12.178-10.323 10.323-12.178-12.178zm19.248 19.249 12.178 12.178-10.323 10.323-12.177-12.178zm90.169-97.241c3.312 3.312 3.312 8.7 0 12.011-3.311 3.311-8.699 3.311-12.01 0-3.312-3.312-3.312-8.7-.001-12.011 1.656-1.656 3.831-2.483 6.006-2.483s4.35.828 6.005 2.483zm-40.582-21.501 18.464 18.464c-3.139 5.6-3.139 12.484 0 18.084l-3.818 3.818h-55.929zm4.646 50.367-19.847 19.847-15.714-15.714c-.964-.965-2.226-1.448-3.49-1.46v-2.674h39.051zm-90.875 66.52 12.178 12.178-9.92 9.921-12.178-12.178zm21.505 41.347-12.177-12.178 9.92-9.921 12.177 12.177zm3.229 115.733 24.682-35.578h142.757l24.702 35.578zm195.373-115.733-9.921-9.921 12.177-12.177 9.921 9.921zm19.248-19.249-9.92-9.92 12.178-12.178 9.92 9.92zm-49.568-85.944c-1.265.011-2.526.495-3.49 1.46l-15.714 15.713-19.847-19.847h39.051zm6.878-12.674h-55.928l-3.818-3.818c3.139-5.599 3.139-12.484 0-18.084l18.465-18.465zm-6.833-50.46-12.178-12.178 9.921-9.921 12.178 12.178zm34.386-34.385-12.178-12.178 10.323-10.323 12.178 12.178zm-19.249-19.249-12.177-12.178 10.323-10.323 12.177 12.177zm-19.248-5.107 12.177 12.178-10.323 10.323-12.177-12.178zm19.248 19.248 12.177 12.178-10.323 10.323-12.177-12.177zm36.643-12.287-12.178-12.178 9.92-9.921 12.178 12.178zm-21.505-41.347 12.177 12.178-9.92 9.921-12.178-12.178zm-61.701 61.701 9.921-9.921 12.178 12.178-9.921 9.921z"/></g></g></g></svg>