<svg enable-background="new 0 0 512 512" height="512" viewBox="0 0 512 512" width="512" xmlns="http://www.w3.org/2000/svg"><g id="Layer_2"><g><path d="m190.345 76.951-182.821 115.891h496.952l-182.82-115.891c-40.083-25.409-91.228-25.409-131.311 0z" fill="#bb5d4c"/><path d="m267.655 58.464c-26.603-2.536-53.85 3.616-77.31 18.487l-182.821 115.891h23.309l182.82-115.891c16.624-10.538 35.151-16.69 54.002-18.487z" fill="#99473a"/><path d="m51.804 192.842h408.392v223.552h-408.392z" fill="#fed2a4"/><path d="m51.804 192.842h23.309v223.552h-23.309z" fill="#f2af7c"/><path d="m53.333 267.753h405.333v63.466h-405.333z" fill="#bb5d4c"/><path d="m53.333 267.753h21.779v63.466h-21.779z" fill="#99473a"/><path d="m298.745 246.045h114.124v170.35h-114.124z" fill="#cdcdc6"/><path d="m12.831 416.395h486.338v37.711h-486.338z" fill="#494a47"/><path d="m12.831 416.395h23.309v37.711h-23.309z" fill="#333331"/><g><path d="m507.152 188.619-182.819-115.891c-41.511-26.313-95.156-26.313-136.665 0l-182.82 115.891c-1.879 1.191-2.745 3.48-2.125 5.617s2.577 3.606 4.802 3.606h39.279v213.553h-33.973c-2.762 0-5 2.239-5 5v37.711c0 2.761 2.238 5 5 5h486.338c2.762 0 5-2.239 5-5v-37.711c0-2.761-2.238-5-5-5h-33.973v-213.553h39.279c2.225 0 4.182-1.47 4.802-3.606.62-2.137-.246-4.426-2.125-5.617zm-324.217 9.223v64.911h-58.065v-64.911zm68.065 0v64.911h-58.065v-64.911zm68.065 0v43.203h-20.32c-2.762 0-5 2.239-5 5v16.708h-32.745v-64.911zm68.066 0v43.203h-58.065v-43.203zm30.738 124.243 4.135 4.135h-4.135zm37.327 4.135h-8.665l8.665-8.665zm0-22.721c-.157.123-.321.235-.466.38l-20.463 20.462-16.398-16.398v-35.19h37.327zm-47.327 107.896h-104.124v-160.35h104.124zm-146.869 0v-75.175h32.745v75.175zm-68.065 0v-75.175h58.065v75.175zm-68.066 0v-75.175h58.065v75.175zm107.034-138.642-51.479 51.479-51.479-51.479zm-39.325 53.467 51.479-51.479 49.688 49.688v1.791zm101.167-15.932-37.535-37.535h37.535zm-236.941-37.535h47.926l-47.926 47.925zm60.033 2.035 51.433 51.432h-102.866zm-1.968-12.035h-58.065v-64.911h58.065zm-58.065 73.467h58.065v75.175h-58.065zm437.365 112.885h-476.338v-27.711h476.338zm-76.3-37.71v-75.175h37.327v75.175zm37.327-148.642h-37.327v-16.708c0-2.761-2.238-5-5-5h-15.738v-43.203h58.065zm-430.445-74.911 168.27-106.668c38.257-24.251 87.699-24.252 125.958 0l168.27 106.667h-462.498z"/></g></g></g></svg>