<svg height="512pt" viewBox="0 -4 512.00034 512" width="512pt" xmlns="http://www.w3.org/2000/svg"><path d="m491.300781 346.386719c-3.875-1.546875-8.269531.34375-9.816406 4.21875-5.695313 14.277343-11.339844 23.953125-11.394531 24.046875-.683594 1.160156-1.042969 2.480468-1.042969 3.832031v96.253906c0 7.667969-6.242187 13.910157-13.910156 13.910157-7.671875 0-13.910157-6.242188-13.910157-13.910157v-88.363281c0-3.570312-2.503906-6.65625-6-7.390625-23.617187-4.972656-34.265624-29.882813-34.363281-30.113281-1.164062-2.839844-3.929687-4.6875-6.988281-4.6875-.042969 0-.085938 0-.128906 0-85.992188 1.441406-154.121094-8.65625-154.796875-8.761719-4.503907-.683594-8.683594 2.925781-8.683594 7.472656v131.566407c0 7.820312-6.363281 14.1875-14.1875 14.1875s-14.1875-6.367188-14.1875-14.1875v-65.210938c0-4.171875-3.382813-7.554688-7.554687-7.554688-4.171876 0-7.554688 3.382813-7.554688 7.554688v65.210938c0 16.15625 13.140625 29.296874 29.296875 29.296874s29.296875-13.140624 29.296875-29.296874v-122.929688c20.769531 2.609375 76.582031 8.636719 143.824219 7.832031 4.59375 8.496094 16.195312 25.9375 36.917969 32.789063v82.585937c0 16 13.019531 29.019531 29.019531 29.019531 16.003906 0 29.023437-13.019531 29.023437-29.019531v-94.269531c2.015625-3.648438 6.648438-12.4375 11.363282-24.265625 1.542968-3.875-.34375-8.269531-4.222657-9.816406zm0 0"/><path d="m186.78125 379.027344c0 4.171875 3.382812 7.554687 7.554688 7.554687 4.171874 0 7.554687-3.378906 7.554687-7.554687v-47.949219c0-2.363281-1.109375-4.59375-2.996094-6.023437-50.664062-38.367188-69.566406-105.03125-69.753906-105.695313-1.019531-3.714844-4.675781-6.070313-8.484375-5.453125-.230469.035156-23.261719 3.640625-47.949219-.136719-27.613281-4.222656-45.859375-15.558593-54.378906-33.734375 5.785156-4.351562 9.441406-11.265625 9.441406-18.757812 0-.433594-.035156-.863282-.058593-1.292969l128.070312-60.242187c.871094-.410157 1.652344-.980469 2.308594-1.683594l28.203125-30.21875c.195312-.210938.539062-.136719.648437.125 7.984375 18.976562 4.386719 33.292968-10.695312 42.554687-3.03125 1.863281-4.351563 5.59375-3.167969 8.949219.46875 1.339844 11.730469 33.019531 28.582031 57.007812 10.910156 15.535157 28.855469 24.808594 48.003906 24.808594h17.15625c4.175782 0 7.558594-3.382812 7.558594-7.554687 0-4.175781-3.382812-7.558594-7.558594-7.558594h-17.15625c-14.230468 0-27.554687-6.871094-35.636718-18.378906-11.722656-16.6875-20.8125-38.160157-24.675782-48 17.1875-13.449219 21.425782-34.136719 11.519532-57.6875-2.050782-4.871094-6.378906-8.332031-11.578125-9.261719-5.191407-.921875-10.445313.828125-14.050781 4.6875l-27.210938 29.152344-11.875 5.585937c3.007812-7.066406 5.28125-14.445312 6.996094-21.78125 26.132812-4.410156 37.722656-30.703125 40.242187-44.941406.726563-4.101563-2.003906-8.003906-6.101562-8.742187-4.097657-.734376-8.027344 1.988281-8.773438 6.085937-.015625.085937-1.625 8.660156-6.691406 17.066406-4.199219 6.964844-9.453125 11.683594-15.683594 14.121094 3.359375-24.808594 1.332031-45.738281 1.171875-47.292969-.425781-4.148437-4.140625-7.167968-8.285156-6.7421872-4.148438.4257812-7.167969 4.1328122-6.746094 8.2851562.0625.621094 5.933594 61.859375-19.851562 95.097656l-5.464844 2.574219c-17.851562-.824219-31.707031-7.058594-41.171875-18.574219-22.925781-27.898437-14.714844-78.039062-14.621094-78.589843.703125-4.109376-2.054687-8.015626-6.164062-8.722657-4.113281-.71875-8.019531 2.050781-8.730469 6.164063-.273438 1.59375-4.628906 27.925781 1.421875 55.0625-16.972656-9.816406-22.644531-38.183594-22.707031-38.523438-.78125-4.097656-4.730469-6.78125-8.828125-6.011718-4.101563.777343-6.796875 4.730468-6.019531 8.832031.101562.523437 2.503906 12.960937 9.210937 25.660156 8.496094 16.101563 20.199219 25.640625 34.050781 27.910156 2.71875 6.285157 6.207032 12.320313 10.675782 17.765625 7.75 9.449219 17.589843 16.152344 29.378906 20.082032l-70.710938 33.265624c-9.972656 4.6875-14.945312 15.757813-11.832031 26.3125 8.410156 28.496094 32.570313 46.519532 69.863281 52.132813 18.953125 2.851563 36.574219 1.808594 45.734375.875 6.003907 18.015625 26.398438 70.308594 70.257813 105.144531v44.242188zm0 0"/><path d="m499.828125 215.320312c-12.851563-18.25-34.191406-29.148437-57.089844-29.148437h-145.691406c-4.175781 0-7.558594 3.382813-7.558594 7.554687 0 4.175782 3.382813 7.558594 7.558594 7.558594h145.691406c17.988281 0 34.710938 8.5 44.734375 22.734375 5.757813 8.171875 8.839844 17.167969 9.273438 26.894531-4.3125-6.828124-9.777344-12.902343-16.398438-18.144531-3.269531-2.59375-8.023437-2.039062-10.613281 1.230469s-2.039063 8.023438 1.230469 10.613281c20.851562 16.519531 27.347656 42.828125 19.300781 78.191407-.890625 3.90625 1.542969 7.945312 5.414063 8.976562 4.085937 1.089844 8.382812-1.5 9.320312-5.621094 3.910156-17.191406 4.664062-32.851562 2.351562-46.734375 8.121094-23.921875 5.597657-45.480469-7.523437-64.105469zm0 0"/><path d="m111.496094 160.816406c0 10.679688 6.734375 19.046875 15.332031 19.046875s15.335937-8.367187 15.335937-19.046875c0-10.679687-6.734374-19.046875-15.335937-19.046875-8.597656 0-15.332031 8.367188-15.332031 19.046875zm0 0"/></svg>