<svg height="511pt" viewBox="-41 1 511 511.999" width="511pt" xmlns="http://www.w3.org/2000/svg"><path d="m132.824219 107.449219c-8.582031 0-15.308594 8.351562-15.308594 19.011719 0 10.65625 6.726563 19.007812 15.308594 19.007812s15.304687-8.347656 15.304687-19.007812c0-10.660157-6.722656-19.011719-15.304687-19.011719zm0 0"/><path d="m297.382812 107.449219c-8.582031 0-15.304687 8.351562-15.304687 19.011719 0 10.65625 6.722656 19.007812 15.304687 19.007812 8.582032 0 15.304688-8.347656 15.304688-19.007812 0-10.660157-6.722656-19.011719-15.304688-19.011719zm0 0"/><path d="m395.265625 94.996094c-42.234375-59.484375-109.582031-94.996094-180.164063-94.996094-70.578124 0-137.925781 35.511719-180.160156 94.996094-31.105468 43.804687-42.003906 91.925781-29.15625 128.71875 5.011719 14.347656 12.199219 23.34375 21.984375 27.511718 16.238281 6.921876 35.101563-1.71875 53.339844-10.074218 2.105469-.964844 4.226563-1.933594 6.34375-2.878906v33.375c0 4.164062 3.375 7.539062 7.539063 7.539062 4.167968 0 7.542968-3.375 7.542968-7.539062v-39.445313c7.246094-2.425781 14.175782-3.785156 20.308594-2.886719.464844.070313.921875.152344 1.375.238282v168.804687h-.003906c-.050782 1.878906-.738282 18.910156-8.746094 39.109375-11.023438 27.808594-30.644531 47.484375-56.75 56.898438-5.558594 2.007812-11.875-.964844-13.878906-6.519532-2.007813-5.570312.96875-11.875 6.523437-13.878906 19.714844-7.109375 34.769531-22.09375 43.535157-43.328125 6.550781-15.867187 7.503906-29.921875 7.628906-32.574219.003906-.121094.007812-.238281.007812-.355468v-90.945313c0-4.164063-3.375-7.542969-7.542968-7.542969-4.164063 0-7.539063 3.378906-7.539063 7.542969v90.753906c-.199219 3.582031-3.441406 48.640625-41.207031 62.261719-13.28125 4.789062-20.394532 19.871094-15.59375 33.183594 3.449218 9.5625 12.507812 16.386718 22.648437 17.074218 3.566407.242188 7.171875-.269531 10.535157-1.484374 26.464843-9.542969 47.140624-28.050782 60.382812-53.882813v28.949219c0 15.648437 12.730469 28.378906 28.378906 28.378906 8.226563 0 15.648438-3.523438 20.835938-9.140625 5.1875 5.617187 12.605468 9.140625 20.835937 9.140625 8.226563 0 15.648438-3.523438 20.832031-9.140625 5.191407 5.617187 12.609376 9.140625 20.835938 9.140625 8.230469 0 15.648438-3.523438 20.835938-9.140625 5.191406 5.617187 12.609374 9.140625 20.835937 9.140625 15.648437 0 28.375-12.730469 28.375-28.378906v-28.949219c13.246094 25.832031 33.921875 44.339844 60.386719 53.882813 2.839844 1.023437 5.796875 1.542968 8.792968 1.542968 10.890626 0 20.691407-6.886718 24.390626-17.132812 4.800781-13.3125-2.3125-28.394532-15.59375-33.183594-37.765626-13.621094-41.007813-58.679688-41.207032-62.261719v-36.589843c0-4.164063-3.375-7.539063-7.539062-7.539063-4.167969 0-7.542969 3.375-7.542969 7.539063v36.78125c0 .117187.003906.234374.007813.355468.125 2.65625 1.078124 16.707032 7.628906 32.574219 8.765625 21.234375 23.820312 36.21875 43.535156 43.328125 5.554688 2.003906 8.53125 8.3125 6.523438 13.878906-2.003907 5.554688-8.316407 8.527344-13.878907 6.523438-26.105469-9.417969-45.730469-29.09375-56.753906-56.902344-8.003906-20.199219-8.691406-37.230469-8.742187-39.113281h-.007813v-168.800781c.457031-.085938.914063-.167969 1.378906-.238282 6.136719-.898437 13.0625.460938 20.308594 2.886719v98.5625c0 4.164063 3.375 7.542969 7.542969 7.542969 4.164062 0 7.539062-3.378906 7.539062-7.542969v-92.492187c2.117188.945312 4.238282 1.914062 6.34375 2.878906 18.238282 8.355468 37.097656 16.992187 53.339844 10.074218 9.785156-4.167968 16.972656-13.164062 21.984375-27.511718 12.847656-36.792969 1.949219-84.910156-29.15625-128.71875zm-242.667969 401.921875c-7.332031 0-13.296875-5.964844-13.296875-13.292969v-248.28125c3.195313 1.765625 6.40625 3.789062 9.789063 5.917969 5.03125 3.171875 10.484375 6.605469 16.800781 9.757812v232.605469c0 7.328125-5.964844 13.292969-13.292969 13.292969zm83.339844 0c-7.328125 0-13.292969-5.964844-13.292969-13.292969v-81.027344c0-4.167968-3.375-7.542968-7.542969-7.542968-4.164062 0-7.539062 3.375-7.539062 7.542968v81.027344c0 7.328125-5.964844 13.292969-13.296875 13.292969-7.328125 0-13.292969-5.964844-13.292969-13.292969v-226.480469c7.597656 2.394531 16.328125 4.136719 26.589844 4.71875v110.570313c0 4.164062 3.375 7.539062 7.539062 7.539062 4.164063 0 7.542969-3.375 7.542969-7.539062v-110.570313c10.257813-.582031 18.988281-2.324219 26.585938-4.71875v226.480469c.003906 7.328125-5.960938 13.292969-13.292969 13.292969zm54.96875-13.292969c0 7.328125-5.964844 13.292969-13.296875 13.292969s-13.292969-5.964844-13.292969-13.292969v-232.609375c6.3125-3.148437 11.769532-6.582031 16.800782-9.753906 3.382812-2.132813 6.59375-4.152344 9.785156-5.921875v248.285156zm119.277344-264.882812c-3.53125 10.113281-8 16.199218-13.65625 18.609374-10.105469 4.304688-25.1875-2.597656-41.148438-9.910156-16.59375-7.597656-33.757812-15.457031-50.203125-13.046875-12.65625 1.855469-22.097656 7.808594-32.097656 14.109375-14.433594 9.089844-29.359375 18.492188-57.976563 18.492188-28.617187 0-43.539062-9.402344-57.972656-18.492188-10-6.300781-19.445312-12.25-32.097656-14.109375-2.0625-.300781-4.140625-.441406-6.226562-.441406-14.523438 0-29.464844 6.84375-43.976563 13.488281-15.960937 7.3125-31.039063 14.214844-41.148437 9.910156-5.660157-2.410156-10.125-8.496093-13.65625-18.609374-11.070313-31.707032-.644532-75.777344 27.214843-115.015626 39.410157-55.507812 102.164063-88.644531 167.863281-88.644531 65.703126 0 128.457032 33.136719 167.867188 88.644531 27.859375 39.238282 38.285156 83.308594 27.214844 115.015626zm0 0"/></svg>