<svg height="512pt" viewBox="-54 0 512 512.00094" width="512pt" xmlns="http://www.w3.org/2000/svg"><path d="m155.628906 336.292969c-9.28125-27.429688-8.558594-54.667969-4.789062-71.015625 5.558594-24.074219 3.675781-46.976563-5.585938-68.0625-8.425781-19.175782-22.800781-36.449219-42.757812-51.398438 1.605468-2.375 3.195312-4.679687 4.773437-6.890625 8.925781-12.519531 7.050781-29.804687-4.359375-40.207031-7.042968-6.417969-16.46875-9.160156-25.859375-7.511719-2.464843.433594-4.828125 1.15625-7.054687 2.132813-1.347656-25.40625 12.308594-51.730469 35.285156-65.800782 22.140625-13.554687 45.328125-16.117187 67.066406-7.414062 27.503906 11.015625 50.929688 39.410156 59.675782 72.335938 7.804687 29.378906 33.085937 42.582031 59.851562 56.558593 5.589844 2.917969 11.367188 5.9375 17.132812 9.164063 3.566407 2 8.214844.6875 10.210938-2.878906 2.027344-3.617188.738281-8.191407-2.878906-10.214844-5.953125-3.335938-11.832032-6.40625-17.515625-9.375-25.804688-13.472656-46.1875-24.117188-52.292969-47.109375-9.921875-37.347657-36.851562-69.699219-68.605469-82.414063-26.308593-10.539062-54.140625-7.582031-80.480469 8.546875-15.394531 9.425781-27.921874 23.902344-35.277343 40.761719-6.980469 16-8.996094 33.511719-5.78125 49.703125-.367188.589844-.714844 1.191406-1.042969 1.8125-19.074219 36.210937-51.625 112.734375-55.33984375 218.421875-.12500025 3.542969 2.34765575 6.769531 5.79687475 7.574219 3.660157.847656 7.484375-1.226563 8.761719-4.757813.203125-.566406 20.765625-57.164062 49.191406-114.375 1.84375-3.710937.328125-8.214844-3.382812-10.058594-3.714844-1.847656-8.21875-.332031-10.0625 3.382813-12.136719 24.433594-22.863282 48.757813-31.226563 68.769531 9.90625-76.875 34.214844-132.867187 49.539063-161.964844 4.65625-8.839843 16.792968-10.925781 24.179687-4.195312 5.800781 5.289062 6.769531 14.058594 2.25 20.398438-9.878906 13.859374-20.234375 30.714843-30.785156 50.109374-1.980469 3.640626-.632813 8.195313 3.007813 10.175782 3.640624 1.980468 8.199218.636718 10.175781-3.003906 5.707031-10.492188 11.34375-20.195313 16.859375-29.046876 36.640625 27.820313 51.132812 63.488282 41.910156 103.457032-4.234375 18.351562-5.09375 48.796875 5.191406 79.199218 1.3125 3.871094 5.640625 6.011719 9.515625 4.703126 3.925781-1.328126 6.03125-5.585938 4.703125-9.511719zm0 0"/><path d="m388.378906 218.234375c-10.613281-22.632813-25.628906-41.070313-45.914062-56.371094-3.3125-2.496093-8.015625-1.835937-10.511719 1.476563-2.496094 3.308594-1.835937 8.015625 1.476563 10.507812 18.285156 13.789063 31.8125 30.390625 41.359374 50.753906 20.632813 44.019532 18.722657 94.535157-4.988281 131.835938-21.515625 33.84375-58.820312 52.484375-105.046875 52.484375-44.550781 0-77.257812-15.960937-97.214844-47.4375-2.21875-3.5-6.859374-4.535156-10.355468-2.316406-3.5 2.21875-4.539063 6.855469-2.320313 10.355469 12.535157 19.765624 35.296875 42.539062 75.515625 51.003906v59.722656l-36.242187-12.601562c-3.914063-1.363282-8.191407.707031-9.554688 4.621093-1.359375 3.914063.707031 8.191407 4.625 9.554688l24.191407 8.410156-23.863282 7.074219c-3.972656 1.179687-6.238281 5.355468-5.058594 9.328125 1.160157 3.921875 5.402344 6.226562 9.328126 5.0625l46.210937-13.699219c3.183594-.945312 5.371094-3.875 5.371094-7.195312v-67.910157c6.105469.664063 12.542969 1.039063 19.363281 1.039063 17.820312 0 34.476562-2.527344 49.648438-7.414063v63.730469l-36.242188-12.601562c-3.910156-1.363282-8.191406.707031-9.554688 4.621093-1.359374 3.914063.710938 8.191407 4.625 9.554688l24.191407 8.410156-23.859375 7.074219c-3.972656 1.179687-6.242188 5.355468-5.0625 9.328125 1.160156 3.921875 5.40625 6.226562 9.328125 5.0625l46.210937-13.699219c3.183594-.945312 5.371094-3.875 5.371094-7.195312v-80.113282c21.90625-10.050781 39.992188-25.648437 53.054688-46.203125 26.441406-41.589843 28.707031-97.632812 5.917968-146.253906zm0 0"/><path d="m132.230469 83.21875c0 10.609375 6.691406 18.921875 15.230469 18.921875 8.542968 0 15.230468-8.3125 15.230468-18.921875 0-10.605469-6.6875-18.917969-15.230468-18.917969-8.539063 0-15.230469 8.3125-15.230469 18.917969zm0 0"/></svg>