<svg height="511pt" viewBox="0 -29 511.99987 511" width="511pt" xmlns="http://www.w3.org/2000/svg"><path d="m171.386719 50.195312c-6.898438-1.402343-13.359375-.253906-18.675781 3.324219-9.820313 6.613281-12.398438 19.039063-12.660157 20.4375-.578125 3.089844.828125 6.21875 3.527344 7.839844l31.175781 18.707031c2.570313 1.539063 5.902344 1.386719 8.320313-.378906 8.570312-6.277344 12.554687-17.445312 10.140625-28.460938-2.40625-10.996093-10.769532-19.222656-21.828125-21.46875zm5.878906 34.257813-20.785156-12.472656c1.042969-2.230469 2.578125-4.605469 4.679687-6 1.238282-.824219 3.332032-1.824219 7.226563-1.035157 7.507812 1.527344 9.582031 7.457032 10.125 9.9375.75 3.441407.261719 6.855469-1.246094 9.570313zm0 0"/><path d="m107.394531 161.085938c8.566407 0 15.277344-8.335938 15.277344-18.972657 0-10.640625-6.710937-18.976562-15.277344-18.976562-8.566406 0-15.273437 8.335937-15.273437 18.976562 0 10.636719 6.707031 18.972657 15.273437 18.972657zm0 0"/><path d="m500.335938 228.632812c-9.140626-14.617187-21.046876-21.910156-25.796876-24.390624-3.800781-5.113282-8.324218-10.015626-13.6875-14.625-17.089843-14.679688-39.296874-22.761719-62.53125-22.761719h-100.828124c-2.402344-13.554688-9.335938-46.082031-25.042969-78.996094-27.328125-57.273437-68.113281-87.496094-118.015625-87.359375-34.996094.085938-61.675782 13.167969-79.304688 38.886719-12.351562 18.023437-19.914062 41.890625-22.523437 70.953125l-39.832031 28.515625c-11.945313 8.550781-16.117188 24.367187-9.925782 37.613281 14.003906 29.945312 36.613282 46.238281 64.066406 46.394531 8.625 23.191407 20.121094 41.996094 34.222657 55.941407 16.703125 16.515624 36.628906 25.785156 59.410156 27.714843 9.769531 21.902344 14.921875 45.964844 14.921875 69.878907v45.714843c0 16.882813 13.734375 30.617188 30.617188 30.617188 16.882812 0 30.617187-13.734375 30.617187-30.617188v-30.226562c0-4.15625-3.371094-7.523438-7.527344-7.523438s-7.527343 3.367188-7.527343 7.523438v30.226562c0 8.582031-6.980469 15.5625-15.5625 15.5625-8.582032 0-15.566407-6.980469-15.566407-15.5625v-45.714843c0-23.753907-4.675781-47.632813-13.574219-69.738282.542969-.035156 1.078126-.054687 1.625-.09375 59.480469-4.527344 69.355469-39.355468 78.066407-70.085937l1.039062-3.644531c1.144531-3.996094-1.167969-8.164063-5.164062-9.308594-3.992188-1.144532-8.164063 1.167968-9.308594 5.164062l-1.046875 3.683594c-8.4375 29.753906-15.722656 55.449219-64.730469 59.179688-52.847656 4.027343-80.558593-33.90625-94.875-69.960938 17.058594-2.390625 35.6875-7.800781 55.546875-16.160156 31.648438-13.324219 47.195313-49.058594 35.390625-81.351563-6.960937-19.042969-22.0625-33.398437-41.4375-39.378906-19.375-5.984375-39.9375-2.644531-56.425781 9.15625l-6.414062 4.59375c3.195312-20.453125 9.335937-37.417969 18.339843-50.558594 14.65625-21.386719 37.171875-32.269531 66.921875-32.34375 44.171875-.113281 79.253906 26.296875 104.242188 78.480469 15.136718 31.601562 21.851562 63.675781 24.042968 76.042969-12.359374 6.625-21.726562 16.152343-28.527343 28.972656-1.800781 3.390625-.691407 7.714844 2.515625 9.820313 3.660156 2.402343 8.730468 1.097656 10.78125-2.765626 5.9375-11.191406 13.980468-18.90625 25.214844-24.191406h105.578124c19.636719 0 38.359376 6.792969 52.722657 19.128906 23.511719 20.195313 31.304687 49.917969 23.164062 88.34375-1.902343 8.96875-3.789062 18.128907-5.613281 27.21875-.785156 3.914063 1.742188 7.871094 5.625 8.800782 4.09375.980468 8.308594-1.710938 9.136719-5.839844 1.8125-9.035156 3.6875-18.140625 5.578125-27.058594 3.148437-14.855468 4.828125-32.609375 1.667968-50.375 9.132813 19.011719 8.417969 44.210938-2.175781 73.386719-1.328125 3.652344.4375 7.839844 3.984375 9.433594 3.941406 1.769531 8.691406-.238281 10.164063-4.296875 9.269531-25.523438 16.402343-62.207032-2.238281-92.019532zm-415.949219-122.53125c8.515625-6.09375 18.449219-9.242187 28.566406-9.242187 4.886719 0 9.820313.734375 14.65625 2.226563 14.839844 4.582031 26.40625 15.578124 31.738281 30.164062 9.042969 24.738281-2.855468 52.105469-27.09375 62.308594-22.324218 9.398437-42.804687 14.816406-60.871094 16.109375-27.914062 1.988281-44.117187-16.5625-53.113281-33.949219 9.9375-4.148438 16.804688-13.898438 16.804688-25.382812 0-2.148438-.261719-4.292969-.761719-6.386719zm0 0"/><path d="m471.613281 340.257812c-4.085937-.769531-8.023437 1.914063-8.796875 6-4.605468 24.339844-8.21875 45.164063-10.855468 60.367188-1.457032 8.394531-2.605469 15.023438-3.542969 20.09375-1.175781 6.351562-6.714844 10.957031-13.179688 10.957031-7.390625 0-13.40625-6.011719-13.40625-13.40625v-55.359375c0-3.519531-2.457031-6.574218-5.886719-7.347656-.339843-.078125-34.066406-7.992188-45.21875-36.992188-1.121093-2.910156-3.910156-4.828124-7.027343-4.828124h-134.523438c-4.15625 0-7.527343 3.371093-7.527343 7.527343v34.511719c0 4.15625 3.371093 7.527344 7.527343 7.527344s7.527344-3.371094 7.527344-7.527344v-26.984375h122.046875c12.046875 25.222656 36.683594 36.003906 48.03125 39.769531v49.703125c0 15.695313 12.765625 28.460938 28.457031 28.460938 13.71875 0 25.488281-9.785157 27.980469-23.273438.953125-5.152343 2.113281-11.816406 3.574219-20.253906 2.632812-15.160156 6.234375-35.917969 10.816406-60.148437.773437-4.085938-1.910156-8.023438-5.996094-8.796876zm0 0"/></svg>