<svg height="511pt" viewBox="-18 0 511 511.99969" width="511pt" xmlns="http://www.w3.org/2000/svg"><path d="m472.53125 318.808594c-1.332031-3.953125-5.617188-6.082032-9.570312-4.746094-3.953126 1.332031-6.078126 5.613281-4.746094 9.570312 2.25 6.679688 2.851562 13.953126 1.785156 21.617188-4.285156 30.820312-28.210938 38.765625-29.179688 39.074219-3.183593.964843-5.359374 3.902343-5.359374 7.226562v92.871094c0 6.875-5.597657 12.472656-12.472657 12.472656-6.878906 0-12.472656-5.597656-12.472656-12.472656v-41.554687c0-3.0625-1.851563-5.824219-4.6875-6.988282-.101563-.039062-10.140625-4.203125-20.199219-12.199218-12.726562-10.113282-19.179687-21.144532-19.179687-32.785157 0-4.171875-3.382813-7.554687-7.550781-7.554687h-110.730469c-4.171875 0-7.554688 3.382812-7.554688 7.554687v91.804688c0 7.828125-6.367187 14.195312-14.195312 14.195312-7.832031 0-14.199219-6.367187-14.199219-14.195312v-29.640625c0-4.171875-3.382812-7.550782-7.550781-7.550782-4.171875 0-7.554688 3.378907-7.554688 7.550782v29.636718c0 16.160157 13.148438 29.304688 29.304688 29.304688s29.304687-13.144531 29.304687-29.304688v-84.25h96.234375c4.472657 27.226563 32.1875 43.628907 43.453125 49.242188v36.730469c0 15.207031 12.371094 27.582031 27.578125 27.582031 15.210938 0 27.582031-12.375 27.582031-27.582031v-87.828125c9.839844-4.738282 30.0625-18.109375 34.394532-49.257813 1.390625-10.007812.570312-19.605469-2.433594-28.523437zm0 0"/><path d="m260.109375 205.609375c3.894531 19.472656-.785156 34.53125-.824219 34.652344-.972656 2.980469.054688 6.328125 2.511719 8.269531 2.546875 2.007812 6.199219 2.144531 8.894531.339844.214844-.144532 22.074219-14.507813 50.238282-10 26.851562 4.292968 34.601562 19.796875 34.882812 20.371094 1.882812 4.167968 7.230469 5.707031 11.050781 3.191406.265625-.175782 26.859375-17.320313 51.875-5.484375 23.515625 11.128906 21.484375 37.941406 21.386719 39.046875-.382812 4.042968 2.632812 7.753906 6.667969 8.214844 4.144531.472656 7.980469-2.640626 8.371093-6.792969.148438-1.558594 3.238282-38.410157-29.960937-54.121094-24.472656-11.582031-48.753906-2.765625-60.097656 2.851563-5.917969-7.363282-18.429688-18.460938-41.789063-22.199219-19.273437-3.078125-35.851562.996093-46.863281 5.289062.589844-7.179687.519531-16.363281-1.527344-26.59375-.816406-4.089843-4.792969-6.746093-8.886719-5.925781s-6.746093 4.796875-5.929687 8.890625zm0 0"/><path d="m187.113281 422.847656c0 4.171875 3.382813 7.550782 7.550781 7.550782 4.171876 0 7.554688-3.378907 7.554688-7.550782v-32.332031c0-4.726563-4.527344-8.347656-9.140625-7.382813-1.003906.207032-24.710937 4.859376-39.226563-17.433593-15.3125-23.511719-4.441406-52.953125-4.335937-53.230469 1.457031-3.789062-.363281-8.058594-4.089844-9.660156-.222656-.09375-22.054687-9.667969-27.765625-29.246094-5.847656-20.058594 5.625-41.84375 5.734375-42.046875 1.394531-2.578125 1.171875-5.726563-.566406-8.082031-.136719-.183594-13.34375-18.417969-3.519531-35.410156 9.90625-17.136719 20.347656-20.242188 21.449218-20.53125 3.242188-.507813 5.691407-3.175782 6.132813-6.398438.464844-3.421875-1.644531-6.734375-4.804687-8.019531-.0625-.027344-6.308594-2.613281-11.652344-8.410157-6.695313-7.265624-9.03125-16.335937-6.9375-26.960937 2.210937-11.210937 9.296875-20.976563 21.058594-29.023437 9.277343-6.351563 18.066406-9.152344 18.140624-9.175782 3.160157-.980468 5.320313-3.902344 5.320313-7.214844v-55.699218c0-1.191406 1.351563-1.859375 2.328125-1.203125 15.761719 10.59375 34.546875 29.722656 34.546875 60.703125 0 2.703125 1.460937 5.210937 3.804687 6.558594.246094.144531 24.789063 14.539062 28.609376 40.199218 3.550781 23.832032-6.910157 33.265625-7.886719 34.085938-5.074219 3.589844-3.386719 11.382812 2.308593 13.210937.09375.03125 9.382813 3.085938 17.230469 11.609375 2.828125 3.070313 7.605469 3.261719 10.675781.4375 3.066407-2.824218 3.265626-7.601562.4375-10.671875-4.746093-5.15625-9.867187-8.8125-14.136718-11.296875 4.617187-7.578125 9.175781-20.378906 6.3125-39.601562-3.941406-26.484375-23.914063-42.871094-32.34375-48.707032-1.734375-37.089843-26.28125-59.085937-41.128906-69.066406-5.113282-3.4375-11.664063-3.773437-17.09375-.882812-3.34375 1.78125-5.898438 4.601562-7.367188 7.941406-4.300781-2.839844-8.871094-5.488281-13.695312-7.914062-5.78125-2.910157-12.53125-2.617188-18.046876.785156-5.535156 3.410156-8.835937 9.324218-8.835937 15.824218v64.394532c-12.824219 5.792968-27.117187 12.824218-41.132813 20.875-47.84375 27.488281-72.101562 55.207031-72.101562 82.394531 0 28.671875 35.339844 45.050781 105.085938 48.738281-3.550782 10.265625-7.164063 26.554688-2.429688 42.789063 5.585938 19.148437 21.410156 30.660156 30.246094 35.777343-3.058594 11.835938-7.035156 37.609376 7.789062 60.375 14.023438 21.535157 34.25 24.921876 45.917969 24.816407v24.085937zm-58.269531-404.246094c0-2.519531 2.707031-4.265624 4.984375-3.113281 7.019531 3.53125 13.421875 7.558594 19.082031 11.996094v39.476563c-5.265625 1.921874-13.730468 5.128906-24.066406 9.457031zm-113.234375 167.660157c0-31.96875 50.582031-64.492188 98.703125-86.957031-2.523438 4.609374-4.503906 9.746093-5.632812 15.476562-4.203126 21.316406 5.191406 36.125 15.394531 44.722656-5.484375 4.121094-11.882813 10.648438-17.84375 20.957032-8.484375 14.679687-5.972657 29.332031-2.171875 39.320312-56.410156-3.273438-88.449219-15.300781-88.449219-33.519531zm0 0"/><path d="m78.457031 136.597656c-8.597656 0-15.332031 8.363282-15.332031 19.042969 0 10.675781 6.734375 19.042969 15.332031 19.042969 8.59375 0 15.328125-8.367188 15.328125-19.042969 0-10.679687-6.734375-19.042969-15.328125-19.042969zm0 0"/></svg>