<svg height="511pt" viewBox="-45 0 511 511.99994" width="511pt" xmlns="http://www.w3.org/2000/svg"><path d="m345.703125 146.929688c9.449219 0 20.441406-2.414063 31.769531-9.921876 25.925782-17.195312 44.703125-60.136718 43.550782-85.601562-.542969-12.039062-5.53125-17.199219-9.617188-19.40625-12.355469-6.675781-22.453125 3.726562-29.824219 11.316406-3.644531 3.75-7.414062 7.628906-11.132812 9.792969-2.355469 1.371094-5.125 1.441406-7.585938.1875-2.464843-1.257813-4.035156-3.53125-4.3125-6.246094-.4375-4.28125.480469-9.609375 1.367188-14.761719 1.800781-10.429687 4.261719-24.710937-8.398438-30.773437-4.191406-2.003906-11.296875-3.003906-21.351562 3.640625-21.269531 14.054688-44.941407 54.503906-43.585938 85.585938.492188 11.257812 3.726563 21.230468 9.617188 29.824218l-17.496094 27.789063c-2.140625-3.785157-4.449219-7.429688-6.957031-10.878907-2.144532-2.941406-4.390625-5.703124-6.71875-8.292968 2.261718-6.242188 2.5-13.464844-.136719-19.636719-2.109375-4.9375-6.253906-9.011719-11.636719-10.054687-7.105468-1.382813-13.675781 2.84375-17.476562 8.597656-7.980469-3.242188-16.378906-4.925782-24.988282-4.925782-8.613281 0-17.011718 1.683594-24.992187 4.925782-3.800781-5.753906-10.371094-9.984375-17.476563-8.597656-5.382812 1.042968-9.527343 5.117187-11.636718 10.054687-2.636719 6.171875-2.398438 13.394531-.136719 19.636719-2.328125 2.589844-4.574219 5.351562-6.71875 8.292968-2.507813 3.449219-4.816406 7.09375-6.957031 10.878907l-17.496094-27.789063c5.890625-8.59375 9.125-18.566406 9.617188-29.824218.449218-10.285157-1.621094-21.605469-6.152344-33.648438-1.460938-3.886719-5.796875-5.847656-9.679688-4.386719-3.882812 1.460938-5.847656 5.792969-4.386718 9.679688 3.757812 9.992187 5.558593 19.570312 5.203124 27.699219-.570312 13.085937-5.824218 23.425781-16.058593 31.613281-5.078125 4.0625-10.621094 6.949219-16.480469 8.582031-12.269531 3.425781-24.054688 1.472656-35.027344-5.800781-22.800781-15.117188-37.066406-52.269531-36.878906-71.207031.058594-5.726563 1.441406-7.835938 1.78125-8.050782 2.171875-1.175781 6.308594 2.808594 11.898438 8.566406 4.148437 4.269532 8.847656 9.105469 14.347656 12.308594 10.859375 6.324219 25.273437 2.429688 31.511718-8.460937 1.589844-2.773438 2.582032-5.875 2.90625-9.058594.648438-6.332031-.5-12.976563-1.511718-18.84375-1.363282-7.910156-2.15625-13.589844.078125-14.660156 2.164062-.851563 12.8125 4.515625 25.066406 22.292969 2.355469 3.417968 7.035156 4.28125 10.453125 1.921874 3.417969-2.351562 4.28125-7.03125 1.921875-10.449218-12.109375-17.578125-30.011719-33.984375-43.929687-27.324219-12.660157 6.0625-10.199219 20.34375-8.398438 30.773437.886719 5.152344 1.804688 10.480469 1.367188 14.761719-.574219 5.605469-7.007813 8.90625-11.898438 6.058594-3.71875-2.167969-7.488281-6.042969-11.128906-9.796875-7.375-7.589844-17.476563-17.984375-29.828125-11.3125-4.085938 2.207031-9.074219 7.367188-9.617188 19.40625-1.152343 25.464844 17.621094 68.40625 43.550781 85.601562 11.328126 7.507813 22.320313 9.921876 31.769532 9.921876 1.835937 0 3.601562-.101563 5.3125-.261719l40.59375 63.273437c-12.410156 1.402344-31.574219 7.230469-45.644532 28.339844-6.484374 9.71875-38.457031 59.367188-31.398437 82.078125 1.5625 5.015625 4.839844 8.648437 9.480469 10.503906 6.304687 2.515625 12.234375-.527343 16.382812-5.367187 3.066406-3.574219 6-8.675782 9.398438-14.582032 9.335937-16.226562 23.085937-40.089843 51.445312-52.105468.542969 1.867187 1.113282 3.710937 1.726563 5.535156-5.894531 3.707031-11.230469 8.441406-15.917969 14.148438-7.417969 9.027343-44.175781 55.242187-39.414062 78.539062 1.054687 5.152344 3.953124 9.089844 8.386718 11.398438 5.949219 3.09375 12.292969.636718 16.835938-3.707032 3.40625-3.25 6.835937-8.035156 10.804687-13.578125 6.296875-8.78125 14.433594-20.105469 25.804688-29.773437.476562 2.414062 1.066406 4.789062 1.757812 7.113281-7.773437 11.777344-38.347656 60.175781-31.371093 82.617187 1.578124 5.070313 4.890624 8.742188 9.578124 10.617188 6.359376 2.539062 12.351563-.546875 16.535157-5.429688 3.117187-3.636718 6.105469-8.832031 9.566406-14.847656 2.316406-4.023437 4.925781-8.554687 7.941406-13.253906 2.988281 8.753906 7.78125 16.625 13.910157 23.125-3.789063 4.46875-8.144532 10.15625-12.222657 16.796875-2.171875 3.535156-1.0625 8.164063 2.472657 10.335937 3.492187 2.144532 8.195312 1.019532 10.335937-2.472656 3.660156-5.957031 7.578125-11.0625 10.980469-15.058594 9.210937 5.898438 20.046875 9.308594 31.632812 9.308594 11.582032 0 22.410156-3.40625 31.621094-9.300781 10.164062 12.015625 27.75 37.316406 21.445312 62.628906-2.074218 8.308594-8.421874 13.324219-16.988281 13.414063-.074219 0-.144531 0-.21875 0-10.714843 0-23.660156-8.121094-28.605469-26.359375-.886718-3.273438-3.859374-5.546875-7.253906-5.546875-3.390625 0-6.363281 2.273437-7.253906 5.546875-4.945312 18.238281-17.886719 26.359375-28.601562 26.359375-.074219 0-.148438 0-.21875 0-8.566407-.089844-14.917969-5.105469-16.988282-13.414063-1.746094-7.003906-1.792968-14.503906-.140625-22.289062.859375-4.058594-1.734375-8.046875-5.792969-8.910157-4.0625-.859374-8.050781 1.734376-8.914062 5.792969-2.125 10.035157-2.039062 19.804688.261719 29.039063 3.714843 14.914062 16.050781 24.652344 31.417969 24.808594.125.007812.25.007812.375.007812 9.015624 0 18.101562-3.339844 25.625-9.425781 3.933593-3.179688 7.367187-7.042969 10.222656-11.464844 9.253906 14.332031 23.460937 20.890625 35.878906 20.890625.121094 0 .242188 0 .363281-.003906 15.367188-.15625 27.699219-9.894532 31.414063-24.808594 7.847656-31.488281-11.542969-60.6875-24.445313-75.875 6.128907-6.5 10.917969-14.367188 13.90625-23.121094 3.015625 4.699219 5.625 9.226563 7.941407 13.253906 3.460937 6.015626 6.449218 11.210938 9.566406 14.847657 4.183594 4.878906 10.175781 7.96875 16.535156 5.425781 4.691406-1.871094 8.003906-5.542969 9.578125-10.613281 6.976563-22.445313-23.597656-70.84375-31.371094-82.617188.695313-2.328125 1.28125-4.699219 1.757813-7.113281 11.371094 9.667969 19.511718 20.988281 25.804687 29.773438 3.96875 5.539062 7.398438 10.324218 10.804688 13.578124 4.546875 4.339844 10.886719 6.800782 16.835937 3.707032 4.433594-2.308594 7.335938-6.25 8.386719-11.398438 4.761719-23.300781-31.996094-69.511718-39.414063-78.542968-4.6875-5.703126-10.023437-10.441407-15.917968-14.144532.613281-1.824218 1.1875-3.671875 1.726562-5.535156 28.359375 12.011719 42.109375 35.878906 51.445313 52.101562 3.398437 5.910157 6.332031 11.011719 9.398437 14.585938 3.300782 3.851562 8.042969 6.914062 13.3125 6.1875 5.480469-.753906 10.027344-4.859375 12.042969-9.890625 3.636719-9.089844.859375-23.421875-8.488281-43.824219-1.730469-3.773437-6.191406-5.433594-9.964844-3.703125-3.773438 1.726563-5.429688 6.1875-3.699219 9.960938 9.964844 21.757812 8.902344 29.679687 8.308594 31.652343-2.097656-2.410156-5.253906-7.898437-7.882813-12.460937-10-17.382813-26.367187-45.808594-61.019531-59.4375 1.117188-6.300781 1.828125-12.761719 2.136719-19.328125 8.890625.578125 25.382812 4.214844 37.214844 21.960938 2.453125 3.679687 4.890625 7.519531 7.242187 11.421874 2.113281 3.503907 6.808594 4.664063 10.316407 2.550782 3.554687-2.144532 4.695312-6.765625 2.554687-10.316406-2.472656-4.09375-5.03125-8.128907-7.605469-11.992188-14.070312-21.109375-33.234375-26.9375-45.648437-28.339844l40.59375-63.273437c1.710937.160156 3.480469.261719 5.316406.261719zm-8.230469-128.558594c3.960938-2.824219 6.378906-3.335938 7.242188-3.335938.152344 0 .257812.015625.3125.039063 2.234375 1.070312 1.441406 6.75.078125 14.660156-1.011719 5.867187-2.160157 12.511719-1.511719 18.84375.796875 7.777344 5.449219 14.546875 12.449219 18.109375 7 3.566406 15.214843 3.34375 21.96875-.589844 5.5-3.203125 10.203125-8.039062 14.347656-12.308594 5.59375-5.757812 9.722656-9.75 11.898437-8.566406.339844.214844 1.722657 2.324219 1.78125 8.050782.191407 18.9375-14.078124 56.089843-36.875 71.203124-10.972656 7.273438-22.761718 9.226563-35.027343 5.804688-5.859375-1.632812-11.402344-4.519531-16.480469-8.582031-10.234375-8.1875-15.488281-18.527344-16.058594-31.613281-1.191406-27.328126 20.449219-60.726563 35.875-71.714844zm-30.78125 113.742187c.523438.445313 1.035156.890625 1.578125 1.324219 5.160157 4.125 10.726563 7.328125 16.601563 9.582031l-31.128906 48.523438c-1.609376-9.445313-4.089844-18.542969-7.414063-27.09375zm-153.488281 173.949219c0-1.472656.0625-2.941406.160156-4.398438 15.679688 19.21875 35.882813 29.734376 57.421875 29.734376 21.542969 0 41.746094-10.511719 57.421875-29.734376.097657 1.457032.160157 2.925782.160157 4.398438 0 33.449219-25.832032 60.664062-57.582032 60.664062s-57.582031-27.214843-57.582031-60.664062zm78.015625-183.570312c-.441406 10.480468 4.996094 19.289062 13.507812 20.9375 3.800782.742187 7.699219-.160157 10.972657-2.164063 15.382812 18.191406 25.1875 45.515625 25.1875 76.015625 0 54.636719-31.449219 99.089844-70.101563 99.089844s-70.097656-44.453125-70.097656-99.089844c0-30.5 9.800781-57.824219 25.183594-76.015625 3.277344 2.003906 7.175781 2.90625 10.976562 2.164063 8.511719-1.648438 13.945313-10.457032 13.503906-20.9375 6.46875-2.792969 13.332032-4.300782 20.4375-4.300782 7.101563 0 13.964844 1.507813 20.429688 4.300782zm-117.914062 10.945312c.539062-.433594 1.054687-.878906 1.574218-1.324219l20.363282 32.335938c-3.324219 8.550781-5.800782 17.648437-7.410157 27.09375l-31.132812-48.523438c5.875-2.253906 11.445312-5.457031 16.605469-9.582031zm-46.335938 169.980469c-2.628906 4.566406-5.785156 10.054687-7.886719 12.464843-2.582031-8.382812 7.757813-36.570312 29.554688-69.265624 11.863281-17.796876 28.304687-21.417969 37.214843-21.976563.308594 6.570313 1.019532 13.035156 2.136719 19.34375-34.648437 13.628906-51.019531 42.054687-61.019531 59.433594zm34.679688 38.976562c-3.070313 4.28125-6.757813 9.425781-9.089844 11.617188-1.738282-8.597657 11.363281-35.617188 36.304687-65.976563 3.035157-3.691406 6.398438-6.851562 10.046875-9.449218.804688 1.699218 1.644532 3.375 2.519532 5.023437-1.921876 6.445313-2.988282 13.117187-3.203126 19.898437-17.328124 12.03125-28.378906 27.441407-36.578124 38.886719zm31.058593 51.554688c-2.75 4.78125-6.070312 10.550781-8.222656 12.921875-.023437-.070313-.050781-.148438-.074219-.230469-2.722656-8.757813 7.65625-34.667969 24.210938-61.5 1.132812 1.949219 2.351562 3.835937 3.644531 5.664063-1.371094 5.320312-2.074219 10.792968-2.074219 16.316406v.042968c-7.539062 9.5-13.019531 19.023438-17.484375 26.785157zm78.078125 21.246093c-25.121094 0-45.5625-21.566406-45.5625-48.074218 0-.714844.019532-1.429688.046875-2.140625 12.464844 10.480469 28.292969 16.777343 45.515625 16.777343s33.054688-6.296874 45.515625-16.777343c.03125.710937.046875 1.425781.046875 2.140625 0 26.507812-20.4375 48.074218-45.5625 48.074218zm86.378906-8.554687c-.027343.082031-.050781.160156-.078124.230469-2.152344-2.371094-5.46875-8.140625-8.222657-12.921875-4.464843-7.761719-9.945312-17.285157-17.484375-26.785157 0-.015624 0-.027343 0-.042968 0-5.523438-.703125-10.992188-2.070312-16.3125 1.289062-1.832032 2.507812-3.71875 3.640625-5.667969 16.558593 26.832031 26.9375 52.742187 24.214843 61.5zm-4.457031-118.605469c24.945313 30.359375 38.042969 57.378906 36.304688 65.976563-2.328125-2.191407-6.015625-7.335938-9.085938-11.617188-8.203125-11.445312-19.25-26.855469-36.578125-38.886719-.214844-6.78125-1.285156-13.453124-3.207031-19.898437.878906-1.648437 1.714844-3.324219 2.523437-5.023437 3.648438 2.597656 7.007813 5.757812 10.042969 9.449218zm0 0"/></svg>