<svg height="511pt" viewBox="-48 0 511 511.99907" width="511pt" xmlns="http://www.w3.org/2000/svg"><path d="m226.339844 143.578125c.429687-3.496094.851562-6.917969 1.242187-10.277344.476563-4.109375-2.46875-7.832031-6.578125-8.3125-4.105468-.484375-7.835937 2.46875-8.316406 6.578125-.386719 3.328125-.800781 6.714844-1.230469 10.183594-4.628906 37.636719-10.394531 84.480469 8.234375 155.609375 4.320313 16.484375 7.472656 33.160156 9.375 49.5625.472656 4.058594 4.253906 7.054687 8.3125 6.582031 4.054688-.46875 7.054688-4.25 6.582032-8.308594-1.984376-17.101562-5.269532-34.472656-9.765626-51.636718-17.898437-68.347656-12.332031-113.609375-7.855468-149.980469zm0 0"/><path d="m410.921875 485.152344c-9-10.242188-25.597656-22.65625-53.546875-23.65625-35.566406-1.269532-96.378906-2.550782-120.253906-3.03125 3.976562-14.269532 10.105468-43.121094 9.035156-82.679688-.113281-4.136718-3.558594-7.433594-7.695312-7.289062-4.140626.109375-7.40625 3.558594-7.292969 7.695312 1.441406 53.304688-11.089844 86.535156-11.214844 86.855469-1.855469 4.78125 1.730469 10.109375 6.847656 10.210937.847657.015626 85.421875 1.628907 130.039063 3.222657 22.609375.808593 35.765625 10.542969 42.816406 18.570312.667969.753907.121094 1.953125-.878906 1.953125h-246.15625c-4.140625 0-7.5 3.355469-7.5 7.5 0 4.140625 3.359375 7.496094 7.5 7.496094h246.15625c6.433594 0 12.078125-3.640625 14.730468-9.503906 2.652344-5.863282 1.660157-12.507813-2.585937-17.34375zm0 0"/><path d="m122.632812 497.003906h-97.5c-5.070312 0-8.019531-3.390625-9.09375-6.566406-.507812-1.5-1.777343-6.691406 3.152344-10.453125.480469-.363281.972656-.730469 1.480469-1.09375 15.0625-10.851563 46.46875-8.40625 57.292969-6.550781 4.796875.832031 9.207031-3.261719 8.738281-8.105469-.035156-.375-3.363281-37.847656 18.996094-63.570313 13.039062-15.003906 32.488281-23.164062 57.808593-24.265624 4.136719-.183594 7.34375-3.679688 7.164063-7.816407s-3.6875-7.332031-7.816406-7.164062c-22.277344.96875-40.835938 6.820312-55.414063 17.433593-4.898437-13.8125-13.234375-41.527343-15.210937-74.792968 3.898437-.644532 8.121093-1.214844 12.449219-1.800782 18.628906-2.515624 39.746093-5.371093 51.363281-16.261718 16.992187-15.929688 26.183593-47.929688 26.566406-49.285156 1.125-3.980469-1.191406-8.121094-5.171875-9.25-3.980469-1.125-8.125 1.1875-9.257812 5.167968-.082032.292969-8.457032 29.363282-22.390626 42.429688-8.121093 7.609375-26.714843 10.125-43.117187 12.339844-10.855469 1.46875-21.105469 2.855468-28.765625 5.675781-13.84375 5.101562-17.082031 19.40625-19.445312 29.855469-.914063 4.046874-2.621094 11.585937-4.316407 12.023437-1.578125.40625-2.652343.175781-3.824219-.84375-4.160156-3.617187-8.085937-16.011719-5.457031-39.023437 2.378907-20.804688 18.371094-25.339844 44.265625-31.023438 6.375-1.398438 12.96875-2.84375 19.390625-4.742188 14.855469-4.390624 25.160157-16.242187 29.804688-34.269531 3.28125-12.742187 2.5625-24.226562 2.527343-24.710937-.273437-4.125-3.832031-7.238282-7.960937-6.972656-4.128906.265624-7.257813 3.828124-7 7.957031.023437.363281 2.023437 36.628906-21.621094 43.617187-1.335937.394532-2.699219.765625-4.070312 1.128906.269531-1.273437.546875-2.542968.835937-3.800781.960938-4.125 2.222656-8.875 3.5625-13.902343 7.449219-28.003907 16.722656-62.855469 1.253906-82.976563-7.144531-9.296875-18.554687-14.007813-33.910156-14.007813-33.339844 0-45.949218-20.863281-50.285156-41.378906 12.324219-1.960937 21.78125-12.664062 21.78125-25.535156 0-.652344-.035156-1.300781-.082031-1.945312 1.25-.195313 2.519531-.390626 3.824219-.59375 5.164062-.796876 11.015624-1.699219 17.242187-2.84375 14.105469-2.597657 24.40625-11.390626 34.367187-19.894532 14.488282-12.371094 29.492188-25.175781 59.257813-24.140625 22.675781.773438 37.664063 8.246094 47.160156 23.515625 7.882813 12.671875 12.015625 30.386719 13.40625 57.445313.105469 2.035156.160157 4.152343.164063 6.289062.003906 4.136719 3.359375 7.480469 7.496094 7.480469h.011718c4.140625-.003906 7.492188-3.367188 7.484375-7.507812-.003906-2.382813-.066406-4.746094-.183593-7.03125-1.527344-29.730469-6.351563-49.652344-15.648438-64.59375-12.042969-19.359376-32.019531-29.648438-59.378906-30.5820318-35.613282-1.2148442-54.402344 14.8281248-69.503906 27.7187498-9.230469 7.882813-17.203126 14.6875-27.347657 16.554688-6.011719 1.109375-11.75 1.992187-16.8125 2.773437-4.34375.667969-8.449219 1.300781-12.164062 1.984375-.019531.003906-.035157.007813-.054688.011719-9.804687 1.800781-27.957031 5.171875-27.957031 22.492187 0 2.546876.113281 6.59375.652344 11.417969 4.511718 40.265625 28.773437 63.359375 66.570312 63.359375 10.601563 0 17.804688 2.664063 22.019532 8.148438 10.96875 14.269531 2.402343 46.472656-3.855469 69.984375-1.371094 5.148437-2.664063 10.007812-3.675781 14.371093-.832032 3.578126-1.574219 7.234376-2.222657 10.910157-24.050781 5.292969-50.613281 11.839843-54.242187 43.589843-2.875 25.160157.859375 43.644532 10.515625 52.039063 4.8125 4.1875 11.25 5.644531 17.414062 4.046875 10.546875-2.726562 13.011719-13.621094 15.1875-23.230469 2.066407-9.121093 3.847657-15.535156 8.371094-18.289062 2.757813 39.246093 13.53125 70.285156 17.992187 81.722656-.351562.390625-.71875.761719-1.0625 1.15625-19.410156 22.328125-22.613281 51.070313-22.863281 65.601563-14.359375-1.355469-42.476562-2.054688-59.617187 10.296874-.613282.445313-1.210938.886719-1.796875 1.332032-8.429688 6.425781-11.675781 17.09375-8.273438 27.175781 3.441407 10.183594 12.585938 16.765625 23.300781 16.765625h97.5c4.140626 0 7.496094-3.359375 7.496094-7.5s-3.355468-7.496094-7.496094-7.496094zm0 0"/><path d="m94.898438 77.488281c0 10.597657 6.683593 18.898438 15.214843 18.898438s15.214844-8.300781 15.214844-18.898438c0-10.597656-6.683594-18.898437-15.214844-18.898437s-15.214843 8.300781-15.214843 18.898437zm0 0"/><path d="m157.851562 105.933594c-4.019531-.949219-8.066406 1.539062-9.019531 5.570312-.953125 4.027344 1.542969 8.066406 5.570313 9.019532 3.671875.867187 7.21875 1.292968 10.605468 1.292968 13.027344-.003906 23.636719-6.296875 29.390626-17.871094 6.945312-13.976562 4.398437-31.519531-5.792969-39.9375-14.945313-12.347656-33.070313-5.628906-40.570313-.351562-3.386718 2.382812-4.199218 7.058594-1.816406 10.445312 2.382812 3.386719 7.058594 4.195313 10.445312 1.816407.125-.085938 12.4375-8.574219 22.390626-.351563 4.800781 3.964844 5.691406 14.105469 1.917968 21.707032-2.867187 5.761718-9.199218 11.945312-23.121094 8.660156zm0 0"/></svg>