<svg height="511pt" viewBox="-20 0 511 511.99798" width="511pt" xmlns="http://www.w3.org/2000/svg"><path d="m140.808594 192.804688c0 10.714843 6.757812 19.109374 15.386718 19.109374 8.625 0 15.382813-8.394531 15.382813-19.109374 0-10.714844-6.757813-19.109376-15.382813-19.109376-8.628906 0-15.386718 8.394532-15.386718 19.109376zm0 0"/><path d="m139.640625 462.628906c-26.476563 26.980469-45.035156 30.542969-51.050781 26.355469-1.882813-1.3125-2.929688-3-3.296875-5.316406-.957031-6.066407 2.835937-15.609375 9.898437-24.902344 11.527344-15.167969 64.863282-87.171875 65.402344-87.898437 2.292969-3.097657 1.898438-7.425782-.921875-10.054688-2.824219-2.628906-7.167969-2.722656-10.097656-.214844-69.53125 59.46875-105.804688 54.632813-118.175781 49.789063-7.5625-2.960938-10.527344-7.507813-10.71875-9.128907-.136719-1.152343.472656-5.519531 14.027343-13.320312 11.621094-6.6875 29.089844-13.734375 44.496094-19.953125 40.277344-16.25 59.488281-54.535156 60.289063-56.15625 1.339843-2.722656.925781-5.984375-1.050782-8.285156-29.652344-34.546875-47.910156-70.210938-54.273437-106.003907-5.53125-31.109374-1.695313-62.261718 11.09375-90.089843 12.449219-27.089844 32.667969-50.261719 58.480469-67.023438 25.089843-16.292969 54.273437-25.265625 82.167968-25.265625 40.703125 0 82.761719 18.921875 112.496094 50.617188 29.394531 31.332031 44.105469 71.730468 41.421875 113.765625-.265625 4.175781 2.90625 7.78125 7.082031 8.046875 4.195313.261718 7.78125-2.90625 8.046875-7.082032 2.953125-46.257812-13.203125-90.6875-45.492187-125.101562-32.550782-34.695312-78.738282-55.40625-123.554688-55.40625-31.238281 0-62.503906 9.582031-90.425781 27.710938-28.222656 18.324218-50.351563 43.707031-64 73.40625-14.082031 30.648437-18.316406 64.910156-12.242187 99.074218 6.21875 34.996094 22.832031 69.660156 49.421874 103.191406-3.019531.421876-6.449218.804688-10.136718 1.046876-15.996094 1.046874-29.0625-1.050782-37.796875-6.074219-2.378907-1.367188-4.566407-2.921875-7.441407-2.589844-4.972656.574219-8.082031 5.96875-6.082031 10.5625 1.148438 2.636719 3.601563 3.808594 5.96875 5.171875 11.195313 6.4375 25.128907 8.34375 37.710938 8.34375 5.8125 0 11.332031-.40625 16.167969-.964844-6.140626 8.21875-15.496094 18.625-28.050782 26.886719-56.640625-7.234375-69.417968-27.761719-72.285156-36.351563-2.460938-7.371093-.332031-13.019531 1.589844-14.847656 2.707031-2.582031 6-4.488281 16.410156.4375 3.78125 1.789063 8.304688.171875 10.09375-3.613281s.171875-8.300781-3.609375-10.09375c-8.878906-4.199219-21.992187-8.527344-33.351563 2.289063-8.246093 7.855468-8.714843 21.042968-5.515624 30.628906 4.101562 12.292968 17.847656 32.621094 63.367187 42.878906-35.503906 14.417969-62.355469 26.613281-60.078125 45.9375 1.011719 8.625 8.964844 17.054688 20.25 21.472656 5.191406 2.03125 12.214844 3.71875 21.253906 3.71875 16.5-.003906 39.6875-5.617187 70.578125-24.984375-14.203125 19.125-29.125 39.171875-34.585937 46.355469-5.738282 7.550781-15.027344 22.320312-12.800782 36.4375 1.007813 6.398438 4.328126 11.722656 9.605469 15.394531 9.347657 6.507813 21.503907 4.539063 31.402344.480469 12.058594-4.949219 25.589844-14.855469 39.132813-28.65625 2.933593-2.988281 2.886718-7.789062-.101563-10.722656-2.988281-2.929688-7.785156-2.886719-10.71875.101562zm0 0"/><path d="m469.484375 314.214844c4.4375-13.304688.425781-24.96875-5.515625-30.628906-14.941406-14.226563-32.667969-3.457032-51.4375 7.945312-3.65625 2.222656-7.4375 4.519531-11.441406 6.824219-13.933594 8.011719-34.808594 6.859375-47.929688 5.023437 23.425782-29.554687 39.148438-60.082031 46.800782-90.90625 1.007812-4.0625-1.46875-8.171875-5.53125-9.179687-4.058594-1.007813-8.171876 1.464843-9.183594 5.527343-7.945313 32.011719-25.398438 63.878907-51.871094 94.71875-1.976562 2.304688-2.386719 5.5625-1.046875 8.285157.796875 1.621093 20.011719 39.910156 60.285156 56.160156 15.410157 6.21875 32.875 13.265625 44.496094 19.953125 13.554687 7.796875 14.164063 12.167969 14.03125 13.320312-.191406 1.617188-3.15625 6.164063-10.722656 9.128907-12.367188 4.839843-48.640625 9.679687-118.175781-49.792969-2.929688-2.507812-7.273438-2.410156-10.09375.21875-2.820313 2.628906-3.21875 6.957031-.921876 10.054688.535157.726562 53.871094 72.730468 65.402344 87.898437 7.058594 9.292969 10.851563 18.832031 9.898438 24.902344-.367188 2.3125-1.414063 4.003906-3.296875 5.3125-2.433594 1.695312-6.472657 1.964843-11.371094.761719-22.074219-5.425782-59.621094-38-98.8125-113.15625-1.683594-3.230469-5.421875-4.804688-8.914063-3.753907-3.484374 1.054688-5.730468 4.4375-5.347656 8.058594 2.5625 24.140625 5.289063 91.148437-12.613281 111.046875-2.695313 2.996094-6.175781 4.898438-10.261719 4.898438-4.085937 0-7.566406-1.902344-10.257812-4.894532-17.886719-19.878906-15.171875-86.90625-12.621094-111.054687.382812-3.621094-1.859375-7.003907-5.347656-8.054688-3.488282-1.054687-7.226563.523438-8.910156 3.75-12.824219 24.59375-26.25 46.042969-39.902344 63.761719-2.554688 3.316406-1.941406 8.074219 1.375 10.628906 3.316406 2.558594 8.078125 1.941406 10.632812-1.375 8.542969-11.082031 16.976563-23.535156 25.226563-37.226562-.09375 5.144531-.097657 10.644531.039062 16.320312.867188 36.210938 7 60.902344 18.230469 73.386719 5.839844 6.488281 13.285156 9.917969 21.535156 9.917969 8.246094 0 15.695313-3.429688 21.53125-9.917969 11.230469-12.484375 17.367188-37.175781 18.234375-73.386719.136719-5.6875.132813-11.203125.039063-16.355468 31.109375 51.558593 64.660156 85.277343 92.527344 92.125 11.78125 2.894531 19.363281-.054688 23.652343-3.039063 5.277344-3.671875 8.597657-8.996094 9.605469-15.394531 2.226562-14.117188-7.066406-28.886719-12.800781-36.4375-5.460938-7.183594-20.382813-27.230469-34.585938-46.351563 47.820313 29.980469 77.167969 27.003907 91.832031 21.265625 11.285157-4.417968 19.234376-12.847656 20.25-21.476562 2.273438-19.324219-24.574218-31.519532-60.078124-45.9375 45.519531-10.253906 59.265624-30.582032 63.367187-42.875zm-14.382813-4.796875c-2.867187 8.589843-15.644531 29.117187-72.285156 36.347656-12.558594-8.261719-21.910156-18.667969-28.050781-26.882813 15.292969 1.757813 37.507813 2.027344 53.878906-7.382812 4.164063-2.394531 8.027344-4.742188 11.761719-7.011719 19.285156-11.71875 27.136719-15.609375 33.105469-9.921875 1.921875 1.828125 4.050781 7.476563 1.589843 14.851563zm0 0"/><path d="m300.242188 192.804688c0 10.714843 6.757812 19.109374 15.382812 19.109374 8.628906 0 15.386719-8.394531 15.386719-19.109374 0-10.714844-6.757813-19.109376-15.386719-19.109376-8.625 0-15.382812 8.394532-15.382812 19.109376zm0 0"/><path d="m185.851562 257.867188c0 33.699218 22.457032 61.113281 50.058594 61.113281 27.601563 0 50.054688-27.414063 50.054688-61.113281 0-33.699219-22.457032-61.113282-50.054688-61.113282-27.601562 0-50.058594 27.414063-50.058594 61.113282zm84.953126 0c0 25.339843-15.652344 45.953124-34.894532 45.953124-19.242187 0-34.894531-20.613281-34.894531-45.953124 0-25.339844 15.652344-45.953126 34.894531-45.953126 19.242188 0 34.894532 20.613282 34.894532 45.953126zm0 0"/><path d="m219.628906 257.867188c0 15.726562 6.695313 26.707031 16.28125 26.707031 9.582032 0 16.277344-10.984375 16.277344-26.707031 0-15.722657-6.695312-26.703126-16.277344-26.703126-9.585937 0-16.28125 10.980469-16.28125 26.703126zm0 0"/></svg>