<svg height="512pt" viewBox="-79 0 512 512.00072" width="512pt" xmlns="http://www.w3.org/2000/svg"><path d="m180.042969 301.359375c8.117187 3.917969 18.816406 7.378906 31.3125 7.378906 10.074219 0 21.316406-2.25 33.300781-8.320312 31.738281-16.074219 40.089844-38.464844 41.507812-54.417969.371094-4.175781-2.714843-7.859375-6.890624-8.230469-4.160157-.363281-7.855469 2.714844-8.226563 6.886719-1.566406 17.636719-12.75 31.84375-33.246094 42.222656-40.613281 20.566406-70.390625-12.734375-71.640625-14.164062-2.738281-3.15625-7.523437-3.5-10.6875-.765625-3.171875 2.738281-3.523437 7.53125-.785156 10.703125.390625.453125 9.75 11.167968 25.355469 18.707031zm0 0"/><path d="m67.273438 51.414062c0 10.730469 6.765624 19.128907 15.402343 19.128907 8.632813 0 15.398438-8.398438 15.398438-19.128907 0-10.722656-6.765625-19.125-15.398438-19.125-8.636719 0-15.402343 8.402344-15.402343 19.125zm0 0"/><path d="m354.785156 216.566406c-.34375-6.113281-3.683594-11.640625-8.9375-14.789062-5.289062-3.167969-11.792968-3.507813-17.394531-.902344-6.011719 2.796875-14.515625 5.480469-20.882813 2.367188-3.703124-1.808594-7.710937-4.359376-11.953124-7.058594-15.105469-9.609375-33.898438-21.570313-60.964844-15.332032-17.113282 3.945313-25.976563 12.34375-33.09375 19.09375-7.011719 6.648438-10.421875 9.566407-17.984375 9.015626-13.144531-.957032-35.480469-22.394532-47.753907-37.011719v-35.84375c0-4.191407-3.394531-7.589844-7.585937-7.589844s-7.589844 3.398437-7.589844 7.589844v38.574219c0 12.351562-10.046875 22.402343-22.398437 22.402343-12.351563 0-22.402344-10.050781-22.402344-22.402343v-78.308594c0-3.265625-2.089844-6.167969-5.1875-7.199219-16.09375-5.367187-26.746094-20.972656-25.910156-37.957031.957031-19.4375 16.949218-35.253906 36.40625-36.011719 10.445312-.410156 20.332031 3.351563 27.839844 10.574219 7.515624 7.226562 11.652343 16.949218 11.652343 27.371094v52.605468c0 4.191406 3.398438 7.585938 7.589844 7.585938s7.585937-3.394532 7.585937-7.585938v-52.605468c0-14.585938-5.789062-28.191407-16.304687-38.308594-10.511719-10.109375-24.351563-15.359375-38.949219-14.8007815-25.082031.9726565-46.035156 19.8320315-50.253906 44.0585935-25.035156 18.132813-34.636719 34.285156-28.53125 48.03125 3.800781 8.558594 11.992188 12.84375 24.472656 12.839844 8.214844 0 18.3125-1.878906 30.214844-5.597656 1.363281.777344 2.761719 1.5 4.203125 2.15625v71.28125c-5.695313 11.117187-33.492187 70.1875-13.339844 126.871094 1.457031 4.097656 6.21875 6.152343 10.207031 4.402343 3.59375-1.578125 5.402344-5.792969 4.089844-9.488281-13.175781-37.066406-2.738281-76.652344 5.589844-98.746094 6.777344 9.898438 18.15625 16.410156 31.027344 16.410156 14.992187 0 27.957031-8.824218 33.980468-21.550781 12.128907 12.921875 32.902344 32.128907 50.25 33.390625 14.550782 1.054688 22.164063-6.160156 29.523438-13.136718 6.382812-6.050782 12.976562-12.304688 26.066406-15.320313 20.867188-4.8125 35.375 4.421875 49.402344 13.347656 4.613281 2.9375 8.96875 5.710938 13.441406 7.894531 9.292969 4.539063 21.03125 3.761719 33.945313-2.246093 2.101562-.976563 4.644531.425781 4.777343 2.773437 1.359376 24.425782-1.851562 46.835938-9.539062 66.617188-1.519531 3.90625.417969 8.304687 4.324219 9.820312 3.855469 1.503906 8.324219-.472656 9.820312-4.320312 8.476563-21.816406 12.023438-46.363282 10.546875-72.960938zm-339.132812-130.59375c-1.65625-3.734375 1.671875-11.609375 14.855468-22.792968 1.765626 9.074218 5.867188 17.476562 11.757813 24.410156-17.023437 4.070312-25.007813 2-26.613281-1.617188zm0 0"/><path d="m327.347656 307.40625c-3.472656-2.34375-8.191406-1.421875-10.53125 2.054688-13.90625 20.664062-34.261718 37.65625-58.867187 49.144531-19.761719 9.222656-41.429688 14.511719-59.453125 14.511719-.011719 0-.027344 0-.035156 0-57.324219-.019532-98.953126-17.992188-123.726563-53.410157-2.402344-3.433593-7.132813-4.273437-10.566406-1.867187-3.433594 2.402344-4.269531 7.132812-1.867188 10.566406 16.5625 23.679688 39.984375 40.597656 69.621094 50.285156 6.71875 2.199219 13.683594 4 20.921875 5.4375v112.695313h-14.453125c-4.191406 0-7.589844 3.398437-7.589844 7.589843 0 4.191407 3.398438 7.585938 7.589844 7.585938h22.039063c4.191406 0 7.589843-3.394531 7.589843-7.585938v-117.871093c9.613281 1.164062 19.722657 1.746093 30.433594 1.75h.042969c11.011718 0 23.171875-1.742188 35.472656-4.964844v113.496094h-14.453125c-4.1875 0-7.585937 3.398437-7.585937 7.585937 0 4.191406 3.398437 7.589844 7.585937 7.589844h22.042969c4.191406 0 7.585937-3.398438 7.585937-7.589844v-125.796875c5.148438-1.851562 10.246094-3.933593 15.222657-6.257812 27.101562-12.652344 49.59375-31.46875 65.039062-54.417969 2.34375-3.476562 1.421875-8.191406-2.058594-10.53125zm0 0"/></svg>