<svg height="512pt" viewBox="-40 0 512 512" width="512pt" xmlns="http://www.w3.org/2000/svg"><path d="m178.574219 128.867188c0-10.589844-6.679688-18.882813-15.203125-18.882813-8.523438 0-15.203125 8.292969-15.203125 18.882813 0 10.585937 6.679687 18.882812 15.203125 18.882812 8.523437 0 15.203125-8.296875 15.203125-18.882812zm0 0"/><path d="m268.03125 147.75c8.527344 0 15.203125-8.296875 15.203125-18.882812 0-10.589844-6.675781-18.882813-15.203125-18.882813-8.523438 0-15.199219 8.292969-15.199219 18.882813 0 10.585937 6.675781 18.882812 15.199219 18.882812zm0 0"/><path d="m406.535156 248.535156c-15.527344-25.582031-34.890625-47.457031-45.292968-59.207031l-2.328126-2.636719c-5.558593-6.304687-9.550781-21.835937-13.488281-38.554687-.949219-4.027344-4.984375-6.519531-9.007812-5.574219-4.027344.949219-6.523438 4.984375-5.574219 9.007812 2.425781 10.304688 4.726562 19.542969 7.457031 27.308594-5.515625-1.320312-10.378906-3.246094-14.503906-5.804687-7.503906-4.660157-10.773437-21.507813-13.9375-37.800781-2.765625-14.246094-5.625-28.980469-11.761719-40.765626-7.683594-14.765624-19.429687-22.253906-34.910156-22.253906-14.210938 0-24.382812 6.980469-29.410156 20.191406-3.921875 10.304688-4.445313 23.101563-4.957032 35.480469-.023437.601563-.050781 1.179688-.074218 1.765625h-26.085938c-.027344-.585937-.054687-1.164062-.078125-1.765625-.507812-12.378906-1.035156-25.175781-4.957031-35.480469-5.027344-13.207031-15.199219-20.191406-29.410156-20.191406-15.480469 0-27.222656 7.488282-34.910156 22.253906-6.136719 11.785157-8.996094 26.519532-11.761719 40.765626-3.164063 16.292968-6.433594 33.140624-13.9375 37.800781-4.125 2.558593-8.992188 4.488281-14.511719 5.804687 3.3125-9.421875 6.027344-21.078125 9.097656-34.292968 6.269532-26.964844 14.074219-60.523438 30.769532-86.285157 18.894531-29.152343 45.960937-43.320312 82.742187-43.320312 70.265625 0 93.632813 52.472656 107.222656 103.800781 1.058594 3.996094 5.152344 6.390625 9.15625 5.320312 4-1.054687 6.382813-5.15625 5.324219-9.15625-14.167969-53.515624-40.804688-114.945312-121.703125-114.945312-95.273437 0-115.03125 84.96875-128.101563 141.191406-4.605468 19.808594-8.957031 38.515625-15.109374 45.5l-2.328126 2.632813c-10.847656 12.253906-29 32.761719-44.351562 57.667969-2.167969 3.523437-1.074219 8.136718 2.449219 10.308593 3.476562 2.140625 8.164062 1.023438 10.304687-2.449219 14.667969-23.804687 32.289063-43.707031 42.816406-55.597656 1.113282-1.261718 2.246094-2.507812 3.296876-3.828125 12.070312-1.183593 22.429687-4.410156 30.828124-9.625 13.0625-8.113281 16.792969-27.328125 20.742188-47.671875 5.96875-30.742187 11.417969-50.894531 31.964844-50.894531 15.957031 0 18.246094 13.226563 19.398437 41.304687.472657 11.535157.921875 22.429688 3.953125 31.3125 5.101563 14.949219 15.941406 18.085938 24.136719 18.085938s19.035156-3.136719 24.136719-18.085938c3.03125-8.882812 3.480468-19.777343 3.953125-31.3125 1.152343-28.078124 3.441406-41.304687 19.398437-41.304687 20.546875 0 25.996094 20.152344 31.964844 50.894531 3.949219 20.34375 7.679688 39.558594 20.742188 47.671875 8.398437 5.214844 18.753906 8.4375 30.820312 9.625 1.050781 1.320313 2.191406 2.566407 3.308594 3.832031 19.867187 22.445313 72.644531 82.066407 65.882812 133.441407-2.226562 16.882812-10.921875 31.761719-25.871094 44.371093-8.441406-70.628906-38.878906-113.378906-40.25-115.269531-2.425781-3.347656-7.101562-4.09375-10.449218-1.675781-3.351563 2.421875-4.105469 7.101562-1.691406 10.453125.332031.460937 33.214843 46.871094 38.75 120.992187.003906.058594.019531.117188.023437.175782.003906.035156 0 .070312.007813.105468.011718.144532 1.351562 14.84375-11.003907 37.058594-2.007812 3.617188-.707031 8.179688 2.90625 10.1875 3.570313 1.984375 8.203125.660156 10.1875-2.90625 10.648438-19.148437 12.660157-34.023437 12.902344-41.269531 22.976563-16.222656 36.207031-36.480469 39.339844-60.269531 3.316406-25.191406-4.835938-54.164063-24.226563-86.117188zm-190.832031-85.578125c-6.65625 0-10.125-3.167969-11.925781-18.289062h23.851562c-1.800781 15.125-5.269531 18.289062-11.925781 18.289062zm0 0"/><path d="m359.507812 451.480469c-3.148437-2.683594-7.875-2.304688-10.558593.84375-3.960938 4.648437-8.355469 9.304687-13.113281 13.902343-14.65625-12.0625-30.867188-16.328124-47.480469-12.359374-24.613281 5.878906-35.457031 19.539062-40.21875 29.964843-.453125.992188-.8125 2.007813-1.09375 3.035157h-62.683594c-.28125-1.027344-.640625-2.042969-1.09375-3.035157-4.761719-10.425781-15.605469-24.085937-40.222656-29.964843-16.609375-3.972657-32.816407.292968-47.472657 12.355468-13.195312-12.777344-28.652343-30.996094-36.308593-51.820312-5.097657-13.871094-4.292969-22.464844-4.292969-22.476563.003906-.035156 0-.074219.003906-.109375.011719-.082031.027344-.164062.03125-.246094 5.539063-74.121093 38.417969-120.53125 38.75-120.992187 2.421875-3.347656 1.671875-8.027344-1.675781-10.449219-3.347656-2.429687-8.035156-1.679687-10.460937 1.671875-1.371094 1.890625-31.816407 44.652344-40.253907 115.304688-28.875-24.195313-34.125-56.117188-16.089843-97.203125 1.664062-3.789063-.058594-8.207032-3.847657-9.871094-3.789062-1.660156-8.203125.0625-9.867187 3.851562-22.164063 50.480469-12.328125 92.242188 28.414062 121.03125.378906 11.765626 5.460938 43.59375 44.9375 81.839844-5.078125 6.367188-6.160156 14.820313-2.773437 22.351563 3.574219 7.953125 11.207031 12.894531 19.910156 12.894531h63.046875c6.832031 0 13.113281-3.433594 16.808594-9.183594.203125-.316406.394531-.640625.578125-.96875h66.441406c.183594.328125.375.652344.582031.96875 3.691406 5.75 9.976563 9.183594 16.804688 9.183594h63.046875c8.703125 0 16.335937-4.941406 19.914062-12.894531 3.382813-7.53125 2.300781-15.984375-2.773437-22.351563 5.007812-4.855468 9.652344-9.78125 13.851562-14.710937 2.6875-3.152344 2.308594-7.878907-.839844-10.5625zm-190.210937 43.238281c-.445313.691406-1.742187 2.300781-4.203125 2.300781h-63.046875c-5.691406 0-9.027344-6.898437-5.175781-11.242187 10.832031-12.210938 22.308594-18.359375 34.226562-18.359375 2.796875 0 5.621094.339843 8.464844 1.019531 15.046875 3.59375 25.167969 10.871094 30.078125 21.621094.996094 2.175781.089844 3.984375-.34375 4.660156zm166.308594-1.757812c-.425781.949218-2.144531 4.058593-6.25 4.058593h-63.046875c-3.511719 0-6.03125-3.714843-4.546875-6.960937 4.914062-10.753906 15.03125-18.027344 30.078125-21.621094 2.84375-.679688 5.667968-1.019531 8.464844-1.019531 11.917968 0 23.398437 6.148437 34.230468 18.359375 2.574219 2.90625 1.605469 5.992187 1.070313 7.183594zm0 0"/></svg>