<svg height="512pt" viewBox="-102 0 512 512.00048" width="512pt" xmlns="http://www.w3.org/2000/svg"><path d="m170.730469 129.8125c0-10.628906-6.703125-18.957031-15.261719-18.957031s-15.261719 8.328125-15.261719 18.957031c0 10.632812 6.703125 18.960938 15.261719 18.960938s15.261719-8.328126 15.261719-18.960938zm0 0"/><path d="m239.222656 444.441406c-3.335937-2.472656-8.046875-1.777344-10.519531 1.558594-20.503906 27.652344-51.121094 45.902344-83.996094 50.070312-33.558593 4.25-61.722656-7.59375-79.4375-18.277343-5.175781-3.125-6.960937-9.753907-4.058593-15.09375 2.972656-5.464844 10.039062-7.542969 15.484374-4.492188 17.738282 9.953125 44.042969 20.914063 68.644532 16.636719 19.726562-3.429688 33.636718-20.285156 34.609375-41.941406.859375-19.195313-9.304688-41.519532-33.953125-48.125-3.117188-.835938-6.210938-1.753906-9.195313-2.722656-3.949219-1.289063-8.191406.875-9.476562 4.824218-1.285157 3.949219.875 8.191406 4.824219 9.476563 3.234374 1.054687 6.582031 2.046875 9.953124 2.949219 17.722657 4.75 23.367188 20.703124 22.820313 32.921874-.5 11.132813-6.601563 25.09375-22.160156 27.800782-9.144531 1.589844-28.9375 1.765625-58.707031-14.9375-6.195313-3.472656-13.363282-4.300782-20.1875-2.332032-6.835938 1.976563-12.472657 6.507813-15.871094 12.761719-6.75 12.425781-2.574219 27.863281 9.503906 35.152344 16.90625 10.195313 42.398438 21.332031 73.113281 21.328125 5.183594 0 10.523438-.316406 15.988281-1.011719 36.921876-4.679687 71.25-25.101562 94.183594-56.027343 2.472656-3.335938 1.773438-8.046876-1.5625-10.519532zm0 0"/><path d="m272.425781 241.089844c-1.164062-.035156-2.359375.03125-3.578125.1875 6.519532-10.125 13.175782-21.574219 19.128906-33.890625 1.785157-3.6875.195313-8.261719-3.496093-10.042969-3.6875-1.785156-8.261719-.191406-10.042969 3.496094-14.34375 29.671875-33.027344 54.171875-43 66.253906-.722656.796875-1.449219 1.605469-2.179688 2.433594-.21875-.222656-.441406-.453125-.660156-.675782-10.171875-10.460937-18.957031-19.496093-18.777344-26.226562.027344-1.058594.109376-4.289062 5.679688-9.441406 37.792969-34.976563 53.523438-84.691406 40.070312-126.652344-11.246093-35.082031-40.371093-58.082031-79.902343-63.101562-7.757813-.980469-15.21875-1.003907-22.324219-.089844l-5.378906-20.910156c-.957032-3.707032 1.984375-7.527344 5.847656-7.386719 22.875.542969 43.882812 4.175781 62.433594 10.792969 28.070312 10.019531 49.425781 26.617187 63.464844 49.335937 16.722656 27.054687 18.675781 60.269531 5.796874 98.71875-1.25 3.738281.691407 7.914063 4.347657 9.375 3.960937 1.578125 8.5625-.558594 9.914062-4.597656 14.363281-42.886719 11.917969-80.367188-7.261719-111.40625-15.882812-25.691407-39.839843-44.394531-71.207031-55.589844-20.0625-7.160156-42.652343-11.085937-67.132812-11.66796875-6.308594-.14453125-12.414063 2.59374975-16.484375 7.42187475-4.359375 5.171875-5.972656 12.199219-4.285156 18.753907l5.285156 20.542968c-11.800782 4.027344-22.324219 11.023438-31.226563 20.882813-17.207031 19.058593-23.257812 42.761719-25.058593 52.066406-1.402344 7.234375-6.882813 12.757813-13.757813 14.378906-6.085937-11.316406-19.453125-25.15625-39.734375-19.53125-22.851562 6.34375-32.140625 42.214844-27.914062 73.234375 3.980468 29.25 18.941406 47.417969 39.039062 47.417969 8.9375 0 21.332031-3.730469 30.332031-21.210937 1.785157-1.175782 6.691407-3.695313 15.933594-3.695313 5.824219 0 12.175781 4.023437 14.78125 9.363281 2.113281 4.324219 1.484375 8.691406-1.859375 12.980469-2.542969 3.257813-6.246094 6.917969-10.160156 10.796875-15.289063 15.128906-36.226563 35.851562-33.523438 72.980469 2.035156 27.929687 18.539063 51.289062 47.726563 67.554687 3.628906 2.023438 8.210937.71875 10.230469-2.90625 2.023437-3.628906.722656-8.210937-2.90625-10.230468-24.902344-13.878907-38.375-32.554688-40.046876-55.511719-2.203124-30.214844 15.152344-47.394531 29.097657-61.199219 4.269531-4.222656 8.300781-8.214844 11.4375-12.230469 6.878906-8.8125 8.164062-19.324219 3.519531-28.832031-5.113281-10.484375-16.75-17.804688-28.296875-17.804688-18.257813 0-26.40625 7.726563-27.273437 8.605469-.582032.589844-1.0625 1.273438-1.421876 2.023438-6.859374 14.277343-14.921874 14.277343-17.570312 14.277343-14.34375 0-21.871094-17.773437-24.136719-34.410156-3.570312-26.214844 4.550781-53.246094 17.035157-56.710937 6.6875-1.851563 12.40625-.128907 17.476562 5.273437 4.40625 4.695313 6.566406 10.335938 6.574219 10.363282 1.074219 2.917968 3.832031 4.871093 6.941406 4.921874 16.199219.304688 30.160156-11.113281 33.242187-27.039062 1.5625-8.070312 6.78125-28.589844 21.457032-44.84375 14.152344-15.679688 32.710937-22.183594 55.152344-19.335938 33.492187 4.25 58.085937 23.484376 67.476562 52.769532 11.671875 36.421875-2.445312 80-35.964844 111.023437-6.878906 6.363281-10.3125 12.933594-10.503906 20.082031-.34375 13.070313 10.488281 24.210938 23.035156 37.109376 19.199219 19.746093 43.09375 44.320312 39.765625 85.355468-1.664062 20.5625-6.46875 39.59375-14.277343 56.566406-1.601563 3.480469-.25 7.730469 3.066406 9.652344 3.789062 2.1875 8.773437.597656 10.597656-3.367187 8.546875-18.574219 13.796875-39.3125 15.605469-61.636719 1.667969-20.574219-2.503907-37.554688-9.398438-51.886719 18.890625-7.058593 31.570313-14.546875 37.742188-22.296875 6.039062-7.585937 6.675781-18.523437 1.707031-29.257812-5.828125-12.59375-17.679688-20.980469-30.199219-21.375zm16.722657 41.265625c-2.71875 3.414062-10.652344 10.152343-33.511719 18.414062-4.941407-7.515625-10.480469-14.207031-15.984375-20.269531.996094-1.144531 1.988281-2.265625 2.972656-3.347656.082031-.089844.160156-.179688.238281-.273438.007813-.011718.019531-.023437.027344-.035156 17.644531-19.347656 26.554687-20.796875 29.0625-20.71875 8.363281.261719 14.394531 6.984375 17.023437 12.660156 2.453126 5.292969 2.519532 10.621094.171876 13.570313zm0 0"/><path d="m39.976562 152.816406c-4.980468 0-10.914062 3.601563-10.914062 20.753906 0 17.15625 5.933594 20.757813 10.914062 20.757813 4.976563 0 10.910157-3.601563 10.910157-20.757813 0-17.152343-5.933594-20.753906-10.910157-20.753906zm0 0"/></svg>