<svg height="512pt" viewBox="0 -32 512.00019 512" width="512pt" xmlns="http://www.w3.org/2000/svg"><path d="m267.417969 411.183594c-30.6875-1.5-58.03125-9.761719-81.429688-24.535156 14.019531-18.183594 18.414063-33.421876 18.632813-34.207032 1.117187-3.992187-1.207032-8.125-5.199219-9.257812-3.988281-1.128906-8.144531 1.191406-9.289063 5.179687-.058593.203125-6.140624 20.800781-26.984374 41.449219-26.632813 26.382812-64.121094 41.019531-111.507813 43.550781.265625-17.066406 6.511719-63.820312 61.433594-110.71875 2.3125-1.972656 3.210937-5.144531 2.273437-8.039062-.097656-.304688-9.929687-30.972657-16.089844-71.746094-.621093-4.109375-4.457031-6.9375-8.566406-6.320313-4.109375.621094-6.9375 4.457032-6.316406 8.566407 4.972656 32.917969 12.128906 58.996093 15.1875 69.347656-70.792969 62.789063-62.949219 125.109375-62.574219 127.777344.523438 3.722656 3.710938 6.476562 7.449219 6.476562.066406 0 .132812 0 .203125-.003906 68.855469-1.828125 108.578125-27.585937 129.78125-48.875.550781-.550781 1.082031-1.105469 1.613281-1.65625 26.03125 16.945313 56.488282 26.378906 90.648438 28.046875.125.007812.25.007812.371094.007812 3.988281 0 7.316406-3.128906 7.511718-7.15625.203125-4.152343-2.996094-7.683593-7.148437-7.886718zm0 0"/><path d="m506.371094 364.417969c-12.078125-44.429688-69.785156-58.484375-103.109375-62.910157-10.511719-1.394531-19.089844-8.949218-21.855469-19.242187-9.289062-34.589844-24.453125-64.976563-45.078125-90.3125-2.621094-3.222656-7.363281-3.710937-10.585937-1.085937-3.226563 2.625-3.710938 7.363281-1.085938 10.589843 19.273438 23.679688 33.476562 52.183594 42.214844 84.710938 4.34375 16.183593 17.851562 28.0625 34.40625 30.261719 69.011718 9.160156 86.367187 36.472656 90.570312 51.9375 7.0625 25.972656 5.507813 40.082031 2.960938 47.34375-2.023438 5.761718-4.855469 7.816406-5.800782 8.363281-7.394531 1.34375-69.757812 11.207031-123.996093-25.953125-2.070313-1.421875-4.71875-1.710938-7.050781-.78125-.257813.105468-26.195313 10.339844-61.441407 13.289062-4.144531.347656-7.21875 3.988282-6.871093 8.128906.34375 4.140626 3.984374 7.226563 8.125 6.871094 29.957031-2.507812 53.195312-9.808594 61.996093-12.910156 36.347657 23.675781 74.753907 28.734375 100.9375 28.734375 18.53125 0 30.941407-2.535156 32.148438-2.792969.242187-.050781.480469-.113281.714843-.1875 3.101563-.984375 29.824219-11.445312 12.800782-74.054687zm0 0"/><path d="m79.308594 176.53125c-.179688 12.105469.308594 24.957031 1.441406 38.199219.351562 4.089843 4.058594 7.199219 8.144531 6.855469 4.085938-.34375 7.203125-4.0625 6.855469-8.144532-1.097656-12.738281-1.5625-25.085937-1.394531-36.6875.578125-38.964844-20.671875-56.324218-41.222657-73.113281-17.921874-14.636719-34.84375-28.464844-38.003906-57.347656-.542968-4.953125 1.882813-9.929688 6.070313-12.609375 3.6875-2.359375 8.421875-2.765625 12.4375-.992188 21.289062 9.414063 39.703125 9.957032 53.246093 1.570313l.304688-.1875c23.742188-14.707031 50.65625-31.371094 90.902344-5.214844 19.941406 12.960937 25.265625 32.894531 30.902344 54 5.839843 21.867187 11.878906 44.476563 35.429687 56.59375 16.875 8.679687 38.925781 21.105469 59.820313 40.332031 3.058593 2.8125 7.820312 2.613282 10.632812-.441406 2.816406-3.058594 2.617188-7.820312-.441406-10.636719-22.222656-20.445312-45.410156-33.527343-63.128906-42.640625-17.617188-9.0625-22.320313-26.683594-27.769532-47.089844-5.839844-21.855468-12.453125-46.625-37.242187-62.734374-48.253907-31.363282-82.226563-10.328126-107.03125 5.035156l-.300781.1875c-6.367188 3.941406-18.339844 6.699218-39.238282-2.539063-12.367187-5.46875-26.945312-1.328125-34.671875 9.832031-3.886719 5.617188-5.621093 12.425782-4.882812 19.167969 3.828125 35.011719 24.875 52.203125 43.441406 67.371094 19.40625 15.855469 36.167969 29.546875 35.699219 61.234375zm0 0"/><path d="m135.53125 48.785156c-8.230469-5.699218-18.695312-.246094-23.75 7.054688-5.054688 7.300781-6.46875 19.023437 1.753906 24.714844 8.230469 5.695312 18.726563.265624 23.75-7.054688 6.167969-8.90625 5.398438-19.761719-1.753906-24.714844zm0 0"/></svg>