<svg height="512pt" viewBox="0 -28 512.00062 512" width="512pt" xmlns="http://www.w3.org/2000/svg"><path d="m325.691406 437.457031c-83.167968 8.25-192.097656 3.097657-247.96875-27.023437-20.148437-10.859375-36.679687-34.011719-47.816406-66.949219-10.210938-30.207031-15.453125-67.78125-14.765625-105.804687.078125-4.167969-3.238281-7.605469-7.402344-7.679688-.046875 0-.09375 0-.140625 0-4.101562 0-7.464844 3.289062-7.5390622 7.40625-1.2265628 67.75 16.5000002 157.195312 70.5078122 186.308594 27.109375 14.613281 67.851563 24.808594 117.820313 29.488281 20.554687 1.921875 42.367187 2.882813 64.496093 2.882813 24.820313 0 50.035157-1.207032 74.296876-3.617188 4.148437-.410156 7.171874-4.101562 6.761718-8.25-.410156-4.144531-4.109375-7.175781-8.25-6.761719zm0 0"/><path d="m353.003906 181.378906c-14.945312-11.425781-34.945312-17.214844-56.328125-16.304687-21.78125.933593-42.65625 8.859375-58.777343 22.316406-3.199219 2.671875-3.625 7.425781-.957032 10.625 2.671875 3.199219 7.429688 3.625 10.625.957031 27.3125-22.800781 70.5-25.320312 96.273438-5.609375 20.191406 15.4375 23.992187 40.738281 18.804687 58.960938-4.988281 17.507812-17.816406 28.933593-34.324219 30.554687-12.582031 1.238282-22.519531-1.683594-29.554687-8.679687-8.511719-8.472657-10.46875-20.730469-10.234375-23.257813.460938-4.140625-2.519531-7.867187-6.660156-8.328125-4.140625-.457031-7.871094 2.523438-8.332032 6.660157-.652343 5.871093 2.042969 22.917968 14.304688 35.335937 6.363281 6.441406 17.417969 13.628906 35.085938 13.628906 2.183593 0 4.472656-.109375 6.867187-.347656 22.90625-2.253906 40.609375-17.742187 47.355469-41.4375 7.917968-27.804687-1.785156-57.976563-24.148438-75.074219zm0 0"/><path d="m505.289062 267.164062c10.671876-42.238281 8.585938-86.902343-6.027343-129.152343-13.652344-39.480469-37.121094-73.269531-67.871094-97.714844-33.140625-26.34375-73.273437-40.2773438-116.066406-40.296875-.042969 0-.082031 0-.125 0-46.402344 0-89.460938 11.570312-127.972657 34.390625-25.308593 14.996094-48.136718 34.46875-67.992187 57.9375-5.847656-6.25-12.535156-10.613281-20.101563-13.113281l6.617188-36.371094c.746094-4.097656-1.972656-8.023438-6.070312-8.769531-4.09375-.742188-8.027344 1.972656-8.773438 6.070312l-6.648438 36.546875c-.601562-.015625-1.203124-.03125-1.816406-.03125-6.109375 0-12.011718 1.070313-17.65625 3.175782l-6.179687-39.507813c-.640625-4.113281-4.503907-6.929687-8.617188-6.285156s-6.929687 4.5-6.285156 8.617187l7.027344 44.949219c-9.066407 6.789063-17.234375 16.671875-24.257813 29.492187-12.457031 22.742188-20.964844 53.707032-24.59375 89.550782-.421875 4.144531 2.597656 7.847656 6.742188 8.265625 4.152344.421875 7.84375-2.597657 8.265625-6.742188 3.382812-33.371093 11.484375-63.140625 22.816406-83.824219 11.851563-21.636718 26.234375-32.605468 42.738281-32.605468 39.757813 0 47.585938 55.570312 55.878906 114.40625 5.914063 41.988281 12.03125 85.40625 31.347657 110.097656 22.523437 28.789062 92.011719 39.554688 159.214843 49.964844 32.050782 4.964844 62.324219 9.65625 84.515626 15.929687 27.542968 7.789063 31.507812 14.953125 31.421874 18.527344-.191406 7.988281-24.164062 23.398437-89.40625 33.125-4.121093.613281-6.960937 4.453125-6.347656 8.570313.558594 3.742187 3.777344 6.433593 7.449219 6.433593.371094 0 .746094-.027343 1.125-.082031 83.863281-12.503906 101.902344-32.828125 102.261719-47.675781.269531-11.082031-7.527344-19.261719-21.167969-25.742188 33.066406-29.113281 55.976563-66.253906 66.554687-108.136719zm-174.097656 84.144532c-22.695312-3.515625-46.507812-7.207032-68.460937-11.683594-42.953125-40.175781-46.441407-74.132812-41.710938-95.640625 1.890625-8.617187 4.902344-16.628906 8.941407-23.808594 2.039062-3.628906.753906-8.230469-2.878907-10.269531-3.628906-2.042969-8.226562-.757812-10.269531 2.875-4.773438 8.480469-8.3125 17.886719-10.527344 27.964844-4.847656 22.054687-2.769531 54.855468 29.574219 92.671875-25.253906-6.703125-45.417969-15.101563-54.308594-26.464844-16.824219-21.503906-22.65625-62.886719-28.292969-102.90625-4.261718-30.234375-8.667968-61.496094-17.976562-84.960937-2.082031-5.246094-4.363281-9.992188-6.855469-14.25 19.304688-23.425782 41.644531-42.746094 66.488281-57.46875 36.15625-21.421876 76.621094-32.28125 120.285157-32.28125h.117187c39.351563.015624 76.242188 12.816406 106.683594 37.019531 28.503906 22.65625 50.292969 54.066406 63.003906 90.835937 13.457032 38.902344 15.464844 81.707032 5.65625 120.527344-10.460937 41.414062-33.9375 77.878906-68 105.691406-23.210937-7.273437-55.453125-12.273437-91.46875-17.851562zm0 0"/><path d="m75.542969 165.398438c8.582031 0 15.308593-8.351563 15.308593-19.015626 0-10.664062-6.726562-19.015624-15.308593-19.015624-8.585938 0-15.3125 8.351562-15.3125 19.015624 0 10.664063 6.726562 19.015626 15.3125 19.015626zm0 0"/></svg>