<svg height="512pt" viewBox="0 -8 512.00024 512" width="512pt" xmlns="http://www.w3.org/2000/svg"><path d="m466.488281 405.933594c-3.367187-2.425782-8.0625-1.664063-10.488281 1.703125-34.667969 48.105469-89.917969 73.480469-159.90625 73.480469-.839844 0-1.6875-.003907-2.53125-.011719-59.800781-.519531-105.667969-13.707031-136.332031-39.199219-24.972657-20.761719-39.65625-50.207031-42.464844-85.15625-.492187-6.09375-.300781-12.625.5625-19.414062.519531-4.117188-2.390625-7.875-6.507813-8.398438-4.121093-.53125-7.875 2.386719-8.398437 6.503906-.992187 7.816406-1.207031 15.390625-.632813 22.511719 3.140626 39.074219 19.683594 72.097656 47.839844 95.507813 33.394532 27.761718 82.449219 42.117187 145.804688 42.667968.875.007813 1.746094.007813 2.621094.007813 35.5 0 67.886718-6.296875 96.292968-18.730469 30.90625-13.527344 56.425782-34.046875 75.839844-60.988281 2.425781-3.367188 1.664062-8.058594-1.699219-10.484375zm0 0"/><path d="m510.285156 217.199219c-.585937-7.046875-4.566406-13.414063-10.652344-17.03125-6.058593-3.601563-13.519531-4.0625-19.957031-1.226563-9.214843 4.0625-23.597656 8.898438-39.792969 8.898438-10.851562 0-20.964843-3.769532-32.671874-8.132813-22.335938-8.328125-47.652344-17.765625-86.179688-3.785156-28.832031 10.460937-50.34375 38.039063-67.625 60.199219-11.726562 15.035156-23.851562 30.585937-32.195312 31.570312-1.308594.160156-3.15625.0625-5.835938-2.074218-12.628906-10.058594-5.03125-30.566407 9.480469-65.9375 8.785156-21.40625 18.738281-45.664063 25.03125-73.378907.921875-4.046875-1.613281-8.070312-5.660157-8.988281-4.046874-.917969-8.066406 1.613281-8.988281 5.660156-6.019531 26.496094-15.71875 50.140625-24.277343 71.003906-7.355469 17.921876-13.707032 33.402344-16.0625 46.730469-2.894532 16.402344.738281 28.394531 11.117187 36.660157 5.261719 4.191406 10.964844 5.953124 16.964844 5.246093 14.566406-1.726562 26.792969-17.402343 42.273437-37.25 16.9375-21.71875 36.132813-46.332031 60.902344-55.320312 33.332031-12.09375 54.925781-4.042969 75.808594 3.738281 12.527344 4.671875 24.359375 9.082031 37.917968 9.082031 14.890626 0 30.746094-3.515625 45.851563-10.171875 4.257813-1.875 9.199219 1.15625 9.585937 5.753906 5.554688 66.742188-2.816406 122.429688-24.878906 165.511719-1.746094 3.410157-.574218 7.707031 2.652344 9.761719 3.6875 2.347656 8.730469.96875 10.71875-2.910156 23.359375-45.621094 32.265625-104.03125 26.472656-173.609375zm0 0"/><path d="m136.410156 66.144531c0 10.617188 6.695313 18.9375 15.246094 18.9375 8.546875 0 15.242188-8.316406 15.242188-18.9375 0-10.617187-6.695313-18.933593-15.242188-18.933593-8.550781 0-15.246094 8.316406-15.246094 18.933593zm0 0"/><path d="m124.390625 163.949219c1.996094-2.066407 3.917969-4.105469 5.757813-6.113281 9.4375 3.472656 19.296874 7.667968 20.953124 12.90625 6.5 20.582031-7.164062 50.121093-21.628906 81.398437-7.90625 17.09375-16.082031 34.773437-21.925781 52.765625-1.214844 3.742188.761719 7.898438 4.429687 9.320312 3.96875 1.542969 8.546876-.636718 9.859376-4.679687 5.5625-17.140625 13.550781-34.40625 21.269531-51.097656 15.726562-33.992188 30.574219-66.101563 22.320312-92.234375-3.21875-10.183594-13.636719-15.988282-24.839843-20.472656 3.078124-3.820313 5.75-7.429688 7.949218-10.75 4.804688-7.257813 10.695313-17.824219 6.382813-25.785157-7.96875-14.710937-26.003907-12.117187-39.171875-10.226562-4.09375.589843-7.960938 1.144531-10.886719 1.144531-2.1875 0-4.492187-2.09375-8.03125-5.546875-3.917969-3.816406-9.125-8.882813-16.574219-10.402344 2.332032-15.570312 10.207032-31.617187 21.875-44.121093 15.070313-16.140626 35.003906-25.03125 56.132813-25.03125 20.371093 0 37.785156 7.140624 51.75 21.230468 18.339843 18.5 29.128906 47.839844 28.863281 78.480469-.035156 4.148437 3.296875 7.539063 7.445312 7.578125h.066407c4.117187 0 7.476562-3.324219 7.507812-7.449219.304688-34.558593-12.113281-67.902343-33.214843-89.1875-16.652344-16.796875-38.234376-25.675781-62.417969-25.675781-25.335938 0-49.171875 10.585938-67.113281 29.804688-14.695313 15.746093-24.28125 36.441406-26.253907 56.253906-20.023437 8.425781-15.265625 40.230468-12.179687 53.878906-8.675782 5.171875-26.550782 17.035156-42.683594 35.347656-11.5 13.054688-13.265625 28.535156-4.496094 39.4375 4.6875 5.824219 13.023438 10.441406 24.457032 10.441406 8.476562 0 18.65625-2.539062 30.304687-8.996093 17.867187-9.90625 43.027344-30.402344 64.09375-52.21875zm-19.53125-48.800781c4.003906 0 8.382813-.628907 13.023437-1.296876 11.394532-1.636718 20.40625-2.527343 23.507813 1.992188-.324219 2.851562-5.097656 13.285156-23.214844 32.824219-.652343-6.589844-2.386719-11.433594-5.253906-14.785157-2.695313-3.144531-6.292969-4.898437-10.414063-5.066406-12.558593-.507812-26.984374 2.839844-35.699218 5.300782-2.886719-14.238282-3.308594-31.480469 4.140625-34.328126 6.6875-2.558593 9.550781-.148437 15.386719 5.546876 4.488281 4.371093 10.066406 9.8125 18.523437 9.8125zm-51.847656 87.878906c-17.964844 9.960937-30.910157 8.320312-35.773438 2.277344-3.953125-4.914063-2.355469-12.796876 4.066407-20.089844 18.414062-20.902344 39.84375-32.890625 43.097656-34.644532 3.257812-1.101562 22.304687-7.289062 37.21875-6.753906.589844.921875 2.753906 5.445313 1.355468 20.222656-17.46875 16.640626-36.359374 31.445313-49.964843 38.988282zm0 0"/><path d="m259.984375 371.351562c10.71875 5.492188 26.089844 10.585938 46.21875 10.585938 12.414063 0 26.636719-1.9375 42.691406-6.914062 46.019531-14.269532 68.90625-55.117188 74.578125-74.722657 1.152344-3.988281-1.144531-8.152343-5.128906-9.304687s-8.148438 1.144531-9.304688 5.128906c-4.890624 16.917969-24.6875 52.179688-64.59375 64.546875-29.558593 9.164063-55.425781 8.382813-76.882812-2.324219-15.847656-7.90625-23.390625-18.644531-23.582031-18.925781-2.3125-3.425781-6.964844-4.339844-10.402344-2.042969-3.449219 2.304688-4.375 6.96875-2.070313 10.417969.371094.558594 9.332032 13.746094 28.476563 23.554687zm0 0"/></svg>