<svg id="Layer_1" enable-background="new 0 0 136 136" height="512" viewBox="0 0 136 136" width="512" xmlns="http://www.w3.org/2000/svg"><g><g><path d="m46.77633 27.73482c-.16992.47998-.34985.97021-.53992 1.4502-.2301.58984-.47009 1.17969-.7301 1.77002-1.09985 2.52002-2.46997 4.93994-4.37988 6.94971-2.71997 2.85986-6.70996 4.83008-10.56006 4.30029-3.5-.47021-6.54004-3.43018-6.60999-6.81006-.0199-.34033 0-.68994.05994-1.04004.28003-1.75 1.31006-3.35987 2.57007-4.66992 3.67993-3.82031 9.1001-5.36035 14.21997-6.74023l5.25 4.20996z" fill="#f7941e"/></g><g><path d="m58.20639 20.98482c-2.13 2.27979-4.81995 3.91992-7.60999 5.26025-1.47998.70996-2.26001 1.44971-3.70996.36963-.19995-.1499-.39001-.31006-.57007-.48975-.77002-.72998-1.37-1.66992-1.91992-2.56006-1.67004-2.68018-.40002-5.85986.47998-8.6499.8999-2.89014 2.18994-5.70996 4.26001-7.9502 1.23999-1.33984 2.78003-2.45996 4.51001-2.8501.51001-.10986 1.03003-.1499 1.53003-.12988 3.18994.16016 6.04993 2.91016 6.69995 6.20996.76001 3.81007-.96997 7.91016-3.67004 10.79005z" fill="#f7941e"/></g><g><path d="m46.05636 27.15474.71997.58008c-.16992.47998-.34985.97021-.53992 1.4502-.21008-.64991-.28002-1.34034-.18005-2.03028z" fill="#ea7e07"/></g><g><path d="m58.20639 20.98482c-2.13 2.27979-4.81995 3.91992-7.60999 5.26025-1.47998.70996-2.26001 1.44971-3.70996.36963-.19995-.1499-.39001-.31006-.57007-.48975.22998-.58008.6001-1.16016 1.12012-1.7002 5.52991-5.71973 9.19995-12.75976 7.73999-20.43994 3.18994.16016 6.04993 2.91016 6.69995 6.20996.76001 3.81007-.96997 7.91016-3.67004 10.79005z" fill="#ea7e07"/></g><g><path d="m45.50631 30.95503c-1.09985 2.52002-2.46997 4.93994-4.37988 6.94971-2.71997 2.85986-6.70996 4.83008-10.56006 4.30029-3.5-.47021-6.54004-3.43018-6.60999-6.81006.48999-.07031 1.02002-.06006 1.56995.02979 4.26001.68994 10.14014.87988 13.07007-3 1.83008-2.43994 4.77002-2.56006 6.90991-1.46973z" fill="#ea7e07"/></g><g><path d="m61.65133 41.98482c-.16992.47998-.34985.97021-.53992 1.4502-.2301.58984-.47009 1.17969-.7301 1.77002-1.09985 2.52002-2.46997 4.93994-4.37988 6.94971-2.71997 2.85986-6.70996 4.83008-10.56006 4.30029-3.5-.47021-6.54004-3.43018-6.60999-6.81006-.0199-.34033 0-.68994.05994-1.04004.28003-1.75 1.31006-3.35986 2.57007-4.66992 3.67993-3.82031 9.1001-5.36035 14.21997-6.74023l5.25 4.20996z" fill="#f7941e"/></g><g><path d="m73.08138 35.23482c-2.13 2.27979-4.81995 3.91992-7.60999 5.26025-1.47998.70996-2.26001 1.44971-3.70996.36963-.19995-.1499-.39001-.31006-.57007-.48975-.77002-.72998-1.37-1.66992-1.91992-2.56006-1.67004-2.68018-.40002-5.85987.47998-8.6499.8999-2.89014 2.18994-5.70996 4.26001-7.9502 1.23999-1.33984 2.78003-2.45996 4.51001-2.8501.51001-.10986 1.03003-.1499 1.53003-.12988 3.18994.16016 6.04993 2.91016 6.69995 6.20996.76002 3.81007-.96996 7.91016-3.67004 10.79005z" fill="#f7941e"/></g><g><path d="m73.08138 35.23482c-2.13 2.27979-4.81995 3.91992-7.60999 5.26025-1.47998.70996-2.26001 1.44971-3.70996.36963-.19995-.1499-.39001-.31006-.57007-.48975.22998-.58008.6001-1.16016 1.12012-1.7002 5.5299-5.71973 9.19995-12.75977 7.73999-20.43994 3.18994.16016 6.04993 2.91016 6.69995 6.20996.76002 3.81007-.96996 7.91016-3.67004 10.79005z" fill="#ea7e07"/></g><g><path d="m60.38131 45.20503c-1.09985 2.52002-2.46997 4.93994-4.37988 6.94971-2.71997 2.85986-6.70996 4.83008-10.56006 4.30029-3.5-.47021-6.54004-3.43018-6.60999-6.81006.48999-.07031 1.02002-.06006 1.56995.02979 4.26001.68994 10.14014.87988 13.07007-3 1.83008-2.43994 4.77002-2.56006 6.90991-1.46973z" fill="#ea7e07"/></g><g><path d="m73.84158 71.54182c-.38444.43468-.78383.87592-1.18955 1.30199-.49493.52509-1.00031 1.04595-1.52705 1.55878-2.2379 2.1935-4.71867 4.16587-7.59479 5.4744-4.09499 1.86108-9.15229 2.23995-12.99466.03671-3.49783-1.99084-5.44687-6.41634-4.0781-10.01781.12424-.36813.2945-.72908.50727-1.07345 1.0429-1.72974 2.81852-2.99126 4.7092-3.83781 5.51936-2.46626 13.92609-2.45673 19.92538-1.72949l1.72908 7.36636z" fill="#f7941e"/></g><g><path d="m84.50002 58.0932c-2.13 2.67236-4.81995 4.59493-7.60999 6.16607-1.47998.83221-2.26001 1.69934-3.70996.43327-.19995-.17571-.39001-.36345-.57007-.57407-.77002-.85569-1.37-1.95749-1.91992-3.0009-1.67004-3.1417-.40002-6.86893.47998-10.13942.8999-3.38782 2.18994-6.69321 4.26001-9.31922 1.23999-1.57056 2.78003-2.88356 4.51001-3.34088.51001-.12878 1.03003-.17572 1.53003-.15225 3.18994.18773 6.04993 3.41128 6.69995 7.27931.76001 4.46616-.96997 9.27229-3.67004 12.64809z" fill="#f7941e"/></g><g><path d="m84.50002 58.0932c-2.13 2.67236-4.81995 4.59493-7.60999 6.16607-1.47998.83221-2.26001 1.69934-3.70996.43327-.19995-.17571-.39001-.36345-.57007-.57407.22998-.67997.6001-1.35994 1.12012-1.99297 5.52991-6.70466 9.19995-14.95699 7.73999-23.95969 3.18994.18773 6.04993 3.41128 6.69995 7.27931.76001 4.46615-.96997 9.27228-3.67004 12.64808z" fill="#ea7e07"/></g><g><path d="m71.12498 74.4026c-2.2379 2.1935-4.71867 4.16587-7.59479 5.4744-4.09499 1.86108-9.15229 2.23995-12.99466.03671-3.49783-1.99084-5.44687-6.41634-4.0781-10.01781.5478.13485 1.10352.37193 1.64629.7016 4.20716 2.54745 10.33978 5.25808 15.09203 2.40873 2.97537-1.79719 6.13335-.66922 7.92923 1.39637z" fill="#ea7e07"/></g><g><path d="m79.05366 99.47004c-.41409.43531-.84361.87655-1.27845 1.30122-.53082.5237-1.07182 1.04218-1.6337 1.55061-2.38818 2.17572-5.00505 4.09909-7.97404 5.28845-4.2271 1.69128-9.32018 1.73806-13.02441-.87633-3.37307-2.36418-5.03254-7.20915-3.42189-10.94382.14893-.38285.3435-.75482.57957-1.10616 1.15987-1.76657 3.02294-2.98344 4.97377-3.75078 5.69463-2.23471 12.04751-1.05501 18.01117.14121l3.31476 7.38048z" fill="#f7941e"/></g><g><path d="m92.37759 91.63754c-3.40625 1.49801-7.2343 2.07827-11.06686 2.29814-2.0326.11555-3.24363.56342-4.5562-1.20303-.18064-.24461-.34559-.49583-.49117-.76343-.63728-1.10365-.99193-2.3565-1.30607-3.53512-.96278-3.55489 1.76408-6.3751 3.87788-8.95043 2.17574-2.67274 4.78886-5.1034 8.10867-6.5853 1.9878-.88548 4.24866-1.4094 6.4565-1.07896.64892.10287 1.28305.28397 1.8704.52003 3.73484 1.54038 6.08698 5.68056 5.59907 9.45303-.5521 4.35991-4.17819 7.95679-8.49222 9.84507z" fill="#f7941e"/></g><g><path d="m92.37759 91.63754c-3.40625 1.49801-7.2343 2.07827-11.06686 2.29814-2.0326.11555-3.24363.56342-4.5562-1.20303-.18064-.24461-.34559-.49583-.49117-.76343.49543-.51523 1.15763-.97024 1.9829-1.31844 8.76719-3.67843 15.82585-9.55377 17.02447-18.31133 3.73484 1.54038 6.08698 5.68056 5.59907 9.45303-.55209 4.3599-4.17818 7.95678-8.49221 9.84506z" fill="#ea7e07"/></g><g><path d="m76.14151 102.32186c-2.38818 2.17572-5.00505 4.09909-7.97404 5.28845-4.2271 1.69128-9.32018 1.73806-13.02441-.87633-3.37307-2.36418-5.03254-7.20915-3.42189-10.94382.54.18203 1.08116.47337 1.60319.8623 4.04696 3.00623 10.01259 6.32169 14.96392 3.62543 3.10087-1.70218 6.19065-.27983 7.85323 2.04397z" fill="#ea7e07"/></g><g><path d="m92.70634 118.7682c-.17229.42947-.35474.86813-.54745 1.2976-.23331.52779-.47665 1.05556-.74028 1.58378-1.11519 2.25486-2.50441 4.42016-4.44095 6.21846-2.7579 2.55894-6.80351 4.32185-10.70729 3.84781-3.5488-.42073-6.63122-3.06924-6.70214-6.0935-.02017-.30452 0-.61735.06078-.9306.28394-1.56586 1.32832-3.00634 2.6059-4.17855 3.73124-3.41834 9.22697-4.79633 14.41823-6.03103l5.3232 3.76699z" fill="#f7941e"/></g><g><path d="m101.95526 112.52325c-2.13 2.27979-4.81995 3.91992-7.60999 5.26025-1.47998.70996-2.26001 1.44971-3.70996.36963-.19995-.1499-.39001-.31006-.57007-.48975-.77002-.72998-1.37-1.66992-1.91992-2.56006-1.67004-2.68018-.40002-5.85986.47998-8.6499.8999-2.89014 2.18994-5.70996 4.26001-7.9502 1.23999-1.33984 2.78003-2.45996 4.51001-2.8501.51001-.10986 1.03003-.1499 1.53003-.12988 3.18994.16016 6.04993 2.91016 6.69995 6.20996.76001 3.81007-.96997 7.91017-3.67004 10.79005z" fill="#f7941e"/></g><g><path d="m101.95526 112.52325c-2.13 2.27979-4.81995 3.91992-7.60999 5.26025-1.47998.70996-2.26001 1.44971-3.70996.36963-.19995-.1499-.39001-.31006-.57007-.48975.22998-.58008.6001-1.16016 1.12012-1.7002 5.52991-5.71973 9.19995-12.75977 7.73999-20.43994 3.18994.16016 6.04993 2.91016 6.69995 6.20996.76001 3.81007-.96997 7.91017-3.67004 10.79005z" fill="#ea7e07"/></g><g><path d="m91.41861 121.64958c-1.11519 2.25486-2.50441 4.42016-4.44095 6.21846-2.7579 2.55894-6.80351 4.32185-10.70729 3.84781-3.5488-.42073-6.63122-3.06924-6.70214-6.0935.49683-.06291 1.03424-.05374 1.59184.02665 4.3194.61735 10.28151.7873 13.2523-2.68434 1.85558-2.1832 4.83651-2.29069 7.00624-1.31508z" fill="#ea7e07"/></g><g><path d="m42.11081 22.89233c-3.66186.45847-7.40259.28009-11.0042-.52475-2.91591-.65161-5.88336-1.8124-7.75322-4.1428s-2.21632-6.0755-.09308-8.17764c.84402-.83564 1.97449-1.333 3.13048-1.6057 4.41055-1.04043 9.12111 1.10739 12.1609 4.46821s4.66761 7.75617 5.82739 12.13685" fill="#f7941e"/></g><path d="m107.67314 128.10786c-2.58691-1.56249-5.61292-3.50292-8.80359-5.85302-1.32556-.98438-2.68152-2.06201-4.03186-3.20313.15405-.04443.29199-.07959.46582-.13525 1.30481-.46143 3.25879-1.2085 5.82947-3.0918 1.26221-.94922 2.69263-2.23047 3.97644-4.06836 1.24707-1.82617 2.43726-4.19678 2.69031-7.25684.15746-1.81497-.17055-3.95214-1.08105-5.65527-1-1.90332-2.6814-3.64111-4.96814-4.55469-1.13525-.45117-2.42725-.6665-3.70789-.53223-1.29602.13232-2.47034.60303-3.47034 1.2207-2.00708 1.25488-3.37085 2.97314-4.41016 4.68799-2.06604 3.48926-2.70679 6.96631-3.07715 9.39404-.09021.66455-.15454 1.25391-.198 1.77148-2.00391-2.62549-3.76343-5.51367-5.0968-8.60986-.96082-2.29541-1.69287-4.69678-2.26575-7.14258.49194.1167 1.18213.21143 2.16174.27344 1.62183.06104 4.05908.10352 7.6709-.69824 1.79065-.42822 3.90247-1.07373 6.15747-2.40771 2.20728-1.32715 4.64209-3.29297 6.27002-6.5376.43323-.88721.7854-1.91309.99133-3.03516.2085-1.11768.23987-2.42188-.00073-3.646-.46423-2.47266-1.81226-4.88672-3.92004-6.63721-1.0509-.87158-2.29883-1.56494-3.65405-1.96484-1.36182-.40479-2.78442-.51123-4.11975-.35498-2.69739.2915-5.02063 1.42871-6.98926 2.71582-2.75426 1.87308-4.86924 4.24756-6.73413 7.05518-.17261-1.6709-.34668-3.32471-.54675-4.93066-.28137-2.17627-.57813-4.27979-.97363-6.27979-.2019-.93164-.39685-1.84277-.60193-2.72803.4342.10986 1.23511-.01123 2.87476-.68506 1.3894-.62939 3.4917-1.63379 6.09302-3.99952 1.26611-1.18994 2.67529-2.76904 3.83643-4.89063 1.15149-2.10596 2.15491-4.74512 2.32263-7.97852.03943-.88281.01892-1.8418-.13843-2.84717-.15247-1.01025-.42505-2.10938-.896-3.146-.93115-2.06396-2.49939-4.15137-5.01208-5.33398-1.23792-.58496-2.7677-.8374-4.2179-.55029-1.46472.25586-2.66724.98242-3.65576 1.78223-1.96191 1.65088-3.17676 3.66357-4.13831 5.62256-1.27124 2.74121-1.92151 5.38428-2.31604 7.64844-1.6195-3.26322-3.44948-6.35972-5.60168-9.44531.44885-.02002 1.08936-.14697 2.04333-.45166 1.30481-.46143 3.25879-1.20898 5.82947-3.09229 1.26221-.94922 2.69263-2.23047 3.97644-4.06836 5.06521-7.41734 2.55442-15.10438-3.35889-17.4668-1.13525-.45117-2.42725-.6665-3.70789-.53174-1.29602.13184-2.47034.60254-3.47034 1.22021-2.00708 1.25537-3.37085 2.97314-4.41016 4.68848-2.06604 3.48877-2.70679 6.96631-3.07715 9.39355-.12976.95605-.20862 1.76514-.2428 2.40723-.51978-.55176-1.01221-1.09619-1.51636-1.58545-1.15515-1.07715-2.14758-2.11963-3.17053-2.94531-.88538-.78027-1.71326-1.44727-2.49133-2.04785.2334-.06152.47925-.13037.76453-.22168 1.30481-.46143 3.25879-1.20898 5.82947-3.09229 1.26221-.94922 2.69263-2.23047 3.97644-4.06836 6.49969-9.51795.19796-18.76303-7.06677-17.99854-1.29602.13184-2.47034.60254-3.47034 1.22021-2.00708 1.25537-3.37085 2.97314-4.41016 4.68848-1.93372 3.26514-2.61475 6.50879-2.99829 8.90283-.25024-.56738-.53381-1.16504-.87573-1.80762-.8186-1.46777-1.89282-3.13281-3.62927-4.77393-1.72144-1.60107-4.02832-3.15625-7.11646-3.9292-1.68347-.40576-3.76563-.54639-5.92981-.00293-1.07544.27783-2.2251.72949-3.28723 1.55469-1.06152.82178-1.93713 2.09082-2.29651 3.40869-.74792 2.6709-.04871 5.37353 1.49573 7.44824 1.57104 2.03613 3.73682 3.18018 5.74658 3.8667 2.03638.68896 3.97449.96289 5.7345 1.12549.24133.021.47083.03076.70544.04492-1.95154.57227-4.17554 1.44238-6.37402 2.92773-1.65015 1.13965-3.28369 2.60352-4.41724 4.68164-.55688 1.03516-.95667 2.23535-1.01135 3.53711-.05811 1.28613.23389 2.56299.75183 3.66943 1.04822 2.22852 2.88293 3.80322 4.84265 4.68799 1.72755.79533 3.87324 1.01249 5.70972.74219 3.03918-.43457 5.33472-1.76416 7.08362-3.11768 1.75818-1.39111 2.95203-2.89502 3.8241-4.21191 1.72693-2.67822 2.35645-4.67334 2.7395-6.00293.23926-.93848.3313-1.57666.33093-2.02441 1.02686.90625 2.22314 1.96289 3.55151 3.27686.92651.83643 1.82312 1.88086 2.87866 2.94531.51709.54297 1.01453 1.15137 1.55872 1.76123.54114.61328 1.10779 1.24951 1.64807 1.95605.99048 1.20166 2.01074 2.53271 3.04407 3.99023-.22766.30615-.48645.70264-.79443 1.23486-.67981 1.10352-1.54041 2.81396-3.14465 4.94434-.81445 1.05762-1.82141 2.19482-3.19165 3.21631-1.36877 1.0083-3.14282 1.9624-5.20056 2.24609-.56104.08545-1.15942.10254-1.776.05225-.61267-.05322-1.19324-.16602-1.8064-.42236-1.20361-.48877-2.396-1.44678-3.05347-2.67627-.66882-1.23682-.74219-2.59961-.08398-4.05518.63037-1.44141 1.83081-2.79785 3.12842-3.88428 2.6189-2.19971 5.72107-3.46631 7.92334-4.41309 2.23071-.92773 3.63379-1.55127 3.5564-1.8291-.07312-.26367-1.59436-.16406-4.02271.31396-2.40137.51465-5.83423 1.36133-9.19409 3.63135-1.65015 1.13965-3.28369 2.60352-4.41724 4.68164-.55688 1.03516-.95667 2.23535-1.01135 3.53711-.05811 1.28613.23389 2.56299.75183 3.66943 1.04822 2.22852 2.88293 3.80322 4.84265 4.68799 1.72755.79533 3.87324 1.01249 5.70972.74219 3.03918-.43457 5.33472-1.76416 7.08362-3.11768 1.75818-1.39111 2.95203-2.89502 3.8241-4.21191 1.61121-2.49854 2.26367-4.39502 2.6554-5.71875 3.54626 5.48525 6.24588 11.05685 8.1886 17.22412-.77087-.18896-1.80225-.3833-3.07593-.54688-2.88416-.34131-6.93567-.60645-11.46289.16602-2.24744.40918-4.66577 1.05859-6.90479 2.48438-1.10669.71387-2.16833 1.62939-2.99292 2.80762-.82043 1.19287-1.35339 2.62646-1.48511 4.04395-.27466 2.86426.7832 5.49023 2.29712 7.41748.76819.96875 1.67371 1.77686 2.64221 2.3999.96594.61719 1.91467 1.04688 2.8457 1.33887 3.40222 1.06543 6.48914.75586 8.97437.12891 2.51782-.64453 4.49305-1.71533 6.0271-2.72754 3.078-2.08496 4.65369-3.96191 5.68201-5.20996.04663-.06104.07605-.10596.12-.16455.03174.22021.06604.4292.09766.65137.647 4.6972 1.13407 10.10812 2.05664 15.33447-.62305-.32617-2.01904-.79834-4.01208-1.30908-1.39685-.34521-3.08704-.69922-5.02344-.88818-1.9314-.18994-4.12427-.2207-6.4242.20898-2.27673.43457-4.70532 1.24463-6.79944 2.97217-1.03992.85205-1.94812 1.97314-2.55005 3.27539-.60181 1.29199-.87085 2.69922-.87048 4.05176.00781 2.71924.99915 5.21436 2.48096 7.13428 1.27034 1.62717 3.09476 2.98988 5.3479 3.78125 3.33496 1.1709 6.41418.93164 8.89991.37744 2.51953-.59082 4.48645-1.60742 6.03247-2.57129 3.08789-1.99268 4.70789-3.78809 5.76074-4.99414.15344-.18701.26843-.34082.39575-.50586.17944.43311.35815.8667.55261 1.29443 1.86877 4.01123 4.38965 7.62305 7.18738 10.72998-.66577-.00488-1.7356.09766-3.12378.31689-2.33435.40283-5.63147 1.06641-9.02673 2.93799-1.66028.98145-3.36682 2.18213-4.67285 4.08398-.63757.94824-1.16736 2.0957-1.28027 3.42529-.13611 1.31787.20288 2.6377.77283 3.71093 1.16504 2.17041 3.05945 3.50879 4.93994 4.2749.94409.38184 1.93909.59375 2.85315.68994.90637.10107 1.76501.0752 2.55164-.00049 2.88208-.30469 5.16833-1.36475 6.95691-2.52588 1.80481-1.17188 3.09717-2.53711 4.04651-3.74169 1.88892-2.4668 2.59363-4.3877 3.02966-5.6543.09595-.31738.17163-.59912.23108-.85107 1.48096 1.14014 2.96021 2.18408 4.39856 3.13672 3.40479 2.23486 6.60193 4.00488 9.33655 5.37109 5.46643 2.7417 9.00281 4.06055 9.11426 3.8335.13803-.2763-3.17301-2.08294-8.34403-5.21869zm-79.10449-107.99511c-1.63757-.72656-3.16711-1.79248-4.05127-3.15527-.8562-1.29541-1.12671-3.1123-.65637-4.35547.22388-.63428.57983-1.0708 1.06958-1.43408.50317-.3584 1.16833-.61768 1.87366-.77393 1.43005-.30908 2.83167-.20313 4.03564.08545 2.2063.54736 4.01746 1.70605 5.37 2.90723 1.34851 1.2002 2.32947 2.55176 3.09351 3.73633 1.50574 2.41748 2.26648 4.3042 2.87634 5.53711-.16272-.00732-.28113.01563-.3656.06299-.57471-.14063-1.95813-.18799-3.86841-.37598-1.2583-.13184-2.7439-.32861-4.35718-.6792-1.60828-.35498-3.37879-.81641-5.0199-1.55518zm15.88488 9.65674c-.67981 1.10352-1.54041 2.81396-3.14465 4.94434-.81445 1.05762-1.82141 2.19482-3.19165 3.21631-1.36877 1.0083-3.14282 1.9624-5.20056 2.24609-.56104.08545-1.15942.10254-1.776.05225-.61267-.05322-1.19324-.16602-1.8064-.42236-1.20361-.48877-2.396-1.44678-3.05347-2.67627-.66882-1.23682-.74219-2.59961-.08398-4.05518.63037-1.44141 1.83081-2.79785 3.12842-3.88428 3.41821-2.87108 7.73205-4.21346 10.38501-5.48535.77747-.13232 1.38379-.28613 1.79272-.43164.00439.19531.12207.45508.49585.86816.30969.34277.79346.78906 1.52869 1.38721.66589.5415 1.50281 1.2915 2.59705 2.18066-.38331.15576-.87134.67871-1.67103 2.06006zm.67322-5.95459c.01465-.46484-.04187-1.11475-.2052-2.0376-.13025-.63232-.30872-1.4126-.59473-2.33154.16711-.45605.35022-.97559.54944-1.54883.81384-2.25488 1.89319-5.42676 3.93323-8.17236 1.00696-1.35986 2.28979-2.63916 3.69116-3.354 4.82729-2.53976 10.6046 3.82947 5.5564 11.60986-.93799 1.42871-2.01294 2.50146-3.02002 3.37793-2.03125 1.72803-3.68738 2.68896-4.74829 3.43311-.80322.53125-1.29956.92969-1.59875 1.24951-.16113-.11523-.3335-.24023-.48633-.34961-1.27173-.80518-2.25342-1.43555-3.07691-1.87647zm13.57605 11.15039c.27771-.63721.62585-1.60254 1.04846-2.81836.81384-2.25488 1.89319-5.42676 3.93323-8.17236 1.00696-1.35986 2.2898-2.63916 3.69117-3.354 1.41345-.74365 2.77844-.75195 4.05286-.15771 3.39896 1.56467 5.00678 6.3683 1.50354 11.76758-.93799 1.42871-2.01294 2.50146-3.02002 3.37793-2.03125 1.72803-3.68738 2.68896-4.74829 3.43311-1.07922.71387-1.60877 1.18994-1.8418 1.55371-1.13989-1.54736-2.26807-2.95117-3.3656-4.20947-.41139-.50588-.83375-.96926-1.25355-1.42043zm26.89966 40.27344c1.77979-.9668 3.78967-1.73096 5.74731-1.80176 1.9613-.10791 3.70923.5708 5.05859 1.79834 1.34314 1.21729 2.19238 2.90918 2.43542 4.47266.12866.79785.09045 1.50146-.05103 2.22461-.14563.72119-.3761 1.39307-.67212 1.99854-1.09973 2.21973-2.93738 3.81934-4.67761 4.90527-1.74548 1.09521-3.49963 1.72314-5.03821 2.18799-3.10315.89063-5.37866 1.1582-6.89514 1.4541-1.19812.20508-1.94604.3999-2.41663.5957-.29712-1.50098-.54517-3.01172-.74597-4.521-.28406-2.06836-.50867-4.12744-.72156-6.16309 1.84207-2.14892 4.41897-5.16161 7.97695-7.15136zm-10.75073-30.01953c.97449-1.62549 2.20959-3.25781 3.65869-4.29541.71753-.50537 1.48438-.86279 2.16809-.91797.68079-.08789 1.36743.05176 2.02368.40479 1.32544.69189 2.38501 2.09863 2.95593 3.51123.30139.71631.4541 1.42627.55371 2.14307.10413.72559.11182 1.43359.08252 2.09521-.12012 2.42773-.88135 4.56543-1.76929 6.28027-.88928 1.72754-1.95105 3.0249-2.95667 4.10693-2.04431 2.12109-3.78955 3.29395-4.90308 4.18018-.99011.73633-1.52698 1.23438-1.8147 1.61231-.12061-.45264-.2478-.89551-.38416-1.32666-.92688-3.2002-2.02075-6.12207-3.20569-8.79297.76883-2.50196 1.75882-5.85596 3.59097-9.00098zm-4.25867 27.69287c-1.2135.92285-2.89355 2.44238-5.62122 4.05273-1.37598.79102-2.99829 1.58008-4.99756 2.03906-1.98242.46143-4.38916.625-6.76343-.12842-1.31653-.42383-2.604-1.13721-3.64075-2.37158-1.02637-1.22021-1.75525-2.93896-1.66101-4.60938.04126-.83594.29114-1.62012.72339-2.35791.45447-.74023 1.12622-1.41992 1.91699-2.00537 1.58972-1.17725 3.62024-1.92773 5.61609-2.46094 4.03088-1.05127 7.96619-1.25391 10.78186-1.39551 1.4447-.06104 2.61108-.09326 3.41663-.14844.06262.2085.12988.40918.19092.62012.24463.8125.49487 1.65479.68347 2.54053.19775.88379.4458 1.78027.6239 2.72705.15063.73389.28162 1.50439.41223 2.27734-.42076.25099-.95238.62795-1.68151 1.22072zm5.18604 27.79248c-1.23145.87842-2.95178 2.32227-5.69299 3.85791-1.38037.74756-3.01416 1.49707-4.98767 1.9082-1.96228.39502-4.34278.51318-6.66761-.31738-.63489-.22168-1.28564-.52197-1.90576-.93359-.61157-.39893-1.17236-.87891-1.6925-1.5-1.01697-1.23486-1.76672-2.95215-1.84875-4.71387-.08459-1.77637.51282-3.43896 1.89966-4.7251 1.35657-1.30225 3.29358-2.17285 5.20557-2.69873 3.86804-1.05664 7.77808-.74463 10.5586-.56445 2.19043.17383 3.73999.28369 4.34534.18848.51831 2.83643 1.21704 5.71533 2.18481 8.52686-.376.23046-.82839.54101-1.3987.97167zm16.7793.5586c1.00696-1.35986 2.28979-2.63916 3.69104-3.354 1.41357-.74365 2.77844-.75195 4.05298-.15771 1.26648.58301 2.29346 1.71631 2.85339 2.88818.29199.59717.43921 1.16992.52905 1.77832.08716.6123.10571 1.21094.05383 1.77588-.16077 2.0708-1.00732 3.89893-1.93274 5.3252-.93799 1.42871-2.01294 2.50146-3.02002 3.37744-2.03125 1.72852-3.68738 2.68945-4.74829 3.43359-.54199.3584-.94519.65674-1.24243.91162-2.37354-2.18667-3.66915-3.6199-5.06897-5.34619 1.12348-2.78602 2.20132-7.09223 4.83216-10.63233zm-2.21998 19.33154c-.71375 1.0127-1.62024 2.59912-3.30872 4.4873-.86206.93555-1.89819 1.92578-3.31226 2.78516-1.40283.86034-3.17944 1.62939-5.2196 1.83886-.55591.05273-1.15198.0791-1.76514.01904-.60242-.05469-1.19678-.16016-1.8103-.3833-1.2052-.43115-2.42346-1.27539-3.07434-2.35448-.66089-1.07813-.67297-2.19482.07703-3.53174.72559-1.30469 2.03381-2.48535 3.34949-3.44531 2.71277-1.89941 5.7478-2.99805 7.90344-3.84375 1.53809-.58594 2.65698-1.04053 3.16541-1.35693.29138.31445.58215.62988.87854.93359 1.29272 1.32324 2.62854 2.53955 3.97693 3.66748-.24231.28564-.52381.66894-.86048 1.18408z" fill="#202020"/></g></svg>