<svg id="Layer_1" enable-background="new 0 0 136 136" height="512" viewBox="0 0 136 136" width="512" xmlns="http://www.w3.org/2000/svg"><g><path d="m68.71447 77.12355c-1.40991 5.59009-4.57996 10.57983-8.19995 15.06006-2.93994 3.63989-6.31006 7.03979-10.02002 9.93994-5.15991 4.05005-10.98999 7.13013-17.27002 8.55005-1.43994.33008-2.8999.56982-4.37988.71997.75-9-5.19006-17.1001-7.17004-25.90991-1.9801-8.79004.39001-18.64014 6.79993-24.96021 2.16003-2.12988 4.76001-3.78003 7.58008-4.86987h.01001c2.25-.89014 4.63989-1.41992 7.04004-1.55005 3.53992-.21997 7.09985.40991 10.27991 2.02002l-2.21997-1.22998c5.47998-1.80005 11.80994.92993 15.10999 5.6499s3.85008 10.98999 2.43992 16.58008z" fill="#2bb673"/><path d="m68.71447 77.12355c-1.40991 5.59009-4.57996 10.57983-8.19995 15.06006-2.93994 3.63989-6.31006 7.03979-10.02002 9.93994-.84998-1.33008-.98999-3.05005.20996-4.80005 3.8501-5.62012 8.65015-11.72998 10.39014-18.43994 1.18994-4.58008 1.75-13.66992-3.05005-16.6499-.19995-.13013-.39001-.27002-.57007-.41016-.55994-.29004-1.15991-.5-1.77002-.60986-1.29993 1.18994-2.73999 2.17993-4.42993 2.71997-1.92993.60986-4.20996.62988-6.03003-.36011-.87988-.47998-1.52002-1.08984-2.06995-1.93994-.37-.44995-.62-.95996-.76001-1.54004-.18005-.48999-.18005-.57007-.01001-.25-.91003-1.93994-.70007-4.19995.70007-5.73999 3.53992-.21997 7.09985.40991 10.27991 2.02002l-2.21997-1.22998c5.47998-1.80005 11.80994.92993 15.10999 5.6499s3.8501 10.98999 2.43994 16.58008z" fill="#1da360"/><path d="m27.62463 80.4236c-.15015 8.27979.93994 17.88989 5.83984 24.83008 1.44006 2.03979 1.02002 4.03979-.23999 5.41992-1.43994.33008-2.8999.56982-4.37988.71997.75-9-5.19006-17.1001-7.17004-25.90991-1.9801-8.79004.39001-18.64014 6.79993-24.96021 2.16003-2.12988 4.76001-3.78003 7.58008-4.86987-.15002.3501-.3501.69995-.61011 1.0498-5.17994 7-7.66993 15.03028-7.81983 23.72022z" fill="#46cc89"/><path d="m113.79455 39.65358c-.37.58984-.81006 1.10986-1.31006 1.58984-2.35986 2.27002-5.88989 3.47998-7.72998 6.30005-1.3999 2.14014-1.57996 4.87012-2.76001 7.15015-2.06995 3.97998-6.81995 5.84985-11.29004 6.17993-5.45996.38989-10.91992-1.34009-15.40991-4.40991-2.22998-1.53003-4-3.24023-5.47998-5.16016-1.83008-2.3501-3.21997-5.02002-4.51001-8.04004-1.65002-3.8999-3.15002-7.90991-5.56006-11.38989-1.08997-1.58008-2.3999-3.06006-3.90991-4.26001-1.80005-1.44995-3.86011-2.52002-6.13013-2.92993.41016 0 2.63013-2.39014 3.03003-2.73022 1.15002-.91992 2.36011-1.77979 3.6001-2.57983 2.5-1.6001 5.15991-2.92993 7.92993-3.98999 6.26001-2.3999 11.89001-3.06006 18.58008-2.5 3.29993.27002 7.08997.31982 10.34985 1.30005.86011.26001 1.69006.57983 2.46008.98999 2.13 1.12988 4.27002 2.31006 6.31995 3.61987 1.77002 1.13013 3.46997 2.36011 5.05005 3.73999 1.76001 1.53003 3.91992 3.90015 5.52002 6.55005 2.08996 3.44994 3.21997 7.38012 1.25 10.57006z" fill="#2bb673"/><path d="m93.19445 14.18361c-.71997.17993-1.50989.18994-2.37988 0-6.68994-1.48022-16.18005.6499-22.47998 3.03979-5.38013 2.04004-9.78003 5.41016-12.5 10.39014-1.80005-1.44995-3.86011-2.52002-6.13013-2.92993.41016 0 2.63013-2.39014 3.03003-2.73022 1.15002-.91992 2.36011-1.77979 3.6001-2.57983 2.5-1.6001 5.15991-2.92993 7.92993-3.98999 6.26001-2.3999 11.89001-3.06006 18.58008-2.5 3.29992.27001 7.08996.31981 10.34985 1.30004z" fill="#46cc89"/><path d="m113.79455 39.65358c-.37.58984-.81006 1.10986-1.31006 1.58984-2.35986 2.27002-5.88989 3.47998-7.72998 6.30005-1.3999 2.14014-1.57996 4.87012-2.76001 7.15015-2.06995 3.97998-6.81995 5.84985-11.29004 6.17993-5.45996.38989-10.91992-1.34009-15.40991-4.40991-2.22998-1.53003-4-3.24023-5.47998-5.16016 1.43994-1.43994 3.6499-2.17993 5.96997-1.11987 4.71997 2.15991 10.21997 4.41992 15.5 3.20996 5.62-1.29004 7.05005-5.65991 8.78003-10.48999 2.20996-6.18994 6.67993-11.16992 12.47998-13.82007 2.08996 3.44995 3.21997 7.38013 1.25 10.57007z" fill="#1da360"/><path d="m32.58187 31.19595c-1.24475-.40577-2.52467-.81647-3.83198-.746-1.30732.07047-2.66763.73086-3.18953 1.93155-.6118 1.40753.1228 3.10023 1.28547 4.10206 1.16267 1.00182 2.66739 1.48819 4.10228 2.03273 6.66395 2.52898 13.16259 7.65769 13.98672 14.73758.20552 1.76555.05266 3.60888.69717 5.26538s2.51025 3.0546 4.15031 2.36934c1.43649-.6002 1.90785-2.39072 2.00095-3.94477.38326-6.39748-2.56142-12.69447-6.97586-17.34069s-10.18471-7.8005-16.14435-10.15789" fill="#fff200"/><path d="m100.67657 21.62454c-.58533 3.1841-.88956 6.4241-.91165 9.66603-.02649 3.88885.89036 7.57722 1.09692 11.4015.0831 1.53836-1.08363 4.64444-3.20996 3.99723-1.63974-.4991-2.83646-6.55642-3.21255-8.25459-.93652-4.22873-1.12921-8.59709-1.19284-12.92172-.07954-5.40582.05949-10.98511 2.15523-15.93056.56123-1.32437 1.40235-2.70689 2.75114-3.05257 1.36021-.34861 2.80528.55237 3.51019 1.8141s.80327 2.79409.70846 4.25083c-.16805 2.58195-.88122 5.08568-1.41514 7.61302-.09947.47088-.19274.94319-.2798 1.41673z" fill="#fff200"/><g fill="#202020"><path d="m21.32075 90.29446c1.93994 5.80005 4.68994 11.16016 5.46997 16.53003.06006.66016.17993 1.33008.17993 1.97998l.02002.59009c.03003.36987-.01001.71997-.01001 1.07983-.0199.69019-.03992 1.38013-.05994 2.07007l-.0199 1.04004 1.0199-.12988c.68005-.09009 1.37-.17993 2.04993-.26001l1.02002-.13013.51001-.07007c12.39229-2.38987 21.9949-9.15805 30.07007-18.91992 1.54004-1.8501 2.92993-3.71997 4.13-5.58984.41003 1.02002.7699 2.04004 1.10999 3.0498 1.57007 4.72021 2.62 9.26001 3.21997 12.83008 1.1001 6.51001 1.07007 11.52002.97998 15.28003-.03003.93994-.05994 1.81006-.07996 2.61011-.06995.78979-.13 1.50977-.18005 2.16992-.10986 1.33008-.12988 2.40991-.23999 3.27002-.31995 3.45995.15002 3.72997.70007 3.85986.54993.12012 1.06995.12012 2.14001-3.34985.30005-.87011.47998-1.96996.75-3.34008.11987-.68994.27002-1.43994.38989-2.27002.08008-.83984.17004-1.73999.27002-2.72998.31006-3.95996.45007-9.29004-.71997-16.17993-.27002-1.64014-.65991-3.46997-1.15991-5.40991 0-.01025 0-.02002 0-.02002-.01001-.69019-.02002-1.62012.06995-2.72998.15002-2.4502.93005-5.78027 1.83997-9.56006 1.76595-7.35792 3.75704-14.3903 6.98999-21.22998.43994-.93018.88-1.80005 1.31006-2.62012.57996.1499 1.15991.29004 1.73999.3999 4.23999.83008 8.44995.47021 12.08997-1 7.77281-3.11768 7.70632-9.16983 9-12 .43005-.98975 1.16003-1.87988 1.97009-2.70996 1.62988-1.63989 3.7699-2.94995 5.54993-4.83008 3.36715-3.59648 4.17104-7.91893 1.40002-12.57983-2.42989-4.03184-6.4395-9.30865-10.78003-11.20996-.55005-.21997-.87-.27002-1.08008-.23999 0-.01001.01001-.02002.01001-.03003 1.47881-4.62623 2.26822-10.45956-1.96997-12.78003-4.79413-2.68934-7.67336 2.5708-8.91992 8.30005-.21997-.06006-.44995-.11011-.68005-.15991-19.15627-4.37764-37.51905 2.45174-41.67004 8.31982-.1499.19995-.27002.44995-.3999.68994-.11011.27002-.22998.52002-.30005.83008-.15991.6001-.15991 1.31006.01001 1.94995.34009 1.30005 1.34998 2.14014 1.83008 2.58008 2.34985 2.13989 4.76001 3.84985 6.65991 5.93994 8.48874 9.08955 4.74049 19.57071 20.28003 26.61011.45996.20996.91992.40991 1.38.59985-3.9698 7.31219-6.07487 16.36013-7.25 24.63013-.38 2.61987-.68005 5.13989-.72009 7.33008v.00977c-.27991-.82983-.57996-1.65991-.8999-2.5-.70996-1.86987-1.53003-3.75-2.43005-5.58984 7.39176-14.35551 2.03636-27.33296-7.96997-30.78003-2.13-.69995-3.84998-.78003-5.13-.67993-.46997.02979-.88.08984-1.22998.15991-.57869-4.23901-2.35897-8.14938-4.8501-11.20996-1.41992-1.69995-2.35986-2.38013-2.92993-2.65015-.57007-.25977-.79004-.09985-.98999.09009-.20996.18994-.37.40991-.17993.97998.18994.57007.73999 1.48999 1.72998 3.20996 3.55008 6.43565 4.14793 13.14145 2.96997 14.94019-.04399.35588-1.68334 1.72696-2.32007-5.11011-.65903-13.16445-16.80397-16.5671-19.05994-18.34985-.39001-.30029-.72009-.72021-.90002-1.14014-.18994-.42993-.20996-.81006-.12-1.1001.17004-.42993.44006-.8999.73999-1.1499 3.25484-3.03461 16.45427 8.31618 17.14001 7.71997.65569-.52439-10.43559-11.06274-16.08008-10.93994-.90991.02002-1.94995.30005-2.79993.91992-.85999.63989-1.40002 1.44995-1.81995 2.38013-.45007 1.09985-.36011 2.31006 0 3.29004.35986.97998.95996 1.82983 1.72998 2.52002 2.72615 2.35739 14.59681 4.9107 16.78003 14.18994.12988.47998.20996.92993.27002 1.3999-.40015.01001-.82007.03003-1.23999.07007-3.79004.32983-8.34009 1.72998-12.42017 4.8999-8.02188 6.19388-12.48245 18.79158-7.90991 31.95994zm74.53003-74.8899c.04004-.27002.09998-.54004.15991-.81006 1.83543-8.25732 4.93846-6.30134 4.6001-1.22998-.19869 2.62447-.80394 5.60063-.66003 7.10986.01001.18018.02991.34009.05994.46021.12012.55005.34009.65991.6001.71997-.05005.04004-.12012.1499-.19006.31982-.13.27002-.27991.69019-.44006 1.24023-.06676.21725-.27441 1.0776-.30994 1.22998-2.40044 10.06692.90636 17.49214-.91003 20.27978-.08997.12012-.13989.14014-.20996.2002-.1499.08984-.33997.06006-.44995-.05005-1.6542-1.98503-2.75872-12.54855-2.83008-17.80005-.03003-2.65991-.03003-5.10986.09009-7.19995.06995-1.43994.20996-2.80005.40991-4.07007.02-.12987.04002-.27001.08006-.39989zm-16.36011 41.08984c-14.12715-6.39732-9.93629-15.79479-19.35986-25.38989-2.22998-2.32983-4.84009-4.09009-6.98999-5.96997l-.40015-.35986c-.12988-.12012-.15991-.17017-.25-.25-.07996-.08008-.09985-.14014-.15991-.2002-.02002-.06006-.05005-.10986-.07007-.1499-.03003-.13013-.05994-.36011.21997-.80005 2.45747-3.86729 18.0648-11.82885 38.64014-8.55005.22998.04004.45996.07007.68994.11011-.03003.07983-.04004.16992-.05005.26001-.26001 1.41992-.42993 2.91992-.51001 4.46997-.10986 1.80981-.10986 3.82983-.05994 5.94995.05994 2.12012.15002 4.41992.41003 6.81006 0 .04004.01001.08008.02002.11987.40697 3.77346 1.5158 9.27701 2.8999 12.57007 1.51741 3.45661 3.59309 3.98237 5.53003 2.66016 4.61148-3.19339.65002-9.72684.65002-20.02002.02991-3.46021.23999-5.72998.03992-6.08008.25.04004.5.01001.82007-.41992.28003-.40015.62-1.09009 1.09998-2.40015.09998.17017.26001.38013.51001.65015.23743.26626 4.86346 4.27331 8.73999 11.56982 1.49915 2.82177 1.58546 5.53504-1.18005 8.30005-13.52775 14.243-8.68896 15.73424-15.32983 18.38989-2.82007 1.12012-6.29004 1.4502-9.79004.76025-.13013-.03027-.25-.05029-.38013-.08008-1.27991-.28003-2.59985-.68018-3.96997-1.20996-.57996-.22021-1.16992-.47021-1.77002-.74023zm-48.81995 3.6001c3.54004-3.01001 7.66003-4.55005 11.17004-5.08984.3999-.06006.79004-.11011 1.16992-.14014.01001.06006.01001.12012.01001.17993.36837 6.13349 3.18631 8.28353 6.27002 8.01001 1.58008-.12988 2.86011-1.19995 3.43994-2.25 1.17017-2.08984 1-3.83008 1.02002-5.26001 0-.05005 0-.09985-.01001-.13989.31006.01001.66016.04004 1.06006.08008 10.29251 1.17499 16.04216 12.32726 10.79004 24.79004-.5 1.19971-1.1001 2.41992-1.80005 3.65991-1.3999 2.46997-3.19995 5-5.33997 7.55005-2.13 2.55981-4.57996 5.11987-7.42004 7.56982-5.52347 4.69452-11.806 8.32178-18.91992 9.86011l-.96997.19995-.22009.05005-.02991.01001c-.02002-.01001-.12012.06006-.1001 0l-.01001-.06006c0-.01001 0-.02002 0-.02002v-.01001l-.03003-.48999c-.01001-.79004-.15991-1.56006-.25-2.33984-1.05994-6.22998-4.05994-11.63013-5.98999-17.06006-4.37372-11.57814-.90999-23.11146 6.16004-29.1001z"/><path d="m82.09077 30.39455c1.76001.88989 3.02002 1.67993 3.97998 2.26001.97998.58008 1.64001.97998 2.15991 1.17993 1.01001.42993 1.41016.1001 1.80005-.30005.39001-.40991.71997-.7998.11011-1.84985-.31006-.52002-.86011-1.21021-1.84009-2.05005-7.77605-6.73481-19.45496-5.62601-19.34998-4.20996.05316 1.01287 3.99552.49308 13.14002 4.96997z"/><path d="m88.88081 40.40456c.53992-.22998.96997-.34009 1.06995-.61011.08997-.26001-.25-.69995-1.03003-.96997-.7699-.28003-1.88-.29004-2.91003-.20996-3.30227.22464-6.36798 1.56748-8.51001 5.29004-.42993.72998-.61987 1.27002-.67993 1.67993-.10999.81006.29004 1.12012.76001 1.44019.45996.31982.8999.57983 1.60999.19971.34998-.17993.77002-.52979 1.29993-1.05981 3.02622-2.9691 2.99801-3.54582 8.39012-5.76002z"/><path d="m87.38081 22.52468c1.04993.95996 2.13989 1.44971 2.55994 1.09985.44006-.36987.18005-1.45996-.14001-2.65015-.33008-1.18994-.70996-2.50977-1.03003-3.31982-.56995-1.46997-.92993-2.19995-1.3999-2.54004-.45007-.33008-.95007-.26001-1.5-.1499-.55005.10986-1.05005.21997-1.31006.77979-.23999.55005-.28003 1.6001.42993 3.41016.38012.99999 1.33007 2.41991 2.39013 3.37011z"/><path d="m29.23066 77.02468c.55005.09985 1.06006.13989 1.62012-.67017.12988-.19995.29004-.43994.45996-.76001 5.25261-10.18446 16.08804-18.60314 5.37-12.68995-5.35132 2.94533-8.36063 8.3442-8.60999 11.75-.05005.41992-.06006.75-.02002 1.03003.13 1.11989.63 1.22999 1.17993 1.3401z"/><path d="m35.82075 77.56448c-.62 2.46021-.97998 4.77002-1.21997 6.54004-1.71997 12.88989-.8501 13.27002.27002 13.42017 1.10986.1499 2.04993 0 3.76001-12.88013.85189-6.38052 1.29739-12.49421 5.3999-17.97998.86011-1.20996 1.52002-1.92017 1.3501-2.17017-.14014-.21973-1.14014.06006-2.47009 1.04004-3.72989 2.66484-5.94725 7.58622-7.08997 12.03003z"/><path d="m48.46076 86.65456c.5199.21997 1 .38989 1.75989-.52002.37012-.45996.82007-1.19995 1.27002-2.35986 1.52222-3.75674 2.08609-9.01873.94006-14.21021-.69006-3.09009-1.90002-5.34985-2.42004-5.19995-.55994.16016-.36987 2.6001-.44995 5.5-.10211 3.69786-.43347 6.95344-1.65991 12.82007-.21008 1.09985-.3501 1.85986-.36011 2.40991-.04004 1.09009.41003 1.34009.92004 1.56006z"/></g></g></svg>