<svg id="Layer_1" enable-background="new 0 0 136 136" height="512" viewBox="0 0 136 136" width="512" xmlns="http://www.w3.org/2000/svg"><g><g><path d="m117.14732 85.11471c.26402 2.05994.40563 4.12922.4232 6.19774.05211 4.1032-.38258 8.19147-1.43472 12.22388-2.25971 8.63879-7.09291 15.28905-13.41119 19.99326-8.71872 6.51976-20.28554 9.34521-31.83716 8.62605-9.3337-.58948-18.65476-3.48015-26.48685-8.5992-.43958-.2812-.85891-.57628-1.28912-.86935-10.79752-7.58279-17.05083-18.64182-18.41005-30.93401l-.00159-.00986c-.29194-2.58365-.35493-5.21452-.20932-7.87897.60915-10.70334 4.53155-21.12184 5.86466-31.80695.02731-.18063.04197-.36934.06926-.54972 1.67866-14.41768-1.7711-29.12812-9.52943-41.48775-1.50165-2.39927 1.13772-5.32005 4.03152-4.49132l14.04267 4.0153 9.02262 2.57639c6.36628 1.82321 12.76722 3.65121 18.82186 6.19768.38549.15539.77268.32088 1.15987.48636 8.35009 3.64776 15.77662 8.69732 22.20041 14.72653 10.58884 9.92592 18.42845 22.51065 23.13331 35.84884 1.79889 5.08548 3.18132 10.38314 3.84005 15.7351z" fill="#6fcccf"/></g><g><path d="m42.57553 50.14156c-3.66514 23.07444-13.47761 48.48494-.17014 70.04928.53548.8769.75052 1.72271.70609 2.49625-10.79752-7.58279-17.05083-18.64182-18.41005-30.93401l-.00159-.00986c.42368-10.45602 2.63652-21.06557 4.72612-31.25096.55689-2.69957 1.10851-5.50195 1.60318-8.37785-.22616-.00506-.45558-.03033-.67397-.05712.02731-.18063.04197-.36934.06926-.54972 1.67866-14.41768-1.7711-29.12812-9.52943-41.48775-1.50165-2.39927 1.13772-5.32005 4.03152-4.49132l14.04267 4.0153c5.57419 12.36965 5.78191 26.88746 3.60634 40.59776z" fill="#8ce5e5"/></g><g><path d="m117.14732 85.11471c.26402 2.05994.40563 4.12922.4232 6.19774.05211 4.1032-.38258 8.19147-1.43472 12.22388-2.25971 8.63879-7.09291 15.28905-13.41119 19.99326-2.8502 1.40147-5.89036 2.53288-9.05293 3.39423.59444-.99686 1.22057-1.93661 1.69785-2.82104 5.86945-10.99112 11.48286-22.59312 12.31895-35.45617 1.82092-27.81102-16.95866-54.53223-40.8748-70.32873.38549.15539.77268.32088 1.15987.48636 8.35009 3.64776 15.77662 8.69732 22.20041 14.72653 10.58884 9.92592 18.42845 22.51065 23.13331 35.84884 1.79889 5.08548 3.18132 10.38314 3.84005 15.7351z" fill="#52baba"/></g><g fill="#202020"><path d="m103.81986 46.63194c-5.50537-8.05615-13.22522-16.81006-24.4646-23.9895-12.78095-8.16246-22.90606-10.23519-56.32769-19.76075l-.24756-.06909-.42371-.0918c-3.33861-.80156-6.4495 3.04618-4.69482 5.99658.07001.12988.18817.3313.23102.39502l.13544.20776c.36163.55469.72528 1.1123 1.091 1.67334 1.39948 2.26147 2.75311 4.60645 3.89368 7.12525 10.32211 22.01562 4.48789 39.38421 1.62567 52.84985-.67981 3.17456-1.26556 6.41577-1.61267 9.71338-.35999 3.29492-.3902 6.66455-.11115 9.9856.54535 6.65918 2.65564 13.14624 5.93549 18.82959 3.35602 5.64697 7.88251 10.45972 13.03919 14.05322 16.90541 12.25875 43.71778 13.43217 60.1853 1.41162 3.3194-2.37939 5.92889-5.04443 7.87854-7.61792 1.94696-2.5791 3.30798-5.0249 4.17377-7.11548.48346-1.02393.79608-1.97998 1.07404-2.80322.29974-.81567.48608-1.52637.6142-2.10669.27637-1.1543.38763-1.7644.31964-1.78198-.06799-.01782-.31378.55664-.71716 1.65796-.19159.5542-.43951 1.23438-.7973 2.0127-.336.78613-.70349 1.69922-1.23608 2.67188-1.94482 3.93042-5.67029 9.38892-12.2132 13.78027-2.90295 1.98682-6.37244 3.68457-10.25012 4.95776.20129-.30493.08539-2.38012-.35388-5.61547-.53223-3.45386-1.46289-8.21387-2.99115-13.34717-1.5191-5.13281-3.57233-10.64307-5.87115-15.69165-2.26001-5.07031-4.87701-9.604-6.97894-13.07397-4.53535-7.27911-8.92915-12.86277-13.71679-17.8894-1.0296-1.0647-1.86932-1.9126-2.60938-2.53662-2.90704-2.54297-3.36896-2.29028-3.77185-1.89819s-.65533.8667 1.65747 3.85327c.57971.74512 1.29663 1.6665 2.18481 2.80811 5.82103 7.24899 9.46805 12.46985 12.7965 17.81201 2.03784 3.36768 4.67462 7.70435 7.05383 12.5459 2.41736 4.81958 4.69006 10.07202 6.5224 14.97754 1.84064 4.90454 3.17609 9.46875 4.17535 12.77759.89044 3.1543 1.50134 5.15405 1.80811 5.30785-16.24478 5.29597-35.14915 1.64139-47.25769-7.43603-4.80371-3.45557-8.94824-8.00684-11.99744-13.28613-2.97052-5.31812-4.85596-11.3418-5.29126-17.53882-.50525-6.19482.4527-12.44971 1.85803-18.65771 2.88269-12.98621 9.4259-31.67477-1.50531-55.28735-1.19885-2.67822-2.63306-5.19434-4.10236-7.58472-.37915-.58569-.75623-1.16846-1.13116-1.74756l-.16626-.25757-.00061-.00464c.01331-.00391.0014-.0083.0014-.0083-.00226-.00708.00397.00781.02374-.02295.02216-.04077.08264-.05981.12512-.08789.047-.03027.10211-.02026.15601-.03613.0318.0188.05835-.0083.09668.01489.01807.00562.03644.0083.05597.00806l.22339.06299c32.78996 9.3956 42.8658 11.38601 55.30353 19.23413 10.7038 6.77173 18.14453 15.07251 23.50891 22.74512 9.11725 12.9398 15.98299 30.47064 15.56683 46.81787-.06708 2.47485-.28497 4.1604-.37292 5.3269-.25812 2.31982-.0661 2.56494.21393 2.6355.26447.06714.5874-.02002 1.34076-2.32593.3349-1.16064.79596-2.88379 1.08868-5.46362 1.82669-16.30652-5.51926-35.71181-14.74422-49.11526z"/><path d="m47.22746 89.11997c-.65356.15356-1.1759.29492-1.58734.46509-1.64923.64453-1.61157 1.15454-1.5108 1.70752s.27179 1.04126 1.94458 1.1394c.4165.01538.93195.04346 1.56281.04028 7.67607-.13099 13.91246-.15311 22.70593 1.93286 4.44702 1.05273 7.97498 2.44482 8.25427 1.93115.26709-.46582-2.87354-2.82251-7.35919-4.66821-8.57831-3.52962-18.07078-4.00714-24.01026-2.54809z"/><path d="m98.84043 68.60581c-.90405.42798-2.16528 1.22192-3.76538 2.70679-6.10505 5.79343-8.71305 13.83982-9.49536 22.24927-.45581 5.26245-.26862 9.47534.26105 9.53687.58594.06982 1.42316-4.10132 2.58069-9.07056 2.98286-12.46532 6.23344-16.61556 12.12299-23.10083 1.21252-1.31226 1.05481-1.7627.74658-2.24976-.29102-.46216-.62958-.91138-2.45057-.07178z"/><path d="m71.60715 43.46568c-.69128-1.32275-1.19739-1.25073-1.74341-1.1167-.54614.13379-1.02606.31714-1.06299 1.76245-.0998 1.9725 1.52462 11.55758 2.27441 20.81812.34302 3.89624.53418 7.11792 1.10461 7.17114.5484.05322 1.37891-3.12378 1.77502-7.14819.95989-9.09882-.704-18.14672-2.34764-21.48682z"/></g></g></svg>