<svg id="Layer_1" enable-background="new 0 0 136 136" height="512" viewBox="0 0 136 136" width="512" xmlns="http://www.w3.org/2000/svg"><g><g><g><path d="m86.81182 57.83483c-.00472-.15102-.00083-.29564-.01321-.4457-.05669-2.50292-.34119-5.00618-.74801-7.51603-1.84723-11.42105-6.18408-22.8021-2.8706-33.73563.19099-.62432.40479-1.24411.6594-1.8465.97124-2.41093 2.42894-4.64329 4.5022-6.17561 3.77244-2.79539 9.39969-2.74096 13.11509.12902 3.70713 2.86348 5.18916 8.29561 3.44932 12.64331l.86845-1.35074c4.24054-1.71951 8.79635-3.00276 13.35337-2.54935 4.5564.4459 9.11894 2.89326 11.11827 7.01336 1.02974 2.11679 1.28827 4.47932.9653 6.80478-.18344 1.31353-.54955 2.62077-1.07533 3.86569-.42033 1.011-.93808 1.97425-1.54756 2.87367-.32336.48254-.6719.94561-1.03731 1.39578-2.61568 3.22688-6.17135 5.65243-9.79481 7.73803-1.06357.61803-2.13908 1.20728-3.23074 1.78352-7.56723 3.9859-15.7073 6.90209-24.08492 8.65132l-.02985.00393c-.77473.16278-1.5518.31074-2.32949.45119z" fill="#00aeef"/></g><g><path d="m131.20987 30.80369c-1.56581-3.19131-4.16471-5.761-7.70439-7.18285-5.43239-2.17746-11.88235-.92751-17.50035-.22501-6.06007.75778-4.87212-4.93096-7.98414-8.36596-2.42106-2.67231-6.31227-3.42662-9.72324-2.58033-1.58675.39122-3.06447 1.03354-4.45988 1.83943.9716-2.41098 2.42893-4.64329 4.50218-6.17565 3.77244-2.79539 9.39969-2.74096 13.11509.12902 3.70714 2.86348 5.18953 8.29561 3.44932 12.64331l.86845-1.35074c4.24055-1.71951 8.79636-3.00272 13.35374-2.54935 4.5564.44586 9.11857 2.89326 11.11791 7.0134 1.0301 2.1167 1.28826 4.47932.96531 6.80473z" fill="#55d7ff"/></g><g><path d="m90.44075 57.11373-.02985.00393c-1.19479.14234-2.40375.23346-3.61229.27147-.05669-2.50292-.34119-5.00618-.74801-7.51603 14.07615-.2328 27.67194-8.47955 38.19805-18.03559 2.58711-2.35095 5.67558.07837 5.88742 2.83391.07988 1.06643-.27899 2.19828-1.27473 3.10318-.43396.39092-.86755.7818-1.31013 1.16627-3.998 3.50014-8.3782 6.74732-13.02554 9.52155-7.4957 4.46946-15.68796 7.68073-24.08492 8.65131z" fill="#09a6d6"/></g></g><g><g><path d="m53.45769 65.70333c-.14967-.02076-.29156-.04894-.44157-.062-2.47674-.36549-4.99216-.50648-7.53469-.52799-11.56902-.10185-23.51774 2.2571-33.7374-2.84973-.58326-.29337-1.1582-.60846-1.70913-.96085-2.21301-1.36326-4.16811-3.17596-5.32953-5.47759-2.1204-4.1892-1.11941-9.72697 2.33509-12.90618 3.4467-3.17216 9.0508-3.71854 13.04354-1.2716l-1.18526-1.08346c-.98107-4.46949-1.47905-9.17631-.26493-13.59196 1.20661-4.41631 4.38713-8.50171 8.78501-9.77889 2.25994-.65868 4.63227-.51579 6.87017.19405 1.26389.40196 2.49084.98291 3.62948 1.71077.92581.58455 1.78815 1.25706 2.57213 2.00925.42121.39999.819.8215 1.20123 1.25749 2.74047 3.12159 4.53281 7.03485 5.97863 10.9577.43017 1.15243.82994 2.31179 1.21418 3.48489 2.65508 8.13025 4.15927 16.64507 4.47316 25.19759l-.00114.03009c.03004.79108.04506 1.58197.05258 2.3722z" fill="#00aeef"/></g><g><path d="m34.28672 17.3883c-3.40936 1.0062-6.3799 3.1354-8.37736 6.3852-3.06092 4.98828-2.91465 11.55662-3.16796 17.21269-.27324 6.10115-5.6808 3.97246-9.59067 6.46179-3.04176 1.93661-4.44038 5.64531-4.1804 9.15006.11851 1.62996.50289 3.19473 1.06236 4.7059-2.213-1.36362-4.16811-3.17596-5.32957-5.4776-2.1204-4.18919-1.11941-9.72697 2.33509-12.90618 3.4467-3.17216 9.05086-3.7189 13.04354-1.2716l-1.18526-1.08346c-.98107-4.4695-1.479-9.17631-.26488-13.59233 1.20656-4.41631 4.38707-8.50135 8.78499-9.77852 2.25991-.65905 4.63227-.51579 6.87012.19405z" fill="#55d7ff"/></g><g><path d="m53.3578 62.0048-.00114.03009c-.06083 1.2017-.17455 2.40874-.34053 3.60644-2.47674-.36549-4.99216-.50648-7.53469-.52799 2.14023-13.91444-3.69998-28.70452-11.34757-40.68915-1.88186-2.94596 1.03273-5.58139 3.7846-5.32631 1.06465.1008 2.11995.64509 2.84429 1.77896.31229.49358.62459.98678.92907 1.48778 2.77712 4.53018 5.24056 9.39453 7.19281 14.44258 3.14378 8.14115 4.93006 16.7571 4.47316 25.1976z" fill="#09a6d6"/></g></g><g><g><path d="m86.81555 92.57874c.12299.05059.24337.09209.36321.14869 2.04507.82056 4.02 1.82894 5.96255 2.94019 8.84074 5.05338 16.87881 12.14603 26.91336 12.79583.57354.03564 1.1504.05106 1.72554.02749 2.28708-.05499 4.57741-.56605 6.48116-1.80083 3.46997-2.24453 5.16493-6.89866 3.94855-10.84778-1.21359-3.94029-5.2319-6.84109-9.35266-6.75151l1.38162-.29807c2.72808-2.96292 5.19414-6.32052 6.2294-10.21606 1.04128-3.89271.43507-8.40926-2.34207-11.3307-1.42604-1.50305-3.29302-2.44653-5.30923-2.89936-1.13917-.25494-2.32963-.35741-3.5181-.30901-.9631.03382-1.91697.16267-2.8466.38685-.49763.11729-.987.26134-1.47095.42329-3.46792 1.15786-6.56609 3.3381-9.40507 5.6793-.83814.68539-1.65625 1.38951-2.46864 2.11097-5.6243 5.00367-10.54418 10.81012-14.57584 17.17313l-.01247.02338c-.37368.58812-.73586 1.18274-1.09203 1.78019z" fill="#00aeef"/></g><g><path d="m122.81816 64.34854c2.14579 2.27702 3.45991 5.2132 3.53725 8.56979.11485 5.14994-2.90939 10.07878-5.22525 14.49126-2.4981 4.7597 2.55717 5.53955 4.42572 9.16612 1.45367 2.82136.87221 6.26125-.87978 8.8105-.81297 1.18665-1.79917 2.20583-2.89472 3.10661 2.28723-.05527 4.57741-.56605 6.4812-1.80081 3.46997-2.24452 5.16492-6.89866 3.94853-10.84778-1.21358-3.94029-5.23177-6.84138-9.35266-6.75151l1.38163-.29807c2.72808-2.96292 5.1941-6.32053 6.22952-10.21636 1.04131-3.89268.43495-8.40896-2.34222-11.33042-1.42586-1.5033-3.29304-2.44652-5.30922-2.89933z" fill="#55d7ff"/></g><g><path d="m88.53178 89.81116-.01247.02338c-.4867.9406-.93556 1.9087-1.34054 2.89289 2.04507.82056 4.02 1.82894 5.96255 2.94019 4.54385-11.52791 15.54332-20.18224 26.67268-25.90211 2.73724-1.40513 1.69017-4.70137-.51512-5.72788-.85413-.39553-1.89782-.44975-2.95139.09106-.45632.23676-.91249.47322-1.36616.71908-4.12048 2.21252-8.15067 4.81821-11.8737 7.79027-6.0007 4.7952-11.1799 10.55343-14.57585 17.17312z" fill="#09a6d6"/></g><path d="m132.36005 93.39845c-1.24902-1.89551-2.90363-3.12061-4.40002-3.79248-1.39972-.65771-2.65417-.82227-3.54169-.83447.5116-.20557 2.01801-1.44092 3.86737-3.74561 1.05994-1.35498 2.21271-3.11475 3.04474-5.33203 5.51286-14.79537-13.27805-30.98416-38.22253.62988-2.52313 3.24268-3.97107 5.61719-4.84747 7.27246-1.43109 2.75977-1.37726 3.51465-1.05438 3.85059-1.21924.4751-2.37518.83301-3.3476 1.08252-2.60181.65918-4.63312.76318-6.15918.81152-.84167.02148-1.52484.01416-2.1012.00879.13202-.62207.24896-1.25635.38995-1.86963 2.40823-10.74145 7.66509-24.20223 12.8158-32.73194.08362-.14795.16101-.28516.24207-.42871-.06927-.02295-.13177-.0542-.19989-.07861.60815.13037 1.72076.12842 3.79871-.14551 2.10071-.29492 5.19159-.90527 9.63135-2.30469 10.00943-3.22839 24.95937-10.10331 29.28473-19.70557 4.881-10.87924-2.39308-20.2274-13.28467-20.30518-2.66949-.01416-4.99274.49121-6.85468 1.06055-3.72192 1.18848-5.74194 2.47021-5.64972 2.69434.11133.29639 2.36334-.48682 6.01971-1.15283 1.82428-.31201 4.0152-.54639 6.37274-.32813 8.74945.81384 14.19594 7.92799 9.9978 16.44092-3.95445 8.06086-18.66363 14.59729-27.10815 17.74805-4.19672 1.53418-7.10004 2.40723-9.05493 3.04639-3.92133 1.24561-4.0274 1.69922-3.91907 2.27734.03174.1709.08282.34424.27777.48242-.33221-.1416-.65198-.29736-.95398-.47314.06036-.07764.11835-.17871.17352-.31006.11053-.26318.20978-.64941.29346-1.21631.09656-.56934.14447-1.31445.12903-2.29004.08924-7.80848-4.11465-20.63327-3.98291-28.47119.00131-5.7239 1.05593-12.93346 5.82428-16.15234 1.91827-1.30518 4.43579-1.80371 6.71777-1.48438 2.30225.30908 4.3175 1.41406 5.67059 2.94287 1.36823 1.52539 2.15527 3.33154 2.48981 4.9043.69904 3.19971-.14697 5.29248.18359 5.39062.1062.0459.48962-.3877.84302-1.34082.3465-.94385.70715-2.42627.54199-4.27881-.13129-1.84131-.78345-4.0625-2.29187-6.11182-1.4873-2.06104-4.02063-3.75391-6.93719-4.34277-2.89917-.6084-6.21375-.21582-9.02429 1.46777-14.50739 8.75088-5.0946 35.84212-2.90106 47.75391.19733.90723.34766 1.59863.46326 2.13037.04089.16455.08185.30762.12286.44141-.04651.07324-.09241.14551-.14099.22168-5.16961 7.79333-10.8789 21.32251-13.25964 33.86329-.21185 1.08398-.38586 2.19482-.56476 3.30225-.11005-.91016-.24347-1.85205-.40735-2.82031-1.87245-11.12361-7.32755-21.64353-17.10163-27.5337.20984-.60596.37653-1.68799.45129-3.64404.06281-2.12061-.01862-5.27002-.65021-9.88184-.6618-4.59912-1.8905-10.68604-4.78326-18.34619-.81433-2.09814-1.83936-4.51416-3.3609-6.979-1.51727-2.45068-3.55048-4.97461-6.35046-6.85889-2.75232-1.84668-6.17462-3.0542-9.71411-2.8291-1.7514.12842-3.5058.60352-5.00659 1.44385-1.51672.81543-2.79944 1.91748-3.83539 3.13428-2.08777 2.43262-3.22784 5.30176-3.6958 7.92725-.46301 2.62939-.35596 5.00439-.10828 6.93555.54492 3.86914 1.46814 6.07568 1.70447 6.02295.31091-.06006-.08197-2.41162-.12274-6.12793-.00049-1.85107.13745-4.0498.74951-6.33691.60602-2.26123 1.77747-4.61768 3.60431-6.48438 1.797-1.89258 4.26648-3.11475 6.86481-3.14111 2.60999-.0459 5.27362.98193 7.42004 2.53809 2.14063 1.54492 3.80243 3.68066 5.07648 5.84131 1.28235 2.16943 2.20575 4.39307 2.97284 6.37402 2.76001 7.31006 4.04846 13.1123 4.88208 17.49365.80542 4.39502 1.17719 7.40381 1.47815 9.43848.27289 1.9585.51385 3.01221.75568 3.58301-.17426.22559-.34851.45118-.52277.67627-.05969-.02051-.11377-.04102-.17853-.06201-.54474-.19092-1.27112-.36377-2.23566-.5127-1.92822-.35205-4.81775-.56445-9.01892-.53271-2.09717.01367-4.52277.10059-7.29712.17041-9.23309.1966-23.50447-.43583-27.36023-8.96484-.96362-2.11084-1.03125-4.67627-.33264-6.87207.69232-2.21729 2.12097-4.01758 3.8559-5.09424 1.7337-1.0918 3.64685-1.56348 5.25323-1.62842 3.27185-.15039 5.19232 1.03564 5.34479.72656.06305-.09717-.29993-.54785-1.18018-1.05664-.87164-.50049-2.27234-1.10547-4.12622-1.25488-1.83734-.18066-4.13629.08838-6.41046 1.23047-2.28174 1.11914-4.37726 3.33105-5.44843 6.10693-1.08783 2.75537-1.25891 6.08887-.07257 9.14258 4.11189 10.4892 19.30672 12.10528 30.61389 11.65235 2.83191-.12695 5.2276-.29248 7.28253-.40771 4.10187-.23389 6.83594-.32129 8.68762-.3457.92749-.0415 1.63428-.07324 2.17773-.09766.07642-.00586.1424-.01318.21246-.02002 8.8176 5.96001 13.901 14.9865 16.71533 25.20459 1.0885 3.92432 1.7619 7.52246 2.25391 9.86816-.8776 9.75515-.3946 15.7934.6734 23.5332.70953 3.92139 1.36169 6.29248 1.62219 6.24756.29364-.04834.17267-2.5-.04535-6.41064-.24632-9.17181-.24733-16.72343 1.90192-28.44385.67371.20166 1.521.3833 2.59283.49023 1.79883.16943 4.2464.16699 7.33075-.61475 1.18195-.30078 2.58331-.79688 4.01318-1.48047.14752.09473.30371.19287.47095.29639 1.38184.85693 3.40448 2.14697 6.40814 4.15088 1.50586 1.00342 3.24982 2.19482 5.34796 3.55176 8.61872 5.51662 20.57359 11.12907 28.69196 4.67773 2.29626-1.83789 3.6554-4.49512 4.04706-7.11279.41395-2.626-.2202-5.27834-1.48564-7.16018zm-1.34522 6.63184c-.44592 1.93848-1.62427 3.81201-3.25293 4.94727-6.63734 4.66922-17.7207-1.20401-24.52765-5.35889-2.07684-1.2793-3.88635-2.41797-5.47998-3.35449-3.19128-1.87939-5.49939-2.98877-7.13678-3.55908-1.11176-.42725-1.90234-.59229-2.4541-.64746-.01776-.12061-.02148-.23779-.03448-.35791.45868-.18018 1.16766-.82227 2.53223-2.51318 1.1474-1.39795 2.77527-3.50439 5.33917-6.47217 24.33793-27.78713 36.17668-15.07181 33.16144-3.71484-.53094 1.99707-1.38336 3.72852-2.18933 5.13867-1.60345 2.73779-2.88281 4.35059-2.73608 4.62646-.00275 0-.00647-.00049-.00922-.00049-.90161.01172-1.37762.21045-1.37225.3291-.01862.33496 1.96014.32275 4.33984 1.90088 1.17303.76758 2.39227 1.97363 3.19965 3.55371.81462 1.56884 1.08019 3.53027.62047 5.48242z" fill="#202020"/></g></g></svg>