<svg id="Layer_1" enable-background="new 0 0 136 136" height="512" viewBox="0 0 136 136" width="512" xmlns="http://www.w3.org/2000/svg"><g><g><path d="m56.87113 102.99535c-1.64001 4.6499-5.43994 8.88037-10.32007 9.57031-2.75.37988-5.51001-.36035-8.19995-1.04004-2.68994-.68018-5.5-1.31006-8.20996-.7002-2.69995.62012-5.25 2.84033-5.30005 5.60986l-2.01001 1.76025c.64001-2.56006.61011-5.16992.25-7.77979-.46997-3.36035-1.47998-6.74023-2.31006-10.04004-1.48999-5.87012-2.28992-12.58008 1.18005-17.53027 1.93005-2.75 4.93005-4.56006 7.97009-5.96973 4.52991-2.11035 9.94995-3.52002 14.42993-1.29004l11.19995 10.23975 2.76001 2.52002c.11012 4.93996.20997 10.00001-1.43993 14.64992z" fill="#e3f8ff"/></g><g><path d="m43.61112 76.47533c-2.35999.22998-4.72998.47021-7.09009.70996-1.73999.17041-3.5.3501-5.2699.43018-2.55994.12012-5.13.05029-7.64001-.47998-3.31006-.7002-6.84009-2.93994-9.51001-5.02002-2.14001-1.66016-3.90991-3.95996-4.38-6.62988-.76001-4.33008 1.79993-9.37988-.87-12.87012-1.64002-2.12012-5.07007-3.47021-4.67993-6.12012.11987-.79004.59985-1.47998 1.09985-2.1001.09009-.10986.17017-.20996.26001-.30957 3.12012-3.70996 7.65015-6.22021 12.46008-6.89014 3.47998-.49023 6.90002-.06006 9.94006 1.20996v.01025c3.15991 1.30957 5.88989 3.5498 7.84985 6.63965.32007.5.64014 1 .95007 1.52002 1.18005 1.95996 2.21008 4.01025 2.44006 6.27002z" fill="#e3f8ff"/></g><g><path d="m57.90116 32.0554c0 .04004-.01001.08008-.01001.12012l-12.22998 18.8999c-3.15015-1.12012-6.16003-2.64014-8.93005-4.5-2.47009-1.6499-4.76001-3.56982-6.79993-5.72998-.67017-.70996-1.3501-1.52979-2-2.43994-3.56006-4.93994-6.5-12.43994-4.40015-17.7002.78003-1.95996 2.22998-3.68994 2.47998-5.78955.04004-.33008.05005-.68018.06006-1.02051v-.00977c.04004-.68994.08008-1.37988.43994-1.96973.38013-.63037 1.05005-1.02051 1.72009-1.3501 4.09998-2.04004 8.75-2.66016 13.31995-2.95019 2.6001-.16992 5.29004-.23999 7.71997.68994 3.27002 1.25 5.68005 4.16016 7.09009 7.36035 2.42993 5.50002 2.18994 10.61965 1.54004 16.38966z" fill="#e3f8ff"/></g><g><path d="m60.87926 35.99599c-1.42349-2.46436-2.85746-4.952-3.73082-7.66063-2.01763-6.25741.5513-11.6175 5.09283-16.02301 2.22489-2.15825 5.18632-3.74135 8.28448-3.64344 2.00371.06332 4.03248.81345 5.96928.29612 1.03583-.27667 1.94199-.8948 2.91798-1.33857 3.83809-1.74513 8.62986-.53553 11.67058 2.38517 3.04071 2.92069 4.44646 7.26652 4.41386 11.4826-.03259 4.21608-1.38082 8.32652-3.1852 12.13711" fill="#e3f8ff"/></g><g><path d="m121.98112 50.39525c.05994 2.15039-1.03992 4.18018-2.39001 5.8501-1.54004 1.89014-3.45996 3.43994-5.59998 4.59033-3.89001 2.08008-8.5 2.85986-12.81995 1.95996l-1.19006-2.7002-9.28992-21.08984c.27991-1 .56982-2.02002.88989-3.03027 1.05005-3.33008 2.42993-6.55957 4.95996-8.90967.73999-.68994 1.29004-1.22021 2.21997-1.61035 3.03003-1.27979 6.27002-2.35986 9.5-2.50977h.03003c1.19006-.05029 2.38013.02979 3.56006.27002 2.90991.6001 5.67993 2.5 7.13 5.02002 0 0 .01001 0 .01001.00977.72998 1.28027 1.12 2.72998 1.01001 4.24023-.19006 2.58984-1.77002 4.97998-1.68005 7.58008.01001.27979.04004.56982.09009.83984.54993 3.29981 3.46997 6.08985 3.56995 9.48975z" fill="#e3f8ff"/></g><g><path d="m131.27104 80.02562c-.90991 1.1001-2.20996 1.60986-3.59986 1.98975-1.48999.41016-3.1001.66992-4.47009 1.3501-2.59998 1.29004-4.15002 3.97998-5.44006 6.56982-.41992.83008-.82983 1.7002-1.13989 2.59033h-.01001c-.26001.71973-.46997 1.44971-.59009 2.19971-.16992 1.15039.21008 2.63037-.40991 3.66992-1.25 2.1001-5.62 2.6001-7.76001 2.67041-3.84998.11963-7.64001-1.02002-11.17993-2.55029-.15015-.06006-.31006-.12988-.46008-.19971-5.5-2.42041-11.17004-7.29004-11.70996-13.29004-.02002-.16992-.03003-.3501-.04004-.52002-.05994-1.55029.22009-3.18018.94006-4.8501 1.78003-4.1499 2.82996-9.48975 5.62988-13.02979 2.32007-2.94043 5.41016-5.42041 8.95007-6.53027.72998-.23975 1.47998-.41016 2.23999-.52002 3.37-.46973 6.5.87012 9.90002 1 .63.03027 1.26001.12012 1.87.26025.28992.06982.57996.13965.87.22998 0 0 0 .00977.01001 0 1.18994.3501 2.34998.8501 3.5 1.3501 2.82996 1.22949 5.69995 2.47949 8.12 4.3999 1.91004 1.52002 3.50001 3.43994 4.64002 5.6001 1.24999 2.38965 1.85997 5.53956.13988 7.60987z" fill="#e3f8ff"/></g><g><path d="m95.74113 110.87572c-.10999.43994-.21008.88965-.30994 1.31982-1.03003 4.41992-2.66016 8.68994-4.8501 12.66016-.38989.70996-.80005 1.41992-1.22998 2.10986-.62 1-1.43994 2.08008-2.57007 2.10986-1.03992.04004-1.88989-.8501-2.59985-1.66992-1.13013-1.31006-2.28003-2.66016-3.61011-3.72021-.69995-.56982-1.45996-1.05957-2.29004-1.41992-2.12988-.91992-4.52002-.87012-6.77991-1.33008-4.76001-.94971-9.05994-4.26953-11.38-8.7998-1.16003-2.24023-1.67004-4.45996-1.80005-6.74023v-.00977c-.12-1.96973.04004-3.96973.32007-6.0498.52002-3.91992.80005-7.70996 2.6499-11.31006.07007-.14014.14014-.28027.21997-.41992 2.65015-4.81006 6.66016-6.41016 11.74011-5.28027 2.68005.6001 5.44995.34033 8.16003 1.1001 1.03992.29004 2.05994.6499 3.04993 1.08008 1.58997.67969 3.10999 1.54004 4.51001 2.58008 3.06995 2.27002 5.53003 5.42969 6.93005 8.98975.20996.53027.3999 1.06982.55994 1.62012.07996.27002.15002.5498.21008.81982.8899 3.95017-.02001 8.37009-.93004 12.36033z" fill="#e3f8ff"/></g><g><path d="m39.22167 64.27116c-.53763 11.40643 9.59785 21.2076 20.71758 23.80513 14.62341 3.41597 31.21353-4.07142 37.92474-17.50544s2.50546-31.5043-9.71-40.23904-31.02125-6.66227-40.71682 4.80547c-2.88576 3.41322-4.9556 7.4321-6.84734 11.48166-2.38316 5.10152-4.45095 11.38535-1.32612 16.06941" fill="#f9ed32"/></g><g><path d="m37.72111 73.45531c-.41003.12012-.81995.22998-1.22998.34033-.58997 1.37012-1.81995 2.43994-3.31995 3.06982-.62012.26025-1.27002.51025-1.92004.75-2.55994.12012-5.13.05029-7.64001-.47998-3.31006-.7002-6.84009-2.93994-9.51001-5.02002-2.14001-1.66016-3.90991-3.95996-4.38-6.62988-.76001-4.33008 1.79993-9.37988-.87-12.87012-1.64002-2.12012-5.07007-3.47021-4.67993-6.12012.11987-.79004.59985-1.47998 1.09985-2.1001.09009-.10986.17017-.20996.26001-.30957.31006.10986.63013.25.95007.43994 5.87 3.3999 5.77991 9.75 8.69006 15.18994 4.31995 8.06006 12.51001 6.16016 19.88989 4.1001 6.21997-1.74023 8.8501 7.90968 2.66004 9.63966z" fill="#cdeff9"/></g><g><path d="m57.10198 103.83777c-1.64001 4.6499-5.43994 8.88037-10.32007 9.57031-2.75.37988-5.51001-.36035-8.19995-1.04004-2.68994-.68018-5.5-1.31006-8.20996-.7002-2.69995.62012-5.25 2.84033-5.30005 5.60986l-2.01001 1.76025c.64001-2.56006.61011-5.16992.25-7.77979 2.05005-2.82031 5.09009-4.96045 8.87-5.82031 4.62-1.06006 10.26001.93994 14.5-1.25977 4.55005-2.34033 5.97009-8.22021 5.64001-12.83008-.18994-2.68994 1.44995-4.25 3.45996-4.68018l2.76001 2.52002c.11011 4.93997.20996 10.00003-1.43994 14.64993z" fill="#cdeff9"/></g><g><path d="m116.02103 94.72533c-.16992 1.15039.21008 2.63037-.40991 3.66992-1.25 2.1001-5.62 2.6001-7.76001 2.67041-3.84998.11963-7.64001-1.02002-11.17993-2.55029.88989 3.9502-.02002 8.37012-.93005 12.36035-.32996.95996-.7301 1.90967-1.17004 2.84961-1.44995 3.09033-5.01001 7.41992-3.98999 11.13037-.38989.70996-.80005 1.41992-1.22998 2.10986-.62 1-1.43994 2.08008-2.57007 2.10986-1.03992.04004-1.88989-.8501-2.59985-1.66992-1.13013-1.31006-2.28003-2.66016-3.61011-3.72021.02002-3.55957 1.26001-7.05957 3.03003-10.55957 1.81006-3.57031 4.14001-6.86035 3.01001-11.08008-.91992-3.4502-3.5-5.97998-6.35999-7.93994-5.01001-3.43994-.75-11.42041 4.25-9.08008.2699.11963.52991.27002.79993.44971 4.15002 2.84033 7.8501 6.51025 9.91003 11.01025.22009-.16016.45007-.30029.69006-.41016 1.29004-.66992 2.86987-.7998 4.52002-.00977 5.48999 2.6499 11.40991-.68018 16.18994-3.54004-.26001.71974-.46997 1.44972-.59009 2.19972z" fill="#cdeff9"/></g><g><path d="m131.27104 80.02562c-.90991 1.1001-2.20996 1.60986-3.59986 1.98975.34986-5.25-.84009-10.22998-7.61011-9.72998-2.21997.16016-4.37988.45996-6.52002.75-.61987.30029-1.34985.47021-2.18994.47021-.29004 0-.57007-.02002-.84009-.06006-3.75989.47021-7.5199.75-11.50989.1001-6.34998-1.02002-3.64001-10.65039 2.66003-9.64014 2.66992.43018 5.43994.20996 8.22998-.2002.37988-.09961.78003-.16992 1.20996-.17969.42993-.07031.85999-.1499 1.29004-.22021.54004-.97998 1.42993-1.77002 2.46997-2.23975 0 0 0 .00977.01001 0 1.18994.3501 2.34998.8501 3.5 1.3501 2.82996 1.22949 5.69995 2.47949 8.12 4.3999 1.91004 1.52002 3.50001 3.43994 4.64002 5.6001 1.25001 2.38965 1.85999 5.53956.1399 7.60987z" fill="#cdeff9"/></g><g><path d="m118.32108 40.06566c.01001.27979.04004.56982.09009.83984-1.70007.26025-3.45007-.41992-4.44006-2.51025-1.15002-2.42969-3.16003-4.81982-5.95007-5.37988-3.35986-.67969-6.27991 2.22021-8.5199 4.30029-2.80005 2.58984-6.42004 1.16992-7.92004-1.34033 1.05005-3.33008 2.42993-6.55957 4.95996-8.90967.73999-.68994 1.29004-1.22021 2.21997-1.61035 3.03003-1.27979 6.27002-2.35986 9.5-2.50977h.03003c.39014.02979.77002.08008 1.16003.1499 3.56995.6001 6.93005 2.51025 9.53003 5.14014 0 0 .01001 0 .01001.00977.72998 1.28027 1.12 2.72998 1.01001 4.24023-.19007 2.58984-1.77002 4.97998-1.68006 7.58008z" fill="#cdeff9"/></g><g><path d="m56.13249 29.16013c-1.6387 1.03003-3.7518.9656-4.59029-1.48237-.39257-1.1461.11436-2.80853-.23625-4.09574-.64363-2.36302-2.21317-4.2317-4.32485-5.43782-4.3829-2.50336-10.27332-2.28286-14.95036-.79866-3.11971.99001-5.32967-1.00018-5.95965-3.46006.04004-.68994.08008-1.37988.43994-1.96973.38013-.63037 1.05005-1.02051 1.72009-1.3501 4.09998-2.04004 8.75-2.66016 13.31995-2.95019 2.6001-.16992 5.29004-.23999 7.71997.68994 3.27002 1.25 5.68005 4.16016 7.09011 7.36042 1.3292 3.00859 2.87047 7.83872 1.71854 11.12093-.34079.97103-1.07713 1.82648-1.9472 2.37338z" fill="#cdeff9"/></g><g><path d="m57.2869 42.9929c-.61719-2.25439-2.28687-3.33594-4.07898-3.50684-2.33264-2.49707-7.40613-2.50098-8.6687 1.81201-.25598.87451-.51831 1.77881-.7738 2.7002-.74854.40967-1.4021 1.11084-1.85693 2.17383-2.73376 6.38818-3.7146 12.92432-2.34448 19.80566.96289 4.8374 4.09839 14.44385 10.02319 15.15967 6.15112.74316 11.64648-7.01074 11.82092-12.42041.26562-8.24023-1.95899-17.82714-4.12122-25.72412z" fill="#e5d223"/></g><g><path d="m99.61008 62.697c.00617-.35337.011-.70575.0154-1.05663.00946-.75432.0125-1.53946-.31253-2.22023-.32502-.68077-1.08377-1.21816-1.81497-1.03258-.50333.12774-.87035.55168-1.1775.97039-1.33347 1.81778-2.18137 3.94434-3.4012 5.84025-1.04859 1.62975-2.75178 3.58661-4.78263 3.943-2.04921.35962-3.77887-1.33659-5.41649-2.4608-3.17747-2.1813-12.84413-5.96535-14.56779-.28076-1.29754 4.2818-.73358 9.21769.85612 13.34261 1.52516 3.95746 1.62791 6.48283 6.5735 6.70328 3.03847.13544 6.15737.0984 9.01317-.94802 2.631-.96405 4.88251-2.72736 7.03984-4.51551 1.93549-1.60426 3.86401-3.28413 5.21317-5.40533 2.38878-3.75574 2.68362-8.39736 2.76191-12.87967z" fill="#e5d223"/></g><g fill="#202020"><path d="m132.88501 73.1433c-1.12427-3.47217-3.00342-6.10352-4.93446-7.97998-1.94519-1.8833-3.92725-3.00733-5.63354-3.74805-1.53308-.65527-2.85889-.98145-3.97314-1.16992.75891-.6123 1.51343-1.31055 2.24402-2.11865 1.02991-1.12451 2.0553-2.48877 2.78345-4.29883.35242-.90625.61243-1.93994.64075-3.06396.06026-3.82997-2.42629-6.54241-3.38538-9.23877-.31885-.9375-.42383-1.69336-.25317-2.7124.16162-1.01953.60242-2.21143.99304-3.62354.39233-1.37842.67371-3.19873.27258-4.87597-.36523-1.6709-1.16626-3.19287-2.22363-4.39648-2.09363-2.4292-5.03577-3.8877-7.94238-4.2207-2.83008-.33594-5.44409-.00439-7.73987.59229-2.29651.58984-4.26221 1.52686-5.72498 2.59424-.43445.31787-.81079.64258-1.1571.96729.14282-.62842.27563-1.29541.38452-2.03516.25464-1.82178.32593-4.05078-.16345-6.57227-.50232-2.49609-1.55994-5.39209-3.89563-7.99561-1.28247-1.41113-3.11877-2.78516-5.34985-3.57715-2.21619-.79785-4.88892-1.10303-7.51123-.34668-.64746.18896-1.2959.44629-1.89929.74365-1.04374.53396-1.85155 1.10802-2.64844 1.27539-1.29646.28406-2.8601-.12762-4.67566-.21436-1.31165-.06445-2.62903.14111-3.80029.52197-2.35522.78613-4.21118 2.17383-5.60669 3.62402-1.39624 1.45605-2.35266 2.94727-3.07483 4.21191-.07483.13574-.13806.25879-.20837.38965-.21484-.61035-.45837-1.24219-.77686-1.91943-.8905-1.84033-2.21118-3.94727-4.53394-5.77051-1.14966-.89697-2.61084-1.69727-4.25684-2.14746-1.63635-.45361-3.37952-.59033-5.1167-.55957-1.91394.04443-3.93457.20508-6.22278.5-3.13824.42436-6.15652 1.13341-9.04443 2.45996-.61633.29834-1.17065.54346-1.88257.99854-.34802.22998-.72131.51318-1.06995.90479-.34998.38184-.65674.90381-.8175 1.38965-.3324.99512-.27991 1.7832-.30054 2.37207-.00496.89801-.08908 1.50986-.73047 2.89111-.47156 1.02686-1.13367 2.14404-1.55005 3.45166-.87292 2.59033-.63904 5.21533-.05359 7.29834.57166 2.11914 1.46094 3.82275 2.24329 5.19873.84314 1.42529 1.58972 2.49268 2.14734 3.17773-.0791-.02588-.14844-.05371-.22961-.07959-1.42175-.45313-3.18738-.82568-5.3363-.90674-2.14026-.06348-4.69336.18652-7.44751 1.14893-2.74255.95654-5.71802 2.6084-8.39014 5.3208-.35657.37939-.72864.76953-1.0802 1.20264-.35181.41162-.73853.8877-1.12231 1.55127-.37354.63428-.72778 1.6084-.69629 2.57227.0011.98926.38123 1.98047.86182 2.68115.97986 1.40869 2.09888 2.14258 2.99097 2.90137.45068.37012.86035.72656 1.17102 1.06641.30676.3335.50635.67627.70251 1.07031.34668.80029.45667 1.86621.42432 3.05566-.03198 1.19238-.19727 2.5-.28674 3.87549-.08374 1.37451-.12695 2.85108.21558 4.3628.33704 1.50635 1.01599 2.8584 1.84546 3.99023.8313 1.13623 1.8031 2.07617 2.81409 2.85986 1.04846.80078 2.09021 1.35742 3.05164 1.87793 2.82119 1.49522 5.79334 2.82664 7.72485 3.5542-.96753.74365-1.93457 1.6333-2.84045 2.75049-1.06018 1.34521-2.01526 3.10889-2.56494 5.10693-.56897 1.99561-.71057 4.17432-.60889 6.33252.22229 4.32813 1.60913 8.5791 2.75684 12.22852 1.17505 3.67822 1.95154 6.98486 2.14209 9.44824.18127 1.93018.07983 3.29736.17334 3.83691-.01208.41797.05798.96631.34912 1.58496l.40125.85254.61108-.89014c.49158-.71631 1.00574-1.66895 1.54126-2.72461.54028-1.04932 1.13245-2.21094 1.97351-3.08643 1.61768-1.75488 4.78198-1.99561 7.92676-1.30176 3.17078.63281 6.62756 2.09424 10.479 2.17236 1.91235.0415 3.85999-.36328 5.45874-1.08203 1.61829-.70605 2.95276-1.65674 4.00598-2.61914.82813-.76123 1.53174-1.55664 2.14136-2.36426.40527 2.09766 1.23083 4.3584 2.60889 6.46387 2.35157 3.61116 6.04237 6.39917 10.14734 7.51563 1.46643.4126 2.89526.55664 4.14502.75684 1.26233.19287 2.35437.44824 3.23901.90039.90295.45068 1.74426 1.13379 2.53638 1.9209.79358.78809 1.53772 1.67188 2.28784 2.56152.38232.45068.83643.99512 1.48096 1.50635.58228.49951 1.76233 1.07666 2.8042 1.00977.47302-.01807.9364-.11914 1.36487-.29492.42529-.16895.84729-.43994 1.11194-.66016.57617-.46631.95203-.93799 1.2677-1.37061.34705-.47803.58923-.90136.823-1.29931.2356-.40771.48279-.80225.6969-1.20361.42993-.80127.84717-1.57715 1.20337-2.34668.745-1.52783 1.33044-2.99609 1.8573-4.37402 1.01685-2.76807 1.68689-5.21094 2.15747-7.33301.91248-4.25342 1.10498-7.20264 1.09094-9.18994-.00989-1.09668-.08057-1.89502-.18079-2.48682 1.08008.51318 2.22974.96094 3.44275 1.31836 1.60352.41016 3.29663.75195 5.03418.7583 1.74426.08398 3.49817-.104 5.2666-.53662 1.73914-.46777 3.63599-1.15527 5.13782-2.88623.35718-.4165.68835-.9707.90088-1.43213 1.27354-2.74583 1.32931-5.73205 2.37781-7.95703.5083-1.11963 1.24768-1.93896 2.18542-2.60742 2.07374-1.4395 4.85602-1.98299 7.33302-2.43115.28687-.05713.38464-.05322 1.00378-.19531 1.00452-.23389 1.8905-.80469 2.37024-1.66016.50085-.79492.50891-2.07471.53992-2.41211.04614-.5415.03662-1.07568.03711-1.59961-.04814-2.09816-.41374-4.0337-.98247-5.76271zm-34.03553-46.91699c1.41406-.74951 3.25122-1.38281 5.3623-1.71191 2.09351-.34033 4.49634-.4248 6.80713.02539 2.23035.40527 4.38574 1.69873 5.78162 3.51367.70789.89307 1.14673 1.92334 1.32166 2.93359.18604 1.01953.00684 1.97803-.35938 3.15625-.35864 1.16211-.90552 2.43994-1.21375 3.96191-.34534 1.5166-.17834 3.34326.29626 4.69287.4624 1.37695 1.06909 2.49658 1.57458 3.47021.51099.97266.93384 1.8208 1.19019 2.56396.47388 1.35693.42273 2.36816-.0177 3.53467-.43823 1.13086-1.17346 2.20166-1.9906 3.11377-1.60339 1.84912-3.39148 3.09277-5.01575 3.95654-3.29846 1.70801-5.88147 2.04736-7.57813 2.28369-1.16943.12695-1.96936.18213-2.52734.25586.0177-.10889.03992-.21777.05652-.32666.54333-3.54688.51624-7.11084.02844-10.51855-.52368-3.4043-1.51721-6.6416-2.85632-9.5957-.63745-1.49561-1.46704-2.86328-2.25171-4.21484-1.09949-1.56787-2.27844-3.06592-3.5636-4.46973.29126-.38721.63257-.92724 1.0426-1.68408.38293-.77051.85461-1.77295 1.29456-3.08398.61476-.5874 1.45021-1.26123 2.61842-1.85693zm-38.92969-9.84717c.88477-1.0752 1.96387-2.32324 3.3186-3.44043 1.33826-1.10986 3.01843-2.08594 4.84314-2.52002.91663-.20752 1.83545-.27295 2.77112-.15723 1.58073.18004 3.46773.82011 5.52051.51025.77014-.1084 1.51282-.39063 2.09766-.65967.51392-.24658 1.02637-.49219 1.53638-.73682.427-.17969.83838-.31836 1.27295-.42578 1.73303-.41895 3.58936-.15479 5.14783.45703 1.58289.6167 2.81506 1.57617 3.73584 2.58057 1.68726 1.87354 2.55823 4.08545 3.00208 6.0669.43652 2.00244.46155 3.79492.33899 5.3584-.26306 3.12695-.91785 5.26123-1.25732 6.72461-.08264.30957-.15051.58398-.20959.83838-4.05493-3.79102-9.19385-6.62695-16.35876-7.68799-4.20068-.61719-8.20886-.40723-11.82959.32959-1.46411.29932-2.8479.70557-4.18335 1.16406.08997-.54443.11243-1.38428.02747-2.69287-.13105-1.6455-.38445-3.05781-.75452-4.479.30039-.37744.62265-.7832.98056-1.22998zm-38.02722 59.41797c-1.37708-.87061-3.02612-1.89893-4.79797-3.0791-.88501-.59766-1.79761-1.2124-2.56226-1.91406-.7887-.72754-1.51599-1.5625-2.09119-2.48779-.57678-.92383-.98401-1.94043-1.14368-2.97656-.16943-1.03418-.08557-2.20996.06323-3.44922.14807-1.24609.3877-2.55469.49951-3.98877.10059-1.42334.08801-3.03516-.51575-4.64551-.3186-.78564-.76501-1.56152-1.29553-2.18164-.52246-.61523-1.05383-1.09326-1.5448-1.52637-.98218-.84229-1.84241-1.57227-2.16431-2.11279-.16174-.26611-.17798-.39307-.18018-.52588.00269-.16309.03235-.25586.18762-.54004.15222-.25781.41248-.60059.72046-.94775.28516-.34814.58972-.66211.87732-.9707 2.16858-2.20117 4.59546-3.5835 6.82422-4.41211 2.24158-.83447 4.29346-1.10742 6.06702-1.15186 3.57092-.04199 5.95203.74707 7.53918 1.22217 1.58105.53809 2.43604.8457 2.95398.90186.52136.05566.71008-.14014.87134-.37061.16113-.22998.29016-.46631.00732-.94873-.28259-.48193-.98401-1.22412-2.64856-2.20752-.59387-.33252-1.31921-.68994-2.19153-1.03027-.21655-.73779-.85693-2.19141-1.65027-4.19775-.53479-1.41504-1.15344-3.11181-1.448-5.00049-.3175-1.87646-.27051-3.9502.53027-5.80957.5695-1.44094 1.88271-3.04699 2.52869-4.94727.24927-.69336.39441-1.59668.42493-2.24658.03882-.64893.09631-1.13525.19666-1.32129.04846-.10254.07166-.12402.14795-.19775.07263-.06982.20166-.16455.37878-.26709.4444-.2585 1.76538-.84088 3.03662-1.23975 2.14953-.68701 4.36523-1.05713 6.46765-1.28809 2.08899-.21973 4.14343-.35156 5.79712-.3877 1.51563-.02832 2.84985.09229 3.98669.39502 1.1283.2998 2.07471.79834 2.91553 1.41895 1.67456 1.24561 2.80518 2.84619 3.59851 4.29004 1.5509 2.95361 2.0708 5.38721 2.5824 6.95508.4491 1.55371.79517 2.37695 1.09729 2.80615-1.32898.53906-2.60107 1.13232-3.77734 1.79395-1.42712.74561-2.66235 1.69531-3.87964 2.55566-1.11609.99561-2.25549 1.87842-3.15173 2.93994-4.76709 4.87598-9.43469 15.22363-10.37402 20.18994-.50574 2.46143-.41516 4.47998-.11194 5.94873.32568 1.47656.81567 2.4126 1.22205 2.98291.84717 1.12354 1.15686 1.00391 1.37744.86133.25024-.15723.36792-.39111.05884-1.53223-.22925-1.13867-.93115-3.3208.25659-7.60059.75269-2.75879 3.04651-8.3584 6.86316-13.75977.00269.02197-.00342.05127.00952.06445.203.25488 1.43188-.83545 3.61401-.51904 1.05823.15527 2.31348.62598 3.37708 1.52637.53723.4502.99023.96777 1.36853 1.60791 1.30268 2.18119 1.53062 4.89156 1.46643 7.44189-.01672.94482-.09753 1.85938-.13928 2.93213-.03064 1.05713-.01794 2.22949.35071 3.48291.18469.62158.47119 1.25635.8689 1.82666.40112.57861.85535 1.01709 1.24292 1.36914.80835.71484 1.29639 1.11523 1.54614 1.55176.58057.88721.6991 2.13428.58801 3.27979-.09631 1.0542-.36072 2.05811-.71655 3.02295-.33813.97266-.73865 1.85498-1.15869 2.65625-.83984 1.60449-1.74597 2.89307-2.60132 3.93994-1.72998 2.08594-3.17261 3.26514-4.12097 4.104-.95959.83301-1.46423 1.31104-1.66809 1.68652-.20496.37598-.11792.63232.00256.88623.12061.25391.25586.48535.69958.53467.44324.04883 1.21216-.06641 2.51953-.68262 1.29211-.625 3.17371-1.73633 5.38123-4.0459 1.09167-1.15967 2.24133-2.63574 3.29871-4.52832.52844-.94531 1.0304-1.99658 1.45544-3.16748.44153-1.1626.82642-2.51904.96436-4.03809.07458-.83545.0791-1.76661-.09326-2.77784-.17114-1.00537-.55884-2.10791-1.24854-3.10938-.3429-.49219-.77905-.979-1.19165-1.33301-.40906-.36377-.79224-.65381-1.09937-.91016-.63879-.53369-.85352-.7915-1.09656-1.41357-.47253-1.20068-.29663-3.21729-.40723-5.31982-.10364-2.0708-.40869-4.20947-1.19629-6.1665-.39001-.97461-.90027-1.89355-1.51404-2.69238-.61768-.81787-1.39832-1.5083-2.18359-1.99463-1.5824-.99805-3.26929-1.33008-4.65039-1.25391-1.35693.06836-2.3822.59375-2.9574 1.07275 1.59277-2.13721 3.41821-4.21631 5.49316-6.04102 1.08203-.72607 2.16016-1.5459 3.42529-2.17871 2.46924-1.34619 5.33862-2.44629 8.55334-3.07861 10.59412-2.07666 21.48401.92236 29.44421 11.96289.69385 1.19092 1.44287 2.38623 2.0166 3.71094 1.20984 2.60889 2.12988 5.48535 2.6366 8.52148.47107 3.03906.53723 6.22266.10168 9.38428-1.88635 13.78174-13.05664 23.271-25.77893 25.79639-10.99951 2.27246-22.20911-1.49072-28.98926-10.11035-1.31775-1.62207-2.19519-3.30615-2.90247-4.80469-.64783-1.52734-1.06458-2.90771-1.3042-4.06006-.11035-.58105-.2085-1.09717-.29358-1.54492-.04553-.4541-.08411-.83936-.11536-1.15088-.07507-.62598-.14807-.96143-.21826-.96484s-.13623.32617-.19824.9668c-.02991.32031-.06287.71875-.08691 1.19189.02942.47168.06323 1.01563.10132 1.62793.1167 1.22412.42297 2.71143.98914 4.37939.16565.43408.34863.88525.54773 1.34521-.323-.11328-.703-.22559-1.16943-.33154-1.45984-.32422-3.93286-.52588-7.15405.45947-1.60901.49121-3.31445 1.19287-5.26404 2.20361-.75378.40283-1.5603.86426-2.38074 1.41846-.71371-.46921-1.62862-1.04733-2.71371-1.73532zm30.81592 32.03076c-1.59009 1.4585-3.89453 2.81201-6.72754 2.854-2.89001.11182-6.2688-1.02393-9.94519-1.52441-1.83191-.23584-3.76855-.27539-5.59656.16357-1.81506.38721-3.6106 1.44189-4.63562 2.84375-1.23182 1.67612-1.6319 3.33642-2.38745 5.65771-.03992-.09814-.07471-.19043-.10461-.2749.30273-.66846.64905-1.83643.80786-3.43848.30603-2.65039-.099-6.34814-.93835-10.18213-.39661-1.92432-.87354-3.90723-1.21704-5.84912-.35034-1.95264-.5625-3.91455-.57788-5.77637.00989-1.85498.20959-3.61279.68835-5.10156.46521-1.49609 1.16895-2.72119 1.92065-3.68701 1.41211-1.75439 3.22021-2.9502 4.89429-3.89209 1.69507-.93848 3.26221-1.66455 4.55334-2.15186 2.60474-.98438 4.40381-1.07666 5.69983-1.15039 1.28943-.05273 2.02051-.10205 2.42798-.2627.04443-.01709.07214-.03955.1095-.05859.32751.57861.68042 1.15918 1.09619 1.73584 3.78015 5.41455 9.48035 9.39258 16.11035 11.28564-.14636.44922-.27795 1.10889-.39075 2.09229-.19287 1.42676-.28052 3.55273-.77307 6.50488-.53747 2.89064-1.43091 6.855-5.01428 10.21193zm77.03565-27.1582-.0022-.00098c-.43896.0791-.88477.15869-1.33752.24023-1.18934.22412-2.49183.50244-3.87855.9541-1.37952.44678-2.86719 1.07959-4.27991 2.1084-1.4054 1.01172-2.69287 2.54248-3.3999 4.25537-1.22495 2.84256-1.17905 5.77268-2.14038 8.06885-.12231.2793-.20544.43115-.36536.64697-.60339.8125-1.88245 1.48145-3.25317 1.8877-1.38464.40723-2.89282.6543-4.35779.65088-1.4801.07764-2.93274-.14209-4.34082-.40723-2.7981-.64844-5.3634-1.85205-7.49585-3.29639-2.1449-1.43164-3.91272-3.00879-5.33655-4.3999-2.83667-2.80859-4.36438-4.82568-4.62317-4.64453-.2041.13379.87085 2.45459 3.4458 5.70605 1.29651 1.6123 2.98657 3.44775 5.17737 5.18213.84021.67285 1.76953 1.31738 2.77527 1.91162-.23682.52539-.45654 1.48682-.78186 3.25537-.34326 1.84717-.81348 4.58447-1.86572 8.54004-.53967 1.97266-1.245 4.24512-2.2417 6.80762-.51563 1.27246-1.07751 2.63037-1.77466 4.02686-.33362.70752-.7196 1.41064-1.11328 2.13965-.19617.36523-.42041.71729-.63367 1.08594-.21973.375-.43408.74072-.63367 1.00977-.18506.26025-.37842.47412-.50879.57764-.08496.06787-.05713.04346-.06152.0498 0 0-.0011-.00244-.00134.00342-.03064-.02197.0907.07617-.19641-.11914-.23987-.17871-.54712-.49902-.92261-.93311-.77173-.87695-1.60791-1.83301-2.60657-2.77197-.99634-.93311-2.17737-1.86768-3.62817-2.53125-2.80762-1.29166-5.75288-1.02053-8.16077-1.58398-1.16003-.25391-2.29492-.67334-3.36121-1.22266-2.13806-1.09473-3.99292-2.70068-5.37573-4.51855-1.83447-2.38818-2.78174-5.0874-3.21265-7.52197.31226-.61084.58301-1.21729.81335-1.80957.84998-2.22998 1.1897-4.20605 1.37524-5.88574.33508-3.3667.10718-5.56738-.06421-7.0415-.08813-.63477-.18225-1.12988-.28088-1.52637 3.94238.82373 8.15515.93848 12.46436.17725 10.44336-1.77246 20.3866-8.08887 25.57898-17.78125 1.35876-2.53516 2.33777-5.24951 2.95984-8.00879.57739.25586 1.49023.51905 2.94385.65039 1.98572.12158 5.11548.06055 9.21179-1.80176.27991-.13135.56506-.27441.85266-.42578.57373.14697 1.29492.3335 2.21228.61426.97717.31543 2.17517.74414 3.54858 1.47754 1.36353.73779 2.92859 1.76465 4.42297 3.34424 1.47925 1.56787 2.93324 3.72266 3.79188 6.53955.4364 1.40039.70837 2.95898.73474 4.62549.01918.73533-.09959 2.07615-.07237 1.69529z"/><path d="m68.49755 49.41967c1.4292-.3418 2.85291-1.08496 3.98865-2.22656.56506-.55762 1.07373-1.26367 1.43237-1.90674.36694-.64502.64539-1.24072.91479-1.74023.26587-.50098.52258-.89355.76758-1.1626.2428-.2583.48865-.42139.77197-.55762.55371-.26904 1.33057-.33936 2.07922-.33008.68665.01074 1.39734.09668 2.08948.19189.69995.09033 1.33533.22119 2.17773.2915.80994.06104 1.78235.01855 2.70422-.38721.93628-.40479 1.60168-1.10498 1.9917-1.75146.78162-1.31738.82288-2.51855.71765-3.43604-.12012-.89355-.38232-1.50439-.60889-1.95898-.47559-.89355-.86816-1.21387-1.17957-1.35254-.31531-.13037-.56982-.04492-.83032.06055-.26062.10596-.50183.22363-.63977.53223-.14502.30322-.1582.81494-.10718 1.59229.04382.76709.09167 1.82178-.4801 2.48975-.1322.15137-.24365.20801-.35059.23047-.11743.03174-.38367.06494-.85803.00732-.44763-.05176-1.17053-.20654-1.93726-.32471-.77283-.11963-1.63147-.23926-2.62671-.25684-1.07568-.00098-2.47961.06934-3.96582.85352-.72473.38623-1.42786.9624-1.95532 1.63965-.5199.67188-.8689 1.37256-1.14417 2.00732-.23462.56592-.47266 1.14063-.71216 1.71826-.22217.50244-.43909.87891-.74243 1.271-.59412.76953-1.44043 1.38135-2.33752 1.75146-1.79968.77832-3.7865.37891-5.0719-.25439-1.30273-.62695-2.00049-1.35742-2.25098-1.19043-.21899.11963.02722 1.23682 1.34155 2.48877.65796.60352 1.5802 1.21631 2.76282 1.58398 1.17081.37891 2.62845.47608 4.05899.12647z"/><path d="m84.39159 67.20434c-1.08252-.49512-2.20825-1.29199-3.37012-2.16357-1.17456-.87939-2.43433-1.82276-3.83643-2.52344-1.41382-.69775-2.92212-1.14795-4.44629-1.03223-1.46326.11719-2.65625.70605-3.47498 1.40039-.82556.70605-1.2262 1.53809-1.3197 2.11914-.10522.58496.0304.90625.14978.92285.30444.06299.62427-1.08301 2.06201-1.73145.6936-.31983 1.62585-.54102 2.59497-.43409.91162.09326 1.99878.56641 2.99744 1.25098 1.02417.69385 2.02917 1.62598 3.11938 2.62891 1.104 1.00635 2.32117 2.07422 3.81226 2.90186 1.46655.83545 3.32227 1.33643 5.00769 1.19482 1.68799-.09473 3.11365-.68018 4.22681-1.30127 2.01965-1.18506 3.37512-2.69873 4.30627-4.17871.90808-1.46045 1.41028-2.80176 1.75562-3.94873.66821-2.3042.75867-3.84521.78662-4.88525.00525-2.07373-.4989-2.22314-1.04834-2.32275-.55701-.10107-1.06323-.0874-1.78113 1.78711-.37585.92139-.76233 2.33105-1.50354 4.19434-.76343 1.83301-1.86511 4.23096-4.54358 5.82227-.72083.39844-1.58325.76953-2.50928.85547-.92076.11522-1.89683-.05665-2.98546-.55665z"/></g></g></svg>