<svg id="Layer_1" enable-background="new 0 0 136 136" height="512" viewBox="0 0 136 136" width="512" xmlns="http://www.w3.org/2000/svg"><g><g><path d="m115.52021 32.57374c-5.11011.08008-9.58008-3.22998-14.46997-4.68994-9.72998-2.92017-20.09009 1.67993-28.6001 7.23974-8.51001 5.55005-16.6499 12.3501-26.56995 14.53027-3.56995.78979-7.38.91992-10.87-.12012-.67004-.18994-1.33008-.43018-1.96997-.71997-9.43005-4.22998-11.96997-17.56006-7.1001-26.67993.07007-.14014.14014-.27002.21997-.41016 1.19006-2.10986 2.66016-3.98999 4.34009-5.65991 5.63-5.59009 13.6499-8.87012 21.58997-10.32007 12.33997-2.27001 25.30006-.60985 36.81995 4.32008 10.02002 4.28979 18.93005 11.03979 25.38013 19.84009z" fill="#ffb494"/></g><g><path d="m89.84016 28.50367c-.56995.33008-1.12.67993-1.65002 1.06006-6.56995 4.65991-9.97998 12.92993-11.3999 20.95996-.32007 1.78003-.55005 3.56006-.75 5.36011-.75 6.96973-.86011 14.02979-2.3501 20.87988-1.07996 4.93994-2.96997 9.89014-6.60986 13.37988-1.01001.97021-2.18018 1.80005-3.45007 2.44019-3.28003 1.68994-7.18005 2.12988-10.47009.55981-3.85986-1.83984-5.84985-5.63989-6.78992-9.92993-.64001-2.97998-.78003-6.18994-.68005-9.1499.23999-7.25.55005-15.61011-4.86987-20.42017 4.90991-14.97998 21.69995-20.13989 40.47998-23.6499 1.91992-.35986 3.86987-.69995 5.81995-1.03003.9-.15991 1.80991-.30981 2.71995-.45996z" fill="#ffb494"/></g><g><path d="m59.03022 120.01368c-.32007.08008-.63013.12988-.94995.15991-.05005 0-.09009.01001-.14014.01001-2.36987.13013-4.72998-1.19995-6.41992-2.92993-1.95996-2-3.29004-4.51001-5.02002-6.69995-2.47998-3.1499-5.72998-5.59009-9.04004-7.84009-4.20996-2.86011-8.67993-5.5-13.52002-6.98999-.40991-.12988-.83997-.25-1.26001-.35986-.3999-.11011-.33997-.69019.07007-.70996.84998-.04004 1.69995-.06006 2.55005-.06006 1.53003-.02002 3.04993.02002 4.55994.12988 4.28003.30005 8.48999 1.14014 12.45007 2.78003 6.91992 2.88989 12.96997 8.57007 14.88989 15.83008l1.25 4.57007z" fill="#2bb673"/></g><g><path d="m90.93012 94.98365c-.47998.23999-.94995.46997-1.41992.69995-8.29004 4.11011-15.55005 10.27002-20.95996 17.77002-1.36011 1.88013-2.61011 3.86011-4.33008 5.41016-1.43994 1.2998-3.30005 2.27979-5.20996 2.35986-.25.01001-.5.01001-.75-.02002-.12 0-.22998-.01001-.3501-.03003l.12012-.71997.05005-.28003.36987-2.26978.64001-3.83008c2.22009-7.63013 6.88-14.66992 13.51001-19.05005 4.9801-3.30005 11.10999-4.95996 17.02002-4.46997.15002 0 .28992.02002.44006.03003 2.33985.22999 2.96998 3.34986.86988 4.39991z" fill="#2bb673"/></g><g><path d="m88.19013 29.56373c-6.56995 4.65991-9.97998 12.92993-11.3999 20.95996-.32007 1.78003-.55005 3.56006-.75 5.36011-.23999.90991-.44006 1.83984-.62012 2.78979-1.58984 8.71997-1.29993 17.59009-5.23999 25.77002-1.59985 3.32007-3.87988 6.07007-6.54993 8.14014-3.28003 1.68994-7.18005 2.12988-10.47009.55981-3.85986-1.83984-5.84985-5.63989-6.78992-9.92993 3.77002.72998 7.58997.13989 10.37-3.1499 3.95996-4.69019 4.66992-11.90991 6.34009-17.61011 1.50989-5.17993 3.42993-11.3501 6.2699-16.8501 2.63-5.8999 6.45007-11.18994 11.95007-15.60986.12988-.10986.27002-.20996.3999-.32007 1.75-1.36987 3.76001-1.40991 5.42004-.70996.38001.15991.74.36011 1.06995.6001z" fill="#ffa788"/></g><g><path d="m88.9101 10.06373c-.17993.05981-.35986.09985-.54993.12988-13.21008 2.28003-28.02991.12012-39.57996 8.15015-5.44006 3.77002-10.64001 9.18994-12.78003 15.5498-1.68994 5.04004-1.71997 10.42017-.98999 15.64014-.67004-.18994-1.33008-.43018-1.96997-.71997-9.43005-4.22998-11.96997-17.56006-7.1001-26.67993.42004-.63013.86011-1.26025 1.31006-1.88013 1.04004-1.41992 2.12-2.83008 3.25-4.18994 5.63-5.59009 13.6499-8.87012 21.58997-10.32007 12.33997-2.27002 25.30006-.60986 36.81995 4.32007z" fill="#ffbfa9"/></g><g><path d="m57.94013 120.1836c-2.36987.13013-4.72998-1.19995-6.41992-2.92993-1.95996-2-3.29004-4.51001-5.02002-6.69995-2.47998-3.1499-5.72998-5.59009-9.04004-7.84009-4.20996-2.86011-8.67993-5.5-13.52002-6.98999.37012-.46997.83008-.85986 1.36011-1.12988.96997-.52002 2.16992-.66016 3.54993-.20996.33997.10986.68005.21973 1.01001.33984 12.76001 4.37012 23.95007 12.93994 28.07995 25.45996z" fill="#24aa67"/></g><g><path d="m58.03022 120.45362c.07996.25.15991.5.22998.75-.12 0-.22998-.01001-.3501-.03003z" fill="#24aa67"/></g><g><path d="m90.93012 94.98365c-.47998.23999-.94995.46997-1.41992.69995-8.29004 4.11011-15.55005 10.27002-20.95996 17.77002-1.36011 1.88013-2.61011 3.86011-4.33008 5.41016-1.43994 1.2998-3.30005 2.27979-5.20996 2.35986 6.88-13.29004 16.48999-24.81982 30.60999-30.66992.15002 0 .28992.02002.44006.03003 2.33984.22998 2.96997 3.34985.86987 4.3999z" fill="#24aa67"/></g><path d="m114.0801 31.70631c-.65076-.1936-1.58887-.45142-2.92859-1.00195-1.34863-.53857-3.06372-1.40161-5.46008-2.57886-1.20581-.57349-2.59058-1.229-4.28381-1.77368-1.69849-.51611-3.63782-.92114-5.81104-1.04858-4.34387-.21509-9.50989.76123-14.99341 3.1665-2.75122 1.18677-5.58374 2.72217-8.50122 4.56519-6.25659 3.93708-12.68697 9.04973-19.60681 12.21924-1.93787.88135-3.98511 1.64575-6.14624 2.18945-2.15137.57446-4.41638.86157-6.70398.78516-2.49023-.09448-5.13953-.68433-7.38965-2.1499-2.22986-1.479-4.19287-3.74097-5.32141-6.60889l-.42346-1.07739-.32471-1.12939c-.25403-.74658-.32629-1.55151-.49878-2.33643-1.42114-13.57332 8.29961-22.18797 21.3584-26.24316 11.54465-3.56336 26.74984-3.51387 41.53394 2.5188 5.78552 2.36353 10.63086 5.33667 14.41199 8.19287 7.63818 5.70825 10.95715 10.80298 11.29858 10.5105.1134-.08276-.70129-1.32886-2.28625-3.53467-.85303-1.04932-1.92761-2.31738-3.22314-3.74805-1.37769-1.34717-2.8949-2.95239-4.80273-4.46875-3.7267-3.12403-8.59547-6.39332-14.4977-9.04298-14.93487-6.69873-30.91959-7.2589-43.39673-3.6648-14.82329 4.29866-25.88167 14.4165-24.30383 30.01783.18652.94727.28088 1.90479.57117 2.81836.12866.45972.24646.92017.38623 1.3728.16919.44458.33777.88745.50549 1.32813 1.35815 3.52148 3.84106 6.5332 6.8219 8.50293 3.02942 1.97729 6.40796 2.69434 9.42456 2.81177 2.76782.09424 5.4187-.26172 7.85596-.91138 2.44739-.61963 4.72595-1.48071 6.84033-2.45068 4.22961-1.95654 7.80518-4.3103 11.06055-6.50854 3.24792-2.20996 6.17749-4.32568 8.95044-6.11523 2.76038-1.78979 5.40601-3.27148 7.93323-4.41479.79211-.36377 1.56677-.68213 2.33313-.97974-.177.15503-.35071.30371-.53699.47705-2.2926 2.17944-5.30859 6.04443-7.47229 12.57715-1.09961 3.24878-1.88123 7.17969-2.38428 11.65552-.53564 4.4812-.74878 9.55737-1.44263 15.14331-.39709 3.052-.94897 6.52979-2.12427 9.99536-.59949 1.72461-1.35376 3.45068-2.3667 5.03394-.99963 1.58789-2.26831 3.04614-3.76965 4.14746-1.51563 1.11768-3.32544 1.90649-5.18652 2.24487-1.86499.32642-3.77307.13306-5.41931-.64697-1.66113-.80933-3.06592-2.10181-4.04321-3.76611-.98889-1.65283-1.63611-3.55615-2.05603-5.48486-.41919-1.93408-.60986-3.90137-.69409-5.81177-.08374-1.89648-.02026-3.80029-.05066-5.63501-.02795-3.6543-.32446-7.02319-1.10132-9.76221-.35498-1.37451-.8938-2.5647-1.40332-3.5708-.55627-.99072-1.12793-1.7854-1.66174-2.37231-.27673-.28198-.52271-.53247-.73633-.75024-.23584-.1936-.44348-.34692-.61218-.46777-.65988-.46636-.78706-.3991-.29199.29712.12036.15894.26843.35474.44299.58545.15771.24121.33936.51904.5437.83154.39771.62695.81775 1.42944 1.21948 2.3916.3573.9834.7406 2.10767.95557 3.41577.49268 2.59717.55518 5.78687.36853 9.36206-.07605 1.78369-.24646 3.67554-.26294 5.71753-.02934 4.38302.51216 8.96745 2.61963 12.82666 1.13025 2.11963 2.98877 4.03613 5.2616 5.21777 1.59277.82617 3.37 1.23071 5.13245 1.28662-.34045 2.06372-.60742 5.64917-.94482 11.88843-.02722.50342-.0542 1.04517-.08081 1.61572-.26172-.65137-.58728-1.35986-.99927-2.11841-1.8717-3.50708-5.76941-7.76855-11.3009-10.53027-5.50586-2.80249-12.26172-3.96704-18.48218-4.00366-.77966-.00854-1.55359-.00708-2.3175.01367l-.57202.01318-.04883.00171-.19836.02002c-.12842.01611-.26294.04468-.40918.09424-.27515.08716-.56885.2522-.80066.46362-.47791.43066-.71729 1.00537-.75049 1.55176-.03723.54785.12842 1.14648.53137 1.62524.19788.23682.44531.42725.69849.55786.24072.12891.56592.20825.51929.19702l.4917.14624c1.30664.39087 2.56042.86426 3.75085 1.38232 2.38123 1.03833 4.50891 2.24268 6.34582 3.36035 3.34021 2.07568 6.25513 4.07178 8.49854 5.95166 1.12842.94849 2.10767 1.88379 2.9364 2.80981.83081.9165 1.51501 1.83936 2.18005 2.76636 1.30713 1.84766 2.55225 3.54614 3.87854 4.78027 1.35852 1.26636 2.69373 2.00684 3.85486 2.41577.66492.24072 1.26233.35864 1.79456.41382-.01514.63574-.02954 1.26538-.04248 1.87988-.10132 5.24487-.09583 9.5249.46594 9.59155.55493.06616 1.56323-4.11499 2.4021-9.33252.06653-.40918.12952-.83374.1936-1.25415.29016.06128.64636.1001 1.10083.08862.73779-.02271 1.71313-.19995 2.85767-.71924 1.13757-.50562 2.46301-1.41797 3.71558-2.74268 1.27881-1.3103 2.45898-3.04053 3.85425-4.8291 2.82471-3.59448 6.91321-8.21777 13.56714-12.75195 1.82422-1.23315 3.97095-2.54321 6.40161-3.77856.31567-.15942.63416-.32031.95544-.48242l.24146-.12231.12109-.06128.20093-.11572c.27856-.15918.54749-.34155.79724-.58081 1.03955-.90723 1.53027-2.43652 1.29871-3.75-.18787-1.32642-1.06848-2.59497-2.35803-3.20947-.3147-.13672-.65076-.27124-.97742-.3252l-.49622-.08154-.31714-.021c-.41614-.02075-.83337-.06396-1.25281-.06177-6.72888-.2063-13.67761 2.35449-18.56921 6.40991-2.47095 1.98804-4.45569 4.26831-6.01294 6.47754-1.54053 2.22729-2.65503 4.39087-3.42944 6.26074-.06628.16187-.12708.3186-.18884.47583.19135-3.35806.44481-9.3159.00867-12.6709 2.19092-.44434 4.25122-1.31543 6.03564-2.56006 4.0459-2.85156 6.3313-7.06201 7.72668-10.91602.69421-1.94824 1.19336-3.86133 1.55664-5.67212.3783-1.80981.64368-3.53174.84387-5.13208.7229-5.84961.90112-10.89136 1.36926-15.22729.43726-4.34424 1.08459-7.95142 1.9978-10.96216 1.80139-6.04272 4.22241-9.55859 5.9895-11.72852.90576-1.07788 1.65247-1.8584 2.24219-2.43311.29541-.28735.53906-.5415.7417-.76318.21521-.20264.38477-.37915.51709-.53418.10889-.12769.17773-.23193.24023-.33276 2.05481-.44385 3.97473-.64771 5.71826-.6272 1.87915.04468 3.55127.32129 5.03674.68774 1.47754.39233 2.80603.92017 4.01392 1.396 2.40881.98047 4.36438 1.7334 5.92188 2.11011 1.55627.39355 2.69238.4502 3.45215.40991 1.52808-.11084 1.61365-.44482 1.61218-.70483.00096-.29931-.13295-.51123-1.43874-.87085zm-58.74451 86.51954c-.76428-.43262-1.68274-1.10962-2.60718-2.14502-.95996-1.07178-1.92896-2.56323-3.19556-4.53833-.63574-.97607-1.39661-2.0918-2.3446-3.20215-.93701-1.1106-2.0354-2.20654-3.27209-3.2832-2.50037-2.16089-5.44788-4.20386-8.9718-6.39746-1.09204-.66431-2.30981-1.35522-3.62744-2.02979 4.03955.34131 8.03296 1.18188 11.52563 2.68994 5.16479 2.18481 9.04272 5.75635 11.18188 8.76855 1.05823 1.46313 1.75659 2.75488 2.23706 3.69434-.08374 2.11816-.16089 4.45703-.22607 6.79858-.21924-.10205-.44848-.21508-.69983-.35546zm6.77271-9.76929c.95593-1.68701 2.21082-3.62231 3.81787-5.57837 1.62329-1.93848 3.59827-3.90308 5.94568-5.5647 4.62415-3.38403 10.88879-5.32324 16.66956-4.95044 1.96338.13232 1.52429.16772 1.70728.51733.00513.16113-.03088.21826-.10266.26245-.0116.01855-.04688.03296-.08459.05176-.01196.00708-.00696.00903-.03174.02295l-.12146.05811-.24219.11597c-.32214.15454-.64148.30786-.95801.45972-2.62085 1.2688-4.95374 2.65625-6.90906 3.97876-7.14453 4.86865-11.45203 9.92065-14.29968 13.88965-1.43384 2.02466-2.40759 3.65845-3.37048 4.82813-.94592 1.18774-1.79675 1.92749-2.56592 2.45215-.99841.66504-1.74597.96606-2.28845 1.16406.37561-2.71362.69116-5.4978.91919-7.99463.4641-.96315 1.07933-2.22633 1.91466-3.7129z" fill="#202020"/></g></svg>