<svg id="Layer_1" enable-background="new 0 0 136 136" height="512" viewBox="0 0 136 136" width="512" xmlns="http://www.w3.org/2000/svg"><g><g><path d="m63.24797 129.79376.78998.8999c-.31995-.25-.58997-.55004-.78998-.8999z" fill="#8dc63f"/></g><g><path d="m64.03795 130.69366c.10004.08008.21002.15991.32001.22998 0 .05005 0 .1001.01001.1499z" fill="#8dc63f"/></g><g><path d="m78.67796 113.67364c-.64001 1.47998-1.64996 2.80005-2.31 4.27002-.96002 2.16992-1.17999 4.56006-1.14996 6.88989.02997 2.30005.75 4.24-1.25 5.94019-.64001.53979-1.52002.67993-2.35004.80981-.89001.13013-1.81.26001-2.71997.30005-1.39001.07007-2.77002-.05005-4-.6499-.19-.09009-.37-.18994-.54004-.31006-.34998-3.68995.23999-7.37989-.13-11.07008-.13995-1.3999-.33997-2.90991-1.35999-3.91992-.63-.62012-1.51001-.95996-2.29999-1.38013-4.34003-2.31006-6.42999-7.90991-4.60999-12.34985l5.75.13989 15.62.38013c2.50001 2.66993 2.76002 7.61988 1.34998 10.94996z" fill="#8dc63f"/></g><g><path d="m63.24797 129.79376.78998.8999c-.31995-.25-.58997-.55004-.78998-.8999z" fill="#baed58"/></g><g><path d="m64.03795 130.69366c.10004.08008.21002.15991.32001.22998 0 .05005 0 .1001.01001.1499z" fill="#baed58"/></g><g><path d="m68.89799 131.88361c-1.39001.07007-2.77002-.05005-4-.6499-.19-.09009-.37-.18994-.54004-.31006-.34998-3.68995.23999-7.37989-.13-11.07008-.13995-1.3999-.33997-2.90991-1.35999-3.91992-.63-.62012-1.51001-.95996-2.29999-1.38013-4.34003-2.31006-6.42999-7.90991-4.60999-12.34985l5.75.13989c.73999 5.41016 5.44995 9.13013 7.13 14.59009 1.49001 4.84985 1.21999 10.04004.06001 14.94996z" fill="#baed58"/></g><g><path d="m40.48796 71.84356c-3.44 7.91992-3.12 17.33008.71002 25.12012.57001 1.13989-.53003 2.40991-1.78003 2.06982-3.51996-.95996-6.81-2.70996-9.63-5.02002-3.98999-3.25977-7.01996-7.65991-8.37-12.56982-2.58997-9.45996 1.20001-20.22998 9.17004-26.07007 1.29999-.94995 2.69995-1.76001 4.16998-2.42993 4.90997-2.22998 10.58002-2.88013 15.91998-1.88013l.01001.01001c2.81.52002 5.52002 1.5 7.98999 2.9502h.01001c.03003.02002.07001.03979.09998.05981l.34003.01001h.01001l2.67999.09009h.02003l.66998.02002c-9.66998 1.95996-18.16003 8.75-22.02002 17.63989z" fill="#6ed9ff"/></g><g><path d="m109.55797 87.01348c-1.52997 1.8501-3.32001 3.47021-5.27997 4.8501-1.92004 1.36011-4 2.47998-6.17004 3.37988-1.38995.58008-2.73999-.83984-2.15997-2.22998 2.72998-6.56982 3.12-14.13989.53998-20.75-2.53998-6.5-8.09998-11.83984-14.70001-13.95996-1.35999-.43994-2.77997-.75-4.21997-.88989l.45001-.86011c9.26996-3.04004 19.75-2.15991 28.38 2.39014 2.44995 1.29004 4.82001 2.91992 6.33997 5.23999 1.12 1.69995 1.73004 3.68994 2.02002 5.69995.85998 6.08008-1.28004 12.3999-5.20002 17.12988z" fill="#6ed9ff"/></g><g><path d="m74.75622 42.58143c-1.62138 3.50166-3.02966 7.40659-2.10095 11.15189l-6.2039-.03048c.66987-3.69196-.12177-7.62737-2.17706-10.77128-1.65182-2.53471-4.11819-4.65853-4.87178-7.58927-.10658-.41852-.17506-.83741-.20549-1.26355-.17511-2.04.44909-4.13333 1.30927-6.02113 1.28645-2.80902 3.31126-5.49612 6.2191-6.51603 2.86979-.99723 6.21915-.12191 8.44187 1.94094.0761.06857.14463.13715.21312.20554 2.07814 2.06286 3.12099 5.0698 3.02203 8.00054-.12184 3.85923-2.02487 7.39136-3.64621 10.89283z" fill="#6ed9ff"/></g><g><path d="m103.14799 37.39361c-.40002 6.65991-4.66003 12.40015-8.75 17.69995l-2.87.08008-13.73004.3999c6.69-5.96997 12-16.97998 12.76001-25.88989.72998-8.53003-1.78998-17.29004-6.90997-24.17993-.14001-.19019.07996-.44019.28998-.32007 5.53998 3.37988 10.21997 8.11987 13.60999 13.62988 2.20001 3.58008 3.85004 7.48999 4.84003 11.57007.54998 2.29004.90997 4.6499.76 7.01001z" fill="#6ed9ff"/></g><g><path d="m88.22795 83.75372c-.25995.96997-.54999 1.91992-.88995 2.85986-2.29004 6.5-6.45001 13.52002-12.99005 16.44995-3.73999 1.67993-7 1.5-10.91998.30005-.62-.18994-1.23999-.3999-1.84998-.63989-3.29999-1.29004-6.33002-3.27002-8.77002-5.84009-3.27997-3.47998-5.41998-8.04004-5.96997-12.80005-.59003-5.05005.92999-9.82007 3.04999-14.35986 2.75-5.86011 7.19-11.07007 13.13-13.8501 1.85999-.86987 2.57996-2.59985 4.94-2.93994 2.08997-.30005 4.26996.30981 6.19 1.11011 1.75995.73975 3.42999 2.09985 4.96997 3.69971 1.97998 2.06006 3.72998 4.5 5.10999 6.49023 4.20001 6.06982 5.92004 12.31982 4 19.52002z" fill="#3ad6ef"/></g><g><path d="m75.38038 23.68807c-5.20667-.41109-9.77396 2.66425-11.34967 7.91673-.71554 2.39013-2.97632 3.03723-4.83368 2.47394-.17511-2.04.44909-4.13333 1.30927-6.02113 1.28645-2.80902 3.31126-5.49612 6.2191-6.51603 2.86979-.99723 6.21915-.12191 8.44187 1.94094.07609.06859.14462.13716.21311.20555z" fill="#9ae6f7"/></g><g><path d="m32.9234 58.58393c-.80906 1.02507-1.71544 1.98501-2.4088 2.90307-3.77756 5.0018-4.02986 11.96624-2.27825 17.98455 1.16625 4.00709 3.15804 8.00122 2.57341 12.13342-.57872 4.09035-4.34697-.76005-5.28329-1.98438-1.86306-2.43613-3.29751-5.21468-4.10852-8.17695-2.58996-9.45996 1.20002-20.22998 9.17005-26.07006 1.29999-.94995 2.69995-1.76001 4.16998-2.42993.547 2.12096-.51419 3.96736-1.83458 5.64028z" fill="#9ae6f7"/></g><g><path d="m88.22795 83.75372c-.25995.96997-.54999 1.91992-.88995 2.85986-2.29004 6.5-6.45001 13.52002-12.99005 16.44995-3.73999 1.67993-7 1.5-10.91998.30005-.62-.18994-1.23999-.3999-1.84998-.63989 8.70996-.15015 14.56-8.5 17.56-15.88013 3.09998-7.60986 2.92999-15.68994-2.03003-22.42993-2.06-2.81006-.47998-5.55005 2.01001-6.67017 1.97998 2.06006 3.72998 4.5 5.10999 6.49023 4.2 6.06983 5.92003 12.31983 3.99999 19.52003z" fill="#1dc4d6"/></g><g><path d="m104.278 91.86358c-1.92004 1.36011-4 2.47998-6.17004 3.37988-1.38995.58008-2.73999-.83984-2.15997-2.22998 2.72998-6.56982 3.12-14.13989.53998-20.75-2.53998-6.5-8.09998-11.83984-14.70001-13.95996 1.36005-1.90991 3.91003-3.11987 6.62-1.90991 12.43004 5.58008 16.62999 22.41992 15.87004 35.46997z" fill="#4ad0f4"/></g><g><path d="m103.14799 37.39361c-.40002 6.65991-4.66003 12.40015-8.75 17.69995l-2.87.08008c-.66003-1.28003-.72003-2.87012.25-4.5 5.81-9.73999 7.81-20.87012 5.76996-31.86011 2.20001 3.58008 3.85004 7.48999 4.84003 11.57007.54999 2.29004.90998 4.6499.76001 7.01001z" fill="#4ad0f4"/></g><g><path d="m61.82799 54.18365h-.01001c-.85999.09009-1.78003.04004-2.51001-.06006-.06-.01001-.12-.02002-.17999-.03003-.15002-.02002-.29999-.04004-.45001-.06982-1.63-.27002-3.23999-.72998-4.77002-1.3501-1.10999-.43994-2.18994-.97998-3.21997-1.6001-1.77002-1.04004-3.40002-2.33008-4.83002-3.81006-.32001-.33984-.63-.67993-.92999-1.02979-5.45001-6.41016-7.22998-15.80005-5.09998-24.08008 1.70996-6.6499 5.78998-12.51001 11.08997-16.67993 1.06-.84009 2.45001-.17993 2.73999.96997.09003.29004.09003.61987 0 .95996-1.68994 6.16992-2.90997 12.47998-2.63995 18.8501.33997 7.98975 3.34998 16.18994 9.45996 21.04004 1.34003 1.06982 2.89001 2.05981 3.59003 3.65991.96996 2.22999-.50001 3.03004-2.24 3.22999z" fill="#6ed9ff"/></g><g><path d="m45.87798 44.20367c.35999 1.15991.32001 2.18994-.02002 3.05981-.32001-.33984-.63-.67993-.92999-1.02979-5.45001-6.41016-7.22998-15.80005-5.09998-24.08008 1.70996-6.6499 5.78998-12.51001 11.08997-16.67993 1.06-.84009 2.45001-.17993 2.73999.96997-9.12995 10.3899-12.01996 24.27003-7.77997 37.76002z" fill="#9ae6f7"/></g><g><path d="m63.66919 18.09753c2.30643-1.2831 1.69909-4.97671-.21973-6.78896-1.81686-1.71593-5.4237-1.96587-6.04982.98296-.62803 2.95778 3.07865 7.58107 6.26955 5.806z" fill="#e6e7e8"/></g><g><g><path d="m74.10249 10.4703c-.66957-.56742-1.65964-.64566-2.49154-.36594-1.28457.43192-2.24556 1.6931-2.32114 3.04623-.15858 2.83891 2.62241 3.6307 4.51093 1.76499 1.05033-1.03769 1.58633-3.35669.30175-4.44528z" fill="#e6e7e8"/></g><path d="m98.44183 53.97321c-.5246-.11548-1.01672-.19458-1.51837-.28394.55261-.56738 1.22815-1.32861 2.06244-2.37231 6.74667-8.56667 7.12361-15.01635 4.7901-23.43237-1.22003-4.08569-3.20264-8.60596-6.47662-13.08032-1.79211-2.44531-4.1286-5.03809-6.99292-7.4541-1.44977-1.18408-2.99695-2.36694-4.70343-3.40112l-.63416-.39966-.15942-.09009c-.11908-.06128-.24219-.11353-.39221-.15625-.28046-.08423-.61694-.1084-.92664-.05835-.63324.10278-1.12152.4541-1.43622.90454-.31671.44336-.47278 1.09009-.32965 1.69897.06824.30127.19745.56396.34894.77588.21939.30221.60791.8374.87769 1.20874.51489.7605 1.02173 1.53833 1.48895 2.35034 6.53883 11.15413 5.48769 22.07281 1.28198 31.90918-1.29279 2.97729-2.7157 5.55518-4.0365 7.63818-1.79565 2.85303-3.41058 4.75684-4.18939 5.75732-.28693-.24683-.57703-.49316-.88196-.73657-.74597-.59302-1.51849-1.1731-2.396-1.7356-.21777-.13892-.44507-.27759-.68256-.41138.09558-.53516.1781-1.33252.44104-2.54834.34979-1.64429 1.15747-3.99292 3.01166-7.55078 3.44206-7.0004 6.04575-14.66994-.34711-20.54566-1.01691-.92041-2.25049-1.67749-3.64258-2.1709-.26709-.09448-.54535-.17017-.82385-.24487.47845-1.21958.48514-1.30439.61646-1.75586.64587-.18774 1.21338-.45581 1.64752-.7854.4588-.32959.81616-.66992 1.16211-1.11841.61163-.83813.84039-1.59595.96307-2.27881.22784-1.36377-.15253-2.44189-.61584-3.01245-.47662-.58228-.93518-.66577-1.20721-.60547-.28418.06323-.45508.27026-.63855.48291-.38898.41724-.57312.90576-.77979 1.30566-.11841.20557-.18945.45435-.40424.94043-.10559.229-.27496.52417-.44995.69678-.05298.04712-.20184.17822-.3421.2627-.13593.10596-.28046.13916-.40155.18726-.1358.04102-.24487.04175-.28949.04663-.0423-.00317-.07825.05518-.20087-.06641-.02252-.03857-.04755-.08398-.08276-.13062-.01624-.06641-.04572-.12793-.0722-.20093-.02612-.18042-.07886-.33838-.07416-.48364-.01111-.31396.08099-.68408.25464-1.01318.34821-.67236.98431-1.10278 1.57739-1.25562.57825-.17676 1.07288-.07886 1.26508-.28906.19312-.17456-.03723-.875-1.04688-1.28101-1.31332-.50912-2.86176-.06612-3.93115.8938-.63.56128-1.15875 1.33374-1.42682 2.2644-.06647.23193-.11432.47461-.14685.71875l-.0437.69238c.00635.24121.0318.49146.05811.73657.05145.25439.11218.51123.19403.76367.198.59399.59125 1.14648 1.07178 1.59595-.01886.05713-.03925.10596-.05762.16577-.17761.56738-.25482 1.37964-.19257 2.20142-.04333.00391-.08563.00098-.12903.00562-.625.0647-1.24884.2168-1.8609.41211-.00275-.00562-.00409-.00952-.00684-.01514-.27002-.61011-.78998-1.36987-1.40997-2.02002.13995-.12988.27997-.28979.39996-.47998.83002-1.18994.98999-3.25.15002-5.15991-.40002-.95996-1.12-1.9502-2.13-2.66016-1-.66992-2.15002-1.10986-3.45001-1.12988-1.25-.07007-2.81.47998-3.71002 1.6001-.89996 1.10986-1.12994 2.27979-1.12994 3.27979.06 1.77002.66998 2.97998 1.29999 3.94019.64001.95996 1.38 1.63989 2.13 2.12988 1.38.94995 2.82001 1.05005 3.69995.83008.14001.52002.29004 1 .44 1.34985.05005.13013.10004.25.16003.36011.00037.00098.00079.00146.00116.00244-3.83372 3.34872-6.93119 10.74173-4.25964 15.75318.68732 1.32739 1.55371 2.3877 2.35895 3.33228.8103.94727 1.57739 1.79272 2.1994 2.63306 1.24829 1.6604 1.97943 3.44824 2.40301 5.00049.39514 1.50439.52222 2.76758.58521 3.68994-.45642.12671-.91895.26758-1.37256.41772-.03729-.44946-.20245-.80908-.30182-1.03833-.20422-.36279-.34601-.52393-.40906-.49683-.0658.02783-.05176.24829.01172.62085.01819.30518.08313.72705-.07068 1.16846-.01959.00684-.03821.01196-.05786.01904-.69775.25146-1.40435.5708-2.10345.92334-.95142-.02466-2.06213-.21143-3.27014-.51904-.52472-.13379-1.08002-.29956-1.64099-.47437-.0462-.02686-.08655-.052-.13452-.07935-1.06323-.6272-2.60425-1.31445-4.55756-1.88623-.61346-.35278-1.22681-.73828-1.82611-1.15674-2.75049-1.91406-5.26398-4.67676-6.9939-8.09082-5.81187-11.33654-2.1032-25.3561 7.17987-33.12671l.48987-.42773.24628-.20825.12506-.10107c.02338-.01855.00482-.00317.00922-.00635-.00909.01221.0105.00537.00958.0144-.01849.05786-.10254.36475-.40997 1.56763-2.97698 11.78882-3.549 24.62471 3.69385 34.39746 1.42511 1.93311 2.86176 3.27246 4.09644 4.22412 1.25745.98267 2.20929 1.46899 2.83185 1.90771.63623.42114 1.01685.72217 1.30365.93359.55884.43018.80005.42383 1.06781.30005.23859-.10767.52911-.27441.2514-1.17896-.1463-.44409-.48413-1.05737-1.10839-1.75488-.61029-.71313-1.53314-1.43237-2.45953-2.38306-.95978-.95728-2.08258-2.21533-3.20776-3.97241-3.24535-5.04044-4.64309-11.31639-4.56848-17.33765.02869-4.1145.70782-8.82935 2.04913-14.14429.09332-.36426.18829-.73486.28491-1.11182.03766-.20142.36676-1.19043.43005-1.92627.11908-1.51636-.76068-3.00366-2.13232-3.6814-.68713-.3269-1.48431-.4624-2.26025-.33203-.38763.07617-.76306.21411-1.13007.39258-.05583.10013-22.41316 16.40955-9.32556 39.32446 1.55713 2.76001 3.60284 5.09155 5.8291 6.89355-1.9859-.13257-4.16431-.06128-6.46417.31348-9.82567 1.72023-16.83554 8.17596-19.87592 16.82788-1.66089 4.68164-2.04236 9.97656-.76306 14.88989 2.19712 8.66185 8.93505 15.29015 17.21344 18.55103.23907.09814.4823.18042.72754.25317.44318.1377.88354.27441 1.32104.41016.76898.20337 1.40765.1499 2.04657-.05005.63666-.1897 1.18872-.59619 1.61908-1.07935.40936-.50317.7038-1.10181.78839-1.7229.0954-.61621.04938-1.21362-.22949-1.87744-.24933-.55615-.4967-1.10791-.74225-1.65576-.13611-.3457-.27112-.68872-.40515-1.02905-5.20097-13.86596 1.18629-28.68802 12.57214-35.36987 1.17926-.64087 2.13989-1.11206 2.93127-1.47119-14.97706 13.52737-15.67338 31.3598-6.65167 41.50537.80066.91772 1.72949 1.75342 2.53644 2.45508.73907.64526 1.49493 1.26025 2.26575 1.84302-.29553.1355-.80756.82031-1.17932 2.0437-.44562 1.44409-.56628 3.66748.21918 5.9502.73853 2.27441 2.43927 4.59155 4.74664 5.92944.53528.31177.96295.54248 1.23029.74463.27606.20898.34766.31689.46167.51147.21722.37231.3634 1.05176.44702 1.74023.31891 2.62378.20807 4.76831.2796 6.44629.04773 1.67725.19769 2.86353.41278 3.64917.43774 1.57959.99304 1.57715 1.539 1.52417.04895-.00464.09588-.01147.14312-.01782.16199.17847.35748.36182.59869.5459.50006.36816 1.18536.74414 2.07843.98853 1.59905.44011 3.30833.35132 4.96033.15991.6059-.08813 1.31067-.10205 2.38007-.47754.26306-.09961.54431-.22925.82916-.40576.28198-.16846.59338-.43066.7561-.5957.39691-.35645.78741-.83984 1.10559-1.39624.67328-1.15039.77533-2.54907.72137-3.58569-.02411-.58569-.0824-1.13403-.11865-1.64966-.03693-.48828-.04883-1.04663-.04926-1.62866.00037-1.15063.07593-2.35327.32086-3.51563.4328-2.19376 1.50182-3.51224 2.2832-5.53101.28339-.75269.49292-1.52417.60388-2.26514.47443-2.97461-.1355-5.64722-1.02924-7.34253-1.44448-2.73416-2.21639-1.00375.30035-3.09937 4.23114-3.57788 6.62665-7.68042 8.24353-11.26563 4.34758-9.86373 2.68655-17.77677-1.04901-22.41309-.65344-.73315-.91852-.66235-1.16663-.53027-.24817.13208-.44995.32544-.25146 1.23877.15399.92163.81958 2.55933 1.466 5.73462 2.60378 13.81786-11.49281 31.86453-24.10638 27.92944-1.42004-.45801-2.9472-1.33276-4.48303-2.45264-14.7127-10.71668-11.46466-28.48949 1.22717-40.76221 1.65472-1.57617 3.38269-2.77295 5.35821-3.56006 2.00537-.79077 4.02747-1.54419 5.63263-1.28857 1.62799.24976 3.29376 1.42603 4.75555 2.4104 1.46429 1.02539 2.74487 2.10596 3.85736 3.15601 2.21722 2.11011 3.77002 4.09497 4.81738 5.47363 1.04425 1.3877 1.59528 2.19141 1.72656 2.12061.11652-.06152-.19336-.99902-1.03577-2.56372-.83875-1.53906-2.19562-3.69482-4.29785-6.05029.24335.08325.49652.17236.76434.27197 2.28979.84644 5.45691 2.48315 8.40607 5.40454 11.73935 11.62208 5.21598 26.64806 5.21393 26.82959l-.45911 1.16162c-.56604 1.3103-.24738 2.80249.66339 3.7854.89606.99756 2.37628 1.42358 3.70892.9873 9.12936-3.08636 17.84408-12.28161 18.15155-23.53906.23629-8.93033-3.98487-16.00041-18.5234-19.36787zm-36.74249 51.85669c10.2986 3.21302 15.47672-5.07141 16.33618-.91577.3363 1.56885.40839 3.88843-.2934 6.15479-.56076 1.96219-1.84168 3.28069-2.83447 5.24585-.82598 1.65443-1.42418 3.72595-1.55334 6.60156-.02863.66577-.03839 1.31055-.0069 1.96265.0332.55762.0647 1.08643.09412 1.57959.03033.79297-.0448 1.19019-.19836 1.4624-.08582.146-.17767.29688-.34583.45044-.10327.10718-.08008.08618-.11078.11182-.02588.02002-.07153.0481-.13898.07837-.26514.12769-.89294.23755-1.49658.34644-.58191.10596-1.09784.19287-1.56079.25513-1.85455.25977-2.82758.07495-3.53326-.08472-.27942-.06885-.49115-.12646-.67627-.17456.11877-.69116.23444-1.6084.35614-2.88281.12555-1.63525.38599-3.91064.00903-7.07983-.13177-.87793-.28589-2.05859-1.12433-3.37036-.40814-.64331-1.08728-1.2627-1.6947-1.61816-.61133-.37231-1.1615-.59595-1.58801-.79761-1.57208-.71484-2.99323-2.12329-3.86652-3.74512-.90186-1.6106-1.23047-3.34692-1.29816-4.62524-.05609-.93701-.01227-1.64868-.0921-2.01172 1.74793 1.28684 3.59754 2.39743 5.61731 3.05686zm-8.27587-50.20386c-1.62781.72266-3.60834 1.7854-5.75824 3.52979-9.1114 7.34023-14.57895 21.87132-9.34912 35.85376.1535.39014.30829.78369.46423 1.17993l.24194.54028s.00531.00366 0 .00732c-.01422-.00391.07562.02393-.02454-.0061-.20898-.05933-.4165-.12744-.62061-.21118-8.31584-3.24714-13.29968-9.36018-15.06043-15.68628-1.18701-4.13232-1.00464-8.73926.32733-12.90747 2.45117-7.75795 8.39394-13.66835 17.2038-15.72949 3.22729-.71289 6.27142-.79395 8.84161-.51709 1.46301.86182 2.90161 1.55103 4.38995 2.01611 1.03101.3208 2.0047.55444 2.95221.75244-.95262.2102-2.13145.57056-3.60813 1.17798zm8.9107-38.5813c-.27583-.1699-.67696-.28199-1.35999-.93018-.32001-.2998-.69-.70996-1.01001-1.27002-.32001-.52979-.58002-1.26001-.59003-1.83008-.00995-.25977.08002-.58984.16003-.72998.07001-.11987.21002-.2998.70001-.35986.44995-.08008 1.07001.04004 1.59998.27002.5.21997.97003.60986 1.35999 1.13989.78003 1.05005 1.07 2.32007.94 3.14014-.01001.07007-.01996.13989-.03998.20996-.14001.71997-.55999 1.16992-.41998 1.40991-.14001-.23999-.29004-.46997-.51001-.63989-.22002-.17017-.51-.28003-.83001-.40991zm5.12677 34.72998c-.08081.01855-.15515.04297-.23505.06226.15894-.93896.24011-2.19238.06824-3.74854-.21747-1.76831-.80334-3.89185-2.06549-5.96582-.23707-.39633-10.13574-11.02412.80487-18.06299.88812-.58691 1.82288-.88428 2.77838-.95923.96167-.07007 1.94086.10156 2.8183.43604 7.62781 2.85204 4.50562 11.53798 1.966 17.36475-1.73376 3.75903-2.47516 6.77808-2.48187 8.84131-.01031.79199.0509 1.43457.14764 1.95508-.05609-.01318-.10706-.0332-.164-.04517-1.2276-.25049-2.49579-.12818-3.63702.12231zm15.52038-1.13062c8.96569-11.68692 12.04661-25.05111 6.45123-38.6748 1.80115 1.74951 3.33307 3.53857 4.58087 5.24072 2.97095 4.0603 4.78461 8.1394 5.93854 11.8125 2.60465 8.57498 1.22888 12.93493-3.33496 20.65698-1.04639 1.74487-1.71692 2.88452-2.0896 3.65674-1.74957-.19678-3.3537-.26611-4.76776-.24243-2.41113.05493-4.34406.30005-5.87189.62915-3.05872.65112-4.54327 1.35034-5.26495 1.81885-.27905.18164-.44415.33301-.53882.46655-.06165-.05591-.12097-.11157-.18353-.16724 1.06244-.76464 2.96521-2.46679 5.08087-5.19702zm18.61005 40.76123c-.90614.57135-4.2827 2.65132-3.76111 1.54175l.01508-.05005.09766-.26782.19257-.53662.34235-1.08667c.59218-2.09169 1.05762-4.23174 1.21002-6.65991.58978-8.22207-2.27718-16.21078-8.63513-21.70874-3.41321-2.94336-6.96136-4.37939-9.46625-4.93921-.81659-.18311-1.51068-.28711-2.0946-.34644-.09644-.0979-.19971-.19629-.29877-.29468.84772-.01294 2.34491-.24316 5.1015-.48315 1.43628-.13013 3.22522-.19263 5.42578-.10303 2.198.10278 4.82147.38501 7.84705 1.15186 9.12553 2.39685 15.60744 6.27958 15.32758 15.58105-.16768 6.51466-3.87441 13.56743-11.30373 18.20166z" fill="#202020"/></g></g></svg>