<svg id="Layer_1" enable-background="new 0 0 136 136" height="512" viewBox="0 0 136 136" width="512" xmlns="http://www.w3.org/2000/svg"><g><g><path d="m74.6472 85.60159c-3.02699 8.01492-3.27126 20.26077-2.14279 29.02734.35997 2.79646.68132 5.62499 1.15127 8.39581.24181 1.42573 1.27293 3.88361.91788 5.33907-.94676 3.88109-7.53159 3.3737-9.49825 1.37418-1.38226-1.40538-1.94428-3.75758-2.04663-5.9966-.12491-2.73257.31869-5.44771.58339-8.1643 1.08859-11.17226-.94588-22.7913-5.66238-32.33839" fill="#2bb673"/></g><g><path d="m123.99264 67.47822c-.28003.43018-1.62988 1.69995-2.30005 2.52002 1.63013 2.46997 3.23999 5.68994 3.32007 8.76001.03003.69995-.03003 1.40015-.18994 2.07007-.88013 3.70996-1.37012 7.94995-3.81006 11.01001-1.13 1.42993-1.47998 1.97998-3.51001 1.61987-1.45996-.26001-2.83997-1.06982-3.91992-2.1001-1.88013-1.80981-3.08008-4.21973-4.55005-6.3999-6.77002-10-18.83008-14.3501-30.08008-18.1001-1.98999-.65991-4.12988-1.08984-6.36987-1.31982-8.34009-.86011-17.94007 1.04004-25.19007 3.78003-9.68006 3.66992-18.26001 10.03979-25.60999 17.51001-.42993.43994-.88.88989-1.3501 1.2998-.75.65015-1.55994 1.18018-2.50989 1.36011-1.70007.31006-3.41003-.59009-4.69006-1.79004-1.41992-1.32007-2.47998-3.03003-3.08997-4.8999v-.01001c-.68005-2.06006-.81995-4.30005-.32996-6.41016.06995-.2998.1499-.58984.23999-.87988 0-.01001 0-.01001 0-.01001.71997-2.26001 2.13989-4.25 3.96997-5.68994l-1.14001.59009c-2.20996-3.76025-4.34998-8.01025-3.65002-12.3501.54004-3.32007 3.61011-6.27002 6.63013-6.3999l-1.76001-.47998c-1.53003-4.24023-.42017-9.36011 2.70996-12.53027 2.76001-2.78979 6.93994-3.93994 10.67993-3.03979l-2.07996-.67017c-.40002-5.77002 1.72998-11.66992 5.68005-15.77979 3.94995-4.1001 9.65991-6.33008 15.25-5.9602l-1.43005-1.35986c4.42004-6.21997 14.85999-6.21021 19.2699.02002l.44006-2.83008c3.09998-3.36011 7.88-4.96997 12.30994-4.15991 4.30005.79004 7.08008 1.84985 8.87012 5.79981.06995.12012.12988.25.17993.38013l1.36011 1c4.86987-.53003 10.07996.53003 13.81995 3.80005 3.73999 3.26001 5.63 8.97998 3.71997 13.63989l3.59998-1.79004c.80005-.3999 5.34009 3.53003 6.05005 4.12012 1.94995 1.63989 3.59998 3.61987 5.02002 5.73999 3.27002 4.88989 6.56995 11.8501 7.22998 17.80005.30005 2.80005-.04004 5.70996-.96997 8.36987-.45996 1.33006-1.07007 2.60008-1.82007 3.77z" fill="#1c75bc"/></g><g><path d="m54.10456 66.23941c-1.94087 5.64518.45393 14.82088 5.16564 18.75136 1.60512 1.33897 3.55663 2.39381 5.68591 2.61583 2.89774.30215 5.76522-.97664 7.98384-2.76167 6.17968-4.97193 7.86099-14.25217 3.78276-20.87951" fill="#58595b"/></g><g><path d="m85.8027 10.64814c-7.40002-.15991-14.90002.28003-21.75 3.06006-9.08008 3.68994-17.29004 11.87012-24.18006 18.66016-14.47998 14.2998-22.44995 33.60986-19.43005 54.08984.09009.59009.08008 1.1499-.01001 1.66992-.75.65015-1.55994 1.18018-2.50989 1.36011-1.70007.31006-3.41003-.59009-4.69006-1.79004-1.41992-1.32007-2.47998-3.03003-3.08997-4.8999v-.01001c-.15002-2.44995-.18005-4.87988-.08997-7.29004 0-.01001 0-.01001 0-.01001.71997-2.26001 2.13989-4.25 3.96997-5.68994l-1.14001.59009c-2.20996-3.76025-4.34998-8.01025-3.65002-12.3501.54004-3.32007 3.61011-6.27002 6.63013-6.3999l-1.76001-.47998c-1.53003-4.24023-.42017-9.36011 2.70996-12.53027 2.76001-2.78979 6.93994-3.93994 10.67993-3.03979l-2.07996-.67017c-.40002-5.77002 1.72998-11.66992 5.68005-15.77979 3.94995-4.1001 9.65991-6.33008 15.25-5.9602l-1.43005-1.35986c4.42004-6.21997 14.85999-6.21021 19.2699.02002l.44006-2.83008c3.09998-3.36011 7.88-4.96997 12.30994-4.15991 4.30005.79002 7.08008 1.84984 8.87012 5.79979z" fill="#4290c6"/></g><g><path d="m125.01266 78.75825c.03003.69995-.03003 1.40015-.18994 2.07007-.88013 3.70996-1.37012 7.94995-3.81006 11.01001-1.13 1.42993-1.47998 1.97998-3.51001 1.61987-1.45996-.26001-2.83997-1.06982-3.91992-2.1001-1.88013-1.80981-3.08008-4.21973-4.55005-6.3999-6.77002-10-18.83008-14.3501-30.08008-18.1001-1.98999-.65991-4.12988-1.08984-6.36987-1.31982-.31006-3.06006 2.22998-6.66016 6.22998-5.8501 10.06995 2.05005 19.47998 7 26.72998 14.34009 1.77002 1.79004 3.34998 3.75 4.85999 5.76001 1.22998 1.62988 2.78992 4.52002 4.78992 5.30005 3.79003 1.47998 7.64013-2.63013 9.82006-6.33008z" fill="#1771ad"/></g><g fill="#202020"><path d="m76.51286 52.88326c-.47498 2.4021-.69019 4.71875-.45679 6.39868.21655 1.68433.7688 2.61133 1.02393 2.54297.28748-.06665.28931-1.04468.56104-2.51514.25354-1.47339.84729-3.45557 1.65186-5.6748 4.23173-11.90659 10.56924-19.05022 12.12415-21.74439.89966-1.45532.59656-1.87451.19861-2.27148-.39807-.39697-.79761-.71704-2.29895.30151-.73108.52783-1.74023 1.3938-3.047 2.85205-4.75775 5.30396-8.32792 12.59935-9.75685 20.1106z"/><path d="m51.76933 55.33125c-2.50387-3.6003-6.6193-6.12149-10.70203-7.78149-2.65601-1.06763-4.90173-1.62354-5.15942-1.13281-.26526.50439 1.53406 1.97778 3.74231 3.63989 10.33973 7.87711 9.27872 8.11241 10.87024 9.14038.80273.58521 1.27466.37769 1.7583.0918s.91284-.56152.64868-1.67261c-.05969-.28345-.19373-.59644-.37817-.97803-.17872-.38696-.43299-.82104-.77991-1.30713z"/><path d="m62.25919 30.26509c-.54773-.12671-1.05396-.1958-1.71619 1.09839-4.64402 9.80476-.32832 27.97638 1.13843 27.67237.10146-.02035 1.687-26.9748 1.67871-27.07495-.0708-1.3921-.55322-1.5691-1.10095-1.69581z"/><path d="m124.38419 69.6357c.19604-.20776.42114-.43286.63647-.7002.19958-.27905.41638-.58228.6521-.91211 4.66601-6.9971 3.74718-16.88977-.59241-22.21826-.51453-.58203-.95557-.97681-1.2771-1.1731.22742-.66309.41016-1.50586.4126-2.60327.00732-8.60697-8.74133-14.39948-17.14929-14.47339.23511-.7124.42395-1.64453.41528-2.87744-.21953-15.03939-20.64757-15.45613-20.13793-12.65381.08228.87018 14.46465.50076 16.39319 12.89355.18848 1.29346.15735 2.18213.1925 2.81152.03662 1.25903.41577 1.53198.95752 1.74121.46106.18115.9718.35474 1.66626-.76904 1.08215.60498 2.97742 1.42188 4.98071 2.46826 4.65474 2.45172 8.14594 5.80406 8.93457 11.05689.17493 1.19653.12146 2.00684.14746 2.59155.00989 1.1665.37036 1.46411.89978 1.70337.25415.12036.49927.22754.79736.14575.28357-.08765.6897-.34546 1.06946-1.0498.00232-.00391.00452-.01025.00684-.01416.08118.28711.18018.604.30884.97876.33984 1.14966.82507 2.6748 1.07544 4.41113.758 5.10931-.01488 10.24826-2.33813 15.13232-.14368.29932-.27576.57471-.39746.82813-.13428.24512-.25696.46899-.36914.67383-.22534.40967-.36279.78687-.51587 1.0564-.14868.30493-.2323.55615-.27283.77246-.11719-.02026-.20569-.01025-.25269.03931-.42834.40186 1.32581 2.7832 2.51221 5.93799 1.1414 2.95472 1.53706 5.96621.7085 9.08838-.5592 2.01831-1.46448 3.32837-2.17322 4.22168-.72498.90063-1.32483 1.39453-1.71655 1.79883-.81018.77295-.7887 1.2395-.61096 1.79272.08118.26929.16553.52295.42126.69116.06091.03784.13501.07349.22131.10376-.45544.07568-1.1377.14819-2.03882-.01831-.82275-.17041-1.80481-.55103-2.77039-1.26294-.97058-.69214-1.86902-1.73926-2.724-3.04736-.86548-1.29858-1.6554-2.8689-2.72253-4.52295-6.89625-10.30656-18.09594-14.78925-29.93811-18.91553-5.2384-1.85596-10.84875-2.08911-16.07373-1.68872-5.2533.42725-10.25427 1.49536-14.77002 2.98096-4.53064 1.48193-8.52686 3.42432-11.82715 5.38232-6.04163 3.57788-10.745 7.56006-14.59644 11.26318-.95508.90747-1.89502 1.88672-2.70471 2.70483-.79138.80688-1.50732 1.35303-2.05969 1.51563-.97693.39453-2.5708-.43286-3.65552-1.59521-2.24292-2.34912-2.96582-5.34814-2.87244-7.63867.07642-2.33301.93347-4.12305 1.7821-5.42163.86511-1.30811 1.77466-2.12891 2.47705-2.72656.71814-.58398 1.25525-.95386 1.62366-1.22363.74365-.53345.76514-.79443.6825-1.07153-.07654-.26025-.20996-.53149-1.2616-.40405-.52441.07031-1.27405.27563-2.28369.78906-.42078.22461-.89514.51099-1.39685.87744-.28125-1.11646-.89221-2.83594-1.38501-4.74365-1.5266-5.86841.45199-9.40716 3.6239-10.69165.85156-.36035 1.41626-.39111 1.86548-.4541.45483-.07397.76099-.09448 1.01172-.25439.24792-.14453.41187-.35938.56421-.59546.15247-.23608.2948-.4624.2511-.76416-.0553-.28369-.25464-.73608-.98816-1.14063-.651-.38013-1.85461-.74219-3.42517-.45435.00916-.23608.01599-.50024.02661-.79126.05151-1.09937.16846-2.57446.65308-4.07837 1.26877-4.29195 4.6084-7.3778 9.78601-7.96753 1.15833-.11914 1.96082-.07764 2.53442-.12036 1.14685-.05005 1.41016-.44556 1.61841-.9834.19788-.50488.39941-1.04175-.88074-1.80029-.47339-.26123-1.1698-.54883-2.146-.71777 2.1113-9.20317 6.23623-15.27936 15.36157-18.09693 1.54077-.46094 2.6261-.65259 3.36584-.86084 1.48755-.37988 1.61572-.83667 1.64722-1.4126.02747-.47974.026-.97632-1.17554-1.3313.29712-.04834.75281-.30957 1.3136-.67139 5.2718-2.83921 9.95278-2.64669 14.08813-.28711.21338.11523.40967.22119.59058.31885.16626.11548.32373.21704.47314.30615.29895.17798.57312.30054.77124.42798.85168.46289 1.32068.22632 1.77356-.10352.45313-.32959.86853-.63184.38562-1.802-.01001-.02783-.03247-.05762-.04419-.08545 1.03223-.63843 2.63965-1.72778 4.68005-2.41675 4.57734-1.65855 9.507-1.1291 14.14404 2.13208 1.04871.75098 1.70007 1.35083 2.20923 1.71826.99573.7605 1.4447.60083 1.93652.30127.46619-.28198.94043-.58984.37244-2.02222-.30017-.70142-.88086-1.698-2.08716-2.85571-4.91773-4.6474-12.23715-5.25358-17.82141-1.86963-1.77808 1.04199-3.09692 2.37402-3.8595 3.4436-.11768.16724-.21826.32446-.31104.47681-.11011-.13477-.21643-.26733-.34729-.41626-.20239-.20044-.44104-.39819-.70007-.61768-5.0238-4.23946-13.91338-3.18224-17.39197 2.2478-.49377.9021-.6344 1.51978-.45007 1.70703-.09094-.02222-.16821-.0459-.27087-.06689-9.5513-1.70382-21.27819 8.7285-20.02136 20.77686.03882.34399.08826.65039.14282.92773-6.70177-.25294-12.02361 4.83727-12.51929 11.19946-.19409 1.96216.16431 3.72461.61963 4.88599.12683.31445.25842.58301.38806.81104-5.00875 1.78252-8.01692 8.0282-4.45581 15.05762 1.08899 2.13281 2.30774 3.71509 3.15247 4.49561-.3988.36182-.80542.77563-1.21204 1.26709-1.23901 1.51196-2.56934 3.78955-2.85095 6.93237-.14233 1.55273-.01257 3.27905.50989 5.07983.53186 1.79126 1.46399 3.67529 3.00623 5.35864.76477.82935 1.71326 1.64453 2.93518 2.25391.6167.29956 1.31348.54883 2.09717.66333.77734.10864 1.66431.07373 2.47119-.17676 1.64197-.49829 2.77588-1.53662 3.70764-2.43164.91895-.90405 1.73938-1.74121 2.69263-2.62964 3.72742-3.51196 8.22901-7.27734 13.90882-10.6394 3.10815-1.84326 6.81091-3.67212 11.02087-5.10498.69128-.23682 1.41602-.44775 2.13342-.66455-.13574.51611-.24939 1.11475-.29089 1.79688-.41278 4.66416 1.77959 11.09476 5.7583 14.65845.0719.06396.14795.12354.22119.18628.15564.5481.34448 1.19019.57349 1.96533.65674 2.27441 1.67761 5.62817 2.49414 10.72192 2.07501 13.40501-.61885 19.11766-.04675 25.5188.16943 1.61572.49084 3.38159 1.56372 5.17627.27673.44287.59949.8833 1.00098 1.29077 3.71641 3.55019 12.24963 2.66852 12.82678-2.84058.09583-1.40918-.21143-2.34863-.44739-3.27856-2.04205-7.4832-3.76608-20.86593-2.38477-32.30859.35168-3.04468.85608-5.23218 1.02747-6.30835.01514-.01245.03308-.02393.04797-.03613 5.71166-4.49049 7.44852-12.06042 5.02844-17.42871 11.13781 3.56667 21.44378 7.35886 28.4104 16.48706 1.08972 1.47681 2.00391 3.02368 3.03418 4.34717 1.01233 1.32471 2.14819 2.45117 3.35339 3.14087 1.18579.70361 2.36719 1.00903 3.33411 1.06274.97522.04126 1.71899-.16943 2.16907-.3855.27258-.12793.43762-.24658.52869-.33545.19604-.00024.41345-.01709.68115-.0813.75366-.17285 1.87805-.61841 3.13025-1.76343 5.8819-5.4195 4.66239-15.03201-1.43542-20.55396.12378-.06616.25537-.14258.40173-.23828.33425-.19751.64833-.52637 1.05397-.9331zm-52.32715 22.75464c-2.41113 10.30654-1.63122 24.1871.48193 33.48608.19971.78613.32483 1.60767.26343 1.96875-.10006.0573-1.54407 3.23825-5.85168.83276-.10022-.06543-.19165-.12866-.29224-.18506-.06067-.0647-.11096-.10229-.18335-.16333-.1593-.16748-.3053-.37573-.44238-.60254-.54956-.9292-.83643-2.22729-.93799-3.46655-.4523-5.5969 2.26497-12.67374-.29248-25.80469-.87402-4.36499-1.94531-7.45532-2.87732-9.67871.55603.21704 1.13025.39844 1.72461.53345 2.24438.51196 4.52637.21948 6.38684-.42041 1.43579-.49268 2.68555-1.15186 3.73804-1.8811-.51648 1.15283-1.16736 2.97973-1.71741 5.38135zm-7.67285-6.75953c-1.4906-.23877-3.08618-.97974-4.41431-2.00244-3.36097-2.55454-5.85663-7.89397-6.32568-12.08008-.11975-.83472-.12537-1.5498-.12317-2.13452 3.31982-.93042 6.87598-1.63086 10.53088-2.00171 4.08228-.39697 8.32019-.36938 12.32263.52661.07056.33691.15454.74634.2981 1.25293 2.34328 10.67899-6.42775 17.42225-12.28845 16.43921z"/></g></g></svg>