<svg id="Layer_1" enable-background="new 0 0 136 136" height="512" viewBox="0 0 136 136" width="512" xmlns="http://www.w3.org/2000/svg"><g><g><path d="m58.43142 72.16006c-1.09003 1.13989-2.58002 1.94995-4.10004 2.65991-.76001.3501-1.52002.67993-2.31.97998-2.92999 1.15015-6.02002 1.96997-9.20001 2.48022-7.06 1.12988-14.5.70996-21.33997-1.25-2.95001-.84009-5.79004-1.97021-8.42999-3.38013-2.93005-1.56006-5.71002-3.53003-7.17004-6.17993-1.90997-3.4502-1.14996-7.81006 1.84003-10.62012 3-2.80005 8.04999-3.88989 12.31-2.6499v-.36009c-2.82001-2.80005-4.90002-6.13989-6.03998-9.67993-.80005-2.47998-1.08002-5.30005.52997-7.45996 1.54999-2.07007 4.59998-3.1001 7.52002-3.09009 2.22998.01001 4.40997.53003 6.48999 1.25.64001.21997 1.27002.45996 1.90002.70996 12.41998 4.94995 22.58996 13.88012 27.94995 24.56006 1.96002 3.88989 3.15002 8.75.05005 12.03002z" fill="#da1c5c"/></g><g><path d="m76.20137 53.11002c-2.85999 3.6001-7.04999 7.03003-11.81 6-1.64996-.34985-3.17999-1.22998-4.61999-2.17993-7.82001-5.14014-13.77997-13-16.85999-21.64014-1.65002-4.58984-2.47998-9.3999-2.34003-14.1499.09003-3.27002.66003-6.62012 2.54004-9.17993 2.44995-3.33008 7.10999-4.8501 11.33997-3.69019 1.66003.4502 3.21002 1.30005 4.54007 2.44021 1.20684 1.02031 2.30912 2.29636 3.0207 3.7163.27449.54776.50577 2.40691 1.39743 2.31034.65057-.07046 1.39367-2.50871 1.675-3.02561 1.2914-2.37278 2.95937-4.54888 4.93681-6.3912 2.04999-1.90991 4.66998-3.53979 7.59002-3.23999 2.79999.29004 5.31 2.39014 6.73999 4.88013 1.42999 2.5 1.94 5.34985 2.20996 8.12988 1.25001 13.06006-2.50994 26.15015-10.35998 36.02003z" fill="#da1c5c"/></g><g><path d="m117.30108 57.30587c4.26437-.7955 8.10255-4.28688 9.34284-8.49868s-.18924-8.89975-3.47974-11.41135c-2.52341-1.92609-5.85779-2.55337-9.12357-2.70768-13.68507-.6466-28.06042 6.72204-36.14816 18.52915-.9744 1.4225-1.87702 2.93631-2.26441 4.58513-1.11271 4.73599 2.23251 8.9887 5.78073 11.91851 9.72324 8.02861 22.74447 12.03712 35.81905 11.02669 2.78819-.21548 5.649-.67421 8.17008-2.05885 2.52109-1.38464 4.6618-3.85408 5.00557-6.65427.35745-2.91169-1.22917-5.56453-3.09966-7.64401-2.67436-2.97318-6.05865-5.28819-9.83125-6.72502" fill="#da1c5c"/></g><g><path d="m93.88979 113.09613c2.61472 3.46134 7.45189 5.33835 11.77458 4.56898s7.8802-4.1405 8.65965-8.20596c.59774-3.11771-.32871-6.38164-1.64784-9.37313-5.52775-12.53568-18.53658-22.11263-32.71192-24.08214-1.70782-.23728-3.46532-.36959-5.11376.01945-4.73487 1.11744-7.04808 6.00878-8.08681 10.49149-2.84644 12.28404-.62357 25.72575 6.1147 36.97569 1.43695 2.39908 3.12401 4.75461 5.4881 6.39296s5.52927 2.45226 8.18863 1.51044c2.76525-.97932 4.43138-3.58297 5.45774-6.18481 1.46747-3.72002 2.02913-7.7817 1.63161-11.79904" fill="#da1c5c"/></g><g><path d="m58.37136 123.28018c-1.90997 2.6499-4.25995 5.08984-7.25995 6.1499-3.90002 1.37988-8.60004.01001-11.45001-3.33008-1.47003-1.71997-2.40002-3.91992-2.72998-6.19995-.21002-1.46997-.17004-2.97998.14996-4.40991.14001-.64014.33002-1.26025.58002-1.86011l-.40002-.05005c-.31.21997-.63.43994-.95001.6499-3.02997 2.01025-6.47998 3.34009-10.06 3.89014-2.75995.42993-5.84998.31006-8.08997-1.58008-2.16003-1.81982-3.04999-4.96997-2.83002-7.82983.22003-2.87012 1.40002-5.52002 2.75-7.96997 1.10004-2.01025 2.33002-3.93018 3.67999-5.75 5.45001-7.43018 12.78003-13.25 21.04999-16.70996h.01001c1.34003-.56006 2.70001-1.06006 4.09003-1.49023 1.62-.5 3.37-.87988 5.09998-.98999h.01001c2.97998-.17993 5.91003.44995 8.03003 2.67993 1.15997 1.22021 1.94 2.81006 2.58997 4.40015 5.46 13.22998 3.75999 29.30004-4.27003 40.40014z" fill="#da1c5c"/></g><g><path d="m58.99141 10.71011c-.73004.57983-1.67004.94995-2.82001 1.01978-4.42999.26025-8.26001-.18994-10.85004 4.07007-2.62 4.32007-1.66998 9.67993-.51001 14.29004.59003 2.32007-.37994 4.15015-1.89996 5.19995-1.65002-4.58984-2.47998-9.3999-2.34003-14.1499.09003-3.27002.66003-6.62012 2.54004-9.17993 2.44995-3.33008 7.10999-4.8501 11.33997-3.69019 1.66004.45019 3.21003 1.30005 4.54004 2.44018z" fill="#ef2572"/></g><g><path d="m28.53139 34.86002c-.41998 1.97998-1.97003 3.55005-4.63 3.26001-8.19387-.89344 1.12808 12.21614.50348 15.08017-.27445 1.25836-1.31499 2.23944-2.48624 2.77513-2.86568 1.31067-6.93725.09384-9.16947 2.50372-4.25208 4.59051 3.62711 10.02719 6.90221 12.37096 2.23999 1.6001 2.59003 4.12012 1.83002 6.18018-2.95001-.84009-5.79004-1.97021-8.42999-3.38013-2.93005-1.56006-5.71002-3.53003-7.17004-6.17993-1.90997-3.4502-1.14996-7.81006 1.84003-10.62012 3-2.80005 8.04999-3.88989 12.31-2.6499v-.36011c-2.82001-2.80005-4.90002-6.13989-6.03998-9.67993-.80005-2.47998-1.08002-5.30005.52997-7.45996 1.54999-2.07007 4.59998-3.1001 7.52002-3.09009 2.22998.01001 4.40997.53003 6.48999 1.25z" fill="#ef2572"/></g><g><path d="m36.31136 114.22989c-3.02997 2.01025-6.47998 3.34009-10.06 3.89014-2.75995.42993-5.84998.31006-8.08997-1.58008-2.16003-1.81982-3.04999-4.96997-2.83002-7.82983.22003-2.87012 1.40002-5.52002 2.75-7.96997 1.09995-2.01009 2.32982-3.92987 3.67967-5.74957.09277-.12506 1.34809 1.6536 1.43228 1.83443.38615.82943.53724 1.73927.3558 2.64207-.3697 1.83954-1.9446 2.9157-2.03641 4.91285-.05956 1.29568.30448 2.58475.87539 3.74938.98112 2.00143 2.65222 3.72834 4.76282 4.44514 1.81334.61584 3.66278.43754 5.50947.18514.75869-.10369 1.0276-.2968 1.8107-.00198.20671.07782 1.95002 1.39946 1.84027 1.47228z" fill="#ef2572"/></g><g><path d="m36.93142 119.90005c-.21002-1.46997-.17004-2.97998.14996-4.40991.63 1.40991.69 3.04981-.14996 4.40991z" fill="#ef2572"/></g><g><path d="m29.98232 62.17604c-3.02181-1.29498-10.27775-.16794-7.71781 4.63142 1.29166 2.42161 5.42916 4.55878 8.08517 4.47704 1.59845-.0492 3.26627-1.03986 3.61981-2.59949.17108-.75472.024-1.54836-.2272-2.28033-.63044-1.83699-1.97465-3.46346-3.75997-4.22864z" fill="#c2b59b"/></g><g><path d="m38.54291 51.94635c-3.0218-1.29498-10.27775-.16794-7.71781 4.63142 1.29166 2.42161 5.42916 4.55877 8.08517 4.47704 1.59845-.04921 3.26627-1.03986 3.61981-2.5995.17108-.75472.024-1.54836-.2272-2.28033-.63044-1.83698-1.97465-3.46345-3.75997-4.22863z" fill="#c2b59b"/></g><g><path d="m60.1918 29.89702c-.21629-3.21965-4.89951-8.85123-8.35508-4.28901-1.74357 2.30195-1.80524 6.89075-.4161 9.11611.83603 1.33926 2.63155 2.27118 4.33864 1.7999.82608-.22805 1.53363-.74681 2.12925-1.32384 1.49481-1.44816 2.43099-3.40091 2.30329-5.30316z" fill="#c2b59b"/></g><g><path d="m74.46441 32.13077c-.21629-3.21965-4.89951-8.85123-8.35508-4.28901-1.74358 2.30195-1.80524 6.89075-.4161 9.11611.83603 1.33926 2.63155 2.27118 4.33864 1.7999.82608-.22806 1.53363-.74682 2.12925-1.32384 1.49481-1.44816 2.43099-3.40091 2.30329-5.30316z" fill="#c2b59b"/></g><g><path d="m104.9165 53.04089c3.22311-.15656 8.94055-4.73456 4.44318-8.27412-2.26923-1.78595-6.85609-1.9327-9.10683-.58505-1.35453.81105-2.31957 2.58898-1.88003 4.30452.2127.83016.71825 1.54721 1.28414 2.15343 1.4202 1.52139 3.35525 2.49362 5.25954 2.40122z" fill="#c2b59b"/></g><g><path d="m102.4185 68.37204c3.22311-.15656 8.94055-4.73456 4.44318-8.27413-2.26923-1.78595-6.85609-1.9327-9.10682-.58505-1.35454.81105-2.31958 2.58899-1.88004 4.30452.2127.83016.71825 1.54721 1.28414 2.15343 1.42019 1.52141 3.35525 2.49364 5.25954 2.40123z" fill="#c2b59b"/></g><g><path d="m91.19396 100.60165c1.57829 2.81459 8.22645 5.88855 9.38734.28434.58575-2.82771-1.32963-6.9981-3.53997-8.41101-1.33024-.85031-3.35197-.92062-4.69113.23823-.64803.56078-1.06415 1.33316-1.35417 2.11009-.72785 1.94982-.73448 4.11537.19793 5.77835z" fill="#c2b59b"/></g><g><path d="m77.34562 104.71512c1.57829 2.81459 8.22646 5.88855 9.38734.28434.58575-2.82771-1.32963-6.9981-3.53997-8.41102-1.33024-.85031-3.35197-.92062-4.69113.23823-.64803.56078-1.06416 1.33317-1.35417 2.11009-.72784 1.94983-.73448 4.11539.19793 5.77836z" fill="#c2b59b"/></g><g><path d="m47.08307 104.994c-1.63265 2.78342-.92947 10.07401 4.49412 8.24657 2.73657-.92207 5.36934-4.68097 5.47297-7.30227.06235-1.57755-.8977-3.35818-2.57413-3.92903-.81124-.27624-1.68805-.24546-2.5051-.10354-2.05054.35618-3.92317 1.44382-4.88786 3.08827z" fill="#c2b59b"/></g><g><path d="m36.54053 95.11717c-1.63265 2.78341-.92947 10.07401 4.49412 8.24657 2.73657-.92207 5.36934-4.68097 5.47297-7.30227.06235-1.57755-.8977-3.35818-2.57413-3.92903-.81124-.27624-1.68805-.24546-2.5051-.10354-2.05054.35617-3.92316 1.44381-4.88786 3.08827z" fill="#c2b59b"/></g><g><g><path d="m81.48213 62.59245c-5.92049-6.98864-20.11635-7.64589-25.586-.03513-2.13563 2.97163-3.06184 6.72066-2.90857 10.3769.20045 4.78166 2.47018 9.72128 6.69306 11.9733 4.19716 2.2383 12.85714 1.70872 17.23637-.35055 5.97915-2.8116 8.57661-11.76485 6.81074-17.68237-.46415-1.55536-1.19623-3.04332-2.2456-4.28215z" fill="#9b8579"/></g><path d="m128.45761 63.32096c-.95-.97998-1.87005-1.78979-2.73003-2.44995-1.72998-1.31982-3.17999-2.1001-4.31-2.62012-1.14001-.5-1.95001-.73975-2.52997-.85986-.28003-.05005-.5-.08008-.67004-.08984.56-.08008 1.35004-.28027 2.33002-.69019 1-.42993 2.16003-1.11987 3.32001-2.16992 6.93865-6.21466 5.5703-18.85146-7.14001-20.81006-6.74298-1.09985-16.63112.15404-26.01996 5.46997-2.24005 1.31006-4.39001 2.80005-6.40002 4.45996 3.72647-8.46809 5.02193-17.93509 4.33002-25.1499-.10004-1.45996-.25-2.87012-.5-4.27002-.5-2.77002-1.46002-5.41992-3.10004-7.52002-4.0218-5.17826-10.23706-6.17431-16.09999-.42993-.97003.96997-1.76001 1.8999-2.40002 2.77002-1.29999 1.75-2.04999 3.22998-2.53998 4.35986-.48999 1.15015-.71002 1.96997-.82001 2.54004-.04999.28003-.07001.48999-.07001.67017-.08997-.55005-.31-1.34009-.73999-2.31006-.45001-.98999-1.15997-2.14014-2.22998-3.28003-6.32112-6.80318-18.93407-5.26137-20.67004 7.53003-.83749 5.90541.15795 13.97668 3.72003 21.66992-2.10999-1.44995-4.21002-2.68994-6.25-3.76001-2.73999-1.3999-5.33002-2.53003-7.89001-3.3999-2.58002-.86011-5.19-1.37012-7.71002-1.23023-7.08076.42357-11.40785 5.05987-8.90997 12.67017.44 1.28003.95001 2.36987 1.45001 3.31006 1.01996 1.86987 2.02997 3.13989 2.83997 4.03979.82001.90015 1.46002 1.44019 1.92999 1.77002.06006.04004.11005.07007.16003.11011-.47998-.13989-1.10999-.27002-1.89001-.34985-1.04999-.1001-2.37-.12012-3.85999.16992-1.48999.27979-3.17999.83008-4.81 1.93994-1.64001 1.08008-3.16998 2.83008-3.92999 5.1001-.79004 2.25-.73004 5.04004.56 7.5 1.28998 2.41992 3.45001 4.25977 5.75 5.73975 2.31 1.49023 4.85999 2.68018 7.56 3.72021 4.92999 1.84985 10.40997 2.91992 15.97998 3.08008-6.45996 4.17993-11.20001 9.20996-14.60999 14.08984-.47003.64014-.88 1.29004-1.28998 1.92993-.42004.64014-.81 1.27002-1.16003 1.92017-.73999 1.25977-1.41998 2.50977-1.98999 3.7998-1.15002 2.58008-1.84998 5.31006-1.66998 7.95996.16998 2.61011 1.07996 5.02002 2.69 6.80029 1.63 1.7998 3.81 2.58984 5.60999 2.81982 1.83002.22998 3.39996.05005 4.77002-.19995 2.83355-.52866 5.67037-1.56972 8.09998-3.11987.83292-.53674 1.95383-1.34398 2.52997-2.15015-.22998.51001-.5 1.29004-.67999 2.33008-.19 1.07007-.25 2.41992-.00995 3.95996.66218 4.22163 3.20604 7.58382 6.79999 9.23998 2.15997 1 4.84998 1.46997 7.57001.78003 5.16671-1.31104 9.74216-7.37833 11.83997-11.77001 1.20001-2.26001 2.18-4.69019 2.94001-7.21997.77002 2.66992 1.71002 5.1499 2.75 7.40991 8.09473 18.4652 21.05665 17.88004 25.12 6.63989.99298-2.80571 1.49441-5.64216 1.40002-8.56982-.04999-1.23999-.20001-2.08008-.35004-2.64014-.06995-.25-.13995-.44995-.20996-.59985.32996.44995.85999 1.05981 1.64996 1.72998.83002.69995 1.96002 1.42993 3.41003 2 4.0703 1.60023 8.21388 1.0295 11.41998-1.19995 1.95001-1.36011 3.71002-3.43994 4.47998-6.14014 2.78071-9.62501-8.0808-23.18049-16.95996-29.17993-.35004-.22998-.70001-.44995-1.06-.67993 7.98483 2.48994 16.71653 2.89403 22.88995 1.87988 2.78003-.43994 5.45001-1.3501 7.58002-2.94995 5.23871-3.93543 6.36542-10.10841.73001-16.10009zm-86.42004-44.5398c.9147-9.22022 8.27391-11.15967 13.19-9.41016 1.65002.57007 3.02002 1.48999 4.06 2.43994 1.06.9502 1.82001 1.93994 2.35999 2.80005 1.06006 1.72998 1.31006 2.88013 1.48004 2.84009.03998 0 .06-.16992.03998-.46997.06.18994.17999.25.31.30005.27002.09985.54004.08984 1.16999-.81006.66003-.87012 1.58002-2.76001 4.12006-5.68994 4.43916-4.78118 9.1954-7.41056 13.28998-1.89014 1.10999 1.48999 1.85999 3.53003 2.25 5.91992.20001 1.2002.32001 2.5.39001 3.86011.58318 6.60892-.65788 15.55561-4.29004 23.63989-.85999 1.88013-1.89996 3.8501-3.13995 5.83008-.65002.96997-1.30005 1.97998-2.06 2.93994-.72003 1.01001-1.48004 1.91016-2.34003 2.78003-.84998.8501-1.79999 1.63989-2.81 2.25h-.01001c-.39001-.05981-.77997-.09985-1.17999-.12988-.87-.07007-1.78003-.08008-2.71002-.02002.45001-1.07007.95001-2.39014 1.47003-4.01001.83002-2.5 1.72998-6.57007 2.04999-10.03003.07001-.73999.12-1.43994.15002-2.1001 1.62-.30981 2.56-1.25 3.22998-1.95996 1.37-1.52002 1.79999-2.91992 1.94-3.82983.13-.93018-.01001-1.43018-.13-1.67017-.13-.23999-.26001-.23999-.40002-.22998-.13995.01001-.27997.04004-.38995.25-.12.20996-.21002.6001-.48004 1.30005-.26996.67993-.72998 1.71997-1.88995 2.87988-.51001.49023-1.13.99023-1.84003 1.2002v.00977c-.37381.09431-.52114.1195-.87.1001-.77002-.04004-1.66003-.43994-2.27002-1.21997-.81-1.01001-1.22998-3.26001-.94-5.41992.15002-1.07007.47003-2.17017 1.09003-2.98022.63-.88989 1.46997-1.40991 2.35999-1.37988.90997.01001 1.82001.56006 2.51001 1.16992.71002.61011 1.23999 1.32007 1.62 1.93018.81 1.22998.94 2.15991 1.09998 2.15991.12.01001.27002-1.04004-.38995-2.52002-.32001-.73999-.79004-1.57983-1.53003-2.37988-.72998-.78003-1.75-1.63013-3.20001-1.79004l-.53998-.04004c-.17999.02002-.35999.05005-.54999.08008-.38.03003-.70001.20996-1.04999.34985-.34003.16016-.61005.40015-.91003.61011-.27002.22998-.48999.5-.73999.75-.95001 1.11011-1.39001 2.46997-1.63001 3.75-.21997 1.29004-.23999 2.57007-.04999 3.75.18 1.18994.54999 2.30981 1.23999 3.20996.95001 1.18994 2.25 1.83008 3.51001 1.94995-.10999.58008-.23004 1.20996-.37 1.8501-.67004 3.33008-1.77002 7.19995-2.57001 9.62988-.67999 2.1001-1.25 3.68994-1.70002 4.91016-.22998.02979-.46997.07983-.70001.13989-.03998-1.40991-.28998-3.28003-.95996-5.68994-.69-2.51001-2.09003-6.33008-3.56-9.40991-.76001-1.64014-1.54004-3.07007-2.12006-4.03027-.00043-.00073-.00067-.00098-.0011-.00171.97723-.42847 1.63275-1.09009 2.13916-1.62256 1.3681-1.51709 1.79865-2.91528 1.94073-3.8291.12714-.93457-.01007-1.42847-.13043-1.66577-.12964-.23999-.26385-.24316-.40405-.23462-.14026.0083-.27344.03857-.38837.25049-.12177.21021-.21344.604-.47412 1.30103-.2735.68189-.72955 1.72144-1.89746 2.87866-.5838.56958-1.3338 1.16504-2.19513 1.28955-.84271.14331-2.03223-.23926-2.78613-1.19873-.80249-1.00732-1.22809-3.26465-.94-5.41626.15302-1.07959.47131-2.17896 1.09106-2.98462.62885-.88721 1.46954-1.41064 2.36414-1.37793.90912.00439 1.81824.56152 2.51099 1.16821.71021.6123 1.23389 1.31885 1.6228 1.93164.80865 1.23608.93073 2.16919 1.09222 2.15796.11884.0144.26984-1.04297-.38861-2.52295-.31641-.73413-.78711-1.58154-1.52899-2.37915-.73169-.77515-1.74548-1.62549-3.19507-1.79102l-.54224-.03809c-.18134.01758-.36469.0498-.54907.07886-.38159.03101-.70538.21582-1.0542.35596-.34033.15405-.60474.39893-.9093.6062-.27203.2312-.49286.49902-.73981.75391-.94672 1.1106-1.38513 2.4668-1.62671 3.74536-.21954 1.29272-.24359 2.56665-.05499 3.75391.17944 1.18262.55157 2.30322 1.24127 3.20923 1.25604 1.57861 3.12885 2.18848 4.71234 1.91675.13379-.02563.25616-.06177.38092-.09546.00006 0 .00012.00024.00018.00049.34998 1.06982.90997 2.60986 1.5 4.32983 1.10999 3.17017 2.27002 6.98999 2.92999 9.41016.5 1.82983.78998 3.30005.96002 4.45996-.37-.22998-.75-.48999-1.12-.75-2.59003-1.70996-4.99005-3.80005-7.15002-6.13989l-.53998-.6001c-1.55005-1.73999-2.97003-3.61011-4.23004-5.58008-5.27928-8.50542-6.93508-17.67591-6.25-23.83987zm-22.88 55.96973c-2.54999-.87988-5-1.91992-7.16998-3.19971-2.15997-1.27002-4.03998-2.80029-5.10998-4.64014-1.06-1.82007-1.23999-3.97998-.71002-5.82007.52002-1.85986 1.66998-3.36987 3.01001-4.3999 1.34003-1.04004 2.82001-1.65991 4.15002-2.04004 1.33997-.38989 2.56-.5 3.54999-.53003 2-.05005 3.10999.25 3.14996.08008.01001-.03003-.06995-.1001-.25995-.2002.10999-.01978.19-.08984.25995-.15991.21002-.19995.32001-.43994-.21997-1.37988-.26001-.46997-.69-1.11011-1.27002-2.06006-.57996-.94995-1.32001-2.19995-2.07001-3.92993-2.65475-6.41677-1.87414-10.74815 5.04004-10.97021 1.88-.06982 4.01001.36011 6.27997 1.16016 2.29004.81006 4.77002 1.92993 7.29004 3.25 5.04999 2.68994 10.46997 6.51001 15.35999 12.07007 1.31 1.55005 2.65997 3.25 3.89996 5.15991.58002.92993 1.18005 1.87012 1.71002 2.89014-.33002.31982-.65002.6499-.94 1.02002-1.14996 1.28979-1.97998 2.78979-2.60999 4.36987-1.94-1.69995-4.76001-3.83008-7.35004-5.38013-.60999-.36987-1.19995-.70996-1.75-1.00977.22003-.68018.22003-1.34009.14001-1.89014-.09998-.62988-.27997-1.1499-.46997-1.60986-.79999-1.8501-1.88-2.77002-2.63-3.27002-.77002-.49023-1.25-.58008-1.51001-.57007-.25.01001-.33002.11987-.38.25 0-.13989-.83002-.69995-2.33002-.87012-.76996-.10986-1.70996-.11987-2.73999.06006-1.01996.19995-2.22998.52002-3.20001 1.59009-.45996.5498-.77997 1.31006-.75995 2.08008-.03003.37988.08997.71973.13995 1.08984.10004.33008.25.6499.37.96997.63 1.30005 1.64001 2.20996 2.65002 2.95996 2.08002 1.44995 4.33002 2.32007 6.44 2.23999 1.57001-.10986 2.91998-.84985 3.72998-1.95996.47003.3501.97003.72998 1.48004 1.12012 2.64996 2.01001 5.62 4.58984 7.46997 6.33008-.22998.87988-.40002 1.76978-.5 2.66992-.46002-.12012-.94-.23999-1.45001-.36011-2.58997-.59985-6.67999-1.21997-10.14996-1.44995-1.86005-.12988-3.52002-.16016-4.67999-.12012-.0022 0-.00366.00024-.00586.00024.01843-.32544.0033-.6377-.03827-.91626-.0954-.63306-.27667-1.1521-.46857-1.61206-.80035-1.84888-1.88232-2.77417-2.62604-3.26978-.76752-.4917-1.25195-.57983-1.5116-.57495-.26465.01099-.32886.12915-.38495.25781-.05609.12891-.09058.26074.04388.45752.13013.20117.43823.45605.94885.98047.49286.52588 1.24078 1.34839 1.78229 2.83179.26141.7395.45905 1.63623.1394 2.31592-.28169.69922-1.26819 1.41968-2.47253 1.49731-1.34015.0813-3.44153-.57373-5.23572-1.74634-.88983-.59351-1.74396-1.33032-2.21283-2.18408-.53479-.92041-.60419-1.80127-.13593-2.48071.50415-.69312 1.4649-1.12793 2.32745-1.38037.88116-.25439 1.7348-.35889 2.44696-.37256 1.44238-.07471 2.30408.23022 2.36816.08105.06323-.10083-.77075-.6958-2.32654-.87256-.76984-.11011-1.70435-.12329-2.74121.05396-1.01495.19946-2.22974.521-3.20032 1.59253-.45483.55225-.77466 1.3147-.75531 2.07642-.02985.38501.08923.7229.1416 1.09033.09827.33887.24249.64917.36945.97607.62549 1.29395 1.63702 2.21094 2.6496 2.96191 2.07465 1.44897 4.33032 2.31689 6.43579 2.23657 1.91699-.14355 3.52618-1.20996 4.17676-2.7478.07483-.17725.12915-.35449.1731-.53076 1.12988.22949 2.77612.49927 4.61237.82837 3.37994.59009 7.37 1.42017 9.87 2 .63995.15015 1.22998.29004 1.77997.44019-.01001.52979.01001 1.06982.06 1.59985-.64001.06006-1.26001.13989-1.85999.25-1.42999.26001-2.82001.63989-4.06 1.08008-1.28003.3999-2.48999.8999-3.66998 1.36987-.09003.04004-.17999.08008-.27002.12012-7.51 1.08986-15.39001.3799-22.21001-1.95018zm22.30004-16.21972c-.05005.11987-.12006.25-.23004.36987-.40997.57007-1.25 1.06006-2.23999 1.13013-1.34003.07983-3.44-.58008-5.23999-1.75-.89001-.59009-1.73999-1.33008-2.21002-2.18018-.53998-.91992-.60999-1.7998-.14001-2.47998.51001-.69995 1.47003-1.12988 2.33002-1.37988.88-.26001 1.73999-.36011 2.45001-.38013 1.44-.07007 2.29999.22998 2.37.09009-.06.11987-.09998.26001.03998.44995.13.19995.44.45996.95001.97998.48999.53003 1.23999 1.3501 1.78003 2.83008.20996.59009.38 1.28003.26996 1.88989-.01997.1499-.06001.29004-.12996.43018zm18.63996 59.11987c-1.64449 3.83852-5.61005 9.58302-9.88 10.86987-2.07996.64014-4.32001.38013-6.17999-.35986-1.87-.74999-3.37-2.01-4.39996-3.41015-1.05005-1.38989-1.65002-2.91992-1.99005-4.2998-.33997-1.38013-.40997-2.62012-.37-3.63013.10004-2.03979.54004-3.12988.38-3.18994-.02997-.02002-.14996.11011-.29999.38013.06-.2002-.01001-.32007-.08997-.43018-.17004-.23999-.39001-.38989-1.42004.01001-1.03998.3501-2.85999 1.39014-6.60999 2.38013-1.85999.42993-4.35999.98999-6.97998.56006-1.29004-.24023-2.54004-.79004-3.45001-1.86011-.91003-1.07007-1.53998-2.73999-1.62-4.61987-.08002-1.8501.45001-3.96021 1.46997-6.15015.51001-1.11011 1.15002-2.25 1.85004-3.41992.32996-.59009.70001-1.17017 1.09998-1.76001.38-.59009.77002-1.18994 1.21002-1.78003 3.38-4.73999 8.08997-9.62012 14.53998-13.59009 1.77002-1.06982 3.72998-2.1001 5.87-3.04004.42999-.16992.85999-.34985 1.29999-.52979 2.52002-.4502 5.01001-1.11011 7.41003-1.97998.45996 1.53979 1.13 3.01978 1.98999 4.33984-2.70226 1.99305-5.85902 5.07069-7.92999 7.58008-.47003.56982-.91003 1.11987-1.31 1.6499-1.51001-.6499-2.79999-.40991-3.76001-.19995-1.98999.48999-3.13 1.3999-3.76001 2.07007-.63.70996-.79999 1.18994-.83002 1.44995-.02997.26001.07001.34009.18005.41992-.14001 0-.80005.79004-1.08002 2.31006-.15002.79004-.22998 1.75-.07001 2.82983.82321 5.08645 5.60891 5.38091 9.21002 1.78027 2.89751-3.02558 4.31457-7.39194 1.13995-10.01025.42004-.41992.87-.86987 1.34003-1.31982 2.42999-2.38013 5.52002-4.95996 7.53998-6.52002.19-.1499.37-.29004.54999-.41992.64001.75 1.37006 1.41992 2.17004 2-1.14766 3.09778-2.16496 7.40187-2.66003 10.61987-.27997 1.79004-.44995 3.40015-.5 4.53003 0 .00049-.00006.00073-.00006.00122-1.0517-.198-1.96838-.01953-2.68829.13623-1.98462.48438-3.12714 1.39795-3.75879 2.07373-.63086.70093-.79541 1.18652-.82947 1.45044-.02771.27124.08142.34937.20209.42139.12067.07178.2478.12183.4621.01123.21881-.10522.51617-.37915 1.12396-.80884.60974-.40991 1.57159-1.0127 3.18823-1.31226.80304-.14233 1.75812-.21265 2.54028.16895.77728.35571 1.54541 1.34131 1.62885 2.55859.09668 1.28418-.82153 3.38989-2.27026 5.00659-2.5076 2.75558-5.73394 3.12009-6.72949-.71606-.24261-.90576-.27808-1.78442-.25488-2.50977.02698-1.47681.45111-2.31714.31122-2.39844-.09003-.0791-.80975.71021-1.09821 2.3042-.15143.78491-.23914 1.75049-.07452 2.82715.81065 5.05378 5.58925 5.40929 9.2113 1.77979.90881-.94531 1.64539-1.98486 2.15747-3.07251.51697-1.07861.8399-2.21436.77948-3.35156-.15033-2.01147-1.35535-3.56958-2.81738-4.23584-.12341-.05347-.24323-.0918-.36383-.13354.00006-.00024.00018-.00049.00024-.00073.31-1.07983.70996-2.66992 1.19-4.42993 1.09197-4.06665 2.62229-8.76881 3.02997-9.83008.20001.1001.40002.18994.60004.28003.39996.15991.78998.29004 1.17999.42993.39001.1001.76996.2002 1.14996.30005.14001.03003.28003.06006.42004.09009.53998 1.8501.94 3.76001 1.20996 5.69995v.02002c-.10999 1.55005-.14996 3.05005-.13 4.46997.04004 1.8501.17004 3.6499.39001 5.37988.01001.01025 0 .01025 0 .02002-.45001 4.97997-1.72997 9.84008-3.82 14.1101zm-23.56-22.53003c.12.07007.25.12012.47003.01001.20996-.11011.51001-.38013 1.12-.81006.60999-.40991 1.57001-1.01001 3.19-1.30981.67999-.13013 1.48999-.2002 2.19.02979.12.04004.23999.08008.34998.14014.14001.06982.28998.1499.42999.27002 2.32093 1.77911.84888 5.13113-1.07001 7.29004-3.35647 3.67429-7.14745 2.52905-6.98999-3.22998.03003-1.47023.45002-2.31007.31-2.39015zm75.83002 7.71997c.85999 2.38013 1.22998 4.81006.71002 6.92993-.85244 3.61452-4.27272 6.76561-8.59003 7.24023-1.72998.18994-3.35999-.05005-4.71002-.45996-1.35999-.41016-2.47998-.97021-3.32996-1.52002-1.70001-1.11011-2.42999-2.04004-2.56-1.93018-.03003.02002.00995.16992.14996.41992-.13-.11987-.26001-.11987-.39001-.10986-.28998.03003-.52997.14014-.70996 1.22998-.22003 1.07007-.23999 3.16992-1.28003 6.91016-4.16188 13.28733-13.05801 9.8103-18.73999-2.12012-.32001-.62988-.64001-1.27002-.92999-1.94995-2.38-5.31006-4.21997-11.84009-4.39001-19.41016-.01996-2.07007.07001-4.28979.34003-6.60986.14996-1.01001.28998-2.05005.5-3.1001 2.5312-.08173 5.1268-.52908 7.14996-1.1499.74333 3.45777 1.73047 6.47086 2.64001 8.57007-1.32001.96973-1.76996 2.21973-2.07001 3.15991-.58997 1.94995-.38 3.3999-.10999 4.29004.28998.8999.62 1.28003.83002 1.44995.21997.15991.33997.1001.46997.03003-.12.03979.20001 1.05981 1.42999 2.11987.60004.52002 1.39001 1.09009 2.41003 1.48999 3.17841 1.22041 5.31277.05116 6.32001-2.96997.38-1.40991.19-2.83008-.14001-4.08984-.34998-1.26025-.88-2.42017-1.56-3.41016-.66998-.98999-1.48999-1.83984-2.5-2.35986-1.35999-.67017-2.81-.68994-4.01001-.26001-.15002-.57007-.31-1.17993-.46002-1.82007-.54999-2.20996-1.02997-4.72998-1.38995-6.91016 1.39413-.63051 2.67946-1.51176 3.82996-2.70996 1.72003 1.8501 4.10004 4.13013 6.31 5.92017 1.39948 1.14941 2.70898 2.10913 3.65887 2.71924-.70435.80884-1.01422 1.69214-1.24365 2.39331-.58386 1.95752-.37207 3.40503-.10785 4.2915.28656.89844.62268 1.28564.83331 1.44824.22003.16089.34265.1062.46564.03833.12305-.06787.23029-.15234.24304-.39331.01971-.24194-.06665-.63696-.13062-1.37842-.04596-.7334-.08063-1.86792.47693-3.41455.28259-.76514.7041-1.625 1.42841-2.10742.69946-.49146 1.93799-.65698 3.03094-.11426 1.15735.56494 2.51135 2.42065 3.17535 4.4873.32556 1.04053.51038 2.17017.29675 3.16382-.39508 2.2654-2.08832 2.91208-4.31244 2.28345-.9043-.2478-1.68066-.66089-2.2951-1.04712-1.26117-.7688-1.77234-1.55933-1.91327-1.47949-.11353.03784.20422 1.05762 1.43457 2.11133.60107.5271 1.39026 1.09009 2.40277 1.4917 2.98442 1.1585 5.20428.34885 6.32672-2.97144.37781-1.40967.19116-2.82275-.13983-4.08105-.35706-1.26172-.88251-2.42236-1.56281-3.41357-.66998-.99072-1.48743-1.84302-2.49945-2.36499-1.81232-.88574-3.7655-.63232-5.07874.29346-.10797.07935-.20123.16284-.29791.24561-1.67638-1.73627-4.96853-4.87299-9.19165-9.69165.04004-.05005.07001-.1001.11005-.15015.76996-1.09985 1.35999-2.19995 1.78998-3.26978 4.17999 1.08984 8.26001 2.88989 11.98999 5.19971 8.33179 5.34416 13.67912 12.67027 15.89003 18.84009zm-29.97003-5.53003c1.15002.56006 2.51001 2.42017 3.17004 4.47998.32996 1.04004.51001 2.17017.29999 3.17017-.19 1.07007-.72003 1.8999-1.53998 2.26001-.83002.37988-1.89001.27002-2.77002.02002-.91003-.25-1.67999-.66016-2.29999-1.05005-1.20001-.72998-1.72003-1.48999-1.89001-1.48999.10999-.06006.21002-.1499.21997-.38013.02002-.23999-.06995-.63989-.12994-1.37988-.05005-.72998-.08002-1.87012.47998-3.40991.94328-2.59476 2.83299-3.0428 4.45996-2.22022zm3.19-22.11987c.12006.07007.24005.1499.37006.21997-.13-.04004-.26001-.08008-.39001-.12012.01-.02978.01995-.06982.01995-.09985zm39.92005 1.19995c-6.93513 4.99365-24.9305 1.72421-33.38-2.26001-1.87-.8999-3.81-1.97998-5.77002-3.25-.14001-.09985-.27997-.19995-.42999-.30005-.09998-1.70996-.44-3.09985-.84998-4.20996-.94-2.37012-1.98004-3.33008-2.54004-3.72998-.59998-.37988-.83997-.21997-1.06-.05005-.21997.17993-.37.39014-.21997 1 2.8335 13.2975-1.15363 18.93638-9.12 20.29004-3.24243.58654-8.46252.74082-11.41004-.69995-.03998-.01001-.07001-.03003-.10999-.05005-3.96825-1.98299-5.96493-7.20886-5.84003-11.72998 0-1.20895.25529-2.91061.73004-4.41992 1.97395-6.05178 7.4123-8.76706 13.28998-8.71997 1.59998-.01025 3.09998.16992 4.45001.46997h.01001c.08997.01001.17999.03003.26996.05981.78003.17017 1.5.38013 2.16003.62012.62.20996 1.17999.44995 1.67999.69995 1.07001.52002 1.90002 1.08008 2.56 1.48999.90002.7002 1.44 1.09009 1.54999.98999.10999-.07983-.22998-.65991-1-1.59985-.33997-.34009-.76001-.74023-1.26001-1.15015.97003.40015 2.13.8501 3.51001 1.33008 2.48999.86987 6.54004 1.84985 10 2.23999.73004.08984 1.44.1499 2.09003.18994.27997 1.61011 1.20001 2.57007 1.89996 3.26001 1.49005 1.38989 2.88 1.8501 3.79004 2.01001.92999.14014 1.42999.02002 1.66998-.1001.23999-.11987.25-.25977.23999-.3999 0-.13989-.02997-.27002-.23999-.38989-.21002-.13013-.59998-.23022-1.28998-.5-.67999-.29004-1.71002-.76001-2.85004-1.94995-.47998-.5-.96997-1.14014-1.16998-1.8501-.03998-.12012-.06-.25-.08002-.37012-.01996-.15991-.02997-.32983-.01001-.50977.06-.77002.47003-1.66016 1.26001-2.25 1.03003-.79004 3.29004-1.17017 5.44-.84009 1.07001.16992 2.16998.51001 2.96002 1.13989.88.6499 1.38 1.5 1.33002 2.39014-.02002.90991-.59003 1.81006-1.21002 2.48999-.63.69995-1.34003 1.20996-1.96002 1.58984-1.23999.78003-2.17999.89014-2.17999 1.05005-.02002.12012 1.04004.29004 2.53003-.33984.73999-.30005 1.59998-.76025 2.40997-1.49023.78998-.70996 1.66003-1.70996 1.85004-3.15991l.04999-.54004c-.02002-.17993-.04999-.35986-.07001-.55005-.03003-.37988-.21002-.70996-.34003-1.05981-.14996-.34009-.38995-.61011-.58997-.92017-.22003-.27979-.48999-.5-.73999-.75-1.09003-.96997-2.44-1.42993-3.71002-1.69995-1.28998-.23999-2.56-.29004-3.76001-.11987-1.17999.1499-2.31.50977-3.22998 1.17993-1.20001.91992-1.87 2.20996-2.02002 3.46997-.58002-.12012-1.19-.25-1.83002-.3999-3.32001-.74023-7.16998-1.91016-9.57996-2.75-2.49005-.86011-4.26001-1.56006-5.55005-2.06006.01001-.03003.02002-.05005.03003-.08008.04999-.11987.09998-.22998.15002-.3501.00122-.00269.00299-.00562.00421-.0083 1.45142.01611 3.42419-.16724 6.06244-.84985 2.52716-.63989 6.3656-1.96802 9.47949-3.38013 1.92163-.85962 3.56006-1.72705 4.50897-2.3252.36102.55444.78052.98535 1.1413 1.34131 1.49146 1.396 2.88135 1.85229 3.79242 2.01147.93195.14429 1.42847.01636 1.66797-.09961.24213-.12524.24792-.25928.24213-.39966-.00586-.14038-.03369-.27417-.24347-.39307-.20776-.12549-.59979-.22437-1.29199-.49805-.6767-.28613-1.70752-.76123-2.84296-1.95044-.55859-.59424-1.14008-1.35522-1.24866-2.21875-.77545-5.13555 11.23871-4.74911 10.98071-.06738-.02112.90894-.59503 1.80762-1.2146 2.48901-.62531.69873-1.34137 1.20923-1.96124 1.58667-1.25085.78564-2.18628.89038-2.1778 1.052-.01678.11865 1.03754.28906 2.5296-.3418.73981-.30273 1.59595-.75757 2.4071-1.48462.78857-.71729 1.65741-1.71509 1.84998-3.16138l.04816-.54126c-.01428-.18164-.04303-.36548-.06873-.55054-.36404-5.81348-15.61878-6.89337-14.36786 1.30249.09088.52563.25354.97559.45001 1.375-1.07379.31348-2.78015.90552-4.71887 1.53027-3.1897 1.04688-7.03351 2.13525-9.46338 2.75-1.85156.47559-3.30542.72778-4.47693.875.00073-.00098.00122-.0022.00195-.00317.23999-.36987.5-.73975.77002-1.09985 3.19-4.63989 7.60999-8.63989 12.53998-11.67993 8.52351-5.1004 17.67801-6.60728 23.95001-5.81006 10.61346 1.22155 12.26557 11.41805 6.65002 17.37988-.97003 1.04004-1.97003 1.78003-2.84003 2.30005-1.76001 1.03003-2.90997 1.26001-2.88 1.42993 0 .04004.16998.07007.48999.04004-.20001.06006-.26001.18994-.31.31006-.10999.27002-.10999.54004.78003 1.17993.85999.67993 2.72998 1.64014 5.62 4.22998 4.71048 4.5388 7.21603 9.34103 1.63006 13.3201z" fill="#202020"/></g><g><path d="m74.90138 64.39005c-.4234 0-.8172.04565-1.18494.12646-.15125-2.36938-1.75311-4.62646-4.81506-4.62646-3.30884 0-4.9143 2.64404-4.82141 5.21313-.61853-.29248-1.34314-.46313-2.17859-.46313-6.43451 0-6.44519 10 0 10 .95496 0 1.76331-.22534 2.43463-.60059-1.38812 2.96265.04523 7.35059 4.31537 7.35059 4.26971 0 5.70752-4.40137 4.31085-7.36426.565.22852 1.20764.36426 1.93915.36426 6.43451 0 6.44519-10 0-10zm-8.69079 7.60156c.37018-.79102.54419-1.68091.51221-2.5647.61853.29248 1.34314.46313 2.17859.46313.4234 0 .8172-.04565 1.18494-.12646.04443.6958.22949 1.37402.52448 1.99609-.56958-.23291-1.21991-.36963-1.95941-.36963-.95687.00001-1.76821.22486-2.44081.60157z" fill="#937b6f"/></g></g></svg>