<svg id="Layer_1" enable-background="new 0 0 136 136" height="512" viewBox="0 0 136 136" width="512" xmlns="http://www.w3.org/2000/svg"><g><g><path d="m62.23 110.73905c-2.21688 1.25742-4.94564.85251-6.88564-.66098-.91652-.72552-1.47081-2.96348-2.66474-3.21954-1.62018-.36224-3.87975 1.76955-5.81975 2.15365-1.21501.25607-2.30224-.17071-3.06965-2.23901-1.12991-3.09047.91652-5.62717-2.68608-7.14171-2.45161-1.02217-5.37215.61831-7.8451-.89518-.40492-.25503-.78875-.6183-.93787-1.08672-.23446-.80983.31982-1.64152.85277-2.3025 5.39349-6.9075 11.02119-13.62244 16.86228-20.16666 3.56018-3.98669 7.3335-8.18574 12.42851-9.59306 1.44947-.40491 3.00564-.57562 4.68983-.44759-.66098 6.971-.68232 14.00549-.08536 20.99835.51162 5.79789 1.34331 21.01917-4.8392 24.60095z" fill="#f9ed32"/></g><g><path d="m68.66077 64.5992h-.13166c.01881-.13212.01881-.26331.03762-.39452z" fill="#f9ed32"/></g><g><path d="m62.23 110.73905c-2.21688 1.25742-4.94564.85251-6.88564-.66098-.91652-.72552-1.47081-2.96348-2.66474-3.21954-1.62018-.36224-3.87975 1.76955-5.81975 2.15365.25581-4.00751 2.49429-7.93072 7.31216-9.57224 4.5834-1.57698 5.2868-13.53708 5.67064-17.31039.61804-5.94778.53295-11.12737 2.62206-16.5422 1.44947-.40491 3.00564-.57562 4.68983-.44759-.66098 6.971-.68232 14.00549-.08536 20.99835.51162 5.79788 1.34331 21.01916-4.8392 24.60094z" fill="#e2cc00"/></g><g><path d="m68.66077 64.5992h-.13166c.01881-.13212.01881-.26331.03762-.39452z" fill="#e2cc00"/></g><g><path d="m106.26634 98.68906c-.62092 2.50533-2.82009 4.22834-5.28423 4.5992-1.17185.16789-3.20266-.98441-4.22286-.28551-1.39527.93813-1.40341 4.08416-2.47312 5.77741-.65855 1.07128-1.72984 1.57281-3.78451.69537-3.05841-1.32341-3.49635-4.595-7.11988-3.00313-2.45963 1.08919-3.28943 4.37854-6.12497 5.14103-.46957.11982-1.00402.14871-1.45214-.06814-.75848-.39207-.98337-1.37897-1.09768-2.23123-1.31723-8.77708-2.32975-17.59208-3.06811-26.44491-.44853-5.39443-.90457-11.09346 1.61192-15.8182.71257-1.34731 1.6716-2.6098 2.93938-3.75819 4.66192 5.34371 9.81625 10.26164 15.37089 14.69619 4.61704 3.66452 16.3818 13.66088 14.70531 20.70011z" fill="#f9ed32"/></g><g><path d="m106.26634 98.68906c-.62092 2.50533-2.82009 4.22834-5.28423 4.5992-1.17185.16789-3.20266-.98441-4.22286-.28551-1.39527.93813-1.40341 4.08416-2.47312 5.77741-2.76661-2.98076-4.08955-7.3597-1.93829-12.04401 2.03529-4.46703-6.26324-13.31875-8.76852-16.23038-3.93995-4.59909-7.8054-8.14615-10.32854-13.45483.71257-1.34731 1.6716-2.6098 2.93938-3.75819 4.66192 5.34371 9.81625 10.26164 15.37089 14.69619 4.61702 3.66453 16.38178 13.66089 14.70529 20.70012z" fill="#e2cc00"/></g><g><path d="m124.18282 53.71244c1.57932 1.8126 1.70705 4.40731.65787 6.48024-.50542.98128-2.48457 1.90974-2.50208 3.05972-.03748 1.56328 2.36301 3.25247 3.07883 4.97205.46274 1.07407.26674 2.15733-1.51521 3.25098-2.6657 1.61865-5.40341.20164-6.14626 3.80975-.49763 2.45378 1.56803 4.8447.61736 7.40968-.16237.42133-.42932.84335-.83744 1.06824-.70992.36726-1.58595.01038-2.29925-.35858-7.42176-3.69331-14.7077-7.63872-21.87428-11.81291-4.36618-2.54459-8.96926-5.24641-11.21996-9.68832-.64453-1.26283-1.09093-2.66777-1.28313-4.24654 6.60611-.6878 13.15306-1.97797 19.547-3.83123 5.29824-1.55196 19.30231-5.15412 23.77655-.11308z" fill="#f9ed32"/></g><g><path d="m124.18282 53.71244c1.57932 1.8126 1.70705 4.40731.65787 6.48024-.50542.98128-2.48457 1.90974-2.50208 3.05972-.03748 1.56328 2.36301 3.25247 3.07883 4.97205-3.7748.51006-7.83763-.8261-10.25494-4.96852-2.31395-3.93798-13.56842-2.36034-17.14904-2.0121-5.64645.53691-10.44842 1.57995-15.87106.65945-.64453-1.26283-1.09093-2.66777-1.28313-4.24654 6.60611-.6878 13.15306-1.97797 19.547-3.83123 5.29824-1.55195 19.30231-5.15411 23.77655-.11307z" fill="#e2cc00"/></g><g><path d="m100.67085 15.5274c2.41894.06246 4.49561 1.69542 5.40662 3.83305.42555 1.01825-.14706 3.06783.72515 3.84518 1.17682 1.06664 4.03451.45281 5.8209 1.07827 1.12595.37936 1.83092 1.24152 1.51336 3.25823-.48842 3.00534-3.35612 4.04418-1.06648 6.98098 1.56204 1.99178 4.74136 2.08686 6.09444 4.4804.21823.39766.36903.87146.27663 1.31633-.1791.75793-1.02254 1.15455-1.76952 1.42537-7.66032 2.91473-15.42609 5.56353-23.2901 7.97384-4.79222 1.46746-9.85919 3.00181-14.73463 1.67678-1.38911-.37333-2.75867-.98452-4.09663-1.89526 3.76406-5.23777 7.02685-10.83327 9.75755-16.69249 2.25025-4.86595 8.5821-17.39507 15.36271-17.28068z" fill="#f9ed32"/></g><g><path d="m100.67085 15.5274c2.41894.06246 4.49561 1.69542 5.40662 3.83305.42555 1.01825-.14706 3.06783.72515 3.84518 1.17682 1.06664 4.03451.45281 5.8209 1.07827-2.0609 3.07074-5.7275 5.12225-10.4811 4.11695-4.52934-.94415-10.63011 8.24903-12.68916 11.07166-3.25642 4.44299-5.57523 8.61143-9.80604 11.92334-1.38911-.37333-2.75867-.98452-4.09663-1.89526 3.76406-5.23777 7.02685-10.83327 9.75755-16.69249 2.25025-4.86597 8.5821-17.39509 15.36271-17.2807z" fill="#e2cc00"/></g><g><path d="m55.9953 9.88277c1.28212-1.84461 3.60492-2.56345 5.72369-2.10059 1.00498.22701 2.29889 1.79402 3.34529 1.54219 1.4256-.33 2.40819-2.8857 3.80332-3.93073.86785-.66682 1.89456-.7423 3.29312.6086 2.07642 2.02493 1.41761 4.82111 4.85796 4.65077 2.33796-.12265 4.03315-2.53999 6.57543-2.28037.41901.04824.86256.19054 1.15968.5059.49514.55411.37185 1.42639.20041 2.15487-1.65173 7.5458-3.56302 15.02788-5.70897 22.45569-1.30875 4.52567-2.70589 9.30136-6.21792 12.36265-.9974.87452-2.1689 1.60361-3.55606 2.14414-2.13313-5.79152-4.79877-11.38956-7.93986-16.71874-2.61756-4.41214-9.08307-16.19045-5.53609-21.39438z" fill="#f9ed32"/></g><g><path d="m55.9953 9.88277c1.28212-1.84461 3.60492-2.56345 5.72369-2.10059 1.00498.22701 2.29889 1.79402 3.34529 1.54219 1.4256-.33 2.40819-2.8857 3.80332-3.93073 1.32499 3.2821 1.0423 7.25328-2.16019 10.39499-3.04079 3.00101.96123 12.77326 2.09515 15.91807 1.77705 4.96205 3.81991 9.04552 4.22475 14.14506-.9974.87452-2.1689 1.60361-3.55606 2.14414-2.13313-5.79152-4.79877-11.38956-7.93986-16.71874-2.61756-4.41215-9.08307-16.19046-5.53609-21.39439z" fill="#e2cc00"/></g><g><path d="m16.59683 35.62534c-.55366-2.50585.72894-4.91611 2.87359-6.20652 1.02376-.60601 3.45263-.35131 4.09318-1.37864.88407-1.38902-.53539-4.23664-.29943-6.18221.13218-1.22385.91021-2.09254 3.23678-2.09559 3.47101.01111 5.36613 2.79936 8.04515-.0444 1.81458-1.93814 1.10133-5.23383 3.41694-7.02228.38641-.29035.87494-.52362 1.39392-.50124.88978.06049 1.54854.86563 2.04243 1.59189 5.21785 7.4252 10.16687 15.00279 14.87573 22.72084 2.86802 4.7035 5.88127 9.67949 5.66247 14.92674-.05767 1.49435-.38514 3.00755-1.05417 4.53725-6.79979-3.02452-13.86862-5.47322-21.09391-7.32973-5.99594-1.52369-21.57312-6.00182-23.19268-13.01611z" fill="#f9ed32"/></g><g><path d="m16.59683 35.62534c-.55366-2.50585.72894-4.91611 2.87359-6.20652 1.02376-.60601 3.45263-.35131 4.09318-1.37864.88407-1.38902-.53539-4.23664-.29943-6.18221 3.94893 1.6227 7.17705 5.06914 7.28273 10.13826.11597 4.82773 11.92046 9.61445 15.59274 11.27593 5.78435 2.63112 11.02156 4.33992 15.79796 8.16177-.05767 1.49435-.38514 3.00755-1.05417 4.53725-6.79979-3.02452-13.86862-5.47322-21.09391-7.32973-5.99595-1.52369-21.57313-6.00182-23.19269-13.01611z" fill="#e2cc00"/></g><g><path d="m21.74102 88.29568c-2.46832-.73718-4.08228-3.01086-4.33575-5.48489-.1121-1.17616 1.13244-3.14635.48383-4.19638-.86942-1.43522-4.00537-1.59174-5.64294-2.73803-1.03691-.70706-1.48636-1.79871-.5147-3.80564 1.4636-2.98656 4.74577-3.26881 3.32973-6.95627-.96981-2.50343-4.20988-3.48584-4.83626-6.34859-.0973-.47379-.1009-1.00794.13643-1.44445.42664-.73766 1.42111-.91529 2.27613-.98904 8.81216-.89914 17.64774-1.49271 26.50811-1.81119 5.39896-.19268 11.10193-.37848 15.6934 2.35313 1.30954.77393 2.5229 1.78955 3.60794 3.1076-5.54715 4.39547-10.69305 9.30193-15.37596 14.63025-3.87101 4.42993-14.39151 15.68686-21.32996 13.6835z" fill="#f9ed32"/></g><g><path d="m21.74102 88.29568c-2.46832-.73718-4.08228-3.01086-4.33575-5.48489-.1121-1.17616 1.13244-3.14635.48383-4.19638-.86942-1.43522-4.00537-1.59174-5.64294-2.73803 3.10208-2.61747 7.52993-3.72977 12.09831-1.36417 4.35725 2.23973 13.57314-5.61567 16.59397-7.97588 4.77076-3.71085 8.48922-7.39706 13.90056-9.66201 1.30954.77393 2.5229 1.78955 3.60794 3.1076-5.54715 4.39547-10.69305 9.30193-15.37596 14.63025-3.87101 4.42994-14.39151 15.68687-21.32996 13.68351z" fill="#e2cc00"/></g><g><g><path d="m74.15462 47.79013c-5.52878-1.47741-11.86229.80371-15.17936 5.46709-.94703 1.3314-1.67478 2.88642-1.68712 4.52023-.01828 2.41974 1.56499 4.63478 3.58334 5.96961 2.01835 1.33482 4.42752 1.92964 6.80202 2.39573 3.72787.73174 7.68405 1.18625 11.25036-.12291s6.56108-4.87568 6.0331-8.63782c-.33229-2.36768-1.93202-4.34793-3.60184-6.05907-1.14117-1.16941-2.37184-2.29593-3.85371-2.9843-1.95102-.90631-4.17068-.98178-6.3211-1.04165" fill="#a97c50"/></g><path d="m125.31764 64.64009c-.31-.38989-.57001-.70996-.76996-1-.04004-.07007-.07001-.13989-.09003-.16992-.01001-.01001-.01001-.02002-.01001-.02002v-.01001l.01001-.01001h.01001l.07001-.07007.20996-.18994.51001-.43994c.35999-.34009.84003-.68994 1.34003-1.54004 1.85294-3.59066.92001-7.70321-2.09003-9.8999-1.5-1.09009-3.08997-1.56006-4.53998-1.84009-2.91998-.52002-5.5-.34009-7.85999-.09985-8.30178.96702-11.40827 2.91547-25.57001 6.10986-.01001 0-.03003.01001-.04004.01001-.27377-.82165-.71222-1.71488-1.47998-2.79004 4.99244-.1325 15.45959-3.45458 20.23999-4.94995 4.04999-1.27002 8.27002-2.68994 12.5-4.19995l.83002-.30005c.39001-.16016.91998-.41016 1.29999-.70996.81-.59009 1.34003-1.53003 1.32001-2.52002 0-.48999-.10999-.98999-.32001-1.45996-.08997-.22998-.25-.43994-.37-.67017-.13-.22998-.27997-.44995-.40997-.58984-.49005-.62012-1.09003-1.11011-1.66003-1.48022-1.14996-.72998-2.21997-1.15991-2.95996-1.62988-.38-.22998-.66003-.45996-.86005-.69995-.09998-.09009-.20001-.27002-.31-.42017-.07001-.13989-.16998-.28979-.19-.37988-.07001-.22998-.06-.22998-.01001-.41992.06-.18994.25-.56006.52002-1.01001.54999-.88989 1.29999-2.22998 1.44-3.67017.03003-.35986.08002-.68994.07001-1.06982-.03998-.41992-.03003-.78003-.16998-1.23999-.23004-.92993-.87-1.82007-1.71002-2.37012-.77997-.45996-1.56-.67993-2.16998-.77002-.65002-.10986-1.19-.12988-1.71002-.15991s-.96997-.05005-1.38-.09009c-.27997-.03003-.60999-.08984-.69-.10986-.01295-.20777-.01884-.29788-.02997-.52002-.01001-.42017.01001-.88013-.07001-1.56006-.02002-.30005-.15002-.81006-.31-1.15991-.12-.28003-.23999-.53003-.38-.77002-.53998-.97998-1.26001-1.82007-2.08002-2.47998-1.47998-1.22021-3.45996-1.89014-5.33997-1.75-1.88.12988-3.44.88989-4.69 1.70996-2.49005 1.69995-4.11005 3.72998-5.53003 5.62012-2.77002 3.83984-4.52997 7.3999-5.96002 10.48975-2.65997 6.03003-4.83997 9.8501-6.27997 12.5-.54999.99023-1 1.80005-1.35999 2.47021-.38-.07007-.73004-.11011-1.04004-.14014-.67999-.04004-1.22998-.04004-1.69-.01001.93005-.75 1.91003-1.76001 2.79004-3.05981 1.57001-2.26025 2.73999-5.31006 3.78998-8.61011 2.26189-6.91131 4.49565-14.7815 6.41003-22.81006.09998-.34009.39996-1.57983.20996-2.44995-.15997-.91016-.72998-1.73999-1.56-2.16992-.40997-.20996-.85999-.37012-1.34998-.41016-.23999-.01001-.48004-.04004-.72003-.0498-.13581 0-.26357.0102-.67999.03979-.76001.1001-1.44.34009-2.02002.6001-1.14996.53003-2.00995 1.11987-2.70996 1.36987-.35004.13013-.60004.18018-.89001.18018-.35999.00977-.60999-.05005-.71997-.1001-.09003-.05005-.12-.06006-.28003-.31006-.15997-.23999-.33997-.65991-.57001-1.1499-.56991-1.23904-1.22601-2.22296-2.27997-3.07007-.13-.11011-.25-.21997-.40002-.32007l-.51001-.30981c-.19-.09009-.32996-.19995-.56-.27002-.22998-.08008-.45996-.14014-.69-.19995-.92999-.19019-1.94-.02002-2.71997.48975-.79999.48022-1.19.9502-1.58002 1.39014-.37.43994-.67999.85986-.94 1.21997-.27997.38013-.52002.69019-.72998.92993-.04004.05005-.09003.1001-.10999.12012h-.01001s0 0-.01001-.01001c-.07001-.05005-.39001-.26001-.65002-.43994-.39996-.25-.76996-.59009-1.64996-.88013-.45001-.12988-.64001-.13989-.92999-.17993-.27002-.04004-.54004-.06006-.81006-.07007-1.07996-.02979-2.13995.15015-3.09998.53003-1.76001.67017-3.25 2.13989-3.90002 3.79004-.64996 1.61987-.79999 3.20996-.70996 4.59009.14996 2.81006.92999 5.09985 1.67999 7.18994 1.58002 4.15991 3.42999 7.40991 5.07001 10.15991 4.42229 7.1931 6.38298 11.767 8.14996 14.89014-1.58997.19995-3.41998.67993-5.23999 1.65991-.06.03003-.10999.06006-.16998.1001-.08002-.75-.22998-1.53003-.45001-2.34009-.78998-3.11011-2.53998-6.46997-4.57001-9.97998-4.44398-7.74418-9.48102-15.81572-14.75-23.56006-.20996-.29004-.42999-.59985-.73999-.91992-.12-.13989-.35999-.36011-.58002-.52002-.22998-.17017-.46997-.32007-.72998-.43994-1.02002-.48999-2.26001-.38013-3.25.20996-1.75 1.04004-2.46997 2.70996-2.87 4.02002-.39001 1.32983-.63 2.42993-1.02997 3.05981-.10004.16016-.21002.28027-.32001.40015-.15002.13013-.30005.32007-.44.38989-.29004.2002-.45001.25-.66003.26001-.41998.06006-1.53998-.42993-2.82996-.82983-.64001-.20996-1.38-.36011-2.14001-.42017-.38-.03979-.75-.03979-1.12-.01001-.39001.04004-.72003.02002-1.16003.14014-.42999.10986-.81.15991-1.31.44995-.23999.13013-.46997.22998-.69.40991-.20996.18018-.40997.38013-.59998.58008-.72003.87012-.97003 2.07007-.95001 2.82007-.01001.80005.09998 1.45996.20001 2.05005.09998.54004.20001 1.06982.29999 1.58984.04999.26001.04999.43018.08002.64014.01001.09985 0 .17993.01001.22998v.02002c-.01001 0-.01001.00977-.02002.00977h-.01001c-.15997.04004-.35999.08008-.58997.12012-.47003.08008-.99005.12988-1.70001.32007-.31.07007-.85004.29004-1.20001.51001-.27002.16992-.53998.3501-.78998.5498-.49005.39014-.95001.83008-1.35004 1.32007-.78998.96021-1.34997 2.11011-1.59997 3.30005-.22003 1.09009-.21002 2.22998.06 3.27002.23999 1.05005.71997 1.94995 1.23999 2.72998 1.04999 1.57007 2.34003 2.6499 3.59003 3.59009 2.52997 1.82983 5.06 3.01001 7.41998 4.01001 4.75 1.95996 8.95996 3.09985 12.58997 3.97998 6.26697 1.5311 10.66645 2.93272 16.71002 4.90991-.16998.45996-.29999.95996-.38 1.46997-.00024.00146-.00037.00293-.00061.00439-1.25055-.95581-2.99719-1.91846-5.2074-2.53052-3.00873-.88013-6.72546-1.04541-10.69623-.99976-3.97437.02661-8.34277.13062-12.92596.33667-4.58295.20508-9.37964.51099-14.20776.91699-.28741.02417-.62933.04785-1.01257.10767l-.2926.05127c-.11816.02417-.26636.05811-.39575.09473-.26788.07251-.5271.16992-.77557.28711-.99441.46434-1.72463 1.41795-1.86031 2.5117-.07623.53735-.03363 1.11914.10352 1.64233.11029.46997.25098.82764.42584 1.22656.36487.7583.85297 1.38843 1.33423 1.9126.96863 1.04224 1.92584 1.76904 2.47607 2.46899.28363.35449.44794.63867.5658.9834.15076.41284.18103.74683.16461.93726-.02576.18066-.06543.2832-.29675.57324-.22797.27783-.62079.63281-1.07391 1.05737-.45172.42603-.94409.93018-1.38812 1.51685-.44586.59131-.81708 1.28198-1.07019 1.96802-1.05816 2.75909-.16662 4.52666 2.06976 5.95166.31921.1604.64453.31519.94366.43506.59332.23438 1.1568.41553 1.64807.57617.51105.16431.94519.31592 1.30231.4707.10529.03711.15839.07666.22687.1123l.14868.07544.00439.00903c-.00421.00879.00317.0105-.00348.01563-.00037-.02173-.01129.07764-.03528.16309l-.07104.27856-.1944.67065c-1.30346 5.27758 2.77482 9.52345 6.94525 9.80737 1.95233.16699 3.6579-.28931 5.12006-.85156 2.93695-1.16479 5.16028-2.80029 7.15594-4.36328 3.93793-3.18848 6.81989-6.34277 9.22156-9.10767 5.88815-6.92615 10.35106-10.95423 13.00159-13.70947.84505 1.26414 2.01484 2.32143 3.29974 3.09961-.87.30981-1.78003.72998-2.71002 1.28979-2.69 1.54004-5.34998 4.08008-8.03998 6.94995-2.70001 2.8501-5.62 6.04004-8.62 9.46021-2.99005 3.40991-6.06 7.03979-9.07001 10.76978-.17999.22021-.40002.48022-.62.79004-2.34094 3.58621.46455 6.25549 4.52997 6.37012 7.46218.10595 4.86001-.03975 5.66998 4.82007.63541 4.21491 3.52539 6.41213 8.86005 3.57007.46997-.25.88-.46021 1.22998-.6001.09998-.05005.15997-.06006.22998-.09009l.14001-.05005.01001.01001c.01001 0 .01001 0 .01001.01001 0 0 .04999.05005.07996.12012l.15002.23999.34998.59985c.69739 1.08248 1.16273 1.91758 2.81006 2.70996.09998.06006.20996.11011.31995.16016-5.04999 19.33008-4.34998 20-3.35999 20.26001s1.92999.05005 7.32001-19.45996v-.01001c1.75-.07007 3.47998-.79004 4.70001-1.8999 1.45996-1.28027 2.31-2.81006 2.90997-4.24023 1.17999-2.8999 1.53003-5.60986 1.78003-8.10986.41998-4.98999.14001-9.20996-.17999-12.82007-.29004-2.81006-.47003-5.25-.58002-7.38013.90997-4 1.69-7.63989 2.22998-10.43994.38.05005.76001.09009 1.14001.13013-.23999.57007-.45001 1.17993-.63 1.84009-.79999 2.78979-.96002 6.23975-.77997 9.95996.37768 8.22076 1.20908 17.33586 2.19995 25.43994.15002 1.13989.30005 2.29004.44 3.43994.04004.28003.09003.62988.17004 1 .08997.3999.27997.98999.54999 1.41992.52997.90015 1.47998 1.52002 2.53998 1.6001.51001.04004 1.06-.02002 1.56-.16992.47003-.13013.79004-.27002 1.17004-.45996.70996-.37012 1.31-.8501 1.81-1.33008.98999-.97998 1.64996-1.93018 2.31-2.57007.31995-.30981.62-.53003.90997-.67993.13-.07007.34998-.12988.52002-.19995.16998-.04004.33997-.1001.45001-.1001.26996-.02002.33997 0 .53998.1001.20001.10986.52002.38989.89996.76001.74005.72998 1.78003 1.75 3.11005 2.35986.32996.16992.66998.26001 1 .39014.31.12988.70996.20996 1.12.25977.20996.02002.38.08008.62.06006.23999 0 .47998-.02002.71997-.0498.24005-.01025.48004-.07007.73004-.17017.25-.09985.5-.18994.71997-.30981.90002-.56006 1.47998-1.3501 1.79004-1.99023.33997-.65991.51996-1.23975.69995-1.7998.31-1.07007.54004-2.06006.80005-2.6001.04999-.12012.06-.12988.06995-.12988h.02002l.09998.00977c.32001.06006.75.17017 1.25.29004.5.1001 1.13.28003 2.10004.17017 1.79999-.27002 3.38-1.05005 4.60999-2.17993 1.56-1.39014 2.51001-3.49023 2.54999-5.4502.07001-1.96997-.45996-3.6499-1.09998-5.08984-1.29999-2.88013-3.03998-5.03003-4.70001-6.9502-3.38-3.79004-6.66998-6.52979-9.54999-8.7998-5.62-4.34009-9.10999-7.61011-11.53003-9.81006.78003-.43994 1.48004-.96997 2.10004-1.56006.16998.20996.34998.41016.53998.62012 1.94 2.19995 4.81 4.19995 7.97003 6.1499 3.14996 1.96997 6.65997 4.08008 10.38995 6.20996 3.72003 2.12988 7.67004 4.29004 11.69 6.39014.24005.12988.52002.27979.89001.42993.47003.19995.97998.34985 1.48999.37988 1.01001.09009 2.03003-.32007 2.67999-1.09985.33002-.40015.58002-.84009.75-1.36011.10004-.30981.17004-.47998.20001-.67993.04004-.19995.08002-.3999.10004-.6001.2608-2.08636-.69547-4.06631-.81-5.35986-.03003-.41992-.02002-.68018.06995-1.01001.09003-.40015.24005-.62012.32001-.73999.10004-.09009.17004-.15015.51001-.26001.32001-.1001.83002-.17993 1.40002-.29004 1.14996-.19995 2.64001-.68994 3.73999-1.57007.27997-.16992.58002-.46997.85999-.77002.28003-.23999.56-.72998.79004-1.15991.12-.20996.16998-.47998.23999-.71997.49138-2.04757-.79355-3.77278-2.16004-5.36015zm-45.23999-19.25c1.78998-2.5 4.34003-6.37988 7.23999-12.44995 1.45001-2.8999 3.23004-6.28003 5.77002-9.70996 1.27997-1.68018 2.77997-3.43018 4.56-4.62012 1.81-1.20996 3.65002-1.45996 5.23999-.16992.41998.33008.81.78003 1.09003 1.29004.07996.12012.13995.27002.19995.38989.01001.04004 0-.05005.02002.09009.03003.19995.03003.64014.04004 1.12012.10736 2.69787.95046 4.08296 4.40997 4.52979.56.05005 1.08002.06006 1.54999.08008.91998.02002 1.79999.16992 1.96002.28003 0 .03003.01996 0 .03998.09009.04004.02979.02002.19995.04999.29004.01001.13989-.02997.33984-.02997.5-.04999.66992-.34003 1.26978-.88 2.20996-.26001.47998-.62 1.0498-.87 1.90991-.26001.84985-.19 1.98999.14996 2.78003.16003.41992.36005.73999.56 1.06982.22003.30005.40002.59009.69.89014.54004.58008 1.15002 1.02002 1.73004 1.35986 1.14996.66016 2.17999 1.04004 2.91998 1.5.64248.38239.83913.68921.94.79004l.03998.05005c.02002.03003.04004.07007.05005.11011.01996.08008-.03003.16992-.10004.21997-.04999.03003-.02997.03003-.14996.09009l-.73004.28979c-4.14001 1.64014-8.26996 3.19995-12.23999 4.63013-6.17636 2.24585-15.9919 5.87593-20.44 6.10986-.04999 0-.10999.01001-.15997 0-.08002-.07983-.16003-.15991-.23004-.23999-1.46997-1.53003-2.85999-2.76978-4.35999-3.57007-.13-.06982-.25-.12988-.37-.18994.39002-.48999.82001-1.06006 1.31-1.71998zm-17.11999-15.3999c-1.48999-2.67993-3.17999-5.84009-4.56-9.63013-.65997-1.87988-1.29999-3.95996-1.38-6.00977-.08002-1.03027.09003-1.99023.39001-2.77002.29999-.77002.87-1.30005 1.66998-1.63013.44-.17993.95001-.27002 1.47998-.26001.13.01001.26001.02002.40002.03003.08002.02002.21997.04004.27002.04004 0 0 0 0 .01001.01001h.00995c.06.02979.30005.16992.54004.33008 4.13701 2.57147 5.01447.97488 7.76996-2.62012.22003-.27002.49005-.51001.52002-.54004.08002.02002-.08997-.16992.47003.25 1.05291.79002 1.23772 1.92386 2.09998 3.26001.38.61011 1.10999 1.34985 1.97998 1.68994.85004.34009 1.65002.39014 2.32001.36011.75-.02002 1.52002-.21997 2.14001-.47998 1.23999-.53003 2.09998-1.18018 2.84998-1.53003.37-.19019.70001-.30005.98004-.3501.16998-.02002.17999-.03003.27997-.01001.08002.02002.13.09009.15002.16992 0 .14014.04999-.02979-.09003.65015-1.76933 8.63609-3.34486 15.24026-5.29999 22.90015-.84003 3.32983-1.72998 6.22998-2.96002 8.40991-1.19995 2.18994-2.67999 3.61987-3.82001 4.44995-.01996.01001-.03998.03003-.06.04004-.34998-.04004-.72998-.07007-1.12994-.08008-.14001-.88989-.49005-2.27002-1.25-4.3999-.99005-2.72997-2.63-6.76-5.78002-12.28002zm-7.54999 22.13989c-3.10004-1.37988-7.78003-3.29004-14.98004-5.27002-3.5-.94995-7.53998-2.13989-11.95996-4.00977-2.19-.9502-4.5-2.08008-6.58002-3.6001-1.01001-.76001-1.98999-1.63013-2.60999-2.59009-.65002-.95996-.90002-1.90991-.70001-2.8999.12-.53003.37-1.08008.78003-1.58008.19995-.23999.44-.46997.69995-.67993.13-.11011.27002-.20996.41003-.30005.08002-.03003-.01001-.01001.15997-.06006.26001-.07983.75-.1499 1.29004-.23999.26996-.0498.57001-.10986.90997-.18994.51001-.12988.98999-.33008 1.41998-.59009.87-.55005 1.41003-1.51001 1.53003-2.55005.17999-1.17993 0-1.67993-.08002-2.32983-.20996-1.17993-.5-2.26001-.48999-2.92993 0-.37012.03003-.3501.03003-.38013.00995-.01001.02997-.05005.39996-.13013.10999-.05981.37-.03979.57001-.06982.21002-.03003.41998-.03003.62-.01001.41998.03003.84998.09009 1.34003.23999 1.27246.34433 2.52056.98896 4.09998.90991 1.01001-.03979 2.01001-.5 2.66998-1.03979.38-.26025.62-.54004.92004-.83008.29999-.33008.56995-.68994.77997-1.06006.84003-1.5 1-2.87012 1.31-3.8999.15002-.52002.31-.9502.5-1.28003.10999-.15991.21002-.31006.33002-.44019.10999-.09985.29999-.27979.29999-.27979.07001-.05005.16998-.08008.27002-.04004.01996.01001.03998.02002.06.03003.02997.01978.01996 0 .09998.08984.13.12012.28003.30005.44.51001 5.37834 7.42854 10.90189 15.57947 15.54004 22.78003 2.20996 3.38013 4.04999 6.44019 5 9.23999.32996.93018.56 1.82007.68994 2.66016-1.38995.94995-2.69995 2.19995-3.76996 3.77002-.58002-.29002-1.25-.61009-2-.95018zm-2.79834 10.85767c-2.59552 2.06738-6.37225 5.30761-11.24542 10.71801-2.38116 2.59277-5.23254 5.57715-8.88385 8.46265-1.82269 1.40869-3.88049 2.84326-6.13318 3.71021-1.11548.43311-2.27832.68237-3.28876.58472-1.00336-.07959-1.88483-.53564-2.57495-1.35693-.50927-.60181-.84939-1.38515-.98102-2.1001-.02106-.07983-.02679-.16235-.03937-.24414-.01398-.09399-.02307-.15796-.01721-.13403-.02423.04419.05591-.38745.18042-.79883.16007-.58151.23085-.78773.31824-1.18994.03656-.15601.06342-.30371.1051-.57178.13055-.97412-.00122-2.04517-.68848-2.79761-.27264-.42554-.71143-.70508-1.09686-1.0354-.20258-.15186-.36829-.21069-.52905-.30298-.1626-.08374-.33563-.17603-.47748-.22705-.60583-.25537-1.17615-.43604-1.68201-.59326-.52496-.16333-.98767-.30933-1.40717-.46729-.20544-.07886-.37311-.16113-.54584-.23804-.10681-.08057-.3028-.15649-.32697-.21411-.17908-.13477-.06891-.05981-.11853-.14355.00616-.02954.00287-.05688-.00995-.08691-.01874-.02563.02887-.12134.03387-.1792.01416-.06689.02429-.13477.03076-.20459.0238-.08105.07245-.17896.10541-.26831.2522-.75684.6911-1.33008 1.4682-2.09106.38104-.38062.86414-.80371 1.37414-1.43799.50916-.61084 1.02264-1.60767 1.08093-2.61255.0683-.98755-.14862-1.8396-.41138-2.53857-.28064-.77685-.75824-1.51782-1.24359-2.0769-.9903-1.1377-1.99933-1.83936-2.6756-2.55859-.3421-.35229-.59985-.68628-.77179-1.01245-.06909-.15405-.15564-.35547-.18243-.47607-.02734-.05713-.02832-.08716-.03247-.13574-.00653-.09082.04938-.17993.13428-.22217l.06549-.02905.04358-.01343.1524-.03149c.21216-.0415.47205-.06982.78467-.10474 4.77454-.54785 9.52118-1.01709 14.06055-1.40381 4.53918-.38794 8.87195-.69238 12.81537-.93481 3.93121-.26074 7.42163-.3186 10.24805.26514 2.35461.45239 4.18689 1.3103 5.49023 2.14478 0 .13058 0 .26027.00995.39038.04004.68994.19 1.36987.41003 2.01001.00018.00049.00049.00098.00067.00171-.86008.53487-2.0051 1.33517-3.54898 2.54586zm12.57831 35.88232c-.23999 2.27002-.63 4.71997-1.54999 6.92017-.45001 1.08984-1.07001 2.08984-1.83002 2.73999-.25995.22998-.53998.41992-.82996.55981-.57001.27002-1.20001.39014-1.88.34009-.76851-.03979-1.54519-.32793-2.17004-.72998-.01996-.01001-.02997-.02002-.04999-.03003-1.03667-.83035-1.66293-3.75046-4.13995-3.80005-1.35688-.27647-2.9389.54715-4.15002 1.21997-6.8773 3.86892 1.07071-8.20806-8.94-8.61987-1.48999-.07007-2.67999.16992-3.65997.15991-2.7551 0-1.76452-.88885-1.30005-1.5 2.88-3.77979 5.79004-7.48999 8.63-11 2.83002-3.51001 5.58002-6.81006 8.10004-9.79004 2.50995-2.98975 4.85999-5.52002 7.20996-7.13989 1.15002-.82007 2.29004-1.40991 3.33002-1.83008 1.15002.53003 2.33002.91016 3.46002 1.21021.12.02979.25.05981.37.08984-.17004.91992-.35004 2.12988-.5 3.69995-.21002 2.26001-.40002 5.29004-.33002 9.33008.03003 1.80005.10999 3.81006.28003 6.04004.08997 1.47998.17999 3.05981.19995 4.75.01001.01001.01001.01001 0 .02002.01001.01001.01001.03003 0 .03979v.01025c.01001.00977.01001.00977 0 .02002.01001.00977.01001.00977 0 .02002.05004 2.25001-.00001 4.67994-.25001 7.26978zm2.97003-28.17993c-.02002-1-.04004-1.83008-.07001-2.52002.27997.07007.57001.12012.85999.16992-.25.72022-.52002 1.51026-.78998 2.3501zm22.58002 9.05005c2.70996 2.26001 5.82996 4.96997 8.88995 8.48999 1.5 1.76001 3.03003 3.75 4.01001 5.95996.47998 1.1001.78998 2.25.73999 3.27002-.03998 1.01001-.45001 1.90991-1.23999 2.64014-.60999.56982-1.5 1.01978-2.41998 1.15991 0 0 0 0-.01001 0-.06 0-.32001-.02002-.63-.1001-.40002-.09009-.89001-.21997-1.51001-.32983l-.25-.03027c-.12-.01978-.22998-.02979-.34998-.02979-.23999-.02002-.47998-.02002-.71002.01001-.47998.03979-.94.15991-1.35999.38989-.22003.1001-.38.29004-.56.43994-.17999.16016-.38.29004-.51001.5-.28998.39014-.62.81006-.71997 1.12012-.56 1.27002-.72003 2.29004-.99005 3.19995-.12994.42993-.25995.84009-.39996 1.11011-.14001.31006-.27002.35986-.25.38989-.03003-.04004-.02002.07007-.32001 0-.12-.02002-.26001-.02002-.45001-.11011-.16998-.05981-.37-.09985-.52997-.17993-.67004-.30005-1.27002-.80981-2.13-1.62988-.42999-.39014-.94-.88013-1.73004-1.31006-.77997-.43994-1.88995-.61987-2.73999-.48999-.45001.05005-.82001.16992-1.20001.28003-.34998.13989-.67999.25-1.04999.45996-.71997.38013-1.32001.88013-1.81 1.38013-.95001.98975-1.58997 1.95996-2.22998 2.60986-.32001.33008-.63.58008-.92999.75l-.23999.12012c-.06.02002-.19.05981-.20001.06982-.04999.03003-.08002.03003-.13.04004-.09003.01001-.16998-.04004-.22003-.12012-.02997-.05981-.02997-.01978-.06995-.17993-.06006-.18994-.10004-.40991-.14001-.69995-.87453-5.4898-1.57525-9.97177-2.42004-16.62012-.53998-4.23975-1.00995-8.27979-1.38995-11.91992-.38-3.61987-.42999-6.83984.07996-9.44995.14001-.76001.32001-1.45996.54004-2.09985.07001.00977.13.00977.20001.00977 1.89996.06006 3.75995-.13989 5.44-.6499 3.51874 4.18978 7.70507 8.08709 11.93998 11.55004zm-11.84003-15.92016c-.17999.09009-.38.17017-.58002.25-.98628.39138-2.0416.60479-3.08997.7002-.33002.04004-.67004.06006-1.02002.06982-3.59383.14741-11.41628-.91596-14.02002-3.95996-3.09861-3.53548-.00164-8.18778 3.60004-10.47998 2.2581-1.51851 5.01527-2.34053 7.63995-2.45996.07001.05005.15002.10986.26001.16992.10029.05641 11.77758 2.47965 11.32001 10.25 0 .05005 0 .11011-.01001.16016-.03998.75-.31 1.5498-.78998 2.34985-.09003.15015-.17999.29004-.28998.44019-.13.17993-.26001.34985-.42004.52002-.66998.77978-1.55999 1.48974-2.59997 1.98974zm44.75 5.33007c-.02002.03003.01001.02002-.10999.13013-.08002.07983-.14001.17993-.31.28003-.57001.46997-1.17004.69995-2.15002.90991-.48999.11011-1.07001.19995-1.78998.42993-.70001.21997-1.63.70996-2.23999 1.47998-.59003.75-.90002 1.58008-1.04004 2.26001-.17999.73999-.20001 1.62012-.09998 2.32007.20001 1.42993.64996 2.48999.83002 3.3999.09998.43994.13995.83008.10999 1.15015l-.03003.23999c-.01001.06006-.02997.11987-.02997.13989s-.02002.07007-.04004.1001c-.03998.07983-.12.11987-.20996.11987-.04999 0-.09003-.00977-.14001-.02979-.15002-.06006-.38-.16016-.64001-.29004-7.32281-3.52615-14.53517-7.2216-22.44-11.54004-3.25-1.75-6.03998-3.43994-7.97998-5.30005-.22998-.20996-.44-.41992-.64001-.63013.20001-.21973.37-.43994.53003-.66992 1.09998-1.5498 1.76001-3.38989 1.76996-5.19995v-.13989c3.10004-.32007 7.71002-.97021 14.28003-2.78003 3.17999-.84009 6.91998-1.77002 11.25-2.21021 2.14001-.20996 4.46997-.30981 6.67999.11011 1.09998.20996 2.13.58008 2.88 1.13013 3.66348 2.72193-.69875 6.20978-.76001 6.30981-.59998.69019-1.06 1.58008-.96997 2.51001.17474 1.34102.37161 2.05077 1.89996 3.81005.34003.3999.64001.75.89001 1.08008.14001.16992.20001.2998.32001.44995.04999.11011.14001.28003.15997.32007.04004.1299.02002.06008.02002.10988z" fill="#202020"/></g></g></svg>