<svg id="Layer_1" enable-background="new 0 0 136 136" height="512" viewBox="0 0 136 136" width="512" xmlns="http://www.w3.org/2000/svg"><g><g><path d="m125.73801 77.69501c-1.27479 2.35118-2.85804 4.51575-4.98613 6.05927-2.14861 1.56374-4.78043 2.47508-6.90852 4.02872-7.22729 5.29307-9.62263 15.85745-15.97609 22.23786-6.47676 6.51493-16.24332 9.61157-26.80145 8.66938-9.21143-.83902-18.91632-4.6609-27.65482-10.5649-2.10751-1.41911-4.16363-2.96211-6.13749-4.61942 5.25337.49715 10.06468-.80766 14.04326-3.22105.89441-.53861 1.75801-1.13943 2.55986-1.79183 4.79079-3.86334 8.02914-9.33241 10.59929-15.13273 3.50571-7.90268 6.61041-17.23458 15.22556-19.31671 3.9169-.95281 8.49178-.20684 12.6246-.67314 8.26558-.9427 13.71428-6.54578 17.31248-13.69289 1.74772-3.4901 3.06366-7.34333 4.03004-11.20668 1.56261-6.21452 2.61125-12.6981 3.11499-19.38954.01029-.07232.01029-.13453.02058-.20685.15417-2.01992 2.90936-2.34107 3.65989-.42482 1.99444 5.06498 3.85522 10.16081 5.38702 15.25664 1.1823 3.90481 2.16919 7.82024 2.88884 11.72506.49345 2.64097.85332 5.28194 1.05894 7.89206.70929 8.93894-.34958 17.50465-4.06085 24.37157z" fill="#a97c50"/></g><g><path d="m125.85107 33.70632c-2.02531 13.84815-7.34035 26.62919-20.60229 32.72993-5.58241 2.56865-11.175 2.51707-17.04524 3.77029-5.63374 1.21175-9.55064 4.70236-12.28532 9.6844-4.98606 9.10381-8.16279 19.1923-19.07048 22.52765-2.54957.77681-4.50291-.36262-5.53097-2.13372.89441-.53861 1.75801-1.13943 2.55986-1.79183 4.79079-3.86334 8.02914-9.33241 10.59929-15.13273 3.50571-7.90268 6.61041-17.23458 15.22556-19.31671 3.9169-.95281 8.49178-.20684 12.6246-.67314 8.26558-.9427 13.71428-6.54578 17.31248-13.69289 5.59265-7.98562 6.94969-19.71017 7.14503-30.59621.01029-.07232.01029-.13453.02058-.20685.15417-2.01992 2.90936-2.34107 3.65989-.42482 1.99444 5.06497 3.85521 10.1608 5.38701 15.25663z" fill="#bc8c61"/></g><g><path d="m125.73801 77.69501c-1.27479 2.35118-2.85804 4.51575-4.98613 6.05927-2.14861 1.56374-4.78043 2.47508-6.90852 4.02872-7.22729 5.29307-9.62263 15.85745-15.97609 22.23786-6.47676 6.51493-16.24332 9.61157-26.80145 8.66938-9.21143-.83902-18.91632-4.6609-27.65482-10.5649 1.36734-1.93698 3.8758-2.97273 6.46647-1.31543 7.66935 4.87836 16.66487 5.82106 25.52674 4.55722 9.17027-1.29469 15.3284-4.85763 20.62286-12.48064 4.65714-6.72228 8.71793-13.57859 15.11249-18.83018 6.16836-5.0751 18.21719-11.40341 16.25362-21.17075-.50374-2.5373.67849-4.50563 2.40569-5.56212.70928 8.93894-.34959 17.50465-4.06086 24.37157z" fill="#996c44"/></g><path d="m123.02086 19.85003c-.77802-2.93238-2.32553-5.1352-5.24591-4.41919-3.38315.78655-2.67353 4.3461-2.92926 5.02344-.68654 4.74941-1.69252 24.78335-11.26422 35.37354-3.56915 3.94172-8.10744 6.02375-12.86151 6.22412-2.46832.14941-5.03296-.00391-7.66479.16138-2.6192.11499-5.40491.81348-7.68005 2.21753-2.30206 1.37939-4.10437 3.31348-5.48535 5.3396-3.72784 5.41456-5.5928 12.29195-8.55671 17.80518-3.12067 5.98648-7.39474 11.16227-13.54059 13.7998-.33234.14355-.65228.25269-.9776.37622-2.88135-.77148-5.54517-1.67432-7.86353-2.5061-5.99433-2.20776-12.77997-5.08588-18.9436-4.78149-10.31006.55652-16.83768 9.26881-15.94623 14.89185.11542.7771.37421.85303.65277.88916.27869.03589.5553.00732.91022-.62427.99151-1.82063 3.74306-10.91821 14.51514-11.26953 4.49121-.12626 9.78394 1.86974 13.98425 3.43848.45519.55123.82227.91618 1.36499 1.46362-.01245.00708-.04266.00928-.04376.01953-.00342.01978.05719.05029.14868.08521.51563.51636 1.11584 1.11523 1.87042 1.76636 1.6109 1.47437 3.86151 3.2749 7.00543 5.39746 6.75573 4.45304 14.18664 7.80901 22.06806 9.33228 3.49536.65698 7.41846 1.0769 11.68201.72144 18.96293-1.47694 24.59495-13.34997 29.63629-22.10962 1.42987-2.51563 2.99463-4.97144 4.94659-7.06689 1.01385-.99707 2.06586-1.94922 3.29254-2.66724 2.88709-1.73515 5.74493-2.4928 8.75745-6.06812 1.24207-1.48901 2.26324-3.12134 3.09137-4.8291 1.91028-3.72607 3.09216-8.06006 3.67505-12.6311 2.23856-18.38076-5.49424-36.2555-8.59815-45.35355zm4.57831 44.84814c-.54871 4.18896-1.62531 8.06201-3.29291 11.30542-4.15987 8.63857-7.92926 6.09286-14.43689 12.60083-2.34033 2.52173-4.03613 5.26416-5.50751 7.86255-3.92406 6.88516-8.61119 18.75887-26.45673 20.36938-3.86053.37378-7.45953.04639-10.72076-.50439-7.54932-1.31592-14.57653-4.34756-21.17548-8.2439-2.65295-1.6062-4.70636-2.98682-6.3064-4.14307.13947.00391.27423.00879.42023.01025 10.02822 3.3448 19.84553 4.85281 29.85712 1.35376 8.78077-3.04034 18.49529-9.48814 25.10919-17.5293 3.10938-3.79102 4.5188-6.47778 4.31201-6.61694-.25348-.18115-2.09741 2.18042-5.48077 5.54614-7.72888 7.66815-17.11464 12.9988-24.97974 15.38696-6.87922 2.1046-13.06305 1.80207-20.09565.16162 17.44738-7.12545 17.00725-29.41423 27.84613-35.59546 1.92255-1.11279 4.10181-1.6438 6.51373-1.71436 5.68291-.26192 14.51797 1.76044 22.68323-6.98536 8.73066-9.39212 11.43006-25.58743 12.70349-38.34644.03204-.1377.2287-.15942.30176-.06006.00952.01147.0177.02441.02405.03784l.06323.16284.25336.66333c2.68972 8.02736 10.61294 26.29308 8.36531 44.27836z" fill="#202020"/></g></svg>