<svg id="Layer_1" enable-background="new 0 0 136 136" height="512" viewBox="0 0 136 136" width="512" xmlns="http://www.w3.org/2000/svg"><g><g><path d="m27.48532 128.6541c-1.36327-3.22407-2.69564-6.50669-3.9848-9.85787-10.49719-27.31617-17.87313-58.4374-13.53852-86.6502 1.34871-8.77264 3.52155-17.75161 9.02759-24.71191.80618-1.01131 1.78383-2.02641 3.05506-2.2243 2.32959-.33464 4.00068 2.11735 4.99849 4.24545.14297.30133.28428.61282.41693.91193 7.05853 15.35887 11.99407 33.38176 13.04938 50.18363-6.96257 21.749-11.63774 43.55226-13.02413 68.10327z" fill="#2bb673"/></g><g><path d="m100.35619 103.24038c-1.7134 1.79177-3.55877 3.47646-5.49992 5.02814-7.62086 6.17704-16.77049 10.53394-26.23179 13.26967-9.51845 2.75873-19.38476 3.98685-29.30352 4.49038-3.6834.18841-7.36185.28115-11.04049.30972l-.28741-3.27242c12.7259-11.14145 26.48466-22.78677 43.24088-25.0673 4.42203-.59071 8.89465-.51086 13.33866-.19058 4.90837.35395 9.79171.9922 14.6274 1.92146 1.63674.31034 2.30313 2.3097 1.15619 3.51093z" fill="#2bb673"/></g><g><path d="m94.85627 108.26852c-7.62086 6.17704-16.77049 10.53394-26.23179 13.26967-9.51845 2.75873-19.38476 3.98685-29.30352 4.49038 10.53278-8.70166 21.9679-16.45531 35.30318-18.2589 4.42368-.60088 8.90681-.51983 13.35073-.19904 2.29996.17314 4.59145.39809 6.8814.69789z" fill="#20a562"/></g><g><path d="m54.78917 81.78555c-.26176 1.07841-.71604 2.09354-1.36822 3.01218-2.01863 2.80989-5.87507 4.18718-9.16855 3.29675-.56355-.14584-1.11357-.37448-1.64296-.66389-1.89729-1.06843-3.27534-2.89574-4.2154-4.8543-.87911-1.87403-1.43489-3.96221-1.29056-6.02093.02985-.44413.09091-.88263.19515-1.3245.55045-2.45229 2.41315-4.69995 4.87377-5.24836l-.52205-.72626c4.2002-1.12865 9.002.59608 11.53251 4.1283 1.166 1.62159 1.81163 3.61755 1.88188 5.60497.03759.94588-.05312 1.89268-.27557 2.79604z" fill="#ec008c"/></g><g><path d="m74.18285 73.29678c-2.02977 3.13922-6.32649 4.4659-9.90984 3.38884-.09193-.02545-.17342-.04973-.2636-.08585-3.03736-1.01961-5.53935-3.74615-5.81781-6.94254-.29782-3.27412 2.1522-6.69716 5.42773-7.06906l-1.21447.04655c2.31529-.44336 4.82496-.83408 7.08581-.42171 1.01608.18697 1.98406.53765 2.86088 1.11905.94457.62429 1.66814 1.49039 2.15643 2.48857.4463.86302.7057 1.8243.77982 2.80795.14019 1.62494-.21856 3.29661-1.10495 4.6682z" fill="#ec008c"/></g><g><path d="m47.97435 49.41471c3.54428-1.25734 7.38412.47091 10.74422 2.15987.99299.49913 2.0057 1.01244 2.78253 1.80722 2.73346 2.79663 1.1847 7.85648-2.00325 10.12141-3.31159 2.35278-8.03663 2.51232-11.49939.38828s-5.46202-6.40824-4.86565-10.42652" fill="#ec008c"/></g><g><path d="m75.17701 62.51214c-1.633.90796-2.92271.17353-4.49046-.23192-.43013-.11308-.85659-.1828-1.29512-.24406-1.2169-.1348-2.46263-.09283-3.69315-.14433-.45575-.02131-.92026-.05449-1.3004-.27673-.72918-.43941-.90199-1.40791-.96531-2.26151-.25604-3.79086.02243-8.43407 3.26704-10.96897 2.0691-1.61577 4.82835-2.55341 7.32043-1.33404 2.69166 1.30519 4.26565 4.28575 4.58156 7.25306.0468.56304.05896 1.1418.02613 1.73458-.14973 2.54908-1.12241 5.16701-3.45072 6.47392z" fill="#ec008c"/></g><g><path d="m69.36917 27.48263c.51897-.30002 1.07265-.55108 1.64568-.7244z" fill="#ec008c"/></g><g><path d="m71.28999 26.64311c-.04499.01403-.09171.0382-.1401.07305-.04331.00335-.0883.01738-.13503.04207z" fill="#ec008c"/></g><g><path d="m72.84396 25.95691-1.55398.6862c.49476-.2826 1.01219-.50777 1.55398-.6862z" fill="#ec008c"/></g><g><path d="m82.35146 38.68314c-.68774 1.72426-1.86483 3.24076-3.45429 4.20902-1.69326 1.01544-3.70934 1.32676-5.63877 1.04314-2.71474-.37967-5.26859-1.93977-6.56007-4.36203-2.3688-4.45594.08217-10.36739 4.45156-12.85712 3.8449-1.17631 8.49878.34277 10.64775 3.79123 1.50635 2.41464 1.60441 5.53824.55382 8.17576z" fill="#ec008c"/></g><g><path d="m63.27613 49.6206c-2.82404 2.54834-7.31851.83968-10.63086.37212-1.20429-.16999-2.41964-.34273-3.5593-.76747-.42569-.15865-.87324-.38574-1.05447-.80232-.15084-.34673-.08147-.74557-.00008-1.11482 1.22508-5.5582 4.73281-12.35128 11.56373-10.35282 2.86902.83936 5.1597 3.39936 5.67629 6.34367.39863 2.27199-.28278 4.7763-1.99531 6.32164z" fill="#ec008c"/></g><g><path d="m97.24472 36.36506c-2.02004 2.36118-5.82623 3.16991-8.94342 2.11586-.61916-.1977-1.22311-.48834-1.77178-.856-4.39645-2.89754-4.35961-10.57048-.92332-13.88548 2.39451-2.29996 5.17109-3.21287 8.20739-1.40285 2.38363 1.42537 4.10973 3.73668 4.83138 6.24726.06135.21289.11228.42408.16141.64592.53451 2.47947.11317 5.18753-1.56166 7.13529z" fill="#ec008c"/></g><g><path d="m114.29437 23.66615c-1.87791 3.51657-5.99492 5.76961-9.95606 5.23936-.62759-.0807-1.23279-.23335-1.82439-.46879-3.14341-1.15481-5.63393-4.08233-5.96138-7.43639-.38662-3.97179 2.50319-8.0598 6.41341-8.85178l-.96841.632c3.58135-.6747 7.42966.34947 10.23529 2.65578.44466.35039.86174.73903 1.25119 1.16592.67981.74136 1.27682 1.59721 1.54501 2.57009.41704 1.49942.00269 3.11923-.73466 4.49381z" fill="#ec008c"/></g><g><path d="m114.29437 23.66615c-1.87791 3.51657-5.99492 5.76961-9.95606 5.23936-.62759-.0807-1.23279-.23335-1.82439-.46879-.0036-.04335-.00895-.07604-.01255-.11939-.951-2.15279-.38783-4.94457 1.38346-6.50264 1.42275-2.75764 3.84343-5.02151 7.03193-6.10227.42929-.14337.8726-.24168 1.31608-.27609.44466.35039.86174.73903 1.25119 1.16592.67981.74136 1.27682 1.59721 1.54501 2.57009.41703 1.49942.00268 3.11923-.73467 4.49381z" fill="#f21da6"/></g><g><path d="m81.50707 37.96833c.28149.23793.56297.47638.84438.71481-.68774 1.72426-1.86483 3.24076-3.45429 4.20902-1.69326 1.01544-3.70934 1.32676-5.63877 1.04314-.64989-1.70827-.34257-3.71896.82924-5.26814 1.71542-2.26182 5.29308-2.45657 7.41944-.69883z" fill="#f21da6"/></g><g><path d="m97.24472 36.36506c-2.02004 2.36118-5.82623 3.16991-8.94342 2.11586 1.24061-3.40747 3.77667-6.44254 6.73426-8.78916 1.21513-.96532 2.46014-1.26398 3.60941-1.1079.06135.21289.11228.42408.16141.64592.53451 2.47946.11317 5.18752-1.56166 7.13528z" fill="#f21da6"/></g><g><path d="m74.50797 65.82063c-.90105-.56398-1.83848-1.10157-2.8034-1.60142-.92507-.48238-1.6863-1.18308-2.21391-2.0062 1.01608.18697 1.98406.53765 2.86088 1.11905.94458.62428 1.66814 1.49039 2.15643 2.48857z" fill="#f21da6"/></g><g><path d="m75.17701 62.51214c-1.633.90796-2.92271.17353-4.49046-.23192-.43013-.11308-.85659-.1828-1.29512-.24406-.84827-1.40955-1.0322-3.15898-.27135-4.80767 1.14449-2.49337 4.46194-3.90557 6.99074-2.58424.84699.43728 1.6889.90607 2.51692 1.39396-.14974 2.54909-1.12242 5.16702-3.45073 6.47393z" fill="#f21da6"/></g><g><path d="m58.46294 65.76534c-1.63299.90795-2.92271.17353-4.49046-.23192-.43013-.11308-.85659-.1828-1.29512-.24406-.84827-1.40955-1.0322-3.15898-.27135-4.80767 1.14449-2.49336 4.46194-3.90557 6.99073-2.58424.84699.43729 1.6889.90607 2.51692 1.39397-.14973 2.54908-1.12241 5.16701-3.45072 6.47392z" fill="#f21da6"/></g><g><path d="m60.63668 52.46891c-1.63299.90796-2.92271.17353-4.49046-.23191-.43013-.11308-.85659-.1828-1.29512-.24406-.84827-1.40955-1.0322-3.15898-.27135-4.80767 1.14449-2.49337 4.46194-3.90557 6.99074-2.58424.84699.43728 1.6889.90607 2.51692 1.39397-.14974 2.54907-1.12243 5.167-3.45073 6.47391z" fill="#f21da6"/></g><g><path d="m74.18285 73.29678c-2.02977 3.13922-6.32649 4.4659-9.90984 3.38884-.09193-.02545-.17342-.04973-.2636-.08585.91174-2.11475 1.92957-4.15947 3.06706-6.15231 1.46487-2.55833 4.14708-3.74323 6.99073-2.58424.44068.17895.85741.43898 1.22059.76536.1402 1.62494-.21855 3.29661-1.10494 4.6682z" fill="#f21da6"/></g><g><path d="m53.42128 84.7907c-2.03585 2.84984-5.9652 4.21573-9.27254 3.27974.02096-.52015.13548-1.02448.34887-1.48084.05166-.11984.11367-.23799.18616-.35443 2.4309-3.95966 5.78458-7.09624 10.24182-8.62093.03464-.01572.07963-.02975.11427-.04546.08998-.02805.18002-.05609.27007-.08414.0376.94588-.0531 1.89268-.27556 2.79604-.13533 1.6117-.66943 3.18012-1.61309 4.51002z" fill="#f21da6"/></g><g><path d="m23.50052 118.79623c-10.49719-27.31617-17.87313-58.4374-13.53852-86.6502 1.34871-8.77264 3.52155-17.75161 9.02759-24.71191.80618-1.01131 1.78383-2.02641 3.05506-2.2243 2.32959-.33464 4.00068 2.11735 4.99849 4.24545.14297.30133.28428.61282.41693.91193-7.84211 14.71681-10.60301 31.34327-10.44218 47.99838.09067 9.70206.9975 19.37693 2.11217 29.02163 1.04191 9.10975 1.66044 18.58782 4.63325 27.31914.52473 1.55953.35054 2.95159-.26279 4.08988z" fill="#3bd186"/></g><g><path d="m121.34048 32.15061c-3.51723.16516-6.93366-1.74498-8.09731-4.70632-.18697-.46781-.30837-.95009-.3592-1.45743-.34571-2.65568.96439-5.59787 3.4735-7.22114 2.97168-1.92146 7.34254-1.6245 9.52652.751l-.88393-.40681c1.96041 2.19681 2.69029 5.28578 1.99489 8.18728-.0983.45355-.23772.90395-.41826 1.35116-.31216.77906-.74747 1.54851-1.40614 2.13919-1.01367.91292-2.45391 1.30079-3.83007 1.36307z" fill="#ec008c"/></g><g><path d="m121.34048 32.15061c-3.51723.16516-6.93366-1.74498-8.09731-4.70632-.18697-.46781-.30837-.95009-.3592-1.45743.03268-.02055.05627-.03786.08896-.0584 1.31478-1.55444 3.73683-2.32738 5.67007-1.75074 2.73825-.16402 5.48618.56799 7.60938 2.32391.28417.2373.53849.50306.74257.79556-.0983.45355-.23772.90395-.41826 1.35116-.31216.77906-.74747 1.54851-1.40614 2.13919-1.01367.91292-2.45391 1.30079-3.83007 1.36307z" fill="#f21da6"/></g><path d="m127.58911 20.3875c-.77002-1.06982-1.37-1.43994-1.77002-1.54004-.06-.00977-.10999-.02002-.15997-.00977-.04999-.06982-.10999-.1499-.17999-.24023-.15936-.19873-.37854-.41797-.65692-.63721.07965-.19336.03839-.53857-.32263-1.29736-2.22479-4.66243-8.06514-8.90192-13.11932-10.76318-3.37122-1.30469-7.62482-2.34473-12.76318-2.48145-14.56651-.47052-26.90046 6.74286-36.41748 17.37695-3.23535 3.61475-6.54437 8.06396-9.60345 13.14014-1.54266 2.53174-3.00964 5.22412-4.45844 8.0083-1.42041 2.79297-2.79742 5.70898-4.14246 8.62842-2.70477 5.85791-5.49609 11.95166-7.73077 18.24463-2.26007 6.27979-3.95319 12.70215-5.15234 18.87988-1.20575 6.17969-2.0127 12.10938-2.55432 17.50977-.3028 2.69824-.51422 5.2666-.69659 7.67139-.20563 2.40234-.33997 4.64355-.44678 6.68994-.17432 2.87744-.26849 5.35986-.31903 7.38379-.65332-2.02783-2.01447-5.78369-3.74921-10.83105-2.60919-7.6958-6.03943-18.40039-8.66437-30.47168-4.65634-21.4178-6.6853-52.6005 2.15245-70.84424.87543-1.83447 1.86853-3.52637 2.96741-5.05713.28149-.37451.56079-.74658.83783-1.11572.27277-.34131.53528-.63818.78271-.86475.52618-.47168.82617-.56982 1.10486-.55127.24988-.0127.64392.18652 1.09491.62842.44067.44678.8631 1.06445 1.22644 1.72949.34985.63574.70233 1.47021 1.0556 2.22559 4.46244 9.71875 7.66375 19.74257 9.89868 30.02979.72998 3.31396 1.20166 6.0127 1.59119 8.18994.75269 4.35986 1.10095 6.64746 1.44214 7.82422.33234 1.17871.60645 1.25342.88702 1.23535s.54138-.12256.69409-1.34961c.14343-1.22656.23108-3.58447-.16809-8.08545-.21301-2.24756-.52911-5.03467-1.13147-8.45898-1.82555-10.55382-5.12425-21.19239-9.56201-31.03955-.36694-.79395-.67725-1.5708-1.1687-2.49121-.48285-.88477-1.05481-1.78564-1.89301-2.65088-.42932-.42822-.93164-.84766-1.55664-1.1958-.61572-.35059-1.40009-.60107-2.20367-.6377-.78912-.04053-1.6272.10889-2.323.43652-1.19709.53527-2.11604 1.4584-2.94128 2.48291-.3194.42285-.64136.84912-.96588 1.27881-1.25433 1.74023-2.37305 3.64697-3.34381 5.68115-9.1864 18.99519-7.03787 50.1005-1.28223 73.25439 3.02399 12.15625 6.90393 22.80664 9.98431 30.37354 1.56592 3.77637 2.88837 6.80713 3.89844 8.85889.57214 1.18555 1.01141 2.04492 1.31 2.56054-.00769.41162-.01422.80762-.01849 1.16943-.02765 2.29248.02094 3.56299.16125 3.57178s.3656-1.24414.65753-3.51514c.19489-1.66894.45404-3.88769.76538-6.55322 1.2392-.81201 4.20575-3.16406 8.44733-6.41797 22.6199-17.20777 34.53535-19.73698 60.87231-14.89111l.48383.09521.24139.04688c.07709.01514.18628.03564.16406.0376.04297.00781.05414.02197.07013.04004.03107.02783.06836.12061.05573.1499-.005.0127-.01227.02148-.01898.02979.00342.00586-.01575.00781-.01611.02295l-.33081.32666c-4.32706 4.27081-8.43451 7.34205-13.34503 10.15479-16.60276 9.53725-34.04456 10.95425-49.08496 12.36133-7.5882.59473-7.90765 1.02539-7.89905 1.61084.00757.53857.30566 1.12744 8.00494 1.26709 17.66019.0493 35.69073-2.91347 51.00745-11.70801 5.70206-3.26641 9.90777-6.6469 14.49365-11.2915.20544-.23291.40375-.47168.56042-.75293.32086-.54883.50928-1.17676.5412-1.81543.06122-1.27686-.48602-2.50879-1.46478-3.33154-.48541-.41064-1.08411-.70557-1.69153-.83643-.18176-.04541-.23712-.05078-.32343-.06738l-.24969-.04492-.50037-.08984c-.66943-.11182-1.34265-.22412-2.01923-.3374-25.57546-4.05557-39.69878-.49825-60.55585 17.79688-3.63562 3.21631-6.19141 5.69385-7.36487 6.979.08972-.76855.18256-1.56299.28021-2.39941.2276-2.0293.47949-4.25146.79865-6.62891.29596-2.38086.61719-4.92285 1.02466-7.58496.75146-5.33398 1.74957-11.16699 3.1123-17.19678.52948-2.35303 1.14954-4.73389 1.82056-7.12012.03809.13086.06934.26025.11145.39209.42572 1.30322 1.01825 2.64063 1.94055 4.02197.92566 1.36475 2.2027 2.78418 4.11938 3.78711 3.3808 1.79492 8.75647 1.25439 12.1488-2.44092 3.13211-3.38654 3.59148-9.02489.95422-13.33691-1.18658-1.90771-2.84528-3.28809-4.50476-4.11572-1.65552-.85645-3.30957-1.18115-4.67126-1.25537-1.37128-.06348-2.46497.15186-3.17432.40088-.71313.24414-1.05811.49805-1.02338.62305.07379.3208 1.65564-.0083 3.9859.54688 1.14984.29053 2.4848.77881 3.73303 1.6499 1.25861.84375 2.40515 2.07275 3.14044 3.55469.72815 1.48682 1.05695 3.28613.85474 4.98145-.18341 1.70996-.91644 3.31055-2.01202 4.36328-1.09399 1.09521-2.60236 1.73828-3.99133 1.93164-1.40643.19238-2.66681-.05127-3.5954-.5332-2.15442-1.13867-3.46484-3.53711-4.16754-5.44287-.3468-.96973-.54504-1.87012-.61127-2.67432-.03204-.40186-.04657-.7832-.02313-1.13818.00482-.18115.02692-.34424.04297-.52197.01807-.15332.08636-.49463.0387-.34033l.04224-.14404c.2569-1.3335.84778-2.27783 1.33209-2.9126.50464-.62939.92395-1.01367 1.21735-1.30176.59937-.56787.633-.88818.53363-1.28174-.08496-.3501-.20062-.78467-1.36194-.66406-.33685.04395-.77399.17139-1.27368.40967.93689-2.44678 1.96881-4.86719 3.04047-7.26953.20441.40625.43097.8208.71136 1.25293.84479 1.2749 2.1095 2.65723 3.99066 3.70215 1.8642 1.03369 4.28229 1.67822 7.00336 1.45557.92444-.07227 1.93323-.28516 2.95776-.63818-.06781.16846-.15002.32129-.20746.5-.57355 1.65771-.48236 3.79199.36444 5.64307 2.72313 6.13664 10.85114 7.93563 16.15582 3.77148 1.58936-1.2085 2.68304-2.93896 3.14673-4.5415.8443-2.92578.2724-5.6543-.91864-7.67334-.0509-.08545-.11023-.16162-.1637-.24463.36243-.17773.73224-.38135 1.11414-.64551 2.10742-1.44629 3.91681-4.62695 3.70685-8.67529-.10022-2.1958-.88721-5.09375-3.07806-7.40527-.59027-.60498-1.27753-1.14258-2.04181-1.57568.85553-.06055 1.70282-.2168 2.51367-.48047 1.14832-.3584 2.19409-.9873 3.07159-1.69678 1.77704-1.44336 2.7951-3.31592 3.35809-4.98584.03204-.10059.05066-.2002.07983-.30029.16559.14307.33496.27783.50781.40283 1.25476.93555 2.60791 1.43652 3.88324 1.68311 1.27948.24609 2.49298.24609 3.6048.09375 2.22473-.31055 4.05682-1.25635 5.33783-2.45947 1.29852-1.22949 1.91858-2.57178 2.2467-3.69238.33093-1.12842.35492-2.06055.315-2.78662-.11133-1.4585-.49725-2.13623-.78394-2.4541-.30731-.31494-.57281-.27637-.8479-.21924-.27515.05762-.53143.14551-.71344.49365-.19733.34473-.28918.95947-.52887 2.00098-.12915.51465-.29047 1.14258-.61877 1.82275-.31439.67334-.80713 1.43506-1.56219 2.03027-.76007.604-1.89825 1.1499-3.34833 1.30664-1.41711.15088-3.21045-.07373-4.56964-1.09863-.72565-.52734-1.41736-1.39258-1.88208-2.58057-.4541-1.18701-.63806-2.66797-.49268-4.1543.17389-1.4751.69397-2.97266 1.59479-3.99023 1.03479-1.16748 2.32922-2.04199 3.57928-2.22363 1.26605-.21533 2.58148.2627 3.74493 1.00049 1.14948.71533 2.04834 1.60547 2.72064 2.42773 1.34399 1.66602 1.77332 3.03662 2.07635 2.96484.19769-.02246.30524-1.09863-.276-2.7168.00391.00342.00714.00781.01105.01172.22998.23047.47003.4502.72998.66016 1.76001 1.45996 4.11005 2.37988 6.44 2.41016 2.32001.0498 4.51001-.66016 6.26001-1.70996.04999-.03027.10999-.07031.16003-.11035 2.26025 4.42639 8.10821 6.22779 12.5 4.53027 1.16998-.43994 2.29999-1.32031 2.95996-2.28027.67999-.94971.98999-1.82959 1.26001-2.63965.23999-.83008.37-1.62012.41998-2.3501.1701-2.96003-.7599-4.85017-1.47993-5.91023zm-29.02789-13.21679c4.68579.02686 8.56183.85254 11.651 1.89746 6.26702 1.99767 10.13272 5.86152 11.70978 7.22754.16016.16846.30377.31934.44092.46338-.00134-.00049-.00244-.00098-.00378-.00146-1.93777-.55684-4.1782-.34097-5.98004.47021-.09998-.19043-.19995-.37012-.31-.54004-.71997-1.07031-1.45996-1.78027-2.21997-2.43018-.76001-.64014-1.51001-1.16016-2.25-1.5498-1.47003-.81006-2.83002-1.18994-3.96002-1.40039-1.13995-.20996-2.07996-.21973-2.82001-.15967-1.5.13965-2.21997.48975-2.56.79004-.02997.02979-.06.0498-.06995.08008-.11005 0-.24005.01953-.38.03955-.59003.09033-1.41003.3501-2.29004.89014-.00262.00146-.00525.00391-.00787.00537-.21002-.38135-.49475-.76318-.82251-1.11816-.36523-.39209-.78522-.81055-1.26056-1.21094-1.46857-1.28711-3.46918-2.35986-5.15875-2.98096 2.21575-.34766 4.33031-.49756 6.2918-.47217zm-35.73377 19.17138c.07623-.01563.14484-.02881.22559-.0459.79889-.17871 1.83551-.46289 3.13599-.65723.70367-.0835 1.59851-.22363 2.4646-.1665.86542.0542 1.69885.28369 2.4397.74512.18567.10498.36078.22412.5282.34912-.01715.00586-.03772.00977-.05463.01514-1.55603.50781-2.20135 1.12207-2.45374 1.52148-.14807.23584-.16296.41357-.12744.5708-.14685.09863-.28998.18701-.44141.30029-1.08447.83691-2.2489 2.05859-3.11676 3.71191-.83655 1.64404-1.48969 3.73047-1.22656 6.021.02216.25732.0614.51709.10944.77637-1.64728-1.62842-3.961-2.68457-6.15088-2.71338-1.04199-.03271-1.99908.12695-2.85187.3877.22992-.38135.45874-.76611.69122-1.13965 2.219-3.60595 4.53656-6.84961 6.82855-9.67627zm4.16101 18.07862c.17957.17139.36121.34082.55548.49561.80194.65576 1.69598 1.18457 2.63953 1.59082-.60364.10791-1.17975.27832-1.70947.49658-.54321.22168-1.02911.49805-1.48376.79736.04901-.26367.1087-.521.13477-.79736.09423-.77686.04931-1.66651-.13655-2.58301zm-6.21868 5.9414c-1.47493.7681-2.53947.54525-3.34644.7793-1.92938-.75632-4.03693-1.40576-6.13049-1.39453-1.18689-.00049-2.13922.24658-2.73615.52051-.12286.05469-.22272.1084-.31818.16162 1.10992-2.28809 2.21564-4.52881 3.34937-6.68994.70477-1.3125 1.41138-2.60107 2.12531-3.85986 1.13898-.35547 2.6499-.5752 4.14398-.24512 1.67401.33447 3.23145 1.46484 4.15973 2.88574 1.48423 2.21035 1.36202 4.88809.15344 6.60059-.43787.61669-.90198.9707-1.40057 1.24169zm-14.4292 11.17139c-.99725-1.29004-1.48608-2.45752-1.79645-3.37744.94159-2.00732 1.89307-4.00537 2.84399-5.98096.18628-.3877.37091-.75879.55658-1.14258.4552.08057 1.60742-.06982 3.19708.29248 1.99237.39893 4.5661 1.71143 7.37732 3.396 1.38562.80713 2.14862 1.64893 2.34216 2.85791.21368 1.19238-.15924 2.61572-.84869 3.77637-.3476.58203-.78021 1.09521-1.23993 1.51611-.22668.22266-.46954.38379-.71564.56299-3.86252 2.40952-8.85852 1.75104-11.71642-1.90088zm13.63372 11.56152c-.71747-1.22852-.95868-2.56787-.73761-3.79297.16724-1.04639.61853-1.95557 1.13489-2.67871.37927-.2915.77313-.604 1.1076-.95898.2016-.2041.37408-.43604.55872-.65625.15552-.10449.30298-.19727.43988-.27734.31744.24707.97034.40527 2.41156.41602.59204.02002 1.31573.02393 2.16125.0874.84412.06104 1.81274.19482 2.77887.56348.96838.39893 1.86725 1.00146 2.5025 2.14453 4.05735 7.21864-7.96885 12.70924-12.35766 5.15282zm14.45337-11.01367c-.53992.47363-1.05963.77588-1.5238.98389-.63617-.37549-1.26746-.6333-1.87457-.82275-1.62109-.4707-2.95734-.46582-4.00983-.38525-1.05865.08594-1.86395.26367-2.50024.43359-.38007.11279-.69476.22119-.96552.32617.7666-1.74023 1.13135-3.77588.59149-5.8252-.29773-1.1167-.91357-2.1875-1.7439-2.97705-.01794-.01709-.03699-.02979-.05499-.04688.35339-.13428.72217-.32422 1.09375-.55127-.09351 1.16699.23462 1.84277.41559 1.81396.3139-.00977.44562-1.02686 1.21777-2.24414.77618-1.19092 2.32349-2.5874 4.32709-3.05566.97992-.23779 2.01373-.22461 2.88684.07813.8479.2832 1.67633.91846 2.28674 1.66943 1.24854 1.54736 1.73779 3.5835 1.79517 5.08252.12372 2.83301-.96435 4.65723-1.94159 5.52051zm5.96015-23.11621c-.3725 1.09326-1.01331 2.3042-2.05194 3.19092-1.00189.90918-2.42645 1.46338-4.04126 1.5083-1.60541.05811-3.32281-.46289-4.67273-1.41016-1.367-.94189-2.26013-2.37598-2.57074-3.9585-.35522-1.57861-.05286-3.24805.44806-4.66406.52478-1.42725 1.33252-2.59814 2.11426-3.48682.20148-.22412.40118-.4292.59644-.61768.41492-.00684 1.00708-.0752 1.8927-.11572 1.15631-.01807 3.01276-.00439 5.2019 1.2041 1.06598.60498 2.15704 1.56006 2.82819 2.94824.6607 1.3838.90575 3.35695.25512 5.40138zm3.68341-15.00586c-1.42743 1.38477-2.24506 3.12598-2.68915 4.87744-.77075-.67236-1.58118-1.18213-2.34662-1.55078-1.6543-.78857-3.16895-1.05518-4.42316-1.09424-.1496-.00293-.28418.00488-.42676.00684-.04376-.14355-.0835-.28027-.13165-.43457-.11163-.26221-.26117-.5293-.4129-.81201-.14081-.29102-.3382-.56348-.57135-.8291-.86218-1.11377-2.32501-2-3.74866-2.34326-.78992-.20068-1.53516-.26172-2.21503-.26221 1.90057-1.94629 3.84747-3.66699 5.8089-5.19385 1.06982.05469 2.43134.07227 3.89148.12646 1.61981.08496 3.37048.18604 4.8717.54102 1.51392.32764 2.7583.86035 3.6687 1.37061 1.65192.94531 2.72858 2.08203 3.58551 2.94434.00543.00537.0097.00977.01514.01563-1.83278.3139-3.54451 1.3608-4.87615 2.63768zm11.09216-.68847c-.51868-.43408-1.10791-.85938-1.79828-1.21924-.09938-.58185-.32275-1.07087-.5932-1.59375-.2168-.44189-.52179-.95068-.9422-1.53662-.83472-1.14307-2.10236-2.73535-4.49255-4.11279-1.30121-.73926-3.16821-1.35547-5.10175-1.52832-1.85461-.19873-3.71924-.00732-5.39258.26172 1.93048-1.23291 3.85425-2.29053 5.73834-3.1416.62042-.25977 1.23535-.49268 1.84814-.71729.11578.104.26398.19971.45575.28516.77368.38867 2.25287.53613 5.06061 1.20898 1.5354.37256 3.94757 1.04199 5.96216 1.89258 1.56763.65695 1.7787.74197 2.21606.94336-.78809.73926-1.54602 1.71777-2.1048 2.94482-.75 1.62988-1.09998 3.7998-.56 5.92969.08002.31006.16998.60986.28003.91016.0036.01025.00903.01953.01263.0293-.19053-.18702-.37547-.37599-.58836-.55616zm10.3457 3.83691c-1.5.06006-3.06-.41016-4.38995-1.33984-1.33002-.92041-2.38-2.25-2.89001-3.69043-.53003-1.43994-.47998-2.94971-.09003-4.2998.41003-1.3501 1.13-2.47021 1.88-3.27002.73004-.79004 1.45001-1.29004 2-1.62988.04999.23975.16003.45996.48004.61963.37.19043 1.01996.31006 2.19.53027 1.14996.24023 2.89996.6001 5.00995 1.91992 1.29963.80935 2.49649 2.04082 3 2.89014.20001.33008.33002.60986.40002.91992-.73999.91992-1.33002 2-1.67999 3.18994-.16003.52002-.27002 1.07031-.32001 1.62988-.41998.41992-.90002.82031-1.44 1.18018-1.16997.76025-2.64001 1.29003-4.15002 1.35009zm19.83002-1.2002c-.08002.47998-.20001 1-.39001 1.53027-.19995.52979-.45996 1.09961-.76996 1.48975-.31.37988-.63.62988-1.23004.85986-1.30536.49566-3.35822.48118-5.17999-.34961-1.01001-.45996-1.96997-1.22998-2.54999-2.2002-.15002-.24023-.27002-.5-.37-.77002-.28998-.7998-.34998-1.72998-.15997-2.68018.23999-1.25977.90997-2.45996 1.81995-3.33984.21002-.20996.43005-.3999.67004-.56982 1.76996-1.31006 4.12-1.56006 5.67999-1.28027.87.13037 1.54999.3999 2.03998.61035-.16998.15967-.28998.34961-.29999.65967-.01001.36035.14001.89014.40997 1.81006.24006.89991.61005 2.27002.33002 4.22998z" fill="#202020"/></g></svg>