<svg id="Layer_1" enable-background="new 0 0 136 136" height="512" viewBox="0 0 136 136" width="512" xmlns="http://www.w3.org/2000/svg"><g><g><path d="m86.56421 104.05833c-.09003.38013-.19.80005-.48999 1.06006-.67999.61011-1.73004.04004-2.44-.52002-1.12-.88013-2.22998-1.77002-3.35004-2.6499-.54999-.44019-1.10999-.88013-1.65997-1.32007-1.27002-1-2.53998-2-3.81-3.01001-2.39001-1.88989-4.78998-3.79004-6.91998-5.98999-3.83002-3.94995-6.67004-8.84009-8.29004-14.1001-.59998-1.94995-1.22998-4.25-1.57001-6.58984-.48999-3.27002-.44-6.62012 1.02002-9.18018.12-.19995.23999-.40991.37-.60986.69-1.16016 1.47003-2.28003 2.35999-3.29004 1.03003-1.16992 2.21002-2.19995 3.55005-3.01001 4.12-2.46997 9.58997-2.22998 13.63995.27002 2.98004 1.84985 4.83002 5.31006 6.12 8.84009.64001 1.73999 1.15002 3.5 1.59003 5.08984 3.16997 11.37011 2.43999 23.59008-.12001 35.01001z" fill="#ee2a7b"/></g><g><path d="m102.08423 22.23826c-.48004 1.29004-.98004 2.68018-1.52002 4.08008-1.03998 2.68994-2.23999 5.41992-3.82001 7.56006-.31.40991-.69.76001-1.13 1.06006-1.81 1.27002-4.58002 1.71997-6.5 2.06982-2.64001.47021-5.22998 1.31006-7.81 2.15015-1.02002.32983-2.03998.66992-3.04999.97998-.67999.20996-1.38.42993-2.09003.47998v.01001c-.35999.02002-.70996.01001-1.07001-.06006-1.65997-.3501-2.79999-1.97998-3.13995-3.6499-.42004-2.02002.07996-5.06006 1.01996-7.1001l.01001-.01001c.10999-.25.23004-.47998.35999-.69995 1.18005-1.98999 3.46002-4.05005 5.22003-5.54004 2.04999-1.73999 4.42999-3.06006 7-3.81982.16998-.05005.34998-.1001.52997-.15015.01001 0 .02002-.01001.03003-.01001 4.88-1.33984 10.66998-1.45996 15.28003.75.31.1499.63995.33008.78998.64014.19.38989.04998.84985-.10999 1.25976z" fill="#ee2a7b"/></g><g><path d="m127.35419 55.8784c-.19.08008-.38995.15991-.57996.23999-1.51001.63013-3.02002 1.26001-4.54004 1.88989-2.46997 1.03003-4.95001 2.06006-7.42999 3.08008-5.81 2.41992-12.09998 4.62988-18.47998 4.47998-3.02002-.08008-6.03003-.76001-8.64001-2.31982-1.40002-.84009-2.34003-2.09009-3.62-3.03027-1.56-1.15991-3.62-1.83984-5.28003-2.8999-1.04999-.66992-2.07996-1.3999-2.82996-2.38989-1.10004-1.46997-1.46002-3.3501-1.54999-5.17993-.11005-2.31006.17999-4.64014.84998-6.8501.22998-.77002.52002-1.55005.90997-2.27002v-.01001c.25-.48999.55005-.94995.90002-1.38013 1.26001-1.52979 1.78998-.96973 3.52997-.96973.09003 0 .18005 0 .27002-.01025 3.07001-.10986 5.85004-2.05981 8.73999-2.91992 1.98004-.58984 4.01001-.67993 6.01001-.3999 1.57001.20996 3.12.6499 4.64001 1.25 2.53998.98999 4.96997 2.42993 7.15997 4.02002 5.17004 3.75 9.79004 8.43994 15.67999 10.87988 1.11005.44995 2.27002.84009 3.18005 1.61011.90999.78001 1.50997 2.07005 1.07998 3.17992z" fill="#ee2a7b"/></g><g><path d="m82.30935 51.56385c.39408.31647.80187.61536 1.22094.89544 5.48186 3.66376 13.20055 4.78563 19.64391 5.17911 4.75.29004 12.35999 1.36011 16.26001-2.08008.19-.15991.37-.30981.57001-.43994 2.38-1.63013 5.16998-.78003 6.77002 1-1.51001.63013-3.02002 1.26001-4.54004 1.88989-2.46996 1.03003-4.95 2.06005-7.42997 3.08007-4.94151 2.03244-10.0696 3.84219-15.41268 4.40991-5.11971.54398-9.50307-.40375-14.2562-2.52059-5.109-2.27533-8.46239-5.30712-10.3023-10.58091-1.73336-4.9684-2.15108-10.2756-2.63254-15.47839-.18327-1.98045-.8956-5.49753.78369-7.11005 3.64001-5 8.09003-8.16992 13.10999-10.20996.01001 0 .02002-.01001.03002-.01001 1.92734-.00075 4.0061-.86332 5.99448-.94505 2.03772-.08375 4.0986.0692 6.08174.55983 1.31457.32523 3.80557.73042 3.88137 2.3969.06944 1.52703-2.23798 3.188-3.38535 3.78905-2.02165 1.05901-4.32551 1.42312-6.48027 2.17535-3.99561 1.39489-7.33613 4.09484-10.17112 7.17629-2.66362 2.89518-6.06826 5.60852-4.74493 9.75751 2.79496 8.7629 12.97044 13.96051 21.58542 14.50184 6.20573.38995 12.40824-1.06085 18.22128-3.26803 1.86486-.70808 3.89491-1.50521 5.79374-.89402 1.48439.4778 2.64001 1.85133 2.85686 3.39556" fill="#db0f6c"/></g><g><path d="m61.99943 123.55545c.10345-8.82694.66749-17.64852 1.68928-26.41674.26136-2.24279.58397-4.47614.87344-6.71507.25297-1.95656-.46928-3.68693-1.00687-5.59419-1.20875-4.28843-2.41751-8.57685-3.62626-12.86528-.31747-1.12631-.72102-2.36608-1.74242-2.93713-2.20411 4.22038-4.704 8.49761-6.46706 12.92395-.78923 1.98143.91002 2.63629 1.92264 4.30391.98454 1.62136 1.59741 3.46076 1.93477 5.32099.56244 3.10127.40756 6.29155.2505 9.44495-.41209 8.2736-.82417 16.54719-1.23626 24.82079-.09699 1.94728-.02654 4.26701 1.51541 5.3368 1.60036 1.11032 3.89201.01755 4.86715-1.72398.97518-1.74154 1.00197-3.8753 1.02568-5.899z" fill="#9b8579"/></g><g><path d="m57.82422 47.61839c.07001 1.09009-.41998 2.13989-1.01001 3.07007-.02002.04004-.04999.08008-.08002.10986-4.92999 7.58008-15.26996 9.26001-23.56 9.3501-1.45001.02002-2.88-.20996-4.26001-.64014-1.02997-.31982-2.02997-.75-2.98999-1.29004-5.85999-3.23975-10.02997-10.11987-8.90997-16.81982.25-1.44995.77997-2.96997 2.01001-3.77002.77997-.5 1.72998-.6499 2.64996-.76001.91003-.11011 1.82001-.19995 2.73004-.25 4.59998-.32007 9.23999-.05005 13.76996.79004 2.91003.54004 5.59003 1.09985 8.39001 2.12988 2.32001.86011 4.66998 1.73022 6.77002 3.06006 1.71998 1.09008 4.34998 2.78003 4.49 5.02002z" fill="#ee2a7b"/></g><g><path d="m61.78418 57.85838c0 .33008-.01996.66016-.04999.97998-.09998 1.22998-.38 2.41992-.73999 3.6001-.65997 2.12988-1.58997 4.19995-2.21997 6.31006-.22003.72998-.47003 1.45996-.74005 2.18994-.97998 2.58984-2.28998 5.12988-3.62994 7.5-3.49005 6.18994-8.37006 11.6499-14.83002 14.7998-4.29004 2.09009-8.85999 3.37012-13.54999 4.19019-3.07001.53979-6.20001.88989-9.33002 1.13989-2.53998.20996-5.09003.36011-7.61999.5-.34003.02002-.72003.03003-1-.16992-.44-.31006-.41998-.95996-.35999-1.48999 1.19-10.55005 2.54999-21.58008 8.62-30.27002 2.51996-3.61987 5.82996-6.63989 9.58997-8.92017.91998-.55981 1.87-1.07983 2.85004-1.53979 1.53998-.73999 3.13-1.37012 4.76996-1.86011 2.17999-.65991 4.42004-1.08984 6.67004-1.36987 2.19-.27002 4.03998-.15015 6.19-.71021 2.44995-.62988 4.90997-1.18994 7.38995-1.65991.97003-.18994 1.97003-.36011 2.94-.28003.31.02002.60999.07007.91003.15015 1.54999.41992 2.78998 1.68994 3.44 3.15991.51997 1.16992.70997 2.46997.69996 3.75z" fill="#ee2a7b"/></g><g><path d="m73.97329 56.39337c-2.02168 4.0925-7.32718 5.08129-11.88839 5.39347-2.42953.16439-4.9305.27471-7.26028-.43742-2.32792-.72197-4.50492-2.43293-5.10759-4.80027-.46489-1.84415.04879-3.70212.51513-5.5787 0 0 0 0 .00979.0018.25933-1.08106.51064-2.17352.54813-3.26474.07143-2.16275-.70877-4.22733-1.62789-6.14462-.42974-.87189-1.03233-1.63301-1.03072-2.63923-.00981-1.11008.49456-2.19682 1.04435-3.14317 2.66727-4.56358 7.33885-7.91575 12.51753-8.98886 2.82105-.58055 6.08002-.38923 8.16537 1.5998.19915.18894.39469.39757.62253.54114.09117.05743.19212.11666.2985.14635.35489.11599.74596.03509 1.10808.1117 2.02874.4129.10369 4.53307-.0522 5.82621-.32792 2.56298-.18002 5.19265.44654 7.7071 1.13403 4.56968 3.77738 9.4468 1.69112 13.66944z" fill="#d7df23"/></g><g><path d="m78.54086 25.62261-3.55716-1.66929c1.14021 2.37461.18079 5.55372-2.08067 6.90786-1.60884.95535-3.93885.96523-5.52655-.07864-.7631-.49569-1.15482-1.0759-1.71198.0215-.31405.60338-.19183 1.37814-.40925 2.00918-.44392 1.31129-1.28217 2.49961-2.43093 3.27501-1.72099 1.17902-3.99132 1.36218-5.94371.69918-1.55814-.54003-2.95834-2.49495-4.4464-.97857-.93982.96639-1.89634 1.74654-3.25537 2.00555-1.97283.3904-4.83891-.50153-5.69806-2.46864-.66125-1.49395-.52887-3.76739-2.57498-3.42096-1.56479.27215-3.2005.15499-4.62859-.595-1.90263-.9897-3.20079-3.05771-3.2743-5.20634.0018-.00985.0018-.00985.00361-.01969-.05125-1.49373.51095-2.3971 1.24538-3.57393.72458-1.17864.04638-2.13682.07337-3.3923.03507-1.24407.48783-2.49293 1.22293-3.50706 1.28005-1.76801 3.25854-2.90971 5.2447-3.81619 1.22093-.55888 3.19993-.31793 4.09071-1.40501.90239-1.09488 1.09368-2.13754 2.55987-2.81425 1.32382-.62117 2.80255-.7567 4.24054-.61476 1.05885.10267 2.75572 1.10551 3.68053.55336.41003-.24001.72195-.60996 1.0918-.90798 1.26455-1.01851 3.09373-1.0694 4.62595-.55448 1.53403.50533 2.85623 1.49999 4.17578 2.45396 1.17484.85593 2.40118-.34235 3.75561-.52079.30148-.03628.5994-.05286.89545-.05961 1.23528-.02755 2.48077.22131 3.59167.7607 1.57745.76722 2.83649 2.10648 3.60498 3.68092.54739 1.11712.53246 2.63941 1.52303 3.50224.55107.48757 1.24519.47244 1.79363.91882.61993.5002 1.05128 1.47391 1.25761 2.23357.69001 2.55665-.71628 5.5113-3.1392 6.58164z" fill="#f9ed32"/></g><g><path d="m28.91418 59.50828c-.19995.74023-.60999 1.47021-1.25995 2.15015-8.75 9.1499-12.51001 24.38989-10.96002 36.90991-2.53998.20996-5.09003.36011-7.61999.5-.34003.02002-.72003.03003-1-.16992-.44-.31006-.41998-.95996-.35999-1.48999 1.19-10.55005 2.54999-21.58008 8.62-30.27002 2.51996-3.61987 5.82996-6.63989 9.58997-8.92017-5.85999-3.23975-10.02997-10.11987-8.90997-16.81982.25-1.44995.77997-2.96997 2.01001-3.77002.77997-.5 1.72998-.6499 2.64996-.76001.91003-.11011 1.82001-.19995 2.73004-.25-1.79004 5.41992-2.08002 10.91992 1.17999 16.08008.19.30005.33997.59985.45996.8999 1.23999.63989 2.25 1.77002 2.73004 3.08008.31995.88989.39996 1.86987.13995 2.82983z" fill="#f24091"/></g><g><path d="m86.56421 104.05833c-.09003.38013-.19.80005-.48999 1.06006-.67999.61011-1.73004.04004-2.44-.52002-1.12-.88013-2.22998-1.77002-3.35004-2.6499 1.15002-4.16016 2.23004-8.34009 3.06-12.57007 1.36005-6.94995.07001-12.78003-2.15997-19.39014-1.12-3.31982 1.22003-5.59985 3.90997-6.02979.64001 1.73999 1.15002 3.5 1.59003 5.08984 3.16998 11.37012 2.44 23.59009-.12 35.01002z" fill="#f24091"/></g><g><path d="m118.1662 50.5021c-.30151.51603-.78059.9385-1.31219 1.13369-1.28757.47277-2.75549-.01686-3.85976-.83047-1.10429-.81364-1.94997-1.921-2.91432-2.89645-1.18462-1.19825-2.56145-2.20608-4.06171-2.97312-1.84521-.94341-3.91224-1.54969-5.45057-2.93837-1.07556-.97093-2.96657-5.10505-.5561-5.78236.94032-.26422 3.04957 1.24843 3.84689 1.69769 1.22974.69291 2.41378 1.46662 3.55576 2.29578 2.84467 2.06333 5.41631 4.66716 8.43898 6.45498.99026.58571 2.37825 1.06892 2.61282 2.35869.09188.50524-.03598 1.02841-.2998 1.47994z" fill="#f24091"/></g><g><path d="m78.84418 98.28831c.02002.78003-.04999 1.57007-.21997 2.34009-1.27002-1-2.53998-2-3.81-3.01001-2.39001-1.88989-4.78998-3.79004-6.91998-5.98999-3.83002-3.94995-6.67004-8.84009-8.29004-14.1001-.59998-1.94995-1.22998-4.25-1.57001-6.58984-.97998 2.58984-2.28998 5.12988-3.62994 7.5-3.49005 6.18994-8.37006 11.6499-14.83002 14.7998-4.29004 2.09009-8.85999 3.37012-13.54999 4.19019-2.73004-1.96021-3.64001-6.3501.19-8.19995 5.69995-2.75 11.94-5.17017 16.66998-9.51025 4.65997-4.25977 7.69-9.63989 9.27997-15.71973.95001-3.67017 4.67999-4.26025 7.26001-2.8501.60004.33008 1.14001.76001 1.57001 1.29004.59003.75.97003 1.67993.98999 2.76001.20001.5.33002 1.07007.37 1.69995.04004.80005.12 1.58984.23004 2.37012 1.38 5.86987 4.34998 11.2998 8.19995 15.92993 2.95001 3.55005 6.83002 6.71997 7.83002 11.21997.13.60986.21002 1.23998.22998 1.86987z" fill="#db0f6c"/></g><g><path d="m73.97329 56.39337c-2.02168 4.0925-7.32718 5.08129-11.88839 5.39347-2.42953.16439-4.9305.27471-7.26028-.43742-2.32792-.72197-4.50492-2.43293-5.10759-4.80027-.46489-1.84415.04879-3.70212.52492-5.57691 1.22661-.20189 2.55709.08266 3.80054 1.06313 2.26456 1.78809 5.83831 4.25348 8.92078 4.07683 3.87413-.22475 4.48419-3.0509 4.19409-6.23557-.3302-3.62479-.49-7.27703-.15704-10.90798.15604-1.70168-.04449-6.61121 2.21479-7.09766 1.65108-.3555 3.01349 1.83321 2.88521 3.1912-.2536 2.68457-.49421 4.93748.18185 7.66174 1.13403 4.56968 3.77738 9.4468 1.69112 13.66944z" fill="#cece1b"/></g><g><path d="m69.90915 7.94474c-.92741 1.61924-2.65196 2.81771-4.96915 2.64676-3.35822-.26016-3.49461 1.14826-6.25409 2.39067-2.05239.93503-4.53061.7549-6.72228.95275-5.50155.50554-12.91579 1.84961-14.24525 8.26508-.54628 2.64479-2.60988 3.86247-4.71184 3.90377-.05125-1.49373.51095-2.3971 1.24538-3.57393.72458-1.17864.04638-2.13682.07337-3.3923.03507-1.24407.48783-2.49293 1.22293-3.50706 1.28005-1.76801 3.25854-2.90971 5.2447-3.81619 1.22093-.55888 3.19993-.31793 4.09071-1.40501.90239-1.09488 1.09368-2.13754 2.55987-2.81425 1.32382-.62117 2.80255-.7567 4.24054-.61476 1.05885.10267 2.75572 1.10551 3.68053.55336.41003-.24001.72195-.60996 1.0918-.90798 1.26455-1.01851 3.09373-1.0694 4.62595-.55448 1.53403.50533 2.85623 1.49999 4.17578 2.45396 1.17484.85593 2.40118-.34235 3.75561-.52079.30147-.03627.59939-.05285.89544-.0596z" fill="#f7e969"/></g><g><path d="m51.28508 83.49821c2.36824 1.92397 3.72945 4.97639 4.29189 8.07767.56244 3.10127.40756 6.29155.2505 9.44495-.41209 8.2736-.82417 16.54719-1.23626 24.82079-.09699 1.94728-.02654 4.26701 1.51541 5.3368 1.60036 1.11032 3.89201.01755 4.86715-1.72398.97515-1.74152 1.00194-3.87529 1.02565-5.89899.1362-11.62198 1.07121-23.23341 2.79522-34.71246" fill="none"/></g><path d="m128.52565 52.25657c-.86316-1.20728-2.03461-1.83667-2.97552-2.27881-.98871-.43823-1.74115-.72925-2.49451-1.09229-8.28882-3.96026-13.9239-12.44719-23.78186-14.98413-.25305-.06519-.50049-.10986-.75092-.16504.04419-.05469.08173-.09473.12787-.15381.67749-.87964 1.56921-2.25049 2.67999-4.39282.55365-1.07178 1.15991-2.33716 1.80225-3.83521.15662-.37622.31866-.76563.48633-1.1687.08124-.20239.16376-.40845.24774-.61792l.18091-.46606c.08136-.20898.16132-.42017.22388-.63428.25964-.85107.24255-1.74902-.21014-2.54614-.41827-.78394-1.28882-1.31787-2.22803-1.66431-2.37476-1.06592-5.50848-1.77051-8.88544-1.72559-3.20825.04492-6.52448.83667-9.33405 2.09351-.43192-1.43975-1.24864-2.65255-2.51849-3.47876.05475-.49805.0473-1.11499-.11981-1.89111-1.4614-6.45357-9.17819-8.85863-13.72839-4.97778-.05542-.31006-.13434-.64502-.27161-1.0332-1.07452-2.84017-3.77767-4.93393-6.76434-4.84766-1.58044.03003-3.09918.63892-4.16638 1.48169-.76697.58374-1.31873 1.25684-1.69397 1.87866-.22424-.13647-.50336-.27002-.86096-.396-3.03576-1.02333-6.86194-.18668-8.1814 2.66992-.17859.36499-.27838.75171-.32037 1.12793-5.16398-1.14308-14.51036 5.97266-11.21661 11.61841.09979.17969.20398.32813.30829.45923-.89423.62939-1.91345 1.8291-2.37463 3.52393-1.23238 4.21262 2.12962 9.76846 8.31561 9.28222.54608-.04761 1.0274-.13721 1.46362-.24463.00195.09375-.0061.17432.00378.27759.08929.91187.57129 2.16309 1.53406 3.23682.2652.30737.57526.59375.90784.86401-2.08929-.95605-5.75281-2.19312-10.14032-2.84912-3.49646-.54907-7.40399-.71265-11.08014-.45532-.92462.0835-1.77051.09644-2.88776.34473-.54553.12793-1.13861.32935-1.71027.66309-.57227.33691-1.07324.7771-1.45325 1.24536-.76611.94507-1.14014 1.92407-1.38898 2.79468-.25708.88281-.32336 1.66724-.41229 2.41187-.21802 2.72681.28296 5.09497.98248 7.02173.71326 1.93384 1.66046 3.44556 2.59631 4.63062 1.54633 1.96094 3.0592 3.01807 4.22852 3.66089-9.96626 7.44744-13.39004 18.65162-15.20282 30.95482-.16992 1.10693-.31604 2.2041-.46051 3.28882-.15125 1.21826-.30103 2.42432-.44891 3.61548-.10327 1.0376.08466 1.9646.67737 2.67065.62.72363 1.44574 1.03149 2.45483 1.01587 1.22565-.06299 2.43231-.125 3.61694-.18579 4.00995-.22339 7.75513-.52173 11.03137-.99121 7.39233-1.02051 15.30906-3.18845 21.39856-7.54883 1.71045-1.18823 3.16376-2.46313 4.42175-3.72437.68134-.68848 1.29828-1.37451 1.86548-2.05469.64893.92773 1.56836 2.41333 2.1579 4.62769.53564 1.91089.75085 4.27954.65656 6.95435-.44207 12.19252-3.2221 30.2804-1.59375 34.29321.44147 1.07227 1.31287 2.18677 2.62311 2.70654 1.30585.54248 2.66266.36255 3.685-.04346 1.03992-.41968 1.87421-1.06592 2.54032-1.85205.68264-.83447 1.06606-1.69482 1.33016-2.50537.3087-.97585 2.14012-35.03672 2.14514-35.13867.05432-1.03296.07202-1.83521.06262-2.47339 1.74225 2.07568 3.78729 3.98828 5.86505 5.72949 2.78918 2.33325 5.57623 4.59521 8.30548 6.82788.6817.55493 1.3584 1.10596 2.0285 1.65161l.55273.44897c.32513.26221.66644.50122 1.02057.69653.70874.39038 1.45605.60962 2.17572.5647.71899-.02856 1.44122-.35889 1.93274-.86011.49823-.48779.80957-1.17407.97852-1.97363.20428-.94434.40533-1.87427.60276-2.78735 2.4147-12.4531 2.66566-26.28866-2.36491-37.82447.96381.53711 2.14679 1.06128 3.52972 1.50684 11.32371 3.55168 18.70394-.15517 29.71985-4.4087 1.79205-.70752 3.59119-1.41797 5.38086-2.12451l1.33936-.53149 1.1333-.45874c.10223-.04443.21753-.08105.30914-.13257l.23969-.17603.47961-.35327c.99091-1.25608.7298-3.35471-.32885-4.79295zm-45.01593-29.53344c.12323-.33789.21478-.69678.28101-1.0708.1712-.0625.33899-.12793.51416-.18701 2.67578-.87427 5.74438-1.33228 8.59167-1.18164 2.83301.14453 5.4621.87671 7.21948 1.66797.04541.01563.01794 0 .034.00903l.00214.0022s.00244-.00366-.00037.00513l-.05634.15234c-.07587.2019-.15039.40039-.22375.59546-.14905.38965-.29309.76611-.43225 1.12988-.58136 1.44678-1.08167 2.69189-1.51251 3.76416-.88153 2.13818-1.47906 3.59131-1.81537 4.61401-.14813.44165-.23853.78979-.29681 1.08765-6.97025-.63287-15.58341 2.94516-19.07086 6.1958-1.41547 1.33301-2.10773 2.47119-2.45959 3.31274-.13757-.45654-.25684-.88965-.35199-1.30347-.75806-3.35254-.59094-5.75171-.51093-7.34937.0379-.57349.07257-1.04932.09778-1.45142 1.12445-.49146 2.02869-1.28711 2.54443-2.00928.98914-1.38647 1.27264-2.69995 1.30981-3.72803.38959.01514.87048-.02075 1.49847-.16992 2.43965-.66132 4.03018-2.28148 4.63782-4.08543zm-40.54352 10.77832c-.04803-.05469-.08771-.10181-.13239-.15381.9837-.41553 1.60907-.85645 1.99268-1.21924.86139-.86548.59375-1.33911.31299-1.81372-.2901-.4917-.60065-.86816-1.6015-.76147-.50232.03882-1.18286.19727-2.1319.35889-4.59497.65176-6.89905-1.86976-6.85944-4.68262-.00427-1.13647.39789-2.22607.80243-2.98755.3988-.77173.77734-1.27051.62793-1.52026-.07153-.12671-.32861-.15796-.69086-.07056.00494-.09399.00745-.18237.01703-.28394.30535-4.73534 5.54707-6.36763 10.02667-7.99414.60626-.17749.94415-.48901 1.2204-.96045.03131-.04297.06024-.09106.08405-.14526.10516-.18115.18481-.36548.20081-.57056.01453-.04004.02594-.08032.04297-.12012.15521-.38257.43219-.68579.82568-.94678 1.73558-1.12512 5.24041-.27685 6.35016-.73438.60669-.21191.78778-.68384.95135-1.22339.00714-.02344.01361-.04663.02057-.06982.63043-.37769 1.45587-.9165 2.44452-1.22192 2.61773-.9124 4.56458.20618 6.11753 2.47705.37435.56738.64327.98682.88436 1.27441.48346.58008.97809.59961 1.54309.53442.35138-.03979.69781-.07959.9516-.36597.18402-.04858.38306-.10522.60956-.16968 4.71473-1.31588 7.97769.33188 9.80872 4.21436.32709.71289.50049 1.23145.69336 1.59668.36584.73731.83417.87061 1.40375.92432.06342.0061.12701.01221.19043.01685.16071.32886.30652.68628.40979 1.06787.21887.7959.25806 1.66016.07776 2.34058-.03326.13574-.07855.27368-.1261.40942-1.36957.99365-2.47498 2.05103-3.24487 2.99927-.01294.01685-.02362.03125-.03644.04785-.13715.08154-.2572.1604-.36499.23779-.51776-.42749-.9436-.21973-1.36206-.02612-.51898.2373-.92047.52368-1.10968 1.13208-.10321.30347-.15729.68945-.289 1.22827-.13422.52686-.32532 1.25366-.85486 1.98828-.29608.39502-.67395.84302-1.25604 1.16675-.58118.33643-1.39862.54248-2.20313.53247-.71661.00903-1.38757-.14746-1.94452-.31494-.14825-.58008-.35797-1.02051-.56232-1.31226-.68524-.91553-1.19684-.6687-1.69324-.44604-.52332.23218-.92194.51318-1.07202 1.25-.08563.36792-.11426.85449-.24323 1.54224-.13373.67505-.33899 1.60083-.98438 2.57495-1.62595 2.3788-4.19138 2.79048-6.93768 2.0835-.22113-.05811-.41467-.1106-.59399-.15576.22412-.70605.2428-1.28906.18646-1.69556-.20642-1.14893-.78979-1.13135-1.32922-1.1394-.57336-.01196-1.05103.08618-1.50317.61938-.23859.26074-.47473.62915-.89667 1.10352-2.57483 2.86598-6.19518 2.30799-8.77295-.61548zm8.76563 13.15527c-.13556-1.01392-.42059-1.90259-.72687-2.67236-.63007-1.53662-1.34253-2.62378-1.8559-3.35425-.24152-.33594-.44202-.58423-.60492-.75732.2406.00317.48474.01538.71558-.00317.7431-.07275 1.41504-.25073 1.96954-.47656 1.86163-.77271 2.92944-1.97607 3.5329-3.00781.07166.10352.13409.20361.22797.31421 3.47975 4.05197 11.61606 2.1793 12.49414-4.51709.34796.23804.72784.46045 1.16998.62842.61957.24878 1.32764.39868 2.06219.4314-.04327.13574-.08661.26855-.12964.41748-.47711 1.76123-1.01526 4.54395-.33075 8.60938 1.31287 7.44556 7.89833 16.16763-8.22784 17.64258-13.61399 1.26779-11.04203-5.66869-10.37854-10.02759.17682-1.07644.22486-2.21365.08216-3.22732zm10.97607 46.69678c-3.11978 14.60654-2.30631 31.59967-3.14905 34.27954-.14551.47803-.35718.90356-.5741 1.17456-.24634.3042-.5921.57275-.9267.71509-.34106.13843-.59613.14087-.7215.08618-.13702-.03369-.35034-.20435-.51807-.5708-.86131-1.87086.65155-24.15948.29169-32.78882-.12024-2.82227-.59686-5.4209-1.43256-7.44604-.81-2.03442-1.909-3.47729-2.79395-4.30493-.15295-.14282-.28607-.24731-.42218-.35791 2.92031-3.66911 4.59259-7.64468 5.08563-10.53052.06049-.31543.10394-.60596.14624-.89453.46899 4.49951 2.21246 10.68604 6.27454 16.37109.02301.03345.04883.06567.07202.09912-.35978.49219-.78025 1.62647-1.33201 4.16797zm62.84558-38.66138-.05835.03613-.0318.01904-.0166.01001-.1452.06323-1.32172.57397c-1.76367.76929-3.53662 1.54248-5.30261 2.31274-10.52077 4.53332-16.76875 8.30922-28.01526 5.99609-1.95984-.4187-3.53424-.98462-4.66187-1.5249-.51196-1.0376-1.00519-1.92041-1.44196-2.64966-1.29224-2.17847-2.26764-3.11157-2.80151-3.56445-.5592-.43799-.80542-.32739-1.03894-.17065-.23352.15649-.42804.35059-.29034 1.03418.11267.69751.67804 1.81055 1.56757 4.01343 3.73095 9.12683 5.60121 18.49054 4.35608 31.54151-.21021 2.50024-.64099 5.3457-1.17938 8.40771-.12579.64185-.25391 1.29565-.38403 1.95972.00494.02515.00299.08032-.03864.08691-.01782.00366-.03717.00024-.05774-.00659-.01019-.00366-.0213-.00757-.03168-.01392l-.461-.35327c-.685-.52661-1.37677-1.05859-2.07373-1.59424-2.78711-2.13232-5.65662-4.32739-8.50378-6.50562-2.80414-2.16772-5.35016-4.41846-7.349-7.00464-4.09772-5.1167-6.17139-10.91309-7.04706-15.16479-.87268-4.28564-.8028-7.06543-1.12714-7.0791-.13818-.01587-.41357.96704-.52759 2.72119-.00421-.0144-.00879-.03345-.01294-.04736-.26331-.85571-.53192-.88916-.81219-.87061-.2804.01831-.54626.1084-.77252.91235-.11786.40112-.18524.97949-.38586 1.80518-.15192.82617-.3941 1.9021-.83136 3.26782-.96855 3.29325-3.35654 7.47446-7.22296 11.15112-1.15088 1.08496-2.47107 2.1875-4.01422 3.21167-8.58084 5.87191-20.28003 7.04995-30.46594 7.75635-.80817.05566-1.63135.11255-2.46753.17017-.03882.02344-.08533-.00659-.07843-.0564.0965-.91895.19421-1.84937.29291-2.78906.12549-1.0686.2522-2.14746.37988-3.23438 2.13676-17.31747 7.84425-30.88353 25.31531-35.89673 5.29706-1.47314 8.82465-1.21484 8.82813-1.57642.0423-.19116-3.5033-1.02026-9.19086.0332-2.81427.5481-6.14544 1.5647-9.50506 3.42578-.453.24609-.90656.50952-1.35962.78491-.11798-.10132-.22925-.198-.36725-.31372-.81927-.76807-2.10699-1.81201-3.4433-3.81323-.66577-.99097-1.34808-2.2168-1.85571-3.73584-.49768-1.51318-.84668-3.32715-.68524-5.34644.08234-1.10425.34692-2.40234.85004-3.04639.25262-.31396.42334-.45874 1.00946-.64063.54602-.16504 1.45844-.26294 2.29974-.3811 3.40759-.43726 7.07159-.57764 10.42621-.41431 6.72565.271 12.11371 1.78369 12.30444 1.21826.0116-.02808.00098-.06445-.02289-.10571.78452.33637 1.52576.51357 2.33441.56982.026.23364.12555.60449.30127 1.12891.27155.83472.73376 2.01392 1.07672 3.46313.16443.72339.29742 1.5144.30164 2.34155.00714.82642-.12091 1.6709-.37805 2.62158-.24353.94482-.59949 1.96655-.89453 3.13257-2.02645 8.29994 4.88659 11.49518 13.76691 11.09253 15.0802-.78497 16.11001-8.47828 12.65942-18.78027.12354-.06152.25873-.14941.42859-.31006.5257-.44824 1.24866-1.4585 3.17987-2.82104 4.33474-3.01219 13.04393-5.78812 19.69244-3.9856 8.76231 2.39042 14.1338 10.57604 23.16162 14.65308.88977.40405 1.85632.75903 2.56915 1.05615.73303.31421 1.25568.64844 1.50421.99023.05553.05376.11089.15337.06737.23491z" fill="#202020"/></g></svg>