<svg id="Layer_1" enable-background="new 0 0 136 136" height="512" viewBox="0 0 136 136" width="512" xmlns="http://www.w3.org/2000/svg"><g><g><path d="m53.97179 103.46929c-3.5 4.16016-9.04999 6.84033-11.33002 11.9502v.00977c-.23999.53027-.44 1.09033-.59998 1.67041l-1.04004-.37012c-1.73999 1.08984-3.94995 1.50977-6.22998 1.62012-.51001.02979-1.03003.02979-1.53998.02979-4.26001 0-8.69-.70996-13.06-2.06982-.02002 0-.04004 0-.06-.01025-4.98004-1.54004-9.88001-3.90967-14.37006-6.97998-.35999-.25-.73999-.54004-.94995-.87988-.11005-.18994-.17004-.37988-.15002-.62012.03998-.42969.34998-.70996.76001-.83008 1.33002-.37012 2.53998-.91992 3.70001-1.56982 4.17999-2.30029 7.63001-5.79004 12.75-6.25.78998-.06982 1.58997-.06982 2.39996 0 .37.02979.73999.06982 1.11005.12988l-.13-.04004c-6.33002-4.02979-10.20001-10.87988-13.25-17.35986-1.26001-2.66992-2.45001-5.3501-3.57001-8.04004-.69-1.66016.22998-3.16992 1.91998-3.16016.65997 0 1.32001-.02002 1.97003-.05957 3-.15039 5.95996-.59033 9.06995-.13037 4.88.74023 9.74005 3.68994 13.68005 7.32031.04999.06006.10999.09961.15997.15967 1.15002 1.06006 2.21997 2.18018 3.23999 3.34033 1.72003 1.93994 3.29999 4 4.82001 6.07959l-4.38-6.07959-1.46996-2.04006c-1.73004-2.77002-.55005-5.7002.66998-8.06006 1.78998-3.4502 3.57001-6.8999 5.35999-10.36035 1.01001-1.94971 3.35004-.42969 5.42999 1.62012 1.08002 1.05029 2.09003 2.24023 2.81 3.16992.39001.5.69.92041.88 1.2002 4.23999 6.27002 6.91003 13.33008 7.19 20 .29005 6.6499-1.97997 12.06982-5.78997 16.60986z" fill="#ee2a7b"/></g><g><path d="m34.77171 118.35339c-.50698.0234-1.02519.03074-1.53679.03083-4.2596-.00031-8.69606-.71932-13.06773-2.07255-.01589-.00075-.03668-.00565-.05405-.01408-5.30571-1.86327-10.46846-4.50001-15.31698-7.86029-.06667-.1151-.11742-.22951-.1425-.35411-.1404-.71326.62773-1.04154 1.26701-1.24811 1.12756-.36201 2.17404-.85149 3.18266-1.41206 7.04166 4.52979 14.81714 7.41278 22.53368 8.27282 2.59336.28767 3.91751 3.17519 3.1347 4.65755z" fill="#f9328d"/></g><g><path d="m16.96252 81.74342c2.18151 4.42119 4.76314 10.10042 9.40255 12.95284 3.39954 2.09332 1.60105 6.76659-1.80654 4.6728-.1032-.06258-.20318-.12891-.30319-.19522.36698.02427.73416.06808 1.10429.12727l-.12695-.04426c-6.329-4.0225-10.20389-10.88039-13.25489-17.36131-1.25648-2.66634-2.44601-5.34498-3.56667-8.03426-.69097-1.65814.22628-3.1717 1.92237-3.1628.66088.00347 1.31713-.0191 1.97069-.055 1.29584 3.73988 2.85205 7.44495 4.65834 11.09994z" fill="#f9328d"/></g><g><path d="m35.21295 77.98711c1.14412 1.06382 2.21674 2.18241 3.24331 3.34536-1.70693-.08913-3.58816-1.42982-3.24331-3.34536z" fill="#f9328d"/></g><g><path d="m48.88406 62.48943c-5.12529 3.66068-6.72291 10.80721-7.95039 17.09762-.21629 1.12968-1.06439 1.66662-2.0419 1.73816l-1.47017-2.03281c-1.72651-2.77451-.54723-5.70277.67253-8.06136 1.78543-3.45332 3.57107-6.90643 5.3599-10.36326 1.00449-1.94351 3.3433-.4236 5.43003 1.62165z" fill="#f9328d"/></g><g><path d="m130.4218 69.44927c-.45001.41992-.98004.8501-1.53003 1.26025-1.77996 1.31006-3.83001 2.41992-4.67999 2.81982-6.54999 3.04004-13.59003 4.51025-19.89001 3.79004-4.64001-.52002-8.01996-2.73975-12.04999-4.77979-4.19-2.12012-7.73999-5.02002-10.16998-9.1001-.5-.83008-.92999-1.68018-1.29999-2.54004-3.53003-8.1001-1.77002-17.22998 2.14996-25.03027.01001-.01953.02002-.03955.03003-.0498 2.22998-4.43994 5.20996-8.68994 8.79999-12.4502.28998-.28955.62-.60986.97998-.75.20001-.07959.38-.10986.60004-.05957.38995.09961.62.43994.65997.83984.14001 1.2998.46002 2.50977.88 3.7002 1.51001 4.25977 4.23999 8 3.85999 12.86963-.06.75-.19 1.5-.38 2.25-.07996.34033-.17999.68018-.29999 1.02002l.06-.10986c4.77002-5.33984 11.81-7.97021 18.37-9.87012 2.70001-.79004 5.39001-1.50977 8.09003-2.15967 1.66998-.41016 2.94.67969 2.65997 2.25977-.09998.62012-.19 1.24023-.25 1.85986-.33002 2.83008-.38 5.67041-1.31 8.52002-1.46002 4.47021-4.98999 8.58008-9.02002 11.74023-.06.04004-.10999.08984-.16998.12988-1.17999.91992-2.39001 1.75977-3.64996 2.5498-2.08002 1.32031-4.26001 2.51025-6.45001 3.62012l6.39001-3.20996 2.13995-1.08008c2.87-1.20996 5.42999.33008 7.45001 1.82031 2.96002 2.17969 5.91003 4.35986 8.86999 6.5498 1.26.9302.54998 2.27005-.83997 3.58987z" fill="#ee2a7b"/></g><g><path d="m78.7413 49.25577c.05792-.47869.13268-.96553.2132-1.44511.67132-3.99286 2.04426-8.04569 4.00154-11.94442.0032-.01478.01108-.03355.02171-.04859 2.58257-4.69918 5.86772-9.15047 9.78166-13.20068.11841-.04555.23365-.07628.35442-.08144.69077-.02659.87752.74178.97045 1.37145.16175 1.11026.45576 2.1633.82237 3.1913-5.3558 5.93384-9.28339 12.79801-11.30526 19.9048-.67821 2.38865-3.59375 3.20475-4.86009 2.25269z" fill="#f9328d"/></g><g><path d="m115.86731 37.95194c-4.48836 1.39396-10.21912 2.97777-13.62402 6.90673-2.49795 2.87849-6.59564.50452-4.09598-2.38144.07493-.08752.15286-.17148.23077-.25546-.08057.34043-.17947.67817-.29327 1.01641l.06149-.11249c4.76797-5.34048 11.8074-7.96303 18.36365-9.86878 2.69754-.78523 5.39605-1.50589 8.0937-2.16042 1.6633-.40357 2.9377.6791 2.66216 2.2677-.10737.61899-.18958 1.23748-.25889 1.8554-3.71012.66404-7.42864 1.57729-11.13961 2.73235z" fill="#f9328d"/></g><g><path d="m116.51365 55.61279c-1.17753.91586-2.39514 1.75662-3.64708 2.54768.35246-1.58693 1.90567-3.15299 3.64708-2.54768z" fill="#f9328d"/></g><g><path d="m128.88849 70.70979c-2.62435-5.34339-9.07227-7.89321-14.77592-9.97002-1.02496-.36907-1.39471-1.24314-1.30779-2.16998l2.13729-1.07882c2.87297-1.2099 5.43233.32669 7.45126 1.81735 2.9561 2.1821 5.91195 4.36437 8.8708 6.55017 1.66373 1.22776-.12958 3.19635-2.37564 4.8513z" fill="#f9328d"/></g><g><path d="m68.7196 11.83271c.5238 1.42676.80338 3.03112.86632 3.68287.5377 5.56808-.45731 10.90874-3.94029 15.2702-3.43789 4.30499-7.34669 8.3383-12.08725 11.21113-8.87594 5.37892-18.25446 4.88816-26.57037-1.16465-.01093-.004-.02365-.01181-.03257-.02119-2.90039-2.11337-5.42178-4.74845-7.36926-7.75992-.15349-.24177-.30791-.51481-.31688-.78754-.00204-.15078.02649-.29047.13778-.44235.1964-.26802.53333-.38908.86526-.37378 1.08623.05007 2.16226-.04416 3.24037-.21145 3.87039-.59046 7.69872-2.1193 11.49476-1.29017.58572.1267 1.1515.30812 1.69762.53507.24953.09705.49142.20697.72925.32765l-.07203-.05713c-2.86723-4.04053-2.87117-9.40074-2.44343-14.33127.1751-2.02877.40238-4.05082.68255-6.06464.17275-1.24167 1.42377-2.03293 2.61819-1.65221.4654.14835.93792.27857 1.41383.39944 2.18118.55947 4.4434.92246 6.45601 1.91938 3.15687 1.56248 5.40817 4.57299 6.74301 7.8288.01714.04655.03801.09137.05515.13793.38416.95152.696 1.9232.95762 2.91383.43838 1.65278.73928 3.35163.98296 5.0543l-.67245-4.96281-.2283-1.65995c-.11378-2.20369 1.88609-3.86612 3.68753-5.14548 2.63724-1.87328 5.27455-3.74637 7.91558-5.62119 1.48398-1.05436 2.53021.46074 3.18904 2.26513z" fill="#ee2a7b"/></g><g><path d="m36.48967 45.40102c-.36741-.09668-.73635-.2064-1.09773-.31942-3.00847-.94167-5.85545-2.39441-8.40393-4.24935-.01093-.004-.02365-.01181-.03257-.02119-3.00495-2.39633-5.60068-5.26904-7.68614-8.54745-.00122-.09033.00852-.17668.04046-.26405.18508-.49945.85844-.54527 1.39228-.53963.94067.01147 1.87487-.07869 2.81065-.2239 3.16843 4.5312 7.51143 8.14309 12.61896 10.41342 1.7171.7621 1.50166 2.95108.35802 3.75157z" fill="#f9328d"/></g><g><path d="m38.50025 17.42201c-.22106 3.38568-.66085 7.68599 1.4793 10.58466 1.56693 2.12611-1.5657 4.79768-3.13813 2.66947-.04795-.06391-.09213-.12957-.13634-.19522.24953.09705.49142.20697.72925.32765l-.07203-.05713c-2.86723-4.04053-2.87117-9.40074-2.44343-14.33127.1751-2.02877.40238-4.05082.68255-6.06464.17275-1.24167 1.42377-2.03293 2.61819-1.65221.4654.14835.93792.27857 1.41383.39944-.57511 2.7425-.95245 5.51968-1.13319 8.31925z" fill="#f9328d"/></g><g><path d="m52.88761 18.98887c.38416.95152.696 1.9232.95762 2.91383-1.17009-.4358-1.96455-1.73207-.95762-2.91383z" fill="#f9328d"/></g><g><path d="m68.7196 11.83271c-5.07885 1.27128-9.05521 5.61149-12.42897 9.47128-.60295.69409-1.41595.85926-2.13488.6902l-.2283-1.65995c-.11378-2.20369 1.88609-3.86612 3.68753-5.14548 2.63724-1.87328 5.27455-3.74637 7.91558-5.62119 1.48398-1.05435 2.53021.46075 3.18904 2.26514z" fill="#f9328d"/></g><g><path d="m130.4218 69.44927c-.45001.41992-.98004.8501-1.53003 1.26025-1.77996 1.31006-3.83001 2.41992-4.67999 2.81982-6.54999 3.04004-13.59003 4.51025-19.89001 3.79004-4.64001-.52002-8.01996-2.73975-12.04999-4.77979-4.19-2.12012-7.73999-5.02002-10.16998-9.1001-.5-.83008-.92999-1.68018-1.29999-2.54004 1.25995-2.14014 3.75995-3.2998 6.28998-1.3501 5.89996 4.55029 12.09998 9.34033 19.37 11.37988 7.94 2.23 16.13.40041 23.96001-1.47996z" fill="#db146f"/></g><g><path d="m53.97179 103.46929c-3.5 4.16016-9.04999 6.84033-11.33002 11.9502-.39001-1.47021-.14001-3.12988 1.12-4.58984 9.10999-10.47021 11.17999-27.32031 6.59003-40.22021-.77002-2.18018-.03003-3.91016 1.33997-4.9502.39001.5.69.92041.88 1.2002 4.23999 6.27002 6.91003 13.33008 7.19 20 .29004 6.64989-1.97998 12.06981-5.78998 16.60985z" fill="#db146f"/></g><path d="m132.68454 65.28796-.30426-.30273c-.10345-.10449-.15594-.11719-.23627-.17969l-.44061-.30469c-.58521-.40283-1.16193-.79981-1.7287-1.18995-1.13287-.77246-2.22583-1.51709-3.26721-2.22705-1.04108-.69775-2.03064-1.36084-2.95697-1.98145-.91797-.61035-1.80042-1.19922-2.69049-1.63184-.92584-.48242-1.85144-.74805-2.68158-.85547.76233-.59961 1.54126-1.24756 2.3407-1.99707 2.00171-1.89746 4.15802-4.29883 5.84796-7.65283.93054-1.81982 1.64594-4.21094 1.91321-6.62451.15491-1.21143.23364-2.42676.32794-3.62744.05237-.5874.10541-1.18262.15894-1.7832l.10901-.88135.0708-.53857c.03894-.30273.03564-.60742.01343-.91016-.10876-1.20996-.82123-2.34131-1.89447-2.91162-.52942-.29053-1.13141-.44922-1.73999-.47705-.31805-.01758-.58459.01074-.85486.04248-.24652.04541-.53729.10693-.65417.14893-1.25543.36963-2.51752.74121-3.77466 1.11182-2.51105.74658-5.00098 1.45898-7.35071 2.35547-4.7124 1.70898-8.79803 3.96777-11.32458 6.14209-.31195.26367-.60004.52197-.86774.77246.09186-1.31885.01672-2.75732-.34558-4.22607-.81168-3.66065-3.07561-7.1905-3.94843-10.45801l-.08331-.31348c-.06323-.20215-.10913-.51025-.16296-.72559-.11932-.46484-.24005-.93506-.36212-1.41064-.09229-.52686-.31238-.83691-.54694-1.12646-.23871-.2832-.51685-.51514-.88635-.7002-.37189-.18555-.82172-.28369-1.22333-.27246-.40576.01123-.78687.0918-1.17682.26367-.78632.30713-1.5647 1.15625-2.31171 2.00586l-.39618.44043c-.20539.22726-.21878.2535-.86639 1.03223-.39075.45996-.76343.94238-1.13495 1.43115-2.99261 3.89209-5.53876 8.47705-7.13959 12.93555-1.60968 4.46582-2.32251 8.71094-2.27374 11.85303.02637 1.57373.30963 2.854.64221 3.67676.33856.82715.67578 1.20166.79596 1.14893.26874-.11621-.30115-1.87109.14465-4.73877.41852-2.85693 1.5199-6.81934 3.3584-10.85449 1.83392-4.05029 4.46295-8.18018 7.40454-11.67969.36523-.43945.72968-.87402 1.11035-1.28662.69006-.76988.67067-.75516.84058-.92871.09406-.09814.21924-.22998.18475-.18896.03027-.00391.06799-.02539.07922.01416.00372.01807-.00183.03369-.00482.04346l-.005.01172c.00531.01855-.01147-.02686-.00275.00488.06987.23525.25664 1.27997 1.0636 3.271 1.29474 3.08887 2.5293 5.40869 3.02118 7.48047.54242 2.05664.40936 3.77539.07446 5.33252-.36224 1.55029-.88788 2.86328-1.3653 3.9585-.47949 1.09668-.91681 1.98389-1.25647 2.7124-1.42023 2.90088-1.15112 3.29346-.66925 3.61768.45032.30322.98077.55127 3.11542-2.09814.52283-.6748 1.14252-1.53857 1.81805-2.69678.67041-1.15869 1.41528-2.61182 1.98975-4.55127.10089-.3457.18793-.7207.2666-1.10791.57788-.40918 1.2511-.86816 2.04791-1.35693 2.66412-1.66553 6.65002-3.3877 11.29822-4.69287 2.30756-.68896 4.81439-1.23438 7.31696-1.82666 1.25031-.29883 2.50543-.59814 3.75403-.89648.19385-.05176.22345-.04004.29443-.05664.05212.00684.10736-.00439.11224.00391.03467.00928.06555.0249.08978.0459.04559.04639.06812.10449.05499.1582l-.01123.03613-.07288.39697-.15906.98096c-.09174.64941-.16901 1.28564-.23639 1.90137-.13617 1.22949-.24591 2.38818-.40857 3.4502-.30164 2.14453-.85999 3.86523-1.6109 5.36182-1.36566 2.72168-3.21362 4.86182-4.95776 6.57666-1.75568 1.71777-3.45837 3.02344-4.97595 4.10596-3.04657 2.146-5.29022 3.43652-6.74536 4.4165-2.95068 1.92041-2.87604 2.42529-2.61957 2.93359.25043.49561.60034.917 3.94257-.37549 1.66119-.6748 4.11206-1.72705 7.51477-3.85986.65222-.41455 1.34949-.89111 2.06555-1.40771.88568.12549 1.97455.49463 3.13123 1.2959.72424.47754 1.46796 1.10938 2.29651 1.79492.82373.67383 1.70361 1.39355 2.62939 2.15088.92578.74561 1.8974 1.52832 2.90448 2.33985.50336.40137 1.01556.81055 1.53534 1.22559l.39111.31104c.05396.04395.15668.12158.17084.13867l.05432.05859c.0661.08301.10333.18896.09033.29443-.0116.10547-.0625.20117-.12048.28223-.03107.0459-.05499.06934-.10187.125-.0885.10059-.16858.20215-.27386.30664-.39496.41748-.90564.83545-1.44434 1.23242-1.08417.79541-2.3147 1.52832-3.56635 2.19043-.31281.16455-.62915.3252-.93915.47266-.29858.146-.60535.27002-.9505.41699-.66241.28271-1.33246.54297-2.00275.79395-1.34198.49902-2.69812.92383-4.04584 1.27881-2.69586.70947-5.36469 1.11035-7.84198 1.20508-2.2901.08691-4.4848-.41455-6.38306-1.00684-7.0946-2.30859-11.58057-5.75439-14.57166-8.69971-2.98944-2.9668-4.56427-5.38526-5.64258-6.99756-1.07166-1.62744-1.62549-2.50635-2.05292-2.91064-.42609-.40723-.69366-.35547-.95697-.25684s-.50061.22656-.51849.83643c-.01495.60791.1557 1.72217.98535 3.68213.7453 1.72559 2.00281 4.17774 4.50067 7.12989-.60516.26563-1.33649.65479-2.22229 1.27197-3.59829 2.48888-6.7996 6.43987-8.57471 11.47021-.7218-2.78564-1.59875-5.52783-2.51794-8.25049-2.85301-8.33196-6.7411-16.94807-12.06885-24.04737-1.2688-1.6792-2.37933-2.96533-3.21063-3.8291 3.07568-1.72461 6.65698-4.38281 10.05054-8.75195 6.34689-8.26309 6.60594-18.74158 4.10266-24.36914-.28955-.60742-.66797-1.36768-1.44757-2.1333-.73114-.67285-1.76013-1.02588-2.69214-.72559-1.05328.3877-1.28986.74902-1.81097 1.1084-1.61253 1.24232-.999.76624-3.96637 3.08057-1.63251 1.31201-3.10291 2.40234-4.27625 3.52393-.61823.59228-1.10699 1.21582-1.46167 1.81543-.30725-.71924-.66443-1.46338-1.12122-2.23584-1.07104-1.79346-2.61688-3.78125-5.06934-5.33154-1.34381-.86963-3.07294-1.48682-4.7688-1.88623-.85486-.20947-1.70996-.37939-2.54938-.56006-.40851-.09326-.8222-.18799-1.23999-.2832l-.60443-.1582-.45886-.11865c-.21375-.05127-.43469-.07471-.65387-.08789-1.77875-.11816-3.53253 1.16309-3.93085 2.90186-.11432.51514-.09454.66748-.12152.91797l-.05569.71475-.10822 1.42871c-.1322 1.90527-.30511 3.77392-.29742 5.60889-.04657 3.65527.53198 7.08643 1.58429 9.33057.06238.13623.12646.25293.18982.37988-1.17981-.24902-2.49054-.35645-3.86065-.25195-3.41458.24484-2.79327.74626-11.10291 1.76465-.35553.06055-.78687.06836-1.08795.17334-.57458.2373-1.00226.55029-1.36566 1.12012-.36713.60791-.43896 1.23877-.33459 1.82715.28967.66943.69855 1.37695 1.04907 2.06641.49941.73488 1.03751 1.37659 1.22845 1.62158 2.48157 3.00537 5.74054 5.60059 9.03766 7.30859 3.3078 1.71729 6.54114 2.60889 8.99255 2.81104 2.48633.1958 3.95056-.50537 3.86774-.75244-.06189-.29248-1.48151-.17627-3.5946-.80908-2.10388-.62891-5.00629-1.87695-7.80737-3.73291-5.14455-3.38961-7.827-7.56446-7.91486-7.66455l-.00891-.04053c-.00385-.02637-.00415-.0459-.00153-.06055-.00336-.03418.06403-.04053.0899-.02051.01416.00635.02338.01221.02924.01709 0 0 .00769.00195.01324.00293l.25604-.0166c2.54149-.17163 6.43444-1.38929 8.99384-1.64063 1.64844-.16016 2.92932-.02148 4.01776.32031 2.19244.71924 3.63269 1.83105 4.65063 2.46436 2.02612 1.37451 2.44891 1.1792 2.85779.76465.37964-.38428.763-.83203-.93933-2.91211-.43805-.51416-1.02075-1.12793-1.85583-1.80762-.83765-.6709-1.92676-1.43457-3.45258-2.04395-.02655-.01074-.05859-.01758-.08545-.02832-.12219-.40625-.24713-.85938-.35956-1.36719-.50079-2.16357-.60669-5.23486-.21069-8.66895.16974-1.71631.50446-3.5376.77466-5.35986l.20746-1.37012.10211-.68457c.0296-.21484.07996-.53271.08044-.47217.0625-.10303.17883-.12451.24634-.09375.00812.00684.0174.00537.02399.01416.00854.00586-.00446.00098.02319.00879l.17633.05859.70068.22314c.77633.23629 1.3611.38085 3.8056 1.01807 1.51495.41553 2.69702.88477 3.61481 1.47852 1.71234 1.07568 2.93188 2.55176 3.82178 3.95654.89404 1.41455 1.46198 2.77686 1.90698 3.99805.86011 2.45264 1.25427 4.2666 1.63922 5.4668.72266 2.43311 1.22174 2.49316 1.78497 2.41553.5506-.07617 1.06744-.22559 1.06238-2.84619-.03381-1.31152-.13086-3.26807-.90814-6.16602-.12891-.45654-.28857-.94727-.46594-1.45166.41504-.57813 1.07111-1.2207 1.9881-1.86035 2.42078-1.52588 5.75745-3.62891 9.44153-5.95117.16992-.04395.33673.07031.42102.20361.04999.06934.22363.4082.41693.90283 1.69933 4.62943 1.14111 13.39118-4.46173 20.69629-3.68774 4.74414-7.62708 7.3335-10.65692 8.96777-7.29055 3.68027-10.14161 3.46099-9.90887 5.01807.35672 2.4851 9.27939-.68808 11.58978-1.66309.46387-.21826.94781-.45898 1.44623-.72217.61865 1.01611 1.54102 2.46973 2.62311 4.30664 4.53456 7.75961 7.65744 15.68048 10.17243 24.19825.94409 3.24365 1.86816 6.55029 2.49658 9.72021.6582 3.18506.84631 6.20166.88757 9.21729.05328 2.99463.10559 5.8999.49005 8.48486.20917 1.33398.48944 2.59912.81573 3.80859-.4743-.38965-.98065-.79199-1.55695-1.21826-1.03101-.74902-2.41333-1.66748-4.07654-2.45996-1.65259-.7915-3.60071-1.40137-5.46766-1.48096-.76801-.03906-1.5014.01514-2.1759.12939 1.26831-2.58252 2.24457-5.68311 2.46405-9.20508.68006-9.36359-4.53187-21.99718-12.23517-28.82618-.63165-.55127-1.2854-1.08301-2.06744-1.55127-.62701-.40332-2.09302-1.09229-3.28625-.77832-.60596.13135-1.13171.49756-1.52063.96045-.18567.24707-.36536.52393-.41241.65771l-.24249.50635c-.3208.67236-.63696 1.33496-.94757 1.98584-2.7679 5.86713-4.17115 8.81861-4.60248 10.21143-.38232 1.12939-.50299 2.21436-.45636 3.14453-.78406-.72607-1.63123-1.46338-2.59631-2.20361-7.92522-6.01199-13.22565-5.82946-19.8634-5.24756-.61786.04736-1.24353.0957-1.87543.14404l-.92694.03906-.5426.01855c-.2757.00684-.56879.0542-.85944.11719-1.24908.29443-2.32941 1.23193-2.73883 2.4541-.44824 1.23486-.14178 2.54932.23578 3.30518.58728 1.24023 1.17773 2.4873 1.76593 3.72949 2.69922 5.66157 6.30956 13.27165 11.83325 17.95605.38428.33154.75037.62305 1.1048.89355-1.4389.12305-2.98816.45605-4.51868 1.11719-2.67822 1.08643-5.16101 2.97266-7.8233 4.62842-.73407.45215-1.51343.896-2.34351 1.27783l-.31342.1416-.15802.07227-.07935.03613c-.1496.06592-.15015.05566-.22882.08984-.47278.19727-.95123.39648-1.435.59814-.22412.1084-.52258.18408-.68866.3208-.18268.12891-.34875.26465-.49023.41211-.28308.29492-.50104.61719-.64484 1.02539-.14783.40723-.19403.89795-.12195 1.32422.07117.43115.21844.82324.46924 1.20459.24518.38135.60162.75 1.04407 1.09033.44495.34082.96558.64746 1.45325.97168 1.0863.68896 2.15509 1.31592 3.3042 1.92285 4.54089 2.44531 9.7287 4.30225 14.62347 5.19629 4.9032.90234 9.42554.91016 12.67071.32227 1.62506-.29639 2.90112-.80762 3.69702-1.28857.79907-.4873 1.13324-.89502 1.06177-1.00439-.15802-.24854-1.87866.66309-4.93652.71777-3.04089.07959-7.34924-.3584-11.86304-1.55664-4.52838-1.19141-9.27625-3.20361-13.41754-5.65918-1.03186-.59912-2.0592-1.25684-2.97485-1.88184-.01752-.03418-.04303-.06836-.0047-.08691.01776-.00635.03418-.00293.04382-.00195l.01184.00342c.22144-.09521.44019-.18945.65607-.28271 1.04816-.46631 1.97198-.98828 2.79004-1.49121 2.9696-1.86816 5.17603-3.55078 7.25842-4.43066 2.05908-.92529 3.88611-1.10059 5.56866-1.01904 1.68005.10498 3.13672.42627 4.35699.73633 1.22272.31152 2.21838.6167 3.0318.84814 3.24981.99316 3.59814.6709 3.8396.14111.2251-.49268.37952-1.06299-2.74133-2.80322-.79132-.42139-1.79492-.91064-3.11194-1.40576-1.31641-.49072-2.95087-1.00586-5.05426-1.25537-.34033-.03955-.70306-.06299-1.07477-.07715-.54266-.54346-1.16339-1.1875-1.84003-1.96826-5.27672-5.98599-8.44766-14.77622-11.41571-21.94482-.20251-.46387-.10687-.59521-.09894-.64014.04254-.05322.09595-.08789.15234-.08545 8.15776-.02915 12.23592-1.81181 20.81726 4.46533 2.08044 1.52979 3.71985 3.07861 5.09472 4.47217 2.73248 2.80322 4.43597 4.91943 5.68604 6.27002 2.46454 2.75 2.95465 2.60303 3.41595 2.26904.44977-.3252.80762-.74365-1.09961-3.97998-.98126-1.60254-2.48248-3.96191-5.26123-7.12158-.52008-.5835-1.10834-1.20117-1.73584-1.83057-.11908-2.74047.93996-3.87978 6.09009-12.93994.33691-.59864.67981-1.20801 1.02771-1.82618l.26093-.46533c.10858-.20068.13287-.22314.16516-.26367.07562-.08301.18011-.14063.29211-.14551.25671.02002.28088.0332.91388.43506.50928.34424 1.0343.81201 1.54163 1.30811 6.01732 5.92848 10.958 17.45648 10.30774 26.25098-.23938 3.77197-1.44244 6.90234-2.90759 9.41699-.73926 1.25684-1.54657 2.37402-2.35577 3.36377-1.83421 2.24714-4.82277 4.50315-6.88043 6.61426-1.22076 1.22998-2.1153 2.38672-2.73212 3.38721-.60474 1.01611-.9588 1.85693-1.13318 2.52246-.19391.65918-.23639 1.13086-.20789 1.46729.03857.6626.28717.76465.55756.84082s.54596.09619.94702-.3418c.1897-.22168.42816-.54883.76929-1.00928.32153-.46729.77112-1.05664 1.40143-1.79297.6499-.72852 1.50214-1.59229 2.70129-2.60449 1.19189-1.02539 2.73389-2.1626 4.60382-3.73047.92615-.79395 1.94037-1.68799 2.94147-2.83984.89136-1.02783 1.77765-2.19434 2.61584-3.5249.8858.00635 1.93951.11377 3.03564.42578 2.76276.73242 5.62549 2.95508 7.55634 4.37744 4.12459 3.05334 5.44974 4.4376 6.63495 4.84277 1.65824 3.20621 3.6727 6.04301 5.97461 8.69287 3.51874 3.94629 6.32605 6.12988 8.26453 7.50586 1.95483 1.3623 3.07867 1.9082 3.73383 2.09032.65332.18359.84656-.00635 1.01172-.23389.16522-.22754.28357-.47363-.07068-1.04198-.35559-.56592-1.1911-1.4458-2.83905-3.0332-1.63202-1.59717-4.10864-3.90381-7.23071-7.70508-1.53302-1.91553-3.21039-4.22363-4.75848-7.10059-1.56012-2.86523-2.88971-6.35645-3.54242-10.47852-.33929-2.26465-.42542-4.97021-.53229-8.01953-.05005-1.7168-.18463-3.5874-.42712-5.49414.16565-.51709.35217-1.05322.57068-1.6001 1.94141-5.11665 5.16107-9.38225 9.12427-13.02979.91766-.85156 1.58118-1.43164 2.03168-1.90723 1.39221 1.36523 3.06451 2.78271 5.11041 4.14551 2.85663 1.90971 6.52188 3.61329 9.78473 4.6499 2.16101.67041 4.8103 1.27686 7.80481 1.10693 2.78925-.16455 5.74231-.69873 8.66211-1.5791 1.46008-.43994 2.91479-.95947 4.34009-1.55859.71191-.30127 1.42041-.61328 2.11731-.94873.33453-.16064.71222-.33594 1.07593-.53467.35547-.19043.6955-.38477 1.03284-.58398 1.34448-.7998 2.63263-1.65674 3.85785-2.66553.61096-.50879 1.20697-1.0459 1.76587-1.71094.14026-.16016.27606-.34668.40973-.52783.16125-.23535.33966-.51025.45795-.78418.27295-.54346.40503-1.13379.36707-1.71094-.03578-.58053-.29445-1.1235-.65956-1.5566z" fill="#202020"/></g></svg>