<svg id="Layer_1" enable-background="new 0 0 136 136" height="512" viewBox="0 0 136 136" width="512" xmlns="http://www.w3.org/2000/svg"><g><g><path d="m98.92215 10.84487c-.25928-2.2717-.92385-5.03106-3.20203-5.63951-1.5885-.42426-3.25623.49164-4.36095 1.67415-1.10473 1.18252-1.85791 2.64082-2.97011 3.81677-.37653.39812-.92494.79016-1.44528.59548-.34875-.13048-.54326-.47912-.75655-.77612-1.97303-2.74745-6.66725-1.66781-8.95599.84025s-3.25724 5.91465-5.38884 8.54902c-.78573.97106-1.78662 1.86056-3.0286 2.13958-1.8144.40761-3.6879-.59949-4.92717-1.94426s-2.0313-3.01182-3.08248-4.49886c-1.69504-2.39786-4.4343-4.43728-7.42516-4.16941s-5.47155 3.84354-3.76207 6.2318l-.20156-1.60349c1.34954 6.38579 2.75138 12.90603 6.18206 18.51636s9.32602 10.2428 16.06092 10.50024c7.99705.30569 14.9833-5.51612 19.10426-12.15053 4.21698-6.789 6.36199-14.76513 6.09946-22.6806" fill="#d7df23"/></g><g><path d="m69.45309 71.75528c-.01952.53915-.04887 1.06871-.09776 1.59828l-.07823 7.82523c.01958-3.22623-.04887-6.64879-.68443-9.81566-.66485-3.28513-1.95547-6.30549-4.41933-8.55112-2.29772-2.09864-5.40693-3.20661-8.51613-3.28513-2.3759-.0589-4.85933.44146-7.05925-.46062-.85069-.34331-1.58399-.89251-2.17061-1.57912-1.59372-1.84343-2.14125-4.66747-1.27105-7.0012 1.19281-3.19703 4.5856-5.27604 7.98811-5.39335 3.40252-.10821 6.70728 1.51975 9.12232 3.93201 2.04344 2.03974 3.50032 4.58942 4.56602 7.27604.20535.4903.38133.98061.55732 1.48097 1.55463 4.47163 2.25857 9.23726 2.06302 13.97367z" fill="#2bb673"/></g><g><path d="m69.45309 71.75528c-.29331-.09815-.58662-.22552-.86042-.39214-.66485-3.28513-1.95547-6.30549-4.41933-8.55112-2.29772-2.09864-5.40693-3.20661-8.51613-3.28513-2.3759-.0589-4.85933.44146-7.05925-.46062-.85069-.34331-1.58399-.89251-2.17061-1.57912.5671-.75508 1.41773-1.35312 2.58125-1.65717 5.97397-1.56907 12.53462-1.78453 17.82416.47067.20535.4903.38133.98061.55732 1.48097 1.55462 4.47162 2.25856 9.23725 2.06301 13.97366z" fill="#1fa361"/></g><g><path d="m61.75395 96.35011c-.01952.53914-.04888 1.06871-.09775 1.59827l-.07824 7.82524c.01957-3.22624-.04887-6.6488-.68443-9.81567-.66486-3.28513-1.95548-6.30549-4.41934-8.55112-2.29772-2.09864-5.40693-3.20661-8.51613-3.28513-2.3759-.0589-4.85933.44146-7.05925-.46062-.85069-.34331-1.58399-.8925-2.17061-1.57912-1.59372-1.84343-2.14125-4.66747-1.27105-7.0012 1.19281-3.19704 4.5856-5.27604 7.98811-5.39335 3.40251-.10821 6.70727 1.51975 9.12232 3.93201 2.04344 2.03974 3.50032 4.58942 4.56602 7.27604.20535.4903.38133.98061.55732 1.48096 1.55464 4.47165 2.25859 9.23727 2.06303 13.97369z" fill="#2bb673"/></g><g><path d="m61.75395 96.51354c-.29331-.09815-.58662-.22552-.86042-.39214-.66486-3.28513-1.95548-6.30549-4.41934-8.55112-2.29772-2.09864-5.40693-3.20661-8.51613-3.28514-2.3759-.05889-4.85933.44147-7.05925-.46062-.85069-.34331-1.58399-.8925-2.17061-1.57912.5671-.75509 1.41774-1.35313 2.58125-1.65717 5.97397-1.56907 12.53462-1.78453 17.82416.47067.20535.49031.38133.98061.55732 1.48097 1.55463 4.47164 2.25858 9.23726 2.06302 13.97367z" fill="#1fa361"/></g><g><path d="m48.55447 119.58133c-.01951.53915-.04887 1.06871-.09775 1.59828l-.07824 7.82524c.01957-3.22624-.04887-6.6488-.68443-9.81567-.66486-3.28513-1.95548-6.30549-4.41934-8.55112-2.29773-2.09864-5.40693-3.20661-8.51613-3.28514-2.3759-.05889-4.85933.44147-7.05925-.46062-.85069-.34331-1.58399-.89251-2.17061-1.57912-1.59372-1.84343-2.14125-4.66747-1.27105-7.0012 1.19281-3.19704 4.5856-5.27604 7.98811-5.39335 3.40252-.10822 6.70728 1.51975 9.12232 3.93201 2.04344 2.03974 3.50032 4.58942 4.56602 7.27604.20535.49031.38133.98061.55732 1.48097 1.55465 4.47164 2.25859 9.23727 2.06303 13.97368z" fill="#2bb673"/></g><g><path d="m48.55447 119.58133c-.29331-.09815-.58662-.22552-.86041-.39214-.66486-3.28513-1.95548-6.30549-4.41934-8.55112-2.29773-2.09864-5.40693-3.20661-8.51613-3.28514-2.3759-.05889-4.85933.44147-7.05925-.46062-.85069-.34331-1.58399-.89251-2.17061-1.57912.5671-.75509 1.41773-1.35313 2.58125-1.65717 5.97397-1.56907 12.53462-1.78453 17.82416.47067.20535.49031.38133.98061.55732 1.48097 1.55463 4.47163 2.25857 9.23726 2.06301 13.97367z" fill="#1fa361"/></g><g><path d="m79.44415 57.02629c-.40852.35098-.80344.70373-1.18621 1.07179l-6.05699 4.93332c2.50511-2.02399 5.2182-4.10112 8.08487-5.57396 2.97718-1.52349 6.13737-2.39099 9.42352-1.85535 3.06802.49677 5.86828 2.2472 7.86531 4.63855 1.52516 1.82804 2.68092 4.08868 4.75442 5.25364.7975.45392 1.68256.68752 2.58353.72044 2.43058.10313 4.97495-1.22536 6.25408-3.3613 1.75188-2.92661 1.26173-6.88379-.76511-9.62727-2.03394-2.73782-5.36168-4.31799-8.74745-4.71157-2.86375-.33386-5.7602.11012-8.51995.94637-.51041.14409-1.00254.31123-1.50252.48463-4.45694 1.56384-8.61362 3.97838-12.1875 7.08071z" fill="#2bb673"/></g><g><path d="m79.44415 57.02629c.2592.16909.54119.32.84167.43114 2.97718-1.52349 6.13737-2.39099 9.42352-1.85535 3.06802.49677 5.86828 2.2472 7.86531 4.63855 1.52516 1.82804 2.68092 4.08868 4.75442 5.25364.7975.45392 1.68256.68752 2.58353.72044.23608-.9152.17312-1.95514-.31404-3.05761-2.49506-5.66553-6.41153-10.94877-11.46439-13.69617-.51041.14409-1.00254.31123-1.50252.48463-4.45694 1.56386-8.61362 3.9784-12.1875 7.08073z" fill="#1fa361"/></g><g><path d="m73.08679 86.38972c-.40852.35098-.80344.70373-1.18621 1.07179l-6.05699 4.93332c2.50511-2.02399 5.2182-4.10112 8.08486-5.57397 2.97719-1.52348 6.13737-2.39098 9.42352-1.85535 3.06802.49677 5.86829 2.24719 7.86531 4.63855 1.52516 1.82804 2.68092 4.08868 4.75442 5.25364.7975.45392 1.68256.68752 2.58353.72044 2.43059.10312 4.97495-1.22537 6.25409-3.36131 1.75188-2.92661 1.26172-6.88379-.76512-9.62727-2.03394-2.73782-5.36168-4.31799-8.74744-4.71157-2.86375-.33386-5.7602.11012-8.51995.94637-.51041.1441-1.00254.31123-1.50252.48463-4.45694 1.56386-8.61362 3.9784-12.1875 7.08073z" fill="#2bb673"/></g><g><path d="m72.95927 86.49148c.25919.16909.54118.32.84166.43114 2.97719-1.52348 6.13737-2.39098 9.42352-1.85535 3.06802.49677 5.86828 2.24719 7.86531 4.63855 1.52516 1.82804 2.68092 4.08868 4.75442 5.25364.7975.45392 1.68256.68752 2.58353.72044.23608-.9152.17312-1.95515-.31404-3.05762-2.49506-5.66553-6.41153-10.94877-11.46439-13.69617-.51041.1441-1.00254.31123-1.50252.48463-4.45693 1.56386-8.61362 3.9784-12.18749 7.08074z" fill="#1fa361"/></g><g><path d="m61.49408 113.99119c-.40852.35098-.80344.70373-1.18621 1.07179l-6.057 4.93332c2.50511-2.02399 5.2182-4.10112 8.08487-5.57397 2.97718-1.52348 6.13737-2.39098 9.42352-1.85535 3.06802.49677 5.86828 2.24719 7.86531 4.63855 1.52516 1.82804 2.68092 4.08868 4.75442 5.25364.79749.45392 1.68256.68752 2.58353.72044 2.43058.10312 4.97495-1.22537 6.25408-3.36131 1.75188-2.92661 1.26173-6.88379-.76511-9.62727-2.03394-2.73782-5.36169-4.31799-8.74745-4.71157-2.86375-.33386-5.7602.11012-8.51995.94637-.51041.1441-1.00254.31123-1.50252.48463-4.45694 1.56385-8.61362 3.97839-12.18749 7.08073z" fill="#2bb673"/></g><g><path d="m61.49408 113.99119c.2592.16909.54119.32.84166.43114 2.97718-1.52348 6.13737-2.39098 9.42352-1.85535 3.06802.49677 5.86828 2.24719 7.86531 4.63855 1.52516 1.82804 2.68092 4.08868 4.75442 5.25364.79749.45392 1.68256.68752 2.58353.72044.23608-.9152.17312-1.95515-.31404-3.05762-2.49506-5.66553-6.41153-10.94877-11.46439-13.69617-.51041.1441-1.00254.31123-1.50252.48463-4.45694 1.56386-8.61362 3.9784-12.18749 7.08074z" fill="#1fa361"/></g><path d="m112.03466 52.44341c-1.11786-1.55664-2.59418-2.78223-4.19879-3.6626-3.21893-1.78467-6.92847-2.14404-10.15149-1.71777-3.25519.42627-6.11853 1.49414-8.58844 2.63916-3.12285 1.4612-6.04639 3.36488-8.55231 5.67334-.76886.37549-1.45538.76611-2.06689 1.14307-1.46613.90869-2.5387 1.75879-3.39172 2.4707.40894-4.56738.3783-7.74756.27307-9.91016-.05463-.95117-.1225-1.70313-.19977-2.3125.15186-.02344.30743-.03418.45691-.06641 1.57739-.25684 3.05341-.75293 4.40906-1.33691 8.28934-3.62129 14.05432-12.1384 16.66132-20.80176 1.33667-4.54736 1.52307-7.77344 1.51764-9.91162-.02747-2.1499-.29559-3.25488-.5401-3.81885-.25171-.56445-.51996-.59424-.80096-.58545s-.54816.06201-.78406.61377c-.24225.55029-.41669 1.59961-.7464 3.57275-.34882 1.96436-.80902 4.88672-2.21625 8.97363-3.00352 8.5472-9.50427 17.83009-18.22223 19.47266-.61438.15771-1.25043.19043-1.88867.27539-.64105.00781-1.29187.06006-1.94287-.00586-2.6087-.1709-5.276-1.12061-7.62018-2.64355-2.34943-1.51855-4.39001-3.53906-5.99695-5.72119-3.1897-4.44092-4.78204-9.41943-5.92834-12.95801-.9826-3.15723-1.64197-5.27441-1.98114-5.68701.04059-.73731.42712-1.71924 1.32855-2.54883.48895-.44336 1.11743-.84375 1.8222-1.01709.67047-.16309 1.50342-.14453 2.32434.10254 1.64215.46387 3.27264 1.7959 4.45184 3.53369.96474 1.40347 1.7024 3.16369 3.00696 4.75293 1.59671 1.94841 4.00091 3.26532 6.48047 2.87744.92328-.13818 1.76526-.52783 2.44946-.99121.68958-.4668 1.24756-1.00684 1.72955-1.5542 1.86591-2.18457 2.84985-4.5 3.92236-6.24854.52588-.88721 1.06134-1.6377 1.61859-2.25537.47595-.53857 1.07587-.93848 1.6817-1.24512 1.1026-.56787 2.31696-.71533 3.10046-.52881.39478.09326.68304.23975.89984.44531.30084.33105.61652.87842 1.08997 1.24756.44318.3501.94507.55762 1.51276.61523 1.13202.09521 2.13019-.4624 2.90271-1.31494.19611-.21484.38092-.42627.54346-.63232l.19684-.24854.14459-.19238c.17572-.24854.34814-.49268.51746-.73242.62878-.93066 1.13428-1.67969 1.60516-2.17969.461-.49365.9798-.84033 1.41156-1.01758.44147-.18066.76514-.20508 1.0603-.14844.59338.08984 1.06653.58105 1.4364 1.15186.69635 1.18506.98602 2.07666 1.30182 2.45313.29871.40625.56781.41553.8476.38232.27856-.03271.54327-.09229.72253-.60059.08514-.25537.15308-.62305.14795-1.17041-.01031-.54736-.06683-1.27539-.40265-2.26563-.18402-.49316-.4411-1.06104-.9129-1.65576-.46283-.58789-1.20197-1.19873-2.1521-1.52393-.95319-.3501-2.1424-.35303-3.19336-.01563-1.06305.33057-2.03455.92285-2.90424 1.74121-.85913.82031-1.50787 1.74316-2.13745 2.59473-.15295.20166-.30878.40674-.46753.61572l-.11682.14551-.05859.07275-.01392.01465c-.01837.01904-.02759.02344-.02759.02344-.01691.00684-.03204.00977-.04474 0-.00623-.00488-.00934-.01318-.01068-.02051.01367.01709-.04303-.07471-.19635-.22949-.75018-.74658-1.75208-1.25586-2.75739-1.49512-2.03668-.46338-4.04053-.07422-5.85858.82227-.99268.49854-2.02106 1.19629-2.8866 2.18896-.79218.8999-1.47083 1.92041-2.05054 2.95459-1.16541 2.06982-2.04779 4.21338-3.336 5.82715-.62518.78516-1.31635 1.32129-1.9342 1.44287-.62.15771-1.48315-.04346-2.28326-.55908-.79932-.48926-1.46661-1.26611-2.14093-2.21582-.66901-.93799-1.30646-2.01563-2.13623-3.05029-1.65051-2.05273-3.85938-3.61035-6.26868-4.03467-1.18335-.21484-2.37994-.12891-3.44604.28467-1.03729.41455-1.80646 1.09131-2.36475 1.78711-1.12054 1.40771-1.32733 3.02051-.98529 3.96729.19012.56104.44122.88623.63403 1.0498.08014 1.06445.28705 2.65137.63806 4.66455.70392 3.71484 1.86127 9.01025 5.08612 14.19727 1.64136 2.55713 3.81158 4.97949 6.47821 6.89404 2.6535 1.91357 5.87213 3.25439 9.19354 3.58984.66895.08643 1.33551.08545 1.99902.08545-.38615 2.50993-.59956 6.3336-1.44775 12.38965-.27582 2.09668-.67102 4.49561-1.17407 7.20703-.06793-2.00439-.33417-4.36621-.94696-6.93359-.64221-2.64795-1.58704-5.55469-3.27448-8.37207-1.66724-2.79102-4.24347-5.48438-7.6416-6.90723-1.68561-.71631-3.56458-1.11816-5.48163-1.03027-4.14165.20186-7.6903 2.65113-9.2038 5.92676-1.56508 3.27734-.76525 7.61163 1.90186 10.15088.63696.5957 1.35248 1.11426 2.14014 1.44775.76587.3501 1.526.53711 2.23431.64941 2.5946.34961 4.57501-.05713 6.14374.06689 1.59137.08008 3.05652.47363 4.30609 1.04053 2.52441 1.13428 4.05048 3.03467 5.05609 4.87061.95856 1.88477 1.45459 3.70313 1.77576 5.26172.32501 1.56201.48663 2.87598.63824 3.93652.03729.31006.07391.59277.11029.86133-.69485 3.18976-1.30632 6.04372-1.97699 9.39355-.59302 2.85303-1.22736 5.88086-2.10815 8.9624-.27087.9917-.56689 1.98828-.8739 2.98584-.06525-1.36113-.21378-2.74237-.54926-4.25684.24018-3.39357-.09986-6.89427-.89587-10.22949-.64221-2.64795-1.58704-5.55469-3.27448-8.37207-1.66718-2.79102-4.24347-5.48438-7.6416-6.90771-1.68555-.71582-3.56458-1.11768-5.48157-1.02979-4.14165.20186-7.69032 2.65105-9.20386 5.92676-1.56456 3.27647-.76616 7.61076 1.90186 10.15088.63696.5957 1.35248 1.11426 2.1402 1.44775.76581.3501 1.52594.53711 2.23431.64893 3.37074.45483 11.21433-1.85694 15.50586 5.97852.95856 1.88477 1.45459 3.70313 1.77576 5.26172.32507 1.56201.48663 2.87549.63824 3.93652.24213 2.01074.46198 3.12109.68805 3.73926-1.16498 3.04932-2.47058 6.01709-3.8764 8.77539-2.3374 4.59668-4.94214 8.5752-7.21265 11.63379.02924-.37109.05591-.771.07758-1.22656.02826-1.13281.03033-2.54736-.17987-4.3252-.08618-.7168-.20898-1.50098-.39502-2.34082.06238-.88135.09259-1.90771.06287-3.07031-.0553-2.04932-.32373-4.49854-.95874-7.15918-.64215-2.64795-1.58704-5.55469-3.27448-8.37207-1.66724-2.79102-4.24347-5.48438-7.6416-6.90771-1.68561-.71582-3.56458-1.11768-5.48163-1.02979-4.02952.19538-7.64661 2.55564-9.2038 5.92676-1.5649 3.27719-.76559 7.61131 1.90186 10.15088.63696.5957 1.35248 1.11426 2.14014 1.44775.76587.34961 1.526.53711 2.23431.64893 2.5946.3501 4.57501-.05713 6.14374.06738 1.59137.08008 3.05652.47314 4.30609 1.04053 2.52441 1.13428 4.05054 3.03467 5.05609 4.87061.95856 1.88477 1.45459 3.70313 1.77576 5.26172.32501 1.56201.48663 2.87549.63824 3.93652.24701 2.05127.47083 3.16602.70166 3.77637-2.12323 2.61133-3.52533 4.13232-3.33289 4.34326.16022.18213 2.30145-1.28711 5.28333-4.23926 2.17505-2.16895 4.73505-5.20117 7.22473-8.85059.52716-.28418 1.16949-.6582 1.97516-1.15576.9231-.5415 2.04968-1.23389 3.47223-1.95166 1.41779-.71777 3.14703-1.46094 5.21564-1.88086 2.05957-.35059 4.49115-.33008 6.94391.94824 1.21844.62939 2.43524 1.53467 3.48492 2.7334 1.07172 1.1543 1.98541 2.95605 3.86761 4.76904.52667.48486 1.14435.96387 1.89276 1.34717.74915.41113 1.59967.65039 2.46234.78076 3.6888.52094 7.55891-1.59737 9.12335-4.8335 1.64016-3.28472 1.26803-7.57507-1.09161-10.88037-1.11786-1.55713-2.59418-2.78271-4.19879-3.66309-3.21893-1.78467-6.92847-2.14355-10.15149-1.71777-3.25519.42676-6.11853 1.49414-8.58844 2.63916-3.13554 1.46715-6.05639 3.37388-8.55231 5.67334-.76886.37549-1.45538.76611-2.06689 1.14307-.04865.03027-.08844.05859-.13623.08887 2.82172-5.13428 5.24854-10.93848 6.995-16.62061.57092-1.78223 1.05133-3.55713 1.48468-5.29102.38416-.22168.81494-.479 1.30847-.78369.92316-.54199 2.04974-1.23389 3.47229-1.95215 1.41779-.71777 3.14703-1.46094 5.21564-1.88086 2.05957-.3501 4.49115-.32959 6.94385.94873 1.21851.62891 2.4353 1.53418 3.48499 2.73291 1.07172 1.15479 1.98541 2.95605 3.86761 4.76904.52667.48535 1.14435.96387 1.8927 1.34766.74921.41113 1.59973.6499 2.4624.78027 1.73914.24609 3.54297-.09277 5.15851-.90088 1.59674-.81006 3.10303-2.14941 3.96478-3.93262 1.63771-3.27866 1.2716-7.56914-1.09155-10.88037-1.11792-1.55664-2.59424-2.78223-4.19879-3.6626-3.21893-1.78516-6.92847-2.14404-10.15149-1.71777-3.25525.42627-6.11853 1.49365-8.58844 2.63916-3.0798 1.44107-6.02245 3.34088-8.55237 5.67334-1.48605.7258-2.88091 1.61065-4.19373 2.60547.60486-2.75146 1.16632-5.30518 1.65869-7.54541 1.54932-7.0293 2.60895-12.73389 3.18536-17.34424.5235-.2832 1.1593-.65381 1.95447-1.14502.9231-.54199 2.04968-1.23389 3.47229-1.95166 1.41772-.71777 3.14697-1.46094 5.21558-1.88086 2.05957-.35059 4.49121-.33008 6.94391.94824 1.21844.62939 2.43524 1.53418 3.48499 2.7334 1.07166 1.1543 1.98535 2.95605 3.86755 4.76904.52667.48486 1.14435.96387 1.89276 1.34717.74915.41113 1.59967.65039 2.4624.78076 3.68863.52094 7.55882-1.5973 9.12329-4.8335 1.64051-3.2851 1.26775-7.57491-1.09159-10.88081zm-53.52338 34.41992c-1.08807-1.21143-2.5387-2.30664-4.22827-3.11035-6.50694-3.09122-10.99871.01962-13.72766-2.53076-.63635-.58057-1.15356-1.48438-1.38995-2.50439-.22321-1.02686-.19745-2.13184.24658-3.1123.43567-1.01855 1.23541-1.96484 2.27966-2.67139 1.04089-.70898 2.31628-1.16455 3.60132-1.27686 1.30676-.11377 2.69135.10352 3.99951.59033 2.65588.96875 4.87378 2.98584 6.47717 5.33154 1.61591 2.35205 2.69977 4.98682 3.50427 7.4292.52277 1.59863.89868 3.11816 1.18488 4.53027-.51611-.89746-1.1488-1.80713-1.94751-2.67529zm-13.19946 23.06787c-1.08807-1.21143-2.5387-2.30664-4.22827-3.11084-1.69385-.8042-3.64471-1.34717-5.77112-1.47217-2.14545-.12549-4.14111.21094-5.74493-.04639-.88855-.14355-1.57733-.41895-2.21161-1.01172-.63635-.58057-1.15356-1.48438-1.39001-2.50439-.22314-1.02686-.19745-2.13184.24664-3.1123.43567-1.01855 1.23541-1.96484 2.2796-2.67139 1.04089-.70898 2.31635-1.16455 3.60138-1.27686 1.30676-.11377 2.69135.10352 3.99945.59033 2.65594.96875 4.87384 2.98584 6.47723 5.33105 1.61584 2.35254 2.69977 4.9873 3.50427 7.42969.52277 1.59863.89868 3.11816 1.18488 4.53027-.51611-.89745-1.1488-1.80712-1.94751-2.67528zm26.7171-1.16504c2.40985-.89063 5.1441-1.67871 7.98749-1.87207 2.83057-.19922 5.78241.29639 8.18604 1.7793 1.19067.72559 2.21783 1.67871 2.93842 2.77441.70911 1.0791 1.14423 2.36182 1.2392 3.61816.09729 1.2583-.14258 2.47363-.66528 3.44922-.48779.95898-1.33289 1.66602-2.27185 2.12988-.9422.44971-1.96826.60498-2.81573.4668-.85541-.12939-1.49908-.49854-2.16376-1.10645-1.19824-1.09814-2.17566-2.86768-3.60229-4.46826-2.68969-3.01943-6.3453-4.78642-9.78595-5.00244-1.19159-.09033-2.31238-.021-3.34796.13574 1.28751-.65966 2.71708-1.31542 4.30167-1.90429zm11.46521-27.5c2.40979-.89014 5.1441-1.67822 7.98749-1.87207 2.83057-.19873 5.78241.29639 8.18604 1.7793 1.19067.72607 2.21783 1.67871 2.93842 2.77441.70905 1.0791 1.14423 2.36182 1.23914 3.61865.09729 1.25781-.14252 2.47363-.66528 3.44922-.48779.9585-1.33289 1.66602-2.27179 2.12988-.94226.44922-1.96832.60449-2.8158.4668-.85535-.12939-1.49902-.49902-2.1637-1.10693-1.19824-1.09814-2.17566-2.86719-3.60229-4.46826-2.70551-3.03613-6.36582-4.78668-9.78595-5.00244-1.19171-.09033-2.31262-.021-3.34827.13574 1.28765-.65918 2.71728-1.31543 4.30199-1.9043zm-17.28369-19.16113c-1.08807-1.21094-2.53876-2.30664-4.22827-3.11035-1.69385-.8042-3.64471-1.34766-5.77112-1.47266-2.14545-.12549-4.14111.21143-5.745-.04639-.88849-.14355-1.57727-.41846-2.21155-1.01172-.63635-.58057-1.15356-1.48438-1.39001-2.50439-.22314-1.02686-.19745-2.13184.24664-3.1123.43567-1.01855 1.23541-1.96436 2.2796-2.67139 1.04089-.70898 2.31635-1.16455 3.60138-1.27686 1.30676-.11328 2.69128.10352 3.99945.59033 2.65594.96875 4.87384 2.98584 6.47723 5.33154 1.61584 2.35254 2.69971 4.98682 3.50427 7.4292.52283 1.59863.89874 3.11816 1.18494 4.53027-.5161-.89745-1.14879-1.80712-1.94756-2.67528zm43.45441-.55469c-.48779.95898-1.33289 1.66602-2.27185 2.12988-.9422.44971-1.96826.60498-2.81573.4668-.85541-.12939-1.49908-.49854-2.16376-1.10693-1.19824-1.09814-2.17566-2.86719-3.60223-4.46777-2.70016-3.03105-6.35854-4.78671-9.78601-5.00293-1.19159-.09033-2.31238-.02051-3.34796.13623 1.28754-.65967 2.71704-1.31592 4.3017-1.90479 2.40985-.89014 5.1441-1.67822 7.98755-1.87207 2.83051-.19873 5.78235.29688 8.18597 1.77979 1.19073.72559 2.21783 1.67871 2.93842 2.77441.70911 1.0791 1.14429 2.36182 1.2392 3.61816.09727 1.2583-.1426 2.47363-.6653 3.44922z" fill="#202020"/></g></svg>