<svg id="Layer_1" enable-background="new 0 0 136 136" height="512" viewBox="0 0 136 136" width="512" xmlns="http://www.w3.org/2000/svg"><g><g><path d="m90.51131 35.10376c-2.65997 5.22998-9.23999 7.02002-15.09998 7.38989-6.46002.41016-13.31-.44995-19.14001-3.08984-3.35999-1.52002-6.38995-3.63013-8.79999-6.44019-.21997-1.09986-.34998-2.18994-.39001-3.25-.29999-7.16992 3.17999-13.48999 8.51001-18.84985 6.13-6.16016 16.5-8.13013 23.87-3.54004 3.42999 2.12988 5.94 5.37012 7.89001 8.94995.14001.25.28003.5.40002.75.59998 1.13013 1.13995 2.29004 1.63 3.45996 1.97999 4.64014 3.41999 10.11011 1.12995 14.62012z" fill="#a97c50"/></g><g><path d="m50.97134 35.47364c-11.16998 13.04004-22.33002 26.08008-33.5 39.13012-.72998.85986-1.52002 1.75-2.58002 2.12988-1.07001.38013-2.48999.01001-2.87-1.05005-.33997-.93994.23004-1.94995.34003-2.94995.08002-.75-.14001-1.48999-.57001-2.09985-.59998-.87012-1.59003-1.47998-2.65002-1.47021-.79999.01025-1.64996.30005-2.35999-.0498-1.34998-.68018-.81-2.73999.01001-4.01001 3.72998-5.80005 9.23999-10.19018 14.70001-14.40014 7.64001-5.88989 16.76996-12.73999 24.70001-18.34985.16998-.12012.32996-.23999.48999-.3501z" fill="#f7941e"/></g><g><path d="m56.68136 39.88379c-6.39001 16.54004-12.58002 28.98999-20.17004 45.02002-1 2.11987-2.14996 4.36987-4.20996 5.48975-2.07001 1.11011-5.29004.30029-5.71002-2.00977-.29999-1.67017.79004-3.78003-.38-4.92017-.02997-.03003-.07001-.07007-.10999-.09985-1.12-.91992-2.82001-.01001-4.23999-.31006-1.54999-.32007-2.42999-2.10986-2.29004-3.67993.13-1.58008 1.01001-2.98022 1.88-4.31006 6.46002-9.83008 13.36005-19.73999 21.24005-29.61987 2.37-2.99023 4.83997-5.98022 7.40997-8.96021z" fill="#f7941e"/></g><g><path d="m61.58132 52.15381c-.19 2.5498-.39996 5.09985-.63995 7.63989-.14001 1.67993-.30005 3.36011-.47003 5.04004-.82001 8.11011-1.83002 16.19995-2.87 24.29004-.37 2.87988-.89001 6-3.02002 7.98999-2.13 1.97998-6.38 1.72998-7.20996-1.06006-.14001-.44995-.17004-.91992-.17004-1.39014 0-.60986.05005-1.22998 0-1.82983-.07996-1.08008-.67999-2.28003-1.75-2.40991-1.33997-.16016-2.53998 1.46973-3.81995 1.00977-.57001-.19995-.92004-.77002-1.17004-1.32983-2.32001-5.11011-.07996-11.03003 2.15002-16.17993 2.54999-5.91016 5.10999-11.81005 7.65997-17.7102 1.28003-2.94995 2.56-5.8999 3.84003-8.85986.90997-2.1001 1.64001-5.79004 3.58997-7.15991.54004-.38013 1.24005-.61011 1.89001-.46021.5.11011.92999.42017 1.27002.80005 2.45001 2.71996.95996 8.3701.71997 11.6201z" fill="#f7941e"/></g><g><path d="m78.95132 92.37378c-.13995 1.25-.35999 2.53003-1.06995 3.55981-.72003 1.02002-2.04004 1.72021-3.23004 1.3501-1.76996-.55005-2.89001-3.12988-4.46997-3.15991-.20001 0-.40002.03003-.62.11987-.91003.36011-1.24005 1.45996-1.92004 2.16992-1.51996 1.62012-4.46997.72998-5.67999-1.13989-1.20001-1.86987-1.16998-4.25-1.09998-6.47998.27002-8.19995.52997-16.40991.79999-24.61011.13-4.15991.27002-8.30981.40002-12.46997.09998-3.16992-.42999-7.57007 2.19995-9.94995 1.20001-1.08008 3.19-1.38989 4.46002-.43994.08002.06982.16003.13989.22998.20996 3.17004 3.04004 3.33002 9.26001 4.21002 13.31006 1.16998 5.37988 2.33002 10.75 3.5 16.12988 1.53004 7.04004 3.08003 14.23999 2.28999 21.40015z" fill="#f7941e"/></g><g><path d="m103.35134 89.33374c-.15997.96997-.62 1.95996-1.5 2.40991-1.90002.9502-4.15002-1.18994-6.19-.8501-.14001.03027-.28998.07007-.42999.12012-2.78998 1.02002-1.35999 5.59009-3.21002 7.91016-1.46997 1.83984-4.56 1.44995-6.26001-.16016-.92999-.87988-1.56-1.97998-2.01996-3.17993-.41003-.98999-.70001-2.05005-.97003-3.09009-.45996-1.70996-.91998-3.41992-1.37-5.13989-1.81-6.76001-3.59998-13.54004-5.35999-20.31006-.47003-1.78003-.92999-3.57006-1.39001-5.34985-.64001-2.42017-1.26001-4.83008-1.89001-7.24023-.51996-2.02979-1.08997-4.06006-1.60999-6.08984-.26001-1.02002-.14996-1.97021.09003-2.93994.17999-.74023.42999-1.47998.64001-2.25.10999-.38013.23999-.79004.58997-.96021.16998-.07983.34998-.08984.53998-.09985.94-.04004 1.87006-.09009 2.81-.12012.10004-.01001.19-.01001.29004-.01001 1.02002-.05005 2.03998-.07983 3.06-.11987.25 0 .5-.01001.75-.02002.35999-.01001.73999-.02002 1.08002.11987.88.36011 1.82996 3.34009 2.31 4.25.89996 1.71997 1.77997 3.44019 2.64996 5.17017 1.71002 3.40991 3.37 6.83984 5.02002 10.27979 3.27997 6.83007 6.54999 13.68017 10.21997 20.32006 1.26 2.27001 2.56999 4.78002 2.15001 7.35009z" fill="#f7941e"/></g><g><path d="m119.11135 77.64355c-2.85004 1.24023-2.91003-.6499-4.35999 2.26025-.68005 1.36987-.5 2.71997-1.19 3.75-.36005.52979-.95001.96997-2 1.29004-7.11005 2.15991-12.45001-10.24023-15.14001-14.90015-2.73999-4.73999-5.41003-9.52002-7.98999-14.34985-1.29004-2.42017-2.57001-4.84009-3.82001-7.27002-.89001-1.74023-3.21002-4.65015-2.13-6.66016.41998-.79004 1.15002-1.37988 1.84998-1.93994 1.42999-1.14014 2.84003-2.41016 4.48999-1.07007 1.49005 1.20996 2.73004 2.97998 3.98004 4.44019.04999.0498.08997.10986.14001.15991 2.90997 3.34985 5.76996 6.76001 8.62 10.16992 5.57996 6.67993 11.10999 13.40991 16.98999 19.83007 1.14996 1.26003 2.11999 3.61989.55999 4.28981z" fill="#f7941e"/></g><g><path d="m128.70131 64.98364c-.19.19995-.41998.37012-.66998.5-1.93999 1.09009-3.32 2.88013-3.64996 5.04004v.01001c-.02002.1499-.04004.29004-.05005.43994-.03998.47021-.08997.93018-.16998 1.39014-.15997 1-.47998 2.10986-1.73999 2.27979-.84003.11011-1.67999-.28979-2.23999-.92993-10.59003-11.87989-21.42999-23.66993-31.66004-35.80982-.29999-.36011-.60999-.78003-.56-1.25.04004-.25.17004-.47021.31-.67017 1.17004-1.75 3.01001-3.07007 3.73999-5.0398l.16003-.2002.15997-.18994c9.65002 9.85987 22.92999 15.33985 33.36005 24.37012 1.48999 1.28979 2.95995 2.70996 3.72997 4.52979.77003 1.81007.66999 4.13013-.72002 5.53003z" fill="#f7941e"/></g><g><path d="m60.94137 59.7937c-.14001 1.67993-.30005 3.36011-.47003 5.04004-.82001 8.11011-1.83002 16.19995-2.87 24.29004-.37 2.87988-.89001 6-3.02002 7.98999-2.13 1.97998-6.38 1.72998-7.20996-1.06006-.14001-.44995-.17004-.91992-.17004-1.39014 2.53003-3 3.74005-6.95996 4.67004-10.84985 1.52997-6.34009 2.62-12.80005 3.45996-19.27002.41004-3.15014 3.11005-4.73999 5.61005-4.75z" fill="#ef8511"/></g><g><path d="m78.95132 92.37378c-.13995 1.25-.35999 2.53003-1.06995 3.55981-.72003 1.02002-2.04004 1.72021-3.23004 1.3501-1.76996-.55005-2.89001-3.12988-4.46997-3.15991 1.63995-8.63013 2.85999-17.3501 1.5-26.11011-1.08002-6.95996-3.25-13.68994-4.87-20.53003-.33002-1.41992-1.20001-3.5-1.11005-4.92993.05005-.91016-.37-.51001.48004-.98999.56-.32007 1.82996-.20996 2.53998-.23999.08002.06982.16003.13989.22998.20996 3.17004 3.04004 3.33002 9.26001 4.21002 13.31006 1.16998 5.37988 2.33002 10.75 3.5 16.12988 1.53004 7.04004 3.08003 14.23999 2.28999 21.40015z" fill="#ef8511"/></g><g><path d="m128.70131 64.98364c-.19.19995-.41998.37012-.66998.5-1.93999 1.09009-3.32 2.88013-3.64996 5.04004 0-.63631-.88521-1.83697-1.08597-2.5167-.23895-.80903-.46819-1.70801-.44164-2.55714.05128-1.63978.03358-3.09601-.17478-4.76549-.04309-.34522-.08645-.69186-.17854-1.02735-.15534-.56586-.44528-1.08538-.76297-1.57874-2.02874-3.15049-5.39142-5.55708-8.42285-7.65771-3.46527-2.40125-6.95002-4.84477-9.8933-7.8869-.29997-.31005-.54996-.64012-.74997-.95993-1.66003-1.08008-3.29999-2.11011-4.89001-3.12988-1.09998-.69019-1.76001-1.6001-2.08002-2.57007-.44-.30005-.88-.6001-1.31-.90015-1.58997-1.10986-2.22998-2.67993-2.21997-4.22998l.15997-.18994c9.65002 9.85987 22.92999 15.33985 33.36005 24.37012 1.48999 1.28979 2.95995 2.70996 3.72997 4.52979.77002 1.81007.66998 4.13013-.72003 5.53003z" fill="#ef8511"/></g><g><path d="m119.11135 77.64355c-2.85004 1.24023-2.91003-.6499-4.35999 2.26025-.68005 1.36987-.5 2.71997-1.19 3.75-.04004-.26025-.06-.54004-.06-.83008.04999-6.62988-5.24005-11.87988-8.89001-17-4.06-5.68994-8.12-11.37988-12.17999-17.07006-1.5-2.11011-1-4.17993.37-5.55981.04999.0498.08997.10986.14001.15991 2.90997 3.34985 5.76996 6.76001 8.62 10.16992 5.57996 6.67993 11.10999 13.40991 16.98999 19.83007 1.14996 1.26002 2.11999 3.61988.55999 4.2898z" fill="#ef8511"/></g><g><path d="m103.35134 89.33374c-.15997.96997-.62 1.95996-1.5 2.40991-1.90002.9502-4.15002-1.18994-6.19-.8501-.14001.03027-.28998.07007-.42999.12012-2.78998 1.02002-1.35999 5.59009-3.21002 7.91016-1.46997 1.83984-4.56 1.44995-6.26001-.16016-.92999-.87988-1.56-1.97998-2.01996-3.17993.46997-1 1.19-1.95996 2.20996-2.84009 1.58002-1.36987 3.57001-1.87988 5.35004-2.88989 3.51996-1.98999 3.59998-4.21997 1.98999-7.64014-5.28998-11.23999-11.29999-22.19995-17.34003-33.05981-1.84998-3.33008.42004-6.4502 3.22003-7.29004.25 0 .5-.01001.75-.02002.35999-.01001.73999-.02002 1.08002.11987.88.36011 1.82996 3.34009 2.31 4.25.89996 1.71997 1.77997 3.44019 2.64996 5.17017 1.71002 3.40991 3.37 6.83984 5.02002 10.27979 3.27997 6.83007 6.54999 13.68017 10.21997 20.32006 1.26001 2.27002 2.57 4.78003 2.15002 7.3501z" fill="#ef8511"/></g><g><path d="m44.62136 36.69385c-6.14001 4.78979-12.60004 9.18994-18.62 14.12988-2.98004 2.43994-5.87 5.02002-8.5 7.83984-2.15003 2.32007-6.47003 6.22998-5.71002 9.69018.17999.82983.16998 1.59009 0 2.28003-.59998-.87012-1.59003-1.47998-2.65002-1.47021-.79999.01025-1.64996.30005-2.35999-.0498-1.34998-.68018-.81-2.73999.01001-4.01001 3.72998-5.80005 9.23999-10.19018 14.70001-14.40014 7.64001-5.88989 16.76996-12.73999 24.70001-18.34985.44001 1.44994.07996 3.05981-1.57 4.34008z" fill="#f9a64b"/></g><g><path d="m43.02132 50.74366c-5.79999 10.52002-14.67999 20.68994-16.81 32.71997-.02997-.03003-.07001-.07007-.10999-.09985-1.12-.91992-2.82001-.01001-4.23999-.31006-1.54999-.32007-2.42999-2.10986-2.29004-3.67993.13-1.58008 1.01001-2.98022 1.88-4.31006 6.46002-9.83008 13.36005-19.73999 21.24005-29.61987 1.06002 1.39989 1.43001 3.30981.32997 5.2998z" fill="#f9a64b"/></g><g><path d="m87.35134 16.27368c-.75-.16992-1.51001-.54004-2.21002-1.13013-5.62-4.75-13.13995-3.53979-19.57001-1.21973-6.95996 2.50977-10.94995 7.06982-14.5 13.34985-.97998 1.72998-2.47998 2.43994-3.98999 2.43994-.29999-7.16992 3.17999-13.48999 8.51001-18.84985 6.13-6.16016 16.5-8.13013 23.87-3.54004 3.42999 2.1299 5.94 5.37013 7.89001 8.94996z" fill="#b28760"/></g><g><path d="m90.51131 35.10376c-2.65997 5.22998-9.23999 7.02002-15.09998 7.38989-6.46002.41016-13.31-.44995-19.14001-3.08984.28003-2.77002 2.67999-5.56006 6.23999-4.86011 5.83002 1.13989 12.32001 1.94995 17.93005-.57007 4.96997-2.23999 8.15997-7.02979 6.41998-12.45996-.60004-1.87012-.13-3.41992.89001-4.48999.59998 1.13013 1.13995 2.29004 1.63 3.45996 1.98 4.64014 3.42 10.11011 1.12996 14.62012z" fill="#9e734f"/></g><path d="m131.58554 59.54762c-.31525-1.07031-.79163-1.95117-1.32935-2.73267-1.08502-1.55371-2.32214-2.63672-3.39678-3.56396-3.9657-3.36938-7.71838-5.8855-11.00885-7.99854-3.29736-2.11084-6.14484-3.84155-8.5592-5.36182-4.82758-3.03052-7.94208-5.2085-10.01434-6.7373-1.03241-.76563-1.82715-1.34253-2.44958-1.76489-.47345-.34253-.84717-.5813-1.14941-.74536.00262-.06104.01379-.12109.01569-.18213.06848-2.13721-.29694-4.29297-.90741-6.38184-.60236-2.1001-1.46429-4.1355-2.41809-6.1499-.9682-2.02368-2.10797-4.06396-3.51807-6.00684-1.42188-1.92798-3.11133-3.78076-5.17267-5.24683-2.04333-1.47852-4.45612-2.53906-6.91266-3.04858-7.01719-1.48047-14.65863.96067-19.63098 5.90039-1.52356 1.52417-2.80219 3.0874-3.93579 4.68628-2.27264 3.17847-3.65009 6.51514-4.26825 9.40649-.5918 2.91089-.46155 5.32642-.19556 6.92822.07562.52881.17804.96338.2782 1.3208-.1347.01318-.24133.06323-.33344.13501-.00006 0-.00018.00024-.00024.00024l.00006-.00024c-.24475-.34814-6.66187 3.92383-15.65192 10.19116-2.24268 1.57471-4.65082 3.26563-7.16718 5.03271-2.51984 1.76465-5.12067 3.62915-7.71973 5.68701-4.03819 3.19257-7.81672 6.65289-10.71826 10.95776l-.18848.27612-.21356.3501c-.13409.23513-.25574.47487-.36499.72219-.2099.50977-.39874.94727-.50934 1.81128-.23297 1.53418.44708 3.10742 1.80176 3.76636.74377.37964 1.62921.44287 2.50147.33545.56104-.06543.74103-.06348.85474-.0354.28558.04614.66815.29956.88611.63989.1106.16602.1803.34253.2077.49414.02136.17993.03198.20654-.02576.49023-.05933.28247-.19434.68237-.3183 1.24854-.02502.11377-.07153.35986-.09058.56055-.02454.20752-.03241.41553-.0285.62183.00159.41553.09363.81592.2157 1.20337.34894.97583 1.12927 1.74951 2.07227 2.15186.46912.20435.98212.32471 1.48767.36157.44952.03149.89465-.00195 1.34271-.10107 1.7832-.4541 2.7326-1.51709 3.47552-2.29883.03967-.04614.07611-.08813.11566-.13403-.16119.32275-.3136.66016-.448 1.02124-.24432.68237-.422 1.38867-.45209 2.22363-.01697.83325.12671 1.63818.44733 2.40332.31458.76123.81451 1.50415 1.56378 2.08984.72321.5979 1.82971.92188 2.6427.9187.81091.01563 1.42206-.09302 1.8894-.13086l.30255-.01758c.10022-.00659.17004.00366.15436.00098.01752.00391.03375.01025.04755.01978.02808.01855.04266.05029.04364.07935-.00415-.10059.00684.31714-.06219.79028-.0592.47998-.15973 1.05884-.18604 1.75757-.01624.34277-.00006.74146.06226 1.15918.0788.43237.20422.88281.40894 1.2915.39935.82666 1.03369 1.47656 1.69958 1.91797.67072.44604 1.3786.71582 2.08099.87256 1.4032.2771 2.83173.18091 4.17126-.45605 1.23853-.59619 2.13745-1.44189 2.86328-2.30933.85352-1.05811 1.45062-2.11304 1.9458-3.09937.02014.22021.02808.43945.05975.6604.1452.9104.34546 1.8269.69165 2.69629l.25507.65625c.04022.09302.12732.27686.21844.44507.08923.16553.18597.32666.29248.47974.41956.61719.99854 1.10669 1.68323 1.35718.58246.19653 1.20996.24658 1.82019.11401.30518-.06104.60492-.17236.89594-.28638l.40387-.18604.2533-.12744.41656-.21143.16589-.07715c.04492-.021.02405-.00879.03912-.01489.02625-.0061.05255-.0083.07697-.0022.039.01245.07025.03931.0838.07446l.0426.12769c.03534.11401.06067.2439.0705.36426.08917.63159-.17987 1.78198.13135 3.34741.31689 1.63184 1.69635 3.0686 3.06049 3.57764 1.38.59155 2.74976.61035 4.03802.39893 1.27368-.25146 2.54181-.82031 3.52203-1.76465.87347-.83936 1.54218-1.82104 1.99634-2.79126.57739-1.22632.91064-2.41064 1.13843-3.52148.10565 1.1543.36499 2.36084.97528 3.5481.24158.46143.60364 1.0083 1.01782 1.43555.41779.42383.8761.79199 1.37659 1.08423.99927.57739 2.15308.9353 3.45081.85547.64758-.05103 1.32373-.22803 1.94922-.5647.60974-.33521 1.17963-.88599 1.50464-1.33667.32629-.43774.56299-.83569.68213-.98462.01788-.01685.03693-.03052.05859-.03491.02228-.00439.04468-.00024.06201.01123l.02271.01904.00909.0105c.12848.12052.16165.1354.45087.43262-.0274.08179-.05469.14941-.08215.24023-.51251 1.75562-1.08807 5.24951-1.43756 12.15015-.1933 3.78052-.14337 9.74365.23273 14.74146.36334 5.00048 1.01056 9.02685 1.56738 9.00854.56708-.01807.9386-4.05762 1.31232-9.00683.36115-4.95166.76465-10.8147.95526-14.54419.25232-4.98267.38153-8.17847.34564-10.24438.03796.01611.07117.03516.11035.05054.63367.27319 1.44287.37744 2.11206.28687 1.38208-.17725 2.42139-.85205 3.21686-1.69336.81116-.90308 1.20636-1.84985 1.47156-2.74219.25568-.88892.3623-1.70264.44006-2.43286.00262-.02417.00299-.04688.00555-.07129.19507.79761.39459 1.60181.64709 2.44971.35272 1.16797.8017 2.39355 1.54156 3.56787.36938.58423.8139 1.15039 1.33661 1.65454.57367.55078 1.22437.97437 1.91302 1.28809 1.37378.6106 2.94629.86646 4.58496.39502.80908-.23828 1.6167-.70581 2.23108-1.36108.61328-.65234 1.00378-1.39941 1.23639-2.07935 2.32179-6.58972-1.20798-5.79013 5.20575-4.43164.66187.1311 1.50616.18848 2.37701-.06567.85034-.24414 1.6543-.82007 2.138-1.44775.98767-1.26025 1.20172-2.59766 1.25708-3.70972.05341-1.15601-.15186-2.21558-.42059-3.15088-.02789-.09326-.06348-.17578-.09283-.26733.71875.52319 1.51398.98389 2.42365 1.32568 1.05084.38965 2.25275.5625 3.40991.43213 1.16772-.16138 2.18536-.40991 3.34619-1.21875.57111-.40796 1.08722-1.05542 1.37903-1.68311.29993-.63208.42255-1.19702.52185-1.64526.19415-.9353.27832-1.33765.57526-1.85962.18512-.35815.30334-.51563.27753-.47437.01044-.00781.0238-.00977.03522-.00586l.00806.00244.30927-.00415c.27551-.00952.55609-.03809.83862-.0813 1.42395-.27515 2.85003-.77687 3.48627-2.07983.22607-.47046.34546-.98413.36499-1.50757.15509.0105.31036.0249.46472.01489.89734-.04761 1.78021-.40137 2.40137-1.05347.62854-.59717 1.00354-1.65405 1.11212-2.19507.146-.62012.17529-1.08325.25452-1.61597.07928-.60303.09692-.79956.18457-1.15552.07709-.32178.19946-.62939.34625-.92383.2901-.5918.72009-1.1167 1.22369-1.56396.25701-.21948.5324-.41895.82122-.59814l.22125-.12744.18011-.10376.22992-.14404c.29724-.19702.60175-.44849.83618-.70435.95203-.97778 1.44702-2.23242 1.62219-3.39038.18092-1.1724.06367-2.29252-.22802-3.33817zm-84.03319-29.06519c.00208-1.56372.13818-3.83228.914-6.47241.80554-2.62646 2.2699-5.59521 4.55835-8.43701 1.12787-1.41504 2.44629-2.85791 3.89044-4.16479 4.6275-4.1666 11.3709-5.90461 17.09894-4.48877 2.02325.4939 3.89307 1.38403 5.53455 2.63574 1.6521 1.24097 3.04315 2.83545 4.24646 4.54614 1.19324 1.72607 2.18927 3.58691 3.05023 5.47607.85974 1.9043 1.61115 3.77661 2.10266 5.59082.50543 1.81104.76154 3.56543.69684 5.14722-.06696 1.58057-.4397 2.98169-1.09949 4.1189-1.16016 2.10669-3.20599 3.5061-5.37805 4.40039-2.18323.90161-4.48376 1.32495-6.64142 1.56494-2.16846.21509-4.26318.2666-6.16846.18921-1.91589-.05615-3.67908-.24097-5.29022-.5-6.4718-1.04395-10.41101-3.16333-12.87744-4.73486-1.23706-.80225-2.13922-1.48462-2.8103-2.02588-.70386-.51221-1.14819-.90991-1.50787-1.13965-.11786-.07715-.2066-.11719-.30145-.16528-.01021-.39796-.03322-.91041-.01777-1.54078zm-32.03437 43.28223c-.54285.64233-1.11719 1.04688-1.35358 1.0874-.05048.01343-.12366.02393-.19055.02002-.01013-.00146-.01117.00439-.01758.0022-.01294.00146-.01892-.00732-.03094-.01563-.0011-.03442-.02057.03882.00177-.09082.09808-.41309.19678-.82886.29614-1.24756.12756-.55835.16357-1.41846.00043-2.09253-.15265-.70264-.44849-1.34326-.84039-1.90161-.78308-1.10425-1.97119-1.96606-3.47137-2.20923-.77808-.12549-1.50757-.00708-1.84467.03564-.02985.0083-.0639.01685-.09924.00977-.06647-.01147-.10132-.08252-.09778-.15356-.0246.05518.06036-.29297.16455-.53711.05273-.12915.11346-.25757.17889-.38159l.10187-.1792.15363-.23755c2.56782-4.04313 6.03358-7.40118 9.6778-10.51343 2.44006-2.08936 4.96191-4.06543 7.38403-5.93774 2.41034-1.89087 4.71704-3.7002 6.8653-5.38525 7.42218-5.86255 12.87421-10.32666 14.04669-11.64648-.0166.17505.03467.42432.21326.81592.19214.40869.49597.99951 1.10852 1.72729.30591.39893.69641.84644 1.17749 1.33276-2.83118 2.37549-10.00555 10.13013-29.89099 33.3606-1.09773 1.28539-2.28102 2.67113-3.53328 4.13769zm19.50788 9.52221c-.70746 1.48657-1.37708 2.99048-2.28491 4.11182-.44171.5459-.96893 1.00659-1.47498 1.25122-.39954.21851-1.04199.28345-1.60352.18066-.57428-.11523-.97229-.41748-1.06415-.625-.13361-.09082-.12335-.85742.03729-2.01758.02972-.30054.06348-.6106.06696-.98853.01947-.30713-.02856-.94604-.16437-1.42505-.27692-1.00513-.97333-1.8855-1.92438-2.33203-.68319-.3316-1.43657-.43781-2.18848-.39258-.19385.00781-.35193.02661-.52209.04248-.62946.07617-1.11713.15283-1.42114.1499-.5932.1936-1.53351-1.14917-.9104-2.69019.26569-.8042.7923-1.67847 1.39941-2.62549l1.83533-2.86743c2.45197-3.81299 4.92102-7.57007 7.32458-11.12646 1.84778-2.74268 3.66064-5.35742 5.3858-7.80005 8.18188-9.80688 11.62329-14.31152 12.94452-16.47778.00708.00586.01251.01123.01965.01709 1.18994.97998 2.78943 2.09106 4.87836 3.13477-.5224.78296-1.26099 2.15234-2.38251 4.52124-1.30353 2.79858-3.22931 6.93311-6.07892 13.05078-2.84984 6.11964-6.75902 14.16798-11.87205 24.90821zm20.44055 6.42749c-.21008 1.479-.49573 2.98804-1.08777 4.24878-.28925.63525-.66956 1.17212-1.12537 1.62793-.35284.35742-.87787.6106-1.48865.75122-.60181.10889-1.28961.0918-1.75391-.11792-.24628-.08789-.41614-.21582-.53339-.34399-.13586-.12256-.1886-.26343-.26196-.4707-.15381-.4585.00214-1.41382-.11444-2.87427-.04596-.40234-.13275-.79053-.26514-1.17725-.11285-.34668-.36963-.89893-.66071-1.28589-.59033-.82739-1.50079-1.40796-2.50366-1.51904-.61987-.04272-1.24902.03076-1.84283.2688-.13922.05396-.31482.12646-.41931.17773l-.28247.14014-.46759.25146-.28223.15308c-.07703.03474-.14325.0105-.19672-.05493l-.01953-.02588c-.00439-.0061-.0047-.00146-.04724-.08984l-.18774-.45532c-.26721-.60645-.42371-1.2605-.55493-1.92505-.23602-1.33936-.17706-2.77808.04572-4.22412.45581-2.90967 1.59613-5.8064 2.76593-8.65869.74658-1.82373 1.47668-3.61499 2.18909-5.36914 1.51868-3.29785 2.83398-6.22656 3.94849-8.82324 2.69836-6.24683 4.31775-10.56079 5.32404-13.50464.80823-2.41284 1.21094-3.90063 1.37469-4.84155 1.31738.56079 2.79919 1.08276 4.46155 1.53296-.32672.67529-.67468 2.21265-1.10974 5.70068-.77442 6.0183-1.84968 17.84228-4.90418 40.90868zm21.47699 2.33277c-.10333 1.28564-.39496 2.4165-.84137 2.89526-.21899.25293-.55847.4314-.72534.44507-.09814.01001-.09259.01538-.18134-.01978-.08588-.02075-.25909-.12134-.47144-.29834-.43427-.33838-.93536-.93188-1.69189-1.61694l-.32397-.27539c-.15839-.12061-.32251-.23633-.48969-.34521-.33905-.20532-.69562-.38794-1.07458-.48877-.75568-.23975-1.56207-.15259-2.30133.11084-.70746.28711-1.30273.81934-1.76184 1.45703-.35773.50659-.52393.81812-.68463 1.03638-.15314.21069-.19708.22559-.29492.30908-.10028.05298-.23016.10132-.40564.12598-.35767.04077-.87238-.06689-1.31976-.31323-.22601-.12109-.42542-.2793-.60419-.44214-.17255-.1731-.28522-.32544-.44806-.59961-.5816-1.00781-.75867-2.46167-.76318-4.05078.0213-1.67432.0426-3.34766.06378-5.00977.09308-6.70093.15564-13.22534.17285-18.94751.00702-2.33472.00604-4.52612-.00305-6.55127.32239-4.65259.43335-8.03101.45013-10.4707.0094-3.12085-.12354-4.71265-.32904-5.53198 2.29642.52888 4.6741.88035 7.26752 1.00903.01898.00122.03888.00122.05786.00244-.16083.67749-.11316 2.16748.40363 5.57861.43341 2.86108 1.19562 7.0686 2.43829 13.26978.63605 3.09375 1.37512 6.68872 2.23395 10.86597.82098 4.14331 1.77942 8.84253 1.80981 14.12061-.00867 1.18626-.05054 2.43846-.18256 3.73534zm24.09253-2.2085c-.08502.10107-.07825.08057-.13611.11304-.04272.01123-.1795.03418-.46368-.01807-11.05456-1.67614-7.80545 2.13425-9.56879 7.11401-.2569.73511-.46661.92554-.96747 1.12695-.50641.17944-1.30286.12964-1.9856-.16406-.3429-.14331-.65875-.34009-.91138-.56812-.30231-.27539-.57666-.59985-.82611-.97021-1.00745-1.48633-1.53485-3.6626-2.16071-5.87744-1.23682-4.38525-2.46387-8.73584-3.63568-12.89063-.31799-1.11572-.63208-2.21338-.94299-3.29712-.07281-.34814-.14606-.69946-.21722-1.03833-.92542-4.19434-1.75092-7.75586-2.47113-10.84082-1.44409-6.15723-2.49768-10.30151-3.29114-13.08423-.79083-2.77319-1.32318-4.19287-1.72638-4.90552 1.63165.03931 3.34802-.00781 5.18964-.16846 1.33136-.13428 2.72473-.33228 4.15979-.66064.17487.83765.73608 2.35571 2.02405 5.23706 1.25494 2.82642 3.15472 6.97827 5.99713 13.14526 1.42719 3.08105 3.09308 6.66577 5.11719 10.80713 1.01947 2.06812 2.11774 4.27881 3.35504 6.62061.6062 1.17236 1.27454 2.37988 1.94043 3.61157.65509 1.19531 1.27203 2.37769 1.61047 3.53174.17981.62891.29309 1.25439.26361 1.84399-.00897.61305-.18243 1.13039-.35296 1.33229zm16.78119-13.84424c-.00616.00293-.00635.00342-.00494.00317-.00458.00146-.0163.00513-.05713.01904-.12573.04761-.23236.05811-.34705.08838-.10767.01733-.22058.03271-.3429.03955l-.28821.00781c-.19543.0105-.39545.00098-.58783.02783-.77887.06641-1.50269.44531-2.03333 1.02808-.55414.64502-.85437 1.20337-1.03705 1.57983-1.51195 2.77716-.02921 4.15788-2.78046 4.49878-.57129.07935-1.15051.02319-1.75543-.17627-1.21417-.39575-2.45648-1.37769-3.55884-2.5481-2.22211-2.38843-4.0011-5.42505-5.6925-8.41431-.82764-1.49756-1.74854-3.06104-2.61572-4.46167-.86298-1.43457-1.70764-2.83838-2.5274-4.20117-.41565-.69556-.82336-1.38037-1.22333-2.0542-.15924-.31982-.32721-.65723-.48132-.96655-3.03137-6.08472-5.22308-10.15479-6.81946-12.83911-1.39856-2.33838-2.30737-3.64355-2.92719-4.35156 2.17754-.65732 4.22806-1.6027 5.99762-2.97461.01483-.01147.02875-.02539.04352-.03711.45337.70996 1.13977 1.66919 2.15906 2.9917 1.65497 2.16895 4.17139 5.31299 7.92468 9.96558 3.77899 4.63232 8.70874 10.83594 15.70508 18.75537 1.80722 2.00879 1.02634 1.14646 2.49255 2.75586.07336.08545.14972.17065.22333.27173.14679.19678.2865.41846.39642.63818.04688.10449.10492.22656.13025.30737.01154.02026.00586.00781.00952.01416.00654.00661.0099.02321-.00194.03224zm10.04931-13.69018c-.07202.52051-.25385.95923-.53693 1.25757-.0589.07397-.10071.10498-.17041.15796l-.16016.1001-.35492.21558c-.46692.30151-.91638.64209-1.33948 1.02417-.8371.77271-1.57159 1.7146-2.07495 2.8042-.25287.54199-.45728 1.11499-.58563 1.70776-.13605.55542-.18738 1.30054-.22778 1.63403-.0484.4021-.07739.8894-.14569 1.19702-.08978.38184-.05762.25977-.09351.34326-.02606.0415-.07263.06812-.12427.07739-.05475.00439-.07654.02295-.26978-.07617-.07819-.04346-.1593-.10107-.23279-.17017l-.18652-.19897c-.09142-.10007-1.31237-1.43649-1.22095-1.33643l-1.95605-2.13623c-2.61548-2.83569-5.21033-5.64893-7.68829-8.33545-1.64771-1.77466-3.24109-3.48145-4.76678-5.10693-1.44379-1.69971-2.77716-3.26294-3.99255-4.65259-3.92157-4.53247-6.69073-7.51343-8.63739-9.45581-1.21204-1.19775-2.10083-2.00293-2.76416-2.53467.66418-.7146 1.27246-1.51196 1.76752-2.40698.56805-.98413.96838-2.10767 1.23389-3.28345.4917.58911 1.16162 1.31885 2.08276 2.22632 1.92084 1.88477 5.01166 4.41553 9.81567 7.67529 2.39655 1.63159 5.21881 3.44092 8.43335 5.56299 3.21198 2.12476 6.8092 4.58057 10.53247 7.7439 2.03375 1.70093 4.00384 3.7478 3.66333 5.96631z" fill="#202020"/></g></svg>