<svg id="Layer_1" enable-background="new 0 0 136 136" height="512" viewBox="0 0 136 136" width="512" xmlns="http://www.w3.org/2000/svg"><g><g><path d="m112.83136 105.22189-3.46997-1.27002c3.69995 5.53003 2.67999 13.6499-2.13 18.23999-4.79999 4.6001-12.79004 5.31006-18.45001 1.81006l-.38-2.66016-.23999-1.67993c.02002.61011.04999 1.21997.04999 1.84009.03003 1.48999-.04999 2.96997-.45001 4.38989-.56 2.01001-1.89001 3.92017-3.84998 4.6399-3.19 1.18018-6.59003-1.09985-8.95001-3.54981-2.82001-2.91016-5.15002-6.23999-7.03998-9.82007-.17999-.32007-.35004-.65015-.51001-.97998-.34003-.67017-.66998-1.3501-.97003-2.03003-1.07996-2.39014-1.96997-4.85986-2.69995-7.37012-.19-.6499-.37006-1.2998-.54004-1.94995-1.44-5.6499-2.10999-11.45996-2.33997-17.28003-.06-1.3999-.09003-2.80981-.10004-4.21997-.01996-2.44995.32001-4.57007-2.83997-4.22998-2.98004.32007-6.09003-.90991-8.91003-1.97998-.08997-.03003-.16998-.05981-.26001-.09009-1.14996-.42993-2.39996-.98975-2.88995-2.11987-.77002-1.75.70996-3.63989 2.19995-4.82007 2.62006-2.08984 5.62006-3.62988 8.60004-5.15991 2.81-1.43994 5.87-2.92016 8.97998-2.3601.67999.13013 1.33002.34009 1.95001.63013 1.76001.80005 3.31 2.1499 4.77997 3.45996 1.61005 1.42993 3.36005 3.51001 5.29004 4.84009.58997.41992 1.20001.75 1.82001.97998.32996.11987.65997.21997 1 .31982 2.53998.70996 5.29999.74023 7.83997 1.44019 7.07001 1.92993 13.88 4.83984 20.14001 8.63989.90997.55005 1.83002 1.14014 2.71002 1.77002.33997.25.66998.48999.98999.75 2.29999 1.79004 4.27002 3.93994 5.26001 6.6499 1.71996 4.72997-.30006 10.54003-4.59004 13.17016z" fill="#f9ed32"/></g><g><path d="m68.12134 118.30172c-2.38995 4.29004-6.42999 7.63013-11.08997 9.17017-.02002.01001-.04999.02002-.07001.02002-.83002.26978-1.67999.48999-2.53998.6399-3.94.71997-8.11005.22998-11.76001-1.42994l-1.38-1.95996c-.90002 3.8899-3.69 3.43995-7.66003 2.97998-3.95996-.46021-7.34998-3.40015-9.10999-6.97998-1.53998-3.15015-1.89001-7.15015.12-10.02002l.79004.32983c-2.13-1.08984-3.58002-3.02979-4.35004-5.27979-.88995-2.57007-.88995-5.56006.01001-8.15015 1.67999-4.84009 5.72003-8.48999 9.91998-11.42993 5.52002-3.87012 11.61005-6.93018 18.01001-9.07007 3.67999-1.22998 7.45001-2.1499 11.28003-2.73999l7.5 42.06006.13.71997z" fill="#f9ed32"/></g><g><path d="m122.11139 73.69186c.33997 2.93994-.79004 6.03003-2.96002 8.05005-1.84998 1.71997-3.79999 2.03979-6.09998 2.45996-.15002.03003-.30005.05981-.46002.09009-.48999.08984-.96002.22998-1.41998.35986-1.42004.42993-2.73004.87012-4.35004.25l-26.33997-12.1001-2.82001-1.2998-11.83002-5.43018c.51001-1.00977 1.10004-1.95996 1.76001-2.86987 2.12-2.92993 4.91998-5.38989 7.66998-7.78003 3.81-3.31006 7.65002-6.6499 12.07001-9.07007 4.53003-2.48999 10.46002-4.07007 15.77002-3.17993 2.67999.42993 5.20001 1.48999 7.31 3.37012 1.88 1.66992 3.33997 3.87988 5.52002 5.1499 2.09998 1.21997 4.31995 1.93994 5.63995 4.13989 2.67004 4.46997-.47998 7.26001-.56 11.83007-.03997 2.05006.86 4.00001 1.10005 6.03004z" fill="#f9ed32"/></g><g><path d="m101.59137 41.70596-82.51001 51.61011c-4.58997-1.09985-8.20001-5.46997-8.41998-10.18994-.16003-3.65015.39001-7.29004 3.32001-9.44995.77997-.58008 1.58997-1.52002 1.79999-2.39014.02997-.13989.04999-.27979.04999-.40991 0-.36987-.13-.70996-.46002-.98999-2.59998-4.37012-2.70996-10.11011-.26996-14.57007 2.39001-4.36011 7.10999-7.34009 12.07001-7.62988 1.96997-3.69995 5.37-6.5 9.25-8.01001 1.88995-.73999 4.04999-1.29004 6.09998-1.26001 4.46002.07007 5.08002-4.23999 8.09998-6.51001 2.76001-2.08008 6.14001-2.4502 9.18005-3.8999 1.39996-.66016 1.51996-1.52002 2.26996-2.64014.78003-1.16016 2.31-2.1001 3.52002-2.75 2.65002-1.41992 5.78998-1.96997 8.77002-1.51001 4.78998.73999 9.02997 3.86987 11.63995 7.95996.14001.21997.28003.44019.41003.67017l-.35999-.71021-.27002-.53979c.53998-.68018 1.31-1.12012 2.15002-1.33008.85999-.22998 1.81-.21997 2.67999.01001 1.70996.45996 3.13995 1.59985 4.38995 2.84985 3.20001 3.20019 5.51001 7.29004 6.59003 11.68994z" fill="#f9ed32"/></g><g><path d="m88.21136 121.50191c.03003 1.48999-.04999 2.96997-.45001 4.38989-.56 2.01001-1.89001 3.92017-3.84998 4.6399-3.19 1.18018-6.59003-1.09985-8.95001-3.54981-2.82001-2.91016-5.15002-6.23999-7.03998-9.82007l.19995 1.13989c-2.38995 4.29004-6.42999 7.63013-11.08997 9.17017-.02002.01001-.04999.02002-.07001.02002-.01001-.17993-.02002-.37012-.01001-.55005-.82001.42993-1.65997.81982-2.52997 1.18995-3.94.71997-8.11005.22998-11.76001-1.42994l-1.38-1.95996c-.90002 3.8899-3.69 3.43995-7.66003 2.97998-3.95996-.46021-7.34998-3.40015-9.10999-6.97998-1.53998-3.15015-1.89001-7.15015.12-10.02002l.79004.32983c-2.13-1.08984-3.58002-3.02979-4.35004-5.27979 2.81-.45996 5.88 1.10986 5.63 4.72998-.47998 6.98999 4.58002 11.82983 11.52002 11.22998.83997-.07007 1.57001.04004 2.19.27979 5.92999-1.09985 17.20001-3.41992 16.10999-9.31982-.84998-4.6001 4.06-7.26001 7.22003-5.91016 1.17999.5 2.10999 1.54004 2.42999 3.25.26996 1.47998.34998 2.8501.26996 4.12012-.01996.54004-.07996 1.05005-.15997 1.55005.40997.09985.78998.27002 1.13.47998.13.07983.26001.15991.38.26001.73999.55005 1.29999 1.33008 1.64001 2.18994 2-2.12988 6.12994-2.78003 8.46997.30005 2.72998 3.56006 5.59003 7.03003 9.58002 3.21997.24001-.22997.48-.44994.73-.6499z" fill="#efda20"/></g><g><path d="m117.42139 92.05172c1.71997 4.72998-.30005 10.54004-4.59003 13.17017l-3.46997-1.27002c3.69995 5.53003 2.67999 13.6499-2.13 18.23999-4.79999 4.6001-12.79004 5.31006-18.45001 1.81006l-.38-2.66016c2.21997-1.81982 4.66998-2.76001 7.65997-2.8999 3.88-.18994 7.15002.94995 9.43005-3.01001 1.98999-3.44995 1.56-7.92993 1.44995-11.75-.07996-2.84009 1.82001-4.42017 3.99005-4.76001 0-.89014-.16003-1.80005-.26001-2.66992-.25-2.24023-.51001-4.47998-.77002-6.72021-.19-1.68994.84998-3.21973 2.26001-4.12988 2.29998 1.79003 4.27002 3.93993 5.26001 6.64989z" fill="#efda20"/></g><g><path d="m122.11139 73.69186c.33997 2.93994-.79004 6.03003-2.96002 8.05005-1.84998 1.71997-3.79999 2.03979-6.09998 2.45996-.44-1.5-.18005-3.19995 1.20996-4.67017 1.92004-2.00977 3.03003-4.86987 2.56-7.67993-.21997-1.30005-.06-2.59985.48004-3.67993-1.24005-1.07007-1.88-2.72998-1.16003-4.80005 2.83002-8.16992-6.56-12.03003-11.45996-16.1499-1.45001-1.21997-1.86005-2.69019-1.58002-4.05005 2.67999.42993 5.20001 1.48999 7.31 3.37012 1.88 1.66992 3.33997 3.87988 5.52002 5.1499 2.09998 1.21997 4.31995 1.93994 5.63995 4.13989 2.67004 4.46997-.47998 7.26001-.56 11.83007-.03998 2.05006.85999 4.00001 1.10004 6.03004z" fill="#efda20"/></g><g><path d="m86.00134 29.06607c-1.54999.88989-3.52997 1.09009-4.98999.01001-2.76996-2.05005-7.38-5.04004-10.31-1.69995-2.40997 2.73999-5.70996 1.65991-7.34998-.65991-.19 2.35986-1.78003 4.69995-4.79004 4.92993-4.03998.30981-7.96997 2.45996-10.35999 5.76001-1.08002 1.5-2.70001 2.46997-4.41998 2.45996-.5 1.62988-1.70001 3.08008-3.39001 3.30005-1.77002.23999-3.83997.68994-5.69 1.51001-.62 1.87988-1.97998 2.90991-3.5 3.23999-.47998.93994-1.28998 1.73999-2.42999 2.27002-.40002.26001-.82001.44995-1.26001.57007-5.75 2.75977-7.69 10-8.45001 15.81983-.27997 2.1001-1.37 4.01001-3.27997 4.70996.02997-.13989.04999-.27979.04999-.40991 0-.36987-.13-.70996-.46002-.98999-2.59998-4.37012-2.70996-10.11011-.26996-14.57007 2.39001-4.36011 7.10999-7.34009 12.07001-7.62988 1.96997-3.69995 5.37-6.5 9.25-8.01001 1.88995-.73999 4.04999-1.29004 6.09998-1.26001 4.46002.07007 5.08002-4.23999 8.09998-6.51001 2.76001-2.08008 6.14001-2.4502 9.18005-3.8999 1.39996-.66016 1.51996-1.52002 2.26996-2.64014.78003-1.16016 2.31-2.1001 3.52002-2.75 2.65002-1.41992 5.78998-1.96997 8.77002-1.51001 4.78997.73998 9.02996 3.86986 11.63994 7.95995z" fill="#f7ec8b"/></g><g><path d="m87.9314 27.15616c-.02002.04004-.04004.08984-.07001.12988-.42004.7002-1.06 1.31006-1.81 1.73999l-.27002-.53979c.53998-.68018 1.31-1.12012 2.15003-1.33008z" fill="#f7ec8b"/></g><g><path d="m67.33783 36.44577c-5.04181 6.20435-7.75751 13.67383-7.09863 21.72559.52118 6.36914 10.52576 6.4248 10 0-.4339-5.30249.75928-10.45776 4.16968-14.65454 4.02435-4.9524-3.0094-12.06959-7.07105-7.07105z" fill="#f7ec8b"/></g><g><path d="m57.97583 65.60665c-6.82233-6.02588-15.45575-9.20166-24.59137-8.41821-6.36395.5459-6.42181 10.55078 0 10 6.49603-.55713 12.5788 1.12451 17.52026 5.48926 4.80756 4.24658 11.90613-2.8003 7.07111-7.07105z" fill="#f7ec8b"/></g><g><path d="m56.10999 79.00289c-6.81458 2.17407-12.74719 4.89941-16.65845 11.17114-3.4151 5.47632 5.23291 10.5022 8.6347 5.04712 2.4295-3.89575 6.50171-5.2417 10.68213-6.57544 6.10785-1.94848 3.49732-11.60669-2.65838-9.64282z" fill="#f7ec8b"/></g><g><path d="m69.60139 70.84031c-.04958-1.42847-.4459-2.85204-1.20377-4.09189-.60239-.98551-1.3758-2.08398-2.34977-2.72292-.79936-.52438-1.81341-.77071-2.73373-.51196-.68178.19168-1.26513.6402-1.756 1.1507-1.85822 1.93248-2.52533 4.7405-2.57035 7.42107-.06401 3.81137 1.90116 8.43321 6.49603 6.15287 2.80354-1.39135 4.22144-4.40535 4.11759-7.39787z" fill="#726658"/></g><g><path d="m27.71579 16.43409c-1.04403-1.88887-2.11616-3.87999-2.13282-6.03812s1.42196-4.49225 3.57202-4.67952c2.81669-.24533 4.55969 2.92146 5.54225 5.57259v.55569c.12556-1.75911 2.54822-2.6517 4.05881-1.74157s2.02861 2.93975 1.68422 4.66938-1.37067 3.23399-2.37359 4.68464c-.8661 1.25276-1.7322 2.50553-2.59831 3.75829l-.36307-.65059c-2.87887 2.44929-4.98957 3.48744-7.87044 3.46412-3.10033-.0251-5.69963-1.72168-4.48924-5.90739.64016-2.21376 2.47529-4.44933 4.49201-5.37452" fill="#594a42"/></g><g fill="#202020"><path d="m125.88063 61.44724c.30927-1.60889.21741-3.93237-.86047-5.98193-1.03198-2.04956-2.84021-3.66797-4.71289-4.52979-1.85748-.90088-3.75763-1.04346-5.04083-.83984-.05621-.49878-.25238-1.19971-.75519-2.16504-.75555-1.3728-2.20709-3.39185-5.2301-5.14038-1.42126-.80908-3.19867-1.54126-5.3551-1.94702.1339-.99498-.20888-2.30435-.52295-3.26318-.42883-1.2793-1.15283-2.94116-2.4942-4.90747-.73053-1.07788-1.81519-2.37183-3.13611-3.56323-1.29626-1.18701-2.99329-2.4165-4.91254-2.88159-1.94531-.51172-3.80066.00977-4.79602.77661-.1073.08081-.19958.16235-.28857.24365-.33942-.66357-.86731-1.48218-1.72266-2.44336-1.1723-1.28564-2.93604-2.90991-5.81763-4.18872-1.57251-.68579-3.76172-1.29736-6.15869-1.25781-2.37573.0166-4.82611.6687-6.78821 1.74414-1.98254 1.04907-3.4325 2.51294-4.22052 3.70166-.36676.55835-.59833 1.04272-.72443 1.42041-.04584-.03394-.08258-.06665-.13483-.10156-.48981-.28809-1.28802-.62134-2.52936-.72681-1.2276-.09644-2.92938.00635-4.92059.81079-2.21973.81201-5.10767 3.22314-6.45074 5.83984-.90149 1.56787-1.29803 3.0603-1.35925 4.02026-.16431-.16699-.41064-.33154-.80103-.49438-.29669-.13672-.67365-.2146-1.14838-.29565-.23737-.03979-.49927-.07666-.7879-.1106-.28711-.01392-.60052-.01733-.94287-.01782-.80713.00171-1.78406.08154-2.90857.31885-.00079-.00146-.00165-.00293-.00244-.00439-2.12326-3.90574-4.00255-7.84975-5.48999-12.04004.12-.18994.20001-.3501.23999-.48999.00061-.00171.00031-.00293.00092-.00464.10687.10547.22968.19727.3598.28711.46259.31982.90332.57764 1.75439-.00537.42554-.2915.95361-.79321 1.63837-1.60229.6637-.8335 1.5636-1.82666 2.60248-3.74292.27063-.53027.55182-1.18384.74982-1.95923.19934-.75488.30725-1.72754.18878-2.64429-.1156-.92725-.41052-1.87866-.97693-2.72583-.56726-.85693-1.3656-1.53833-2.38239-1.89917-1.02673-.32666-1.97125-.19531-2.70398.10229-.30176.11841-.56354.27661-.80035.44995-.00049-.00195-.00043-.00342-.00092-.00562-.10999-.51001-.32001-1.16992-.76001-1.98999-.31995-.57007-.75995-1.23999-1.5-1.94995-.70996-.69019-1.91998-1.46021-3.50995-1.57007-.82001-.04004-1.89001.12012-2.79004.66016-.90997.51978-1.64001 1.2998-2.13 2.16992-.51001.87988-.77997 1.84985-.87 2.81982-.08002 1.02002.09003 1.93018.34003 2.72021.27997.84985.64001 1.55981 1.01996 2.1499-.67999.27002-1.60999.82007-2.62994 1.96997-.97003 1.17017-2.24005 2.98999-2.30005 6.08008.03003.86987.25 2 .95001 3.03979.70001 1.05029 1.84003 1.77002 2.94 2.12012 1.10999.36011 2.22998.39014 3.23999.31006 1-.08008 2.02002-.32007 2.91003-.68994.44995-.18994.87-.39014 1.25-.62012 1.35852 3.74522 2.94427 7.07015 4.79999 10.3999.00195.00342.00421.00732.00616.01074-.90881.44531-1.88446 1.00342-2.81543 1.72656-1.41309 1.07935-2.7218 2.44482-3.68921 3.83936-.98273 1.38916-1.5614 2.82739-1.85437 3.87842-.09467.40723-.13965.73779-.16022 1.02393-.23975-.10059-.55865-.18213-1.00787-.2312-.80292-.06763-2.02094-.02173-3.70447.52686-1.66113.55884-3.85736 1.58569-6.06488 3.82202-1.19348 1.21655-2.51691 3.07617-3.27759 5.30005-.78296 2.20581-1.01514 4.68384-.72748 6.85352.25659 2.17944 1.02258 4.02319 1.76147 5.20459.30249.47681.5929.8457.84894 1.11353-.15607.05664-.32581.12988-.51306.22705-.74207.41162-1.74835 1.2168-2.73645 2.68945-.96576 1.47192-1.96069 3.59692-2.41064 6.56763-.12482.8125-.19897 1.75195-.18628 2.76831.00775.25415.01563.51294.02362.77563.01666.27441.06689.59668.10547.89722.05731.62524.27338 1.19214.44177 1.78589.84827 2.28906 2.35675 4.20361 3.97687 5.604 1.60168 1.42163 3.37878 2.32959 4.81268 2.6333.354.08032.71228.08618.99591.10547.21436-.01855.39362-.04663.55621-.07788-.80725 1.35229-1.46265 2.78564-1.86053 4.26733-1.19727 4.51025.09143 8.76855 1.9491 11.03931.91693 1.15454 1.89313 1.86328 2.62408 2.20215.03345.01563.05804.02295.09027.03735-.37244.21875-.94269.8103-1.43335 1.85767-.7171 1.48682-1.06879 3.87158-.52411 6.35034.508 2.49121 1.85303 5.03491 3.72345 6.95337 1.84656 1.94507 4.2558 3.21631 6.30219 3.60889 1.86053.39404 3.6535.23682 5.03461-.18286 1.80464-.52606 3.47166-1.50757 4.7254-2.95972.75281.79004 3.1955 2.19653 6.49323 2.96289 2.06305.49243 4.44818.70825 6.75275.41553 2.35706-.30078 4.3595-1.14038 5.8208-1.92432 2.67566-1.46021 4.3465-3.09277 5.4541-4.40039 1.10632-1.32324 1.6405-2.37427 1.91663-3.11401.08386-.23999.1347-.43994.17194-.62329 1.78675 2.97363 3.60448 5.28311 5.91669 7.68652 1.14203 1.15039 2.33832 2.13379 3.64764 2.88892 1.29272.7583 2.73163 1.28882 4.21552 1.40112 1.49231.10693 2.9397-.24097 4.06799-.90845 1.12567-.66333 1.9115-1.52295 2.47375-2.35132.56061-.83594.92133-1.65601 1.15875-2.42188.23236-.76831.35419-1.45313.41577-2.06494 1.77391 1.4331 4.95854 2.62215 8.41052 2.58105 1.42761-.0105 2.93982-.18628 4.41901-.6084 1.47699-.4231 2.92065-1.06519 4.21808-1.89136 2.63171-1.64209 4.4519-4.12598 5.38824-6.15186 1.72894-3.76685 1.68842-7.00464 1.34906-9.27881-.28003-1.75903-.79785-3.00781-1.29352-3.88599.23969-.01611.56024-.06519.97449-.16699.87872-.25122 2.15717-.83081 3.36725-2.0542 2.46991-2.39087 4.02368-7.51001 2.12817-12.60352-.68866-1.83765-1.84607-3.48682-3.19775-4.9248 1.34619-.39624 3.1076-1.17529 4.85217-2.94653.9632-.9834 2.01581-2.52661 2.53925-4.36011.54364-1.81665.5744-3.82446.17535-5.52686-.3736-1.71362-1.16565-3.10083-1.88861-3.93896-.12079-.13818-.23267-.24072-.3465-.35083.45062-.25293.9375-.58789 1.44965-1.04297 1.23682-1.12621 2.73737-2.96996 3.32038-5.96898zm-95.00305-37.47437c-.41003.12988-.83002.22998-1.26001.30005-1.32001.21997-3.03998.08984-4.01001-.39014-1-.53003-1.04999-.98999-1.13-1.73999 0-.68994.19-1.52002.41003-2.09985.23999-.62012.52997-1.16016.81-1.61011.56-.90015 1.01996-1.45996 1.31-1.88989.06-.09009.10999-.17017.15997-.25.23999.1499.42999.19995.54999.13989.25-.13013.19-.77002-.00995-1.67993-.18005-.90015-.52002-2.1001-.57001-3.28003-.02002-.59009.02997-1.17017.16998-1.63013.15997-.48999.40002-.95996.69-1.31006.28998-.35986.60999-.57983.85999-.67993.26001-.11987.44-.10986.67999-.10986.10004 0 .21002.02002.31.05981.42999.12012.89001.49023 1.29999.90015.18005.17993.34003.36987.49005.55005.57996.70996.98999 1.27979 1.34998 1.62988.56.58008.97998.62012 1.39001.51001.00024 0 .00055-.00024.00079-.00024.06213.29883.18921.44287.31897.45215.2901.01489.56592-.48267 1.15723-.70728.289-.1189.64941-.21265 1.04346-.19165.38812.00537.78394.14087 1.00269.33398.48413.40698.81647 1.30127.75665 2.22217-.03229.87524-.43225 1.7417-.81384 2.49707-.71637 1.34497-1.57758 2.5459-2.06915 3.47461-.5152.92627-.79803 1.59766-.92047 2.09863-.09705.39746-.09064.68506-.02191.91064h-.00439c-.08002 0-.16003.02002-.27002.0498-.32001.08008-.76001.26025-1.28998.49023-.67006.29982-1.50002.66994-2.39003.94997zm12.69507 14.91577c.27063-.05176.51965-.09937.74908-.14307.22986-.0271.44073-.05786.6344-.09204.38715-.06641.70691-.15918.96631-.21021 1.04572-.25928 1.19269-.75757 1.27277-1.31299l.00006-.00024h.00006c.56213.19922 1.65326-1.67041 3.42828-3.37158 1.69104-1.7959 4.09729-3.19897 5.65308-3.77271 1.42004-.57324 2.53931-.72388 3.38837-.8374.85327-.10425 1.45142-.12036 1.89136-.22095.8728-.13867 1.10895-.60522 1.284-1.1377.10406-.31641.19788-.61743.05817-.94507.32672-.20801.76324-.55078 1.31958-.94995 1.0249-.72778 2.47858-1.60962 4.224-2.15405 1.73029-.56934 3.71545-.80176 5.51636-.63208 1.79053.14844 3.43048.71021 4.64581 1.23901 2.23309.98804 3.71045 2.19653 4.79968 3.11499 1.08563.93677 1.77649 1.64624 2.30945 2.0896 1.05011.90552 1.50385.74341 1.99731.45093.3963-.23413.77673-.49683.55847-1.46143.15009-.03979.30383-.07983.47986-.10767.86224-.15308 2.08282-.08594 3.16302.51294 1.12335.57666 2.19818 1.62793 3.18549 2.7937.99603 1.15625 1.82935 2.31519 2.45081 3.23242 1.5947 2.33735 2.38361 4.13257 3.20538 5.55176-1.58899-.02319-3.297.13428-5.08258.52563-3.1698.6521-7.01483 2.31787-10.50793 4.74072-3.51727 2.40137-6.73682 5.40601-9.58435 8.12793-2.87396 2.70728-5.41638 5.41992-6.82819 7.70166-.50507.79053-.87628 1.49731-1.14478 2.09644-.22089-.24365-.46613-.48389-.75677-.71216-.66852-.51831-1.50287-.91455-2.4873-1.02515-.01056-.00146-.02222.00049-.03284-.00098.22504-.97998.17419-3.30444.47919-5.94751.19202-1.70825.508-3.54272.92047-5.23804.40314-1.69946.94653-3.23999 1.3454-4.44116.77148-2.18066 1.5376-3.75293 2.11395-4.94507.2793-.60278.5235-1.10474.729-1.52856.19836-.42847.33142-.79688.44867-1.08984.43829-1.19653.08002-1.56836-.36115-1.91626-.44122-.34814-.86163-.63721-1.97021.22583-.28534.21094-.57928.51807-.93091.9126-.35883.39038-.74829.88525-1.16064 1.51221-.84204 1.23975-1.83002 2.9895-2.70929 5.47437-.45801 1.3667-.95569 3.16333-1.19537 5.11694-.25049 1.9502-.28644 4.03491-.10962 5.91113.25598 2.76416.99268 4.99976 1.57288 5.9519-.74908.07568-1.51477.34766-2.08099.73511-.81952.53662-1.40485 1.14966-1.94836 1.83545-.2688.34644-.51025.70776-.72711 1.07959-.2793-.53882-.5885-1.15674-.9574-1.82495-1.41998-2.61987-3.57996-6.12988-6.03998-9.92993s-5.19-7.90991-7.59003-11.84009c-.60999-.98975-1.19995-1.95996-1.75-2.91992h-.00006c.42057-.08787.81791-.16404 1.16514-.2241zm25.09277 32.09815c-.00146.0979.00311.19238.02563.28491-.19745.25952-.3952.66821-.66833 1.30591-.33978.74365-.81329 1.88477-1.98132 2.96362-.2981.25781-.6308.51587-1.02606.73413-.20203.10034-.4079.2168-.63477.28711-.11035.04346-.22266.08765-.33704.13257-.1095.03223-.21191.04248-.31866.07104-.42688.08569-.75671.07788-1.01044-.0459-.25787-.1167-.5871-.40552-.89557-.95337-.33221-.59131-.63977-1.48267-.78113-2.5105-.13159-.99048-.11987-2.25269.05536-3.43945.17572-1.19189.53619-2.34985 1.13013-3.3103.29169-.47412.67096-.94165 1.0022-1.22144.35187-.28809.57819-.40063.95972-.43091 1.57178-.18921 3.3623 2.24854 4.10583 3.46313.4292.76221.68634 1.4292.88068 1.88843-.46839.23292-.50251.50758-.50623.78102zm-47.58435 21.99462c-.1557-.08105-.33435-.16602-.52728-.24536-.20251-.13452-.42316-.23169-.66241-.39771-.95398-.63989-2.21027-1.72266-3.30688-3.15356-1.11963-1.39819-2.06494-3.12939-2.46307-4.71313-.05359-.39087-.17981-.77881-.16357-1.13184-.00372-.18433-.02612-.33911-.0249-.5376.00769-.21094.0152-.41846.02264-.62207.0387-.81445.12335-1.56592.22406-2.21851.36163-2.39307 1.05585-4.08252 1.61963-5.27441.58545-1.1897 1.07739-1.88525 1.38092-2.4082.31769-.49902.46014-.83691.48273-1.12988.02075-.29883-.08704-.54614-.21985-.7937-.13287-.2478-.26483-.48047-.56921-.5813-.04242-.01416-.09772-.01831-.14752-.0271-.04382-.38159-.16241-.91797-.29309-1.58374-.23376-1.23267-.48071-2.91089-.35358-4.72559.09784-1.81079.56714-3.72852 1.33337-5.34277.74792-1.62231 1.80243-2.91943 2.70642-3.84863 1.67029-1.69409 3.29602-2.56885 4.51929-3.17432 1.23956-.59839 2.138-.89575 2.74487-1.17065 1.2254-.51978 1.30548-.98755 1.27832-1.56372-.00568-.12964-.01385-.26074-.04315-.38745.25482-.19482.56561-.52466.93555-.96704.68231-.74194 1.53052-1.76758 2.62408-2.72119 1.08148-.96069 2.34393-1.87842 3.60358-2.60791.97021-.57251 1.94366-.99487 2.78467-1.34253.00031.00049.00061.00098.00092.00146 3.2064 5.18916 7.10736 10.38676 10.82001 15.21973 2.75995 3.57007 5.25995 6.80029 7.07996 9.14014.65002.83008 1.21002 1.55005 1.69 2.12012v.00098c-.17767.40942-.32721.82422-.45709 1.23975-.25171-.20996-.5199-.4248-.82001-.64893-1.49402-1.14941-3.60223-2.53857-6.63348-3.88354-1.66962-.70801-3.86774-1.52368-6.28912-2.0498-2.41595-.53906-5.02338-.84082-7.39954-.86792-2.3786-.04126-4.5163.24902-6.02747.56494-1.51141.36157-2.40356.73999-2.36792 1.01221.03656.28516.98828.44092 2.46625.57007 1.48169.17407 3.49731.32764 5.67877.72168 2.18121.38062 4.52118.94141 6.6745 1.62256 2.15936.66968 4.10352 1.51245 5.61621 2.15015 2.7428 1.21704 4.69586 2.375 6.16522 3.2583.74402.43115 1.35864.80884 1.87415 1.13037.14758.08838.27429.15674.40942.23267-.03345.75684-.00732 1.50317.08124 2.22925-2.44409.07736-5.36516.71394-7.73376 1.35767-3.2074.90088-7.43054 2.32544-12.61841 5.06836-2.84955 1.5061-6.34174 3.67578-9.79266 6.48511-1.71069 1.42944-3.40399 3.0481-4.81842 4.92969-.28638.37622-.55133.76953-.81213 1.16479-.08201-.03642-.17186-.0706-.27226-.0999zm44.46667 26.38721c-.52393.44873-1.19348 1.16675-2.24841 2.13306-1.0564.95483-2.48639 2.20581-4.6637 3.39331-1.19141.64136-2.79004 1.4126-4.51959 1.80688-1.77216.4126-3.81537.52881-5.70227.43164-2.81683-.11572-5.24762-.67065-6.41418-.7356.46906-.6709.74268-1.29297.89441-1.78467.28595-.96313.18481-1.51465.01569-1.81396-.16754-.29883-.42596-.36816-.69946-.43262-.27356-.06445-.54114-.10229-.83154.02148-.28424.12354-.57971.40845-1.03998.89722-.46478.47681-1.0943 1.19751-2.3089 1.91895-1.19391.68384-3.0744 1.46216-5.44415.97339-1.32141-.2522-3.0174-.99976-4.54034-2.33105-1.53204-1.30811-2.83655-3.15796-3.552-5.03589-.75165-1.88745-.88397-3.7627-.72534-5.10864.10602-1.01758.34424-1.75342.35254-2.13184.4137.14136.66656.15259.70776.06885.17102-.29175-1.36078-1.13135-2.53784-3.3584-1.20514-2.1438-1.79828-5.84766-.52539-9.30151 1.26758-3.52368 4.29138-6.62915 7.54681-9.04932 3.29382-2.42749 6.70575-4.42578 9.37323-5.83081 4.89288-2.58691 8.83295-4.03296 11.81464-5.07959 3.39624-1.15857 5.84482-1.84315 7.2569-2.36597.15131.3894.31921.76807.52039 1.12354.11304.20264.25067.40039.38831.59741-.54004.09351-1.12299.22705-1.76056.42603-2.13354.66943-4.77704 2.03662-7.58722 4.50952-1.52344 1.35181-3.32867 3.23047-4.93896 5.47021-1.6311 2.21875-3.05695 4.76904-4.07703 7.20337-2.08221 4.88696-2.40533 9.17627-1.88452 9.27075.57422.13428 1.88397-3.77319 4.45459-7.97168 1.26752-2.10522 2.8172-4.28564 4.45551-6.1814 1.61462-1.91235 3.33002-3.53345 4.67706-4.73071 2.46259-2.16284 4.57489-3.34253 6.18597-4.04443 1.01599-.43628 1.82544-.68896 2.49707-.87451-.09412.79468-.17963 1.77344-.24683 2.91895-.18488 3.19824-.21765 7.64673.29089 12.56104.5047 4.90576 1.61102 10.28247 3.43774 15.13916.87054 2.38794 1.91693 4.63452 3.03253 6.66553-.39797-.14308-.85121-.08497-1.65383.63231zm51.75043-21.89648c-.09131.93164-.30713 1.79395-.57751 2.57983-.30914.76318-.64954 1.46826-1.0788 2.03052-.82751 1.15454-1.79303 1.87231-2.49451 2.33276-.3775.22754-.66815.40576-.85938.54712-.07867-.12549-.15576-.2417-.2301-.34912-.59088-.88086-1.11621-1.18896-1.44336-1.29834-.34448-.1001-.57452.03638-.80853.19214-.23407.15576-.4447.32471-.52747.66113-.09906.34473.00116.81177.16833 1.65967.17963.83252.52783 2.02026.62622 3.82495.08038 1.77637.00415 4.26196-1.30988 7.1167-.72827 1.54272-1.93585 3.3877-3.82971 4.78955-1.8656 1.42627-4.3252 2.39624-6.70142 2.71606-2.37982.37109-4.61707.09033-6.21991-.24756-.81049-.17822-1.46857-.36206-1.94348-.46753.00269-.22021.00262-.43604-.00232-.63281-.09009-1.88672-.3988-2.76807-.64612-3.23853-.26215-.46289-.53156-.4856-.81232-.47412-.28113.01123-.54681.05835-.77173.53564-.23706.46851-.37738 1.40063-.6438 2.99414-.14246.78345-.3371 1.75122-.76642 2.73389-.42493.97095-1.1842 2.08911-2.27808 2.64502-.53436.27075-1.18378.39136-1.91309.31567-.73737-.08569-1.6087-.39502-2.51941-.95996-.91309-.54883-1.85883-1.33716-2.78076-2.28564-.95032-1.00903-1.94476-2.13037-2.91052-3.39233-2.12476-2.75977-4.51703-6.625-6.36407-11.1062-1.89117-4.45898-3.23083-9.47925-4.0777-14.16846-1.16031-6.40307-1.48563-12.08472-1.88354-15.34351.01465-.00391.03369-.00854.0481-.01245.48285-.1167.82635-.22363 1.08813-.3374.6615.03467 1.28204-.04932 1.80035-.18237 1.90814-.52173 3.16602-1.48218 4.08966-2.48657.03778-.04346.06537-.08521.10181-.12842.21387 1.14136 1.55035 3.94824 3.48993 7.06958 2.39294 3.90674 5.77991 8.21069 8.17395 10.72144 4.36566 4.59033 7.02295 6.48804 8.47852 7.30469 1.48596.78857 1.85895.43774 2.22144.00806.36255-.42993.6369-.86548-.3349-2.18384-.9444-1.34766-3.19922-3.50342-7.40198-7.92285-2.30536-2.4187-5.89996-6.2605-8.81921-9.63647-2.52435-2.88159-4.59473-5.37231-5.43835-5.82739 1.35815-1.81543 1.59692-3.42236 1.65112-4.43042.00677-.32227-.00989-.59033-.0379-.82886 1.51884.31805 4.46983.66227 9.05322 1.49634 3.58868.67847 8.33447 1.69604 14.35974 3.85693 3.29462 1.19141 7.46704 2.9292 11.70007 5.19727 2.11304 1.15503 4.26422 2.35156 6.10858 3.7876 1.84521 1.42773 3.41455 3.09253 4.29401 4.98291.89846 1.86424 1.1426 3.98778.9731 5.84154zm4.57691-36.76074c-.36359 1.90063-1.26941 3.18628-1.9682 4.05127-.72211.87598-1.33264 1.35693-1.72913 1.74805-.81836.75391-.80511 1.22241-.63885 1.77856.07574.27075.15479.52612.40619.69922.24597.15869.69727.29834 1.45667.12891.15582-.03198.33105-.07861.51672-.13672.04248.17749.08966.36694.14044.57642.2196.93066.46704 2.17798.42664 3.5271-.01642 1.34473-.31927 2.76367-.85168 3.93701-.51727 1.17798-1.27155 2.10181-1.92059 2.77368-1.20142 1.22241-2.39087 1.84302-3.28119 2.27954-.74426.35522-1.31256.56787-1.74463.75854-1.60596-1.21899-3.28778-2.25562-4.91919-3.23999-4.33807-2.56494-8.69104-4.50586-12.15845-5.75928-6.34204-2.27466-11.36884-3.23193-15.16315-3.73462-3.80475-.47827-6.40039-.52051-8.14832-.42603-1.06317.06519-1.81158.16187-2.34332.27954.05872-.53101.03375-1.2793-.18628-2.20874-.11707-.47681-.30164-.99365-.55609-1.52295-.23639-.49536-.51648-1.02734-.8833-1.5769-.01965-.02905-.04254-.05884-.06268-.08813.44287-.52271 1.01001-1.19531 1.73694-1.96362 1.70398-1.85596 4.36261-4.07959 7.46582-6.50073 3.09052-2.44922 6.40405-5.12134 9.73425-7.15088 3.31671-2.05493 6.66479-3.35889 9.33325-3.91089 2.42682-.53052 4.58777-.56299 6.42145-.32153 1.81018.25024 3.32416.79736 4.55072 1.38965 2.46521 1.21289 3.76428 2.57813 4.63696 3.47534.55597.60547.92847 1.03076 1.22754 1.32813-.03265.05444-.05188.10596-.04132.14893.06378.29395.81421.36475 1.86774.63232 1.05048.27466 2.42767.78296 3.64948 1.73633 1.23651.91821 2.26898 2.25122 2.7533 3.59619.50871 1.3347.45609 2.66527.27226 3.69628z"/><path d="m94.56868 60.88205c-1.13916-.43433-3.48474-.96533-8.07758-.6438-1.25366.10864-2.86267.32617-4.53546.7251-1.67346.39331-3.40991.94287-4.94391 1.56543-3.07977 1.24683-5.28784 2.79272-5.06555 3.2937.22864.52734 2.76941-.04443 5.84802-.52222 3.07922-.51221 6.70618-.84375 9.01007-1.00146 4.20563-.29517 6.3667-.24512 7.50818-.54858 1.14026-.25732 1.25317-.75806 1.31586-1.31665.06275-.5586.08399-1.06837-1.05963-1.55152z"/></g></g></svg>