<svg id="Layer_1" enable-background="new 0 0 136 136" height="512" viewBox="0 0 136 136" width="512" xmlns="http://www.w3.org/2000/svg"><g><g><path d="m66.01266 107.73444v-.01058c-1.4435-3.19897-3.55681-5.99609-6.09739-8.54435-6.15505-6.20257-14.73523-10.97349-21.95275-16.6556-1.20104-.94296-2.35584-1.90816-3.45292-2.91677-1.91694-1.7239-3.64915-3.55635-5.15038-5.55186-1.01623-1.35541-1.91701-2.79711-2.67915-4.32618-.12701-.24937-.24253-.50986-.35799-.75924-.73909-1.63707-1.30493-3.46952-.78526-5.18283.78526-2.56997 3.70687-3.9905 6.46687-4.6412 6.83641-1.62649 14.2503.10854 19.92036 4.00162.47351.3145.92383.65017 1.36266.99749 3.12954 2.47202 5.60084 5.64928 6.94038 9.29247l6.87109 37.21381c-.30026-1.00809-.65825-1.98388-1.08552-2.91678z" fill="#ec008c"/></g><g><path d="m86.51042 99.13609c-.85455 4.18535-1.96318 8.46864-4.71162 11.86244-2.74844 3.39381-7.54083 5.65988-11.89446 4.43472-1.62823-.45534-2.97941-1.30087-4.08797-2.40691-2.78312-2.71081-4.21506-6.96127-5.16201-10.78924-.25402-1.0192-.49656-2.0384-.73909-3.0576-.23091-.94349-.45032-1.87586-.66973-2.81935-2.4713-10.6484-4.53837-21.40481-5.95882-32.21523-.04617-.29279-.09241-.5967-.12701-.88948-.06928-.55275-.15013-1.1055-.21941-1.63708-.56584-4.00109-1.01623-7.53626 1.47818-11.3314 2.34422-3.54576 6.38602-6.26716 10.86667-6.70079 7.46005-.70523 14.60828 3.86026 18.18815 10.09512.5774.97578 1.05084 1.99499 1.42039 3.0359 2.07863 5.77953 1.5359 12.09011-.45032 17.82623-1.20104 3.48064-1.97474 3.76284.04617 6.77702 1.45506 2.16865 2.47129 4.35901 2.82928 6.91786.51958 3.62201-.08087 7.29749-.8084 10.89779z" fill="#ec008c"/></g><g><path d="m108.68266 76.85291c-1.20104 4.65179-3.94948 8.73972-7.40233 12.3183-2.19408 2.27666-4.67694 4.35901-7.22908 6.24545-6.57083 4.84716-13.86913 8.88055-19.77023 14.43242l9.40012-51.4731c3.85708-1.34429 8.07207-2.34178 12.09083-1.92987 1.20097.11913 2.39038.3685 3.54518.76983 7.84116 2.73252 11.32862 12.01441 9.36551 19.63697z" fill="#ec008c"/></g><g><path d="m65.81637 113.02634c-.16169.56387-.35799 1.11662-.61208 1.65878l-.84298 1.91927c.80837-5.85524-4.95415-10.90836-10.99375-12.57826-6.02804-1.66991-12.49498-1.07321-18.73087-1.88645-.88922-.11966-1.79-.2822-2.69071-.48816-5.3583-1.22516-10.50875-4.0445-12.1716-8.85884-1.14331-3.31809-.03468-7.03752 2.30961-9.65038 1.9285-2.14693 4.80395-3.41551 7.78336-3.55688 1.87078-.0863 3.2796.2822 4.59609.88949 1.16636.54216 2.25188 1.26857 3.49909 2.04899.08078.05453.17318.10854.26558.16307 3.26811 1.99499 7.09051 3.22015 10.38167 5.28026 3.41824 2.14694 6.62856 4.60838 9.55025 7.3409.36954.34732.72753.69411 1.08552 1.05202 2.3096 2.2989 4.36512 4.83604 5.65849 7.7311.50812 1.16057.88922 2.38573 1.10863 3.6326v.01058c.30026 1.76786.26557 3.5786-.1963 5.29191z" fill="#ec008c"/></g><g><path d="m110.62272 103.99384c-3.40668 2.89507-7.57551 4.99859-12.03304 6.0612-3.37207.79154-7.14823 1.64819-10.95914 2.10353-5.04649.6184-10.16225.53157-14.51588-1.29028 5.33526-6.52766 13.7653-10.17084 19.78178-16.15633 1.83617-1.83244 3.44136-3.87084 5.3583-5.62758 1.82462-1.68102 3.92636-3.09043 6.20129-4.16364 3.22194-1.51848 6.87109-.47757 9.31927 1.76732 1.48967 1.34429 2.54058 3.14444 2.7946 5.06371.60053 4.63009-2.27492 9.10822-5.94718 12.24207z" fill="#ec008c"/></g><g><path d="m79.52387 128.6188c-4.03025 3.24185-10.43946 3.88196-14.7353.95407-.3811-.25996-.75065-.55275-1.07396-.87837-3.39513-3.19843-4.04181-8.90225-.81994-12.27435l-.69285-2.46143c5.40447-.87837 10.88979-1.26858 16.3751-1.17116 1.05084.01112 2.09019.04342 3.14103.09742.77377.03283 1.62831.11966 2.15948.6507.40423.40132.53123.97578.61208 1.52906.75059 4.93347-.94695 10.31167-4.96564 13.55406z" fill="#fff200"/></g><g><path d="m24.30655 28.2607c-3.93476.57881-5.99479 5.64679-4.50908 9.33597 1.4857 3.68918 5.40704 5.89489 9.31636 6.62608 1.88149.35191 3.91108.41048 5.62204-.44769 3.82068-1.91634 4.12278-7.79781 1.35313-11.05341-2.76966-3.25559-7.43073-4.24627-11.69889-4.01666-1.79279.09644-4.14127 1.13765-3.69398 2.87642" fill="#00aeef"/></g><g><path d="m103.24763 21.10627c-3.29955.44471-6.18445 3.10438-6.89531 6.35699-.71085 3.25261.80146 6.87329 3.61465 8.65395 3.48032 2.20292 8.60723 1.2074 11.00214-2.1437 2.39492-3.35109 1.67094-8.53223-1.55698-11.09073s-8.44589-2.07524-11.14156 1.03906" fill="#00aeef"/></g><g><path d="m79.52387 128.6188c-4.03025 3.24185-10.43946 3.88196-14.7353.95407-.3811-.25996-.75065-.55275-1.07396-.87837 2.65603-.74812 5.36979-1.59365 7.49466-3.30697 1.47811-1.18227 5.05804-4.76033 4.64233-6.76644-.55435-2.65627.79682-4.71691 2.72532-5.83353 1.05084.01112 2.09019.04342 3.14103.09742.77377.03283 1.62831.11966 2.15948.6507.40423.40132.53123.97578.61208 1.52906.75059 4.93347-.94695 10.31167-4.96564 13.55406z" fill="#e2d105"/></g><g><path d="m34.5096 79.60713c-1.91694-1.7239-3.64915-3.55635-5.15038-5.55186 2.88701.46645 5.04649 3.03642 5.15038 5.55186z" fill="#ef50b6"/></g><g><path d="m29.86734 79.58543c1.87078-.0863 3.2796.2822 4.59609.88949-.20786 1.36599-1.09708 2.63457-2.88701 3.45893-6.92882 3.15555-2.86389 11.39599-.24253 16.10232.30026.54216.50812 1.08432.61208 1.61536-5.3583-1.22516-10.50875-4.0445-12.1716-8.85884-1.14331-3.31809-.03468-7.03752 2.30961-9.65038 1.9285-2.14694 4.80395-3.41552 7.78336-3.55688z" fill="#ef50b6"/></g><g><path d="m51.92405 63.14743c-1.42039 2.4069-4.51525 3.93597-7.7718 2.11412-5.9357-3.33981-16.15568-2.08182-17.47218 4.46754-.12701-.24937-.24253-.50986-.35799-.75924-.73909-1.63707-1.30493-3.46952-.78526-5.18283.78526-2.56997 3.70687-3.9905 6.46687-4.6412 6.83642-1.62649 14.25031.10853 19.92036 4.00161z" fill="#ef50b6"/></g><g><path d="m83.47328 53.6813c-.08084-.05453-.16169-.09795-.24253-.15195-8.37232-5.22678-23.09607-7.46002-26.38723 4.38071-.60052 2.15753-2.14792 3.3398-3.90324 3.7083-.56584-4.00109-1.01623-7.53626 1.47818-11.3314 2.34422-3.54576 6.38602-6.26716 10.86667-6.70079 7.46006-.70522 14.60829 3.86027 18.18815 10.09513z" fill="#ef50b6"/></g><g><path d="m110.62272 103.99384c-3.40668 2.89507-7.57551 4.99859-12.03304 6.0612-3.37207.79154-7.14823 1.64819-10.95914 2.10353-1.12012-2.25548-.70441-4.988 2.41357-6.354 9.23843-4.0445 21.29458-9.19505 23.73119-19.11651 1.48967 1.34429 2.54058 3.14444 2.7946 5.06371.60053 4.63009-2.27492 9.10822-5.94718 12.24207z" fill="#d8058d"/></g><g><path d="m108.68266 76.85291c-1.20104 4.65179-3.94948 8.73972-7.40233 12.3183-2.51746-1.3554-4.2035-4.29388-2.55207-7.41714 2.8985-5.47562 5.4968-14.1068-.9239-18.45522-2.63291-1.77791-2.9909-4.60838-2.03239-6.85274 1.20097.11913 2.39038.3685 3.54518.76983 7.84116 2.73252 11.32862 12.01441 9.36551 19.63697z" fill="#d8058d"/></g><g><path d="m79.90896 5.64991c-3.6718-2.34444-9.20465-.65215-11.09634 3.27214-2.38309 4.94368 1.19948 11.08895 6.70542 11.29635 7.30178.27504 10.51596-10.65764 4.39092-14.56849z" fill="#00aeef"/></g><path d="m117.81186 90.61598c-.32422-1.06787-.81909-2.01709-1.39612-2.84277-.60651-.80322-1.26361-1.50732-1.98138-2.06299-1.41492-1.13525-2.98022-1.73047-4.31311-1.93701-.86749-.13086-1.61688-.08838-2.23578.021.00043-.00049.00092-.00098.00134-.00195 1.16998-2.04004 2.14001-4.35986 2.70001-6.89014.70996-3.27979.52997-6.78955-.5-9.98975-.5-1.60986-1.22003-3.1499-2.14001-4.53027-.90997-1.38965-2-2.6499-3.26001-3.65967-.59998-.54004-1.29999-.93994-1.94-1.37012-.70001-.3501-1.37-.75-2.08997-.97998-1.40002-.58008-2.82001-.8501-4.16003-.99023-1.02002-.08984-2-.09961-2.91998-.04004.38-.94971.79999-2 1.28998-3.13965.72003-1.6499 1.62-3.79004 2.69-6.02002 1.10153-2.31736 2.39102-4.837 3.87-7.5 1.27002.3999 2.62.54004 3.89001.43018 2.33002-.2002 4.53003-1.18018 6.15002-2.69043 1.64996-1.52002 2.51996-3.5498 2.78998-5.25977.53998-3.18018-.39001-6.01025-1.87-8.02002-.73999-1-1.65002-1.79004-2.59003-2.35986-.94-.56006-1.88995-.89014-2.76996-1.1001-1.77002-.37988-3.28003-.25-4.48004.04004-1.19995.29004-2.08997.77002-2.75 1.20996-.97998.69971-1.45996 1.31006-1.69 1.75977-.81995.66016-1.62 1.56006-2.25 2.70996-.89996 1.63037-1.27997 3.83008-.83997 5.97998.41998 2.14014 1.59998 4.28028 3.5 5.79004.13.1001.26001.2002.39996.29004-.12.15039-.23999.31006-.35999.47021-1.51001 1.97998-3.01996 4.25977-4.32001 6.5-1.29999 2.22998-2.35999 4.43994-3.10999 6.16992-.90997 2.12988-1.57001 3.9502-2.04999 5.5-.62.16016-1.17999.33008-1.70001.5-.01001-.06006-.02002-.12012-.03998-.18018-.45001-1.55957-1.09003-3.22998-2-4.86963-1-1.78027-2.42004-3.66016-4.27002-5.36035-1.29999-1.19971-2.82001-2.2998-4.51001-3.20996.06-1.77002.07001-4.08984.07001-7.12988 0-3.43018-.13-8.81983-.27997-13.37988 0-.08008-.01001-.16992-.01001-.25-.00006-.00146-.00012-.00342-.00018-.00537.56238-.0376 1.1062-.12354 1.61426-.25684 1.42126-.31348 2.58105-1.07813 3.54388-1.84424.90454-.83691 1.61823-1.72852 2.11475-2.63965.99622-1.82031 1.38159-3.57813 1.37958-5.09619.03058-3.06934-1.25256-5.02051-2.1955-5.9917-1.01654-.98828-1.76147-1.15576-2.16437-1.18115-.41248-.01025-.56738.20703-.72021.44238-.15289.23584-.27155.48145-.19586.85156.06763.37402.3819.81348.79291 1.63623.35815.83057.91687 2.06299.7348 4.06396-.07068.98682-.41815 2.14697-1.0838 3.27539-.33044.57031-.7865 1.08203-1.30231 1.56592-.56293.40186-1.16504.83057-1.91437.97217-.23969.09619-.51068.1167-.79382.13379-.1601-2.36768-.37994-3.96631-.74976-3.99658-.3598-.02979-.81964 1.49854-1.24945 3.80713-.02429-.00684-.04883-.01074-.07306-.01807-1.02844-.32764-2.07452-.99902-2.87952-1.99463-.77521-1.00244-1.3584-2.27881-1.42822-3.6001-.11041-1.30615.22083-2.67627.92053-3.72119.69379-1.07129 1.74902-1.91113 2.8335-2.42334 1.08875-.521 2.19635-.7583 3.13824-.80029 1.90302-.08545 3.08667.52051 3.25018.24805.15479-.16992-.80237-1.36377-3.12201-1.82812-1.13757-.21777-2.56396-.1958-4.06915.24951-1.4954.43994-3.08756 1.34033-4.32554 2.81445-1.26062 1.48242-1.9776 3.47461-2.00201 5.53369-.06006 2.06055.65131 4.09375 1.7868 5.75781 1.23371 1.76369 3.13128 3.17535 5.33899 3.771-.01935.12842-.0296.25635-.04926.39404-.59003 4.57031-.92004 10.03028-.91003 13.51026.01001 2.18018.04999 3.98975.13 5.5-2.14001-.6499-4.44-.93018-6.70001-.76025-2.89996.19043-5.69995 1.24023-7.86999 2.81006-3.13749 2.21091-5.61188 5.56878-6.34998 9.29004-.84003-1.15967-1.97998-2.54004-3.51001-4.1001-1.09998-1.08984-2.59003-2.44971-4.29999-3.70996-1.52002-1.12988-3.19-2.19971-4.82001-3.08984.88-1.93994.91998-3.91016.67999-5.54004-.26001-1.66992-.92999-3.17969-1.85999-4.41992-.94-1.21973-1.98004-2.06006-3.04999-2.72998-2.14001-1.31006-4.18005-1.79004-5.89001-2.02979-1.72003-.23047-3.14001-.18018-4.32001-.07031-.15002.02002-.29999.03027-.44.05029-.16998.02002-.33002.03955-.48999.06982-.31.06006-.59003.14014-.85999.22998-.53003.16992-.99005.39014-1.39001.62988-.90097.54738-1.73457 1.4756-1.78003 2.52002-.76996 1.05029-1.37 2.47022-1.54999 4.12988-.08997.98047-.02997 2.05029.29999 3.14014.33002 1.05029.84003 2.05029 1.53003 2.97998 1.37 1.83984 3.34998 3.25 5.46997 4.16992 2.16003.91016 4.39001 1.47998 6.90002 1.38037 1.23999-.07031 2.56-.37012 3.71997-1.08008.48004-.28027.91003-.60986 1.30005-.97998 1.38995 1.09961 2.83997 2.31982 4.16998 3.52979 1.46002 1.33008 2.76001 2.66016 3.77997 3.68018 1.84003 1.87988 3.13 3.37988 4.13 4.52002 1 1.11963 1.69 1.89014 2.23004 2.35986.23999.20996.44995.37012.63995.47021 0 0 0 .00977.01001.00977.42999.77979.72003 1.16992.85004 1.10986.13995-.0498.07001-.36963-.03003-.91992-.15997-.85986-.39996-2.27002-.07001-4.08984.01001-.0498.02002-.10986.03003-.16016.25-1.42969.87-3.06982 1.94-4.62988 1.10999-1.62012 2.69-3.16016 4.59998-4.2998 1.91998-1.17041 4.16003-1.84033 6.46002-1.8501 2.32001-.05029 4.65997.46973 6.75 1.42969.04999.02002.09998.05029.14996.07031h.01001c1.12.52002 2.16003 1.14014 3.10999 1.81982.79004.56006 1.51001 1.16992 2.17004 1.7998 1.48999 1.4502 2.63995 3.02051 3.45996 4.47021.73004 1.33008 1.24005 2.64014 1.63 3.9502.94435 3.43608 1.01434 6.57745.54999 10.04004-.23999 1.7998-.58997 3.2998-.92999 4.5498-.32001 1.25-.63995 2.25-.88995 3.06982-.51001 1.64014-.75 2.52002-.75 3.05029 0 .52979.21997.68994.46997.83008.23999.12988.48999.22998.92999-.09033.45001-.31982 1.09003-1.04004 1.98999-2.6499.45001-.81006.96002-1.83008 1.46002-3.16992.52002-1.31982 1.03998-2.95996 1.41998-4.97021.44699-2.37665.63595-4.83107.42999-7.25977-.01996-.27002-.04999-.54004-.07996-.81006 0-.01025 0-.01025 0-.02002-.08002-.71973-.20001-1.46973-.36005-2.24023.30005-.03955.61005-.08984.94-.13965.38-.05029.77002-.11035 1.19-.16016.91003-.1001 1.92004-.18994 3-.18994 1.08002 0 2.22003.06982 3.39001.29004 1.15002.22021 2.35004.5498 3.46002 1.10986.57996.22998 1.08997.61035 1.64001.91992.50995.40039 1.04999.75 1.50995 1.22998.97003.87012 1.80005 1.9502 2.47003 3.14014.70001 1.16992 1.22998 2.47021 1.58002 3.82031.72998 2.68994.73999 5.59961.07996 8.18994-.66998 2.63965-1.91998 5.08984-3.35999 7.16992-1.42999 2.10986-3.07001 3.86963-4.56 5.3501-2.75 2.69971-5.48999 4.76953-7.96997 6.5498-2.47003 1.77979-4.68005 3.27002-6.56006 4.60986-3.77997 2.6499-6.25 4.66016-7.79999 6.1499-1.54999 1.48047-2.21997 2.41016-2.47998 2.98047-.26001.55957-.10999.78955.09003.98975.18994.20996.39996.37012.97998.18018.58002-.2002 1.5-.77002 3.20996-1.91016 1.72003-1.1499 4.24005-2.81982 8.09003-5.28027 1.92999-1.23975 4.19-2.65967 6.78003-4.45996 2.57996-1.79004 5.51996-3.96973 8.51996-6.90967 1.63-1.62012 3.42999-3.59033 5.01001-6.03027.12891-.19775.25769-.39697.37677-.60449.64374.02588 1.49823.11133 2.48907.4751 1.02905.38281 2.18768 1.05225 3.17462 2.0957.50348.50879.93561 1.12158 1.32202 1.76953.35577.66748.62891 1.38721.77649 2.12695.24451 1.48828.03009 3.21875-.62762 4.78076-1.798 4.3925-6.27413 7.81711-10.51367 9.91016-4.31989 2.12598-7.95276 2.61328-10.81281 3.0752-2.8595.4248-4.87799.78223-6.20807 1.17383-1.61432.48291-2.24286.88867-2.46423 1.25098-.08887-.04736-.16455-.11133-.25867-.15137-.88029-.38328-1.674-.43309-2.61743-.48535-.66364-.03027-1.34967-.06201-2.05878-.09473-4.79859-.17323-9.50996-.01775-14.28534.77539.00415-.21143-.0036-.43701-.03156-.69238-.01239-.43457-.16132-.91016-.31885-1.46094-.38715-1.0708-1.19677-2.31055-2.47064-3.36377-1.26642-1.06934-2.92981-1.92383-4.89777-2.69238-.98444-.37305-2.05286-.73682-3.1947-1.07275-1.16498-.34521-2.49762-.68066-3.89197-.90479-2.80444-.47461-5.97461-.62549-9.44232-.77295-1.89984-.08838-4.04083-.18066-6.26477-.45947-2.18231-.28613-4.52173-.82471-6.71362-1.77734-2.19238-.93164-4.24805-2.3042-5.56451-4.14014-.66827-.90576-1.12946-1.94873-1.3772-2.97607-.16571-1.04883-.24884-2.14844.03839-3.20703.41986-2.14648 1.72046-4.03271 3.1507-5.40332 1.4502-1.38428 3.10907-2.24414 4.58209-2.66113.73529-.25781 1.43335-.28516 2.05212-.39355.59558-.00049 1.12518-.02002 1.56561-.00488 5.40411 4.97852 11.86182 8.81836 17.43231 12.60449 2.90796 1.96875 5.6095 3.90918 7.88208 5.87061 2.27539 1.95605 4.13068 3.91699 5.49469 5.71826 2.73944 3.61133 3.57525 6.41064 3.9035 6.30078.20929-.0293-.10217-3.06152-2.59229-7.19189-1.23614-2.04834-3.0274-4.28906-5.26129-6.5-2.23071-2.21777-4.90253-4.38721-7.7533-6.5415-5.69171-4.30127-12.20898-8.52783-17.14972-13.5459-2.46136-2.49658-4.49731-5.18604-5.81226-7.9375-.71503-1.37402-1.15979-2.67627-1.16785-3.65186-.01123-.9541.35083-1.59961 1.03656-2.25293.61847-.57617 1.48511-1.04346 2.39166-1.39111.90503-.36377 1.87292-.57129 2.84723-.7373.95331-.22803 1.91498-.22852 2.82715-.33301.92279.02441 1.81641-.05176 2.67804.06543 3.45508.2749 6.36981 1.20996 8.70837 2.30811 4.69232 2.26123 7.16693 4.90479 8.69055 6.69287 1.53162 1.82568 2.16754 2.92627 2.65424 3.43262.48816.5127.76276.47363 1.02582.375.26306-.09912.49713-.23193.4389-.98096-.0611-.74268-.34589-2.17578-1.77649-4.50146-1.42523-2.27881-4.06586-5.58301-9.37256-8.3833-2.64709-1.36279-5.9834-2.53662-10.03693-2.91895-1.00769-.14307-2.06897-.08398-3.15948-.1123-1.08923.10107-2.22791.10986-3.37915.36572-1.14825.18994-2.36572.44434-3.60089.9292-1.22839.47607-2.51001 1.11133-3.69574 2.19434-.64252.59033-1.26324 1.34814-1.70093 2.28174-.4411.92627-.66608 2.02734-.62695 3.0498.07367 2.07031.84479 3.81201 1.65021 5.35352 1.49213 2.9873 3.68988 5.79248 6.21271 8.2959-.11072-.021-.20612-.04199-.32281-.06396-.69672-.02148-1.5163-.11328-2.39911.05078-1.77271.22852-3.85059 1.00439-5.74286 2.48096-1.86725 1.4707-3.66608 3.604-4.46161 6.41455-.4671 1.37744-.51605 2.93555-.3454 4.47607.77726 4.6298 4.19516 7.94727 8.47546 9.98193 2.57428 1.2373 5.22577 1.92822 7.7196 2.31543 2.46582.36572 4.70746.48633 6.6333.57715 3.51581.14746 6.48883.27051 9.00818.646 1.26959.1792 2.37744.42871 3.45697.70703 1.10455.28418 2.09106.57617 2.98822.86279 1.7757.58789 3.16217 1.1958 4.11438 1.8457.96198.64453 1.5141 1.28564 1.89233 1.86377.30811.5542.51678 1.03271.63837 1.44824-.48914.15137-1.01477.37158-1.54773.76953-.92133.64844-1.44647 1.88232-1.53479 2.7334-.11121.87354-.04706 1.56641.0022 2.2041.10291 1.16895.22644 2.55908.52771 3.83105.29041 1.28711.70435 2.53613 1.22089 3.71777.52985 1.18555 1.10614 2.27734 1.89587 3.35352 1.66217 2.26416 4.1853 3.29883 6.3587 3.59131 2.21075.27637 4.15131-.11865 5.65228-.66064 1.50983-.54492 2.59283-1.26855 3.25708-1.84521.6701-.57471.93359-1.00098.85321-1.09766-.19788-.26855-1.72717.87695-4.53833 1.4165-1.38776.26221-3.09161.3623-4.81982-.05371-1.69202-.41846-3.44916-1.40674-4.40118-2.99756-.50879-.8208-.97321-1.85498-1.34052-2.87451-.367-1.03174-.6466-2.10693-.82434-3.2002-.18799-1.10693-.22064-2.15332-.26733-3.40039-.02173-.56934-.01465-1.09131.04926-1.40918.08905-.32568.10376-.26611.16528-.31006.08698-.05225.38672-.16357.83838-.22803.55688-.08203 1.10809-.1626 1.65588-.22754 3.11337-.38055 5.82649-.50613 8.91394-.55322 1.54883-.02051 3.00739-.00293 4.37872.03271.68628.02295 1.35022.04492 1.99249.06641.27044.00984.80695.02448 1.07404.0835.05499.01172.02124.00342.02771.00342l.00519-.00098c.01453-.00146.03162.00537.04401.02051.02698.08496.07892.31104.1059.55469.03192.23682.06323.46924.09393.69727.09924.91846.08588 1.77881.03571 2.57178-.2655 3.18896-1.29382 5.19043-1.9967 6.47363-.73889 1.28613-1.19385 1.96875-1.35046 2.42285-.15692.45947-.01923.69434.15826.91211.17749.21826.3653.40967.88135.28467.51404-.12451 1.38654-.56982 2.63605-1.9209 1.19977-1.34668 2.8313-3.73926 3.40289-7.77539.12439-1.00391.19073-2.104.10889-3.29199-.01947-.29688-.05756-.59863-.0882-.90625-.0296-.30127-.07208-.62695-.19061-1.09131-.07233-.29541-.18732-.58203-.32916-.85693.35938.02783.78369.04248 1.33435.0332 1.32129-.01758 3.25177-.06641 6.22809-.29639 1.4895-.13184 3.24713-.30762 5.3136-.75146 6.34947-1.37903 11.93414-4.78103 15.56348-9.15625 1.33881-1.62354 2.49792-3.53662 3.18835-5.66699.69729-2.13382.8351-4.45169.24404-6.60697zm-19.99506-59.91357c-.46002-1.5-.39001-3.04004.10999-4.33984.31-.84033.77002-1.58008 1.27002-2.19043.39001-.08984.96002-.34961 1.94-.68994 1.02002-.33008 2.73999-.79004 4.96997-.15967 1.09003.32959 2.22003.95996 3.06 2.17969.83002 1.18018 1.43005 3.02002 1.08002 4.97021-.16998 1.06006-.64001 2.16992-1.53998 3.06983-1.30627 1.32098-3.42312 2.0801-5.44 1.85986-.73999-.06982-1.47003-.27002-2.13-.59961-1.40074-.6676-2.76186-2.21032-3.32002-4.1001zm-65.72997 11.85986c-1.60004.16992-3.61005-.16016-5.34003-.77979-1.76001-.62012-3.35999-1.59033-4.48999-2.8501-.56-.62012-1.02002-1.31982-1.33002-2.03027-.28998-.67969-.44-1.43994-.46997-2.16992-.03003-1.27002.28998-2.44971.75-3.37988.08002-.06006.14996-.12012.22998-.18994.12-.1001.26001-.16992.41998-.24023.18005-.06982.43005-.20996.93005-.34961.23999-.07031.52997-.13037.87-.17041.16998-.02002.33997-.03955.52997-.03955h.27002c.12.00977.23999.00977.35999.01953 1.01001.04004 2.22003.11035 3.59003.40039 1.35999.27002 2.90997.75 4.35999 1.68994.70996.45996 1.41998 1.08984 1.95001 1.7998.50995.68018.92999 1.59033 1.07996 2.62988.16003.97021.12 2.16016-.27997 3.18018-.06.1499-.13.2998-.21002.4502-.26996.50977-.62.93994-1.08002 1.27002-.55.3999-1.25001.66992-2.13996.75976z" fill="#202020"/></g></svg>