<svg id="Layer_1" enable-background="new 0 0 136 136" height="512" viewBox="0 0 136 136" width="512" xmlns="http://www.w3.org/2000/svg"><g><g><path d="m126.27415 53.16083c.8679 1.66746 1.45296 3.51014.78011 4.98286-2.02826 4.4272-7.61588 2.38882-11.71144-.03904-.73136-.42901-1.41397-.87754-2.01855-1.29702.00976.08761.01946.18522.01946.28283.09755 1.94029 1.21893 3.75441 1.66752 5.61661.19504.82897.2048 1.89172-.03899 2.85735-.25355.96562-.75088 1.85268-1.55051 2.33073-1.8528 1.11179-4.25162-.47805-5.84111-1.41415-4.21263-2.4669-7.77193-5.98752-10.47305-10.03428-3.39354-5.09999-5.44132-11.01895-6.38718-17.06504l3.23743-1.68698 3.25701-1.69651c.32182 0 .64357.03904.96539.09761l-.18528-1.07275c.34134.05856.69238.12665 1.03365.18522-.3608-.7804-.58507-1.61889-.58507-2.45739 0-.38044.03899-.7704.13654-1.15084l2.29156-1.82364c6.67002-.7704 13.50574-.13618 19.92221 1.83364 3.7153 1.15037 7.74265 3.24683 8.62031 7.03076.55585 2.38882-.39984 5.01238-2.24288 6.62127-.19498.17522-.4193.3414-.65333.4971-1.21893.82897-2.83765 1.40415-4.35887 1.43367.78986.90658 1.54069 1.85268 2.20384 2.86687.54607.81896 1.29689 1.92075 1.91123 3.10112z" fill="#784d9e"/></g><g><path d="m114.97226 65.56441c-.25355.96562-.75088 1.85268-1.55051 2.33073-1.8528 1.11179-4.25162-.47805-5.84111-1.41415-4.21263-2.4669-7.77193-5.98752-10.47305-10.03428-3.39354-5.09999-5.44132-11.01895-6.38718-17.06504l3.23743-1.68698c.34134.3414.65339.7704.91664 1.29702 4.60271 9.16626 10.44382 21.49223 20.09778 26.5727z" fill="#8d69b2"/></g><g><path d="m126.27415 53.16083c.8679 1.66746 1.45296 3.51014.78011 4.98286-2.02826 4.4272-7.61588 2.38882-11.71144-.03904 1.07264-1.96029 3.3642-2.8083 5.5778-2.36977 1.19941.22426 3.08143.58518 4.08586-.3414.54608-.4971.97515-1.33559 1.26767-2.23265z" fill="#8d69b2"/></g><g><path d="m101.90529 33.35558c-1.33595.23379-2.51589-.02952-3.46175-.60471 0-.38044.03899-.7704.13654-1.15084l2.29156-1.82364c6.67002-.7704 13.50574-.13618 19.92221 1.83364 3.7153 1.15037 7.74265 3.24683 8.62031 7.03076.55585 2.38882-.39984 5.01238-2.24288 6.62127-.19498.17522-.4193.3414-.65333.4971-.82886-11.80888-15.00751-14.06152-24.61266-12.40358z" fill="#8d69b2"/></g><g><path d="m24.42496 121.26536c-1.33563.97234-2.91846 1.63043-4.54593.94411-4.65185-1.96661-4.57056-7.57225-3.70609-11.69456.15013-.73431.33203-1.42418.5125-2.03757-.07332.01848-.15527.03794-.24008.04826-1.63559.29323-2.83551 1.51363-4.24689 2.09991-.62078.25307-1.47372.35465-2.30614.21657-.82363-.14499-1.63777-.51247-2.20526-1.17912-1.29229-1.51408-.69345-3.75012-.38433-5.2178.80689-3.87917 2.57841-7.38269 5.01936-10.32792 3.17597-3.81969 7.59382-6.85299 12.77228-9.15909l2.77947 2.39501 2.94135 2.53526c.1259.29781.21178.60569.27769.91895l1.04399-.42773c.07541.33384.14487.6798.22059 1.01511.67961-.52464 1.48303-.93809 2.38831-1.14226.41427-.09343.85783-.15243 1.31864-.15322l3.07178 1.78882c4.07255 6.6752 6.73464 14.28593 7.55378 21.97757.47455 4.57908-.14057 9.66037-4.59735 10.78577-2.69939.68401-6.28474-.45684-8.94391-2.58217-.28052-.2196-.56223-.47195-.83513-.73447-1.42137-1.34778-2.70012-3.1152-3.33866-4.76986-.64015.90619-1.33296 1.767-2.12497 2.53026-.63086.62327-1.46717 1.47289-2.425 2.17017z" fill="#784d9e"/></g><g><path d="m9.89234 110.84209c-.82363-.14499-1.63777-.51247-2.20526-1.17912-1.29229-1.51408-.69345-3.75012-.38433-5.2178.80689-3.87917 2.57841-7.38269 5.01936-10.32792 3.17597-3.81969 7.59382-6.85299 12.77228-9.15909l2.77947 2.39501c-.20996.38914-.51598.7731-.9338 1.13615-6.96382 6.07469-15.60402 13.22892-17.04772 22.35277z" fill="#8d69b2"/></g><g><path d="m41.5719 106.11671c-.10881-2.60762-.65956-5.18673-1.52091-7.64664-.52457-1.49812-3.10467-5.0476-2.5014-6.52598.89709-2.19845 3.35957 1.96693 3.94261 2.84515 1.29383 1.94884 2.29762 4.09008 2.9723 6.32973.95021 3.15428 1.38996 6.83797 1.69536 10.13188.44233 4.77077 1.14641 14.08076-5.668 14.80965-2.16043.23121-4.49374-1.36476-4.65045-3.53187-.10135-1.4015.63909-2.71388 1.39858-3.8961 2.53304-3.94289 4.53282-7.70095 4.33191-12.51582z" fill="#8d69b2"/></g><g><path d="m33.3271 8.19053c-1.55516-.70434-3.26368-1.14775-4.59849-.48088-4.01247 2.0097-1.9896 6.9243.35094 10.48576.41378.63618.84419 1.22786 1.24581 1.75093-.08075-.00491-.17068-.00934-.26034-.00507-1.78507-.00259-3.48177-.92751-5.20455-1.24786-.76678-.13844-1.74334-.10075-2.62385.15974-.88025.26924-1.68176.75335-2.09941 1.49029-.97151 1.70774.55354 3.78639 1.45625 5.16887 2.37956 3.66459 5.70952 6.69809 9.49974 8.94011 4.7764 2.81607 10.26894 4.39124 15.84862 4.9741l1.46265-2.97279 1.47087-2.99073c-.00866-.28818-.05318-.5746-.11564-.86023l.99047.11905c-.06298-.3031-.13498-.61448-.19796-.91753.72662.289 1.50293.45319 2.27321.41656.34949-.01662.70668-.06857 1.05355-.17254l1.61363-2.13175c.52828-6.00659-.23825-12.10019-2.22044-17.76001-1.15674-3.27675-3.19101-6.79161-6.69072-7.41222-2.20944-.39338-4.59386.57704-6.02229 2.29775-.15572.18226-.30234.3904-.43908.60677-.72874 1.12776-1.21358 2.60243-1.19977 3.96596-.85408-.66771-1.74341-1.29873-2.69294-1.84826-.76703-.45323-1.7994-1.07745-2.90026-1.57602z" fill="#784d9e"/></g><g><path d="m22.23662 18.85316c-.88025.26924-1.68176.75335-2.09941 1.49029-.97151 1.70774.55354 3.78639 1.45625 5.16887 2.37956 3.66459 5.70952 6.69809 9.49974 8.94011 4.7764 2.81607 10.26894 4.39124 15.84862 4.9741l1.46265-2.97279c-.32281-.29074-.72531-.55145-1.21617-.76417-8.54441-3.72122-20.02479-8.41336-24.95168-16.83641z" fill="#8d69b2"/></g><g><path d="m33.3271 8.19053c-1.55516-.70434-3.26368-1.14775-4.59849-.48088-4.01247 2.0097-1.9896 6.9243.35094 10.48576 1.77196-1.04618 2.48934-3.1353 2.02693-5.09839-.23829-1.06426-.62048-2.73382.2037-3.67376.44197-.51072 1.20071-.93158 2.01692-1.23273z" fill="#8d69b2"/></g><g><path d="m52.17678 29.14731c-.17883 1.20654.09481 2.25166.64864 3.07354.34949-.01662.70668-.06857 1.05355-.17254l1.61363-2.13175c.52828-6.00659-.23825-12.10019-2.22044-17.76001-1.15674-3.27675-3.19101-6.79161-6.69072-7.41222-2.20944-.39338-4.59386.57704-6.02229 2.29775-.15572.18226-.30234.3904-.43908.60677 10.87052.22631 13.32136 12.82471 12.05671 21.49846z" fill="#8d69b2"/></g><g><path d="m94.57218 40.29825c-3.59829 1.67746-7.67439-1.56985-9.4394-5.12904-.70207-1.41415-.99461-2.77926-.89712-4.05676.14629-2.00886 1.27744-3.80297 3.3545-5.1876 1.42374-.9461 3.03269-1.65794 4.7392-1.80411 1.69674-.13665 3.49104.32187 4.74895 1.47224 1.24821 1.14132 1.91131 2.88687 2.06731 4.79811.32181 3.89059-1.4432 8.46396-4.57344 9.90716z" fill="#939598"/></g><g><path d="m99.14561 30.3911c-.17552-.02952-.34128-.07809-.50703-.14618-2.52566-.96562-5.40234-1.04371-7.60618.77993-1.99904 1.65794-4.7977 1.98933-6.79674.08761.14629-2.00886 1.27744-3.80297 3.3545-5.1876 1.42374-.9461 3.03269-1.65794 4.7392-1.80411 1.69674-.13665 3.49104.32187 4.74895 1.47224 1.24821 1.14131 1.91131 2.88686 2.0673 4.79811z" fill="#b5b7ba"/></g><g><path d="m25.5735 88.53681c-2.79554-2.69883-1.18246-6.98558 1.55311-9.48917 1.11058-1.01733 2.33899-1.6886 3.64722-2.01276 2.1024-.52764 4.44289-.143 6.82318 1.2353 1.68179.97677 3.22301 2.22749 4.18331 3.78045.96207 1.57521 1.27188 3.44936.49744 5.00832-.76458 1.53948-2.50073 2.64967-4.61674 3.28584-4.14044 1.24936-9.5485.6623-12.08752-1.80798z" fill="#939598"/></g><g><path d="m37.66101 90.34478c-.04422-.17781-.06262-.35073-.059-.52843-.02576-2.67562-1.1857-5.39691-4.06659-6.8821-2.50738-1.28955-3.90481-3.60788-2.76159-5.89938 2.1024-.52764 4.44289-.143 6.82318 1.2353 1.68179.97677 3.22301 2.22749 4.18331 3.78045.96207 1.57521 1.27188 3.44936.49744 5.00832-.76459 1.53949-2.50074 2.64968-4.61675 3.28584z" fill="#b5b7ba"/></g><g><path d="m56.87126 44.89938c3.35395-1.30274 3.65653-5.96981 2.32498-9.32556-.52857-1.33384-1.27586-2.37063-2.20367-3.09917-1.45465-1.1502-3.36953-1.52606-5.58837-1.03219-1.51888.34039-2.99261.9466-4.14211 1.96702-1.13703 1.01997-1.92979 2.47245-1.92248 4.00464.00713 1.52026.78481 3.03418 1.98713 4.32067 2.44483 2.62159 6.63775 4.30784 9.54452 3.16459z" fill="#939598"/></g><g><path d="m47.32673 41.73479c.08796-.13258.15698-.27061.21274-.42074.89837-2.24303 2.61569-4.16436 5.21077-4.46859 2.35648-.27362 4.30394-1.89028 4.24233-4.37081-1.45465-1.1502-3.36953-1.52606-5.58837-1.03219-1.51888.34039-2.99261.9466-4.14211 1.96702-1.13703 1.01997-1.92979 2.47245-1.92248 4.00464.00713 1.52027.78481 3.03418 1.98712 4.32067z" fill="#b5b7ba"/></g><path d="m130.59033 42.59669c.32654-.8623.54047-1.81201.54382-2.80859.01685-1.00049-.18213-2.02734-.56128-2.96143-3.97413-10.08549-27.90102-10.47114-29.59497-7.70117-.00006-.00049-.00006-.00098-.00012-.00146v-.01025c-.16003-1.02979-.5-2.1499-1.16003-3.29004-3.85851-6.98351-15.36653-3.14303-17.00995 3.66016-7.40112 2.73999-12.92742 8.94356-17.08002 15.68994-.42999.7998-.96002 1.58984-1.34998 2.47021-4.67733 9.35405-5.94891 21.24978-4.68005 31.86963.1792 1.54297.40814 3.02588.66669 4.4502-.06378-.17676-.12085-.35303-.17664-.53027-1.12006-3.52979-2.08002-7.22949-2.81-10.94971-1.58739-7.97975-2.18781-16.79896-1.60004-26.05029.57001-.20996.88-.46973 1.03998-.68994.24005-.31982.15002-.57959.05005-.83984-.10004-.25977-.23004-.5-.54004-.66992-.09998-.05029-.22998-.1001-.38-.14014-.28998-.08008-.67999-.1499-1.22998-.27979-.13-.03027-.27002-.07031-.41998-.10986-.82001-.22021-1.97003-.59033-3.38-1.52051-.82001-.52979-1.73999-1.26953-2.48999-2.25-.40002-.47949-.67999-1.03955-.88-1.59961-.04004-.12988-.07001-.27002-.12-.41016-.02002-.14014-.01001-.27002-.04004-.41016-.02997-.25977.01001-.52979.09003-.83008.17999-.63965.63-1.3999 1.39001-2.00977.76996-.62988 1.90997-1.1499 3.16998-1.43994 1.21002-.29004 2.40002-.26025 3.38.22021.98999.45996 1.83002 1.3999 2.39001 2.5498 1.15997 2.2998 1.22998 4.91016.65997 6.45996-.57001 1.58984-1.72998 2.14014-1.59998 2.43994.04999.12012.38995.16016.96997-.04004.59003-.18994 1.37-.71973 2.03003-1.6499 1.27997-1.89014 1.71997-5.10986.59998-8.31982-.53998-1.59033-1.63-3.32031-3.40002-4.39014-.38995-.24023-.79999-.43994-1.21997-.58984-.00262-.00098-.00519-.00146-.00781-.00244.42926-.05518.84814-.40137 1.21759-2.00195.21771-1.01758.40845-2.54736.36243-4.81982-.0686-2.26563-.3576-5.29346-1.44794-9.14307-.62604-2.04883-1.46741-4.88037-3.58307-7.50586-1.05072-1.28174-2.52893-2.5166-4.34796-3.04639-.88476-.26905-1.83911-.37989-2.74401-.30078-.90234.07813-1.75153.31689-2.51813.65625-1.52582.69189-2.73608 1.8081-3.45087 3.03564-.40424.68311-.65533 1.36719-.81409 2.01758-.67285-.44238-1.39624-.87354-2.10211-1.27686-1.61664-.91903-3.26793-1.74098-5.09046-2.02393-.72766-.11475-1.58948-.12939-2.49182.11328-.42493.10742-.95337.33887-1.25299.52979-.34613.18701-.6875.44189-1.01685.70996-.65863.55566-1.22925 1.33594-1.55438 2.18408-.65674 1.73779-.39252 3.3916-.00281 4.75244.37878 1.28369.93848 2.41162 1.55048 3.47754-.05066-.01758-.09302-.03467-.1452-.05225-.53937-.16895-1.09961-.37061-1.98309-.46582-.81134-.07275-1.65338-.03564-2.5791.19482-.90771.24023-1.9762.63818-2.94226 1.70605-.47028.53271-.85681 1.25684-1.00946 2.04834-.15674.79248-.07642 1.57129.09576 2.23096.35565 1.32373 1.00793 2.32666 1.60321 3.24658.62524.96729 1.4928 2.20166 2.50378 3.33203 5.51149 6.22009 14.53849 10.176 21.60199 10.12549.42004 1.13916.97955 2.05859 1.60919 2.77832 1.22998 1.48975 2.53998 2.37988 3.72998 3.01953 1.90002 1.01025 3.53998 1.30029 4.77002 1.30029-1.30959 9.1883-.99642 18.60248.23999 26.33984.04999.33008.10999.66992.16998 1-.08997-.0498-.17999-.10986-.27997-.16992-4.15771-2.47064-10.95835-2.12897-15.47003 1.97998-.17999.16992-.34998.33008-.52002.5-1.32996-.64014-2.82996-1.12988-4.40997-1.21973-2.15998-.15039-4.37.5498-5.96002 1.72998-3.17999 2.33984-4.60999 5.87988-4.23999 8.46973 0 .02002 0 .03027.01001.05029.00031.00244.00122.00488.00153.00732-.52545.05371-1.40088.28564-2.51947.70313-1.77246.67529-4.18091 1.89209-6.49438 3.77637-1.15387.93604-2.27942 2.01367-3.32794 3.16162-2.11735 2.33402-3.73134 4.97932-4.81165 7.90234-.48834 1.31738-.81805 2.69092-1.02582 3.71338-.20929 1.01367-.39862 2.14307-.25494 3.36865.11072 1.22266.76068 2.55371 1.6842 3.35596.92316.82031 1.95361 1.18311 2.8573 1.33398.91602.14648 1.74988.09912 2.54291-.09424.33544-.07813.80241-.24644 1.10364-.40771.44807-.21834.86711-.48537 1.27808-.7666-.14099.79346-.25439 1.6001-.31073 2.43408-.07855 1.40576-.04974 2.87158.35248 4.36377.38251 1.47998 1.15363 2.99023 2.35358 4.13867.3114.26953.62848.5332.94818.78906.34338.20557.69415.39844 1.04425.58887.67566.39014 1.72705.68896 2.6344.64941 1.88684-.06152 3.29376-.90332 4.349-1.67139 1.08295-.79785 1.90198-1.62891 2.65088-2.35352.38446-.37842.73932-.76221 1.07471-1.14648 1.42419 2.71066 3.80157 4.91643 6.70014 6.18311 1.83826.78613 4.0437 1.35449 6.47119.79785 1.17224-.25684 2.36755-.8833 3.28741-1.76611.92877-.88184 1.55878-1.96826 1.96887-3.02734.81616-2.14258.92029-4.19678.89038-6.03271-.05957-1.8584-.29022-3.43604-.50916-4.854-.88269-5.13623-2.26831-8.84033-3.45599-11.53613-1.22357-2.68945-2.28741-4.38379-3.08002-5.47314-1.00629-1.33545-1.58881-1.75977-1.99847-1.82422.10516-.04736.21027-.08594.31543-.12402.53003-.30029 1.08002-.51025 1.62006-.93994 1.07996-.72021 2.19995-1.92041 2.76996-3.6001.60004-1.8501.22003-4.03027-.82001-5.77002-.58997-1-1.33997-1.87012-2.19-2.61035 2.19126-1.92063 4.75441-3.06996 7.81-3.35986 2.17004-.25 4.11005.1001 5.21002.18994.56 3.06006 1.28003 6.09033 2.13 9.02002 2.14001 7.42041 5.21997 14.06006 8.01001 18.95996 5.13 8.96045 10.34998 14.8501 14.46997 19.01025 4.17004 4.1499 7.38 6.50976 9.58002 8.00976 2.21002 1.52002 3.5 2.09033 4.21002 2.32031.71997.21973.91998.02979 1.07996-.2002.16003-.23975.26001-.48975-.16998-1.1001-.41998-.61963-1.42999-1.52979-3.33997-3.27979-1.91003-1.74999-4.82001-4.24023-8.66003-8.37011-3.82001-4.12988-8.71997-9.83008-13.63-18.3999-1.05548-1.8623-2.17041-3.97314-3.27582-6.28125-.00146-.00684-.00269-.01221-.00415-.01904 0 0 0 0-.01001-.00977-.72998-3.37988-2.02002-9.18018-2.29004-15.91016-.50882-9.91356.9962-20.86573 5.46002-29.81982 2.48312-5.58764 8.35447-12.50881 14.76001-16.41016.21002 1.01025.59998 1.9502 1.04999 2.75 1.75 3.11035 4.52002 5.06006 6.90002 5.51025.00336.00098.00708.00098.0105.00195-.0777.60938-.05566 1.70508.13037 3.16406 1.00382 8.27089 6.98676 18.88357 16.1272 24.04932 7.24927 4.25301 10.59749-.47337 9.98767-5.32471-.13544-.93945-.39178-1.57666-.60187-2.14746-.07947-.20459-.15692-.38574-.23444-.56885.05334.0293.10242.0625.15607.09131 1.28735.67676 2.64319 1.29199 4.16656 1.67969 6.39769 1.56693 10.61113-3.06012 7.93884-9.22314-.56744-1.26807-1.22919-2.33496-1.84772-3.29199-.47168-.73291-.99036-1.50879-1.50916-2.20752.75873-.19141 1.56091-.49512 2.3573-.99951 1.31793-.82419 2.50683-2.19919 3.1712-3.92038zm-89.40082-34.49952c.64221-.74609 1.57373-1.34668 2.62335-1.65967 2.17163-.67773 4.28467.31494 5.60925 2.30078 1.37445 1.95215 2.06635 4.4126 2.63477 6.32959 1.6564 5.84944 1.74871 10.36161 2.12311 12.729.14563 1.02832.34686 1.54102.58813 1.80957-.10011-.01056-1.47001-.38779-3.32874-.0625-.0213-.18262-.04547-.37402-.07397-.57813-.28497-1.70215-.83002-4.2373-2.41144-7.75195-.79578-1.75098-1.88934-3.73291-3.46484-5.84668-1.36395-1.8125-3.12549-3.71436-5.40894-5.45947.25209-.61083.61164-1.24511 1.10932-1.81054zm-16.05658 18.8252c-.85699-1.04395-1.49847-1.99805-2.13391-2.97656-.56293-.84229-.96368-1.56152-1.09241-2.0498-.10925-.51025-.06091-.46826.02704-.64844.1131-.17041.49933-.42041.93823-.5498.43579-.14307.91388-.2002 1.30542-.20215.32281-.00928.83997.0874 1.28448.17578.48169.104.92114.19922 1.32233.28613.84637.18408 1.61859.30322 2.26538.31787.13751.00342.24268-.01172.36749-.01611.66785.77832 1.38275 1.52637 2.05853 2.16943 3.40949 3.31348 6.99304 5.8291 9.79889 7.2085 2.04114 1.01807 3.59924 1.49121 4.33661 1.5835-.00104.00098-.00226.00195-.00323.00293-1 .95996-1.72003 2.16016-2.04999 3.37012-.26001.89014-.30005 1.83008-.17004 2.68994.00012.00146.00049.00244.00061.00391-8.91565-2.78625-14.53697-6.83745-18.25543-11.36525zm20.79487 5.00146c-.00085.00049-.00159.00146-.00244.00244-.44855-.42334-1.8927-1.25244-3.83228-2.64697-2.43414-1.72754-5.53918-4.42871-8.54321-7.84814-.77649-.86963-1.46313-1.68164-2.11786-2.63086-1.16069-1.64925-2.51275-3.97358-2.97308-5.94433-.24133-.97949-.23193-1.8877.02325-2.40479.12488-.26465.2854-.47119.53809-.6665.24921-.19092.65118-.39355.78894-.40479.41827-.11914 1.27155.04785 2.08722.37646.8338.33643 1.66828.79395 2.48554 1.27637.86298.50977 1.58887.93896 2.25397 1.40332 2.43817 1.67676 4.27069 3.56104 5.69073 5.36377 1.41608 1.81641 2.45514 3.5332 3.25824 5.06641 1.60004 3.07568 2.38818 5.33936 2.99866 6.84375.06982.18604.13684.36035.2016.52539-.81915.31934-1.60815.73877-2.3374 1.26855-.18001.12988-.36.27002-.51997.41992zm-4.57178 68.51856c.92407 2.59131 2.10028 6.05664 2.91412 10.79102.20074 1.28857.44366 2.81592.53918 4.34082.08466 1.53174.02698 3.18701-.42859 4.58691-.45801 1.4126-1.26312 2.39209-2.62402 2.82373-1.30457.44434-3.0285.26514-4.54657-.22949-3.05243-.95557-5.32508-3.08838-6.62207-4.88574 2.16217-2.96045 3.26868-6.01563 3.92041-8.6665.63025-2.69971.82599-5.06641.8316-7.0791-.00983-4.0332-.59247-6.67871-1.05396-8.42236-.08575-.30957-.16962-.58203-.25238-.83789h.00403c1.31-.02002 2.81-.18018 4.47998-.68018.12-.03955.25-.07959.38-.11963h.00568c-.33667.30908-.43842.88281.31781 2.86475.4369 1.20555 1.17708 2.9287 2.13478 5.51366zm-.78827-14.58838c-.19995.54004-.59998 1.1001-1.23999 1.52002-1.11422 1.02738-5.67064 2.54876-11.03998 1.21973-.53998-.08984-.87-.25977-1.21002-.2998-.29999-.08008-.51996-.12988-.70996-.12988-.39001 0-.60004.16992-.80005.37988-.18994.19971-.37.3999-.23999.81982.12.43018.57001 1.12012 1.79004 1.85986.91876.56934 2.30688 1.14844 4.25287 1.43896.00812.4209.03198.91797.07574 1.51709.08374 1.69873.3316 4.20361.14288 7.83154-.1015 1.81006-.35742 3.89648-.9505 6.22021-.62164 2.31201-1.58722 4.86621-3.38434 7.30225-.48724.6665-1.05658 1.3418-1.7074 2-.73077.73193-1.44928 1.46826-2.18628 2.0332-.73553.58936-1.50189.94434-2.05298.97656-.30121.01172-.48242-.00293-.88269-.20898l-.5954-.29248c-.16418-.1377-.33301-.26855-.50934-.396-1.30383-1.104-1.92938-3.29639-1.875-5.62305.00793-2.30859.50244-4.76514 1.2218-6.85693 1.61755-4.46924 3.6955-8.23291 5.56342-10.72461 1.84113-2.51221 3.29089-3.8667 3.09497-4.1084-.14734-.19971-1.96643.74707-4.29816 3.07666-2.35126 2.29785-4.97809 6.10791-7.02295 10.65967-.17914.41846-.3335.84717-.49164 1.27441-.07025.0127-.12506.01123-.19891.02734-.61304.1333-1.31921.4126-2.04517.76221-.33484.15869-.70154.33203-1.10339.52295-.1853.08252-.36957.16113-.54797.22168-.10309.0415-.16846.05615-.21161.06445-.05927.00977-.12122.02539-.19647.03174-.58514.09717-1.54419-.09766-1.90967-.5083-.18073-.21045-.30908-.39404-.35992-.88477-.05231-.48389.02679-1.18701.2171-2.07129.21893-1.06543.4375-2.07129.81049-3.24365.80663-2.48904 1.97792-4.80573 3.63965-7.04785.85382-1.14209 1.75378-2.22168 2.67505-3.19531 2.89471-3.05225 6.09088-4.96973 7.20593-5.92871.25995.90967.71991 1.56982 1.12988 1.93945.5.47998.87.6001.94995.51025.11005-.11035-.06-.43994-.27997-.97998-.22998-.53027-.45001-1.32031-.37-2.27002.07001-.9502.46997-2.07031 1.20001-3.1499 3.76883-5.78803 11.47419-3.85089 14.04999 1.11963.55 1.01027.61 1.98.39998 2.59035zm48.10004-47.93994c-.88-.91016-1.70001-2.09033-2.25-3.40039-.42999-1.04004-.65002-2.13965-.53998-3.13965.01996-.26025.06-.52002.13995-.77002 1.05128-3.73162 8.18873-6.39799 10.32001-2.7002.35004.56982.59003 1.24023.71002 1.91992.26001 1.35986.17999 2.66016 0 3.74024-.35999 2.18994-1.13 3.46973-1.60004 4.29004-.50995.82959-.82996 1.23975-.94995 1.57959-.12.3501-.04004.62012.07996.87012-.12-.31006-1.42999.20996-3.19995-.48975-.87006-.3501-1.82001-1-2.71002-1.8999zm32.62475 20.83789c-1.13031-.22754-2.31458-.68066-3.46466-1.21094-1.15143-.54004-2.28247-1.17139-3.35742-1.85693-1.09448-.68408-2.04327-1.41016-3.04822-2.22559-9.8643-7.87186-11.88765-13.70108-12.57043-13.37793-.23285.1001.3302 2.18506 2.07349 5.18701 1.72095 3.00537 4.73633 6.79688 8.60895 10.36523.75818.71338 1.61975 1.47217 2.51996 2.16406.00397.15283.01276.3125.02881.48242.06317.69971.24664 1.53271.50592 2.44434.12189.43555.25543.91211.40179 1.43457.12817.49756.25928 1.03125.27069 1.4165.14512 3.51323-1.54065 3.01795-4.18115 1.42969-11.38945-6.46949-14.48573-16.299-17.66395-23.62059h.00146c1.02002.08008 1.85999-.10986 2.38-.37988.53998-.27002.78998-.54004.78998-.66992.12.23975.25.45996.66003.5.42999.02979 1.22998-.12012 2.31995-1.03027.7392-.62891 1.62787-1.6377 2.34747-3.18506.42194.16016.92902.33643 1.547.53467 7.65453 2.67177 14.60197 5.42897 20.0155 12.37598.5697.7251 1.08484 1.48096 1.7077 2.41992.59015.88477 1.16229 1.7915 1.59985 2.71533 1.60057 3.32578-.38211 4.74681-3.49272 4.08739zm2.57434-12.73584c-2.11243-2.49219-4.36926-4.37061-6.49377-5.80225-4.81597-3.22884-10.24036-5.17008-15.27063-5.86816-.51672-.05811-.96216-.09668-1.35516-.12012.00018-.00049.00031-.00098.00049-.00195.25989-1.09961.44983-2.36914.35999-3.83887.26007.28174.82825.50098 2.14636.62451 5.91163.64477 21.17805 1.19351 24.22485 7.1709.57959 1.07666.66937 2.30811.37598 3.51611-.29846 1.19385-.9599 2.25586-1.7912 2.99072-.68385.61622-1.46034 1.0381-2.19691 1.32911z" fill="#202020"/></g></svg>