<svg id="Layer_1" enable-background="new 0 0 136 136" height="512" viewBox="0 0 136 136" width="512" xmlns="http://www.w3.org/2000/svg"><g><g><path d="m96.48244 124.20876c-3.00639.06057-8.36546 1.66352-11.35901 2.26511-7.4103 1.49494-14.95107 2.02124-22.29731 1.5573-3.1994-.19496-6.41315-.59847-9.18731-1.8064-2.77402-1.20757-5.08777-3.32935-5.6791-6.05354-.23947-1.08364-.20077-2.24849.27666-3.3308.17059-.38454.38987-.7522.64785-1.0828 1.47045-1.93733 4.23212-3.09634 6.82041-3.6141 5.87289-1.18848 11.7933-.1757 17.15966 1.51094 3.46856 1.09772 6.80997 2.46213 10.43007 3.24162 2.75974.59042 6.22972 1.49982 9.18276 1.16873l2.03535 3.11597z" fill="#f9ed32"/></g><g><path d="m96.48244 124.20876c-3.00639.06057-8.36546 1.66352-11.35901 2.26511-7.4103 1.49494-14.95107 2.02124-22.29731 1.5573-3.1994-.19496-6.41315-.59847-9.18731-1.8064-2.77402-1.20757-5.08777-3.32935-5.6791-6.05354-.23947-1.08364-.20077-2.24849.27666-3.3308.17059-.38454.38987-.7522.64785-1.0828 1.26104-.79687 2.87725-.83311 4.25739.60459 4.98661 5.20769 14.39319 7.17534 21.30928 7.74902 6.85229.56217 13.66051-.51423 20.06158-2.93045z" fill="#f7e116"/></g><g><path d="m83.57447 104.47346c-3.00074-.19387-8.47617.95017-11.50986 1.29647-7.51017.86296-15.06843.74972-22.34914-.33377-3.17146-.46481-6.33957-1.13863-9.00165-2.57682-2.66198-1.43781-4.78801-3.74764-5.14687-6.51208-.14698-1.10001-.00992-2.25741.55732-3.29546.2025-.36874.45208-.71655.73709-1.02415 1.62901-1.80605 4.47879-2.72737 7.10159-3.02441 5.95236-.6876 11.76592.82219 16.97043 2.95657 3.36331 1.3871 6.57738 3.02916 10.1186 4.11198 2.69993.82168 6.08058 2.02124 9.05104 1.94106l1.76457 3.27692z" fill="#f9ed32"/></g><g><path d="m83.57447 104.47346c-3.00074-.19387-8.47617.95017-11.50986 1.29647-7.51017.86296-15.06843.74972-22.34914-.33377-3.17146-.46481-6.33957-1.13863-9.00165-2.57682-2.66198-1.43781-4.78801-3.74764-5.14687-6.51208-.14698-1.10001-.00992-2.25741.55732-3.29546.2025-.36874.45208-.71655.73709-1.02415 1.32391-.68738 2.93739-.58681 4.19102.96244 4.52838 5.61071 13.73488 8.36674 20.57769 9.5232 6.78021 1.1396 13.65508.64276 20.23753-1.22353z" fill="#f7e116"/></g><g><path d="m72.40032 83.70687c-2.97989-.40285-8.52182.35623-11.57228.48994-7.55209.33666-15.08401-.30386-22.27133-1.89288-3.13128-.68503-6.24464-1.57833-8.79984-3.19882-2.55513-1.62011-4.51476-4.0727-4.67979-6.85545-.06984-1.10758.14767-2.25259.78598-3.24853.22774-.35371.50098-.68325.80678-.9702 1.75109-1.68794 4.65823-2.40811 7.29537-2.52136 5.98584-.27046 11.67984 1.64141 16.72268 4.13386 3.25829 1.61846 6.34991 3.48086 9.80691 4.80821 2.636 1.00813 5.92468 2.44072 8.89349 2.56806l1.53155 3.39209z" fill="#f9ed32"/></g><g><path d="m72.40032 83.70687c-2.97989-.40285-8.52182.35623-11.57228.48994-7.55209.33666-15.08401-.30386-22.27133-1.89288-3.13128-.68503-6.24464-1.57833-8.79984-3.19882-2.55513-1.62011-4.51476-4.0727-4.67979-6.85545-.06984-1.10758.14767-2.25259.78598-3.24853.22774-.35371.50098-.68325.80678-.9702 1.36866-.5933 2.97119-.38036 4.11362 1.25261 4.12572 5.9131 13.1174 9.305 19.8628 10.93626 6.68414 1.61006 13.5769 1.59428 20.27357.19199z" fill="#f7e116"/></g><g><path d="m61.54307 57.70692c-2.97989-.40284-8.52181.35624-11.57228.48994-7.55209.33666-15.08401-.30385-22.27133-1.89288-3.13128-.68503-6.24463-1.57833-8.79984-3.19883-2.55513-1.62011-4.51476-4.0727-4.67979-6.85544-.06984-1.10758.14767-2.2526.78598-3.24853.22774-.35371.50099-.68325.80678-.9702 1.75109-1.68795 4.65823-2.40812 7.29537-2.52137 5.98583-.27046 11.67984 1.64141 16.72268 4.13386 3.25829 1.61847 6.34991 3.48086 9.80691 4.80822 2.63599 1.00812 5.92467 2.44072 8.89349 2.56806l1.53154 3.39209z" fill="#f9ed32"/></g><g><path d="m61.54307 57.70692c-2.97989-.40284-8.52181.35624-11.57228.48994-7.55209.33666-15.08401-.30385-22.27133-1.89288-3.13128-.68503-6.24463-1.57833-8.79984-3.19883-2.55513-1.62011-4.51476-4.0727-4.67979-6.85544-.06984-1.10758.14767-2.2526.78598-3.24853.22774-.35371.50099-.68325.80678-.9702 1.36866-.5933 2.97119-.38037 4.11362 1.25261 4.12572 5.9131 13.1174 9.305 19.8628 10.93626 6.68414 1.61006 13.57691 1.59428 20.27357.19199z" fill="#f7e116"/></g><g><path d="m96.39941 123.05946c1.70173-2.03223 5.75576-4.85649 7.81975-6.591 5.11315-4.29057 9.63709-9.18799 13.3776-14.48061 1.6339-2.30122 3.13334-4.72366 3.84084-7.27377.7077-2.54983.53706-5.27175-.99608-7.13253-.60751-.7431-1.42409-1.33854-2.42662-1.58862-.35674-.0882-.72883-.13394-1.097-.13331-2.13467-.02472-4.45112 1.2529-6.23405 2.75387-4.05486 3.39845-6.63322 8.00497-8.44556 12.59085-1.16625 2.96812-2.08023 5.99134-3.54742 8.89361-1.1211 2.21047-2.4167 5.07902-5.98705 6.28496l1.00308 3.06162z" fill="#f9ed32"/></g><g><path d="m96.39941 123.05946c1.70173-2.03223 5.75576-4.85649 7.81975-6.591 5.11315-4.29057 9.63709-9.18799 13.3776-14.48061 1.6339-2.30122 3.13334-4.72366 3.84084-7.27377.7077-2.54983.53706-5.27175-.99608-7.13253-.60751-.7431-1.42409-1.33854-2.42662-1.58862-.35674-.0882-.72883-.13394-1.097-.13331-1.24046.44047-2.1578 1.53101-1.93856 3.24651.8011 6.20529-3.05077 13.71576-6.47878 18.77158-3.40065 5.00585-7.89556 9.10646-13.08027 12.21201z" fill="#f7e116"/></g><g><path d="m81.86132 103.95649c2.20743-2.04189 7.17937-4.60488 9.75285-6.24818 6.37444-4.06372 12.17092-8.91562 17.14037-14.34584 2.1692-2.35983 4.20405-4.87981 5.36426-7.67427 1.16037-2.7941 1.35502-5.92738-.10881-8.29974-.57923-.94663-1.41515-1.7588-2.50982-2.20715-.38963-.15864-.80261-.27135-1.21776-.33051-2.40305-.37536-5.19618.7056-7.41962 2.12815-5.05451 3.21796-8.61625 8.05439-11.31145 12.99184-1.73682 3.19677-3.19706 6.49743-5.26378 9.57011-1.57818 2.33968-3.44666 5.40179-5.80332 7.21183l.69553 3.65624z" fill="#f9ed32"/></g><g><path d="m81.86132 103.95649c2.20743-2.04189 7.17937-4.60488 9.75285-6.24818 6.37444-4.06372 12.17092-8.91562 17.14037-14.34584 2.1692-2.35983 4.20405-4.87981 5.36426-7.67427 1.16037-2.7941 1.35502-5.92738-.10881-8.29974-.57923-.94663-1.41515-1.7588-2.50982-2.20715-.38963-.15864-.80261-.27135-1.21776-.33051-1.46107.30081-2.65032 1.39587-2.64707 3.38879.02084 7.21012-5.3895 15.15265-9.97298 20.3635-4.54552 5.15831-10.19598 9.10583-16.48259 11.80588z" fill="#f7e116"/></g><g><path d="m71.49306 82.64034c2.05952-2.19098 6.84045-5.09476 9.29295-6.91367 6.07526-4.49873 11.51895-9.74339 16.09726-15.50721 1.99919-2.50547 3.85319-5.16135 4.81552-8.02997.96252-2.86827.938-6.0075-.68785-8.2719-.64388-.90389-1.53445-1.65573-2.65775-2.02659-.39975-.13105-.8196-.21467-1.23786-.2447-2.42338-.20672-5.13425 1.06656-7.25298 2.64083-4.81757 3.56291-8.03305 8.63614-10.37706 13.74966-1.50945 3.3102-2.73576 6.70473-4.58297 9.91417-1.41103 2.44414-3.06123 5.6292-5.2858 7.5993l.94902 3.59878z" fill="#f9ed32"/></g><g><path d="m71.49306 82.64034c2.05952-2.19098 6.84045-5.09476 9.29295-6.91367 6.07526-4.49873 11.51895-9.74339 16.09726-15.50721 1.99919-2.50547 3.85319-5.16135 4.81552-8.02997.96252-2.86827.938-6.0075-.68785-8.2719-.64388-.90389-1.53445-1.65573-2.65775-2.02659-.39975-.13105-.8196-.21467-1.23786-.2447-1.43652.40206-2.54642 1.57745-2.40408 3.56529.52404 7.19109-4.31873 15.49187-8.52734 21.00993-4.1744 5.46299-9.53555 9.79528-15.61837 12.92753z" fill="#f7e116"/></g><g><path d="m61.64897 58.00537c2.05952-2.19098 6.84045-5.09476 9.29295-6.91367 6.07526-4.49873 11.51895-9.74338 16.09726-15.50721 1.99919-2.50547 3.85319-5.16135 4.81552-8.02997.96252-2.86827.938-6.0075-.68785-8.2719-.64388-.90389-1.53445-1.65573-2.65775-2.02659-.39976-.13105-.8196-.21467-1.23786-.2447-2.42338-.20672-5.13425 1.06655-7.25298 2.64083-4.81757 3.56291-8.03305 8.63614-10.37707 13.74966-1.50945 3.31021-2.73576 6.70473-4.58296 9.91418-1.41103 2.44413-3.06123 5.62919-5.2858 7.5993l.94902 3.59879z" fill="#f9ed32"/></g><g><path d="m61.64897 58.00537c2.05952-2.19098 6.84045-5.09476 9.29295-6.91367 6.07526-4.49873 11.51895-9.74338 16.09726-15.50721 1.99919-2.50547 3.85319-5.16135 4.81552-8.02997.96252-2.86827.938-6.0075-.68785-8.2719-.64388-.90389-1.53445-1.65573-2.65775-2.02659-.39976-.13105-.8196-.21467-1.23786-.2447-1.43652.40206-2.54642 1.57745-2.40408 3.56529.52403 7.19108-4.31873 15.49187-8.52734 21.00993-4.1744 5.46299-9.53555 9.79528-15.61837 12.92753z" fill="#f7e116"/></g><g><path d="m58.87665 41.97672c-.06367-.59381-.23362-1.19238-.44149-1.74495-.82885-2.20327-.77483-4.60608-1.25585-6.93901-.52993-2.57014-1.22817-5.09843-2.08508-7.56014-1.67653-4.81629-3.96143-9.37911-6.78421-13.50232-1.57269-2.29721-3.82038-4.67804-6.40017-4.18045-1.66094.32036-2.9673 1.82936-3.63511 3.52764-.82102 2.0879-1.24264 4.88101-.62666 7.07374 1.11074 3.95397 3.36015 7.70632 6.25641 10.33287 3.05528 2.77077 4.90021 7.70135 6.95506 11.41752 1.14798 2.07611 2.53059 4.34219 4.69724 4.8415.73786.17004 1.55017.09676 2.17771-.36158 1.01847-.74387 1.25885-1.81635 1.14215-2.90482z" fill="#f9ed32"/></g><g><path d="m58.72289 41.9742c.00605-.93984-.07763-1.89192-.1867-2.8167-.66822-5.66605-2.14081-11.21429-4.32611-16.39957-1.13634-2.69633-2.46543-5.29542-3.97488-7.7619-1.36004-2.22234-2.36285-4.53607-4.62246-5.83845-2.35305-1.35623-5.73098-.95945-7.08561 1.54884-.91427 1.69289-1.19006 4.01381.87587 4.63229 9.84908 2.93364 16.60588 17.61429 16.81652 27.93862.01295.63476.01303 1.29752.27678 1.86274.26374.56522.88927.98626 1.42628.74901.59145-1.19687.79149-2.54283.80031-3.91488z" fill="#f7e116"/></g><path d="m122.58218 87.25599c-.50958-.854-1.16162-1.62207-2.01178-2.2251-.82935-.60059-1.87543-1.00098-2.85754-1.11816-1.98486-.22217-3.6521.33252-5.00116.96533-1.35834.65137-2.48828 1.4541-3.44653 2.27148-3.43341 2.93457-5.55389 6.29199-7.05237 9.25928-1.51086 2.98975-2.3764 5.7168-3.12964 7.89941-.45271 1.32172-1.01694 2.9332-1.57532 4.23877-.16223.38818-.34448.79932-.47278 1.05957-.62482 1.2002-1.46979 2.22852-2.09039 3.04004-1.29987 1.63232-1.98199 2.56201-2.21777 3.14746-.05792.13818-.09003.25293-.10754.35498-1.63837-2.42725-3.38623-5.10449-5.13422-7.97119-1.07983-1.75928-2.16956-3.57959-3.23938-5.43896 1.01941-.55908 2.34216-1.25781 3.95447-2.08057 3.98456-1.92627 9.3559-5.18506 14.646-9.54004 2.6543-2.17773 5.28894-4.64111 7.77441-7.30127 2.61443-2.81232 5.07603-6.0252 5.97791-9.73877.46948-1.95068.54517-4.10938-.18359-6.1499-.36621-1.0166-.89246-1.95459-1.6283-2.77783-.72919-.81885-1.67712-1.4956-2.72015-1.88916-2.11041-.76855-4.06854-.51953-5.69861-.09033-1.63788.45166-3.02441 1.13232-4.24121 1.86865-4.31616 2.68262-7.19788 6.06836-9.33868 9.13477-2.13672 3.08984-3.53711 6-4.68848 8.36426-1.15094 2.38086-2.12347 4.28467-3.04248 5.80078-.94702 1.57227-1.71118 2.84082-2.32849 3.86572-1.22217 1.98828-1.92572 2.90771-2.22345 3.50195-.04437.0835-.06299.14697-.09094.21729-.00299-.00537-.00604-.01123-.00903-.0166-1.15997-2.1499-2.28998-4.31006-3.37-6.43994-1.35999-2.68994-2.62-5.33984-3.76996-7.87012-.00012-.00049-.00018-.00049-.00031-.00049 1.02087-.66895 2.48206-1.58252 4.32147-2.68945 3.84033-2.19971 8.97113-5.82568 13.94434-10.53906 2.49585-2.35791 4.95209-4.99902 7.24591-7.82568 2.411-2.98753 4.64311-6.36505 5.28351-10.13281.33221-1.979.25702-4.13721-.61237-6.12207-.43628-.98828-1.02667-1.8877-1.81818-2.65723-.78461-.76611-1.77747-1.375-2.84546-1.69482-2.15887-.61914-4.09485-.23438-5.69098.30762-1.60236.56494-2.93793 1.34082-4.1004 2.16016-4.11841 2.97754-6.75684 6.55566-8.67834 9.76416-1.91583 3.23145-3.10968 6.23242-4.0932 8.67139-.98199 2.45508-1.81921 4.42236-2.63025 5.99853-.83496 1.63477-1.50867 2.95361-2.05292 4.01904-.77759 1.48877-1.32245 2.40186-1.66394 3.02832-.23962-.54883-.4693-1.07813-.6889-1.59766-2.47003-6-4.31-11.07959-5.75-15.32959-.00049-.00146-.00092-.00293-.0014-.00439 1.02038-.66846 2.47631-1.57861 4.30847-2.68066 3.84039-2.19971 8.97119-5.82568 13.9444-10.53955 2.49579-2.35742 4.95209-4.99902 7.24585-7.82568 2.40367-2.97829 4.64178-6.35755 5.28357-10.13281.33221-1.97852.25702-4.13672-.61237-6.12207-.43628-.98828-1.02673-1.88721-1.81824-2.65723-.78455-.76563-1.7774-1.37451-2.8454-1.69482-2.15894-.61914-4.09485-.23389-5.69104.30762-1.60236.56494-2.93793 1.34131-4.1004 2.16016-4.11841 2.97754-6.75677 6.55615-8.67828 9.76465-1.91589 3.23145-3.10974 6.23242-4.09326 8.67139-.98193 2.45508-1.81921 4.42236-2.63018 5.99854-.83502 1.63477-1.50873 2.95361-2.05298 4.01904-.43787.83838-.79938 1.48877-1.09583 2.01514-.00092-.00293-.00201-.00635-.00293-.00928-.00995-.04004-.01996-.07031-.02997-.11035-.33002-1.08984-.63-2.08984-.90002-2.98975-.04999-.16992-.10999-.34033-.15997-.5.21997-.41016.33997-.80029.44-1.18994.25-1.06006.21997-2 .20001-2.83008-.02002-.83008-.06-1.6499-.13-2.47998-.14001-1.64014-.37-3.26025-.66003-4.84033-.58002-3.15967-1.39001-6.13965-2.20996-8.85986-1.36999-4.52755-2.86593-9.10423-5.61005-12.94971-1.17999-1.62012-2.46997-3.04004-4.07996-4.14014-1.6356-1.10404-3.53811-1.73035-5.53003-1.5-.94.10986-1.85999.41016-2.65002.89014-.79999.47998-1.43994 1.13965-1.88995 1.77002-.90002 1.27979-1.29004 2.47998-1.57001 3.61963-.27002 1.14014-.34003 2.19043-.33002 3.14014.06 1.91016.47998 3.39014.97003 4.5.98999 2.25 2.06995 3.06982 2.62 3.41016.60999.31006.82001.1499 1.02997-.04004.20001-.2002.35999-.43018.19-.97998-.13-.58008-.65997-1.47021-1.12-3.32031-.21997-.91992-.39001-2.08984-.31-3.51953.04999-.71045.16998-1.48047.40997-2.28027.24005-.77002.62006-1.66016 1.12006-2.29004.84998-1.16016 2.71997-1.58008 4.81-.1001 1.02997.70996 2.07996 1.86035 3.02997 3.18994.95001 1.3501 1.81 2.94043 2.58002 4.75.84998 1.98047 1.66998 4.38037 2.52002 7.04004 1.15367 3.5702 2.06552 6.75888 2.72998 10.36035.14996.83008.27997 1.66992.38 2.52002.09998.75977.16998 1.52002.22998 2.27002.04999.76953.07001 1.42969-.02997 1.92969-.04004.24023-.13.49023-.17004.55029-.02997.06982-.07996.13965-.13995.18994-.13.10986-.33002.08984-.46002-.02002-.01001 0-.02002-.01025-.03998-.03027-.08002-.06982-.26001-.29004-.43005-.50977-.77758-1.08769.1319.21691-1.95996-2.75-3.35999-4.91992-6.40002-9.56006-9.10004-12.54004-2.65997-3.02002-4.73999-4.43018-4.90997-4.22998-.20001.21973 1.46997 1.98975 3.65997 5.20996 2.24005 3.18994 4.82001 7.91016 7.92999 13.12988 1.27834 2.07687.69928 1.12016 1.87006 2.95996.25.3501.46997.70996 1.02997 1.25.5.47021 1.12.81006 1.78998.91016.29004.0498.59003.06006.88.02002.16003.69971.34003 1.44971.52002 2.23975.03149.11873.36951 1.38789.4118 1.54639-.23761-.06836-.51074-.14844-.82202-.24707-1.16211-.34961-2.79126-.98389-4.79095-1.89209-.99738-.46045-2.13654-.93896-3.26208-1.48535-4.02279-1.96118-7.55606-4.47644-12.14673-6.41309-3.20313-1.35547-6.78992-2.43945-10.57605-2.73389-.94342-.08398-1.89746-.09619-2.8493-.08398-.97339.0249-1.95905.11768-2.93762.30322-1.93408.375-3.98505 1.08057-5.65991 2.63525-.85858.79639-1.53149 1.85693-1.87671 2.98828-.35059 1.12598-.39648 2.27539-.26038 3.3374.297 2.17383 1.37183 4.00684 2.61932 5.37451 1.24902 1.38428 2.72571 2.40283 4.13885 3.1499 3.26546 1.73425 7.08122 2.54813 10.72778 3.24902 5.26054.97827 10.48094 1.39279 15.35333 1.34717 2.70258-.02783 4.99084-.17041 6.89142-.40479 1.87079-.22852 3.33887-.44336 4.52301-.61084 1.51569-.21777 2.54419-.36572 3.2572-.49707 1.34998 4.25977 3.12958 9.30859 5.56903 15.20703.28882.67725.58777 1.38477.90637 2.11182-.99469-.3623-2.18201-.84863-3.5603-1.47461-.99738-.46045-2.13654-.93896-3.26208-1.48535-1.14178-.55664-2.34033-1.20654-3.60083-1.92285-2.50775-1.42529-5.32703-3.13281-8.5459-4.49023-3.20313-1.35547-6.78992-2.43945-10.57605-2.73388-.94342-.08398-1.89746-.09619-2.8493-.08398-.97339.0249-1.95905.11768-2.93762.30322-1.93408.375-3.98505 1.08057-5.65991 2.63525-.85858.79639-1.53143 1.85693-1.87671 2.98828-.35059 1.12598-.39648 2.27539-.26038 3.3374.297 2.17334 1.37183 4.00684 2.61932 5.37451 1.24908 1.38428 2.72571 2.40283 4.13885 3.1499 3.26546 1.73426 7.08122 2.54813 10.72778 3.24902 5.26054.97827 10.481 1.39279 15.35333 1.34717 2.70258-.02783 4.99084-.17041 6.89148-.40479 1.87072-.22852 3.3388-.44336 4.52295-.61084 1.28339-.18408 2.21155-.31836 2.90149-.43506 1.03937 2.11865 2.14844 4.30664 3.34753 6.50537 1.88773 3.47802 3.06143 5.42073 3.39343 5.99561-1.03876-.29346-2.30157-.70947-3.77344-1.25781-1.0271-.38916-2.19684-.78711-3.35779-1.25391-1.17786-.47559-2.41888-1.04004-3.72626-1.6665-2.60113-1.24707-5.53271-2.75342-8.83844-3.88281-3.28998-1.12891-6.94366-1.95947-10.74109-1.98926-.94702-.01807-1.8996.03613-2.84821.11523-.9693.09277-1.94611.25391-2.9093.50732-1.90326.50879-3.89996 1.35596-5.46222 3.02393-.8009.854-1.39807 1.95947-1.66357 3.11182-.27112 1.14795-.23669 2.29736-.02679 3.34766.44806 2.14746 1.64819 3.90137 2.9881 5.17871 1.34265 1.29346 2.88678 2.20654 4.34863 2.85303 3.37852 1.50219 7.24168 2.04726 10.92841 2.49268 5.22197.59711 10.44572.66561 15.40985.27197 2.69409-.21631 4.96686-.51807 6.84644-.88477 1.85022-.35889 3.2998-.67529 4.46936-.9248 1.67816-.3623 2.75-.59473 3.45361-.78711 2.86459 4.38542 5.49765 8.13523 8.75928 12.29883.00244.00342.005.00635.00745.00928-.12335-.01709-.25171-.03516-.38873-.05615-1.20209-.16699-2.90942-.54297-5.02509-1.13232-2.30946-.65862-3.36043-.81756-7.30566-2.31104-2.69727-1.02295-5.74573-2.27588-9.13513-3.12158-3.3736-.84668-7.08453-1.36572-10.87085-1.07373-.94513.06201-1.88971.19678-2.82825.35547-.95801.17432-1.91766.41748-2.85602.75146-1.85333.66797-3.77124 1.68115-5.18689 3.4751-.72583.91895-1.22742 2.07031-1.39447 3.24121-.1731 1.16699-.04156 2.30957.25635 3.33789.62805 2.10205 1.97217 3.74805 3.41534 4.90771 2.53144 2.05581 5.69537 3.01693 8.89435 3.50489 2.46124.36475 4.68073.45508 6.77996.52979 5.20887.15132 10.42534-.21335 15.37769-1.03223 2.66614-.44336 4.90521-.93604 6.74707-1.46046 1.81329-.51416 3.2309-.95166 4.37512-1.2998 2.28259-.69873 3.43066-1.05078 4.02698-1.34473.42682-.20361.56915-.39746.61517-.5957 2.71735 3.04688 4.49573 4.79493 4.68561 4.62501.22998-.18994-1.35004-2.50977-3.96002-6.2002-.03992-.0498-.06995-.10986-.10986-.15967.81414-.57903 1.59337-1.18298 4.57257-3.20459 3.29358-2.13525 7.66113-5.60791 11.83649-10.03271 2.09753-2.21338 4.14557-4.6748 6.04224-7.29834 1.86829-2.64014 3.7655-5.6582 4.14948-9.37793.17106-1.81207-.07784-3.79791-1.0939-5.53863zm-58.45074-39.50049c.75732-1.02246 1.56958-2.30859 2.55768-3.89502 1.03125-1.66699 2.05457-3.74902 3.13953-6.18359 1.0946-2.44092 2.26874-5.16602 4.05884-8.08398 1.78339-2.88818 4.15906-6.00537 7.6178-8.50244.91785-.65039 1.97211-1.25635 3.08911-1.66016 1.0968-.4082 2.31012-.55859 3.20807-.30518.87451.22607 1.73657 1.00781 2.25037 2.11523.51984 1.0835.6582 2.50342.45599 3.95361-.39954 2.91553-2.19556 5.89453-4.24554 8.64502-2.08362 2.79492-4.32751 5.45068-6.61212 7.85742-4.58185 4.83496-9.2251 8.65527-12.80359 11.26807-1.57141 1.19873-2.82373 2.24854-3.70898 3.104-.1214-.37026-.404-1.1785-1.43341-4.41064-.10999-.33984-.21997-.66992-.3299-.98926.6693-.46679 1.60442-1.34032 2.75615-2.91308zm-7.71862 8.50879c-1.23596-.01367-2.76294.03857-4.60736.11816-1.8139.08057-3.9776.09229-6.58417.01855-4.86611-.14273-9.76444-.63559-14.63953-1.57568-1.96136-.38916-4.07623-.82227-6.14667-1.47021-2.26013-.71582-4.76111-1.76025-6.52838-3.64258-.88477-.93115-1.51935-2.05713-1.70959-3.21826-.18036-1.21826.07538-2.2749.88391-3.08008.86285-.87793 2.25476-1.49219 3.78064-1.83447.76392-.17334 1.5567-.2793 2.36517-.33105.83099-.0415 1.66382-.06592 2.49768-.0249 3.34033.11865 6.65564.93604 9.72406 2.04199 3.07642 1.10156 5.87677 2.56055 8.5542 3.83252 1.33453.63232 2.63263 1.20752 3.87872 1.68311 1.26508.47949 2.40472.8291 3.46393 1.18311 2.12299.6958 3.92853 1.11816 5.20221 1.21826.46033.04248.84399.04883 1.14996.03467.12933.48682.26837.99414.40753 1.52051.31976 1.14893.66949 2.37793 1.07904 3.69678-.70934-.09523-1.61169-.16066-2.77135-.17043zm17.56274 16.12598c.75726-1.02197 1.56952-2.30859 2.55768-3.89453 1.03119-1.66699 2.0545-3.74951 3.13947-6.18408 1.0946-2.44043 2.26874-5.16602 4.05884-8.08398 1.78339-2.88818 4.15912-6.00488 7.6178-8.50244.91791-.6499 1.97211-1.25586 3.08917-1.66016 1.09674-.4082 2.31006-.55859 3.20807-.30469.87451.22559 1.73657 1.00732 2.25031 2.11475.5199 1.08398.6582 2.50342.45599 3.9541-.39954 2.91504-2.19556 5.89404-4.24548 8.64502-2.08362 2.79443-4.32758 5.4502-6.61218 7.85742-4.58179 4.83496-9.22504 8.65479-12.80359 11.26758-1.62073 1.23633-2.90576 2.31641-3.79352 3.18506-.33373-.74603-1.02682-2.2598-2.27295-5.12646-.0014-.00342-.00275-.00635-.00415-.00977.0249-.01074.04016-.01123.06647-.02344.65415-.31934 1.79026-1.18897 3.28807-3.23438zm-6.70545 9.87402c-1.23602-.01367-2.763.03857-4.60742.11816-1.8139.08057-3.9776.09229-6.58417.01855-4.84992-.14317-9.74297-.63144-14.63953-1.57568-1.96136-.38965-4.07623-.82227-6.14667-1.4707-2.26013-.71533-4.76111-1.75977-6.52838-3.64209-.88477-.93115-1.51935-2.05713-1.70959-3.21826-.18036-1.21826.07538-2.2749.88391-3.08008.86285-.87793 2.25476-1.49219 3.78064-1.83447.76392-.17334 1.5567-.2793 2.36517-.33105.83099-.0415 1.66382-.06592 2.49768-.0249 3.34033.11865 6.65564.93604 9.72406 2.04199 3.07642 1.10156 5.87677 2.56055 8.5542 3.83252 1.33453.63232 2.63261 1.20752 3.87872 1.68311 1.26508.47949 2.40479.8291 3.46393 1.18311 1.83361.60107 3.40698.9834 4.62878 1.14453.35009.7782 1.00165 2.27728 2.39368 5.23877.00012.00049.00024.00049.00037.00098-.55822-.0464-1.19793-.07814-1.95538-.08449zm14.27728 14.63721c.6748-.27246 1.86884-1.06055 3.50574-2.99658.82684-.96729 1.72687-2.19385 2.82336-3.70703 1.14502-1.59082 2.31116-3.59619 3.56342-5.94922 1.26227-2.3584 2.62378-4.99512 4.61316-7.78125 1.98065-2.75684 4.56812-5.7002 8.19269-7.9502.96106-.58447 2.05499-1.11523 3.19751-1.43994 1.12256-.33105 2.34344-.39648 3.2215-.08057.85663.28613 1.66205 1.12598 2.09723 2.26709.44299 1.11719.48187 2.54297.17896 3.97559-.60205 2.88037-2.60162 5.72705-4.83856 8.32764-2.27362 2.64258-4.69745 5.13525-7.14447 7.37695-4.90814 4.50342-9.8067 7.99023-13.55884 10.34668-1.49353.98193-2.72125 1.86279-3.64288 2.60938-.00037-.00098-.00067-.00146-.00104-.00195-.91998-1.6001-1.84003-3.22998-2.73999-4.87012-.00189-.00342-.00385-.00684-.00574-.01074.13946-.00099.30352-.0254.53795-.11573zm-3.19134 6.49072c-1.23395.07275-2.75354.23145-4.58789.43945-1.80383.20752-3.96149.36963-6.56683.47852-4.85064.19617-9.76561.04931-14.7138-.55029-1.98376-.25146-4.12372-.53564-6.23431-1.0376-2.30457-.55615-4.87231-1.42334-6.76666-3.17773-.94757-.86719-1.65924-1.94629-1.93005-3.09131-.26495-1.20313-.08356-2.2749.66675-3.13428.79944-.93604 2.14508-1.646 3.64337-2.09375.75-.22656 1.53345-.38721 2.3363-.49561.82611-.09912 1.65515-.18164 2.48987-.19922 3.34045-.11475 6.70471.46924 9.84283 1.3584 4.71101 1.32425 8.40499 3.30347 12.78765 4.63477 1.29541.39014 2.45673.65918 3.53802.93848 1.95923.49365 3.62042.77002 4.86963.82861.3819.63036 1.35567 2.28683 3.11151 5.06299-.66681-.02881-1.47998-.02344-2.48639.03857zm12.83526 20.18066c-1.22339.17676-2.72412.46338-4.53436.82568-1.77979.35889-3.91602.70313-6.50287 1.03174-4.80991.605-9.72649.8758-14.70758.6958-1.99792-.08252-4.15423-.18506-6.29974-.50635-2.34332-.35938-4.97522-1.00635-7.01117-2.59424-1.01752-.78369-1.81781-1.79883-2.18451-2.91699-.36572-1.17627-.27563-2.25928.39935-3.17969.71741-1 1.99823-1.82129 3.45325-2.39404.72815-.28906 1.49518-.51563 2.28601-.69141.81482-.16846 1.63385-.3208 2.46411-.40869 3.31879-.39697 6.72039-.09961 9.92248.521 4.8082.92103 8.65228 2.58054 13.13373 3.53662 1.32379.2793 2.50366.44922 3.60474.63574 2.20477.36084 4.05377.50049 5.3277.40332.36438-.02295.67395-.06104.93835-.10596 1.47803 1.86621 2.86591 3.55469 4.09436 5.00244.00018.00049.00043.00049.00061.00049-.74023-.16112-2.078-.19432-4.38446.14454zm25.5495-23.30908c-1.68634 2.57617-3.52454 5.04346-5.40863 7.29395-3.77795 4.52344-7.65332 8.16504-10.65759 10.69482-1.48193 1.2998-2.64337 2.42676-3.36963 3.28467-.23035.271-.40051.50146-.5434.70996-2.59795-3.76531-3.38779-4.95199-3.57709-5.22998.15399.03955.35559.02588.6546-.09326.57916-.24072 1.54242-.82813 3.20679-2.30811.8194-.77344 1.84528-1.68457 2.91748-3.32764.27991-.4585.47375-.82764.69733-1.26123.71697-1.38121 1.38179-2.98871 1.9444-4.42383.87653-2.22656 1.75073-4.7085 3.15808-7.37402 1.39606-2.65576 3.27478-5.53223 6.13934-7.97656.75775-.6499 1.62274-1.25879 2.56537-1.72363.935-.46729 1.94928-.73486 2.7616-.65576.75476.06934 1.46667.51855 2.01758 1.38379.52167.82178.76672 1.98779.68805 3.24365-.13635 2.51269-1.53919 5.2334-3.19428 7.76318z" fill="#202020"/></g></svg>