<svg id="Layer_1" enable-background="new 0 0 136 136" height="512" viewBox="0 0 136 136" width="512" xmlns="http://www.w3.org/2000/svg"><g><g><path d="m91.86537 99.80956c-2.70001.08008-5.44.03027-8.02997-.3999-2.79004-.44971-5.40002-1.3501-7.58002-2.98975-2.72998-2.07031-4.37-5.06006-6.85999-7.3501-2.28003-2.1001-5.17999-3.52002-8.17999-4.62988-1.17004-.43018-7.89001-1.51025-5.81006-3.5.47003-.4502 1.18005-.63037 1.85004-.78027.15997-.04004.33002-.07959.48999-.10986 1.45001-.33984 2.89001-.66992 4.33002-1 1.82996-.41016 3.65997-.83008 5.53997-.96973 3.96002-.29004 9.27002.83984 13.60999 2.80957 2.22003 1.02002 4.19 2.25 5.59003 3.63037.33997.33984.63.69971.88 1.06982 2.53998 3.77979.64996 9.02002 4.89996 12.64014.66005.56005.19001 1.5498-.72997 1.57959z" fill="#c2b59b"/></g><g><path d="m120.96541 70.89989c-3.12006 5.54004-8.35004 9.75-14.30005 11.95996-.20996.08008-.40997.1499-.62.22998-4.07996 1.41016-8.47998 1.87988-12.75 1.20996-4.13-.6499-8.06-2.25-12.07001-3.41016-1.85999-.54004-3.72998-.97998-5.64996-1.19971-4.09003-.45996-14.45001 2.94971-17.57.58008-.09003-.07031-.17999-.14014-.26001-.22021-1.08002-1.00977-.84003-2.29004.09003-3.64014.45996-.67969 1.09998-1.36963 1.82996-2.06982.01001 0 .01001 0 .02002-.00977.21997-.21045.46002-.42041.70001-.62012 2.06-1.80029 4.60998-3.47021 6.19-4.57031.01996-.00977.02997-.02979.03998-.04004.51001-.34961.90002-.63965 1.16003-.85986 4.19-3.54004 8.51996-7.16992 13.73999-8.8501.15997-.0498.32001-.09961.47998-.13965 3.09003-.93018 6.27002-1.12012 9.48999-.9502 8.78003.4502 17.88 3.60986 26.48999 2.18018.88-.14014 1.75-.33008 2.62-.58008.56-.16016 1.20001-.34033 1.71002-.05029.46002.27002.65002.84033.76001 1.37012.65997 3.30029-.45002 6.74024-2.09998 9.68018z" fill="#c2b59b"/></g><g><path d="m83.33541 72.88963c3.15471 1.17798 6.24876 2.51089 9.31306 3.90549 2.45419 1.11694 5.72011 2.1523 7.77302 3.93775.2999.26083.58299.59016.61321.98647.04091.53637-.38715.98776-.81844 1.30927-5.14666 3.83662-13.745-.62126-18.9909-2.13898 2.22003 1.02002 4.19 2.25 5.59003 3.63037.33997.33984.63.69971.88 1.06982-1.66998-.75977-3.35004-1.5-5.03003-2.22998-3.07001-1.31982-6.47998-2.70996-9.88995-2.4502-1.32001.1001-2.60004.4502-3.87006.86035 2.59003 1.32959 4.98004 3.0498 7.06006 5.11963 3.62994 3.61035 5.32996 8.30029 7.87 12.52002-2.79004-.44971-5.40002-1.3501-7.58002-2.98975-2.72998-2.07031-4.37-5.06006-6.85999-7.3501-2.28003-2.1001-5.17999-3.52002-8.17999-4.62988-1.17004-.43018-7.89001-1.51025-5.81006-3.5.47003-.4502 1.18005-.63037 1.85004-.78027.15997-.04004.33002-.07959.48999-.10986-1.08002-1.00977-.84003-2.29004.09003-3.64014.39996.80029.58997 1.68994.52997 2.54004.06-.00977.13-.00977.19-.02002-.40997-2.29004.56-4.75977 3.47003-5.46973 3.38995-.83008 6.55999-2.34033 10.08996-2.56006 3.84003-.24022 7.64002.65969 11.22004 1.98976z" fill="#b5a588"/></g><g><path d="m120.96541 70.89989c-1.51653 2.69278-3.54309 5.08397-5.9037 7.07428-1.46476 1.23498-4.23638 3.67561-6.17695 3.98962-1.01167.1637-2.13754-.32301-2.5839-1.24552-.76997-1.59133 1.10976-3.11828 2.27454-3.90871 4.5-3.05957 8.34998-10.20996 9.39996-16.32959.88-.14014 1.75-.33008 2.62-.58008.56-.16016 1.20001-.34033 1.71002-.05029.46002.27002.65002.84033.76001 1.37012.65997 3.30028-.45002 6.74023-2.09998 9.68017z" fill="#d3c7b2"/></g><g><path d="m52.99538 77.04002c-.21997.34961-.65997.46973-1.04999.5498-10.51001 2.12988-21.97003-2.47021-28.44-10.93994-.97998-1.28027-1.85004-2.6499-2.58002-4.1001-1.82001-3.6001-3.15997-7.8999-5.72998-10.77979-.97003-1.09033-2.10999-1.97998-3.52002-2.55029l-.70001-1.06982c1.75-.41016 3.57001-.02002 5.32001.37012 9.45001 2.08984 19.48999 4.50977 26.54999 10.95996.62006.56006 1.23004 1.15967 1.80005 1.79004 3.16998 3.50977 5.31 7.7998 7.23999 12.12988.33997.73975.65997 1.46973.97998 2.20996.20001.45997.39001 1.00977.13 1.43018z" fill="#c2b59b"/></g><g><path d="m55.79537 77.04002-.63 2.15967c.12-.85986.26001-1.70996.42004-2.56006.06994.13037.13995.27002.20996.40039z" fill="#c2b59b"/></g><g><path d="m63.66536 44.18993c0 .00977-.01001.00977 0 .02002-.33997 3.91992-1.19995 7.84961-2.25 11.63965-.75 2.7002-1.59998 5.38037-2.44 8.06006 0 .01025-.00995.03027-.00995.04004 0 .02002-.01001.04004-.02002.06006 0 .02002 0 .03027-.01001.0498-.79999 2.55029-1.58002 5.11035-2.25 7.69043-.15002.58008-.29999 1.1499-.42999 1.72998-.07001.27002-.13.52979-.17999.7998-.17999.77979-.35004 1.56982-.48999 2.35986-.56-1.09961-1.13-2.20996-1.69-3.30957-2.69-5.24023-5.38-10.49023-8.07001-15.74023-.35999-.7002-.72003-1.3999-1.07001-2.1001-3.66998-7.18994-7.22003-14.47998-9.17999-22.2998-1.20001-4.83008-1.76001-10.01025-.12-14.70996 1.42999-4.06006 4.42999-7.54004 5.87-11.52002.42999-1.2002 1.95996-1.53027 2.88-.66016.32001.31006.63995.62012.95996.93018 3.27002 3.17969 6.34003 6.56982 9.17999 10.12988 3.52002 4.41992 6.75 9.22021 8.32001 14.6499.30005 1.02002.53003 2.06006.71002 3.1001.25 1.45996.39001 2.94971.42999 4.43994.05 1.54004.00001 3.08984-.14001 4.64014z" fill="#c2b59b"/></g><g><path d="m105.36537 31.40965c-.72998 8.20019-4.79999 16.20996-11.52002 20.95996-3.79999 2.68018-8.23999 4.25-12.48999 6.17041-.88.3999-1.75.81982-2.60999 1.25977-4.16998 2.1499-7.98999 4.97998-11.23999 8.35986-1.72998 1.79004-3.35999 3.78027-5.55999 4.93994-2.20001 1.17041-5.21002 1.29004-6.94-.50977l2.26001-1.12988c2.20001-9.87988 4.51996-19.72021 6.95996-29.54004.13-.51025.26001-1.02002.39001-1.54004 1.09003-4.2998 2.41998-8.62012 5.15002-12.08984 7.31-9.29004 22.47998-9.95996 29.07996-19.56006.26001-.38037.84003-.3501 1.07001.0498 1.14001 1.97021 2.14001 4.02979 2.95001 6.16016.33002.83984.63 1.68994.89001 2.54981 1.40998 4.5 2.02003 9.22998 1.60999 13.91992z" fill="#c2b59b"/></g><g><path d="m52.86538 75.60985c.20001.45996.39001 1.00977.13 1.43018-.21997.34961-.65997.46973-1.04999.5498-10.51001 2.12988-21.97003-2.47021-28.44-10.93994 1.25-.60986 2.77002-.59033 4.32001.50977 6.34998 4.5 14.87 10.55029 22.95001 6.64014.37-.18018.73999-.31006 1.10999-.3999.33996.73973.65997 1.46971.97998 2.20995z" fill="#b5a588"/></g><g><path d="m55.16536 79.19969c.12-.85986.26001-1.70996.42004-2.56006.06995.13037.13995.27002.20996.40039z" fill="#b5a588"/></g><g><path d="m55.58541 76.63963c-.56-1.09961-1.13-2.20996-1.69-3.30957.81.12988 1.54999.46973 2.17999.94971-.18.77979-.35004 1.56982-.48999 2.35986z" fill="#b5a588"/></g><g><path d="m16.29537 48.52c9.45001 2.08984 19.48999 4.50977 26.54999 10.95996-1.79999 1.48975-4.54999 2-6.83997.11963-4.03003-3.2998-8.72998-5.65967-13.78998-6.88965-2.32001-.57031-4.66003-.78027-7.02002-.93994-.97003-1.09033-2.10999-1.97998-3.52002-2.55029l-.70001-1.06982c1.75-.41016 3.57001-.02002 5.32001.37011z" fill="#d3c7b2"/></g><g><path d="m44.72536 55.24998c.01001.08008.02002.15967.03003.23975-3.66998-7.18994-7.22003-14.47998-9.17999-22.2998-1.20001-4.83008-1.76001-10.01025-.12-14.70996 1.42999-4.06006 4.42999-7.54004 5.87-11.52002.42999-1.2002 1.95996-1.53027 2.88-.66016.32001.31006.63995.62012.95996.93018-4.88 13.27979-2.44995 27.87988 3.56 40.48975 1.73004 3.62987-1.02997 6.97997-4 7.53026z" fill="#d3c7b2"/></g><g><path d="m102.86537 14.93993c-2.72998 1.79981-5.65997 3.25977-8.52002 4.44971-9.72998 4.06006-17.90997 8.01025-21.44 18.72021-1.29999 3.94971-5.82996 4.23975-8.28998 2.27002 1.09003-4.2998 2.41998-8.62012 5.15002-12.08984 7.31-9.29004 22.47998-9.95996 29.07996-19.56006.26001-.38037.84003-.3501 1.07001.0498 1.14001 1.97022 2.14001 4.02979 2.95001 6.16016z" fill="#d3c7b2"/></g><g><path d="m105.36537 31.40965c-.72998 8.20019-4.79999 16.20996-11.52002 20.95996-3.79999 2.68018-8.23999 4.25-12.48999 6.17041-1.73999-2.2002-1.83997-5.49023 1.39001-6.97021 13.16998-6.01025 21.15002-18.26025 20.89001-32.81982-.01001-.4502.02997-.87012.12-1.26025 1.40998 4.49999 2.02003 9.22997 1.60999 13.91991z" fill="#b5a588"/></g><g><path d="m124.99296 62.20214c-.03418-.26904-.0498-.53857-.10388-.80615l-.09772-.54834c-.04352-.20947-.09851-.41602-.16412-.61621-.258-.80176-.74341-1.49219-1.45227-1.89209-.6875-.38721-1.49646-.4541-2.29858-.28955l-1.57813.39014c-1.71728.02225-2.13744 1.93264-17.65393-.29297-3.33679-.48291-6.62665-.94678-9.81146-1.05518-.88495-.0332-1.75842-.02783-2.62213.00146 17.95001-8.15226 22.67343-28.16976 14.40186-45.5542-.15558-.32666-.31219-.65576-.46973-.98633-3.76369-7.29622-5.08858-2.95528-6.94434-1.65723-4.41113 5.91265-17.81181 8.99258-25.13641 15.56201-1.08282.93701-2.02716 2.05518-2.91754 3.19043-.85522 1.17041-1.56989 2.41748-2.17065 3.68799-.33521.70947-.62915 1.42578-.90179 2.14404-.03461-.14453-.05902-.2876-.09692-.43213-.83228-4.11328-2.86603-8.24219-5.50324-12.16846-3.10343-4.61221-7.59806-9.77914-11.71332-13.85498-.40033-.39014-.80322-.78271-1.2085-1.17773l-.60559-.57861-.21539-.20654c-.09863-.09473-.19598-.19141-.30072-.27686-.20544-.17773-.42743-.32813-.66125-.45557-.93451-.51221-2.07312-.59326-3.06213-.22461-.99152.36426-1.8147 1.16748-2.18762 2.21436l-.1889.49463c-.03918.10986-.08435.22021-.13293.33008-.09735.22021-.18054.44092-.28955.66211-1.52591 3.32893-3.9395 6.42178-5.20648 10.28662-3.65307 11.2984 3.88684 26.38635 9.46185 36.87744.78674 1.46191 1.54712 2.8667 2.28485 4.22314-.5769-.58789-1.16156-1.15234-1.75574-1.6626-1.79254-1.53711-3.61194-2.78613-5.38959-3.76807-8.32807-4.63673-21.78656-7.06502-24.86902-6.88867-.83936.04443-1.42084.19629-1.79547.36182-.74915.34277-.71484.65088-.65656.91309.06201.28467.18658.49902.83344.6626.66644.16895 1.75378.34717 4.21429 1.12207 5.84749 1.81187 13.39958 3.32157 20.29413 7.29346 3.13776 1.84082 6.40613 4.35986 9.0329 8.24023 2.65821 3.83077 4.74793 8.89438 5.39752 10.23682l.00745.00879.01636.02246c.01123.01563.01819.04004.00708.05762-.01105.01611-.03003.02393-.05121.03271l-.02667.00684-.15338.02734-.62854.10791c-.83899.15479-1.70825.15869-2.57367.25293-21.2176.72211-27.34322-18.73741-29.57218-22.14306-1.30225-2.09131-2.85754-3.50879-4.06244-4.19727-1.22729-.67969-2.00513-.76563-2.0415-.66357-.06647.15625.59375.50391 1.56494 1.33154.95685.84717 2.15009 2.25098 3.16565 4.32129 1.24926 2.40886 7.09947 25.27691 31.04004 25.10205.99945-.07178 2.00031-.06152 2.97839-.21143.63855-.09521 1.27393-.18994 1.90576-.28467.48413-.09033.91248-.24268 1.28815-.45313-.1972.28125-.41705.62891-.66577 1.06055-5.32907 9.5333-13.27419 31.55819-14.1073 47.99023-.0791 2.48389.02441 4.02295.29852 4.05029.28522.0293.71466-1.44971 1.27124-3.8291 6.86825-27.02563 11.49557-34.71534 14.83636-45.79443.53345.36328 1.91132.95996 3.80389 1.81787 1.25366.57715 2.73779 1.26904 4.29431 2.1499 1.55225.87891 3.19782 1.94043 4.62482 3.27441 1.42505 1.30322 2.61639 3.05566 4.06964 4.89258.72485.91406 1.5376 1.8418 2.48132 2.68652.94958.84814 2.01825 1.56885 3.11871 2.13184 2.20715 1.15039 4.50958 1.71631 6.60754 2.04102 1.05096.14795 2.06226.25537 3.01453.30615.47791.03369.93793.04102 1.38745.06055.22314.00342.44287.00684.659.00977.35901.00635.80817.00781 1.19135-.00586.36188-.00879.72095-.01807 1.07733-.02686l.53235-.01367c.18732.00439.2644-.08008.40125-.11572.24524-.09375.48853-.18701.72992-.2793.24786-.0918.49268-.17334.63055-.32373.3363-.27783.6637-.70557.85144-1.18701.19501-.47949.22705-1.00781.18451-1.32324-.02307-.17041-.07465-.35352-.11035-.52734-.05804-.18799-.19531-.42871-.2879-.6377-.3269-.45459-.79675-.92236-1.26123-1.35547-.23596-.2207-.38074-.42773-.57306-.63965l-.13147-.15332-.0542-.07227-.10834-.14404c-.63299-.8611-1.13291-1.84357-1.39734-2.89648-.38949-1.42239-.2001-3.32343-.98639-5.17432-.26654-.61279-.60284-1.12988-.95703-1.56689 1.00134.27441 2.02954.5332 3.11957.73584.86798.18066 1.78821.25293 2.70807.36572.92346.07031 1.86713.10254 2.82025.09375 13.60979-.18514 25.5994-10.74036 27.20013-21.23975.15651-1.03172.20674-2.10399.10286-3.18065zm-59.63562-16.99658-.00562.00928-.01147.01904c.00287-.00488.01147-.01953.01685-.02832zm.97247-5.37061c1.3457-4.88818 3.20667-9.69092 7.03149-12.79297 7.01482-6.06066 16.90657-7.0541 25.04816-14.71045l.60107-.60547.11499-.13867c.02533-.03711.0481.0127.0462.0332l.35675.70703c10.35078 22.18665 2.8315 33.85748-19.22797 44.84277-2.9765 1.42627-5.26788 2.90576-6.98657 4.19873-3.43878 2.62646-4.84436 4.41064-5.51062 5.36523-.51093.77783-.52429 1.09424-.40967 1.28906-.18878-.01953-.46912.03369-.93176.21582-.92548.39014-2.6709 1.18701-5.79761 3.3623-.72919.52344-1.53381 1.13574-2.39022 1.91992-.11393-.08984-.18736-.21777-.27402-.38672-.0379-.16113-.06317-.34668-.07739-.54492 2.4394-7.52605 3.64613-11.00357 5.37885-16.57813.93622-3.28955 1.89026-7.11279 2.32795-11.63135l.27454-2.83447-.04236.05029c.15612-.58737.30877-1.17184.46819-1.7612zm-29.23633-20.59765c1.13286-3.23472 3.633-6.42224 5.25934-9.81104.12897-.25244.24005-.52441.35968-.78516.05988-.13086.11707-.26416.16956-.40137l.09692-.24121c.02539-.06445.10913-.07471.14612-.03516.62195.62061 1.23724 1.23438 1.84467 1.84033 4.7657 4.84893 8.79116 9.87801 11.1217 13.34668 5.12549 7.27734 6.19537 14.60547 5.61035 20.86182l-.01154.12354c-.25952 2.89355-.7254 5.52832-1.26941 7.94873-.05029.22559-.10095.45361-.15118.67822-1.14578 4.88358-4.05834 14.1705-5.12067 19.43848-.14484.75732-.25452 1.42432-.34033 2.02295-2.06918-4.8531-7.06381-15.19417-9.53302-20.3252-4.49969-9.44376-11.67621-24.75546-8.18219-34.66161zm52.31031 78.55175c-.00037.00781-.00543.01221-.00543.01221-.01068.00488-.01678-.00195-.01678-.00195-.80547-.00634-.39556.00346-1.90698-.0459-.86554-.03223-1.76056-.10938-2.68134-.2124-1.82916-.23096-3.74438-.6416-5.49005-1.45313-1.7757-.77734-3.23505-2.01611-4.68842-3.64111-1.44513-1.58838-2.9173-3.46191-4.77563-4.89795-1.82581-1.42529-3.73724-2.38721-5.49426-3.12842-1.76117-.73877-3.38819-1.23584-4.76209-1.59717-2.06451-.53027-3.56409-.75244-4.21576-.72168.20816-.72191.35438-1.33046.44214-1.76416.18671.33008.41443.63135.65332.88086.41412.44238.96704.75781 1.53046 1.05664.51575.17822 1.09027.39844 1.58716.45605 2.06976.35645 4.02618.18311 6.10065-.04395 2.06323-.23242 4.24689-.61279 6.49915-.88721 1.10779-.13525 2.31061-.24658 3.19446-.14941 1.15747.14307 2.36218.38184 3.61725.70068.98383.24658 2.00684.55713 3.0567.88965-.01062.15918.02838.33398.18549.55078.26587.3916.93549.88281 2.06433 1.71973.54974.42041 1.22064.94531 1.75024 1.63232.54437.72559.78973 1.33838.8537 2.91455.04681.76563.03461 1.78174.29181 2.97656.24127 1.16064.69574 2.35645 1.37952 3.51318.16895.29053.35638.57617.55585.85938.08994.12502.18143.25246.27451.38185zm8.21228-15.23828c-3.26221.08105-6.25696-.61768-9.1767-1.5083-4.13882-1.2599-8.18119-2.82542-12.62439-3.31152-1.65118-.13818-2.89966.05762-4.12708.21094-4.19911.58652-8.76308 1.65311-11.4925 1.26123-.35785-.02197-.55902-.1333-.82495-.18164-.14343-.10449-.31757-.13672-.44586-.26709-.09631-.10547-.14282-.13135-.15326-.18799-.03168-.04785-.03937-.09961-.01819-.24902.04773-.2998.27917-.77002.5741-1.19336.2934-.43115.64496-.84814 1.00458-1.23389.71625-.77539 1.45129-1.44287 2.11847-2.02979 2.71637-2.32666 4.26062-3.52588 4.92957-4.32861.61597-.7085.59387-1.01514.4527-1.21729.20795.01025.52179-.09424 1.0799-.44727.97516-.5791 2.6109-1.96094 6.0304-4.12305 1.49237-.92627 3.31488-1.95801 5.64471-3.01172.87018-.30615 1.77289-.58008 2.74023-.76514 5.81931-1.23845 11.98734-.06982 17.85773.99951 5.35231.96458 12.04901 2.12886 17.48492 1.11182.10038-.02161 2.57586-.5544 2.4184-.52051.06439-.01025.13306-.0127.18671.02441.0553.03857.0766.10791.08606.16846l.00531.04639c.00061.01416-.00299.00732.01727.1333.03595.18506.03711.37744.05914.56543.57764 7.86563-9.90351 19.87891-23.82727 20.0547z" fill="#202020"/></g></g></svg>