<svg id="Layer_1" enable-background="new 0 0 136 136" height="512" viewBox="0 0 136 136" width="512" xmlns="http://www.w3.org/2000/svg"><g><g><path d="m56.51822 80.12219c-.07001.72998-.42999 1.45996-.79004 2.16016-1.70996 3.33008-3.41998 6.66992-5.13995 10-1.52002 2.95996-3.16003 6.04004-5.98004 8.16992-6.58997 4.96997-13.89996 6.8999-19.13 13.69995-1.79999 2.33008-3.23999 4.92017-4.78998 7.40991-1.76001 2.84009-3.67999 5.56006-6.44 7.67017-2.44 1.86011-6.15002 3.04004-8.22003 1.36011-2.15997-1.75-1.06-5.21021.21002-7.93018 1.57001-3.36987 3.20001-6.71997 4.89001-10.06006 4.5-8.8999 9.40997-17.66992 14.71002-26.27979 2.87994-4.69019 4.45996-9.01025 9.94995-10.9502.28003-.09985.56-.18994.86005-.27979 6.20996-1.80005 12.64996-1.76025 17.50995 1.42993.52002.34009 1.03003.73999 1.43005 1.19995.60998.67995 1.00995 1.48.92999 2.39992z" fill="#8dc63f"/></g><g><path d="m56.51822 80.12219c-.07001.72998-.42999 1.45996-.79004 2.16016-1.70996 3.33008-3.41998 6.66992-5.13995 10-1.52002 2.95996-3.16003 6.04004-5.98004 8.16992-6.58997 4.96997-13.89996 6.8999-19.13 13.69995-1.79999 2.33008-3.23999 4.92017-4.78998 7.40991-.07001-.15991-.12-.33984-.16003-.51978-2.51996-10.44019 4.51001-14.73999 12.04004-20.13013 8.16998-5.85986 9.03998-16.63989 16.77997-22.88989 2.05005-1.65015 4.47003-1.42993 6.24005-.30005.60997.67994 1.00994 1.47999.92998 2.39991z" fill="#7aaf27"/></g><g><path d="m130.83823 34.93225c-.70001 1.43018-1.43005 2.84009-2.20001 4.23999v.01001c-1.14001 2.1001-2.37 4.16016-3.71002 6.14014-1.88 2.79004-3.98999 5.42993-6.39001 7.83984-6.23999 6.25-14.72998 10.87012-24.06 11.16992l-1.32001.82007c6.92004 6.15015 12.98004 13.40991 17.96002 21.46021l.01001.00977c.01001.01001.01001.01001.01001.02002 1.19 1.91992 2.32001 3.88013 3.38995 5.88013.27002.52002.54004 1.03003.81006 1.55981 1.91998 3.75 3.60999 7.64014 5.06995 11.64014.02002.05005.03003.1001.04004.1499 0 .01001 0 .02002.01001.04004.13.41992.14996.84009.06995 1.23999v.01001c.01001.01001.01001.01001 0 .02002-.25 1.31006-1.40997 2.33008-2.76996 2.08008-5.5-1.01001-10.96002-2.38013-16.10004-4.58008-1.63-.69995-3.21997-1.46997-4.77997-2.33984-7.70001-4.32007-14.44-11.25-17.25-20.15015l-1.48999 1.29004c-.83002 1.90991-1.72003 3.80005-2.67999 5.66992-5.92004 11.51001-14.30005 21.97998-24.48004 30.6001-.92999.80005-1.87 1.57007-2.82001 2.32007-1.56995 1.23975-3.94.45996-4.19-1.40015-.34998-2.55005-.62994-5.11987-.77997-7.69995-.28003-4.77002-.10999-9.56006.81-14.30005 1.51001-7.78003 5.27002-15.48999 11.51001-20.91992.70001-.63013 1.44-1.21997 2.20996-1.77002l-3-1.20996c-.83997-.11011-1.67999-.23999-2.51996-.37012-9.98004-1.59009-19.72003-4.69995-28.79004-9.16992h-.00995c-3.96002-1.93994-7.79004-4.13989-11.46002-6.57007-1.29999-.86987-2.59003-1.77002-3.84998-2.69995-1.62006-1.18994-1.32001-3.71997.56-4.47998 7.36999-2.94995 14.98999-5.34009 22.87994-5.92993 6.12006-.45996 12.45001.23999 18.15002 2.43994 2.52002.95996 4.91998 2.21997 7.12 3.81006-.27002-1.32007-.51001-2.63013-.70996-3.95996 0 0 0 0 0-.01025-2.23004-13.86987-1.39001-28.48974 2.43994-42.5.53003-1.92993 2.90002-2.69995 4.21002-1.35986.32001.33008.64001.65991.96002 1 4.75 4.98999 9.07996 10.42993 12.07001 16.71997.14996.32007.29999.61011.44995.93994v.01001c-.00995.01001-.00995.01001 0 .02002 3.46002 7.76001 4.72003 16.91015 1.99005 25.43994l3.51996-1.38989c.47003-.30005.94-.59985 1.41003-.88989 1.51001-.93018 3.06-1.83008 4.63-2.67017 12.20996-6.60986 26.07996-10.63989 40.37-11.72998 2-.14992 3.52997 1.83006 2.70002 3.50999z" fill="#27aae1"/></g><g><path d="m56.08823 47.84241s0 0 0-.01025c-2.23004-13.86987-1.39001-28.48974 2.43994-42.5.53003-1.92993 2.90002-2.69995 4.21002-1.35986.32001.33008.64001.65991.96002 1 .14996.6499.19 1.35986.06 2.12012-1.01001 6.17993-1.40002 12.41992-1.62 18.66992-.20001 5.62988-.61005 11.48999 2.27997 16.5498 3.09003 5.43017-4.92999 10.32006-8.32995 5.53027z" fill="#5ac7ed"/></g><g><path d="m49.67819 47.99231c-.16998 2.8501-2.59998 5.77002-6.23999 4.98999-9.51001-2.03003-23.39001-.63013-31.5 5.67993-1.29999-.86987-2.59003-1.77002-3.84998-2.69995-1.62006-1.18994-1.32001-3.71997.56-4.47998 7.36999-2.94995 14.98999-5.34009 22.87994-5.92993 6.12006-.45996 12.45002.23999 18.15003 2.43994z" fill="#5ac7ed"/></g><g><path d="m130.83823 34.93225c-.70001 1.43018-1.43005 2.84009-2.20001 4.23999-4.54004-1.3999-9.15002-2.09009-14.26001-1.54004-6.92999.75-15.28003 2-21.27002 5.76001-2 1.26001-3.95001.89014-5.33997-.23999 12.20996-6.60986 26.07996-10.63989 40.37-11.72998 1.99999-.1499 3.52996 1.83008 2.70001 3.51001z" fill="#5ac7ed"/></g><g><path d="m55.41818 84.42224c-5.42999 6.15015-7.62 14.3501-5.95996 22.38989.87 4.19019-3.12 6.77002-6.27002 6.16016-.28003-4.77002-.10999-9.56006.81-14.30005 1.51001-7.78003 5.27002-15.48999 11.51001-20.91992 1.44 1.80005 1.84997 4.46997-.09003 6.66992z" fill="#5ac7ed"/></g><g><path d="m83.13821 45.82239c-1.09003 2.65991-2.65002 5.11987-4.90002 7.27979-4.64996 4.45996-11.71997-2.60986-7.07001-7.06982 6.09003-5.8501 4.5-15.82007 5.03003-23.25 0-.04004.01001-.08008.01996-.12012 3.46002 7.76001 4.72003 16.91015 1.99005 25.43994l3.51996-1.38989c.47003-.30006.94-.59986 1.41003-.8899z" fill="#0d9cce"/></g><g><path d="m119.76123 106.06239c.4354 2.06433.13031 3.59171-2.00302 3.19994-5.5-1.01001-10.96002-2.38013-16.10004-4.58008 1.65002-11.03003-.54999-22.22998-6.5-32.02002-.42999-.69995-.65997-1.38989-.73999-2.0498-.42999.11987-.91998.18994-1.44.18994-5.45001 0-6.28998-7.14014-2.52997-9.3501.73999-.6001 1.69-1.01001 2.83997-1.1001 9.61005-.77979 17.91003-8.97998 24.45001-15.3999 2.39001-2.3501 5.45001-1.57007 7.19.37012-1.88 2.79004-3.98999 5.42993-6.39001 7.83984-6.23999 6.25-14.72998 10.87012-24.06 11.16992 0 0-1.31997.82005-1.32001.82007.68234-.42419 7.78738 7.78133 8.52789 8.63364 2.83265 3.26029 5.53888 6.7117 7.85672 10.36079 2.76663 4.35565 4.9842 9.03664 6.98013 13.78706.45213 1.07606 2.61182 5.15826 3.23832 8.12868z" fill="#0d9cce"/></g><g><path d="m75.45822 89.15222c-5.92004 11.51001-14.30005 21.97998-24.48004 30.6001-.03998-.82007.13-1.69019.58002-2.58008 4.81-9.51001 13.35999-16.37988 18.15002-25.87988 1.28998-2.56006 3.70996-2.96997 5.75-2.14014z" fill="#0d9cce"/></g><g><path d="m52.19821 74.40222c-9.98004-1.59009-19.72003-4.69995-28.79004-9.16992.93005-.45996 2.07001-.61011 3.36005-.29004 7.26996 1.82007 14.56 3.58008 21.85999 5.26001 2.40997.55005 3.49999 2.32007 3.57 4.19995z" fill="#0d9cce"/></g><g><path d="m34.78818 80.68225c-8.45996 8.72998-9.72998 21.95996-18.07001 30.96997-1.73999 1.88013-3.88995 1.90015-5.58996.94995 4.5-8.8999 9.40997-17.66992 14.71002-26.27979 2.87994-4.69019 4.45996-9.01025 9.94995-10.9502.73004 1.64015.61999 3.64015-1 5.31007z" fill="#a3d357"/></g><g><path d="m95.15817 65.28235c.14001 2.47998-1.32996 4.96997-3.56995 6.04004-1.89001.8999-4.07001.81982-6.14001 1.11987-2.07001.31006-4.32001 1.25-5.01001 3.22998-.46002 1.29004-.13 2.69995-.08002 4.07007.09003 2.43994-.83997 5-2.76996 6.51001-1.36005 1.05981-3.22003 1.47998-4.88 1.09985-.70001-.15991-1.36005-.45996-1.93005-.90991-1.83997-1.48999-2.31-4.04004-3.00995-6.30005-.70001-2.26001-2.16003-4.71997-4.52002-4.8999-2.19-.16016-3.90997 1.69995-5.95001 2.54004-.10999.0498-.22998.08984-.34998.12988-3.16003 1.07007-6.98999-1.3501-7.38-4.65991-.60999-5.17017 5.83002-9.44019 4.65997-14.51001-.45996-1.95996-2-3.51001-2.60999-5.43018-1.17999-3.75 2.34003-8.12988 6.25-7.78979l-1.56-.29004c2.64001-1.11011 5.79999-.88013 8.25.59009.48999.2998.95001.63989 1.41998.96997.72003.51001 1.44 1 2.27002 1.26978 2.67999.86011 5.41998-.7998 7.92999-2.05981 2.5-1.27002 5.94-2.03003 7.79999.07007 2.79999 3.15991-1.04999 9.25 2.16003 11.98975 1.29999 1.11011 3.20001 1.05029 4.81 1.61011.20996.07007.40997.15991.60999.26001 2.03004.97996 3.47999 3.10008 3.59998 5.35008z" fill="#f9ed32"/></g><g><path d="m65.97818 46.79236c-.65997.30981-1.45001.45996-2.38995.38989-5.60004-.42993-2.86005 12.37988-3.26001 15.91016-.29004 2.59985-.98999 5.1499-2.44 7.35986-1.65002 2.52002-4.60004 4.26001-1.26001 6.75.25.17993.46997.37988.66998.58008-.10999.0498-.22998.08984-.34998.12988-3.16003 1.07007-6.98999-1.3501-7.38-4.65991-.60999-5.17017 5.83002-9.44019 4.65997-14.51001-.45996-1.95996-2-3.51001-2.60999-5.43018-1.17999-3.75 2.34003-8.12988 6.25-7.78979l-1.56-.29004c2.64001-1.11011 5.79999-.88013 8.25.59009.49.2998.95002.63989 1.41999.96997z" fill="#fcf18b"/></g><g><path d="m95.15817 65.28235c.14001 2.47998-1.32996 4.96997-3.56995 6.04004-1.89001.8999-4.07001.81982-6.14001 1.11987-2.07001.31006-4.32001 1.25-5.01001 3.22998-.46002 1.29004-.13 2.69995-.08002 4.07007.09003 2.43994-.83997 5-2.76996 6.51001-1.36005 1.05981-3.22003 1.47998-4.88 1.09985 1.25-5.46997.87-11.54004 4.69-15.98975 1.73999-2.02002 3.97998-3.56006 6.37994-4.71021 1.46002-.69995 7.53003-1.94995 7.28003-3.91992-.14001-1.13989.07001-2.07007.5-2.80005 2.03004.97999 3.47999 3.10011 3.59998 5.35011z" fill="#f4df19"/></g><path d="m129.51482 29.63587c-.3537-.09424-.72394-.1333-1.08691-.13696-.16254.00195-.40863.00562-.50214.01855l-.33069.03442c-.88263.09277-1.77393.18652-2.67194.28076-11.15719 1.3465-21.18331 4.39923-30.26825 8.69482-2.70203 1.33008-5.09491 2.59912-7.02368 3.80347-1.10443.67505-2.05231 1.29517-2.86554 1.85352-.00043-.00049-.00085-.00073-.00128-.00122-.26001-.21997-.52997-.3999-.82001-.5498-.67999-.37012-1.35999-.57007-2.01001-.67017 2.3019-14.32841-5.4735-27.6324-15.56-38.11987-.27997-.29004-.57001-.59009-.85999-.88013l-.44-.44995c-.27002-.27002-.57001-.51001-.91998-.70996-1.41003-.80005-3.12-.65015-4.35004.08008-.62994.35986-1.16998.85986-1.57996 1.47998-.20001.2998-.35999.62988-.48999.96973-.05005.16016-.13.39014-.15002.48022l-.08001.32984c-.20996.86011-.41998 1.72998-.63 2.61011-2.46613 10.85119-3.00111 21.31835-1.98999 31.42993.22003 1.8999.45001 3.68018.72003 5.30005-.23999.06006-.5.15015-.78003.26001-.85999.37012-1.82001 1.03003-2.64996 2.05005-12.70313-6.02359-27.81204-3.28586-40.93005 1.82007-.78998.30981-1.58997.62988-2.39996.95996-1.39001.52979-2.54004 1.92993-2.76001 3.44995-.28003 1.5.32001 3.20996 1.54999 4.19995l.23004.18994.14996.1001.28003.19995.57996.40015 1.16003.7998c6.22998 4.22021 13.33002 7.89014 20.12 10.4502 3.39001 1.27979 6.69 2.2998 9.71997 3.10986.11005.03003.21002.05005.32001.08008.00342.00098.00659.00146.01001.00244-1.45636.1792-3.37158.66089-5.4632 1.72095-2.45215 1.21265-5.11859 3.22095-7.48578 5.95386-2.38324 2.71606-4.47705 6.07568-6.43884 9.62012-.05656.10303-16.82236 30.66399-17.51611 33.19116-1.59518 6.23937 2.99456 10.53675 7.19952 9.55102 1.95337-.47192 3.20917-1.44556 4.31982-2.2478 7.44605-5.68434 8.37985-11.89923 13.37177-17.51781 2.9136-3.3169 6.27288-5.82491 9.92126-8.26465 1.50446-1.0293 2.48059-1.59863 3.16174-1.95117-.00006.00073-.00012.00122-.00018.00195-.19 2.0498-.27002 4.23975-.22998 6.5498.04844 2.58704.59572 10.31705 1.27997 11.90015.66003 1.47998 2.13 2.36987 3.54004 2.51978.71997.08008 1.45996 0 2.14996-.25977 2.4786-.85055 12.68464-10.73551 18.53998-18.67017 2.07001-2.80005 3.88-5.57983 5.42004-8.15991 1.5-2.62012 2.77997-5.01001 3.70996-7.08008.23004-.5.44-.96997.64001-1.42993.37-.11011.72998-.25 1.08002-.41992.98999-.46997 1.83002-1.15015 2.51001-1.92993.0025-.00269.00433-.00586.00684-.00879.11127.30103.23328.61646.37616.95874 1.02576 2.34937 2.86493 5.823 6.85712 9.86426 10.86391 10.95307 29.69653 13.98019 31.4079 13.8042 1.61786-.15942 2.92078-1.27051 3.50476-2.57178.3042-.65723.45544-1.38745.43201-2.12061-.03253-2.43864-5.8681-14.91121-11.91949-23.45581-2.01062-2.84351-4.0799-5.43628-6.05347-7.70898-2.01007-2.24268-3.87817-4.2041-5.55835-5.73608-.75311-.69995-1.44525-1.31226-2.0813-1.8562.22803-.81641.33765-1.65283.29779-2.48901v-.00317c.69818.01099 1.56476-.02783 2.66541-.16284 2.539-.35327 6.38037-1.18652 11.34924-3.93945 9.38254-5.22212 15.81969-14.11941 20.59937-23.73828.17975-.36523.36115-.73413.54407-1.1062l.27277-.56177c1.24591-2.74407-.51964-5.53073-3.10043-6.16581zm-69.00043-20.00244c.22998-.84009.46002-1.67017.67999-2.5l.09003-.31006c.02997-.12012.02997-.08008.04999-.14014.03003-.06006.04999-.11987.09998-.16992.07001-.1001.17004-.18994.29004-.25.23999-.12012.42999-.08008.46997-.04004.01001.01001.02002.04004.04999.05005l.41003.43994c.27997.29004.54999.58008.82001.86987 2.14001 2.30029 4.01001 4.52002 5.53998 6.51025 6.73357 8.7775 10.39167 17.9957 9.87 29-.91998.17993-1.75.46997-2.51996.7998-1.02002.4502-1.79004.91016-2.53003 1.29004-1.46997.78003-2.73999 1.33008-3.77002 1.41016-1.03998.09985-1.76001-.16016-2.67999-.74023-.88-.5498-1.87-1.27002-2.89996-1.69995-2.01001-.84985-3.68005-.87988-4.88-.75-1.03003.11011-1.73999.36011-2.23999.59009-.80432-11.55687.25761-23.07462 3.14994-34.35986zm-29.27002 58.05981c-6.45996-2.82007-13.17999-6.62988-19.06995-10.86011l-1.09003-.7998-.54999-.3999-.27002-.19019-.12-.09985-.03998-.03003c-.17999-.17017-.23004-.39014-.19-.63013.07001-.23999.16998-.35986.39996-.44995 13.25903-5.03565 26.70444-8.54771 40.45001-3.47998-.14001.67993-.16998 1.42993-.03998 2.20996.61752 3.7243 4.44668 5.29557 1.47998 10.47998-.98999 1.88989-2.52002 3.76001-3.48999 6.37012-.41003 1.12988-.63 2.42993-.46002 3.78979-4.48997-1.19994-10.57994-3.03979-17.00999-5.90991zm11.02002 29.55005c-.31 1.3501-.57001 2.78003-.76001 4.29004-.00031.00195-.00043.00439-.00073.00635-.4054-.00659-.89868.03687-1.49493.18555-.9314.22656-2.008.69312-3.32697 1.33838-4.11878 2.0506-8.08015 4.84628-11.27997 8.25415-5.53939 5.85933-6.32021 11.67866-13.01758 16.77001-4.46705 3.3851-5.99172.1862-5.21985-3.05151.68547-2.69579-.49492 1.1823 16.19946-32.84229 1.76849-3.57227 3.5882-6.84912 5.64978-9.51636 2.04199-2.67456 4.33819-4.68262 6.50036-6.01685 2.15369-1.35498 4.13538-2.0166 5.52924-2.36353.45447-.11157.84027-.19482 1.164-.26392h.0072c2.13.5 4.07001.88989 5.78998 1.13989.25.04004.48999.08008.73004.11011.48999 1.1499 1.31 2.12988 2.29999 2.86987.35999.27002.75.51001 1.15997.71021-1.84998 1.75-4.27997 4.5-6.60999 9.03979-1.28001 2.53006-2.46995 5.62014-3.31999 9.34011zm3.66998 23.22998c0-.02002 0-.04004-.00995-.07007l-.07001-.59985c-.39395-3.14967-.67601-6.49486-.73999-9.72021-.09003-4.58984.31995-8.57983 1.03998-11.97998.72998-3.3999 1.73999-6.23975 2.81-8.56982 2.16998-4.66992 4.39001-7.39014 5.89001-9.20996.19995-.22998.38995-.4502.57001-.66016h.20996c1.73855-.04095 2.99404-.75063 4.46002-1.61987 1.15997-.69995 2.16998-1.23999 2.89996-1.17017.72003 0 1.41003.49023 2.03003 1.37012.29999.43994.56.94995.77002 1.48999.9698 2.38091 1.34534 8.13186 6.38995 9.38013.77002.18994 1.54004.25977 2.30005.21973-10.01851 16.74139-28.0603 33.5888-28.55004 31.14012zm29.82001-35.28003c-.82001.42017-1.83997.56006-2.69.36011-2.7621-.64299-2.91463-4.42619-4.09998-7.13013-.31-.72998-.70001-1.44995-1.19-2.12988-.5-.67993-1.12-1.34009-1.92999-1.86011-.79999-.53003-1.83002-.83008-2.82001-.83008-1 0-1.91998.30005-2.65002.65015-.73999.34985-1.35999.76001-1.92999 1.11987-1.94303 1.25045-3.58814 1.93595-5.71997.4502-.04004-.03003-.08002-.05005-.10999-.08008-1.72435-1.25137-2.08692-3.0883-1.44-5.10986.63995-2.06006 2.03998-4.02002 3.06-6.16016 3.20791-6.60184-1.24613-8.75116-1.96002-11.83008-.10999-.45996-.15002-.90991-.10999-1.35986.04999-.93018.37-1.82007.78998-2.54004.09003-.1499.17999-.29004.28003-.41992.59998-.84009 1.29999-1.4502 1.95996-1.8501.19-.10986.37-.20996.54004-.29004.76996-.3501 1.38-.45996 1.75-.53003.01996 0 .03998-.01001.06-.01001h.01996c6.86598 0 6.61157 2.66199 10.05005 3.92017.81.30005 1.73999.44995 2.65997.3999 2.98004-.12722 5.73504-1.99352 7.5-2.67993 2.14317-.87394 4.61307-1.18807 5.25 1.16992.15997.77002.08002 1.87988-.03998 3.14014-.77517 10.93541 4.83774 8.47278 7.94995 10.2998.92004.52002 1.70001 1.5 2.03003 2.59009.33002 1.07007.16998 2.28003-.48999 3.36987-2.24538 3.61819-6.83961 1.24069-11.29999 4-.68005.44019-1.37006 1.02002-1.91003 1.80005-.53998.76001-.89001 1.73999-.97998 2.62012-.17999 1.77002.19 3.05005.13 4-.02003 2.03003-1.04005 4.12989-2.66004 4.91992zm32.42792-.49414c6.9156 10.96956 10.19198 21.12553 10.40045 21.61328.04364.11523.02002.09253.03949.14307.01385.06665.02686.13135.01953.19604-.03556 2.5701-20.63041-4.19133-28.88055-11.90332-3.75372-3.52173-5.64575-6.48706-6.89954-8.47534-.57123-.94165-.99597-1.67993-1.33673-2.26099.47949-1.16943.71942-2.38916.76947-3.60864.04999-1.63989-.23004-2.88989-.10004-3.63989.06-.37012.15002-.59009.33002-.84009.15997-.23999.42999-.47998.77002-.67993.69-.42993 1.62-.69995 2.57996-.83008 2.06023-.27981 4.85455-.17475 7.24005-1.60986 1.21997-.72998 2.15997-1.72998 2.82996-2.82007.17004-.27002.32001-.55005.46002-.84985.00006 0 .00012-.00024.00018-.00049 2.99505 3.39209 7.58368 8.77515 11.77771 15.56616zm20.60614-50.10083c-.18323.35645-.36493.70996-.54498 1.06006-6.82157 13.16421-14.77641 22.44312-28.9632 26.66626-1.05548.29419-1.87775.50317-2.52777.67407-.69055-1.9978-2.05951-3.61597-3.7981-4.61523-4.27243-2.53555-6.66551.83583-6.03998-6.44019.08997-1.30981.23999-2.70996-.08002-4.29004-.19-.8999-.60999-1.82983-1.21002-2.59985-.00098-.00122-.00214-.0022-.00311-.00342 13.04276-6.34497 25.1778-10.15793 39.69604-11.48535.86804-.06714 1.72961-.13354 2.58282-.19946l.31934-.02515c1.48429-.12983.56022 1.15805.56898 1.2583z" fill="#202020"/></g></svg>