<svg id="Layer_1" enable-background="new 0 0 136 136" height="512" viewBox="0 0 136 136" width="512" xmlns="http://www.w3.org/2000/svg"><g><g><path d="m118.16016 109.01574c-2.15314 5.59275-6.28328 10.3315-11.43124 13.10751-2.56418 1.37262-5.34365 2.27776-8.1623 2.90809-2.22166.50844-4.51178.84408-6.79216.91533h-.02939c-2.64243.10154-5.28493-.16286-7.81979-.92551-4.38454-1.32172-8.22102-4.0471-12.22392-6.32486-1.18424-.67104-2.40762-1.31155-3.67011-1.86069-2.99481-1.32198-6.15599-2.12534-9.34655-1.69833-8.29934 1.10847-14.03455 10.12817-22.31429 11.36847-2.11402.32547-4.2867.10179-6.37133-.39646-2.74034-.65069-5.51007-1.89148-7.16407-4.25043-.72423-1.0474-1.15486-2.21694-1.34081-3.4473-.52854-3.55903 1.02762-7.57559 3.62119-10.15846 3.24928-3.24374 7.4772-4.56571 11.63667-6.00958 4.10074-1.42351 7.82957-4.16924 11.73463-6.23325 8.40697-4.45399 17.63609-7.99266 27.21757-7.24019 4.75645.36593 9.39547 1.78969 14.15192 2.25741 7.34023.72193 14.68046-.8339 22.02068-1.46423 4.47266-.38654 6.73344 1.94212 7.64362 5.2571 1.2136 4.34202.10772 10.37195-1.36032 14.19538z" fill="#39b54a"/></g><g><path d="m118.16016 109.01574c-2.15314 5.59275-6.28328 10.3315-11.43124 13.10751-2.56418 1.37262-5.34365 2.27776-8.1623 2.90809-2.22166.50844-4.51178.84408-6.79216.91533h-.02939c-4.5705-.51861-9.08228-2.11516-13.59406-4.4031-3.10251-1.57619-6.55728-3.65038-10.11975-4.70796-2.99481-1.32198-6.15599-2.12534-9.34655-1.69833-8.29934 1.10847-14.03455 10.12817-22.31429 11.36847-2.11402.32547-4.2867.10179-6.37133-.39646-2.74034-.65069-5.51007-1.89148-7.16407-4.25043-.72423-1.0474-1.15486-2.21694-1.34081-3.4473 1.2527-.65069 2.78926-.77258 4.37475.03053 9.07254 4.55553 17.58722-2.3083 24.64359-7.54505 7.35003-5.4505 15.26771-5.89786 23.59643-2.50145 8.30913 3.39642 15.91363 9.79228 25.2993 6.97556 8.52447-2.5727 13.92684-10.15846 17.56763-18.12059.61658-1.35226 1.53656-2.12508 2.54459-2.4302 1.21358 4.34202.1077 10.37195-1.36034 14.19538z" fill="#2ca838"/></g><g><path d="m52.63637 99.7726-1.21357.39647c.23488-.16261.46976-.33564.71443-.48808.15657-.02036.31319-.05089.45996-.09135.00979.06082.01959.12189.03918.18296z" fill="#2bb673"/></g><g><path d="m131.54872 71.81902c-1.53656 10.75826-10.85378 19.14738-21.14969 22.30994-6.10706 1.8813-12.49792 2.22688-18.88884 1.72862-2.16289-.16261-4.31603-.41682-6.46918-.74229-.06851-.35575-.10764-.72193-.10764-1.07793l1.23317.02036c-.41109-.11197-.81233-.21351-1.22337-.31504-7.29131-1.75941-15.04263-1.42376-22.1871.83365-3.5918 1.12883-7.03683 2.74548-10.19801 4.81992-.13703.09161-.2838.18297-.42083.28475-13.19282 2.84727-27.65799-.72193-37.9539-9.55842-1.69313-1.4543-3.29821-3.08113-4.68794-4.85046-1.77144-2.2373-3.21016-4.71839-4.10074-7.38245-.42083-1.23061-.71443-2.50169-.87106-3.80305-.05872-.51862-.06852-1.11865.30339-1.47466.27406-.26414.6851-.32522 1.06681-.35575 6.37133-.6204 12.80138-.64075 19.18244-.04072.71449.06107 1.43872.14225 2.15315.22368-.2936-.6405-.5774-1.30161-.85146-1.97266-3.62206-8.85323-5.4649-20.04316-4.14493-29.69806.32535-2.37973 3.00588-3.56837 4.85115-2.11869.01254.00985.02507.01971.0376.02957 5.76454 4.51482 10.41335 10.48393 13.37877 17.22562l-.274-3.76234c-.4013-1.78969-.6851-3.78271-.83193-5.90804-.68243-9.40211 1.0671-21.33946 5.29235-28.8715.60786-1.0836 2.10446-1.10097 2.7319-.02949.24332.41552.48198.83333.71552 1.25251 4.53137 8.16545 7.26197 17.35794 7.91769 26.69268l1.63441-11.10408c.10764-.95579.22508-1.91183.33278-2.86762.81315-6.87314 1.61781-13.74629 2.42191-20.61943.07948-.67933.83294-1.00927 1.36506-.60597.97239.737 1.90353 1.53163 2.78984 2.37271 4.24757 4.0471 7.41855 9.2332 9.14106 14.87685v.00993c.21529.70182.41104 1.42376.5774 2.14569.50894 2.17598.80254 4.41328.86126 6.65033l1.6442-4.45399.28386-.77258c3.00032-4.9543 5.99329-9.9086 8.9917-14.86275.72393-1.19613 2.35139-1.37613 3.28024-.34409.05612.06235.11187.12493.16727.18774 4.14973 4.62653 6.65519 10.69743 7.64362 16.88997 1.14512 7.17912.4013 14.54121-1.07655 21.65926l2.90671-7.2603c2.98507-4.51507 6.89986-8.39956 11.41164-11.33818.54807-.34582 1.11573-.6914 1.75185-.80336 2.16295-.36593 3.74843 2.04391 4.34542 4.17942 2.72081 9.75157-2.08463 19.85939-6.75298 28.8282-.46981.91508-.94936 1.83015-1.43871 2.73531l2.3293-3.33534c5.28499-.03054 10.56992-.06107 15.85491-.10179.59698 0 1.23316.02036 1.84975.10179 1.27229.18296 2.45647.65068 2.99481 1.76933.38162.79315.31316 1.72858.18592 2.6032z" fill="#ec008c"/></g><g><path d="m131.54872 71.81902c-1.53656 10.75826-10.85378 19.14738-21.14969 22.30994-6.10706 1.8813-12.49792 2.22688-18.88884 1.72862-2.16289-.16261-4.31603-.41682-6.46918-.74229-.06851-.35575-.10764-.72193-.10764-1.07793 0-.09161 0-.19315.0098-.29468.07825-2.20676 1.36034-4.31174 3.83648-4.62703.274-.05064.56766-.06082.87106-.05064 14.25957.49825 35.73219-1.71844 38.25724-20.04235.07831-.60004.24467-1.12883.46002-1.57619 1.27229.18296 2.45647.65068 2.99481 1.76933.38164.79317.31318 1.7286.18594 2.60322z" fill="#d8058d"/></g><g><path d="m52.59718 99.58964c.0098.06082.01959.12189.03918.18296l-1.21357.39647c.23488-.16261.46976-.33564.71443-.48808-13.19282 2.84727-27.65799-.72193-37.9539-9.55842-1.69313-1.4543-3.29821-3.08113-4.68794-4.85046 1.35061-1.63726 3.53308-2.34901 5.77434-.76265 5.88192 4.18935 12.449 6.6198 19.53476 7.53487 4.94241.63033 12.42946 1.45405 17.8025-.3354 1.09614-.36618 2.09443-.8339 2.97528-1.43394 3.5918-2.46073 7.00745.82372 7.17381 4.30132-3.5918 1.12883-7.03683 2.74548-10.19801 4.81992.00979.06108.01959.12216.03912.19341z" fill="#d8058d"/></g><g><path d="m91.51019 95.85757c-2.16289-.16261-4.31603-.41682-6.46918-.74229-.06851-.35575-.10764-.72193-.10764-1.07793 0-.09161 0-.19315.0098-.29468-7.29131-1.75941-15.04263-1.42376-22.1871.83365-3.5918 1.12883-7.03683 2.74548-10.19801 4.81992-.52847-2.5218-.46975-5.13521.04892-7.6873 1.50723-7.40305 6.87047-14.33788 13.26134-17.0429 1.22337-.51836 2.29997-.48808 3.18076-.10154 8.16236-2.17598 15.51238 6.34522 19.73057 14.55114 1.02762 2.00344 1.86929 3.98627 2.48587 5.78614.11744.32547.19575.65069.24467.95579z" fill="#d8058d"/></g><g><path d="m25.07622 72.21548c-.93951 1.87112-2.87737 3.17249-5.41216 2.50145-5.21647-1.37262-10.40355-.2644-14.26942 3.17273-.42083-1.23061-.71443-2.50169-.87106-3.80305-.05872-.51862-.06852-1.11865.30339-1.47466.27406-.26414.6851-.32522 1.06681-.35575 6.37133-.6204 12.80138-.64075 19.18244-.04072z" fill="#f236af"/></g><g><path d="m26.37791 70.46651c-3.62206-8.85323-5.4649-20.04316-4.14493-29.69806.32535-2.37973 3.00588-3.56837 4.85115-2.11869l.0376.02957c-1.654 8.64334-1.01788 17.38823 1.90847 25.9911.9787 2.86763-.52854 4.97236-2.65229 5.79608z" fill="#f236af"/></g><g><path d="m48.13433 18.58609c-3.02414 7.14858-3.98331 15.09035-3.03394 22.99116.46976 3.85395-2.80885 5.38968-5.70582 4.65731-.68226-9.39985 1.06626-21.33373 5.28928-28.86612.60897-1.08619 2.10934-1.10348 2.73809-.02953.24223.41376.47985.82979.71239 1.24718z" fill="#f236af"/></g><g><path d="m64.17519 26.49732c-.2838 3.64021-3.48416 5.24693-6.15598 4.80975.81314-6.87309 1.6178-13.74618 2.42189-20.61927.07948-.6794.83303-1.00939 1.3652-.60604.87365.66217 1.714 1.37086 2.51846 2.11795.17418.16176.27921.39147.29104.6339.22629 4.63639-.10719 9.33813-.44061 13.66371z" fill="#f236af"/></g><g><path d="m73.73708 27.34115c.21529.70182.41104 1.42376.5774 2.14569-.38165-.68122-.56761-1.41333-.5774-2.14569z" fill="#41ce87"/></g><g><path d="m89.543 15.8915c-1.58548 5.31818-4.17899 10.189-7.52618 14.68346-1.18418 1.57619-3.42544 1.79987-5.19688 1.10822l.28386-.77258c3.0004-4.95442 5.99345-9.90885 8.99191-14.86311.72383-1.19596 2.35103-1.37591 3.27976-.34403.0562.06244.11205.12513.16753.18804z" fill="#f236af"/></g><path d="m132.56166 68.41435c-.55798-1.0249-1.57068-1.64063-2.42822-1.93213-.87817-.29297-1.69495-.37256-2.45898-.39941-.77612-.02148-1.46851.02686-2.12012.05322-.66357.03174-1.31335.0625-1.94727.09229-2.53564.12451-4.81934.25439-6.73706.38818-1.78857.125-3.24146.25342-4.30127.38281 4.57957-8.81425 8.53871-18.77897 5.57678-28.25928-.46411-1.43066-1.14001-2.76563-2.33997-3.9126-.59521-.56104-1.40906-1.06445-2.37-1.24023-.94727-.19238-1.97559.03906-2.67358.41211-.71802.37158-1.17249.74365-1.66211 1.09229-.48511.35596-.95557.7168-1.40564 1.08545-4.24033 3.42016-7.3653 7.63034-8.46094 10.10986.0686-.48291.1355-.98389.19727-1.52637.18213-1.65088.31689-3.58691.29431-5.85107-.08035-9.19845-2.93433-17.95721-9.11255-24.36768-.62622-.68506-1.65564-1.17822-2.62683-1.1582-.9751-.00635-1.91565.38428-2.57458 1.03906-.17041.15723-.31274.33936-.4458.52197l-.18347.28418-.09753.17578-.38025.69141c-.25134.45947-.50049.91504-.74658 1.36475-3.92761 7.20605-6.93311 13.15967-6.4519 13.45068s4.35779-5.13574 8.91602-11.95996c.28418-.42725.57178-.85938.86194-1.29541l.43579-.65771.10791-.1626c.01563-.01318.02917-.02783.04114-.04346.02942-.02441.05127-.05469.08386-.06934.1095-.08301.24756-.09717.34546-.07666.11108.02783.12634.05664.22217.17383 6.5204 7.77096 7.94396 17.51534 7.57007 27.64453-.15491 3.12793-.36548 5.26074-.42712 6.71875-.15112 2.91748.28027 3.14307.84399 3.25684.53821.10889 1.09949.11768 1.99292-2.76221.31641-1.05664.68042-2.50928 1.00073-4.50293.0722-.01495 8.57325-8.90406 12.88098-10.56689.37207-.14844.5957-.13574.84424-.06885.23572.07031.51416.23584.79395.54541.5625.60547 1.03699 1.59424 1.27551 2.5708 2.21085 8.88392-2.30586 18.34232-6.45935 26.64209-1.13477 2.25635-2.10266 4.19092-2.96179 5.80859-1.71362 3.24414-3.02148 5.28271-3.91638 6.67139-.89905 1.38135-1.35242 2.13623-1.49854 2.62598-.14648.49121.01233.71094.20764.91309s.40271.37354.91138.20996c.50793-.16357 1.3302-.66357 2.61157-1.92969 1.27283-1.26514 2.97058-3.34326 4.94971-6.6416.99426-1.64844 2.05054-3.58057 3.24255-5.8291.05139-.09717.10657-.20557.15845-.3042 1.07666.13574 2.69067.2627 4.73987.37988 1.91931.10938 4.20435.21094 6.74133.30322.63428.02197 1.2843.04443 1.94824.06787.67566.02441 1.34009.03174 1.94202.09521.61084.06348 1.19897.18311 1.66333.37891.45959.20996.73828.44775.8573.74365.13623.26416.16772.71338.08545 1.33154-.07324.62061-.28601 1.3501-.41809 2.02539-.16089.68652-.41638 1.35449-.6156 2.03711-.2793.6582-.52539 1.33105-.83704 1.97754-1.24487 2.5918-2.98914 4.96289-4.9834 6.97559-3.99658 4.06006-8.92285 6.58154-12.85632 7.84229-7.31104 2.32129-13.35144 2.20313-17.79736 2.08203-.49475-.02344-.96521-.04932-1.42566-.07617.03125-.27832.05762-.5791.073-.92236.02515-1.69971-.14392-4.33838-1.7146-7.81543-.35657-.77393-.80371-1.59131-1.3313-2.42383.42346-.17725.89063-.39746 1.38257-.63037 1.43811-.70313 3.08215-1.46289 4.09802-1.98828 1.85376-.9585 2.80078-1.46875 3.21021-2.01025.41638-.51953.30017-1.01709.13599-1.55469-.16418-.53809-.32568-1.021-1.03931-1.17969-.69995-.13672-2.0083.00586-4.20398 1.14111-1.2019.61914-2.8938 1.95557-4.0094 3.35059-.31531.38525-.58179.76611-.80164 1.12695-2.0783-2.64083-4.79095-4.81122-7.88293-6.38428.50623-.29492 1.06995-.70557 1.6322-1.21436 1.52478-1.34424 2.90637-3.39404 3.48621-4.82568 1.07397-2.61377 1.05212-4.12402.84912-4.87939-.23816-.77246-.73901-.86523-1.29419-.95313-.5553-.08789-1.06555-.12793-1.53589.42041-.50293.54053-.88599 1.67773-1.77258 3.83252-.48157 1.18164-1.23511 3.05322-2.01636 4.65088-.39417.83447-.78296 1.59717-1.01465 2.2002-1.31982-.55566-2.8186-1.05811-4.58032-1.30029-1.82166-.25781-3.74609-.05566-5.56372.44238.07349-.47852.1106-1.02344.08569-1.61963-.04431-1.86816-.75403-4.04492-1.49915-5.26514-1.35974-2.23633-2.56359-3.00146-3.26245-3.2124-.73572-.19189-1.08459.17969-1.46326.59521-.37866.41504-.6925.81982-.5542 1.45996.11365.66357.72339 1.50146 1.776 3.23291.57471.94873 1.50122 2.45117 2.2041 3.86621.30005.57617.56775 1.12842.8197 1.58398-3.23632 1.2334-6.14941 3.38184-8.40258 5.94434-.21509-.56104-.57202-1.2251-1.05481-1.90918-1.04712-1.52246-2.69421-3.02734-3.88843-3.75781-2.1814-1.33789-3.52087-1.58545-4.24854-1.50635-.74365.10107-.93811.57178-1.13831 1.09717-.20032.52539-.349 1.01465.04968 1.56885.38953.57666 1.33655 1.16357 3.18079 2.29541 1.01062.62012 2.64661 1.54102 4.06616 2.39502.74915.43799 1.44263.84424 2 1.08398-.56909.75391-1.09839 1.52637-1.5437 2.32275-2.35352 4.13965-2.92676 8.45801-2.78308 11.43848.08081 1.61133.32654 2.84082.57458 3.64258-.3855.03906-.81079.08203-1.2948.12695-2.12.19531-5.26013.57178-9.88013.24707-2.30737-.12891-4.97656-.52197-8.00134-1.26025-11.31258-2.80985-23.50519-11.02162-26.40625-21.35742-.15454-.58887-.31616-1.24805-.40039-1.78955-.03772-.13721-.08862-.29395.01074-.41699.07056-.07275.17322-.08447.27612-.10693-.01758-.00488.29199-.03809.49939-.06299l.6676-.07813c5.372-.50973 9.51321-.78957 16.56067-.57813 5.11011.17285 8.40601.51904 8.46436.17578.04309-.23535-2.00257-.89404-5.46008-1.51855-.13135-.71533-.46924-1.91748-.88635-3.48828-.66089-2.52686-1.50464-6.02197-2.04382-9.92725-.35844-2.5257-1.78106-17.35241.64001-18.18213.27893-.104.50757-.06543.70935.03564.05115.01123.09387.06201.14551.08789.05066.02637.23132.18359.33923.26709.24976.20215.49561.40039.73767.59619.46985.4082.93774.78906 1.3645 1.18799.87439.77539 1.64551 1.55029 2.36279 2.27832 1.422 1.46875 2.55506 2.82129 3.49451 4.01416 1.86267 2.39941 2.99597 4.13037 3.80737 5.2832 1.5968 2.32568 2.04688 2.28223 2.58252 2.04102.48865-.21875.99414-.54688-.03149-3.37695-.05286-.14014-.11328-.2915-.17493-.44434.06885-.12451.10156-.42773.10046-.89404-.01758-.59277-.04309-1.4458-.07495-2.51367-.05896-2.13037-.06348-5.11475.22253-8.52881 1.09767-13.73638 5.34667-20.7999 5.37891-20.8999l.07678-.14307c.02881-.0542.01196-.01953.02002-.03369l.01282-.01465c.04053-.03564.07983.0166.06799.03418l-.00098.00732c.08492.19341 3.66389 6.09551 6.42993 15.81201.90881 3.33643 1.37634 5.6377 1.76428 7.18945.72009 3.11475 1.17773 3.2334 1.75769 3.18896.54041-.04102 1.10461-.19531 1.10034-3.54199-.01416-.74463-.06348-1.66016-.17664-2.75293.44873-.4043 1.2605-3.92871 2.18262-8.81543.96854-5.13171 1.87042-10.70809 2.67456-15.86865.0603-.39453.12048-.78711.1803-1.17822l.02002-.12793.005-.01074.01001-.01855.01855-.03174c.01782-.05566.07324-.09131.12256-.02734l.03638.06201c.00806.01221-.00256.00635.01782.03076l.38464.36182c6.46163 5.87329 9.02214 12.75717 10.89636 19.95996.36426 1.34277.56091 2.05908.84241 2.42676.2644.36963.53381.39453.81482.38672.28101-.00732.54736-.04004.76929-.44678.2041-.40527.44568-1.19336.43323-2.70508.00134-1.50732-.15198-3.77393-1.09595-6.96533-1.99433-6.52984-5.79542-12.01735-9.9812-15.62109-.2041-.17969-.41016-.36133-.61792-.54443-.32373-.31152-.68274-.47607-1.01989-.67236-.68262-.38721-1.37585-.78027-2.078-1.17871-.59436-.13867-1.4718.11572-2.01721.58838-.28162.24414-.44861.44482-.62671.7627-.17041.30811-.32996.69482-.38391 1.17578-.07983.71338-.16003 1.43115-.24072 2.15283-.0387.39355-.07764.78906-.1167 1.18604-.49371 5.16249-1.00623 10.87222-1.33386 16.03271-.16187 2.54736-.26196 4.73242-.27661 6.32959-.1167-.69092-.25293-1.42529-.42139-2.22266-1.3849-6.21791-3.86189-12.27483-6.31665-16.49658-.24133-.4165-.48682-.84082-.73621-1.27148-.6676-1.06104-1.7998-1.6958-3.0437-1.69678-.61292.00635-1.22876.17773-1.77332.48779-.53564.33887-.99487.77051-1.33704 1.38672-.2821.56592-.56775 1.13818-.85632 1.7168-.2196.45166-.39063.92188-.58948 1.38867-1.81356 4.11966-3.62938 12.16702-3.47205 20.5376.05396 3.56006.4563 6.63525.94104 8.7793.0791.34961.15881.66504.23865.96387-.52661-.99463-1.20276-2.1377-2.08984-3.44775-.93396-1.35938-2.10413-2.88672-3.61572-4.53027-.76221-.81494-1.59107-1.67725-2.53772-2.53711-.46289-.44092-.9707-.86377-1.48376-1.31299-.26428-.21533-.53271-.43408-.80554-.65674-.15747-.12256-.22766-.19629-.45996-.36133-.23401-.16064-.4624-.32764-.73364-.4502-1.13965-.59814-2.6853-.72314-4.00708-.17773-5.66962 2.1653-3.28878 17.07545-2.0061 22.49414.93445 4.0127 2.24158 7.51025 3.38464 9.93701.57813 1.21582 1.10815 2.16504 1.52344 2.7959-.62866-.10498-1.29321-.2085-1.99817-.30762-5.88895-.80323-11.12222-.93224-16.96069-.66602-.51672.03369-1.03601.06787-1.55737.10156-.8158.04736-1.58289.24072-2.14929.76221-.85962.77979-.99219 2.0376-.7771 3.23682.09131.81396.22986 1.49268.38965 2.23877 2.24035 9.62363 12.86735 20.72524 28.76477 24.396 1.45667.33008 2.82349.56836 4.12683.74902-.32422.07178-.68103.15527-1.08362.25586-7.2549 1.9232-13.59941 5.51733-14.77698 13.03125-.19153 1.21533-.21533 2.51465.03638 3.82764.24365 1.31201.80237 2.62646 1.63733 3.7749 3.30013 4.45631 12.96125 8.12085 23.45606 1.31494 2.36108-1.54736 4.5144-3.21631 6.72607-4.59229 2.19788-1.38525 4.46277-2.38379 6.72888-2.68896 2.26355-.26318 4.59985.18213 6.8092 1.02197 2.22278.8335 4.3009 1.99268 6.33447 3.21924 25.52131 15.35226 45.13129 1.38117 48.67627-14.95068.63293-2.97803.6731-5.44043.5376-7.39014-.32788-3.91406-1.1875-5.81055-1.66797-6.73877-.02112-.03613-.03943-.06201-.05981-.09521 2.22205-1.43164 4.41724-3.18457 6.38892-5.32568 2.18164-2.35645 4.07031-5.14795 5.35791-8.19727.32214-.76025.57336-1.55127.84912-2.32275.19702-.7998.44189-1.58203.58569-2.38232.11829-.82129.29529-1.55713.35205-2.42725.05761-.85402.03552-1.96291-.5575-2.98879zm-79.34326 26.32617c.33167-2.76318 1.30542-6.57227 3.64648-9.97852 2.29883-3.40771 5.97485-6.30322 9.90893-7.56689 1.97021-.66748 3.86121-.90039 5.51819-.61816 1.69421.26758 3.34326.96045 4.71411 1.61768 2.5 1.23047 4.44202 2.75732 5.9248 4.2749 1.48779 1.52588 2.50244 3.05273 3.24524 4.43701 1.47217 2.79639 1.89026 4.94824 2.20959 6.375.03503.18457.06799.35791.09937.52197-1.36938-.10596-2.55359-.21582-3.57056-.31201-.0625-.03125-.11072-.06055-.17908-.09277-.41211-.2085-.9447-.37988-1.61194-.57959-.33618-.09326-.70435-.19531-1.10754-.30762-.41089-.0791-.85754-.16504-1.34338-.25879-1.94788-.34668-4.58435-.62158-8.05884-.40186-1.89771.15234-4.33948.46094-6.84778 1.14941-2.5094.67432-5.08032 1.66602-7.30163 2.80078-1.49536.75146-2.79504 1.58594-3.88025 2.36719-.37659-.02539-.8916.01123-1.61597.08154.03872-.80858.07033-2.00829.25026-3.50927zm65.21594 4.22364c-.05237 1.75537-.25085 3.9375-.94031 6.521-4.01304 14.75866-21.53127 25.13695-43.35901 12.31641-2.10864-1.23779-4.4342-2.51123-7.03955-3.44238-2.58777-.93604-5.5758-1.50684-8.63305-1.08691-3.04248.46143-5.79761 1.82617-8.16101 3.38965-2.38086 1.5625-4.52185 3.31201-6.68835 4.81104-8.91223 6.14609-17.00054 3.0482-19.51648-.0957-2.89735-3.57732-3.44803-12.09303 11.30774-18.27295.92639-.375 1.62732-.66748 2.08276-.88184 1.18689.12793 2.3208.21045 3.36768.2251 5.005.13525 8.35889-.57422 10.55676-1.15576.00391.0166.00122.03809.01062.05127.16675.23438 1.11877-.10352 2.54761-.72607 1.45532-.58154 3.39722-1.44775 5.61682-2.16406 2.21204-.72998 4.66357-1.36572 7.00244-1.7915 2.33899-.43848 4.56348-.60498 6.28589-.74658 3.15271-.19922 5.53943-.05859 7.33948.0625.4519.02637.86743.05029 1.24963.07275.35156.03027.66809.05713.96558.0835 2.66059.7028 5.79264 1.29002 9.94531 1.67383 2.35535.19092 5.11902.30322 8.34363.10645 3.21741-.23389 6.91406-.72852 10.96423-2.06592 2.00806-.646 4.22388-1.61621 6.45166-2.90234.06298 1.06489.35107 2.87105.29992 6.01851z" fill="#202020"/></g></svg>