<svg id="Layer_1" enable-background="new 0 0 136 136" height="512" viewBox="0 0 136 136" width="512" xmlns="http://www.w3.org/2000/svg"><g><g><path d="m113.74899 105.45654c-.98999 4.5498-6.14996 8.33984-12 8.82983-5.84998.47998-11.89996-2.38989-14.06995-6.67993l.00995.30005c1.51001 2.07983 2.88 4.25 3.60004 6.57007.02997.08984.06.18994.08997.28979.67999 2.44019.56 5.07007-.87 7.30005-2.26996 3.55005-8 5.48999-12.85999 4.3501-3.09003-.72998-5.59998-2.65015-6.87-4.97021-.34998 1.86011-1.03998 3.67017-2.45001 5.08008-1.39001 1.39014-3.37 2.28003-5.44 2.72998-4.53998.97998-9.60999-.12988-13.08002-2.85986-1.41998-1.12012-2.64996-2.71997-2.29999-4.36011l.98004-1.94995.09998-.17993c-.07001.05981-.13.11987-.19.17993-.71002.69995-1.52002 1.31006-2.42999 1.80005-3.03998 1.65991-7.10999 1.8999-10.26001.40991-2.21002-1.0498-3.84998-2.81982-5.09003-4.70996-1.06-1.6001-1.87994-3.37012-1.90997-5.20996-.01001-.72998.12-1.46997.39001-2.16992-1.79999.80981-3.82001 1.22998-5.82001 1.07983-4.58002-.34985-8.47998-3.88989-8.92999-7.84985-.41003-3.6001 1.89002-7.24023 5.42999-9.13013.35999-.20996.73999-.37988 1.13-.54004l81.60999 1.52002c2.09998.21021 3.89001 1.26001 5.57001 2.27002 2.52002 1.51001 5.23999 3.28003 5.72998 5.73999.14002.71997.08003 1.45019-.07 2.16015z" fill="#c13049"/></g><g><path d="m32.9776 96.9158c5.67659 14.06446 26.28078 21.92493 42.0676 16.04874 11.46931-4.26912 19.09663-14.24125 22.27155-24.71123" fill="#4ccc58"/></g><g><path d="m60.77902 59.1565c-.08002 11-1.76001 22.55005-7.07001 32.34008-.64001 1.15991-1.26001 2.11987-1.91998 2.90991-2.09003 2.51001-4.54004 3.46997-8.60004 4.46997-4.62 1.13989-9.73999.94995-14.23999-.64014-8.27997-2.91992-14.14996-9.35986-18.06-16.91992-2.14996-4.12988-3.70001-8.6001-4.73999-13.02002-1.65002-7-1.91998-14.33007-1.02002-21.45996.80005-6.25 2.47003-12.37012 4.75-18.25 1.91003-4.93994 4.39001-12.83984 8.39002-16.48999 3.51001-3.20996 9.79999.08008 13.47998 1.56006 5.75 2.28979 11.17004 5.28979 16.59003 8.28003.25.13989.5.27002.75.40991 1.37.75 2.58002 1.66992 3.65002 2.71997.48999.47998.94995.97998 1.37 1.51001.00995.01001.01996.03003.02997.04004 6.47998 8.03004 6.72003 21.81007 6.64001 32.54005z" fill="#009444"/></g><g><path d="m122.15072 82.67439c-8.97003 9.60986-33.92999 20.57983-42.75 5.70996l2.23999-58.1001c.71002-.67993 1.42999-1.36987 2.14001-2.05005 6.12-5.87988 12.15997-11.6499 18.67999-17.16992.67999-.58008 1.42999-1.19995 2.46997-1.33008 2.03003-.27002 3.59003 1.32007 4.55005 2.68018.47998.66992.94995 1.33984 1.42999 2.02002 7.44 10.52979 14.70001 21.23999 18.13 32.68994 3.65998 12.16991 2.51002 25.48999-6.89 35.55005z" fill="#009444"/></g><g><path d="m110.88174 14.34547c-5.38 7.02002-12.03003 12.85986-19.79004 17.25-3.42999 1.92993-6.62994-.52002-7.33997-3.4502 6.12-5.87988 12.15997-11.6499 18.67999-17.16992.67999-.58008 1.42999-1.19995 2.46997-1.33008 2.03003-.27002 3.59003 1.32007 4.55005 2.68018.47999.66992.94996 1.33984 1.43 2.02002z" fill="#39b54a"/></g><g><path d="m47.53903 33.59644c-4.60999-3.25-9.15002-6.63989-13.88-9.70996-3.03003-1.95996-6.27002-3.54004-9.56-5.02002-2.19 2.68994-3.52002 6.15991-4.72003 9.34009-1.77997 4.73975-3.26996 9.59986-4.37 14.54981-2.39001 10.72998-2.62 21.74023.16003 32.42016.88995 3.40991-1.59003 5.73999-4.28003 6.13989-2.14996-4.12988-3.70001-8.6001-4.73999-13.02002-1.65002-7-1.91998-14.33007-1.02002-21.45996.80005-6.25 2.47003-12.37012 4.75-18.25 1.91003-4.93994 4.39001-12.83984 8.39002-16.48999 3.51001-3.20996 9.79999.08008 13.47998 1.56006 5.75 2.28979 11.17004 5.28979 16.59003 8.28003 1.41998 1.00977 2.83002 2.02002 4.25 3.02002.04999.04004.09998.06982.15002.10986.58997.44995 1.04999.95996 1.37 1.51001.00995.01001.01996.03003.02997.04004 2.35998 4.07983-2.02002 10.19995-6.59998 6.97998z" fill="#39b54a"/></g><g><path d="m96.03347 78.03677c-1.39102 5.3814-4.85857 10.73274-9.32964 14.80352-2.95088 2.68064-6.33899 4.80523-9.85621 5.99684-5.37405 1.83035-10.76988 2.2328-16.33559 1.20135-4.79849-.88925-8.64985-1.64007-12.35781-5.25745-5.90829-5.76396-8.88151-15.38071-9.8969-23.38636-1.2618-9.94836 2.30509-20.1648 6.22971-29.14018 5.09703-11.64607 11.6844-22.69635 19.55347-32.8631 1.43074-1.8468 4.42139-1.9857 6.05087-.27803.11922.11926.2285.23827.33778.36747 10.33315 10.97077 18.27177 23.94736 23.16011 37.89692 3.398 9.69021 5.05731 20.57178 2.44421 30.65902z" fill="#39b54a"/></g><g><path d="m52.52902 42.27637c-5.21002 14.08008-9.01001 28.43994-3.04999 42.88012 1.16998 2.84985-.42999 4.92993-2.69 5.66992-1.70001-1.68994-3.54999-3.63013-4.41003-5.61987-1.94995-4.52002-3.5-9.22021-4.12-14.14014-1.26996-10.02002 2.32001-20.31005 6.27002-29.35009 5.13-11.72998 11.76001-22.85987 19.67999-33.09985 1.44-1.86011 4.45001-2 6.09003-.28003.12.12012.22998.23999.33997.37012-7.52997 10.27978-13.69 21.62988-18.10999 33.56982z" fill="#4ccc58"/></g><g><path d="m114.91463 36.83918c-.97827-.89795-2.18079-1.4646-3.53552-1.4646h-.16669c-1.28198 0-2.62878.55786-3.53552 1.4646-.86719.86719-1.52026 2.29004-1.46448 3.5354.05792 1.29321.48273 2.63428 1.46448 3.53564.97827.89795 2.18079 1.46436 3.53552 1.46436h.16669c1.28204 0 2.62878-.55762 3.53552-1.46436.86725-.86719 1.52026-2.29004 1.46448-3.53564-.05792-1.29297-.48266-2.63428-1.46448-3.5354z" fill="#009444"/></g><g><path d="m48.39902 120.08643c-.71002.69995-1.52002 1.31006-2.42999 1.80005-3.03998 1.65991-7.10999 1.8999-10.26001.40991-2.21002-1.0498-3.84998-2.81982-5.09003-4.70996-1.06-1.6001-1.87994-3.37012-1.90997-5.20996-.01001-.72998.12-1.46997.39001-2.16992-1.79999.80981-3.82001 1.22998-5.82001 1.07983-4.58002-.34985-8.47998-3.88989-8.92999-7.84985-.41003-3.6001 1.89002-7.24023 5.42999-9.13013.04999.25.07001.52002.07001.80005.01001 2.65991.02997 5.73999 1.65997 8 1.51001 2.08984 3.76001 2.07007 6.14001 2.12988 1.87.05005 3.20001.92017 3.97998 2.14014.20001.31982.37.65991.5 1.01001.15002.3999.25.82007.30005 1.23999 1.53998.33984 2.88995 1.41992 3.39996 3.42993 1.66004 6.56006 7.03004 7 12.57002 7.03003z" fill="#d64564"/></g><g><path d="m90.509 122.06641c-2.26996 3.55005-8 5.48999-12.85999 4.3501-3.09003-.72998-5.59998-2.65015-6.87-4.97021-.34998 1.86011-1.03998 3.67017-2.45001 5.08008-1.39001 1.39014-3.37 2.28003-5.44 2.72998-4.53998.97998-9.60999-.12988-13.08002-2.85986-1.41998-1.12012-2.64996-2.71997-2.29999-4.36011l.98004-1.94995c.88995.01001 1.77997.01001 2.65997.02002 1.76001.02002 3.03998.78003 3.83002 1.87988 3.26001 2.02002 9.54999 1.72021 12.41998-.41992 1.03003-.78003 2.04999-1.05005 2.98999-.94995.17999.02002.35004.05005.52002.09009.34998.08984.69.21997 1 .3999.97998-.55005 2.20001-.76001 3.59998-.37988 2.47003.65991 5.73004-1.08008 8.03003-1.86011 2.35999-.80005 4.70996-1.32007 6.38-3.26001.42999-.5.88995-.87988 1.37-1.12988.02997.08984.06.18994.08997.28979.68 2.44017.56001 5.07006-.86999 7.30004z" fill="#d64564"/></g><path d="m110.7899 10.66993c-.86182-1.03857-1.93872-2.05151-3.46252-2.57642-.74969-.25732-1.59235-.34863-2.36981-.24829-.79895.08984-1.55865.39844-2.14038.75684-.58875.35864-1.03387.75269-1.39581 1.07153-.35406.30591-.70081.60571-1.04041.89917-2.24882 1.9526-13.47565 11.56907-14.995 14.05225-2.7851-4.52319-6.08002-9.15991-10.03503-13.81104-2.23848-2.55803-1.99342-2.27966-4.01434-4.44653-2.39156-2.42125-6.30027-2.30543-8.57074-.10107-.76023.66126-6.68719 8.65473-11.49731 16.83447-4.6507-5.9216-18.74918-12.43183-26.90906-14.52612-1.2464-.28345-2.72046-.67676-4.61835-.25366-.93585.20483-1.93231.77783-2.59729 1.44531-.68359.66504-1.1405 1.36572-1.52075 1.95044-18.52065 28.77387-14.54846 63.97586-1.27937 77.60205 1.63599 1.66748 3.35016 3.18677 5.12653 4.53906-.4375.1377-.9505.34863-1.52515.66943-1.64325.90454-3.83136 2.79028-4.79987 5.85791-.48468 1.50806-.55774 3.30444-.08167 5.00171.48853 1.67334 1.41327 3.18896 2.57587 4.36768 2.29706 2.42871 5.47894 3.50049 7.91974 3.58252 1.49567.05591 2.82367-.15186 4.00641-.47192-.00299 1.16724.26038 2.39648.72742 3.54761.54688 1.33813 1.25873 2.57422 2.15723 3.78442.89777 1.20117 2.02209 2.32397 3.33307 3.1814 1.30273.86865 2.79724 1.41968 4.16895 1.68896 1.38409.26538 2.68634.28979 3.80731.17896 2.04846-.20752 3.78979-.83374 5.20099-1.62524.0257-.01489.04669-.03101.07214-.0459.04413.45264.17273.96826.44263 1.49707.88684 1.77979 2.89526 3.50172 5.44324 4.72901 2.56299 1.20435 5.71173 1.81982 8.70251 1.55566 2.97614-.22583 5.81024-1.29517 7.67352-2.94946 1.27051-1.11768 2.07343-2.42774 2.58472-3.64845.68958.72241 1.50476 1.39648 2.4552 1.95386 2.75781 1.66358 6.46198 2.17408 9.68744 1.51246 1.62585-.31202 3.16821-.87208 4.51398-1.64283 1.34192-.77661 2.48486-1.77441 3.297-2.86523 1.50287-1.9895 1.95593-4.22876 1.93982-6.03052-.01178-1.46338-.30389-2.70435-.6601-3.74146 1.08185.58179 2.29938 1.08301 3.63153 1.43213 3.3692.95996 7.49048.74268 10.93701-.72119 3.44507-1.43848 6.26819-4.06445 7.43549-6.87964.53973-1.28003.85577-2.51953.80054-3.94629-.0705-1.46362-.70038-2.75684-1.3725-3.62183-1.38354-1.76416-2.79816-2.57764-3.93701-3.29712-1.16595-.68579-2.08771-1.15918-2.95831-1.56909-.32153-.14868-.6142-.26074-.9071-.37354.17108-.05859.34076-.10718.51239-.16943 2.11005-.7251 4.20667-1.77563 6.30176-2.9873 2.05524-1.27295 4.08112-2.74512 6.0188-4.40454 1.91479-1.6958 3.7713-3.46216 5.53625-5.53101 1.71033-2.08203 3.22388-4.3855 4.43915-6.86133 10.14806-20.88833-4.22231-46.28337-18.76076-64.34546zm-94.33887 76.68628c-11.83815-13.063-14.5177-46.38897 2.51526-73.46191.36084-.57861.66974-1.01392.94403-1.28296.28387-.27075.46399-.37646.78552-.46313.63409-.18311 1.68585-.04956 2.74512.20581 13.45839 3.21298 25.45395 11.44028 26.91101 12.33251-7.86253 13.73409-14.8606 29.80851-13.9101 45.65308.25012 4.24414 1.09088 8.4209 2.55127 12.27319 1.49219 3.85181 3.40503 7.36377 5.86255 10.4187 1.21527 1.51538 2.58612 2.89233 4.07312 4.06543-.49957.07886-1.24921.23267-2.23676.43994-1.85876.34253-4.56006.82324-7.88824.80908-1.66345.03247-3.46985-.19385-5.37305-.521-1.88702-.42358-3.87061-1.00146-5.83679-1.91333-1.95758-.92505-3.90881-2.10547-5.79156-3.53491-1.85846-1.46508-3.64819-3.15893-5.35138-5.0205zm-.17797 16.98022c-.40381-1.02222-.52045-2.1543-.33142-3.26343.35455-2.24146 1.76923-4.12793 2.94354-5.26929.56079-.56396 1.06866-.98389 1.43866-1.30347 2.07135 1.43896 4.2218 2.61353 6.36957 3.50269 2.17908.88599 4.36182 1.40186 6.41132 1.7356.17224.01978.33783.03296.50824.05078.026.09253.04565.17188.07672.2749.12854.45093.30469 1.00049.63531 1.57251.15533.29419.32129.60864.49719.94165.09045.16675.18347.33838.27893.51416.11493.16162.23279.32715.35352.49707.01556.02368.03607.0481.05188.07178-.66955.01217-14.25567 12.54664-19.23346.67505zm31.1253 14.09229c-1.19476 1.14966-3.07037 2.44312-6.04413 2.76538-1.60352.16064-3.74011.02661-5.61591-1.01831-1.89752-1.00415-3.67102-3.03784-4.84637-5.00317-.57123-.97632-.93414-1.94897-1.04535-2.85571-.01141-.09058-.00928-.17871-.01544-.26855 1.21881-.56006 2.22345-1.21411 3.01526-1.84912 1.85687-1.52441 2.73492-2.86694 3.24207-3.78442.29187-.57007.44049-.98779.50903-1.31836 1.98938 2.39185 5.00714 4.91187 8.71143 6.90527 1.6684.87183 3.45935 1.65552 5.31982 2.32544-.00061.00049-.0011.00049-.00171.00098-.27991.1814-.56409.56177-.99445 1.24658-.44683.67015-1.0263 1.6909-2.23425 2.85399zm21.80005.80664c-.30048 1.8186-.65338 4.37061-2.59155 6.11279-1.06482.96948-3.07269 1.92603-5.42053 2.28198-2.33246.39503-4.95508.17969-7.21313-.5083-2.24518-.70288-4.18915-1.84424-5.17529-2.92334-.42737-.43701-.66809-.86304-.82837-1.22388.90271-.63965 1.62152-1.32983 2.18555-2 1.52557-1.82104 2.00262-3.40601 2.19226-4.43896.12476-.78589.08099-1.30273-.02789-1.64233 2.66461.8396 5.4353 1.44019 8.1759 1.70923 1.31989.11353 2.62103.25049 3.90204.2207.63928-.00122 1.27106.02075 1.89331-.00366.6225-.04663 1.23535-.09253 1.83704-.13745.4389-.03564.86365-.08936 1.28906-.14209-.00771.69067-.0547 1.56201-.2184 2.69531zm19.37299 2.04346c-.46411.62427-1.16724 1.29419-2.08765 1.88232-.92389.58228-2.05316 1.07471-3.27954 1.4021-2.46246.6853-5.27612.57495-7.5484-.40894-1.19263-.50488-2.20972-1.21655-3.01697-1.99268.1864-.96997.26062-1.83398.29773-2.59912.06531-1.45215-.07837-2.6416-.31152-3.57104.69922-.15283 1.37811-.31372 2.0072-.48413 5.64783-1.64429 9.6886-4.15405 12.59515-6.52856.04309.34497.17847.80542.45844 1.45703.36444.91382 1.04309 2.19775 1.62885 4.04907.27631.92676.50458 1.97998.46838 3.17114-.03846 1.17578-.34168 2.47657-1.21167 3.62281zm19.98895-21.22242c.95068.68604 2.07196 1.52222 2.7644 2.5083.35101.49731.52039.94727.54529 1.45215.02563.53687-.15277 1.3833-.49036 2.14136-.68939 1.72583-2.60632 3.77588-5.24304 5.07837-2.63507 1.30884-5.86707 1.79883-8.80005 1.323-2.36169-.33643-4.4411-1.19067-5.99097-2.12793-.46613-.68262-.8988-1.18286-1.25183-1.5752-.64075-.66748-1.08673-.98218-1.43054-1.11279.11084-.10107.23517-.20605.34186-.30591 2.9397-2.83838 4.44513-5.1897 5.29529-6.83105.84766-1.6521 1.07489-2.60962 1.08075-3.15527.00946-.54346-.21643-.68921-.46875-.81299-.25238-.12402-.51117-.20703-.94348.09277-.427.30127-1.0141.99121-2.07941 2.30054-1.06622 1.302-2.64532 3.23096-5.39685 5.61865-2.77173 2.32251-6.82147 5.1438-12.97455 6.9397-1.69489.45557-3.63629.896-5.78741 1.12207-.53864.05518-1.08722.11133-1.64447.16846-.55951.03784-1.13202.03247-1.71002.05322-1.15692.06909-2.34564-.01733-3.55469-.06958-4.83948-.27295-9.91071-1.58813-14.24646-3.44922-4.31409-1.92505-7.79437-4.51367-9.87415-6.80518-.96832-1.06104-1.6543-2.0127-2.15356-2.72705 1.52582.12964 2.96899.16748 4.30249.04761 3.50006-.23657 6.22577-.99365 8.05359-1.60059 1.14343-.41162 1.94482-.74976 2.37256-.97534 1.40039 1.0625 2.89471 1.95166 4.46051 2.59766 1.6828.69312 3.40033 1.15747 5.08911 1.41309 1.70447.2168 3.315.30835 4.87738.28149 3.12677-.0083 6.02905-.37695 8.61646-.96118 5.18671-1.16968 9.07178-3.18164 11.45642-4.90479.69897-.49951 1.27002-.95386 1.74536-1.35913.3667.19116 1.19171.49292 2.43585.89429.88464.2478 1.98572.49536 3.27185.76221 1.29895.18652 2.7829.42871 4.45001.4668 2.08954.07764 4.47986-.03223 7.01355-.50562.01801.02417.02844.04834.05005.07275.24463.29053.71777.56689 1.59192 1.09839.43896.2688.97815.61084 1.66833 1.08032.70813.48901 1.55152 1.07104 2.55756 1.76562zm17.93231-26.47387c-1.03082 2.25391-2.33105 4.37134-3.82288 6.31592-1.51453 1.8999-3.27655 3.70752-5.01428 5.36279-1.77148 1.63428-3.61475 3.08716-5.4826 4.36084-1.90247 1.20898-3.80597 2.28003-5.73053 3.05029-3.82648 1.61475-7.59753 2.16553-10.75946 2.28735-1.58838.08423-3.02759-.02808-4.29974-.08276-1.2627-.13525-2.3595-.24927-3.25446-.36377-1.08105-.18213-1.87451-.29175-2.34259-.32031.97534-.86084 1.4162-1.42554 1.36792-1.47437-.11462-.13208-1.34253.92285-3.82019 2.37061-2.45911 1.45605-6.30457 3.15405-11.32532 4.04199-2.50513.44336-5.29614.67993-8.28192.57471-1.49384-.02881-3.04187-.1792-4.55817-.42432-1.52252-.28516-3.04279-.75391-4.51733-1.41455-5.9588-2.65234-10.40167-9.09473-12.95294-16.2417-8.17466-22.95753 8.76701-52.78988 23.64178-72.18408.07715-.10522.11407-.14087.14185-.16943.03546-.0332.05579-.07935.09808-.10693.57363-.55036 1.59118-.70441 2.38867-.30103.17291.09448.32233.20752.45319.33594 2.09658 2.26267 1.65193 1.76944 3.83203 4.25854 15.35102 18.05533 29.32666 47.19715 20.52374 69.14966-.58118 1.22314-1.01868 2.34961-1.591 3.23535-.52161.9165-.95325 1.72778-1.43677 2.35303-.44427.65918-.81873 1.2146-1.13458 1.68311-.35541.43677-.63672.80298-.85748 1.1106-.88403 1.23291-.79321 1.52124-.60364 1.72852s.44189.33374 1.7301-.61304c.32233-.2373.70978-.54224 1.17767-.9314.42664-.42627.91431-.95483 1.49255-1.58911.61005-.6123 1.17377-1.42798 1.83307-2.37524.711-.91895 1.28723-2.0957 2.00897-3.4043 8.56328-17.82247.88316-41.01826-9.31927-58.04834 2.47495-.73579 14.68627-10.77489 16.70239-12.40527.69281-.53906 1.48981-1.26611 1.95496-1.52393.25366-.14063.44366-.20068.65631-.21753.23102-.01953.44232.00952.68909.09961.48987.16724 1.11591.67627 1.67969 1.39819.25983.32959.59656.83813.93701 1.32178 12.61203 18.1372 26.89007 38.98372 17.79608 59.15258z" fill="#202020"/></g></svg>