<svg id="Layer_1" enable-background="new 0 0 512 512" height="512" viewBox="0 0 512 512" width="512" xmlns="http://www.w3.org/2000/svg"><g><g><path d="m221.3 394.4c-.7 5.8-1.9 11.4-3.6 17-8.3 28.1-27.9 52.8-54.4 66-22 11-47.5 12.4-72.1 11.9-20.4-.5-40.8-2.1-61.1-4.9.3-2.8.8-5.5 1.2-8.3 1.5-10.1 3.3-20 5.5-29.9 3.6-16.8 8.3-33.3 13.9-49.5 4.8-13.9 10.6-27.9 19.8-39.4 6.6-8.2 14.1-13.1 22.5-17 5.3-2.4 10.9-4.5 16.9-6.7 13.9-5.3 27.9-10.6 42.5-13.1 14.6-2.4 30.2-1.9 43.7 4.3s24.6 18.6 26.8 33.3c1.6 11.1-.2 25.1-1.6 36.3z" fill="#00a79d"/></g><g><path d="m217.7 411.4c-8.3 28.1-27.9 52.8-54.4 66-22 11-47.5 12.4-72.1 11.9-20.4-.5-40.8-2.1-61.1-4.9.3-2.8.8-5.5 1.2-8.3 3-2.9 7.2-4.7 12.5-4.8 52.6-.6 118.9-1.8 148-54 6.1-10.9 17.7-11.1 25.9-5.9z" fill="#02998a"/></g><g><path d="m219.4 268.5c0 2.4 0 4.8-.1 7.2l-2.2 2.7-22.6 27.6-25 30.5c-19.5-.1-38.9-.9-58.3-2.4-8.5-.6-17.1-1.4-25.5-2.9-9.8-1.7-19.4-4.3-28.3-8.7-23.8-11.7-40.9-36.1-43.8-62.5s8.6-53.9 29.4-70.4c6.5-5.2 13.9-9.4 19-16 6.3-8.1 8.3-18.7 13-27.8 13.8-26.7 50.3-36.3 78.3-25.6 1.6.6 3.2 1.3 4.7 2 13.8 6.4 25.3 16.7 34.4 29 7.8 10.6 13.7 22.7 17.7 35.1 8.6 26.4 9.5 54.5 9.3 82.2z" fill="#f45c58"/></g><g><path d="m205.2 162.8c-9.1-22.1-45.5-12.4-36.3 10 15.3 37.1 21.8 71.9 7.2 110.4-8.6 22.7 27.8 32.5 36.3 10 16.7-44.2 10.4-87.5-7.2-130.4z" fill="#ef4343"/></g><g><path d="m323.8 139.5c-3.4 5.8-6.5 11.3-9.2 17.4-3.5 7.9-7 15.8-10.5 23.8-6.3 14.3-12.4 28.6-18.2 43-4.2 10.4-8.2 21-14.5 30.3-6.2 9.3-14.9 17.5-25.7 20.7s-23.6.8-30.8-7.8c-5.9-7.1-7.3-16.8-8.5-26-4-30.2-9.4-61.4-23.3-88.8-2.1-4.1-4.4-8.2-6.9-12.1-6.3-10-6.4-11.4-.6-22 4.8-8.9 9.7-17.7 14.7-26.5 9.7-16.9 19.9-33.6 30.5-50 5.1-7.9 10.8-16.1 18.6-19s16.2.2 23.7 4.4c2.6 1.5 5.2 3 7.6 4.7 15.4 10.5 27.8 25.3 36.9 41.5 1.8 3.2 3.5 6.4 5 9.7 5.8 12.2 9.9 25.3 12.4 38.6 1.4 7.9 2.5 11.7-1.2 18.1z" fill="#ef4136"/></g><g><path d="m468.2 458.3c-2.3 3.6-6.7 4.9-10.9 5.8-42.6 8.8-87.3-5.9-123.4-30.2-1.5-1-3-2.1-4.4-3.1-8.2-6.1-15-13-19.7-22.4-5.7-11.5-5.9-25.8-6.1-38.6-.2-15.2 4.7-36.5 21.9-40.7 7.6-1.9 15.5-2.4 23.3-1.7 4.4.5 8.7 1.3 13.1 2.2 11.9 2.4 23 5.2 34.2 9.4.5.2.9.3 1.4.5 5.3 2 10.4 4.5 15.1 7.7 2.1 1.5 10.8 11.4 12.3 11.4 17.6 22.4 31.2 48 39.9 75.1.5 1.5.9 2.9 1.4 4.4.7 2.4 1.4 4.8 2.1 7.2 1.2 4.4 2.1 9.2-.2 13z" fill="#00a79d"/></g><g><path d="m158.1 122.2c-2.9 2.4-6.8 3.9-11.6 3.9-22.6 0-41.9 13.6-52.1 33.4-10.5 20.4-8.8 40.7-26.8 57.6-16.8 15.8-31.9 28-28.8 53.7 2.8 23.4 20.3 41.1 39.6 52.6 3.5 2.1 5.9 4.7 7.3 7.7-9.8-1.7-19.4-4.3-28.3-8.7-23.8-11.7-40.9-36.1-43.8-62.5s8.6-53.9 29.4-70.4c6.5-5.2 13.9-9.4 19-16 6.3-8.1 8.3-18.7 13-27.8 13.8-26.7 50.3-36.3 78.3-25.6 1.7.7 3.2 1.4 4.8 2.1z" fill="#f96e6e"/></g><g><path d="m270.6 31.9c-42.1 10.9-60.9 71-72.6 107.5-2.5 7.9-8.5 11.9-14.9 12.9-2.1-4.1-4.4-8.2-6.9-12.1-6.3-10-6.4-11.4-.6-22 4.8-8.9 9.7-17.7 14.7-26.5 9.7-16.9 19.9-33.6 30.5-50 5.1-7.9 10.8-16.1 18.6-19s16.2.2 23.7 4.4c2.5 1.5 5.1 3 7.5 4.8z" fill="#f96e6e"/></g><g><path d="m468.2 458.3c-2.3 3.6-6.7 4.9-10.9 5.8-42.6 8.8-87.3-5.9-123.4-30.2-1.5-1-3-2.1-4.4-3.1 4-9.5 15-16.5 26.8-10.2 34.1 18.3 72.3 19.7 110.1 17.5.7 2.4 1.4 4.8 2.1 7.2 1.1 4.4 2 9.2-.3 13z" fill="#02998a"/></g><g><path d="m90.2 361.6c-17.3 19.2-25.7 42.8-25.5 68.6.2 16.3-16.8 21.6-27.9 16 3.6-16.8 8.3-33.3 13.9-49.5 4.8-13.9 10.6-27.9 19.8-39.4 6.6-8.2 14.1-13.1 22.5-17 3.3 6.4 3.4 14.5-2.8 21.3z" fill="#11c9b7"/></g><g><path d="m465 433.8c-9.8 7.6-26.2 6.4-29.3-9-5.1-26.1-16.4-49.1-34.8-68.5-5.1-5.4-6.2-11.6-4.7-17.2.5.2.9.3 1.4.5 5.3 2 10.4 4.5 15.1 7.7 2.1 1.5 10.8 11.4 12.3 11.4 17.6 22.5 31.2 48 40 75.1z" fill="#11c9b7"/></g><g><path d="m323.8 139.5c-3.4 5.8-6.5 11.3-9.2 17.4-3.5 7.9-7 15.8-10.5 23.8-18.5 31.8-36.4 63.7-68.3 86.1-19.8 14-38.6-18.7-19-32.5 1.2-.8 2.3-1.8 3.5-2.6-1.2-5.4-.1-11.3 4.8-16.5 36-38.1 57.1-86.5 77.1-134.2 1.3-3.2 3.2-5.6 5.5-7.5 1.8 3.2 3.5 6.4 5 9.7 5.8 12.2 9.9 25.3 12.4 38.6 1.3 7.5 2.4 11.3-1.3 17.7z" fill="#e02722"/></g><g><path d="m478.7 308.9c-18.7 22.2-49.6 31.2-78.6 30-7.6-.3-15.1-1.2-22.6-2.5-.8-.1-1.7-.3-2.5-.5-13.5-2.6-26.8-6.6-39.9-11-6.4-2.2-12.9-4.5-19.3-6.8l-57.8-61.3c10.1-42.5 31-82.3 60.2-114.8 3.1-3.5 6.3-6.8 9.7-9.9 6.8-6.4 14.4-12 23-15.5 19.6-8 42.6-4.1 61 6.3 24.7 14 42.4 39.8 46.7 67.9 1.4 9.4 1.7 19.7 7.1 27.6.1.2.2.3.3.5 3.2 4.4 7.9 7.5 11.9 11.1 2.4 2.3 4.6 4.8 6.4 7.5 14.3 20.6 10.9 51.7-5.6 71.4z" fill="#f45c58"/></g><g><path d="m484.5 237.5c-9.4 3.6-21.9.8-26.3-11.4-14.9-42.2-52.9-117-110.7-92-7.3 3.2-14.3 1.7-19.5-2 6.8-6.4 14.4-12 23-15.5 19.6-8 42.6-4.1 61 6.3 24.7 14 42.4 39.8 46.7 67.9 1.5 9.7 1.7 20.2 7.5 28.1 3.2 4.4 7.9 7.5 11.9 11.1 2.4 2.2 4.5 4.7 6.4 7.5z" fill="#f96e6e"/></g><g><path d="m381 323.1c-6 16-31.8 16.2-41.4 29.5-7.7 10.6-1.5 23.6 1.1 35.5 8.2 37-25.3 76.6-73.2 86.6-1.6.3-3.2.6-4.9.9-4.1.7-8.4 1.1-12.5 1.2-6.2.2-12.4-.3-18.3-1.8-18.6-4.7-31.1-18.7-35.5-33.2s-2.1-29.6.4-44.4c1.8-10.3 2.6-22.7-8.2-29.1-4.1-2.4-9.1-3.5-13.9-4.7-23.2-6.2-46.6-19.5-41.6-47.5 2.7-14.9 13.6-27.5 27-34.5s29-8.9 44.1-7.9l11-.8 64.3-4.6 9-.6c21.6-5.1 46-6.1 64.3 6.6 11.9 8.2 34.4 32.5 28.3 48.8z" fill="#f45c58"/></g><g><path d="m233.5 464.9c-.7 1-1.4 1.9-2.2 2.7-13 13.4-31.6-14.6-35-25.9-4.4-14.5-2.1-29.6.4-44.4 1.8-10.3 2.6-22.7-8.2-29.1-4.1-2.4-9.1-3.5-13.9-4.7-23.2-6.2-46.6-19.5-41.6-47.5 2.7-14.9 13.6-27.5 27-34.5s29-8.9 44.1-7.9l11-.8c4.1 9.7 1.2 21.6-11.9 23.8-15.5 2.6-49.2 7.8-41.3 31.2 2.6 7.6 9.1 13.3 16 17.3 7 4 14.6 6.7 21.7 10.7 19 10.6 32.3 30.1 37.3 51.2 3.3 14 6.1 44-3.4 57.9z" fill="#f96e6e"/></g><g><path d="m381 323.1c-6 16-31.8 16.2-41.4 29.5-7.7 10.6-1.5 23.6 1.1 35.5 8.2 37-25.3 76.6-73.2 86.6-1.6.3-3.2.6-4.9.9 1.5-2.4 3.8-4.6 7-6.3 18.9-10.1 44.2-26.2 45.6-49.8 1.3-21.8-5-41.5 1.4-63.4 3.8-13 10.7-22.2 18.5-31.2 4.2-4.9 8.7-9.6 13.1-14.9 7.6-9 6.9-17-5-22.2-12.4-5.5-27.9-.8-40.4 2-15 3.4-24.5-9.9-23.4-21.5l9-.6c21.6-5.1 46-6.1 64.3 6.6 11.9 8.2 34.4 32.5 28.3 48.8z" fill="#ef4343"/></g><g><path d="m246.3 254.3c-12.6-2.2-25.3 8.1-28 20.6s3.3 25.9 13.1 34.1c10.8 9.1 26.3 12.7 39.6 8.2 13.4-4.5 23.8-17.4 24.4-31.4.6-14.1-9.3-28.2-23-31.5-10.4-2.5-21.3.9-32.1.8" fill="#6d6e71"/></g><path d="m483.5 223.4c-2.9-2.6-5.8-4.7-7.8-6.8s-3.2-4.2-4.3-7.2c-2.2-6-2.3-14.4-4.3-23.9-8.7-42-44.9-75.9-85.5-78.7-10.8-.8-21.9.8-31.9 5.2-7.3 3.2-13.7 7.7-19.3 12.6 0-1.1-.1-2.4-.2-3.8-.6-6.9-2.1-17.3-7.5-31.7-6.7-18.4-18.6-37.6-34.3-52.5-5.5-5.1-12.3-10.6-20.6-15.2-4.1-2.4-8.7-4.6-14.3-6-5.5-1.4-12.6-1.4-18.7 1.6-6 3-10 7.5-13.3 11.8-8.3 11.1-38.1 63.2-49.4 91.5-2-1.2-3.9-2.4-6.1-3.5-5.4-2.8-11.5-5.3-18.1-6.7-26.1-5.7-55.4 1.7-72.7 24.3-1.6 2-2.8 4.2-4.1 6.4-2.6 4.5-4.2 9.1-5.8 13.4s-3.1 8.3-5 11.7-4.3 6-7.6 8.8-7.2 5.4-11.3 8.7c-4 3.3-8 6.9-11.4 11-6.9 8-12.3 17.3-15.8 27.2-3.8 10.4-5.4 21-5.1 30.7.1 10.4 2.5 20.4 6.3 29.6 7.6 18.3 21 32.5 35.7 40.9 14.8 8.5 29.9 10.9 42 12.2 12.2 1.3 22.3 1 28.6 1.4h.1c.1.1.1.1.3.1.2.1.3.1.5.2h.5c.4 0 .8 0 1.2-.1.8-.1 1.5-.1 2.1-.2 1-.1 1.8-.2 2.6-.3.1.4.2.8.4 1.2 2.2 5.7 6.1 10.5 10.6 14.3 32.4 27.1 60.5 7.6 53.7 44.3-1.1 5.8-2.1 11.8-2.8 18-1 9-.9 18.9 1.7 28.3-2.3 1.4-5.5 3.7-9.7 7.5-3.1 2.8-6.8 6.5-11.3 10.7-14.4 13.7-22.4 18.6-43.9 20.6-23.2 2.4-89.7-1.8-89.5-3.7l.1-1.1.3-2.2c3-17.6 4.4-32.2 13.6-65.1 3.1-11 6.3-21.3 10.1-30.1 3.7-8.9 8-16.5 12.5-22.2 8.8-11.6 17.6-15.5 17-16.7-.2-.4-2.6-.1-6.6 1.8-4 1.8-9.4 5.3-14.9 11-5.5 5.6-11 13.3-15.7 22.5-4.8 9.1-8.8 19.6-12.7 30.5-7.4 21.3-13.2 43.2-18 71.5-.4 2.8-.8 5.7-1.2 8.5l-.6 4.2-.1.5c.1.1.3.1.5.1l1 .1c124.4 16.1 138.2 3 167.2-33.5 2.1-2.6 3.7-4.6 4.9-6.3.2.5.4 1.1.7 1.6 6.1 12.1 16.7 21.6 28.9 26.7 21.5 8.9 49.3 4.3 70.7-5.1 18.4-8.2 33.5-20.6 43.2-34.8 2.4 2 5.6 4.3 9.6 6.9 39.7 26.2 89 32.1 115.2 23.5 2.7-.9 5.9-2.4 8.7-5.2 2.8-2.9 4.2-7 4.4-10.2 1.7-20.7-33.3-93.8-58.4-109.1h.8c10.9-.9 24.1-3 38.6-9.9 50.5-23.7 57.3-83.4 25.5-111.8zm-251.3-186.3c2.8-3.4 5.8-6.1 8.7-7.3 5.2-2.4 12.7.3 19.5 4.6 32 18.5 48.4 52.8 59.2 88.3 1.4 4.4 2.3 7.4 3.1 9.3-6 6.3-11.3 12.7-16.4 19-14.6 18.6-26.7 38-35.5 60.2-5.2 13.3-8.3 25.2-9.6 33.9-.2 0-.5-.1-.7-.1-4.4-.5-8.4-.4-12.8 0-4.3.5-8.8 1.4-13.1 3.1-2.9 1.1-5.6 2.6-8.2 4.4.5-10.7.3-20.8-.5-30.2-.9-10.4-2.5-23-6.9-37.6-4.5-14.6-12-31.2-26-47.1-4.9-5.4-10.8-10.7-17.5-15.3 7.5-10.7 47.1-73.7 56.7-85.2zm229.9 416.1c-.1.9-.2 1-.4 1.4-.2.3-1.1.9-2.5 1.5-18.7 7.1-59.3 7.1-107.6-14.9-4.2-1.9-7.7-3.6-10.5-4.8.4-.7.9-1.3 1.2-2 4.3-7.4 7.4-15.3 8.9-23.5 4.9-28.7-11.4-43.5-2.3-54.5 2.6-3.3 6.7-5.9 11.3-8.2 4.5-2.3 9.5-4.4 14.5-7.3 3.7 1 5.8 1.5 8.3 2.3.6.2 1.9.5 2.7.6 2.9.3 1.5.2 7.2.7 3.4.3 7 .7 11.5.9 2.6.2 5.5.2 8.4.1-2.8 3.4 51.6 82.3 49.3 107.7zm-10.2-130.5c-12.2 6.2-23.9 8.6-33.7 9.9-9.8 1.2-17.8.9-24.7 1.1-3.3 0-6.8.2-8 0-.4-.1-.8-.1-1.2-.2 1.7-1.8 3.1-3.9 4.2-6.2 6.5-15.7 2-30.6-9.6-43-17.2-18-44.9-23.3-69.5-21.1-4.8.4-8.1 1.2-9.7 1.4s-2.5.3-3 .4c-.6.1-1.1.3-1.5.7s-.8.8-.5 1.7 1.6 2.4 4.3 3.1c2.8.7 5.8.8 10.4 1.2 70.3 5.8 78.1 44.9 58.4 56.2-3.8 2.2-8.7 4.2-14 6.8s-11.4 6-16.4 12.1c-15.3 17.8 3 37-1.1 61.2-1.2 6.2-3.7 12.5-7.1 18.5-7.6 13.3-21.6 25.8-39.3 33.9-17.3 7.8-41.5 12.8-59.2 5.7-9.3-3.7-17.5-10.8-22.2-19.8-4.8-8.9-5.8-20-4.8-31.1.4-5.6 1.3-11.3 2.2-17.1 7.2-48.4-31.4-31.8-59.6-53.9-3.7-2.9-6.6-6.3-8.3-10.1-.4-.9-.6-1.9-1-2.9l-.6-3.3c-.3-2.2-.5-4.5-.5-6.7.1-8.9 2.8-17.4 7-24.1 4.3-6.8 10.2-11.7 16.3-14.9 6.2-3.2 12.5-4.9 18.1-6s10.6-1.6 14.7-2c8.2-.7 12.8-1.1 12.8-1.7 0-.5-4.5-1.1-12.9-1.4-4.2-.1-9.3-.1-15.3.6s-12.8 2-20 5.1c-7.1 3.1-14.4 8.5-19.8 16.2-5.4 7.6-9 17.3-9.5 28-.1 2.7 0 5.4.2 8.1.2 1.4.4 2.7.6 4.1.1.4.2.9.4 1.3-.6-.1-1.3-.2-2-.2-.6-.1-1.3-.1-2.1-.2-.3 0-.5-.1-.8-.1-.5-.4-.5-.3-.7-.4s-.3-.1-.4-.1c-7-1.6-16.6-2.2-28.5-4.3-11.7-2.1-25.7-5.4-38.4-13.6-12.7-8.1-24-21.4-30.1-37.6-9.9-27-2.6-55.4 14.7-74.6 2.9-3.4 6.3-6.2 9.7-9 3.6-2.7 7.7-5.4 11.8-8.7 4.1-3.2 8.3-7.6 11-12.4 2.8-4.7 4.6-9.5 6.3-13.7 8.4-23.1 25.5-34.7 49.2-35.9 36.8-1.9 65.3 29.7 77.2 65.5 4.4 13.2 6.3 24.8 7.7 34.7 2 14.7 2.5 27.1 3.6 38.4-1.1 1.7-2.2 3.5-3 5.4-6.4 14.7-2.2 34.1 11.6 46.4 19.9 17.7 51.2 17.3 67-4.4 2.9-4 4.5-7.7 5.3-10.7 1.8-6.1 1.1-9.6.4-11.2-.8-1.7-1.8-1.8-2.8-1.9-1.1-.1-2.1 0-3.1 1.3-1.1 1.2-2 3.6-4.4 7.6-1.2 2-2.8 4.4-5.2 6.9-24.9 26.1-65.5-2.3-55.7-28.7 5-12.7 19.2-17.1 32.9-17.1 6.5.1 12.8 2.2 17.8 5.2 5.1 3 8.9 6.9 11.5 10.7 5.1 7.6 5 14.1 6.3 14.1.5 0 1.1-1.5 1.4-4.5.2-3-.3-7.4-2.4-12.4-2.2-5-6-10.5-11.8-14.9-5.1-4-11.6-7.2-19.1-8.6 2.8-7.4 6.1-17.5 13-31.8 9.9-20.5 22-38.3 37.5-56.4 5.7-6.6 11.8-13.5 18.4-19.6s13.9-11.6 22.1-14.8c8.1-3.2 17.2-4.3 26.2-3.4 34.7 3.4 65 33.5 71.8 69.1 1.7 7.7 1.5 16.5 4.6 25.9 1.5 4.6 4.3 9.4 7.6 12.8s6.4 5.7 8.8 7.8c22.6 19.7 20.1 66.6-21.5 87.6z" fill="#202020"/></g></svg>