<svg id="Layer_1" enable-background="new 0 0 136 136" height="512" viewBox="0 0 136 136" width="512" xmlns="http://www.w3.org/2000/svg"><g><g><path d="m64.54308 31.21946-15.75 45.5c-8.71002-4.93994-14.88-13.78003-17.22003-23.47998-1.33997-5.54004-1.41998-11.35986-.01996-16.8999.87-3.43018 2.23999-6.70996 3.79999-9.88013 3.59003-7.27002 8.26001-14 13.81-19.90991 1.07001-1.15015 2.89001-1.16992 3.97998-.03003.76001.79004 1.51001 1.59009 2.24005 2.40991 2.09998 2.33008 4.06995 4.78003 5.68994 7.46997 2.65003 4.44996 4.27002 9.71021 3.47003 14.82007z" fill="#f9698c"/></g><g><path d="m78.95306 30.32933c-.06.28027-.13.56006-.20996.84009-.13.42017-.29004.83008-.53003 1.19019-1.35999 2-4.35999 1.63989-6.70001 1.0498-1.33997-.33984-2.73999-.70996-3.75995-1.6499-.84003-.79004-1.32001-1.87988-1.77002-2.94995-1.62-3.81006-3.22998-7.62012-4.84998-11.44019-.07001-.16992-.15002-.34985-.22003-.52002-2.13-5.02002 2.71002-9.11987 6.94-11.45996.48999-.27979 1.02002-.52979 1.58002-.56006.65997-.02979 1.28998.27002 1.87.58008 1.14996.62012 2.46997 1.4502 3.76996 2.43994.98004.75 1.95001 1.59009 2.82001 2.49023 0 0 0 .00977.01001.00977.40002.40015.77002.82007 1.10999 1.24023 1.16003 1.41992 2.03003 2.95996 2.33002 4.52002 0 .02002.01001.03979.01001.05981.73997 4.03003-1.52004 10.22998-2.40004 14.15992z" fill="#f25a78"/></g><g><path d="m94.80309 71.44944c-.35999.26001-.72003.52002-1.08002.77002l-4.22997-11.60009-10.67999-29.25-.07001-.19995-.35999-.97998c.98999-4.67993 1.97998-9.34985 2.96997-14.02002.20001-.94995.40002-1.90991.60999-2.85986.20001-.98022.41003-1.96021.62-2.94019.09003-.43994.23999-.94995.66003-1.11987.34998-.13989.73999.02002 1.07996.17993 9.90002 4.68994 18.09003 12.8501 22.90002 22.68018.22998.45996.44.91992.65002 1.38989.21997.47998.42999.96997.63 1.45996 1.25995 3.08008 2.20996 6.32007 2.38 9.65015.56001 10.86986-7.2 20.39989-16.08001 26.83983z" fill="#f9698c"/></g><g><path d="m97.7431 64.28953c-.12 2.59009-1.39001 4.97998-2.88 7.07983-.02002.03003-.04004.05005-.06.08008-6.57001 9.22998-16.10004 13.6001-26.29999 12.43018-2.05005-.22021-4.12-.68018-6.21002-1.36011-4.46002-1.45996-8.77002-3.61011-11.94-6.55005-4.46002-4.10986-6.65997-9.78003-3.79999-17.27002 4.21997-11.04004 10.59998-21.23999 18.64996-29.85986.82001-.87012 1.71002-1.75 2.76001-2.26025.42004-.19971.85999-.33984 1.33002-.38989 1.5-.16992 2.94.59009 4.22998 1.38013 1.71002 1.0498 3.5 2.32983 5.29004 3.7998 4.23999 3.4502 8.50995 7.9502 11.92999 12.90015 4.35998 6.32983 7.32 13.39989 7 20.02001z" fill="#f9698c"/></g><g><path d="m60.96307 83.1096c-.03998.30981-.09998.59985-.14996.87988-1.05005 5.21997-4.01001 6.08008-9.29004 8.40991-5.56 2.46021-11.95001 2.54004-17.88995 1.21997-3.31006-.72998-6.57001-1.90991-9.42004-3.72998-.01001 0-.01001 0-.01001 0-1.19-.75-2.31-1.60986-3.32996-2.59985-3.67999-3.59009-5.76001-8.48999-7.41003-13.37012-1.14996-3.40991-2.13-6.86987-2.94-10.36987-.57001-2.43994-1.06-4.90015-1.45996-7.37012-.17999-1.08984 1.02997-1.86987 1.92999-1.23999 4.17999 2.94019 7.95001 6.46997 12.10998 9.44995 4.23999 3.03003 9.14001 5.55005 14.27002 5.9502.82996.06982 1.67999.07983 2.51996.02979z" fill="#f25a78"/></g><g><path d="m126.44311 58.98948c-.10004 11.58007-5.70001 23.22998-15.51001 29.33007-7.85004 4.86987-18.22003 5.48999-26.54999 1.81006-3.10004-1.3501-5.92004-3.32007-8.22003-5.88013 5.22998-4.07007 8.59003-12.29004 22.84998-16.72998 8.91003-1.13989 17.52002-4.60009 24.76001-9.90991.41003-.30005.87-.38013 1.29004-.30005.74999.1399 1.38995.78981 1.38 1.67994z" fill="#f25a78"/></g><g><path d="m77.41308 120.72947c-.02002 2.23999-.08002 4.55005-1.15997 6.59985-1.07001 2.0503-3.42004 3.8003-6.09003 3.74024-2.73999-.06006-5-1.99023-5.91998-4.15015-.17999-.43994-.33002-.87988-.42999-1.32983-.42999-1.77002-.31-3.64014-.21002-5.47021.59998-10.70996.66998-21.43994.20001-32.1499-.08002-1.92993.06-2.92993-.06-4.85986 2.21997.6499 4.54999 1.0498 6.89001 1.18994 1.10999.06982 2.35999.16992 3.41998-.01001.46997-.07007.89996-.19019 1.26996-.40991.31006-.16016.58002-.38013.78003-.68018.02002.19995.03003.41016.04999.61011.97003 12.28978 1.39001 24.59984 1.26001 36.91991z" fill="#a97c50"/></g><g><path d="m55.38311 8.92942c-10.77002 10.59009-17.79004 24.47998-19.38 39.63013-.29004 2.71997-2.28003 4.28003-4.43005 4.67993-1.33997-5.54004-1.41998-11.35986-.01996-16.8999.87-3.43018 2.23999-6.70996 3.79999-9.88013 3.59003-7.27002 8.26001-14 13.81-19.90991 1.07001-1.15015 2.89001-1.16992 3.97998-.03003.76.79004 1.51 1.59009 2.24004 2.40991z" fill="#fc7ca0"/></g><g><path d="m71.30309 5.4094c1.14996.62012 2.46997 1.4502 3.76996 2.43994-4.00995 1.64014-7.16998 4.69019-10.12 7.97021-1.16998 1.29981-2.53998 1.71997-3.81995 1.54981-.07001-.16992-.15002-.34985-.22003-.52002-2.13-5.02002 2.71002-9.11987 6.94-11.45996.49-.27978 1.02003-.52978 1.58003-.56005.65997-.02979 1.28998.27002 1.86999.58007z" fill="#fc7ca0"/></g><g><path d="m77.90307 10.34935c.40002.40015.77002.82007 1.10999 1.24023-.47999-.37012-.84998-.79004-1.10999-1.24023z" fill="#fc7ca0"/></g><g><path d="m107.22308 32.1096c-2.15997 1.22998-5.16998 1.12988-6.91998-1.52002-4.75-7.2002-10.96002-12.95996-18.34003-17.28003.20001-.98022.41003-1.96021.62-2.94019.09003-.43994.23999-.94995.66003-1.11987.34998-.13989.73999.02002 1.07996.17993 9.90002 4.68994 18.09002 12.8501 22.90002 22.68018z" fill="#fc7ca0"/></g><g><path d="m69.71307 34.67942c-9.95996 10-15.98999 23.11011-16.88 37.21997-.12 1.94995-1.13995 3.31006-2.47998 4.07007-4.46002-4.10986-6.65997-9.78003-3.79999-17.27002 4.21997-11.04004 10.59998-21.23999 18.64996-29.85986.82001-.87012 1.71002-1.75 2.76001-2.26025 2.85003 1.31006 4.61999 5.2102 1.75 8.10009z" fill="#fc7ca0"/></g><g><path d="m37.3731 70.33958c-.25 1.62988-1.36005 3.02002-3.57001 3.35986-9.5 1.47998-17.01001-3.71997-23.28003-10.1499-.57001-2.43994-1.06-4.90015-1.45996-7.37012-.17999-1.08984 1.02997-1.86987 1.92999-1.23999 4.17999 2.94019 7.95001 6.46997 12.10998 9.44995 4.24 3.03003 9.14003 5.55005 14.27003 5.9502z" fill="#fc7ca0"/></g><g><path d="m60.8131 83.98948c-1.05005 5.21997-4.01001 6.08008-9.29004 8.40991-5.56 2.46021-11.95001 2.54004-17.88995 1.21997-3.31006-.72998-6.57001-1.90991-9.42004-3.72998 10.29004.97021 21.96002 1.77002 29.59003-6.48999 2.32-2.51001 5.41998-1.53979 7.01.59009z" fill="#e8496f"/></g><g><path d="m94.80309 71.44944c-6.57001 9.22998-16.10004 13.6001-26.29999 12.43018.39996-.47021.92999-.88013 1.60999-1.22021 6.02002-2.96997 12.64001-6 16.71997-11.56006 2.52002-3.42993 3.09003-6.93994 2.66003-10.47998-.42999-3.43994-1.79004-6.90991-3.23004-10.37988-1.46997-3.56006 1.41003-5.91016 4.48004-5.96997 2.06-.04004 4.20001.95996 5.16998 3.30981 1.60999 3.91016 2.90997 7.86011 3.44 11.80029 4.92999-5.98022 8.28998-13.2002 6.97998-21.22021-.32001-1.94995.39001-3.56006 1.54004-4.65991.21997.47998.42999.96997.63 1.45996 1.25995 3.08008 2.20996 6.32007 2.38 9.65015.56002 10.86986-7.19999 20.39989-16.08 26.83983z" fill="#ea476e"/></g><g><path d="m126.44311 58.98948c-.10004 11.58007-5.70001 23.22998-15.51001 29.33007-7.85004 4.86987-18.22003 5.48999-26.54999 1.81006 7.51996-2.38013 15.25-4.5 21.73999-9.09009 3.46997-2.46021 7.10999-5.27002 10.01996-8.38013 3.24005-3.45996 4.53003-7.60986 5.82001-12.06005.52002-1.80981 1.72003-2.85986 3.10004-3.28979.74999.13989 1.38995.7898 1.38 1.67993z" fill="#ea476e"/></g><g><path d="m77.41308 120.72947c-.02002 2.23999-.08002 4.55005-1.15997 6.59985-1.07001 2.0503-3.42004 3.8003-6.09003 3.74024-2.73999-.06006-5-1.99023-5.91998-4.15015-.17999-.43994-.33002-.87988-.42999-1.32983 6.65997 0 8.28998-7.67017 8.67999-13.17017.57001-7.96997.29999-15.92993-.60999-23.85986-.25-2.16016.72998-3.59009 2.16998-4.27002.39001-.19019.82001-.33008 1.26996-.40991.27002-.04004.55005-.07007.83002-.07007.97003 12.28979 1.39001 24.59985 1.26001 36.91992z" fill="#9b6d45"/></g><path d="m125.542 55.36302c-.78827-.1814-1.61646-.06421-2.34167.27368-.36597.18042-.71259.43628-1.05798.68237l-.54712.39355c-1.31665.92432-2.57782 1.74927-3.79614 2.45605-4.15228 2.45736-8.28575 4.1936-12.80798 5.64185.95502-1.02417 1.95917-2.22852 2.95917-3.67627 1.58325-2.28223 3.19751-5.19922 4.15411-8.93677.50983-1.85376.78265-3.91772.81543-6.11768.07355-2.19678-.24921-4.5918-.86633-6.96509-.67657-2.62427-1.80139-5.4292-3.27533-8.32861-1.48151-2.89551-3.37073-5.85107-5.63403-8.63672-4.53009-5.56787-10.5849-10.39453-16.83514-13.33301-.27881-.11572-1.07104-.54102-1.66193-.771-.62543-.22632-1.19934-.29761-1.77911-.11304-1.22998.42456-1.52289 1.73706-1.73395 3.03052-.08002.45386-.15723.89233-.23553 1.33667-.20801-.35938-.43994-.74072-.73029-1.1731-.89709-1.3042-2.15729-2.99683-4.30255-4.9248-.59088-.52466-1.30682-1.0957-2.15778-1.6438-.4043-.28979-.9032-.52588-1.37384-.7937-.4657-.23535-1.03876-.5249-1.85315-.69775-.40302-.08203-.87976-.11621-1.35431-.05273-.46747.06128-.87054.20068-1.20966.35156-.69147.31738-1.0899.62549-1.5589.93481-.9079.63623-1.74512 1.34497-2.47821 2.0791-1.47308 1.4668-2.50262 3.03784-3.07111 4.24365-.24146.51782-.39941.96045-.4881 1.31543-.70166-.96777-1.45416-1.9502-2.30585-2.9624-.57611-.68481-1.185-1.38062-1.82477-2.08862-.32159-.35059-.64899-.70776-.9823-1.07104l-.50732-.54346-.13434-.14233-.23145-.2229c-.15192-.15137-.33374-.27515-.50647-.40723-1.44336-1.00903-3.50879-1.12793-5.11816-.14819-.39392.22168-.78845.5752-1.05811.85864-.73768.7953-.32.33794-1.74384 1.90991-8.25734 9.29068-17.05782 23.84727-17.026 36.95142.00555 4.18726.75433 8.29956 2.01447 12.01367 1.99377 5.91772 5.24762 10.74023 8.44952 14.09473-1.2406-.18604-4.49066-.42432-8.57763-2.39771-2.62097-1.22803-5.50623-3.10205-8.45959-5.50977-1.05406-.85188 3.78156 3.14295-10.24139-8.44824l-.93335-.42065c-.15356-.05981-.31879-.15942-.46405-.18677-.14185-.03003-.2937-.04248-.44855-.04858-.6275-.0144-1.32861.23657-1.82959.69287-.25195.22559-.46258.49268-.60718.77539-.15051.28223-.24249.54443-.22186.93384-.01367.71997-.08673 1.40771.11157 2.28174.17542 1.01587.35138 2.0354.52759 3.05615 6.64859 35.36688 29.89423 42.62849 47.99176 31.01904 1.97052-1.25708 3.39783-2.74072 4.24255-4.10425.83594-1.37744 1.17999-2.5437 1.33887-3.41162.00165-.00879.0022-.01538.00385-.02417.47015.14648.93884.28857 1.40363.41382-.27557 3.58154-.34247 12.47021-.70502 22.83862-.1217 3.375-.28021 6.90503-.51233 10.44946-.09637 1.75146-.30737 3.57813-.1991 5.5708.05713.99097.2002 2.01758.49933 3.03467.29163 1.01221.78784 2.0647 1.43274 2.93042.63947.88745 1.45038 1.66064 2.40308 2.26929.96051.59375 2.08521 1.01416 3.25977 1.09863 1.17249.10718 2.33905-.1272 3.34967-.54761 1.0094-.43066 1.87836-1.03931 2.60187-1.73853 1.4635-1.38599 2.33295-3.25293 2.72223-4.87891.41241-1.65747.48743-3.17456.52307-4.5061.10785-9.38525.20892-16.41968.06964-21.79785-.09528-3.90884-.33077-9.29774-.9776-13.17212.84033.90234 2.03809 1.9939 3.69598 3.11475 1.92596 1.26343 4.4303 2.48047 7.38745 3.30835 2.95264.82764 6.35577 1.24316 9.91663 1.01465 3.55646-.2229 7.27167-1.09131 10.7381-2.69922 3.48608-1.60962 6.5592-3.99683 9.14008-6.68018 5.17267-5.42749 7.9151-12.125 9.03485-17.39209.31201-1.34302.49586-2.66553.65003-3.93921.05835-.63965.11554-1.26733.17169-1.88306.02618-.74512.05182-1.47559.0769-2.19165.00658-1.84494-1.32729-3.33004-2.91964-3.64157zm-42.97583-39.41455c.34705-1.39795.7113-2.86499 1.08881-4.38599.10236-.24878.09503-.59399.39294-.65576.14124-.00708.26697.07764.37823.14575.15039.08887.09772.07617.56653.3252 5.71661 3.08228 11.1629 7.8169 15.20764 13.09863 4.02985 5.27783 6.70734 11.10254 7.91235 15.66577.53699 2.09106.80774 4.03052.75574 5.90356-.01648 1.86157-.22119 3.60034-.63342 5.1792-.75745 3.17847-2.07904 5.74609-3.40753 7.82886-1.32556 2.09375-2.6875 3.71167-3.8728 5.02808-1.16824 1.31706-2.21056 2.33711-3.47095 3.57178.3114-.68652.59747-1.47046.77399-2.39258.16437-.77075.14331-1.56885.16656-2.41162.00629-.42334.02319-.8606.01862-1.30811-.04388-.44409-.08899-.89966-.13513-1.36621-1.12896-11.52036-10.49205-23.46846-19.47107-30.77514.41058-1.06641 1.03064-3.15845 1.79559-5.98706.57337-2.12012 1.22748-4.65039 1.9339-7.46436zm12.29333 55.42578h-.00006c-.22864-.16357-.49963-.24976-1.33301.44141-.41998.3418-.94995.90283-1.78802 1.64771-.8053.77148-1.88055 1.76685-3.38782 2.92383-1.48401 1.18237-3.46149 2.47681-6.0871 3.64258-1.30896.59375-2.8089 1.0752-4.47168 1.50366-1.68433.32666-3.5304.67188-5.57104.6377-9.28096.17149-24.6602-6.23122-24.88647-16.54639-.02612-1.79492.23114-3.77612.98871-5.8103 4.20201-11.81855 12.88559-24.69198 18.90076-30.54492.93213-.92969 1.79706-1.44678 2.58698-1.41431.85809-.00073 2.02094.57275 3.20465 1.33105l1.76715 1.12891c.57104.40771 1.1405.81445 1.70807 1.21973 8.91945 6.73455 18.42242 17.88938 20.24585 28.85034.0744.43481.14697.85913.21771 1.27295.02399.41699.04736.82324.07007 1.21826.03894.79419.12091 1.54785.03534 2.20801-.13403 1.34985-.54504 2.49707-.92517 3.41016-.15143.34937-.29333.65698-.42804.94312-.34143.36377-.58545.65063-.7395.88281-.37909.57275-.26788.82251-.1076 1.05347.00006 0 .00012.00024.00018.00024h.00004zm-29.13128-62.78686c.74359-.50269 1.54614-.97876 2.37701-1.39746.41052-.198.88019-.43726 1.13416-.49683.30573-.06665.23169-.01929.39301.02856.15601.05981.46942.21851.83319.45361.33838.2417.68176.41943.9928.67773.63489.46582 1.20831.95361 1.7049 1.39551 1.81415 1.62573 3.06311 3.10034 4.03595 4.17285.96765 1.08643 1.64459 1.8208 2.1709 2.27344.33453.29443.60284.46314.83527.55957-.43707 2.54468-.82013 4.86157-1.12396 6.83032-.40912 2.65039-.67926 4.68823-.76575 5.89038-.56421-.42749-1.12976-.85596-1.69708-1.2854l-1.86951-1.26831c-.61688-.4209-1.29803-.8335-2.078-1.20679-.77759-.36499-1.69043-.68408-2.73407-.73389-1.04962-.06055-2.13489.2395-2.98163.69238-.36237.18994-.68628.40332-.99146.62549-.00897-.14355-.01233-.27539-.02496-.42651-.26068-2.86646-1.33344-7.2373-4.87842-12.4104-.07007-.10327-.1554-.21069-.22729-.31445.83854-.57714 2.50895-2.47679 4.89494-4.0598zm-33.46967 35.53589c.45412-12.25101 9.40581-26.03054 16.6897-34.32495.3736-.41821.74109-.82959 1.1026-1.23413l.54425-.5962c.11041-.10791.11951-.12573.19574-.16992.23993-.15649.57666-.14185.78766-.00269.02148.02686.05701.03247.07776.06226l.03967.03296.12201.12573.5025.52197c.87823.92641 1.64909 1.72906 2.74524 2.97339 1.11615 1.26685 2.09186 2.46777 2.92944 3.61426 3.36615 4.57691 4.51788 8.23364 5.0979 10.68579 1.38935 6.20824-9.44464 7.48554-18.58423 32.63647-.91162 2.41479-1.29742 4.95679-1.24359 7.34277.05524 2.198.68622 4.29614 1.53418 6.16675.47089.94092 1.01379 1.81079 1.60437 2.61646-.97345-.8125-2.17578-1.87061-3.48944-3.21655-3.39911-3.43018-7.27557-9.09399-9.26874-16.12939-1.00024-3.49927-1.52221-7.30542-1.38702-11.10498zm25.82343 42.04174c-.7746.92529-1.89429 1.91284-3.63159 2.87036-17.41372 9.55348-36.04046 3.524-43.44489-31.26538-.02246-.16577-.17133-.39014-.04803-.58154.0578-.08691.16467-.13892.26404-.12061.8115.19419 10.73042 9.32185 18.88409 12.29736 2.87756 1.0813 5.40552 1.4165 7.13147 1.40796 1.22723-.00684 2.04584-.14136 2.42096-.2666.73401.74805 1.4632 1.42017 2.17133 2.00684 17.52139 14.71217 20.29962 8.62924 16.25262 13.65161zm16.79309 13.37549c-.06647 5.28662-.28198 12.37158-.38855 21.68286-.05115 2.43286-.31787 5.03394-1.96588 6.63379-.81598.81836-1.8681 1.32935-2.87616 1.25732-1.0083-.03174-2.13293-.68262-2.93939-1.73389-.41431-.53003-.70581-1.08618-.93195-1.76782-.22473-.67798-.36163-1.42212-.43542-2.21167-.1496-1.57715-.03064-3.3418.00116-5.16211.08813-3.60303.08057-7.17041.01825-10.57275-.19891-10.22803-.84076-18.96387-1.37659-22.66431 2.93542.72021 5.74774 1.03125 8.31726.9209.99188-.00977 1.9361-.10571 2.85034-.2356-.0542.66455-.09534 1.4917-.11951 2.54883-.06512 2.42579-.078 6.00318-.15356 11.30445zm49.51013-39.83398-.01678.40503c-.01093.27148-.02191.54565-.03296.82251-.05316.552-.10736 1.11475-.16254 1.68799-.14368 1.14185-.30792 2.32886-.59009 3.53394-1.00488 4.72803-3.36249 10.76147-7.81281 15.71021-2.21356 2.44092-4.88068 4.66675-7.87177 6.19385-2.9964 1.54077-6.28931 2.48462-9.50433 2.86182-5.83669.69469-11.53072-.42082-16.24414-2.82104-2.01465-1.05859-3.47809-2.12646-4.46417-2.87549.32922-.07227.66144-.14404.97913-.21875 1.89105-.55054 3.5769-1.17627 5.02881-1.91748 2.91254-1.46313 5.01257-3.06372 6.52075-4.50659 1.53271-1.42114 2.54169-2.64502 3.23572-3.61719.72754-.94775 1.09888-1.68359 1.33966-2.19189.32996-.71411.3418-1.03027.24261-1.21362.15338.12305.38196.18262.85199.05371.67566-.18506 1.85638-.72485 3.8736-2.16846.45123-.32593.95221-.70532 1.48645-1.13525.55701-.00513 1.24689-.04712 2.12299-.15015 2.01892-.25342 5.01727-.78174 9.22778-2.31763 2.09949-.7749 4.49365-1.81909 7.1391-3.29614 1.32849-.72754 2.70465-1.5874 4.13934-2.56226l.48425-.33765.00769-.00024c.00671-.00122.01343.00049.01825.00439.00757.01245.01141.01929.00494.02808z" fill="#202020"/></g></svg>