<svg id="Layer_1" enable-background="new 0 0 512 512" height="512" viewBox="0 0 512 512" width="512" xmlns="http://www.w3.org/2000/svg"><g><g><path d="m482.8 295.2c-7 18.6-21.7 36.1-41.4 38.8l.5.5 7.2 8.5.6 1.5c6.3 16.2.1 35-9.4 49.8-6.2 9.6-13.9 18.4-23 25.3-23.3 17.5-53.7 21-82.9 23.1-11.6 17.8-29.6 31.5-50.1 37.6-23.1 6.9-48.9 4.1-70-7.5-11.3-6.2-21.2-14.9-31.4-22.9l5.9-5c-6.5-.8-13-1.6-19.4-2.7-16.7-2.7-33.2-6.8-48.5-13.9-21.2-9.8-40.3-26.1-49.5-47.5-2.3-5.5-4-11.1-5.2-16.9-2.3-10.9-3-22.1-3.6-33.3-.1 0-.1-.1-.2-.2-2.8-2.5-5.6-5.1-8.2-7.7-.5-.5-1.1-1.1-1.6-1.6-.6-.6-1.3-1.3-1.9-2-2-2.1-3.9-4.2-5.7-6.4-.7-.8-1.3-1.6-2-2.4-1.1-1.4-2.1-2.7-3.2-4.1-.6-.9-1.3-1.8-1.9-2.8-.8-1.1-1.5-2.2-2.2-3.4-.7-1.1-1.4-2.3-2-3.4-.6-1.2-1.3-2.4-1.9-3.5-1.2-2.4-2.3-4.8-3.2-7.3-.5-1.2-.9-2.5-1.4-3.8-6.3-19.4-4.3-41 3.5-59.9.5-1.2 1.1-2.5 1.7-3.7.4-.9.8-1.8 1.3-2.7.6-1.2 1.2-2.3 1.8-3.5.7-1.2 1.4-2.5 2.1-3.8.3-.5.6-.9.9-1.4.9-1.4 1.7-2.7 2.7-4.1.9-1.4 1.8-2.7 2.8-4 .2-.1.3-.3.4-.5 1-1.3 2-2.6 3.1-4 .2-.2.3-.4.5-.6 1.1-1.3 2.2-2.6 3.4-3.9 1.2-1.4 2.4-2.7 3.7-4 0 0 0 0 .1-.1 1.8-1.8 3.6-3.7 5.5-5.4-1-3.7-1.7-7.4-2-11.1-1.4-20.1 7.5-40.5 18.1-58.1 3.5-5.9 7.3-11.8 11.7-17.1 24.8-30 70.6-40.1 105.8-23.6.6.3 1.2.5 1.8.8l-1.8-1.2-11.7-7.9c1.8-2.4 3.8-4.7 5.8-6.9 2.6-2.8 5.4-5.4 8.3-7.8 18.1-14.7 42-22.3 65.2-19.8 30 3.2 57.7 23 70.4 50.3l3.3-3.8c6.7-4.5 15.5-4.4 23.5-3.2 26.3 3.9 50.9 17.8 67.8 38.4 7.3 8.8 13.1 18.9 17.1 29.6 3.2 8.2 5.3 16.8 6.4 25.6.9 6.3 1.1 12.6.8 18.9l1.9.9c31.5 26.1 44.1 72.7 29.7 110.8z" fill="#be1e2d"/></g><g><path d="m271.3 323.1c-70.3 13.4-125.7-84.1-57.4-125.2 29.6-17.8 73.5-11.9 96.8 12.3s23.9 63.3 2.1 88.7c-10.2 12-25 21.1-41.5 24.2z" fill="#e6e7e8"/></g><g><path d="m194.1 70.9c-.9 10.6-9.9 20.9-23.3 17.4-23.4-6.1-48.8-7.4-68.6 8.7-16.7 13.5-38.3 37.9-38.7 60.2-.1 5.4-2.1 9.6-5 12.6-1.4-20.1 7.5-40.5 18.1-58.1 3.5-5.9 7.3-11.8 11.7-17.1 24.8-30.1 70.6-40.2 105.8-23.7z" fill="#ce4152"/></g><g><path d="m194.1 70.5-11.7-7.9c1.8-2.4 3.8-4.7 5.8-6.9 4.6 3.8 6.3 9.3 5.9 14.8z" fill="#ce4152"/></g><g><path d="m66.1 364.1c-2.3-10.9-3-22.1-3.6-33.3-.1 0-.1-.1-.2-.2-2.8-2.4-5.6-5-8.2-7.7-.5-.5-1.1-1.1-1.6-1.6-.6-.6-1.3-1.3-1.9-2-2-2.1-3.9-4.2-5.7-6.4-.7-.8-1.3-1.6-2-2.4-1.1-1.4-2.1-2.7-3.2-4.1-.6-.9-1.3-1.8-1.9-2.8-.8-1.1-1.5-2.2-2.2-3.4-.7-1.1-1.4-2.3-2-3.4-.6-1.2-1.3-2.4-1.9-3.5-1.2-2.4-2.3-4.8-3.2-7.3-.5-1.2-.9-2.5-1.4-3.8-6.3-19.4-4.3-41 3.5-59.9.5-1.2 1.1-2.5 1.7-3.7.4-.9.8-1.8 1.3-2.7.6-1.2 1.2-2.3 1.8-3.5.7-1.3 1.4-2.5 2.1-3.8.3-.5.6-.9.9-1.4.9-1.4 1.7-2.7 2.7-4.1.9-1.4 1.8-2.7 2.8-4 .2-.1.3-.3.4-.5 1-1.3 2-2.6 3.1-4 .2-.2.3-.4.5-.6 1.1-1.3 2.2-2.6 3.4-3.9 1.2-1.4 2.4-2.7 3.7-4 0 0 0 0 .1-.1 6.7 5.3 10.5 14.4 5.7 24.1-18.6 37.5-30.3 93.6 13.1 118.9 17 10 7.6 33.4-7.8 35.1z" fill="#ce4152"/></g><g><path d="m443.9 139.4c-26.6-29.6-59.2-53.1-100.8-50.7-13.2.8-19.1-10-18-20.2-33.1-16.7-70.5-18.2-105.9-4-13.4 5.4-22.2-5.3-22.5-16.7 18.1-14.7 42-22.3 65.2-19.8 30 3.2 57.7 23 70.4 50.3l3.3-3.8c6.7-4.5 15.5-4.4 23.5-3.2 26.3 3.9 50.9 17.8 67.8 38.4 7.1 9 12.9 19 17 29.7z" fill="#ce4152"/></g><g><path d="m252.7 184.1c-35.7 10.4-74.4 37-69 79.4 1.3 10.1 7.7 18.8 18.8 18.8 9.2 0 20.1-8.7 18.8-18.8-3.2-25.3 20.6-37 41.4-43.1 23.3-6.8 13.4-43.2-10-36.3z" fill="#efefef"/></g><g><path d="m449.6 344.6c6.3 16.2.1 35-9.4 49.8-6.2 9.6-13.9 18.4-23 25.3-23.3 17.5-53.7 21-82.9 23.1-11.6 17.8-29.6 31.5-50.1 37.6-23.1 6.9-48.9 4.1-70-7.5-11.3-6.2-21.2-14.9-31.4-22.9l5.9-5c-6.5-.8-13-1.6-19.4-2.7 3.3-7.6 10.9-12.7 21-9.2 31.7 11.1 67.8 25 101.3 13.4 15.3-5.3 25-14.5 32.9-28.4 6.9-12.2 13.5-24.7 25.9-32.2 28.8-17.4 64.9-2.9 90.3-30.1 0 0 .1-.1.1-.1.9-1.4 2-2.6 3.1-3.6 2.1-2.3 4-4.8 5.7-7.5z" fill="#aa1729"/></g><g><path d="m482.8 295.2c-7 18.6-21.7 36.1-41.4 38.8l.5.5c-9.4-7.1-12.6-23.7.3-32.4 41-27.6 21.2-85.6 7-122.2-2.3-6-1.5-11.1 1.2-14.9.9 6.3 1.1 12.6.8 18.9l1.9.9c31.5 25.7 44.1 72.3 29.7 110.4z" fill="#aa1729"/></g><g fill="#202020"><path d="m484 216.6c-5.9-11.2-13.5-19.9-19.7-25.2-1.6-1.3-3-2.5-4.3-3.4-1.4-.9-2.6-1.6-3.6-2.2-2-1.1-3.2-1.5-3.6-1.1-.3.4.2 1.6 1.5 3.4.6.9 1.5 2 2.4 3.1.9 1.2 1.9 2.7 3.1 4.2 4.5 6.2 10.1 15 14.2 25.6 12.3 30.5 9.5 70.3-12.5 94.6-5.6 6.1-10.4 8.9-13.6 11-2.4 1.5-4.1 2.5-5.1 3.3-6.5-4.1-17.7-10.1-36.9-19.4-12.7-6.2-33.1-15.4-50.3-22.9-9.2-3.9-17.5-7.4-23.5-9.4 3.8-11.1 5.3-24.9 2-40-1.7-7.6-4.9-15.4-9.7-22.8 5.4.1 16-1.1 28.1-3.3 17.3-3 37.6-7.9 50.2-11.8 23.1-7.1 34.5-12 40-15.3 2.7-1.7 4-3 4.5-4.1 1.1 2.4 2.3 2.7 3.7 2.8 2 .1 4.2-.1 5.5-9.2.5-4.6.7-11.5-1.1-21.5-8-41-38.2-71.6-75.6-82.1-6.1-1.8-12.1-2.8-17.6-3.3-5.4-.6-10.6-.5-14.8.2-4.3.7-7.6 2.3-9.5 3.7-2 1.4-2.7 2.7-2.4 3.1.6.9 5-1.3 12.3-.8 3.7.2 8 .9 12.9 2.3 4.9 1.3 10.2 2.9 15.5 5.1 30.2 12.4 54.7 37.2 65.3 75 2.3 8.6 3.2 14.7 4.1 18.8.1.3.1.5.2.7-1-.8-2.8-1.2-6.5-.8-6.4.7-18.1 3.9-40.9 10.9-12.5 3.8-32 10.3-48.5 16-12.5 4.3-23.1 8.3-27.3 10.8-5.7-8-13.6-15.2-23.1-20.7-10.6-6-24-10.5-38.8-11.5-14.7-1.1-31.2 1.3-46.1 9.1-7.4 3.9-14.1 8.9-20 15.1-12.3 12.9-18.4 29.2-17.6 46.7 1.1 22.9 13.8 44.8 31.2 58.4 4.1 3.3 8.4 6.1 12.7 8.3-3.4.9-8.3 8.2-20.5 40.9-8.7 23.2-24.1 74.3-20.1 75.7s25.8-47.1 34.4-70.3c11.5-30.7 13.1-40.2 11.6-43.7 4.6 2 9.2 3.4 13.5 4.4 9.8 2 18 1.7 23.4.7 5.4-.9 8.3-2.1 8.2-2.6-.1-.6-3.1-.5-8.4-.5s-12.9-.7-21.7-3.4c-4.4-1.5-9.1-3.3-13.7-6-4.7-2.6-9.4-5.9-13.9-10-9-8-16.9-19.1-21.3-32-4.5-12.8-5.1-27.6.3-40.2 5.2-12.6 16.1-22.8 28.4-28.9 12.2-6 26-7.8 38.4-6.7 12.5 1 23.7 5 32.3 9.8 15.8 9.1 24.6 23.3 27.7 36.7 3.2 13.5 1.6 25.9-2 35.5-3.5 9.7-8.8 16.8-14 22.1s-10.1 8.8-14.2 11.5c-8.3 5.1-13.3 7-15.7 8.6-2.5 1.5-2.5 2.5-2.3 3.5s.6 2 3.7 2.3c2.1.1 5.7-.1 11-1.7.7 5.2 3.9 15.9 7.9 28.2 5.5 16.9 12.3 36.7 17 49.2 8.5 22.8 13.3 34.3 16.7 39.8.2.3.4.6.6.8-2.7 2.9-6.4 7.1-12.1 12-6.6 5.7-16.1 12.9-30.5 18.1-21.3 7.6-44.9 6.5-64.5-1.6-10.5-4.3-19.5-10.4-26.3-14.6-6.7-4.2-11.3-6.5-11.9-5.7s2.5 4.6 8.2 10.3c5.7 5.6 13.9 13.4 25.3 19.7 22.1 12.2 50.6 14.8 74.3 6.3 17.1-6.2 28-15.1 35.1-22.4 6.3-6.5 9.8-12 11.9-16.1h.4c51.5 4.1 110-24.8 117.2-78 .7-5.6.5-10.7-.2-14.8-1.6-8.4-5.2-12.5-6-12.1-1.1.5.4 5.2.1 12.5-.2 3.7-.8 8-2.2 12.6-15.9 53.1-65.7 59.8-106.9 68.4-.4-.4-.8-.7-1.3-1-.4-.2-.7-.3-1.1-.5-1.2-6.9-4.6-18.8-12.2-39.4-4.7-12.6-13.2-32.1-21.3-48-5.8-11.4-11.3-20.9-14.6-25.2 1.6-.6 3.3-1.2 5.2-2.1 5.1-2.4 11.3-5.9 17.9-11.8 6.3-5.6 13-13.7 17.8-24.9 5 3.8 12.3 8.6 20.6 13.7 16.1 9.9 35.8 20.8 48.6 27 46.9 22.7 49.5 19.5 51.3 15.8.5-1 .8-2 .3-3.3.4-.1.7-.1 1.1-.2 4.7-1.1 11.8-3.9 19.7-11.1 3.9-3.6 7.9-8.2 11.6-14.2 1.9-3 3.6-6.3 5.2-9.9 11.8-27 8.3-60.6-4.8-84.6z"/><path d="m188.8 445.1c.3-2.1.1-4-8.7-6.5-4.4-1.3-10.9-2.8-20.4-5.1-9.4-2.4-22-5.5-37-12.6-21.5-10.2-39.7-25.9-48.6-47.9-5.7-14.3-7.3-29.3-9.6-38.8.3-.2.6-.5.9-.9 1-1.2 1.8-2.4 0-5.6 0 0-2.3-3.6-4.2-6-35.5-42.1-45.1-81.3-5.7-130.5 2.5-3.3 4.9-6 6.7-8.5.9-1 1.6-1.9 2.3-2.7.3.3.7.6 1.1 1 4.7 3.7 14.7 9.5 35.7 17.7 11.4 4.5 30.2 10.1 46 13.3 7.8 1.7 14.4 3.4 19.3 5.1 4.8 1.6 7.8 3 8.5 2.1.7-.8-1.2-3.8-5.6-7.3-4.4-3.6-11.3-7.2-18.9-10.2-14.9-5.9-32.5-12.8-43.7-17.2-20.4-7.9-30.8-12.1-36.6-13.2-5.8-1.2-6.8.4-7.7 2.3-.5 1-.9 2-.4 3.3-.3.2-.6.4-.9.6 0-2.6-.1-6.4.3-11.3.6-8.7 3.8-20.5 9.9-32.5 27.5-55.5 64.6-69.4 113.2-60.7.5.1.9.1 1.4.2.1 5 3.3 15.3 13 38.4 9.2 21.8 32 67.1 35.9 65.4s-12.6-49.6-21.7-71.2c-8.8-20.1-13.8-29.8-17.3-34.4.4-.8.6-1.7-.2-2.9-.4-.7-1.2-1.5-2.5-2.5-1.2-1-2.9-2.2-5.4-3.3-3.2-1.6-4.6 0 4.9-7.4 36.8-28 82.4-28.1 117.8 4.5 5.4 5 8.8 9.1 11.3 12.1-1.2.3-2.5 1.4-3.9 4.2-2.5 4.7-5 14.2-10.8 32.5-3.2 10.1-8.3 25.9-13.2 39.2-4.8 13.3-9.1 24.1-7.3 25.2s9.5-8 17-20.6c7.6-12.5 14.7-28.5 18-39.1 6.1-19 7.1-29.4 6.9-34.9 1.5.8 2.4.5 3.5 0 1-.4 1.8-.9 2.1-2.4.2-1.4.1-4-1.7-8.2s-5-10.4-11.8-17.9c-38-41.6-101-36.8-132 1.1-17.3 21.4-87.8-26.7-127.4 78.3-5.3 13.6-7.1 27.2-5.9 36.9.6 6.1 2.1 10.4 3.4 12.7-.1 0-.1.1-.2.1-2.4 1.9-5.6 4.2-8.6 7.1-44.4 38.9-47 106.8 3.4 144 2.6 1.9 4.6 3.1 6.1 3.8l-1-1.3c.3.5.7 1 1.1 1.3.4.2.8.3 1.2.5-.3 2.2-.5 5.1-.6 8.5-.2 8.5 0 20.4 3.6 33.6 8.8 31.2 37.8 61.1 93 70.9 10.2 1.7 17.1 2 21.8 2 9.4-.2 9.9-2.2 10.2-4.3z"/><path d="m60.6 334.6c-.3-.1-.6-.4-1-.7z"/><path d="m182.5 284.1c-1.3-1.7-2.6-3-8.1-1.1-5.6 1.9-15.2 7.1-36.1 15-11.4 4.3-30 11.5-45.1 18.3-15.2 6.8-27.3 13-26.6 15s14-.6 30.1-4.8 34.9-9.7 46.9-14.2c21.9-8.2 32.2-15.7 36.6-20.2 4.5-4.6 3.5-6.3 2.3-8z"/><path d="m246.9 419.6c2.1.2 4 .3 5.7-3.1s3.3-10.3 3.7-24c.3-7.5-.6-19.3-2.4-29.1s-4.4-17.5-6.5-17.4c-2.1.2-3.3 8.2-4.3 17.8s-1.9 21-2.1 28.2c-.4 13.1-.3 19.9.8 23.4 1.1 3.6 3 4 5.1 4.2z"/><path d="m358.6 348c-4.5-3.6-12.2-8.3-19.2-11.3-7-3.1-13.2-4.5-14.3-2.7s3 6.5 8.2 11.7 11.5 11 15.8 14.3c7.7 6.2 12 9 14.8 9.7s4.2-.6 5.7-2.1c1.4-1.6 2.7-3 1.6-5.9s-4.4-7.2-12.6-13.7z"/><path d="m401.5 256.3c-2.3-1.7-7.1-3.5-16.9-4.4-5.4-.5-13.9-.1-20.9 1.3-7.1 1.4-12.6 3.6-12.5 5.7s5.7 3.7 12.5 5.1c6.7 1.4 14.6 2.7 19.6 3.1 9.2.8 13.9.8 16.5-.2s3-2.8 3.4-4.9c.4-2 .6-3.9-1.7-5.7z"/><path d="m334.7 179.6c1.5 1.5 5.9 0 10.5-2.9 4.7-2.9 9.5-7.2 12-10.4 9.1-11.7 6.1-14.1 2.7-16.5-3.6-2.5-6.3-3.9-14.7 6.8-2.3 2.9-5.5 8-7.9 12.6s-4.1 8.8-2.6 10.4z"/><path d="m262.2 72c-2.1-.3-4-.4-5.9 3.3-1.8 3.7-3.7 11.3-4.5 26.3-.5 8.3 0 21.3 1.6 32.1 1.6 10.9 4.1 19.5 6.2 19.3 2.1-.1 3.4-8.9 4.6-19.5s2.3-23.1 2.8-31.1c.8-14.5 1-22 0-25.9-.8-3.8-2.7-4.2-4.8-4.5z"/><path d="m152.5 148.1c-9.5-6.6-12.6-10.3-15.5-11.9-2.6-1.6-4.4-1-6.3 0s-3.6 1.9-2.9 5.8c.1 1 .6 2.1 1.2 3.4.6 1.4 1.5 2.8 2.8 4.4 2.5 3.3 6.4 7 11.8 10.8 6 4.2 15.6 8.7 23.1 12.7 3.8 2 7 4 9.5 5.5 2.4 1.5 4.3 2.4 5.2 1.8s.6-2.7-.7-5.7c-1.4-2.9-4-6.7-7.4-10.1-6.7-7-15.7-13.1-20.8-16.7z"/><path d="m146 253.3c-.1-4.2-30.2-7.5-44.3-7.4-25.6.1-26.2 3.6-26.2 7.8s.5 7.7 26.2 7.5c14.2 0 44.4-3.6 44.3-7.9z"/><path d="m162.4 337.5c-7 3.6-14.5 9.2-18.6 13.3-7.6 7.6-10.4 12.5-11.1 15.5s.8 4.3 2.4 5.6 3.2 2.4 5.9 1.3c2.8-1.1 6.5-4.5 13.5-11.5 3.8-3.8 9.6-10.1 14.5-15.7 4.9-5.5 8.8-10.4 7.7-12.2-1.2-1.7-7.4.1-14.3 3.7z"/></g></g></svg>