<svg id="Layer_1" enable-background="new 0 0 136 136" height="512" viewBox="0 0 136 136" width="512" xmlns="http://www.w3.org/2000/svg"><g><g><g><path d="m53.17139 32.6097c2.00785.16794 4.10659-.32851 5.82262-1.27253.195-.1076.39052-.22379.57521-.34089 2.26922-1.4549 3.74906-3.61243 4.64355-5.87181l-.43832-.86776c-1.89934-3.33323-4.20574-6.56774-7.3801-9.15881-1.11573-.91557-2.36795-1.76311-3.84879-2.22287-.93496-.29925-1.96608-.4209-2.95173-.3-.56328.06773-1.11505.21629-1.61294.4488-1.92541.9088-2.67893 2.88811-2.9865 4.71044-.39982 2.31845-.33592 4.68476.1834 6.99181.71575 3.1455 2.64762 6.4726 6.28257 7.5637.55564.17017 1.13013.27133 1.71103.31992z" fill="#a97c50"/></g><g><path d="m58.994 31.33717c.195-.1076.39052-.22379.57521-.34089 2.26922-1.4549 3.74906-3.61243 4.64355-5.87181l-.43832-.86776c-1.89934-3.33323-4.20574-6.56774-7.3801-9.15881-1.11573-.91557-2.36795-1.76311-3.84879-2.22287-.93496-.29925-1.96608-.4209-2.95173-.3.02987.54174.20066 1.06893.55687 1.55853 2.96689 4.03257 8.42246 9.18405 7.8464 14.17576-.14222 1.25246.26763 2.2683.99691 3.02785z" fill="#966c45"/></g></g><g><g><path d="m82.32655 32.31709c-2.00785.16795-4.10658-.32851-5.82262-1.27253-.19499-.1076-.39052-.22379-.5752-.34088-2.26923-1.4549-3.74906-3.61243-4.64355-5.87181l.43832-.86776c1.89934-3.33323 4.20573-6.56774 7.3801-9.15881 1.11573-.91557 2.36795-1.76312 3.84879-2.22287.93495-.29925 1.96608-.4209 2.95172-.3.56329.06773 1.11505.21629 1.61295.4488 1.92541.9088 2.67893 2.88811 2.9865 4.71045.39983 2.31845.33592 4.68476-.1834 6.99181-.71575 3.1455-2.64762 6.4726-6.28257 7.5637-.55566.17016-1.13014.27131-1.71104.3199z" fill="#a97c50"/></g><g><path d="m76.50393 31.04456c-.19499-.1076-.39052-.22379-.5752-.34088-2.26923-1.4549-3.74906-3.61243-4.64355-5.87181l.43832-.86776c1.89934-3.33323 4.20573-6.56774 7.3801-9.15881 1.11573-.91557 2.36795-1.76312 3.84879-2.22287.93495-.29925 1.96608-.4209 2.95172-.3-.02987.54174-.20065 1.06893-.55686 1.55853-2.9669 4.03257-8.42246 9.18404-7.84641 14.17576.14223 1.25245-.26762 2.26829-.99691 3.02784z" fill="#966c45"/></g></g><g><g><path d="m58.81081 26.70037c1.86734 1.76605 4.50708 2.98683 7.21628 3.4844.30819.05623.62571.1049.93314.14403 3.79401.46578 7.50552-.35502 10.7268-1.73988l.44309-1.15875c1.48299-4.62387 2.45151-9.48228 1.87984-14.43795-.19595-1.74634-.60017-3.53883-1.63355-5.15383-.64324-1.02801-1.56597-1.9679-2.69079-2.64565-.64142-.3886-1.35389-.69276-2.09757-.87564-2.88581-.6982-5.67722.53912-7.85501 1.98794-2.77934 1.83642-5.13669 4.08916-6.97084 6.65189-2.49293 3.50028-3.9366 8.14454-1.3617 12.07398.39015.60382.87007 1.15852 1.41031 1.66946z" fill="#a97c50"/></g><g><path d="m66.02709 30.18477c.30819.05623.62571.1049.93314.14403 3.79401.46578 7.50552-.35502 10.7268-1.73988l.44309-1.15875c1.48299-4.62387 2.45151-9.48228 1.87984-14.43795-.19595-1.74634-.60017-3.53883-1.63355-5.15383-.64324-1.02801-1.56597-1.9679-2.69079-2.64565-.52422.52796-.89041 1.15536-1.0298 1.89645-1.11462 6.13042-.84702 15.29713-6.54181 19.47934-1.4265 1.05119-2.05009 2.32488-2.08692 3.61624z" fill="#966c45"/></g></g><g><g><path d="m99.7088 118.78943c-.52088 1.59267-1.62881 2.99738-2.88409 4.26924-3.51122 3.61684-8.09061 6.41548-12.8972 8.80475l-1.24158.56383c-2.40329-.44232-4.77985-1.16115-6.82263-2.27855-.96126-.49741-1.85568-1.10606-2.64352-1.79195-1.97596-1.72552-3.24427-4.0813-3.24427-6.42628 0-.60812.07986-1.21624.26696-1.81355 1.20148-3.90469 5.96798-6.3269 10.64091-7.46591 3.40464-.82954 6.96932-1.19463 10.52097-1.07311 2.10928.06643 4.39262.38723 6.07456 1.34963.54762.30946 1.02808.69669 1.41531 1.15034 1.16173 1.33829 1.32177 3.13024.81458 4.71156z" fill="#a97c50"/></g><g><path d="m99.7088 118.78943c-.52088 1.59267-1.62881 2.99738-2.88409 4.26924-3.51122 3.61684-8.09061 6.41548-12.8972 8.80475l-1.24158.56383c-2.40329-.44232-4.77985-1.16115-6.82263-2.27855.72102-.56383 1.65554-1.01749 2.81725-1.29401 4.63285-1.10606 8.01076-3.58389 11.14811-6.53699 2.49684-2.34444 6.96965-6.0169 7.65025-9.39017.54762.30946 1.02808.69669 1.41531 1.15034 1.16173 1.33829 1.32177 3.13024.81458 4.71156z" fill="#966c45"/></g></g><g><g><path d="m54.97188 130.12784c2.48554-.42226 4.77937-1.67004 6.41135-3.33604.1853-.1897.36733-.38988.53596-.58778 2.06456-2.45094 2.86376-5.49982 2.91441-8.48906l-.91883-.90517c-3.78817-3.40994-8.02016-6.57496-13.00246-8.69817-1.75338-.7521-3.63977-1.38016-5.62497-1.47182-1.25745-.06865-2.54992.10571-3.678.55701-.6453.25628-1.24019.60598-1.73244 1.03968-1.89918 1.68877-1.90744 4.29814-1.4516 6.58057.56971 2.90646 1.71758 5.72629 3.38514 8.3335 2.28284 3.55238 6.10728 6.94485 10.9633 7.12494.74385.03158 1.47905-.0255 2.19814-.14766z" fill="#a97c50"/></g><g><path d="m61.38323 126.7918c.1853-.1897.36733-.38988.53596-.58778 2.06456-2.45094 2.86376-5.49982 2.91441-8.48906l-.91883-.90517c-3.78817-3.40994-8.02016-6.57496-13.00246-8.69817-1.75338-.7521-3.63977-1.38016-5.62497-1.47182-1.25745-.06865-2.54992.10571-3.678.55701.28108.64084.72468 1.22043 1.37378 1.6973 5.38587 3.91752 14.26476 8.40462 15.83312 14.57387.39629 1.54718 1.34798 2.6389 2.56699 3.32382z" fill="#966c45"/></g></g><g><g><path d="m98.92947 100.48311c-.21585 1.64037-1.04688 3.17064-2.04836 4.58862-2.79025 4.02486-6.78914 7.37895-11.08924 10.35789l-1.12076.71679c-2.45706-.1276-4.93958-.5318-7.16712-1.3727-1.04287-.36764-2.04059-.85378-2.9475-1.42992-2.27559-1.45023-3.97031-3.61415-4.41012-5.93065-.11405-.60073-.14922-1.21175-.07641-1.82589.45456-4.01192 4.70889-7.01824 9.11146-8.7449 3.20771-1.2577 6.66063-2.07718 10.19193-2.41429 2.09612-.20588 4.4119-.18287 6.25391.55135.599.23521 1.14626.55589 1.61388.9542 1.39861 1.17251 1.89279 2.9221 1.68833 4.5495z" fill="#a97c50"/></g><g><path d="m98.92947 100.48311c-.21585 1.64037-1.04688 3.17064-2.04836 4.58862-2.79025 4.02486-6.78914 7.37895-11.08924 10.35789l-1.12076.71679c-2.45706-.1276-4.93958-.5318-7.16712-1.3727.60651-.6498 1.44461-1.21823 2.54035-1.64091 4.36915-1.68895 7.24132-4.57148 9.78671-7.89254 2.02682-2.63735 5.75654-6.84093 5.79621-10.26084.599.23521 1.14626.55589 1.61388.9542 1.39861 1.1725 1.89279 2.92209 1.68833 4.54949z" fill="#966c45"/></g></g><g><g><path d="m66.02792 103.45602c0 2.10194-1.01471 4.21416-2.65689 5.87325-.1871.18848-.38724.37643-.58738.55303-2.48348 2.16783-5.92821 3.42889-9.4528 4.0705l-1.25494-.56383c-4.79322-2.38927-9.38597-5.1879-12.89753-8.80474-1.24158-1.27187-2.3632-2.67658-2.87039-4.26924-.33378-1.00669-.38724-2.09061-.08018-3.09676.17341-.57517.46742-1.1282.88139-1.61481 1.61545-1.88052 4.69934-2.41141 7.48988-2.49998 3.55132-.12151 7.11633.24357 10.53433 1.07312 4.65925 1.139 9.43911 3.56121 10.62756 7.4659.18676.59733.26695 1.20545.26695 1.81356z" fill="#a97c50"/></g><g><path d="m63.37103 109.32927c-.1871.18848-.38724.37643-.58738.55303-2.48348 2.16783-5.92821 3.42889-9.4528 4.0705l-1.25494-.56383c-4.79322-2.38927-9.38597-5.1879-12.89753-8.80474-1.24158-1.27187-2.3632-2.67658-2.87039-4.26924-.33378-1.00669-.38724-2.09061-.08018-3.09676.81424.09937 1.58872.34294 2.28301.77392 5.71438 3.58389 12.80398 9.88811 20.41413 9.9216 1.90914.0108 3.39127.56383 4.44608 1.41552z" fill="#966c45"/></g></g><g><g><path d="m98.85086 81.24574c.06641 1.64916-.49496 3.26143-1.24426 4.78252-2.07495 4.31137-5.46093 8.10034-9.20914 11.55322l-.98709.84092c-2.45415.16161-4.98072.05239-7.32945-.51902-1.09515-.24173-2.16585-.60606-3.16202-1.07014-2.50033-1.16898-4.5475-3.11254-5.37843-5.35422-.21548-.58132-.35461-1.18207-.38741-1.79857-.23503-4.02486 3.46319-7.49948 7.52666-9.72469 2.96071-1.62095 6.23898-2.83682 9.67722-3.58436 2.03989-.44944 4.33631-.69804 6.28518-.18706.63314.16266 1.22964.41599 1.76057.75549 1.58474.99682 2.37269 2.67091 2.44817 4.30591z" fill="#a97c50"/></g><g><path d="m98.85086 81.24574c.06641 1.64916-.49496 3.26143-1.24426 4.78252-2.07495 4.31137-5.46093 8.10034-9.20914 11.55322l-.98709.84092c-2.45415.16161-4.98072.05239-7.32945-.51902.48947-.71432 1.22208-1.37526 2.23463-1.9221 4.03683-2.18396 6.38792-5.37408 8.34066-8.96003 1.55612-2.84834 4.53057-7.44672 3.98591-10.8369.63314.16266 1.22964.41599 1.76057.75549 1.58474.99681 2.37269 2.6709 2.44817 4.3059z" fill="#966c45"/></g></g><g><g><path d="m66.02616 85.75906c0 2.10194-1.01471 4.21416-2.65689 5.87325-.1871.18848-.38724.37643-.58738.55303-2.48348 2.16783-5.92821 3.42889-9.4528 4.0705l-1.25494-.56384c-4.79322-2.38926-9.38598-5.1879-12.89753-8.80473-1.24158-1.27187-2.3632-2.67658-2.87039-4.26924-.33378-1.00669-.38724-2.09061-.08018-3.09676.17341-.57517.46743-1.1282.88139-1.61481 1.61545-1.88052 4.69934-2.41141 7.48988-2.49998 3.55132-.12151 7.11633.24357 10.53433 1.07312 4.65925 1.139 9.4391 3.56121 10.62755 7.4659.18678.59732.26696 1.20544.26696 1.81356z" fill="#a97c50"/></g><g><path d="m63.36927 91.6323c-.1871.18848-.38724.37643-.58738.55303-2.48348 2.16783-5.92821 3.42889-9.4528 4.0705l-1.25494-.56384c-4.79322-2.38926-9.38598-5.1879-12.89753-8.80473-1.24158-1.27187-2.3632-2.67658-2.87039-4.26924-.33378-1.00669-.38724-2.09061-.08018-3.09676.81425.09937 1.58872.34294 2.28302.77392 5.71438 3.58389 12.80397 9.88811 20.41413 9.9216 1.90914.0108 3.39127.56383 4.44607 1.41552z" fill="#966c45"/></g></g><g><g><path d="m98.69814 65.60726c-.52088 1.59267-1.62881 2.99738-2.88408 4.26924-3.51123 3.61684-8.09062 6.41548-12.8972 8.80474l-1.24158.56384c-2.4033-.44232-4.77986-1.16115-6.82264-2.27855-.96125-.49741-1.85568-1.10606-2.64352-1.79195-1.97596-1.72552-3.24426-4.0813-3.24426-6.42628 0-.60812.07986-1.21623.26696-1.81355 1.20148-3.9047 5.96797-6.3269 10.64091-7.46591 3.40463-.82954 6.96931-1.19463 10.52096-1.07312 2.10928.06643 4.39262.38723 6.07457 1.34963.54761.30946 1.02807.69669 1.41531 1.15035 1.16172 1.33829 1.32176 3.13024.81457 4.71156z" fill="#a97c50"/></g><g><path d="m98.69814 65.60726c-.52088 1.59267-1.62881 2.99738-2.88408 4.26924-3.51123 3.61684-8.09062 6.41548-12.8972 8.80474l-1.24158.56384c-2.4033-.44232-4.77986-1.16115-6.82264-2.27855.72102-.56384 1.65554-1.01749 2.81726-1.29401 4.63284-1.10606 8.01076-3.58389 11.1481-6.53699 2.49685-2.34444 6.96965-6.0169 7.65025-9.39017.54761.30946 1.02807.69669 1.41531 1.15035 1.16173 1.33828 1.32177 3.13023.81458 4.71155z" fill="#966c45"/></g></g><g><g><path d="m66.02441 68.06209c0 2.10194-1.01471 4.21415-2.65689 5.87325-.1871.18848-.38724.37643-.58738.55303-2.48348 2.16783-5.92821 3.42889-9.4528 4.0705l-1.25494-.56384c-4.79322-2.38926-9.38597-5.1879-12.89753-8.80473-1.24158-1.27187-2.3632-2.67658-2.87039-4.26925-.33378-1.00668-.38724-2.0906-.08018-3.09675.17341-.57517.46742-1.1282.88139-1.6148 1.61545-1.88052 4.69934-2.41141 7.48988-2.49998 3.55132-.12152 7.11633.24357 10.53433 1.07312 4.65925 1.139 9.43911 3.56121 10.62755 7.46591.18678.5973.26696 1.20542.26696 1.81354z" fill="#a97c50"/></g><g><path d="m63.36753 73.93533c-.1871.18848-.38724.37643-.58738.55303-2.48348 2.16783-5.92821 3.42889-9.4528 4.0705l-1.25494-.56384c-4.79322-2.38926-9.38597-5.1879-12.89753-8.80473-1.24158-1.27187-2.3632-2.67658-2.87039-4.26925-.33378-1.00668-.38724-2.0906-.08018-3.09675.81424.09937 1.58872.34295 2.28301.77392 5.71438 3.5839 12.80398 9.88812 20.41413 9.9216 1.90914.01081 3.39128.56383 4.44608 1.41552z" fill="#966c45"/></g></g><g><g><path d="m99.23299 49.29287c-.52088 1.59266-1.62881 2.99738-2.88409 4.26924-3.51122 3.61684-8.09061 6.41548-12.8972 8.80474l-1.24157.56383c-2.4033-.44232-4.77986-1.16115-6.82264-2.27855-.96125-.4974-1.85568-1.10606-2.64352-1.79195-1.97596-1.72552-3.24427-4.0813-3.24427-6.42628 0-.60812.07986-1.21624.26696-1.81355 1.20148-3.90469 5.96798-6.3269 10.64092-7.46591 3.40463-.82954 6.96931-1.19463 10.52096-1.07312 2.10928.06643 4.39262.38723 6.07457 1.34963.54761.30946 1.02807.69669 1.41531 1.15034 1.16172 1.33831 1.32176 3.13026.81457 4.71158z" fill="#a97c50"/></g><g><path d="m99.23299 49.29287c-.52088 1.59266-1.62881 2.99738-2.88409 4.26924-3.51122 3.61684-8.09061 6.41548-12.8972 8.80474l-1.24157.56383c-2.4033-.44232-4.77986-1.16115-6.82264-2.27855.72102-.56383 1.65554-1.01749 2.81726-1.29401 4.63284-1.10606 8.01076-3.58389 11.1481-6.53699 2.49685-2.34444 6.96965-6.01691 7.65025-9.39017.54761.30946 1.02807.69669 1.41531 1.15034 1.16173 1.3383 1.32177 3.13025.81458 4.71157z" fill="#966c45"/></g></g><g><g><path d="m66.02267 50.36512c0 2.10195-1.01471 4.21416-2.65689 5.87325-.1871.18848-.38724.37643-.58738.55303-2.48348 2.16784-5.92821 3.42889-9.4528 4.0705l-1.25494-.56383c-4.79322-2.38926-9.38597-5.1879-12.89753-8.80474-1.24158-1.27186-2.3632-2.67658-2.87039-4.26924-.33378-1.00669-.38724-2.09061-.08018-3.09676.17341-.57517.46743-1.1282.88139-1.6148 1.61545-1.88052 4.69934-2.41141 7.48987-2.49998 3.55132-.12152 7.11633.24357 10.53433 1.07312 4.65925 1.139 9.43911 3.56121 10.62756 7.46591.18677.5973.26696 1.20542.26696 1.81354z" fill="#a97c50"/></g><g><path d="m63.36578 56.23836c-.1871.18848-.38724.37643-.58738.55303-2.48348 2.16784-5.92821 3.42889-9.4528 4.0705l-1.25494-.56383c-4.79322-2.38926-9.38597-5.1879-12.89753-8.80474-1.24158-1.27186-2.3632-2.67658-2.87039-4.26924-.33378-1.00669-.38724-2.09061-.08018-3.09676.81424.09937 1.58872.34295 2.28301.77392 5.71438 3.5839 12.80398 9.88812 20.41413 9.9216 1.90914.0108 3.39127.56383 4.44608 1.41552z" fill="#966c45"/></g></g><g><g><path d="m95.7542 29.52711c-.52088 1.59266-1.62881 2.99738-2.88409 4.26924-3.51122 3.61684-8.09061 6.41547-12.8972 8.80474l-1.24157.56383c-2.4033-.44231-4.77986-1.16115-6.82264-2.27855-.96125-.4974-1.85568-1.10606-2.64352-1.79195-1.97596-1.72552-3.24427-4.0813-3.24427-6.42628 0-.60812.07986-1.21623.26696-1.81355 1.20148-3.9047 5.96798-6.3269 10.64092-7.46591 3.40463-.82955 6.96931-1.19463 10.52096-1.07312 2.10928.06643 4.39262.38723 6.07457 1.34963.54761.30946 1.02807.69669 1.41531 1.15035 1.16172 1.3383 1.32176 3.13025.81457 4.71157z" fill="#a97c50"/></g><g><path d="m95.7542 29.52711c-.52088 1.59266-1.62881 2.99738-2.88409 4.26924-3.51122 3.61684-8.09061 6.41547-12.8972 8.80474l-1.24157.56383c-2.4033-.44231-4.77986-1.16115-6.82264-2.27855.72102-.56383 1.65554-1.01749 2.81726-1.294 4.63284-1.10606 8.01075-3.5839 11.1481-6.53699 2.49684-2.34444 6.96965-6.0169 7.65025-9.39017.54761.30946 1.02807.69669 1.41531 1.15035 1.16173 1.33828 1.32177 3.13023.81458 4.71155z" fill="#966c45"/></g></g><g><g><path d="m66.02091 32.66815c0 2.10195-1.01471 4.21416-2.65688 5.87325-.1871.18848-.38724.37643-.58738.55303-2.48348 2.16784-5.92821 3.42889-9.4528 4.0705l-1.25494-.56383c-4.79322-2.38926-9.38598-5.1879-12.89753-8.80474-1.24157-1.27186-2.3632-2.67658-2.87039-4.26924-.33378-1.00669-.38724-2.09061-.08019-3.09675.17341-.57517.46743-1.1282.88139-1.61481 1.61545-1.88052 4.69934-2.41141 7.48988-2.49998 3.55132-.12152 7.11633.24357 10.53433 1.07312 4.65925 1.139 9.43911 3.56121 10.62755 7.46591.18678.5973.26696 1.20542.26696 1.81354z" fill="#a97c50"/></g><g><path d="m63.36403 38.54139c-.1871.18848-.38724.37643-.58738.55303-2.48348 2.16784-5.92821 3.42889-9.4528 4.0705l-1.25494-.56383c-4.79322-2.38926-9.38598-5.1879-12.89753-8.80474-1.24157-1.27186-2.3632-2.67658-2.87039-4.26924-.33378-1.00669-.38724-2.09061-.08019-3.09675.81425.09937 1.58872.34294 2.28302.77392 5.71438 3.58389 12.80398 9.88811 20.41413 9.9216 1.90914.0108 3.39128.56382 4.44608 1.41551z" fill="#966c45"/></g></g><g><g><path d="m57.12551 48.69581c2.0992 1.98534 5.10299 3.33138 8.20727 3.84814.35315.05836.71724.10788 1.07001.14668 4.35387.4592 8.64936-.55286 12.39658-2.20109l.54297-1.33518c1.83846-5.32233 3.09139-10.90312 2.57425-16.5652-.17592-1.99538-.59024-4.03953-1.7338-5.86822-.71119-1.16432-1.74657-2.22229-3.02203-2.97624-.72726-.43236-1.5387-.76666-2.38953-.9615-3.30186-.74299-6.55011.72795-9.09805 2.42905-3.25138 2.15656-6.02886 4.78148-8.21292 7.75107-2.969 4.05576-4.76278 9.40066-1.91064 13.84883.43192.68362.96856 1.30928 1.57589 1.88366z" fill="#a97c50"/></g><g><path d="m65.33278 52.54395c.35315.05836.71724.10788 1.07001.14668 4.35387.4592 8.64936-.55286 12.39658-2.20109l.54297-1.33518c1.83846-5.32233 3.09139-10.90312 2.57425-16.5652-.17592-1.99538-.59024-4.03953-1.7338-5.86822-.71119-1.16432-1.74657-2.22229-3.02203-2.97624-.61841.61463-1.05775 1.34002-1.23927 2.19114-1.45726 7.03984-1.40983 17.52865-8.08374 22.42753-1.67187 1.23123-2.42588 2.70151-2.50497 4.18058z" fill="#966c45"/></g></g><g><g><path d="m70.93774 65.02526c-1.67181 1.58113-4.11509 2.6161-6.66996 2.96771-.29066.03965-.59069.07178-.8817.09538-3.59236.27507-7.18657-.65667-10.34816-2.09797l-.49554-1.10915c-1.70523-4.41368-2.93407-9.02588-2.69884-13.66337.07766-1.63445.35121-3.30336 1.23644-4.77826.54961-.93945 1.37151-1.78398 2.40274-2.37322.58792-.338 1.24894-.59351 1.94737-.73358 2.71088-.53276 5.45291.75126 7.62246 2.20787 2.76804 1.84711 5.15935 4.06773 7.07066 6.55749 2.59888 3.40008 4.26786 7.83125 2.05617 11.41719-.33461.55125-.75796 1.05247-1.24164 1.50991z" fill="#a97c50"/></g><g><path d="m64.26778 67.99297c-.29066.03965-.59069.07178-.8817.09538-3.59236.27507-7.18657-.65667-10.34816-2.09797l-.49554-1.10915c-1.70523-4.41368-2.93407-9.02588-2.69884-13.66337.07766-1.63445.35121-3.30336 1.23644-4.77826.54961-.93945 1.37151-1.78398 2.40274-2.37322.53345.51921.92231 1.12519 1.10179 1.82837 1.44799 5.81514 1.76678 14.42725 7.46469 18.60651 1.4275 1.05024 2.10253 2.27528 2.21858 3.49171z" fill="#966c45"/></g></g><g><g><path d="m68.40936 68.41129c1.67181 1.58113 4.11509 2.6161 6.66996 2.96771.29066.03965.59069.07178.8817.09538 3.59236.27507 7.18658-.65667 10.34817-2.09797l.49554-1.10915c1.70523-4.41369 2.93407-9.02589 2.69884-13.66338-.07765-1.63445-.35121-3.30336-1.23643-4.77826-.54961-.93945-1.37151-1.78399-2.40274-2.37323-.58792-.338-1.24895-.59351-1.94736-.73358-2.71088-.53276-5.45292.75126-7.62247 2.20787-2.76804 1.84711-5.15935 4.06773-7.07066 6.55748-2.59887 3.40008-4.26785 7.83126-2.05616 11.41719.33457.55129.75792 1.0525 1.24161 1.50994z" fill="#a97c50"/></g><g><path d="m75.07932 71.37901c.29066.03965.59069.07178.8817.09538 3.59236.27507 7.18658-.65667 10.34817-2.09797l.49554-1.10915c1.70523-4.41369 2.93407-9.02589 2.69884-13.66338-.07765-1.63445-.35121-3.30336-1.23643-4.77826-.54961-.93945-1.37151-1.78399-2.40274-2.37323-.53345.51921-.92231 1.12519-1.10179 1.82837-1.44798 5.81514-1.76678 14.42725-7.46469 18.60651-1.42753 1.05025-2.10256 2.27529-2.2186 3.49173z" fill="#966c45"/></g></g><g><g><path d="m72.36115 82.13524c-.93758 1.95317-2.82263 3.60526-5.08862 4.6442-.25793.11787-.52773.23124-.79248.33408-3.27467 1.25414-7.03809 1.37142-10.5994.88864l-.91462-.90809c-3.38822-3.68748-6.40757-7.69399-8.05727-12.12981-.58638-1.56192-1.00204-3.21057-.76292-4.84577.13888-1.03761.57269-2.06118 1.30681-2.90211.41769-.48138.93758-.90526 1.5393-1.2307 2.33992-1.25288 5.44234-.80213 8.07487-.03018 3.35416.97424 6.50399 2.40482 9.31005 4.22199 3.82142 2.4847 7.18253 6.19871 6.54515 10.19084-.09287.61222-.28962 1.20184-.56087 1.76691z" fill="#a97c50"/></g><g><path d="m67.27253 86.77944c-.25793.11787-.52773.23124-.79248.33408-3.27467 1.25414-7.03809 1.37142-10.5994.88864l-.91462-.90809c-3.38822-3.68748-6.40757-7.69399-8.05727-12.12981-.58638-1.56192-1.00204-3.21057-.76292-4.84577.13888-1.03761.57269-2.06118 1.30681-2.90211.71229.3416 1.3233.80502 1.77621 1.41803 3.71131 5.07955 7.48709 13.10787 14.54367 15.46865 1.76921.59447 2.89976 1.56207 3.5 2.67638z" fill="#966c45"/></g></g><g><g><path d="m64.003 82.13516c.93758 1.95317 2.82262 3.60526 5.08862 4.6442.25793.11787.52774.23124.79248.33408 3.27467 1.25414 7.03809 1.37142 10.5994.88864l.91461-.90809c3.38822-3.68748 6.40757-7.69399 8.05727-12.12981.58638-1.56192 1.00204-3.21057.76292-4.84577-.13888-1.03761-.57269-2.06118-1.30681-2.90211-.41769-.48138-.93758-.90526-1.5393-1.2307-2.33992-1.25288-5.44234-.80214-8.07487-.03018-3.35416.97424-6.504 2.40482-9.31005 4.22199-3.82142 2.4847-7.18253 6.19871-6.54515 10.19084.09288.61222.28962 1.20184.56088 1.76691z" fill="#a97c50"/></g><g><path d="m69.09161 86.77937c.25793.11787.52774.23124.79248.33408 3.27467 1.25414 7.03809 1.37142 10.5994.88864l.91461-.90809c3.38822-3.68748 6.40757-7.69399 8.05727-12.12981.58638-1.56192 1.00204-3.21057.76292-4.84577-.13888-1.03761-.57269-2.06118-1.30681-2.90211-.71229.3416-1.3233.80502-1.77621 1.41803-3.71131 5.07955-7.4871 13.10787-14.54368 15.46865-1.76918.59446-2.89973 1.56206-3.49998 2.67638z" fill="#966c45"/></g></g><g><g><path d="m54.02235 96.06446c.97495 2.03103 2.72258 3.81898 4.7349 5.01267.22902.13548.46766.26718.70103.38793 2.88498 1.47552 6.07682 1.8352 9.04177 1.57641l.6882-.85769c2.51922-3.50368 4.69685-7.35295 5.67673-11.72325.34967-1.5385.54694-3.17547.19205-4.84084-.21433-1.05594-.67664-2.11662-1.37569-3.01226-.39802-.51254-.87704-.9736-1.41602-1.34058-2.0948-1.41431-4.67489-1.15842-6.8278-.54827-2.74395.76799-5.27256 2.00958-7.47448 3.66331-2.99775 2.26221-5.49157 5.7944-4.57984 9.86365.1357.62373.35708 1.23132.63915 1.81892z" fill="#a97c50"/></g><g><path d="m58.75725 101.07713c.22902.13548.46766.26718.70103.38793 2.88498 1.47552 6.07682 1.8352 9.04177 1.57641l.6882-.85769c2.51922-3.50368 4.69685-7.35295 5.67673-11.72325.34967-1.5385.54694-3.17547.19205-4.84084-.21433-1.05594-.67664-2.11662-1.37569-3.01226-.57011.29903-1.04325.72747-1.36878 1.317-2.66222 4.88767-5.10342 12.74676-10.84715 14.67646-1.4398.48642-2.30494 1.39031-2.70816 2.47624z" fill="#966c45"/></g></g><g><g><path d="m63.56961 108.01476c1.02436 2.13395 2.91484 3.99462 5.11699 5.21985.25064.13905.51208.2739.76798.39723 3.16405 1.50652 6.70193 1.8237 10.00571 1.48967l.79021-.92326c2.90334-3.76572 5.43704-7.89099 6.65446-12.54465.43382-1.63834.7011-3.37803.35535-5.13673-.20734-1.11533-.6902-2.2307-1.44111-3.16632-.42747-.53545-.9465-1.01469-1.53494-1.39297-2.28738-1.4575-5.16321-1.13428-7.57452-.44403-3.073.8695-5.92048 2.23685-8.41685 4.03461-3.39894 2.45897-6.27488 6.25439-5.38053 10.5508.13258.65863.36089 1.29842.65725 1.9158z" fill="#a97c50"/></g><g><path d="m68.6866 113.23461c.25064.13905.51208.2739.76798.39723 3.16405 1.50652 6.70193 1.8237 10.00571 1.48967l.79021-.92326c2.90334-3.76572 5.43704-7.89099 6.65446-12.54465.43382-1.63834.7011-3.37803.35535-5.13673-.20734-1.11533-.6902-2.2307-1.44111-3.16632-.64258.32853-1.18112.79234-1.5603 1.42398-3.10287 5.23608-6.04709 13.61836-12.48904 15.77999-1.61489.54472-2.60317 1.52054-3.08326 2.68009z" fill="#966c45"/></g></g><g><g><path d="m77.19727 110.98631c-.93758 1.95318-2.82262 3.60526-5.08862 4.6442-.25793.11787-.52773.23124-.79248.33408-3.27467 1.25414-7.03809 1.37143-10.5994.88865l-.91462-.9081c-3.38822-3.68748-6.40757-7.69399-8.05727-12.12981-.58638-1.56192-1.00204-3.21057-.76292-4.84577.13888-1.03761.57269-2.06117 1.30681-2.90211.41769-.48138.93758-.90526 1.5393-1.23069 2.33992-1.25289 5.44234-.80214 8.07487-.03019 3.35416.97424 6.50399 2.40482 9.31005 4.22199 3.82142 2.4847 7.18253 6.19871 6.54515 10.19085-.09287.6122-.28961 1.20182-.56087 1.7669z" fill="#a97c50"/></g><g><path d="m72.10866 115.63051c-.25793.11787-.52773.23124-.79248.33408-3.27467 1.25414-7.03809 1.37143-10.5994.88865l-.91462-.9081c-3.38822-3.68748-6.40757-7.69399-8.05727-12.12981-.58638-1.56192-1.00204-3.21057-.76292-4.84577.13888-1.03761.57269-2.06117 1.30681-2.90211.71229.34161 1.3233.80502 1.77621 1.41803 3.71131 5.07955 7.4871 13.10788 14.54368 15.46866 1.7692.59445 2.89975 1.56206 3.49999 2.67637z" fill="#966c45"/></g></g><g><g><path d="m75.10332 130.59151c-2.33492 1.2534-5.17905 1.87645-7.82771 1.83574-.30116-.00496-.60813-.01843-.9025-.03865-3.62654-.26505-6.71741-1.67375-9.15934-3.50192l.01063-1.12337c.30244-4.43124 1.15798-8.98084 3.45286-13.34017.80369-1.53719 1.81381-3.07835 3.33416-4.3462.95451-.80965 2.13232-1.48953 3.40063-1.89691.724-.23421 1.48257-.37956 2.2262-.41007 2.88151-.10809 4.98425 1.50969 6.45171 3.20721 1.87731 2.15507 3.22082 4.60889 3.97626 7.24747 1.02066 3.60167.67506 8.04417-3.07933 11.118-.57187.47332-1.20805.88624-1.88357 1.24887z" fill="#a97c50"/></g><g><path d="m67.27561 132.42725c-.30116-.00496-.60813-.01843-.9025-.03865-3.62654-.26505-6.71741-1.67375-9.15934-3.50192l.01063-1.12337c.30244-4.43124 1.15798-8.98084 3.45286-13.34017.80369-1.53719 1.81381-3.07835 3.33416-4.3462.95451-.80965 2.13232-1.48953 3.40063-1.89691.28909.56998.3985 1.20101.26039 1.89349-1.17754 5.72139-4.70221 13.92752-1.00574 18.72089.92466 1.20393 1.03749 2.46336.60891 3.63284z" fill="#966c45"/></g><path d="m101.75359 115.22036c-.2887-1.08691-.95087-2.16943-1.78595-2.96338-.42261-.40674-.89532-.75586-1.39209-1.04688-.48126-.27832-.98547-.51416-1.49323-.70459-.61249-.22949-1.24756-.3999-1.89447-.53516.44299-.43701.89557-.89795 1.36823-1.41504.71222-.79492 1.43732-1.69971 2.16315-2.72314.73126-1.05762 1.50812-2.31885 1.96863-3.98096.47296-1.64795.45734-3.84766-.68805-5.76221-.56732-.96582-1.40674-1.78418-2.3609-2.37158-.73346-.45117-1.50671-.75537-2.28589-.97021.8241-.95215 1.71143-2.09521 2.63934-3.51074.58423-.90088 1.13611-1.89551 1.68762-3.04932.53979-1.17822 1.07629-2.59766 1.16339-4.34375.09705-1.77246-.45374-3.82959-1.92804-5.43115-1.26575-1.39502-3.10205-2.16943-4.89453-2.42725.20801-.15674.41571-.31299.63043-.48145.83112-.66357 1.71204-1.43066 2.59644-2.31152.89331-.8916 1.87793-1.96289 2.68823-3.43359.79889-1.42822 1.41779-3.53662.80707-5.72021-.2887-1.08691-.95093-2.16943-1.78601-2.96338-.42261-.40674-.89532-.75586-1.39203-1.04688-.48132-.27832-.98553-.51416-1.49329-.70459-.24213-.09082-.49579-.15039-.74384-.22559 3.92688-3.1377 7.10858-7.23145 5.95001-11.37402-1.27191-4.78857-6.93085-5.72949-11.86804-5.65869-.53088.00732-1.07373.03271-1.61926.06348 1.15497-.69238 2.45514-1.55957 3.91681-2.70508.83112-.66357 1.71198-1.43066 2.59637-2.31152.89337-.8916 1.87799-1.96338 2.68829-3.4336.79883-1.42822 1.41772-3.53662.80701-5.72021-.2887-1.08691-.95087-2.16943-1.78595-2.96338-.42267-.40674-.89532-.75635-1.39209-1.04688-.48126-.27832-.98547-.51416-1.49323-.70508-.14923-.05615-.30255-.10107-.4541-.15088.0603-1.10938.03644-2.2002-.09088-3.23828-.21124-1.99072-.86761-4.28076-2.50146-5.80322-.71368-.68066-1.6076-1.19336-2.46344-1.4624-.85754-.2793-1.68878-.37793-2.47705-.37744-1.56104.00732-2.92505.42822-4.06384.96191-.16071-.9707-.41724-1.97559-.85468-2.9668-1.17145-2.77539-3.88879-5.27832-7.35791-5.72119-1.70502-.22607-3.40967.07764-4.89801.625-3.89965 1.41505-9.08525 5.60352-11.77556 10.10987-.37634-.29248-.76898-.58008-1.2002-.84473-1.90228-1.17334-4.5246-1.96533-7.21368-1.09277-1.36548.43701-2.59094 1.46729-3.31384 2.6377-.74219 1.16748-1.10895 2.40771-1.32648 3.55176-.19104.9834-.28943 1.96826-.3219 2.93896-1.34857.12598-2.66394.37256-3.89752.83545-1.01172.37256-2.0199.94043-2.87817 1.74268-1.58843 1.49333-2.35737 3.75779-1.9165 6.12207.19257.99902.52954 1.8042.9325 2.56396.81348 1.47852 1.79291 2.53858 2.6814 3.43555 4.64447 4.63232 4.84155 2.45801 1.1825 3.83301-1.01166.37256-2.0199.93994-2.87817 1.74219-.87665.82422-1.48761 1.88086-1.78809 2.96436-1.28778 4.55713 2.62201 9.03809 7.22485 12.3418-.87677.14551-1.73761.34082-2.55682.64844-5.20197 1.91553-7.27717 7.70996-1.18073 13.86426.89093.88818 1.76874 1.65039 2.60101 2.31445.38824.30371.76312.58496 1.12988.85254-.87579.146-1.73004.3584-2.5484.66553-1.01172.37305-2.0199.94043-2.87817 1.74268-1.58842 1.49332-2.35738 3.75826-1.9165 6.12256.19257.99854.52954 1.80371.9325 2.56348 1.30963 2.38135 3.74438 4.68018 6.43646 6.61377-.88275.14551-1.74811.34521-2.57257.65479-1.01166.37256-2.0199.94043-2.87817 1.74219-1.58847 1.49347-2.35721 3.75834-1.9165 6.12256.19263.99854.52954 1.80371.93256 2.56348.81348 1.479 1.79291 2.53857 2.6814 3.43555.35846.35742.7121.68066 1.06415.99902-.9859.83789-1.78577 2.00537-2.10632 3.21875-.49493 1.6875-.40405 3.30176-.17572 4.74512.45526 2.81055 1.40985 5.41162 2.60034 7.66309 1.16418 2.23682 2.67657 4.22412 4.24835 5.65966 2.83594 2.68262 6.44147 4.12207 9.62848 4.09424 2.41711-.01025 4.43848-.65674 6.09308-1.5249.64355.44678 1.43823.92432 2.42969 1.38623 1.54486.70166 3.53473 1.2959 5.83142 1.42676 2.29327.12256 4.84473-.18799 7.37439-1.19287.63477-.24658 1.27393-.55566 1.89734-.92432.17389.06592.35254.1377.5202.19727 1.66602.56348 3.05188.79102 4.01123.88184.96118.08691 1.5011.03467 1.52582-.10059.06665-.29639-1.82446-.75977-4.52228-2.05273 1.21545-.9834 2.28687-2.21777 3.01361-3.70702 1.39429-2.79785 1.44769-6.03955.72607-8.83105-.12506-.4873-.28943-.9541-.44952-1.42285 2.03015.14648 3.21161-.08789 3.21729-.26709.02289-.26416-1.46515-.46777-3.75696-1.13086-.13062-.30469-.25317-.61523-.39673-.91016.54456-.33936 1.82819-1.64307 3.42657-3.82178 1.83499-2.549 3.30764-5.33466 4.23975-8.40088.35919-1.18359.65723-2.50635.67047-3.94678.00085-.02637-.00336-.0542-.00275-.08057.4171.06348 1.1593-.21729 2.77863-1.49707.78705.0083 1.51495.06494 2.15021.1958 1.39862.27539 2.29791.86963 2.74451 1.61816.46552.77881.55133 1.72168.30377 2.66748-.23975.97021-.75458 1.92871-1.32965 2.81201-.60352.91309-1.20398 1.73291-1.79651 2.4668-2.40582 2.92676-4.43457 4.66016-5.711 5.91992-2.64026 2.45752-2.53754 2.91553-2.19958 3.39111.31232.44043.74738.85352 3.96472-1.11621.32874-.21533.69867-.4624 1.09265-.73486 1.90131.05859 3.57306.27002 4.79816.73828 1.32977.49365 1.96185 1.18701 2.20636 2.00146.12366.41504.13647.8877.06116 1.35205-.06818.45361-.24762.91895-.48969 1.39502-.4881.93848-1.19952 1.79932-1.95148 2.59375-.76331.81299-1.50464 1.51465-2.22192 2.15088-2.89087 2.51807-5.16565 3.94629-6.63098 5.00683-2.99725 2.05664-2.95807 2.52832-2.6933 3.04639.24585.48291.61707.94824 4.10242-.53516 1.71936-.78613 4.27496-2.01123 7.63208-4.64208.83112-.66357 1.71198-1.43018 2.59637-2.31152.89337-.8916 1.87799-1.96289 2.68829-3.43359.79878-1.42828 1.41774-3.53668.80696-5.72027zm-4.91058-52.08447c.12366.41504.13641.8877.0611 1.35205-.06818.45361-.24762.91895-.48969 1.39502-.4881.93848-1.19952 1.79883-1.95148 2.59375-.76331.81299-1.50458 1.51465-2.22186 2.15088-.17242.15039-.3371.2876-.50482.42969.0412-1.38721-.27917-2.91943-1.13495-4.21924-.48254-.76855-1.15253-1.43359-1.91632-1.96045.17859-.44043.36084-.90869.54773-1.43457.29071-.84961.57861-1.81055.82904-2.85889.09619-.05273.19623-.1123.2934-.1665 1.68561.07959 3.16913.2915 4.28143.7168 1.32977.49364 1.96185 1.187 2.20642 2.00146zm-7.41553-19.08106c2.30389.00781 4.31641.21924 5.74396.76514 1.32977.49365 1.96185 1.18701 2.20642 2.00146.12366.41504.13641.8877.0611 1.35205-.06818.45361-.24762.91895-.48969 1.39502-1.08459 2.08545-3.79327 4.52588-6.20825 6.4209.03253-.61279.04462-1.24121.03033-1.88623-.03815-1.2583-.20441-2.646-.75958-4.02979-.53577-1.35889-1.51025-2.71436-2.81641-3.63916-1.2818-.94531-2.94238-1.50391-4.58514-1.52246-.44598-.00293-.87958.02783-1.30475.0791.01575-.0459.03094-.08594.04675-.13281.28638-.0625.5719-.13135.85956-.18359 2.4856-.45215 4.9394-.63965 7.2157-.61963zm-1.13281 14.03418c-.08038 1.83643-.33197 3.51953-.59363 4.94531-.08057.41309-.15839.79541-.23444 1.16309-.29498-.13037-.59442-.24658-.89874-.33398-1.60553-.47852-3.1983-.47314-4.67371-.30664-1.47852.16895-2.88629.5332-4.1814.92334-2.61621.78613-5.07159 1.84814-7.24036 3.06738-.62727-.47231-1.2604-1.08929-1.63324-1.78418-.26367-.44629-.43134-.92627-.55634-1.44824-.20679-1.0498-.11487-2.31689.37769-3.67969 1.00531-2.9873 4.00165-6.69141 7.87085-9.59033 1.92902-1.46631 4.05219-2.67578 6.08643-2.75635 1.97748-.11963 3.90448 1.11084 4.75732 2.94287.89246 1.81836.96399 4.229.94867 6.26758-.0022.10352-.0116.20068-.01495.30322-.0177.0127-.03729.02686-.05481.03906.01692.08203.02565.16553.04066.24756zm-14.77032 32.47705c-1.89197.69824-3.66156 1.57666-5.23914 2.57422-.61279.38184-1.19373.79688-1.74908 1.22998-.73944-.3208-1.47662-.62207-2.20404-.88281-2.8995-1.03312-6.06919-1.86468-9.0907-1.26563.05969-1.04443.39966-2.15039 1.16095-3.29492 1.48163-2.38184 4.97058-4.91162 9.09521-6.271 2.03979-.7041 4.10626-.93994 5.59998-.12646.74115.38086 1.41223 1.07227 1.87622 1.87207.46881.79834.7323 1.73193.82184 2.69824.09796 1.12305-.04407 2.31006-.27124 3.46631zm2.22674 17.28223c-1.00055-.79199-2.13672-1.4165-3.30243-1.75-1.05988-.32178-2.14435-.41162-3.17249-.34473-2.55352.18839-5.10797 1.38528-7.05402 3.24316-1.13031 1.06396-1.95538 2.229-2.59027 3.31689-.18286.31689-.34747.62402-.5036.92578-.19385-.31201-.41968-.66064-.68817-1.05859-.9425-1.49609-2.50684-3.62061-4.06567-6.99414-.72052-1.66406-1.63098-3.82959-1.44623-5.68799.09045-.94287.47443-1.77881 1.21716-2.43115.71838-.63623 1.79498-.97754 3.23096-.97412 1.56244-.00781 3.50018.44824 5.65002 1.16406 2.11749.70508 4.32953 1.66211 6.46234 2.90479 2.0993 1.22217 4.12329 2.7583 5.45813 4.62646.82538 1.11035 1.28699 2.3252 1.32892 3.5127-.17199-.15429-.34313-.30957-.52465-.45312zm-10.92181-36.05615c-1.35071 1.41553-2.46222 3.05322-3.05762 4.91211-.35657 1.13037-.47809 2.31348-.37476 3.44141-1.31433.56543-2.55713 1.2207-3.67682 1.96045-1.1972.78027-2.26874 1.6958-3.18909 2.67578-.23645-.40137-.53931-.87744-.927-1.45215-.9425-1.49609-2.5069-3.62061-4.06567-6.99414-.72052-1.66406-1.63098-3.82959-1.44623-5.68799.09045-.94287.47443-1.77881 1.21716-2.43115.71838-.63623 1.79498-.97754 3.23096-.97412 1.56244-.00781 3.50018.44824 5.65002 1.16406 2.11749.70508 4.32953 1.66211 6.46234 2.90479.13818.08057.27087.17383.40826.25732-.07372.07519-.16014.14746-.23155.22363zm-.5083-6.6294c.15625.7085.40045 1.38184.70636 2.00488-1.8382-1.03613-3.71222-1.87891-5.53137-2.53125-2.13116-.75928-4.30518-1.36035-6.42194-1.44873-.05469-.54297-.17456-1.26563-.38336-2.25342-.30798-1.70801-.9306-4.22217-.98572-7.85693.02612-1.81055.07465-3.99365 1.08789-5.61523.48035-.79834 1.24011-1.49414 2.21661-1.89307.96399-.40332 2.08795-.43408 3.42279-.06055 1.46027.4043 3.12653 1.37109 4.91663 2.68848 1.75568 1.29248 3.50525 2.87256 5.03656 4.72607.05963.07178.11029.15234.16827.22559-.02698.03125-.05798.06104-.08478.09229-1.63611 1.88672-2.93726 3.98242-3.6532 6.05176-.67565 1.87402-.90582 3.94287-.49474 5.87011zm16.99054-49.10449c.00757-.14795.00171-.30566.00665-.45557.44501-.29492.90247-.57129 1.38434-.78857.76117-.33545 1.59521-.56396 2.435-.55176.4184.00439.8407.06445 1.20801.18896.3728.12109.65308.29736.93658.55713.61127.54688 1.12469 1.70703 1.34583 3.37207.09735.6377.1391 1.30713.15411 1.98828-.94159-.06885-1.89691-.08301-2.85101-.06934-1.68622.02295-3.45728.17334-5.25745.44385.30389-1.38476.5542-2.95458.63794-4.68505zm4.6372 8.23096c2.30383.00781 4.31635.21875 5.74396.76514 1.32977.49365 1.96179 1.18701 2.20636 2.00146.12366.41504.13641.8877.06116 1.35156-.06824.4541-.24762.91943-.48969 1.39551-.4881.93848-1.19952 1.79883-1.95154 2.59375-.76324.81299-1.50458 1.51465-2.22186 2.15039-2.85138 2.48438-5.09973 3.90527-6.56683 4.96143.67493-3.79541.86224-8.78906-.65808-12.31348-.36786-.9043-.89606-1.77393-1.54718-2.56641 1.86749-.24902 3.69684-.35498 5.4237-.33935zm-5.60888 18.54736c-.14844.89404-.29663 1.7002-.43445 2.42529-2.13281.54639-3.98322 1.65723-5.55804 2.73193-1.11285.76367-2.16125 1.59082-3.13489 2.45947-1.64691-2.13477-3.54083-3.95801-5.45959-5.44043-1.9234-1.48145-4.00244-2.79932-6.19604-3.41895-.99481-.28516-2.04346-.43896-3.09052-.41211-.09393.00195-.18756.01465-.28156.02002.04388-.64404.15625-1.31396.367-2.01221 1.01184-3.7583 4.58771-8.3501 9.31488-11.83252 2.34558-1.75928 4.9823-3.16553 7.54883-3.06836 1.2558.04199 2.49188.47656 3.55652 1.21484 4.68554 3.21242 4.23498 11.71633 3.36786 17.33303zm-22.0127-24.32813c1.19128-5.25439 9.12848-13.06299 14.17236-12.6665 1.04028.06104 2.08929.47705 2.98602 1.11572.90454.6377 1.61029 1.49609 2.13715 2.48682 1.0329 1.95898 1.28235 4.45068 1.41187 6.604.08728 1.8335-.02368 3.52246-.17914 5.01367-.81152.16124-.672.09596-2.36102.55078-2.68592-1.11468-5.55785-.87868-8.30731.20508-1.65942.64844-3.15973 1.56201-4.49097 2.47803-.27258.18652-.526.39063-.79169.58398-.25549-.18262-.51105-.36523-.77295-.53223-1.1842-.74219-2.43231-1.33496-3.70154-1.82178-.3955-1.16503-.48181-2.51464-.10278-4.01757zm-11.48999-.41552c.11639-.87646.33643-1.67871.68335-2.30859.34644-.62891.79761-1.06445 1.4184-1.33154 1.32611-.57178 3.13715-.33057 4.6496.4375.46875.23389.92584.51318 1.37347.81348-.24158.61182-.44226 1.2251-.58997 1.83398-.29523 1.21436-.40869 2.47266-.32251 3.69092-2.51605-.55762-5.01135-.83887-7.36743-.90674.0025-.73145.04834-1.47608.15509-2.22901zm-7.99719 25.54297c.3645-.32959.8667-.64697 1.51794-.8833 1.4245-.54639 3.43787-.75781 5.73962-.7666.586-.00537 1.19086.01611 1.79987.04443.02246.01025.04846.02246.07062.03271.88147.37549 1.56238.62598 2.09363.7832.05249-.21875.12787-.43018.19446-.64404.04144.00391.08167.00537.12317.00977-.03223-.03955-.05743-.08398-.08868-.12402.16083-.49658.34485-.98438.57739-1.44922-.38507-.30469-.86932-.66016-1.49005-1.08643-2.29761-1.66406-8.88959-6.05713-10.79822-9.74756-.48291-.93262-.68903-1.9082-.43243-2.74219.12146-.41846.34991-.80811.69098-1.12354.3645-.33008.8667-.64697 1.51788-.8833 1.4245-.54639 3.43787-.75781 5.73969-.7666 2.27588-.02002 4.72913.16797 7.2157.61865 2.3725.42871 4.73755 1.10938 6.81293 2.20703-3.26207 2.93327-6.31351 6.7543-7.48969 10.95996-.32349 1.14746-.51508 2.32031-.54883 3.48828-.00787.32861.00293.65576.02411.98145-1.18463.76904-2.12366 1.78955-2.75183 2.8877-1.38575 2.36718-1.53118 5.03853-1.40381 7.7666.08667 1.24805.23932 2.34229.4231 3.32959-4.50124-3.23046-13.16731-9.52978-9.53755-12.89257zm1.69232 24.16064c-2.77893-2.96777-3.74805-6.04932-.17267-7.34668 1.4245-.54688 3.43787-.75781 5.73969-.7666.58777-.00537 1.19977.02246 1.81024.04883.19569.09152.88735.37646 1.47266.58496.1944.55176.38501 1.03662.55591 1.46387.27496.62646.51959 1.13232.73956 1.5415-.4165.0708-.83191.16064-1.24091.2876-1.02246.30908-2.02008.86475-2.7973 1.55908-1.59448 1.38037-2.41229 3.39209-2.52075 5.11768-.02118.27637-.00977.53369-.00732.79639-.43805-.35596-.8891-.73047-1.36169-1.1416-.71626-.63429-1.4618-1.33936-2.21742-2.14503zm-1.94733 15.09912c-.48291-.93262-.68903-1.9082-.43243-2.74219.12146-.41846.34991-.80762.69098-1.12354.3645-.33008.8667-.64697 1.51788-.8833 1.37537-.52734 3.3067-.73828 5.50958-.76025.09589.19727.19202.39355.28961.58398 1.99127 3.76758 3.92078 5.82617 5.21002 7.17725.68884.6748 1.23285 1.15234 1.67059 1.4873-.01648.0249-.03851.04883-.05475.07422-1.02582 1.55566-1.66174 3.34424-1.78973 5.10254-.04962.79102.00671 1.55859.1283 2.29199-.42804-.375-1.04736-.8457-1.94183-1.46045-2.54437-1.84276-8.87054-6.02001-10.79822-9.74755zm7.55982 42.30274c-1.24518-1.14697-2.44885-2.6543-3.51251-4.57861-1.05847-1.8916-1.9389-4.08496-2.41284-6.41992-.23157-1.11523-.29187-2.22021-.07141-3.11328.21136-.85107.64337-1.46582 1.40057-1.96533 2.77014 2.01367 4.9198 3.04004 6.42645 3.72998 3.48297 1.48389 3.85419 1.02002 4.10071.5376.2652-.51807.30566-.99023-2.69086-3.04834-1.46484-1.06152-3.74017-2.48926-6.63171-5.00537-.71625-.63428-1.46173-1.33887-2.21741-2.14453-.74713-.79785-1.46722-1.66602-1.94904-2.59766-.48291-.93311-.68903-1.9082-.43243-2.74268.1214-.41797.34991-.80762.69092-1.12354.3645-.32959.8667-.64697 1.51794-.8833 1.4245-.54639 3.43787-.75781 5.73962-.76611.58252-.00537 1.1814.01123 1.78613.03711.02771.0127.0567.02734.08435.04004.82642.35205 1.461.58398 1.97668.74268-.59961 1.0498-.92944 2.19678-.99512 3.24072-.13501 1.76123.24835 3.24561.65875 4.47363.42285 1.22266.89343 2.25537 1.38312 3.20996 1.56403 2.95898 3.0849 4.85547 4.29242 6.19141-1.24176.49121-1.99976.75098-1.95831.93994.0249.15967 1.05029.23779 2.76202-.07471.0368.03906.07806.08301.11389.12061.78314.76709 1.37756 1.27734 1.84229 1.61377-1.46478 3.74463-1.73871 6.47021-1.85321 8.26367-.08838 1.84814.07886 2.80664.27771 3.31152.08472.20703.18115.32568.28271.40918-1.09448.4287-2.33997.71874-3.69263.6914-2.19352-.03907-4.66618-.9917-6.9188-3.08984zm31.97131.04248c-.83215 1.97314-2.53632 3.52978-4.54871 4.49804-2.00647.98193-4.20453 1.45801-6.18719 1.5498-1.99567.08936-3.81854-.21582-5.30646-.63721-1.82001-.53027-3.151-1.16357-3.96045-1.521-.35461-.42676-.65851-.89063-.93042-1.37304.01404.00098.02753.00439.04169.00537.28046.01953.5506.00049.82941-.45166.28485-.4502.55499-1.34033.98944-3.00635.45667-1.65234 1.00134-4.12988 2.52966-7.42041.80701-1.63135 1.76825-3.53125 3.36127-4.96143.80804-.73926 1.7619-1.34619 2.89209-1.74463 1.13959-.39453 2.3255-.52539 3.46735-.1748 1.27722.35938 2.61383 1.37207 3.92535 3.05322 1.29706 1.61572 2.40918 3.59082 3.06641 5.77588.63543 2.10402.67633 4.44874-.16944 6.40822zm6.6969-20.89502c-.66882 1.96338-1.48499 3.67969-2.21826 5.10547-1.09766 2.09082-1.97351 3.56836-2.26727 4.27979-.47797-.93164-1.02112-1.79736-1.60193-2.60791.50134-1.14844.7627-2.48535.62299-3.78027-.13892-1.63232-.76862-3.14648-1.59216-4.42822-1.65546-2.58643-3.97839-4.45557-6.31262-5.95557-.29126-.18555-.58807-.3501-.88226-.52539 1.74658-1.15625 3.81006-2.18506 6.04248-2.93115 2.24847-.77637 4.60443-1.14746 6.35309-.35254.85516.36426 1.61658 1.07764 2.13837 1.93262.53003.85303.80823 1.86816.87976 2.92139.12657 2.09813-.52706 4.40037-1.16219 6.34178zm3.84528-8.47412c-.4812-2.27197-1.86115-4.54443-4.20642-5.75-1.49579-.78369-3.16681-1.01758-4.68359-.96143-.15747.00537-.31055.0249-.46643.03613.33295-.11621.57513-.23438.7514-.3418.47052-.3042.46741-.57373.43036-.85254s-.11255-.53906-.61633-.72217c-.50177-.19629-1.43726-.28076-3.15253-.45654-.01581-.00195-.03436-.00391-.05029-.00586-.03345-2.57324-1.20746-5.55273-3.85974-7.20166-1.33789-.83594-2.92065-1.17432-4.36041-1.17432-1.05133-.00781-2.06476.14502-3.00726.36084.04034-.28467.10077-.57422.19495-.86816.35321-1.07471 1.09393-2.23828 2.15082-3.33838 2.27307-2.43311 6.41229-4.91943 11.07947-6.54395 1.19135-.41064 2.35144-.75732 3.51801-.94727 1.15802-.19141 2.30426-.22363 3.28168.01221.97186.22656 1.77313.72998 2.34412 1.49316.56799.74316.83441 1.69971.8349 2.72949.00232 1.02979-.25598 2.11914-.60553 3.18848-.91234 2.82748-2.37499 5.47348-4.00793 7.9834-1.79797 2.73242-3.05255 4.38135-2.82922 4.58252.19189.17627 1.83673-1.09863 4.09039-3.62207 1.11816-1.26709 2.37292-2.8667 3.54504-4.82422.07385-.12354.14227-.26221.21521-.38916 1.34363-.25146 2.56934-.37744 3.6037-.30029 1.43115.07764 2.46429.54443 3.09491 1.21191.63818.68115.94153 1.6167.90887 2.52441-.01978.96094-.32733 1.96289-.72882 2.90869-.42316.9668-.87903 1.88721-1.34326 2.68701-1.88348 3.23486-3.63092 5.22607-4.7027 6.64404-.68381.84768-1.12455 1.45901-1.42337 1.93753z" fill="#202020"/></g></g></svg>