<svg id="Layer_1" enable-background="new 0 0 136 136" height="512" viewBox="0 0 136 136" width="512" xmlns="http://www.w3.org/2000/svg"><g><g><path d="m46.87772 65.15562c-2.82043.57679-5.86679 1.24147-8.20141 2.94185-2.42408 1.76554-3.55955 5.12228-1.25124 6.34837 2.06427 1.09647 5.24031-.09793 7.93451-.17461 4.21006-.11982 7.72663 3.10973 7.33999 7.02577-.18143 1.83754-1.08647 3.70224-1.3819 5.6728-.3063 2.04309.30654 4.46021 2.31749 5.12634 2.04924.67882 4.41172-.8456 5.68658-2.66424 1.23528-1.76215 1.80117-3.78239 2.85855-5.49075 1.8474-2.98477 5.3219-4.92213 8.90031-5.05424 3.56924-.13179 7.36011 1.52799 9.73714 4.33463 1.02834 1.21419 2.23198 2.84747 3.80621 2.73795 1.47325-.10249 1.9361-1.69846 1.9758-3.0258.08318-2.78168-.48441-5.53905-.02159-7.9618.44123-2.30973 2.18591-4.4086 4.97693-4.44938 1.39793-.02042 3.3356.29395 3.62574-.73092.08951-.31618-.03807-.68282-.21144-1.02401-1.52474-3.00068-6.14266-4.50916-9.93369-4.91085" fill="#58595b"/></g><g><path d="m106.34472 25.7496c.07001 4.13989-1.5 8.1499-3.60999 11.70996-1.35999 2.2998-2.94 4.45996-4.72998 6.44995-2.36005 2.62988-5.07001 4.95996-8.04004 6.88989l-.25-33.20996c1.57001-2.5 4.66998-3.62988 7.62-3.33008 1.19.11011 2.35999.45996 3.39001 1.05005 3.59003 2.04004 5.54999 6.31006 5.62 10.44019z" fill="#ede7b2"/></g><g><path d="m91.92474 28.70956c-.53003 10.93994-1.46002 26.19995-7.73999 35.40991-1.83002 2.68994-4.25 5.21997-7.39001 6.07983-3.14001.86011-7.06-.52979-8.09003-3.61987-1.12-3.36988 1.38-6.72998 2.40002-10.13013 5.22998-17.40991-16.20001-15.19971-27.08001-16.78979-1.98999-.29004-3.73999-.69019-5.26996-1.17993-18.88-6.04004-4.61005-26.18018 12.01996-31.59009 5.37-1.73999 11.12-1.97998 16.77002-1.71997 4.14996.18994 8.54999.79004 12.45001 2.25 3.67999 1.36987 6.90997 3.52978 9.04999 6.81982 2.71996 4.19019 3.13 9.47022 2.88 14.47022z" fill="#ede7b2"/></g><g><path d="m69.52471 63.30941c-.19 1.04004-.34998 2.1001-.14001 3.13013.21002 1.02979.88 2.02979 1.89001 2.33984-1.60999 2.56006-6.19 3.09009-9.51995 2.98999-.69-.01978-1.33002-.07007-1.87006-.12988-4.12994-.47998-8.15997-2.20996-11.25995-4.98999-3.98004-3.57007-6.54004-8.41993-7.94-13.53003-.26001-.93994-.67999-2.44995-1.02002-4.13989-.47998-2.39014-.79999-5.15015-.23999-7.17017.39996-1.40991 1.06-2.15991 1.89001-2.53003 1.40997-.62988 3.29999-.15991 5.16998.09009 3.57001.47998 7.17999.72998 10.71997 1.38989.23999.04004.47003.08008.71002.13013.66998.12988 1.34003.29004 2.01001.45996 3.40997.90015 6.75 2.33008 9.38 4.66992 2.29999 2.04004 2.52997 5.32007 2.10999 8.38013-.14001 1.01001-.34998 1.98999-.58002 2.8999-.51 1.98999-.95 3.98999-1.30999 6.01001z" fill="#ede7b2"/></g><g><path d="m75.5266 17.1644c-3.79974 3.32397-8.25055 1.36572-12.63885.65454-2.6861-.43555-5.34827.698-6.15063 3.49219-.68323 2.37939.83203 5.71924 3.49219 6.15039 4.08795.6626 8.06744 2.02661 12.25213 1.5166 3.90338-.47559 7.17834-2.17285 10.11621-4.74268 4.8529-4.24512-2.24359-11.29395-7.07105-7.07104z" fill="#ddd59f"/></g><g><path d="m98.00475 43.90951c-2.36005 2.62988-5.07001 4.95996-8.04004 6.88989l-.25-33.20996c1.57001-2.5 4.66998-3.62988 7.62-3.33008.82001.78003 1.40002 1.86011 1.54999 3.22022.96002 8.97998 1.30999 17.88989-.87995 26.42993z" fill="#ddd59f"/></g><g><path d="m71.45987 68.72083c.22572.72964.54313 1.45628.97903 2.18063.14844.24666.30195.51218.28947.79979-.02766.63758-.78905.93916-1.41679 1.05408-2.17341.3979-4.41493.42094-6.59605.0678-5.11574-.82827-3.97588-7.21717-3.50079-11.15376.41999-3.47994 1.14996-7.33997-2.05001-9.76987-2.95001-2.22998-7.46002-1.31006-10.88-1.36011-3.07001-.05005-5.83002-.51001-8.62-1.55981-.47998-2.39014-.79999-5.15015-.23999-7.17017.39996-1.40991 1.06-2.15991 1.89001-2.53003.62.02002 1.25995.16992 1.90997.45996 4.16998 1.8501 9.5.42017 13.97998 1.02002.14001.02002.28003.04004.42004.06006.77997.12988 1.54999.31006 2.29999.53003 2.76001.83008 5.26001 2.31006 7.28997 4.42993 2.27002 2.37012 3.69 5.41016 4.20001 8.62012.08002.51001.14001 1.02002.16998 1.54004.25003 4.44464-1.39939 8.66105-.12482 12.78129z" fill="#ddd59f"/></g><g><path d="m79.99474 7.41952c-.80005.98999-2.05005 1.61987-3.75 1.52978-14.25-.75977-29.03003 5.31006-34.15002 19.56006-.52997 1.47021-1.51001 2.43018-2.65997 2.93994.13995.74023.29999 1.47021.53998 2.22021.66998 2.06982.01001 3.73999-1.21997 4.81006-18.88-6.04004-4.61005-26.18018 12.01996-31.59009 5.37-1.73999 11.12-1.97998 16.77002-1.71997 4.14995.18995 8.54998.79005 12.45 2.25001z" fill="#f7f1c6"/></g><path d="m106.63966 19.5604c-.97339-1.96655-2.44385-3.71362-4.2301-4.86597-.87671-.57568-1.85919-1.021-2.8233-1.28052-.96466-.27026-1.92218-.34351-2.81689-.32764-1.7981.03564-3.35303.58105-4.49609 1.25562-.42999.25293-.78064.5293-1.09387.80811-.16003-.33374-.32141-.66699-.50549-.99487-.96936-1.66162-2.21179-3.20288-3.70068-4.47803-1.47937-1.2876-3.17505-2.30103-4.93945-3.11182-3.54629-1.61328-7.36581-2.42798-11.16512-2.85107-3.81689-.38062-7.58179-.50781-11.4303-.26001-3.82184.24927-7.69556.97852-11.27991 2.39355-3.57404 1.39893-6.83765 3.31982-9.73706 5.56909-2.88605 2.26709-5.42603 4.8645-7.39545 7.81934-1.93335 2.94019-3.38611 6.35156-3.24835 10.03052.08582 1.82373.67572 3.63452 1.61951 5.10425.9389 1.47192 2.1521 2.66235 3.42346 3.5 1.9411 1.34009 3.98431 2.14697 5.97937 2.72876-.0816.71313-.14001 1.62109-.15143 2.70288-.02094 2.75073.30457 6.59863 1.51001 10.71899 1.11621 3.7876 3.04584 7.80371 5.77399 11.06787-.36932.02588-.841.07788-1.41028.15942-1.4718.25562-3.71179.58667-6.16907 2.10889-1.22858.80786-2.43707 2.02271-3.00989 3.85107-.24969.89429-.32532 2.13867.43573 3.18799.75049 1.04443 1.93536 1.45264 2.95837 1.59595 2.10065.2561 3.96295-.23828 5.75311-.36133.89447-.07202 1.67511-.03442 2.47394.16284 2.57097.63907 4.37146 2.79813 4.17828 5.09375-.07062 1.59863-1.14203 3.54346-1.5246 6.07275-.16565 1.32471-.08087 2.70093.52631 4.08789.30768.68457.77588 1.37476 1.44104 1.91113.66095.54077 1.4696.88916 2.2818 1.02368 1.66827.26685 3.14563-.2771 4.28906-.96484 1.15509-.70288 2.10162-1.64063 2.83734-2.71069 1.39496-2.06299 2.00568-4.1438 2.92596-5.47021.89405-1.33936 2.19605-2.39917 3.6178-3.05249.12836-.06104.25891-.10059.38806-.15479-.31573 5.14673 1.01099 22.82373 2.01538 31.7395 2.15375 19.11743 3.10468 19.41504 4.22211 19.28931 1.11768-.12598 1.97858-.62769-.17517-19.74512-1.02014-9.05518-3.72681-26.99341-5.16412-31.61279 2.47931-.74121 5.01074-.33569 7.00311.63501 1.06854.50098 2.01788 1.16724 2.79852 1.92261.7359.66235 1.44977 1.82422 2.73462 2.90039.32678.26685.69788.53223 1.15704.75391.42328.21118 1.07953.43335 1.65149.45239 1.18036.09326 2.3623-.34937 3.11908-1.21167.19092-.21069.36353-.43872.50763-.68335.15039-.23779.28217-.53052.35291-.71387.16901-.42285.26727-.81982.33441-1.20142.06641-.38208.10382-.74976.11383-1.10986.00592-.31885.01099-.60986.00446-.9043-.04565-2.33521-.3349-4.29395-.22864-5.86865.04968-.81152.16449-1.40625.41028-1.94214.23334-.54272.57501-.97534.94696-1.29395.38196-.30615.79315-.52148 1.25165-.61548.51129-.10669.67725-.08789 2.26721-.08203 1.28143-.00098 2.24866-.32495 2.86749-.8999.33112-.27734.55115-.70923.69482-1.12427.11865-.4248.10608-.82666.0282-1.22632-.12366-.40381-.26886-.80884-.4718-1.19043-.25677-.37744-.44257-.76294-.77039-1.08862-.30267-.33496-.55719-.66895-.91919-.9458-.30811-.26855-.47192-.38062-.71564-.5437-.89246-.60498-1.73047-.98828-2.48132-1.27783-1.50806-.55493-2.6781-.75146-3.56677-.8518-.88934-.09692-1.50323-.06812-1.92407-.01074-.84302.1333-.92291.39966-.95386.677-.03143.28125.00659.55029.72607.89184.69324.37573 2.17072.73462 4.54724 1.92456.57758.31104 1.19708.68921 1.77924 1.16992.13159.09985.33386.28174.37958.34253.02118.0271.05658.0791.07874.11816.05096.08228.08246.16895.10132.25049.02466.0769-.00861.19067-.12616.20679-.10461.01733-.20575-.00464-.29077-.021.25305-.00073-1.00836-.10596-1.94513.07666-.99139.16309-2.01251.60889-2.8905 1.28174-.87128.6814-1.59467 1.58423-2.0799 2.61548-.50964 1.02612-.74542 2.22949-.82239 3.27563-.16888 2.1604.12067 4.20532.1181 6.18335-.00391.24072-.00787.4834-.0119.72803-.00665.18872-.03064.37256-.06152.54028-.03046.16772-.07385.31934-.11945.42261-.03381.08008-.02319.05249-.02319.05249l-.00452.00293c-.00635.00293-.01782 0-.01782 0-.02386-.00854.04865.01733-.07123-.03687-.08948-.04004-.22284-.13037-.37189-.25513-.63867-.49463-1.30408-1.53564-2.47534-2.69043-1.10754-1.07544-2.41583-1.98926-3.88165-2.67969-1.60114-.7627-3.46521-1.30151-5.5155-1.38574-2.05841-.08936-4.23846.34302-6.23914 1.31372-2.00159.96289-3.85511 2.49316-5.16443 4.54102-1.28204 2.06714-1.80817 4.05933-2.77441 5.48901-.43213.67065-1.01044 1.26563-1.66125 1.68628-.64557.42212-1.32166.61353-1.79126.54517-.48871-.07642-.82544-.28247-1.12524-.8689-.28833-.57275-.41138-1.4165-.33057-2.21265.08423-.84424.35693-1.80884.65137-2.83862.28296-1.04053.63342-2.16992.66046-3.51099.13442-4.65296-4.20759-8.77822-10.06787-7.95947-2.00677.27539-3.78448.78491-5.21503.67505-1.47516-.13623-2.00818-.7793-1.77441-2.04639.26953-1.2124 1.11761-2.31519 2.04083-3.03076 1.96979-1.50171 4.07117-2.11523 5.44757-2.60669.67273-.2229 1.19946-.40308 1.56738-.54688.11053.12622.2132.2605.32629.38428 1.51233 1.69434 3.2854 3.15723 5.01141 4.29395 1.76105 1.07495 3.44922 1.97119 5.00311 2.55005 2.81244 1.11987 5.41626 1.71582 7.73505 2.03027 2.33209.25586 4.37531.25659 6.13092.02441 3.52399-.41992 5.79016-1.64697 7.10077-2.61768.74591-.53198 1.19958-1.02222 1.49225-1.42871 1.10947-.61501 2.04701-1.36645 2.9082-2.2688 1.0791-1.146 1.6239-2.0481 1.96552-2.67578.65533-1.27197.4549-1.51514.23322-1.66992-.23853-.16699-.49915-.20337-1.4884.70166-.50165.4397-1.18317 1.12939-2.24811 1.96484-1.04803.80103-2.56964 1.85449-4.60889 2.1377-2.39127.276-5.20006-.90546-5.6366-3.26709-.27979-1.29932.2644-3.0249 1.21899-5.11596.45911-1.04663 1.0025-2.20703 1.43945-3.58008.36957-1.32275.75696-2.71484.86438-4.29028.12463-1.55347.0545-3.29028-.56445-5.04028-.60193-1.74878-1.80786-3.39551-3.31866-4.59033-3.57563-2.85416-9.14687-3.81755-13.67957-4.30737.03461-.13574.02667-.27417.01312-.41602-.02673-.28003-.0813-.54541-.38635-.77856-.30371-.26025-.8537-.36279-1.83582-.67383-.97015-.28442-2.4209-.63452-4.29102-1.76514-1.82068-1.11816-4.24298-3.00049-5.94-6.44702-.89758-1.8855-1.63031-4.45459-1.27625-7.3457.30469-2.86426 1.58063-5.85156 3.37091-8.17993 1.13135-1.54663 2.4502-2.79419 3.69342-3.78027.0094-.00391.01843-.00879.02783-.0127 6.31671-2.61548 13.80359-2.79541 20.99079-2.26147 3.56976.32373 7.08356 1.01685 10.21808 2.35962 3.14502 1.31445 5.78961 3.4397 7.4339 6.16919.4718.78662.85352 1.61963 1.17401 2.47778-.16522.25073-.3501.53101-.59076.87891-.70551.94092-1.83771 2.34009-4.15826 3.76685-2.28363 1.41431-5.82758 2.71606-10.89063 3.17114-2.633.21802-6.14227.39355-9.61597-.09106-1.73877-.24194-3.47321-.70142-4.92029-1.46436-.71985-.38428-1.33972-.85962-1.82648-1.41113-.51587-.54272-.68359-1.06665-.65173-1.25146-.01495-.2583.44397-.77661 1.172-1.08789.70581-.32617 1.53571-.52222 2.33099-.62354 1.59143-.17749 3.21033-.05029 4.48896.1355 2.60535.39014 4.18488 1.09033 4.33783.81152.14362-.22192-1.2066-1.46362-3.94171-2.41406-1.37909-.45874-3.01044-.85889-5.01783-.89307-.99713.0061-2.05017.11133-3.16766.48071-.55658.1853-1.13763.44873-1.70679.88379-.5611.42627-1.12897 1.09375-1.37769 1.95801-.23419.79419-.13983 1.64282.08624 2.30078.22711.66772.55951 1.23291.92761 1.70361.7149.9624 1.62518 1.7522 2.58832 2.3584 1.94025 1.20361 4.03625 1.84888 6.034 2.23755 2.0036.39478 3.95111.54272 5.73694.57764 1.77405.04077 3.4325-.02173 4.89313-.15527 5.58392-.4939 9.83539-2.11255 12.59595-4.10034 1.76233-1.25024 2.93054-2.56323 3.69617-3.7395.13477.88501.22687 1.77612.27722 2.66138.09802 1.60059.06683 3.1665.00848 4.7605-.06287 1.58716-.12445 3.14087-.18451 4.65723-.28467 6.05078-.81213 11.47388-1.68042 15.94702-.82831 4.48364-1.992 7.99194-2.99725 10.33105-.2597.58228-.49042 1.09961-.69055 1.54834-.20618.44653-.41321.80688-.55658 1.11401-.6089 1.24556-.49228 1.31929.35327.22046.20422-.27539.4743-.60864.74457-1.03174.2572-.43237.55365-.93091.88733-1.49194 1.21576-2.17847 2.58563-5.50928 3.6546-9.75366.33716.28394.98828.33374 2.88403-.70435 1.1955-.68457 2.91412-1.82104 5.1076-3.9165 2.1723-2.10449 4.88086-5.1394 7.37592-9.91016 1.32538-2.60864 2.78931-6.3645 2.65857-10.66968-.0704-2.15797-.6-4.34791-1.58359-6.31519zm-39.20068 26.53735c2.05114 1.61201 2.71091 3.68415 2.54749 6.29858-.04968 1.19287-.35327 2.38232-.63873 3.51367-.31006 1.06274-.76703 2.13257-1.21918 3.23413-.44708 1.10156-.89771 2.22437-1.16754 3.44971-.26971 1.21167-.36188 2.54565-.05322 3.79126.28143 1.23584.95349 2.37817 1.75555 3.17798.62146.63037 1.3092 1.09473 2.00226 1.44116-.17999.01489-.35162.03345-.54071.04395-1.47162.10107-3.2132.0249-5.2276-.24243-2.00898-.32617-4.29389-.875-6.76459-1.85938-1.36957-.50513-2.84589-1.27051-4.3952-2.14893-1.51031-.94409-2.99249-2.06445-4.39423-3.48144-2.81427-2.78955-5.00317-6.5437-6.45947-10.22485-1.45276-3.69629-2.19983-7.29346-2.65533-9.91748-.15112-.88232-.27374-1.64502-.38312-2.28491.03058.00806.06158.01709.09216.0249 2.34784.60059 4.67249.91089 6.84583 1.09668 4.33618.36646 8.2702.52515 11.82672 1.06616 3.52031.52832 6.742 1.41113 8.82891 3.02124zm-28.74854-20.03589c.23657 1.67822.8208 3.12964 1.36688 4.36084 1.96039 3.97119 4.69873 6.22388 7.02112 7.54565-2.05652-.18481-4.09778-.47217-6.14081-.99707-2.04883-.521-4.10187-1.26685-5.78534-2.43921-1.87354-1.26099-3.19232-3.11938-3.32892-5.47998-.11584-2.37622.89459-5.11475 2.53735-7.62549 1.79553-2.71899 4.24213-5.24927 7.0943-7.42456-.33197.50146-.6499 1.0166-.93011 1.56128-.84552 1.62134-1.46539 3.39966-1.78809 5.20191-.34734 1.79517-.3084 3.62769-.04638 5.29663zm63.24775 8.63037c-2.21979 4.24658-4.60016 7.09668-6.43518 9.14258-1.85864 2.04907-3.25519 3.31543-4.15472 4.2373-.22052.21753-.40955.41284-.57648.59302.90326-4.15552 1.54303-9.01172 1.98254-14.32349.12952-1.52588.24066-3.09009.34595-4.68408.1106-1.58911.19965-3.28149.14606-4.99316-.07593-2.6897-.46265-5.56689-1.54846-8.32202.36273-.20386.77692-.40381 1.26282-.57202 1.03046-.35059 2.33044-.5769 3.73065-.40845 1.409.14795 2.83203.67603 4.03851 1.67163 2.4845 1.9502 3.83972 5.59302 3.74109 8.87256-.07246 3.3667-1.35603 6.48023-2.53278 8.78613z" fill="#202020"/></g></svg>