<svg id="Layer_1" enable-background="new 0 0 136 136" height="512" viewBox="0 0 136 136" width="512" xmlns="http://www.w3.org/2000/svg"><g><g><path d="m72.07413 52.91008c-.08002.06982-.17004.13965-.25.20996l.25.00977 1.96997.06982c1.28003 2.04004 2.59003 4.14014 3 6.52051.09003.5.12 1.01953.09998 1.53955-.04999 1.93018-.83997 3.85009-2.42999 4.86035-.32001.19971-.72998.36963-1.07996.20996-.36005-.16016-.51001-.57031-.62-.9502-.70001-2.41992-1.17004-4.91992-2.15002-7.22998s-2.58002-4.48975-4.85999-5.48975c-2.97003-1.29004-6.79004-.47998-9.23999-2.62012-1.91003-1.66992-2.16003-4.93994-.52002-6.89014 1.64001-1.93994 4.87-2.2002 6.78998-.5498l2.66003 1.0498c-2.03003-3.50977-3.02002-7.64014-2.80005-11.70996.12006-2.16016 1.05005-4.77979 3.18005-5.00977 1.45996-.15039 2.75.96973 3.65997 2.1499 3.28003 4.23975 4.17999 10.23975 2.31 15.27979l1.67999-1.72998c.59003-2.25977 1.70001-4.37988 3.22998-6.14014.74005-.84961 1.78003-1.65967 2.83002-1.80957.44-.07031.89001-.02002 1.32001.18994 1.44.70996 1.59003 2.72998 1.25 4.31982-1.21997 5.72021-5.84998 9.93994-10.27997 13.70996v.01028z" fill="#f9ed32"/></g><g><path d="m50.14407 72.33976c-.19995.18018-.39996.3501-.59998.52002l.98999.04004 1.22003.04004c1.27997 2.04004 2.58997 4.14014 3 6.52002.40997 2.37012-.30005 5.12012-2.32001 6.3999-.23004.12988-.48999.26025-.75.27002-.12.01025-.23004-.00977-.34003-.06006-.34998-.15967-.5-.58008-.60999-.94971-.70001-2.42041-1.16998-4.92041-2.15002-7.22998-.97998-2.31006-2.57996-4.49023-4.87-5.49023-2.96997-1.2998-6.77997-.48975-9.22998-2.62988-1.90997-1.66016-2.15997-4.93994-.53003-6.87988 1.43005-1.69043 4.06006-2.11035 5.99005-1.1001.28998.14014.56.33008.81.54004l2.65997 1.06006c-2.02997-3.52002-3.02002-7.65039-2.79999-11.72021.10999-2.16016 1.04999-4.77979 3.16998-5 1.47003-.1499 2.75.97021 3.66003 2.1499 3.27997 4.24023 4.19 10.24023 2.31 15.28027l1.67999-1.72998c.58997-2.27002 1.70996-4.39014 3.22998-6.1499 1.06-1.21045 2.72003-2.33008 4.16003-1.61035 1.42999.70996 1.57996 2.72998 1.23999 4.32031-1.18997 5.55956-5.6 9.70995-9.92001 13.40966z" fill="#f9ed32"/></g><g><path d="m25.40409 91.76994 2.21002.08984c1.27997 2.03027 2.58997 4.14014 3 6.51025.40997 2.37988-.29999 5.11963-2.32001 6.3999-.31.2002-.67999.3501-1.01001.23975-.01996 0-.04999-.00977-.07001-.02002-.35999-.15967-.51001-.57959-.62-.95996-.70001-2.40967-1.16998-4.90967-2.14996-7.22998-.98004-2.31006-2.58002-4.48975-4.86005-5.47998-2.97998-1.2998-6.78998-.48975-9.23999-2.62988-1.90997-1.66992-2.15997-4.93994-.51996-6.87988.82996-.97998 2.06995-1.54004 3.34998-1.62012 1.22998-.1001 2.48999.25 3.44 1.06006l2.65997 1.06006c-2.02997-3.52002-3.01996-7.6499-2.79999-11.72021.12-2.15967 1.04999-4.77979 3.16998-5 1.47003-.15967 2.75.97021 3.66003 2.14014 3.27997 4.24023 4.19 10.24023 2.31 15.29004l1.67999-1.74023c.59998-2.25977 1.71002-4.37988 3.22998-6.13965 1.06-1.22021 2.72003-2.33008 4.16003-1.62012 1.42999.70996 1.58002 2.73975 1.25 4.31982-1.24998 5.83007-6.02 10.10009-10.53 13.93017z" fill="#f9ed32"/></g><g><path d="m110.52408 30.06974c-2.87 1.51025-6.39996-.15967-9.58997.41016-2.45001.43994-4.5 2.18994-5.97003 4.20996-1.47998 2.03027-2.51001 4.3501-3.72998 6.54004-.20001.33984-.44.70996-.82001.77979-.09998.02002-.20001.01025-.28998-.00977-.27002-.05029-.52002-.24023-.71002-.4502-.48999-.48975-.83997-1.08984-1.07001-1.72998-.57001-1.58008-.41998-3.45996.25-5.02979.09003-.20996.17999-.41016.29999-.60986.97003-1.94043 2.55005-3.52002 4.09003-5.04004l2.17999.42969c-3.52002-4.77979-7.20001-10.04004-7.08997-16 .02997-1.62012.62994-3.56006 2.19-3.91992 1.56-.35986 2.92999 1.10986 3.67999 2.54004 1.07996 2.06982 1.69 4.39014 1.75 6.72998l1.25 2.08008c-.69-5.33984 1.54999-10.97022 5.70996-14.33984 1.15002-.93018 2.65002-1.72998 4.04004-1.24023 2.01996.70996 2.32996 3.47998 1.95996 5.60986-.70996 4.01025-2.60999 7.80029-5.38 10.75l2.83002-.40967c2.25-1.16016 5.33002-.1499 6.47998 2.11963.06.12012.11005.24023.16003.36035.89002 2.23974-.10998 5.09961-2.22002 6.21972z" fill="#f9ed32"/></g><g><path d="m76.16409 104.68986c-.12 2.16016-2.64996 3.24023-4.77997 3.45996-4 .43018-8.12-.3501-11.69-2.22998l1.16998 2.64014c1.33997 1.43994 1.58002 3.71973.77002 5.48975-.23004.53027-.55005 1.01025-.97003 1.41016-1.83002 1.75-5.07001 1.66992-6.81-.18018-2.23999-2.36963-1.63-6.27002-3.06-9.20996-.75-1.54004-2.02002-2.71973-3.48999-3.58984-.69-.43018-1.41998-.77002-2.16998-1.0498-2.33002-.87012-4.82001-1.22021-7.24005-1.81006-.37994-.09033-.79999-.22021-.96997-.57031s-.03003-.77002.15997-1.1001c1.15002-2.10986 3.82001-2.97949 6.19-2.67969 2.36005.29004 4.5 1.5 6.57001 2.7002l.20001 2.22949c3.54999-4.75 7.52002-9.7998 13.20001-11.35986 1.53998-.41992 3.54999-.36963 4.32001 1.05029.77997 1.40967-.23004 3.1499-1.38 4.27979-1.66003 1.62988-3.69 2.87012-5.89001 3.58008l-1.63 1.79004c4.88-2.16016 10.84003-1.54004 15.19 1.56006 1.21002.85984 2.38 2.09958 2.30999 3.58982z" fill="#f9ed32"/></g><g><path d="m106.99411 82.18986c-.10999 2.16016-2.65002 3.22998-4.78003 3.45996-4 .43018-8.12-.35986-11.69-2.22998l1.17999 2.62988c1.72003 1.87012 1.62006 5.1499-.20996 6.8999-.32001.31006-.67999.55029-1.06.75-1.85004.93018-4.31.61035-5.75-.91992-2.23004-2.36963-1.63-6.27002-3.06-9.20996-1.10004-2.25977-3.33002-3.77002-5.66003-4.63965-2.32996-.88037-4.82001-1.22021-7.23999-1.81006-.37-.09033-.79999-.22021-.96997-.57031-.17004-.3501-.03003-.77002.15997-1.10986.34003-.62012.79999-1.12012 1.35004-1.52979 1.32996-.97998 3.15997-1.36035 4.83997-1.15039 2.35999.30029 4.5 1.51025 6.57001 2.7002l.20001 2.23975c3.54999-4.75977 7.51996-9.7998 13.20001-11.35986 1.54999-.41992 3.54999-.36963 4.32996 1.04004.77002 1.41992-.23999 3.16016-1.38995 4.29004-1.66003 1.62988-3.69 2.85986-5.89001 3.58008l-1.62 1.79004c4.87-2.16016 10.83997-1.55029 15.17999 1.5498 1.20995.85985 2.38 2.10985 2.30999 3.60009z" fill="#f9ed32"/></g><g><path d="m126.64407 57.06974c-.10999 2.16016-2.63995 3.22998-4.76996 3.45996-4 .43018-8.12-.35986-11.69-2.23975l1.16998 2.64014c.78003.84961 1.19 1.96973 1.22998 3.11963.06 1.3999-.42999 2.82031-1.42999 3.78027-1.82996 1.75977-5.07001 1.66992-6.81-.16992-2.23999-2.38037-1.63-6.27002-3.06-9.21045-1.09998-2.25977-3.33002-3.76953-5.65997-4.63965-2.33002-.87988-4.82001-1.22021-7.23999-1.81006-.37-.08984-.77002-.20996-.95001-.54004-.01001-.01025-.01001-.02002-.02002-.02979-.16998-.3501-.02997-.77002.16003-1.11035 1.14996-2.10986 3.81995-2.96973 6.19-2.67969 2.35999.29004 4.5 1.50977 6.56995 2.69971l.19 2.08008.01001.16016c.03003-.04004.04999-.07031.08002-.10986 3.52997-4.73047 7.47998-9.7002 13.12-11.25 1.53998-.42041 3.54999-.37012 4.32001 1.03955.77997 1.42041-.23999 3.16016-1.38 4.29004-1.65997 1.63037-3.69 2.86035-5.89001 3.58008l-1.63 1.79004c4.88-2.16016 10.84003-1.5498 15.19 1.55029 1.21001.85987 2.37999 2.10987 2.29997 3.59961z" fill="#f9ed32"/></g><g><path d="m61.63412 114.04972c-.23004.53027-.55005 1.01025-.97003 1.41016-1.83002 1.75-5.07001 1.66992-6.81-.18018-2.23999-2.36963-1.63-6.27002-3.06-9.20996-.75-1.54004-2.02002-2.71973-3.48999-3.58984.58997-.5498 1.28998-.95996 2.01001-1.1499 2.83997-.75 5.10999.97998 6.14996 3.48975 1.44001 3.49022 3.56001 6.59032 6.17005 9.22997z" fill="#edd815"/></g><g><path d="m90.43411 93.69962c-1.85004.93018-4.31.61035-5.75-.91992-2.23004-2.36963-1.63-6.27002-3.06-9.20996-1.10004-2.25977-3.33002-3.77002-5.66003-4.63965-2.32996-.88037-4.82001-1.22021-7.23999-1.81006-.37-.09033-.79999-.22021-.96997-.57031-.17004-.3501-.03003-.77002.15997-1.10986.34003-.62012.79999-1.12012 1.35004-1.52979.60999-.06006 1.27997.00977 1.98999.23975 9.59998 3.0498 15.88 10.54004 19.17999 19.5498z" fill="#edd815"/></g><g><path d="m112.58408 64.04972c.06 1.3999-.42999 2.82031-1.42999 3.78027-1.82996 1.75977-5.07001 1.66992-6.81-.16992-2.23999-2.38037-1.63-6.27002-3.06-9.21045-1.09998-2.25977-3.33002-3.76953-5.65997-4.63965-2.33002-.87988-4.82001-1.22021-7.23999-1.81006-.37-.08984-.77002-.20996-.95001-.54004.88-2.01025 2.88-3.37012 5.57001-2.37988 2.60999.95996 5.13995 2.02002 7.51996 3.33984.03003.02002.06.02979.09003.05029 1.78998 1 3.48999 2.1499 5.07001 3.53955 2.65996 2.33009 4.85997 5.15041 6.89995 8.04005z" fill="#edd815"/></g><g><path d="m77.0441 59.72013c.09003.5.12 1.01953.09998 1.53955-1.71997-.23975-3.35999-1.27002-4.16998-3.25977-.64001-1.58984-.90997-3.22021-.89996-4.87012l1.96997.06982c1.28002 2.04006 2.59001 4.14015 2.99999 6.52052z" fill="#edd815"/></g><g><path d="m82.3541 39.18986c-1.21997 5.72021-5.84998 9.93994-10.27997 13.70996.13995-6.41016 4.44995-13.02979 7.70996-18.21973.44-.07031.89001-.02002 1.32001.18994 1.44.70997 1.59002 2.72999 1.25 4.31983z" fill="#edd815"/></g><g><path d="m110.52408 30.06974c-2.87 1.51025-6.39996-.15967-9.58997.41016-2.45001.43994-4.5 2.18994-5.97003 4.20996-1.47998 2.03027-2.51001 4.3501-3.72998 6.54004-.20001.33984-.44.70996-.82001.77979-.09998.02002-.20001.01025-.28998-.00977-.79004-.9502-1.20001-2.18018-.98004-3.5-.08997.18994-.19995.39014-.31995.58008-.15002.23975-.31.48975-.48004.73975-.57001-1.58008-.41998-3.45996.25-5.02979.09003-.20996.17999-.41016.29999-.60986.56.86963.84003 1.90967.66003 3.02979.08002-.18018.17999-.37012.29999-.5498 4.98999-8.09033 13.66003-13.55029 22.89001-12.81006.89002 2.23973-.10998 5.0996-2.22002 6.21971z" fill="#edd815"/></g><g><path d="m27.28409 105.00968c-.01996 0-.04999-.00977-.07001-.02002-.35999-.15967-.51001-.57959-.62-.95996-.70001-2.40967-1.16998-4.90967-2.14996-7.22998-.98004-2.31006-2.58002-4.48975-4.86005-5.47998-2.97998-1.2998-6.78998-.48975-9.23999-2.62988-1.90997-1.66992-2.15997-4.93994-.51996-6.87988.82996-.97998 2.06995-1.54004 3.34998-1.62012 3.41998 1.97021 6.27997 5.06982 8.67999 8.12988 3.72998 4.76025 4.72998 10.31006 5.39001 16.16992.02003.18018.02998.3501.03999.52002z" fill="#edd815"/></g><g><path d="m53.24411 82.6298c-.04999 1.54004-.66003 2.70996-1.56 3.5-.12.01025-.23004-.00977-.34003-.06006-.34998-.15967-.5-.58008-.60999-.94971-.70001-2.42041-1.16998-4.92041-2.15002-7.22998-.97998-2.31006-2.57996-4.49023-4.87-5.49023-2.96997-1.2998-6.77997-.48975-9.22998-2.62988-1.90997-1.66016-2.15997-4.93994-.53003-6.87988 1.43005-1.69043 4.06006-2.11035 5.99005-1.1001.56.94971.79999 2.12988.50995 3.48974.28003-1.02979.35004.15039 1.11005.76025.83997.68018 2.02997 1.0498 2.97998 1.56006 1.67999.8999 3.27002 2.02002 4.56 3.44971.37.42041.72003.8501 1.03998 1.29004.14001.18018.26001.37012.39001.56006 1.90003 2.85986 2.82002 6.25 2.71003 9.72998z" fill="#edd815"/></g><g fill="#202020"><path d="m61.50524 34.89641c.40314 2.74561 1.35229 5.07324 2.25165 6.59912.89892 1.53613 1.71392 2.29443 1.94201 2.15869.50482-.2749-1.33337-4.10889-1.32361-8.99316-.00665-.60449.02075-1.2207.0658-1.84082.05475-.64453.11505-1.20752.25555-1.73584.24268-1.07227.86279-2.04199 1.26239-2.17822.18158-.06934.34357-.07959.52417-.02734.18835.05811.47778.21582.77484.47852.29767.25879.59338.59521.85773.9458.26965.38965.54242.75195.75421 1.11914 1.62494 2.64844 2.04633 5.08594 2.24036 6.85937.17456 1.80127.0722 3.04053.08014 3.90332-.06824 1.71729.29541 1.98145.84869 2.17725.26373.09717.51953.17627.83319.00732.31342-.16992.70319-.58594 1.12317-1.53271.07544-.18408.15338-.396.23059-.62354.52639-.71439 1.24505-2.05991 2.48688-3.52588.59113-.68701 1.30481-1.47314 2.02679-1.93994.36761-.2373.76184-.42236 1.06628-.46875.32056-.05518.44312.02295.54095.1001.09607.0957.13959.17236.21851.44043.06909.26074.09637.65283.06152 1.06055-.0448.43457-.10828.78174-.27319 1.28076-.12329.4707-.3009.91455-.46008 1.34473-.3631.84814-.73529 1.62256-1.13837 2.27637-1.43494 2.40283-3.00037 4.04346-4.13483 5.32031-1.16162 1.26709-1.96313 2.15625-2.44965 2.82471-.98059 1.33447-.71027 1.76465-.3432 2.19287.36462.42578.74292.78076 2.23212-.01953.74316-.40381 1.77277-1.09326 3.18024-2.31152 1.37781-1.23975 3.2384-2.96533 5.03101-5.95117.49487-.81055.95673-1.82129 1.3642-2.94678.18329-.57324.37256-1.16699.49481-1.79883.14996-.58496.25879-1.39014.24854-2.12842-.01471-.7627-.1145-1.57715-.47418-2.43848-.18634-.4292-.44238-.86523-.79773-1.25977-.36328-.39355-.81866-.71777-1.30481-.93359-.99078-.4458-2.14539-.36865-2.93872-.05029-.82404.30615-1.42462.76465-1.94147 1.23291-1.0127.96631-1.57434 1.94385-2.07739 2.8623-.04034-.95752-.17883-2.02686-.46277-3.20898-.36444-1.49365-.97723-3.17041-2.04987-4.89013-.28119-.479-.63947-.95459-1.01703-1.46045-1.06308-1.32792-2.39671-2.43602-4.07513-2.75293-1.07886-.20361-2.30219.02783-3.26031.6543-.94525.63428-1.54138 1.49658-1.90881 2.30762-.37439.82227-.58551 1.63916-.69446 2.44434-.11865.81445-.10602 1.61572-.07721 2.31201.03668.72165.10076 1.43015.20648 2.11423z"/><path d="m75.09612 99.49358c-.52075-.36035-1.00159-.69873-1.48944-.95996-1.74963-1.00146-3.4408-1.55078-4.94385-1.84668-1.23218-.24219-2.33569-.3252-3.31653-.31152.01794-.01074.03528-.01953.05322-.03027.89606-.56738 1.85754-1.19971 2.76941-2.29199.43176-.54492.84625-1.17188 1.10052-2.00146.2644-.80225.29095-1.92627-.17822-2.89014-.2276-.47168-.55615-.92041-.96313-1.27002-.40479-.3457-.85394-.59375-1.29486-.76709-.88379-.33008-1.7121-.39404-2.47852-.36816-.74304.02686-1.54516.18359-2.12005.36719-.62506.1582-1.20569.38477-1.76794.60156-1.09723.47754-2.07825 1-2.85297 1.54688-2.85834 1.979-4.45337 3.94189-5.59833 5.39258-1.1214 1.47852-1.74207 2.54688-2.09644 3.31201-.70093 1.53369-.32294 1.88818.12488 2.2251.45099.33936.89746.58203 2.16449-.47803.63483-.52637 1.46936-1.38037 2.65674-2.61768 1.198-1.21143 2.73126-2.87695 5.02618-4.45801.62354-.44434 1.36975-.85938 2.18762-1.27344.41718-.18213.84601-.38672 1.30524-.53516.48572-.19287.82159-.2749 1.24517-.34082.39874-.05615.7785-.04492 1.02979.00928.25146.06738.32745.09619.43103.20264.08862.10303.16968.24756.13135.57568-.0307.31445-.18988.71826-.40161 1.10156-.41766.75049-1.14862 1.50781-1.79456 2.14209-.65777.63525-1.31042 1.16162-1.88025 1.59082-.6438.48486-1.17212.8501-1.50055 1.12891-.21094.08594-.40826.17139-.57965.25342-.91638.47217-1.30585.88525-1.45532 1.20752-.14862.32227-.05414.57275.0589.83008.22858.54102.51459.88721 2.20691.72559.85303-.0376 2.07031-.20752 3.85565-.12012.89038.03516 1.92139.16309 3.08191.43896 1.15906.27637 2.45129.72607 3.77759 1.4873.37006.19385.74084.45508 1.13135.7041.53299.37199 1.25215.97156 1.47083 1.57959.06659.19141.05695.37549.00391.56738-.11224.40771-.99573 1.07422-2.03851 1.38232-.98352.31885-2.34436.44727-3.50574.51123-4.82873.25928-8.70855-1.41602-8.96185-.89893-.12683.2334.65625 1.01416 2.21851 1.84277 1.55103.82959 3.9057 1.67236 6.65405 1.93408.68512.07275 1.39227.09619 2.11157.09668.69128-.0083 1.49896-.04199 2.30023-.20898.79547-.16211 1.59794-.42236 2.39282-.854.78516-.42432 1.59857-1.09277 2.1546-2.06738.53943-.99365.69238-2.18457.44788-3.23145-.38643-1.64558-1.51656-2.9262-2.87403-3.93603z"/><path d="m105.92754 76.99113c-.52069-.36035-1.00159-.69824-1.48944-.95996-1.74963-1.00146-3.4408-1.55078-4.94385-1.84668-1.23218-.24219-2.33569-.3252-3.31653-.31152.01794-.01074.03528-.01953.05322-.03027.89606-.56738 1.85754-1.19922 2.76941-2.29199.43182-.54492.84625-1.17188 1.10052-2.00146.2644-.80225.29095-1.92627-.17822-2.89014-.2276-.47168-.55615-.92041-.96313-1.27002-.40479-.3457-.85394-.59375-1.29486-.76709-.88379-.33008-1.7121-.39404-2.47852-.36816-.74304.02686-1.5451.18359-2.12006.36719-.62506.1582-1.20563.38477-1.76794.60156-1.09723.47754-2.07825 1-2.85297 1.54688-2.85834 1.979-4.45331 3.94189-5.59827 5.39258-1.12146 1.47852-1.74213 2.54688-2.0965 3.31201-.70093 1.53369-.32288 1.88818.12488 2.2251.45099.33936.89752.58203 2.16449-.47803.63483-.52637 1.46936-1.38037 2.65674-2.61768 1.198-1.21143 2.73132-2.87695 5.02618-4.45801.62354-.44434 1.36975-.85938 2.18762-1.27344.41718-.18213.84601-.38672 1.30524-.53516.48572-.19287.82159-.2749 1.24518-.34082.39874-.05615.77856-.04492 1.02979.00928.25146.06738.32751.09619.43109.20264.08862.10303.16968.24756.13129.57568-.0307.31445-.18982.71875-.40161 1.10156-.4176.75049-1.14862 1.50781-1.79456 2.14209-.65771.63525-1.31042 1.16162-1.88025 1.59082-.6438.48438-1.17206.84961-1.50049 1.12891-.21094.08594-.40826.17188-.57971.25342-.91638.47217-1.30579.88525-1.45532 1.20752-.14862.32227-.05408.57275.0589.83008.22858.54102.51465.88721 2.20691.72559.85303-.0376 2.07031-.20752 3.85565-.12012.89038.03516 1.92139.16309 3.08191.43896 1.15912.27637 2.45129.72607 3.77759 1.4873.37006.19385.74084.45508 1.13135.7041.53084.37048 1.25161.9704 1.47089 1.57959.06659.19141.05688.37549.00385.56738-.11224.40771-.99573 1.07422-2.03845 1.38232-.98358.31885-2.34442.44727-3.5058.51123-4.82874.25928-8.70856-1.41602-8.96185-.89893-.12683.2334.65625 1.01416 2.21851 1.84277 1.55103.82959 3.9057 1.67236 6.65405 1.93408.68512.07275 1.39227.09619 2.11157.09668.69135-.0083 1.49896-.04199 2.30023-.20898.79553-.16211 1.59796-.42236 2.39282-.854.78522-.42432 1.59857-1.09277 2.1546-2.06738.53943-.99365.69238-2.18457.44794-3.23145-.38651-1.64549-1.5165-2.92621-2.87409-3.93603z"/><path d="m128.45964 55.80608c-.38649-1.6455-1.51649-2.92623-2.87408-3.93604-.52069-.36035-1.00159-.69824-1.48944-.95996-1.74963-1.00146-3.4408-1.55078-4.94385-1.84668-1.23218-.24219-2.33563-.3252-3.31647-.31152.01788-.01074.03522-.01953.05316-.03027.89606-.56738 1.85754-1.19922 2.76941-2.29199.43182-.54492.84625-1.17188 1.10052-2.00146.2644-.80225.29095-1.92627-.17822-2.89014-.2276-.47168-.55615-.92041-.96313-1.27002-.40479-.3457-.85394-.59375-1.29486-.76709-.88379-.33008-1.7121-.39404-2.47852-.36816-.74304.02686-1.5451.18359-2.12006.36719-.62506.1582-1.20563.38477-1.76794.60156-1.09723.47754-2.07825 1-2.85297 1.54688-2.85834 1.979-4.45331 3.94189-5.59827 5.39258-1.12146 1.47852-1.74213 2.54688-2.0965 3.31201-.70093 1.53369-.32288 1.88818.12488 2.2251.45099.33936.89752.58203 2.16447-.47803.63485-.52637 1.46938-1.38037 2.65676-2.61768 1.198-1.21143 2.73132-2.87695 5.02618-4.45801.62354-.44434 1.36975-.85938 2.18762-1.27344.41718-.18213.84601-.38672 1.30524-.53516.48572-.19287.82159-.2749 1.24518-.34082.39874-.05615.77856-.04492 1.02979.00928.25146.06738.32745.09619.43109.20264.08862.10303.16968.24756.13129.57568-.0307.31445-.18982.71875-.40161 1.10156-.4176.75049-1.14862 1.5083-1.79456 2.14209-.65778.63525-1.31042 1.16162-1.88025 1.59082-.6438.48438-1.17206.84961-1.50049 1.12891-.21094.08594-.40826.17188-.57971.25342-.91638.47217-1.30585.88525-1.45532 1.20752-.14862.32227-.05408.57275.0589.83008.22858.54102.51459.88721 2.20691.72559.85303-.0376 2.07031-.20752 3.85565-.12012.89038.03516 1.92139.16309 3.08191.43896 1.15912.27637 2.45129.72607 3.77759 1.4873.37006.19385.74084.45508 1.13135.7041.53084.37048 1.25161.9704 1.47089 1.57959.06659.19141.05688.37549.00385.56738-.11224.40771-.99573 1.07422-2.03845 1.38232-.98358.31885-2.34442.44727-3.5058.51123-4.82874.25928-8.70856-1.41602-8.96185-.89893-.12683.2334.65625 1.01416 2.21851 1.84277 1.55103.82959 3.9057 1.67236 6.65405 1.93408.68512.07275 1.39227.09619 2.11157.09668.69135-.0083 1.49896-.04199 2.30023-.20898.79553-.16211 1.59796-.42236 2.39282-.854.78522-.42432 1.59857-1.09277 2.1546-2.06738.53942-.99365.69238-2.18457.44793-3.23144z"/><path d="m111.35808 60.93352c-.11279.104.06616.45508.2561 1.06104.18524.60303.3598 1.50244.17297 2.54736-.17676 1.02441-.75098 2.20361-1.80432 2.77539-1.01837.61426-2.59442.64355-3.72748-.02393-1.1076-.60742-1.68683-1.97559-1.97144-3.7627-.32703-1.7793-.3656-3.96436-1.47168-6.20215-1.12042-2.20117-2.98035-3.66113-4.7287-4.60303-1.78717-.95947-3.5163-1.42188-4.9455-1.76611-2.30423-.50222-1.65159-.36155-2.74591-.58838-.20605-.04297-.09955-.01953-.12836-.0249l-.00299.00195c-.00684.00684-.04401.00977-.04785-.01172-.00397-.00928-.00476-.02148-.00122-.03613l.00885-.02393.1225-.08496c.05493-.04395.12256-.07422.18335-.11133.4928-.29346 1.06049-.46436 1.5954-.56641.9801-.18509 1.95598-.07837 2.92688.13721.86731.19727 1.59705.44727 2.20129.64209 2.43292.86035 2.81543.56299 3.08655.0498.25336-.47998.51074-.99756-1.80463-2.62842-.59796-.39502-1.37628-.86084-2.47534-1.28662-1.44601-.5489-2.93243-.79831-4.42773-.63428-.35992.04053-.73584.10889-1.11816.19873.21429-.73389.39722-1.43213.53998-2.08008.33466-.0957.63501-.23584.91888-.44775.16852-.11279.32397-.31055.48431-.49023l.24109-.27393.21277-.35303c.29022-.46484.55621-.9834.83435-1.49414.14398-.27295.29022-.5498.43884-.83154.9463-1.77346 1.90619-3.67619 3.2309-5.17969.97321-1.11377 2.21155-2.08105 3.57336-2.45166 1.32758-.39502 3.18488-.13818 5.29675-.02783 1.05939.04199 2.23627.0127 3.42419-.31787 1.16675-.31299 2.35779-1.0332 3.11877-1.98877 1.53595-1.8916 1.82605-4.30713 1.12012-6.21631-.34863-.95996-.96063-1.75244-1.63751-2.29004-.6756-.54785-1.40247-.88379-2.08209-1.07129-1.37067-.37939-2.52924-.1626-3.21838.13623-.69879.30908-.96503.65088-.9046.75977.06976.13623.45648.05713 1.09045.03955.62891-.01416 1.54083.06738 2.4809.55078.92578.4668 1.86804 1.3623 2.09692 2.55127.27747 1.16846-.13519 2.70313-1.09265 3.62109-.89117.90723-2.34436 1.08691-4.14551.85791-1.79395-.18604-3.94171-.75928-6.41901-.25439-2.42615.5332-4.29272 1.96875-5.64807 3.41113-1.37024 1.46875-2.26276 2.98535-2.97449 4.2627-.0332-.16895-.0672-.32422-.10059-.45166-.24854-.82227-.51685-.86816-.79779-.86182-.06567.00146-.13049.00732-.19446.02441.15411-.38135.32245-.74023.49805-1.06689.42688-.78516.8656-1.42188 1.21539-1.95313 1.48334-2.1167 1.29797-2.56445.87653-2.96289-.39508-.37305-.82501-.75781-3.01703 1.03662-1.87053 1.62684-3.2859 3.6949-3.73706 6.09277-.15979.89893-.23096 1.90967-.03979 3.02881l.08063.42285.13971.51855c.15302.40332.29755.83105.51465 1.21191.29492.57813.68457 1.10986 1.13104 1.54199-1.94543 6.18887-5.27564 11.43917-9.23364 16.57861-.0238-.12207-.03583-.25879-.06348-.375-.17047-.71875-.39551-1.33936-.62909-1.87793-.47351-1.07666-.97162-1.83398-1.39063-2.41553-1.72498-2.24902-2.23138-1.97363-2.70123-1.70117-.50128.29199-.78497.68506.17755 3.08789.21967.59766.50281 1.31934.74066 2.18262.23328.87744.42773 1.85693.30023 2.9541-.07025.54883-.20679 1.13477-.46338 1.66064l-.09711.19629-.05634.0918c-.01385.02295-.00415.00488-.00732.00879l-.02234.00977c-.01422.00488-.02661.00488-.03589.00146-.02136-.00195-.02209-.03906-.01495-.04688l.0033-.00684c-.27039-1.05979-.10842-.43887-.70239-2.68896-.40411-1.41357-.93005-3.10742-1.93494-4.86377-.98969-1.71436-2.47198-3.53857-4.70441-4.62354-2.29138-1.0708-4.52044-1.01563-6.31067-1.25-1.80792-.19434-3.18744-.70605-3.85498-1.79443-.73053-1.11377-.78784-2.70361-.25739-3.78027.48944-1.10596 1.60974-1.7627 2.61981-2.00146 1.02686-.25244 1.9342-.11914 2.54352.04102.61359.16455.97192.33105 1.07135.21436.08386-.09229-.0968-.48584-.7052-.94873-.6015-.4502-1.67828-.93213-3.10193-.88037-.70557.02539-1.49207.18457-2.2771.56396-.78424.36914-1.56104 1.00684-2.11798 1.86523-1.11633 1.70703-1.37091 4.12695-.2984 6.31396.52948 1.1001 1.51941 2.07227 2.58398 2.64209.51654.28418 1.04669.49805 1.57312.66992-.76111-.13525-1.53461-.03711-2.11475.19531-.82404.30615-1.42462.76465-1.94147 1.23291-1.0127.96631-1.57434 1.94434-2.07739 2.8623-.04028-.95752-.17877-2.02686-.46271-3.20898-.3645-1.49365-.97729-3.16992-2.04993-4.89014-.28113-.479-.63947-.9541-1.01703-1.45996-1.06644-1.33336-2.40334-2.43777-4.07507-2.75342-1.07886-.20313-2.30219.02783-3.26038.65479-.94519.63379-1.54132 1.49609-1.90881 2.30762-.37439.82178-.58545 1.63867-.69446 2.44385-.11865.81445-.10596 1.61621-.07721 2.31201.03674.72168.10083 1.43018.20648 2.11475.40314 2.74512 1.35229 5.07324 2.25165 6.59863.89893 1.53662 1.71393 2.29492 1.94208 2.15869.50482-.2749-1.33344-4.10889-1.32361-8.99316-.00671-.60449.02075-1.2207.06573-1.84033.05481-.64453.11511-1.20752.25562-1.73633.24261-1.07227.86279-2.04199 1.26233-2.17822.18164-.06934.34357-.07959.52423-.02734.18835.05811.47778.21582.77478.47852.29773.25879.59338.59521.85773.94629.26971.38916.54242.75195.75427 1.11865 1.62494 2.64844 2.04626 5.08594 2.2403 6.85938.17456 1.80127.07227 3.04053.0802 3.90332-.0683 1.71729.29535 1.98145.84863 2.17725.26373.09766.51959.17676.83325.00732.31342-.16992.70319-.58594 1.12311-1.53271.07538-.18408.15326-.39551.23041-.62305.52514-.71252 1.24207-2.05572 2.48712-3.52637.59113-.68701 1.30481-1.47314 2.02679-1.93994.36755-.2373.76184-.42236 1.06622-.46875.32062-.05518.44312.02295.54095.10059.09607.09521.13959.17236.21857.43994.06909.26074.09637.65283.06152 1.06104-.04486.43457-.10834.78174-.27325 1.28027-.12323.4707-.30084.91455-.46008 1.34473-.3631.84814-.73523 1.62256-1.13837 2.27686-1.43494 2.40234-3.00031 4.04297-4.13483 5.31982-1.16162 1.26709-1.96313 2.15625-2.44965 2.82471-.98053 1.33447-.71027 1.76465-.34314 2.19336.36462.42529.74292.78027 2.23212-.01953.7431-.4043 1.77271-1.09375 3.18024-2.31152 1.37775-1.24023 3.23834-2.96582 5.03094-5.95166.49493-.81055.95679-1.82129 1.3642-2.94629.18335-.57373.37262-1.16699.49487-1.79932.14996-.58496.25879-1.39014.24847-2.12842-.01471-.7627-.11444-1.57666-.47418-2.43848-.18634-.42871-.44232-.86475-.79773-1.25977-.36328-.39355-.8186-.71777-1.30481-.93359-.08606-.03857-.17786-.05273-.26605-.0835.38263.104.76172.19531 1.12683.2666 2.08191.38184 3.94482.56543 5.1463 1.26123 1.24194.68115 2.22687 1.9126 2.9212 3.22217.945 1.76661 1.44755 3.83104 1.96997 5.78955.07971.30371.15814.60303.23535.89746.15448.56055.29584 1.12695.47217 1.64697l.12592.39404.17218.32324c.11536.21191.22083.44238.35901.59229.10876.12988.22736.23926.34918.34521-1.52161 1.75586-3.16821 3.55811-4.99945 5.34131-2.14142 2.10107-4.79235 4.2085-7.91705 6.29883-.80804.54248-1.64709 1.08301-2.5072 1.62549-.00702-.74072-.08258-1.44385-.22711-2.05322-.17047-.71875-.39551-1.33887-.62909-1.87793-.47357-1.07666-.97162-1.83398-1.39063-2.41553-1.72504-2.24902-2.23138-1.97363-2.70123-1.70068-.50134.2915-.78503.68457.17755 3.0874.21967.59814.50275 1.31934.7406 2.18311.23328.87695.42773 1.85693.30029 2.95361-.07031.54883-.20679 1.13477-.46338 1.66064l-.09711.19629-.05634.09229c-.01385.02246-.00421.00439-.00732.0083l-.02234.00977c-.01422.00488-.02661.00488-.03589.00146-.02136-.00195-.02209-.03857-.01501-.04688l.00336-.00684c-.06982-.27344-.14075-.55176-.21277-.83398-.1582-.59912-.32135-1.21729-.48969-1.85449-.40405-1.41406-.92999-3.10791-1.93494-4.86426-.98962-1.71436-2.47198-3.53809-4.70441-4.62354-2.29138-1.0708-4.52045-1.01563-6.31061-1.25-1.80792-.19434-3.18744-.70605-3.85498-1.79443-.73053-1.11377-.78784-2.70361-.25745-3.77979.4895-1.10645 1.6098-1.76318 2.61987-2.00195 1.02686-.25195 1.9342-.11865 2.54346.0415.61365.16406.97198.33057 1.07135.21387.08392-.09229-.0968-.48584-.7052-.94873-.6015-.4502-1.67822-.93164-3.10187-.87988-.70563.0249-1.49207.18408-2.27716.56396-.78424.36865-1.56104 1.00635-2.11798 1.86475-1.11633 1.70703-1.37091 4.12744-.29834 6.31396.49023 1.01855 1.37988 1.91309 2.35339 2.49463-.77734-.14941-1.5722-.04688-2.16516.19092-.82404.30615-1.42462.76465-1.94147 1.23291-1.0127.9668-1.57434 1.94385-2.07739 2.8623-.04028-.95752-.17877-2.02686-.46277-3.20898-.36444-1.49365-.97723-3.16992-2.04987-4.89014-.28113-.479-.63947-.9541-1.01703-1.45996-1.06191-1.3277-2.39671-2.43651-4.07513-2.75342-1.0788-.20313-2.30219.02783-3.26031.65479-.94525.63379-1.54132 1.49609-1.90881 2.30713-.37439.82227-.58545 1.63916-.69446 2.44434-.11865.81445-.10602 1.61621-.07721 2.31201.03674.72168.10077 1.43018.20648 2.11426.40314 2.74561 1.35229 5.07373 2.25165 6.59912.89893 1.53662 1.71393 2.29492 1.94202 2.15869.50482-.2749-1.33337-4.10889-1.32355-8.99316-.00671-.60449.02069-1.2207.06573-1.84082.05475-.64453.11505-1.20752.25555-1.73584.24268-1.07227.86279-2.04199 1.26239-2.17822.18164-.06934.34357-.07959.52417-.02734.18842.05811.47778.21582.77484.47852.29767.25879.59338.59521.85773.9458.26965.38965.54242.75195.75421 1.11914 1.62494 2.64844 2.04633 5.08594 2.24036 6.85938.17456 1.80127.0722 3.04053.08014 3.90332-.06824 1.71729.29541 1.98145.84869 2.17725.26373.09717.51953.17676.83319.00732.31342-.16992.70325-.58594 1.12317-1.53271.07544-.18408.15338-.396.23059-.62354.52364-.71066 1.24564-2.06061 2.48688-3.52588.59119-.68701 1.30481-1.47314 2.0268-1.93994.36761-.2373.76184-.42236 1.06628-.46875.32062-.05518.44312.02295.54095.1001.09607.0957.13959.17236.21851.44043.06909.26074.09637.65283.06152 1.06055-.0448.43457-.10828.78174-.27319 1.28076-.12329.4707-.3009.91455-.46008 1.34473-.3631.84814-.73529 1.62256-1.13837 2.27637-1.43494 2.40283-3.00037 4.04346-4.13483 5.32031-1.16162 1.26709-1.96313 2.15625-2.44965 2.82471-.98059 1.33447-.71027 1.76465-.34314 2.19287.36456.42578.74286.78076 2.23206-.01953.74316-.40381 1.77277-1.09326 3.18024-2.31104 1.37781-1.24023 3.23841-2.96582 5.03101-5.95166.49487-.81055.95673-1.82129 1.3642-2.94678.18329-.57324.37256-1.1665.49481-1.79883.15002-.58496.25879-1.39014.24854-2.12842-.01471-.7627-.1145-1.57715-.47418-2.43848-.18634-.42871-.44232-.86523-.79773-1.25977-.14984-.16211-.3233-.3042-.50018-.43994.64941.22803 1.29706.39111 1.91022.51123 2.08191.38184 3.94482.56592 5.1463 1.26123 1.242.68115 2.22693 1.9126 2.92126 3.22266.6955 1.30029 1.13086 2.72119 1.4975 4.01855.16241.60889.31982 1.19873.47241 1.77051.07971.30371.15814.60303.23535.89746.15454.56055.29584 1.12744.47223 1.64746l.00537.0166c-3.62018 2.25391-7.34052 4.78467-10.62329 7.84424-2.09357 1.95264-3.96753 4.08594-5.65186 6.29443-.00238-.7627-.08057-1.48535-.22894-2.11035-.17047-.71875-.39551-1.33936-.62909-1.87793-.47351-1.07666-.97162-1.83398-1.39063-2.41553-1.72498-2.24902-2.23138-1.97363-2.70123-1.70117-.50128.29199-.78497.68506.17755 3.08789.21973.59766.50281 1.31934.74066 2.18311.23328.87695.42773 1.85645.30023 2.95361-.15262 1.19235-.52056 1.7504-.56049 1.85693l-.05634.0918c-.01379.02295-.00415.00488-.00732.00879l-.02234.00977c-.01422.00488-.02661.00488-.03589.00146-.02136-.00195-.02209-.03906-.01495-.04688l.0033-.00684c-.27039-1.05979-.10843-.43887-.70239-2.68896-.40411-1.41357-.93005-3.10742-1.93494-4.86377-.98962-1.71436-2.47198-3.53857-4.70441-4.62354-2.29138-1.0708-4.52045-1.01563-6.31067-1.25-1.80786-.19434-3.18744-.70605-3.85492-1.79443-.73059-1.11377-.7879-2.70361-.25745-3.77979.48944-1.10645 1.6098-1.76318 2.61981-2.00195 1.02686-.25195 1.9342-.11865 2.54352.04102.61359.16455.97198.33105 1.07135.21436.08386-.09229-.0968-.48584-.7052-.94873-.6015-.4502-1.67828-.93164-3.10193-.88037-.70557.02539-1.49207.18457-2.2771.56396-.78424.36914-1.56104 1.00684-2.11798 1.86523-1.11633 1.70703-1.37091 4.12744-.2984 6.31396.52948 1.1001 1.51941 2.07227 2.58398 2.64209 1.07916.59375 2.21802.89502 3.25787 1.09863 2.08191.38184 3.94482.56543 5.1463 1.26123 1.24194.68115 2.22687 1.9126 2.9212 3.22266.69556 1.2998 1.13092 2.72119 1.49756 4.01855.81182 3.04218.96939 3.69463 1.17993 4.31494l.12592.39404.17218.32324c.11536.21191.22083.44238.35901.59229.2677.32031.56384.56348.94299.74512.56647.27002 1.15906.32324 1.71753.21533-3.28369 6.13965-4.92615 12.25195-5.55963 16.85938-.71881 5.44824-.26953 8.83154-.04907 8.82178.33899.00732.4375-3.34668 1.60834-8.53564 1.19238-5.15967 3.65576-12.17285 8.25977-18.75146 1.07996-1.55566 2.27637-3.08154 3.56409-4.55371.08618.07275.16351.15088.26221.21777.40796.2168.84454.43994 1.40833.55713.47974.13383 1.7107.39363 2.42554.54736 1.95599.43033 4.0327.83993 5.81445 1.73242 1.31787.65283 2.55334 1.6001 3.26141 2.83105.7326 1.20313.98987 3.08545 1.47906 5.13623.25977 1.03125.6123 2.14453 1.25269 3.19141.62152 1.02734 1.625 1.98242 2.755 2.45703 2.23962.97168 4.67999.5708 6.29437-.69238 1.40572-1.06604 2.13385-2.81638 2.08722-4.55029-.03827-1.41357-.56317-2.45801-1.03687-3.03857-.48676-.58643-.88568-.75195-.97461-.66455-.11285.104.06616.45508.2561 1.06104.18524.60303.3598 1.50244.17297 2.54736-.17676 1.02441-.75098 2.20361-1.80432 2.77539-1.01837.61426-2.59442.64355-3.72748-.02393-1.1076-.60742-1.68683-1.97559-1.9715-3.7627-.32697-1.7793-.3656-3.96436-1.47168-6.20215-1.12042-2.20117-2.98029-3.66113-4.72864-4.60303-1.78717-.95947-3.5163-1.42188-4.94556-1.76611-2.30695-.50281-1.65015-.36126-2.74585-.58838-.20605-.04297-.09955-.01953-.12836-.0249l-.00305.00146c-.00684.00732-.04395.01025-.04779-.01123-.00397-.00928-.00476-.02148-.00122-.03613l.00885-.02393.1225-.08496c.05493-.04395.12256-.07422.18329-.11133.4928-.29346 1.06055-.46436 1.59546-.56641.98124-.18533 1.95774-.07794 2.92688.13721.86725.19727 1.59705.44727 2.20123.64209 2.43298.86035 2.81543.56299 3.08655.0498.25336-.47998.5108-.99756-1.80457-2.62842-1.46059-.96488-2.80436-1.50125-4.22296-1.78613 2.25665-1.64355 4.63354-3.14746 7.03674-4.56201.61926-.36572 1.23773-.72412 1.8562-1.0835.03638-.01514.07562-.02197.11145-.03857.41089-.17139.80957-.41992 1.1825-.71582 2.5542-1.48047 5.06689-2.9375 7.40344-4.45752 2.03064-1.31396 3.93274-2.69629 5.63269-4.09326.3786.19873.78308.39648 1.29926.50391.26611.07422.54419.13623.82483.19873.23889.05273.47974.10645.72253.16016.28809.06201.58075.12451.87817.18848 1.96284.43179 4.03592.84154 5.81445 1.73242 1.31793.65283 2.55341 1.6001 3.26147 2.83105.73254 1.20313.98981 3.08545 1.479 5.13623.25977 1.03125.6123 2.14453 1.25275 3.19141.62146 1.02734 1.62494 1.98242 2.75494 2.45703 2.23969.97168 4.67999.5708 6.29437-.69238.81964-.62158 1.37335-1.45459 1.68451-2.25488.31775-.80566.42157-1.59424.40271-2.29541-.03827-1.41357-.56311-2.45801-1.03687-3.03857-.48669-.58643-.88568-.75195-.97461-.66455-.11279.104.06616.45508.2561 1.06104.18524.60303.3598 1.50244.17297 2.54736-.17676 1.02441-.75098 2.20361-1.80432 2.77539-1.01837.61426-2.59442.64355-3.72748-.02393-1.1076-.60742-1.68683-1.97559-1.97144-3.7627-.32703-1.7793-.3656-3.96436-1.47168-6.20215-1.12042-2.20117-2.98035-3.66113-4.7287-4.60303-1.78717-.95947-3.5163-1.42188-4.9455-1.76611-.6452-.14063-1.27069-.27686-1.87701-.40869-.29425-.06104-.58386-.12061-.8689-.17969-.20605-.04297-.09955-.01953-.12836-.0249l-.00299.00195c-.00684.00684-.04401.00977-.04785-.01172-.00397-.00928-.00476-.02148-.00122-.03613l.00885-.02393.1225-.08496c.05493-.04395.12256-.07422.18335-.11133.4928-.29346 1.06049-.46436 1.5954-.56641.54297-.10254 1.0498-.11084 1.52869-.07764.49817.03809.96497.11865 1.39819.21484.86731.19727 1.59705.44727 2.20129.64209 2.43292.86035 2.81543.56299 3.08655.0498.25336-.47998.51074-.99756-1.80463-2.62842-.59796-.39502-1.37628-.86084-2.47534-1.28662-.51526-.1958-1.11066-.375-1.78223-.50781.3067-.35303.61432-.70654.90942-1.05322 1.63873-1.93701 3.11414-3.74805 4.4895-5.48682 2.74658-3.47021 4.95453-6.65479 6.61053-9.56348.23212-.40625.42902-.79199.6402-1.18555.22339.09277.46259.17578.73383.23193.26611.07422.54419.13623.82483.19873.23889.05273.47974.10645.72253.16016.28809.06201.58075.12451.87817.18848 1.96284.43179 4.03592.84154 5.81445 1.73242 1.31793.65283 2.55341 1.6001 3.26141 2.83105.7326 1.20313.98987 3.08545 1.47906 5.13623.25977 1.03125.6123 2.14453 1.25269 3.19141.62152 1.02734 1.625 1.98242 2.755 2.45703 2.23969.97168 4.67999.5708 6.29437-.69238 1.40572-1.06604 2.13386-2.81638 2.08722-4.55029-.03827-1.41357-.56311-2.45801-1.03687-3.03857-.48651-.58638-.88549-.7519-.97442-.6645z"/><path d="m86.87572 19.10979c1.06989 3.31689 2.48767 5.42432 3.54712 6.94824 1.0929 1.50977 1.93817 2.41846 2.56976 2.98291 1.26782 1.12207 1.71741.86328 2.16968.53271.45563-.33301.81738-.68994.16699-2.21582-.32129-.76318-.89899-1.81396-1.74194-3.31641-.8147-1.50537-1.96619-3.46436-2.82141-6.13672-.24554-.73047-.43182-1.5708-.5954-2.48145-.05664-.45605-.13116-.92969-.14423-1.41699-.04736-.52393-.03241-.88086.02197-1.31396.05847-.40576.17322-.78271.29919-1.02002.13721-.24219.19293-.30322.30609-.37354.11029-.05225.25043-.1001.55212.03076.2879.11719.63049.39014.93475.70703.59784.62354 1.11414 1.55371 1.53412 2.35889.41882.81934.73578 1.60059.98431 2.27393.27014.73242.4657 1.3291.6358 1.72656.02405.24609.05292.47607.08557.67773.1944 1.01611.47986 1.50879.74634 1.74512.26709.23584.53418.2168.81305.18164.58331-.06543.99792-.24023 1.32031-1.92676.20282-.83789.38391-2.06689.96014-3.77979.59009-1.68115 1.55035-3.95703 3.73303-6.15869.28931-.30811.63733-.59766.98798-.91406.33655-.27979.70038-.53809 1.04749-.71924.34796-.18652.66187-.27002.85651-.28223.18658-.00928.34473.03955.508.15186.36261.23193.7439 1.31543.73962 2.41357.0174.54736-.05048 1.10645-.14258 1.74658-.09686.61279-.20819 1.21924-.35193 1.80566-1.09283 4.7544-3.75488 8.06397-3.32654 8.44678.19086.18457 1.1571-.3667 2.38153-1.65674 1.22211-1.27979 2.67462-3.33008 3.68738-5.91162.2583-.6416.47955-1.31689.67914-2.01123.18518-.67041.37854-1.44971.44666-2.26807.07495-.80811.05408-1.65088-.1239-2.53467-.17377-.87158-.55695-1.84229-1.32617-2.67383-.78265-.82666-1.9126-1.33887-3.00909-1.39453-1.70977-.08701-3.26492.68254-4.6084 1.73291-.48407.40625-.94159.78662-1.32483 1.18848-1.43787 1.4292-2.41534 2.92236-3.10913 4.29395-.53992 1.07813-.91589 2.08008-1.17175 2.99707-.28119-1.00977-.60596-2.09131-1.37006-3.26465-.39539-.5752-.87329-1.15869-1.60272-1.64795-.69586-.49268-1.79993-.84033-2.87207-.63672-.52521.09668-1.0462.30811-1.49219.60938-.43915.30469-.7887.67334-1.06799 1.05029-.54749.76074-.8269 1.53271-1.01398 2.27344-.17645.71973-.25006 1.52637-.23682 2.13135-.02429.64453.02777 1.26563.0755 1.8667.14393 1.18947.3639 2.27981.66298 3.18215z"/></g></g></svg>