<svg id="Layer_1" enable-background="new 0 0 136 136" height="512" viewBox="0 0 136 136" width="512" xmlns="http://www.w3.org/2000/svg"><g><g><path d="m37.12709 98.82497-5.10999 7.35986-.54993.79004c-3.1001-1.18994-4.43005-4.02002-4.38013-6.6001.06006-2.58984 1.21008-5.08008 1.79004-7.62988 1.41003-6.21973-.63989-12.68018-4.40991-18.33984-.63013-.9502-1.31006-1.89014-2.04004-2.81006-21.3673-27.3708 8.89438.28883 11.10999 3.5 4.98999 7.25 6.28992 15.83984 3.58997 23.72998z" fill="#2bb673"/></g><g><path d="m61.52711 75.26491-3.37 4.85986-.01001.01025-1.06006 1.52002-1.21997 1.75977c-.12988-.0498-.26001-.1001-.37988-.16016-2.83008-1.26953-4.06006-3.96973-4-6.43994.05994-2.57959 1.19995-5.07959 1.77991-7.62988 1.41003-6.21973-.64001-12.66992-4.40002-18.33984-.75-1.12988-1.56995-2.24023-2.43994-3.31982-2.93005-3.63037-6.46997-6.99023-10.18005-10.23047-.46997-.40967-.00989-1.16992.58997-.95996 9.01001 3.2002 16.56006 8.62012 21.1001 15.20996 4.98998 7.24023 6.29002 15.84033 3.58995 23.72021z" fill="#2bb673"/></g><g><path d="m80.56702 119.39479c-.06995-.04004-.13989-.08008-.19995-.14014-4.51001-4.50977-9.22998-8.72949-14.41992-11.71973-5.96997-3.43018-12.68005-5.16016-19.01001-3.54004-2.59009.66992-5.11011 1.89014-7.76001 2.0498-1.6001.1001-3.30005-.2998-4.69995-1.27979-.72009-.48975-1.3501-1.14014-1.84009-1.95996-.1499-.24023-.29004-.49023-.40991-.76025l.68994-.48975 4.32996-3.1001 3.12-2.23975c7.97998-2.9502 16.86011-2.03027 24.48999 2.52979 6.94995 4.1499 12.82007 11.27002 16.46997 19.8999.21008.50002-.32996.9302-.76002.75002z" fill="#2bb673"/></g><g><path d="m104.93714 98.30495c-.21997-.22021-.43005-.43018-.65002-.64014-4.30994-4.27979-8.81995-8.23975-13.77002-11.08984-5.96997-3.43018-12.68005-5.16016-19.01001-3.53027-2.58997.66016-5.09998 1.88037-7.75 2.04004-2.10999.13037-4.42004-.59961-5.95007-2.3999-.2699-.31006-.50989-.6499-.71997-1.02979-.10986-.18018-.19995-.37012-.28992-.56006l1.35999-.97021 6.78003-4.87012c7.97998-2.93994 16.85999-2.02979 24.5 2.53027 6.93994 4.1499 12.80994 11.27002 16.45996 19.8999.23998.58008-.51002 1.06006-.95997.62012z" fill="#2bb673"/></g><g><path d="m82.67713 48.55495c-.11011.5498-.25 1.1001-.41003 1.6499-.13.5-.27991 1-.45007 1.5l-5.65991 8.1499c-.28003-.10986-.55005-.22998-.81006-.37988-2.52002-1.33008-3.61987-3.87988-3.56995-6.22021.05994-2.57959 1.21008-5.07959 1.78992-7.61963 1.41016-6.22998-.63989-12.68018-4.40991-18.3501-1.41003-2.12988-3.06006-4.16016-4.87-6.12012-2.35998-2.58008-5.01001-5.04004-7.73999-7.42969-.4801-.41016-.01001-1.17041.58997-.9502 9 3.18994 16.56005 8.60986 21.09008 15.2002 4.32983 6.27979 5.87988 13.58985 4.44995 20.56983z" fill="#2bb673"/></g><g><path d="m88.04624 39.27154c-1.63091-6.08726-1.11717-12.55219 2.10776-18.28117 3.22492-5.72897 9.26119-10.65898 16.94082-13.15934 3.24397-1.05618 6.71195-1.67374 10.09647-2.45616 1.54312-.35673 2.58848 1.49601 1.43824 2.5589-5.80347 5.36273-16.53371 8.49143-18.7376 15.25457z" fill="#2bb673"/></g><g><path d="m116.72718 30.88503-10.20007 5.18994c-2.98999 1.50977-6 3.0498-8.44006 5.02002-2.53003 2.0498-4.3999 4.52979-6.88989 6.58984-.55005.47021-1.14014.91016-1.77002 1.31982-1.94995 1.27051-5.12012 2.11035-7.16003 1.2002-.32996-.1499-.63-.3501-.89001-.6001l1.30005-1.0498 3.95996-3.20996c1.03003-3.35986 3.90002-6.24023 6.97998-8.83008 3.95996-3.31982 8.47998-6.35986 13.8501-8.31006 2.44995-.8999 5.10986-1.54004 7.81995-1.85986 1.41003-.16992 2.41003.72998 2.69006 1.7998.26988.99024-.07009 2.14014-1.25002 2.74024z" fill="#2bb673"/></g><g><path d="m75.18022 63.15748c1.83849-2.08558 4.15688-3.9952 7.08975-5.2173 2.73789-1.14085 5.86687-1.63035 8.85205-2.35662 5.62325-1.36808 10.84001-3.63354 15.21719-6.57981.88383-.59491 1.9631.45575 1.35026 1.31491-3.91203 5.48437-10.12249 10.07584-17.5988 12.89249-2.22408.83791-4.60281 1.53291-7.09431 1.64405s-5.12456-.4286-6.85474-1.75913" fill="#2bb673"/></g><g><path d="m80.56702 119.39479c-.06995-.04004-.13989-.08008-.19995-.14014-4.51001-4.50977-9.22998-8.72949-14.41992-11.71973-5.96997-3.43018-12.68005-5.16016-19.01001-3.54004-2.59009.66992-5.11011 1.89014-7.76001 2.0498-1.6001.1001-3.30005-.2998-4.69995-1.27979.33984-.62012.82983-1.2002 1.47998-1.7002 14.22998-10.83984 35.86987.9502 43.88989 14.26025.42005.70999.65003 1.39993.71997 2.06985z" fill="#16a55d"/></g><g><path d="m32.53712 103.24489c-.2301 1-.40002 1.97021-.52002 2.93994l-.54993.79004c-3.1001-1.18994-4.43005-4.02002-4.38013-6.6001.06006-2.58984 1.21008-5.08008 1.79004-7.62988 1.41003-6.21973-.63989-12.68018-4.40991-18.33984-.63013-.9502-1.31006-1.89014-2.04004-2.81006 1.20996-.09033 2.47998.37012 3.55005 1.62988 4.61987 5.41016 7.51001 11.76025 7.94995 18.91992.24 3.83008-.54003 7.39014-1.39001 11.1001z" fill="#16a55d"/></g><g><path d="m104.28712 97.66481c-4.30994-4.27979-8.81995-8.23975-13.77002-11.08984-5.96997-3.43018-12.68005-5.16016-19.01001-3.53027-2.58997.66016-5.09998 1.88037-7.75 2.04004-2.10999.13037-4.42004-.59961-5.95007-2.3999.3501-.41992.79004-.79004 1.34009-1.12012 17.21997-10.32959 34.65002 2.18994 45 15.90039.05004.06982.09997.12988.14001.1997z" fill="#16a55d"/></g><g><path d="m56.37709 81.40504c-.18994.73975-.5 1.35986-.88989 1.84961-2.83008-1.26953-4.06006-3.96973-4-6.43994.05994-2.57959 1.19995-5.07959 1.77991-7.62988 1.41003-6.21973-.64001-12.66992-4.40002-18.33984-.75-1.12988-1.56995-2.24023-2.43994-3.31982 12.24999 7.47948 13.36998 20.86962 9.94994 33.87987z" fill="#16a55d"/></g><g><path d="m76.06702 49.7151c-.45996 2.95996-1.46997 6.6499-.71997 9.75977-2.52002-1.33008-3.61987-3.87988-3.56995-6.22021.05994-2.57959 1.21008-5.07959 1.78992-7.61963 1.41016-6.22998-.63989-12.68018-4.40991-18.3501-1.41003-2.12988-3.06006-4.16016-4.87-6.12012.26001.12988.5199.29004.77991.47998 5.89014 4.30029 10.1001 10.22021 11.30005 17.51025.59009 3.56006.25 7.02002-.30005 10.56006z" fill="#16a55d"/></g><g><path d="m116.72718 30.88503-10.20007 5.18994c-2.98999 1.50977-6 3.0498-8.44006 5.02002-2.53003 2.0498-4.3999 4.52979-6.88989 6.58984-.54004-1.22998-.51001-2.70996.45996-4.21973 5.88-9.2002 15.73999-12.81006 25.91992-15.24023.14014-.02979.27002-.06006.40015-.08008.26989.99024-.07008 2.14014-1.25001 2.74024z" fill="#16a55d"/></g><path d="m117.3558 3.30495-.61035.08301c-.74143.16976-.16846.04046-4.95374 1.10352-1.09436.25342-2.25586.54053-3.46472.88818-2.42773.68262-5.01587 1.7168-7.49121 3.07227-4.95264 2.71729-9.49158 6.99902-11.99353 11.93945-1.25317 2.44922-2.01782 4.97803-2.36157 7.30811-.34534 2.33301-.30969 4.45508-.08691 6.19531.15527 1.20508.37402 2.2124.60205 3.03125-.03027.06543-.06128.12695-.09143.19336-.71204 1.5083-1.38867 3.15332-2.08557 4.89551-.00183-.12305.00317-.2334-.00037-.35938-.47718-13.95465-11.69199-24.71392-24.67407-29.85449-.396-.16504-.79944-.3208-1.21094-.46582l-.61731-.22461-.31055-.11279c-.15234-.04346-.04993-.04785-.60913-.18213-.44165-.08154-.95251-.04492-1.40662.13818-.45203.18311-.82385.4834-1.09509.84668-.2699.36475-.45313.79736-.49744 1.29346-.0481.49219.07007 1.03613.32373 1.46924.12695.21777.27527.40283.43225.55176l.1394.12891.06104.05225.24487.21045.49219.42285c6.52048 5.63298 13.53048 12.5618 15.85119 20.81982.91699 3.20313.99719 6.41162.36414 9.22852-.66064 2.83203-1.69714 5.7002-1.27075 8.31104.40735 2.58203 1.96021 4.22266 3.12341 4.91602.79211.48438 1.39758.65576 1.72681.6875-.73962 1.06201-1.52222 2.13135-2.37024 3.2085-2.10706 2.68653-4.72546 5.60987-7.82336 8.49952-.87341.8291-1.79992 1.64648-2.75378 2.45898.37732-.7417.81201-1.90625 1.19384-3.7666.27209-1.31885.44861-2.99609.39136-5.07959-.47794-13.9771-11.70686-24.71967-24.67395-29.8545-.70743-.29474-1.07865-.41541-1.82837-.69043l-.31055-.11279c-.15234-.04346-.04993-.04785-.60913-.18213-.44165-.08154-.95251-.04492-1.40662.13818-.88948.36031-1.50824 1.19523-1.59241 2.14014-.0481.49219.06995 1.03613.32361 1.46924.12695.21777.27539.40283.43225.55176l.1394.12891.06104.05225.24487.21045.49231.42334c4.02639 3.47718 8.06696 7.31422 11.16943 11.5708 3.94858 5.43369 6.51799 11.92617 5.04578 18.47705-.66064 2.83203-1.69714 5.7002-1.27063 8.31104.28467 1.80371 1.12915 3.1377 2.00854 4.02051-3.1311 2.26758-6.34473 4.59473-9.41553 7.13477-1.12085.92871-2.20923 1.89746-3.27283 2.89111.10559-1.09717.14929-2.35693.08289-3.81104-.68414-10.79301-5.71743-15.48198-13.14148-22.54932-1.76129-1.64616-1.56539-1.47386-3.22192-2.92969-.9978-.85547-2.11279-1.771-3.15222-2.45996-1.05212-.70947-1.98743-1.08398-2.66553-1.10889-.33984-.01172-.64075.02002-.93359.11621-.151.05225-.29724.10303-.47253.21289-.16919.10059-.40149.28174-.53564.43896-.26465.31738-.38122.57031-.47522.89209-.0946.30811-.12805.67725-.09082 1.12646.07361.90186.59827 2.20704 1.27759 3.55811.05503.1014.89378 1.64681.83875 1.54541.05868.10023.83676 1.42934.77808 1.3291 4.73257 7.47639 10.11526 13.35548 9.59668 22.10156-.0752 1.41553-.35388 2.72852-.70691 4.06592-.70801 2.63037-1.43433 5.38232-.77319 7.73096.59656 2.29834 2.07605 3.69141 3.15686 4.2876.06616.03662.12585.06445.18909.09668-.76831 1.97412-1.33716 3.94971-1.66882 5.87598-.75928 4.11426-.63501 7.9209-.07104 10.99805.56128 3.08887 1.51416 5.44335 2.23596 7.0122.79871 1.54199 1.328 2.33545 1.44751 2.27539.34888-.14355-1.46326-3.56641-2.11353-9.50732-.30066-2.95459-.18225-6.52148.72864-10.30615.61584-2.70801 1.72388-5.48828 3.22937-8.19238.93848.95605 2.48547 1.91846 4.58765 2.13867 2.62708.30127 5.48914-.78223 8.34619-1.54004 10.17277-2.62286 19.99427 3.64474 27.69348 10.71826 1.33215 1.22461 2.61475 2.47461 3.85022 3.71826.32654.32959.651.65674.97327.98193.30969.29932.77576.55127 1.25818.64014.48865.09473.97534.03564 1.39099-.12695.41895-.1626.79004-.42383 1.08887-.7915.29871-.36133.51367-.87158.547-1.3916.02271-.26318-.00806-.51221-.05884-.75-.05225-.21973-.16125-.48584-.15759-.46875l-.13281-.30762-.2644-.61084c-.17383-.40625-.34888-.80762-.54089-1.19775-1.46875-3.15039-3.17493-5.90527-4.86536-8.17139-6.65084-8.94615-16.2038-14.86687-26.91882-14.68945-2.09619.04834-3.77515.28223-5.09253.60596-1.59082.3833-2.67053.78369-3.41333 1.1416 1.14258-1.01563 2.33179-2.00146 3.55933-2.95752 3.80444-2.9624 7.90784-5.68115 11.87292-8.4502.08081-.05615.1593-.11426.24011-.17041.01294.01807.02234.03467.03577.05322.79199 1.12598 2.56018 2.53662 5.16187 2.80859 2.62707.30127 5.48913-.78174 8.34619-1.53955 10.17316-2.62308 19.99434 3.6448 27.69348 10.71826 1.33215 1.22461 2.61462 2.47461 3.85022 3.71826.32654.3291.651.65674.97327.98145.30969.2998.77563.55127 1.25818.64014.48865.09521.97534.03564 1.39099-.12646.41895-.1626.79004-.42432 1.08887-.79199.29871-.36133.51367-.87109.54688-1.39111.02283-.26318-.00793-.5127-.05872-.75049-.05225-.21924-.16125-.48584-.15759-.46875l-.13281-.30713-.2644-.61084c-.17383-.40625-.34888-.80811-.54089-1.19775-1.46875-3.15039-3.17493-5.90527-4.86536-8.17188-3.08044-4.14307-6.49207-7.27051-9.85156-9.49219-3.36731-2.23047-6.64929-3.53857-9.54138-4.29883-2.90845-.73193-5.43213-.93311-7.52588-.89795-1.67029.03809-3.06506.19727-4.23376.42334 2.29419-2.27246 4.29565-4.54492 5.97913-6.69141.15564-.19727.29749-.39404.44958-.59131.47046.31494 1.10571.6416 1.97803.93164 1.85144.62354 4.93066.97461 8.9353-.09668 8.15609-2.16285 15.89072-7.57977 19.55005-12.24073.297-.36621.66296-.75977.91064-1.11377 2.5862-3.73864.91348-5.71074-2.26282-5.33301-.23584-.06445-.89331.37012-1.43066.66357-2.18751 1.17276-6.24774 4.14445-14.39124 6.42334-2.30334.63721-4.6261 1.16748-6.70349 1.93652-.36267.12939-.70264.2793-1.04578.42578.88257-1.59277 1.66187-3.15625 2.34338-4.67969.14307.00049.27832.00781.43005.00049 1.16516-.07178 2.56543-.32715 4.18823-1.11963 6.29382-3.16627 4.22388-6.09306 18.78015-13.44727 1.86621-.96289 3.99976-2.06299 6.30481-3.25195.57446-.30029 1.15979-.60645 1.75427-.91699.297-.15625.59619-.31299.89758-.47119l.23523-.125.37341-.22949c.24878-.14453.4834-.34473.70776-.56445.92847-.8623 1.39124-2.26123 1.22998-3.49365-.12927-1.24072-.81909-2.39258-1.88391-3.13428-.54504-.34131-1.16724-.60498-1.78967-.66846-.6073-.10498-1.30054.00244-1.58911.04395-.75806.11182-1.51501.24902-2.2677.41064-1.50525.3252-2.99377.74756-4.44312 1.26074-2.90002 1.02783-5.6084 2.4165-8.0249 3.9624-3.4698 2.21748-6.9203 5.16519-9.30273 7.72217 2.68652-6.08447 5.60474-9.53906 7.74109-11.72168 2.25366-2.25342 3.63293-3.24268 4.25171-3.91309.2561-.25732.39685-.45361.46875-.61426.34326-.24219.73926-.53027 1.21533-.88184.73145-.54834 1.63586-1.22656 2.75623-2.06641 1.15137-.88574 2.45349-1.99463 3.97705-3.2627 1.547-1.25977 3.23047-2.6875 5.47144-3.95459 1.2052-.60205 2.53906-1.25049 3.37219-2.02344 2.65501-2.26005.81476-6.35887-2.54704-6.18017zm-84.14136 96.55713c-1.23303 1.92969-2.26892 3.92139-3.10095 5.9209-.00354-.00293-.00659-.00537-.01013-.00879-.81775-.73486-1.82568-2.05615-2.08521-3.94287-.31091-1.85254.45471-4.11572 1.40088-6.75439.46472-1.32422.91431-2.86377 1.10535-4.47559 1.22964-9.69321-4.48194-16.72729-8.86267-24.15186l-.09827-.1875-.04736-.09033-.00525-.01855-.00854-.0332c-.00928-.04102-.01196-.07031-.00879-.09082.00403-.02002.00964-.03125.03015-.03613.03308-.00244.06982.04297.08777.06104.04822.05371.03333.05566.0697.09668 7.89154 7.2071 13.56423 11.66563 14.98303 22.24902.3606 3.16602.1969 5.37207.06458 6.87793-1.28565 1.46581-2.44971 3.02148-3.51429 4.58446zm12.54431-3.56933c11.83257-.88128 21.30632 4.27789 28.29052 13.67188.5459.73193 1.09595 1.53857 1.64331 2.37842-8.49622-7.14205-19.28277-12.77119-29.79687-9.23877-1.5343.50879-2.87793 1.08203-4.13647 1.48535-1.24951.40674-2.43494.66455-3.47656.6582-1.8269 0-3.26245-.68359-4.19849-1.3999.47229-.79834.97192-1.58984 1.51221-2.36768.69995-.93994 1.43164-1.87109 2.2085-2.77979.04419-.03516.08606-.06152.13428-.1123.08936-.09277.1875-.21436.29236-.36914.5813-.6582 1.18127-1.30664 1.8252-1.92969.08496-.08301.17468-.16309.2605-.24609.0105.05762.02698.11426.04736.16992.09631.26416.24292.49756.96106.51318.71447.01758 2.00255-.20703 4.43309-.43359zm9.38318-16.16358c-.50757.37109-1.02722.74658-1.54187 1.11963-.64026-.86377-1.20776-2.06689-1.28381-3.57471-.05322-1.01855.16199-2.19189.53223-3.43457.36646-1.25098.90601-2.59326 1.36646-4.13135 2.16942-7.16085-.27208-14.68597-4.47913-20.98096-1.82935-2.72754-3.95996-5.21973-6.16577-7.52051.8584.48291 1.68494.96973 2.43921 1.45605 8.12579 5.21745 14.0716 12.65914 15.14453 22.37305.18677 1.81689.19226 3.30566.12024 4.50391-.13708 2.3999-.32397 3.67822-.28662 4.3833.03455.68457.25745.8374.51233.92822-2.00367 1.63527-4.12916 3.25294-6.3578 4.87794zm43.48096 8.87989c.54602.73193 1.09607 1.53857 1.64355 2.37891-8.48833-7.1367-19.27818-12.77496-29.79712-9.23926-1.5343.5083-2.87793 1.08154-4.13647 1.48535-1.24951.40625-2.43493.66455-3.47656.6582-2.12939 0-3.73206-.92822-4.62439-1.75488 3.12732-2.20361 6.14111-4.47803 8.84838-6.84863.7583-.08252 1.79736-.21631 3.25208-.35205 11.79277-.87598 21.27547 4.23729 28.29053 13.67236zm-22.58289-29.33448c-.22632-.19482-.74634-.52002-1.38196-1.12109-.88391-.81592-1.9408-2.33643-2.04675-4.43701-.05322-1.01855.16199-2.19189.53223-3.43457.36633-1.25098.90601-2.59326 1.36646-4.13135.94336-3.11426 1.07507-6.85156.22351-10.5083-1.55976-6.91021-5.96214-12.87553-10.86853-17.99316.85852.48291 1.68505.96973 2.43933 1.45605 8.17163 5.24687 14.07372 12.68411 15.14453 22.37304.18677 1.81689.19226 3.30566.12024 4.50391-.08447 1.47949-.18774 2.53027-.24585 3.28564-.13806.16064-.24719.35645-.04248.74561-.00134.05273-.0011.10156-.00098.15039-1.35608 2.91357-3.07154 5.97217-5.23975 9.11084zm8.39148-1.30273c4.12312-1.06654 9.01479-1.18031 16.07629-4.16357l.92285-.39893c.14417-.05859.10876-.03369.1665-.05371.14014-.03516.22302-.05176.26587-.05176.03162-.00342.06726.00098.02295.12695-.07544.09375-.15442.13623-.19397.16504-.04395.02734-.06616.03369-.0769.03418 0 0-.00208-.00195-.00891.00195-4.42596 3.8709-9.21268 6.38745-14.5658 8.2251-3.40955 1.0957-5.71985 1.0498-7.26257.89404-.427-.04688-.7887-.1001-1.10632-.15234.81299-1.1377 1.57654-2.27051 2.27966-3.39307 1.02539-.47851 2.1753-.91162 3.48035-1.23388zm16.99207-25.69532c3.66472-2.01672 7.50558-3.46901 11.67859-4.1831.68494-.1167 1.37073-.21191 2.05408-.28564.42786-.04248.46875-.03906.57373-.01221.10266.00342.14514.06592.21191.08936.09338.09619.2135.271.20386.44043-.00732.16895-.0321.22949-.13354.30225-.02527.01953-.04553.0498-.10229.06738-.02222.01123-.04272.02539-.06226.0415l-.21936.10938c-.30542.15039-.60864.29932-.90955.44775-.60144.29688-1.1936.58936-1.7749.87646-16.18202 8.11018-14.50282 7.25637-21.099 13.97705-.72607.75977-1.39514 1.41162-2.03333 1.96387-.62524.53857-1.27307 1.04639-1.76721 1.35352-.5614.34863-1.11145.60742-1.625.80762.90393-2.27539 1.67346-4.37256 2.40405-6.28711.39856-.48633.85437-1.00195 1.40857-1.54004 2.22267-2.22508 6.87362-5.79758 11.19165-8.16847zm13.01867-24.56787c-2.47351 1.48291-4.34412 3.16895-5.849 4.53467-1.50879 1.39355-2.69873 2.57129-3.70361 3.52393-1.02014.96533-1.86023 1.79443-2.49634 2.50049-1.2312 1.35986-1.75037 2.24658-1.93396 2.79297-.96973.4585-2.28857 1.23584-4.00232 2.60596-2.39844 1.94043-5.59302 5.29199-8.47998 10.85449-.00513-.35352-.00659-.72119-.00024-1.10938.03015-3.27783.81921-7.84521 3.38184-12.02002 2.505-4.18262 6.72571-7.77149 11.23511-10.02442 2.26904-1.12549 4.55774-1.96582 6.79895-2.54297 1.12183-.29541 2.22571-.54834 3.29016-.78076.53552-.11523 1.05713-.22803 1.56323-.33691l.17322-.03711.00024.00049.00024.00098-.00012.00049c-.00732-.00782.06763-.0127.02258.0371z" fill="#202020"/></g></svg>