<svg id="Layer_1" enable-background="new 0 0 136 136" height="512" viewBox="0 0 136 136" width="512" xmlns="http://www.w3.org/2000/svg"><g><g><g><path d="m53.86036 53.10075c-1.17993-.33008-2.36987-.59009-3.56995-.80005h-.01001c-1.46997-.25-2.95007-.41992-4.43005-.48999-.01001 0-.01001 0-.02002 0-2.05994-.11011-4.11987-.06006-6.16992.15991-.83997.08008-1.68994.18994-2.53003.33008-.47998-1.96997-1.87988-3.62988-3.3999-5.01001-2.91003-2.65015-6.41003-4.65015-10.16003-5.81006-1.53003-.48999-3.09998-.82983-4.69006-1.03003-.97998-.12988-2.28003-.52979-2.21997-1.52002.03003-.36987.26001-.68994.48999-.97998 4-4.98999 10.23999-8.12988 16.64001-8.34985 3.10999-.11011 6.23999.46997 9.13 1.6499 3.04004 1.21997 5.83008 3.1001 8.05005 5.52002l2.28003 12.88989z" fill="#2bb673"/></g><g><path d="m94.99049 69.6508c-2.02002 17.67993 5.32996 45.77002 10.17993 62.88989l-6.84009.13989-6.2699.12012c-3.14001-10.07007-6.29004-20.14014-9.44006-30.21997-1.43994-4.6001-2.91992-9.28003-5.68994-13.23999-2.14001-3.06006-4.97998-5.57007-7.91003-7.89014-13.31996-10.5498-30.20997-17.91992-46.93006-17.09985-2.25431.10582-4.50861.36631-6.75425.78992-.68722.12963-1.13653-.70763-.65115-1.2111 3.63731-3.77285 8.06517-6.75487 12.8755-8.81882 1.07996-.45996 2.20996-.91992 3.37-1.32007 1.70996-.61011 3.47998-1.09009 5.21997-1.31006 1.05005-.12988 2.25-.32983 3.51001-.51001 1.45996-.20996 3-.37988 4.43994-.35986.52002.01001 1.11011.08984 1.72998.19995h.02002c1.47998.23999 3.13013.63013 4.43005.48999h.01001c.22009-.02002.43005-.06006.63-.10986.51001-.15015.90002-.37012 1.19995-.64014.54004-.47998.83008-1.14014 1.13013-1.89014.05994-.13989.11987-.28979.17993-.43994-.01001-.01001 0-.01001.01001-.02002.16992-.44995.38-.91992.65991-1.38989 1.04004-1.75 2.67004-3.06006 4.27002-4.33008 2.5-1.97998 5.04004-3.98999 7.98999-5.18994 3.73999-1.51001 6.16003-3.16992 9.45007-5.25 2.18005-1.36987 4.46997-2.61011 6.45007-4.26001.44995-.37012.88989-.79004 1.10986-1.33008.20996-.50977.18005-1.0498.05005-1.58984-.16992-.70996-.51001-1.41992-.73999-2.12012-1.15002-3.48999 4.77002-10.10986 7.14001-12.29004 3.81995-3.52002 8.75-5.86987 13.94006-6.36987 1.47998-.13989 3.02991-.13013 4.37988.46997.26001.10986.53003.28003.58008.55005v.02002c.05994.32007-.22998.59985-.46997.82007-8.22009 7.18994-12.59009 18.51978-11.46008 29.37988 1.47009-1.5 3.03992-2.89014 4.78992-4.07007 5.09264-3.43999 11.96243-4.92359 17.4957-2.52903.81315.35189.92666 1.4584.19563 1.95903-6.86208 4.6993-13.7249 9.71832-18.05119 16.77996-1.45007 2.38013-2.58008 4.92993-3.45996 7.58008-1.45007 4.38014-2.24011 9.02003-2.77001 13.61012z" fill="#2bb673"/></g></g><g><path d="m88.19044 43.81071c-3.41003-1.42017-6.22998-4.94995-9.89001-4.5-3.54993.43994-5.65002 4.44995-9.06995 5.48999-2.86011.87988-6.6001.28003-9.61011.45996-.70996.04004-1.43994.08008-2.10986.33008-.38013.12988-.72009.33008-1.05005.56006-.41003.27979-.78003.61987-1.14001.95996-1.64001 1.56006-2.62 4.54004-4.55994 2.79004-1.18018-1.06006-1.4801-4.32007-1.77002-5.78003-.63013-3.21021-1.09009-6.6001-1.07007-9.88013.05005-7.33984 1.90991-14.67993 5.58008-21.0498 1.29993-2.26025 3.05994-4.57007 5.60986-5.07007 1.38013-.27002 2.78003.03979 4.12012.55005.44995.16992.89991.35986 1.32996.55981 12.82996 5.92017 21.84998 19.34009 22.47998 33.46021z" fill="#e6e7e8"/></g><g><path d="m42.92041 31.25065c-.71997 1.51001-2.14001 2.69019-4.25 2.83008-3.92993.25-7.39001 1.84009-10.64001 3.97998-1.40002.91992-2.70996 1.93994-4 3-.15002.11987-.29993.27002-.45996.41992-1.53003-.48999-3.09998-.82983-4.69006-1.03003-.97998-.12988-2.28003-.52979-2.21997-1.52002.03003-.36987.26001-.68994.48999-.97998 4-4.98999 10.23999-8.12988 16.64001-8.34985 3.10998-.11011 6.23999.46997 9.13 1.6499z" fill="#48d38d"/></g><g><path d="m30.93043 53.79069c.02002 1.15015-.44995 2.34009-1.62 3.36011-1.83997 1.60986-4.77002 4.23975-7.22009 7.19995-2.25455.10583-4.50909.36637-6.75497.79005-.68699.1296-1.13615-.70739-.65094-1.2107 3.6374-3.7731 8.06545-6.7553 12.876-8.81934 1.07996-.45996 2.20996-.91992 3.37-1.32007z" fill="#48d38d"/></g><g><path d="m108.72047 6.10075v.02002c-9.62012.94995-17.33008 9.28003-22.43006 17.53003-.76001 1.22998-1.77991 1.91992-2.87 2.20996-.16992-.70996-.51001-1.41992-.73999-2.12012-1.15002-3.48999 4.77002-10.10986 7.14001-12.29004 3.81995-3.52002 8.75-5.86987 13.94006-6.36987 1.47998-.13989 3.02991-.13013 4.37988.46997.26003.10986.53005.28003.5801.55005z" fill="#48d38d"/></g><g><path d="m105.17042 132.5407-6.84009.13989c-4.29993-10.81982-7.0199-22.11987-8.61987-33.70996-1-7.27002-1.61011-14.58008-1.94995-21.90991-.25-5.3501.19995-9.86011 1.04993-14.96997.67004-3.98999-1.52002-8.47998-4.85999-10.64014-1.54004-1-3.45996-1.60986-5.22998-1.08984-2.17004.62988-3.66003 2.7998-5.8501 3.33984-1.66992.41016-3.38989-.20996-5.09998-.31006-3.14001-.17993-6.31995 1.53027-7.89002 4.26025-.87988 1.52002-1.43994 3.46997-3.05994 4.13989-1.30994.55005-2.88-.02002-3.88-1.02002-2.17993-2.15991-2.28003-5.23999-1.22998-8.18994.11987-.34009.25-.69019.40991-1.03003.31006-.69995.68005-1.37988 1.11011-2.03003.05994-.09985.11987-.19995.19995-.30005-.01001-.01001 0-.01001.01001-.02002 1.75-2.59985 4.26001-4.68994 6.65991-5.31006 2.79004-.70996 5.53003-.06982 8.28003-1.08984 2.65002-.98999 4.88013-2.41992 7.76001-2.78003 9.93994-1.21997 18.56006 7.13013 21.62012 16.02002-1.45007 4.38013-2.24011 9.02002-2.77002 13.61011-2.02001 17.67993 5.32996 45.77002 10.17994 62.8899z" fill="#1ca560"/></g><g><path d="m56.46045 46.1508c-.41003.27979-.78003.61987-1.14001.95996-1.64001 1.56006-2.62 4.54004-4.55994 2.79004-1.18018-1.06006-1.4801-4.32007-1.77002-5.78003-.63013-3.21021-1.09009-6.6001-1.07007-9.88013.05005-7.33984 1.90991-14.67993 5.58008-21.0498 1.29993-2.26025 3.05994-4.57007 5.60986-5.07007 1.38013-.27002 2.78003.03979 4.12012.55005-4.12012 5.17993-6.21997 12.68994-7.19006 18.71973-1.02002 6.27001-.77002 12.58007.42004 18.76025z" fill="#f7f7f7"/></g><path d="m122.28768 29.06194c-.33557-.27002-.75427-.49658-1.12402-.74316-.49731-.19873-.94043-.31104-1.4021-.45874l-.68311-.20923c-.18604-.04517-.33313-.06714-.50122-.10156-.65002-.1438-1.30298-.20898-1.9491-.27979-1.29529-.09131-2.56616-.0437-3.79456.10376-5.83503.76702-11.20727 3.96986-14.89307 8.55982.04541-.42505.08813-.94727.14734-1.60693.11768-1.54565.21057-3.83399.90356-7.11524.72131-3.24756 1.95459-7.60522 5.17578-12.5022.34814-.54224.76709-1.08008 1.17334-1.66602.42419-.57251.91064-1.13599 1.38672-1.74268.25952-.28442.89655-.98395 1.19531-1.31201l.3125-.33594c.09107-.10873.86367-1.03129 1.85132-2.2102.66174-.66089.61401-1.01416.53162-1.70068-.1571-.71338-.52136-1.14526-1.05139-1.5415-.54126-.39355-1.3125-.65381-2.12463-.83374-.40808-.09131-.84338-.14478-1.28247-.17944-.22168-.00879-.44348-.02856-.66455-.02539l-.33154-.00195-.20544.00684c-.53918.02271-1.05859.06592-1.56262.14233-2.03162.25098-4.02502.8125-5.89575 1.55786-1.87463.74243-3.61829 1.71069-5.15723 2.82129-1.54517 1.09961-2.91846 2.30591-4.04419 3.57129-2.31006 2.48608-3.67102 5.09692-4.38892 6.98926-.16052.48071-.30469.9126-.43091 1.29102-.10229.38452-.16248.72192-.21045.99487-.17808 1.0766.00368 1.21237.61792.23022.14575-.22803.30017-.51538.49207-.84375.2002-.32324.42883-.69214.68323-1.10303 1.03198-1.61694 2.60071-3.82568 4.92822-5.85352 1.13464-1.03735 2.47034-2.00366 3.92407-2.86792 1.448-.87524 3.04651-1.6123 4.71936-2.14893 1.66956-.53955 3.40649-.92188 5.13733-1.04395.43225-.04468.85474-.05591 1.25256-.05322l.14587.00171.01904.00439.03162.00903.05115.02051c.05627.03296.10254.05786.08752.1123-.04614.05078-.1051.06299-.13098.07617l-.01062.00342c.07813-.08838-.05493.05493-.12476.12573l-.47046.48853c-.31018.32495-.6156.64526-.91589.95996-.55408.6687-1.11206 1.29883-1.59827 1.93774-.46777.65234-.94092 1.25903-1.3335 1.86816-3.62305 5.51123-4.88831 10.43872-5.47583 14.09253-.5553 3.69312-.3418 6.23682-.08643 7.90576.2356 1.67822.6355 2.50732.90588 2.92041.17517.24561.34131.33276.5061.3606-1.58447 2.33716-2.59839 4.35669-3.38147 5.76196-.13855.25854-.26221.4917-.37866.71313-1.2594-1.29028-2.86389-2.64063-4.86621-3.94287.02722-.69019.00745-1.56885-.10449-2.70898-.29163-2.42407-.9397-6.07666-3.21411-10.9978-3.4184-7.02529-8.39069-12.50318-14.36707-16.46875-1.12708-.66577-2.29968-1.44189-3.64636-2.06787-1.30554-.66479-2.7229-1.3728-4.57788-1.77905-.91785-.19336-1.9585-.28027-3.03821-.10791-1.08044.16748-2.12451.60132-2.99573 1.18945-1.76282 1.18506-2.89832 2.79004-3.83899 4.35669-3.46631 5.98608-5.35767 13.09497-5.61646 19.68579-.12183-.10034-.24878-.20264-.38879-.30957-1.2804-.92847-3.3739-2.17188-6.78479-2.9187-4.69412-.9921-9.46869-.62076-13.96301 1.21606-2.69662 1.09422-5.30972 2.77023-7.41174 4.80176-.84607.81592-1.36902 1.33936-2.70435 3.15112-.54761.78027-.64417 1.62231-.40271 2.49048.45167 1.36557 1.75424 2.04446 3.1554 2.30371.46963.08367 1.00939.13645 1.14111.15234.5022.0481 1.00012.1355 1.49866.21484 1.9895.34937 3.93396.92773 5.72046 1.6731 3.56506 1.47827 6.54749 3.62402 8.33325 5.38477.6189.60547 1.05823 1.18799 1.39282 1.69849-5.44983.63145-9.99277 2.40675-14.63501 5.21045-1.05432.69385-2.13672 1.39185-3.15564 2.20654-.52368.38989-1.04443.79102-1.53528 1.2334l-1.16162 1.01563-.5752.55347-.28857.27832c-.099.09375-.12097.16772-.1853.25293-.43359.66455-.86975 1.33301-1.30823 2.00513-.09998.16577-.23962.34692-.30737.50122-.02234.12964-.02405.3147.01965.51147.07929.42409.39801.94512.78149 1.146.05334.02905.20618.00977.30457.01709.10119.00107 2.14829.02261 2.01807.02124.10118.0014 2.18024.03015 2.0481.02832.25134-.01074.40869.03955.7406-.02246.11145-.02148.39075-.03149.4541-.03979.1005-.00626 1.81316-.11302 1.71167-.10669 6.84309-.3373 13.81462.55355 21.44214 3.08325 9.91504 3.29639 18.38757 8.61816 24.40552 13.31763 2.7926 2.125 5.22681 4.24902 7.10486 6.48389 1.87256 2.21606 3.1488 4.63354 4.16541 7.06519 1.01404 2.42627 1.77502 4.82397 2.50623 7.08643 1.94404 5.99986 5.18414 16.07208 7.64587 22.76465 2.57349 6.99707 3.14856 7.13037 3.68518 6.96265.53674-.16772.93347-.60498-.93665-7.82178-1.77319-6.84321-4.84291-16.96145-6.68237-23.06665-.69653-2.28003-1.44897-4.78296-2.53101-7.44946-1.07227-2.64819-2.55066-5.52319-4.74255-8.1377-2.17029-2.60181-4.83545-4.90698-7.72266-7.10791-6.29161-4.90993-15.21897-10.38943-25.74717-13.66848-7.43338-2.3086-14.9369-3.33622-22.82068-2.70752-.62427.05933-1.24683.1189-1.86731.17798-.30457.05713-.64636.15112-1.02991.20508-.09607-.01001-.17285-.08862-.18274-.17212-.0155-.09009.05554-.146.10449-.2063l.33533-.38843c.05835-.06909.12683-.13159.19238-.19995l.09717-.09814c.21651-.1969.44505-.47304 1.56763-1.37549 5.09322-4.41332 12.21879-7.6319 20.0221-8.20825 6.65735-.40796 10.771.9021 10.84656.51611.03564-.12573-.9436-.53491-2.79443-1.07031-1.85938-.47729-4.62415-1.02173-8.10645-1.03003-.89148.00146-1.83301.04004-2.81177.12256-.19287-.73535-.57874-1.64355-1.2356-2.5896-.81104-1.18555-1.95496-2.40063-3.34875-3.60498-3.23189-2.78163-7.12497-4.74078-11.23218-5.75439-.55762-.12915-1.11731-.26392-1.68506-.3562l-.42419-.07446c.02161-.00049-.02405-.01172-.03149-.0166-.03247-.01343-.0614-.02832-.08667-.04517-.12158-.05591-.10388-.21265.0155-.26904-.11536.16113.81165-.84351 1.46094-1.38989 1.70166-1.52224 3.88998-2.90625 6.30774-3.88696 4.77441-1.93213 8.8418-1.69116 11.7395-1.30005 2.91931.44361 4.76953 1.22949 6.02966 1.72168.81384.34448 1.37097.573 1.79382.71191.05347 2.58838.32617 5.05493.78247 7.29468.56824 2.86499 1.33533 5.3855 2.19226 7.40967.55457 1.34351 1.10254 2.45752 1.60193 3.37231-.15259.65112-.25781 1.29224-.30835 1.90259-.20056 2.16309.02673 4.06055.30676 5.59863.59839 3.07349 1.28088 4.8457 1.53503 4.80615.30042-.04565.13977-1.96972.04187-4.96899-.02844-1.33887-.01038-2.96558.28174-4.63135.03064.0166.06921.04614.08386.03711.06274-.03369.04651-.19165-.01172-.42773.37488-1.85962 1.11426-3.7439 2.54529-5.31177 1.34753-1.52222 3.22009-2.64746 5.15894-2.74951.95203-.08252 2.07129.09619 3.29163.27075 1.21899.16943 2.57532.3855 4.13916.19116.78003-.10498 1.61292-.36084 2.36011-.78516.76709-.41089 1.39966-1.03125 1.85083-1.57275.9126-1.11987 1.38647-1.97876 1.93787-2.3916 1.08667-.96948 2.65247-1.26538 4.10669-1.21094 1.32788.04077 2.63464.3562 3.81348.75781 1.19666.40771 2.20178.94238 3.22058 1.53052 1.97729 1.18115 3.55322 2.40845 4.81262 3.5686 2.52271 2.3269 3.88818 4.24487 4.84729 5.5127.9375 1.28931 1.44885 1.97876 1.85034 2.28271.37964.29297.63599.24414.88477.14722-1.19629 3.35645-1.95557 6.72852-2.49207 9.9082-.80164 4.64722-1.08923 9.11157-1.09583 12.93262.01831 6.95923.63977 12.98755 1.32629 18.24268.70569 5.25342 1.49927 9.73755 2.26892 13.57544 1.55359 7.67358 2.95374 12.77612 3.98511 16.19653 1.05469 3.41553 1.7644 5.14478 2.25769 6.00635.48975.86206.76599.85693 1.0365.78052.27063-.07666.50928-.21924.4906-1.20581-.02197-.98535-.30359-2.81323-.99121-6.28027-.66467-3.47192-1.75952-8.5835-3.09033-16.18799-.65833-3.80273-1.36072-8.23096-1.99939-13.38843-.62073-5.1543-1.19482-11.05542-1.21167-17.72998.01038-3.67578.24292-7.80225.96143-12.30566.69556-4.45825 1.79248-9.18261 3.90295-13.56518 2.078-4.37744 5.36938-8.27539 9.18689-11.64771 1.90613-1.68994 3.91455-3.27808 5.96094-4.78857.51404-.37622 1.02625-.75098 1.53638-1.12427l.38452-.27783c.07007-.06226.4165-.2749.57275-.42871l1.13611-1.00195.56311-.49561c.13892-.16919.21338-.35132.28699-.56201.30295-.9105.02453-1.89668-.57264-2.48757zm-43.70312 7.96509c-1.02881-.04565-2.18298.05371-3.39233.38501-1.20349.33203-2.48157.96143-3.53638 1.9519-1.12097 1.01074-1.70801 2.20459-2.25623 2.87329-.27905.35107-.49365.57422-.77014.73242-.27417.1709-.59326.30273-1.00378.37988-.82996.15112-1.93018.08057-3.14392-.03882-1.21313-.10156-2.56836-.27734-4.06873-.07275-3.01501.37207-5.48486 2.21826-7.04028 4.29346-.73254.94946-1.28296 1.98828-1.68982 3.03979-.21179-.65015-.43018-1.34375-.65112-2.11865-.6001-2.02612-1.11047-4.49341-1.44153-7.24561-.73077-5.80239-.22054-12.44444 1.74011-18.59351.9978-3.16943 2.427-6.24194 4.08667-8.97388.8252-1.30908 1.76709-2.44263 2.75391-3.04932.98682-.62134 1.89734-.70557 3.07483-.4436 1.14746.26001 2.41101.86426 3.58655 1.49243 1.19824.56616 2.24243 1.2749 3.25439 1.86572 3.57141 2.37329 6.31152 5.02588 8.43188 7.56909 2.12122 2.55176 3.63489 4.99463 4.80151 7.16333 2.24548 4.39429 3.11865 7.65405 3.73865 9.83667.05823.22388.11096.43042.16321.63354-1.86035-.87253-4.05933-1.56321-6.63745-1.68039zm40.37866-5.74854c-.44418.27742.36596-.28-2.4082 1.61279-2.14111 1.47583-4.27844 3.06006-6.34094 4.78735-2.06421 1.72388-4.02734 3.6333-5.80371 5.71826-1.76831 2.08765-3.31299 4.40283-4.5376 6.81445-.54431 1.07544-1.02051 2.16406-1.45398 3.25659-.08044-.55347-.29395-1.33081-.76929-2.42822-.68933-1.51563-1.88708-3.71118-4.31348-6.32202.18311-.23389.37891-.48877.59558-.78076 1.09583-1.43018 2.49426-3.6521 4.50549-6.05127 3.62428-4.32235 8.93887-7.44616 14.67224-7.94605 1.07434-.08057 2.16602-.07397 3.25354.04565.53906.08447 1.08325.15723 1.61328.29883l.38831.09033.18176.0625c.11292.04053.25952.08374.32239.11963.15271.07324.34839.125.37195.31934.04151.18702-.12329.334-.27734.4026z" fill="#202020"/></g></svg>