<svg id="Layer_1" enable-background="new 0 0 136 136" height="512" viewBox="0 0 136 136" width="512" xmlns="http://www.w3.org/2000/svg"><g><g><path d="m99.29482 67.34786c-3.43018 4.72998-8.69006 7.47998-14.38013 9.13013-2.8999.84985-5.90991 1.40991-8.84998 1.81006-6.13.82983-12.42005 1.17993-18.5.25-1.71997-.26025-3.43005-.62012-5.10999-1.1001-2.57007-.73999-5.07007-1.78003-7.40991-3.12012h-.01001c-4.6001-2.61987-8.5-6.35986-10.80005-11.08985-1.63-3.33008-2.37012-6.91016-2.51001-10.57007-.23999-5.97998 1.10999-12.17993 2.85999-17.95996 2.64001-8.70995 6.09997-17.15991 10.30993-25.21996 1.27002.96997 2.46008 2.02002 3.59009 3.1499 2.47998 2.5 4.57996 5.37988 6.19995 8.51001l18.75-.29004 4.17993-.07007c1.42017-1.97998 3.06006-3.77979 4.90015-5.36987 1.48999-1.29004 3.79993-2.28003 4.63989-4.08008 1.22998 1.1001 2.33008 2.32007 3.32007 3.63013 2.16992 2.85986 3.82007 6.15991 5.20996 9.54004 1.06006 2.56006 1.97998 5.15991 2.87 7.65991 2.05005 5.77002 4.10999 11.59985 4.72009 17.68994.59986 6.09009-.39013 12.55005-3.97997 17.5z" fill="#da0ee0"/></g><g><path d="m65.22018 123.60815c-6.04108 1.65969-12.07347-2.66898-16.17332-7.40612-3.12444-3.61011-5.95666-7.75111-9.68122-10.59747-1.12352-.85861-.51246-2.65085.90137-2.67577 9.7123-.17125 19.49209 4.19463 25.66212 11.73016" fill="#00a79d"/></g><g><path d="m99.29482 67.34786c-3.43018 4.72998-8.69006 7.47998-14.38013 9.13013.22998-.32007.53003-.63013.89001-.93018 12.05005-9.8999 14.93005-30.85987 8.30994-44.6399-1.23999-2.58008-.19995-5.03003 1.57007-6.40991 1.06006 2.56006 1.97998 5.15991 2.87 7.65991 2.05005 5.77002 4.10999 11.59985 4.72009 17.68994.59985 6.0901-.39014 12.55006-3.97998 17.50001z" fill="#c305ce"/></g><g><path d="m57.56471 78.53805c-1.71997-.26025-3.43005-.62012-5.10999-1.1001-2.57007-.73999-5.07007-1.78003-7.40991-3.12012h-.01001c-3.82007-11.73999-4.04004-24.27002-2.71008-36.67994.68005-6.34009 10.68005-6.38989 10 0-1.46997 13.73999-1.41003 28.03003 5.08997 40.58008.05004.10987.10009.20997.15002.32008z" fill="#c305ce"/></g><g><path d="m88.07472 72.11788c-.37 1.25-.79993 2.51001-1.30994 3.78003-12.88013 4.47998-24.89014 4.28003-35.96009-1.08984-.35999-1.07007-.69006-2.14014-1-3.22021-4.04993-14.20996-3.58997-29.61988.95007-43.68995 2.61987-8.12988 6.60986-15.82007 11.86987-22.57007.36011-.45996.83008-.96997 1.42017-.92993.52991.03003.90991.48999 1.21997.8999 1.6499 2.16016 3.27002 4.36011 4.84985 6.58008 6.18018 8.68994 11.66016 17.87988 15.14014 27.93018 3.91994 11.31982 6.00002 21.38989 2.81996 32.30981z" fill="#f40ff4"/></g><g><path d="m40.25477 27.25777c-3.17004 6.59009-5.39014 13.36011-5.08008 20.74023.11011 2.63989-1.48999 4.18994-3.44995 4.65991-.23999-5.97998 1.10999-12.17993 2.85999-17.95996 2.64001-8.70995 6.09997-17.15991 10.30993-25.21996 1.27002.96997 2.46008 2.02002 3.59009 3.1499-3.47998 4.31006-5.89001 9.75-8.22998 14.62988z" fill="#e821f7"/></g><g><path d="m70.11464 11.87789c-4.57983 4.61011-8.25989 10.02002-11.04993 16.09009-1.82996 4-6.44006 2.88989-8.30994-.07007 2.61987-8.12988 6.60986-15.82007 11.86987-22.57007.36011-.45996.83008-.96997 1.42017-.92993.52991.03003.90991.48999 1.21997.8999 1.64991 2.16016 3.27003 4.36011 4.84986 6.58008z" fill="#f650ff"/></g><g><path d="m90.47475 14.95797c-2.80005 2.41992-5.32007 5.1499-7.5 8.19995-3.05005 4.27002-9.43994 1.65991-9.54004-2.31006l4.17993-.07007c1.42017-1.97998 3.06006-3.77979 4.90015-5.36987 1.48999-1.29004 3.79993-2.28003 4.63989-4.08008 1.22998 1.1001 2.33008 2.32007 3.32007 3.63013z" fill="#f650ff"/></g><g><path d="m88.63696 72.32565c-1.33583 3.31202-3.77707 3.76003-6.99569 4.86182-3.36249 1.15103-7.00818.73639-10.43172 1.57658-1.28577.31554-2.1263.85768-2.86198-.76887-.501-1.10768-.03481-2.51616.73965-3.37033 1.2104-1.33496 3.10066-1.80084 4.891-2.00613 1.79065-.20531 3.64532-.22834 5.30182-.93869 2.10709-.90356 3.62862-2.82372 4.62946-4.88638 1.00084-2.06267 1.56219-4.30523 2.31911-6.46934.27057-.77357.73592-1.66877 1.55456-1.70707.91609-.04286 1.45091 1.00811 1.67562 1.89724.82115 3.2491.69336 8.05445-.82183 11.81117z" fill="#da0ee0"/></g><path d="m103.80368 38.87472c-1.94092-6.65209-7.09845-17.95218-9.71521-22.11353-1.13525-1.77026-2.28162-3.35205-3.87537-4.57617-.79688-.59155-1.79724-1.12622-2.9939-1.16968-.5929.00244-1.17896.11597-1.66492.34058-.54224.24854-.77954.43921-1.07861.62817-2.30298 1.57666-3.73059 3.12451-4.71472 4.34839-.9801 1.23364-1.51514 2.1687-1.83569 2.82886-.08887.18188-.15601.34082-.21167.48608-3.32681-5.39318-6.435-9.66467-10.00671-14.36938l-.58252-.76001c-.36267-.48218-.74048-.98926-1.18933-1.34058-.85083-.7251-2.0951-.93115-3.1178-.46704-.5072.21851-.96765.58374-1.37378 1.04102-.20679.22705-.39172.47925-.5509.70337l-.32837.45703c-2.23964 3.15777-4.41412 5.96095-7.52319 12.66724-.04309-.07275-.07922-.13818-.12427-.21289-1.92346-3.13611-4.47341-5.95029-6.43127-7.56836-.58191-.48804-1.21008-1.02856-1.85095-1.50928-.38953.71045-.78821 1.43799-1.19592 2.18164-.33459.63672-.67651 1.2876-1.02539 1.95166-4.77151 9.24481-9.81687 21.88067-11.52405 31.57398-2.30796 13.22725.87167 24.0925 12.17749 31.23413 7.07159 4.47603 15.21416 5.91504 23.57972 5.78027-1.4246 5.69076-2.60652 22.92325-2.88831 29.12549-1.06274-1.11987-2.57605-2.48022-4.81348-3.95166-3.03259-1.93042-7.45239-4.17554-13.80994-5.00708-1.56268-.23356-5.99382-.63725-7.3894.85693-1.12561 1.21069-1.36328 3.36084.03052 4.61914.09192.10011 12.21053 12.64057 12.31091 12.73022 3.37476 3.06104 7.33789 4.96118 10.41516 5.19702 1.21863.11279 2.23621-.01074 3.00989-.18066.04468 3.06812.17529 5.11597.3479 6.46729.33631 2.55664.844 2.66357 1.40625 2.67017.56238.00635 1.07263-.09106 1.47314-2.63159.41052-2.54028.68628-7.52198.96313-17.28541.1412-5.01511.48121-27.71471-.18237-32.62573 2.96802-.08643 5.85706-.35327 8.6084-.70313 6.83398-.8667 13.29004-2.59814 18.3219-5.76001 12.02907-7.6307 13.31799-22.03537 9.35363-35.65649zm-43.03052 84.14355c-2.59534-.65918-5.84656-2.66577-8.69019-5.71021-3.19653-3.34193-5.99464-8.15797-9.86816-11.80493l-.32397-.30347-.14392-.12939-.01123-.01465-.0177-.03442c-.0249-.03491.0127-.07715.04675-.07495l.09558.0127c.10217.00879.20203.01709.29944.02539 5.33945.40779 9.59025 1.49954 14.8324 4.4043 3.13664 1.80282 4.9385 3.33727 6.62695 4.57983-.10547 3.86719-.13843 6.97095-.11841 9.46021-.73023-.03663-1.65186-.12794-2.72754-.41041zm14.82593-46.68164c-6.55176.89185-13.70704 1.32886-20.69605-.21606-3.47913-.76074-6.86609-2.05591-9.94482-3.9314-10.21461-6.21671-13.00179-15.80431-11.22668-27.73095 1.62331-10.83192 6.7962-23.77099 11.41492-33.73608 1.41562.90924 4.36919 3.52514 7.09131 7.10498.14917.19922.28369.38379.41797.56763-2.896 6.44556-4.91748 13.29321-5.92627 19.87085-1.53759 10.38633-1.10135 22.10578 2.30298 32.42334.1991.5354.38098 1.0249.54468 1.46533.66772 1.75488 1.09521 2.69653 1.22839 2.65137.13306-.04517-.03369-1.07373-.44055-2.88159-.1051-.45068-.2218-.95142-.34949-1.49927-1.95554-10.72594-2.72541-19.36958-.44775-31.67236 2.48286-12.99837 7.54325-22.67321 14.04224-31.52612l.24036-.323c.02832-.03687.03467-.0437.03918-.04688.01294-.01196.026-.02246.04065-.02881.03027-.0166.06616.00586.07972.03345l.02283.04126.54504.73364c3.94234 5.34667 6.97182 9.66521 10.23682 15.06152 3.56689 5.89453 6.16394 11.3396 8.00928 16.26148 1.83716 4.96021 3.15002 9.34961 3.95605 13.12378 1.62598 7.58276 1.17712 12.80151.71277 16.2705-.25647 1.73779-.51147 3.05957-.72119 4.06641-.09351.55933-.18628 1.01147-.25977 1.39478-3.25967 1.16454-6.96072 1.99364-10.91262 2.5222zm16.67761-5.24951c-.9845.62085-2.06238 1.18188-3.20471 1.69751.39941-.96606.82739-2.21777 1.24731-3.88135.45068-1.83765.84961-4.17065.97925-7.09033.12354-2.91699-.0896-6.41528-.83862-10.46411-.75989-4.05542-2.03943-8.60474-3.89355-13.77271-1.8717-5.15112-4.54224-10.80811-8.18018-16.83887.14929.0957-.02319-.01587.04993.03052l.00159-.00122.00342-.0022.05481-.03882c.03662-.02832.07581-.05859.11792-.09106.16516-.13354.35938-.31909.60742-.5603.49329-.48315 1.16943-1.21606 2.21643-2.20117 1.04688-.97656 2.4762-2.22729 4.56726-3.44873.64661-.37817.79529-.40845 1.08691-.39697.27612.03516.71375.23438 1.19385.63989.97009.81274 1.96912 2.21313 2.91357 3.84253 9.64371 16.64584 17.40624 42.19239 1.07739 52.57739z" fill="#202020"/></g></svg>