<svg id="Layer_1" enable-background="new 0 0 136 136" height="512" viewBox="0 0 136 136" width="512" xmlns="http://www.w3.org/2000/svg"><g><g><path d="m81.07656 18.49726c2.52511 11.24062.52054 23.59333-7.27396 32.74668l-3.61687-.72792-4.34975-.86103-4.85312-.9712c-3.84856-8.86792-5.33001-18.54023-4.27737-27.99869.3786-3.40768 1.11222-6.86849 3.16404-9.76643 2.05357-2.88899 5.66029-5.12105 9.51732-4.95912 3.14568.12446 6.00211 1.8257 7.90704 4.05546.09576.10949.19169.21917.27776.33037.75079.94255 1.34478 1.95806 1.83673 3.0184.76333 1.63565 1.26771 3.3891 1.66818 5.13348z" fill="#9b9ace"/></g><g><path d="m77.29389 10.01502c-9.12158-1.28657-13.14365 9.24437-14.0276 15.53992-1.13417 8.09122-.23623 16.34011 2.56968 24.10006l-4.85312-.9712c-3.84856-8.86792-5.33001-18.54023-4.27737-27.99869.3786-3.40768 1.11222-6.86849 3.16404-9.76643 2.05357-2.88899 5.66029-5.12105 9.51732-4.95912 3.14568.12445 6.00211 1.8257 7.90705 4.05546z" fill="#adade0"/></g><g><path d="m81.17321 17.76106c2.28815 11.49332.47169 24.12375-6.59136 33.48288l-3.27747-.74428c.02687-.09752.07137-.19875.10699-.29823 1.98759-5.55191 4.32377-10.90471 5.46871-16.72687.57104-2.9038.82009-5.81879.76007-8.7762-.05664-2.79121-1.34305-5.3877-1.39275-8.18203-.01694-.95256.40263-2.00065 1.03017-2.70061.16786-.18724 2.24052-1.6505 2.38421-1.30305.69158 1.67226 1.14857 3.46497 1.51143 5.24839z" fill="#8282bc"/></g><g><path d="m35.50179 25.06883c11.19323 5.15317 20.84217 14.5538 24.49167 26.45349l-2.6408 2.36687-3.16337 2.85558-3.53862 3.17936c-9.86052-2.61364-19.10849-7.58847-26.76423-14.4094-2.75856-2.45693-5.36643-5.22519-6.75261-8.66736-1.37741-3.43787-1.32082-7.67377.96015-10.58734 1.85367-2.38105 4.92049-3.53604 7.91983-3.6118.14851-.00546.29729-.01093.4419-.00773 1.23765.01055 2.45186.19 3.64852.47766 1.8484.44024 3.65576 1.15771 5.39756 1.95067z" fill="#9b9ace"/></g><g><path d="m26.01381 22.64822c-6.18154 6.31739.76103 16.14053 5.75498 20.82389 6.41943 6.0177 14.10365 10.54623 22.42049 13.27266l-3.53862 3.17936c-9.86052-2.61364-19.10849-7.58847-26.76423-14.4094-2.75856-2.45693-5.36643-5.22519-6.75261-8.66736-1.37741-3.43787-1.32082-7.67377.96015-10.58734 1.85368-2.38106 4.9205-3.53605 7.91984-3.61181z" fill="#adade0"/></g><g><path d="m35.50179 25.06883c11.19323 5.15317 20.84217 14.5538 24.49167 26.45349l-2.6408 2.36687c-.06663-.08366-.12564-.18486-.18859-.27728-3.51329-5.15843-6.6435-10.49421-10.90295-15.09304-2.1244-2.29367-4.45548-4.31639-7.01194-6.0987-2.41278-1.68215-5.41261-2.18225-7.82381-3.87232-.82195-.57613-1.45803-1.58822-1.67019-2.56388-.05675-.26099-.03442-2.95717.34957-2.8657 1.84823.44027 3.6554 1.15768 5.39704 1.95056z" fill="#8282bc"/></g><g><path d="m15.31296 63.16058c10.68625-4.47019 23.16612-4.89701 33.38575.70792l-.15996 3.53051-.1782 4.24319-.2092 4.7362c-8.14454 5.26893-17.44634 8.46659-26.92786 9.246-3.4159.28141-6.93883.23956-10.11027-1.14462-3.16289-1.38748-5.91781-4.35538-6.35252-8.00551-.36203-2.97552.8741-5.97421 2.77757-8.17866.09313-.11034.18641-.22086.28271-.32242.81301-.88074 1.72207-1.62796 2.69102-2.2878 1.49398-1.02201 3.14394-1.82301 4.80096-2.52481z" fill="#9b9ace"/></g><g><path d="m7.53827 68.20837c.13772 8.80114 11.13346 10.60818 17.4726 10.26144 8.14696-.44743 16.13617-2.83149 23.34969-6.91485l-.2092 4.7362c-8.14454 5.26892-17.44634 8.46658-26.92786 9.246-3.4159.28141-6.93883.23956-10.11027-1.14462-3.16289-1.38749-5.91781-4.35539-6.35252-8.00553-.36204-2.97551.87409-5.9742 2.77756-8.17864z" fill="#adade0"/></g><g><path d="m15.31296 63.07334c10.68625-4.47019 23.16612-4.89701 33.38575.70792l-.15996 3.53051c-.09854-.01001-.20366-.03761-.30557-.0563-5.68792-1.04398-11.24324-2.48539-17.04831-2.60725-2.89528-.06078-5.74659.21398-8.58623.81659-2.68006.56874-4.96338 2.37558-7.64763 2.93771-.91503.19162-1.99634-.05141-2.77754-.57343-.20897-.13964-1.97142-2.01891-1.66104-2.23122 1.49387-1.02189 3.14367-1.8228 4.80053-2.52453z" fill="#8282bc"/></g><g><path d="m31.28836 110.82938c3.48277-12.65778 11.72988-24.41458 23.67527-30.28395l2.96791 2.37551 3.57673 2.84211 3.98519 3.1818c-1.03088 10.82232-4.66704 21.4026-10.53589 30.62202-2.11383 3.32186-4.58345 6.53822-7.98074 8.58383-3.39427 2.03566-7.8848 2.6983-11.36773.79466-2.84451-1.54475-4.60545-4.5752-5.21295-7.71863-.03189-.15536-.06383-.31099-.08587-.46372-.20645-1.30424-.23013-2.61261-.13626-3.92095.1407-2.02021.58183-4.0445 1.11434-6.01268z" fill="#9b9ace"/></g><g><path d="m30.39616 121.22675c7.76917 5.42806 16.93905-3.55273 21.01488-9.6066 5.2366-7.78146 8.67563-16.64003 10.09723-25.85709l3.98519 3.1818c-1.03088 10.82232-4.66704 21.4026-10.53589 30.62202-2.11383 3.32186-4.58345 6.53822-7.98074 8.58383-3.39427 2.03566-7.8848 2.6983-11.36773.79466-2.8445-1.54475-4.60544-4.57519-5.21294-7.71862z" fill="#adade0"/></g><g><path d="m31.28836 110.82938c3.48277-12.65778 11.72988-24.41458 23.67527-30.28395l2.96791 2.37551c-.07678.08438-.17345.16373-.26014.24574-4.83867 4.57668-9.93229 8.78047-14.04784 14.04697-2.05263 2.62667-3.78233 5.42464-5.2181 8.4188-1.35508 2.82588-1.35662 6.06801-2.72036 8.89358-.46489.9632-1.4236 1.80515-2.41832 2.19475-.26608.10422-3.12193.54041-3.09269.12071.14071-2.02003.58181-4.04412 1.11427-6.01211z" fill="#8282bc"/></g><g><path d="m83.37064 122.53139c-8.22221-9.01665-13.63793-21.49277-12.87249-34.12664l3.14801-1.27114 3.77779-1.54198 4.22089-1.7107c7.89272 6.11616 14.44413 14.24616 18.95619 23.54007 1.62609 3.34805 3.01311 6.93584 3.08578 10.71229.06632 3.76913-1.41248 7.76634-4.42466 9.6888-2.45238 1.57491-5.57079 1.53937-8.26521.50496-.134-.04959-.26822-.09927-.39583-.15565-1.09772-.4665-2.11765-1.08456-3.08545-1.79881-1.49626-1.09937-2.86254-2.44656-4.14502-3.8412z" fill="#9b9ace"/></g><g><path d="m90.99696 128.32704c7.63083-3.71256 4.76577-15.59126 1.90138-21.87576-3.68285-8.07598-8.99329-15.20587-15.47439-20.85966l4.22089-1.7107c7.89272 6.11616 14.44413 14.24616 18.95619 23.54007 1.62609 3.34805 3.01311 6.93584 3.08578 10.71229.06632 3.76913-1.41248 7.76634-4.42466 9.6888-2.45237 1.57491-5.57077 1.53937-8.26519.50496z" fill="#adade0"/></g><g><path d="m83.37064 122.53139c-8.22221-9.01665-13.63793-21.49277-12.87249-34.12664l3.14801-1.27114c.03107.10394.04945.22169.0743.33258 1.38665 6.189 2.37263 12.40495 4.61195 18.33835 1.11686 2.95927 2.509 5.73777 4.18275 8.37135 1.57969 2.48557 4.08035 4.06639 5.65596 6.5589.5371.84966.7618 2.04433.62157 3.04807-.03751.2685-.9666 2.81781-1.27744 2.58941-1.49611-1.09931-2.86225-2.44638-4.14461-3.84088z" fill="#8282bc"/></g><g><path d="m118.36142 89.16916c-11.77134 3.06133-24.81337 1.24986-34.61753-6.92451l.68564-3.93784.80943-4.73534.91419-5.28364c9.24541-4.42547 19.38974-6.31102 29.3653-5.44621 3.59396.31088 7.25172 1.00466 10.34647 3.14227 3.08537 2.13976 5.51399 5.98054 5.42921 10.16198-.06113 3.41003-1.78778 6.55272-4.09166 8.6804-.11308.10689-.22636.21396-.34145.31039-.97508.84044-2.03043 1.51319-3.13519 2.07677-1.70407.87416-3.53786 1.47132-5.36441 1.95573z" fill="#9b9ace"/></g><g><path d="m127.20248 84.82626c1.15128-9.91508-10.01865-13.96426-16.66245-14.73839-8.53876-.99287-17.19832.21941-25.30107 3.48359l.91419-5.28364c9.24541-4.42547 19.38974-6.31102 29.3653-5.44621 3.59396.31088 7.25172 1.00466 10.34647 3.14227 3.08537 2.13976 5.51399 5.98054 5.42921 10.16198-.06111 3.41003-1.78777 6.55272-4.09165 8.6804z" fill="#adade0"/></g><g><path d="m118.36142 89.16916c-11.77134 3.06133-24.81337 1.24986-34.61753-6.92451l.68564-3.93784c.10101.02934.20628.07964.30952.11937 5.76197 2.21731 11.32758 4.85687 17.347 6.05952 3.00219.59982 6.008.81452 9.0499.65868 2.87095-.14709 5.5114-1.75824 8.38573-1.89713.97983-.04734 2.06866.42426 2.80434 1.15427.19679.19528 1.75335 2.63056 1.39933 2.81216-1.70394.87402-3.53756 1.47112-5.36393 1.95548z" fill="#8282bc"/></g><g><path d="m117.50511 44.18753c-7.25429 9.58607-18.49751 17.02126-31.14688 18.43954l-1.89381-2.86013-2.28904-3.42949-2.54552-3.83381c4.45241-8.76645 11.16774-16.56675 19.4466-22.57258 2.98225-2.16419 6.24995-4.13573 9.97006-4.85446 3.71416-.71126 7.96638.04918 10.47685 2.66479 2.05354 2.12784 2.64909 5.18312 2.17104 7.99514-.02195.13952-.04394.27929-.07389.41373-.23933 1.15337-.6443 2.25665-1.15493 3.32546-.78461 1.65161-1.84062 3.2186-2.96048 4.71181z" fill="#9b9ace"/></g><g><path d="m121.69442 35.73653c-5.21497-6.82473-16.38323-1.98605-22.0191 1.89256-7.24208 4.98614-13.21931 11.4015-17.49995 18.70836l-2.54552-3.83381c4.45241-8.76645 11.16774-16.56675 19.4466-22.57258 2.98225-2.16419 6.24995-4.13573 9.97006-4.85446 3.71416-.71126 7.96638.04918 10.47685 2.66479 2.05356 2.12784 2.6491 5.18312 2.17106 7.99514z" fill="#adade0"/></g><g><path d="m117.50511 44.18753c-7.25429 9.58607-18.49751 17.02126-31.14688 18.43954l-1.89381-2.86013c.09651-.04821.20925-.08638.31389-.12969 5.84031-2.4173 11.78831-4.44744 17.20337-7.65464 2.70076-1.59959 5.16706-3.43734 7.43308-5.52561 2.13867-1.9709 3.1963-4.68717 5.34266-6.65527.73167-.6709 1.86771-1.0955 2.88874-1.13052.27312-.00937 2.98223.46188 2.81922.80499-.7846 1.65143-1.84052 3.21827-2.96027 4.71133z" fill="#8282bc"/></g><g><path d="m83.11346 80.64854c-1.34998 2.52002-3.15002 4.86987-5.54993 6.41992-4.39014 2.82007-10.19006 2.56006-15.10009.79004-1.25-.4502-2.47998-1.02002-3.6499-1.68018-6.84009-3.88989-11.93005-11.15991-11.20007-18.8999.21008-2.25.90002-4.45996 1.95007-6.45996 2.03992-3.89014 5.46997-6.98999 9.43994-8.87012l1.48999-1.21997c5.46997-2.82007 12.29004-1.82007 17.38 1.66016 1.79993 1.22998 3.38 2.76978 4.60999 4.55005 4.72997 6.83985 4.56005 16.37989.63 23.70996z" fill="#a7a9ac"/></g><g><path d="m77.87347 52.38853c-.58997 1.75-2.09998 3.12988-4.53003 3.05005-5.91003-.19019-15.33996 1.36987-18.48999 7.25977-2.87 5.37012.67004 12.38013 4.56995 16.11011 2.56006 2.45996 1.58008 5.69995-.60986 7.36987-6.84009-3.88989-11.93005-11.15991-11.20007-18.8999.21008-2.25.90002-4.45996 1.95007-6.45996 2.03992-3.89014 5.46997-6.98999 9.43994-8.87012l1.48999-1.21997c5.46996-2.82007 12.29003-1.82007 17.38 1.66015z" fill="#b4b4b5"/></g><path d="m132.51759 71.22813c-.797-2.00952-2.04688-3.82324-3.6283-5.30737-7.73183-7.2952-25.65562-5.13529-35.62964-1.30005-2.62354 1.01904-4.56006 1.9978-5.70068 2.68262-.1228-1.48682-.37061-2.95093-.7627-4.36523.12109.07275.29065.13623.54114.1853.3645.07104.89258.11279 1.66272.11182.75977-.05298 1.77246-.1106 3.07581-.34961 10.21452-1.84653 21.53848-8.99084 28.95581-20.17725.77124-1.21997 1.53784-2.61792 2.11792-4.24634.57617-1.61108.96069-3.52002.81274-5.49878-.14026-1.9646-.76453-4.0708-2.11938-5.83032-1.34387-1.77734-3.32068-3.01074-5.35632-3.64404-2.04944-.64575-4.19214-.79321-6.28711-.54785-2.1145.25562-4.08447.91943-5.91125 1.78613-6.32891 3.07026-15.62179 11.13765-21.34143 20.646-2.4292 4.05811-3.40295 6.82227-3.1814 6.94141-.5874-.44458-1.18506-.85938-1.79565-1.21606-.67188-.40161-1.34961-.74243-2.02673-1.04761.0481-.04468.09143-.08301.14185-.1311.49353-.56006 1.19678-1.2749 1.93164-2.35181 7.0004-9.83198 7.42312-24.75476 3.64172-34.24463-.53906-1.34131-1.26782-2.77026-2.30115-4.13135-1.04053-1.37549-2.39563-2.6355-4.02466-3.60474-1.62476-.96826-3.56226-1.65356-5.64575-1.76831-2.08459-.11646-4.20557.36719-6.06787 1.30078-1.86804.93311-3.51318 2.28345-4.80505 3.95068-1.28589 1.67456-2.146 3.57104-2.70862 5.4834-2.45909 8.68154-.7611 20.32952 2.32166 28.92456 1.2804 3.53003 2.4906 5.81543 3.02441 6.49219-.67896.38696-.99731.68555-.95776.75806.07385.14575.83728-.1499 2.22705-.48779 1.3899-.31226 3.45044-.61597 5.94165-.30103 10.63174 1.27625 17.46658 10.99662 15.40564 22.56836-.68079 3.85352-2.35608 7.64893-4.75354 10.48413-1.20203 1.40869-2.58691 2.47925-4.11987 3.15186-1.54175.67993-3.22107.99194-4.87476 1.03711-10.81767.25356-21.92403-9.54179-20.78089-20.23071.94382-8.20668 7.73262-12.44493 9.08472-13.92797.55798-.5498.50171-.82056.38-1.07397-.1217-.25317-.28174-.47363-1.11292-.33154-.80469.1814-2.36267.6543-4.81799 2.51685-1.2063.94653-2.6394 2.25781-4.02258 4.23413-.12219.17603-.24341.36426-.36462.55127-1.21875-.5061-3.01196-1.22412-5.19897-2.21436-8.27828-3.76274-22.83784-13.11739-25.21802-21.53369-.44373-1.56885-.54053-3.22998-.24963-4.72339.28699-1.50244.97253-2.78491 1.96143-3.72021.99695-.94312 2.30798-1.56494 3.65845-1.8894 2.71399-.66382 5.49048-.05054 7.85022.77417 8.35994 2.98252 17.29049 9.69093 22.53833 17.46216 1.09351 1.55884 1.87073 2.88867 2.48792 3.96948.63879 1.07227 1.03638 1.93408 1.43359 2.55518.33789.64404.6062 1.07715.83325 1.36157.45288.56958.72693.5437.99548.46045.26843-.08325.50903-.20728.51001-.95703-.00049-.375-.05798-.90845-.20984-1.67285-.21082-.73999-.44727-1.7439-.9613-2.98291-.49292-1.24829-1.18347-2.77344-2.24231-4.55054-4.99361-8.69873-14.78099-16.17314-24.03613-19.48804-1.37585-.48047-2.92139-.91333-4.63916-1.12256-1.70361-.21216-3.63062-.17578-5.5271.32007-1.89111.48926-3.82971 1.4187-5.40271 2.97168-1.58313 1.55249-2.60925 3.69849-2.94519 5.85498-.35229 2.16748-.13354 4.36377.51794 6.4165 3.11693 9.68493 18.47802 18.75813 28.06104 21.96826 2.21021.73633 4.03589 1.20361 5.33813 1.46216-.40723.69067-.7981 1.44189-1.14771 2.27075-.03662-.02588-.06665-.04883-.10498-.07544-.6311-.36255-1.45215-.89502-2.62439-1.38477-1.16199-.5144-2.64514-1.08252-4.54907-1.55127-7.8813-2.06976-18.61781-1.30051-28.9563 4.04736-1.21008.67822-2.48865 1.52319-3.70178 2.63305-1.21008 1.09644-2.36206 2.50757-3.19312 4.14307-.83557 1.63525-1.40955 3.5437-1.41296 5.59595-.00916 2.05396.63147 4.1709 1.77148 5.90112 1.13232 1.74438 2.68921 3.16431 4.47766 4.18311 1.81921 1.03296 3.78235 1.56274 5.72144 1.81226 10.09692 1.26991 26.65136-4.47274 32.95508-10.25146.21008.45142.43091.9021.67883 1.34937.66223 1.19678 1.47546 2.37549 2.40759 3.51636-.06421.02319-.12085.04224-.1886.06763-.72876.34912-1.72852.76343-2.92334 1.51563-10.82634 6.5767-17.80885 21.31191-19.22461 32.02002-.20215 1.52734-.29736 3.22583-.09521 5.03931.1958 1.81787.72876 3.74976 1.71045 5.55298.97192 1.80151 2.4519 3.52466 4.44568 4.67969 1.99341 1.16357 4.36218 1.61743 6.60986 1.46338 2.25928-.14893 4.44055-.83691 6.39978-1.94141 10.11803-5.75874 18.23191-27.09576 18.31092-39.42896 1.21375.22363 2.48792.35474 3.81543.37036-1.02718 10.33368 3.83298 24.46727 14.76245 35.11206 8.29342 7.72881 16.62322 5.56847 19.82983-.68408 1.00244-1.93115 1.50024-4.04419 1.59106-6.16943.43552-11.4488-13.39521-29.33173-22.75269-34.9248.36682-.50952.71558-1.03125 1.04126-1.56787.04321.09985.0929.20435.17859.33496.20752.31567.55273.73096 1.10168 1.29395 10.433 8.93147 25.5286 9.76908 38.09058 5.15308 1.37695-.57251 2.8418-1.33008 4.24695-2.38721 1.40649-1.0481 2.74268-2.44092 3.76965-4.08154 1.03369-1.64209 1.80505-3.57471 2.06848-5.68091.27429-2.10749-.0293-4.33918-.83326-6.33918zm-70.05298-21.76708c-.27563.1228-.51355.24121-.73059.35547-.13208-.87109-.92383-3.27344-1.78918-6.79517-2.01194-8.28434-3.22367-19.76958-.61853-27.45337.5332-1.5835 1.29492-3.06299 2.28821-4.26587.99341-1.19775 2.27124-2.17456 3.63733-2.80396 1.3678-.63379 2.81995-.90527 4.18323-.79785 1.36865.10767 2.68884.59229 3.8335 1.30127 2.32959 1.42358 3.73804 3.64404 4.60901 5.83521 2.68394 6.65584 3.24527 17.86661-.45813 27.12378-.65234 1.70898-1.31433 3.03491-1.85791 4.10229-.52209 1.08252-1.0166 1.85303-1.30701 2.50269-.14722.26294-.26563.4895-.36646.69531-1.79834-.57764-3.54517-.85986-5.10767-.90186-2.75061-.0891-4.93323.51344-6.3158 1.10206zm-47.45593 34.41332c-1.5885-.26636-3.13257-.77319-4.39417-1.55762-1.28455-.7915-2.3811-1.87671-3.11633-3.09424-.74524-1.22119-1.08972-2.55249-1.05847-3.86206.03235-1.31885.44165-2.63281 1.06177-3.79248 1.23901-2.34033 3.31201-3.93115 5.34961-5.0686 1.85718-1.04272 3.85339-1.81738 5.6969-2.46875 6.14645-2.2288 13.83931-3.0459 20.5614-1.82788 1.75854.28784 3.15393.65283 4.27905.95825 1.13586.28076 1.9679.59717 2.64563.74268.11475.03564.2168.06494.32056.09497-.22241.77246-.40601 1.59497-.53723 2.47046-.22107 1.7373-.25818 3.67065.11316 5.69116.25562 1.43262.70947 2.90332 1.34937 4.36548-.10336.04131-18.62532 9.57036-32.27125 7.34863zm25.69104 44.54737c-1.6416.06494-3.19348-.30444-4.43115-1.06299-1.24646-.75732-2.23572-1.91504-2.91101-3.21802-4.42385-8.3884 3.88781-28.74047 15.73816-38.36353 1.00134-.84229 1.83496-1.39282 2.4137-1.90552.198-.14502.36743-.27563.52429-.40015 2.03772 2.08667 4.55603 3.96899 7.60376 5.41943 1.57385.72559 3.3501 1.35547 5.28614 1.77222-2.94289 12.53671-11.24907 37.28299-24.22389 37.75856zm39.06775-76.10547c.27747.1355 1.72534-2.36914 4.49231-6.05469 7.12244-9.44577 16.20608-16.20098 21.42468-18.45947 1.58936-.68311 3.26575-1.16235 4.88684-1.29956 1.63281-.13818 3.28967.04297 4.73584.54858 1.45251.50366 2.64844 1.33984 3.42065 2.4104.7915 1.07056 1.17737 2.41528 1.25256 3.74951.15015 2.68213-1.06787 5.22729-2.38672 7.31445-5.99874 9.04578-14.75259 15.7257-26.21179 19.56519-1.17273.39673-2.08484.64111-2.76758.90039-.69189.20752-1.16394.39209-1.48303.56055-.37036.19556-.53101.36938-.59717.53564-.22339-.69556-.46802-1.38208-.75989-2.04688-1.48702-3.37021-3.41568-5.76229-6.0067-7.72411zm22.26331 66.91382c-.12195 1.64063-.573 3.25391-1.32031 4.5896-2.93977 5.28935-8.88619 4.01784-13.74023-.51001-7.58533-7.38949-12.90156-17.06188-14.82642-29.48413-.1864-1.1604-.26831-2.06055-.39734-2.76538 1.68103-.18726 3.40649-.60669 5.0625-1.37744 2.09412-.96484 3.95679-2.5105 5.38623-4.28613.10522-.13232.19861-.27368.3009-.4082 7.54635 7.95962 20.33844 23.29762 19.53467 34.24169zm25.88928-38.12964c-1.56543 2.43091-3.91809 3.90552-6.21118 4.85327-16.22005 6.73435-29.99468-.92182-35.19775-3.23389-.63672-.35889-1.10242-.57422-1.44934-.68945-.26465-.08789-.44519-.10522-.59534-.09619 2.31787-4.25464 3.41235-9.18481 3.15356-13.93555 1.23157-.3772 3.33472-1.10425 6.13-1.87061 8.78912-2.37887 26.23943-4.11526 32.65491 2.37183 1.16309 1.16479 2.06848 2.58252 2.60669 4.06592 1.14038 2.97949.50513 6.13086-1.09155 8.53467z" fill="#202020"/></g></svg>