<svg id="Layer_1" enable-background="new 0 0 136 136" height="512" viewBox="0 0 136 136" width="512" xmlns="http://www.w3.org/2000/svg"><g><g><g><path d="m78.62902 120.80698c-4.75835-2.50266-7.91253-8.19447-6.7626-13.41.87196-3.94343 3.91372-7.05345 7.33773-9.14668l3.89262-2.01519s0 0 .00129-.00871l.66469-.34362c-.22787.09564-.45402.1827-.68907.26828-3.19409 1.20513-6.78612 1.5601-10.03136.42283-3.47179-1.22839-6.40572-4.39822-6.71199-8.07468-.12943-1.58041.21292-3.1624.81095-4.61275 1.09968-2.66737 3.1088-4.93385 5.60703-6.36175.4483-.26385.92747-.49586 1.41122-.70036 3.424-1.43407 8.0694-.98116 10.0652 2.21953l3.09106 1.75288c-4.03529-2.64056-6.38053-7.25337-5.88277-11.55315.01164-.0782.01482-.15787.02646-.23607.59881-4.20274 3.88033-7.90531 8.30505-9.31523 2.8012-.89644 5.9248-.91072 8.94265-.51506 3.12036.42165 6.28568 1.32286 8.76825 3.1615 4.12749 3.039 6.61951 9.41328 3.13293 13.24203l-.1482.10004c5.76186-2.14935 12.83292-1.62209 17.51797 2.50742s5.88206 12.15875 1.66053 16.62225c-.71576.74489-1.53973 1.38264-2.40589 1.9421-.36475.24215-.73622.46535-1.10727.68861-4.17944 2.44843-9.35941 4.15127-13.88919 2.26564l3.40354 1.38634c5.30511 3.01235 7.80468 10.23414 5.48985 15.80795-1.06677 2.56596-3.08848 4.61658-5.53083 5.91122-2.85964 1.52805-6.29262 2.00754-9.42849 1.03103-4.41159-1.36712-7.78159-5.07272-10.02229-9.13368l-.10395-3.72298-.06818-2.64802c-.11075.86342-.22408 1.74424-.37217 2.61927-.48122 2.993-1.29338 5.93987-3.29086 8.12815l-.0013.0087c-1.64505 1.79261-3.92094 2.80323-6.34496 3.07656-2.47961.29083-5.1026-.19055-7.33765-1.3644z" fill="#d18bb8"/></g><g><path d="m127.23277 96.75259c1.26276-3.94071 2.20016-8.92441-.62084-12.49406-1.37648-1.74355-3.53243-2.85085-5.7258-2.93105-1.68857-.06736-3.35572.43885-5.04257.36286-2.67017-.10615-5.25069-1.76514-6.4856-4.16212-1.25429-2.44473-1.3539-5.06237-3.22707-7.17368-2.06422-2.32124-4.5472-4.16-7.48795-5.19307-6.07717-2.12548-12.58425-.2873-17.18346 3.84608.59881-4.20274 3.88033-7.90531 8.30505-9.31523 2.8012-.89644 5.9248-.91072 8.94265-.51506 3.12036.42165 6.28568 1.32286 8.76825 3.1615 4.12749 3.039 6.61951 9.41328 3.13293 13.24203l-.1482.10004c5.76186-2.14935 12.83292-1.62209 17.51797 2.50742s5.88206 12.15875 1.66053 16.62225c-.71576.74487-1.53974 1.38263-2.40589 1.94209z" fill="#d3a7c6"/></g><g><path d="m83.07368 96.15107c-3.19409 1.20513-6.78612 1.5601-10.03136.42283-3.47179-1.22839-6.40572-4.39822-6.71199-8.07468-.12943-1.58041.21292-3.1624.81095-4.61275 1.09968-2.66737 3.1088-4.93385 5.60703-6.36175-.71941 2.98008-1.35476 6.23253-.84775 9.15854.68653 3.98918 4.36749 5.30585 7.8524 6.20689 1.8401.48453 2.91762 1.78636 3.32072 3.26092z" fill="#ba70a3"/></g><g><path d="m78.62902 120.80698c-4.75835-2.50266-7.91253-8.19447-6.7626-13.41.87196-3.94343 3.91372-7.05345 7.33773-9.14668l3.89262-2.01519c.46032 1.80476-.07051 3.81859-1.41344 4.83315-.16094.60561-.47364 1.21271-1.01217 1.7822-4.91677 5.30978-3.88109 13.10729 2.89502 16.39141 1.39453.66869 2.14834 1.75628 2.40048 2.92951-2.4796.29083-5.10259-.19055-7.33764-1.3644z" fill="#ba70a3"/></g><g><path d="m92.31293 119.08612-.0013.0087c-.22504-.34036-.45009-.68073-.65517-1.03555-2.08276-3.50908.97823-7.16817 3.94733-7.1013-.48122 2.993-1.29339 5.93986-3.29086 8.12815z" fill="#ba70a3"/></g><g><path d="m106.17037 123.84338c-4.41159-1.36712-7.78159-5.07272-10.02229-9.13368l-.10395-3.72298c1.00039.14881 1.95128.75255 2.66242 1.94878 2.75085 4.63583 7.33604 7.70652 12.79895 7.56512 1.93727-.05156 3.33473.95612 4.09336 2.31173-2.85964 1.52804-6.29262 2.00754-9.42849 1.03103z" fill="#ba70a3"/></g><g><path d="m98.05868 103.26524c5.78619-1.8316 10.22981-7.36098 11.561-13.16113.1638-.7123.15784-1.35468.02595-1.92408.01389-.81947-.21236-1.6854-.76807-2.5403-3.34828-5.14923-10.04913-5.34882-15.20573-3.35975-5.24268 2.02193-9.14349 7.8892-8.10362 13.67843 1.03913 5.78542 7.13489 9.00207 12.49047 7.30683zm-3.90467-8.97435c-.68955-2.67989 3.81043-5.00948 6.35226-4.38835-.78681 1.74715-2.26829 3.23437-3.82605 4.2424-.72796.47113-2.17859 1.49739-2.52621.14595z" fill="#ba70a3"/></g><g><path d="m91.23163 99.11297c-1.44585-.98013-2.29131-2.52831-2.60437-4.06808-.11415-.6069-.15623-1.21963-.12923-1.82085.10919-2.22659 1.2007-4.36082 2.97693-5.90004 2.24825-1.95943 5.51049-2.96619 8.80222-2.91686 1.86372.02535 3.79946.40115 5.3734 1.35802 3.80634 2.32635 3.15614 6.57394 1.16582 9.4315-.52077.75061-1.0846 1.43169-1.68431 2.05334-2.34986 2.40575-5.37341 3.71941-9.6389 3.22293-1.50304-.17907-3.04036-.54196-4.26156-1.35996z" fill="#bcbec0"/></g><g><path d="m99.06406 89.62997c-2.60378-.37124-5.4751 1.41317-7.50873 2.82938-1.0217.71172-2.09295.91636-3.0573.76469.10919-2.22659 1.2007-4.36082 2.97693-5.90004 2.24825-1.95943 5.51049-2.96619 8.80222-2.91686 1.86372.02535 3.79946.40115 5.3734 1.35802 3.80634 2.32635 3.15614 6.57394 1.16582 9.4315-.52077.75061-1.0846 1.43169-1.68431 2.05334-.65073-.46464-1.16642-1.18298-1.45922-2.20271-.69349-2.44931-1.77963-5.00855-4.60881-5.41732z" fill="#e6e7e8"/></g></g><g><path d="m75.99368 108.29631c-1.91149 6.07528-7.68589 10.81335-13.72905 10.37122-4.56967-.33726-8.61171-3.39058-11.58847-7.07574l-2.97677-4.25378s0 0-.00996 0l-.50776-.72644c.1493.25294.2887.50537.42809.7686 1.94139 3.56949 3.00666 7.76003 2.33958 11.80302-.72675 4.32729-3.72345 8.36-7.77546 9.37074-1.74226.43185-3.57409.30539-5.30638-.14703-3.18586-.83183-6.09293-2.81117-8.15378-5.51746-.37832-.4843-.72681-1.01075-1.0454-1.54749-2.24005-3.80135-2.59844-9.38154.60735-12.30891l1.38381-3.96896c-2.20019 5.24345-6.91921 8.8335-11.8175 9.00213-.08957 0-.1792.01028-.26876.01028-4.80866.03188-9.55758-3.20087-11.9569-8.19137-1.52326-3.15871-2.12058-6.85468-2.24005-10.49769-.1095-3.76897.30863-7.67571 1.90153-10.93931 2.62834-5.42287 9.28876-9.49722 14.21688-6.04391l.13939.15783c-3.47462-6.44338-4.20137-14.90877-.45799-21.18404s12.49449-9.10803 18.26882-4.89642c.96574.71616 1.83189 1.57936 2.61837 2.5063.33852.38919.65712.78968.97571 1.18966 3.51435 4.517 6.38163 10.35014 5.11722 16.046l.91597-4.27434c2.37939-6.81252 9.98561-11.04522 16.64603-9.28695 3.06639.81076 5.73454 2.84305 7.63607 5.50667 2.24004 3.11656 3.41488 7.09682 2.90713 10.98198-.70688 5.46452-4.22124 10.10799-8.34294 13.47697l-4.14164.7794-2.94687.54753c.98561-.02108 1.99115-.04216 2.9967-.02108 3.43469.04215 6.87942.48429 9.69691 2.46363h.00996c2.30968 1.6318 3.86279 4.14838 4.61944 6.97035.78654 2.8847.73671 6.07529-.15928 8.92861z" fill="#d18bb8"/></g><g><path d="m40.06327 54.98788c-4.63936-.80047-10.38387-1.03182-13.84846 2.93764-1.69249 1.93718-2.52881 4.68512-2.21021 7.2963.23899 2.01121 1.11504 3.89595 1.34407 5.90665.37832 3.18031-.99558 6.52821-3.44472 8.41296-2.49891 1.9161-5.40598 2.49551-7.41706 5.08561-2.21015 2.85332-3.80311 6.11743-4.4104 9.78152-1.24447 7.57032 2.02105 14.95093 7.49673 19.66792-4.80866.03188-9.55758-3.20087-11.9569-8.19137-1.52326-3.15871-2.12058-6.85468-2.24005-10.49769-.1095-3.76897.30863-7.67571 1.90153-10.93931 2.62834-5.42287 9.28876-9.49722 14.21688-6.04391l.13939.15783c-3.47462-6.44338-4.20137-14.90877-.45799-21.18404s12.49449-9.10803 18.26882-4.89642c.96574.71617 1.83188 1.57937 2.61837 2.50631z" fill="#d3a7c6"/></g><g><path d="m47.60976 107.38017c1.94139 3.56949 3.00666 7.76003 2.33958 11.80302-.72675 4.32729-3.72345 8.36-7.77546 9.37074-1.74226.43185-3.57409.30539-5.30638-.14703-3.18586-.83183-6.09293-2.81117-8.15378-5.51746 3.46459.32646 7.21794.50537 10.39383-.61077 4.33074-1.51612 5.11722-6.10664 5.47568-10.39178.19907-2.26416 1.4535-3.76949 3.02653-4.50672z" fill="#ba70a3"/></g><g><path d="m75.99368 108.29631c-1.91149 6.07528-7.68589 10.81335-13.72905 10.37122-4.56967-.33726-8.61171-3.39058-11.58847-7.07574l-2.97677-4.25378c1.93142-.8632 4.28097-.58969 5.66484.82156.70682.0838 1.44354.34702 2.18026.88427 6.84958 4.88562 15.37172 2.28472 17.78106-6.31742.48782-1.76907 1.56306-2.85333 2.82741-3.3587.78654 2.88468.73671 6.07527-.15928 8.92859z" fill="#ba70a3"/></g><g><path d="m71.52355 92.39735h.00996c-.33852.32646-.67705.65292-1.03544.95831-3.53429 3.08469-8.19358.10539-8.67144-3.42194 3.4347.04216 6.87942.48429 9.69692 2.46363z" fill="#ba70a3"/></g><g><path d="m74.26139 75.1509c-.70688 5.46452-4.22124 10.10799-8.34294 13.47697l-4.14164.7794c-.01987-1.21074.47792-2.44307 1.68253-3.49597 4.66926-4.07435 7.24783-10.04475 6.07306-16.48814-.41818-2.28472.44797-4.11702 1.82187-5.25424 2.24004 3.11656 3.41487 7.09683 2.90712 10.98198z" fill="#ba70a3"/></g><g><path d="m52.77195 88.38316c-3.124-6.52821-10.13096-10.81489-16.86126-11.36859-.82659-.06837-1.54344.05193-2.15528.30846-.91847.12802-1.84417.54856-2.69622 1.35726-5.13187 4.87225-4.10779 12.84153-.92497 18.59651 3.23557 5.85113 10.51913 9.43552 16.79593 7.18371 6.27269-2.25027 8.73325-10.03498 5.8418-16.07735zm-9.30346 6.20535c-2.86684 1.28888-6.30804-3.62862-6.08691-6.74774 2.09913.62362 4.03706 2.11558 5.45362 3.78233.66203.77888 2.07902 2.31557.63329 2.96541z" fill="#ba70a3"/></g><g><path d="m49.40179 97.19866c-.82635 1.88474-2.39932 3.15871-4.06197 3.80084-.65705.24214-1.33404.39998-2.01103.47401-2.50887.26323-5.09735-.65292-7.14824-2.48471-2.60841-2.31659-4.34076-6.00175-4.89828-9.90799-.31853-2.2112-.2588-4.56944.51772-6.60173 1.89162-4.91698 6.75995-4.8959 10.32413-3.04305.93584.4843 1.80199 1.03183 2.60841 1.63232 3.12613 2.35824 5.15708 5.70666 5.39607 10.8447.0796 1.81123-.03986 3.69546-.72681 5.28561z" fill="#bcbec0"/></g><g><path d="m37.34536 89.59647c.0697 3.14843 2.59844 6.23362 4.55976 8.39187.98561 1.08427 1.4137 2.3166 1.42367 3.48518-2.50887.26323-5.09735-.65292-7.14824-2.48471-2.60841-2.31659-4.34076-6.00175-4.89828-9.90799-.31853-2.2112-.2588-4.56944.51772-6.60173 1.89162-4.91698 6.75995-4.8959 10.32413-3.04305.93584.4843 1.80199 1.03183 2.60841 1.63232-.39819.85239-1.10508 1.58964-2.19028 2.11609-2.60841 1.25288-5.26659 2.99007-5.19689 6.41202z" fill="#e6e7e8"/></g><g><g><path d="m102.11279 48.42766c-1.52144 4.28218-6.11755 7.62182-10.92758 7.31018-3.63721-.23772-6.85445-2.38986-9.2238-4.98736l-2.36935-2.99829s0 0-.00793 0l-.40414-.51204c.11884.17829.22978.35622.34074.54175 1.54524 2.51596 2.39314 5.46968 1.86218 8.31939-.57845 3.05011-2.96367 5.89257-6.18884 6.605-1.38675.3044-2.84479.21525-4.2236-.10364-2.53577-.58632-4.84964-1.98146-6.48997-3.889-.30112-.34135-.5785-.71243-.83208-1.09075-1.78296-2.6794-2.06822-6.61261.48341-8.67597l1.10144-2.79753c-1.75123 3.69586-5.50732 6.22632-9.4061 6.34518-.07129 0-.14263.00725-.21392.00725-3.82743.02246-7.60732-2.25615-9.51704-5.77371-1.21244-2.22643-1.68787-4.83154-1.78296-7.39933-.08715-2.65657.24565-5.41025 1.51351-7.71061 2.09202-3.82233 7.39335-6.69414 11.31587-4.26007l.11095.11125c-2.76561-4.54164-3.34406-10.5085-.36453-14.93164s9.94494-6.41983 14.541-3.45125c.76868.50479 1.45808 1.11321 2.08408 1.76658.26944.27432.52303.55661.7766.83853 2.79724 3.18382 5.07943 7.29532 4.07304 11.31007l.72906-3.01278c1.89387-4.80183 7.94801-7.78525 13.24934-6.54593 2.44068.57146 4.56438 2.00393 6.07789 3.88139 1.78296 2.19671 2.71807 5.00222 2.31392 7.74068-.56264 3.85168-3.35988 7.12465-6.64053 9.49929l-3.29652.54936-2.34555.38593c.78449-.01486 1.58485-.02971 2.38521-.01486 2.73383.02972 5.47565.34136 7.71822 1.7365h.00793c1.83839 1.15018 3.07457 2.924 3.67682 4.91307.62604 2.03329.58638 4.28218-.12677 6.29336z" fill="#d18bb8"/></g><g><path d="m73.51411 10.85305c-3.69269-.56422-8.265-.72729-11.02263 2.07061-1.34713 1.36543-2.01279 3.30232-1.75921 5.14282.19022 1.41761.88751 2.74607 1.06981 4.16332.30112 2.24165-.79243 4.60143-2.74181 5.9299-1.989 1.35057-4.30287 1.75897-5.90358 3.58461-1.75916 2.01118-3.02707 4.31189-3.51044 6.89454-.99053 5.33596 1.60865 10.53821 5.96699 13.863-3.82743.02246-7.60732-2.25615-9.51704-5.77371-1.21244-2.22643-1.68787-4.83154-1.78296-7.39933-.08715-2.65657.24565-5.41025 1.51351-7.71061 2.09202-3.82233 7.39335-6.69414 11.31587-4.26007l.11095.11125c-2.76561-4.54164-3.34406-10.5085-.36453-14.93164s9.94494-6.41983 14.541-3.45125c.76867.50477 1.45807 1.1132 2.08407 1.76656z" fill="#d3a7c6"/></g><g><path d="m79.52071 47.78191c1.54524 2.51596 2.39314 5.46968 1.86218 8.31939-.57845 3.05011-2.96367 5.89257-6.18884 6.605-1.38675.3044-2.84479.21525-4.2236-.10364-2.53577-.58632-4.84964-1.98146-6.48997-3.889 2.75763.23011 5.74509.35622 8.27293-.4305 3.44704-1.06864 4.07304-4.30428 4.35835-7.32468.15844-1.59589 1.15691-2.65692 2.40895-3.17657z" fill="#ba70a3"/></g><g><path d="m102.11279 48.42766c-1.52144 4.28218-6.11755 7.62182-10.92758 7.31018-3.63721-.23772-6.85445-2.38986-9.2238-4.98736l-2.36935-2.99829c1.53731-.60843 3.40742-.41564 4.5089.57907.56259.05907 1.14898.24461 1.73537.62329 5.4519 3.44364 12.23506 1.61039 14.15276-4.45286.38828-1.24693 1.24412-2.01118 2.25047-2.36739.62604 2.03329.58638 4.28218-.12677 6.29336z" fill="#ba70a3"/></g><g><path d="m98.5548 37.22123h.00793c-.26945.23011-.53889.46022-.82416.67546-2.8131 2.17425-6.52165.07429-6.902-2.41196 2.73384.02972 5.47566.34136 7.71823 1.7365z" fill="#ba70a3"/></g><g><path d="m100.73397 25.06501c-.56264 3.85168-3.35988 7.12465-6.64053 9.49929l-3.29652.54936c-.01582-.85339.38039-1.722 1.3392-2.46415 3.71648-2.87182 5.76888-7.08007 4.83382-11.62171-.33285-1.61039.35655-2.9019 1.4501-3.70347 1.78297 2.19672 2.71808 5.00222 2.31393 7.74068z" fill="#ba70a3"/></g><g><path d="m83.62954 34.39181c-2.48654-4.60143-8.0637-7.62291-13.42065-8.01319-.65792-.0482-1.22849.0366-1.71548.21742-.73105.09023-1.46786.38665-2.14604.95667-4.08469 3.43422-3.26958 9.05139-.73623 13.10781 2.57534 4.12418 8.37267 6.65066 13.36866 5.06346 4.9927-1.58611 6.95118-7.07318 4.64974-11.33217zm-7.40505 4.37386c-2.28185.90847-5.02086-2.55764-4.84486-4.75617 1.6708.43956 3.21328 1.49117 4.34078 2.66599.52695.549 1.6548 1.63214.50408 2.09018z" fill="#ba70a3"/></g><g><path d="m80.94707 40.60545c-.65773 1.32846-1.90973 2.22643-3.23312 2.67904-.52298.17068-1.06182.28193-1.60067.33411-1.99693.18554-4.05721-.46021-5.68961-1.75135-2.07615-1.63286-3.45501-4.23036-3.89877-6.98368-.25353-1.55857-.20599-3.22079.41208-4.65325 1.50562-3.46575 5.38055-3.45089 8.21745-2.1449.74488.34136 1.43429.72729 2.07615 1.15054 2.48823 1.66221 4.10476 4.02236 4.29498 7.64393.06338 1.27663-.03171 2.60473-.57849 3.72556z" fill="#bcbec0"/></g><g><path d="m71.35081 35.24701c.05547 2.21918 2.06821 4.39379 3.62932 5.91504.7845.76425 1.12524 1.63286 1.13316 2.45654-1.99693.18554-4.05721-.46021-5.68961-1.75135-2.07615-1.63286-3.45501-4.23036-3.89877-6.98368-.25353-1.55857-.20599-3.22079.41208-4.65325 1.50562-3.46575 5.38055-3.45089 8.21745-2.1449.74488.34136 1.43429.72729 2.07615 1.15054-.31694.60082-.87958 1.12046-1.74335 1.49153-2.07615.8831-4.19191 2.10757-4.13643 4.51953z" fill="#e6e7e8"/></g><g fill="#202020"><path d="m133.46008 82.89757c-.75592-2.03809-1.99823-3.96973-3.66418-5.47656-1.63831-1.50732-3.56091-2.54297-5.4848-3.16992-3.86572-1.27979-7.53705-.95215-9.96198-.30225-.99615.25684-1.79102.55859-2.39087.84326.50842-.60059 1.05261-1.59766 1.28003-2.95459.52844-2.8999-.76318-7.06543-4.06946-10.12696-3.24981-2.98521-8.14565-4.24232-12.54688-4.58838-2.2121-.16309-4.44714-.03418-6.50812.49316-2.07654.52539-3.8988 1.48633-5.28412 2.55811-2.53809 1.97461-4.11462 4.52198-4.77649 6.97364-.67358 2.47949-.42102 4.74219.07489 6.48145.19647.68115.43866 1.27832.69568 1.83496-.00262-.00098-.0047-.00195-.00732-.00293h-.01001c-1.27997-.44971-2.84998-.66992-4.52997-.46973.21997-1.82031.13-3.88037-.37-6.01025-.33002-1.35986-.90002-2.84961-1.73004-4.33008.42999-.01953.87-.06982 1.29004-.1499 1.60999-.31006 3-1.02979 4.00995-1.83008 1.88-1.46973 2.95001-3.31006 3.51001-5.02002.54999-1.75977.54004-3.2998.38-4.56982-.01001-.08984-.02997-.18018-.04999-.27002.19.2002.40002.41992.63.6499.78998.74023 1.83002 1.57031 3.16998 2.25 1.32001.68994 2.96002 1.20996 4.78003 1.29004 3.66998.18018 7.57996-1.65967 10-4.58984 1.20996-1.45996 2.10999-3.18994 2.5-4.93994.41998-1.72021.37-3.39014.10999-4.80029-.47003-2.57959-1.76001-4.68994-3.28998-6.09961-1.54004-1.39014-3.19-2.07031-4.56-2.41016.01996-.01025.04999-.02979.06995-.04004.93005-.6001 2.29004-1.6001 3.80005-3.66992.72998-1.05029 1.5-2.39014 1.95996-4.16992.46002-1.74023.56-4.04004-.21997-6.28027-.77002-2.46973-2.77002-5.31982-5.81-7.04004-1.5-.85986-3.25-1.43994-5.01001-1.56982-1.75-.14014-3.47003.1001-4.98999.6001-3.08002.98975-5.31 2.98975-6.40002 4.69971-.12.19043-.22998.37012-.32001.54004-.60096-2.43178-2.12514-4.88399-3.73999-6.7998-.58002-.68994-1.22998-1.43018-2.08997-2.18994-.83002-.75-1.94-1.5-3.22003-1.97998-2.77997-1.14014-6.73999-1.07031-10.13001.68994-1.70001.85986-3.31 2.08008-4.48999 3.68018-1.16998 1.60986-1.90997 3.3999-2.22003 5.17969-.63995 3.56006.24005 6.7002 1.21002 8.66016.32001.66992.65002 1.21973.96002 1.6499-.58002-.31006-1.42004-.56982-2.45001-.62012-2.56-.15967-6.14001 1.24023-8.53998 4.47021-1.21002 1.63965-1.91003 3.6499-2.24005 5.63965-.32996 2.02051-.34998 4-.14996 5.96045.20001 1.94971.70001 3.8999 1.53998 5.59961.85004 1.72998 2.03003 3.12012 3.23004 4.11035 2.16998 1.83984 4.62994 2.72998 6.83997 2.94971 2.22998.22998 4.16003-.25977 5.63-.88965.53003-.22021 1.01001-.47021 1.44-.74023-.16998 1.1499-.07001 2.47998.37 3.81006-1.81-.08984-3.59003.20996-5.17999.75-4.06 1.3501-6.83002 4.18994-8.17999 6.45996-.28003.48975-.51001.9502-.69 1.37012-.22998-1.2002-.63-2.56006-1.29004-4.07032-.71997-1.68994-1.76996-3.5498-3.19995-5.52002-1.16723-1.62708-2.67018-3.43518-4.26001-4.63965-.31-.26025-.70001-.47021-1.06-.70996-.35999-.25-.75-.4502-1.16003-.63037-1.77997-.85986-4.02997-1.32959-6.38-1.15967-2.35999.12988-4.76996.93994-6.92999 2.23975-2.17999 1.29004-4.07001 3.18018-5.39996 5.3999-1.33002 2.18018-2.04004 4.61035-2.36999 6.91016-.64001 4.64991.38 8.78028 1.50995 11.47998.51001 1.24023 1.04004 2.2002 1.48004 2.87012-.02002-.02002-.04004-.02979-.07001-.05029-.75-.50977-2.07001-1.00977-3.77002-1-3.40997-.00977-7.84998 2.4502-10.46997 6.91016-1.32001 2.22021-2.04999 4.82031-2.40002 7.3999-.35999 2.61035-.37 5.2002-.15997 7.72998.22998 2.54004.73999 5.04004 1.63995 7.28027.45001 1.10986 1.01001 2.16992 1.61005 3.12012.62.92969 1.27997 1.77979 1.97998 2.5 2.52002 2.63965 5.62 4.13965 8.5 4.56982 3.2703.50594 6.69241-.29124 9.70001-2.48975-.54004 2.46973-.28003 5.7998 1.44 8.90967 1.92999 3.6001 5.59998 6.75 9.84998 7.93018 2.09003.58984 4.38.73975 6.47003.17969 2.09998-.5498 3.76996-1.70996 4.94995-2.87988 2.16003-2.16016 3.27002-4.60986 3.81006-6.81982.52997-2.24023.47998-4.16992.27997-5.79004-.07001-.47021-.14001-.91016-.23999-1.33008.39001.52002.89996 1.12988 1.52002 1.77979 1 1.01025 2.31 2.14014 4.02997 3.07031 1.69.9502 3.84003 1.6499 6.22003 1.67969 1.18-.01953 2.38996-.16992 3.56995-.50977 1.16003-.3501 2.32001-.81982 3.37006-1.45996.58997-.3501 1.16998-.74023 1.70996-1.16992.63 1.16016 1.42999 2.21973 2.33002 3.16992 1.46002 1.52002 3.22998 2.71973 5.04999 3.41992 4.32677 1.745 9.31824 1.14437 12.53003-1.1499 1.94-1.31982 3.07996-3.06006 3.76996-4.52002.12-.27002.23999-.53027.33002-.79004 0-.00977 0-.00977 0-.00977.00049-.00146.00079-.00244.00128-.00391.09076.24463.20154.51416.34515.8252.56818 1.12598 1.5224 2.78516 3.62231 4.76221 1.06628.96045 2.42651 2.02393 4.28699 2.83545 1.81824.83789 4.26831 1.35303 6.89386 1.07715 2.87592-.2666 6.52502-1.70508 9.17078-4.67773 1.31793-1.4624 2.35571-3.29395 2.87689-5.24365.51569-1.94824.52374-3.94287.20557-5.74414-.63263-3.63916-2.61224-6.41943-4.35712-7.91455-.26825-.22705-.52441-.41943-.77319-.59521 1.0047-.05908 2.13788-.229 3.40643-.58252 1.53345-.43213 3.24634-1.10791 5.08295-2.11816 1.63074-.89079 3.16037-1.87485 4.44006-3.21143.47906-.55811.98212-1.13281 1.37262-1.81055.90167-1.45117 1.53546-3.32422 1.68719-5.34082.17119-2.0191-.16316-4.16559-.92818-6.20074zm-74.95361-33.04688c-1.07001.35986-2.35999.60986-3.82001.41016-2.96963-.38633-5.5491-2.3202-6.96002-4.90039-.63995-1.19971-1.10999-2.66992-1.37-4.28955-.51996-3.26025-.42999-6.9502 1.07001-9.51025.75-1.27979 1.82001-2.35986 2.94-3.10986 1.10999-.78027 2.28003-1.2002 3.28003-1.37012 1.77997-.2998 3.01001.22021 3.38995.1499.11005.06006.18005.08008.22003.05029.27002-.16016-.27002-1.36035-.70001-3.33008-.46002-1.93994-.73999-4.75.09003-7.47998.38995-1.3501 1.13-2.66992 2.04999-3.70996.91998-1.06006 2.16998-1.86035 3.45001-2.41992 2.59998-1.14014 5.35999-1 7.04999-.30029 1.53998.58008 2.70001 1.79004 3.77997 2.99023 1.05005 1.17969 1.82001 2.25977 2.41003 3.20996 1.16998 1.92969 1.52997 3.31006 1.77002 4.25977.21997.9502.31 1.5.5 1.82031.17999.32959.43994.41992.70996.48975.27002.07031.54004.12012.84003-.16992.29999-.28027.69-.91992.82996-2.27002.04004-.3999.04004-.87012-.00995-1.39014.31995-.35986.72998-.7998 1.23999-1.27002 1.28998-1.17969 3.39001-2.46973 5.91998-2.92969 1.25-.24023 2.58002-.27002 3.84003-.04004 1.26996.21973 2.44995.73975 3.47998 1.41992 2.08002 1.37988 3.38 3.45996 3.89001 5.10986.98999 3.04004-.07001 5.43994-1.02002 7.14014-1 1.69971-1.96997 2.77002-2.54999 3.54004-.73004.89013-.97003 1.40967-.98004 1.77978-.25995-.00977-.50995-.02002-.75-.02002-.93994-.00977-1.67999.06006-2.26996.14014-2.33002.35986-2.38.8999-2.38 1.45996 0 .57031.14001 1.0498 2.34998 1.41992 1.07001.22021 2.72003.3501 4.73004 1.01025 1 .33984 2.04999.86963 2.95996 1.73975.89001.89014 1.70001 2.20996 2.02002 3.93018.37 1.89014.10999 4.44971-1.54999 6.66992-1.60004 2.22021-4.38 3.85986-7.08002 4.04004-2.72998.22021-5.28003-.93018-6.96997-1.91992-.86005-.51025-1.55005-.97021-2.04004-1.28027-.41998-1.27002-.95001-2.11963-1.37-2.71973-1.33002-1.75-1.87-1.43994-2.32001-1.1499-.48999.31982-.76996.66992-.26001 2.41992.22003.87988.64001 2.1499.71002 3.94971.03003.88037-.06 1.92041-.42999 2.9502-.73151 2.02087-2.38988 3.70233-4.53003 4.22021-.91998.21973-2.06.22998-3.23999 0-.15997-.03027-.31-.06006-.46997-.09033-2.20001-.50977-4.39001-1.79004-5.84003-3.47998-.01001-.00977-.02002-.02979-.02997-.04004-1.55005-1.77002-2.04004-4.06982-1.80005-5.59961.02002-.11035.04004-.22021.06-.33008.75-.72021 1.27002-1.40039 1.62006-1.99023.72998-1.22998.84998-1.98975.81-2.41992-.05005-.43018-.29004-.56006-.54004-.68018-.25-.12988-.51001-.20996-.87-.04004-.35999.16016-.82001.59033-1.64002 1.33008-.82994.72021-2.06993 1.83007-4.21995 2.60009zm12.22998 63.37012c-.64996.67969-1.35999 1.27979-2.13 1.81006-1.59998 1.10986-3.42999 1.77979-5.23999 1.94971-1.79999.14014-3.59998-.21973-5.14996-.85986-3.24807-1.2698-5.79412-3.69847-6.97003-4.5498-.46002-1.47998-1.02997-2.54004-1.47998-3.32031-.75-1.22998-1.31-1.75-1.70001-1.95996-.40002-.19971-.64001-.08984-.88.06006-.25.14014-.46002.2998-.5.72998-.03998.41992.09998 1.1001.45001 2.31982.32001 1.22021.88 3.01025 1.07001 5.62012.06 1.30029.01996 2.83984-.42004 4.4502-.42999 1.60986-1.29999 3.41992-2.79999 4.8999-.81.81006-1.88 1.56006-3.14996 1.93018-1.26001.3999-2.84003.3999-4.47003.02979-3.27002-.70996-6.45001-2.97998-8.33002-5.79004-1.71777-2.45901-2.42047-5.6401-2-8.20996.07001-.43018.17004-.81006.28003-1.16016.84998-.92969 1.42999-1.77002 1.83002-2.50977.88995-1.60986 1.04999-2.56982 1.02997-3.1001-.01996-.52979-.26001-.66016-.51001-.77002-.25995-.10986-.52997-.18018-.92999.10986-.39996.29004-.92999.9502-1.94 2.11035-.5.56982-1.16998 1.23975-2.04999 1.97998-.88.71973-2 1.52002-3.46002 2.08984-1.44.58984-3.20996.9502-5.21997.6001-1.98999-.33984-4.26001-1.43018-6.19-3.4502-.53003-.54004-1.03998-1.18994-1.53998-1.90967-.46002-.72998-.92004-1.52002-1.30005-2.42041-.76996-1.77979-1.29999-3.8999-1.59998-6.1499-.56-4.52002-.47998-9.58008 1.37-13.36963 1.83002-3.80029 5.35004-6.29004 8.07001-6.69043 1.35998-.22998 2.51001-.05957 3.28998.16992.62.18018 1.04004.33008 1.23004.32031.12.1001.19995.12988.23999.10986.27997-.1499-.42999-1.77002-1.03003-4.47998-.62-2.67969-1.08997-6.54004-.17999-10.5.45001-1.9502 1.20001-3.93994 2.38-5.6001 1.14001-1.6499 2.67999-3.0498 4.41998-3.95996 1.73004-.91992 3.59003-1.46973 5.29004-1.50977 1.70001-.07031 3.21997.29004 4.39996.85986 2.14001.95996 3.67004 2.9502 5.03003 4.68018 1.32001 1.72998 2.29999 3.31982 3 4.72998 1.41998 2.81983 1.83002 4.87012 2.07001 6.25977.20996 1.39014.26996 2.16016.44 2.58984.16998.44043.42999.53027.70001.59033.27997.06006.53998.1001.85999-.30029.31-.38965.72998-1.22998.88-2.96973.03998-.53027.03998-1.16016-.01001-1.87012v-.00977c.39001-.57031.95001-1.37012 1.71997-2.25 1.59003-1.77002 4.28003-3.8501 7.69-4.63037 1.69-.38965 3.51001-.45996 5.21002-.0498.53998.12012 1.06.29004 1.57001.48975 1.22998 1.33008 2.77997 2.43018 4.47998 3.18018 1.82001 2.03028 2.91003 4.4502 3.40002 6.41993.57996 2.43994.44 4.59033-.01001 6.43018-.39001 1.56982-1 2.91016-1.56 4.02979-1.31 2.43018-2.56 3.93018-3.35004 4.99023-1.45996 1.8501-1.50995 2.37988-1.23999 2.7998-.28998-.02979-.57001-.04004-.83997-.06006-.14001-.00977-.28003-.00977-.41003-.00977-1.04999-.04004-1.88996.02002-2.57001.08008-3.07996.3501-3.14996.91016-3.14996 1.45996 0 .58008.16998 1.04004 3.08997 1.41992.85004.14014 1.98004.25 3.32001.53027.90002.18994 1.88.44971 2.94.86963 1.31.54004 2.67999 1.34033 3.82001 2.76025.78003.91992 1.47003 2.12988 1.94 3.56982.23999.7002.42999 1.4502.56 2.26025 0 .02979.01001.0498.01001.07959.15002.93994.21002 2 .14001 3.11035v.00977c-.14213 2.35859-.81569 4.60294-2.07001 6.55029-.51002.84963-1.13002 1.64992-1.84004 2.3799zm59.6778-24.47705c-.15759 1.42432-.61151 2.64111-1.1814 3.56055-.96985 1.66895-2.70435 2.72705-4.30585 3.68262-1.58173.92822-3.0069 1.56396-4.24457 2.01172-2.48859.88086-4.20593.979-5.3728 1.02686-1.16815.02051-1.81604-.00928-2.21185.10986-.3974.11523-.53229.35107-.63885.61084-.10657.26025-.19135.51416.08557.875.27673.35205.92523.86475 2.39246 1.25977.45728.11621 1.01208.20947 1.64075.2627.39294.42383.90002.97559 1.43921 1.69873 1.20551 1.62891 2.48315 4.21191 2.65497 7.18701.09155 1.4707-.07709 3.00586-.57837 4.40137-.50739 1.38867-1.34235 2.63428-2.37115 3.64795-2.06177 2.05811-4.8111 3.0249-6.87134 3.20801-3.82062.37891-6.49298-1.32861-8.3136-2.71143-1.82086-1.45361-2.89703-2.72852-3.68494-3.53516-1.09003-1.18945-1.62592-1.48047-2.02875-1.44922.00073-.00293.00201-.00684.00275-.01025.06-.25977.10999-.50977.14996-.75.19-1.0498.25-1.89014.27002-2.56006.03003-2.67969-.5-2.81982-1.04999-2.8999-.56-.08008-1.04999 0-1.78998 2.43018-.41003 1.17969-.81006 3.02002-1.96002 5.1499-.60004 1.02979-1.39001 2.10986-2.65002 2.90967-1.23999.83008-3.01001 1.39014-5.08997 1.39014-2.28003.01025-5.27002-.77979-7.62-3.02002-.92999-.84961-1.73004-1.88965-2.36005-3.02002.36005-.41992.69-.85986.99005-1.31006 1.37994-1.96973 2.27997-4.21973 2.69-6.37988.43994-2.1499.37994-4.19971.12994-5.95996-.04999-.31982-.10999-.62988-.17999-.93994.23999-.25.46002-.45996.63-.64014 1.39001-.20996 2.41003-.58984 3.14001-.8999 1.13-.50977 1.63-.95996 1.84003-1.2998.20996-.3501.12-.6001.00995-.86035-.20996-.5498-.50995-.86963-2.62-.60986-1.01001.08984-2.46997.2998-4.46997.10986-.52002-1.02979-1.15002-1.94971-1.85004-2.73975-1.42469-1.69612-3.4482-3.012-5.56-3.7002-.29999-.09961-.59998-.18994-.88995-.27002-.01001-.08984-.03003-.17969-.04004-.27979-.01996-.18018-.03998-.37012-.04999-.57031.17999-.11963.37-.25.57001-.40967 1.15002-.8999 2.81-2.35986 4.57001-5.16016.71997-1.19971 1.47998-2.6499 2.01001-4.43994 2.15997-.8501 4.44995-.77979 5.95996-.25977.21002.06982.41003.1499.60004.22998.00269.00146.00488.00244.00757.00391.71216.94482 1.38794 1.63184 1.99396 2.10938 1.25415.99951 2.06366 1.27246 2.53613 1.31104.47516.03613.64087-.1748.79602-.40918s.27362-.47852.11322-.88965c-.15759-.40869-.60529-.97803-1.38135-2.02002-.73492-1.04395-1.90338-2.63184-2.50946-5.23145-.27148-1.29346-.36273-2.81641.12805-4.45557.48737-1.63623 1.59802-3.41406 3.42859-4.84278 1.008-.77393 2.28931-1.48682 3.83087-1.92822 1.55261-.44775 3.36945-.64453 5.28809-.59814 3.85352.11328 8.07672.90479 10.87994 3.04688 2.82599 2.14991 4.35529 5.46875 4.3399 7.79493.05249 2.15771-.88049 3.42578-.8598 3.80615-.08301.08691-.13202.16162-.11401.20459.10809.29639 1.57233-.09131 3.91516-.2085 2.3147-.14844 5.59491.03564 8.68219 1.42627 1.53455.67188 3.00861 1.66016 4.15564 2.89697 1.14984 1.20654 1.99902 2.729 2.4826 4.30371.49331 1.56834.66829 3.18211.49447 4.60252z"/><path d="m108.0741 85.39513c-.91199-.93408-1.98535-1.58301-3.07953-2.02637-2.20459-.87793-4.3783-1.01465-6.35248-.89502-1.98712.13379-3.81329.61768-5.32648 1.30322-2.77368 1.21826-4.88672 3.37061-5.87604 5.63867-1.03741 2.26904-1.06171 4.58301-.565 6.37793.50275 1.81396 1.49335 3.15967 2.53241 4.01416 1.05597.86816 2.07983 1.22412 2.84308 1.4082 1.55518.33545 2.32489.15674 2.74017-.01172.41235-.18994.46625-.45605.50006-.73438.03406-.27979.0332-.54736-.28027-.83545-.30017-.29883-.96204-.58008-1.97656-1.125-.50098-.28125-1.04926-.6333-1.53522-1.18213-1.33855-1.5004-1.75459-3.9517-.64386-6.22266.66522-1.38574 1.93878-2.71973 3.93835-3.61621 2.81317-1.27693 6.36136-1.40576 8.66187-.61475 1.47498.50732 2.62823 1.44287 2.96277 2.74463.3902 1.31396.0105 3.0415-.77985 4.43457-.84058 1.47119-1.92004 2.78418-3.04169 3.70654-1.13483.93115-2.36053 1.50098-3.46649 1.82764-2.22876.64063-3.8161.56055-3.83905.88281-.03638.22412 1.46417.8833 4.13593.67432 1.32288-.11768 2.93127-.56299 4.479-1.52197 1.5495-.96924 2.96088-2.33594 4.16815-4.0332 1.20697-1.75977 2.12311-4.09619 1.63666-6.7207-.23974-1.28954-.9154-2.55272-1.83593-3.47313z"/><path d="m50.12646 91.92052c.21997 0 .63-1.84961-.07001-4.85986-.37-1.47998-1.10999-3.23975-2.42999-4.87012-1.31-1.6499-3.09998-3.06982-5.21002-4.20996-1.10999-.58008-2.33997-1.00977-3.67999-1.20996-1.33997-.17969-2.82001-.08984-4.22998.45996-1.41998.53027-2.66003 1.6001-3.47003 2.82031-.81995 1.21973-1.29999 2.54004-1.56995 3.84961-.52002 2.62012-.28003 5.09033.19 7.30029.48999 2.21973 1.31995 4.19971 2.29999 5.81982 1.76001 2.9502 4.40997 5.08984 7.13995 5.93018 2.72003.8999 5.40002.54004 7.34003-.37988 1.97003-.92041 3.26001-2.34033 3.97998-3.68018.73004-1.35986.91003-2.5498.97003-3.43994.08997-1.80029-.22003-2.6499-.45001-3.09033-.26001-.43994-.52997-.45996-.81-.43994zm-.78003.47998c-.23999.41016-.39996 1.23047-.79999 2.57031-.20996.66016-.47998 1.42969-1.01996 2.16992-.53003.74023-1.37 1.50977-2.60004 2-1.21997.46973-2.82001.64014-4.58002.02002-1.75-.58984-3.52997-1.97998-4.90997-4.26025-.76001-1.23975-1.45001-2.80957-1.89001-4.60986-.44-1.79004-.67999-3.83008-.38995-5.70996.29999-1.89014 1.17999-3.58008 2.65997-4.23975 1.48999-.73047 3.59998-.51025 5.35999.23975 1.85004.81006 3.53003 1.89014 4.75 3.12012 1.25 1.22998 2.07001 2.62012 2.63 3.87012 1.06 2.52002 1.23999 4.34961 1.56 4.34961-.27997.01024-.53998.0703-.77002.47997z"/><path d="m66.93646 41.12071c1.56 2.20996 3.81 3.64014 5.90002 4.16992 2.12.55029 4.10999.31982 5.63995-.29004 1.55005-.60986 2.67004-1.60986 3.35004-2.62988.69-1.04004.89996-2.04004.95996-2.73975.08002-1.4502-.22998-2.09033-.45996-2.43018-.25-.33008-.52002-.33008-.79999-.31982.22998 0 .63-1.40039.00995-3.69043-.31-1.13965-.97998-2.45996-2.06995-3.62988-1.10004-1.17969-2.5-2.16992-4.14001-2.95996-1.71002-.77979-3.79999-1.27979-6.06-.64014-1.10999.32031-2.21002 1.01025-2.98004 1.92041-.77997.91992-1.25995 1.96973-1.52997 3.01953-.52002 2.11035-.29999 4.06006.12 5.78027.44001 1.71973 1.19001 3.23975 2.06 4.43995zm1.47003-9.37012c.12-.60986.34998-1.16992.65997-1.60986.31-.43018.71997-.75 1.26001-.97021 1.07001-.45996 2.59998-.34961 3.90997.09033 1.38.47998 2.67999 1.17969 3.67004 1.94971.97998.79004 1.69995 1.70019 2.15997 2.57031.94 1.72998 1.14001 3.1001 1.45001 3.1001-.28003.00977-.54004.05957-.77002.36963-.25.29004-.41998.8999-.77997 1.78027-.19.43994-.42004.88965-.83002 1.31006-.41003.41992-1.04004.85986-1.92999 1.12988-.89001.27002-2.03003.3501-3.29999-.03027-1.27002-.36963-2.59003-1.19971-3.67004-2.69971-1.52698-2.09666-2.20185-5.01754-1.82994-6.99024z"/></g></g></g></svg>