<svg id="Layer_1" enable-background="new 0 0 136 136" height="512" viewBox="0 0 136 136" width="512" xmlns="http://www.w3.org/2000/svg"><g><g><path d="m56.44835 94.44504c-.25 1.79004-.79999 3.62988-1.62 5.35986-1.52002 3.30005-4.01001 6.20996-7.25 7.58008-5.88 2.48999-12.09998 3.37988-18.47003 2.94995-5.75995-.37988-11.37-1.67993-16.91998-3.22998-.95001-.26001-1.90997-.53003-2.85999-.80005-.95001-.27979-1.90002-.5498-2.84998-.82983-1.38-.40015-2.93005-.94995-3.45001-2.21997-.58002-1.43018.45996-2.9502 1.45001-4.17017 4.12994-5.09009 8.38995-10.27002 13.82996-14.07983 5.46002-3.82007 11.67999-5.97021 18.29999-6.51025.44-.03979.87006-.06982 1.31006-.08984 4.69995-.21997 9.73999.15991 13.48999 2.95996 3.96997 2.94994 5.70996 8.23998 5.03998 13.08007z" fill="#ec008c"/></g><g><path d="m132.04832 99.78488c.14001 2.15015-2.42999 3.43018-4.59998 4.08008-9.58002 2.87988-19.59998 4.34009-29.60999 4.36011-2.27002.01001-4.57001.08984-6.77002-.16016-2.19-.25-4.29999-.83984-6.21002-2.18994-3.14996-2.22998-5.48999-5.59009-6.37994-9.31006-.04004-.1499-.07001-.30005-.10004-.44995-.33002-1.58984-.39996-3.27002.16003-4.80005.66998-1.80005 2.13-3.18994 3.63995-4.38989 2.88-2.27002 6.12-4.08008 9.51001-5.51001 2.12-.90015 4.33002-1.67017 6.63-1.90991 3.10999-.33008 6.22998.30981 9.28998.93994 4.30005.88989 7.45001 4.03003 10.77002 6.66992 3.15002 2.51001 6.26001 5.07007 9.33002 7.66016.72998.61987 1.45001 1.23975 2.17999 1.85986 1.01003.87012 2.08004 1.87012 2.15999 3.1499z" fill="#ec008c"/></g><g><path d="m54.82835 99.8049c-1.52002 3.30005-4.01001 6.20996-7.25 7.58008-5.88 2.48999-12.09998 3.37988-18.47003 2.94995-5.75995-.37988-11.37-1.67993-16.91998-3.22998-1.20996-3.78003 2.85004-8.62988 7.22003-6.01001 9.45996 5.66992 23.13995 1.71997 32.94995-1.16992.91004-.27002 1.73004-.29004 2.47003-.12012z" fill="#dd0791"/></g><g><path d="m132.04832 99.78488c.14001 2.15015-2.42999 3.43018-4.59998 4.08008-9.58002 2.87988-19.59998 4.34009-29.60999 4.36011-2.27002.01001-4.57001.08984-6.77002-.16016-3.72998-2.96997-6.64001-7.26978-9.58997-10.83984-4.06-4.92993 2.97998-12.04004 7.06995-7.07007 2.55005 3.08984 4.99005 6.60986 7.94 9.33008 3.08002 2.82983 6.69 3.08984 10.65002 2.27979 4.07001-.82983 8.06-2.36987 12.01001-3.6499 2.41998-.79004 6.64996-1.31982 8.56-3.33984.72998.61987 1.45001 1.23975 2.17999 1.85986 1.01003.87011 2.08004 1.87011 2.15999 3.14989z" fill="#dd0791"/></g><g><path d="m87.45836 109.93503c-1.63 5.32007-4.66998 10.29004-8.78998 14.40991-.39001.3999-.80005.79004-1.22003 1.16992-.90997.83008-1.90002 1.64014-3.14001 1.97998-2.33997.64014-4.76996-.5498-6.85999-1.69971-4.90997-2.72021-9.88-5.47021-13.88-9.2002-4-3.71997-6.98999-8.58984-7.02002-13.75-.03998-5.08984 3.31-10.3501 8.67004-12.02002.07996-.02002.14996-.0498.22998-.06982l23.62-.08008c4.13 3.58008 8.5 7.56982 9.19 12.66992.28997 2.20997-.14002 4.43995-.79999 6.5901z" fill="#ec008c"/></g><g><path d="m52.36833 87.99484v.02002c-7.87-2.5498-16.13-5.35986-21.48999-11.34985-1.51001-1.69995-2.75-3.6001-3.77997-5.6001-.58002-1.10986-1.10004-2.26001-1.57001-3.40991-6.73999-16.41015-4.90002-34.67993-2-52.12011.13-.75.25-1.48975.38-2.22998.02997 0 .31.11011.77997.29004 1.97003.76001 7.16003 2.87012 9.79004 3.98999.76996.33008 1.31995.58008 1.50995.67993 3.90002 2.14014 7.49005 5 10.80005 7.96021 1.25995 1.12988 2.5 2.33984 3.50995 3.68994.58002.80005 1.08002 1.6499 1.46002 2.56006v.15991l.16003 14.10986v.01025z" fill="#ffcade"/></g><g><path d="m96.09837 69.07492-.01001.01001c-.79004 6.08008-3.23999 11.86011-7.58002 16.17993-.91998.92017-1.91998 1.77002-3.01001 2.54004-.76996.55005-1.54999 1.03003-2.35999 1.45996h-.01001c-2.08997 1.13013-4.27997 1.88013-6.53998 2.33008-.01001 0-.02002.01001-.03003.01001-5.57996 1.12012-11.53998.44019-17.16998-.86987-1.44-.33008-2.87-.7002-4.21997-1.28003-.97003-.42017-1.91003-.90991-2.80005-1.46021-.32001-.19971-.63995-.3999-.94995-.60986-6.5-4.45996-10.75-12.18994-11.74005-19.75-.14996-1.17993-.23999-2.3501-.25-3.52002-.14996-9.33984 3.85004-18.52002 9.01001-26.58984 1.06-1.66016 2.17999-3.28027 3.32001-4.89014 5.12-7.20996 10.85999-14.04004 15.42999-21.56006 1.42999 1.87012 2.85004 3.73999 4.28003 5.61011 2.01001 2.62988 4.02997 5.27002 6.03998 7.90991 1.98999 2.6001 3.98999 5.21997 5.90002 7.89014 5.14996 7.18994 9.71997 14.72998 11.85999 23.10986 1.10999 4.3501 1.41999 8.98999.83002 13.47998z" fill="#ffcade"/></g><g><path d="m114.74073 53.07386c-1.08202 6.62603-3.84506 13.13386-8.00888 18.61595-1.12063 1.48914-2.35725 2.89909-3.68078 4.2202-.31876.30573-.63759.61145-.95641.9073-.32844.30573-.65693.59147-.99503.88732-.3285.28599-.67628.5621-1.01444.83821-.59896.50264-1.21722.96629-1.85486 1.40994-2.6664 1.88322-5.60328 3.43134-8.79134 4.53555l-.01934-.24651-.88879-9.32771-4.03822-42.71424-.16428-1.74527c.34783-.43379.69561-.85795 1.05305-1.28188.34778-.41429.69556-.81847 1.05306-1.22266 1.07233-1.23252 2.19297-2.43544 3.34261-3.60899 1.14964-1.17331 2.33791-2.30713 3.55518-3.42122.82121-.73952 1.65202-1.4694 2.49252-2.17931.42508-.3647.85016-.71978 1.2849-1.05511 2.14468-1.73517 4.386-3.37211 6.7143-4.91036.72456-.47327 1.68098-.95641 2.44416-.52238.37679.2169.57963.61121.76318.98602.78252 1.6071 1.52643 3.23394 2.22204 4.88075 2.87891 6.76397 4.99464 13.85364 5.78683 21.01192.51202 4.6345.46372 9.30823-.29946 13.94248z" fill="#ffcade"/></g><g><path d="m28.73833 40.78489c-.75 8.08008-1.76996 17.11011.28003 25.05005.60999 2.34009-.37 4.17993-1.91998 5.22998-.58002-1.10986-1.10004-2.26001-1.57001-3.40991-6.73999-16.41015-4.90002-34.67993-2-52.12011.34998-.66992.72998-1.31982 1.15997-1.93994 1.97003.76001 7.16003 2.87012 9.79004 3.98999-2.81 2.46021-3.23004 6.11011-3.88 9.61011-.82001 4.49998-1.44001 9.03001-1.86005 13.58983z" fill="#f7d5e3"/></g><g><path d="m71.46837 16.68503c-4.60004 6.21997-8.95001 12.61011-13.09003 19.1499-2.23999 3.54004-4.60999 7.13013-6.45996 10.90991v.01025c-2.27002 4.60986-3.77002 9.48975-3.36005 14.81982.42004 5.41992-6.60999 6.23999-9.13 2.54004-.14996-9.33984 3.85004-18.52002 9.01001-26.58984 1.06-1.66016 2.17999-3.28027 3.32001-4.89014 5.12-7.20996 10.85999-14.04004 15.42999-21.56006 1.42999 1.87013 2.85004 3.74 4.28003 5.61012z" fill="#f7d5e3"/></g><g><path d="m109.12834 18.10495c-.02997.03003-.06.07007-.08997.1001-4.84003 5.03979-10.87 8.84985-16.23004 13.8999-3.25 3.07007-7.65997.6001-8.47998-2.67993v-.01001c.35999-.42017.71997-.83008 1.09003-1.23999 1.10999-1.25 2.26996-2.46997 3.45996-3.66016 1.17999-1.18994 2.41003-2.34985 3.67999-3.46973.84003-.76025 1.70001-1.5 2.58002-2.21021.44-.36987.88-.72998 1.33002-1.07007 2.25-1.79981 4.59998-3.48975 7.03998-5.06983.75-.47998 1.73999-.96997 2.53003-.53003.38995.21997.59998.61987.78998 1 .80999 1.63015 1.58001 3.27004 2.29998 4.93996z" fill="#f7d5e3"/></g><g><path d="m114.80833 53.56491c-1.12 6.71997-3.97998 13.32006-8.28998 18.88012-4.2151 5.4375-10.36181 8.79153-15.94283 12.64803-.77755.53728-1.55952 1.07715-2.4146 1.47978-1.82188.85789-3.41031 1.69205-5.10837 2.6711-1.46994.84752-4.67341 2.25729-6.37427 2.26115-.00993.00002-.01994.00977-.02993.00977-5.58002 1.12012-11.54004.44019-17.16998-.86987-1.44-.33008-2.87006-.69995-4.22003-1.28003-1.32001-.56982-2.57001-1.27002-3.75-2.06982.69-1.56006 2.14001-2.75 4.37-2.76025 11.23999-.02979 22.33002-2.83984 31.79999-8.81982 1.48004-.91992 2.92004-1.93018 4.31-3.02002 1.49005-1.16992 2.89001-2.3999 4.20001-3.70996 7.48999-7.42016 12.04004-16.72998 16.07001-26.65014.59998-1.46997 1.65002-2.40991 2.85999-2.90991.53002 4.69993.48003 9.43992-.31001 14.13987z" fill="#efb6cd"/></g><g><path d="m35.21547 83.63317c-.38824.29203-.84869.5651-1.31261.83086-3.21991 1.84453-6.51587 3.5275-9.64514 5.53175-5.92464 3.79464-12.59879 8.95504-13.95939 16.30913-.94995-.27979-1.89996-.5498-2.84998-.82983-1.38-.40015-2.92999-.94995-3.45001-2.21997-.57996-1.43018.46002-2.9502 1.45001-4.17017 4.13-5.09008 8.39001-10.27 13.83-14.07982 3.44206-2.41059 7.40267-4.18212 11.34264-5.6001 2.35146-.84629 7.831 1.79366 4.59448 4.22815z" fill="#ef0a9d"/></g><g><path d="m78.66838 124.34494c-.39001.3999-.80005.79004-1.22003 1.16992-.90997.83008-1.90002 1.64014-3.14001 1.97998-2.33997.64014-4.76996-.5498-6.85999-1.69971-4.90997-2.72021-9.88-5.47021-13.88-9.2002-4-3.71997-6.98999-8.58984-7.02002-13.75-.03998-5.08984 3.31-10.3501 8.67004-12.02002 1.41998 1.43994 2.13995 3.63013 1.04999 5.93994-6.21003 13.15016 11.71002 23.64015 22.40002 27.58009z" fill="#ef0a9d"/></g><path d="m133.12421 97.01951c-.42004-.69336-.86804-1.24927-1.31195-1.76343-.89722-1.02515-1.75879-1.82349-2.57397-2.57788-7.55759-6.88525-16.00761-14.06352-25.5661-14.34399 3.37383-3.09709 6.14319-6.69331 8.30121-10.60962 8.22078-14.89959 6.44511-31.68302-.07678-47.32715-.38123-.95923-.81635-1.88965-1.22363-2.82813-1.66383-3.41104-1.11898-2.29714-2.00409-4.09863-.25446-.47046-.33453-.7876-.86444-1.63745-.46112-.69604-1.19043-1.1792-2-1.27466-.79822-.12036-1.63733.13159-2.33972.50171-.55794.29499-.96352.6082-1.34155.86206-1.01334.71659-1.88544 1.32165-3.4173 2.50342-1.4693 1.1311-2.79211 2.2456-4.07983 3.36035-2.54266 2.22217-4.63568 4.41821-6.38849 6.25342-1.64478 1.94336-3.00061 3.47705-3.81134 4.64893-.21429.29956-.39673.56665-.5498.80176-2.90766-3.98125-7.36751-9.78182-16.73883-22.02466-.40643.5498-.80792 1.26001-1.21552 1.8877-1.82486 2.91452-2.6602 4.24811-4.85382 7.36865-3.09229 4.39404-6.65582 8.9375-10.13428 13.84326.00873-.12476-.00061-.27197-.06122-.48364-.18335-.60986-.69324-1.68408-2.06921-3.4585-2.65371-3.38477-6.74094-7.02588-11.09894-9.27759-2.61835-1.33652-6.0328-2.96034-8.70984-4.1709-1.92498-.8574-1.55451-.70016-3.31165-1.42212-.44293-.1709-.8963-.34277-1.3175-.41797-.42035-.07349-.79224-.04175-1.09137.06543-.07953.02002-.14105.07153-.1955.1394l-.08649.10522-.02393.02954c.05188.11255-.09827-.11987-.08923-.08594-.20912.30485.13852-.20164-.95599 1.39355-.21405 1.26392-.4339 2.56201-.65967 3.89526-2.97174 18.52754-4.43894 40.67093 5.55872 56.65161 1.1275 1.79932 2.44196 3.4624 3.90912 4.85522.0708.06836.14453.12891.21582.19604-1.00677.29346-2.43146.82568-4.13092 1.65601-3.3551 1.63257-7.74182 4.35352-12.21466 7.85352-2.23999 1.74634-4.5105 3.67554-6.68774 5.77075-1.08356 1.05518-2.1571 2.13306-3.17023 3.28735-.50458.57349-1.01752 1.12964-1.52502 1.85303-.48914.71606-1.00928 1.55273-1.21118 2.74487-.0954.58911-.06934 1.27295.12677 1.90356.18689.63062.54175 1.20776.94659 1.64722.82751.88306 1.71484 1.28589 2.48297 1.60474.78943.31274 1.47742.49878 2.10876.69653.64856.19653 1.28711.39014 1.914.58008 5.64428 1.69244 11.36533 3.20053 17.24268 3.85718 3.08069.31982 5.64368.4043 7.96399.3562 2.30829-.05225 4.33105-.37842 5.9389-.85864 1.60962-.4873 2.82507-1.04785 3.74817-1.5542.68158-.37378 1.22009-.70679 1.64972-1.00269.2774.63647.5824 1.26489.93414 1.87134 1.75421 3.10034 4.36792 5.81226 7.23828 8.04736 2.87537 2.25293 6.0036 4.10278 9.03314 5.78174 1.54565.84351 2.94427 1.62793 4.54034 2.42822 1.59308.76074 3.41278 1.48048 5.50677 1.42774 1.0257-.02393 2.10577-.28271 2.99194-.7151.89343-.42212 1.61371-.95215 2.22803-1.44897 1.17822-.98413 2.19653-1.92896 3.12054-2.89038 3.34595-3.49121 5.63782-7.16553 7.09723-10.61597.63501-1.51416 1.12994-2.94995 1.49066-4.38965 3.47253.6062 10.26074 1.22144 18.12476.63867 5.72333-.38452 11.95734-1.40771 17.71527-2.92017.73108-.20068 1.40387-.36841 2.16626-.59399.77295-.2356 1.53766-.52954 2.2973-.92407.75494-.39941 1.52374-.88501 2.21869-1.6709.3468-.37769.65936-.86987.88794-1.41138.22186-.55396.33984-1.17285.32355-1.76074-.04834-1.2839-.52393-2.12276-.92053-2.80953zm-48.07483-67.79688c.99902-.98438 2.52917-2.32861 4.31293-4.06616 1.89227-1.63013 4.09784-3.61279 6.70374-5.60645 2.20841-1.67432 3.95419-2.94092 6.42969-4.53784.38855-.24634.77997-.49414 1.17395-.7439.37032-.22349.7178-.46406 1.09247-.63721.2641-.13428.59778-.1001.69739.17651 1.30106 2.97172.6759 1.5467 2.21606 5.05225.35803.9231.74634 1.8396 1.07928 2.77612 8.77806 23.39897 4.43582 40.72368-6.07922 52.4375-3.91254 4.27881-7.2193 6.39038-9.46619 7.80859-.13019.07959-.24548.14868-.36902.22363.3139-.43628.63324-.90259.95856-1.41211 10.2144-16.46062 1.80757-35.04885-9.56311-50.71021.23119-.20969.49944-.46116.81347-.76072zm-59.57538-13.06225c.02594-.15723.02081-.13257.02081-.13257l-.00098-.00293-.00183-.00732c-.00702-.02368.00427-.02954.02411-.02539.01404.00415-.01196-.00854.03961.01147 1.63133.67771 2.47489 1.06203 6.49622 2.83911 14.59598 6.66162 13.82929 9.7439 17.66382 12.09912.43335.27441.66144.24829.84473.14819-.58759.83472-1.17273 1.67773-1.75153 2.53516-8.8895 13.11621-14.65964 28.4402-8.01129 42.75513 1.56525 3.3374 3.69574 6.30444 6.20801 8.70239.28394.27148.57385.53369.86664.79053-.98492-.41968-2.10504-.8999-3.33942-1.44434-2.39203-1.08765-5.21606-2.45288-7.98254-4.42188-17.07392-12.0257-14.37766-43.25913-11.07636-63.84667zm61.20355 90.81103c-.3252 1.31934-.85596 2.79614-1.51624 4.29932-1.33014 3.01587-3.38 6.25806-6.37189 9.38184-.81274.84888-1.76538 1.73633-2.75366 2.58057-.48108.39941-.94641.73242-1.39764.95166-.44971.22485-.87866.32959-1.40027.35986-1.02759.06421-2.33167-.3291-3.70331-.95874-1.36707-.64282-2.94299-1.46338-4.43036-2.21948-3.01392-1.55273-6.04303-3.20996-8.77197-5.17114-2.73096-1.94922-5.13171-4.23706-6.80414-6.83911-1.68628-2.56519-2.56622-5.45752-2.37152-8.03101.1817-2.59351 1.3302-4.83789 2.60754-6.4104 1.29071-1.59448 2.71637-2.55371 3.7326-3.14746.51099-.30078.9231-.51831 1.20679-.66821.27942-.16138.4212-.27954.40271-.34741s-.19714-.0835-.52789-.0498c-.33478.02271-.81268.11938-1.41431.31519-1.19366.38452-2.91119 1.19604-4.56921 2.82739-1.63556 1.61133-3.22961 4.06934-3.70129 7.22876-.27551 1.80566-.09674 3.73315.42786 5.6272-.52417.15601-1.16772.36523-1.98071.63306-1.85962.59399-4.40356 1.4209-8.57062 1.30493-2.08142-.052-4.63867-.21655-7.46588-.56494-2.85297-.37231-6.09479-.9917-9.7785-1.91211-2.95642-.73531-6.02909-1.59343-8.7486-2.35034-.66327-.18726-1.30505-.35083-1.81305-.53882-.51831-.18311-.92981-.42139-1.08179-.58081-.14191-.16455-.164-.17334-.16083-.41064.01404-.24634.21014-.7251.53326-1.2168.31061-.49316.76947-1.0459 1.21777-1.59766.88678-1.10303 1.8598-2.1748 2.84174-3.23071 4.68246-4.97747 11.20326-10.58873 17.28626-14.6221 1.71594-1.14209 3.09735-1.93652 3.96698-2.4707 1.20862 1.06348 2.46869 1.97876 3.72235 2.7605 3.09973 1.92651 6.1217 3.11328 8.65784 3.99878 2.68292.90039 4.84241 1.49951 6.30548 1.83398 1.62598 1.13599 3.33313 2.07275 5.0639 2.7915 2.94598 1.21851 5.90173 1.81055 8.64545 2.12256 2.76202.29907 5.28131.37231 7.65289.29004 3.02838-.14966 5.60999-.7644 7.68231-1.50977.03369.09106.06873.18311.13489.29858.33148.59961 1.17554 1.53467 2.74677 3.2334.76837.8562 1.73706 1.90234 2.6991 3.27539.9469 1.3667 1.9223 3.08594 2.1355 5.17725.10205 1.042-.0138 2.23389-.33631 3.5564zm43.17206-6.55005c-.19702.25342-.5965.56006-1.07422.82373-.47852.26758-1.03729.50928-1.63171.71021-.66296.20557-1.33246.41309-2.00696.62207-12.42495 3.73586-21.8523 4.48679-34.59637 4.8667.29462-1.51709.39832-3.0376.20044-4.46655-.21985-1.55127-.72156-2.89282-1.30713-4.00269-.58984-1.11035-1.2348-2.03003-1.87506-2.7915-1.27527-1.53491-2.45667-2.54126-3.41309-3.32495-1.47369-1.16675-2.47186-1.78442-3.15253-2.11621.47662-.21484.92847-.4314 1.32495-.64453 2.30817-1.25708 3.34399-2.29053 3.2738-2.38086-.09332-.13647-1.28467.66235-3.62408 1.63867-2.32849.95825-5.90094 2.0166-10.38782 2-2.22723-.03931-4.75507-.2312-7.35779-.62915-2.60968-.40918-5.35547-1.08032-7.99878-2.2876-2.6405-1.20972-5.19141-2.95752-7.3996-5.20142-2.21173-2.24316-4.06366-4.9856-5.40118-8.04126-5.7857-13.38538.08587-27.44548 8.48547-39.45483 4.98299-7.16709 10.59564-13.7653 15.19293-20.72827l.31781-.48364.00299-.00146.00726-.00513c.00391-.00562.00684-.00049.00885.00708 1.43732 1.88867 2.79999 3.67895 4.07153 5.34936 11.64358 15.3031 31.29329 37.37749 19.79407 59.37744-2.26886 4.21216-4.22839 5.91333-5.05847 6.93994-.88428 1.00391-.81781 1.29272-.6532 1.52026.16467.22754.39044.39136 1.64905-.28687.51196-.30273 1.26178-.75684 2.17676-1.52954.07019.00293.14319.00488.22736.0022.79016-.04785 2.27649-.31396 4.90576-1.47217 1.30774-.58789 2.89893-1.4082 4.7403-2.64111.63672-.42603 1.32043-.93311 2.01581-1.47437.5553.22437 1.4989.45776 3.11957.93481.92609.27539 2.07458.63892 3.46686 1.16577 4.99509 1.90825 8.97242 4.49514 18.599 13.27002.75366.69482 1.57458 1.45679 2.27606 2.24414.35077.39429.68341.80713.92505 1.19556.255.3855.37616.75757.36292.80396-.00135.12916.01043.22364-.20661.49219z" fill="#202020"/></g></svg>