<svg height="512pt" viewBox="0 -3 512 511" width="512pt" xmlns="http://www.w3.org/2000/svg"><path d="m48.835938 505.144531c-.949219 0-1.917969-.175781-2.855469-.550781-3.964844-1.578125-5.898438-6.074219-4.320313-10.039062l69.476563-174.375c1.578125-3.964844 6.070312-5.898438 10.035156-4.320313s5.898437 6.074219 4.320313 10.039063l-69.476563 174.375c-1.203125 3.027343-4.109375 4.871093-7.179687 4.871093zm0 0" fill="#c8d2dc"/><path d="m463.164062 505.144531c-3.070312 0-5.976562-1.84375-7.179687-4.867187l-69.476563-174.378906c-1.578124-3.964844.355469-8.460938 4.316407-10.039063 3.96875-1.578125 8.460937.355469 10.039062 4.320313l69.476563 174.375c1.578125 3.964843-.355469 8.460937-4.320313 10.039062-.9375.375-1.90625.550781-2.855469.550781zm0 0" fill="#c8d2dc"/><path d="m256 505.140625c-4.265625 0-7.726562-3.457031-7.726562-7.726563v-174.378906c0-4.265625 3.460937-7.722656 7.726562-7.722656 4.269531 0 7.726562 3.457031 7.726562 7.722656v174.378906c0 4.269532-3.457031 7.726563-7.726562 7.726563zm0 0" fill="#5f6c75"/><path d="m341.828125 385.460938h-171.65625c-2.847656 0-5.152344-2.304688-5.152344-5.152344v-65.394532h181.960938v65.394532c0 2.847656-2.304688 5.152344-5.152344 5.152344zm0 0" fill="#c8d2dc"/><path d="m305.773438 314.914062v65.394532c0 2.847656-2.304688 5.152344-5.152344 5.152344h41.207031c2.847656 0 5.152344-2.304688 5.152344-5.152344v-65.394532zm0 0" fill="#b9c3cd"/><path d="m501.699219.5h-491.398438c-5.6875 0-10.300781 4.613281-10.300781 10.300781v317.132813c0 5.691406 4.613281 10.300781 10.300781 10.300781h491.398438c5.6875 0 10.300781-4.609375 10.300781-10.300781v-317.132813c0-5.6875-4.613281-10.300781-10.300781-10.300781zm0 0" fill="#ffea84"/><path d="m501.699219.5h-41.207031c5.6875 0 10.300781 4.613281 10.300781 10.300781v317.132813c0 5.6875-4.613281 10.300781-10.300781 10.300781h41.207031c5.6875 0 10.300781-4.609375 10.300781-10.300781v-317.132813c0-5.6875-4.613281-10.300781-10.300781-10.300781zm0 0" fill="#ffe046"/><path d="m469.769531 300.578125h-425.824219c-2.84375 0-5.152343-2.304687-5.152343-5.148437v-252.121094c0-2.84375 2.308593-5.152344 5.152343-5.152344h425.824219c2.84375 0 5.152344 2.308594 5.152344 5.152344v252.121094c0 2.84375-2.308594 5.148437-5.152344 5.148437zm0 0" fill="#5f6c75"/><path d="m469.769531 38.15625h-41.207031c2.84375 0 5.152344 2.308594 5.152344 5.152344v252.121094c0 2.84375-2.308594 5.148437-5.152344 5.148437h41.207031c2.84375 0 5.152344-2.304687 5.152344-5.148437v-252.121094c0-2.84375-2.308594-5.152344-5.152344-5.152344zm0 0" fill="#4e5a61"/><g fill="#e1edef"><path d="m251.371094 188.703125 9.265625-9.253906c2.929687-2.925781 2.929687-7.667969 0-10.59375-2.929688-2.921875-7.675781-2.925781-10.605469 0l-9.265625 9.253906-9.269531-9.253906c-2.925782-2.921875-7.675782-2.925781-10.605469 0s-2.929687 7.667969 0 10.59375l9.265625 9.253906-9.265625 9.25c-2.929687 2.929687-2.929687 7.667969 0 10.59375 1.464844 1.464844 3.382813 2.195313 5.304687 2.195313 1.917969 0 3.839844-.730469 5.300782-2.195313l9.269531-9.253906 9.265625 9.253906c1.464844 1.464844 3.382812 2.195313 5.304688 2.195313 1.917968 0 3.839843-.730469 5.304687-2.195313 2.925781-2.925781 2.925781-7.664063-.003906-10.59375zm0 0"/><path d="m356.539062 167.757812c-3.535156-2.152343-8.152343-1.039062-10.308593 2.492188l-8.167969 13.371094-8.167969-13.371094c-2.15625-3.53125-6.773437-4.644531-10.308593-2.492188-3.535157 2.152344-4.652344 6.761719-2.496094 10.296876l12.1875 19.949218-12.1875 19.949219c-2.15625 3.53125-1.039063 8.140625 2.496094 10.292969 1.21875.746094 2.566406 1.097656 3.898437 1.097656 2.527344 0 4.996094-1.277344 6.410156-3.589844l29.136719-47.699218c2.160156-3.53125 1.042969-8.140626-2.492188-10.296876zm0 0"/><path d="m300.128906 196.191406h-20.601562c-4.144532 0-7.5-3.351562-7.5-7.488281s3.355468-7.492187 7.5-7.492187h20.601562c4.144532 0 7.5 3.355468 7.5 7.492187s-3.355468 7.488281-7.5 7.488281zm0 0"/><path d="m174.226562 233.539062c-3.023437 0-5.769531-1.820312-6.929687-4.636718l-21.402344-51.898438c-1.578125-3.824218.246094-8.203125 4.078125-9.777344 3.828125-1.578124 8.210938.25 9.789063 4.074219l13.414062 32.519531 22.476563-73.660156c.964844-3.152344 3.875-5.308594 7.175781-5.308594h176c4.144531 0 7.5 3.355469 7.5 7.492188s-3.355469 7.488281-7.5 7.488281h-170.445313l-26.980468 88.402344c-.921875 3.027344-3.652344 5.148437-6.816406 5.296875-.121094.003906-.238282.007812-.359376.007812zm0 0"/><path d="m167.828125 161.800781c-2.066406 0-4.09375-.855469-5.542969-2.441406l-17.957031-19.671875v13.625c0 4.136719-3.359375 7.492188-7.5 7.492188s-7.5-3.355469-7.5-7.492188v-32.957031c0-3.089844 1.902344-5.867188 4.789063-6.984375 2.886718-1.113282 6.167968-.347656 8.253906 1.941406l17.957031 19.667969v-15.539063c0-4.136718 3.359375-7.488281 7.5-7.488281s7.5 3.351563 7.5 7.488281v34.871094c0 3.09375-1.902344 5.867188-4.792969 6.984375-.878906.339844-1.796875.503906-2.707031.503906zm0 0"/></g></svg>