<svg height="512pt" viewBox="0 -22 512 512" width="512pt" xmlns="http://www.w3.org/2000/svg"><path d="m512 230.214844-512 237.550781h512zm0 0" fill="#ffea84"/><path d="m472 248.773438v218.992187h40v-237.550781zm0 0" fill="#ffe046"/><path d="m480.566406 181.882812c0-54.410156-44.128906-98.519531-98.566406-98.519531s-98.566406 44.109375-98.566406 98.519531c0 54.414063 44.128906 98.523438 98.566406 98.523438s98.566406-44.109375 98.566406-98.523438zm0 0" fill="#eb5793"/><path d="m382 83.363281c-6.851562 0-13.542969.699219-20 2.03125 44.847656 9.238281 78.566406 48.925781 78.566406 96.488281s-33.71875 87.25-78.566406 96.492188c6.457031 1.328125 13.148438 2.03125 20 2.03125 54.4375 0 98.566406-44.113281 98.566406-98.523438 0-54.410156-44.128906-98.519531-98.566406-98.519531zm0 0" fill="#e7387f"/><path d="m199.738281 242.632812c-.734375 4.019532 1.933594 7.863282 5.945313 8.59375l31.695312 5.773438-219.585937 102.972656c-3.695313 1.734375-5.285157 6.132813-3.554688 9.828125 1.734375 3.695313 6.136719 5.285157 9.832031 3.550781l219.585938-102.972656-15.816406 28.050782c-2.003906 3.554687-.75 8.058593 2.808594 10.066406 3.558593 2 8.066406.742187 10.070312-2.8125l27.167969-48.183594c2.453125-4.351562-.191407-10-5.113281-10.898438l-54.4375-9.914062c-4.015626-.730469-7.867188 1.933594-8.597657 5.945312zm0 0" fill="#40c1fa"/><path d="m171.324219 131.421875c.734375-4.019531-1.929688-7.863281-5.945313-8.59375l-31.691406-5.773437 219.582031-102.972657c3.695313-1.734375 5.289063-6.132812 3.554688-9.828125-1.734375-3.695312-6.136719-5.285156-9.832031-3.550781l-219.585938 102.972656 15.816406-28.050781c2.003906-3.554688.75-8.0625-2.8125-10.066406-3.554687-2.003906-8.0625-.746094-10.066406 2.808594l-27.167969 48.183593c-2.453125 4.351563.1875 10 5.113281 10.898438l54.4375 9.917969c4.015626.730468 7.867188-1.933594 8.597657-5.945313zm0 0" fill="#e7387f"/></svg>