<svg height="512pt" viewBox="-72 0 512 512" width="512pt" xmlns="http://www.w3.org/2000/svg"><path d="m365.109375 476.003906-127.871094-239.515625c-2.523437-4.726562-3.84375-10.003906-3.84375-15.367187v-213.234375h-98.761719v213.234375c0 5.363281-1.320312 10.640625-3.84375 15.367187l-127.871093 239.515625c-8.703125 16.300782 3.109375 35.996094 21.585937 35.996094h319.019532c18.476562 0 30.289062-19.695312 21.585937-35.996094zm0 0" fill="#d5f1fe"/><path d="m365.109375 476.003906-127.871094-239.515625c-2.523437-4.726562-3.84375-10.003906-3.84375-15.367187v-213.234375h-42.058593v216.136719c0 3.457031.847656 6.859374 2.476562 9.90625l129.238281 242.074218c8.699219 16.300782-3.109375 35.996094-21.589843 35.996094h42.0625c18.476562 0 30.289062-19.695312 21.585937-35.996094zm0 0" fill="#b4e7fd"/><path d="m120.433594 366.332031-46.367188 87.460938c-3.714844 7.003906 1.363282 15.441406 9.289063 15.441406h201.316406c7.925781 0 13-8.4375 9.289063-15.441406l-46.214844-87.167969c-2.953125-5.570312-8.25-9.523438-14.4375-10.765625l-6.808594-1.371094c-30.457031-6.121093-61.867188-5.714843-92.160156 1.191407-5.964844 1.359374-11.039063 5.25-13.90625 10.652343zm0 0" fill="#9773bd"/><path d="m293.960938 453.792969-46.214844-87.167969c-2.953125-5.570312-8.253906-9.523438-14.4375-10.765625l-6.808594-1.367187c-21.214844-4.265626-42.890625-5.351563-64.328125-3.292969 7.457031.71875 14.890625 1.808593 22.269531 3.292969l6.808594 1.367187c6.183594 1.242187 11.484375 5.195313 14.4375 10.765625l46.214844 87.167969c3.710937 7.003906-1.367188 15.441406-9.292969 15.441406h42.0625c7.925781 0 13-8.4375 9.289063-15.441406zm0 0" fill="#865cb2"/><path d="m246.511719 429.300781c0 7.257813-5.886719 13.144531-13.144531 13.144531-7.261719 0-13.144532-5.886718-13.144532-13.144531 0-7.257812 5.882813-13.144531 13.144532-13.144531 7.257812 0 13.144531 5.886719 13.144531 13.144531zm0 0" fill="#d5f1fe"/><path d="m233.367188 416.15625c-1.871094 0-3.648438.398438-5.257813 1.101562 4.640625 2.027344 7.886719 6.652344 7.886719 12.042969s-3.246094 10.015625-7.886719 12.042969c1.609375.703125 3.386719 1.101562 5.257813 1.101562 7.257812 0 13.144531-5.886718 13.144531-13.144531 0-7.261719-5.886719-13.144531-13.144531-13.144531zm0 0" fill="#b4e7fd"/><path d="m143.988281 436.1875c0 7.261719-5.886719 13.144531-13.144531 13.144531-7.261719 0-13.144531-5.882812-13.144531-13.144531 0-7.257812 5.882812-13.140625 13.144531-13.140625 7.257812 0 13.144531 5.882813 13.144531 13.140625zm0 0" fill="#d5f1fe"/><path d="m130.84375 423.046875c-1.871094 0-3.648438.394531-5.257812 1.097656 4.636718 2.03125 7.882812 6.65625 7.882812 12.042969 0 5.390625-3.246094 10.015625-7.882812 12.042969 1.609374.707031 3.386718 1.101562 5.257812 1.101562 7.257812 0 13.144531-5.882812 13.144531-13.144531 0-7.257812-5.886719-13.140625-13.144531-13.140625zm0 0" fill="#b4e7fd"/><path d="m191.335938 394.761719c0 8.710937-7.0625 15.773437-15.773438 15.773437s-15.773438-7.0625-15.773438-15.773437c0-8.710938 7.0625-15.773438 15.773438-15.773438s15.773438 7.0625 15.773438 15.773438zm0 0" fill="#d5f1fe"/><path d="m191.332031 394.761719c0 8.710937-7.0625 15.773437-15.773437 15.773437-2.242188 0-4.375-.476562-6.308594-1.320312 5.570312-2.433594 9.464844-7.984375 9.464844-14.449219 0-6.46875-3.894532-12.019531-9.464844-14.453125 1.933594-.84375 4.066406-1.320312 6.308594-1.320312 8.714844 0 15.773437 7.058593 15.773437 15.769531zm0 0" fill="#b4e7fd"/><path d="m171.882812 308.988281c0 8.710938-7.0625 15.773438-15.773437 15.773438s-15.773437-7.0625-15.773437-15.773438c0-8.710937 7.0625-15.773437 15.773437-15.773437s15.773437 7.0625 15.773437 15.773437zm0 0" fill="#9773bd"/><path d="m156.109375 293.214844c-2.453125 0-4.765625.574218-6.835937 1.574218 5.28125 2.550782 8.9375 7.941407 8.9375 14.199219 0 6.257813-3.65625 11.648438-8.9375 14.199219 2.070312.996094 4.382812 1.574219 6.835937 1.574219 8.710937 0 15.773437-7.0625 15.773437-15.773438-.003906-8.710937-7.0625-15.773437-15.773437-15.773437zm0 0" fill="#865cb2"/><path d="m219.722656 267.398438c0 8.710937-7.058594 15.773437-15.769531 15.773437s-15.773437-7.0625-15.773437-15.773437c0-8.710938 7.0625-15.769532 15.773437-15.769532s15.769531 7.058594 15.769531 15.769532zm0 0" fill="#9773bd"/><path d="m203.953125 251.628906c-2.453125 0-4.765625.574219-6.835937 1.574219 5.28125 2.550781 8.9375 7.9375 8.9375 14.199219 0 6.257812-3.65625 11.648437-8.9375 14.195312 2.070312 1 4.382812 1.574219 6.835937 1.574219 8.710937 0 15.769531-7.0625 15.769531-15.773437 0-8.710938-7.058594-15.769532-15.769531-15.769532zm0 0" fill="#865cb2"/><path d="m191.859375 205.796875c0 7.261719-5.882813 13.144531-13.144531 13.144531-7.257813 0-13.144532-5.882812-13.144532-13.144531 0-7.257813 5.886719-13.144531 13.144532-13.144531 7.261718 0 13.144531 5.886718 13.144531 13.144531zm0 0" fill="#9773bd"/><path d="m178.714844 192.652344c-1.871094 0-3.644532.398437-5.257813 1.101562 4.640625 2.03125 7.886719 6.65625 7.886719 12.042969 0 5.390625-3.246094 10.015625-7.886719 12.042969 1.613281.707031 3.386719 1.101562 5.257813 1.101562 7.257812 0 13.144531-5.882812 13.144531-13.144531 0-7.257813-5.886719-13.144531-13.144531-13.144531zm0 0" fill="#865cb2"/><g fill="#b4e7fd"><path d="m54.691406 442.445312c0-4.355468-3.53125-7.886718-7.886718-7.886718h-21.761719l-8.417969 15.773437h30.179688c4.355468 0 7.886718-3.53125 7.886718-7.886719zm0 0"/><path d="m77.105469 400.382812c0-4.355468-3.53125-7.886718-7.886719-7.886718h-21.71875l-8.421875 15.773437h30.140625c4.355469 0 7.886719-3.53125 7.886719-7.886719zm0 0"/><path d="m99.601562 358.324219c0-4.355469-3.527343-7.886719-7.886718-7.886719h-21.757813l-8.421875 15.773438h30.179688c4.359375 0 7.886718-3.53125 7.886718-7.886719zm0 0"/><path d="m114.136719 324.148438c4.4375 0 8.015625-3.660157 7.882812-8.128907-.128906-4.316406-3.894531-7.644531-8.214843-7.644531h-21.394532l-8.421875 15.773438zm0 0"/></g><path d="m128.207031 0h111.613281c5.601563 0 10.144532 4.542969 10.144532 10.144531v20.292969c0 5.605469-4.542969 10.148438-10.144532 10.148438h-111.613281c-5.605469 0-10.144531-4.542969-10.144531-10.148438v-20.292969c0-5.601562 4.542969-10.144531 10.144531-10.144531zm0 0" fill="#d5f1fe"/><path d="m239.820312 0h-40.585937c5.601563 0 10.144531 4.542969 10.144531 10.144531v20.292969c0 5.605469-4.542968 10.148438-10.144531 10.148438h40.585937c5.601563 0 10.144532-4.542969 10.144532-10.148438v-20.292969c0-5.601562-4.542969-10.144531-10.144532-10.144531zm0 0" fill="#b4e7fd"/></svg>