<svg height="512pt" viewBox="0 -81 512 512" width="512pt" xmlns="http://www.w3.org/2000/svg"><path d="m374.285156 213.46875c-2.214844 0-4.121094-1.664062-4.375-3.917969l-22.5-201.5625c-.269531-2.417969 1.472656-4.597656 3.890625-4.867187 2.433594-.265625 4.597657 1.472656 4.871094 3.890625l22.5 201.5625c.269531 2.417969-1.472656 4.597656-3.890625 4.867187-.164062.019532-.332031.027344-.496094.027344zm0 0" fill="#40c1fa"/><path d="m406 237.414062c0-15.753906-12.777344-28.527343-28.542969-28.527343-15.761719 0-28.542969 12.773437-28.542969 28.527343 0 15.757813 12.78125 28.527344 28.542969 28.527344 15.765625 0 28.542969-12.769531 28.542969-28.527344zm0 0" fill="#cbed74"/><path d="m406 237.414062c0-15.753906-12.777344-28.527343-28.542969-28.527343-15.761719 0-28.542969 12.773437-28.542969 28.527343 0 15.757813 12.78125 28.527344 28.542969 28.527344 15.765625 0 28.542969-12.769531 28.542969-28.527344zm0 0" fill="#eb5793"/><path d="m377.457031 208.886719c-4.175781 0-8.140625.90625-11.71875 2.515625 9.917969 4.472656 16.824219 14.433594 16.824219 26.011718 0 11.582032-6.90625 21.539063-16.824219 26.011719 3.578125 1.613281 7.542969 2.515625 11.71875 2.515625 15.765625 0 28.542969-12.769531 28.542969-28.527344 0-15.753906-12.777344-28.527343-28.542969-28.527343zm0 0" fill="#e7387f"/><path d="m279.375 213.167969c-2.367188 0-4.28125-1.917969-4.28125-4.28125v-201.386719c0-2.363281 1.917969-4.28125 4.28125-4.28125s4.28125 1.917969 4.28125 4.28125v201.386719c0 2.363281-1.917969 4.28125-4.28125 4.28125zm0 0" fill="#40c1fa"/><path d="m307.914062 237.414062c0-15.753906-12.777343-28.527343-28.539062-28.527343-15.765625 0-28.542969 12.773437-28.542969 28.527343 0 15.757813 12.777344 28.527344 28.542969 28.527344 15.761719 0 28.539062-12.769531 28.539062-28.527344zm0 0" fill="#cbed74"/><path d="m279.375 208.886719c-4.179688 0-8.144531.90625-11.71875 2.515625 9.914062 4.472656 16.824219 14.433594 16.824219 26.011718 0 11.582032-6.910157 21.539063-16.824219 26.011719 3.574219 1.613281 7.539062 2.515625 11.71875 2.515625 15.761719 0 28.539062-12.769531 28.539062-28.527344 0-15.753906-12.777343-28.527343-28.539062-28.527343zm0 0" fill="#b9e746"/><path d="m134.542969 213.167969c-2.367188 0-4.28125-1.917969-4.28125-4.28125v-201.386719c0-2.363281 1.917969-4.28125 4.28125-4.28125s4.28125 1.917969 4.28125 4.28125v201.386719c0 2.363281-1.917969 4.28125-4.28125 4.28125zm0 0" fill="#40c1fa"/><path d="m163.085938 237.414062c0-15.753906-12.78125-28.527343-28.542969-28.527343-15.765625 0-28.542969 12.773437-28.542969 28.527343 0 15.757813 12.777344 28.527344 28.542969 28.527344 15.761719 0 28.542969-12.769531 28.542969-28.527344zm0 0" fill="#cbed74"/><path d="m134.542969 208.886719c-4.179688 0-8.144531.90625-11.71875 2.515625 9.914062 4.472656 16.824219 14.433594 16.824219 26.011718 0 11.582032-6.910157 21.539063-16.824219 26.011719 3.574219 1.613281 7.539062 2.515625 11.71875 2.515625 15.761719 0 28.542969-12.769531 28.542969-28.527344 0-15.753906-12.78125-28.527343-28.542969-28.527343zm0 0" fill="#b9e746"/><path d="m206.957031 213.167969c-2.363281 0-4.28125-1.917969-4.28125-4.28125v-201.386719c0-2.363281 1.917969-4.28125 4.28125-4.28125s4.28125 1.917969 4.28125 4.28125v201.386719c0 2.363281-1.914062 4.28125-4.28125 4.28125zm0 0" fill="#40c1fa"/><path d="m235.5 237.414062c0-15.753906-12.777344-28.527343-28.542969-28.527343-15.761719 0-28.542969 12.773437-28.542969 28.527343 0 15.757813 12.78125 28.527344 28.542969 28.527344 15.765625 0 28.542969-12.769531 28.542969-28.527344zm0 0" fill="#cbed74"/><path d="m206.957031 208.886719c-4.175781 0-8.140625.90625-11.71875 2.515625 9.917969 4.472656 16.824219 14.433594 16.824219 26.011718 0 11.582032-6.90625 21.539063-16.824219 26.011719 3.578125 1.613281 7.542969 2.515625 11.71875 2.515625 15.765625 0 28.542969-12.769531 28.542969-28.527344 0-15.753906-12.777344-28.527343-28.542969-28.527343zm0 0" fill="#b9e746"/><path d="m445.773438 8.210938 14.929687-1.449219 29.082031 298.996093-14.929687 1.453126zm0 0" fill="#b9c3cd"/><path d="m416.710938 305.785156 29.078124-299 14.929688 1.449219-29.078125 299zm0 0" fill="#c8d2dc"/><path d="m51.296875 8.222656 14.929687-1.453125 29.078126 299-14.929688 1.453125zm0 0" fill="#b9c3cd"/><path d="m22.21875 305.78125 29.078125-299 14.929687 1.453125-29.078124 298.996094zm0 0" fill="#c8d2dc"/><path d="m453.238281 15h-394.476562c-4.144531 0-7.5-3.355469-7.5-7.5s3.355469-7.5 7.5-7.5h394.476562c4.144531 0 7.5 3.355469 7.5 7.5s-3.355469 7.5-7.5 7.5zm0 0" fill="#c8d2dc"/><path d="m502 349.835938h-492c-5.523438 0-10-4.480469-10-10v-30c0-5.523438 4.476562-10 10-10h492c5.523438 0 10 4.476562 10 10v30c0 5.519531-4.476562 10-10 10zm0 0" fill="#ffea84"/><path d="m502 349.835938h-492c-5.523438 0-10-4.480469-10-10v-30c0-5.523438 4.476562-10 10-10h492c5.523438 0 10 4.476562 10 10v30c0 5.519531-4.476562 10-10 10zm0 0" fill="#ffea84"/><path d="m502 299.835938h-116.128906v50h116.128906c5.523438 0 10-4.480469 10-10v-30c0-5.523438-4.476562-10-10-10zm0 0" fill="#ffe046"/></svg>