<svg height="511pt" viewBox="-25 1 511 511.9995" width="511pt" xmlns="http://www.w3.org/2000/svg"><path d="m382.375 226.828125c0 90.246094-73.160156 163.40625-163.40625 163.40625-90.25 0-163.410156-73.160156-163.410156-163.40625 0-90.25 73.160156-163.410156 163.410156-163.410156 90.246094 0 163.40625 73.160156 163.40625 163.410156zm0 0" fill="#5f6c75"/><path d="m218.96875 63.417969c-6.917969 0-13.734375.433593-20.425781 1.269531 80.605469 10.054688 142.980469 78.8125 142.980469 162.140625s-62.375 152.085937-142.980469 162.140625c6.691406.832031 13.507812 1.269531 20.425781 1.269531 90.246094 0 163.40625-73.160156 163.40625-163.410156 0-90.246094-73.160156-163.410156-163.40625-163.410156zm0 0" fill="#4e5a61"/><path d="m378.164062 87.171875-72.214843-72.214844c19.941406-19.941406 52.273437-19.941406 72.214843 0 19.945313 19.941407 19.945313 52.273438 0 72.214844zm0 0" fill="#d5f1fe"/><path d="m378.164062 14.957031c-4.582031-4.585937-9.828124-8.101562-15.417968-10.578125 8.296875 18.738282 4.78125 41.4375-10.578125 56.796875l25.996093 25.996094c19.945313-19.941406 19.945313-52.273437 0-72.214844zm0 0" fill="#b4e7fd"/><path d="m238.90625 64.632812-11.585938 11.585938c-7.980468 7.976562-7.980468 20.910156 0 28.886719l60.695313 60.699219c7.976563 7.976562 20.910156 7.976562 28.886719 0l34.585937-34.585938c-26.007812-35.988281-66.308593-60.957031-112.582031-66.585938zm0 0" fill="#ffea84"/><path d="m323.609375 101.324219-50.035156 50.035156 14.441406 14.441406c7.976563 7.980469 20.910156 7.980469 28.886719 0l34.585937-34.585937c-8.015625-11.089844-17.390625-21.136719-27.878906-29.890625zm0 0" fill="#ffe046"/><path d="m306.769531 28.574219 57.773438 57.773437-77.992188 77.988282-57.769531-57.773438zm0 0" fill="#909ba6"/><path d="m259.832031 137.621094 77.988281-77.988282 26.71875 26.71875-77.988281 77.992188zm0 0" fill="#7e8b96"/><path d="m383.222656 82.117188-72.21875-72.214844c-3.988281-3.988282-10.457031-3.988282-14.441406 0l-7.222656 7.21875c-3.988282 3.988281-3.988282 10.457031 0 14.445312l72.21875 72.214844c3.984375 3.988281 10.453125 3.988281 14.441406 0l7.222656-7.222656c3.984375-3.984375 3.984375-10.453125 0-14.441406zm0 0" fill="#5f6c75"/><path d="m383.222656 82.117188-28.890625-28.886719c3.988281 3.988281 3.988281 10.453125 0 14.441406l-7.21875 7.222656c-3.988281 3.988281-10.457031 3.988281-14.445312 0l28.890625 28.886719c3.984375 3.988281 10.453125 3.988281 14.441406 0l7.222656-7.222656c3.984375-3.984375 3.984375-10.453125 0-14.441406zm0 0" fill="#4e5a61"/><path d="m55.558594 226.828125h326.816406v238.183594h-326.816406zm0 0" fill="#5f6c75"/><path d="m341.523438 226.828125h40.851562v238.183594h-40.851562zm0 0" fill="#4e5a61"/><path d="m49.035156 205.976562h339.425782c5.148437 0 9.492187 3.835938 10.132812 8.945313l2.554688 20.425781c.761718 6.097656-3.992188 11.480469-10.136719 11.480469h-344.527344c-6.144531 0-10.898437-5.382813-10.136719-11.480469l2.554688-20.425781c.636718-5.109375 4.980468-8.945313 10.132812-8.945313zm0 0" fill="#eb5793"/><path d="m401.148438 235.351562-2.554688-20.425781c-.640625-5.113281-4.984375-8.949219-10.132812-8.949219h-40.851563c5.148437 0 9.492187 3.835938 10.132813 8.949219l2.550781 20.425781c.765625 6.09375-3.988281 11.480469-10.132813 11.480469h40.851563c6.144531 0 10.898437-5.386719 10.136719-11.480469zm0 0" fill="#e7387f"/><path d="m178.117188 338.789062h-40.851563c-5.644531 0-10.214844 4.570313-10.214844 10.210938v102.132812h61.277344v-102.132812c0-5.640625-4.570313-10.210938-10.210937-10.210938zm0 0" fill="#ffea84"/><path d="m178.117188 338.789062h-27.578126c5.640626 0 10.214844 4.570313 10.214844 10.210938v102.132812h27.574219v-102.132812c0-5.640625-4.570313-10.210938-10.210937-10.210938zm0 0" fill="#ffe046"/><path d="m300.671875 293.835938h-40.851563c-5.640624 0-10.214843 4.570312-10.214843 10.210937v40.851563c0 5.640624 4.574219 10.214843 10.214843 10.214843h40.851563c5.640625 0 10.210937-4.574219 10.210937-10.214843v-40.851563c0-5.640625-4.570312-10.210937-10.210937-10.210937zm0 0" fill="#ffea84"/><path d="m300.671875 293.835938h-20.425781v61.277343h20.425781c5.640625 0 10.210937-4.574219 10.210937-10.214843v-40.851563c0-5.640625-4.570312-10.210937-10.210937-10.210937zm0 0" fill="#ffe046"/><g fill="#e7387f"><path d="m333.863281 398.164062h15.320313v45.933594h-15.320313zm0 0"/><path d="m272.585938 398.164062h15.320312v45.933594h-15.320312zm0 0"/><path d="m211.308594 398.164062h15.320312v45.933594h-15.320312zm0 0"/><path d="m150.03125 398.164062h15.320312v45.933594h-15.320312zm0 0"/><path d="m88.753906 398.164062h15.320313v45.933594h-15.320313zm0 0"/></g><path d="m418.121094 405.824219h-398.304688c-4.234375 0-7.660156-3.429688-7.660156-7.660157 0-4.230468 3.425781-7.660156 7.660156-7.660156h398.304688c4.230468 0 7.660156 3.429688 7.660156 7.660156 0 4.230469-3.429688 7.660157-7.660156 7.660157zm0 0" fill="#eb5793"/><path d="m10.710938 438.492188h419.53125c4.316406 0 8.164062 2.710937 9.617187 6.773437l21.414063 59.90625c1.1875 3.328125-1.277344 6.828125-4.808594 6.828125h-455.964844v-63.296875c0-5.636719 4.570312-10.210937 10.210938-10.210937zm0 0" fill="#c8d2dc"/><path d="m461.273438 505.175781-21.414063-59.910156c-1.453125-4.0625-5.300781-6.773437-9.617187-6.773437h-40.851563c4.3125 0 8.164063 2.710937 9.617187 6.773437l21.414063 59.910156c1.1875 3.324219-1.277344 6.824219-4.808594 6.824219h40.851563c3.53125 0 5.996094-3.5 4.808594-6.824219zm0 0" fill="#b9c3cd"/></svg>