<svg height="512pt" viewBox="0 -197 512.00001 512" width="512pt" xmlns="http://www.w3.org/2000/svg"><path d="m512 58.535156c0-32.328125-26.234375-58.535156-58.59375-58.535156s-58.59375 26.207031-58.59375 58.535156c0 32.332032 26.234375 58.539063 58.59375 58.539063s58.59375-26.207031 58.59375-58.539063zm0 0" fill="#eb5793"/><path d="m453.40625 0c-7.023438 0-13.757812 1.238281-20 3.503906 22.511719 8.167969 38.59375 29.722656 38.59375 55.03125 0 25.3125-16.082031 46.867188-38.59375 55.035156 6.242188 2.265626 12.976562 3.503907 20 3.503907 32.359375 0 58.59375-26.207031 58.59375-58.539063 0-32.328125-26.234375-58.535156-58.59375-58.535156zm0 0" fill="#e7387f"/><path d="m105.472656 117.074219h-93.757812c-6.472656 0-11.714844-5.246094-11.714844-11.714844v-93.644531c0-6.472656 5.242188-11.714844 11.714844-11.714844h93.757812c6.46875 0 11.714844 5.242188 11.714844 11.714844v93.644531c0 6.46875-5.246094 11.714844-11.714844 11.714844zm0 0" fill="#72d1fb"/><path d="m105.46875 0h-40c6.472656 0 11.71875 5.242188 11.71875 11.707031v93.660157c0 6.464843-5.246094 11.707031-11.71875 11.707031h40c6.472656 0 11.71875-5.242188 11.71875-11.707031v-93.660157c0-6.464843-5.246094-11.707031-11.71875-11.707031zm0 0" fill="#40c1fa"/><path d="m298.257812 31.539062-29.605468 21.070313c-4 2.84375-3.992188 9.019531 0 11.855469l29.605468 21.066406c3.277344 2.335938 7.828126 1.570312 10.160157-1.703125.914062-1.28125 1.355469-2.757813 1.355469-4.21875 0-2.273437-1.066407-4.515625-3.0625-5.933594l-11.042969-7.859375h64.003906c4.023437 0 7.285156-3.257812 7.285156-7.277344 0-4.019531-3.261719-7.28125-7.285156-7.28125h-64.003906l11.042969-7.859374c3.277343-2.332032 4.046874-6.875 1.707031-10.152344-2.332031-3.273438-6.882813-4.035156-10.160157-1.707032zm0 0" fill="#40c1fa"/><path d="m213.742188 85.53125 29.605468-21.066406c4-2.847656 3.992188-9.019532 0-11.855469l-29.605468-21.070313c-3.277344-2.332031-7.828126-1.566406-10.160157 1.707032-.914062 1.28125-1.355469 2.757812-1.355469 4.21875 0 2.273437 1.066407 4.515625 3.0625 5.933594l11.042969 7.859374h-64.003906c-4.023437 0-7.285156 3.257813-7.285156 7.277344 0 4.019532 3.261719 7.28125 7.285156 7.28125h64.003906l-11.042969 7.859375c-3.277343 2.332031-4.046874 6.875-1.707031 10.148438 2.332031 3.277343 6.882813 4.039062 10.160157 1.707031zm0 0" fill="#e7387f"/><path d="m82.59375 51.046875h-16.5v-16.484375c0-4.140625-3.355469-7.496094-7.5-7.496094s-7.5 3.355469-7.5 7.496094v16.484375h-16.5c-4.144531 0-7.5 3.351563-7.5 7.492187 0 4.136719 3.355469 7.492188 7.5 7.492188h16.5v16.484375c0 4.136719 3.355469 7.492187 7.5 7.492187s7.5-3.355468 7.5-7.492187v-16.484375h16.5c4.144531 0 7.5-3.355469 7.5-7.492188 0-4.140624-3.359375-7.492187-7.5-7.492187zm0 0" fill="#e7387f"/><path d="m477.40625 66.03125h-48c-4.144531 0-7.5-3.355469-7.5-7.496094 0-4.136718 3.355469-7.492187 7.5-7.492187h48c4.144531 0 7.5 3.355469 7.5 7.492187 0 4.140625-3.355469 7.496094-7.5 7.496094zm0 0" fill="#40c1fa"/></svg>