<svg height="512pt" viewBox="0 0 512 512" width="512pt" xmlns="http://www.w3.org/2000/svg"><path d="m328.863281 256c0 40.242188-32.621093 72.863281-72.863281 72.863281s-72.863281-32.621093-72.863281-72.863281 32.621093-72.863281 72.863281-72.863281 72.863281 32.621093 72.863281 72.863281zm0 0" fill="#cbed74"/><path d="m256 183.136719c-6.726562 0-13.226562.9375-19.40625 2.644531 30.792969 8.515625 53.410156 36.71875 53.410156 70.21875s-22.617187 61.703125-53.410156 70.21875c6.179688 1.707031 12.679688 2.644531 19.40625 2.644531 40.242188 0 72.863281-32.621093 72.863281-72.863281s-32.621093-72.863281-72.863281-72.863281zm0 0" fill="#b9e746"/><path d="m256 512c-68.378906 0-132.667969-26.628906-181.019531-74.980469-48.351563-48.351562-74.980469-112.640625-74.980469-181.019531s26.628906-132.667969 74.980469-181.019531c48.351562-48.351563 112.640625-74.980469 181.019531-74.980469s132.667969 26.628906 181.019531 74.980469c48.351563 48.351562 74.980469 112.640625 74.980469 181.019531s-26.628906 132.667969-74.980469 181.019531c-48.351562 48.351563-112.640625 74.980469-181.019531 74.980469zm0-497.425781c-64.488281 0-125.113281 25.113281-170.714844 70.710937-45.597656 45.597656-70.710937 106.226563-70.710937 170.714844s25.113281 125.113281 70.710937 170.714844c45.601563 45.597656 106.226563 70.710937 170.714844 70.710937s125.113281-25.113281 170.714844-70.710937c45.597656-45.597656 70.710937-106.226563 70.710937-170.714844s-25.113281-125.113281-70.710937-170.714844c-45.601563-45.597656-106.226563-70.710937-170.714844-70.710937zm0 0" fill="#40c1fa"/><path d="m460.042969 67.804688c0 22.425781-18.183594 40.609374-40.613281 40.609374-22.425782 0-40.609376-18.183593-40.609376-40.609374 0-22.429688 18.183594-40.613282 40.609376-40.613282 22.429687 0 40.613281 18.183594 40.613281 40.613282zm0 0" fill="#eb5793"/><path d="m419.429688 27.191406c-5.320313 0-10.398438 1.035156-15.058594 2.898438 14.972656 5.980468 25.554687 20.605468 25.554687 37.714844 0 17.105468-10.582031 31.730468-25.554687 37.710937 4.660156 1.863281 9.738281 2.898437 15.058594 2.898437 22.429687 0 40.613281-18.183593 40.613281-40.609374-.003907-22.429688-18.183594-40.613282-40.613281-40.613282zm0 0" fill="#e7387f"/></svg>