<svg height="512pt" viewBox="0 0 512 512" width="512pt" xmlns="http://www.w3.org/2000/svg"><path d="m512 255.773438c0-34.628907-28.097656-62.699219-62.757812-62.699219-34.65625 0-62.753907 28.070312-62.753907 62.699219 0 34.628906 28.097657 62.699218 62.753907 62.699218 34.660156 0 62.757812-28.070312 62.757812-62.699218zm0 0" fill="#cbed74"/><path d="m449.242188 193.074219c-6.996094 0-13.714844 1.160156-20 3.269531 24.851562 8.347656 42.757812 31.792969 42.757812 59.429688 0 27.640624-17.90625 51.085937-42.757812 59.429687 6.285156 2.109375 13.003906 3.269531 20 3.269531 34.660156 0 62.757812-28.070312 62.757812-62.699218 0-34.628907-28.097656-62.699219-62.757812-62.699219zm0 0" fill="#b9e746"/><path d="m125.511719 255.773438c0-34.628907-28.097657-62.699219-62.753907-62.699219-34.660156 0-62.757812 28.070312-62.757812 62.699219 0 34.628906 28.097656 62.699218 62.757812 62.699218 34.65625 0 62.753907-28.070312 62.753907-62.699218zm0 0" fill="#cbed74"/><path d="m62.757812 193.074219c-6.996093 0-13.71875 1.160156-20 3.269531 24.847657 8.347656 42.753907 31.792969 42.753907 59.429688 0 27.640624-17.90625 51.085937-42.753907 59.429687 6.28125 2.109375 13.003907 3.269531 20 3.269531 34.65625 0 62.753907-28.070312 62.753907-62.699218 0-34.628907-28.097657-62.699219-62.753907-62.699219zm0 0" fill="#b9e746"/><path d="m318.757812 255.773438c0-34.628907-28.097656-62.699219-62.757812-62.699219s-62.757812 28.070312-62.757812 62.699219c0 34.628906 28.097656 62.699218 62.757812 62.699218s62.757812-28.070312 62.757812-62.699218zm0 0" fill="#eb5793"/><path d="m256 193.074219c-6.996094 0-13.714844 1.160156-20 3.269531 24.847656 8.347656 42.757812 31.792969 42.757812 59.429688 0 27.640624-17.910156 51.085937-42.757812 59.429687 6.285156 2.109375 13.003906 3.269531 20 3.269531 34.660156 0 62.757812-28.070312 62.757812-62.699218 0-34.628907-28.097656-62.699219-62.757812-62.699219zm0 0" fill="#e7387f"/><path d="m512 62.699219c0-34.625-28.097656-62.699219-62.757812-62.699219-34.65625 0-62.753907 28.074219-62.753907 62.699219 0 34.628906 28.097657 62.703125 62.753907 62.703125 34.660156 0 62.757812-28.074219 62.757812-62.703125zm0 0" fill="#eb5793"/><path d="m449.242188 0c-6.996094 0-13.714844 1.160156-20 3.269531 24.851562 8.347657 42.757812 31.792969 42.757812 59.429688 0 27.640625-17.90625 51.085937-42.757812 59.429687 6.285156 2.109375 13.003906 3.273438 20 3.273438 34.660156 0 62.757812-28.074219 62.757812-62.703125 0-34.625-28.097656-62.699219-62.757812-62.699219zm0 0" fill="#e7387f"/><path d="m125.511719 62.699219c0-34.625-28.097657-62.699219-62.753907-62.699219-34.660156 0-62.757812 28.074219-62.757812 62.699219 0 34.628906 28.097656 62.703125 62.757812 62.703125 34.65625 0 62.753907-28.074219 62.753907-62.703125zm0 0" fill="#eb5793"/><path d="m62.757812 0c-6.996093 0-13.71875 1.160156-20 3.269531 24.847657 8.347657 42.753907 31.792969 42.753907 59.429688 0 27.640625-17.90625 51.085937-42.753907 59.429687 6.28125 2.109375 13.003907 3.269532 20 3.269532 34.65625 0 62.753907-28.070313 62.753907-62.699219 0-34.628907-28.097657-62.699219-62.753907-62.699219zm0 0" fill="#e7387f"/><path d="m318.757812 62.699219c0-34.625-28.097656-62.699219-62.757812-62.699219s-62.757812 28.074219-62.757812 62.699219c0 34.628906 28.097656 62.703125 62.757812 62.703125s62.757812-28.074219 62.757812-62.703125zm0 0" fill="#cbed74"/><path d="m256 0c-6.996094 0-13.714844 1.160156-20 3.269531 24.847656 8.347657 42.757812 31.792969 42.757812 59.429688 0 27.640625-17.910156 51.085937-42.757812 59.429687 6.285156 2.109375 13.003906 3.273438 20 3.273438 34.660156 0 62.757812-28.074219 62.757812-62.703125 0-34.625-28.097656-62.699219-62.757812-62.699219zm0 0" fill="#b9e746"/><path d="m512 448.847656c0-34.628906-28.097656-62.699218-62.757812-62.699218-34.65625 0-62.753907 28.070312-62.753907 62.699218s28.097657 62.699219 62.753907 62.699219c34.660156 0 62.757812-28.070313 62.757812-62.699219zm0 0" fill="#eb5793"/><path d="m449.242188 386.148438c-6.996094 0-13.714844 1.160156-20 3.269531 24.851562 8.347656 42.757812 31.792969 42.757812 59.429687 0 27.636719-17.90625 51.082032-42.757812 59.429688 6.285156 2.109375 13.003906 3.269531 20 3.269531 34.660156 0 62.757812-28.070313 62.757812-62.699219s-28.097656-62.699218-62.757812-62.699218zm0 0" fill="#e7387f"/><path d="m125.511719 448.847656c0-34.628906-28.097657-62.699218-62.753907-62.699218-34.660156 0-62.757812 28.070312-62.757812 62.699218s28.097656 62.699219 62.757812 62.699219c34.65625 0 62.753907-28.070313 62.753907-62.699219zm0 0" fill="#eb5793"/><path d="m62.757812 386.148438c-6.996093 0-13.71875 1.160156-20 3.269531 24.847657 8.34375 42.753907 31.789062 42.753907 59.429687 0 27.636719-17.90625 51.082032-42.753907 59.429688 6.28125 2.109375 13.003907 3.269531 20 3.269531 34.65625 0 62.753907-28.070313 62.753907-62.699219s-28.097657-62.699218-62.753907-62.699218zm0 0" fill="#e7387f"/><path d="m318.757812 448.847656c0-34.628906-28.097656-62.699218-62.757812-62.699218s-62.757812 28.070312-62.757812 62.699218 28.097656 62.699219 62.757812 62.699219 62.757812-28.070313 62.757812-62.699219zm0 0" fill="#cbed74"/><path d="m256 386.148438c-6.996094 0-13.714844 1.160156-20 3.269531 24.847656 8.34375 42.757812 31.789062 42.757812 59.429687 0 27.636719-17.910156 51.082032-42.757812 59.429688 6.285156 2.109375 13.003906 3.269531 20 3.269531 34.660156 0 62.757812-28.070313 62.757812-62.699219s-28.097656-62.699218-62.757812-62.699218zm0 0" fill="#b9e746"/></svg>