<svg height="512pt" viewBox="0 0 512 512" width="512pt" xmlns="http://www.w3.org/2000/svg"><path d="m391.78125 62.699219c0-34.625-28.097656-62.699219-62.757812-62.699219-34.660157 0-62.753907 28.074219-62.753907 62.699219 0 34.628906 28.09375 62.703125 62.753907 62.703125 34.660156 0 62.757812-28.074219 62.757812-62.703125zm0 0" fill="#cbed74"/><path d="m329.023438 0c-6.996094 0-13.714844 1.160156-20 3.269531 24.847656 8.347657 42.757812 31.792969 42.757812 59.429688 0 27.640625-17.910156 51.085937-42.757812 59.429687 6.285156 2.109375 13.003906 3.269532 20 3.269532 34.660156 0 62.757812-28.070313 62.757812-62.699219 0-34.628907-28.097656-62.699219-62.757812-62.699219zm0 0" fill="#b9e746"/><path d="m125.511719 125.402344c0-34.628906-28.097657-62.703125-62.753907-62.703125-34.660156 0-62.757812 28.074219-62.757812 62.703125 0 34.625 28.097656 62.699218 62.757812 62.699218 34.65625 0 62.753907-28.074218 62.753907-62.699218zm0 0" fill="#eb5793"/><path d="m62.757812 62.699219c-6.996093 0-13.71875 1.164062-20 3.273437 24.847657 8.34375 42.753907 31.789063 42.753907 59.429688 0 27.636718-17.90625 51.082031-42.753907 59.425781 6.28125 2.113281 13.003907 3.273437 20 3.273437 34.65625 0 62.753907-28.074218 62.753907-62.699218 0-34.628906-28.097657-62.703125-62.753907-62.703125zm0 0" fill="#e7387f"/><path d="m184.011719 419.90625c0-34.628906-28.097657-62.703125-62.757813-62.703125-34.65625 0-62.753906 28.074219-62.753906 62.703125s28.097656 62.699219 62.753906 62.699219c34.660156 0 62.757813-28.070313 62.757813-62.699219zm0 0" fill="#cbed74"/><path d="m121.253906 357.203125c-6.996094 0-13.714844 1.164063-20 3.273437 24.851563 8.34375 42.757813 31.789063 42.757813 59.429688 0 27.636719-17.90625 51.082031-42.757813 59.429688 6.285156 2.109374 13.003906 3.269531 20 3.269531 34.660156 0 62.757813-28.074219 62.757813-62.699219 0-34.628906-28.097657-62.703125-62.757813-62.703125zm0 0" fill="#b9e746"/><path d="m512 192.328125c0-34.628906-28.097656-62.699219-62.757812-62.699219-34.65625 0-62.753907 28.070313-62.753907 62.699219s28.097657 62.699219 62.753907 62.699219c34.660156 0 62.757812-28.070313 62.757812-62.699219zm0 0" fill="#eb5793"/><path d="m449.242188 129.628906c-6.996094 0-13.714844 1.160156-20 3.269532 24.851562 8.34375 42.757812 31.789062 42.757812 59.429687 0 27.636719-17.90625 51.082031-42.757812 59.429687 6.285156 2.109376 13.003906 3.269532 20 3.269532 34.660156 0 62.757812-28.074219 62.757812-62.699219 0-34.628906-28.097656-62.699219-62.757812-62.699219zm0 0" fill="#e7387f"/><path d="m274.222656 180.839844c0-34.628906-28.09375-62.699219-62.753906-62.699219s-62.757812 28.070313-62.757812 62.699219 28.097656 62.699218 62.757812 62.699218 62.753906-28.070312 62.753906-62.699218zm0 0" fill="#eb5793"/><path d="m211.46875 118.140625c-6.996094 0-13.714844 1.160156-20 3.269531 24.847656 8.347656 42.753906 31.789063 42.753906 59.429688s-17.90625 51.085937-42.753906 59.429687c6.285156 2.109375 13.003906 3.269531 20 3.269531 34.660156 0 62.753906-28.070312 62.753906-62.699218s-28.09375-62.699219-62.753906-62.699219zm0 0" fill="#e7387f"/><path d="m512 448.847656c0-34.628906-28.097656-62.699218-62.757812-62.699218-34.65625 0-62.753907 28.070312-62.753907 62.699218s28.097657 62.699219 62.753907 62.699219c34.660156 0 62.757812-28.070313 62.757812-62.699219zm0 0" fill="#cbed74"/><path d="m449.242188 386.148438c-6.996094 0-13.714844 1.160156-20 3.269531 24.851562 8.347656 42.757812 31.792969 42.757812 59.429687 0 27.636719-17.90625 51.082032-42.757812 59.429688 6.285156 2.109375 13.003906 3.269531 20 3.269531 34.660156 0 62.757812-28.070313 62.757812-62.699219s-28.097656-62.699218-62.757812-62.699218zm0 0" fill="#b9e746"/><path d="m377.972656 358.277344c0-34.628906-28.09375-62.699219-62.753906-62.699219s-62.757812 28.070313-62.757812 62.699219 28.097656 62.699218 62.757812 62.699218 62.753906-28.070312 62.753906-62.699218zm0 0" fill="#eb5793"/><path d="m315.21875 295.578125c-6.996094 0-13.714844 1.160156-20 3.269531 24.847656 8.347656 42.753906 31.792969 42.753906 59.429688 0 27.640625-17.90625 51.085937-42.753906 59.429687 6.285156 2.109375 13.003906 3.269531 20 3.269531 34.660156 0 62.753906-28.070312 62.753906-62.699218s-28.09375-62.699219-62.753906-62.699219zm0 0" fill="#e7387f"/></svg>