<svg height="512pt" viewBox="-19 0 512 512" width="512pt" xmlns="http://www.w3.org/2000/svg"><path d="m19.066406 91.699219 40.054688-23.125 41.992187 72.730469-40.054687 23.125zm0 0" fill="#c8d2dc"/><path d="m41.320312 78.851562 17.800782-10.277343 41.992187 72.730469-17.800781 10.277343zm0 0" fill="#b9c3cd"/><path d="m7.71875 105.96875c-2.664062 0-5.257812-1.382812-6.683594-3.855469-2.128906-3.6875-.867187-8.398437 2.820313-10.527343l62.773437-36.246094c3.6875-2.125 8.402344-.863282 10.53125 2.824218s.863282 8.398438-2.824218 10.527344l-62.773438 36.242188c-1.210938.703125-2.539062 1.035156-3.84375 1.035156zm0 0" fill="#40c1fa"/><path d="m373.980469 141.316406 41.992187-72.730468 40.054688 23.128906-41.992188 72.726562zm0 0" fill="#c8d2dc"/><path d="m396.230469 154.164062 41.992187-72.726562 17.804688 10.277344-41.992188 72.730468zm0 0" fill="#b9c3cd"/><path d="m467.382812 105.96875c-1.308593 0-2.632812-.332031-3.847656-1.035156l-62.773437-36.242188c-3.6875-2.128906-4.953125-6.839844-2.824219-10.527344 2.128906-3.691406 6.839844-4.949218 10.53125-2.824218l62.773438 36.242187c3.6875 2.128907 4.949218 6.84375 2.820312 10.53125-1.425781 2.472657-4.015625 3.855469-6.679688 3.855469zm0 0" fill="#40c1fa"/><path d="m199.554688 26.597656h75.992187v53.46875h-75.992187zm0 0" fill="#c8d2dc"/><path d="m246.097656 26.597656h29.449219v53.46875h-29.449219zm0 0" fill="#b9c3cd"/><path d="m190.054688 0h94.992187c5.246094 0 9.496094 4.253906 9.496094 9.5v14.246094c0 5.246094-4.25 9.5-9.496094 9.5h-94.992187c-5.246094 0-9.5-4.253906-9.5-9.5v-14.246094c0-5.246094 4.253906-9.5 9.5-9.5zm0 0" fill="#eb5793"/><path d="m285.042969 0h-37.996094c5.246094 0 9.5 4.253906 9.5 9.5v14.246094c0 5.246094-4.253906 9.5-9.5 9.5h37.996094c5.246093 0 9.5-4.253906 9.5-9.5v-14.246094c0-5.246094-4.25-9.5-9.5-9.5zm0 0" fill="#e7387f"/><path d="m460.777344 288.773438c0 123.285156-99.941406 223.226562-223.226563 223.226562-123.289062 0-223.230469-99.941406-223.230469-223.226562 0-123.285157 99.941407-223.230469 223.230469-223.230469 123.285157 0 223.226563 99.945312 223.226563 223.230469zm0 0" fill="#5f6c75"/><path d="m237.550781 65.542969c-5.871093 0-11.6875.230469-17.441406.675781 115.132813 8.894531 205.789063 105.136719 205.789063 222.554688 0 117.414062-90.65625 213.65625-205.789063 222.550781 5.753906.445312 11.570313.675781 17.441406.675781 123.285157 0 223.226563-99.941406 223.226563-223.226562 0-123.285157-99.941406-223.230469-223.226563-223.230469zm0 0" fill="#4e5a61"/><path d="m425.027344 288.773438c0 103.539062-83.9375 187.476562-187.476563 187.476562-103.542969 0-187.480469-83.9375-187.480469-187.476562 0-103.542969 83.9375-187.476563 187.480469-187.476563 103.539063 0 187.476563 83.933594 187.476563 187.476563zm0 0" fill="#e1edef"/><path d="m237.550781 101.296875c-5.882812 0-11.699219.28125-17.441406.8125 95.363281 8.796875 170.035156 89.003906 170.035156 186.660156 0 97.660157-74.671875 177.867188-170.035156 186.664063 5.742187.53125 11.558594.8125 17.441406.8125 103.539063 0 187.476563-83.933594 187.476563-187.476563 0-103.539062-83.9375-187.472656-187.476563-187.472656zm0 0" fill="#d2e4e7"/><path d="m149.589844 384.980469c-1.964844 0-3.929688-.746094-5.433594-2.242188-3.019531-3-3.03125-7.878906-.03125-10.902343l87.957031-88.496094c3.003907-3.019532 7.882813-3.035156 10.902344-.035156s3.035156 7.882812.03125 10.902343l-87.957031 88.5c-1.507813 1.515625-3.488282 2.273438-5.46875 2.273438zm0 0" fill="#e5646e"/><path d="m340.792969 399.722656c-1.972657 0-3.945313-.753906-5.449219-2.257812l-103.246094-103.242188c-3.007812-3.011718-3.007812-7.890625 0-10.902344 3.011719-3.007812 7.890625-3.007812 10.902344 0l103.246094 103.242188c3.007812 3.011719 3.007812 7.890625 0 10.902344-1.507813 1.507812-3.480469 2.257812-5.453125 2.257812zm0 0" fill="#ffea84"/><path d="m237.550781 296.480469c-4.257812 0-7.710937-3.449219-7.710937-7.707031v-100.304688c0-4.257812 3.453125-7.710938 7.710937-7.710938 4.257813 0 7.707031 3.453126 7.707031 7.710938v100.304688c0 4.257812-3.449218 7.707031-7.707031 7.707031zm0 0" fill="#40c1fa"/><path d="m281.148438 288.773438c0 24.078124-19.519532 43.597656-43.597657 43.597656-24.082031 0-43.601562-19.519532-43.601562-43.597656 0-24.082032 19.519531-43.601563 43.601562-43.601563 24.078125 0 43.597657 19.519531 43.597657 43.601563zm0 0" fill="#5f6c75"/><path d="m339.371094 216.824219c0 17.03125-13.804688 30.835937-30.835938 30.835937-17.027344 0-30.835937-13.804687-30.835937-30.835937s13.808593-30.835938 30.835937-30.835938c17.03125 0 30.835938 13.804688 30.835938 30.835938zm0 0" fill="#ffea84"/><path d="m338.753906 222.988281-26.835937-13.09375c-3.824219-1.863281-8.441407-.277343-10.308594 3.550781-1.867187 3.824219-.277344 8.441407 3.546875 10.304688l26.824219 13.089844c3.332031-3.898438 5.714843-8.632813 6.773437-13.851563zm0 0" fill="#909ba6"/><path d="m197.398438 216.824219c0 17.03125-13.808594 30.835937-30.835938 30.835937-17.03125 0-30.835938-13.804687-30.835938-30.835937s13.804688-30.835938 30.835938-30.835938c17.027344 0 30.835938 13.804688 30.835938 30.835938zm0 0" fill="#ffea84"/><path d="m151.023438 190.195312c-4.503907 2.632813-8.28125 6.375-10.953126 10.851563l21.015626 21.203125c1.507812 1.523438 3.492187 2.28125 5.476562 2.28125 1.960938 0 3.921875-.742188 5.425781-2.230469 3.023438-3 3.042969-7.878906.046875-10.90625zm0 0" fill="#909ba6"/><path d="m237.550781 245.171875c-6.8125 0-13.257812 1.566406-19 4.351563 14.558594 7.058593 24.601563 21.980468 24.601563 39.25 0 17.265624-10.039063 32.191406-24.601563 39.25 5.742188 2.785156 12.1875 4.347656 19 4.347656 24.078125 0 43.597657-19.519532 43.597657-43.597656 0-24.078126-19.519532-43.601563-43.597657-43.601563zm0 0" fill="#4e5a61"/><path d="m255.535156 288.773438c0 9.933593-8.050781 17.984374-17.984375 17.984374-9.9375 0-17.988281-8.050781-17.988281-17.984374 0-9.933594 8.050781-17.988282 17.988281-17.988282 9.933594 0 17.984375 8.054688 17.984375 17.988282zm0 0" fill="#e1edef"/><path d="m237.550781 270.785156c-2.503906 0-4.890625.511719-7.054687 1.4375 6.425781 2.742188 10.933594 9.121094 10.933594 16.550782 0 7.429687-4.507813 13.804687-10.933594 16.546874 2.164062.925782 4.550781 1.4375 7.054687 1.4375 9.933594 0 17.984375-8.050781 17.984375-17.984374 0-9.933594-8.050781-17.988282-17.984375-17.988282zm0 0" fill="#d2e4e7"/><g fill="#5f6c75"><path d="m160.996094 163.871094c-2.664063 0-5.257813-1.378906-6.683594-3.851563l-6.730469-11.660156c-2.132812-3.6875-.867187-8.402344 2.820313-10.53125s8.398437-.863281 10.53125 2.824219l6.730468 11.65625c2.128907 3.6875.863282 8.402344-2.820312 10.53125-1.214844.699218-2.539062 1.03125-3.847656 1.03125zm0 0"/><path d="m104.933594 219.921875c-1.308594 0-2.632813-.335937-3.847656-1.035156l-11.65625-6.730469c-3.6875-2.128906-4.953126-6.84375-2.824219-10.53125 2.128906-3.6875 6.839843-4.949219 10.53125-2.820312l11.65625 6.730468c3.6875 2.128906 4.949219 6.84375 2.824219 10.527344-1.429688 2.472656-4.019532 3.859375-6.683594 3.859375zm0 0"/><path d="m84.425781 296.480469h-13.464843c-4.257813 0-7.707032-3.449219-7.707032-7.707031 0-4.257813 3.449219-7.710938 7.707032-7.710938h13.464843c4.257813 0 7.707031 3.453125 7.707031 7.710938 0 4.257812-3.449218 7.707031-7.707031 7.707031zm0 0"/><path d="m93.289062 379.773438c-2.664062 0-5.253906-1.378907-6.683593-3.851563-2.128907-3.6875-.867188-8.402344 2.824219-10.53125l11.65625-6.734375c3.6875-2.125 8.402343-.863281 10.53125 2.824219 2.128906 3.6875.863281 8.402343-2.824219 10.53125l-11.65625 6.730469c-1.214844.699218-2.539063 1.03125-3.847657 1.03125zm0 0"/><path d="m154.25 440.75c-1.308594 0-2.636719-.335938-3.847656-1.035156-3.6875-2.128906-4.949219-6.84375-2.820313-10.53125l6.730469-11.65625c2.128906-3.6875 6.84375-4.949219 10.53125-2.824219 3.683594 2.128906 4.949219 6.84375 2.820312 10.53125l-6.730468 11.660156c-1.429688 2.472657-4.019532 3.855469-6.683594 3.855469zm0 0"/><path d="m237.550781 463.066406c-4.257812 0-7.710937-3.453125-7.710937-7.710937v-13.460938c0-4.257812 3.453125-7.707031 7.710937-7.707031 4.257813 0 7.707031 3.449219 7.707031 7.707031v13.460938c0 4.261719-3.449218 7.710937-7.707031 7.710937zm0 0"/><path d="m320.847656 440.75c-2.664062 0-5.253906-1.382812-6.679687-3.855469l-6.734375-11.660156c-2.128906-3.6875-.863282-8.398437 2.824218-10.53125 3.683594-2.125 8.398438-.863281 10.527344 2.824219l6.734375 11.660156c2.128907 3.683594.863281 8.398438-2.824219 10.527344-1.210937.699218-2.539062 1.035156-3.847656 1.035156zm0 0"/><path d="m381.808594 379.773438c-1.308594 0-2.632813-.332032-3.847656-1.03125l-11.65625-6.734376c-3.6875-2.128906-4.949219-6.84375-2.824219-10.527343 2.128906-3.691407 6.847656-4.953125 10.53125-2.824219l11.660156 6.734375c3.6875 2.128906 4.949219 6.839844 2.820313 10.527344-1.429688 2.476562-4.019532 3.855469-6.683594 3.855469zm0 0"/><path d="m404.136719 296.480469h-13.464844c-4.257813 0-7.707031-3.449219-7.707031-7.707031 0-4.257813 3.449218-7.710938 7.707031-7.710938h13.464844c4.257812 0 7.707031 3.453125 7.707031 7.710938 0 4.257812-3.449219 7.707031-7.707031 7.707031zm0 0"/><path d="m370.164062 219.921875c-2.664062 0-5.253906-1.382813-6.683593-3.855469-2.128907-3.6875-.863281-8.402344 2.824219-10.53125l11.65625-6.730468c3.6875-2.128907 8.402343-.867188 10.53125 2.820312 2.128906 3.6875.863281 8.402344-2.820313 10.53125l-11.660156 6.730469c-1.210938.699219-2.539063 1.035156-3.847657 1.035156zm0 0"/><path d="m314.101562 163.871094c-1.304687 0-2.632812-.332032-3.84375-1.03125-3.6875-2.128906-4.953124-6.84375-2.824218-10.53125l6.734375-11.660156c2.128906-3.6875 6.84375-4.949219 10.527343-2.820313 3.6875 2.128906 4.949219 6.84375 2.824219 10.53125l-6.734375 11.65625c-1.425781 2.476563-4.019531 3.855469-6.683594 3.855469zm0 0"/><path d="m237.550781 143.355469c-4.257812 0-7.710937-3.449219-7.710937-7.707031v-13.464844c0-4.257813 3.453125-7.707032 7.710937-7.707032 4.257813 0 7.707031 3.449219 7.707031 7.707032v13.464844c0 4.257812-3.449218 7.707031-7.707031 7.707031zm0 0"/></g></svg>