<svg height="512pt" viewBox="-114 0 512 512.001" width="512pt" xmlns="http://www.w3.org/2000/svg"><path d="m26.980469 0h230.335937c14.898438 0 26.976563 12.078125 26.976563 26.980469v458.042969c0 14.898437-12.078125 26.976562-26.976563 26.976562h-230.335937c-14.902344 0-26.980469-12.078125-26.980469-26.976562v-458.042969c0-14.902344 12.078125-26.980469 26.980469-26.980469zm0 0" fill="#d5f1fe"/><path d="m257.335938 0h-39.933594c14.886718 0 26.957031 12.089844 26.957031 27v458c0 14.910156-12.070313 27-26.957031 27h39.933594c14.886718 0 26.957031-12.089844 26.957031-27v-458c0-14.910156-12.070313-27-26.957031-27zm0 0" fill="#b4e7fd"/><g fill="#40c1fa"><path d="m196.570312 309.703125h-108.847656c-4.132812 0-7.484375-3.355469-7.484375-7.5s3.351563-7.5 7.484375-7.5h108.847656c4.136719 0 7.488282 3.355469 7.488282 7.5s-3.351563 7.5-7.488282 7.5zm0 0"/><path d="m196.570312 209.703125h-108.847656c-4.132812 0-7.484375-3.355469-7.484375-7.5s3.351563-7.5 7.484375-7.5h108.847656c4.136719 0 7.488282 3.355469 7.488282 7.5s-3.351563 7.5-7.488282 7.5zm0 0"/><path d="m196.570312 259.703125h-108.847656c-4.132812 0-7.484375-3.355469-7.484375-7.5s3.351563-7.5 7.484375-7.5h108.847656c4.136719 0 7.488282 3.355469 7.488282 7.5s-3.351563 7.5-7.488282 7.5zm0 0"/><path d="m196.570312 159.703125h-108.847656c-4.132812 0-7.484375-3.355469-7.484375-7.5s3.351563-7.5 7.484375-7.5h108.847656c4.136719 0 7.488282 3.355469 7.488282 7.5s-3.351563 7.5-7.488282 7.5zm0 0"/><path d="m196.570312 109.703125h-108.847656c-4.132812 0-7.484375-3.355469-7.484375-7.5s3.351563-7.5 7.484375-7.5h108.847656c4.136719 0 7.488282 3.355469 7.488282 7.5s-3.351563 7.5-7.488282 7.5zm0 0"/></g><path d="m162.117188 349.636719v-280.152344c0-11.03125-8.941407-19.96875-19.96875-19.96875-11.027344 0-19.96875 8.9375-19.96875 19.96875v280.152344c-23.265626 8.238281-39.9375 30.449219-39.9375 56.574219 0 33.136718 26.820312 60 59.90625 60 33.085937 0 59.90625-26.863282 59.90625-60-.003907-26.125-16.675782-48.335938-39.9375-56.574219zm0 0" fill="#e5646e"/><path d="m162.117188 349.636719v-280.121094c0-11.046875-8.941407-20-19.96875-20-3.640626 0-7.046876.992187-9.984376 2.695313 5.960938 3.460937 9.984376 9.902343 9.984376 17.300781v284.179687c18.449218 10.222656 30.949218 29.902344 30.949218 52.515625 0 28.136719-19.339844 51.738281-45.425781 58.226563 4.636719 1.152344 9.484375 1.773437 14.476563 1.773437 33.085937 0 59.902343-26.863281 59.902343-60 0-26.121093-16.671875-48.332031-39.933593-56.570312zm0 0" fill="#e04955"/><path d="m162.117188 171.492188v-101.976563c0-11.046875-8.941407-20-19.96875-20-11.027344 0-19.96875 8.953125-19.96875 20v101.972656h39.9375zm0 0" fill="#e1edef"/><path d="m142.148438 49.515625c-3.640626 0-7.046876.992187-9.984376 2.699219 5.960938 3.457031 9.984376 9.902344 9.984376 17.300781v101.976563h19.96875v-101.976563c0-11.046875-8.941407-20-19.96875-20zm0 0" fill="#d2e4e7"/></svg>