<svg height="511pt" viewBox="1 0 511.9995 511" width="511pt" xmlns="http://www.w3.org/2000/svg"><path d="m263.371094 6.585938 11.410156 59.574218c3.40625 17.78125 26.726562 22.414063 36.683594 7.289063l33.363281-50.675781c4.546875-6.902344 15.289063-2.457032 13.617187 5.636718l-12.273437 59.402344c-3.664063 17.730469 16.101563 30.929688 31.097656 20.761719l50.230469-34.0625c6.84375-4.640625 15.066406 3.574219 10.421875 10.414062l-34.089844 50.1875c-10.179687 14.980469 3.03125 34.730469 20.777344 31.070313l59.453125-12.261719c8.101562-1.671875 12.550781 9.0625 5.640625 13.605469l-50.71875 33.332031c-15.140625 9.949219-10.5 33.246094 7.296875 36.648437l59.625 11.40625c8.125 1.550782 8.125 13.167969 0 14.722657l-59.625 11.402343c-17.796875 3.40625-22.4375 26.703126-7.296875 36.652344l50.71875 33.332032c6.910156 4.542968 2.460937 15.277343-5.640625 13.605468l-59.453125-12.261718c-17.746094-3.660157-30.957031 16.089843-20.777344 31.070312l34.089844 50.1875c4.644531 6.835938-3.578125 15.050781-10.421875 10.414062l-50.230469-34.0625c-14.996093-10.167968-34.761719 3.03125-31.097656 20.761719l12.269531 59.402344c1.675782 8.089844-9.070312 12.539063-13.613281 5.632813l-33.363281-50.671876c-9.957032-15.125-33.277344-10.492187-36.683594 7.289063l-11.414062 59.570313c-1.554688 8.117187-13.183594 8.117187-14.738282 0l-11.410156-59.570313c-3.410156-17.78125-26.726562-22.417969-36.683594-7.289063l-33.363281 50.671876c-4.542969 6.90625-15.289063 2.460937-13.617187-5.632813l12.273437-59.402344c3.664063-17.730469-16.105469-30.929687-31.097656-20.761719l-50.230469 34.0625c-6.84375 4.636719-15.066406-3.578124-10.421875-10.414062l34.089844-50.1875c10.175781-14.980469-3.03125-34.730469-20.777344-31.070312l-59.457031 12.261718c-8.097656 1.671875-12.546875-9.0625-5.636719-13.605468l50.714844-33.332032c15.140625-9.949218 10.503906-33.246094-7.296875-36.652344l-59.621094-11.402343c-8.125-1.554688-8.125-13.171875 0-14.726563l59.625-11.402344c17.796875-3.402343 22.433594-26.703124 7.296875-36.652343l-50.71875-33.332031c-6.910156-4.539063-2.460937-15.273438 5.640625-13.605469l59.453125 12.261719c17.746094 3.660156 30.957031-16.089844 20.78125-31.070313l-34.09375-50.183594c-4.644531-6.839843 3.578125-15.054687 10.421875-10.414062l50.230469 34.0625c14.992187 10.167969 34.761719-3.03125 31.097656-20.761719l-12.273437-59.402344c-1.671876-8.089844 9.074218-12.539062 13.617187-5.632812l33.363281 50.671875c9.957032 15.125 33.273438 10.492187 36.683594-7.289063l11.410156-59.574218c1.558594-8.117188 13.183594-8.117188 14.742188 0zm0 0" fill="#e1edef"/><path d="m256 413.632812c-5.789062 0-10.59375-3.964843-11.683594-9.648437l-6.6875-34.90625c-.492187-2.582031-2.542968-3.257813-3.40625-3.425781-.855468-.171875-3.011718-.332032-4.457031 1.863281l-19.546875 29.691406c-3.183594 4.832031-9.140625 6.660157-14.492188 4.449219-5.351562-2.214844-8.269531-7.71875-7.097656-13.386719l7.191406-34.804687c.53125-2.570313-1.105468-3.980469-1.835937-4.464844-.726563-.488281-2.65625-1.460938-4.832031.015625l-29.433594 19.957031c-4.789062 3.25-10.996094 2.664063-15.089844-1.429687-4.09375-4.089844-4.683594-10.292969-1.433594-15.078125l19.976563-29.40625c1.476563-2.175782.503906-4.101563.019531-4.828125-.488281-.730469-1.894531-2.355469-4.472656-1.832031l-34.835938 7.183593c-5.667968 1.175781-11.179687-1.746093-13.394531-7.089843-2.21875-5.34375-.386719-11.296876 4.453125-14.476563l29.71875-19.53125c2.195313-1.445313 2.035156-3.597656 1.863282-4.453125-.171876-.859375-.847657-2.910156-3.429688-3.402344l-34.933594-6.683594c-5.691406-1.085937-9.660156-5.886718-9.660156-11.671874 0-5.785157 3.96875-10.585938 9.660156-11.671876l34.933594-6.683593c2.582031-.492188 3.257812-2.542969 3.429688-3.398438.171874-.859375.332031-3.011719-1.863282-4.457031l-29.71875-19.53125c-4.839844-3.179688-6.671875-9.132812-4.453125-14.476562 2.214844-5.34375 7.722657-8.265626 13.394531-7.089844l34.835938 7.183594c2.574219.523437 3.984375-1.105469 4.472656-1.832032.484375-.726562 1.457032-2.652344-.019531-4.828125l-19.976563-29.40625c-3.25-4.789062-2.660156-10.988281 1.433594-15.078125 4.09375-4.09375 10.300782-4.679687 15.09375-1.429687l29.429688 19.957031c2.175781 1.472656 4.105468.503906 4.832031.015625.730469-.484375 2.367187-1.890625 1.835937-4.464844l-7.191406-34.804687c-1.171875-5.667969 1.746094-11.171875 7.097656-13.386719 5.347657-2.210937 11.308594-.382813 14.492188 4.449219l19.546875 29.691406c1.445313 2.195312 3.601563 2.035156 4.457031 1.867188.859375-.171876 2.914063-.847657 3.40625-3.429688l6.6875-34.902344c1.089844-5.683594 5.894532-9.652344 11.683594-9.652344s10.59375 3.96875 11.683594 9.652344l6.6875 34.902344c.496094 2.582031 2.546875 3.257812 3.40625 3.429688.863281.171874 3.015625.328124 4.457031-1.867188l19.550781-29.691406c3.179688-4.832032 9.136719-6.664063 14.488282-4.445313 5.351562 2.210938 8.269531 7.714844 7.097656 13.382813l-7.191406 34.804687c-.53125 2.574219 1.105468 3.980469 1.835937 4.46875.726563.484375 2.652344 1.453125 4.832031-.019531l29.429688-19.957031c4.792968-3.25 10.996094-2.664063 15.09375 1.429687 4.097656 4.089844 4.683594 10.292969 1.429687 15.078125l-19.972656 29.40625c-1.476563 2.175781-.503906 4.101563-.019531 4.828125.488281.730469 1.894531 2.355469 4.472656 1.832032l34.835938-7.183594c5.664062-1.167969 11.179687 1.746094 13.394531 7.089844 2.21875 5.347656.386719 11.300781-4.453125 14.476562l-29.714844 19.53125c-2.199219 1.445312-2.039062 3.597656-1.867188 4.457031.171876.859375.847657 2.90625 3.429688 3.398438l34.9375 6.683593c5.6875 1.089844 9.660156 5.886719 9.660156 11.671876 0 5.785156-3.972656 10.585937-9.660156 11.675781l-34.9375 6.679687c-2.582031.496094-3.257812 2.542969-3.429688 3.402344-.171874.855469-.332031 3.011719 1.867188 4.453125l29.714844 19.53125c4.839844 3.179687 6.671875 9.132813 4.453125 14.476563-2.214844 5.34375-7.726563 8.261718-13.394531 7.09375l-34.835938-7.1875c-2.574219-.519532-3.984375 1.105468-4.472656 1.832031-.488282.726562-1.457032 2.65625.019531 4.828125l19.972656 29.40625c3.253907 4.789062 2.664063 10.988281-1.429687 15.078125-4.097656 4.09375-10.300782 4.683593-15.09375 1.429687l-29.433594-19.953125c-2.175781-1.476562-4.101562-.507812-4.832031-.019531-.726563.484375-2.363281 1.894531-1.832031 4.46875l7.191406 34.804688c1.171875 5.664062-1.75 11.167968-7.097656 13.382812-5.351563 2.210938-11.3125.382812-14.492188-4.449219l-19.546875-29.691406c-1.445313-2.195313-3.601563-2.035156-4.460937-1.863281-.855469.167968-2.90625.84375-3.402344 3.425781l-6.6875 34.90625c-1.089844 5.683594-5.894532 9.648437-11.683594 9.648437zm-22.660156-63.058593c1.261718 0 2.535156.125 3.8125.378906 7.753906 1.542969 13.722656 7.550781 15.210937 15.308594l3.636719 18.992187 3.640625-18.992187c1.484375-7.757813 7.453125-13.765625 15.207031-15.308594 7.75-1.542969 15.574219 1.726563 19.917969 8.328125l10.636719 16.15625-3.910156-18.9375c-1.601563-7.738281 1.613281-15.570312 8.1875-19.960938 6.574218-4.386718 15.046874-4.355468 21.589843.078126l16.015625 10.859374-10.871094-16c-4.4375-6.535156-4.46875-15.003906-.078124-21.570312 4.394531-6.570312 12.238281-9.78125 19.976562-8.183594l18.953125 3.910156-16.167969-10.625c-6.601562-4.34375-9.875-12.152343-8.332031-19.898437 1.542969-7.75 7.554687-13.710937 15.320313-15.199219l19.007812-3.636718-19.007812-3.636719c-7.765626-1.484375-13.78125-7.445313-15.320313-15.195313-1.542969-7.746094 1.726563-15.558594 8.332031-19.898437l16.167969-10.625-18.953125 3.90625c-7.742188 1.597656-15.585938-1.613281-19.976562-8.179688-4.390626-6.566406-4.359376-15.035156.078124-21.570312l10.867188-16-16.011719 10.855469c-6.542969 4.4375-15.019531 4.46875-21.589843.078124-6.574219-4.386718-9.789063-12.222656-8.191407-19.957031l3.914063-18.9375-10.636719 16.15625c-4.347656 6.601563-12.160156 9.875-19.917969 8.324219-7.753906-1.539062-13.722656-7.546875-15.210937-15.304688l-3.636719-18.996093-3.640625 18.992187c-1.484375 7.757813-7.457031 13.765625-15.210937 15.308594-7.75 1.535156-15.570313-1.726562-19.914063-8.328125l-10.636719-16.15625 3.914063 18.9375c1.597656 7.738281-1.617188 15.570313-8.191407 19.960937-6.574218 4.386719-15.046874 4.355469-21.589843-.078124l-16.015625-10.859376 10.871094 16c4.4375 6.535157 4.46875 15.003907.078124 21.570313-4.394531 6.566406-12.234374 9.777344-19.976562 8.183594l-18.953125-3.910157 16.167969 10.625c6.605468 4.34375 9.875 12.152344 8.332031 19.898438-1.542969 7.75-7.554687 13.714844-15.320313 15.199219l-19.003906 3.636719 19.007813 3.636718c7.761719 1.484375 13.777343 7.449219 15.320312 15.195313 1.542969 7.75-1.730469 15.558593-8.335937 19.898437l-16.167969 10.625 18.953125-3.90625c7.742188-1.59375 15.585938 1.613282 19.976562 8.179688 4.394532 6.566406 4.363282 15.035156-.078124 21.574218l-10.867188 16 16.011719-10.863281c6.542969-4.433593 15.019531-4.464843 21.589843-.078125 6.574219 4.390625 9.789063 12.222656 8.191407 19.960938l-3.914063 18.9375 10.636719-16.15625c3.632813-5.511719 9.6875-8.703125 16.105469-8.703125zm0 0" fill="#7e8b96"/><path d="m316 256.273438c0-33.109376-26.863281-59.945313-60-59.945313s-60 26.835937-60 59.945313c0 33.109374 26.863281 59.945312 60 59.945312s60-26.835938 60-59.945312zm0 0" fill="#ffea84"/><path d="m256 196.328125c-7.015625 0-13.742188 1.210937-20 3.421875 23.300781 8.234375 40 30.425781 40 56.523438 0 26.097656-16.699219 48.292968-40 56.523437 6.257812 2.207031 12.984375 3.421875 20 3.421875 33.136719 0 60-26.835938 60-59.945312 0-33.109376-26.863281-59.945313-60-59.945313zm0 0" fill="#ffe046"/></svg>