<svg height="512pt" viewBox="-52 0 512 512" width="512pt" xmlns="http://www.w3.org/2000/svg"><path d="m371.609375 145.570312h-85.523437v38h117.355468c2.761719 0 5-2.238281 5-5v-5.96875c0-1.597656-.761718-3.097656-2.054687-4.042968l-28.886719-21.066406c-1.710938-1.25-3.773438-1.921876-5.890625-1.921876zm0 0" fill="#909ba6"/><path d="m406.386719 168.558594-28.886719-21.066406c-1.710938-1.25-3.773438-1.921876-5.890625-1.921876h-40c2.117187 0 4.179687.671876 5.890625 1.921876l28.886719 21.066406c1.292969.941406 2.054687 2.445312 2.054687 4.042968v5.96875c0 2.761719-2.238281 5-5 5h40c2.761719 0 5-2.238281 5-5v-5.96875c0-1.597656-.761718-3.101562-2.054687-4.042968zm0 0" fill="#7e8b96"/><path d="m371.609375 118.140625h-85.523437v-38h117.355468c2.761719 0 5 2.238281 5 5v5.972656c0 1.597657-.761718 3.097657-2.054687 4.039063l-28.886719 21.066406c-1.710938 1.25-3.773438 1.921875-5.890625 1.921875zm0 0" fill="#c8d2dc"/><path d="m403.441406 80.140625h-40c2.761719 0 5 2.238281 5 5v5.96875c0 1.597656-.761718 3.101563-2.054687 4.042969l-28.886719 21.066406c-1.710938 1.25-3.773438 1.921875-5.890625 1.921875h40c2.117187 0 4.179687-.671875 5.890625-1.921875l28.886719-21.066406c1.292969-.941406 2.054687-2.441406 2.054687-4.042969v-5.96875c0-2.761719-2.238281-5-5-5zm0 0" fill="#b9c3cd"/><path d="m327.183594 56.78125-23.046875-50.90625c-1.621094-3.578125-5.183594-5.875-9.109375-5.875h-130.257813c-1.015625 0-2.027343.15625-3 .460938l-114.269531 35.925781c-2.082031.65625-3.5 2.585937-3.5 4.769531v8.84375c0 5.523438 4.476562 10 10 10h156.582031c5.523438 0 10 4.476562 10 10v442h107.492188v-451.09375c0-1.421875-.304688-2.828125-.890625-4.125zm0 0" fill="#c8d2dc"/><path d="m327.183594 56.78125-23.046875-50.90625c-1.621094-3.578125-5.183594-5.875-9.109375-5.875h-40c3.925781 0 7.488281 2.296875 9.109375 5.875l23.046875 50.90625c.585937 1.296875.890625 2.703125.890625 4.125v451.09375h40v-451.09375c0-1.421875-.304688-2.828125-.890625-4.125zm0 0" fill="#b9c3cd"/><path d="m265.714844 170.5c0-4.265625-3.457032-7.71875-7.722656-7.71875h-37.410157v15.4375h37.410157c4.265624 0 7.722656-3.453125 7.722656-7.71875zm0 0" fill="#7e8b96"/><path d="m265.714844 140.5c0-4.265625-3.457032-7.71875-7.722656-7.71875h-37.410157v15.4375h37.410157c4.265624 0 7.722656-3.453125 7.722656-7.71875zm0 0" fill="#7e8b96"/><path d="m265.714844 110.5c0-4.265625-3.457032-7.71875-7.722656-7.71875h-37.410157v15.4375h37.410157c4.265624 0 7.722656-3.453125 7.722656-7.71875zm0 0" fill="#7e8b96"/><path d="m164.832031 269h72.445313v-60h-178.355469c-5.523437 0-10 4.476562-10 10v8.890625c0 2.160156 1.390625 4.078125 3.441406 4.75l109.351563 35.863281c1.007812.328125 2.058594.496094 3.117187.496094zm0 0" fill="#7e8b96"/><path d="m158.515625 209v58.453125l3.199219 1.050781c1.003906.328125 2.058594.496094 3.113281.496094h72.449219v-60zm0 0" fill="#5f6c75"/><path d="m337.265625 476.46875h-128.847656c-5.523438 0-10-4.480469-10-10v-247.46875c0-5.523438 4.476562-10 10-10h128.847656c5.519531 0 10 4.476562 10 10v247.46875c0 5.519531-4.476563 10-10 10zm0 0" fill="#909ba6"/><path d="m337.265625 209h-40c5.523437 0 10 4.476562 10 10v247.46875c0 5.519531-4.476563 10-10 10h40c5.523437 0 10-4.480469 10-10v-247.46875c0-5.523438-4.476563-10-10-10zm0 0" fill="#7e8b96"/><g fill="#c8d2dc"><path d="m291.554688 440.453125h-37.425782c-4.265625 0-7.71875-3.457031-7.71875-7.71875 0-4.265625 3.453125-7.722656 7.71875-7.722656h37.425782c4.261718 0 7.71875 3.457031 7.71875 7.722656 0 4.261719-3.457032 7.71875-7.71875 7.71875zm0 0"/><path d="m291.554688 410.453125h-37.425782c-4.265625 0-7.71875-3.457031-7.71875-7.71875 0-4.265625 3.453125-7.722656 7.71875-7.722656h37.425782c4.261718 0 7.71875 3.457031 7.71875 7.722656 0 4.261719-3.457032 7.71875-7.71875 7.71875zm0 0"/><path d="m291.554688 380.453125h-37.425782c-4.265625 0-7.71875-3.457031-7.71875-7.71875 0-4.265625 3.453125-7.722656 7.71875-7.722656h37.425782c4.261718 0 7.71875 3.457031 7.71875 7.722656 0 4.261719-3.457032 7.71875-7.71875 7.71875zm0 0"/><path d="m291.554688 350.453125h-37.425782c-4.265625 0-7.71875-3.457031-7.71875-7.71875 0-4.265625 3.453125-7.722656 7.71875-7.722656h37.425782c4.261718 0 7.71875 3.457031 7.71875 7.722656 0 4.261719-3.457032 7.71875-7.71875 7.71875zm0 0"/><path d="m291.554688 320.453125h-37.425782c-4.265625 0-7.71875-3.457031-7.71875-7.71875 0-4.265625 3.453125-7.71875 7.71875-7.71875h37.425782c4.261718 0 7.71875 3.453125 7.71875 7.71875 0 4.261719-3.457032 7.71875-7.71875 7.71875zm0 0"/><path d="m291.554688 290.453125h-37.425782c-4.265625 0-7.71875-3.457031-7.71875-7.71875 0-4.265625 3.453125-7.722656 7.71875-7.722656h37.425782c4.261718 0 7.71875 3.457031 7.71875 7.722656 0 4.261719-3.457032 7.71875-7.71875 7.71875zm0 0"/><path d="m291.554688 260.453125h-37.425782c-4.265625 0-7.71875-3.457031-7.71875-7.71875 0-4.265625 3.453125-7.722656 7.71875-7.722656h37.425782c4.261718 0 7.71875 3.457031 7.71875 7.722656 0 4.261719-3.457032 7.71875-7.71875 7.71875zm0 0"/></g><path d="m138.742188 209h-128.484376c-5.664062 0-10.257812-4.59375-10.257812-10.257812v-128.484376c0-5.664062 4.59375-10.257812 10.257812-10.257812h128.484376c5.664062 0 10.257812 4.59375 10.257812 10.257812v128.484376c0 5.664062-4.59375 10.257812-10.257812 10.257812zm0 0" fill="#72d1fb"/><path d="m139.132812 60h-37.019531c5.449219 0 9.867188 4.773438 9.867188 10.660156v127.679688c0 5.886718-4.417969 10.660156-9.867188 10.660156h37.019531c5.449219 0 9.867188-4.773438 9.867188-10.660156v-127.679688c0-5.886718-4.417969-10.660156-9.867188-10.660156zm0 0" fill="#40c1fa"/></svg>