<svg height="512pt" viewBox="0 0 512.00081 512" width="512pt" xmlns="http://www.w3.org/2000/svg"><path d="m256 311.746094c-55.082031 0-104.515625-28.390625-132.238281-75.941406l-121.238281-207.9375c-5.15625-8.84375-2.160157-20.191407 6.691406-25.34375 8.855468-5.152344 20.210937-2.160157 25.367187 6.683593l121.234375 207.9375c21.003906 36.023438 58.457032 57.53125 100.183594 57.53125 41.730469 0 79.179688-21.507812 100.183594-57.53125l121.234375-207.9375c5.15625-8.84375 16.511719-11.835937 25.367187-6.683593 8.851563 5.152343 11.847656 16.5 6.691406 25.34375l-121.238281 207.9375c-27.722656 47.550781-77.160156 75.941406-132.238281 75.941406zm0 0" fill="#d5f1fe"/><path d="m14.582031 9.207031 121.234375 207.9375c21.003906 36.023438 58.457032 57.53125 100.183594 57.53125 3.363281 0 6.699219-.152343 10-.429687-37.65625-3.148438-70.871094-23.980469-90.183594-57.101563l-121.234375-207.9375c-5.15625-8.84375-16.511719-11.835937-25.367187-6.683593-.226563.132812-.433594.285156-.652344.425781 2.398438 1.535156 4.488281 3.628906 6.019531 6.257812zm0 0" fill="#b4e7fd"/><path d="m502.785156 2.523438c-6.222656-3.621094-13.675781-3.207032-19.347656.425781 8.328125 5.324219 11.0625 16.300781 6.039062 24.917969l-121.238281 207.9375c-26.035156 44.652343-71.214843 72.40625-122.238281 75.621093 3.308594.210938 6.644531.320313 10 .320313 55.078125 0 104.515625-28.390625 132.238281-75.941406l121.238281-207.9375c5.15625-8.84375 2.160157-20.191407-6.691406-25.34375zm0 0" fill="#b4e7fd"/><path d="m246.921875 211.207031-143.335937 104.046875c-5.421876 3.9375-7.6875 10.914063-5.617188 17.285156l54.746094 168.335938c2.066406 6.363281 8 10.671875 14.691406 10.671875h177.183594c6.695312 0 12.625-4.308594 14.695312-10.671875l54.746094-168.335938c2.070312-6.371093-.199219-13.347656-5.621094-17.28125l-143.332031-104.050781c-5.414063-3.929687-12.742187-3.929687-18.15625 0zm0 0" fill="#ffea84"/><path d="m408.414062 315.253906-143.335937-104.046875c-5.414063-3.929687-12.742187-3.929687-18.15625 0l-19.328125 14.035157 139.613281 101.34375c5.421875 3.9375 7.6875 10.914062 5.617188 17.285156l-54.53125 167.675781h26.300781c6.691406 0 12.625-4.308594 14.695312-10.675781l54.742188-168.332032c2.070312-6.371093-.199219-13.347656-5.617188-17.285156zm0 0" fill="#ffe046"/><path d="m319.476562 462.089844c-2.066406 0-4.09375-.855469-5.542968-2.445313l-113.804688-124.707031.613282 114.59375c.023437 4.136719-3.316407 7.511719-7.457032 7.53125-.015625 0-.027344 0-.042968 0-4.121094 0-7.476563-3.328125-7.5-7.453125l-.71875-134.085937c-.015626-3.101563 1.882812-5.890626 4.769531-7.019532 2.894531-1.128906 6.183593-.359375 8.273437 1.933594l113.8125 124.714844-.621094-123.382813c-.023437-4.136719 3.316407-7.511719 7.460938-7.53125h.039062c4.125 0 7.476563 3.332031 7.5 7.457031l.71875 142.867188c.015626 3.097656-1.882812 5.890625-4.773437 7.015625-.886719.347656-1.808594.511719-2.726563.511719zm0 0" fill="#e5646e"/></svg>