<svg height="512pt" viewBox="0 -44 512 512" width="512pt" xmlns="http://www.w3.org/2000/svg"><path d="m504.714844 172.816406v77.722656h-77.726563v-77.722656zm0 0" fill="#5f6c75"/><path d="m478.480469 172.816406h26.234375v77.722656h-26.234375zm0 0" fill="#4e5a61"/><path d="m512 7.285156c0 4.027344-3.261719 7.289063-7.285156 7.289063h-91.898438c-22.765625 0-41.289062 18.523437-41.289062 41.289062v311.628907c0 22.769531 18.523437 41.292968 41.289062 41.292968h91.898438c4.023437 0 7.285156 3.261719 7.285156 7.285156 0 4.027344-3.261719 7.289063-7.285156 7.289063h-91.898438c-30.804687 0-55.863281-25.0625-55.863281-55.863281v-311.632813c0-30.800781 25.0625-55.85937475 55.863281-55.85937475h91.898438c4.023437-.00390625 7.285156 3.25781275 7.285156 7.28124975zm0 0" fill="#5f6c75"/><path d="m398.671875 96.871094v229.613281c0 5.367187-4.351563 9.714844-9.71875 9.714844h-49.425781c-5.367188 0-9.714844-4.347657-9.714844-9.714844v-229.613281c0-5.367188 4.351562-9.714844 9.714844-9.714844h49.425781c5.367187 0 9.71875 4.351562 9.71875 9.714844zm0 0" fill="#ffea84"/><path d="m388.953125 87.15625h-31.089844c5.367188 0 9.714844 4.351562 9.714844 9.714844v229.613281c0 5.367187-4.347656 9.714844-9.714844 9.714844h31.089844c5.367187 0 9.714844-4.347657 9.714844-9.714844v-229.613281c.003906-5.363282-4.347657-9.714844-9.714844-9.714844zm0 0" fill="#ffe046"/><path d="m454.328125 177.511719v67.464843c0 26.828126-21.746094 48.578126-48.574219 48.578126h-121.886718c-5.367188 0-9.714844-4.351563-9.714844-9.714844v-145.191406c0-5.367188 4.351562-9.714844 9.714844-9.714844h121.886718c26.828125 0 48.574219 21.75 48.574219 48.578125zm0 0" fill="#e1edef"/><path d="m405.753906 128.933594h-38.863281c26.828125 0 48.578125 21.75 48.578125 48.578125v67.464843c0 26.828126-21.75 48.578126-48.578125 48.578126h38.863281c26.828125 0 48.574219-21.75 48.574219-48.578126v-67.464843c0-26.828125-21.746094-48.578125-48.574219-48.578125zm0 0" fill="#d2e4e7"/><path d="m7.285156 250.539062v-77.722656h77.726563v77.722656zm0 0" fill="#5f6c75"/><path d="m29.632812 172.816406h55.378907v77.722656h-55.378907zm0 0" fill="#4e5a61"/><path d="m155.046875 55.863281v311.628907c0 30.804687-25.0625 55.863281-55.863281 55.863281h-91.898438c-4.023437 0-7.285156-3.261719-7.285156-7.285157 0-4.023437 3.261719-7.289062 7.285156-7.289062h91.898438c22.765625 0 41.289062-18.519531 41.289062-41.289062v-311.628907c0-22.769531-18.523437-41.289062-41.289062-41.289062h-91.898438c-4.023437 0-7.285156-3.261719-7.285156-7.289063 0-4.023437 3.261719-7.285156 7.285156-7.285156h91.898438c30.800781 0 55.863281 25.058594 55.863281 55.863281zm0 0" fill="#5f6c75"/><path d="m182.1875 96.4375v229.613281c0 5.367188-4.347656 9.714844-9.714844 9.714844h-49.425781c-5.367187 0-9.714844-4.351563-9.714844-9.714844v-229.613281c0-5.367188 4.347657-9.714844 9.714844-9.714844h49.425781c5.367188 0 9.714844 4.347656 9.714844 9.714844zm0 0" fill="#ffea84"/><path d="m172.472656 86.722656h-31.089844c5.367188 0 9.714844 4.347656 9.714844 9.714844v229.613281c0 5.367188-4.347656 9.714844-9.714844 9.714844h31.089844c5.367188 0 9.714844-4.351563 9.714844-9.714844v-229.613281c0-5.367188-4.347656-9.714844-9.714844-9.714844zm0 0" fill="#ffe046"/><path d="m237.847656 138.648438v145.191406c0 5.363281-4.351562 9.714844-9.714844 9.714844h-121.886718c-26.828125 0-48.574219-21.75-48.574219-48.578126v-67.464843c0-26.828125 21.746094-48.578125 48.574219-48.578125h121.886718c5.367188 0 9.714844 4.347656 9.714844 9.714844zm0 0" fill="#e1edef"/><path d="m228.132812 128.933594h-38.863281c5.367188 0 9.714844 4.351562 9.714844 9.714844v145.191406c0 5.363281-4.347656 9.714844-9.714844 9.714844h38.863281c5.367188 0 9.714844-4.351563 9.714844-9.714844v-145.191406c0-5.367188-4.347656-9.714844-9.714844-9.714844zm0 0" fill="#d2e4e7"/><path d="m288.316406 217.414062h109.566406l-8.027343 5.71875c-2.582031 1.839844-3.183594 5.421876-1.34375 8 1.835937 2.578126 5.417969 3.183594 8 1.34375l22.640625-16.125c3.136718-2.253906 3.148437-7.105468 0-9.34375l-22.640625-16.125c-1.011719-.71875-2.171875-1.066406-3.324219-1.066406-1.792969 0-3.558594.839844-4.675781 2.410156-1.839844 2.578126-1.238281 6.160157 1.34375 8l8.027343 5.71875h-109.566406zm0 0" fill="#e7387f"/><path d="m90.488281 211.699219c.007813 1.828125.910157 3.585937 2.402344 4.648437l22.636719 16.125c2.582031 1.835938 6.160156 1.234375 8-1.34375 1.835937-2.578125 1.234375-6.160156-1.34375-7.996094l-8.03125-5.71875h111.476562v-11.46875h-111.472656l8.027344-5.71875c2.578125-1.835937 3.179687-5.417968 1.34375-7.996093-1.121094-1.570313-2.882813-2.410157-4.675782-2.410157-1.152343 0-2.3125.347657-3.324218 1.066407l-22.636719 16.121093c-1.492187 1.066407-2.410156 2.855469-2.402344 4.691407zm0 0" fill="#e7387f"/><path d="m288.101562 253.507812h-64.234374c-5.367188 0-9.714844-4.351562-9.714844-9.714843v-64.226563c0-5.367187 4.347656-9.714844 9.714844-9.714844h64.234374c5.367188 0 9.714844 4.347657 9.714844 9.714844v64.226563c0 5.363281-4.347656 9.714843-9.714844 9.714843zm0 0" fill="#9773bd"/><path d="m288.101562 169.851562h-38.863281c5.367188 0 9.714844 4.347657 9.714844 9.714844v64.226563c0 5.363281-4.347656 9.714843-9.714844 9.714843h38.863281c5.367188 0 9.714844-4.351562 9.714844-9.714843v-64.226563c0-5.367187-4.347656-9.714844-9.714844-9.714844zm0 0" fill="#865cb2"/></svg>