<svg height="512pt" viewBox="0 -39 512.002 512" width="512pt" xmlns="http://www.w3.org/2000/svg"><path d="m274.824219 425.597656c-105.425781 0-191.199219-85.730468-191.199219-191.105468 0-85.101563 69.269531-154.339844 154.417969-154.339844 68.917969 0 124.988281 56.042968 124.988281 124.929687 0 55.910157-45.507812 101.398438-101.449219 101.398438-45.554687 0-82.617187-37.042969-82.617187-82.574219 0-37.230469 30.304687-67.519531 67.550781-67.519531 30.601563 0 55.5 24.882812 55.5 55.472656 0 4.023437-3.261719 7.28125-7.289063 7.28125-4.023437 0-7.285156-3.257813-7.285156-7.28125 0-22.554687-18.359375-40.90625-40.925781-40.90625-29.210937 0-52.976563 23.753906-52.976563 52.953125 0 37.5 30.523438 68.007812 68.042969 68.007812 47.902344 0 86.878907-38.953124 86.878907-86.832031 0-60.855469-49.535157-110.363281-110.417969-110.363281-77.109375 0-139.84375 62.703125-139.84375 139.773438 0 97.34375 79.234375 176.539062 176.625 176.539062 59.460937 0 115.363281-23.140625 157.40625-65.167969 42.042969-42.019531 65.199219-97.894531 65.199219-157.324219 0-4.023437 3.261718-7.285156 7.285156-7.285156 4.023437 0 7.289062 3.261719 7.289062 7.285156 0 63.320313-24.671875 122.851563-69.46875 167.625-44.800781 44.773438-104.359375 69.433594-167.710937 69.433594zm0 0" fill="#c8d2dc"/><path d="m273.960938 349.964844c-68.921876 0-124.992188-56.042969-124.992188-124.929688 0-55.914062 45.507812-101.398437 101.449219-101.398437 45.554687 0 82.617187 37.042969 82.617187 82.574219 0 37.230468-30.304687 67.519531-67.550781 67.519531-30.601563 0-55.496094-24.886719-55.496094-55.472657 0-4.023437 3.261719-7.28125 7.285157-7.28125 4.027343 0 7.289062 3.257813 7.289062 7.28125 0 22.554688 18.359375 40.90625 40.921875 40.90625 29.214844 0 52.980469-23.753906 52.980469-52.953124 0-37.5-30.527344-68.011719-68.046875-68.011719-47.902344 0-86.875 38.953125-86.875 86.835937 0 60.855469 49.53125 110.363282 110.417969 110.363282 77.105468 0 139.839843-62.703126 139.839843-139.777344 0-97.34375-79.234375-176.535156-176.625-176.535156-59.457031 0-115.359375 23.140624-157.402343 65.164062-42.046876 42.023438-65.199219 97.898438-65.199219 157.328125 0 4.023437-3.261719 7.28125-7.289063 7.28125-4.023437 0-7.285156-3.257813-7.285156-7.28125 0-63.320313 24.671875-122.851563 69.46875-167.625s104.355469-69.433594 167.707031-69.433594c105.429688 0 191.199219 85.726563 191.199219 191.101563 0 85.105468-69.269531 154.34375-154.414062 154.34375zm0 0" fill="#cae7eb"/><path d="m275.429688 215.058594c0-10.726563-8.699219-19.421875-19.429688-19.421875s-19.429688 8.695312-19.429688 19.421875c0 10.726562 8.699219 19.421875 19.429688 19.421875s19.429688-8.695313 19.429688-19.421875zm0 0" fill="#5f6c75"/><path d="m53.226562 138.472656c0-10.726562-8.699218-19.421875-19.429687-19.421875s-19.429687 8.695313-19.429687 19.421875c0 10.726563 8.699218 19.421875 19.429687 19.421875s19.429687-8.695312 19.429687-19.421875zm0 0" fill="#eb5793"/><path d="m424.476562 262.496094c0-10.726563-8.699218-19.421875-19.433593-19.421875-10.730469 0-19.429688 8.695312-19.429688 19.421875 0 10.726562 8.699219 19.421875 19.429688 19.421875 10.734375 0 19.433593-8.695313 19.433593-19.421875zm0 0" fill="#e7387f"/><path d="m296.988281 94.253906c0-10.726562-8.699219-19.421875-19.433593-19.421875-10.730469 0-19.429688 8.695313-19.429688 19.421875 0 10.722656 8.699219 19.417969 19.429688 19.417969 10.734374 0 19.433593-8.695313 19.433593-19.417969zm0 0" fill="#40c1fa"/><path d="m259.78125 415.402344c0-10.726563-8.699219-19.421875-19.433594-19.421875-10.730468 0-19.429687 8.695312-19.429687 19.421875 0 10.722656 8.699219 19.417968 19.429687 19.417968 10.734375 0 19.433594-8.695312 19.433594-19.417968zm0 0" fill="#cbed74"/><g fill="#ffea84"><path d="m443.574219 72.832031c-4.023438 0-7.285157-3.261719-7.285157-7.285156 0-12.046875-9.808593-21.847656-21.859374-21.847656-4.027344 0-7.289063-3.261719-7.289063-7.285157 0-4.019531 3.261719-7.28125 7.289063-7.28125 12.050781 0 21.859374-9.800781 21.859374-21.847656 0-4.023437 3.261719-7.285156 7.285157-7.285156 4.027343 0 7.289062 3.261719 7.289062 7.285156 0 12.046875 9.804688 21.847656 21.859375 21.847656 4.023438 0 7.285156 3.261719 7.285156 7.28125 0 4.023438-3.261718 7.285157-7.285156 7.285157-12.054687 0-21.859375 9.800781-21.859375 21.847656-.003906 4.023437-3.261719 7.285156-7.289062 7.285156zm-7.308594-36.417969c2.769531 2.078126 5.230469 4.542969 7.308594 7.308594 2.078125-2.765625 4.542969-5.230468 7.308593-7.308594-2.765624-2.074218-5.230468-4.539062-7.308593-7.304687-2.078125 2.769531-4.542969 5.230469-7.308594 7.304687zm0 0"/><path d="m60.945312 397.0625c-4.027343 0-7.289062-3.261719-7.289062-7.285156 0-12.046875-9.804688-21.847656-21.859375-21.847656-4.023437 0-7.285156-3.257813-7.285156-7.28125 0-4.023438 3.261719-7.285157 7.285156-7.285157 12.054687 0 21.859375-9.800781 21.859375-21.847656 0-4.023437 3.261719-7.285156 7.289062-7.285156 4.023438 0 7.285157 3.261719 7.285157 7.285156 0 12.046875 9.804687 21.847656 21.859375 21.847656 4.027344 0 7.289062 3.261719 7.289062 7.285157 0 4.023437-3.261718 7.28125-7.289062 7.28125-12.050782 0-21.859375 9.800781-21.859375 21.847656 0 4.023437-3.261719 7.285156-7.285157 7.285156zm-7.308593-36.414062c2.765625 2.078124 5.230469 4.539062 7.308593 7.304687 2.078126-2.765625 4.539063-5.226563 7.308594-7.304687-2.769531-2.078126-5.230468-4.542969-7.308594-7.308594-2.082031 2.765625-4.542968 5.230468-7.308593 7.308594zm0 0"/></g></svg>