<svg height="512pt" viewBox="0 -7 512 512" width="512pt" xmlns="http://www.w3.org/2000/svg"><path d="m67.28125 170.917969h15.4375v94.25h-15.4375zm0 0" fill="#5f6c75"/><path d="m128.441406 385.976562h-15.441406v-105.808593c0-4.011719-3.265625-7.277344-7.28125-7.277344h-61.4375c-4.015625 0-7.28125 3.265625-7.28125 7.277344v105.808593h-15.4375v-105.808593c0-12.523438 10.191406-22.71875 22.71875-22.71875h61.4375c12.527344 0 22.722656 10.191406 22.722656 22.71875zm0 0" fill="#5f6c75"/><path d="m110 416.972656h-70c-22.089844 0-40-17.910156-40-40 0-5.523437 4.476562-10 10-10h130c5.523438 0 10 4.476563 10 10 0 22.089844-17.910156 40-40 40zm0 0" fill="#ffea84"/><path d="m140 366.972656h-41.171875c5.523437 0 10 4.476563 10 10 0 22.089844-17.910156 40-40 40h41.171875c22.089844 0 40-17.910156 40-40 0-5.523437-4.476562-10-10-10zm0 0" fill="#ffe046"/><path d="m429.28125 77.785156h15.4375v94.25h-15.4375zm0 0" fill="#5f6c75"/><path d="m490.4375 292.84375h-15.4375v-105.808594c0-4.011718-3.265625-7.277344-7.28125-7.277344h-61.4375c-4.015625 0-7.28125 3.265626-7.28125 7.277344v105.808594h-15.441406v-105.808594c0-12.523437 10.195312-22.71875 22.722656-22.71875h61.4375c12.527344 0 22.71875 10.191406 22.71875 22.71875zm0 0" fill="#5f6c75"/><path d="m472 323.835938h-70c-22.089844 0-40-17.90625-40-40 0-5.519532 4.476562-10 10-10h130c5.523438 0 10 4.480468 10 10 0 22.09375-17.910156 40-40 40zm0 0" fill="#ffea84"/><path d="m502 273.835938h-41.171875c5.523437 0 10 4.480468 10 10 0 22.09375-17.910156 40-40 40h41.171875c22.089844 0 40-17.90625 40-40 0-5.519532-4.476562-10-10-10zm0 0" fill="#ffe046"/><path d="m349.402344 7.730469c-3.339844-6.023438-10.351563-9-17-7.21875l-199.820313 53.542969c-6.652343 1.78125-11.234375 7.863281-11.113281 14.75l1.292969 74.425781 262.734375-70.398438zm-174.550782 86.484375c-6.667968 1.789062-13.523437-2.171875-15.308593-8.839844-1.789063-6.667969 2.171875-13.519531 8.839843-15.308594 6.667969-1.785156 13.519532 2.171875 15.308594 8.839844 1.785156 6.667969-2.171875 13.523438-8.839844 15.308594zm141.023438-37.785156c-6.667969 1.785156-13.523438-2.171876-15.308594-8.839844-1.785156-6.667969 2.171875-13.523438 8.839844-15.308594 6.667969-1.789062 13.523438 2.167969 15.308594 8.835938 1.785156 6.667968-2.171875 13.523437-8.839844 15.3125zm0 0" fill="#5f6c75"/><path d="m349.402344 7.730469c-3.339844-6.023438-10.351563-9-17-7.21875l-39.769532 10.65625c6.652344-1.78125 13.664063 1.195312 17 7.21875l8.0625 14.539062c3.335938 1.480469 6 4.394531 7.019532 8.191407.453125 1.6875.535156 3.386718.300781 5.011718l20.710937 37.359375 39.769532-10.65625zm0 0" fill="#4e5a61"/><path d="m236 151.796875h40v263.386719h-40zm0 0" fill="#5f6c75"/><path d="m258.503906 151.796875h17.496094v263.386719h-17.496094zm0 0" fill="#4e5a61"/><path d="m211.5 403.414062h89c5.523438 0 10 4.480469 10 10v41.769532h-109v-41.769532c0-5.519531 4.476562-10 10-10zm0 0" fill="#ffea84"/><path d="m300.5 403.414062h-41.171875c5.523437 0 10 4.480469 10 10v41.769532h41.171875v-41.769532c0-5.519531-4.476562-10-10-10zm0 0" fill="#ffe046"/><path d="m147.148438 443.425781h217.609374c5.242188 0 10.105469 2.738281 12.824219 7.222657l14.171875 23.375c.949219 1.5625 1.449219 3.355468 1.449219 5.183593v8.992188c0 5.523437-4.476563 10-10 10h-254.40625c-5.523437 0-10-4.476563-10-10v-10.109375c0-1.109375.183594-2.210938.546875-3.261719l15.054688-24.304687c2.734374-4.414063 7.558593-7.097657 12.75-7.097657zm0 0" fill="#cbed74"/><path d="m391.753906 474.023438-14.171875-23.375c-2.71875-4.484376-7.582031-7.222657-12.828125-7.222657h-41.171875c5.246094 0 10.109375 2.738281 12.828125 7.222657l14.171875 23.375c.949219 1.5625 1.449219 3.355468 1.449219 5.183593v8.992188c0 5.523437-4.476562 10-10 10h41.171875c5.523437 0 10-4.476563 10-10v-8.992188c0-1.828125-.5-3.621093-1.449219-5.183593zm0 0" fill="#b9e746"/><path d="m460.261719 39.167969-418.875 112.238281c-5.335938 1.429688-8.5 6.914062-7.074219 12.246094l5.175781 19.320312c1.429688 5.335938 6.914063 8.5 12.25 7.070313l418.875-112.238281c5.335938-1.429688 8.5-6.910157 7.074219-12.246094l-5.175781-19.320313c-1.433594-5.332031-6.914063-8.5-12.25-7.070312zm0 0" fill="#ffea84"/><path d="m460.261719 39.167969-39.769531 10.65625c5.335937-1.429688 10.820312 1.738281 12.25 7.070312l5.175781 19.320313c1.429687 5.335937-1.738281 10.816406-7.070313 12.246094l39.765625-10.65625c5.335938-1.429688 8.5-6.910157 7.070313-12.246094l-5.175782-19.320313c-1.429687-5.332031-6.910156-8.5-12.246093-7.070312zm0 0" fill="#ffe046"/><path d="m306 114.613281c0 27.617188-22.386719 50-50 50s-50-22.382812-50-50c0-27.613281 22.386719-50 50-50s50 22.386719 50 50zm0 0" fill="#cbed74"/><path d="m256 64.613281c-7.339844 0-14.304688 1.597657-20.585938 4.4375 17.34375 7.847657 29.414063 25.292969 29.414063 45.5625 0 20.273438-12.070313 37.714844-29.414063 45.5625 6.28125 2.84375 13.246094 4.4375 20.585938 4.4375 27.613281 0 50-22.386719 50-50s-22.386719-50-50-50zm0 0" fill="#b9e746"/><path d="m281 114.613281c0 13.808594-11.191406 25-25 25s-25-11.191406-25-25c0-13.804687 11.191406-25 25-25s25 11.195313 25 25zm0 0" fill="#ffea84"/><path d="m256 89.613281c-3.671875 0-7.152344.800781-10.292969 2.21875 8.671875 3.925781 14.707031 12.648438 14.707031 22.78125 0 10.136719-6.035156 18.859375-14.707031 22.78125 3.140625 1.421875 6.621094 2.21875 10.292969 2.21875 13.808594 0 25-11.191406 25-25 0-13.804687-11.191406-25-25-25zm0 0" fill="#ffe046"/></svg>