<svg height="512pt" viewBox="0 -181 512 512" width="512pt" xmlns="http://www.w3.org/2000/svg"><path d="m124.058594 102.191406h258.992187v14.953125h-258.992187zm0 0" fill="#c8d2dc"/><path d="m124.058594 32.402344h258.992187v14.953125h-258.992187zm0 0" fill="#5f6c75"/><path d="m150 74.773438c0-41.296876-33.578125-74.773438-75-74.773438s-75 33.476562-75 74.773438c0 41.296874 33.578125 74.773437 75 74.773437s75-33.476563 75-74.773437zm0 0" fill="#eb5793"/><path d="m75 0c-6.929688 0-13.628906.957031-20 2.710938 31.707031 8.726562 55 37.675781 55 72.0625 0 34.386718-23.292969 63.335937-55 72.066406 6.371094 1.75 13.070312 2.707031 20 2.707031 41.421875 0 75-33.476563 75-74.773437 0-41.296876-33.578125-74.773438-75-74.773438zm0 0" fill="#e7387f"/><path d="m512 74.773438c0-41.296876-33.578125-74.773438-75-74.773438s-75 33.476562-75 74.773438c0 41.296874 33.578125 74.773437 75 74.773437s75-33.476563 75-74.773437zm0 0" fill="#72d1fb"/><path d="m437 0c-6.929688 0-13.628906.957031-20 2.710938 31.707031 8.726562 55 37.675781 55 72.0625 0 34.386718-23.292969 63.335937-55 72.066406 6.371094 1.75 13.070312 2.707031 20 2.707031 41.421875 0 75-33.476563 75-74.773437 0-41.296876-33.578125-74.773438-75-74.773438zm0 0" fill="#40c1fa"/></svg>