<svg height="512pt" viewBox="0 -45 512.00049 512" width="512pt" xmlns="http://www.w3.org/2000/svg"><path d="m168.300781 209.171875-34.621093 59.964844c-5.609376 9.714843 1.402343 21.859375 12.621093 21.859375h69.242188c11.214843 0 18.230469-12.144532 12.621093-21.859375l-34.621093-59.964844c-5.609375-9.714844-19.632813-9.714844-25.242188 0zm0 0" fill="#c8d2dc"/><path d="m228.160156 269.132812-34.617187-59.960937c-5.609375-9.714844-19.632813-9.714844-25.242188 0l-1.953125 3.378906 32.667969 56.582031c5.609375 9.714844-1.402344 21.859376-12.621094 21.859376h29.148438c11.214843.003906 18.230469-12.144532 12.617187-21.859376zm0 0" fill="#b9c3cd"/><path d="m7.28125 245.035156c-3.257812 0-6.222656-2.203125-7.058594-5.507812-.984375-3.902344 1.378906-7.863282 5.28125-8.847656l497.425782-125.550782c3.898437-.992187 7.863281 1.378906 8.847656 5.28125.984375 3.898438-1.378906 7.859375-5.28125 8.847656l-497.421875 125.550782c-.601563.152344-1.199219.226562-1.792969.226562zm0 0" fill="#cbed74"/><path d="m437.65625 66.746094 20.488281 28.761718c2.765625 3.886719 8.773438 3.875 11.527344 0l20.488281-28.761718c2.269532-3.1875 1.527344-7.605469-1.65625-9.875-1.246094-.886719-2.679687-1.3125-4.101562-1.3125-2.210938 0-4.390625 1.035156-5.773438 2.972656l-7.640625 10.730469v-62.183594c0-3.910156-3.167969-7.078125-7.078125-7.078125s-7.082031 3.167969-7.082031 7.078125v62.183594l-7.640625-10.730469c-2.269531-3.183594-6.683594-3.929688-9.871094-1.65625-3.1875 2.265625-3.929687 6.683594-1.660156 9.871094zm0 0" fill="#40c1fa"/><path d="m32.628906 308.132812c3.1875 2.269532 7.605469 1.527344 9.875-1.65625l17.457032-24.507812v133.289062c0 3.910157 3.167968 7.078126 7.078124 7.078126 3.910157 0 7.078126-3.167969 7.078126-7.078126v-133.289062l17.457031 24.507812c2.265625 3.183594 6.6875 3.925782 9.871093 1.65625 3.183594-2.265624 3.925782-6.6875 1.660157-9.871093l-30.300781-42.539063c-2.765626-3.882812-8.738282-3.929687-11.53125 0l-30.300782 42.539063c-2.269531 3.183593-1.527344 7.605469 1.65625 9.871093zm0 0" fill="#e7387f"/><path d="m214.1875 72.355469h-39.339844c-4.023437 0-7.285156 3.265625-7.285156 7.289062v76.203125c0 4.023438 3.261719 7.285156 7.285156 7.285156 4.023438 0 7.285156-3.261718 7.285156-7.285156v-33.925781h21.414063c4.023437 0 7.285156-3.261719 7.285156-7.289063 0-4.023437-3.261719-7.285156-7.285156-7.285156h-21.414063v-20.417968h32.054688c4.027344 0 7.289062-3.261719 7.289062-7.285157 0-4.023437-3.261718-7.289062-7.289062-7.289062zm0 0" fill="#cbed74"/><path d="m124.054688 200.738281-77.640626 19.570313c-5.359374 1.351562-10.796874-1.898438-12.148437-7.257813l-19.570313-77.636719c-1.351562-5.363281 1.898438-10.800781 7.257813-12.152343l77.636719-19.570313c5.359375-1.351562 10.800781 1.898438 12.152344 7.257813l19.570312 77.636719c1.351562 5.359374-1.898438 10.800781-7.257812 12.152343zm0 0" fill="#9773bd"/><path d="m99.589844 103.691406-38.816406 9.785156c5.359374-1.351562 10.796874 1.898438 12.148437 7.257813l19.570313 77.636719c1.351562 5.359375-1.894532 10.800781-7.257813 12.152344l38.820313-9.789063c5.359374-1.347656 8.609374-6.789063 7.257812-12.148437l-19.570312-77.640626c-1.351563-5.355468-6.792969-8.605468-12.152344-7.253906zm0 0" fill="#865cb2"/></svg>