<svg height="512pt" viewBox="0 0 512 512" width="512pt" xmlns="http://www.w3.org/2000/svg"><path d="m394.136719 322.507812h55.980469v162.898438h-55.980469zm0 0" fill="#c8d2dc"/><path d="m427.117188 322.507812h23v162.898438h-23zm0 0" fill="#b9c3cd"/><path d="m501.699219 511.546875h-491.398438c-5.6875 0-10.300781-4.613281-10.300781-10.300781 0-16.425782 13.316406-29.742188 29.738281-29.742188h452.523438c16.421875 0 29.738281 13.316406 29.738281 29.742188 0 5.6875-4.613281 10.300781-10.300781 10.300781zm0 0" fill="#ffea84"/><path d="m482.261719 471.503906h-33.996094c16.421875 0 29.738281 13.316406 29.738281 29.742188 0 5.6875-4.613281 10.300781-10.300781 10.300781h33.996094c5.6875 0 10.300781-4.613281 10.300781-10.300781 0-16.425782-13.316406-29.742188-29.738281-29.742188zm0 0" fill="#ffe046"/><path d="m100.71875 348.066406 2.667969-14.75 74.59375 13.488282-2.664063 14.746093zm0 0" fill="#5f6c75"/><path d="m414.503906 416.9375-247.890625-43.667969c-5.605469-.988281-9.347656-6.332031-8.359375-11.9375l3.378906-19.144531c.988282-5.601562 6.328126-9.339844 11.929688-8.355469l247.902344 43.671875zm0 0" fill="#c8d2dc"/><path d="m363.839844 408.027344 6.949218-39.433594 50.65625 8.925781-6.949218 39.433594zm0 0" fill="#b9c3cd"/><path d="m436.734375 50.425781c0-1.980469 1.605469-3.585937 3.589844-3.585937 5.769531 0 10.449219-4.675782 10.449219-10.441406v-7.78125c0-15.804688-12.824219-28.617188-28.644532-28.617188-15.820312 0-28.644531 12.8125-28.644531 28.617188v7.78125c0 5.765624 4.679687 10.441406 10.453125 10.441406 1.980469 0 3.585938 1.605468 3.585938 3.585937 0 20.066407-9.804688 38.914063-26.351563 50.292969-18.9375 13.027344-31.355469 34.84375-31.355469 59.554688v145.910156h144.628906v-145.910156c0-24.710938-12.417968-46.527344-31.359374-59.554688-16.546876-11.378906-26.351563-30.226562-26.351563-50.292969zm0 0" fill="#d5f1fe"/><path d="m463.085938 100.71875c-16.546876-11.378906-26.351563-30.226562-26.351563-50.292969 0-1.980469 1.605469-3.585937 3.589844-3.585937 5.769531 0 10.445312-4.675782 10.445312-10.441406v-7.78125c0-15.804688-12.824219-28.617188-28.640625-28.617188-15.820312 0-28.644531 12.8125-28.644531 28.617188v7.78125c0 5.765624 4.675781 10.441406 10.449219 10.441406 1.980468 0 3.585937 1.605468 3.585937 3.585937 0 2.722657-.183593 5.417969-.539062 8.082031 0 0 9.042969 42.882813 31.105469 56.199219 19.679687 11.882813 31.359374 34.84375 31.359374 59.554688v131.921875h25v-145.910156c0-24.710938-12.417968-46.527344-31.359374-59.554688zm0 0" fill="#b4e7fd"/><path d="m501.699219 326.0625h-159.140625c-5.691406 0-10.300782-4.613281-10.300782-10.304688v-19.359374c0-5.691407 4.609376-10.300782 10.300782-10.300782h159.140625c5.6875 0 10.300781 4.609375 10.300781 10.300782v19.359374c0 5.691407-4.613281 10.304688-10.300781 10.304688zm0 0" fill="#5f6c75"/><path d="m501.699219 286.097656h-33.996094c5.6875 0 10.300781 4.609375 10.300781 10.300782v19.359374c0 5.691407-4.613281 10.304688-10.300781 10.304688h33.996094c5.6875 0 10.300781-4.613281 10.300781-10.304688v-19.359374c0-5.691407-4.613281-10.300782-10.300781-10.300782zm0 0" fill="#4e5a61"/><path d="m458.015625 397.117188c0-19.804688-16.070313-35.855469-35.886719-35.855469-19.820312 0-35.886718 16.050781-35.886718 35.855469 0 19.800781 16.066406 35.851562 35.886718 35.851562 19.816406 0 35.886719-16.050781 35.886719-35.851562zm0 0" fill="#ffea84"/><path d="m422.128906 361.261719c-5.167968 0-10.074218 1.097656-14.511718 3.0625 12.589843 5.570312 21.375 18.152343 21.375 32.792969 0 14.636718-8.785157 27.222656-21.375 32.789062 4.4375 1.964844 9.34375 3.0625 14.511718 3.0625 19.816406 0 35.886719-16.050781 35.886719-35.851562 0-19.804688-16.070313-35.855469-35.886719-35.855469zm0 0" fill="#ffe046"/><path d="m118.898438 305.371094-13.410157 75.964844c-.988281 5.605468-6.328125 9.34375-11.929687 8.355468l-19.101563-3.363281c-5.605469-.988281-9.347656-6.332031-8.359375-11.9375l13.40625-75.964844c.988282-5.601562 6.332032-9.34375 11.933594-8.355469l19.101562 3.363282c5.605469.988281 9.347657 6.332031 8.359376 11.9375zm0 0" fill="#ffea84"/><path d="m110.539062 293.433594-19.101562-3.363282 2.386719.421876c5.605469.984374 9.347656 6.332031 8.359375 11.933593l-13.40625 75.96875c-.988282 5.601563-6.332032 9.339844-11.933594 8.355469l-2.386719-.421875 19.101563 3.367187c5.601562.984376 10.941406-2.753906 11.929687-8.355468l13.410157-75.96875c.988281-5.605469-2.753907-10.949219-8.359376-11.9375zm0 0" fill="#ffe046"/></svg>