<svg height="512pt" viewBox="0 -83 512 512" width="512pt" xmlns="http://www.w3.org/2000/svg"><path d="m119.117188 345.546875h-29.398438c-5.6875 0-10.300781-4.609375-10.300781-10.300781v-49.621094h50v49.621094c0 5.6875-4.613281 10.300781-10.300781 10.300781zm0 0" fill="#c8d2dc"/><path d="m107.785156 285.625v49.621094c0 5.691406-4.613281 10.300781-10.304687 10.300781h21.636719c5.6875 0 10.300781-4.609375 10.300781-10.300781v-49.621094zm0 0" fill="#b9c3cd"/><path d="m422.28125 345.546875h-29.398438c-5.6875 0-10.300781-4.609375-10.300781-10.300781v-49.621094h50v49.621094c0 5.6875-4.613281 10.300781-10.300781 10.300781zm0 0" fill="#c8d2dc"/><path d="m410.949219 285.625v49.621094c0 5.691406-4.613281 10.300781-10.304688 10.300781h21.636719c5.6875 0 10.300781-4.609375 10.300781-10.300781v-49.621094zm0 0" fill="#b9c3cd"/><path d="m501.699219 299.609375h-491.398438c-5.6875 0-10.300781-4.613281-10.300781-10.304687v-279.003907c0-5.6875 4.613281-10.300781 10.300781-10.300781h491.398438c5.6875 0 10.300781 4.613281 10.300781 10.300781v279.003907c0 5.691406-4.613281 10.304687-10.300781 10.304687zm0 0" fill="#9773bd"/><path d="m501.699219 0h-41.207031c5.6875 0 10.300781 4.613281 10.300781 10.300781v279.003907c0 5.691406-4.613281 10.304687-10.300781 10.304687h41.207031c5.6875 0 10.300781-4.613281 10.300781-10.304687v-279.003907c0-5.6875-4.613281-10.300781-10.300781-10.300781zm0 0" fill="#865cb2"/><path d="m235.765625 246.300781c0-14.8125-12.023437-26.820312-26.851563-26.820312-14.832031 0-26.855468 12.007812-26.855468 26.820312 0 14.808594 12.023437 26.816407 26.855468 26.816407 14.828126 0 26.851563-12.007813 26.851563-26.816407zm0 0" fill="#d5f1fe"/><path d="m208.914062 219.480469c-3.535156 0-6.910156.691406-10 1.929687 9.875 3.964844 16.851563 13.609375 16.851563 24.890625s-6.976563 20.925781-16.851563 24.886719c3.089844 1.242188 6.464844 1.929688 10 1.929688 14.828126 0 26.851563-12.003907 26.851563-26.816407s-12.023437-26.820312-26.851563-26.820312zm0 0" fill="#b4e7fd"/><path d="m235.765625 246.300781c0-2.6875-.398437-5.28125-1.136719-7.726562h-25.71875c-4.265625 0-7.722656 3.457031-7.722656 7.726562 0 4.265625 3.457031 7.726563 7.722656 7.726563h25.71875c.734375-2.449219 1.136719-5.039063 1.136719-7.726563zm0 0" fill="#e7387f"/><path d="m135.765625 246.300781c0-14.8125-12.023437-26.820312-26.855469-26.820312-14.828125 0-26.851562 12.007812-26.851562 26.820312 0 14.808594 12.023437 26.816407 26.851562 26.816407 14.832032 0 26.855469-12.007813 26.855469-26.816407zm0 0" fill="#d5f1fe"/><path d="m108.910156 219.480469c-3.535156 0-6.90625.691406-10 1.929687 9.878906 3.964844 16.855469 13.609375 16.855469 24.890625s-6.976563 20.925781-16.855469 24.886719c3.09375 1.242188 6.464844 1.929688 10 1.929688 14.832032 0 26.855469-12.003907 26.855469-26.816407s-12.023437-26.820312-26.855469-26.820312zm0 0" fill="#b4e7fd"/><path d="m113.53125 240.105469-20.59375-15.359375c-4.191406 3.101562-7.445312 7.390625-9.261719 12.371094l20.617188 15.375c1.386719 1.035156 3.007812 1.535156 4.613281 1.535156 2.355469 0 4.683594-1.074219 6.199219-3.109375 2.550781-3.417969 1.847656-8.261719-1.574219-10.8125zm0 0" fill="#e7387f"/><path d="m276.242188 193.25h-221.398438c-5.464844 0-9.894531-4.429688-9.894531-9.898438v-133.027343c0-5.464844 4.429687-9.898438 9.894531-9.898438h221.398438c5.464843 0 9.898437 4.429688 9.898437 9.898438v133.027343c-.003906 5.46875-4.433594 9.898438-9.898437 9.898438zm0 0" fill="#d5f1fe"/><path d="m276.242188 40.425781h-41.207032c5.464844 0 9.894532 4.433594 9.894532 9.898438v133.027343c0 5.464844-4.429688 9.894532-9.894532 9.894532h41.207032c5.464843 0 9.898437-4.429688 9.898437-9.894532v-133.027343c-.003906-5.464844-4.433594-9.898438-9.898437-9.898438zm0 0" fill="#b4e7fd"/><path d="m165.769531 159.28125c-.015625 0-.035156 0-.050781 0-13.34375-.03125-24.625-12.695312-30.949219-34.746094l-3.234375-11.265625c-4.726562-16.476562-11.722656-23.875-16.558594-23.894531-.007812 0-.015624 0-.023437 0-4.730469 0-11.617187 7.15625-16.359375 23.15625l-.851562 2.867188c-1.175782 3.964843-5.351563 6.230468-9.316407 5.054687-3.972656-1.171875-6.242187-5.339844-5.066406-9.304687l.851563-2.867188c6.382812-21.542969 17.585937-33.886719 30.738281-33.886719h.089843c13.328126.058594 24.597657 12.722657 30.914063 34.746094l3.234375 11.269531c4.730469 16.488282 11.730469 23.882813 16.566406 23.894532h.011719c4.78125 0 11.71875-7.257813 16.457031-23.480469l3.527344-12.070313c6.363281-21.785156 17.605469-34.265625 30.851562-34.265625h.109376c13.457031.070313 24.777343 12.949219 31.0625 35.335938 1.117187 3.984375-1.207032 8.117187-5.195313 9.234375-3.988281 1.117187-8.128906-1.207032-9.246094-5.191406-4.722656-16.820313-11.789062-24.375-16.699219-24.398438-.007812 0-.015624 0-.023437 0-4.78125 0-11.714844 7.25-16.457031 23.480469l-3.527344 12.070312c-6.363281 21.777344-17.609375 34.261719-30.855469 34.261719zm0 0" fill="#e7387f"/><path d="m451.058594 253.789062h-106.085938c-2.859375 0-5.179687-3.351562-5.179687-7.488281s2.316406-7.492187 5.179687-7.492187h106.085938c2.859375 0 5.179687 3.355468 5.179687 7.492187s-2.320312 7.488281-5.179687 7.488281zm0 0" fill="#ffea84"/><path d="m454.878906 84.160156h-113.726562c-5.691406 0-10.300782 4.609375-10.300782 10.300782v44.757812c0 5.6875 4.609376 10.300781 10.300782 10.300781h113.726562c5.6875 0 10.300782-4.613281 10.300782-10.300781v-44.757812c0-5.691407-4.613282-10.300782-10.300782-10.300782zm0 0" fill="#d5f1fe"/><path d="m454.878906 84.15625h-41.207031c5.691406 0 10.300781 4.613281 10.300781 10.304688v44.753906c0 5.691406-4.609375 10.304687-10.300781 10.304687h41.207031c5.691406 0 10.300782-4.613281 10.300782-10.304687v-44.753906c0-5.691407-4.613282-10.304688-10.300782-10.304688zm0 0" fill="#b4e7fd"/><path d="m437.714844 104.84375c-3.191406-2.835938-8.078125-2.546875-10.910156.644531l-39.136719 44.03125h20.675781l30.015625-33.769531c2.832031-3.1875 2.542969-8.070312-.644531-10.90625zm0 0" fill="#5f6c75"/></svg>