<svg height="512pt" viewBox="0 0 512.00053 512" width="512pt" xmlns="http://www.w3.org/2000/svg"><path d="m173.816406 160.894531 177.144532 177.144531c3.921874 3.921876 5.277343 9.738282 3.492187 14.996094l-51.742187 152.214844c-2.652344 7.808594-13.214844 8.96875-17.5 1.921875l-106.550782-175.167969-173.976562-105.425781c-7.0625-4.28125-5.90625-14.859375 1.910156-17.511719l152.230469-51.667968c5.253906-1.785157 11.066406-.429688 14.992187 3.496093zm0 0" fill="#9773bd"/><path d="m302.710938 505.25 51.742187-152.21875c1.785156-5.253906.429687-11.070312-3.492187-14.996094l-27.484376-27.480468c3.925782 3.925781 5.28125 9.738281 3.492188 14.996093l-51.738281 152.214844c-.859375 2.535156-2.554688 4.363281-4.597657 5.441406l14.578126 23.964844c4.285156 7.046875 14.847656 5.886719 17.5-1.921875zm0 0" fill="#865cb2"/><path d="m261.589844 397.800781-147.742188-147.613281 159.796875-159.65625c59.042969-58.988281 139.449219-91.628906 222.941407-90.5039062 8.449218.1132812 15.273437 6.9335942 15.386718 15.3750002 1.128906 83.417968-31.542968 163.75-90.585937 222.738281zm0 0" fill="#d5f1fe"/><path d="m511.972656 15.402344c-.113281-8.441406-6.9375-15.261719-15.386718-15.371094-3.796876-.0546875-7.585938-.0078125-11.371094.078125-1.839844 79.320313-34.144532 155.074219-90.503906 211.382813l-159.796876 159.65625 26.675782 26.652343 159.796875-159.65625c59.042969-58.992187 91.714843-139.324219 90.585937-222.742187zm0 0" fill="#b4e7fd"/><path d="m108.5 280.132812 123.121094 123.007813-3.890625 3.890625c-49.203125 49.15625-116.207031 76.355469-185.78125 75.417969-7.042969-.09375-12.730469-5.777344-12.824219-12.8125-.941406-69.515625 26.285156-136.457031 75.488281-185.617188zm0 0" fill="#e5646e"/><path d="m218.28125 389.816406-3.890625 3.886719c-49.082031 49.039063-115.875 76.21875-185.265625 75.417969 0 .171875-.003906.34375 0 .515625.09375 7.035156 5.78125 12.714843 12.820312 12.8125 69.578126.9375 136.582032-26.261719 185.78125-75.421875l3.890626-3.886719zm0 0" fill="#e04955"/><path d="m111.507812 338.632812 61.558594 61.503907-1.945312 1.945312c-24.601563 24.578125-58.101563 38.179688-92.890625 37.710938-3.519531-.050781-6.363281-2.890625-6.410157-6.40625-.472656-34.757813 13.140626-68.230469 37.742188-92.808594zm0 0" fill="#ffea84"/><path d="m153.058594 380.148438-1.945313 1.945312c-21.230469 21.210938-49.097656 34.238281-78.691406 37.109375-.457031 4.691406-.667969 9.425781-.601563 14.183594.046876 3.519531 2.890626 6.359375 6.410157 6.40625 34.789062.46875 68.289062-13.132813 92.890625-37.710938l1.945312-1.945312zm0 0" fill="#ffe046"/><path d="m417.597656 192.515625c-27.136718 27.113281-71.140625 27.113281-98.28125 0-27.140625-27.117187-27.140625-71.082031 0-98.195313 27.140625-27.117187 71.144532-27.117187 98.28125 0 27.140625 27.113282 27.140625 71.078126 0 98.195313zm0 0" fill="#eb5793"/><path d="m417.597656 94.320312c-3.746094-3.746093-7.828125-6.957031-12.132812-9.667968 16.890625 26.820312 13.667968 62.667968-9.707032 86.023437-23.390624 23.367188-59.296874 26.578125-86.148437 9.664063 2.71875 4.320312 5.941406 8.414062 9.707031 12.175781 27.140625 27.117187 71.144532 27.117187 98.28125 0 27.140625-27.117187 27.140625-71.082031 0-98.195313zm0 0" fill="#e7387f"/><path d="m397.578125 172.511719c-16.082031 16.070312-42.160156 16.070312-58.242187 0-16.082032-16.070313-16.082032-42.121094 0-58.191407 16.082031-16.066406 42.160156-16.066406 58.242187 0 16.082031 16.070313 16.082031 42.121094 0 58.191407zm0 0" fill="#72d1fb"/><path d="m397.578125 114.320312c-3.710937-3.703124-7.953125-6.546874-12.480469-8.542968 6.664063 15.089844 3.820313 33.359375-8.550781 45.722656-12.375 12.363281-30.660156 15.203125-45.761719 8.542969 2 4.523437 4.839844 8.761719 8.550782 12.46875 16.082031 16.070312 42.160156 16.070312 58.242187 0 16.082031-16.070313 16.082031-42.121094 0-58.191407zm0 0" fill="#40c1fa"/><path d="m207.039062 467.445312-91.078124-67.613281c-1.523438-1.132812-2.875-2.480469-4.007813-4.003906l-67.792969-91.121094c-3.339844-4.484375-2.210937-10.855469 2.460938-13.921875l77.570312-50.929687 147.742188 147.613281-50.984375 77.511719c-3.066407 4.664062-9.425781 5.789062-13.910157 2.464843zm0 0" fill="#d5f1fe"/><path d="m220.949219 464.980469 50.984375-77.515625-27.585938-27.558594-59.167968 89.957031c-.203126.308594-.417969.59375-.640626.875l22.503907 16.707031c4.480469 3.324219 10.839843 2.199219 13.90625-2.464843zm0 0" fill="#b4e7fd"/><path d="m291.882812 380.246094-160.34375-160.339844c-3.792968-3.792969-9.945312-3.792969-13.742187 0l-12.835937 12.835938c-3.792969 3.792968-3.792969 9.945312 0 13.742187l160.34375 160.339844c3.792968 3.796875 9.945312 3.796875 13.742187 0l12.835937-12.835938c3.792969-3.792969 3.792969-9.945312 0-13.742187zm0 0" fill="#eb5793"/><path d="m291.882812 380.246094-27.484374-27.480469c3.792968 3.792969 3.796874 9.945313 0 13.742187l-12.835938 12.835938c-3.792969 3.792969-9.945312 3.792969-13.742188 0l27.484376 27.480469c3.792968 3.792969 9.945312 3.792969 13.742187 0l12.835937-12.835938c3.792969-3.792969 3.792969-9.945312 0-13.742187zm0 0" fill="#e7387f"/><path d="m144.902344 366.882812c3.859375 3.859376 10.054687 4.039063 14.132812.414063l109.363282-97.277344c4.175781-3.714843 4.363281-10.179687.410156-14.128906l-12.914063-12.914063c-3.949219-3.953124-10.414062-3.765624-14.128906.410157l-97.273437 109.363281c-3.625 4.078125-3.445313 10.273438.410156 14.132812zm0 0" fill="#9773bd"/><path d="m268.8125 255.890625-10.996094-10.992187c3.953125 3.949218 3.765625 10.414062-.410156 14.128906l-109.363281 97.273437c-1.765625 1.570313-3.929688 2.425781-6.128907 2.578125-.199218 2.878906.804688 5.816406 2.988282 8.003906 3.859375 3.855469 10.054687 4.039063 14.132812.410157l109.363282-97.273438c4.175781-3.714843 4.363281-10.179687.414062-14.128906zm0 0" fill="#865cb2"/><g fill="#ffea84"><path d="m425.644531 295.59375c0-4.054688 3.289063-7.339844 7.351563-7.339844 12.15625 0 22.046875-9.882812 22.046875-22.03125 0-4.054687 3.292969-7.34375 7.351562-7.34375 4.058594 0 7.351563 3.289063 7.351563 7.34375 0 12.148438 9.890625 22.03125 22.046875 22.03125 4.058593 0 7.351562 3.285156 7.351562 7.339844 0 4.058594-3.292969 7.34375-7.351562 7.34375-12.15625 0-22.046875 9.882812-22.046875 22.03125 0 4.054688-3.292969 7.34375-7.351563 7.34375-4.058593 0-7.351562-3.289062-7.351562-7.34375 0-12.148438-9.890625-22.03125-22.046875-22.03125-4.058594.003906-7.351563-3.285156-7.351563-7.34375zm36.75-7.363281c-2.097656 2.789062-4.582031 5.269531-7.375 7.363281 2.792969 2.097656 5.277344 4.578125 7.375 7.367188 2.097657-2.789063 4.582031-5.269532 7.371094-7.367188-2.789063-2.09375-5.273437-4.574219-7.371094-7.363281zm0 0"/><path d="m374.59375 428.253906c0-4.058594 3.289062-7.34375 7.347656-7.34375 12.160156 0 22.050782-9.882812 22.050782-22.03125 0-4.054687 3.289062-7.34375 7.347656-7.34375 4.0625 0 7.351562 3.289063 7.351562 7.34375 0 12.148438 9.890625 22.03125 22.050782 22.03125 4.058593 0 7.347656 3.285156 7.347656 7.34375 0 4.054688-3.289063 7.339844-7.347656 7.339844-12.160157 0-22.050782 9.882812-22.050782 22.03125 0 4.054688-3.289062 7.34375-7.351562 7.34375-4.058594 0-7.347656-3.289062-7.347656-7.34375 0-12.148438-9.894532-22.03125-22.050782-22.03125-4.058594 0-7.347656-3.285156-7.347656-7.339844zm36.746094-7.367187c-2.09375 2.789062-4.578125 5.269531-7.371094 7.367187 2.792969 2.09375 5.277344 4.574219 7.371094 7.363282 2.097656-2.789063 4.582031-5.269532 7.375-7.363282-2.792969-2.097656-5.277344-4.578125-7.375-7.367187zm0 0"/><path d="m147.707031 76.480469c0-4.054688 3.289063-7.34375 7.351563-7.34375 12.15625 0 22.046875-9.882813 22.046875-22.027344 0-4.058594 3.289062-7.34375 7.351562-7.34375 4.058594 0 7.347657 3.285156 7.347657 7.34375 0 12.144531 9.894531 22.027344 22.050781 22.027344 4.058593 0 7.351562 3.289062 7.351562 7.34375 0 4.054687-3.292969 7.34375-7.351562 7.34375-12.160157 0-22.050781 9.882812-22.050781 22.027343 0 4.058594-3.289063 7.34375-7.347657 7.34375-4.0625 0-7.351562-3.285156-7.351562-7.34375 0-12.144531-9.890625-22.027343-22.046875-22.027343-4.0625 0-7.351563-3.289063-7.351563-7.34375zm36.75-7.367188c-2.097656 2.789063-4.582031 5.273438-7.375 7.367188 2.792969 2.09375 5.277344 4.578125 7.375 7.367187 2.097657-2.789062 4.582031-5.273437 7.371094-7.367187-2.789063-2.09375-5.273437-4.578125-7.371094-7.367188zm0 0"/></g></svg>