<svg height="512pt" viewBox="0 -83 512 512" width="512pt" xmlns="http://www.w3.org/2000/svg"><path d="m119.117188 345.546875h-29.398438c-5.6875 0-10.300781-4.609375-10.300781-10.300781v-49.621094h50v49.621094c0 5.6875-4.613281 10.300781-10.300781 10.300781zm0 0" fill="#c8d2dc"/><path d="m106.753906 285.625v49.621094c0 5.691406-4.613281 10.300781-10.300781 10.300781h22.664063c5.6875 0 10.300781-4.609375 10.300781-10.300781v-49.621094zm0 0" fill="#b9c3cd"/><path d="m422.28125 345.546875h-29.398438c-5.6875 0-10.300781-4.609375-10.300781-10.300781v-49.621094h50v49.621094c0 5.6875-4.613281 10.300781-10.300781 10.300781zm0 0" fill="#c8d2dc"/><path d="m409.917969 285.625v49.621094c0 5.691406-4.613281 10.300781-10.300781 10.300781h22.664062c5.6875 0 10.300781-4.609375 10.300781-10.300781v-49.621094zm0 0" fill="#b9c3cd"/><path d="m501.699219 299.609375h-491.398438c-5.6875 0-10.300781-4.613281-10.300781-10.304687v-279.003907c0-5.6875 4.613281-10.300781 10.300781-10.300781h491.398438c5.6875 0 10.300781 4.613281 10.300781 10.300781v279.003907c0 5.691406-4.613281 10.304687-10.300781 10.304687zm0 0" fill="#5f6c75"/><path d="m501.699219 0h-41.207031c5.6875 0 10.300781 4.613281 10.300781 10.300781v279.003907c0 5.691406-4.613281 10.304687-10.300781 10.304687h41.207031c5.6875 0 10.300781-4.613281 10.300781-10.304687v-279.003907c0-5.6875-4.613281-10.300781-10.300781-10.300781zm0 0" fill="#4e5a61"/><path d="m459.164062 220.511719c0-14.8125-12.023437-26.816407-26.855468-26.816407-14.828125 0-26.851563 12.003907-26.851563 26.816407s12.023438 26.816406 26.851563 26.816406c14.832031 0 26.855468-12.003906 26.855468-26.816406zm0 0" fill="#d5f1fe"/><path d="m432.308594 193.695312c-3.535156 0-6.90625.6875-10 1.929688 9.878906 3.960938 16.855468 13.609375 16.855468 24.886719 0 11.28125-6.976562 20.929687-16.855468 24.890625 3.09375 1.238281 6.464844 1.929687 10 1.929687 14.832031 0 26.855468-12.007812 26.855468-26.820312s-12.023437-26.816407-26.855468-26.816407zm0 0" fill="#b4e7fd"/><path d="m455.660156 207.273438c-2.597656-4.558594-6.488281-8.277344-11.183594-10.664063l-17.75 18.5625c-2.949218 3.085937-2.839843 7.976563.242188 10.925781 1.496094 1.429688 3.421875 2.140625 5.339844 2.140625 2.035156 0 4.066406-.796875 5.585937-2.382812zm0 0" fill="#865cb2"/><path d="m359.164062 220.511719c0-14.8125-12.023437-26.816407-26.855468-26.816407-14.828125 0-26.851563 12.003907-26.851563 26.816407s12.023438 26.816406 26.851563 26.816406c14.832031 0 26.855468-12.003906 26.855468-26.816406zm0 0" fill="#d5f1fe"/><path d="m332.308594 193.695312c-3.535156 0-6.90625.6875-10 1.929688 9.878906 3.960938 16.855468 13.609375 16.855468 24.886719 0 11.28125-6.976562 20.929687-16.855468 24.890625 3.09375 1.238281 6.464844 1.929687 10 1.929687 14.832031 0 26.855468-12.007812 26.855468-26.820312s-12.023437-26.816407-26.855468-26.816407zm0 0" fill="#b4e7fd"/><path d="m335.285156 213.382812-23.71875-9.902343c-3.261718 3.960937-5.410156 8.871093-5.964844 14.253906l23.734376 9.90625c.96875.40625 1.980468.601563 2.972656.601563 3.023437 0 5.894531-1.789063 7.132812-4.753907 1.640625-3.9375-.21875-8.460937-4.15625-10.105469zm0 0" fill="#865cb2"/><path d="m448.351562 167.78125h-384.703124c-5.691407 0-10.304688-4.613281-10.304688-10.300781v-97.242188c0-5.691406 4.613281-10.304687 10.304688-10.304687h384.707031c5.6875 0 10.300781 4.613281 10.300781 10.304687v97.242188c0 5.6875-4.613281 10.300781-10.304688 10.300781zm0 0" fill="#d5f1fe"/><path d="m448.351562 49.933594h-40c5.6875 0 10.300782 4.613281 10.300782 10.304687v97.242188c0 5.6875-4.613282 10.300781-10.300782 10.300781h40c5.691407 0 10.304688-4.613281 10.304688-10.300781v-97.242188c0-5.691406-4.613281-10.304687-10.304688-10.304687zm0 0" fill="#b4e7fd"/><path d="m223.851562 241.195312h-153.703124c-4.144532 0-7.5-3.351562-7.5-7.492187 0-4.136719 3.355468-7.488281 7.5-7.488281h153.703124c4.144532 0 7.5 3.351562 7.5 7.488281 0 4.140625-3.355468 7.492187-7.5 7.492187zm0 0" fill="#ffea84"/><path d="m458.652344 83.890625h-405.308594v51.929687h405.308594" fill="#9773bd"/><path d="m418.652344 83.890625h40v51.929687h-40zm0 0" fill="#865cb2"/><path d="m53.34375 83.890625h347.285156v51.929687h-347.285156zm0 0" fill="#462d91"/><path d="m53.34375 83.890625h289.261719v51.929687h-289.261719zm0 0" fill="#72d1fb"/><path d="m53.34375 83.890625h231.257812v51.929687h-231.257812zm0 0" fill="#cbed74"/><path d="m53.34375 83.890625h173.214844v51.929687h-173.214844zm0 0" fill="#ffea84"/><path d="m53.34375 83.890625h115.191406v51.929687h-115.191406zm0 0" fill="#fb8723"/><path d="m53.34375 83.890625h56.941406v51.929687h-56.941406zm0 0" fill="#e04955"/><path d="m198.277344 102.367188c-.011719 0-.023438 0-.035156 0-4.128907 0-7.480469 3.328124-7.5 7.453124l-.265626 57.925782v.035156h15l.265626-57.890625c.019531-4.136719-3.324219-7.503906-7.464844-7.523437zm0 0" fill="#865cb2"/></svg>