<svg height="512pt" viewBox="-68 0 512 512" width="512pt" xmlns="http://www.w3.org/2000/svg"><path d="m58.507812 484.304688c-1.375 0-2.769531-.378907-4.015624-1.167969-3.503907-2.222657-4.546876-6.867188-2.324219-10.371094l17.667969-27.871094c2.222656-3.503906 6.863281-4.546875 10.367187-2.324219 3.503906 2.21875 4.546875 6.863282 2.324219 10.367188l-17.667969 27.875c-1.429687 2.253906-3.863281 3.492188-6.351563 3.492188zm0 0" fill="#40c1fa"/><path d="m7.507812 486.671875c-1.375 0-2.769531-.378906-4.015624-1.167969-3.5039068-2.222656-4.546876-6.867187-2.324219-10.371094l48.410156-76.378906c2.222656-3.507812 6.867187-4.542968 10.367187-2.324218 3.507813 2.222656 4.546876 6.863281 2.324219 10.367187l-48.410156 76.382813c-1.429687 2.257812-3.863281 3.492187-6.351563 3.492187zm0 0" fill="#40c1fa"/><path d="m90.222656 512c-1.375 0-2.765625-.378906-4.015625-1.167969-3.503906-2.222656-4.542969-6.863281-2.324219-10.367187l36.449219-57.5c2.222657-3.507813 6.863281-4.546875 10.367188-2.324219 3.503906 2.21875 4.542969 6.863281 2.324219 10.367187l-36.449219 57.5c-1.429688 2.257813-3.863281 3.492188-6.351563 3.492188zm0 0" fill="#40c1fa"/><path d="m376.738281 43.003906-2.25-37.214844c.042969-4.480468-4.464843-6.796874-7.941406-5.351562l-34.808594 14.445312c-2.925781 1.214844-4.3125 4.566407-3.097656 7.492188 1.210937 2.921875 4.5625 4.308594 7.492187 3.097656l18.089844-7.507812-224.460937 354.144531c-1.695313 2.675781-.902344 6.214844 1.773437 7.910156.953125.605469 2.015625.890625 3.0625.890625 1.898438 0 3.757813-.941406 4.847656-2.664062l224.648438-354.4375 1.203125 19.886718c.183594 3.042969 2.707031 5.386719 5.714844 5.386719.117187 0 .234375-.003906.351562-.007812 3.160157-.195313 5.566407-2.910157 5.375-6.070313zm0 0" fill="#fb8723"/><path d="m374.398438 376.203125c.394531-2.164063-.535157-4.40625-2.308594-5.691406l-30.699219-21.867188c-2.578125-1.835937-6.15625-1.234375-7.992187 1.34375-1.835938 2.578125-1.234376 6.160157 1.34375 7.996094l16.09375 11.460937h-216.234376c-3.164062 0-5.730468 2.566407-5.730468 5.734376 0 3.164062 2.566406 5.730468 5.730468 5.730468h216.234376l-16.09375 11.464844c-2.578126 1.835938-3.179688 5.414062-1.34375 7.992188 1.117187 1.570312 2.882812 2.40625 4.671874 2.40625 1.152344 0 2.3125-.34375 3.324219-1.0625l30.695313-21.863282c1.199218-.863281 2.042968-2.183594 2.308594-3.644531zm0 0" fill="#ffea84"/><path d="m161.136719 33.101562-21.863281-30.695312c-2.226563-3.125-7.117188-3.171875-9.339844 0l-21.863282 30.695312c-1.835937 2.578126-1.234374 6.160157 1.34375 7.996094 1.007813.71875 2.171876 1.0625 3.320313 1.0625 1.792969 0 3.558594-.835937 4.675781-2.40625l11.460938-16.09375v351.519532c0 3.164062 2.566406 5.730468 5.734375 5.730468 3.164062 0 5.730469-2.566406 5.730469-5.730468v-351.519532l11.464843 16.09375c1.835938 2.578125 5.414063 3.179688 7.992188 1.34375 2.578125-1.835937 3.179687-5.417968 1.34375-7.996094zm0 0" fill="#e5646e"/><g fill="#40c1fa"><path d="m368.707031 342.957031c-3.167969 0-5.734375-2.566406-5.734375-5.734375v-29.984375c0-3.164062 2.566406-5.730469 5.734375-5.730469 3.164063 0 5.730469 2.566407 5.730469 5.730469v29.984375c0 3.167969-2.566406 5.734375-5.730469 5.734375zm0 0"/><path d="m368.707031 265.351562c-3.167969 0-5.734375-2.566406-5.734375-5.734374v-29.984376c0-3.164062 2.566406-5.730468 5.734375-5.730468 3.164063 0 5.730469 2.566406 5.730469 5.730468v29.984376c0 3.167968-2.566406 5.734374-5.730469 5.734374zm0 0"/><path d="m368.707031 187.746094c-3.167969 0-5.734375-2.566406-5.734375-5.734375v-29.984375c0-3.164063 2.566406-5.730469 5.734375-5.730469 3.164063 0 5.730469 2.566406 5.730469 5.730469v29.984375c0 3.167969-2.566406 5.734375-5.730469 5.734375zm0 0"/><path d="m368.707031 109.195312c-3.167969 0-5.734375-2.5625-5.734375-5.730468v-29.984375c0-3.167969 2.566406-5.734375 5.734375-5.734375 3.164063 0 5.730469 2.566406 5.730469 5.734375v29.984375c0 3.167968-2.566406 5.730468-5.730469 5.730468zm0 0"/><path d="m313.210938 11.464844h-20.210938c-3.167969 0-5.734375-2.566406-5.734375-5.734375 0-3.164063 2.566406-5.730469 5.734375-5.730469h20.210938c3.164062 0 5.730468 2.566406 5.730468 5.730469 0 3.167969-2.5625 5.734375-5.730468 5.734375zm0 0"/><path d="m253.253906 11.464844h-20.210937c-3.167969 0-5.734375-2.566406-5.734375-5.734375 0-3.164063 2.566406-5.730469 5.734375-5.730469h20.210937c3.164063 0 5.730469 2.566406 5.730469 5.730469 0 3.167969-2.566406 5.734375-5.730469 5.734375zm0 0"/><path d="m193.296875 11.464844h-20.210937c-3.167969 0-5.734376-2.566406-5.734376-5.734375 0-3.164063 2.566407-5.730469 5.734376-5.730469h20.210937c3.164063 0 5.730469 2.566406 5.730469 5.730469 0 3.167969-2.566406 5.734375-5.730469 5.734375zm0 0"/></g><path d="m142.132812 418.175781h-50.425781c-3.480469 0-6.300781-2.820312-6.300781-6.296875v-50.367187c0-3.480469 2.820312-6.296875 6.300781-6.296875h50.425781c3.480469 0 6.300782 2.816406 6.300782 6.296875v50.367187c0 3.476563-2.820313 6.296875-6.300782 6.296875zm0 0" fill="#cbed74"/><path d="m142.128906 355.210938h-21.511718c3.480468 0 6.304687 2.820312 6.304687 6.296874v50.371094c0 3.476563-2.824219 6.296875-6.304687 6.296875h21.511718c3.480469 0 6.304688-2.820312 6.304688-6.296875v-50.371094c0-3.476562-2.824219-6.296874-6.304688-6.296874zm0 0" fill="#b9e746"/></svg>