<svg height="511pt" viewBox="-29 1 511 511.999" width="511pt" xmlns="http://www.w3.org/2000/svg"><path d="m443.832031 215.578125c0-119.058594-96.421875-215.578125-215.363281-215.578125s-215.363281 96.519531-215.363281 215.578125c0 119.0625 96.421875 215.578125 215.363281 215.578125s215.363281-96.515625 215.363281-215.578125zm0 0" fill="#9773bd"/><path d="m221.503906.125c-5.246094.164062-10.445312.511719-15.589844 1.050781.078126.882813.304688 1.769531.714844 2.617188l33.652344 69.484375c2.191406 4.523437 2.164062 9.710937-.078125 14.234375-2.113281 4.261719-5.933594 7.230469-10.480469 8.148437-.300781.0625-.605468.113282-.910156.15625l-13.734375 2.023438c-14.96875 2.207031-27.222656 12.503906-31.984375 26.878906-4.757812 14.375-1.078125 29.960938 9.613281 40.679688l30.457031 30.542968c1.464844 1.46875 3.382813 2.199219 5.304688 2.199219 1.914062 0 3.828125-.730469 5.292969-2.191406 2.929687-2.925781 2.933593-7.675781.007812-10.605469l-30.457031-30.542969c-6.765625-6.78125-9.003906-16.265625-5.992188-25.359375 3.011719-9.097656 10.464844-15.363281 19.9375-16.757812l13.738282-2.023438c.5625-.085937 1.125-.183594 1.679687-.292968 9.128907-1.839844 16.765625-7.738282 20.953125-16.191407 4.316406-8.707031 4.367188-18.710937.136719-27.441406zm0 0" fill="#e7387f"/><path d="m228.46875 0c-7.25 0-14.414062.363281-21.480469 1.066406 108.859375 10.789063 193.886719 102.707032 193.886719 214.511719s-85.027344 203.726563-193.886719 214.515625c7.066407.699219 14.230469 1.0625 21.480469 1.0625 118.941406 0 215.363281-96.515625 215.363281-215.578125 0-119.058594-96.421875-215.578125-215.363281-215.578125zm0 0" fill="#865cb2"/><path d="m435.453125 155.851562-67.929687-29.652343c-3.796876-1.652344-8.210938.082031-9.863282 3.875-1.65625 3.796875.078125 8.21875 3.871094 9.875l73.367188 32.027343c.976562.425782 1.988281.625 2.988281.625.550781 0 1.089843-.078124 1.621093-.199218-1.136718-5.597656-2.496093-11.117188-4.054687-16.550782zm0 0" fill="#fb8723"/><path d="m375.46875 326.441406c-6.195312-8.945312-11.054688-18.726562-14.445312-29.078125l-28.71875-87.753906c-1.289063-3.9375-5.519532-6.082031-9.453126-4.792969-3.933593 1.289063-6.074218 5.523438-4.785156 9.460938l28.71875 87.757812c3.839844 11.730469 9.347656 22.816406 16.371094 32.953125l19.742188 28.503907c.316406.457031.683593.859374 1.074218 1.226562 3.511719-3.667969 6.890625-7.460938 10.136719-11.367188zm0 0" fill="#e7387f"/><path d="m422.191406 121.300781c-2.210937-4.539062-4.570312-8.992187-7.082031-13.347656l-52.992187 18.019531c-16.148438 5.492188-26.996094 20.648438-26.996094 37.71875v19.550782c0 13.695312-11.132813 24.835937-24.8125 24.835937h-59.128906c-4.136719 0-7.492188 3.359375-7.492188 7.5 0 4.144531 3.351562 7.5 7.492188 7.5h59.128906c21.941406 0 39.796875-17.867187 39.796875-39.835937v-19.550782c0-10.640625 6.765625-20.09375 16.832031-23.515625l54.273438-18.453125c.339843-.117187.664062-.261718.980468-.421875zm0 0" fill="#eb5793"/><path d="m117.539062 254.277344-101.28125-17.546875c-.722656-.125-1.433593-.136719-2.125-.058594.5 5.144531 1.183594 10.234375 2.039063 15.265625l98.8125 17.121094c.433594.074218.863281.109375 1.289063.109375 3.574218 0 6.742187-2.574219 7.371093-6.222657.707031-4.082031-2.027343-7.960937-6.105469-8.667968zm0 0" fill="#fb8723"/><path d="m216.089844 237.734375-49.464844-19.265625c-10.3125-4.019531-21.496094-3.613281-31.492188 1.132812-9.996093 4.746094-17.382812 13.164063-20.796874 23.699219l-16.609376 51.253907c-.800781 2.46875-2.863281 4.375-5.386718 4.976562l-54.1875 12.949219c-.632813.148437-1.21875.382812-1.769532.675781 2.320313 4.5625 4.796876 9.027344 7.421876 13.394531l52.015624-12.425781c7.566407-1.808594 13.757813-7.535156 16.160157-14.941406l16.609375-51.253906c2.128906-6.566407 6.734375-11.816407 12.96875-14.773438 6.230468-2.960938 13.203125-3.210938 19.632812-.707031l49.464844 19.265625c3.859375 1.5 8.199219-.410156 9.699219-4.269532 1.5-3.863281-.410157-8.210937-4.265625-9.710937zm0 0" fill="#eb5793"/><path d="m202.957031 242.277344h51.023438v195.550781h-51.023438zm0 0" fill="#e1edef"/><path d="m233 242.277344h20.980469v195.550781h-20.980469zm0 0" fill="#d2e4e7"/><path d="m282.308594 215.578125c0-29.765625-24.105469-53.894531-53.839844-53.894531s-53.839844 24.128906-53.839844 53.894531 24.105469 53.894531 53.839844 53.894531 53.839844-24.128906 53.839844-53.894531zm0 0" fill="#72d1fb"/><path d="m228.46875 161.683594c-7.0625 0-13.800781 1.375-19.980469 3.851562 19.839844 7.941406 33.859375 27.347656 33.859375 50.042969s-14.019531 42.101563-33.859375 50.046875c6.179688 2.472656 12.917969 3.847656 19.980469 3.847656 29.734375 0 53.839844-24.128906 53.839844-53.894531s-24.105469-53.894531-53.839844-53.894531zm0 0" fill="#40c1fa"/><path d="m16.660156 422.519531h420.976563c8.925781 0 16.160156 7.234375 16.160156 16.160157v57.160156c0 8.925781-7.234375 16.160156-16.160156 16.160156h-420.976563c-8.925781 0-16.160156-7.234375-16.160156-16.160156v-57.160156c0-8.925782 7.234375-16.160157 16.160156-16.160157zm0 0" fill="#ffea84"/><path d="m437.644531 422.519531h-39.960937c8.921875 0 16.152344 7.238281 16.152344 16.167969v57.144531c0 8.929688-7.230469 16.167969-16.152344 16.167969h39.960937c8.921875 0 16.152344-7.238281 16.152344-16.167969v-57.144531c0-8.929688-7.230469-16.167969-16.152344-16.167969zm0 0" fill="#ffe046"/></svg>