<svg height="511pt" viewBox="-3 1 511 511.999" width="511pt" xmlns="http://www.w3.org/2000/svg"><path d="m388.207031 424.050781h-191.488281c-102.105469 0-184.882812-82.738281-184.882812-184.804687 0-60.617188 49.339843-109.9375 109.988281-109.9375v52.351562c-31.769531 0-57.613281 25.832032-57.613281 57.585938 0 73.152344 59.328124 132.453125 132.507812 132.453125h175.46875c14.457031 0 26.175781 11.71875 26.175781 26.175781v16.019531c0 5.609375-4.546875 10.15625-10.15625 10.15625zm0 0" fill="#c8d2dc"/><path d="m372.1875 371.695312h-40.621094c14.457032 0 26.175782 11.722657 26.175782 26.175782v16.023437c0 5.609375-4.546876 10.15625-10.152344 10.15625h40.617187c5.609375 0 10.15625-4.546875 10.15625-10.15625v-16.023437c0-14.453125-11.71875-26.175782-26.175781-26.175782zm0 0" fill="#b9c3cd"/><path d="m172.539062 346.570312c17.359376 0 33.527344 8.8125 42.921876 23.402344l73.960937 114.804688h-234.636719l74.980469-115.035156c9.421875-14.457032 25.511719-23.171876 42.773437-23.171876zm0 0" fill="#5f6c75"/><path d="m215.460938 369.972656c-9.394532-14.589844-25.5625-23.402344-42.921876-23.402344-5.15625 0-10.207031.792969-15.007812 2.269532 11.355469 3.496094 21.3125 10.878906 27.917969 21.132812l73.960937 114.804688h30.011719zm0 0" fill="#4e5a61"/><path d="m275.804688 296.160156h76.46875v12.183594c0 21.109375-17.113282 38.222656-38.226563 38.222656h-.015625c-21.113281 0-38.226562-17.113281-38.226562-38.222656zm0 0" fill="#d5f1fe"/><path d="m322.257812 296.160156v12.191406c0 15.78125-9.570312 29.324219-23.226562 35.15625 4.609375 1.96875 9.679688 3.058594 15.007812 3.058594 21.117188 0 38.234376-17.109375 38.234376-38.214844v-12.191406zm0 0" fill="#b4e7fd"/><path d="m275.804688 20.941406v287.410156c0 1.722657.125 3.414063.347656 5.074219h75.773437c.222657-1.660156.347657-3.355469.347657-5.074219v-287.410156zm0 0" fill="#5f6c75"/><path d="m322.601562 20.941406v287.410156c0 1.722657-.125 3.414063-.34375 5.074219h29.671876c.21875-1.660156.34375-3.355469.34375-5.074219v-287.410156zm0 0" fill="#4e5a61"/><path d="m354.6875 27.222656h-80.25c-5.605469 0-10.152344-4.546875-10.152344-10.15625v-6.910156c0-5.609375 4.546875-10.15625 10.152344-10.15625h80.25c5.609375 0 10.15625 4.546875 10.15625 10.15625v6.910156c0 5.609375-4.546875 10.15625-10.15625 10.15625zm0 0" fill="#cbed74"/><path d="m354.6875 0h-40.621094c5.609375 0 10.15625 4.546875 10.15625 10.15625v6.910156c0 5.609375-4.546875 10.15625-10.15625 10.15625h40.621094c5.609375 0 10.15625-4.546875 10.15625-10.15625v-6.910156c0-5.609375-4.546875-10.15625-10.15625-10.15625zm0 0" fill="#b9e746"/><path d="m155.84375 205.21875h108.441406v-99.46875h-108.441406c-27.464844 0-49.730469 22.269531-49.730469 49.734375 0 27.46875 22.265625 49.734375 49.730469 49.734375zm0 0" fill="#5f6c75"/><path d="m221.175781 105.75h43.109375v99.46875h-43.109375zm0 0" fill="#4e5a61"/><path d="m367.257812 282.699219h-106.4375c-5.605468 0-10.152343-4.546875-10.152343-10.15625v-210.035157c0-5.609374 4.546875-10.15625 10.152343-10.15625h106.4375c5.609376 0 10.15625 4.546876 10.15625 10.15625v210.035157c0 5.609375-4.546874 10.15625-10.15625 10.15625zm0 0" fill="#cbed74"/><path d="m367.257812 52.351562h-40.621093c5.609375 0 10.15625 4.546876 10.15625 10.15625v210.039063c0 5.605469-4.546875 10.152344-10.15625 10.152344h40.621093c5.609376 0 10.15625-4.546875 10.15625-10.152344v-210.039063c0-5.609374-4.546874-10.15625-10.15625-10.15625zm0 0" fill="#b9e746"/><path d="m467.199219 463.835938h-428.691407c-20.992187 0-38.007812 17.015624-38.007812 38.007812 0 5.609375 4.546875 10.15625 10.15625 10.15625h484.394531c5.609375 0 10.15625-4.546875 10.15625-10.15625 0-20.992188-17.015625-38.007812-38.007812-38.007812zm0 0" fill="#cbed74"/><path d="m467.199219 463.835938h-40.621094c20.992187 0 38.007813 17.015624 38.007813 38.007812 0 5.609375-4.546876 10.15625-10.152344 10.15625h40.617187c5.609375 0 10.15625-4.546875 10.15625-10.15625 0-20.992188-17.015625-38.007812-38.007812-38.007812zm0 0" fill="#b9e746"/><path d="m204.660156 411.675781c0-17.949219-14.558594-32.5-32.515625-32.5s-32.511719 14.550781-32.511719 32.5 14.554688 32.5 32.511719 32.5 32.515625-14.550781 32.515625-32.5zm0 0" fill="#c8d2dc"/><path d="m172.144531 379.175781c-3.492187 0-6.851562.558594-10.003906 1.574219 13.0625 4.21875 22.511719 16.46875 22.511719 30.925781 0 14.460938-9.449219 26.707031-22.511719 30.925781 3.152344 1.019532 6.515625 1.574219 10.003906 1.574219 17.957031 0 32.515625-14.550781 32.515625-32.5s-14.558594-32.5-32.515625-32.5zm0 0" fill="#b9c3cd"/><path d="m179.660156 155.484375c0-12.425781-10.078125-22.5-22.511718-22.5-12.433594 0-22.511719 10.074219-22.511719 22.5s10.078125 22.5 22.511719 22.5c12.433593 0 22.511718-10.074219 22.511718-22.5zm0 0" fill="#c8d2dc"/><path d="m157.148438 132.984375c-3.203126 0-6.246094.671875-9.003907 1.878906 7.949219 3.472657 13.507813 11.394531 13.507813 20.621094s-5.558594 17.148437-13.507813 20.621094c2.757813 1.207031 5.800781 1.878906 9.003907 1.878906 12.433593 0 22.511718-10.074219 22.511718-22.5s-10.078125-22.5-22.511718-22.5zm0 0" fill="#b9c3cd"/></svg>