<svg height="512pt" viewBox="0 0 512 511" width="512pt" xmlns="http://www.w3.org/2000/svg"><path d="m61.785156 457.828125c-1.921875 0-3.839844-.730469-5.304687-2.195313-2.929688-2.929687-2.925781-7.671874.003906-10.597656l386.902344-386.183594c2.929687-2.925781 7.675781-2.921874 10.605469.003907 2.925781 2.929687 2.925781 7.671875-.007813 10.597656l-386.898437 386.183594c-1.464844 1.460937-3.382813 2.191406-5.300782 2.191406zm0 0" fill="#5f6c75"/><path d="m299.894531 376.378906c-7.503906 0-15.371093-.832031-23.515625-2.515625-30.6875-6.34375-61.90625-24.144531-87.90625-50.121093-26.003906-25.980469-43.816406-57.171876-50.167968-87.828126-6.582032-31.796874-.152344-59.355468 18.105468-77.597656 18.257813-18.242187 45.839844-24.667968 77.664063-18.089844 30.6875 6.34375 61.90625 24.144532 87.90625 50.121094 26.003906 25.980469 43.820312 57.171875 50.167969 87.832032 6.582031 31.792968.152343 59.351562-18.105469 77.59375-13.585938 13.578124-32.332031 20.605468-54.148438 20.605468zm-89.261719-223.667968c-17.835937 0-32.921874 5.519531-43.617187 16.203124-14.566406 14.554688-19.546875 37.273438-14.019531 63.964844 5.761718 27.824219 22.128906 56.332032 46.082031 80.265625 23.957031 23.933594 52.488281 40.285157 80.339844 46.042969 26.714843 5.523438 49.449219.546875 64.019531-14.007812 14.570312-14.558594 19.550781-37.273438 14.023438-63.964844-5.765626-27.828125-22.128907-56.332032-46.085938-80.269532-23.953125-23.933593-52.484375-40.285156-80.339844-46.042968-7.105468-1.46875-13.9375-2.191406-20.402344-2.191406zm0 0" fill="#fb8723"/><path d="m301.691406 221.496094 36.316406-36.246094-10.609374-10.597656-36.3125 36.246094zm0 0" fill="#5f6c75"/><path d="m290.539062 159.386719c-24.9375 0-52.667968 7.34375-78.792968 22.414062-59.570313 34.363281-88.527344 96.074219-64.554688 137.566407 11.371094 19.679687 33.097656 32.011718 61.171875 34.730468 29.007813 2.8125 61.097657-4.933594 90.347657-21.804687 29.25-16.871094 52.003906-40.761719 64.070312-67.269531 11.683594-25.652344 11.851562-50.617188.480469-70.296876-13.460938-23.292968-40.796875-35.339843-72.722657-35.339843zm-70.375 210.261719c-4.464843 0-8.886718-.210938-13.25-.632813-33.027343-3.199219-58.851562-18.171875-72.710937-42.15625-13.859375-23.988281-13.925781-53.816406-.183594-83.996094 13.351563-29.324219 38.292969-55.621093 70.226563-74.042969 31.933594-18.417968 67.191406-26.855468 99.292968-23.742187 33.027344 3.199219 58.851563 18.167969 72.714844 42.15625 13.859375 23.984375 13.925782 53.816406.183594 83.996094-13.351562 29.324219-38.292969 55.621093-70.226562 74.039062l-3.75-6.488281 3.75 6.488281c-27.597657 15.917969-57.675782 24.378907-86.046876 24.378907zm0 0" fill="#ffe046"/><path d="m149.792969 373.261719 36.316406-36.246094-10.609375-10.597656-36.3125 36.246093zm0 0" fill="#5f6c75"/><path d="m255.226562 470.316406c-117.703124 0-213.460937-95.671875-213.460937-213.269531s95.757813-213.269531 213.460937-213.269531c117.703126 0 213.460938 95.671875 213.460938 213.269531s-95.757812 213.269531-213.460938 213.269531zm0-386.578125c-95.644531 0-173.460937 77.746094-173.460937 173.308594s77.8125 173.308594 173.460937 173.308594c95.644532 0 173.460938-77.746094 173.460938-173.308594s-77.816406-173.308594-173.460938-173.308594zm0 0" fill="#ffea84"/><path d="m255.226562 43.773438c-6.746093 0-13.414062.332031-20 .945312 108.359376 10.109375 193.460938 101.46875 193.460938 212.328125s-85.101562 202.21875-193.460938 212.328125c6.585938.613281 13.253907.941406 20 .941406 117.703126 0 213.460938-95.671875 213.460938-213.269531s-95.757812-213.273437-213.460938-213.273437zm0 0" fill="#ffe046"/><path d="m274.917969 237.371094c25.375 25.355468 37.128906 54.714844 26.253906 65.578125-10.875 10.867187-40.261719-.878907-65.636719-26.230469s-37.128906-54.710938-26.253906-65.578125c10.875-10.863281 40.261719.878906 65.636719 26.230469zm0 0" fill="#ffea84"/><path d="m274.917969 237.371094c-25.019531-24.996094-53.929688-36.75-65.15625-26.65625 11.851562 4.757812 25.503906 14.015625 38.15625 26.65625 25.375 25.355468 37.128906 54.714844 26.253906 65.578125-.152344.152343-.320313.285156-.476563.425781 11.917969 4.785156 22.023438 5.023438 27.476563-.425781 10.875-10.863281-.878906-40.222657-26.253906-65.578125zm0 0" fill="#ffe046"/><path d="m512 38.253906c0-20.851562-16.917969-37.753906-37.785156-37.753906-20.867188 0-37.785156 16.902344-37.785156 37.753906 0 20.847656 16.917968 37.75 37.785156 37.75 20.867187 0 37.785156-16.902344 37.785156-37.75zm0 0" fill="#ffea84"/><path d="m474.214844.5c-5.332032 0-10.402344 1.109375-15 3.097656 13.402344 5.800782 22.785156 19.132813 22.785156 34.65625 0 15.523438-9.382812 28.851563-22.785156 34.652344 4.597656 1.988281 9.667968 3.097656 15 3.097656 20.867187 0 37.785156-16.902344 37.785156-37.75 0-20.851562-16.917969-37.753906-37.785156-37.753906zm0 0" fill="#ffe046"/><path d="m75.570312 474.296875c0-20.851563-16.917968-37.753906-37.785156-37.753906-20.867187 0-37.785156 16.902343-37.785156 37.753906 0 20.847656 16.917969 37.75 37.785156 37.75 20.867188 0 37.785156-16.902344 37.785156-37.75zm0 0" fill="#ffea84"/><path d="m37.785156 436.546875c-5.332031 0-10.402344 1.105469-15 3.097656 13.402344 5.800781 22.785156 19.128907 22.785156 34.652344s-9.382812 28.851563-22.785156 34.652344c4.597656 1.992187 9.667969 3.097656 15 3.097656 20.867188 0 37.785156-16.902344 37.785156-37.75s-16.917968-37.75-37.785156-37.75zm0 0" fill="#ffe046"/></svg>