<svg height="512pt" viewBox="0 0 512 512" width="512pt" xmlns="http://www.w3.org/2000/svg"><path d="m509.0625 139.144531-369.816406 369.492188c-3.910156 3.90625-10.25 3.90625-14.160156 0l-122.148438-122.039063c-3.917969-3.914062-3.917969-10.261718 0-14.175781l369.816406-369.492187c3.910156-3.90625 10.25-3.90625 14.160156 0l122.148438 122.039062c3.917969 3.914062 3.917969 10.261719 0 14.175781zm0 0" fill="#d5f1fe"/><path d="m509.0625 124.96875-28.097656-28.070312c3.667968 3.925781 3.597656 10.082031-.234375 13.910156l-369.820313 369.492187c-3.910156 3.90625-10.25 3.90625-14.160156 0l-94.050781-93.964843c.082031.085937.152343.175781.238281.261718l122.148438 122.039063c3.910156 3.90625 10.246093 3.90625 14.160156 0l369.816406-369.492188c3.917969-3.914062 3.917969-10.261719 0-14.175781zm0 0" fill="#b4e7fd"/><path d="m2.9375 386.597656 53.019531 52.972656 383.992188-383.652343-53.035157-52.988281c-3.910156-3.90625-10.25-3.90625-14.160156 0l-369.816406 369.492187c-3.917969 3.914063-3.917969 10.261719 0 14.175781zm0 0" fill="#eb5793"/><path d="m28.617188 412.257812 383.65625-383.980468 27.503906 27.480468-383.65625 383.980469zm0 0" fill="#e7387f"/><path d="m171.871094 476.0625-29.097656-29.074219c-2.847657-2.84375-7.46875-2.84375-10.316407 0-2.847656 2.847657-2.847656 7.460938 0 10.304688l29.101563 29.074219zm0 0" fill="#72d1fb"/><path d="m202.175781 445.761719-29.101562-29.078125c-2.847657-2.84375-7.464844-2.84375-10.3125 0-2.847657 2.847656-2.847657 7.460937 0 10.304687l29.101562 29.078125zm0 0" fill="#72d1fb"/><path d="m233.597656 414.367188-46.351562-46.308594c-2.847656-2.847656-7.464844-2.847656-10.3125 0-2.847656 2.84375-2.847656 7.457031 0 10.304687l46.347656 46.308594zm0 0" fill="#40c1fa"/><path d="m265.988281 382.003906-29.097656-29.078125c-2.847656-2.84375-7.464844-2.84375-10.316406 0-2.847657 2.847657-2.847657 7.460938 0 10.304688l29.101562 29.078125zm0 0" fill="#72d1fb"/><path d="m297.898438 350.121094-29.101563-29.074219c-2.847656-2.84375-7.464844-2.84375-10.3125 0-2.847656 2.847656-2.847656 7.460937 0 10.304687l29.097656 29.078126zm0 0" fill="#72d1fb"/><path d="m329.316406 318.730469-46.347656-46.308594c-2.851562-2.847656-7.46875-2.847656-10.316406 0s-2.847656 7.460937 0 10.304687l46.351562 46.308594zm0 0" fill="#40c1fa"/><path d="m361.710938 286.363281-29.101563-29.074219c-2.847656-2.84375-7.464844-2.84375-10.3125 0-2.847656 2.847657-2.847656 7.460938 0 10.308594l29.101563 29.074219zm0 0" fill="#72d1fb"/><path d="m393.46875 254.636719-29.101562-29.074219c-2.847657-2.84375-7.464844-2.847656-10.3125 0-2.847657 2.84375-2.847657 7.460938 0 10.304688l29.097656 29.074218zm0 0" fill="#72d1fb"/><path d="m425.222656 222.910156-46.347656-46.3125c-2.847656-2.84375-7.46875-2.84375-10.316406 0-2.847656 2.847656-2.847656 7.460938 0 10.304688l46.351562 46.3125zm0 0" fill="#40c1fa"/><g fill="#72d1fb"><path d="m456.976562 191.183594-29.097656-29.078125c-2.847656-2.84375-7.464844-2.84375-10.3125 0-2.847656 2.847656-2.847656 7.460937 0 10.304687l29.097656 29.078125zm0 0"/><path d="m488.929688 159.230469-29.097657-29.078125c-2.847656-2.84375-7.464843-2.84375-10.3125 0-2.847656 2.847656-2.847656 7.460937 0 10.308594l29.097657 29.074218zm0 0"/></g></svg>