<svg height="512pt" viewBox="0 -37 512.00048 512" width="512pt" xmlns="http://www.w3.org/2000/svg"><path d="m108.839844 438.367188h-18.917969c-5.558594 0-10.066406-4.507813-10.066406-10.066407v-64.972656h39.050781v64.972656c0 5.558594-4.503906 10.066407-10.066406 10.066407zm0 0" fill="#c8d2dc"/><path d="m102.253906 363.328125v64.972656c0 5.558594-4.507812 10.066407-10.066406 10.066407h16.652344c5.558594 0 10.066406-4.507813 10.066406-10.066407v-64.972656zm0 0" fill="#b9c3cd"/><path d="m57.824219 358.523438h83.113281l-3.902344 30.339843c-.648437 5.019531-4.921875 8.777344-9.984375 8.777344h-55.339843c-5.0625 0-9.335938-3.757813-9.984376-8.777344zm0 0" fill="#5f6c75"/><path d="m111.460938 358.523438-3.90625 30.339843c-.644532 5.019531-4.917969 8.78125-9.980469 8.78125h29.480469c5.0625 0 9.335937-3.761719 9.980468-8.78125l3.902344-30.339843zm0 0" fill="#4e5a61"/><path d="m406.53125 438.367188h-18.917969c-5.558593 0-10.066406-4.507813-10.066406-10.066407v-64.972656h39.050781v64.972656c0 5.558594-4.507812 10.066407-10.066406 10.066407zm0 0" fill="#c8d2dc"/><path d="m399.945312 363.328125v64.972656c0 5.558594-4.507812 10.066407-10.066406 10.066407h16.652344c5.558594 0 10.066406-4.507813 10.066406-10.066407v-64.972656zm0 0" fill="#b9c3cd"/><path d="m355.515625 358.523438h83.113281l-3.902344 30.339843c-.644531 5.019531-4.921874 8.777344-9.980468 8.777344h-55.34375c-5.0625 0-9.335938-3.757813-9.984375-8.777344zm0 0" fill="#5f6c75"/><path d="m409.152344 358.523438-3.90625 30.339843c-.644532 5.019531-4.917969 8.78125-9.980469 8.78125h29.480469c5.058594 0 9.335937-3.761719 9.980468-8.78125l3.902344-30.339843zm0 0" fill="#4e5a61"/><path d="m442.730469 80.992188h11.714843v61.109374h-11.714843zm0 0" fill="#5f6c75"/><path d="m89.347656 157.140625 332-146.335937 4.722656 10.71875-332 146.332031zm0 0" fill="#40c1fa"/><path d="m13.722656 268.058594 33.144532-78.945313 10.800781 4.535157-33.144531 78.941406zm0 0" fill="#40c1fa"/><path d="m46.433594 296.28125c-19.980469-6.699219-35.558594-21.902344-42.738282-41.714844l-3.34375-9.214844c-1.101562-3.042968.46875-6.402343 3.511719-7.503906 3.042969-1.105468 6.398438.472656 7.503907 3.511719l3.339843 9.21875c5.953125 16.429687 18.875 29.042969 35.449219 34.597656zm0 0" fill="#5f6c75"/><path d="m81.136719 235.308594h11.714843v35.953125h-11.714843zm0 0" fill="#5f6c75"/><path d="m448.160156 372.339844h-376.4375c-22.605468 0-41-18.390625-41-40.996094v-22.570312c0-16.941407 10.648438-32.347657 26.492188-38.34375l384.726562-145.542969c9.078125-3.433594 19.21875 1.140625 22.652344 10.214843 3.433594 9.074219-1.140625 19.214844-10.21875 22.652344l-384.722656 145.542969c-2.265625.855469-3.785156 3.054687-3.785156 5.476563v22.570312c0 3.230469 2.628906 5.859375 5.855468 5.859375h376.4375c9.703125 0 17.570313 7.863281 17.570313 17.566406s-7.867188 17.570313-17.570313 17.570313zm0 0" fill="#ffea84"/><path d="m399.898438 140.792969c9.078124-3.433594 19.21875 1.140625 22.652343 10.214843 3.433594 9.070313-1.132812 19.203126-10.195312 22.640626l42.023437-15.894532c9.074219-3.4375 13.648438-13.574218 10.214844-22.652344-3.433594-9.074218-13.574219-13.648437-22.652344-10.214843zm0 0" fill="#ffe046"/><path d="m253.824219 342.28125v-255.949219c0-18.023437 11.0625-33.308593 28.183593-38.941406 17.121094-5.632813 35.101563.09375 45.804688 14.59375 60.1875 81.519531 96.335938 177.949219 104.539062 278.867187l-35.027343 2.84375c-7.671875-94.390624-41.488281-184.589843-97.785157-260.84375-2.082031-2.820312-4.710937-2.6875-6.546874-2.085937-1.835938.605469-4.023438 2.0625-4.023438 5.566406v255.945313h-35.144531zm0 0" fill="#5f6c75"/><path d="m272.972656 94.929688v247.351562h15.996094v-255.949219c0-3.503906 2.1875-4.957031 4.023438-5.5625h-5.859376c-7.820312 0-14.160156 6.339844-14.160156 14.160157zm0 0" fill="#4e5a61"/><path d="m237.621094 296.535156h68.140625c5.558593 0 10.0625 4.507813 10.0625 10.066406v37.046876h-88.265625v-37.046876c0-5.558593 4.507812-10.066406 10.0625-10.066406zm0 0" fill="#e1edef"/><path d="m305.761719 296.535156h-32.207031c5.558593 0 10.0625 4.507813 10.0625 10.066406v37.046876h32.207031v-37.046876c0-5.558593-4.503907-10.066406-10.0625-10.066406zm0 0" fill="#d2e4e7"/><path d="m327.8125 61.984375c-9.972656-13.507813-26.257812-19.394531-42.277344-15.585937 9.03125 2.199218 17.214844 7.539062 23.152344 15.585937 60.1875 81.519531 96.339844 177.949219 104.542969 278.867187 0 0-.042969 1.039063-.003907 1.554688l19.125-1.554688c-8.203124-100.917968-44.351562-197.347656-104.539062-278.867187zm0 0" fill="#4e5a61"/><path d="m447.570312 337.203125h-233.660156v35.136719h234.25c9.203125 0 16.75-7.070313 17.507813-16.074219.882812-10.464844-7.597657-19.0625-18.097657-19.0625zm0 0" fill="#ffea84"/><path d="m447.570312 337.203125h-38.914062c10.496094 0 18.976562 8.601563 18.097656 19.0625-.757812 9.003906-8.308594 16.074219-17.511718 16.074219h38.917968c9.203125 0 16.75-7.070313 17.507813-16.074219.882812-10.464844-7.597657-19.0625-18.097657-19.0625zm0 0" fill="#ffe046"/><path d="m58.015625 176.613281 8.285156-8.285156 49.703125 49.699219-8.285156 8.285156zm0 0" fill="#b9c3cd"/><path d="m86.996094 156.320312c-22.609375 0-41.003906 18.390626-41.003906 40.996094 0 22.605469 18.394531 40.996094 41.003906 40.996094 22.605468 0 41-18.390625 41-40.996094 0-22.605468-18.394532-40.996094-41-40.996094zm0 11.710938c5.960937 0 11.507812 1.796875 16.136718 4.863281l-40.558593 40.558594c-3.070313-4.632813-4.867188-10.179687-4.867188-16.136719 0-16.148437 13.140625-29.285156 29.289063-29.285156zm0 58.566406c-5.960938 0-11.507813-1.792968-16.136719-4.863281l40.558594-40.554687c3.070312 4.628906 4.863281 10.175781 4.863281 16.136718 0 16.144532-13.136719 29.28125-29.285156 29.28125zm0 0" fill="#c8d2dc"/><path d="m477.875 40.996094h11.714844v202.621094h-11.714844zm0 0" fill="#40c1fa"/><path d="m419.617188 61.6875 49.703124-49.699219 8.285157 8.285157-49.707031 49.699218zm0 0" fill="#b9c3cd"/><g fill="#c8d2dc"><path d="m448.585938 0c-22.605469 0-41 18.390625-41 40.996094 0 22.605468 18.394531 40.996094 41 40.996094 22.609374 0 41.003906-18.390626 41.003906-40.996094 0-22.605469-18.394532-40.996094-41.003906-40.996094zm29.289062 40.996094c0 5.960937-1.792969 11.507812-4.863281 16.136718l-40.5625-40.554687c4.632812-3.070313 10.179687-4.863281 16.140625-4.863281 16.148437 0 29.285156 13.132812 29.285156 29.28125zm-58.574219 0c0-5.960938 1.792969-11.503906 4.863281-16.136719l40.5625 40.554687c-4.632812 3.070313-10.179687 4.863282-16.140624 4.863282-16.148438 0-29.285157-13.132813-29.285157-29.28125zm0 0"/><path d="m472.207031 305.035156c-9.585937 0-17.386719-7.800781-17.386719-17.382812v-12.640625c0-3.234375 2.625-5.859375 5.859376-5.859375 3.234374 0 5.855468 2.625 5.855468 5.859375v12.640625c0 3.125 2.542969 5.667968 5.667969 5.667968 3.128906 0 5.671875-2.542968 5.671875-5.667968v-42.019532h11.714844v42.019532c0 9.582031-7.800782 17.382812-17.382813 17.382812zm0 0"/><path d="m506.144531 251.488281h-44.824219c-3.234374 0-5.855468-2.621093-5.855468-5.859375 0-3.234375 2.621094-5.855468 5.855468-5.855468h44.824219c3.234375 0 5.855469 2.621093 5.855469 5.855468 0 3.238282-2.621094 5.859375-5.855469 5.859375zm0 0"/></g></svg>