<svg height="512pt" viewBox="0 -50 512 512" width="512pt" xmlns="http://www.w3.org/2000/svg"><path d="m504.714844 168.332031v75.511719h-60.59375v-75.511719zm0 0" fill="#4e5a61"/><path d="m512 7.078125c0 3.910156-3.167969 7.078125-7.078125 7.078125l-74.566406.4375c-22.121094 0-40.117188 17.996094-40.117188 40.113281v302.761719c0 22.121094 17.996094 40.113281 40.117188 40.113281l74.566406-.433593c3.910156 0 7.078125 3.167968 7.078125 7.078124 0 3.910157-3.167969 7.078126-7.078125 7.078126l-74.566406.4375c-29.929688 0-54.273438-24.347657-54.273438-54.273438v-302.761719c0-29.925781 24.34375-54.273437 54.273438-54.273437l74.566406-.433594c3.910156 0 7.078125 3.167969 7.078125 7.078125zm0 0" fill="#5f6c75"/><path d="m416.609375 94.550781v223.078125c0 5.214844-4.226563 9.4375-9.441406 9.4375h-48.019531c-5.210938 0-9.4375-4.222656-9.4375-9.4375v-223.078125c0-5.214843 4.226562-9.441406 9.4375-9.441406h48.019531c5.214843 0 9.441406 4.226563 9.441406 9.441406zm0 0" fill="#ffea84"/><path d="m407.167969 85.109375h-30.203125c5.214844 0 9.4375 4.226563 9.4375 9.441406v223.078125c0 5.210938-4.222656 9.4375-9.4375 9.4375h30.203125c5.214843 0 9.441406-4.226562 9.441406-9.4375v-223.078125c0-5.214843-4.226563-9.441406-9.441406-9.441406zm0 0" fill="#ffe046"/><path d="m470.683594 172.894531v65.542969c0 26.066406-21.128906 47.195312-47.195313 47.195312h-118.414062c-5.214844 0-9.441407-4.226562-9.441407-9.4375v-141.058593c0-5.210938 4.226563-9.4375 9.441407-9.4375h118.414062c26.066407 0 47.195313 21.128906 47.195313 47.195312zm0 0" fill="#e1edef"/><path d="m423.488281 125.699219h-37.753906c26.066406 0 47.195313 21.128906 47.195313 47.195312v65.542969c0 26.066406-21.128907 47.195312-47.195313 47.195312h37.753906c26.066407 0 47.195313-21.128906 47.195313-47.195312v-65.542969c0-26.066406-21.128906-47.195312-47.195313-47.195312zm0 0" fill="#d2e4e7"/><path d="m7.285156 243.84375v-75.511719h63.726563v75.511719zm0 0" fill="#5f6c75"/><path d="m139.054688 54.710938v302.757812c0 29.925781-24.347657 54.273438-54.273438 54.273438h-77.703125c-3.910156 0-7.078125-3.167969-7.078125-7.078126 0-3.910156 3.167969-7.078124 7.078125-7.078124h77.703125c22.117188 0 40.113281-17.996094 40.113281-40.117188v-302.757812c0-22.121094-17.996093-40.117188-40.113281-40.117188h-77.703125c-3.910156 0-7.078125-3.167969-7.078125-7.078125s3.167969-7.078125 7.078125-7.078125h77.703125c29.925781-.003906 54.273438 24.34375 54.273438 54.273438zm0 0" fill="#5f6c75"/><path d="m165.421875 94.125v223.082031c0 5.210938-4.226563 9.4375-9.4375 9.4375h-48.019531c-5.214844 0-9.441406-4.226562-9.441406-9.4375v-223.082031c0-5.210938 4.226562-9.4375 9.441406-9.4375h48.019531c5.210937 0 9.4375 4.226562 9.4375 9.4375zm0 0" fill="#ffea84"/><path d="m155.984375 84.6875h-30.203125c5.210938 0 9.4375 4.226562 9.4375 9.4375v223.078125c0 5.214844-4.226562 9.441406-9.4375 9.441406h30.203125c5.210937 0 9.4375-4.226562 9.4375-9.441406v-223.078125c0-5.210938-4.226563-9.4375-9.4375-9.4375zm0 0" fill="#ffe046"/><path d="m219.5 135.136719v141.054687c0 5.214844-4.226562 9.441406-9.441406 9.441406h-118.414063c-26.066406 0-47.195312-21.128906-47.195312-47.195312v-65.546875c0-26.0625 21.128906-47.191406 47.195312-47.191406h118.414063c5.214844 0 9.441406 4.226562 9.441406 9.4375zm0 0" fill="#e1edef"/><path d="m210.058594 125.699219h-50.949219c5.214844 0 22.632813 4.226562 22.632813 9.4375v141.058593c0 5.210938-17.417969 9.4375-22.632813 9.4375h50.949219c5.214844 0 9.441406-4.226562 9.441406-9.4375v-141.058593c0-5.210938-4.226562-9.4375-9.441406-9.4375zm0 0" fill="#d2e4e7"/><path d="m320.273438 211.621094h89.386718l-7.742187 5.515625c-2.488281 1.769531-3.070313 5.222656-1.296875 7.710937 1.769531 2.488282 5.222656 3.066406 7.714844 1.296875l21.828124-15.550781c3.027344-2.171875 3.035157-6.847656 0-9.007812l-21.828124-15.550782c-.976563-.691406-2.097657-1.027344-3.207032-1.027344-1.726562 0-3.429687.808594-4.507812 2.320313-1.773438 2.488281-1.191406 5.945313 1.296875 7.714844l7.742187 5.515625h-89.386718zm0 0" fill="#e7387f"/><path d="m82.625 206.109375c.007812 1.761719.878906 3.460937 2.316406 4.484375l21.832032 15.550781c2.488281 1.769531 5.941406 1.191407 7.710937-1.296875 1.773437-2.488281 1.195313-5.941406-1.292969-7.714844l-7.746094-5.515624h102.109376c3.054687 0 5.53125-2.472657 5.53125-5.527344 0-3.058594-2.476563-5.53125-5.53125-5.53125h-102.105469l7.742187-5.515625c2.488282-1.773438 3.066406-5.226563 1.292969-7.714844-1.078125-1.511719-2.78125-2.320313-4.507813-2.320313-1.109374 0-2.230468.332032-3.203124 1.027344l-21.832032 15.550782c-1.441406 1.027343-2.324218 2.75-2.316406 4.523437zm0 0" fill="#e7387f"/><path d="m236.894531 246.40625h-42.621093c-4.546876 0-8.230469-3.683594-8.230469-8.230469v-64.175781c0-4.546875 3.683593-8.230469 8.230469-8.230469h42.621093l-7.34375 16.746094c-1.707031 3.890625-.167969 8.441406 3.546875 10.5l6.019532 3.339844c4.0625 2.25 5.457031 7.414062 3.082031 11.40625l-6.660157 11.195312c-.917968 1.539063-1.304687 3.332031-1.109374 5.113281zm0 0" fill="#9773bd"/><path d="m242.199219 207.761719c2.375-3.992188.980469-9.15625-3.082031-11.40625l-6.019532-3.339844c-3.714844-2.058594-5.253906-6.609375-3.546875-10.503906l7.34375-16.742188h-26.230469l-7.34375 16.742188c-1.707031 3.894531-.171874 8.445312 3.546876 10.503906l6.019531 3.339844c4.0625 2.25 5.457031 7.414062 3.082031 11.40625l-6.664062 11.195312c-.914063 1.535157-1.304688 3.332031-1.105469 5.109375l2.464843 22.339844h26.230469l-2.464843-22.339844c-.195313-1.777344.191406-3.574218 1.105468-5.109375zm0 0" fill="#865cb2"/><path d="m320.789062 165.769531h-42.621093v.808594l-6.769531 15.441406c-1.796876 4.09375.003906 8.871094 4.054687 10.761719l5.207031 2.429688c4.398438 2.050781 6.074219 7.445312 3.613282 11.628906l-7.132813 12.132812c-.902344 1.527344-1.28125 3.308594-1.085937 5.074219l2.113281 19.144531v3.214844h.355469v.003906-.003906h42.265624c4.546876 0 8.230469-3.683594 8.230469-8.226562v-64.179688c0-4.546875-3.683593-8.230469-8.230469-8.230469zm0 0" fill="#9773bd"/><path d="m320.789062 165.769531h-26.230468c4.546875 0 8.230468 3.683594 8.230468 8.230469v64.175781c0 4.546875-3.683593 8.230469-8.230468 8.230469h26.230468c4.546876 0 8.230469-3.683594 8.230469-8.230469v-64.175781c0-4.546875-3.683593-8.230469-8.230469-8.230469zm0 0" fill="#865cb2"/><g fill="#40c1fa"><path d="m255.964844 102.875c-3.144532 0-5.691406-2.550781-5.691406-5.695312v-38.722657c0-3.144531 2.546874-5.691406 5.691406-5.691406 3.144531 0 5.691406 2.546875 5.691406 5.691406v38.722657c0 3.144531-2.546875 5.695312-5.691406 5.695312zm0 0"/><path d="m225.5625 102.875c-1.964844 0-3.878906-1.019531-4.933594-2.847656l-20.753906-35.941406c-1.570312-2.726563-.636719-6.207032 2.085938-7.777344 2.71875-1.574219 6.203124-.640625 7.773437 2.082031l20.753906 35.945313c1.570313 2.722656.640625 6.203124-2.085937 7.777343-.894532.515625-1.875.761719-2.839844.761719zm0 0"/><path d="m285.257812 102.875c-.96875 0-1.945312-.246094-2.84375-.761719-2.722656-1.574219-3.65625-5.054687-2.082031-7.777343l20.75-35.945313c1.570313-2.722656 5.050781-3.65625 7.777344-2.082031 2.722656 1.570312 3.65625 5.054687 2.082031 7.777344l-20.75 35.941406c-1.054687 1.828125-2.96875 2.847656-4.933594 2.847656zm0 0"/><path d="m255.964844 359.414062c-3.144532 0-5.691406-2.550781-5.691406-5.695312v-38.722656c0-3.144532 2.546874-5.695313 5.691406-5.695313 3.144531 0 5.691406 2.550781 5.691406 5.695313v38.722656c0 3.144531-2.546875 5.695312-5.691406 5.695312zm0 0"/><path d="m204.800781 356.632812c-.964843 0-1.945312-.246093-2.839843-.761718-2.722657-1.574219-3.65625-5.054688-2.085938-7.777344l20.753906-35.945312c1.570313-2.722657 5.050782-3.65625 7.773438-2.082032 2.726562 1.570313 3.65625 5.054688 2.085937 7.777344l-20.753906 35.941406c-1.050781 1.828125-2.964844 2.847656-4.933594 2.847656zm0 0"/><path d="m306.019531 356.632812c-1.96875 0-3.882812-1.019531-4.933593-2.847656l-20.753907-35.941406c-1.570312-2.726562-.640625-6.207031 2.082031-7.777344 2.722657-1.574218 6.207032-.640625 7.777344 2.082032l20.753906 35.945312c1.570313 2.722656.636719 6.203125-2.085937 7.777344-.894531.515625-1.875.761718-2.839844.761718zm0 0"/></g></svg>