<svg height="512pt" viewBox="0 -37 512.001 512" width="512pt" xmlns="http://www.w3.org/2000/svg"><path d="m289.105469 24.757812c6.851562 23.265626 34.933593 32.390626 54.152343 17.597657 27.269532-20.992188 65.097657 6.492187 53.5625 38.914062-8.128906 22.851563 9.226563 46.738281 33.46875 46.066407 34.402344-.953126 48.851563 43.519531 20.457032 62.96875-20.007813 13.707031-20.007813 43.234374 0 56.941406 28.390625 19.449218 13.941406 63.917968-20.457032 62.964844-24.242187-.667969-41.597656 23.21875-33.46875 46.066406 11.535157 32.425781-26.292968 59.90625-53.5625 38.917968-19.21875-14.792968-47.300781-5.667968-54.152343 17.59375-9.726563 33.011719-56.484375 33.011719-66.210938 0-6.851562-23.261718-34.933593-32.386718-54.152343-17.59375-27.269532 20.988282-65.097657-6.492187-53.5625-38.917968 8.128906-22.847656-9.226563-46.734375-33.46875-46.066406-34.402344.953124-48.851563-43.515626-20.457032-62.964844 20.007813-13.707032 20.007813-43.234375 0-56.941406-28.390625-19.449219-13.941406-63.917969 20.457032-62.96875 24.242187.671874 41.597656-23.214844 33.46875-46.066407-11.535157-32.421875 26.292968-59.90625 53.5625-38.914062 19.21875 14.792969 47.300781 5.667969 54.152343-17.597657 9.726563-33.011718 56.484375-33.011718 66.210938 0zm0 0" fill="#9773bd"/><g fill="#865cb2"><path d="m249.105469 24.757812c6.726562 22.839844 33.90625 32.03125 53.078125 18.371094-6.007813-4.257812-10.761719-10.5-13.078125-18.371094-7.292969-24.7460932-35.394531-30.941406-53.105469-18.582031 5.914062 4.125 10.671875 10.320313 13.105469 18.582031zm0 0"/><path d="m249.105469 412.789062c-2.433594 8.265626-7.191407 14.457032-13.105469 18.582032 17.710938 12.359375 45.8125 6.164062 53.105469-18.582032 2.316406-7.871093 7.070312-14.113281 13.078125-18.371093-19.171875-13.660157-46.351563-4.46875-53.078125 18.371093zm0 0"/><path d="m450.75 247.242188c-20.007812-13.707032-20.007812-43.230469 0-56.9375 28.390625-19.449219 13.941406-63.921876-20.460938-62.96875-24.242187.671874-41.597656-23.214844-33.46875-46.066407 11.390626-32.007812-25.335937-59.199219-52.515624-39.6875 11.597656 8.257813 18.332031 23.34375 12.515624 39.6875-8.128906 22.851563 9.226563 46.738281 33.46875 46.066407 34.402344-.953126 48.851563 43.519531 20.460938 62.96875-20.007812 13.707031-20.007812 43.230468 0 56.9375 28.390625 19.453124 13.941406 63.921874-20.460938 62.96875-24.242187-.671876-41.597656 23.214843-33.46875 46.066406 5.816407 16.34375-.917968 31.429687-12.515624 39.6875 27.179687 19.511718 63.90625-7.679688 52.515624-39.6875-8.128906-22.851563 9.226563-46.738282 33.46875-46.066406 34.402344.953124 48.851563-43.515626 20.460938-62.96875zm0 0"/></g><path d="m377.539062 218.773438c0 67.125-54.414062 121.542968-121.539062 121.542968s-121.539062-54.417968-121.539062-121.542968 54.414062-121.539063 121.539062-121.539063 121.539062 54.414063 121.539062 121.539063zm0 0" fill="#e5646e"/><path d="m256 97.234375c-6.8125 0-13.492188.570313-20 1.644531 57.609375 9.539063 101.539062 59.582032 101.539062 119.894532s-43.929687 110.355468-101.539062 119.894531c6.507812 1.078125 13.1875 1.648437 20 1.648437 67.125 0 121.539062-54.417968 121.539062-121.542968s-54.414062-121.539063-121.539062-121.539063zm0 0" fill="#e04955"/><path d="m328.925781 218.773438c0 40.273437-32.652343 72.925781-72.925781 72.925781s-72.925781-32.652344-72.925781-72.925781c0-40.273438 32.652343-72.921876 72.925781-72.921876s72.925781 32.648438 72.925781 72.921876zm0 0" fill="#ffea84"/><path d="m256 145.851562c-6.9375 0-13.640625.988282-20 2.796876 30.546875 8.699218 52.925781 36.789062 52.925781 70.125 0 33.339843-22.378906 61.429687-52.925781 70.125 6.359375 1.808593 13.0625 2.800781 20 2.800781 40.273438 0 72.925781-32.648438 72.925781-72.925781 0-40.273438-32.652343-72.921876-72.925781-72.921876zm0 0" fill="#ffe046"/><path d="m255.855469 188.378906c-51.175781 0-97.363281-26.238281-123.570313-70.195312l-.714844-1.199219c-23.191406-38.90625-65.742187-63.078125-111.042968-63.078125h-13.234375c-4.027344 0-7.292969-3.265625-7.292969-7.292969 0-4.027343 3.265625-7.292969 7.292969-7.292969h13.234375c24.867187 0 49.4375 6.492188 71.058594 18.773438 21.621093 12.28125 39.78125 30.0625 52.515624 51.421875l.710938 1.199219c23.550781 39.5 65.058594 63.078125 111.042969 63.078125h.070312c46.015625-.023438 87.527344-23.648438 111.046875-63.199219 12.722656-21.394531 30.886719-39.207031 52.523438-51.515625 21.640625-12.304687 46.234375-18.8125 71.128906-18.8125h14.082031c4.027344 0 7.292969 3.265625 7.292969 7.292969s-3.265625 7.292968-7.292969 7.292968h-14.082031c-45.355469 0-87.933594 24.214844-111.117188 63.199219-26.171874 44.007813-72.371093 70.300781-123.574218 70.324219-.023438.003906-.054688.003906-.078125.003906zm0 0" fill="#fb8723"/><path d="m504.707031 398.226562h-13.234375c-24.867187 0-49.4375-6.492187-71.058594-18.773437-21.621093-12.28125-39.78125-30.0625-52.515624-51.421875l-.710938-1.199219c-23.550781-39.5-65.058594-63.078125-111.042969-63.078125-.023437 0-.046875 0-.070312 0-46.015625.023438-87.527344 23.652344-111.046875 63.199219-12.722656 21.394531-30.886719 39.207031-52.523438 51.515625-21.640625 12.308594-46.234375 18.8125-71.128906 18.8125h-14.082031c-4.027344 0-7.292969-3.265625-7.292969-7.292969 0-4.027343 3.265625-7.292969 7.292969-7.292969h14.082031c45.355469 0 87.933594-24.214843 111.117188-63.199218 26.171874-44.007813 72.371093-70.300782 123.574218-70.324219h.082032c51.171874 0 97.359374 26.234375 123.566406 70.195313l.714844 1.195312c23.195312 38.910156 65.746093 63.082031 111.042968 63.082031h13.238282c4.027343 0 7.289062 3.261719 7.289062 7.289063s-3.265625 7.292968-7.292969 7.292968zm0 0" fill="#fb8723"/></svg>