<svg height="512pt" viewBox="0 0 512 512" width="512pt" xmlns="http://www.w3.org/2000/svg"><path d="m512 256c0 141.386719-114.613281 256-256 256s-256-114.613281-256-256 114.613281-256 256-256 256 114.613281 256 256zm0 0" fill="#9773bd"/><path d="m256 0c-6.929688 0-13.792969.285156-20.585938.824219 131.757813 10.488281 235.414063 120.722656 235.414063 255.175781s-103.65625 244.6875-235.414063 255.175781c6.792969.539063 13.65625.824219 20.585938.824219 141.386719 0 256-114.613281 256-256s-114.613281-256-256-256zm0 0" fill="#865cb2"/><path d="m471 256c0 118.742188-96.257812 215-215 215s-215-96.257812-215-215 96.257812-215 215-215 215 96.257812 215 215zm0 0" fill="#ffea84"/><path d="m256 41c-5.820312 0-11.585938.238281-17.289062.691406 110.65625 8.808594 197.710937 101.386719 197.710937 214.308594s-87.054687 205.5-197.710937 214.308594c5.703124.453125 11.46875.691406 17.289062.691406 118.742188 0 215-96.257812 215-215s-96.257812-215-215-215zm0 0" fill="#ffe046"/><path d="m301.714844 256c0 25.246094-20.46875 45.714844-45.714844 45.714844s-45.714844-20.46875-45.714844-45.714844 20.46875-45.714844 45.714844-45.714844 45.714844 20.46875 45.714844 45.714844zm0 0" fill="#5f6c75"/><path d="m256 210.285156c-6.121094 0-11.953125 1.210938-17.289062 3.394532 16.675781 6.816406 28.425781 23.191406 28.425781 42.320312s-11.75 35.503906-28.425781 42.320312c5.335937 2.183594 11.167968 3.394532 17.289062 3.394532 25.246094 0 45.714844-20.46875 45.714844-45.714844s-20.46875-45.714844-45.714844-45.714844zm0 0" fill="#4e5a61"/><path d="m256 74.261719c-30.253906 0-58.777344 7.398437-83.871094 20.476562-4.234375 2.207031-5.757812 7.511719-3.371094 11.644531l44.472657 77.03125c2.191406 3.792969 6.902343 5.222657 10.875 3.386719 9.703125-4.484375 20.503906-6.992187 31.894531-6.992187s22.191406 2.507812 31.894531 6.992187c3.972657 1.835938 8.683594.40625 10.875-3.386719l44.472657-77.03125c2.386718-4.132812.859374-9.4375-3.371094-11.644531-25.09375-13.078125-53.617188-20.476562-83.871094-20.476562zm0 0" fill="#5f6c75"/><path d="m339.871094 94.738281c-25.09375-13.078125-53.617188-20.476562-83.871094-20.476562-5.832031 0-11.597656.28125-17.289062.816406 23.832031 2.25 46.324218 9.101563 66.582031 19.660156 4.234375 2.207031 5.757812 7.511719 3.371093 11.644531l-42.765624 74.070313c7.757812 1.011719 15.152343 3.183594 21.996093 6.347656 3.972657 1.835938 8.683594.40625 10.875-3.386719l44.472657-77.03125c2.386718-4.132812.859374-9.4375-3.371094-11.644531zm0 0" fill="#4e5a61"/><path d="m437.566406 263.988281c.207032-4.761719-3.628906-8.726562-8.394531-8.726562h-88.933594c-4.378906 0-7.972656 3.367187-8.371093 7.726562-.96875 10.644531-4.195313 21.25-9.890626 31.117188-5.695312 9.863281-13.265624 17.960937-22 24.125-3.578124 2.523437-4.695312 7.316406-2.507812 11.109375l44.46875 77.023437c2.390625 4.140625 7.761719 5.464844 11.789062 2.890625 48.417969-30.941406 81.199219-84.195312 83.839844-145.265625zm0 0" fill="#5f6c75"/><path d="m429.171875 255.261719h-34.574219c4.761719 0 8.597656 3.964843 8.390625 8.726562-2.3125 53.503907-27.765625 101.007813-66.597656 132.765625l5.546875 9.605469c2.390625 4.144531 7.757812 5.46875 11.789062 2.894531 48.417969-30.941406 81.199219-84.195312 83.839844-145.265625.207032-4.761719-3.628906-8.726562-8.394531-8.726562zm0 0" fill="#4e5a61"/><path d="m212.011719 318.226562c-8.734375-6.160156-16.308594-14.257812-22.003907-24.125-5.695312-9.863281-8.921874-20.472656-9.890624-31.117187-.394532-4.355469-3.992188-7.722656-8.371094-7.722656h-88.917969c-4.765625 0-8.601563 3.964843-8.394531 8.722656 2.640625 61.066406 35.417968 114.320313 83.828125 145.257813 4.027343 2.578124 9.398437 1.25 11.789062-2.890626l44.464844-77.015624c2.1875-3.789063 1.070313-8.585938-2.503906-11.109376zm0 0" fill="#5f6c75"/><path d="m212.011719 318.226562c-8.734375-6.160156-16.308594-14.257812-22.003907-24.125-5.695312-9.863281-8.921874-20.472656-9.890624-31.117187-.394532-4.355469-3.992188-7.722656-8.367188-7.722656h-34.578125c4.375 0 7.972656 3.367187 8.367187 7.722656.96875 10.644531 4.195313 21.253906 9.890626 31.117187 5.695312 9.867188 13.269531 17.964844 22.003906 24.125 3.574218 2.523438 4.691406 7.320313 2.503906 11.113282l-38.917969 67.40625c5.492188 4.488281 11.246094 8.664062 17.242188 12.5 4.027343 2.574218 9.398437 1.246094 11.789062-2.890625l44.464844-77.015625c2.1875-3.792969 1.070313-8.589844-2.503906-11.113282zm0 0" fill="#4e5a61"/></svg>