<svg height="512pt" viewBox="0 0 512 512" width="512pt" xmlns="http://www.w3.org/2000/svg"><path d="m256 512c-41.617188 0-80.449219-27.148438-109.335938-76.449219-28.167968-48.078125-43.679687-111.839843-43.679687-179.550781s15.511719-131.472656 43.679687-179.550781c28.886719-49.300781 67.71875-76.449219 109.335938-76.449219s80.449219 27.148438 109.335938 76.449219c28.167968 48.078125 43.679687 111.839843 43.679687 179.550781s-15.511719 131.472656-43.679687 179.550781c-28.886719 49.300781-67.71875 76.449219-109.335938 76.449219zm0-497.425781c-36.234375 0-70.597656 24.589843-96.761719 69.242187-26.878906 45.875-41.683593 107.027344-41.683593 172.183594s14.804687 126.308594 41.683593 172.183594c26.164063 44.652344 60.527344 69.242187 96.761719 69.242187s70.597656-24.589843 96.761719-69.242187c26.878906-45.875 41.683593-107.027344 41.683593-172.183594s-14.804687-126.308594-41.683593-172.183594c-26.164063-44.652344-60.527344-69.242187-96.761719-69.242187zm0 0" fill="#cbed74"/><path d="m256 409.015625c-67.710938 0-131.472656-15.511719-179.550781-43.679687-49.300781-28.886719-76.449219-67.71875-76.449219-109.335938s27.148438-80.449219 76.449219-109.335938c48.078125-28.167968 111.84375-43.679687 179.550781-43.679687s131.472656 15.511719 179.550781 43.679687c49.300781 28.886719 76.449219 67.71875 76.449219 109.335938s-27.148438 80.449219-76.449219 109.335938c-48.078125 28.167968-111.839843 43.679687-179.550781 43.679687zm0-291.460937c-65.15625 0-126.308594 14.804687-172.183594 41.683593-44.652344 26.164063-69.242187 60.527344-69.242187 96.761719s24.589843 70.597656 69.242187 96.761719c45.875 26.878906 107.027344 41.683593 172.183594 41.683593s126.308594-14.804687 172.183594-41.683593c44.652344-26.164063 69.242187-60.527344 69.242187-96.761719s-24.589843-70.597656-69.242187-96.761719c-45.875-26.878906-107.027344-41.683593-172.183594-41.683593zm0 0" fill="#72d1fb"/><path d="m356.011719 467.207031c-15.707031 0-32.585938-2.292969-50.359375-6.933593-53.914063-14.078126-109.972656-48.195313-157.851563-96.074219-47.878906-47.878907-81.996093-103.9375-96.074219-157.851563-14.433593-55.285156-6.175781-101.9375 23.253907-131.367187 29.429687-29.429688 76.082031-37.6875 131.367187-23.253907 53.914063 14.078126 109.972656 48.195313 157.851563 96.074219 47.878906 47.878907 81.996093 103.9375 96.074219 157.851563 14.433593 55.285156 6.175781 101.9375-23.253907 131.367187-19.964843 19.964844-47.867187 30.1875-81.007812 30.1875zm-197.90625-113.3125c46.074219 46.074219 99.78125 78.84375 151.226562 92.277344 50.074219 13.074219 91.761719 6.164063 117.382813-19.457031s32.527344-67.308594 19.457031-117.382813c-13.433594-51.445312-46.203125-105.152343-92.277344-151.226562s-99.78125-78.84375-151.226562-92.277344c-50.074219-13.074219-91.761719-6.164063-117.382813 19.457031s-32.527344 67.308594-19.457031 117.382813c13.433594 51.445312 46.203125 105.152343 92.277344 151.226562zm0 0" fill="#eb5793"/><path d="m155.988281 467.207031c-33.144531 0-61.039062-10.21875-81.007812-30.1875-29.429688-29.429687-37.6875-76.082031-23.253907-131.367187 14.078126-53.914063 48.195313-109.972656 96.074219-157.851563 47.878907-47.878906 103.9375-81.996093 157.851563-96.074219 55.28125-14.429687 101.9375-6.175781 131.367187 23.253907 29.429688 29.429687 37.6875 76.082031 23.253907 131.367187-14.078126 53.914063-48.195313 109.972656-96.074219 157.851563-47.878907 47.878906-103.9375 81.996093-157.851563 96.074219-17.769531 4.636718-34.65625 6.933593-50.359375 6.933593zm2.117188-309.101562c-46.074219 46.074219-78.84375 99.78125-92.277344 151.226562-13.074219 50.074219-6.164063 91.761719 19.457031 117.382813s67.304688 32.527344 117.382813 19.457031c51.445312-13.433594 105.152343-46.203125 151.226562-92.277344s78.84375-99.78125 92.277344-151.226562c13.070313-50.074219 6.164063-91.761719-19.457031-117.382813s-67.308594-32.53125-117.382813-19.457031c-51.445312 13.433594-105.152343 46.203125-151.226562 92.277344zm0 0" fill="#ffea84"/><path d="m316.96875 256c0 33.671875-27.296875 60.96875-60.96875 60.96875s-60.96875-27.296875-60.96875-60.96875 27.296875-60.96875 60.96875-60.96875 60.96875 27.296875 60.96875 60.96875zm0 0" fill="#cbed74"/><path d="m256 195.03125c-7.007812 0-13.734375 1.199219-20 3.375 23.84375 8.277344 40.96875 30.929688 40.96875 57.59375s-17.125 49.316406-40.96875 57.597656c6.265625 2.175782 12.992188 3.371094 20 3.371094 33.671875 0 60.96875-27.296875 60.96875-60.96875s-27.296875-60.96875-60.96875-60.96875zm0 0" fill="#b9e746"/></svg>