<svg height="512pt" viewBox="0 -155 512.001 512" width="512pt" xmlns="http://www.w3.org/2000/svg"><path d="m445.480469 146.109375c0 31.441406-25.484375 56.925781-56.925781 56.925781-31.4375 0-56.921876-25.484375-56.921876-56.925781 0-31.4375 25.484376-56.921875 56.921876-56.921875 31.441406 0 56.925781 25.484375 56.925781 56.921875zm0 0" fill="#eb5793"/><path d="m388.554688 89.1875c-7.039063 0-13.777344 1.285156-20 3.621094 21.574218 8.101562 36.925781 28.90625 36.925781 53.304687 0 24.398438-15.351563 45.203125-36.925781 53.300781 6.222656 2.335938 12.960937 3.621094 20 3.621094 31.441406 0 56.925781-25.484375 56.925781-56.921875 0-31.441406-25.484375-56.925781-56.925781-56.925781zm0 0" fill="#e7387f"/><path d="m167.03125 203.035156h-91.082031c-6.285157 0-11.382813-5.097656-11.382813-11.382812v-91.078125c0-6.289063 5.097656-11.386719 11.382813-11.386719h91.082031c6.289062 0 11.386719 5.097656 11.386719 11.386719v91.078125c0 6.285156-5.097657 11.382812-11.386719 11.382812zm0 0" fill="#72d1fb"/><path d="m167.03125 89.1875h-40c6.289062 0 11.386719 5.097656 11.386719 11.382812v91.082032c0 6.285156-5.097657 11.382812-11.386719 11.382812h40c6.289062 0 11.386719-5.097656 11.386719-11.382812v-91.082032c0-6.285156-5.097657-11.382812-11.386719-11.382812zm0 0" fill="#40c1fa"/><path d="m504.714844 20.488281h-209.527344l10.203125-7.265625c3.273437-2.332031 4.039063-6.882812 1.707031-10.160156-2.335937-3.277344-6.882812-4.042969-10.164062-1.707031l-28.761719 20.484375c-3.988281 2.863281-4 9.023437 0 11.871094l28.761719 20.484374c1.285156.914063 2.757812 1.351563 4.222656 1.351563 2.277344 0 4.519531-1.0625 5.941406-3.058594 2.332032-3.277343 1.566406-7.828125-1.707031-10.160156l-10.203125-7.265625h209.527344c4.023437 0 7.285156-3.261719 7.285156-7.289062 0-4.023438-3.261719-7.285157-7.285156-7.285157zm0 0" fill="#e7387f"/><g fill="#40c1fa"><path d="m246.882812 27.746094c-.011718-2.320313-1.15625-4.558594-3.054687-5.90625l-28.761719-20.488282c-3.277344-2.335937-7.828125-1.566406-10.164062 1.707032-2.332032 3.28125-1.566406 7.828125 1.710937 10.164062l10.199219 7.265625h-209.527344c-4.023437 0-7.285156 3.261719-7.285156 7.285157 0 4.023437 3.261719 7.285156 7.285156 7.285156h209.527344l-10.199219 7.265625c-3.277343 2.335937-4.042969 6.886719-1.710937 10.164062 1.421875 1.992188 3.667968 3.058594 5.941406 3.058594 1.464844 0 2.941406-.4375 4.222656-1.351563l28.761719-20.488281c1.898437-1.351562 3.0625-3.625 3.054687-5.960937zm0 0"/><path d="m499.554688 113.585938h-25.359376c-4.148437 0-7.507812-3.359376-7.507812-7.507813 0-4.144531 3.359375-7.503906 7.507812-7.503906h25.359376c4.144531 0 7.503906 3.359375 7.503906 7.503906s-3.359375 7.507813-7.503906 7.507813zm0 0"/><path d="m499.554688 153.617188h-14.351563c-4.144531 0-7.507813-3.359376-7.507813-7.503907 0-4.148437 3.363282-7.507812 7.507813-7.507812h14.351563c4.144531 0 7.503906 3.359375 7.503906 7.507812 0 4.144531-3.359375 7.503907-7.503906 7.503907zm0 0"/><path d="m499.554688 193.652344h-25.359376c-4.148437 0-7.507812-3.359375-7.507812-7.507813 0-4.144531 3.359375-7.503906 7.507812-7.503906h25.359376c4.144531 0 7.503906 3.359375 7.503906 7.503906 0 4.148438-3.359375 7.507813-7.503906 7.507813zm0 0"/><path d="m37.808594 113.585938h-25.363282c-4.144531 0-7.503906-3.359376-7.503906-7.507813 0-4.144531 3.359375-7.503906 7.503906-7.503906h25.363282c4.144531 0 7.503906 3.359375 7.503906 7.503906s-3.359375 7.507813-7.503906 7.507813zm0 0"/><path d="m26.796875 153.617188h-14.351563c-4.144531 0-7.503906-3.359376-7.503906-7.503907 0-4.148437 3.359375-7.507812 7.503906-7.507812h14.351563c4.148437 0 7.507813 3.359375 7.507813 7.507812 0 4.144531-3.363282 7.503907-7.507813 7.503907zm0 0"/><path d="m37.808594 193.652344h-25.363282c-4.144531 0-7.503906-3.359375-7.503906-7.507813 0-4.144531 3.359375-7.503906 7.503906-7.503906h25.363282c4.144531 0 7.503906 3.359375 7.503906 7.503906 0 4.148438-3.359375 7.507813-7.503906 7.507813zm0 0"/></g></svg>