<svg height="512pt" viewBox="-11 0 512 512" width="512pt" xmlns="http://www.w3.org/2000/svg"><path d="m48.566406 90.851562h63.65625v363.003907h-63.65625zm0 0" fill="#c8d2dc"/><path d="m84.941406 90.851562h27.28125v363.003907h-27.28125zm0 0" fill="#b9c3cd"/><path d="m377.742188 90.851562h63.652343v363.003907h-63.652343zm0 0" fill="#c8d2dc"/><path d="m414.117188 90.851562h27.277343v363.003907h-27.277343zm0 0" fill="#b9c3cd"/><path d="m309.125 387.511719h-128.285156c-5.066406 0-9.378906 3.695312-10.152344 8.703125l-8.929688 57.640625h166.449219l-8.929687-57.640625c-.773438-5.007813-5.085938-8.703125-10.152344-8.703125zm0 0" fill="#9773bd"/><path d="m319.277344 396.214844c-.773438-5.007813-5.085938-8.703125-10.152344-8.703125h-41.097656c5.066406 0 9.378906 3.695312 10.152344 8.703125l8.925781 57.640625h41.101562zm0 0" fill="#865cb2"/><path d="m469.953125 434.777344h-449.941406c-4.527344 0-8.40625 3.234375-9.214844 7.691406l-10.644531 58.488281c-1.046875 5.75 3.371094 11.042969 9.21875 11.042969h471.222656c5.84375 0 10.261719-5.292969 9.214844-11.046875l-10.640625-58.488281c-.808594-4.453125-4.691407-7.6875-9.214844-7.6875zm0 0" fill="#5f6c75"/><path d="m489.808594 500.953125-10.640625-58.488281c-.808594-4.453125-4.691407-7.691406-9.214844-7.691406h-41.097656c4.527343 0 8.40625 3.238281 9.214843 7.691406l10.640626 58.488281c1.046874 5.753906-3.371094 11.046875-9.214844 11.046875h41.097656c5.84375 0 10.261719-5.292969 9.214844-11.046875zm0 0" fill="#4e5a61"/><path d="m137.492188 319.34375h-115.929688c-5.171875 0-9.367188-4.195312-9.367188-9.367188v-125.71875c0-5.175781 4.195313-9.367187 9.367188-9.367187h115.929688c5.175781 0 9.367187 4.191406 9.367187 9.367187v125.71875c0 5.171876-4.191406 9.367188-9.367187 9.367188zm0 0" fill="#9773bd"/><path d="m137.492188 174.890625h-41.097657c5.171875 0 9.367188 4.195313 9.367188 9.367187v125.71875c0 5.171876-4.195313 9.367188-9.367188 9.367188h41.097657c5.175781 0 9.367187-4.195312 9.367187-9.367188v-125.71875c0-5.171874-4.195313-9.367187-9.367187-9.367187zm0 0" fill="#865cb2"/><path d="m101.351562 240.304688h-15.003906v-14.988282c0-3.765625-3.054687-6.8125-6.820312-6.8125s-6.820313 3.046875-6.820313 6.8125v14.988282h-15.003906c-3.765625 0-6.820313 3.050781-6.820313 6.8125 0 3.761718 3.054688 6.8125 6.820313 6.8125h15.003906v14.988281c0 3.765625 3.054688 6.8125 6.820313 6.8125 3.769531 0 6.820312-3.046875 6.820312-6.8125v-14.988281h15.003906c3.769532 0 6.820313-3.050782 6.820313-6.8125 0-3.761719-3.054687-6.8125-6.820313-6.8125zm0 0" fill="#e1edef"/><path d="m468.402344 319.34375h-115.929688c-5.175781 0-9.367187-4.195312-9.367187-9.367188v-125.71875c0-5.175781 4.191406-9.367187 9.367187-9.367187h115.929688c5.171875 0 9.367187 4.191406 9.367187 9.367187v125.71875c0 5.171876-4.195312 9.367188-9.367187 9.367188zm0 0" fill="#9773bd"/><path d="m468.402344 174.890625h-41.097656c5.171874 0 9.367187 4.195313 9.367187 9.367187v125.71875c0 5.171876-4.195313 9.367188-9.367187 9.367188h41.097656c5.171875 0 9.367187-4.195312 9.367187-9.367188v-125.71875c0-5.171874-4.195312-9.367187-9.367187-9.367187zm0 0" fill="#865cb2"/><path d="m432.261719 253.929688h-43.648438c-3.765625 0-6.820312-3.050782-6.820312-6.8125 0-3.761719 3.054687-6.8125 6.820312-6.8125h43.648438c3.765625 0 6.820312 3.050781 6.820312 6.8125 0 3.761718-3.054687 6.8125-6.820312 6.8125zm0 0" fill="#e1edef"/><path d="m195.269531 111.292969c-2.8125 0-5.351562-1.730469-6.367187-4.375l-23.050782-60.082031-21.820312 34.0625c-2.027344 3.167968-6.246094 4.089843-9.417969 2.066406-3.171875-2.03125-4.097656-6.246094-2.070312-9.414063l29.097656-45.425781c1.386719-2.164062 3.878906-3.371094 6.4375-3.105469 2.558594.261719 4.753906 1.9375 5.675781 4.339844l20.484375 53.382813 18.710938-67.304688c.804687-2.898438 3.414062-4.921875 6.421875-4.988281 2.980468-.082031 5.699218 1.839843 6.632812 4.695312l21.644532 66.253907 19.277343-66.046876c.84375-2.882812 3.476563-4.875 6.484375-4.90625h.066406c2.980469 0 5.617188 1.9375 6.507813 4.78125l21.136719 67.578126 18.65625-53.257813c.875-2.496094 3.113281-4.261719 5.742187-4.527344 2.628907-.273437 5.183594 1.003907 6.542969 3.269531l25.460938 42.398438c1.9375 3.226562.890624 7.414062-2.339844 9.351562-3.230469 1.933594-7.417969.886719-9.355469-2.339843l-17.980469-29.9375-20.65625 58.96875c-.972656 2.773437-3.625 4.589843-6.554687 4.5625-2.941407-.050781-5.515625-1.976563-6.394531-4.78125l-20.542969-65.6875-19.140625 65.5625c-.835938 2.871093-3.449219 4.859375-6.4375 4.90625-.035156 0-.074219 0-.109375 0-2.949219 0-5.566407-1.894531-6.484375-4.699219l-21.480469-65.765625-18.203125 65.472656c-.789062 2.835938-3.308594 4.84375-6.246094 4.984375-.109375.003906-.21875.007813-.328125.007813zm0 0" fill="#72d1fb"/><path d="m477.769531 68.140625c0-37.632813-30.535156-68.140625-68.199219-68.140625-37.667968 0-68.199218 30.507812-68.199218 68.140625 0 37.628906 30.53125 68.136719 68.199218 68.136719 37.664063 0 68.199219-30.507813 68.199219-68.136719zm0 0" fill="#ffea84"/><path d="m409.570312 0c-6.300781 0-12.394531.871094-18.1875 2.46875 28.832032 7.953125 50.011719 34.332031 50.011719 65.671875 0 31.335937-21.179687 57.714844-50.011719 65.667969 5.792969 1.597656 11.886719 2.46875 18.1875 2.46875 37.664063 0 68.199219-30.507813 68.199219-68.136719 0-37.632813-30.535156-68.140625-68.199219-68.140625zm0 0" fill="#ffe046"/><path d="m148.59375 68.140625c0-37.632813-30.535156-68.140625-68.199219-68.140625-37.664062 0-68.199219 30.507812-68.199219 68.140625 0 37.628906 30.535157 68.136719 68.199219 68.136719 37.664063 0 68.199219-30.507813 68.199219-68.136719zm0 0" fill="#ffea84"/><path d="m80.394531 0c-6.300781 0-12.394531.871094-18.183593 2.46875 28.832031 7.953125 50.011718 34.332031 50.011718 65.671875 0 31.335937-21.179687 57.714844-50.011718 65.667969 5.789062 1.597656 11.882812 2.46875 18.183593 2.46875 37.664063 0 68.199219-30.507813 68.199219-68.136719 0-37.632813-30.535156-68.140625-68.199219-68.140625zm0 0" fill="#ffe046"/></svg>