<svg height="511pt" viewBox="-164 0 511 511.999" width="511pt" xmlns="http://www.w3.org/2000/svg"><path d="m175.433594 163.589844c0-45.875-37.144532-83.0625-82.96875-83.0625-45.820313 0-82.964844 37.1875-82.964844 83.0625s37.144531 83.0625 82.964844 83.0625c45.824218 0 82.96875-37.1875 82.96875-83.0625zm0 0" fill="#eb5793"/><path d="m92.464844 80.527344c-5.757813 0-11.378906.597656-16.808594 1.71875 37.738281 7.800781 66.105469 41.253906 66.105469 81.34375s-28.367188 73.546875-66.105469 81.34375c5.429688 1.121094 11.050781 1.71875 16.808594 1.71875 45.824218 0 82.96875-37.1875 82.96875-83.0625s-37.144532-83.0625-82.96875-83.0625zm0 0" fill="#e7387f"/><g fill="#40c1fa"><path d="m123.097656 462.757812c-2.800781-2-6.683594-1.34375-8.675781 1.457032l-15.730469 22.113281v-204.402344c0-3.441406-2.789062-6.230469-6.226562-6.230469-3.433594 0-6.222656 2.789063-6.222656 6.230469v204.402344l-15.730469-22.113281c-1.992188-2.800782-5.875-3.457032-8.675781-1.457032-2.800782 1.992188-3.453126 5.882813-1.460938 8.6875l27.023438 37.980469c2.441406 3.425781 7.691406 3.433594 10.136718 0l27.019532-37.980469c1.996093-2.804687 1.34375-6.691406-1.457032-8.6875zm0 0"/><path d="m6.914062 86.945312c-3.542968 0-6.414062-2.875-6.414062-6.417968v-74.113282c0-3.542968 2.871094-6.414062 6.414062-6.414062 3.546876 0 6.417969 2.871094 6.417969 6.414062v74.113282c0 3.542968-2.871093 6.417968-6.417969 6.417968zm0 0"/><path d="m49.691406 72.398438c-3.542968 0-6.417968-2.871094-6.417968-6.414063v-59.570313c0-3.542968 2.875-6.414062 6.417968-6.414062 3.542969 0 6.414063 2.871094 6.414063 6.414062v59.570313c.003906 3.542969-2.871094 6.414063-6.414063 6.414063zm0 0"/><path d="m92.464844 59.566406c-3.542969 0-6.414063-2.871094-6.414063-6.414062v-46.738282c0-3.542968 2.871094-6.414062 6.414063-6.414062 3.546875 0 6.417968 2.871094 6.417968 6.414062v46.738282c0 3.542968-2.871093 6.414062-6.417968 6.414062zm0 0"/><path d="m135.242188 72.398438c-3.542969 0-6.414063-2.871094-6.414063-6.414063v-59.570313c0-3.542968 2.871094-6.414062 6.414063-6.414062 3.542968 0 6.417968 2.871094 6.417968 6.414062v59.570313c0 3.542969-2.875 6.414063-6.417968 6.414063zm0 0"/><path d="m178.015625 86.945312c-3.542969 0-6.414063-2.875-6.414063-6.417968v-74.113282c0-3.542968 2.871094-6.414062 6.414063-6.414062 3.546875 0 6.417969 2.871094 6.417969 6.414062v74.113282c0 3.542968-2.871094 6.417968-6.417969 6.417968zm0 0"/></g></svg>