<svg height="512pt" viewBox="0 0 512 512.00003" width="512pt" xmlns="http://www.w3.org/2000/svg"><path d="m383.480469 309.734375c2.867187 2.871094 2.867187 7.523437 0 10.390625l-152.113281 152.113281c-25.621094 25.617188-59.671876 39.742188-95.882813 39.761719-36.210937.023438-70.246094-14.058594-95.835937-39.648438-25.589844-25.589843-39.6679692-59.625-39.648438-95.835937s14.144531-70.261719 39.761719-95.882813l152.113281-152.113281c2.867188-2.867187 7.519531-2.867187 10.390625 0l45.605469 45.609375c2.871094 2.867188 2.871094 7.519532 0 10.390625l-152.109375 152.109375c-21.976563 21.976563-21.996094 57.707032-.046875 79.65625 21.949218 21.949219 57.683594 21.929688 79.65625-.046875l152.113281-152.109375c2.867187-2.871094 7.519531-2.871094 10.386719 0zm0 0" fill="#909ba6"/><path d="m111.074219 209.320312 32.382812-32.382812 55.996094 55.996094-32.382813 32.382812zm0 0" fill="#7e8b96"/><path d="m191.109375 241.28125 56.761719-56.761719c2.867187-2.871093 2.867187-7.523437 0-10.390625l-45.609375-45.609375c-2.867188-2.867187-7.519531-2.867187-10.390625 0l-56.761719 56.761719zm0 0" fill="#cbed74"/><path d="m191.875 128.519531-20.78125 20.78125c2.871094-2.871093 7.523438-2.871093 10.390625 0l45.609375 45.605469c2.867188 2.871094 2.867188 7.523438 0 10.390625l20.777344-20.777344c2.871094-2.871093 2.871094-7.523437 0-10.390625l-45.605469-45.609375c-2.871094-2.867187-7.523437-2.867187-10.390625 0zm0 0" fill="#b9e746"/><path d="m246.679688 344.925781 28.703124-28.703125 55.996094 55.996094-28.703125 28.707031zm0 0" fill="#7e8b96"/><path d="m327.480469 264.128906-56.761719 56.761719 56 55.996094 56.761719-56.761719c2.867187-2.867188 2.867187-7.519531 0-10.390625l-45.609375-45.605469c-2.867188-2.867187-7.519532-2.867187-10.390625 0zm0 0" fill="#e5646e"/><path d="m327.480469 264.128906-20.777344 20.777344c2.867187-2.867188 7.519531-2.867188 10.390625 0l45.605469 45.609375c2.871093 2.867187 2.871093 7.519531 0 10.390625l20.78125-20.78125c2.867187-2.867188 2.867187-7.519531 0-10.390625l-45.609375-45.605469c-2.867188-2.867187-7.519532-2.871094-10.390625 0zm0 0" fill="#e04955"/><path d="m202.21875 166.621094-8.320312 8.320312-8.308594-8.3125c-2.085938-2.085937-5.472656-2.082031-7.5625.007813-2.085938 2.085937-2.089844 5.472656-.003906 7.558593l8.3125 8.308594-8.320313 8.320313c-2.089844 2.089843-2.09375 5.472656-.007813 7.558593 2.085938 2.085938 5.472657 2.085938 7.558594-.003906l8.320313-8.320312 8.3125 8.308594c2.085937 2.085937 5.46875 2.085937 7.558593-.003907 2.089844-2.089843 2.089844-5.472656.003907-7.558593l-8.308594-8.3125 8.320313-8.316407c2.085937-2.089843 2.089843-5.476562.003906-7.5625-2.085938-2.085937-5.46875-2.082031-7.558594.007813zm0 0" fill="#e7387f"/><g fill="#e1edef"><path d="m345.382812 309.78125-24.207031 24.203125c-2.085937 2.089844-5.472656 2.09375-7.558593.003906-2.085938-2.085937-2.082032-5.46875.003906-7.558593l24.203125-24.203126c2.089843-2.089843 5.476562-2.089843 7.5625-.003906 2.085937 2.085938 2.082031 5.46875-.003907 7.558594zm0 0"/><path d="m235.847656 108.652344c-1.164062 1.164062-2.773437 1.882812-4.546875 1.882812-3.550781 0-6.425781-2.878906-6.429687-6.425781v-28.796875c.003906-14.738281 11.992187-26.726562 26.726562-26.726562h7.894532c3.703124 0 7.1875-1.445313 9.808593-4.0625 2.621094-2.621094 4.0625-6.101563 4.0625-9.808594v-7.988282c0-14.734374 11.988281-26.726562 26.726563-26.726562h27.773437c3.550781 0 6.429688 2.878906 6.429688 6.429688 0 3.546874-2.878907 6.425781-6.429688 6.425781h-27.773437c-7.648438 0-13.871094 6.222656-13.871094 13.871093v7.988282c0 7.136718-2.78125 13.847656-7.828125 18.894531s-11.757813 7.828125-18.898437 7.828125h-7.890626c-3.707031 0-7.191406 1.445312-9.808593 4.066406-2.621094 2.617188-4.0625 6.101563-4.0625 9.804688v28.796875c-.003907 1.777343-.722657 3.382812-1.882813 4.546875zm0 0"/><path d="m278.261719 151.070312c-1.160157 1.164063-2.769531 1.882813-4.542969 1.882813-3.550781 0-6.425781-2.878906-6.429688-6.429687v-28.796876c.003907-14.734374 11.992188-26.722656 26.726563-26.722656h7.894531c7.648438 0 13.871094-6.222656 13.871094-13.871094v-7.988281c0-14.738281 11.988281-26.726562 26.726562-26.726562h27.773438c3.546875 0 6.425781 2.878906 6.425781 6.429687 0 3.546875-2.878906 6.425782-6.429687 6.425782h-27.773438c-7.648437 0-13.871094 6.222656-13.871094 13.871093l.003907 7.988281c0 14.734376-11.992188 26.722657-26.726563 26.726563h-7.894531c-3.703125-.003906-7.1875 1.441406-9.808594 4.0625-2.617187 2.617187-4.0625 6.101563-4.0625 9.804687v28.796876c0 1.777343-.71875 3.382812-1.882812 4.546874zm0 0"/><path d="m504.164062 230.800781c-4.839843 4.839844-11.523437 7.835938-18.890624 7.835938h-7.988282c-3.703125 0-7.1875 1.441406-9.808594 4.0625-2.617187 2.621093-4.0625 6.105469-4.058593 9.808593l-.003907 7.894532c0 14.734375-11.988281 26.722656-26.726562 26.726562h-28.796875c-3.546875-.003906-6.425781-2.878906-6.425781-6.429687s2.878906-6.425781 6.425781-6.429688h28.796875c3.707031.003907 7.191406-1.441406 9.808594-4.058593 2.621094-2.621094 4.0625-6.105469 4.0625-9.808594v-7.894532c0-7.136718 2.78125-13.851562 7.828125-18.898437s11.757812-7.828125 18.898437-7.828125h7.988282c7.648437 0 13.871093-6.222656 13.871093-13.871094v-27.773437c0-3.550781 2.875-6.425781 6.425781-6.425781 3.550782-.003907 6.425782 2.875 6.425782 6.425781l.003906 27.773437c0 7.367188-2.996094 14.050782-7.835938 18.890625zm0 0"/><path d="m461.746094 188.382812c-4.839844 4.839844-11.519532 7.835938-18.890625 7.835938h-7.988281c-7.648438 0-13.871094 6.222656-13.867188 13.871094v7.894531c-.003906 14.734375-11.992188 26.722656-26.726562 26.726563h-28.796876c-3.550781-.003907-6.425781-2.878907-6.429687-6.429688.003906-3.550781 2.878906-6.425781 6.429687-6.429688h28.796876c3.703124.003907 7.1875-1.441406 9.808593-4.0625 2.617188-2.617187 4.0625-6.101562 4.0625-9.804687v-7.894531c0-14.734375 11.988281-26.726563 26.722657-26.726563h7.988281c7.648437 0 13.875-6.222656 13.871093-13.871093v-27.773438c0-3.550781 2.878907-6.425781 6.425782-6.425781 3.550781-.003907 6.429687 2.875 6.429687 6.425781v27.773438c0 7.371093-2.996093 14.050781-7.835937 18.890624zm0 0"/></g></svg>