<svg height="512pt" viewBox="0 0 512.00097 512" width="512pt" xmlns="http://www.w3.org/2000/svg"><path d="m256 457.558594c-38.800781 0-76.480469-11.050782-108.960938-31.957032-31.625-20.355468-56.886718-49.019531-73.054687-82.890624-9.804687-20.535157-8.421875-44.265626 3.695313-63.476563 12.0625-19.121094 32.769531-30.539063 55.394531-30.539063h245.847656c22.625 0 43.335937 11.417969 55.398437 30.539063 12.113282 19.210937 13.496094 42.941406 3.695313 63.476563-16.167969 33.871093-41.429687 62.53125-73.054687 82.890624-32.480469 20.90625-70.160157 31.957032-108.960938 31.957032zm-122.921875-194.292969c-17.59375 0-33.695313 8.875-43.074219 23.742187-9.429687 14.957032-10.503906 33.433594-2.871094 49.429688 15 31.425781 38.441407 58.019531 67.792969 76.910156 30.125 19.390625 65.074219 29.640625 101.074219 29.640625s70.949219-10.25 101.074219-29.640625c29.347656-18.890625 52.789062-45.484375 67.789062-76.910156 7.636719-15.996094 6.5625-34.472656-2.871093-49.429688-9.375-14.867187-25.476563-23.742187-43.070313-23.742187zm0 0" fill="#c8d2dc"/><path d="m256 408.988281c-29.449219 0-58.050781-8.390625-82.707031-24.261719-24.003907-15.449218-43.175781-37.203124-55.449219-62.910156-7.625-15.972656-6.546875-34.425781 2.875-49.367187 9.382812-14.871094 25.488281-23.753907 43.085938-23.753907h184.390624c17.597657 0 33.703126 8.882813 43.085938 23.753907 9.421875 14.941406 10.5 33.394531 2.875 49.367187-12.269531 25.707032-31.445312 47.460938-55.449219 62.910156-24.65625 15.871094-53.253906 24.261719-82.707031 24.261719zm-92.191406-145.722656c-12.566406 0-24.066406 6.339844-30.761719 16.957031-6.742187 10.683594-7.507813 23.886719-2.050781 35.316406 11.105468 23.261719 28.457031 42.949219 50.183594 56.933594 22.300781 14.355469 48.171874 21.941406 74.820312 21.941406 26.652344 0 52.523438-7.585937 74.824219-21.941406 21.722656-13.984375 39.078125-33.671875 50.183593-56.933594 5.453126-11.429687 4.6875-24.632812-2.050781-35.316406-6.699219-10.617187-18.195312-16.957031-30.761719-16.957031zm0 0" fill="#909ba6"/><path d="m256 511.960938c-51.050781 0-102.273438-15.972657-148.121094-46.191407-41.171875-27.136719-76.335937-64.890625-99.015625-106.300781-12.207031-22.292969-11.789062-47.605469 1.152344-69.445312 15.105469-25.492188 44.726563-41.328126 77.304687-41.328126h337.359376c32.578124 0 62.199218 15.835938 77.304687 41.328126 12.941406 21.839843 13.359375 47.152343 1.152344 69.445312-22.675781 41.410156-57.839844 79.164062-99.015625 106.300781-45.847656 30.21875-97.066406 46.191407-148.121094 46.191407zm-168.679688-248.695313c-27.453124 0-52.273437 13.101563-64.765624 34.1875-10.253907 17.300781-10.582032 37.351563-.910157 55.015625 39.503907 72.136719 127.285157 144.921875 234.355469 144.921875s194.855469-72.785156 234.355469-144.921875c9.675781-17.664062 9.34375-37.714844-.910157-55.015625-12.492187-21.085937-37.308593-34.1875-64.765624-34.1875zm0 0" fill="#e1edef"/><path d="m378.925781 263.265625h-245.847656c-22.625 0-43.335937-11.414063-55.398437-30.539063-12.117188-19.210937-13.5-42.941406-3.695313-63.476562 16.167969-33.867188 41.429687-62.53125 73.054687-82.886719 32.480469-20.910156 70.160157-31.960937 108.960938-31.960937s76.480469 11.050781 108.964844 31.960937c31.625 20.355469 56.886718 49.015625 73.050781 82.886719 9.804687 20.535156 8.421875 44.265625-3.695313 63.476562-12.0625 19.125-32.769531 30.539063-55.394531 30.539063zm-122.925781-194.292969c-36 0-70.949219 10.25-101.074219 29.640625-29.347656 18.890625-52.789062 45.488281-67.789062 76.914063-7.636719 15.996094-6.5625 34.472656 2.871093 49.425781 9.375 14.867187 25.476563 23.742187 43.070313 23.742187h245.847656c17.589844 0 33.691407-8.875 43.070313-23.742187 9.433594-14.953125 10.503906-33.429687 2.871094-49.425781-15-31.425782-38.441407-58.019532-67.789063-76.914063-30.128906-19.390625-65.078125-29.640625-101.078125-29.640625zm0 0" fill="#c8d2dc"/><path d="m348.195312 263.265625h-184.386718c-17.597656 0-33.707032-8.878906-43.089844-23.753906-9.421875-14.9375-10.496094-33.394531-2.875-49.363281 12.273438-25.707032 31.445312-47.460938 55.449219-62.914063 24.65625-15.871094 53.257812-24.257813 82.707031-24.257813 29.453125 0 58.054688 8.386719 82.707031 24.257813 24.003907 15.449219 43.179688 37.207031 55.449219 62.914063 7.625 15.96875 6.550781 34.425781-2.875 49.363281-9.382812 14.875-25.488281 23.753906-43.085938 23.753906zm-92.195312-145.71875c-26.648438 0-52.519531 7.585937-74.820312 21.941406-21.726563 13.984375-39.082032 33.671875-50.183594 56.9375-5.457032 11.425781-4.691406 24.628907 2.046875 35.3125 6.699219 10.617188 18.199219 16.957031 30.761719 16.957031h184.390624c12.5625 0 24.0625-6.339843 30.761719-16.957031 6.738281-10.683593 7.503907-23.886719 2.046875-35.3125-11.105468-23.265625-28.457031-42.953125-50.183594-56.9375-22.296874-14.355469-48.171874-21.941406-74.820312-21.941406zm0 0" fill="#909ba6"/><path d="m424.679688 263.265625h-337.359376c-32.578124 0-62.199218-15.835937-77.304687-41.328125-12.9375-21.839844-13.359375-47.152344-1.152344-69.445312 22.679688-41.410157 57.84375-79.160157 99.015625-106.300782 45.847656-30.21875 97.070313-46.191406 148.121094-46.191406 51.054688 0 102.273438 15.972656 148.121094 46.191406 41.171875 27.140625 76.339844 64.890625 99.015625 106.300782 12.207031 22.292968 11.789062 47.605468-1.152344 69.445312-15.105469 25.492188-44.726563 41.328125-77.304687 41.328125zm-168.679688-248.691406c-107.070312 0-194.851562 72.785156-234.355469 144.917969-9.671875 17.664062-9.34375 37.71875.910157 55.019531 12.492187 21.085937 37.308593 34.183593 64.765624 34.183593h337.359376c27.457031 0 52.273437-13.097656 64.765624-34.183593 10.253907-17.300781 10.585938-37.355469.910157-55.019531-39.5-72.132813-127.285157-144.917969-234.355469-144.917969zm0 0" fill="#e1edef"/><path d="m351.074219 255.980469c0 52.507812-42.566407 95.074219-95.074219 95.074219s-95.074219-42.566407-95.074219-95.074219c0-52.507813 42.566407-95.070313 95.074219-95.070313s95.074219 42.5625 95.074219 95.070313zm0 0" fill="#cbed74"/><path d="m256 160.910156c-8.773438 0-17.253906 1.222656-25.320312 3.453125 40.179687 11.109375 69.6875 47.90625 69.6875 91.617188 0 43.710937-29.507813 80.507812-69.6875 91.617187 8.066406 2.230469 16.546874 3.453125 25.320312 3.453125 52.507812 0 95.074219-42.5625 95.074219-95.070312 0-52.507813-42.566407-95.070313-95.074219-95.070313zm0 0" fill="#b9e746"/><path d="m317.667969 265.296875h-42.382813c-4.144531 0-7.503906-3.359375-7.503906-7.507813 0-4.144531 3.359375-7.503906 7.503906-7.503906h42.382813c4.148437 0 7.507812 3.359375 7.507812 7.503906 0 4.148438-3.359375 7.507813-7.507812 7.507813zm0 0" fill="#72d1fb"/><path d="m236.714844 250.285156h-13.683594v-13.6875c0-4.144531-3.363281-7.503906-7.507812-7.503906-4.144532 0-7.507813 3.359375-7.507813 7.503906v13.6875h-13.683594c-4.144531 0-7.503906 3.359375-7.503906 7.503906 0 4.148438 3.359375 7.507813 7.503906 7.507813h13.683594v13.683594c0 4.148437 3.363281 7.507812 7.507813 7.507812 4.144531 0 7.507812-3.359375 7.507812-7.507812v-13.683594h13.683594c4.144531 0 7.503906-3.359375 7.503906-7.507813 0-4.144531-3.359375-7.503906-7.503906-7.503906zm0 0" fill="#e7387f"/></svg>