<svg height="512pt" viewBox="-53 0 512 512" width="512pt" xmlns="http://www.w3.org/2000/svg"><path d="m244.511719 370.574219-83.148438-114.574219-134.539062 43.761719v141.621093l134.539062 43.765626zm0 0" fill="#e1edef"/><path d="m161.363281 256-24.246093 7.886719 71.027343 97.871093c3.816407 5.257813 3.816407 12.375 0 17.632813l-71.027343 97.871094 24.246093 7.886719 83.148438-114.574219zm0 0" fill="#d2e4e7"/><path d="m53.644531 299.761719c0-14.828125-12.007812-26.851563-26.820312-26.851563-14.816407 0-26.824219 12.023438-26.824219 26.851563 0 14.832031 12.007812 26.855469 26.824219 26.855469 14.8125 0 26.820312-12.023438 26.820312-26.855469zm0 0" fill="#72d1fb"/><path d="m26.824219 272.910156c-3.535157 0-6.902344.691406-9.988281 1.933594 9.863281 3.964844 16.832031 13.625 16.832031 24.917969 0 11.296875-6.96875 20.957031-16.832031 24.921875 3.085937 1.242187 6.453124 1.933594 9.988281 1.933594 14.8125 0 26.820312-12.023438 26.820312-26.855469 0-14.828125-12.007812-26.851563-26.820312-26.851563zm0 0" fill="#40c1fa"/><path d="m53.644531 441.394531c0-14.828125-12.007812-26.851562-26.820312-26.851562-14.816407 0-26.824219 12.023437-26.824219 26.851562 0 14.832031 12.007812 26.855469 26.824219 26.855469 14.8125 0 26.820312-12.023438 26.820312-26.855469zm0 0" fill="#eb5793"/><path d="m26.824219 414.542969c-3.535157 0-6.902344.691406-9.988281 1.933593 9.863281 3.964844 16.832031 13.625 16.832031 24.917969 0 11.296875-6.96875 20.957031-16.832031 24.921875 3.085937 1.242188 6.453124 1.933594 9.988281 1.933594 14.8125 0 26.820312-12.023438 26.820312-26.855469 0-14.828125-12.007812-26.851562-26.820312-26.851562zm0 0" fill="#e7387f"/><path d="m188.1875 485.148438c0-14.832032-12.007812-26.855469-26.824219-26.855469-14.8125 0-26.824219 12.023437-26.824219 26.855469 0 14.828124 12.011719 26.851562 26.824219 26.851562 14.816407 0 26.824219-12.023438 26.824219-26.851562zm0 0" fill="#eb5793"/><path d="m161.363281 458.292969c-3.53125 0-6.898437.691406-9.988281 1.933593 9.863281 3.964844 16.835938 13.625 16.835938 24.921876 0 11.292968-6.972657 20.953124-16.835938 24.917968 3.089844 1.242188 6.457031 1.933594 9.988281 1.933594 14.816407 0 26.824219-12.023438 26.824219-26.851562 0-14.832032-12.007812-26.855469-26.824219-26.855469zm0 0" fill="#e7387f"/><path d="m161.363281 256 83.148438 114.574219 134.539062-43.765625v-141.617188l-134.539062-43.765625zm0 0" fill="#5f6c75"/><path d="m355.078125 177.390625v157.21875l23.972656-7.800781v-141.617188zm0 0" fill="#4e5a61"/><path d="m271.335938 370.574219c0-14.832031-12.011719-26.855469-26.824219-26.855469s-26.824219 12.023438-26.824219 26.855469c0 14.828125 12.011719 26.851562 26.824219 26.851562s26.824219-12.023437 26.824219-26.851562zm0 0" fill="#72d1fb"/><path d="m244.511719 343.71875c-3.53125 0-6.902344.691406-9.988281 1.933594 9.863281 3.964844 16.832031 13.625 16.832031 24.921875 0 11.292969-6.96875 20.953125-16.832031 24.917969 3.085937 1.242187 6.457031 1.933593 9.988281 1.933593 14.8125 0 26.824219-12.023437 26.824219-26.851562 0-14.832031-12.011719-26.855469-26.824219-26.855469zm0 0" fill="#40c1fa"/><path d="m405.875 185.179688c0-14.832032-12.011719-26.855469-26.824219-26.855469s-26.824219 12.023437-26.824219 26.855469c0 14.828124 12.011719 26.851562 26.824219 26.851562s26.824219-12.023438 26.824219-26.851562zm0 0" fill="#eb5793"/><path d="m379.050781 158.324219c-3.53125 0-6.902343.691406-9.988281 1.933593 9.863281 3.96875 16.832031 13.625 16.832031 24.921876 0 11.292968-6.96875 20.953124-16.832031 24.921874 3.085938 1.242188 6.457031 1.929688 9.988281 1.929688 14.8125 0 26.824219-12.023438 26.824219-26.851562 0-14.832032-12.011719-26.855469-26.824219-26.855469zm0 0" fill="#e7387f"/><path d="m405.875 326.800781c0-14.832031-12.011719-26.851562-26.824219-26.851562s-26.824219 12.019531-26.824219 26.851562 12.011719 26.851563 26.824219 26.851563 26.824219-12.019532 26.824219-26.851563zm0 0" fill="#eb5793"/><path d="m379.050781 299.945312c-3.53125 0-6.902343.691407-9.988281 1.933594 9.863281 3.96875 16.832031 13.625 16.832031 24.921875 0 11.292969-6.96875 20.953125-16.832031 24.921875 3.085938 1.242188 6.457031 1.929688 9.988281 1.929688 14.8125 0 26.824219-12.023438 26.824219-26.851563 0-14.832031-12.011719-26.855469-26.824219-26.855469zm0 0" fill="#e7387f"/><path d="m244.511719 141.425781-83.148438-114.574219-134.539062 43.765626v141.621093l134.539062 43.761719zm0 0" fill="#e1edef"/><path d="m161.363281 26.851562-24.246093 7.886719 71.027343 97.871094c3.816407 5.257813 3.816407 12.375 0 17.632813l-71.027343 97.871093 24.246093 7.886719 83.148438-114.574219zm0 0" fill="#d2e4e7"/><path d="m188.1875 26.851562c0-14.828124-12.007812-26.851562-26.824219-26.851562-14.8125 0-26.824219 12.023438-26.824219 26.851562 0 14.832032 12.011719 26.855469 26.824219 26.855469 14.816407 0 26.824219-12.023437 26.824219-26.855469zm0 0" fill="#eb5793"/><path d="m161.363281 0c-3.53125 0-6.898437.691406-9.988281 1.933594 9.863281 3.964844 16.835938 13.625 16.835938 24.917968 0 11.296876-6.972657 20.957032-16.835938 24.921876 3.089844 1.242187 6.457031 1.933593 9.988281 1.933593 14.816407 0 26.824219-12.023437 26.824219-26.855469 0-14.828124-12.007812-26.851562-26.824219-26.851562zm0 0" fill="#e7387f"/><path d="m53.644531 70.617188c0-14.832032-12.007812-26.851563-26.820312-26.851563-14.816407 0-26.824219 12.019531-26.824219 26.851563 0 14.832031 12.007812 26.851562 26.824219 26.851562 14.8125 0 26.820312-12.019531 26.820312-26.851562zm0 0" fill="#eb5793"/><path d="m26.824219 43.765625c-3.535157 0-6.902344.6875-9.988281 1.929687 9.863281 3.96875 16.832031 13.625 16.832031 24.921876 0 11.292968-6.96875 20.953124-16.832031 24.921874 3.085937 1.242188 6.453124 1.929688 9.988281 1.929688 14.8125 0 26.820312-12.023438 26.820312-26.851562 0-14.832032-12.007812-26.851563-26.820312-26.851563zm0 0" fill="#e7387f"/><path d="m53.644531 212.25c0-14.832031-12.007812-26.851562-26.820312-26.851562-14.816407 0-26.824219 12.019531-26.824219 26.851562s12.007812 26.851562 26.824219 26.851562c14.8125 0 26.820312-12.019531 26.820312-26.851562zm0 0" fill="#72d1fb"/><path d="m26.824219 185.398438c-3.535157 0-6.902344.6875-9.988281 1.929687 9.863281 3.96875 16.832031 13.625 16.832031 24.921875s-6.96875 20.953125-16.832031 24.921875c3.085937 1.242187 6.453124 1.929687 9.988281 1.929687 14.8125 0 26.820312-12.019531 26.820312-26.851562 0-14.828125-12.007812-26.851562-26.820312-26.851562zm0 0" fill="#40c1fa"/><path d="m188.183594 256c0-14.832031-12.007813-26.851562-26.820313-26.851562-14.816406 0-26.824219 12.019531-26.824219 26.851562s12.007813 26.851562 26.824219 26.851562c14.8125 0 26.820313-12.019531 26.820313-26.851562zm0 0" fill="#eb5793"/><path d="m161.363281 229.148438c-3.535156 0-6.902343.6875-9.992187 1.929687 9.867187 3.96875 16.835937 13.625 16.835937 24.921875s-6.96875 20.953125-16.835937 24.921875c3.089844 1.242187 6.457031 1.929687 9.992187 1.929687 14.8125 0 26.820313-12.019531 26.820313-26.851562s-12.007813-26.851562-26.820313-26.851562zm0 0" fill="#e7387f"/><path d="m271.335938 141.425781c0-14.828125-12.011719-26.851562-26.824219-26.851562s-26.824219 12.023437-26.824219 26.851562c0 14.832031 12.011719 26.855469 26.824219 26.855469s26.824219-12.023438 26.824219-26.855469zm0 0" fill="#72d1fb"/><path d="m244.511719 114.574219c-3.53125 0-6.902344.6875-9.988281 1.929687 9.863281 3.96875 16.832031 13.628906 16.832031 24.921875 0 11.296875-6.96875 20.953125-16.832031 24.921875 3.085937 1.242188 6.457031 1.929688 9.988281 1.929688 14.8125 0 26.824219-12.019532 26.824219-26.851563 0-14.828125-12.011719-26.851562-26.824219-26.851562zm0 0" fill="#40c1fa"/></svg>