<svg height="512pt" viewBox="0 -7 512.001 512" width="512pt" xmlns="http://www.w3.org/2000/svg"><path d="m256 407.550781c-4.023438 0-7.285156-3.261719-7.285156-7.289062v-240.828125h14.570312v240.828125c0 4.027343-3.261718 7.289062-7.285156 7.289062zm0 0" fill="#40c1fa"/><path d="m304.574219 448.839844c0 26.828125-21.746094 48.574218-48.574219 48.574218s-48.574219-21.746093-48.574219-48.574218 21.746094-48.578125 48.574219-48.578125 48.574219 21.75 48.574219 48.578125zm0 0" fill="#cbed74"/><path d="m256 400.261719c-7.132812 0-13.898438 1.550781-20 4.3125 16.847656 7.625 28.578125 24.570312 28.578125 44.265625 0 19.695312-11.730469 36.640625-28.578125 44.261718 6.101562 2.761719 12.867188 4.3125 20 4.3125 26.828125 0 48.578125-21.746093 48.578125-48.574218s-21.75-48.578125-48.578125-48.578125zm0 0" fill="#b9e746"/><path d="m174.480469 431.230469c-58.550781-15.890625-111.824219-49.691407-151.570313-95.863281h31.515625c4.023438 0 7.285157-3.261719 7.285157-7.285157 0-4.023437-3.261719-7.285156-7.285157-7.285156h-45.097656c-2.164063-.632813-4.585937-.257813-6.503906 1.226563-1.886719 1.460937-2.8515628 3.667968-2.8164065 5.882812 0 .058594-.0078125.117188-.0078125.175781v51.082031c0 4.023438 3.261719 7.285157 7.285156 7.285157 4.027344 0 7.289063-3.261719 7.289063-7.285157v-31.175781c41.332031 46.769531 96.0625 81.015625 156.089843 97.308594.636719.171875 1.28125.253906 1.914063.253906 3.207031 0 6.144531-2.132812 7.027344-5.378906 1.050781-3.882813-1.242188-7.886719-5.125-8.941406zm0 0" fill="#e7387f"/><path d="m511.992188 324.261719c-.085938-3.902344-3.363282-7.136719-7.277344-7.136719h-46.226563c-4.023437 0-7.285156 3.261719-7.285156 7.285156 0 4.023438 3.261719 7.285156 7.285156 7.285156h31.132813c-39.851563 47.804688-93.894532 82.820313-153.683594 99.265626-3.878906 1.066406-6.160156 5.078124-5.09375 8.957031.890625 3.234375 3.824219 5.355469 7.023438 5.355469.640624 0 1.289062-.085938 1.9375-.261719 60.960937-16.769531 116.222656-51.953125 157.621093-99.980469v31.375c0 4.023438 3.261719 7.285156 7.289063 7.285156 4.023437 0 7.285156-3.261718 7.285156-7.285156v-51.996094c0-.046875-.007812-.097656-.007812-.148437zm0 0" fill="#e7387f"/><path d="m262.996094 128.109375h-13.992188c-8.292968 0-15.015625-6.722656-15.015625-15.015625v-82.429688h44.019531v82.429688c.003907 8.292969-6.71875 15.015625-15.011718 15.015625zm0 0" fill="#c8d2dc"/><path d="m258.992188 30.664062v82.429688c0 7.433594-5.40625 13.589844-12.5 14.785156.816406.140625 1.652343.226563 2.511718.226563h13.992188c8.292968 0 15.015625-6.71875 15.015625-15.011719v-82.429688zm0 0" fill="#b9c3cd"/><path d="m306.042969 58.046875h-100.085938c-5.527343 0-10.007812-4.480469-10.007812-10.007813v-38.03125c0-5.527343 4.480469-10.007812 10.007812-10.007812h100.082031c5.527344 0 10.011719 4.480469 10.011719 10.007812v38.03125c0 5.527344-4.480469 10.007813-10.007812 10.007813zm0 0" fill="#ffea84"/><path d="m306.042969 0h-40.035157c5.527344 0 10.007813 4.480469 10.007813 10.007812v38.03125c0 5.527344-4.480469 10.007813-10.007813 10.007813h40.035157c5.527343 0 10.007812-4.480469 10.007812-10.007813v-38.03125c0-5.527343-4.480469-10.007812-10.007812-10.007812zm0 0" fill="#ffe046"/><path d="m301.039062 138.933594c0 24.875-20.164062 45.039062-45.039062 45.039062s-45.039062-20.164062-45.039062-45.039062 20.164062-45.039063 45.039062-45.039063 45.039062 20.164063 45.039062 45.039063zm0 0" fill="#ffea84"/><path d="m256 93.894531c-5.832031 0-11.398438 1.121094-16.515625 3.140625 16.703125 6.585938 28.527344 22.855469 28.527344 41.898438 0 19.039062-11.824219 35.308594-28.527344 41.898437 5.117187 2.015625 10.683594 3.136719 16.515625 3.136719 24.875 0 45.039062-20.164062 45.039062-45.039062 0-24.871094-20.164062-45.035157-45.039062-45.035157zm0 0" fill="#ffe046"/><path d="m276.015625 138.933594c0 11.054687-8.960937 20.015625-20.015625 20.015625s-20.015625-8.960938-20.015625-20.015625c0-11.054688 8.960937-20.015625 20.015625-20.015625s20.015625 8.960937 20.015625 20.015625zm0 0" fill="#c8d2dc"/><path d="m256 118.917969c-3.046875 0-5.921875.699219-8.507812 1.917969 6.796874 3.199218 11.511718 10.089843 11.511718 18.097656 0 8.007812-4.714844 14.898437-11.511718 18.097656 2.585937 1.21875 5.460937 1.917969 8.507812 1.917969 11.054688 0 20.015625-8.960938 20.015625-20.015625 0-11.054688-8.960937-20.015625-20.015625-20.015625zm0 0" fill="#b9c3cd"/></svg>