<svg height="512pt" viewBox="0 -14 512 512" width="512pt" xmlns="http://www.w3.org/2000/svg"><path d="m145.375 220.273438-145.375 264.429687h512l-145.375-264.429687c-7.90625-14.378907-23.023438-23.316407-39.441406-23.316407h-142.367188c-16.417968 0-31.535156 8.9375-39.441406 23.316407zm0 0" fill="#ffea84"/><path d="m366.625 220.273438c-7.90625-14.378907-23.023438-23.316407-39.441406-23.316407h-40c16.417968 0 31.535156 8.9375 39.441406 23.316407l145.375 264.429687h40zm0 0" fill="#ffe046"/><path d="m354.566406 98.480469c0-54.390625-44.128906-98.480469-98.566406-98.480469s-98.566406 44.089844-98.566406 98.480469c0 54.386719 44.128906 98.476562 98.566406 98.476562s98.566406-44.089843 98.566406-98.476562zm0 0" fill="#cbed74"/><path d="m256 0c-6.851562 0-13.542969.699219-20 2.03125 44.847656 9.234375 78.566406 48.90625 78.566406 96.449219 0 47.539062-33.71875 87.210937-78.566406 96.449219 6.457031 1.328124 13.148438 2.027343 20 2.027343 54.4375 0 98.566406-44.089843 98.566406-98.476562 0-54.390625-44.128906-98.480469-98.566406-98.480469zm0 0" fill="#b9e746"/></svg>