<svg height="512pt" viewBox="-94 0 512 512" width="512pt" xmlns="http://www.w3.org/2000/svg"><path d="m247.429688 399.925781c0-23.625-38.335938-42.773437-85.628907-42.773437-47.289062 0-85.625 19.148437-85.625 42.773437s38.335938 42.777344 85.625 42.777344c47.292969 0 85.628907-19.152344 85.628907-42.777344zm0 0" fill="#9773bd"/><path d="m161.800781 357.152344c-7.074219 0-13.941406.4375-20.515625 1.242187 37.378906 4.59375 65.109375 21.441407 65.109375 41.53125 0 20.09375-27.730469 36.9375-65.109375 41.53125 6.574219.808594 13.441406 1.246094 20.515625 1.246094 47.292969 0 85.628907-19.152344 85.628907-42.777344s-38.335938-42.773437-85.628907-42.773437zm0 0" fill="#865cb2"/><path d="m19.808594 432.4375h283.984375c4.277343 0 7.941406 3.066406 8.6875 7.277344l10.984375 61.921875c.960937 5.402343-3.195313 10.363281-8.6875 10.363281h-305.953125c-5.488281 0-9.644531-4.960938-8.6875-10.363281l10.984375-61.921875c.75-4.210938 4.410156-7.277344 8.6875-7.277344zm0 0" fill="#ffea84"/><path d="m323.464844 501.636719-10.984375-61.917969c-.746094-4.214844-4.40625-7.28125-8.683594-7.28125h-41.035156c4.277343 0 7.9375 3.066406 8.6875 7.28125l10.984375 61.917969c.957031 5.40625-3.199219 10.363281-8.6875 10.363281h41.035156c5.488281 0 9.644531-4.957031 8.683594-10.363281zm0 0" fill="#ffe046"/><path d="m126.515625 103.050781h70.570313v87.042969h-70.570313zm0 0" fill="#5f6c75"/><path d="m165.285156 103.050781h31.800782v87.042969h-31.800782zm0 0" fill="#4e5a61"/><path d="m223.664062 113.816406h-125.039062c-4.871094 0-8.820312-3.949218-8.820312-8.820312v-35.285156h142.679687v35.285156c0 4.871094-3.949219 8.820312-8.820313 8.820312zm0 0" fill="#e1edef"/><path d="m191.453125 69.710938v35.285156c0 4.871094-3.949219 8.820312-8.820313 8.820312h41.03125c4.871094 0 8.820313-3.949218 8.820313-8.820312v-35.285156zm0 0" fill="#d2e4e7"/><path d="m303.796875 79.5625h-283.988281c-4.277344 0-7.9375-3.070312-8.6875-7.28125l-10.984375-61.917969c-.957031-5.40625 3.199219-10.363281 8.6875-10.363281h305.957031c5.488281 0 9.644531 4.957031 8.683594 10.363281l-10.984375 61.917969c-.746094 4.214844-4.40625 7.28125-8.683594 7.28125zm0 0" fill="#ffea84"/><path d="m314.78125 0h-41.035156c5.488281 0 9.644531 4.957031 8.6875 10.363281l-10.984375 61.917969c-.75 4.214844-4.410157 7.28125-8.6875 7.28125h41.035156c4.277344 0 7.9375-3.066406 8.683594-7.28125l10.984375-61.917969c.960937-5.40625-3.195313-10.363281-8.683594-10.363281zm0 0" fill="#ffe046"/><path d="m78.996094 171.007812h165.609375c4.875 0 8.824219 3.949219 8.824219 8.820313v178.75c0 4.875-3.949219 8.824219-8.824219 8.824219h-165.609375c-4.871094 0-8.820313-3.949219-8.820313-8.824219v-178.75c0-4.871094 3.949219-8.820313 8.820313-8.820313zm0 0" fill="#e1edef"/><path d="m244.605469 171.007812h-41.03125c4.871093 0 8.820312 3.949219 8.820312 8.820313v178.75c0 4.875-3.949219 8.824219-8.820312 8.824219h41.03125c4.875 0 8.824219-3.953125 8.824219-8.824219v-178.75c0-4.871094-3.949219-8.820313-8.824219-8.820313zm0 0" fill="#d2e4e7"/><path d="m192.128906 295.609375c-2.808594-2-6.703125-1.34375-8.703125 1.457031l-15.386719 21.582032v-117.371094c0-3.441406-2.792968-6.234375-6.238281-6.234375-3.445312 0-6.238281 2.792969-6.238281 6.234375v117.371094l-15.382812-21.578126c-2-2.804687-5.898438-3.460937-8.703126-1.460937-2.808593 1.996094-3.460937 5.890625-1.460937 8.695313l26.703125 37.457031c2.4375 3.421875 7.703125 3.460937 10.164062 0l26.707032-37.457031c2-2.808594 1.34375-6.699219-1.460938-8.695313zm0 0" fill="#e7387f"/></svg>