<svg height="511pt" viewBox="0 -10 511.99925 511" width="511pt" xmlns="http://www.w3.org/2000/svg"><path d="m359.835938 424.226562-85.507813 60.8125c-10.503906 7.46875-24.640625 7.277344-34.9375-.472656l-80.15625-60.324218c-3.707031-2.789063-5.886719-7.160157-5.886719-11.796876v-333.878906c0-4.636718 2.179688-9.007812 5.886719-11.796875l80.15625-60.324219c10.296875-7.75 24.433594-7.941406 34.9375-.472656l85.507813 60.8125c3.894531 2.769532 6.210937 7.253906 6.210937 12.03125v333.378906c0 4.777344-2.316406 9.261719-6.210937 12.03125zm0 0" fill="#d5f1fe"/><path d="m359.835938 66.785156-85.507813-60.8125c-4.417969-3.140625-9.484375-4.910156-14.632813-5.347656v489.761719c5.148438-.4375 10.214844-2.207031 14.632813-5.347657l85.507813-60.808593c3.894531-2.773438 6.210937-7.257813 6.210937-12.035157v-333.378906c0-4.777344-2.316406-9.261718-6.210937-12.03125zm0 0" fill="#b4e7fd"/><path d="m7.398438 365.3125c-2.542969 0-5.019532-1.316406-6.394532-3.671875-2.050781-3.523437-.859375-8.042969 2.667969-10.097656l193.171875-112.417969c3.527344-2.054688 8.050781-.863281 10.105469 2.664062 2.054687 3.523438.859375 8.046876-2.664063 10.097657l-193.171875 112.417969c-1.171875.683593-2.449219 1.007812-3.714843 1.007812zm0 0" fill="#72d1fb"/><path d="m312.871094 245.519531 199.128906 135.027344v-315.097656zm0 0" fill="#9773bd"/><path d="m312.871094 245.519531 199.128906 90.015625v-270.085937zm0 0" fill="#462d91"/><path d="m312.871094 245.519531 199.128906 45v-225.070312zm0 0" fill="#72d1fb"/><path d="m312.871094 245.519531h199.128906v-180.070312zm0 0" fill="#cbed74"/><path d="m312.871094 245.519531 199.128906-45.027343v-135.042969zm0 0" fill="#ffea84"/><path d="m312.871094 245.519531 199.128906-90.039062v-90.03125zm0 0" fill="#fb8723"/><path d="m312.871094 245.519531 199.128906-135.230469v-44.839843zm0 0" fill="#e04955"/></svg>