<svg height="512pt" viewBox="0 -40 512 512" width="512pt" xmlns="http://www.w3.org/2000/svg"><path d="m152.410156 51.378906h204.070313c5.714843 0 10.308593 4.707032 10.171875 10.421875l-7.644532 314.335938c-.136718 5.523437-4.652343 9.929687-10.171874 9.929687h-188.78125c-5.523438 0-10.039063-4.40625-10.171876-9.929687l-7.644531-314.335938c-.140625-5.714843 4.453125-10.421875 10.171875-10.421875zm0 0" fill="#d5f1fe"/><path d="m356.476562 51.378906h-40.699218c5.714844 0 10.3125 4.707032 10.171875 10.421875l-7.644531 314.335938c-.132813 5.523437-4.648438 9.929687-10.171876 9.929687h40.699219c5.523438 0 10.039063-4.40625 10.171875-9.929687l7.644532-314.335938c.140624-5.714843-4.453126-10.421875-10.171876-10.421875zm0 0" fill="#b4e7fd"/><path d="m358.765625 386.066406 5.855469-240.855468h-220.355469l5.859375 240.855468zm0 0" fill="#72d1fb"/><path d="m323.921875 145.210938-5.859375 240.855468h40.703125l5.855469-240.855468zm0 0" fill="#40c1fa"/><path d="m388.40625 431.019531h-267.925781c-6.457031 0-11.117188-6.183593-9.339844-12.394531l9.007813-31.441406c1.195312-4.167969 5.003906-7.042969 9.339843-7.042969h249.910157c4.335937 0 8.148437 2.875 9.339843 7.042969l9.007813 31.441406c1.777344 6.210938-2.882813 12.394531-9.339844 12.394531zm0 0" fill="#eb5793"/><path d="m397.746094 418.625-9.007813-31.441406c-1.191406-4.167969-5.003906-7.042969-9.339843-7.042969h-38.867188c4.335938 0 8.148438 2.875 9.339844 7.042969l9.007812 31.441406c1.78125 6.210938-2.882812 12.394531-9.339844 12.394531h38.867188c6.457031 0 11.117188-6.183593 9.339844-12.394531zm0 0" fill="#e7387f"/><path d="m147.371094 272.925781h-140.082032c-4.027343 0-7.289062-3.261719-7.289062-7.289062 0-4.027344 3.261719-7.289063 7.289062-7.289063h139.722657l216.546875-69.273437h141.152344c4.027343 0 7.289062 3.261719 7.289062 7.285156 0 4.027344-3.261719 7.289063-7.289062 7.289063l-141.507813.007812zm0 0" fill="#ffea84"/><path d="m363.199219 203.65625.355469-14.582031-216.535157 69.273437.351563 14.578125zm0 0" fill="#fb8723"/><path d="m322.179688 216.820312 41.019531-13.164062.355469-14.582031-41.019532 13.121093zm0 0" fill="#f97606"/><path d="m504.453125 15h-496.90625c-4.167969 0-7.546875-3.355469-7.546875-7.5s3.378906-7.5 7.546875-7.5h496.902344c4.171875 0 7.550781 3.355469 7.550781 7.5s-3.378906 7.5-7.546875 7.5zm0 0" fill="#ffea84"/></svg>