<svg height="512pt" viewBox="0 -2 512 512" width="512pt" xmlns="http://www.w3.org/2000/svg"><path d="m512 414.886719c0 26.601562-21.566406 48.171875-48.171875 48.171875s-48.171875-21.570313-48.171875-48.171875c0-19.660157 26.300781-63.808594 40.035156-85.519531 3.78125-5.976563 12.492188-5.976563 16.273438 0 13.734375 21.710937 40.035156 65.859374 40.035156 85.519531zm0 0" fill="#72d1fb"/><path d="m471.964844 329.367188c-3.78125-5.976563-12.492188-5.976563-16.273438 0-3.574218 5.648437-8 12.824218-12.589844 20.683593 13.050782 22.351563 27.445313 50.292969 27.445313 64.835938 0 19.183593-11.214844 35.746093-27.445313 43.492187 6.277344 2.996094 13.304688 4.679688 20.726563 4.679688 26.601563 0 48.171875-21.566406 48.171875-48.171875 0-19.660157-26.300781-63.808594-40.035156-85.519531zm0 0" fill="#40c1fa"/><path d="m120.28125 458.082031h-106.917969c-7.378906 0-13.363281-5.984375-13.363281-13.367187v-106.914063c0-7.382812 5.984375-13.367187 13.363281-13.367187h106.917969c7.378906 0 13.363281 5.984375 13.363281 13.367187v106.914063c0 7.382812-5.984375 13.367187-13.363281 13.367187zm0 0" fill="#d5f1fe"/><path d="m120.28125 324.4375h-53.457031c7.378906 0 13.363281 5.984375 13.363281 13.363281v106.917969c0 7.378906-5.984375 13.363281-13.363281 13.363281h53.457031c7.378906 0 13.363281-5.984375 13.363281-13.363281v-106.917969c0-7.382812-5.984375-13.363281-13.363281-13.363281zm0 0" fill="#b4e7fd"/><path d="m335.246094 47.023438h-10.253906c0-25.96875-21.050782-47.023438-47.019532-47.023438-25.972656 0-47.023437 21.054688-47.023437 47.023438 0 .117187.007812.230468.007812.347656-7.753906-5.628906-17.28125-8.960938-27.597656-8.960938-25.96875 0-47.023437 21.054688-47.023437 47.023438 0 25.972656 21.054687 47.023437 47.023437 47.023437h131.886719c23.59375 0 42.71875-19.125 42.71875-42.714843 0-23.59375-19.125-42.71875-42.71875-42.71875zm0 0" fill="#c8d2dc"/><path d="m335.246094 47.023438h-10.253906c0-25.96875-21.050782-47.023438-47.019532-47.023438-2.945312 0-5.816406.300781-8.609375.820312 14.625 9.238282 24.34375 25.53125 24.34375 44.109376h11.371094c26.164063 0 47.375 21.210937 47.375 47.375 0 16.929687-8.886719 31.777343-22.246094 40.152343h5.042969c23.589844 0 42.714844-19.125 42.714844-42.714843 0-23.59375-19.125-42.71875-42.71875-42.71875zm0 0" fill="#b9c3cd"/><g fill="#e7387f"><path d="m381.6875 458.03125c-33.027344 21.769531-71.394531 33.636719-110.945312 34.320312-37.304688.640626-74.136719-8.769531-106.550782-27.21875-3.601562-2.050781-8.179687-.792968-10.226562 2.804688-2.050782 3.601562-.792969 8.179688 2.808594 10.226562 33.636718 19.148438 71.71875 29.214844 110.382812 29.214844 1.28125 0 2.566406-.011718 3.84375-.03125 42.402344-.734375 83.53125-13.457031 118.941406-36.792968 3.457032-2.28125 4.414063-6.929688 2.132813-10.386719-2.277344-3.457031-6.929688-4.414063-10.386719-2.136719zm0 0"/><path d="m454.714844 194.070312c13.453125 27.988282 20.566406 59.171876 20.566406 90.183594 0 1.558594-.015625 3.121094-.054688 4.683594-.09375 4.140625 3.1875 7.574219 7.328126 7.667969.058593 0 .117187.003906.171874.003906 4.0625 0 7.402344-3.246094 7.496094-7.328125.039063-1.675781.054688-3.351562.054688-5.027344 0-33.25-7.621094-66.679687-22.046875-96.679687s-35.777344-56.832031-61.742188-77.59375c-3.238281-2.585938-7.957031-2.0625-10.539062 1.171875-2.585938 3.234375-2.0625 7.953125 1.171875 10.539062 24.222656 19.367188 44.136718 44.394532 57.59375 72.378906zm0 0"/><path d="m51.886719 304.378906c.144531 0 .296875-.003906.445312-.011718 4.132813-.242188 7.289063-3.789063 7.046875-7.925782-.238281-4.050781-.359375-8.152344-.359375-12.1875 0-31.203125 7.199219-62.5625 20.8125-90.683594 13.613281-28.121093 33.746094-53.21875 58.222657-72.574218 3.246093-2.566406 3.796874-7.28125 1.230468-10.53125-2.570312-3.246094-7.285156-3.796875-10.535156-1.230469-26.238281 20.75-47.820312 47.652344-62.417969 77.800781-14.59375 30.148438-22.308593 63.765625-22.308593 97.21875 0 4.328125.128906 8.722656.382812 13.066406.234375 3.984376 3.539062 7.058594 7.480469 7.058594zm0 0"/></g></svg>