<svg height="511pt" viewBox="-76 0 511 511.99998" width="511pt" xmlns="http://www.w3.org/2000/svg"><path d="m66.0625 512c-1.148438 0-2.308594-.273438-3.394531-.847656-3.546875-1.878906-4.902344-6.277344-3.023438-9.828125l103.578125-195.894531c1.257813-2.378907 3.726563-3.871094 6.417969-3.871094h.007813c2.6875 0 5.15625 1.484375 6.417968 3.859375l103.976563 195.894531c1.878906 3.546875.535156 7.949219-3.011719 9.835938-3.542969 1.882812-7.945312.535156-9.828125-3.011719l-97.542969-183.777344-97.167968 183.765625c-1.304688 2.46875-3.824219 3.875-6.429688 3.875zm0 0" fill="#7e8b96"/><path d="m169.648438 511.996094c-4.015626 0-7.269532-3.253906-7.269532-7.269532v-312.269531c0-4.015625 3.253906-7.273437 7.269532-7.273437 4.011718 0 7.265624 3.257812 7.265624 7.273437v312.269531c0 4.015626-3.253906 7.269532-7.265624 7.269532zm0 0" fill="#e1edef"/><path d="m193.730469 282.890625h-48.167969c-5.515625 0-9.988281-4.472656-9.988281-9.988281v-10.332032c0-5.515624 4.472656-9.988281 9.988281-9.988281h48.167969c5.515625 0 9.988281 4.472657 9.988281 9.988281v10.332032c0 5.515625-4.472656 9.988281-9.988281 9.988281zm0 0" fill="#eb5793"/><path d="m91.417969 86.058594 12.59375-7.269532 24.609375 42.652344-12.59375 7.265625zm0 0" fill="#e1edef"/><path d="m120.601562 73.160156-41.71875 24.101563c-4.777343 2.761719-10.890624 1.125-13.648437-3.65625l-5.160156-8.941407c-2.753907-4.777343-1.117188-10.882812 3.65625-13.640624l41.71875-24.101563c4.777343-2.761719 10.890625-1.121094 13.648437 3.65625l5.160156 8.945313c2.753907 4.773437 1.117188 10.878906-3.65625 13.636718zm0 0" fill="#7e8b96"/><path d="m105.449219 46.921875-24.949219 14.414063c4.757812-2.652344 10.777344-1.007813 13.511719 3.726562l5.160156 8.941406c2.753906 4.777344 1.117187 10.882813-3.65625 13.640625l25.085937-14.484375c4.773438-2.757812 6.410157-8.863281 3.652344-13.636718l-5.160156-8.945313c-2.753906-4.777344-8.867188-6.417969-13.644531-3.65625zm0 0" fill="#5f6c75"/><path d="m65.855469 114.5625 9.472656-5.46875c4.777344-2.757812 6.414063-8.867188 3.65625-13.644531l-13.628906-23.601563c-2.757813-4.777344-8.867188-6.414062-13.644531-3.65625l-9.472657 5.46875c-4.777343 2.757813-6.414062 8.867188-3.65625 13.644532l13.628907 23.601562c2.757812 4.777344 8.867187 6.414062 13.644531 3.65625zm0 0" fill="#eb5793"/><path d="m51.710938 68.191406-9.472657 5.46875c-.5.289063-.957031.621094-1.386719.980469 4.480469-1.660156 9.636719.089844 12.105469 4.367187l13.625 23.601563c2.46875 4.277344 1.40625 9.613281-2.269531 12.667969.523438-.195313 1.042969-.425782 1.542969-.714844l9.46875-5.464844c4.777343-2.757812 6.414062-8.867187 3.65625-13.644531l-13.625-23.605469c-2.757813-4.777344-8.867188-6.414062-13.644531-3.65625zm0 0" fill="#e7387f"/><path d="m68.449219 249.6875-24.664063 14.25c-4.777344 2.761719-10.890625 1.125-13.648437-3.65625l-28.296875-49.042969c-2.757813-4.777343-1.121094-10.882812 3.652344-13.640625l24.675781-14.253906zm0 0" fill="#5f6c75"/><path d="m322.574219 121.238281-246.796875 142.574219c-4.777344 2.761719-10.890625 1.125-13.648438-3.65625l-44.183594-76.582031c-2.757812-4.773438-1.121093-10.882813 3.652344-13.640625l246.804688-142.582032zm0 0" fill="#7e8b96"/><path d="m159.410156 90.28125 109.027344-62.910156 54.175781 93.890625-109.03125 62.910156zm0 0" fill="#5f6c75"/><path d="m351.71875 41.808594c14.636719 25.367187 5.953125 57.800781-19.398438 72.445312-25.351562 14.644532-57.765624 5.953125-72.402343-19.410156-14.632813-25.367188-5.949219-57.800781 19.402343-72.445312 25.347657-14.644532 57.765626-5.957032 72.398438 19.410156zm0 0" fill="#d5f1fe"/><path d="m279.320312 22.398438c-2.28125 1.316406-4.421874 2.785156-6.429687 4.371093 24.042969-9.550781 52.082031-.285156 65.398437 22.796875 13.320313 23.085938 7.320313 52.015625-12.96875 68.074219 2.378907-.945313 4.71875-2.066406 7-3.382813 25.351563-14.648437 34.035157-47.082031 19.398438-72.449218-14.632812-25.363282-47.050781-34.054688-72.398438-19.410156zm0 0" fill="#b4e7fd"/><path d="m193.042969 70.863281 69.945312-40.359375 54.175781 93.890625-69.949218 40.359375zm0 0" fill="#e1edef"/><path d="m241.113281 43.109375 27.308594-15.761719 54.175781 93.890625-27.3125 15.757813zm0 0" fill="#d2e4e7"/><path d="m236.632812 173.722656-56.265624-97.519531c-2.757813-4.773437-1.121094-10.882813 3.65625-13.640625l6.308593-3.644531c4.777344-2.761719 10.886719-1.121094 13.648438 3.65625l56.265625 97.523437c2.757812 4.773438 1.121094 10.878906-3.65625 13.636719l-6.308594 3.648437c-4.777344 2.757813-10.886719 1.121094-13.648438-3.660156zm0 0" fill="#eb5793"/><path d="m190.332031 58.917969-6.308593 3.644531c-.703126.40625-1.324219.890625-1.886719 1.421875 4.324219-1.269531 9.109375.507813 11.460937 4.585937l56.269532 97.519532c2.351562 4.074218 1.496093 9.113281-1.769532 12.21875.746094-.21875 1.480469-.519532 2.183594-.925782l6.308594-3.644531c4.777344-2.757812 6.414062-8.867187 3.65625-13.640625l-56.265625-97.519531c-2.761719-4.78125-8.871094-6.417969-13.648438-3.660156zm0 0" fill="#e7387f"/><path d="m272.976562 12.332031-10.015624 18.164063 54.171874 93.886718 20.730469.402344c1.816407.035156 3.609375-.429687 5.1875-1.335937l12.421875-7.171875c5.476563-3.164063 6.671875-10.554688 2.476563-15.28125l-.007813-.007813c-24.304687-27.375-42.789062-59.40625-54.332031-94.144531-1.996094-6-8.996094-8.660156-14.472656-5.5l-12.40625 7.164062c-1.578125.90625-2.875 2.230469-3.753907 3.824219zm0 0" fill="#eb5793"/><path d="m357.941406 100.988281c-24.304687-27.375-42.789062-59.40625-54.332031-94.144531-1.996094-6.003906-8.996094-8.664062-14.472656-5.5l-12.40625 7.164062c-1.578125.90625-2.875 2.230469-3.753907 3.824219l-.089843.160157c3.984375.160156 7.726562 2.707031 9.097656 6.835937 11.542969 34.738281 30.027344 66.769531 54.332031 94.144531l.007813.007813c2.886719 3.253906 3.222656 7.769531 1.363281 11.300781h.175781c1.816407.035156 3.609375-.425781 5.1875-1.335938l12.421875-7.171874c5.476563-3.160157 6.675782-10.550782 2.476563-15.28125zm0 0" fill="#e7387f"/></svg>