<svg height="512pt" viewBox="-39 0 512 512.001" width="512pt" xmlns="http://www.w3.org/2000/svg"><path d="m198.691406 269.148438h39.820313v175.734374h-39.820313zm0 0" fill="#c8d2dc"/><path d="m219.597656 269.148438h18.914063v175.734374h-18.914063zm0 0" fill="#b9c3cd"/><path d="m258.421875 472.179688c0 21.992187-17.828125 39.820312-39.820313 39.820312-21.996093 0-39.824218-17.828125-39.824218-39.820312 0-21.996094 17.828125-39.824219 39.824218-39.824219 21.992188 0 39.820313 17.828125 39.820313 39.824219zm0 0" fill="#72d1fb"/><path d="m218.601562 432.355469c-4.164062 0-8.175781.640625-11.949218 1.824219 16.15625 5.078124 27.878906 20.167968 27.878906 38 0 17.828124-11.722656 32.921874-27.878906 37.996093 3.773437 1.183594 7.785156 1.824219 11.949218 1.824219 21.992188 0 39.820313-17.828125 39.820313-39.820312 0-21.992188-17.828125-39.824219-39.820313-39.824219zm0 0" fill="#40c1fa"/><path d="m217.910156 285.429688c-38.488281-.375-69.222656-32.3125-69.222656-70.800782v-204.671875c0-5.5 4.457031-9.957031 9.957031-9.957031h19.910157c5.5 0 9.957031 4.457031 9.957031 9.957031v204.921875c0 16.375 12.8125 30.230469 29.179687 30.71875 17.007813.503906 31-13.183594 31-30.078125v-205.5625c0-5.5 4.457032-9.957031 9.957032-9.957031h19.910156c5.5 0 9.957031 4.457031 9.957031 9.957031v205.5625c-.003906 38.78125-31.738281 70.289063-70.605469 69.910157zm0 0" fill="#e1edef"/><path d="m166.609375 9.957031v204.921875c0 16.375 12.8125 30.230469 29.179687 30.71875 4.210938.125 8.234376-.621094 11.910157-2.070312-11.300781-4.507813-19.1875-15.800782-19.1875-28.648438v-204.921875c0-5.5-4.457031-9.957031-9.957031-9.957031h-19.910157c-.335937 0-.667969.0195312-.996093.0507812 5.03125.4999998 8.960937 4.7421878 8.960937 9.9062498zm0 0" fill="#e1edef"/><path d="m278.558594 0h-19.910156c-.335938 0-.667969.0195312-.996094.0507812 5.03125.4999998 8.960937 4.7421878 8.960937 9.9023438v205.566406c0 34.824219-25.601562 63.769531-58.96875 69.039063 3.347657.535156 6.773438.835937 10.265625.871094 38.867188.375 70.605469-31.128907 70.605469-69.910157v-205.5625c-.003906-5.5-4.460937-9.957031-9.957031-9.957031zm0 0" fill="#d2e4e7"/><path d="m35.613281 192.246094c-1.972656 0-3.949219-.753906-5.457031-2.261719-19.445312-19.445313-30.15625-45.300781-30.15625-72.804687 0-27.5 10.710938-53.355469 30.15625-72.804688 3.015625-3.011719 7.902344-3.011719 10.917969 0 3.011719 3.015625 3.011719 7.902344 0 10.917969-16.53125 16.53125-25.636719 38.507812-25.636719 61.886719 0 23.378906 9.105469 45.359374 25.636719 61.890624 3.011719 3.015626 3.011719 7.902344 0 10.914063-1.507813 1.507813-3.484375 2.261719-5.460938 2.261719zm0 0" fill="#40c1fa"/><path d="m75.4375 192.246094c-1.976562 0-3.953125-.753906-5.460938-2.261719-19.445312-19.445313-30.152343-45.300781-30.152343-72.804687 0-27.5 10.707031-53.355469 30.152343-72.804688 3.015626-3.011719 7.902344-3.011719 10.917969 0 3.015625 3.015625 3.015625 7.902344 0 10.917969-16.53125 16.53125-25.636719 38.507812-25.636719 61.886719 0 23.378906 9.105469 45.359374 25.636719 61.890624 3.015625 3.015626 3.015625 7.902344 0 10.914063-1.507812 1.507813-3.484375 2.261719-5.457031 2.261719zm0 0" fill="#d5f1fe"/><path d="m115.257812 192.246094c-1.972656 0-3.949218-.753906-5.457031-2.261719-19.445312-19.445313-30.15625-45.300781-30.15625-72.804687 0-27.5 10.710938-53.355469 30.15625-72.804688 3.015625-3.011719 7.902344-3.011719 10.917969 0 3.015625 3.015625 3.015625 7.902344 0 10.917969-16.53125 16.53125-25.636719 38.507812-25.636719 61.886719 0 23.378906 9.105469 45.359374 25.636719 61.890624 3.015625 3.015626 3.015625 7.902344 0 10.914063-1.507812 1.507813-3.484375 2.261719-5.460938 2.261719zm0 0" fill="#40c1fa"/><path d="m398.601562 192.246094c-1.976562 0-3.953124-.753906-5.460937-2.261719-3.011719-3.011719-3.011719-7.898437 0-10.914063 16.535156-16.53125 25.636719-38.511718 25.636719-61.890624 0-23.375-9.101563-45.355469-25.636719-61.886719-3.011719-3.015625-3.011719-7.902344 0-10.917969 3.015625-3.011719 7.902344-3.011719 10.917969 0 19.449218 19.449219 30.15625 45.304688 30.15625 72.804688 0 27.503906-10.710938 53.359374-30.15625 72.804687-1.507813 1.507813-3.484375 2.261719-5.457032 2.261719zm0 0" fill="#40c1fa"/><path d="m358.777344 192.246094c-1.972656 0-3.949219-.753906-5.457032-2.261719-3.015624-3.011719-3.015624-7.898437 0-10.914063 16.53125-16.53125 25.636719-38.511718 25.636719-61.890624 0-23.375-9.105469-45.355469-25.636719-61.886719-3.015624-3.015625-3.015624-7.902344 0-10.917969 3.015626-3.011719 7.902344-3.011719 10.917969 0 19.445313 19.449219 30.15625 45.304688 30.15625 72.804688 0 27.503906-10.710937 53.359374-30.15625 72.804687-1.507812 1.507813-3.484375 2.261719-5.460937 2.261719zm0 0" fill="#d5f1fe"/><path d="m321.941406 192.246094c-1.972656 0-3.949218-.753906-5.457031-2.261719-3.015625-3.011719-3.015625-7.898437 0-10.914063 34.125-34.125 34.125-89.652343 0-123.777343-3.015625-3.015625-3.015625-7.902344 0-10.917969s7.902344-3.011719 10.917969 0c40.144531 40.144531 40.144531 105.464844 0 145.609375-1.507813 1.507813-3.484375 2.261719-5.460938 2.261719zm0 0" fill="#40c1fa"/></svg>