<svg height="512pt" viewBox="0 -30 512.002 512" width="512pt" xmlns="http://www.w3.org/2000/svg"><path d="m44.035156 262.152344c4.648438 4.113281 8.640625 9.027344 11.746094 14.625l57.710938 103.972656c10.277343 18.515625 29.789062 30.003906 50.96875 30.003906h183.082031c21.179687 0 40.691406-11.488281 50.96875-30.003906l57.710937-103.972656c3.101563-5.597656 7.097656-10.511719 11.746094-14.625zm0 0" fill="#d5f1fe"/><path d="m427.964844 262.152344c-4.644532 4.113281-8.640625 9.027344-11.746094 14.625l-57.710938 103.972656c-10.277343 18.515625-29.789062 30.003906-50.96875 30.003906h40c21.179688 0 40.691407-11.488281 50.96875-30.003906l57.710938-103.972656c3.105469-5.597656 7.101562-10.511719 11.746094-14.625zm0 0" fill="#b4e7fd"/><path d="m343.039062 318.296875-21.085937-29.605469c-2.847656-4-9.03125-3.988281-11.867187 0l-21.089844 29.605469c-2.335938 3.277344-1.570313 7.828125 1.707031 10.164063 1.285156.910156 2.761719 1.351562 4.222656 1.351562 2.277344 0 4.519531-1.066406 5.941407-3.058594l7.863281-11.046875v64.003907c0 4.023437 3.261719 7.285156 7.289062 7.285156 4.023438 0 7.285157-3.261719 7.285157-7.285156v-64.003907l7.867187 11.046875c2.335937 3.273438 6.882813 4.042969 10.164063 1.707032 3.273437-2.335938 4.039062-6.886719 1.703124-10.164063zm0 0" fill="#e7387f"/><g fill="#7e8b96"><path d="m167.730469 451.113281c-4.023438 0-7.285157-3.261719-7.285157-7.285156v-33.074219c0-4.027344 3.261719-7.285156 7.285157-7.285156 4.027343 0 7.289062 3.261719 7.289062 7.285156v33.074219c0 4.023437-3.261719 7.285156-7.289062 7.285156zm0 0"/><path d="m345.140625 451.113281c-4.027344 0-7.289063-3.261719-7.289063-7.285156v-33.074219c0-4.027344 3.261719-7.285156 7.289063-7.285156 4.023437 0 7.285156 3.261719 7.285156 7.285156v33.074219c0 4.023437-3.261719 7.285156-7.285156 7.285156zm0 0"/><path d="m347.542969 418.039062h-183.082031c-23.8125 0-45.785157-12.933593-57.339844-33.753906l-57.710938-103.972656c-8.488281-15.292969-24.628906-24.796875-42.125-24.796875-4.023437 0-7.285156-3.261719-7.285156-7.285156 0-4.027344 3.261719-7.289063 7.285156-7.289063 22.785156 0 43.808594 12.378906 54.867188 32.300782l57.710937 103.972656c8.988281 16.191406 26.074219 26.25 44.597657 26.25h183.082031c18.519531 0 35.605469-10.058594 44.597656-26.25l57.707031-103.972656c11.058594-19.921876 32.082032-32.300782 54.867188-32.300782 4.023437 0 7.289062 3.261719 7.289062 7.289063 0 4.023437-3.265625 7.285156-7.289062 7.285156-17.492188 0-33.636719 9.503906-42.125 24.796875l-57.707032 103.972656c-11.558593 20.820313-33.53125 33.753906-57.339843 33.753906zm0 0"/></g><path d="m227.503906 296.804688h-77.722656c-5.367188 0-9.714844-4.347657-9.714844-9.714844v-77.722656c0-5.363282 4.347656-9.714844 9.714844-9.714844h77.722656c5.363282 0 9.714844 4.351562 9.714844 9.714844v77.722656c0 5.367187-4.351562 9.714844-9.714844 9.714844zm0 0" fill="#eb5793"/><path d="m227.503906 199.652344h-40c5.363282 0 9.714844 4.351562 9.714844 9.714844v77.722656c0 5.367187-4.351562 9.714844-9.714844 9.714844h40c5.363282 0 9.714844-4.351563 9.714844-9.714844v-77.722656c0-5.363282-4.351562-9.714844-9.714844-9.714844zm0 0" fill="#e7387f"/><path d="m224.058594 117.550781c-3.277344-2.335937-7.828125-1.574219-10.164063 1.707031l-17.964843 25.222657v-137.191407c0-4.027343-3.265626-7.289062-7.289063-7.289062s-7.285156 3.261719-7.285156 7.289062v137.191407l-17.96875-25.226563c-2.335938-3.277344-6.882813-4.042968-10.160157-1.707031-3.28125 2.335937-4.042968 6.886719-1.710937 10.164063l31.1875 43.785156c2.847656 3.996094 8.996094 4.042968 11.871094 0l31.191406-43.785156c2.332031-3.277344 1.570313-7.828126-1.707031-10.160157zm0 0" fill="#40c1fa"/></svg>