<svg height="511pt" viewBox="0 -50 511.99893 511" width="511pt" xmlns="http://www.w3.org/2000/svg"><path d="m504.710938 205.253906h-497.425782c-4.023437 0-7.285156-3.261718-7.285156-7.285156s3.261719-7.285156 7.285156-7.285156h497.425782c4.023437 0 7.285156 3.261718 7.285156 7.285156s-3.261719 7.285156-7.285156 7.285156zm0 0" fill="#eb5793"/><path d="m423.792969 292.492188c-.097657 0-.191407 0-.285157 0-17.183593-.085938-34.050781-7.914063-48.769531-22.640626-15.035156-15.035156-27.394531-36.496093-36.734375-63.777343l-10.722656-31.320313c-16.386719-47.867187-43.257812-76.488281-71.878906-76.566406-.035156 0-.078125 0-.117188 0-28.371094 0-55.113281 28.15625-71.570312 75.363281l-11.691406 33.546875c-9.445313 27.097656-21.871094 48.34375-36.933594 63.148438-14.640625 14.390625-31.367188 21.992187-48.390625 21.992187-.117188 0-.234375 0-.351563-.003906-17.347656-.105469-34.34375-8.089844-49.160156-23.082031-15.136719-15.324219-27.519531-37.160156-36.8125-64.90625l13.820312-4.628906c16.304688 48.691406 43.3125 77.867187 72.242188 78.046874h.265625c28.363281 0 55.097656-28.144531 71.558594-75.363281l11.691406-33.546875c9.425781-27.035156 21.820313-48.25 36.84375-63.054687 14.664063-14.453125 31.429687-22.085938 48.488281-22.085938h.15625c17.207032.046875 34.09375 7.855469 48.835938 22.578125 15.058594 15.035156 27.433594 36.515625 36.789062 63.839844l10.722656 31.320312c16.367188 47.800782 43.203126 76.425782 71.789063 76.566407.070313.003906.144531.003906.214844.003906 28.132812 0 54.746093-27.796875 71.230469-74.414063l2.816406-7.96875c1.34375-3.796874 5.503906-5.78125 9.300781-4.441406 3.792969 1.34375 5.78125 5.503906 4.4375 9.296875l-2.816406 7.96875c-9.460938 26.765625-21.851563 47.75-36.820313 62.371094-14.582031 14.238281-31.222656 21.757813-48.148437 21.757813zm0 0" fill="#cbed74"/><path d="m7.285156 410.886719c-4.023437 0-7.285156-3.261719-7.285156-7.285157v-395.816406c0-4.023437 3.261719-7.285156 7.285156-7.285156 4.023438 0 7.285156 3.261719 7.285156 7.285156v395.816406c.003907 4.023438-3.257812 7.285157-7.285156 7.285157zm0 0" fill="#e7387f"/></svg>