<svg xmlns="http://www.w3.org/2000/svg" height="567pt" version="1.1" viewBox="-43 0 567 567.6253" width="567pt">
<g id="surface1">
<path d="M 399.265625 182.429688 C 399.265625 175.816406 393.902344 170.453125 387.289062 170.453125 L 95 170.453125 C 88.382812 170.453125 83.023438 175.816406 83.023438 182.429688 L 10.390625 547.351562 L 12.367188 550.867188 L 16.433594 557.023438 L 466.515625 557.023438 L 471.570312 547.792969 Z M 399.265625 182.429688 " style=" stroke:none;fill-rule:nonzero;fill:rgb(27.843137%,75.686275%,94.117647%);fill-opacity:1;" />
<path d="M 241.144531 11.5625 C 193.992188 11.574219 155.765625 49.804688 155.777344 96.953125 C 155.777344 125.964844 170.511719 152.984375 194.882812 168.695312 L 197.628906 170.453125 L 285.097656 170.453125 L 287.84375 168.695312 C 327.46875 143.136719 338.882812 90.304688 313.324219 50.671875 C 297.523438 26.167969 270.308594 11.410156 241.144531 11.5625 Z M 241.144531 133.425781 C 220.992188 133.425781 204.664062 117.085938 204.664062 96.941406 C 204.664062 76.800781 221.003906 60.460938 241.144531 60.460938 C 261.296875 60.460938 277.625 76.800781 277.625 96.941406 C 277.625 97.128906 277.625 97.304688 277.625 97.492188 C 277.328125 117.425781 261.078125 133.425781 241.144531 133.425781 Z M 241.144531 133.425781 " style=" stroke:none;fill-rule:nonzero;fill:rgb(94.509804%,37.647059%,31.764706%);fill-opacity:1;" />
<path d="M 410.144531 181.113281 C 409.617188 168.816406 399.484375 159.125 387.179688 159.136719 L 314.21875 159.136719 C 348.886719 118.753906 344.238281 57.910156 303.855469 23.242188 C 263.472656 -11.425781 202.628906 -6.777344 167.964844 33.605469 C 136.976562 69.714844 136.976562 123.027344 167.964844 159.125 L 95 159.125 C 82.695312 159.113281 72.5625 168.804688 72.035156 181.101562 L 0.390625 542.945312 C 0.324219 543.640625 0.324219 544.34375 0.390625 545.035156 C 0.390625 557.714844 10.675781 568 23.355469 568 L 459.152344 568 C 471.832031 568 482.117188 557.714844 482.117188 545.035156 C 482.183594 544.339844 482.183594 543.636719 482.117188 542.945312 Z M 166.753906 97.492188 C 166.699219 56.40625 199.960938 23.058594 241.046875 23.003906 C 282.128906 22.949219 315.480469 56.210938 315.535156 97.292969 C 315.566406 122.601562 302.734375 146.179688 281.472656 159.90625 L 200.816406 159.90625 C 179.675781 146.171875 166.863281 122.710938 166.753906 97.492188 Z M 459.152344 546.035156 L 23.136719 546.035156 C 22.863281 546.179688 22.53125 546.179688 22.257812 546.035156 L 93.902344 185.070312 C 93.96875 184.375 93.96875 183.671875 93.902344 182.980469 C 93.902344 182.433594 94.339844 181.992188 94.890625 181.992188 L 387.289062 181.992188 C 387.839844 181.992188 388.277344 182.433594 388.277344 182.980469 C 388.210938 183.675781 388.210938 184.378906 388.277344 185.070312 L 459.921875 546.035156 C 459.679688 546.132812 459.394531 546.132812 459.152344 546.035156 Z M 459.152344 546.035156 " style=" stroke:none;fill-rule:nonzero;fill:rgb(18.823529%,21.176471%,22.745098%);fill-opacity:1;" />
<path d="M 241.144531 144.414062 C 267.363281 144.414062 288.613281 123.160156 288.613281 96.941406 C 288.613281 70.726562 267.363281 49.472656 241.144531 49.472656 C 214.925781 49.472656 193.675781 70.722656 193.675781 96.941406 C 193.675781 97.128906 193.675781 97.304688 193.675781 97.492188 C 193.972656 123.492188 215.136719 144.414062 241.144531 144.414062 Z M 241.144531 71.449219 C 255.21875 71.449219 266.636719 82.867188 266.625 96.953125 C 266.613281 111.039062 255.210938 122.445312 241.121094 122.433594 C 227.253906 122.433594 215.9375 111.347656 215.640625 97.492188 C 215.332031 83.414062 226.496094 71.757812 240.574219 71.460938 C 240.769531 71.449219 240.957031 71.449219 241.144531 71.449219 Z M 241.144531 71.449219 " style=" stroke:none;fill-rule:nonzero;fill:rgb(18.823529%,21.176471%,22.745098%);fill-opacity:1;" />
</g>
</svg>