<svg id="Capa_1" enable-background="new 0 0 512 512" height="512" viewBox="0 0 512 512" width="512" xmlns="http://www.w3.org/2000/svg"><g><ellipse cx="167.65" cy="283.228" rx="14.998" ry="15"/><ellipse cx="344.35" cy="283.228" rx="14.998" ry="15"/><path d="m456.888 31.614c-33.965 5.285-63.063 15.404-86.486 30.074-40.141 25.143-62.485 63.161-67.321 104.43-31.531-4.898-62.626-4.899-94.161 0-1.799-15.349-6.856-36.411-20.1-57.749-28.835-46.456-80.145-68.421-133.707-76.755-6.202-.962-12.369 2.045-15.421 7.545-2.572 4.636-62.598 114.612-30.038 208.918 14.674 42.497 45.628 74.764 92.036 96.015 22.561 76.851 74.837 136.473 154.309 136.473 79.308 0 131.708-59.413 154.313-136.473 46.407-21.25 77.361-53.517 92.034-96.014 32.56-94.305-27.466-204.282-30.037-208.918-3.052-5.5-9.213-8.51-15.421-7.546zm-351.854 195.811c-26.354-28.839-17.847-66.048-10.62-85.331 21.173 11.916 38.311 29.906 36.913 54.419-10.736 8.47-19.629 18.711-26.293 30.912zm-66.991 10.963c-23.225-67.086 10.233-148.058 23.157-175.259 48.504 9.46 82.837 29.974 102.134 61.063 11.39 18.351 15.018 36.643 16.086 48.437-7.021 2.083-13.618 4.503-19.295 6.961-3.436-18.472-13.754-35.296-30.617-49.572-17.675-14.963-36.628-21.856-37.426-22.143-6.896-2.47-14.572.401-18.15 6.797-.532.951-13.064 23.629-16.115 52.937-3.853 37.013 8.671 68.153 36.287 90.679-2.989 15.542-2.851 31.709-.821 47.33-27.108-16.973-45.638-39.497-55.24-67.23zm299.186 177.77c-56.709 58.743-176.749 51.925-210.851-96.106-21.525-92.659 34.907-126.193 129.622-127.674 102.959 1.61 153.185 40.142 127.296 137.001-8.501 31.803-22.898 62.831-46.067 86.779zm80.354-274.063c7.233 19.301 15.729 56.499-10.618 85.33-6.407-11.731-15.12-22.089-26.294-30.912-1.395-24.473 15.69-42.479 36.912-54.418zm56.374 96.293c-9.601 27.733-28.134 50.259-55.243 67.232 2.039-15.708 2.157-31.843-.819-47.331 27.616-22.526 40.14-53.666 36.287-90.679-3.051-29.308-15.583-51.986-16.115-52.937-3.577-6.396-11.25-9.27-18.15-6.797-.798.287-19.75 7.18-37.426 22.143-16.863 14.276-27.181 31.1-30.617 49.572-6.128-2.651-12.647-4.988-19.294-6.961 1.068-11.795 4.696-30.086 16.086-48.437 19.297-31.089 53.629-51.604 102.134-61.063 12.929 27.212 46.38 108.177 23.157 175.258z"/><path d="m230.355 325.238 12.967-12.969c6.857-6.857 18.015-6.857 24.872 0l13.196 13.197c2.928 2.929 6.767 4.394 10.605 4.394 13.242 0 20.08-16.131 10.605-25.606l-13.196-13.197c-18.552-18.556-48.74-18.556-67.292 0l-12.967 12.969c-5.858 5.858-5.858 15.355 0 21.213 5.856 5.857 15.353 5.857 21.21-.001z"/><path d="m313.892 361.626c-38.396-16.784-81.733-15.323-115.985.09-14.893 6.515-10.098 28.75 6.009 28.75 3.695 0 5.632-1.149 9.439-2.7v15.97c0 8.28 6.719 15 14.998 15s14.998-6.72 14.998-15v-23.49c8.36-.934 16.934-.934 25.297 0v23.49c0 8.28 6.719 15 14.998 15s14.998-6.72 14.998-15v-15.97c2.447.997 2.44 1.012 3.44 1.44 7.533 3.306 16.417-.104 19.747-7.74 3.121-7.136.426-16.076-7.939-19.84z"/></g></svg>