<svg id="Capa_1" enable-background="new 0 0 512 512" height="512" viewBox="0 0 512 512" width="512" xmlns="http://www.w3.org/2000/svg"><g><path d="m442.463 7.021c-32.246-16.331-69.84-2.373-95.888 23.33-53.953-40.571-127.78-40.192-181.127-.027-53.072-52.341-123.43-33.89-133.852 33.7-5.98 38.78 9.981 82.11 37.904 111.11-74.972 202.702 47.377 336.866 180.406 336.866h12.24c106.469 0 191.532-83.394 202.045-188.42 3.972-39.454-2.054-95.499-21.628-148.459 51.454-53.451 52.815-141.317-.1-168.1zm-359.32 26.762c19.652-9.954 43.849 1.243 60.232 16.914-5.178 5.841-40.697 51.417-60.831 93.542-31.401-42.069-27.944-96.01.599-110.456zm46.546 397.899c-2.182-66.615 28.615-134.726 84.732-159.722 7.455 9.437 15.258 16.266 26.604 19.914v53.46c0 13.336-16.198 20.007-25.603 10.603-2.835-2.836-4.397-6.601-4.397-10.603 0-8.283-6.716-14.999-15-14.999s-15 6.715-15 14.999c0 19.731 12.666 36.326 30 42.441v20.563c0 18.564 15.104 33.667 33.67 33.667h22.66c18.565 0 33.67-15.103 33.67-33.667v-20.563c17.164-6.055 30-22.527 30-42.441 0-8.283-6.716-14.999-15-14.999s-15 6.715-15 14.999c0 4.002-1.562 7.767-4.396 10.603-9.392 9.392-25.604 2.752-25.604-10.603v-53.428c11.458-3.657 19.279-10.556 26.678-19.913 54.518 24.334 86.925 90.843 84.658 159.696-67.571 68.689-185.89 67.668-252.672-.007zm149.035-185.253c-2.176 3.861-4.139 7.107-9.326 12.308-7.315 7.335-19.331 7.334-26.645-.001-5.672-5.686-9.524-11.478-11.14-16.749-.357-1.165.22-2.605 1.342-3.348 13.876-9.192 31.887-9.224 45.742-.325 3.041 1.952 1.678 4.857.027 8.115zm-37.698 141.332c5.587-1.981 10.67-5.036 15-8.915 4.33 3.88 9.413 6.934 15 8.915v20.578c0 2.023-1.646 3.67-3.67 3.67h-22.66c-2.023 0-3.67-1.646-3.67-3.67zm169.499 6.809c-8.832-68.073-47.067-125.741-100.156-149.751 2.863-28.391-28.209-43.123-54.293-43.123-26.03 0-57.422 14.724-54.364 43.109-53.109 24.003-91.354 81.67-100.186 149.765-15.865-27.544-24.75-59.41-24.75-92.582 0-116.823 57.09-187.489 80.827-221.029 47.996-67.854 148.865-67.789 196.849.002 25.817 36.483 38.527 52.451 56.684 96.004 15.973 39.84 24.141 82.193 24.141 125.023-.001 31.88-8.229 63.892-24.752 92.582zm18.988-250.34c-19.104-39.973-50.675-82.076-60.837-93.533 33.772-32.301 75.23-26.841 82.13 17.899 3.979 25.806-5.474 54.435-21.293 75.634z"/><circle cx="157.173" cy="195.933" r="14.999"/><circle cx="354.978" cy="195.933" r="14.999"/></g></svg>