<svg id="Capa_1" enable-background="new 0 0 512 512" height="512" viewBox="0 0 512 512" width="512" xmlns="http://www.w3.org/2000/svg"><g><path d="m405.98 127.494h-75.38c0-16.125 1.991-37.45-15.48-60.082 18.172-10.732 32.654-26.807 41.392-46.262 3.395-7.557.02-16.434-7.538-19.829-7.558-3.396-16.436-.02-19.829 7.538-7.89 17.567-20.955 29.625-39.1 37.636-21.19-10.893-46.626-11.022-67.948.064-17.888-7.899-31.167-19.718-39.244-37.7-3.395-7.558-12.272-10.931-19.829-7.538-7.557 3.394-10.932 12.272-7.538 19.829 8.781 19.551 23.362 35.689 41.661 46.42-17.604 23.015-15.749 44.843-15.749 59.924h-75.379c-58.165 0-105.725 46.983-106.019 104.733-.443 86.906 92.119 129.416 156.852 93.197 21.668 68.436 68.857 119.958 84.148 135.377v36.199c0 8.284 6.716 15 15 15s15-6.716 15-15v-36.199c15.291-15.42 62.481-66.942 84.147-135.377 64.711 36.206 157.294-6.265 156.852-93.197-.295-57.75-47.855-104.733-106.019-104.733zm-194.58-13.624c0-25.331 20.445-46.021 45.502-45.577 24.095.476 43.698 20.478 43.698 44.59v14.61c-9.475 0-80.061 0-89.2 0zm95.254 248.622h-101.308c-6.707-12.371-12.882-25.791-17.833-40h136.975c-4.952 14.209-11.127 27.629-17.834 40zm-50.653 70.505c-8.092-8.791-20.028-22.751-32.23-40.505h64.459c-12.203 17.756-24.14 31.716-32.229 40.505zm63.742-140.504h-127.486c4.711-7.016 6.78-11.431 22.031-40h83.424c16.001 29.973 17.521 33.282 22.031 40zm-89.441-70 25.698-48.139 25.698 48.139zm-200.3 9.887c.21-41.293 34.313-74.886 76.019-74.886h124.97c-64.696 121.202-62.705 120.426-75.465 132.117-44.022 40.426-125.882 12.74-125.524-57.231zm327.334 58.012c-13.508-11.992-11.304-11.084-76.326-132.898h124.97c41.707 0 75.809 33.593 76.019 74.886.356 69.553-80.576 97.335-124.663 58.012z"/></g></svg>