<svg id="Capa_1" enable-background="new 0 0 512 512" height="512" viewBox="0 0 512 512" width="512" xmlns="http://www.w3.org/2000/svg"><g><path d="m80.33 391.246c-3.97 1.589-7.073 4.798-8.529 8.819l-22.761 62.861-40.819 20.692c-7.389 3.745-10.343 12.771-6.597 20.16 2.644 5.216 7.918 8.221 13.391 8.221 4.883-.001 2.704.436 52.888-25.002 3.404-1.726 6.022-4.683 7.322-8.272l22.495-62.127 32.836-13.145c8.859 61.295 61.734 108.543 125.444 108.543s116.586-47.248 125.445-108.542l32.837 13.145 22.495 62.127c1.299 3.589 3.917 6.547 7.322 8.272 50.303 25.499 48.067 25.002 52.887 25.002 15.701 0 20.845-21.259 6.794-28.381l-40.818-20.691-22.761-62.861c-1.456-4.021-4.559-7.23-8.529-8.819l-48.913-19.58v-104.496l33.102 3.802c36.367 82.061 33.686 78.39 39.071 81.73 36.992 22.949 36.381 23.447 42.052 23.447 14.988 0 20.759-19.783 7.922-27.747l-30.227-18.753-34.867-78.677c-2.154-4.861-6.72-8.218-12.002-8.824l-45.05-5.174c0-55.441.066-52.372-.175-55.991l56.864-23.916c3.838-1.614 6.833-4.751 8.267-8.661l24.482-66.738 27.411-4.844c8.158-1.441 13.602-9.223 12.161-17.381-1.441-8.157-9.221-13.603-17.381-12.16l-35.911 6.345c-5.262.93-9.632 4.588-11.472 9.605l-25.206 68.712-46.947 19.745c-5.532-11.519-13.784-21.689-24.162-29.479 0-27.876 2.047-46.378-10.386-70.601l26.008-26.008c5.858-5.858 5.858-15.354 0-21.212-5.857-5.858-15.355-5.858-21.213 0l-22.79 22.789c-36.911-36.252-95.766-36.194-132.618 0l-22.79-22.787c-5.857-5.858-15.355-5.858-21.213 0s-5.858 15.354 0 21.212l26.008 26.007c-12.439 24.234-10.386 42.711-10.386 70.602-10.378 7.792-18.63 17.961-24.162 29.478l-46.948-19.746-25.205-68.711c-1.84-5.017-6.21-8.675-11.472-9.605l-35.911-6.345c-8.159-1.445-15.94 4.003-17.381 12.16-1.442 8.158 4.003 15.939 12.161 17.381l27.411 4.844 24.482 66.738c1.434 3.909 4.429 7.047 8.267 8.661l56.864 23.916c-.241 3.611-.175.424-.175 55.991l-45.049 5.174c-5.282.606-9.848 3.964-12.002 8.824l-34.867 78.677-30.228 18.752c-7.039 4.367-9.206 13.614-4.838 20.653 4.371 7.045 13.621 9.203 20.654 4.838 37.352-23.172 37.513-22.325 39.965-27.86l33.265-75.062 33.101-3.802v104.494zm128.901-254.993c101.319 0 94.422-.056 97.072.13 24.376 1.717 46.457 21.238 46.457 51.537h-193.518c0-31.161 23.738-51.667 49.989-51.667zm-49.989 248.989c0-9.576 0-157.698 0-167.323h81.759v262.914c-46.256-7.229-81.759-47.341-81.759-95.591zm111.758 95.591v-262.914h81.759v167.323c0 48.25-35.504 88.362-81.759 95.591zm-15-450.816c35.67 0 64.689 29.019 64.689 64.687v13.577c-13.976-3.206-19.789-2.027-111.459-2.027-5.69 0-11.897.646-17.92 2.027v-13.577c.001-35.668 29.02-64.687 64.69-64.687z"/></g></svg>