<svg id="Capa_1" enable-background="new 0 0 512 512" height="512" viewBox="0 0 512 512" width="512" xmlns="http://www.w3.org/2000/svg"><g><circle cx="221.965" cy="420.185" r="14.999"/><circle cx="290.035" cy="420.185" r="14.999"/><circle cx="174.136" cy="238.859" r="14.999"/><circle cx="337.864" cy="238.859" r="14.999"/><path d="m497 254.461c-8.284 0-15 6.715-15 14.998v86.621c0 39.716-32.315 72.027-72.036 72.027h-11.209c59.168-55.376 50.033-147.116 26.539-223.8.055-.121 12.508-27.323 12.561-27.445 22.638-51.345 21.024-111.614-6.917-162.704-3.504-6.402-5.472-11.699-12.765-13.648-3.96-1.058-8.183-.45-11.683 1.684l-89.459 54.544c-39.231-18.625-83.118-18.486-122.068-.002l-89.454-54.542c-3.5-2.135-7.724-2.744-11.684-1.684-7.295 1.95-9.26 7.246-12.766 13.652-28.874 52.796-28.84 115.398-6.806 162.941l12.502 27.054c-23.793 77.441-32.417 168.819 26.489 223.95h-11.209c-39.72 0-72.035-32.311-72.035-72.027v-86.621c0-8.283-6.716-14.998-15-14.998s-15 6.715-15 14.998v86.621c0 56.256 45.773 102.024 102.036 102.024h52.251c20.548 43.217 92.334 70.498 156.025 42.542 22.667-9.959 38.843-24.536 47.403-42.542h52.25c56.262 0 102.035-45.768 102.035-102.024v-86.621c0-8.283-6.716-14.998-15-14.998zm-88.519-218.348c19.086 40.099 19.977 87.4 2.089 128.27-14.782-33.726-36.172-67.205-65.012-89.906zm-304.962 0 62.918 38.362c-28.83 22.698-50.204 56.191-65.004 89.917-17.892-40.875-17.004-88.178 2.086-128.279zm.622 222.679c12.181-63.404 41.148-140.689 97.421-171.76 69.643-38.454 172.185-5.305 206.299 171.766 14.611 75.877.015 128.988-43.399 158.312-4.012-45.502-38.808-73.255-82.883-85.268-16.224-4.43-34.007-4.683-51.15-.002-44.184 12.043-78.858 39.827-82.889 85.271-43.414-29.324-58.011-82.436-43.399-158.319zm109.617 214.392c-22.902-10.063-37.801-25.688-36.506-50.977 1.787-33.713 28.23-52.477 61.073-61.426 11.349-3.102 23.674-3.191 35.361.003 34.859 9.499 61.992 30.176 61.13 65.999-1.444 48.796-73.857 67.118-121.058 46.401z"/></g></svg>