<svg id="Capa_1" enable-background="new 0 0 512 512" height="512" viewBox="0 0 512 512" width="512" xmlns="http://www.w3.org/2000/svg"><g><ellipse cx="163.345" cy="313.291" rx="15" ry="14.997"/><ellipse cx="351.073" cy="313.291" rx="15" ry="14.997"/><path d="m444.031 222.147c23.954-12.005 50.28-34.999 60.817-68.988 11.138-35.915 9.143-69.804-5.771-98.001-16.116-30.475-44.017-48.124-64.752-54.477-11.824-3.625-22.691 7.855-18.502 19.437.294.812 26.08 75.292-.762 104.643-12.996-10.247-29.099-15.856-45.731-15.856h-226.66c-16.738 0-32.779 5.678-45.706 15.867-26.737-29.304-1.074-103.852-.787-104.653 4.193-11.594-6.693-23.062-18.502-19.438-20.736 6.354-48.636 24.002-64.752 54.478-14.912 28.198-16.907 62.086-5.77 97.999 10.537 33.99 36.862 56.985 60.816 68.99-20.278 4.486-48.21 17.017-66.242 51.261-2.343 4.448-2.3 9.774.112 14.184 1.309 2.392 31.343 55.914 99.115 67.12l12.793 63.302c8.661 42.835 46.668 73.925 90.372 73.925h6.441c25.992 27.141 65.777 26.348 91.017 0h6.302c43.704 0 81.711-31.09 90.373-73.927l12.792-63.3c67.772-11.206 97.806-64.728 99.115-67.12 2.412-4.41 2.455-9.736.112-14.184-18.03-34.245-45.961-46.776-66.24-51.262zm9.294-176.996c25.101 21.636 36.421 55.418 22.868 99.126-5.991 19.325-19.078 33.88-32.983 43.621 0-9.595.072-23.6-8.766-40.042 25.974-25.086 25.608-67.382 18.881-102.705zm-83.995 93.749c18.632 0 35.127 11.984 41.297 29.064 3.137 8.744 3.391 14.567 2.583 24.585-.407 5.045-2.44 15.032-4.01 19.843-5.314 16.279-22.661 25.53-39.87 25.53h-20.92c-33.703 0-62.344 25.209-66.619 58.641-13.005 101.845-10.578 78.265-11.444 100.296-9.549-1.461-19.545-1.394-28.693.021-.866-22.05 1.56 1.532-11.444-100.319-4.275-33.43-32.916-58.639-66.619-58.639h-20.92c-17.927 0-34.8-10.968-41.302-29.021-3.103-8.587-2.578-14.371-2.578-26.129 0-24.44 19.876-43.872 43.88-43.872zm-333.522 5.376c-13.557-43.712-2.228-77.494 22.867-99.125-6.727 35.324-7.092 77.618 18.88 102.704-7.307 13.598-8.765 25.827-8.765 40.043-13.904-9.741-26.992-24.297-32.982-43.622zm-3.108 135.688c14.471-21.452 34.775-27.769 47.173-29.568l14.602 72.25c-25.353-6.901-47.075-22.827-61.775-42.682zm110.453 132.109c-21.757-107.656-30.332-150.102-30.406-150.47 17.113 7.567 29.253 6.314 50.843 6.314 18.648 0 34.495 13.95 36.861 32.445 12.53 98.134 10.414 77.027 11.569 106.443-2.575 1.377-5.089 2.867-7.52 4.477-14.432 9.567-22.591 28.319-14.827 48.938-23.084-5.554-41.658-24.101-46.52-48.147zm100.404 67.322c-11.145-4.773-23.127-20.715-26.617-32.107-1.24-4.042.462-8.568 4.133-11.002 21.216-14.043 48.413-13.862 69.232-.494 4.229 2.714 6.134 7.78 4.634 12.317 0 0-2.752 10.848-16.496 24.59-9.395 9.415-23.352 11.635-34.886 6.696zm125.291-67.324c-4.852 23.995-23.357 42.514-46.372 48.113 7.741-20.592-.843-39.925-15.961-49.632-2.118-1.36-4.308-2.612-6.534-3.797 1.153-29.3-.965-8.228 11.568-106.389 2.366-18.498 18.213-32.448 36.861-32.448 21.631 0 33.743 1.246 50.843-6.315-18.598 92.043-28.549 141.281-30.405 150.468zm48.682-89.447c3.341-16.533 11.391-56.368 14.595-72.221 12.434 1.803 32.733 8.134 47.193 29.589-8.298 11.261-28.251 33.448-61.788 42.632z"/></g></svg>