<svg id="Capa_1" enable-background="new 0 0 512 512" height="512" viewBox="0 0 512 512" width="512" xmlns="http://www.w3.org/2000/svg"><g><path d=""/><ellipse cx="387.364" cy="85.427" rx="14.997" ry="15"/><path d="m496.895 100.427c8.282 0 14.997-6.716 14.997-15s-6.714-15-14.997-15h-28.02c-21.222-71.835-117.434-87.614-160.077-24.813l-87.609 129.014c-49.038 2.326-16.64.786-148.731 7.069-8.268.394-14.662 7.423-14.267 15.698 2.031 42.58 17.967 82.651 45.289 114.702l-38.165 23.469c-7.055 4.339-9.258 13.577-4.919 20.635 2.157 3.508 4.438 6.95 6.819 10.319l-60.074 36.952c-7.48 4.6-9.424 14.629-4.204 21.694l37.126 50.234c2.926 3.958 7.456 6.084 12.071 6.084 5.827 0 1.029 1.968 89.605-52.505 37.818 17.788 81.285 23.274 124.311 13.313 6.545 1.659 13.455 2.894 20.681 3.709l10.672 29.604h-16.043c-8.282 0-14.997 6.716-14.997 15s6.714 15 14.997 15h137.957c8.282 0 14.997-6.716 14.997-15s-6.714-15-14.997-15h-26.857l-14.641-40.612c126.203-45.938 175.648-201.689 94.734-311.86v-22.707h24.342zm-163.274-37.976c11.11-16.36 29.549-26.128 49.326-26.128 32.925 0 59.612 26.665 59.612 59.625v30.581c-1.566 6.645-10.351 39.231-37.959 70.026-5.6-16.998-16.698-39.402-21.591-43.777-4.921-4.401-12.183-5.076-17.845-1.596l-157.612 96.917c1.189-1.75 124.833-183.821 126.069-185.648zm-133.512 143.213-54.799 80.701-15.923 9.793c-21.562-23.867-35.359-53.426-39.834-85.241zm-144.112 240.829-19.232-26.023 49.829-30.651c7.544 7.732 16.402 15.39 25.745 22.025zm38.392-93.591 273.124-167.948c40.019 80.91 5.297 179.772-77.634 217.716-68.562 31.368-150.156 10.714-195.49-49.768zm266.188 122.704c-12.112 0-19.906 0-31.292 0l-10.344-28.693c10.133-.523 20.131-1.79 29.932-3.772zm121.321-232.407c.136 89.662-67.881 163.449-154.471 172.95 60.932-39.777 94.707-111.621 85.065-185.051 25.58-23.166 40.695-49.13 49.326-68.821 22.044 41.471 20.08 80.922 20.08 80.922z"/></g></svg>