<svg id="Capa_1" enable-background="new 0 0 512 512" height="512" viewBox="0 0 512 512" width="512" xmlns="http://www.w3.org/2000/svg"><g><path d="m497 107.8h-111.96c-33.227 0-63.178 14.288-84.04 37.038 0-11.985-2.595-22.135-10.93-31.773l9.401-41.204c1.843-8.077-3.211-16.118-11.288-17.961-8.072-1.847-16.117 3.211-17.96 11.287l-7.473 32.754c-4.455-.667-9.003-.673-13.498.005l-7.474-32.759c-1.842-8.076-9.885-13.128-17.96-11.287-8.077 1.843-13.13 9.884-11.288 17.961l9.406 41.224c-8.32 9.642-10.935 19.818-10.935 31.752-20.862-22.75-50.813-37.038-84.04-37.038h-111.961c-8.284 0-15 6.716-15 15v73.99c0 57.59 42.913 105.339 98.44 112.969-36.368 43.075-21.259 117.77-20.571 121.049 1.222 5.827 5.775 10.381 11.603 11.603 1.51.316 18.161 3.693 39.906 3.693 25.869 0 58.934-4.795 82.244-25.205 3.549 21.294 22.092 37.581 44.378 37.581 22.285 0 40.828-16.287 44.377-37.581 23.312 20.412 56.373 25.206 82.244 25.206 21.74 0 38.397-3.378 39.907-3.694 5.828-1.222 10.381-5.775 11.603-11.603.688-3.279 15.797-77.974-20.571-121.049 55.527-7.629 98.44-55.378 98.44-112.968v-73.99c0-8.284-6.716-15-15-15zm-256 177.126h30v30h-30c0-4.53 0-26.339 0-30zm0-142.486c0-8.271 6.729-15 15-15 8.282 0 15 6.717 15 15v112.486h-30c0-12.981 0-99.25 0-112.486zm-211 54.35v-58.99h96.96c46.34 0 84.04 37.7 84.04 84.04v58.99c-10.477 0-86.127 0-96.96 0-46.34 0-84.04-37.7-84.04-84.04zm75.587 217.799c-3.005-23.679-3.288-66.675 18.53-88.492 6.922-6.923 16.475-12.055 28.411-15.267h58.472v52.401c-3.283 13.985-8.933 25.058-16.806 32.93-23.447 23.443-68.6 20.922-88.607 18.428zm165.413-1.109c0 8.271-6.729 15-15 15s-15-6.729-15-15c0-6.742 0-60.389 0-68.554h30zm135.321 1.12c-20.067 2.494-65.107 4.964-88.514-18.437-7.874-7.873-13.523-18.946-16.807-32.932v-52.401h58.472c11.937 3.212 21.489 8.344 28.412 15.267 23.403 23.403 20.929 68.449 18.437 88.503zm75.679-217.81c0 46.34-37.7 84.04-84.04 84.04-10.882 0-86.482 0-96.96 0v-58.99c0-46.34 37.7-84.04 84.04-84.04h96.96z"/><circle cx="150.448" cy="371.186" r="15"/><circle cx="361.552" cy="371.186" r="15"/><path d="m179.477 238.814c18.408-36.803-36.163-82.727-82.73-79.551-50.358 3.451-53.871 61.541 3.623 90.298 32.65 16.332 67.54 12.38 79.107-10.747zm-88.094-34.796c-3.283-5.068-3.887-9.067-3.029-10.782 2.286-4.572 18.972-7.282 38.856 2.664 20.127 10.068 27.661 25.045 25.436 29.494-.857 1.715-4.42 3.63-10.444 4.043-17.686 1.188-41.274-10.684-50.819-25.419z"/><path d="m332.523 238.814c18.371 36.73 87.823 20.803 113.273-18.486 18.788-29.007 3.86-58.707-30.543-61.064-46.657-3.21-101.102 42.818-82.73 79.55zm91.123-45.578c.858 1.715.254 5.714-3.029 10.782-9.574 14.78-33.204 26.613-50.819 25.419-6.024-.413-9.587-2.328-10.444-4.043-2.211-4.419 5.235-19.39 25.436-29.494 19.918-9.963 36.581-7.214 38.856-2.664z"/></g></svg>