<svg id="Capa_1" enable-background="new 0 0 512 512" height="512" viewBox="0 0 512 512" width="512" xmlns="http://www.w3.org/2000/svg"><g><path d="m411.014 26.818c-15.12 12.549-28.892 26.431-41.137 41.424l-11.1-17.452c-43.227-67.911-162.565-67.531-205.555.003l-11.099 17.449c-12.245-14.993-26.019-28.876-41.142-41.427-29.161-24.183-71.466-2.325-69.552 36.763 1.495 30.222 6.196 57.422 13.968 81.014-19.861 32.962-17.461 98.459 33.317 133.617 14.525 10.06 33.988 29.689 45.516 66.428l-5.42 23.812c-16.754 72.672 38.57 143.551 114.478 143.551h45.424c73.117 0 128.818-66.491 115.457-138.799-.586-3.175-.429-2.329-6.4-28.564 11.528-36.74 30.991-56.368 45.515-66.427 49.352-34.171 53.962-99.252 33.314-133.604 7.775-23.596 12.478-50.801 13.973-81.036 1.915-39.108-40.413-60.919-69.557-36.752zm-24.076 68.245c12.488-16.519 26.998-31.678 43.229-45.149 9.253-7.671 21.066-.591 20.44 12.18-1.048 21.2-3.776 40.631-8.136 58.041-17.885-11.325-38.002-14.471-49.324-15.307-.267-.42-5.911-9.296-6.209-9.765zm-305.11-45.152c16.235 13.474 30.746 28.632 43.233 45.152l-6.212 9.77c-16.896 1.254-34.806 6.121-49.319 15.313-4.361-17.413-7.089-36.846-8.138-58.043-.616-12.605 11.042-19.983 20.436-12.192zm196.884 432.082h-45.424c-56.266 0-97.745-52.584-85.234-106.842 8.235-36.181 16.357-71.871 24.457-107.456 12.904-56.698 77.482-84.215 127.273-54.591 18.543 11.032 32.668 28.959 38.684 50.551.811 2.913-.932-4.544 25.488 111.538 12.51 54.257-29.044 106.8-85.244 106.8zm168.014-276.778c-3.081 20.411-14.297 37.092-30.519 48.325-12.073 8.361-26.792 21.777-39.462 42.655l-8.004-35.161c-6.568-28.856-23.849-54.566-49.98-71.46-66.988-43.296-157.589-7.247-175.502 71.46l-8.004 35.161c-12.67-20.878-27.389-34.294-39.463-42.656-16.905-11.706-27.798-28.45-30.875-50.785-3.811-27.279 2.787-49.875 28.119-61.249 17.095-7.674 35.482-6.957 33.718-6.957 6.02 0 10.536-2.795 13.175-6.949l38.602-60.694c31.293-49.16 123.574-49.274 154.938-.004l38.604 60.698c2.724 4.289 7.211 6.977 13.5 6.946 19.022-.039 45.23 7.263 56.085 26.821 7.165 12.9 7.355 29.209 5.068 43.849z"/><ellipse cx="148.913" cy="175.714" rx="13.091" ry="13.088" transform="matrix(.003 -1 1 .003 -27.187 324.17)"/><ellipse cx="363.086" cy="175.714" rx="13.088" ry="13.091"/><path d="m313.552 383.951c-8.284 0-15 6.717-15 15.003 0 7.597-6.18 13.778-13.776 13.778s-13.776-6.18-13.776-13.778v-99.866l30.675-12.621c7.661-3.152 11.317-11.92 8.166-19.583s-11.916-11.318-19.579-8.168l-34.262 14.098-34.262-14.097c-7.664-3.155-16.428.504-19.579 8.168-3.152 7.663.504 16.43 8.166 19.583l30.675 12.62v99.866c0 7.597-6.18 13.778-13.776 13.778s-13.776-6.181-13.776-13.778c0-8.286-6.716-15.003-15-15.003s-15 6.717-15 15.003c0 37.766 44.51 57.482 72.552 32.954 28.156 24.627 72.552 4.61 72.552-32.954 0-8.286-6.716-15.003-15-15.003z"/></g></svg>