<svg id="Capa_1" enable-background="new 0 0 512 512" height="512" viewBox="0 0 512 512" width="512" xmlns="http://www.w3.org/2000/svg"><g><path d="m411.42 96.61c-11.517-3.271-22.183-9.627-30.844-18.379-16.875-17.06-16.45-16.64-16.45-16.64-11.451-11.575-27.283-18.442-44.194-18.442-9.82 0-18.971-4.398-25.108-12.073l-16.16-20.191c-11.607-14.502-33.696-14.526-45.322 0l-16.164 20.196c-5.946 7.435-15.07 12.069-25.105 12.069-25.848 0-41.921 16.256-40.48 14.99-15.457 13.573-25.466 31.215-51.007 38.47-86.16 24.462-110.852 136.614-40.902 194.654l5.896 28.689c5.668 27.568 18.39 52.568 22.573 58.548 20.079 34.173 34.133 42.964 115.816 114.042 29.852 25.965 74.266 25.921 104.071-.002 81.93-71.294 95.843-80.005 115.873-114.134 2.107-3.056 16.102-27.232 22.514-58.454l5.896-28.686c69.837-57.939 45.408-170.149-40.903-194.657zm1.955 192.377 8.128 3.211c-4.837 23.535-6.992 38.432-17.599 60.115l-71.855-19.299c-49.756-15.459-102.336-15.458-152.093-.001l-71.851 19.301c-10.614-21.697-12.779-36.643-17.603-60.116l8.126-3.211c74.605-29.476 95.287-122.981 44.667-181.213 6.061-4.774 9.037-8.016 16.864-15.929 8.104 9.97 22.513 26.713 37.205 57.983 9.098 19.373 16.421 40.562 21.767 62.974 11.158 46.808 62.571 46.862 73.742.002 12.836-53.807 32.719-88.66 58.971-120.958 7.75 7.835 10.769 11.127 16.866 15.927-50.666 58.281-29.865 151.768 44.665 181.214zm-172.772-239.164 15.399-19.241 15.396 19.236c11.858 14.828 29.548 23.332 48.534 23.332 2.368 0 5.102.296 7.688.935-28.804 35.433-50.434 75.189-63.928 131.759-2.154 9.037-6.183 12.078-7.689 12.078s-5.535-3.041-7.689-12.08c-13.544-56.777-35.344-96.582-63.925-131.752 2.627-.647 5.277-.939 7.683-.939 18.584-.001 36.577-8.382 48.531-23.328zm-131.823 75.647c2.586-.734 5.136-1.588 7.652-2.533 42.478 42.392 28.198 115.618-28.827 138.15l-11.646 4.601c-47.955-43.353-28.887-122.697 32.821-140.218zm255.975 277.949c-82.933 72.167-80.819 72.119-93.753 76.208v-80.562c0-8.284-6.716-15-15-15s-15 6.716-15 15v80.563c-12.892-4.076-10.411-3.686-93.754-76.21-8.436-7.34-16.06-15.55-22.77-24.439.441-.119 63.685-17.1 64.121-17.237 44.096-13.756 90.711-13.756 134.807 0 .432.135 63.686 17.117 64.124 17.235-6.712 8.889-14.337 17.1-22.775 24.442zm71.291-137.731-11.648-4.602c-57.018-22.528-71.311-95.754-28.826-138.15 2.517.945 5.067 1.8 7.653 2.534 61.705 17.521 80.767 96.886 32.821 140.218z"/><circle cx="181.178" cy="294.456" r="15"/><circle cx="330.826" cy="294.456" r="15"/><circle cx="95.306" cy="206.53" r="15"/><circle cx="416.697" cy="206.53" r="15"/></g></svg>