<svg id="Capa_1" enable-background="new 0 0 512 512" height="512" viewBox="0 0 512 512" width="512" xmlns="http://www.w3.org/2000/svg"><g><path d="m89.9 224.327v250.232c0 12.677 7.695 23.68 19.604 28.029 13.713 5.011 28.292-.925 34.293-10.491l13.595-21.676 25.075 29.75c11.892 14.116 33.624 14.154 45.567.091l27.661-31.959 27.039 32.941c11.632 14.183 33.716 14.451 45.765.15l26.107-30.973 13.595 21.677c5.219 8.319 19.27 15.98 34.293 10.491 11.909-4.349 19.604-15.352 19.604-28.029v-250.233c0-72.621-46.251-133.376-109.767-156.268 10.175-52.993-52.429-88.983-93.327-54.464-16.172 13.669-23.159 34.517-19.336 54.452-65.374 23.451-109.768 85.561-109.768 156.28zm166.1-194.269c18.89 0 34.545 19.67 23.72 40.943-1.075 2.104-22.986 45.171-23.72 46.615-27.666-54.378-17.438-34.274-24.348-47.849-9.368-18.427 4.233-39.709 24.348-39.709zm-44.776 65.713 31.407 61.724c5.551 10.914 21.189 10.911 26.738 0l31.399-61.717c52.48 18.267 91.331 68.254 91.331 128.548v249.412l-23.002-36.676c-5.402-8.611-17.634-9.456-24.178-1.697l-39.237 46.551-38.088-46.4c-5.898-7.185-16.857-7.324-22.937-.3-.002.003-39.366 45.482-39.368 45.484l-38.21-45.334c-6.547-7.774-18.783-6.903-24.178 1.696l-23.001 36.677v-249.412c0-58.454 37.003-109.734 91.324-128.556z"/><circle cx="191.205" cy="216.607" r="14.999"/><circle cx="320.795" cy="216.607" r="14.999"/><path d="m256 396.252c10.26 10.258 22.105 16.028 36.792 16.028 44.386 0 66.906-53.946 35.405-85.442l-19.179-19.177 7.546-14.118c6.866-12.846 2.858-28.558-9.323-36.546l-35.911-23.549c-9.313-6.107-21.348-6.107-30.66 0l-35.91 23.549c-12.183 7.987-16.19 23.7-9.324 36.545l7.546 14.119-19.18 19.178c-19.521 19.519-19.521 51.281 0 70.803 18.124 18.12 49.403 21.403 72.198-1.39zm50.985-48.203c7.825 7.824 7.825 20.556 0 28.38s-20.56 7.825-28.383.001l-4.13-4.13 19.771-36.992zm-50.985-88.782 33.224 21.787-33.224 62.164-33.224-62.164zm-50.985 88.782 12.743-12.741 19.771 36.992-4.13 4.13c-7.825 7.823-20.557 7.824-28.384-.001-7.826-7.825-7.826-20.556 0-28.38z"/></g></svg>