<svg id="Capa_1" enable-background="new 0 0 512 512" height="512" viewBox="0 0 512 512" width="512" xmlns="http://www.w3.org/2000/svg"><g><ellipse cx="436.598" cy="255.988" rx="15.074" ry="15.097"/><path d="m46.584 352.821c24.69-4.248 54.634-18.337 72.884-41.49 7.523 6.79 15.177 13.256 22.918 19.34l-21.493 13.168c-24.001 14.652-21.014 51.361 5.868 61.66 35 13.436 74.024 1.802 96.358-26.816 10.426 4.233 20.872 7.698 31.233 10.362-7.26 29.21-3.636 58.057 24.071 67.438 65.33 22.118 111.397-41.285 147.414-96.83 28.501-16.683 54.517-38.572 55.272-39.579 41.054-34.929 41.324-93.012-.005-128.176-17.22-14.637-35.768-28.162-55.266-39.574-32.686-50.407-79.908-119.692-147.413-96.83-27.671 9.367-31.369 38.057-24.077 67.414-10.34 2.662-20.507 6.015-31.237 10.374-22.35-28.627-61.374-40.229-96.34-26.808-26.474 10.143-30.262 46.312-5.877 61.664l21.493 13.169c-7.743 6.084-15.396 12.551-22.918 19.34-18.171-23.053-48.195-37.243-72.909-41.494-32.818-5.607-57.59 29.818-41.545 59.267 12.817 23.525 12.817 51.614 0 75.139-16.044 29.447 8.724 64.874 41.569 59.262zm189.079-192.058c48.651-19.438 94.5-19.449 145.571 2.665-37.356 56.007-37.365 129.099-.001 185.12-48.748 21.105-94.585 23.049-145.585 2.644-38.446-57.43-38.484-132.941.015-190.429zm228.304 56.273c22.014 20.615 23.916 51.108 4.335 73.432-7.637 8.699-34.812 29.993-59.884 44.391-33.441-47.26-33.37-110.583 0-157.74 23.136 13.269 46.844 31.766 55.549 39.917zm-326.424 160.266c-3.384-1.296-3.83-5.822-.816-7.767l32.176-19.712c7.706 5.081 17.366 10.909 25.833 15.473-14.756 14.53-37.023 19.748-57.193 12.006zm150.536 50.576c-2.643-.895-4.156-2.16-5.223-4.37-2.707-5.606-2.21-16.04 1.213-28.978 27.875 3.054 56.73.173 87.544-10.002-25.647 32.727-52.505 53.855-83.534 43.35zm-5.223-339.409c1.067-2.209 2.58-3.475 5.224-4.37 31.032-10.51 57.884 10.619 83.533 43.351-30.693-10.169-59.74-13.022-87.544-10.002-3.423-12.939-3.92-23.373-1.213-28.979zm-145.306 46.203c20.121-7.722 42.396-2.552 57.185 12.007-8.588 4.629-18.314 10.518-25.832 15.476l-32.175-19.713c-3.013-1.943-2.574-6.469.822-7.77zm52.066 50.021c-17.246 45.639-17.279 96.864 0 142.59-20.067-12.805-39.16-28.08-56.505-44.393-13.978-13.15-15.134-34.353-4.406-48.849 4.959-6.727 32.978-31.52 60.911-49.348zm-148.15 4.219c20.381 3.523 45.829 16.182 57.848 35.328-10.425 19.547-10.584 43.648-.001 63.497-5.848 9.318-21.334 27.159-57.151 35.191-8.688 1.95-14.64-7.642-10.682-14.907 17.751-32.58 17.751-71.484 0-104.064-3.963-7.272 1.986-16.413 9.986-15.045z"/></g></svg>