<svg id="Capa_1" enable-background="new 0 0 512 512" height="512" viewBox="0 0 512 512" width="512" xmlns="http://www.w3.org/2000/svg"><g><path d="m495.83 130.262c-17.297-12.186-47.605-27.411-85.747-21.536 10.681-19.953 20.616-46.69 23.48-79.887 2.313-26.817-32.326-39.607-47.958-17.703-11.942 16.736-44.337 56.618-91.625 72.995-25.927-5.301-49.22-5.339-75.582.132-47.502-16.291-80.047-56.344-92.021-73.127-15.63-21.906-50.272-9.112-47.958 17.703 2.864 33.198 12.799 59.934 23.48 79.888-38.136-5.876-68.441 9.342-85.749 21.537-21.53 15.175-21.54 47.327.004 62.511 24.005 16.907 51.882 25.649 81.559 22.121-.586 6.271-.898 12.72-.898 19.334 0 74.231 24.962 129.079 39.831 155.148 6.067 10.671 10.634 22.167 13.316 34.468 12.247 56.023 50.892 88.154 106.029 88.154s93.783-32.131 106.03-88.162c2.696-12.368 7.305-23.895 13.304-34.442 14.879-26.088 39.841-80.936 39.841-155.165 0-6.609-.308-13.057-.886-19.329 29.719 3.526 57.592-5.25 81.549-22.127 3.227-1.613 16.17-12.885 16.17-31.256.001-12.435-6.043-24.118-16.169-31.257zm-93.712-91.237c-6.126 38.787-23.388 65.815-34.353 79.656-9.41-8.111-20.015-15.035-32.27-20.869 30.648-17.849 53.32-42.1 66.623-58.787zm-225.263 59.001c-14.166 5.873-27.033 16.298-32.477 20.981-10.942-13.643-28.356-40.633-34.523-79.995 13.355 16.755 36.159 41.141 67 59.014zm-143.419 70.227c-4.6-3.242-4.603-10.225-.002-13.468 12.913-9.099 30.373-17.291 51.376-17.291 11.106 0 23.206 2.292 36.144 7.953-7.87 11.843-13.939 25.628-17.418 37.998-30.017 6.879-54.442-4.164-70.1-15.192zm100.203 19.416c6.617-20.102 17.842-36.122 33.387-48.498 60.557 77.91 59.259 160.424-6.498 231.432-27.425-50.365-44.133-130.552-26.889-182.934zm199.071 229.772c-6.438 29.452-24.974 64.561-76.718 64.561-51.745 0-70.281-35.108-76.717-64.552-1.31-6.011-3.014-11.989-5.09-17.867 81.973-81.747 88.931-183.204 18.743-275.929 39.151-17.373 85.32-18.488 126.352-.292-70.595 93.133-63.325 194.913 18.518 276.221-2.076 5.876-3.779 11.852-5.088 17.858zm18.745-46.84c-63.459-68.647-69.662-150.333-6.276-231.713 29.35 23.428 39.987 57.792 39.987 95.342 0 63.751-20.178 111.512-33.711 136.371zm127.092-202.348c-15.637 11.015-40.021 22.047-70.001 15.219-4.141-14.404-10.069-27.163-17.289-38.129 37.302-16.217 67.601-4.431 87.29 9.441 4.602 3.244 4.6 10.226 0 13.469z"/><path d="m220.468 400.251c-7.118-4.236-16.325-1.901-20.562 5.218-4.237 7.118-1.901 16.324 5.218 20.561.082.048 8.208 5.296 9.062 14.96.729 8.244 8 14.349 16.263 13.621 8.252-.729 14.351-8.01 13.622-16.262-2.181-24.674-21.417-36.797-23.603-38.098z"/><path d="m291.532 400.251c7.118-4.236 16.325-1.901 20.562 5.218 4.237 7.118 1.901 16.324-5.218 20.561-.082.048-8.208 5.296-9.062 14.96-.729 8.244-8 14.349-16.263 13.621-8.252-.729-14.351-8.01-13.622-16.262 2.181-24.674 21.417-36.797 23.603-38.098z"/><circle cx="166.133" cy="261.436" r="15"/><circle cx="345.849" cy="261.436" r="15"/></g></svg>