<svg id="Capa_1" enable-background="new 0 0 512 512" height="512" viewBox="0 0 512 512" width="512" xmlns="http://www.w3.org/2000/svg"><g><path d="m17.701 339.798-15.656 26.99c-5.826 10.042 1.514 22.529 12.96 22.529 5.172-.001 10.205-2.68 12.987-7.476l15.656-26.989c8.149-14.046 22.341-23.493 38.17-25.816 2.756 17.077 9.092 32.251 18.364 45.992l-7.289 5.435c-16.813 12.535-28.171 30.797-31.983 51.42l-4.059 21.955c-1.699 9.19 5.345 17.73 14.765 17.73 7.091 0 13.396-5.051 14.732-12.275l4.059-21.956c4.205-22.749 19.407-32.072 29.199-39.373 11.559 10.956 24.83 19.818 39.531 26.28-20.044 25.614-17.63 49.077-17.63 72.757 0 8.284 6.715 15 14.999 15s14.999-6.716 14.999-15c0-33.078-2.105-39.078 18.939-63.213 8.06 1.451 16.251 2.205 24.469 2.205 90.405 0 90.838.64 106.666-2.178 20.98 24.059 18.915 30.015 18.915 63.186 0 8.284 6.715 15 14.999 15s14.999-6.716 14.999-15c0-23.882 2.386-47.158-17.61-72.733 14.229-6.287 27.632-15.042 39.512-26.304 9.426 7.029 24.951 16.39 29.199 39.374l4.059 21.955c1.336 7.224 7.64 12.275 14.732 12.275 9.422 0 16.464-8.541 14.765-17.73l-4.059-21.954c-3.812-20.624-15.171-38.886-31.984-51.422l-7.289-5.435c9.271-13.741 15.608-28.913 18.364-45.992 15.829 2.323 30.022 11.77 38.17 25.815l15.656 26.99c2.782 4.798 7.815 7.476 12.987 7.476 11.461 0 18.78-12.497 12.96-22.529l-15.656-26.991c-13.366-23.04-37.11-38.188-63.311-40.888-1.351-12.47-4.776-24.625-10.045-35.931l36.414-38.387c20.309-21.408 20.31-54.954 0-76.376l-8.33-8.781c39.009-52.233 9.404-126.884-53.804-139.146-11.944-2.314-21.555 9.861-16.506 20.944 18.863 41.405-25.535 83.382-65.795 62.428-10.791-5.621-23.476 3.33-21.778 15.394 9.066 64.454 82.64 96.732 136.104 61.011l8.344 8.795c9.329 9.841 9.331 25.251.002 35.085l-31.362 33.061c-29.387-34.307-61.622-30.927-81.937-30.927v-15c0-8.284-6.715-15-14.999-15s-14.999 6.716-14.999 15v15h-72.594v-15c0-8.284-6.715-15-14.999-15s-14.999 6.716-14.999 15v15c-20.232 0-52.509-3.428-81.937 30.927l-31.363-33.062c-9.328-9.833-9.326-25.243 0-35.08l8.347-8.798c53.238 35.56 127.015 3.608 136.104-61.012 1.696-12.049-10.973-21.022-21.778-15.394-40.336 20.996-84.622-21.103-65.795-62.428 5.041-11.066-4.548-23.267-16.506-20.944-63.832 12.383-92.451 87.393-53.802 139.148l-8.333 8.784c-20.307 21.418-20.306 54.964.002 76.371l36.415 38.388c-5.269 11.306-8.694 23.46-10.045 35.931-26.201 2.701-49.946 17.849-63.312 40.889zm312.263-220.896c45.243 2.947 83.617-33.281 83.052-78.811 33.65 25.021 31.04 78.116-7.909 98.291-25.698 13.336-58.441 5.622-75.143-19.48zm-230.98-78.812c-.562 45.372 37.606 81.731 83.053 78.811-20.709 31.115-65.42 35.06-91.107 7.304-23.413-25.245-19.582-65.554 8.054-86.115zm112.594 365.85c-16.01-.498-32.065-4.596-46.659-12.17l38.346-40c10.798-11.271 25.952-17.736 41.576-17.736h22.319c15.624 0 30.778 6.465 41.579 17.74l38.363 40.017c-14.905 7.803-32.071 12.201-50.014 12.201-88.764.001-83.071.024-85.51-.052zm-38.961-169.863h166.767c52.509 0 91.939 83.586 32.374 140.085l-41.362-43.145c-16.426-17.147-39.475-26.982-63.236-26.982h-22.319c-23.761 0-46.81 9.835-63.233 26.978l-41.365 43.149c-60.73-57.601-18.525-140.085 32.374-140.085z"/></g></svg>