<svg id="Capa_1" enable-background="new 0 0 512 512" height="512" viewBox="0 0 512 512" width="512" xmlns="http://www.w3.org/2000/svg"><g><circle cx="127.598" cy="97.45" r="15"/><circle cx="384.402" cy="97.45" r="15"/><path d="m31.666 344.164 19.8 37.242c8.021 15.082 19.656 27.295 33.418 35.933l42.153 86.264c5.456 11.166 21.305 11.159 26.859.189l16.946-33.474c53.592 24.393 115.368 24.999 170.311-.01l16.95 33.484c5.562 10.984 21.409 10.965 26.859-.189l42.155-86.267c13.762-8.638 25.397-20.849 33.417-35.93l19.799-37.239c12.906-24.267 7.204-54.298-13.674-72.144l-37.293-31.896c7.977-54.216 6.948-52.103 9.733-54.031 27.646-19.08 44.15-50.495 44.15-84.038 0-89.934-108.286-135.383-172.647-73.691-1.604 1.536-3.352 2.879-5.225 4.033-29.914-19.733-68.82-19.748-98.755 0-6.654-4.1-29.903-32.396-75.812-32.396-56.275 0-102.06 45.78-102.06 102.052 0 33.543 16.505 64.959 44.134 84.027 2.829 1.958 1.791-.151 9.561 54.21l-37.101 31.726c-20.893 17.86-26.576 47.893-13.678 72.145zm109.085 119.173-15.647-32.02c14.72 1.598 24.882-.553 32.823-1.909zm43.66-19.822 10.324-20.395c64.51-11.02 56.346-11.304 122.529 0l10.325 20.395c-45.639 20.379-97.494 20.399-143.178 0zm186.838 19.822-17.176-33.929c7.924 1.353 18.092 3.508 32.823 1.909zm-312.499-361.28c0-39.73 32.326-72.052 72.06-72.052 31.151 0 47.581 18.418 53.582 23.305-4.246 5.644-7.878 11.837-10.752 18.521-3.272 7.611.244 16.433 7.855 19.706 7.61 3.272 16.432-.243 19.705-7.856 20.678-48.089 88.997-47.913 109.6 0 3.273 7.613 12.095 11.128 19.705 7.856 7.611-3.273 11.128-12.095 7.855-19.706-2.874-6.684-6.506-12.877-10.752-18.521 1.285-1.046 2.544-2.129 3.751-3.285 45.462-43.575 121.891-11.438 121.891 52.032 0 23.682-11.66 45.868-31.206 59.358-8.38 5.8-13.692 14.957-14.903 23.68l-5.19 35.276c-28.961-15.198-64.239-17.394-95.728-4.297-8.29 3.446-11.076 5.317-40.926 22.285-5.733 3.262-12.857 3.26-18.593 0-28.814-16.38-59.351-39.075-108.568-28.227-9.492 2.092-19.022 5.467-28.223 10.306l-5.044-35.283c-1.201-8.683-6.439-17.878-14.929-23.754-19.53-13.476-31.19-35.662-31.19-59.344zm6.089 192.764c48.886-41.807 50.891-44.762 65.604-50.93 23.386-9.803 50.386-8.464 72.814 4.279 30.882 17.557 32.01 18.696 39.566 20.8 12.664 3.525 26.139 1.817 37.3-4.529l28.615-16.268c28.629-16.261 66.257-14.696 94.563 9.142l43.862 37.509c10.294 8.799 13.042 23.297 6.683 35.254-.001.001-.001.002-.001.002l-19.8 37.24c-5.948 11.186-14.802 20.066-25.266 26.027-.367.188-.726.39-1.077.609-12.542 6.832-27.295 9.515-42.117 6.982-125.898-21.504-93.434-21.477-219.169 0-27.453 4.678-55.161-8.604-68.463-33.617l-19.801-37.243c-6.358-11.957-3.61-26.455 6.687-35.257z"/><path d="m135.935 305.368c15.092-11.402 31.746-9.825 43.329-.181 2.803 2.333 6.205 3.472 9.589 3.472 13.972 0 20.377-17.56 9.605-26.529-21.371-17.791-53.32-21.307-80.602-.704-6.611 4.993-7.924 14.4-2.932 21.01 4.995 6.613 14.401 7.926 21.011 2.932z"/><path d="m332.736 305.188c11.48-9.558 28.112-11.311 43.329.181 6.61 4.992 16.018 3.679 21.01-2.932s3.68-16.017-2.932-21.01c-27.013-20.392-58.965-17.308-80.602.704-6.366 5.301-7.23 14.759-1.931 21.126 5.306 6.373 14.766 7.226 21.126 1.931z"/><path d="m211.49 160.444 26.474-10.099c11.634-4.438 24.447-4.438 36.081.002l26.464 10.097c7.756 2.957 16.414-.942 19.361-8.668 2.953-7.74-.928-16.409-8.668-19.362l-26.463-10.097c-18.53-7.071-38.938-7.072-57.467-.002l-26.474 10.099c-7.74 2.952-11.622 11.62-8.669 19.361 2.953 7.74 11.621 11.623 19.361 8.669z"/><path d="m284.736 178.939c-18.528-7.07-38.937-7.07-57.467-.003-8.347 3.198-12.018 12.835-8.072 20.725 3.503 7.006 11.75 10.074 18.901 7.254 11.598-4.385 24.358-4.368 35.942.054 7.751 2.955 16.412-.936 19.362-8.667 2.954-7.74-.925-16.409-8.666-19.363z"/></g></svg>