<svg id="Capa_1" enable-background="new 0 0 512 512" height="512" viewBox="0 0 512 512" width="512" xmlns="http://www.w3.org/2000/svg"><g><path d="m503.523 132.057c-2.033-.982-50.254-23.859-90.734-6.995-9.812 4.097-18.991 10.511-27.156 18.883-4.178-4.735-8.72-9.2-13.589-13.412 2.089-6.379 4.358-14.406 6.21-23.604l39.729-14.133c.076-.027.151-.055.227-.083 20.131-7.529 37.234-21.854 48.158-40.337l17.58-29.74c4.216-7.131 1.852-16.33-5.28-20.545-7.13-4.217-16.33-1.852-20.545 5.28l-17.58 29.74c-7.429 12.568-19.05 22.317-32.735 27.463l-25.744 9.158c.606-22.823-3.151-44.395-11.258-64.369-3.116-7.677-11.865-11.373-19.54-8.258-7.676 3.116-11.373 11.864-8.258 19.54 8.855 21.817 11.278 46.282 7.203 72.715-.005.031-.009.062-.014.093-1.088 7.024-2.534 13.417-4.038 18.973-54.411-30.686-123.801-31.85-180.165.281-8.293-30.426-8.767-62.883 3.076-92.061 3.115-7.676-.582-16.424-8.258-19.54s-16.424.582-19.54 8.258c-8.107 19.975-11.865 41.546-11.259 64.369l-25.744-9.158c-13.685-5.146-25.306-14.895-32.735-27.464l-17.58-29.74c-4.216-7.132-13.415-9.496-20.545-5.28-7.132 4.215-9.496 13.414-5.28 20.545l17.579 29.739c10.924 18.483 28.027 32.809 48.158 40.338.076.028.151.056.227.083l39.729 14.133c1.895 9.409 4.226 17.593 6.354 24.041-4.806 4.201-9.288 8.655-13.423 13.374-8.27-8.575-17.583-15.127-27.555-19.287-40.467-16.858-88.689 6.018-90.722 7-6.549 3.164-9.885 10.57-7.914 17.572.593 2.105 14.988 51.754 55.922 68.808 11.147 4.651 23.401 6.356 35.525 6.202-11.724 94.098 69.558 155.269 74.258 183.835 3.09 18.807 5.442 45.421 19.049 67.349 15.433 24.866 41.453 36.177 70.724 36.177h.009c29.165 0 55.223-11.182 70.733-36.173 11.736-18.91 15.099-41.297 17.801-59.285 1.933-12.874.72-13.795 23.572-45.606 33.604-46.774 58.651-88.513 52.022-146.298 11.953.127 24.162-1.542 35.33-6.2 40.941-17.056 55.336-66.705 55.929-68.81 1.972-7.001-1.364-14.408-7.913-17.571zm-435.493 58.689c-17.157-7.147-27.912-24.496-33.585-36.566 13.593-4.312 35.419-8.846 53.211-1.433 9.048 3.774 16.211 10.428 21.487 16.898-4.204 7.922-7.472 16.236-10.272 24.64-11.769 1.079-22.689-.138-30.841-3.539zm195.887 184.718c-4.318 4.329-11.44 4.329-15.757 0-3.676-3.686-6.242-7.358-7.473-10.683 9.373-5.868 21.346-5.855 30.702 0-1.229 3.323-3.802 7.003-7.472 10.683zm79.874-22.031c-13.992 19.475-25.043 34.859-27.562 50.172 0 .001 0 .002-.001.003-.443 2.7-.87 5.539-1.312 8.477-5.308 35.339-11.944 61.691-43.878 68.314v-74.503c5.236-2.042 10.039-5.156 14.12-9.248 7.246-7.266 12.258-14.995 14.897-22.97 4.201-12.694-.804-26.658-12.17-33.958-19.546-12.555-44.853-12.49-64.395.457-10.645 7.052-15.487 20.436-11.774 32.547 3.814 12.443 15.104 27.628 29.322 33.173v74.498c-31.912-6.632-38.547-32.983-43.856-68.319-.441-2.936-.868-5.77-1.312-8.471-2.518-15.304-13.627-30.64-27.692-50.057-22.638-31.252-50.812-70.146-47.141-117.891 3.495-46.08 26.151-81.5 70.121-102.262 40.559-19.165 89.161-19.214 130.008-.134 43.164 20.181 66.749 54.468 69.884 102.239 3.124 47.803-24.812 86.689-47.259 117.933zm100.173-162.685c-7.971 3.325-18.61 4.563-30.098 3.6-2.67-8.52-6.26-17.16-10.608-25.186 5.203-6.28 12.234-12.719 21.079-16.412 17.795-7.414 39.622-2.881 53.215 1.43-5.676 12.08-16.433 29.422-33.588 36.568z"/><circle cx="179.066" cy="255.856" r="15"/><circle cx="332.934" cy="255.856" r="15"/></g></svg>