<svg id="Capa_1" enable-background="new 0 0 512 512" height="512" viewBox="0 0 512 512" width="512" xmlns="http://www.w3.org/2000/svg"><g><path d="m501.825 152.17c-29.715-45.387-71.469-103.476-101.63-122.458-43.709-27.505-83.761-14.916-101.852-6.35-17.856.784-32.64 9.201-55.423 4.899-22.084-4.189-23.575-4.651-29.256-4.901-18.092-8.566-58.141-21.151-101.85 6.352-30.161 18.982-71.914 77.07-101.629 122.458-10.068 15.379-12.83 34.307-7.576 51.929 8.788 29.471 37.049 48.856 78.364 44.711 25.315 16.187 57.262 20.699 87.194 8.348 2.91 17.721 2.865 17.479 3.146 19.061-6.67 11.661-18.179 19.811-31.591 22.117-8.164 1.404-13.645 9.161-12.241 17.325 1.256 7.305 7.597 12.46 14.766 12.46 4.478 0 24.565-3.695 41.45-19.625 3.974 5.768 9.183 11.251 16.071 15.66.035.554 2.638 41.464 2.698 42.016 1.597 14.405-2.614 20.54-5.92 23.9-19.183 19.5-51.591 5.182-51.591-21.915v-4.449c0-19.313-20.902-31.389-37.637-21.709l-12.118 7.009-12.779-7.261c-16.71-9.496-37.468 2.558-37.468 21.805v5.416c0 71.826 58.307 130.122 130.124 130.12.256 0 .514 0 .769-.002 70.77-.408 127.922-57.931 129.335-128.719.048-2.537.217-3.459 4.975-44.711 7.376-4.202 13.52-9.871 18.448-16.942 15.815 15.025 35.692 19.837 41.699 19.837 7.168 0 13.51-5.156 14.766-12.46 1.404-8.164-4.076-15.921-12.241-17.325-13.474-2.317-25.033-10.518-31.713-22.246.627-3.485.652-3.92 2.747-19.355 29.831 12.305 61.829 7.858 87.178-8.354 71.563 7.191 97.244-56.226 70.785-96.641zm-407.548 69.39c-3.293-2.743-7.459-3.823-11.691-3.182-49.848 7.538-60.695-29.319-47.302-49.776 39.119-59.75 72.837-101.119 92.509-113.5 13.692-8.616 26.75-11.872 38.346-12.211-4.404 4.755-3.633 4.058-31.573 45.731-10.783 16.075-16.483 34.812-16.483 54.187 0 51.505 34.126 76.455 40.801 85.665-35.145 15.785-63.365-5.936-64.607-6.914zm196.613 80.091c-5.245 1.988-8.943 6.736-9.586 12.308-5.929 51.404-6.031 51.428-6.119 55.811-1.76 88.15-107.885 132.575-170.664 70.156-18.338-18.233-28.752-42.239-29.522-67.892l7.835 4.452c7.711 4.38 17.27 4.343 24.946-.097l7.309-4.228c3.512 52.267 66.421 75.978 102.844 38.948 11.676-11.87 16.517-27.978 14.391-47.88l-3.148-49.328c-.361-5.664-3.89-10.639-9.114-12.854-17.637-7.477-18.927-28.277-22.204-48.233-.884-18.986-8.633-36.893-21.874-50.509-7.679-7.918-16.06-15.557-22.327-30.975-8.715-21.483-7.584-46.006 5.828-65.999l25.594-38.175c6.977-10.414 19.444-15.639 31.744-13.311 38.946 7.387 36.723 7.899 78.362.001 12.311-2.328 24.775 2.896 31.754 13.314l25.591 38.17c18.916 28.216 13.453 66.152-10.069 90.344-8.455 8.718-26.938 25.516-28.314 57.363-2.635 19.397-3.837 41.255-23.257 48.614zm138.533-83.273c-4.237-.64-8.323.379-11.616 3.122-1.308 1.033-29.536 22.758-64.681 6.974 7.3-10.067 40.801-34.086 40.801-85.665 0-36.466-17.467-55.654-42.069-92.348-1.814-2.708-3.822-5.23-5.988-7.569 11.596.339 24.654 3.594 38.346 12.21 19.673 12.381 53.391 53.75 92.51 113.5 13.418 20.496 2.422 57.295-47.303 49.776z"/><circle cx="195.066" cy="148.584" r="15"/><circle cx="314.484" cy="148.584" r="15"/></g></svg>