<svg id="Capa_1" enable-background="new 0 0 512 512" height="512" viewBox="0 0 512 512" width="512" xmlns="http://www.w3.org/2000/svg"><g><g><path d="m336.753 265.904c-6.838-76.153-66.235-135.874-138.265-135.874-45.854 0-88.405 24.414-114.273 64.9h-69.215c-8.284 0-15 6.716-15 15v19.22c0 36.867 29.993 66.86 66.859 66.86h97.991l-65.981 73.44c-8.656 9.636-1.796 25.025 11.158 25.025h73.466v102.525c0 8.284 6.716 15 15 15h47.715c8.284 0 15-6.716 15-15s-6.716-15-15-15h-32.715v-87.525h52.351v23.25c0 8.284 6.716 15 15 15s15-6.716 15-15v-38.25c0-8.284-6.716-15-15-15h-67.351v-68.465h120.742c34.683 0 62.9-28.217 62.9-62.9 0-16.765-6.858-33.119-18.817-44.868l-54.547-53.596c-7.311-7.184-10.816-17.141-9.616-27.32.664-5.637 2.722-10.869 5.912-15.317 10.462 23.22 34.339 39.491 62.067 39.491 8.824 0 17.591-1.693 25.694-4.916l84.349 28.592c10.671 3.619 21.339-5.405 19.642-16.478-.407-2.654-10.283-63.151-65.219-93.084-8.877-26.829-34.841-45.614-64.464-45.614-34.245 0-62.616 24.813-67.087 56.891l-.659.397c-16.788 10.106-27.733 27.064-30.027 46.524-2.294 19.461 4.406 38.499 18.384 52.232l54.547 53.597c6.255 6.145 9.842 14.699 9.842 23.468 0 17.294-13.415 31.503-30.383 32.795zm-153.26 98.571h-39.825l39.825-44.327zm-153.493-135.325v-4.22h39.397c-4.618 12.645-7.784 26.514-9.098 40.495-17.205-3.104-30.299-18.19-30.299-36.275zm60.409 36.86c2.147-19.443 9.206-38.862 15.396-48.766 20.007-35.826 54.655-57.214 92.683-57.214 55.602 0 101.608 46.354 108.135 105.98-9.534 0-206.875 0-216.214 0zm382.941-148.893-36.607-12.409c4.775-6.302 8.666-13.983 10.866-22.095 12.355 10.645 20.489 23.427 25.741 34.504zm-91.214-87.117c18.057 0 33.635 12.173 37.036 28.929 4.56 22.588-13.795 42.571-37.036 42.571-20.799 0-37.72-16.038-37.72-35.75s16.921-35.75 37.72-35.75z"/></g><circle cx="382.144" cy="65.75" r="15"/></g></svg>