<svg id="Capa_1" enable-background="new 0 0 512 512" height="512" viewBox="0 0 512 512" width="512" xmlns="http://www.w3.org/2000/svg"><g><path d="m507.002 328.645c-16.89-17.873-29.471-41.192-37.382-69.347-4.472-15.921-10.103-30.948-16.853-45.075 16.895-48.704 37.625-134.798 6.215-205.322-2.93-6.579-10.118-10.149-17.129-8.502-3.443.809-81.126 19.778-126.188 91.1-38.506-11.849-80.08-12.086-119.352-.017-45.064-71.308-122.735-90.274-126.178-91.083-7.011-1.644-14.2 1.923-17.129 8.502-31.391 70.481-10.706 156.511 6.184 205.231-6.954 14.508-12.547 29.614-16.921 45.165-8.024 28.558-20.842 52.151-38.1 70.122-5.331 5.55-5.753 14.651-.084 20.699.866.916-.676-.483 29.909 26.002l-16.81 20.294c-4.93 5.952-4.533 14.678.918 20.158.975.981 24.353 24.279 65.268 47.702 109.508 62.692 232.36 64.57 345.151 0 40.914-23.422 64.292-46.721 65.268-47.702 5.451-5.48 5.848-14.205.918-20.158l-16.81-20.294 27.833-24.102c7.815-5.599 8.422-16.959 1.272-23.373zm-70.602-295.104c16.331 48.83 6.674 106.271-4.101 145.411-23.706-33.919-55.686-60.666-88.061-76.273 28.679-41.784 71.349-61.548 92.162-69.138zm-360.797-.042c20.796 7.519 63.386 27.161 92.155 69.175-33.745 16.466-65.055 43.347-88.069 76.277-10.777-39.149-20.435-96.613-4.086-145.452zm-4.454 233.922c20.617-73.297 70.125-123.558 123.716-143.747 100.619-37.924 211.932 22.905 245.873 143.743 5.697 20.277 13.574 38.509 23.52 54.542-43.103-1.812-117.746 1.378-177.291 36.855-19.543-9.342-42.371-9.369-61.951-.003-59.591-35.503-134.301-38.669-177.388-36.847 9.948-16.034 17.825-34.267 23.521-54.543zm198.162 141.445c-7.315 7.338-19.322 7.335-26.635-.001-5.671-5.689-9.522-11.483-11.138-16.755-.357-1.167.22-2.608 1.342-3.353 13.85-9.181 31.853-9.241 45.727-.325 1.511.971 2.186 2.653 1.679 4.187-1.718 5.198-5.411 10.664-10.975 16.247zm-219.816-4.422 16.966-20.483c5.205-6.284 4.435-15.577-1.732-20.919l-12.829-11.109c38.187-1.279 100.855 1.77 151.276 28.99-5.931 17.7 5.227 36.061 18.257 49.131 5.551 5.569 12.224 9.617 19.513 11.962v39.66c-71.501-4.122-140.806-34.745-191.451-77.232zm221.451 77.249v-39.644c7.327-2.341 14.034-6.401 19.61-11.994 13.035-13.08 24.139-31.192 18.149-49.07 50.292-27.169 112.989-30.267 151.25-29.022l-12.795 11.08c-6.168 5.342-6.938 14.634-1.732 20.919l16.964 20.481c-25.082 21.009-95.079 71.748-191.446 77.25z"/><ellipse cx="352.584" cy="271.1" rx="14.997" ry="15.005"/><ellipse cx="159.404" cy="271.1" rx="14.997" ry="15.005"/></g></svg>