<svg id="Capa_1" enable-background="new 0 0 512 512" height="512" viewBox="0 0 512 512" width="512" xmlns="http://www.w3.org/2000/svg"><g><circle cx="115.737" cy="79.628" r="15"/><circle cx="396.27" cy="79.628" r="15"/><path d="m52.253 512h407.5c33.875 0 47.435-43.648 19.638-62.892-7.436-5.147-16.02-9.739-25.562-13.675 35.726-50.305 41.952-91.409 17.484-115.895-22.367-22.38-47.228-23.485-66.833-17.622.563-8.041.9-15.831.993-23.319 32.896-25.09 55.9-60.294 55.9-101.645 0-13.598-6.369-39.478 7.873-71.469 3.287-6.573 6.47-18.506 6.457-30.555-.038-40.471-32.979-74.077-73.434-74.913-21.03-.404-41.397 8.056-55.905 23.289-8.917 9.372-22.632 13.588-35.78 11.009-35.052-6.885-73.059-7.092-109.158-.001-13.152 2.582-26.875-1.646-35.811-11.024-14.471-15.197-34.803-23.699-55.803-23.273-52.611 1.023-89.092 56.097-67.016 105.533 14.195 31.787 7.827 57.722 7.827 71.403 0 41.294 22.997 76.52 55.817 101.59.216 6.28.598 14.273 1.267 23.382-24.09-7.427-47.518-1.893-67.015 17.615-24.466 24.485-18.245 65.583 17.485 115.893-9.532 3.931-18.122 8.525-25.562 13.676-27.852 19.283-14.168 62.893 19.638 62.893zm85.244-214.054c70.11 35.561 165.96 36.145 237.194-.102-4.379 67.081-26.438 142.812-41.928 164.849-.727.955-1.208 1.507-1.208 1.507-2.316 2.636-4.38 5.031-8.751 8.196v-49.767c0-36.834-29.966-66.8-66.8-66.8s-66.8 29.966-66.8 66.8v49.765c-7.233-5.298-12.671-12.299-15.984-19.954-20.348-47.005-32.001-101.627-35.723-154.494zm-37.487-67.474c29.432-6.232 57.121-14.992 82.561-26.131 46.667-20.438 100.198-20.437 146.864-.001 25.429 11.14 53.114 19.898 82.552 26.131-64.251 83.617-244.726 87.423-311.977.001zm119.194 251.527v-59.37c0-20.291 16.508-36.8 36.8-36.8s36.8 16.509 36.8 36.8v59.37zm230.889-141.255c18.919 18.934-12.063 65.343-22.006 79.109-10.761 14.886-4.547 35.872 12.48 42.577 8.298 3.281 15.615 7.098 21.749 11.344 3.679 2.548 1.92 8.227-2.562 8.227h-103.928c6.976-8.824 10.113-16.424 14.185-26.475 15.172-37.449 25.284-79.381 30.842-119.256 17.6-10.989 34.565-10.209 49.24 4.474zm-306.199-296.765c16.179 16.982 39.845 24.372 63.311 19.771 31.229-6.134 65.306-6.343 97.599 0 23.478 4.609 47.138-2.781 63.292-19.764 8.835-9.276 20.75-14.266 33.558-13.977 31.536.651 53.362 33.666 40.186 63.275-17.634 39.613-10.465 73.191-10.465 83.667 0 8.776-1.461 17.464-4.338 25.944-30.756-5.879-59.493-14.613-85.565-26.033-54.316-23.787-116.619-23.789-170.935 0-26.084 11.421-54.825 20.155-85.575 26.033-3.917-11.545-5.162-23.439-3.825-34.923 2.981-26.127-.805-51.942-10.947-74.657-2.593-5.807-3.901-11.996-3.886-18.405.073-40.066 49.524-60.401 77.59-30.931zm-94.203 429.795c6.134-4.246 13.451-8.062 21.727-11.336 17.098-6.731 23.236-27.737 12.506-42.579-9.946-13.772-40.929-60.181-22.011-79.114 14.861-14.869 31.931-15.336 49.361-4.401 4.763 35.122 12.993 70.659 24.743 103.475 8.43 23.538 12.959 33.015 20.231 42.182h-103.995c-4.472-.001-6.246-5.676-2.562-8.227z"/></g></svg>