<svg id="Capa_1" enable-background="new 0 0 512 512" height="512" viewBox="0 0 512 512" width="512" xmlns="http://www.w3.org/2000/svg"><g><circle cx="163.854" cy="238.172" r="15"/><circle cx="343.2" cy="238.172" r="15"/><circle cx="231" cy="418.244" r="15"/><circle cx="281" cy="418.244" r="15"/><path d="m497 75.633c-105.659 0-106.556-.987-124.049 3.301l10.137-44.66c1.704-7.505-2.549-15.081-9.843-17.537l-47.39-15.95c-7.298-2.456-15.265 1.01-18.445 8.019l-35.976 79.297h-30.868l-35.976-79.297c-3.18-7.009-11.149-10.476-18.444-8.019l-47.39 15.95c-7.294 2.455-11.546 10.031-9.843 17.536l10.137 44.663c-17.526-4.299-18.416-3.303-124.05-3.303-8.284 0-15 6.716-15 15 0 30.095 11.624 58.482 32.731 79.931 16.642 16.912 37.688 27.995 60.584 32.168-6.657 33.565-1.912 68.917 14.235 100.098.603 1.165-2.144-2.979 41.509 61.452 11.809 17.441 18.051 37.787 18.051 58.84 0 50.881 40.665 88.879 88.05 88.879 48.677 0 88.04-39.394 88.04-88.039 0-21.545 6.504-42.271 18.81-59.939 44.868-64.443 41.795-59.93 42.45-61.193 15.339-29.622 21.208-64.918 14.235-100.107 52.215-9.516 93.305-55.349 93.305-112.091 0-8.284-6.716-14.999-15-14.999zm-465.64 29.999h80.49c12.017 0 23.892 2.579 34.721 7.503-.08.525-.108.735-.555 1.37-19.06 15.708-34.451 36.183-43.925 59.247-35.651-5.117-64.287-32.968-70.731-68.12zm102.438 182.638c-4.318-8.483-7.65-17.463-9.902-26.69-7.809-32.14-2.397-65.969 14.999-93.989h28.545c24.019 0 43.56 19.541 43.56 43.56v40.915c0 35.57-13.225 69.133-37.328 95.057zm179.402 135.691c0 15.498-6.038 30.076-16.993 41.039-36.009 35.982-99.098 11.469-99.098-41.879 0-16.563-3.019-32.781-8.829-48.016 59.031-59.332 52.72-113.869 52.72-163.953 0-38.263-29.945-73.56-75.647-73.56 3.4-3.013 6.07-6.644 7.859-10.278 6.893-13.989 2.883-20.711-12.045-86.467l21.703-7.305 34.37 75.757c2.432 5.36 7.774 8.803 13.66 8.803h50.2c5.886 0 11.228-3.442 13.66-8.803l34.371-75.757 21.702 7.305c-13.815 60.864-14.621 64.397-14.621 64.397-2.826 12.468 1.774 25.034 10.656 32.348-45.642 0-75.867 34.987-75.867 73.56 0 48.49-6.206 104.726 51.723 162.952-6.275 15.747-9.524 32.597-9.524 49.857zm65.054-135.773-40.558 58.252c-23.703-25.828-36.696-59.114-36.696-94.373v-40.915c0-24.019 19.541-43.56 43.56-43.56h28.528c23.381 37.622 24.071 83.375 5.166 120.596zm31.643-114.441c-9.12-21.911-21.545-38.457-35.649-51.949-8.021-7.673-8.486-6.792-8.801-8.679 10.822-4.913 22.69-7.487 34.703-7.487h80.49c-6.447 35.154-35.086 63.011-70.743 68.115z"/></g></svg>