<svg id="Capa_1" enable-background="new 0 0 512 512" height="512" viewBox="0 0 512 512" width="512" xmlns="http://www.w3.org/2000/svg"><g><path d="m403.117 65.256c-38.826-39.82-89.3-65.256-146.058-65.256-56.673 0-107.474 25.395-146.604 65.819-38.471-14.565-77.945.974-96.686 33.518-21.154 36.733-9.017 82.708 25.513 104.77-31.361 136.096-1.607 253.355 133.425 295.092 55.185 17.066 113.524 17.068 168.713 0 134.271-41.508 165.447-158.379 133.132-296.326 15.326-10.444 26.521-26.039 31.421-44.23.001-.001.001-.002.001-.004 5.424-20.153 2.673-41.214-7.744-59.304-18.446-32.029-56.929-47.619-95.113-34.079zm-313.957 25.771c-18.449 25.083-31.831 52.998-41.242 81.849-33.337-32.323-5.8-89.415 41.242-81.849zm243.399 379.515c-2.673 0-67.676 25.765-150.989 0-88.745-27.43-129.994-92.929-122.6-194.67 6.842-93.544 40.272-182.137 122.378-226.674 23.704-12.872 49.707-19.309 75.711-19.309 88.407 0 185.755 76.148 198.09 245.976 7.401 101.744-33.844 167.243-122.59 194.677zm133.11-299.312c-9.378-28.318-22.81-55.927-40.892-80.459 44.85-5.569 71.382 47.904 40.892 80.459z"/><path d="m275.876 132.297c-17.831 5.161-21.918 5.161-39.758-.001-60.208-17.398-133.99 15.033-129.182 84.729 2.24 32.417 23.463 57.152 37.029 79.944 15.483 26.016 18.595 54.519 19.596 78.967 1.803 44.204 27.03 65.105 47.875 74.855 28.04 13.115 59.882 13.679 89.127 0 20.846-9.75 46.072-30.651 47.875-74.852 1.002-24.451 4.113-52.954 19.596-78.969 13.549-22.764 34.79-47.524 37.03-79.946 4.539-65.805-61.37-101.679-129.188-84.727zm-62.794 284.617c6.001-3.201 11.909-6.792 17.679-10.765 15.787-10.872 36.708-11.023 52.056-.377 5.535 3.839 11.201 7.327 16.956 10.458-24.416 19.74-63.281 18.791-86.691.684zm162.052-201.956c-1.617 23.431-19.205 43.697-32.881 66.672-27.501 46.209-20.951 90.247-26.181 109.292-5.474-2.87-10.877-6.133-16.155-9.795-25.541-17.715-60.17-17.586-86.172.318-5.724 3.941-11.587 7.415-17.53 10.423-5.774-19.709 1.295-63.586-26.47-110.238-13.674-22.971-31.262-43.24-32.881-66.67-2.617-37.934 30.61-57.196 66.574-57.196 33.427 0 36.228 16.242 80.773 3.349 37.647-10.882 94.336 4.385 90.923 53.845z"/><circle cx="189.496" cy="222.203" r="14.999"/><circle cx="322.503" cy="222.203" r="14.999"/><path d="m228.096 298.408c-5.298-6.368-14.756-7.236-21.125-1.94-6.369 5.297-7.237 14.753-1.94 21.122l14.601 17.551c2.967 3.566 7.237 5.408 11.541 5.408 12.618 0 19.668-14.799 11.524-24.59z"/><path d="m305.027 296.469c-6.368-5.296-15.825-4.429-21.124 1.94l-14.601 17.551c-8.143 9.788-1.097 24.59 11.524 24.59 4.302 0 8.573-1.842 11.54-5.408l14.601-17.551c5.298-6.369 4.429-15.826-1.94-21.122z"/></g></svg>