<svg id="Capa_1" enable-background="new 0 0 512 512" height="512" viewBox="0 0 512 512" width="512" xmlns="http://www.w3.org/2000/svg"><g><circle cx="173.984" cy="329.13" r="15"/><circle cx="338.016" cy="329.13" r="15"/><path d="m480.928 207.033 15.876-24.214c4.792-7.309 2.341-17.165-5.326-21.374l-41.909-23.004 2.369-42.858c.456-8.268-5.872-15.342-14.14-15.804l-53.015-2.965-13.385-41.584c-2.544-7.906-11.041-12.243-18.936-9.663l-53 17.311-32.462-34.745c-5.928-6.346-15.999-6.339-21.92 0l-32.463 34.743-53-17.311c-7.896-2.579-16.392 1.757-18.936 9.663l-13.385 41.584-53.015 2.965c-8.268.462-14.596 7.537-14.14 15.804l2.369 42.858-41.909 23.004c-7.661 4.206-10.122 14.059-5.326 21.374l15.848 24.172c-19.305 14.605-31.123 37.655-31.123 62.463 0 41.641 32.701 75.779 73.771 78.104 21.568 78.255 71.292 144.241 152.186 158.333 89.857 15.767 178.82-36.599 212.271-158.331 41.07-2.325 73.772-36.463 73.772-78.104 0-24.78-11.79-47.805-31.072-62.421zm-395.7-46.84c5.061-2.778 8.078-8.213 7.76-13.977l-2.063-37.323 48.333-2.703c6.196-.347 11.539-4.473 13.44-10.381l11.925-37.049 47.77 15.603c5.546 1.81 11.636.244 15.617-4.018l28.03-30 28.03 30c3.981 4.262 10.074 5.829 15.617 4.018l47.77-15.603 11.925 37.049c1.901 5.908 7.244 10.034 13.44 10.381l48.333 2.703-2.063 37.323c-.318 5.764 2.699 11.199 7.76 13.977l35.968 19.743-9.066 13.829c-15.078-3.961-31.968-3.45-47.775 2.548-57.629-47.703-122.005-28.605-149.981 11.849-28.321-40.955-92.805-59.17-149.914-11.835-15.131-5.758-31.964-6.709-47.758-2.562l-9.066-13.829zm-55.228 109.259c0-28.269 24.428-51.053 53.411-47.94-18.486 28.173-21.449 61.672-16.454 94.848-21.176-5.093-36.957-24.192-36.957-46.908zm236.228 118.686c-5.569 5.582-14.729 5.581-20.297-.001-4.694-4.707-7.867-9.449-9.174-13.713-.075-.244-.014-.417.199-.559 11.258-7.551 26.199-7.825 37.81-.289.433.281.651.816.51 1.246-1.376 4.155-4.505 8.759-9.048 13.316zm4.772 89.564v-57.934c6.132-2.178 11.746-5.709 16.469-10.445h.001c51.909-52.049-21.281-91.186-67.225-60.372-29.378 19.704-5.009 61.498 20.755 70.76v57.991c-73.441-7.569-118.138-66.369-137.966-136.854-16.845-60.108-10.216-110.37 46.696-136.581 37.996-17.512 84.063 3.995 90.923 43.823.55 3.157.331 5.509 2.158 8.928 7.214 13.477 27.351 8.931 28.225-6.151 3.7-38.853 50.618-65.543 91.502-46.484 56.91 26.504 63.141 76.637 46.433 136.454-19.755 70.287-64.379 129.28-137.971 136.865zm174.039-161.34c5.044-33.52 1.913-66.851-16.446-94.844 28.787-3.137 53.407 19.511 53.407 47.936 0 22.716-15.784 41.816-36.961 46.908z"/><path d="m185.957 151.543c8.284 0 15-6.716 15-15v-20.173c0-8.284-6.716-15-15-15s-15 6.716-15 15v20.173c0 8.284 6.716 15 15 15z"/><path d="m326.115 151.543c8.284 0 15-6.716 15-15v-20.173c0-8.284-6.716-15-15-15s-15 6.716-15 15v20.173c0 8.284 6.716 15 15 15z"/><path d="m256.04 139.544c8.284 0 15-6.716 15-15v-20.17c0-8.284-6.716-15-15-15s-15 6.716-15 15v20.17c0 8.284 6.716 15 15 15z"/></g></svg>