<svg id="Capa_1" enable-background="new 0 0 512 512" height="512" viewBox="0 0 512 512" width="512" xmlns="http://www.w3.org/2000/svg"><g><path d="m381.994 304.521h-16.238c-4.955 0-8.986-4.031-8.986-8.986 0-8.284-6.716-15-15-15s-15 6.716-15 15c0 21.497 17.489 38.986 38.986 38.986h16.238c8.284 0 15-6.716 15-15s-6.716-15-15-15z"/><path d="m439.291 255.27-6.97-90.86c-.73-12.31-3.29-24.24-7.63-35.62l43.3-27.97c29.35-18.95 33.68-60.1 9.02-84.76-24.69-24.69-65.85-20.31-84.79 9.01l-25.32 39.21c-8.15-4.16-16.76-7.4-25.76-9.64-54.419-13.541-113.261-14.189-170.281 0-9 2.24-17.61 5.48-25.76 9.64l-25.32-39.21c-18.94-29.32-60.1-33.7-84.79-9.01-24.66 24.66-20.33 65.81 9.02 84.76l43.3 27.97c-4.34 11.38-6.9 23.31-7.63 35.62l-6.97 90.86c-30.5 18.07-40.24 54.55-41.08 89.84-1.16 48.54 18.36 73.65 36.32 86.43l20.68 38.24c14.07 26.04 41.2 42.22 70.8 42.22h193.141c29.6 0 56.73-16.18 70.8-42.22l20.68-38.24c17.96-12.78 37.48-37.89 36.32-86.43-.84-35.29-10.58-71.77-41.08-89.84zm-21.87-213.931c8.52-13.19 27.14-15.3 38.37-4.07 5.33 5.33 7.93 12.67 7.13 20.16-1.32 12.41-10.21 17.19-11.21 18.19l-41.15 26.58c-5.29-7.5-11.78-14.8-18.85-21.03zm-239.321 42.41c50.958-12.68 104.839-12.681 155.801 0 34.92 8.69 65.04 38.18 68.49 82.82l5.9 76.82c-12.1-4.98-20.91-12-41.66-17.96-48.36-13.95-88.77 9.88-100.38 12.83-6.691 1.699-13.205 1.852-20.5 0-11.61-2.95-52.02-26.78-100.38-12.83-20.75 5.96-29.56 12.98-41.66 17.96l5.9-76.82c3.448-44.64 33.569-74.13 68.489-82.82zm-117.811-8.13c-1-1-9.89-5.78-11.21-18.19-.8-7.49 1.8-14.83 7.13-20.16 11.23-11.23 29.85-9.12 38.37 4.07l25.71 39.83c-7.07 6.23-13.56 13.53-18.85 21.03zm336.692 379.901c-8.83 16.33-25.84 26.48-44.41 26.48-8.49 0-184.674 0-193.141 0-18.57 0-35.58-10.15-44.41-26.48l-4.53-8.38c30.17 2.75 70.62-1.88 102.61-15.59 25.387-10.878 60.407-10.88 85.8 0 31.99 13.71 72.44 18.34 102.61 15.59zm-2.44-38.05c-.45.03-46.27 3.38-85.83-14.37-29.059-13.04-76.359-13.04-105.42 0-39.56 17.75-85.38 14.4-85.83 14.37-40.95-3.23-56.8-31.16-55.83-71.65 1.51-64.04 32.64-67.62 42.12-70.59 37.05-11.62 55.82-41 124.511-11.34 17.257 7.445 38.223 7.446 55.48 0 68.69-29.66 87.46-.28 124.51 11.34 9.48 2.97 40.61 6.55 42.12 70.59.969 40.49-14.881 68.42-55.831 71.65z"/><ellipse cx="356.994" cy="161.618" rx="15" ry="15" transform="matrix(.071 -.998 .998 .071 170.378 506.205)"/><path d="m170.231 280.536c-8.284 0-15 6.716-15 15 0 4.955-4.031 8.986-8.986 8.986h-16.238c-8.284 0-15 6.716-15 15s6.716 15 15 15h16.238c21.497 0 38.986-17.489 38.986-38.986 0-8.285-6.716-15-15-15z"/><ellipse cx="155.006" cy="161.618" rx="15" ry="15" transform="matrix(.999 -.056 .056 .999 -8.726 8.847)"/></g></svg>