<svg id="Capa_1" enable-background="new 0 0 512 512" height="512" viewBox="0 0 512 512" width="512" xmlns="http://www.w3.org/2000/svg"><g><ellipse cx="166.379" cy="252.7" rx="15" ry="14.995"/><ellipse cx="345.621" cy="252.7" rx="15" ry="14.995"/><path d="m480.05 13.53c-.914-6.72-6.227-11.991-12.957-12.853-27.091-3.488-80.615 5.374-115.943 53.481-1.537-.815-3.093-1.611-4.669-2.386.516-6.604.776-13.314.77-20.058-.006-5.984-3.57-11.392-9.069-13.758-51.12-21.998-109.283-22.048-160.225-1.316-7.079 2.879-10.86 10.619-8.78 17.97 1.348 4.765 2.622 9.483 3.823 14.128-4.086 1.797-8.057 3.719-11.903 5.759-22.185-30.392-49.959-43.617-70.431-49.347-25.044-7.009-44.927-4.58-45.759-4.473-6.73.862-12.043 6.132-12.957 12.853-8.171 60.098 3.664 118.249 49.468 156.719-7.918 54.594 3.886 137.897 42.245 205.105 7.226 12.689 12.247 25.968 15.134 39.184 12.759 58.293 52.458 97.462 117.203 97.462 63.319 0 104.182-37.928 117.191-97.453 2.92-13.303 7.981-26.61 15.137-39.178 37.952-66.495 50.211-149.543 42.268-205.133 45.811-38.486 57.62-96.646 49.454-156.706zm-28.331 16.709c4.356 52.248-10.783 85.386-29.251 106.151-9.027-25.74-24.103-48.027-46.193-65.763 24.977-33.073 58.136-39.479 75.444-40.388zm-134.683 11.611c-1.954 44.85-17.097 82.668-41.901 111.907-2.874-28.104-14.704-57.428-17.599-61.81-6.622-10.09-21.96-8.567-26.456 2.687-2.371 5.934-8.577 13.34-15.801 20.451-1.831-24.558-7.351-51.317-13.568-75.15 38.822-12.286 77.384-11.686 115.325 1.915zm-256.758-11.565c17.35.971 50.741 7.478 75.674 40.647-22.022 17.643-37.073 39.784-46.325 65.568-18.505-20.751-33.698-53.909-29.349-106.215zm195.722 451.725c-59.281 0-80.519-40.177-87.895-73.875-1.261-5.773-2.997-11.954-4.702-17.06l27.921-20.916c38.08-28.528 91.271-28.528 129.352 0l27.92 20.916c-1.689 5.052-3.421 11.186-4.71 17.057-7.366 33.703-28.594 73.878-87.886 73.878zm104.968-119.143c-24.971-18.707-53.062-44.235-104.968-44.235-51.768 0-79.836 25.407-104.969 44.235-45.44-82.701-77.06-232.883 28.806-284.27 3.986 20.224 7.69 46.557 5.358 67.135-1.459 12.862 13.055 21.414 23.604 13.903 10.607-7.546 22.656-17.887 31.716-27.477 4.602 16.813 7.764 37.569 2.94 53.599-3.75 12.46 9.247 23.611 21.04 17.737 12.613-6.267 61.411-46.767 77.384-120.189 5.046 2.938 2.724 2.057 5.531 3.886 40.104 26.147 55.389 67.52 55.389 114.991.001 59.582-14.698 111.318-41.831 160.685z"/><path d="m219.468 392.251c-7.118-4.236-16.325-1.901-20.562 5.218-4.237 7.118-1.901 16.324 5.218 20.561.082.048 8.208 5.296 9.062 14.96.729 8.244 8 14.349 16.263 13.621 8.252-.729 14.351-8.01 13.622-16.262-2.181-24.674-21.417-36.797-23.603-38.098z"/><path d="m292.532 392.251c7.118-4.236 16.325-1.901 20.562 5.218 4.237 7.118 1.901 16.324-5.218 20.561-.082.048-8.208 5.296-9.062 14.96-.729 8.244-8 14.349-16.263 13.621-8.252-.729-14.351-8.01-13.622-16.262 2.181-24.674 21.417-36.797 23.603-38.098z"/></g></svg>