<svg id="Capa_1" enable-background="new 0 0 512 512" height="512" viewBox="0 0 512 512" width="512" xmlns="http://www.w3.org/2000/svg"><g><circle cx="178.96" cy="274.22" r="15"/><circle cx="163.96" cy="362.265" r="15"/><circle cx="133.96" cy="310.515" r="15"/><circle cx="333.04" cy="274.22" r="15"/><ellipse cx="348.04" cy="362.265" rx="15" ry="15" transform="matrix(.987 -.16 .16 .987 -53.534 60.428)"/><circle cx="378.04" cy="310.515" r="15"/><path d="m497 295.515h-50.133c-1.06-25.803-7.378-51.116-18.37-74.268 27.124-10.877 29.878-10.905 33.202-17.045l16.182-29.892c3.943-7.285 1.235-16.388-6.05-20.332-7.285-3.942-16.388-1.235-20.332 6.051l-13.603 25.127-24.537 9.84c-15.532-22.57-35.626-41.374-58.588-55.253 1.306-17.504-1.927-34.454-9.227-49.82 11.535-6.295 25.728-17.329 33.667-35.773 3.276-7.609-.237-16.434-7.846-19.709-7.607-3.274-16.432.237-19.708 7.846-5.225 12.138-15.674 19.074-23.071 22.652-39.28-42.302-105.903-42.289-145.171 0-7.397-3.578-17.845-10.514-23.071-22.652-3.275-7.609-12.102-11.122-19.708-7.846-7.609 3.275-11.122 12.1-7.846 19.709 7.94 18.443 22.132 29.477 33.667 35.773-7.282 15.329-10.537 32.275-9.227 49.82-22.849 13.811-43.04 32.66-58.587 55.253l-24.538-9.84-13.603-25.127c-3.943-7.285-13.048-9.995-20.332-6.051-7.285 3.944-9.994 13.047-6.05 20.332l16.182 29.892c3.338 6.166 6.156 6.199 33.203 17.045-10.993 23.154-17.311 48.466-18.371 74.268h-50.134c-8.284 0-15 6.716-15 15s6.716 15 15 15h51.28c3.002 25.525 11.112 49.878 23.489 71.756l-31.86 12.776c-3.25 1.303-5.941 3.702-7.608 6.781l-16.181 29.892c-5.432 10.036 1.919 22.144 13.178 22.144 5.329 0 10.489-2.847 13.204-7.862l13.603-25.127 32.864-13.179c18.508 23.134 42.452 42.098 70.465 54.755 8.181 3.692 17.764-.579 20.476-9.141l5.766-18.205c34.03 9.735 70.543 9.756 104.648 0l5.766 18.205c2.717 8.577 12.318 12.826 20.476 9.141 28.013-12.657 51.958-31.622 70.465-54.755l32.864 13.179 13.603 25.127c3.944 7.286 13.047 9.994 20.332 6.051 7.285-3.944 9.994-13.047 6.05-20.332l-16.182-29.892c-1.667-3.079-4.358-5.479-7.608-6.781l-31.859-12.776c12.378-21.878 20.487-46.231 23.49-71.756h51.279c8.284 0 15-6.716 15-15s-6.716-15.001-15-15.001zm-344.315-115.719c59.564-49.953 146.804-50.168 206.629 0-58.415 53.961-148.348 53.836-206.629 0zm103.315-116.576c35.623 0 65.034 27.108 68.691 61.778-42.331-16.276-91.496-17.656-137.382 0 3.657-34.67 33.068-61.778 68.691-61.778zm-81.32 379.079c-84.42-49.49-106.678-163.808-43.11-241.193 28.698 26.817 65.339 43.665 104.302 48.007zm38.057-20.801 43.263-136.583 43.263 136.583c-28.146 7.887-58.38 7.887-86.526 0zm124.583 20.801-61.192-193.186c38.963-4.342 75.604-21.19 104.301-48.007 63.335 77.107 41.643 191.509-43.109 241.193z"/></g></svg>