<svg id="Capa_1" enable-background="new 0 0 512 512" height="512" viewBox="0 0 512 512" width="512" xmlns="http://www.w3.org/2000/svg"><g><path d="m418.722 8.533c-3.382-7.074-11.643-10.345-18.951-7.517-2.038.79-47.953 19.013-74.121 64.836-7.03 1.406-13.775 3.975-19.945 7.584-25.626-31.243-73.784-31.243-99.411 0-6.17-3.609-12.915-6.177-19.945-7.584-26.168-45.823-72.083-64.046-74.121-64.836-7.308-2.833-15.568.444-18.95 7.517-31.409 65.681-16.75 109.287-5.688 128.95-14.935 31.018-2.885 68.932 28.38 85.017v73.107c-17.618 17.212-27.736 40.756-27.455 66.338.539 49.092 40.765 89.167 90.132 90.34 6.382 34.194 37.091 59.715 72.323 59.715h10.06c36.478 0 65.75-26.247 72.232-59.696 81.08-1.004 120.675-100.079 62.768-156.691v-73.113c31.316-16.111 43.292-54.048 28.38-85.018 11.063-19.663 25.721-63.269-5.688-128.949zm-20.956 27.027c14.001 36.09 10.813 61.481 5.275 76.869-1.048-.727-2.118-1.428-3.215-2.095-5.939-19.785-20.927-35.189-39.865-41.963 12.322-15.986 27.336-26.657 37.805-32.811zm-283.511-.055c10.463 6.113 25.461 16.753 37.813 32.855-18.952 6.769-33.953 22.179-39.895 41.973-1.096.667-2.166 1.368-3.214 2.095-5.541-15.396-8.729-40.804 5.296-76.923zm217.845 386.806c-15.426 0-25.981 10.276-28.076 23.089-2.77 16.942-15.554 31.363-33.024 35.446v-71.51c9.5-4.063 17.229-11.881 20.952-21.912 2.882-7.767-1.078-16.399-8.844-19.281-7.767-2.885-16.399 1.077-19.282 8.844-2.672 7.201-12.963 7.248-15.652 0-2.882-7.767-11.515-11.728-19.282-8.844-7.767 2.882-11.727 11.515-8.844 19.281 3.723 10.031 11.452 17.848 20.952 21.912v71.54c-18.648-4.283-30.723-20.209-33.073-35.333-2.092-13.462-13.47-23.232-27.054-23.232-55.347 0-83.03-66.158-44.387-104.803 3.803-3.802 9.484-6.921 9.484-15.247v-72.571c8.907-.054 18.159-2.075 26.462-5.886 21.81 23.378 57.294 27.188 83.568 9.129 26.245 18.039 61.733 14.276 83.568-9.129 8.36 3.835 17.617 5.832 26.462 5.886v72.571c0 4.448 1.975 8.668 5.391 11.517 43.767 36.518 18.161 108.533-39.321 108.533zm36.915-222.716c-21.405 1.591-23.108-12.991-36.267-10.412-4.329.851-8.065 3.564-10.213 7.421-11.451 20.566-39.64 23.794-55.452 6.459-5.946-6.519-16.221-6.518-22.165 0-15.854 17.382-44.03 14.055-55.452-6.459-2.146-3.854-5.882-6.569-10.213-7.421-12.645-2.478-14.091 10.508-33.672 10.508-37.347 0-47.294-50.604-14.195-65.642 4.508-2.048 7.716-6.189 8.57-11.067 4.933-28.151 40.11-38.136 59.248-17.137 7.415 8.139 20.819 5.762 24.978-4.44 11.613-28.486 52.021-28.499 63.64 0 4.156 10.195 17.557 12.585 24.978 4.44 19.141-21.002 54.312-11.031 59.248 17.137.854 4.878 4.062 9.019 8.57 11.067 12.25 5.565 20.165 17.845 20.165 31.283-.003 18.342-14.077 32.945-31.768 34.263z"/><circle cx="194.696" cy="292.147" r="15"/><circle cx="317.304" cy="292.147" r="15"/></g></svg>