<svg id="Capa_1" enable-background="new 0 0 512 512" height="512" viewBox="0 0 512 512" width="512" xmlns="http://www.w3.org/2000/svg"><g><path d="m24.868 182.504c-12.666 32.371-30.06 94.875-5.497 152.242 2.789 6.513 9.753 10.188 16.704 8.81l17.108-3.39c2.362 27.175 13.203 76.555 59.181 104.134 4.186 2.51 9.33 2.827 13.79.851l17.716-7.848c22.526 35.133 67.603 59.165 106.907 73.758 3.366 1.25 7.073 1.251 10.441 0 39.283-14.585 84.376-38.616 106.907-73.758l17.716 7.848c4.462 1.976 9.606 1.659 13.79-.851 45.978-27.579 56.818-76.96 59.181-104.134l17.108 3.39c6.951 1.378 13.916-2.296 16.704-8.81 24.563-57.367 7.169-119.871-5.497-152.242h9.868c9.32 0 16.382-8.423 14.775-17.591-8.542-48.736-55.841-84.656-84.807-102.457l.136-.09c8.278-5.436 9.102-17.276 1.667-23.809-44.731-39.3-91.566-41.619-122.979-36.641-22.35 3.54-40.104 11.172-49.789 16.077-9.685-4.906-27.439-12.537-49.789-16.077-31.413-4.978-78.247-2.658-122.98 36.643-7.221 6.345-6.906 18.154 1.804 23.899-28.967 17.8-76.266 53.721-84.807 102.457-.765 4.365.439 8.845 3.289 12.238 5.464 6.504 12.056 5.351 21.353 5.351zm95.527-105.358c10.628-4.971 11.666-19.699 1.877-26.127l-3.235-2.125c24.615-16.048 51.916-21.935 81.409-17.513 27.772 4.166 47.345 16.294 47.499 16.39 4.914 3.127 11.193 3.127 16.107 0 .694-.441 64.848-40.245 128.871 1.147l-3.198 2.1c-9.808 6.44-8.73 21.166 1.877 26.127 19.52 9.131 67.334 38.321 84.885 75.357h-12.499c-11.297 0-18.566 12.099-13.215 22.097.408.763 38.279 72.765 18.421 137.038l-21.96-4.351c-9.672-1.915-18.514 5.868-17.885 15.675.041.63 3.349 60.539-38.857 91.436l-23.199-10.277c-9.409-4.168-18.422 1.361-20.462 9.447-.933 2.495-15.456 38.063-90.832 67.385-75.376-29.322-89.899-64.89-90.832-67.385-2.041-8.088-11.057-13.615-20.462-9.447l-23.194 10.275c-41.903-30.747-38.897-90.839-38.862-91.434.631-9.823-8.227-17.584-17.885-15.675l-21.96 4.351c-19.858-64.274 18.013-136.275 18.411-137.021 5.38-9.989-1.878-22.114-13.206-22.114h-12.589c20.848-44.76 84.266-75.023 84.975-75.356z"/><circle cx="201.565" cy="230.987" r="15"/><circle cx="310.432" cy="230.987" r="15"/><path d="m116.517 177.872 11.622 8.843c-6.017 22.521-4.676 46.77 4.034 72.257 9.939 29.082 26.823 52.15 33.031 62.511.75 1.251 1.146 2.661 1.146 4.099 0 49.441 40.216 89.664 89.649 89.664s89.649-40.223 89.649-89.684c0-1.581.602-3.354 1.149-4.085 6.425-10.729 23.114-33.409 33.081-62.668 8.663-25.43 9.987-49.624 3.983-72.096 12.628-9.609 26.202-17.643 29.069-38.806 3.658-26.988-17.21-51.386-44.912-51.386-17.404 0-26.202 8.331-38.793 17.923-22.798-11.173-49.48-11.296-73.219-3.464-12.713-4.208-43.168-11.357-73.236 3.463-11.932-9.091-20.985-17.922-38.791-17.922-42.989-.001-62.072 54.982-27.462 81.351zm266.685-33.995c-.989 7.297-5.683 9.963-11.048 14.045-5.163-9.587-11.102-17.898-17.795-24.912l4.402-3.353c10.965-8.331 26.245.902 24.441 14.22zm-133.317-3.207c3.891 1.736 8.336 1.737 12.227 0 33.91-15.152 73.059.326 90.13 45.692 15.353 38.385-4.679 78.365-26.221 111.833-5.11 7.938-10.373 15.087-10.373 27.386 0 27.718-18.996 51.079-44.65 57.75v-45.793c5.87-2.147 11.255-5.56 15.81-10.11 5.862-5.854 5.868-15.352.014-21.214-5.855-5.862-15.351-5.867-21.213-.014-5.32 5.315-13.901 5.316-19.223 0-5.862-5.854-15.359-5.847-21.213.014-5.854 5.862-5.848 15.36.014 21.214 4.556 4.55 9.941 7.963 15.81 10.11v45.793c-25.654-6.671-44.65-30.035-44.65-57.769 0-6.849-1.872-13.593-5.412-19.499-13.345-22.276-50.397-72.025-31.188-119.685-.001.002-.002.003-.002.005 5.82-15.48 15.952-32.105 30.115-41.484 27.306-18.083 59.77-4.34 60.025-4.229zm-96.666-11.026 4.443 3.385c-6.99 7.322-13.146 16.202-17.816 24.896-5.182-3.943-10.05-6.657-11.052-14.048-1.809-13.358 13.509-22.525 24.425-14.233z"/></g></svg>