<svg id="Capa_1" enable-background="new 0 0 512 512" height="512" viewBox="0 0 512 512" width="512" xmlns="http://www.w3.org/2000/svg"><g><path d="m506.815 220.637c-14.634-27.507-35.607-50.979-62.431-69.976 6.858-11.697 10.534-25.05 10.534-38.888 0-42.459-34.548-77.003-77.014-77.003-38.494 0-70.481 28.394-76.12 65.337-19.898-2.421-41.018-3.66-63.043-3.66-61.681 0-109.177 17.516-141.169 52.061-34.616 37.378-41.153 84.746-42.108 108.25-31.672 6.913-55.464 35.162-55.464 68.876v11.273c0 38.879 31.631 70.509 70.51 70.509h94.146c22.338 0 40.511 18.173 40.511 40.511v14.303c0 8.284 6.716 14.999 14.999 14.999 8.284 0 14.999-6.716 14.999-14.999v-14.303c0-38.879-31.631-70.51-70.51-70.51h-94.145c-22.338 0-40.511-18.173-40.511-40.511v-11.273c0-17.722 11.443-32.811 27.325-38.296 7.801 33.083 37.551 57.788 72.981 57.788h142.075c.026 0 .051-.004.077-.004h15.303c8.284 0 14.999-6.716 14.999-14.999s-6.716-14.999-14.999-14.999h-15.378c-9.973 0-18.086-8.113-18.086-18.086v-11.909h68.463v11.909c0 26.514 21.571 48.085 48.086 48.085h25.378c8.284 0 14.999-6.716 14.999-14.999s-6.716-14.999-14.999-14.999h-25.378c-9.973 0-18.087-8.113-18.087-18.086v-11.909h115.236c33.117 0 54.353-35.251 38.821-64.492zm-38.822 34.493c-7.974 0-203.289 0-213.698 0v-11.881c0-.066-.009-.13-.01-.196-.107-42.63-34.813-77.28-77.462-77.28-8.284 0-14.999 6.716-14.999 14.999 0 8.284 6.716 14.999 14.999 14.999 26.174 0 47.468 21.298 47.468 47.478 0 .033.005.064.005.097v53.69c0 6.397 1.266 12.502 3.544 18.09h-97.536c-24.127 0-43.874-19.089-44.946-42.956.666-4.82-4.464-61.535 34.249-103.309 26.084-28.146 66.166-42.418 119.134-42.418 22.716 0 44.347 1.382 64.492 4.087 3.37 13.416 10.325 25.801 20.222 35.699 5.856 5.857 15.355 5.858 21.212 0 5.858-5.858 5.858-15.354 0-21.212-7.804-7.804-12.626-18.123-13.583-29.108-2.464-27.342 19.218-51.143 46.819-51.143 25.924 0 47.015 21.086 47.015 47.004 0 12.092-4.585 23.585-12.909 32.363-6.567 6.925-5.068 18.16 3.09 23.134 28.807 17.549 50.754 40.245 65.226 67.449 4.912 9.245-1.833 20.414-12.332 20.414z"/><ellipse cx="406.538" cy="210.127" rx="14.999" ry="14.999" transform="matrix(.383 -.924 .924 .383 56.831 505.307)"/></g></svg>