<svg id="Capa_1" enable-background="new 0 0 512 512" height="512" viewBox="0 0 512 512" width="512" xmlns="http://www.w3.org/2000/svg"><g><path d="m86.565 326.956c-9.404 26.113-27.306 90.058-5.4 152.872 6.706 19.243 24.832 32.172 45.104 32.172h259.471c20.174 0 38.202-12.65 44.861-31.477 22.289-63.029 4.286-127.35-5.156-153.564 76.263-54.594 74.838-167.6-1.334-220.652 19.663-21.279 34.341-43.077 43.719-64.99.001-.001.001-.002.002-.003 9.445-22.086-10.112-45.681-33.609-40.622-1.394.301 1.605-.714-45.317 16.105-15.852 5.686-32.447 8.569-49.325 8.569h-167.142c-16.878 0-33.474-2.883-49.328-8.57-46.789-16.77-43.919-15.802-45.314-16.103-23.522-5.064-43.044 18.56-33.609 40.621 9.365 21.901 24.043 43.701 43.716 64.994-76.407 53.229-77.405 166.164-1.339 220.648zm111.154 37.106c33.985 26.246 82.441 26.36 116.57.009 16.826 30.846 27.165 73.094 28.681 117.93h-173.931c1.516-44.84 11.855-87.092 28.68-117.939zm-88.226 105.891c-17.495-50.167-4.506-103.239 3.751-128.161 18.122 7.392 36.972 10.947 56.871 10.203-18.603 35.066-29.614 80.788-31.1 130.006h-12.746c-7.522 0-14.263-4.841-16.776-12.048zm292.825.568c-2.43 6.866-9.092 11.48-16.578 11.48h-12.746c-1.486-49.219-12.5-94.942-31.105-130.007 20.171.758 39.886-3.078 56.91-10.212 8.318 24.957 21.393 78.193 3.519 128.739zm49.682-253.421c0 66.437-61.354 116.597-126.9 102.713-5.703-1.212-11.626.686-15.771 6.614-25.657 36.694-81.97 36.245-106.785-.21 0 0 0 .001.001.002-3.397-5.141-9.595-7.68-15.625-6.405-65.874 13.953-126.9-36.489-126.9-102.713 0-36.843 18.788-70.19 49.659-89.26 7.883 7.158 16.466 14.331 24.77 20.806-26.15 11.728-44.419 37.989-44.419 68.454 0 65.959 79.596 99.825 127.1 53.872 5.381 16.824 13.819 31.743 21.762 41.25 5.562 6.959 9.454 11.883 17.115 11.885 6.733 0 11.591-3.35 22.074-18.535 7.864-11.389 13.203-23.31 16.816-34.611 47.576 46.043 127.113 11.964 127.113-53.861 0-30.473-18.28-56.741-44.441-68.464 8.206-6.399 16.761-13.529 24.763-20.798 30.875 19.063 49.668 52.412 49.668 89.261zm-180.01-5.026c0 9.8 2.697 42.058-15.979 72.433-18.393-29.909-15.958-61.501-16.001-72.436.14.036 14.543 4.567 31.98.003zm-104.793-39.921c10.672 7.084 23.819 15.206 36.894 22.592 16.975 29.527-4.278 67.353-39.062 67.353-24.813 0-45-20.186-45-44.998 0-25.54 21.384-46.167 47.168-44.947zm140.769 22.565c12.163-6.868 25.129-14.794 36.847-22.564 25.782-1.238 47.197 19.384 47.197 44.946 0 24.813-20.187 44.998-45 44.998-35.094 0-55.896-38.098-39.044-67.38zm31.614-139.352c36.76 0 57.526-9.64 100.288-24.967-26.872 61.65-100.317 113.773-159.921 145.479-9.334 4.965-20.712 12.251-36.477 5.776-6.254-2.569-133.828-65.198-171.318-151.255 86.479 30.997 50.978 24.967 267.428 24.967z"/><circle cx="165.029" cy="217.1" r="15"/><circle cx="347.009" cy="217.1" r="15"/></g></svg>