<svg id="Capa_1" enable-background="new 0 0 512 512" height="512" viewBox="0 0 512 512" width="512" xmlns="http://www.w3.org/2000/svg"><g><path d="m21.109 270.578c-16.042 69.03-7.951 124.771 24.048 165.673 38.148 48.763 109.012 74.248 210.621 75.748.074.001.148.001.222.001s.147 0 .222-.001c101.609-1.5 172.473-26.985 210.621-75.748 31.999-40.902 40.09-96.642 24.049-165.67-9.961-42.906-24.79-80.723-44.281-113.077l27.511-30.244c14.918-16.388 21.932-38.405 19.243-60.405-5.339-43.67-46.709-74.046-90.286-65.374-23.94 4.758-43.63 20.141-54.022 42.208l-7.647 16.251c-55.056-24.342-117.5-23.577-170.812.013l-7.656-16.269c-20.084-42.643-72.831-56.37-111.068-30.842-38.661 25.834-45.28 80.052-13.999 114.415l27.523 30.256c-20.745 34.471-35.036 73.2-44.289 113.065zm246.561 153.993c-6.38 6.398-16.867 6.397-23.247 0-5.146-5.16-8.634-10.388-10.085-15.12-.195-.639.164-1.479.817-1.912 12.516-8.291 28.79-8.35 41.33-.294.823.528 1.49 1.555 1.126 2.656-1.524 4.605-4.962 9.678-9.941 14.67zm108.529-368.104c12.117-25.728 44.019-34.196 67.259-18.683 23.414 15.647 27.419 48.478 8.475 69.286l-22.579 24.822c-17.291-22.969-37.008-42.496-61.427-57.844zm85.471 220.901c32.702 140.725-48.117 198.376-190.67 204.204v-24.66c17.258-5.833 30.493-23.692 35.092-37.586 4.615-13.945-.893-29.292-13.393-37.321-22.495-14.448-51.624-14.373-74.113.526-11.686 7.742-17.003 22.428-12.93 35.713 4.508 14.708 18.177 32.794 35.344 38.637v24.691c-142.565-5.828-223.37-63.486-190.669-204.208 9.124-39.307 22.711-74.211 40.385-103.746 35.982-60.13 77.653-78.628 79.882-80.3 95.808-51.389 244.074-18.375 291.072 184.05zm-393.133-239.58c23.301-15.556 55.167-7.006 67.262 18.675l8.279 17.595c-24.089 15.125-44.251 35.018-61.432 57.834l-22.583-24.826c-18.957-20.823-14.912-53.651 8.474-69.278z"/><path d="m119.574 220.954-29.113 47.554c-9.463 15.457-12.098 34.334-7.229 51.791 4.869 17.458 16.895 32.247 32.993 40.575 8.288 4.287 19.361 10.988 37.244 10.987 26.745 0 50.073-16.163 60.151-39.64l21.996-51.237c13.479-31.403.262-68.302-30.091-84.003-30.355-15.704-68.107-5.172-85.951 23.973zm88.476 48.196-21.995 51.237c-8.146 18.97-30.606 27.002-48.926 17.524h-.001c-7.604-3.933-20.325-8.915-24.999-25.671-2.678-9.6-1.286-19.568 3.918-28.068l29.113-47.554c9.672-15.796 30.134-21.501 46.581-12.993 16.45 8.509 23.613 28.506 16.309 45.525z"/><ellipse cx="173.602" cy="258.687" rx="15" ry="15" transform="matrix(.032 -1 1 .032 -90.538 423.875)"/><path d="m298.379 332.22c10.068 23.453 33.379 39.64 60.151 39.64 17.787 0 28.768-6.603 37.245-10.987 33.736-17.453 45.597-59.969 25.764-92.366l-29.113-47.554c-17.843-29.145-55.596-39.677-85.952-23.974-30.353 15.702-43.57 52.601-30.09 84.004zm21.88-108.596c16.454-8.512 36.915-2.796 46.581 12.993l29.113 47.554c5.204 8.5 6.596 18.468 3.918 28.068-4.629 16.597-17.086 21.578-24.999 25.671h-.001c-18.338 9.487-40.788 1.428-48.926-17.524l-21.994-51.236c-7.306-17.019-.143-37.016 16.308-45.526z"/><ellipse cx="338.398" cy="258.687" rx="15" ry="15" transform="matrix(.998 -.06 .06 .998 -14.978 20.868)"/></g></svg>