<svg id="Capa_1" enable-background="new 0 0 512 512" height="512" viewBox="0 0 512 512" width="512" xmlns="http://www.w3.org/2000/svg"><g><path d="m446.357 184.943c-33.472-144.093-131.29-199.94-222.796-181.553-87.855 16.802-137.857 95.156-157.917 181.549-17.996 77.397.577 142.604 73.253 174.841l-8.467 40.289c-9.355 44.501 16.767 88.829 60.343 102.171 41.95 12.847 87.425 13.178 130.451.001 43.599-13.341 69.712-57.611 60.347-102.17l-8.467-40.291c72.668-32.234 91.25-97.438 73.253-174.837zm-133.919 288.631c-36.15 11.07-75.497 11.446-112.876 0-28.885-8.844-45.983-37.794-39.771-67.342 27.847-132.514 24.61-117.198 25.188-119.677 45.518 18.477 96.524 18.478 142.044 0 .575 2.467-2.662-12.846 25.189 119.679 6.103 29.034-10.454 58.368-39.774 67.34zm-112.813-213.456 42.49-48.763c7.358-8.448 20.423-8.434 27.771.002l42.488 48.761c-36.002 13.77-76.709 13.784-112.749 0zm167.15 69.533c-17.173-81.693-6.931-60.709-74.262-137.982-19.294-22.151-53.748-22.133-73.023-.002-67.732 77.73-57.25 57.045-74.265 137.984-49.685-24.681-66.159-69.98-50.358-137.93 17.134-73.791 60.278-146.638 135.313-159.076 99.249-17.048 163.736 59.129 186.955 159.08 15.8 67.948-.675 113.246-50.36 137.926z"/><ellipse cx="163.669" cy="178.314" rx="15" ry="14.991"/><ellipse cx="209.955" cy="422.088" rx="15" ry="14.991"/><ellipse cx="302.045" cy="422.088" rx="15" ry="14.991"/><ellipse cx="348.331" cy="178.314" rx="15" ry="14.991"/></g></svg>