<svg id="Capa_1" enable-background="new 0 0 512 512" height="512" viewBox="0 0 512 512" width="512" xmlns="http://www.w3.org/2000/svg"><g><path d="m255.778 511.999c.074.001.148.001.222.001s.148 0 .222-.001c71.029-1.05 120.747-19.099 147.773-53.646 22.819-29.169 28.652-68.652 17.336-117.349-7.63-32.866-19.462-61.62-35.224-85.673 8.009-27.801 17.402-70.518 19.495-94.374 3.441-39.135.767-76.671-7.53-105.694-9.632-33.697-26.473-53.268-47.422-55.107-32.143-2.807-50.063 33.397-55.951 45.292-15.345 30.97-24.533 69.039-26.569 110.059-.035.684-.64 12.405-1.187 25.809-7.289-.537-14.595-.536-21.885.001-.547-13.402-1.151-25.117-1.186-25.778-2.038-41.053-11.226-79.122-26.568-110.087-5.891-11.9-23.816-48.123-55.955-45.296-20.947 1.839-37.788 21.409-47.42 55.106-8.297 29.023-10.971 66.559-7.53 105.691 2.094 23.864 11.49 66.593 19.5 94.394-15.761 24.047-27.607 52.814-35.229 85.653-11.316 48.7-5.484 88.183 17.336 117.352 27.025 34.547 76.744 52.596 147.772 53.647zm42.313-354.972c1.835-36.973 9.958-70.951 23.492-98.266 12.812-25.882 22.072-29.103 26.444-28.721 5.939.521 14.798 11.072 21.2 33.468 7.312 25.58 9.617 59.255 6.49 94.824-1.438 16.391-6.968 43.944-12.872 67.781-18.187-18.79-40.999-32.463-66.088-39.55.574-14.804 1.295-28.768 1.334-29.536zm-155.319-93.519c2.934-10.264 11.553-33.495 21.852-33.495 4.608 0 13.587 4.091 25.795 28.753 13.532 27.31 21.654 61.288 23.491 98.293.039.743.759 14.701 1.333 29.504-25.007 7.056-47.844 20.699-66.088 39.55-5.904-23.837-11.434-51.391-12.872-67.783-3.128-35.568-.823-69.243 6.489-94.822zm-22.88 284.279c17.151-73.903 61.584-136.88 136.112-136.88 74.951 0 119.096 63.621 136.105 136.884 9.162 39.427 5.211 70.407-11.742 92.078-21.135 27.016-62.979 41.19-124.367 42.131-61.387-.94-103.231-15.115-124.367-42.131-16.953-21.672-20.904-52.651-11.741-92.082z"/><circle cx="182.958" cy="309.19" r="15"/><circle cx="329.042" cy="309.19" r="15"/><path d="m190.633 424.092c6.018 16.694 21.988 27.911 39.739 27.911 9.564 0 18.607-3.26 25.859-8.874 7.252 5.614 16.295 8.874 25.859 8.874 17.751 0 33.721-11.216 39.739-27.911 2.81-7.793-1.23-16.388-9.024-19.197-7.796-2.81-16.389 1.23-19.198 9.024-1.744 4.836-6.372 8.085-11.518 8.085-4.773 0-9.096-2.799-11.09-7.063v-23.904c5.264-2.042 10.091-5.165 14.191-9.276 7.246-7.264 12.258-14.993 14.898-22.97 4.2-12.692-.805-26.656-12.171-33.956-9.505-6.105-20.518-9.332-31.848-9.332-11.626 0-22.881 3.385-32.548 9.79-10.645 7.052-15.486 20.436-11.773 32.545 2.549 8.317 7.664 16.366 15.201 23.923 4.063 4.074 8.841 7.178 14.05 9.221v24.846c-2.151 3.76-6.195 6.175-10.628 6.175-5.145 0-9.773-3.249-11.517-8.085-2.809-7.793-11.403-11.833-19.198-9.024-7.792 2.81-11.832 11.404-9.023 19.198zm65.438-78.591c5.456 0 10.754 1.518 15.352 4.395-1.231 3.322-3.803 7.001-7.473 10.681-4.318 4.33-11.439 4.33-15.757 0-3.675-3.684-6.241-7.357-7.473-10.681 4.596-2.878 9.887-4.395 15.351-4.395z"/></g></svg>