<svg id="Capa_1" enable-background="new 0 0 512 512" height="512" viewBox="0 0 512 512" width="512" xmlns="http://www.w3.org/2000/svg"><g><path d="m487.382 117.12c13.926-56.535-18.343-108.025-19.723-110.19-5.216-8.176-16.713-9.321-23.44-2.35-.334.346-33.195 33.847-98.039 55.636-41.201-21.905-123.906-28.147-180.358 0-64.335-21.638-97.73-55.317-98.041-55.635-6.718-6.962-18.219-5.835-23.44 2.35-1.38 2.164-33.648 53.654-19.723 110.189 7.743 31.437 27.952 57.782 60.107 78.441-14.449 94.751-5.702 112.236-17.488 172.338-15.813 80.643 64.816 101.104 82.777 109.48 17.843 8.328 38.762 34.621 105.986 34.621 67.214 0 88.154-26.298 105.985-34.622 17.191-8.017 98.648-28.54 82.777-109.48-11.764-59.992-3.064-77.752-17.488-172.338 32.156-20.658 52.365-47.004 60.108-78.44zm-425.646-78.161c14.415 11.281 38.824 27.687 73.165 41.747-20.147 17.657-37.515 43.679-44.727 82.017-41.616-32.303-48.206-76.561-28.438-123.764zm287.564 411.233c-22.577 10.536-35.291 31.808-93.3 31.808s-70.721-21.271-93.3-31.807c-24.27-11.327-76.576-22.704-66.023-76.521 13.651-69.616 1.485-83.241 22.64-203.561 6.812-38.746 26.465-65.651 54.904-80.48 46.929-24.47 112.721-19.705 144.535-8.45 41.246 14.591 66.119 44.512 73.929 88.93 21.142 120.251 8.998 133.99 22.64 203.561 10.497 53.546-40.924 64.805-66.025 76.52zm72.525-287.469c-7.212-38.338-24.581-64.36-44.727-82.018 34.379-14.075 58.806-30.503 73.214-41.785 19.984 47.426 12.765 91.784-28.487 123.803z"/><path d="m270.286 135.65c-4.442-13.878-24.141-13.847-28.572 0l-55.542 173.549c-4.423 13.826.117 28.923 11.297 37.564 37.974 29.366 82.447 26.751 117.063 0 11.18-8.642 15.72-23.738 11.296-37.566zm25.898 187.378c-23.614 18.248-53.406 20.856-80.367-.001-.991-.766-1.683-2.775-1.071-4.685l41.254-128.908 41.254 128.907c.612 1.91-.079 3.92-1.07 4.687z"/><path d="m207.873 388.92c-8.284 0-15 6.716-15 15s6.716 15 15 15c4.955 0 8.986 4.031 8.986 8.985 0 8.284 6.716 15 15 15s15-6.716 15-15c0-21.496-17.489-38.985-38.986-38.985z"/><path d="m304.127 388.92c-21.497 0-38.986 17.489-38.986 38.986 0 8.284 6.716 15 15 15s15-6.716 15-15c0-4.955 4.031-8.985 8.986-8.985 8.284 0 15-6.716 15-15s-6.716-15.001-15-15.001z"/><circle cx="154.639" cy="267.721" r="15"/><circle cx="357.361" cy="267.721" r="15"/></g></svg>