<svg id="Capa_1" enable-background="new 0 0 512 512" height="512" viewBox="0 0 512 512" width="512" xmlns="http://www.w3.org/2000/svg"><g><path d="m183.522 74.08c-45.635 0-88.538 17.77-120.805 50.037-81.823 81.822-60.61 220.898 44.112 273.482-18.161 58.082 27.193 117.452 88.617 114.278 12.155-.627 18.55-14.769 10.972-24.309-28.292-35.618 4.641-87.095 48.777-76.469 11.829 2.843 21.975-8.888 17.424-20.187-18.751-46.555-72.56-67.938-118.1-47.284-10.133-36.798 17.616-72.729 55.367-72.729h22.358c14.428 15.873 11.308 36.634 11.043 38.22-2.031 10 6.543 19.348 17.231 17.552 2.273-.382 52.913-9.431 74.745-56.642 91.903-8.958 164.049-86.644 164.049-180.95 0-8.284-6.716-15-15-15h-135.301c-27.473-61.626-93.239-73.376-96.167-73.868-10.289-1.727-19.176 7.34-17.221 17.6.065.34 5.843 32.532-17.22 56.268h-34.881zm46.636 306.93c-44.736 8.094-73.086 52.573-61.581 96.529-38.848-16.237-50.564-69.723-12.209-100.407 21.643-15.989 52.802-15.28 73.79 3.878zm42.775-89.762c-.838-6.238-2.489-13.231-5.518-20.348h32.207c-8.141 10.049-18.218 16.416-26.689 20.348zm144.89-88.322c-15.116 13.09-19.6 16.067-33.303 22.353-20.227 9.994-42.982 15.622-67.03 15.622h-107.603c-61.67 0-104.506 62.543-81.002 120.384-3.06 3.035-6.185 6.692-8.398 9.645-86.337-43.021-104.184-157.974-36.557-225.6 26.601-26.601 61.971-41.25 99.592-41.25h285.056c-3.863 39.23-22.499 74.377-50.755 98.846zm-151.861-167.563c19.68 7.878 37.335 20.675 49.01 38.717h-59.822c7.231-13.758 9.984-27.61 10.812-38.717z"/><circle cx="399.435" cy="149.079" r="15"/><path d="m272.051 157.703c5.858-5.858 5.858-15.355 0-21.213-5.857-5.858-15.355-5.858-21.213 0l-4.498 4.497c-17.681 17.681-17.681 46.45.001 64.133l3.47 3.469c5.858 5.857 15.356 5.857 21.213-.001s5.857-15.356-.001-21.213l-3.469-3.468c-5.984-5.985-5.984-15.722 0-21.707z"/><path d="m212.051 157.703c5.858-5.858 5.858-15.355 0-21.213-5.857-5.858-15.355-5.858-21.213 0l-4.498 4.497c-17.681 17.681-17.681 46.45.001 64.133l3.47 3.469c5.858 5.857 15.356 5.857 21.213-.001s5.857-15.356-.001-21.213l-3.469-3.468c-5.984-5.985-5.984-15.722 0-21.707z"/></g></svg>