<svg id="Capa_1" enable-background="new 0 0 512 512" height="512" viewBox="0 0 512 512" width="512" xmlns="http://www.w3.org/2000/svg"><g><path d="m442.482 143.43c-31.925-22.42-68.901-26.16-105.149-9.03-1.803.85-39.406 21.24-71.401-7.02-5.653-4.983-14.196-4.996-19.862 0-31.995 28.26-69.598 7.87-71.401 7.02-36.248-17.13-73.224-13.39-105.149 9.03-19.594 13.78-19.633 43.01.01 56.84 17.88 12.55 38.639 20.09 60.962 19.8.857 55.68 19.653 96.79 30.969 116.57 4.602 8.05 7.909 16.58 9.822 25.36 9.782 44.63 40.661 70.23 84.719 70.23s74.937-25.6 84.719-70.23c1.912-8.78 5.22-17.31 9.822-25.36 11.316-19.78 30.112-60.89 30.969-116.57 22.323.29 43.082-7.25 60.962-19.8 19.641-13.83 19.601-43.06.008-56.84zm-309.89 46.55c-19.414.92-35.322-6.89-45.811-14.25-2.66-1.88-2.65-5.9-.01-7.75 17.512-12.3 36.717-17.37 57.416-12.71-5.748 10.88-9.503 22.73-11.595 34.71zm191.9 131.77c-6.116 10.71-10.519 22.1-13.079 33.85-5.568 25.4-19.135 40.52-40.412 45.11v-26.06c5.857-2.15 11.246-5.55 15.798-10.09 5.867-5.85 5.887-15.34.03-21.21-5.847-5.87-15.34-5.89-21.207-.04-5.302 5.303-13.927 5.318-19.245 0-5.867-5.85-15.36-5.83-21.207.04-5.857 5.87-5.837 15.36.03 21.21 4.552 4.54 9.941 7.94 15.798 10.09v26.06c-21.277-4.59-34.844-19.71-40.412-45.11-2.56-11.75-6.963-23.14-13.079-33.85-23.857-41.7-39.247-114.71-14.962-155.65 27.981 10.04 58.073 8.48 83.454-8.56 25.381 17.04 55.473 18.6 83.454 8.56 24.286 40.94 8.896 113.95-14.961 155.65zm100.727-146.02c-10.489 7.36-26.397 15.17-45.811 14.25-2.092-11.98-5.847-23.83-11.595-34.71 20.699-4.66 39.904.41 57.416 12.71 2.64 1.85 2.65 5.87-.01 7.75z"/><path d="m39.744 336.305c-16.157 54.299 24.098 109.2 80.64 110.567 4.007 15.977 12.555 30.532 24.832 41.974 16.021 14.931 36.919 23.154 58.846 23.154 18.781 0 37.07-6.216 51.94-17.385 14.87 11.169 33.158 17.385 51.94 17.385 40.227 0 74.254-27.55 83.678-65.127 56.622-1.37 96.771-56.357 80.64-110.567 20.888-16.179 33.433-41.245 33.433-68.071 0-16.029-4.497-31.667-12.845-45.182 40.826-50.544 12.907-126.596-50.921-138.71-11.388-35.035-44.292-59.454-82.054-59.454-12.606 0-24.864 2.703-36.119 7.901-16.203-20.526-41.01-32.79-67.752-32.79s-51.549 12.264-67.752 32.789c-11.255-5.198-23.514-7.901-36.119-7.901-37.762 0-70.667 24.419-82.054 59.454-40.086 7.607-70.077 42.835-70.077 84.612 0 19.778 6.862 38.878 19.155 54.098-23.194 37.552-14.164 86.335 20.589 113.253zm43.192-223.386c6.884-.402 12.608-5.447 13.871-12.226 4.947-26.542 28.215-45.807 55.324-45.807 11.623 0 22.79 3.52 32.294 10.178 7.364 5.161 17.604 2.716 21.841-5.225 9.821-18.405 28.879-29.839 49.736-29.839s39.915 11.434 49.736 29.84c4.234 7.935 14.469 10.389 21.841 5.225 33.232-23.281 80.112-4.643 87.618 35.629 1.264 6.779 6.987 11.823 13.871 12.226 49.695 2.903 71.33 64.475 34.309 97.747-6.074 5.459-6.664 14.776-1.327 20.958 23.274 26.961 15.831 68.394-15.335 85.693-6.912 3.836-9.66 12.379-6.281 19.526 3.557 7.525 5.36 15.571 5.36 23.915 0 33.857-30.132 60.561-64.615 55.528-8.615-1.26-16.49 5.072-17.126 13.746-3.537 48.26-63.52 69.934-97.132 34.25-5.924-6.287-15.921-6.28-21.838 0-33.613 35.685-93.595 14.003-97.132-34.25-.638-8.7-8.539-15.006-17.126-13.746-44.879 6.55-78.204-39.351-59.254-79.443 3.379-7.147.631-15.689-6.281-19.526-17.874-9.921-28.979-28.729-28.979-49.083 0-13.417 4.846-26.418 13.644-36.61 5.337-6.182 4.747-15.499-1.327-20.958-37.023-33.274-15.384-94.845 34.308-97.748z"/><path d="m203.452 267.054c8.284 0 15-6.716 15-15s-6.716-15-15-15-15 6.716-15 15 6.715 15 15 15z"/><path d="m308.553 267.054c8.284 0 15-6.716 15-15s-6.716-15-15-15-15 6.716-15 15 6.715 15 15 15z"/></g></svg>