<svg id="Capa_1" enable-background="new 0 0 512 512" height="512" viewBox="0 0 512 512" width="512" xmlns="http://www.w3.org/2000/svg"><g><path d="m319.04 404.688c-5.86-5.86-15.36-5.87-21.22-.01-7.55 7.54-16.77 12.78-26.82 15.4v-39.961c25.77-9.27 50.13-51.061 20.75-70.761-11.02-7.4-23.66-10.75-35.75-10.85-12.09.1-24.73 3.45-35.75 10.85-29.38 19.7-5.02 61.491 20.75 70.761v39.961c-10.05-2.62-19.27-7.86-26.82-15.4-5.86-5.86-15.36-5.85-21.22.01-5.85 5.86-5.85 15.36.02 21.21 17.43 17.41 40.23 26.12 63.02 26.12s45.59-8.71 63.02-26.12c5.87-5.85 5.87-15.35.02-21.21zm-73.11-56.151c-4.69-4.7-7.87-9.44-9.17-13.71-.29-.93 8.12-6.25 19.24-6.34 11.12.09 19.53 5.41 19.24 6.34-1.3 4.27-4.48 9.01-9.17 13.71-5.541 5.561-14.577 5.583-20.14 0z"/><circle cx="375.21" cy="247.324" r="15"/><path d="m428.17 71.303c-48.71-48.711-110.81-71.521-172.17-71.301-61.36-.22-123.46 22.59-172.17 71.301-60.63 60.641-77.73 133.962-70.36 218.713 10.81 124.322 115.09 221.984 242.53 221.984s231.72-97.662 242.53-221.984c7.37-84.751-9.73-158.072-70.36-218.713zm-172.17-41.251c64.7-.1 129.45 28.95 172.38 87.431-63.94-20.78-126.22-7.18-172.38 29.54-46.16-36.721-108.44-50.321-172.38-29.54 42.93-58.48 107.68-87.531 172.38-87.431zm-213.48 238.884c-.04-27.34-.16-33.351.9-45.101 89.81-19.59 85.41-19.02 91.84-19.02 23.94 0 43.07 19.52 43.07 43.151 0 16-8.78 30.601-22.91 38.101l-100.73 53.49c-7.93-22.41-12.12-46.141-12.17-70.621zm213.48 213.064c-82.16 0-153.61-46.661-189.29-114.862l102.78-54.571c23.95-12.71 38.84-37.471 38.84-64.601 0-46.201-42.57-81.511-88.73-71.461l-70.85 15.46c2.66-10.78 6.15-21.3 10.45-31.491 112.6-60.111 184.8 16.55 188.55 19.02 5.011 3.306 11.492 3.304 16.5 0 3.75-2.47 75.95-79.131 188.55-19.02 4.3 10.19 7.79 20.71 10.45 31.491l-70.85-15.46c-46.16-10.05-88.73 25.26-88.73 71.461 0 27.13 14.89 51.891 38.84 64.601l102.78 54.571c-35.68 68.201-107.13 114.862-189.29 114.862zm213.48-213.064c-.05 24.48-4.24 48.211-12.17 70.621l-100.73-53.491c-14.13-7.5-22.91-22.1-22.91-38.101 0-23.63 19.13-43.151 43.07-43.151 6.43 0 2.03-.57 91.84 19.02 1.06 11.751.94 17.762.9 45.102z"/><circle cx="136.79" cy="247.324" r="15"/><path d="m256 181.995c.15-.01.16-.02 0-.02s-.15.01 0 .02z"/></g></svg>