<svg id="Capa_1" enable-background="new 0 0 512 512" height="512" viewBox="0 0 512 512" width="512" xmlns="http://www.w3.org/2000/svg"><g><path d="m112.567 228.058c-3.728-1.131-7.749-.77-11.215 1.01l-74.591 38.319c-4.847 2.49-7.962 7.413-8.138 12.859l-1.533 47.58c-.267 8.28 6.229 15.209 14.509 15.475 8.389.249 15.211-6.315 15.475-14.509l1.249-38.756 61.334-31.509 68.118 20.696c-2.455 5.793-4.235 11.843-5.338 18.065h-38.112c-4.374 0-8.529 1.909-11.379 5.227l-60.894 70.895c-2.337 2.72-3.622 6.187-3.622 9.773v68.56c0 8.284 6.716 15 15 15s15-6.716 15-15v-63.003l52.784-61.451h31.25c.942 5.258 2.362 10.348 4.227 15.225l-39.503 39.168c-2.84 2.816-4.438 6.651-4.438 10.651v64.692c0 3.283 1.078 6.477 3.067 9.089l30.446 39.972c2.951 3.875 7.421 5.912 11.944 5.912 12.255 0 19.491-14.151 11.921-24.09l-27.378-35.945v-53.38l30.004-29.75c5.319 5.943 11.463 11.126 18.246 15.386v32.868c0 8.284 6.716 15 15 15s15-6.716 15-15v-21.264c10.067 1.803 19.916 1.806 30 0v21.264c0 8.284 6.716 15 15 15s15-6.716 15-15v-32.868c6.784-4.259 12.928-9.443 18.246-15.386l30.004 29.75v53.38l-27.378 35.945c-5.02 6.591-3.747 16.002 2.844 21.021 6.604 5.03 16.013 3.732 21.021-2.844l30.446-39.972c1.989-2.612 3.067-5.806 3.067-9.089v-64.692c0-4-1.598-7.835-4.438-10.651l-39.503-39.168c1.865-4.877 3.285-9.968 4.227-15.225h31.25l52.784 61.451v63.003c0 8.284 6.716 15 15 15s15-6.716 15-15v-68.56c0-3.586-1.285-7.054-3.622-9.773l-60.894-70.893c-2.85-3.317-7.005-5.227-11.379-5.227h-38.112c-1.103-6.222-2.883-12.272-5.339-18.065l68.118-20.696 61.334 31.509 1.249 38.756c.261 8.115 6.922 14.517 14.983 14.517 8.507 0 15.273-7.036 15.001-15.483l-1.533-47.58c-.175-5.446-3.291-10.369-8.138-12.859l-74.591-38.319c-3.465-1.779-7.488-2.141-11.215-1.01l-41.346 12.562c7.085-12.917 11.978-27.168 14.391-42.137l77.31-28.902c5.862-2.191 9.748-7.792 9.748-14.05v-95.325c0-5.653.134-3.973-29.598-52.985-4.296-7.083-13.522-9.34-20.604-5.045-7.083 4.297-9.342 13.522-5.045 20.605l25.247 41.619v80.724l-55.778 20.852c-4.795-59.002-47.902-106.635-102.757-114.075v-36.9c0-8.284-6.716-15-15-15s-15 6.716-15 15v36.9c-54.785 7.431-97.957 55.004-102.757 114.076l-55.778-20.852v-80.725l25.247-41.619c4.297-7.083 2.038-16.309-5.045-20.605-7.083-4.295-16.309-2.036-20.604 5.045-29.699 48.96-29.598 47.312-29.598 52.985v95.325c0 6.258 3.885 11.858 9.748 14.05l77.31 28.902c2.413 14.969 7.305 29.219 14.391 42.137zm64.479-93.906c46.29 35.451 111.454 35.578 157.909 0 17.682 38.527 9.779 86.497-21.451 115.655-32.168-29.769-82.58-30.002-115.006 0-31.241-29.167-39.129-77.14-21.452-115.655zm24.064 178.138c0-52.986 67.434-74.607 98.804-32.941 27.001 35.924 1.336 87.831-43.914 87.831-30.267 0-54.89-24.623-54.89-54.89zm117.229-203.237c-36.29 28.947-88.325 28.999-124.679 0 34.48-37.541 90.178-37.565 124.679 0z"/></g></svg>