<svg id="Capa_1" enable-background="new 0 0 512 512" height="512" viewBox="0 0 512 512" width="512" xmlns="http://www.w3.org/2000/svg"><g><circle cx="194.866" cy="196.507" r="15"/><circle cx="318.566" cy="196.507" r="15"/><path d="m456.95 236.961c-7.28-3.957-16.386-1.263-20.343 6.015-3.956 7.278-1.264 16.386 6.015 20.343 6.35 3.452 10.294 10.093 10.294 17.331 0 14.756-15.959 24.409-29.104 17.263l-60.246-32.769v-2.421c38.457-40.927 41.167-88.623 0-132.427v-23.446c0-59.306-48.175-107.264-107.681-106.847-58.459.445-106.02 48.894-106.02 108v22.293c-38.481 40.943-41.147 88.638 0 132.427v1.641l-61.675 33.548c-9.534 5.183-21.518 1.639-26.707-7.897-5.263-9.677-1.538-21.567 7.896-26.696 7.278-3.957 9.971-13.064 6.014-20.343-3.956-7.278-13.064-9.969-20.343-6.014-24.074 13.088-33.05 43.245-19.92 67.389 13.107 24.083 43.345 32.991 67.392 19.916l49.101-26.708c2.409 13.125 7.224 25.418 13.97 36.405l-13.775 55.691c-4.561 16.833-27.278 19.781-36.02 4.73-2.641-4.547-3.354-9.848-2.007-14.927 2.123-8.007-2.647-16.22-10.654-18.344-8.008-2.121-16.221 2.646-18.344 10.654-3.4 12.824-1.603 26.207 5.063 37.683 22.669 39.035 80.775 29.397 91.05-12.453l8.808-35.611c6.715 5.42 14.096 10.045 22.001 13.73v87.195c0 10.856-8.832 19.689-19.688 19.689s-19.688-8.832-19.688-19.689c0-8.284-6.716-15-15-15s-15 6.716-15 15c0 27.398 22.29 49.689 49.688 49.689s49.688-22.29 49.688-49.689v-78.3c9.992 1.41 20.002 1.411 30 0v78.3c0 27.398 22.29 49.689 49.688 49.689s49.688-22.29 49.688-49.689c0-8.284-6.716-15-15-15s-15 6.716-15 15c0 10.856-8.832 19.689-19.688 19.689s-19.688-8.832-19.688-19.689v-87.194c7.905-3.686 15.286-8.31 22.001-13.73l8.808 35.61c10.721 42.629 68.752 50.851 91.049 12.455 6.666-11.477 8.465-24.86 5.063-37.685-2.124-8.008-10.331-12.777-18.345-10.653-8.007 2.124-12.776 10.336-10.653 18.344 1.347 5.078.635 10.379-2.008 14.927-8.755 15.077-31.464 12.075-36.018-4.729l-13.775-55.693c6.625-10.789 11.384-22.839 13.834-35.699l47.808 26.004c24.079 13.09 54.303 4.129 67.395-19.924 3.952-7.27 6.041-15.463 6.041-23.694.001-18.242-9.948-34.983-25.965-43.69zm-200.234 118.109c-42.375 0-76.85-34.475-76.85-76.85 0-8.633 0-14.498 0-21.71 0-4.232-1.823-8.3-4.958-11.143-.25-.227-25.042-23.008-25.042-48.857 0-25.856 24.789-48.628 25.006-48.825 3.178-2.846 4.994-6.91 4.994-11.175v-28.506c0-68.997 82.455-103.857 130.982-55.701 14.649 14.539 22.718 33.911 22.718 54.548v29.66c0 4.233 1.824 8.301 4.961 11.145.25.227 25.039 22.999 25.039 48.855 0 25.849-24.791 48.63-25.008 48.827-3.177 2.845-4.992 6.909-4.992 11.173v21.71c0 42.374-34.474 76.849-76.85 76.849z"/></g></svg>