<svg id="Capa_1" enable-background="new 0 0 512 512" height="512" viewBox="0 0 512 512" width="512" xmlns="http://www.w3.org/2000/svg"><g><path d="m464.17 82.152-59.9-9.52c-27.26-4.34-56.04 6.41-74.21 34.991-3.98-1.82-8.1-3.5-12.35-5.05v-40.812c0-37.001-30.19-61.451-61.71-61.761-31.52.31-61.71 24.76-61.71 61.761v40.811c-4.25 1.55-8.37 3.23-12.35 5.05-18.17-28.581-46.95-39.331-74.21-34.991l-59.9 9.52c-18.74 2.97-32.34 18.901-32.34 37.871 0 20.97 16.95 38.361 38.35 38.361h18.57c10.72 0 20.95 5.13 27.37 13.72l11 14.75c-12.15 40.596-8.575 105.394 20 162.053-37.69 31.861-47.97 86.652-22.59 130.603 4.14 7.18 13.32 9.63 20.49 5.49 53.61-30.951 61.69-34.091 75.24-48.741 11.25 8.26 24.09 15.93 37.14 20.88v39.862c0 8.26 6.69 14.97 14.94 15 8.25-.03 14.94-6.74 14.94-15v-39.861c13.05-4.95 25.89-12.62 37.14-20.88 13.55 14.65 21.63 17.79 75.24 48.741 7.17 4.14 16.35 1.69 20.49-5.49 25.38-43.951 15.1-98.742-22.59-130.603 27.857-55.236 32.735-119.504 20-162.053l11-14.75c6.42-8.59 16.65-13.72 27.37-13.72h18.57c21.4 0 38.35-17.39 38.35-38.361 0-18.971-13.6-34.901-32.34-37.871zm-119.89 69.451c31.357 26.957 36.374 66.278 32.32 107.442l-49.44-6.89-22.69-39.291zm-119.99-89.842c0-18.99 15.5-31.591 31.71-31.771 16.21.18 31.71 12.78 31.71 31.771v32.551c-23.289-4.48-40.086-4.489-63.42 0zm31.71 59.081c16.94.01 42.48 5.09 62.97 14.66l-40.22 61.891c-6.596 0-38.902 0-45.5 0l-40.22-61.891c20.49-9.57 46.03-14.65 62.97-14.66zm44.51 145.153-22.29 38.601c-4.715 0-39.802 0-44.44 0l-22.29-38.601 22.29-38.601h44.44zm-132.79-114.392 39.81 61.261-22.69 39.291-49.44 6.89c-4.054-41.162.963-80.485 32.32-107.442zm-42.76 4.08c-13.94-18.67-33.05-27.3-52.55-27.3-19.67 0-21.3.72-24.46-2.43-4.78-4.8-2.24-13.09 4.58-14.18l59.91-9.52c16.15-2.56 33.01 3.89 43.57 20.51-12.2 8.98-22.69 19.82-31.05 32.92zm3.03 295.076c-8.81-26.541-1.7-55.861 18.25-75.392 9.74 14.55 21.53 28.881 34.71 41.531-9.18 9.53-14.08 11.41-52.96 33.861zm53.45-77.962c-19.41-24.68-33.52-52.971-41.04-84.162l45.83-6.39 21.85 37.821zm74.56 57.781c-18.61-5.78-38.58-20.5-52.93-34.061l31.28-61.921h43.3l31.28 61.921c-14.35 13.561-34.32 28.281-52.93 34.061zm47.92-110.512 21.85-37.821 45.83 6.39c-7.52 31.191-21.63 59.481-41.04 84.162zm80.09 130.693c-38.88-22.45-43.78-24.331-52.96-33.861 13.18-12.65 24.97-26.981 34.71-41.531 19.95 19.531 27.06 48.851 18.25 75.392zm80.04-324.807c-3.16 3.15-4.79 2.43-24.46 2.43-19.5 0-38.61 8.63-52.55 27.3-8.36-13.1-18.85-23.94-31.05-32.921 10.56-16.62 27.42-23.071 43.57-20.51l59.91 9.52c6.82 1.091 9.36 9.381 4.58 14.181z"/></g></svg>