<svg id="Capa_1" enable-background="new 0 0 512 512" height="512" viewBox="0 0 512 512" width="512" xmlns="http://www.w3.org/2000/svg"><g><ellipse cx="166.379" cy="241.705" rx="15" ry="14.995"/><ellipse cx="345.621" cy="241.705" rx="15" ry="14.995"/><path d="m480.05 13.533c-.914-6.72-6.227-11.991-12.957-12.853-26.796-3.478-80.704 5.206-116.19 53.82-50.893-26.993-100.693-24.338-94.903-24.338-33.461 0-69.866 11.058-94.904 24.337-22.185-30.392-49.958-43.616-70.43-49.346-25.044-7.009-44.925-4.582-45.759-4.473-6.73.862-12.043 6.133-12.957 12.853-8.172 60.1 3.666 118.249 49.468 156.717-7.355 50.71 2.071 134.715 42.245 205.104 12.748 22.394 14.48 38.176 17.726 49.419 15.557 53.898 54.727 87.227 114.611 87.227 34.525 0 64.771-10.818 87.296-35.997 27.673-30.932 27.132-60.773 38.099-86.78 6.768-15.62 15.311-25.562 27.903-58.549 11.713-26.018 29.955-100.633 21.284-160.424 45.813-38.477 57.637-96.636 49.468-156.717zm-28.332 16.709c4.363 52.337-10.833 85.502-29.344 106.259-9.34-26.35-24.948-48.452-46.332-65.572 25.003-33.34 58.316-39.775 75.676-40.687zm-125.241 168.519c.443-.018 41.077-1.622 76.235 10.95-.782 35.297-6.98 66.011-14.821 91.19-32.056-19.376-66.15-25.779-67.839-26.088-8.152-1.486-15.962 3.914-17.449 12.06-1.487 8.147 3.914 15.957 12.064 17.443.374.068 34.204 6.416 62.706 25.413-7.35 17.461-13.659 28.141-16.405 33.138-25.561-19.148-47.577-38.85-89.969-43.41v-47.397c0-8.281-6.716-14.995-15-14.995s-15 6.714-15 14.995v47.397c-42.39 4.56-64.526 24.35-89.969 43.41-2.478-4.51-8.959-15.449-16.403-33.132 28.387-18.886 62.346-25.353 62.704-25.419 8.15-1.487 13.551-9.297 12.064-17.443-1.487-8.148-9.299-13.546-17.449-12.06-1.689.309-35.783 6.712-67.839 26.088-7.841-25.176-14.038-55.89-14.821-91.187 35.037-12.507 75.803-10.968 76.235-10.954 8.277.373 15.279-6.05 15.643-14.323.363-8.274-6.052-15.274-14.328-15.637-1.864-.083-38.917-1.538-76.165 9.017 5.628-44.908 27.505-77.382 64.937-97.068l3.412 37.453c.426 4.674 3.017 8.88 7 11.363l34.994 21.816c24.633 41.598 21.824 36.865 22.257 37.563 5.004 8.038 14.286 7.073 12.726 7.073 4.906 0 9.857-2.464 12.726-7.073.417-.67-2.309 3.922 22.257-37.563l34.994-21.816c3.984-2.484 6.575-6.689 7-11.363l3.412-37.452c38.679 20.342 59.504 53.715 64.937 97.067-37.248-10.555-74.3-9.101-76.165-9.017-8.276.363-14.691 7.364-14.328 15.637.367 8.274 7.361 14.694 15.647 14.324zm-70.477-95.579c8.284 0 15-6.714 15-14.995v-27.131c15.703 1.615 28.438 5.017 36.37 7.588l-3.592 39.419c-34.361 21.42-34.262 20.699-36.746 24.893l-11.032 18.629c-11.887-20.073-11.984-21.209-16.002-23.714l-31.775-19.809-3.592-39.419c7.932-2.572 20.667-5.973 36.37-7.588v27.132c-.001 8.282 6.715 14.995 14.999 14.995zm-195.722-72.894c17.35.971 50.741 7.478 75.674 40.646-21.349 17.105-36.914 39.094-46.325 65.568-18.505-20.751-33.698-53.907-29.349-106.214zm107.827 377.848c-1.277-5.845-3.036-12.076-4.701-17.06l27.92-20.916c38.08-28.528 91.271-28.528 129.352 0l27.92 20.915c-6.116 18.302-12.009 90.935-92.596 90.935-59.282 0-80.52-40.177-87.895-73.874z"/><path d="m217.468 391.251c-7.118-4.236-16.325-1.901-20.562 5.218-4.237 7.118-1.901 16.324 5.218 20.561.082.048 8.208 5.296 9.062 14.96.729 8.244 8 14.349 16.263 13.621 8.252-.729 14.351-8.01 13.622-16.262-2.181-24.674-21.417-36.797-23.603-38.098z"/><path d="m294.532 391.251c7.118-4.236 16.325-1.901 20.562 5.218 4.237 7.118 1.901 16.324-5.218 20.561-.082.048-8.208 5.296-9.062 14.96-.729 8.244-8 14.349-16.263 13.621-8.252-.729-14.351-8.01-13.622-16.262 2.181-24.674 21.417-36.797 23.603-38.098z"/></g></svg>