<?xml version="1.0" encoding="iso-8859-1"?>
<!-- Generator: Adobe Illustrator 19.0.0, SVG Export Plug-In . SVG Version: 6.00 Build 0)  -->
<svg version="1.1" id="Capa_1" xmlns="http://www.w3.org/2000/svg" xmlns:xlink="http://www.w3.org/1999/xlink" x="0px" y="0px"
	 viewBox="0 0 489.815 489.815" style="enable-background:new 0 0 489.815 489.815;" xml:space="preserve">
<g>
	<g>
		<path d="M428.969,61.077c-0.021-0.021-0.041-0.041-0.062-0.062c-38.915-39.232-91.942-61.211-147.2-61.013
			C167.068-0.077,74.07,92.793,73.992,207.432c-0.035,51.536,19.102,101.243,53.689,139.449l-66.773,66.773
			c-4.183,4.148-4.21,10.902-0.062,15.085c0.021,0.021,0.041,0.041,0.062,0.062c38.811,39.126,91.663,61.097,146.773,61.013
			c114.757,0.049,207.827-92.94,207.876-207.698c0.022-51.405-19.012-100.994-53.422-139.182l66.773-66.773
			C433.09,72.013,433.118,65.259,428.969,61.077z M331.571,421.391c-34.091,30.274-78.084,47.024-123.677,47.09
			c-45.828,0.159-90.08-16.72-124.16-47.36l65.493-65.493l197.973-197.76C415.655,234.954,408.657,352.938,331.571,421.391z
			 M340.374,134.401l-197.76,197.547c-30.478-34.079-47.271-78.228-47.147-123.947c-0.164-49.483,19.506-96.968,54.613-131.84
			c34.771-35.153,82.182-54.901,131.627-54.827c45.825-0.139,90.069,16.738,124.16,47.36L340.374,134.401z"/>
	</g>
</g>
<g>
</g>
<g>
</g>
<g>
</g>
<g>
</g>
<g>
</g>
<g>
</g>
<g>
</g>
<g>
</g>
<g>
</g>
<g>
</g>
<g>
</g>
<g>
</g>
<g>
</g>
<g>
</g>
<g>
</g>
</svg>
