<svg id="line_gradient" height="512" viewBox="0 0 64 64" width="512" xmlns="http://www.w3.org/2000/svg" xmlns:xlink="http://www.w3.org/1999/xlink" data-name="line gradient"><linearGradient id="linear-gradient" gradientUnits="userSpaceOnUse" x1="6.26" x2="57.739" y1="32" y2="32"><stop offset="0" stop-color="#f3719c"/><stop offset="1" stop-color="#ff9275"/></linearGradient><path d="m18.12207 45.21826c-1.33887.32617-2.58887.70117-3.71289 1.11523-.50482.19012-1.09448-.06927-1.28418-.59326-.19043-.51807.0752-1.09277.59277-1.28369 1.19629-.43994 2.51855-.8374 3.93164-1.18164 1.28101-.28754 1.7453 1.61053.47266 1.94336zm15.64355-3.49609c-1.33398-.0332-2.71582-.02783-4.04785.01416-1.29291.05988-1.26215 1.98029.03033 1.99951 1.30688-.04041 2.65784-.04718 3.96869-.01465.53516.02686 1.01074-.42334 1.02441-.9751s-.42285-1.01025-.97559-1.02393zm-8.09277.25928c-1.37695.12549-2.73242.29297-4.0293.49854-1.19818.18561-1.04675 1.99554.15631 1.98779 1.31525-.17603 2.66113-.37927 4.05463-.49414.5498-.05029.95508-.53662.90527-1.08643s-.52344-.94678-1.08691-.90576zm16.16992.41943c-1.29785-.19336-2.6543-.34961-4.03125-.46387-1.31976-.09082-1.46796 1.86499-.16595 1.99316 1.38965.1051 2.73584.29254 4.05072.45996.4873 0 .91406-.35645.98828-.85254.08105-.54639-.2959-1.05518-.8418-1.13672zm7.94434 1.87646c-1.20605-.41992-2.5332-.79785-3.94336-1.12305-1.28229-.27142-1.72754 1.62946-.44916 1.94824 1.33978.30957 2.59662.66748 3.73627 1.06348.50714.18188 1.09241-.0899 1.27246-.61572.18164-.52197-.09375-1.0918-.61621-1.27295zm7.95233 7.07922c-.69958 7.82123-17.68774 9.66663-25.73944 9.64343-12.47852 0-25.74023-3.38184-25.74023-9.6499 0-2.20898 5.54492-12.41846 14.5918-28.89404 3.56543-6.49219 7.25098-13.20508 10.26367-18.92236.17328-.32806.51367-.53381.88477-.53369.36914 0 .70898.20361.88281.5293 2.51465 4.71484 5.62793 10.40967 8.63867 15.9165 11.02441 20.16553 16.2334 29.9165 16.21796 31.91077zm-1.99921-.00647c-.02148-.33551-.28595-1.05084-.74298-2.08948-.36139-.02362-.59296-.30756-.86255-.52771-.60712-.66461-2.55927-1.11096-1.88763-2.38818.23505-.41345.71594-.57568 1.15247-.44391-5.16901-10.32288-15.11121-28.04456-21.39465-39.7724-2.84082 5.3457-18.74316 34.30573-21.55383 39.98627.33691-.00201.66797.14862.85852.45612.29004.46973.14551 1.08594-.32416 1.37659-.81879.3974-1.22791 1.1449-2.01947 1.32318-.4436 1.02405-.69867 1.74982-.7052 2.08002 0 1.79932 2.45801 3.7334 6.57715 5.17285 4.56836 1.59717 10.66406 2.47656 17.16211 2.47656 13.99023 0 23.74023-4.03174 23.74023-7.6499z" fill="url(#linear-gradient)"/></svg>