<svg id="line_gradient" height="512" viewBox="0 0 64 64" width="512" xmlns="http://www.w3.org/2000/svg" xmlns:xlink="http://www.w3.org/1999/xlink" data-name="line gradient"><linearGradient id="linear-gradient" gradientUnits="userSpaceOnUse" x1="4.515" x2="59.486" y1="32.002" y2="32.002"><stop offset="0" stop-color="#f3719c"/><stop offset="1" stop-color="#ff9275"/></linearGradient><path d="m59.48151 28.9765c-.0122-.34326-.1954-.67424-.4942-.84759 0 0-9.68799-5.63074-9.68799-5.63074v-11.26379c-.01421-.35309-.19788-.70062-.5127-.87305 0 0-12.96338-7.23437-12.96338-7.23437-.30811-.17285-.68506-.16992-.99023.00879 0 0-29.8208 17.36328-29.8208 17.36328-.29579.18232-.49821.5142-.49707.86425v13.94336c0 .36328.19727.69824.51465.87402 0 0 10.09424 5.60352 10.09424 5.60352s.06396 11.49316.06396 11.49316c.00195.36328.20068.69629.51953.87109l12.27063 6.72296c.30734.1864.72443.16901.99597-.00812l30.01611-17.58203c.30664-.17969.49463-.50781.49463-.86328 0-.01556.00402-13.42824-.00336-13.44147zm-30.03864 20.75592 7.48413 4.15393-7.46265 4.37115-.02148-8.52509zm9.48663-11.09534-8.44977-4.65729 17.80536-9.75848 8.17047 4.74939zm-9.5304-6.34552-.02454-9.68634 17.92474-9.69305v9.56927l-17.90021 9.81012zm5.94757-27.1402 10.87598 6.06934-17.84674 9.65045-10.31842-5.6532zm-20.31347 20.31544-7.4892-4.12744 7.44202-4.33307zm2.15137 27.21094s-.06396-11.49023-.06396-11.49023c-.00195-.36133-.19873-.69336-.51465-.86816l-10.09082-5.60156v-11.66113l9.04492 4.98438c.30957.1709.68799.16504.99316-.0166.30518-.18066.49121-.50977.48926-.86523 0 0-.05713-10.24805-.05713-10.24805l10.38916 5.69141.02881 11.37793c.01733.36172.2036.68983.51711.87303-.00002.00001 10.00926 5.51661 10.00926 5.51661v11.78516l-9.00586-4.99805c-.30908-.17188-.6875-.16797-.99365.0127-.30566.18066-.49268.50879-.4917.86426l.02588 10.27539-10.27979-5.63184zm22.74512-.55017v-11.75751l17.55518-9.68298v11.15765z" fill="url(#linear-gradient)"/></svg>