<svg id="line_gradient" height="512" viewBox="0 0 64 64" width="512" xmlns="http://www.w3.org/2000/svg" xmlns:xlink="http://www.w3.org/1999/xlink" data-name="line gradient"><linearGradient id="linear-gradient" gradientUnits="userSpaceOnUse" x1="3.136" x2="60.866" y1="32" y2="32"><stop offset="0" stop-color="#f3719c"/><stop offset="1" stop-color="#ff9275"/></linearGradient><path d="m13.4043 20.54785s-3.18506 0-3.185 0c-1.31512-.02191-1.3136-1.97833-.00006-2h3.18506c1.31506.02191 1.31354 1.97827 0 2zm12.74115-2h-3.185c-1.31354.02167-1.31506 1.97809 0 2h3.18506c1.31354-.02173 1.31506-1.97809-.00006-2zm6.37061 0h-3.185c-1.31354.02167-1.31506 1.97809 0 2h3.18506c1.31354-.02173 1.31506-1.97809-.00006-2zm6.37061 0h-3.18549c-1.31354.02167-1.31506 1.97809 0 2h3.18555c1.31354-.02173 1.31506-1.97809-.00006-2zm6.14655 0h-1.93506c-1.3139.02209-1.31482 1.97791 0 2h.93506v.91602c0 .55273.44775 1 1 1s1-.44727 1-1v-1.91602c0-.55273-.44775-1-1-1zm0 31.46777c-.55225 0-1 .44727-1 1v3.18457c0 .55273.44775 1 1 1s1-.44727 1-1v-3.18457c0-.55273-.44775-1-1-1zm0-12.74121c-.55225 0-1 .44727-1 1v3.18555c0 .55273.44775 1 1 1s1-.44727 1-1v-3.18555c0-.55273-.44775-1-1-1zm0-6.37109c-.55225 0-1 .44727-1 1v3.18555c0 .55273.44775 1 1 1s1-.44727 1-1v-3.18555c0-.55273-.44775-1-1-1zm0-6.37012c-.55225 0-1 .44727-1 1v3.18555c0 .55273.44775 1 1 1s1-.44727 1-1v-3.18555c0-.55273-.44775-1-1-1zm15.7652 20.05664c-.00195.21552-.13342.38275-.24762.55176l-14.79297 15.54785c-.18713.19305-.45416.31262-.72461.31055h-40.85939c-.53632.00415-.979-.46436-.9978-.98761.09015-.13019-.14923-40.49854.02576-40.60315.00201-.21527.13348-.38208.24744-.55084l14.79296-15.54785c.19446-.1955.45703-.28052.72461-.31055h40.85938c.56238 0 .97327.69165 1.00031 1-.1012.10229.15436 40.52075-.02808 40.58984zm-55.62459 12.90808 12.79297-13.4458v-23.50427s-1.37695 0-1.37689 0c-1.31238-.02258-1.31757-1.97546-.00006-2h1.37695v-12.04577l-11.52478 12.11285c.38684.138.66736.49829.66736.93292 0 .55273-.44775 1-1 1h-.93555zm52.32031-12.04578h-11.46094s0 2.37793 0 2.37787c-.02063 1.31281-1.97913 1.3158-2 .00006v-2.37793h-24.63727l-12.89008 13.54785h37.52734v-.91602c0-.55273.44775-1 1-1 .38519 0 .70935.22461.8764.54382l11.58453-12.17566zm1.33203-39.11115c-.77734.32776-1.6062-.5976-1.21771-1.341h-37.64166v13.58655c.45703.0921.80811.47668.80811.9613s-.35107.86914-.80811.96124v22.94305h38.85938v-37.11113zm-10.03174 7.97443-1.31592 1.40527c-.60608.60461-.11072 1.71222.72998 1.68359.2666 0 .5332-.10645.72998-.31641l1.31592-1.40527c.37744-.40332.35645-1.03613-.04639-1.41309-.40283-.37793-1.03613-.35742-1.41357.0459zm5.3291-5.69043-2.33398 2.49219c-.60602.60449-.11078 1.71234.72998 1.68359.2666 0 .5332-.10645.72998-.31641l2.33398-2.49219c.37744-.40332.35645-1.03613-.04639-1.41309-.40381-.37793-1.03613-.3584-1.41357.0459z" fill="url(#linear-gradient)"/></svg>