<svg id="line_gradient" height="512" viewBox="0 0 64 64" width="512" xmlns="http://www.w3.org/2000/svg" xmlns:xlink="http://www.w3.org/1999/xlink" data-name="line gradient"><linearGradient id="linear-gradient" gradientUnits="userSpaceOnUse" x1="3" x2="61.002" y1="31.99" y2="31.99"><stop offset="0" stop-color="#f3719c"/><stop offset="1" stop-color="#ff9275"/></linearGradient><path d="m60.99304 12.88934c-.01855-.4186-.3096-.74933-.68741-.89372.00003-.00002-27.99997-8.99611-27.99997-8.99611-.19824-.06348-.41309-.06348-.61133 0l-27.99999 8.9961c-.51121.19229-.67905.79693-.69433.95215v38.67187c0 .44141.28906.83057.71191.95752l28 8.42871c.09424.02832.48193.02832.57617 0 0 0 28-8.42871 28-8.42871.42285-.12695.71191-.51611.71191-.95752-.00697-.05872.01334-38.67761-.00696-38.73029zm-28.99304-7.88739 24.71576 7.94098-24.71576 7.86102-24.71558-7.86108zm-27 9.31299 26 8.27002v36.11816l-26-7.82666zm54 36.56152-26 7.82666v-36.11816l26-8.27002zm-30.91602-8.37354-1.89404.64307c-.52295.17725-.80322.74512-.62549 1.26807.17627.52784.75923.80324 1.26807.62549 0 0 1.89404-.64306 1.89404-.64306 1.23716-.4418.60856-2.29734-.64258-1.89355zm-5.1167 1.73682-3.22266 1.09375c-.52295.17725-.80322.74512-.62549 1.26807.17627.52784.75923.80324 1.26807.62549 0 0 3.22265-1.09375 3.22265-1.09375 1.23661-.44258.6098-2.29463-.64258-1.89355zm-6.44531 2.18799-3.22266 1.09375c-.52295.17725-.80322.74512-.62549 1.26807.17627.52784.75923.80324 1.26807.62549 0 0 3.22265-1.09375 3.22265-1.09375 1.2368-.44247.60932-2.29485-.64258-1.89355zm-6.44531 2.1875-1.89404.64258c-.52295.17725-.80322.74512-.62549 1.26807.17607.5278.75902.80329 1.26807.62549 0 0 1.89404-.64257 1.89404-.64257 1.23584-.44245.61164-2.29423-.64258-1.89355zm43.7251 1.43066 1.92285.55078c.51663.15269 1.087-.15082 1.23633-.68604.15235-.53076-.15429-1.08447-.68554-1.23681l-1.92285-.55078c-1.26714-.33851-1.80964 1.53789-.55078 1.92285zm-13.72754-3.93018c.05567.0033 3.78472 1.12146 3.70895 1.02198 1.12697.01541 1.37814-1.65872.27439-1.96193.00005 0-3.43256-.98291-3.43256-.98291-1.27019-.3454-1.80741 1.54222-.55078 1.92285zm6.86426 1.96533c.05269.00276 3.78709 1.12141 3.707 1.0215 1.12801.01581 1.37938-1.65841.27537-1.96193.00005 0-3.43159-.98242-3.43159-.98242-1.27003-.34337-1.80769 1.54137-.55078 1.92285zm-12.21875-3.49805c.17893.03781 2.06363.62887 2.19921.58937 1.12717.01535 1.37743-1.65831.27437-1.96194.00005 0-1.9228-.55029-1.9228-.55029-1.27107-.34328-1.80654 1.54113-.55078 1.92285zm-2.71973-25.11084c.55225 0 1-.44775 1-1v-1.43457c0-.55225-.44775-1-1-1s-1 .44775-1 1v1.43457c0 .55225.44775 1 1 1zm0-4.80713c.55225 0 1-.44775 1-1v-1.43506c0-.55225-.44775-1-1-1s-1 .44775-1 1v1.43506c0 .55225.44775 1 1 1zm0-4.80713c.55225 0 1-.44775 1-1v-1.43506c0-.55225-.44775-1-1-1s-1 .44775-1 1v1.43506c0 .55225.44775 1 1 1z" fill="url(#linear-gradient)"/></svg>