<?xml version="1.0" encoding="iso-8859-1"?>
<!-- Generator: Adobe Illustrator 19.0.0, SVG Export Plug-In . SVG Version: 6.00 Build 0)  -->
<svg version="1.1" id="Capa_1" xmlns="http://www.w3.org/2000/svg" xmlns:xlink="http://www.w3.org/1999/xlink" x="0px" y="0px"
	 viewBox="0 0 494.274 494.274" style="enable-background:new 0 0 494.274 494.274;" xml:space="preserve">
<g>
	<g>
		<path d="M492.949,241.598L375.189,37.011c-1.894-3.281-5.385-5.31-9.173-5.333H129.002c-4.015-0.214-7.809,1.848-9.813,5.333
			L1.429,241.598c-1.905,3.3-1.905,7.366,0,10.667l117.76,205.013c1.894,3.28,5.385,5.31,9.173,5.333h237.013
			c3.788-0.023,7.279-2.053,9.173-5.333l118.187-205.013C494.708,249.003,494.789,244.936,492.949,241.598z M359.189,441.278h-224
			L22.976,247.145L135.189,53.011h224l112.213,194.133L359.189,441.278z"/>
	</g>
</g>
<g>
</g>
<g>
</g>
<g>
</g>
<g>
</g>
<g>
</g>
<g>
</g>
<g>
</g>
<g>
</g>
<g>
</g>
<g>
</g>
<g>
</g>
<g>
</g>
<g>
</g>
<g>
</g>
<g>
</g>
</svg>
