<?xml version="1.0" encoding="iso-8859-1"?>
<!-- Generator: Adobe Illustrator 19.0.0, SVG Export Plug-In . SVG Version: 6.00 Build 0)  -->
<svg version="1.1" id="Capa_1" xmlns="http://www.w3.org/2000/svg" xmlns:xlink="http://www.w3.org/1999/xlink" x="0px" y="0px"
	 viewBox="0 0 489.425 489.425" style="enable-background:new 0 0 489.425 489.425;" xml:space="preserve">
<g>
	<g>
		<path d="M457.014,355.576l-81.92-111.147l81.28-110.933c2.344-3.56,2.344-8.174,0-11.733c-1.968-3.523-5.787-5.599-9.813-5.333
			l-136.533,14.72L254.56,5.923c-2.857-5.42-9.567-7.497-14.986-4.64c-1.979,1.043-3.597,2.661-4.64,4.64l-55.253,125.44
			L42.934,116.429c-4.248-0.53-8.39,1.583-10.453,5.333c-2.344,3.56-2.344,8.174,0,11.733l81.92,110.933L33.12,355.363
			c-2.543,3.43-2.794,8.047-0.64,11.733c2.106,3.707,6.216,5.804,10.453,5.333l136.747-15.147l55.253,125.653
			c2.309,5.42,8.574,7.942,13.994,5.633c2.535-1.08,4.553-3.098,5.633-5.633l55.467-125.653l136.533,15.147
			c4.248,0.53,8.39-1.583,10.453-5.333C459.266,363.586,459.266,359.086,457.014,355.576z M304.48,335.309
			c-4.651-0.544-9.096,2.071-10.88,6.4l-48.853,110.507l-48.64-110.72c-1.702-3.9-5.559-6.415-9.813-6.4h-1.067l-120.32,13.227
			l71.253-97.707c2.739-3.748,2.739-8.838,0-12.587l-71.467-97.707l120.533,13.013c4.635,0.472,9.04-2.119,10.88-6.4l48.64-110.293
			L293.6,147.149c1.909,4.197,6.297,6.693,10.88,6.187l120.32-13.013l-71.467,97.707c-2.739,3.748-2.739,8.838,0,12.587
			l71.467,97.92L304.48,335.309z"/>
	</g>
</g>
<g>
</g>
<g>
</g>
<g>
</g>
<g>
</g>
<g>
</g>
<g>
</g>
<g>
</g>
<g>
</g>
<g>
</g>
<g>
</g>
<g>
</g>
<g>
</g>
<g>
</g>
<g>
</g>
<g>
</g>
</svg>
