<?xml version="1.0" encoding="iso-8859-1"?>
<!-- Generator: Adobe Illustrator 19.0.0, SVG Export Plug-In . SVG Version: 6.00 Build 0)  -->
<svg version="1.1" id="Capa_1" xmlns="http://www.w3.org/2000/svg" xmlns:xlink="http://www.w3.org/1999/xlink" x="0px" y="0px"
	 viewBox="0 0 491.52 491.52" style="enable-background:new 0 0 491.52 491.52;" xml:space="preserve">
<g>
	<g>
		<path d="M488.32,141.013L350.72,3.2c-1.969-2.01-4.653-3.16-7.467-3.2H148.48c-2.814,0.04-5.497,1.19-7.467,3.2L3.2,141.013
			c-2.01,1.969-3.16,4.653-3.2,7.467v194.56c0.04,2.814,1.19,5.497,3.2,7.467L141.013,488.32c1.969,2.01,4.653,3.16,7.467,3.2
			h194.773c2.814-0.04,5.497-1.19,7.467-3.2l137.6-137.6c2.01-1.969,3.16-4.653,3.2-7.467V148.48
			C491.48,145.666,490.33,142.983,488.32,141.013z M470.187,338.773L338.773,470.187H152.96L21.333,338.773V152.96L152.96,21.333
			h185.813L470.187,152.96V338.773z"/>
	</g>
</g>
<g>
</g>
<g>
</g>
<g>
</g>
<g>
</g>
<g>
</g>
<g>
</g>
<g>
</g>
<g>
</g>
<g>
</g>
<g>
</g>
<g>
</g>
<g>
</g>
<g>
</g>
<g>
</g>
<g>
</g>
</svg>
