<svg id="line_gradient" height="512" viewBox="0 0 64 64" width="512" xmlns="http://www.w3.org/2000/svg" xmlns:xlink="http://www.w3.org/1999/xlink" data-name="line gradient"><linearGradient id="linear-gradient" gradientUnits="userSpaceOnUse" x1="10.476" x2="53.524" y1="32.02" y2="32.02"><stop offset="0" stop-color="#f3719c"/><stop offset="1" stop-color="#ff9275"/></linearGradient><path d="m32 3c-10.3667 0-21.52441 1.88721-21.52441 6.03027v45.93945c.31717 8.09484 42.73107 8.09099 43.04884.00026-.00002-.00026-.00002-45.93971-.00002-45.93971 0-4.14307-11.15771-6.03027-21.52441-6.03027zm0 2c12.63281 0 19.52441 2.6626 19.52441 4.03027 0 1.36816-6.8916 4.03076-19.52441 4.03076s-19.52441-2.6626-19.52441-4.03076c0-1.36768 6.8916-4.03027 19.52441-4.03027zm0 54c-12.63281 0-19.52441-2.6626-19.52441-4.03027 0-.1792.21777-.51416.8291-.91699.95729-.61947.23695-2.11955-.82914-1.77958.00004-.00002.00004-40.49722.00004-40.49722 7.54276 4.40315 31.50602 4.40365 39.04883.00013 0-.00013 0 40.49737 0 40.49737-1.08148-.34345-1.77356 1.16863-.82906 1.77932.61129.40281.82906.73777.82906.91697 0 1.36768-6.8916 4.03027-19.52441 4.03027zm-3.77686-9.97705c-1.33252.06006-2.64746.15283-3.9082.27588-1.24779.13533-1.15296 1.98276.09623 1.99511 1.26425-.11164 2.56744-.21709 3.90181-.27294.55176-.02491.979-.4922.9541-1.04395-.02539-.55225-.5083-.98291-1.04395-.9541zm-7.80762.7793c-1.42041.23389-2.7251.51074-3.87891.82227-1.11519.29001-.87781 1.9805.26031 1.96581 1.23053-.24455 2.46826-.59971 3.9438-.81439.54491-.0899.91405-.60455.82421-1.14947-.09033-.54443-.60449-.91504-1.14941-.82422zm29.22363 1.51855c-.88182-.23119-2.66476-1.35113-3.1421.07028-.14891.53177.16115 1.08353.69288 1.23294.78497.17743 1.39058.52124 2.09324.63191 1.07871.01887 1.38711-1.55829.35598-1.93513zm-13.59277-2.28564c-1.28125-.06201-2.59717-.09424-3.91162-.09619-1.31319.02013-1.31822 1.9756-.00289 2 1.30061.00063 2.59933.03712 3.86714.09522.52979 0 .97217-.41651.99805-.95166.02637-.55176-.39893-1.02051-.95068-1.04736zm7.80615.81299c-1.21777-.20752-2.5293-.3833-3.89795-.52246-1.30719-.11603-1.5094 1.83582-.2021 1.99024 1.32417.13428 2.59078.30371 3.76412.50391.53171.09395 1.06369-.27017 1.15381-.81787.09278-.54443-.27343-1.06103-.81787-1.15381z" fill="url(#linear-gradient)"/></svg>