<?xml version="1.0" encoding="iso-8859-1"?>
<!-- Generator: Adobe Illustrator 19.0.0, SVG Export Plug-In . SVG Version: 6.00 Build 0)  -->
<svg version="1.1" id="Capa_1" xmlns="http://www.w3.org/2000/svg" xmlns:xlink="http://www.w3.org/1999/xlink" x="0px" y="0px"
	 viewBox="0 0 497.369 497.369" style="enable-background:new 0 0 497.369 497.369;" xml:space="preserve">
<g>
	<g>
		<path d="M486.266,376.274l-185.173-320c-16.484-28.984-53.342-39.117-82.326-22.634c-9.444,5.371-17.263,13.19-22.634,22.634
			L7.973,380.754c-16.613,29.181-6.424,66.305,22.758,82.918c9.124,5.194,19.437,7.937,29.936,7.962h376.107
			c33.461,0,60.587-27.126,60.587-60.587C497.592,398.55,493.693,386.327,486.266,376.274z M436.773,450.3v0.853H60.666
			c-21.797-0.059-39.419-17.777-39.359-39.574c0.019-6.85,1.82-13.577,5.226-19.52L214.479,66.087
			c10.57-18.792,34.373-25.458,53.166-14.888c6.232,3.505,11.382,8.655,14.888,14.888L468.56,388.22
			c4.995,6.629,7.624,14.741,7.467,23.04C475.909,432.856,458.369,450.301,436.773,450.3z"/>
	</g>
</g>
<g>
</g>
<g>
</g>
<g>
</g>
<g>
</g>
<g>
</g>
<g>
</g>
<g>
</g>
<g>
</g>
<g>
</g>
<g>
</g>
<g>
</g>
<g>
</g>
<g>
</g>
<g>
</g>
<g>
</g>
</svg>
