<svg id="line_gradient" height="512" viewBox="0 0 64 64" width="512" xmlns="http://www.w3.org/2000/svg" xmlns:xlink="http://www.w3.org/1999/xlink" data-name="line gradient"><linearGradient id="linear-gradient" gradientUnits="userSpaceOnUse" x1="1.791" x2="62.215" y1="32" y2="32"><stop offset="0" stop-color="#f3719c"/><stop offset="1" stop-color="#ff9275"/></linearGradient><path d="m21.3125 50.38477c-1.05957.3252-1.99219.69824-2.77051 1.10742-.48016.25299-1.09174.07312-1.35059-.4209-.25684-.48926-.06836-1.09375.4209-1.35059.8877-.46582 1.93457-.88574 3.1123-1.24805 1.2644-.3678 1.83582 1.50696.58789 1.91211zm8.09082-2.35449c.01758.54102.46191.9668.99805.9668 1.03217-.03296 2.10547-.03571 3.13965-.00098 1.31873.05774 1.37738-1.94421.06836-1.99805-1.06934-.03711-2.17676-.03711-3.24023 0-.55176.01758-.98438.48047-.96582 1.03223zm-2.26953-.80859c-1.11035.11621-2.19434.27441-3.22168.46973-1.17682.21716-.99835 1.99219.18561 1.98242 1.05157-.15558 2.11713-.36041 3.24506-.46387.54883-.05762.94727-.54883.88965-1.09863-.05762-.54883-.54199-.94922-1.09863-.88965zm9.50201 1.98535c1.11755.10278 2.18713.30615 3.24408.46191.47168 0 .8916-.33496.98145-.81543.10254-.54199-.25488-1.06543-.79785-1.16699-1.03418-.19531-2.11719-.35254-3.21875-.46777-1.3017-.11389-1.51801 1.82672-.20892 1.98828zm6.03125 1.17188c1.28235.31329 2.16864.95197 3.23621 1.21887 1.01538.02289 1.38812-1.42438.46393-1.88684-.89062-.46387-1.9375-.88281-3.1123-1.24414-1.263-.36346-1.83759 1.50446-.58783 1.91211zm18.84735-33.25891-11.71954 37.12c-.3421 4.39014-9.31805 6.76001-17.79486 6.76001-8.47522 0-17.44928-2.36902-17.79462-6.75751.01917-.04578-12.15601-37.83075-12.10614-37.8725-2.68493-8.28389 12.55146-13.22133 29.90107-13.37019 17.33771.07153 33.85065 5.42273 29.5141 14.12018zm-3.04944 3.01874c-10.39648 7.6748-42.84576 7.66071-53.1095-.11908l10.10413 31.58124c.82605-.18036 1.51306.83545 1.00525 1.53583-.19629.29395-.29199.57129-.29199.84863 0 2.09375 6.02148 5.01465 15.82715 5.01465s15.82715-2.9209 15.82715-5.01465c0-.27734-.0957-.55469-.29199-.84863-.49731-.69385.16455-1.71356.99707-1.53693 0 0 9.93274-31.46057 9.93274-31.46106zm1.83679-5.6651c0-4.5752-11.37207-9.47363-28.30176-9.47363s-28.30175 4.89842-28.30175 9.47337c1.73041 12.4986 54.83752 12.52551 56.60352.00024z" fill="url(#linear-gradient)"/></svg>