<?xml version="1.0" encoding="iso-8859-1"?>
<!-- Generator: Adobe Illustrator 19.0.0, SVG Export Plug-In . SVG Version: 6.00 Build 0)  -->
<svg version="1.1" id="Capa_1" xmlns="http://www.w3.org/2000/svg" xmlns:xlink="http://www.w3.org/1999/xlink" x="0px" y="0px"
	 viewBox="0 0 492.16 492.16" style="enable-background:new 0 0 492.16 492.16;" xml:space="preserve">
<g>
	<g>
		<path d="M428.16,0.747H64c-35.346,0-64,28.654-64,64v362.667c0,35.346,28.654,64,64,64h364.16c35.346,0,64-28.654,64-64V64.747
			C492.16,29.4,463.506,0.747,428.16,0.747z M470.827,425.707c0,23.564-19.103,42.667-42.667,42.667H64
			c-23.564,0-42.667-19.103-42.667-42.667V63.04c0-23.564,19.103-42.667,42.667-42.667h364.16c23.564,0,42.667,19.103,42.667,42.667
			V425.707z"/>
	</g>
</g>
<g>
</g>
<g>
</g>
<g>
</g>
<g>
</g>
<g>
</g>
<g>
</g>
<g>
</g>
<g>
</g>
<g>
</g>
<g>
</g>
<g>
</g>
<g>
</g>
<g>
</g>
<g>
</g>
<g>
</g>
</svg>
