<svg id="line_gradient" height="512" viewBox="0 0 64 64" width="512" xmlns="http://www.w3.org/2000/svg" xmlns:xlink="http://www.w3.org/1999/xlink" data-name="line gradient"><linearGradient id="linear-gradient" gradientUnits="userSpaceOnUse" x1="4.329" x2="59.671" y1="31.999" y2="31.999"><stop offset="0" stop-color="#f3719c"/><stop offset="1" stop-color="#ff9275"/></linearGradient><path d="m59.5921 40.86304c.04571-.11208.05183-.22869.0788-.34155 0 0-.01172-17.00977-.01172-17.00977 0-.21045-.06641-.41504-.18945-.58545l-9.97656-13.80078c-.13799-.14634-.30497-.26728-.48195-.35838.00001-.00002-16.41307-5.71144-16.41307-5.71144-.20898-.07227-.43604-.07373-.64697-.00391l-16.50488 5.54102c-.08464.05228-.17551.09374-.25494.15931-.08537.05463-.15286.12568-.22699.18981 0 0-10.43555 13.93701-10.43555 13.93701-.13281.17725-.20312.39355-.19971.61523 0 0 .27734 17.37744.27734 17.37744.03349.19585.09161.39374.18947.56982-.00002 0 9.97655 13.80079 9.97655 13.80079.12305.17041.29688.29736.49658.36328l16.14716 5.34363c.19508.07021.41.05464.60919.00646 0 0 16.77051-5.17382 16.77051-5.17382.20996-.06494.39258-.19678.52002-.37598l10.16992-14.3042c.03556-.07936.07685-.15495.10626-.23853zm-1.92218-1.62329-6.74884-1.69238-6.34839-19.79736 4.14709-6.27997 8.93939 12.36591.01074 15.40381zm-25.29492 10.75146-16.46826-11.98877 6.40576-19.40381h20.43213l6.22021 19.39795zm-.11133-44.93457 14.87598 5.17676-4.20367 6.36523h-20.83539l-4.72919-6.54211zm-16.51324 6.17194 4.729 6.54187-6.53192 19.78687-7.36157 1.9964-.25146-15.75 9.41595-12.57513zm-8.48578 30.21356 7.26306-1.96954 16.80719 12.23511-.50824 6.93976-14.62256-4.83887zm40.61768 12.52856-15.0473 4.64203.50159-6.84863 17.01099-12.29913 6.6601 1.67053-9.12537 12.83521z" fill="url(#linear-gradient)"/></svg>