<?xml version="1.0" encoding="iso-8859-1"?>
<!-- Generator: Adobe Illustrator 19.0.0, SVG Export Plug-In . SVG Version: 6.00 Build 0)  -->
<svg version="1.1" id="Capa_1" xmlns="http://www.w3.org/2000/svg" xmlns:xlink="http://www.w3.org/1999/xlink" x="0px" y="0px"
	 viewBox="0 0 494.637 494.637" style="enable-background:new 0 0 494.637 494.637;" xml:space="preserve">
<g>
	<g>
		<path d="M487.482,220.865l-97.28-168.107c-9.459-16.384-26.948-26.471-45.867-26.453H150.202
			c-18.919-0.017-36.407,10.069-45.867,26.453L7.055,220.865c-9.407,16.381-9.407,36.526,0,52.907l97.28,168.107
			c9.459,16.384,26.948,26.471,45.867,26.453h194.347c18.919,0.017,36.407-10.069,45.867-26.453l97.067-168.107
			C497.022,257.426,497.022,237.211,487.482,220.865z M468.922,263.105l-97.067,168.107c-5.568,9.823-16.016,15.863-27.307,15.787
			H150.202c-11.267-0.013-21.673-6.029-27.307-15.787l-97.28-167.893c-5.678-9.835-5.678-21.952,0-31.787l97.067-168.32
			c5.633-9.757,16.04-15.774,27.307-15.787h194.347c11.291-0.076,21.739,5.964,27.307,15.787l97.067,168.107
			C474.497,241.103,474.579,253.244,468.922,263.105L468.922,263.105z"/>
	</g>
</g>
<g>
</g>
<g>
</g>
<g>
</g>
<g>
</g>
<g>
</g>
<g>
</g>
<g>
</g>
<g>
</g>
<g>
</g>
<g>
</g>
<g>
</g>
<g>
</g>
<g>
</g>
<g>
</g>
<g>
</g>
</svg>
