<svg id="line_gradient" height="512" viewBox="0 0 64 64" width="512" xmlns="http://www.w3.org/2000/svg" xmlns:xlink="http://www.w3.org/1999/xlink" data-name="line gradient"><linearGradient id="linear-gradient" gradientUnits="userSpaceOnUse" x1="3" x2="60.999" y1="31.925" y2="31.925"><stop offset="0" stop-color="#f3719c"/><stop offset="1" stop-color="#ff9275"/></linearGradient><path d="m60.99872 24.40765c-.00684-7.99799-12.74188-14.26166-28.99872-14.26166-16.26177.00113-28.99339 6.26319-29 14.26807 1.59881 39.06494 56.42007 39.04165 57.99872-.00641zm-28.99872-12.26166c14.63477 0 26.99902 5.61816 26.99902 12.26807s-12.36426 12.26807-26.99902 12.26807-26.99902-5.61817-26.99902-12.26807 12.36426-12.26807 26.99902-12.26807zm0 39.70801c-12.83087 0-23.59265-9.14624-26.32336-21.35846 9.58165 10.8224 43.07654 10.81358 52.64671-.00044-2.7307 12.21266-13.49248 21.3589-26.32335 21.3589z" fill="url(#linear-gradient)"/></svg>