<?xml version="1.0" encoding="iso-8859-1"?>
<!-- Generator: Adobe Illustrator 19.0.0, SVG Export Plug-In . SVG Version: 6.00 Build 0)  -->
<svg version="1.1" id="Capa_1" xmlns="http://www.w3.org/2000/svg" xmlns:xlink="http://www.w3.org/1999/xlink" x="0px" y="0px"
	 viewBox="0 0 502.187 502.187" style="enable-background:new 0 0 502.187 502.187;" xml:space="preserve">
<g>
	<g>
		<path d="M421.684,251.093l42.667-59.307c14.555-19.294,16.152-45.425,4.053-66.347c-12.208-20.627-35.232-32.347-59.093-30.08
			l-72.96,7.893l-29.867-66.987C296.831,14.241,275.065,0.01,251.017,0c-24.122,0.114-45.961,14.285-55.893,36.267l-29.44,66.987
			l-72.96-7.893c-23.872-2.321-46.923,9.413-59.093,30.08c-11.89,20.896-10.3,46.846,4.053,66.133l42.667,59.52l-42.667,59.093
			c-13.907,19.601-15.156,45.498-3.2,66.347c11.955,20.875,35.196,32.621,59.093,29.867l72.107-7.893l29.44,67.413
			c9.932,21.982,31.772,36.153,55.893,36.267c24.048-0.01,45.814-14.241,55.467-36.267l29.867-67.413l72.96,7.893
			c33.281,3.465,63.07-20.706,66.534-53.987c1.563-15.016-2.536-30.074-11.494-42.226L421.684,251.093z M450.697,365.44
			c-7.837,13.493-22.888,21.102-38.4,19.413l-80.853-8.747c-4.597-0.577-9.025,1.941-10.88,6.187l-32.853,74.453
			c-6.174,14.764-20.692,24.302-36.693,24.107c-15.629-0.088-29.783-9.246-36.267-23.467l-32.427-74.453
			c-1.702-3.9-5.559-6.415-9.813-6.4h-1.28l-80.853,8.747c-15.486,1.844-30.584-5.705-38.4-19.2
			c-7.553-13.449-6.723-30.038,2.133-42.667l47.573-65.92c2.739-3.748,2.739-8.838,0-12.587l-47.36-65.92
			c-9.066-12.556-9.901-29.269-2.133-42.667c7.894-13.453,22.872-21.108,38.4-19.627l80.64,8.747c4.635,0.472,9.04-2.119,10.88-6.4
			l32.64-74.027c6.463-14.268,20.604-23.501,36.267-23.68c15.616-0.045,29.773,9.169,36.053,23.467l32.853,74.027
			c1.909,4.197,6.297,6.692,10.88,6.187l80.64-8.747c15.591-1.514,30.647,6.139,38.613,19.627
			c7.947,13.559,6.936,30.571-2.56,43.093h-0.427l-46.72,65.92c-2.739,3.748-2.739,8.838,0,12.587l47.787,65.28
			C457.18,335.3,458.178,351.922,450.697,365.44z"/>
	</g>
</g>
<g>
</g>
<g>
</g>
<g>
</g>
<g>
</g>
<g>
</g>
<g>
</g>
<g>
</g>
<g>
</g>
<g>
</g>
<g>
</g>
<g>
</g>
<g>
</g>
<g>
</g>
<g>
</g>
<g>
</g>
</svg>
