<svg id="line_gradient" height="512" viewBox="0 0 64 64" width="512" xmlns="http://www.w3.org/2000/svg" xmlns:xlink="http://www.w3.org/1999/xlink" data-name="line gradient"><linearGradient id="linear-gradient" gradientUnits="userSpaceOnUse" x1="3.011" x2="60.971" y1="32" y2="32"><stop offset="0" stop-color="#f3719c"/><stop offset="1" stop-color="#ff9275"/></linearGradient><path d="m54.2641 31.9375c.04553.11969-4.0708-1.31622-4.15271-1.32568-1.24182-.43658-.62323-2.28967.62982-1.89844l3.83789 1.27441c1.06946.34131.78833 1.9671-.315 1.94971zm-7.3598-4.49854-3.8374-1.2749c-1.2547-.39014-1.87146 1.46118-.6308 1.89844.08612.01044 4.19165 1.44446 4.15277 1.32617 1.10376.0174 1.38391-1.6084.31543-1.94971zm-7.89893-2.28369c.62604 1.15283 2.37402.21228 1.76459-.94147.00006.00006-1.90277-3.5683-1.90277-3.5683-.63611-1.14764-2.36438-.23041-1.76465.94141zm21.896 8.12012-9.63818 20.06348c-.08258.14294-.18109.28113-.31683.37775-.13525.09265-18.62994 2.62714-18.62994 2.62714-.14697.0199-.29724-.00049-.43799-.03906l-20.25293-6.48389c-.2746-.07727-.57111-.43353-.61328-.55566l-7.93019-18.35109c-.09454-.27594-.10419-.58588.02734-.85156l10.24854-20.06396c.17139-.29071.45892-.47632.78564-.53955.00708.00122 17.08813-1.80981 17.09442-1.80542.13855-.01526.27576.00543.40656.04272l19.87988 6.45508c.24298.10504.46002.26837.5874.50732l8.7818 17.73492c.07349.1723.12549.59363.00775.88177zm-42.25165-22.28137 14.50519 5.28918 1.0517-.12744-.90924-1.70508c-.25977-.4873-.07568-1.09326.41162-1.35303.48828-.26025 1.09375-.0752 1.35303.41162l1.27374 2.38861 10.26282-1.24323-13.32611-4.32721c.03253.38635-.16119.77313-.5249.96698-.47754.2572-1.0921.08026-1.35303-.41162l-.62396-1.17023-12.12085 1.28143zm-13.23328 18.94928 17.82013 6.06653 8.43451-18.13879-16.93427-6.17474zm24.89777 23.76117-2.67761-5.75903s-1.82605.22449-1.82599.22449c-1.30011.14056-1.55237-1.80072-.2442-1.98535l1.18378-.14551-3.71198-7.98376-17.22571-5.86438 6.73877 15.59369 1.24219-.15277c.54639-.06299 1.04688.32178 1.11475.87061.01117.09106-.00763.17645-.02026.263l15.42627 4.93903zm28.2923-20.271s-.81989-.27234-.81982-.27234c-1.04865-.33734-.81128-1.93762.29486-1.93915l-7.44775-15.04181s-13.59332 1.64673-13.59332 1.64667c-.2049.81488-1.41046.98956-1.8197.22052l-1.51129.18311-8.8418 19.01562 3.96881 8.5365.65424-.08044c.54492-.06299 1.04736.32178 1.11475.87061.06824.55267-.32922 1.05505-.88269 1.11621l3.05652 6.57422 14.69391-1.97754c0-.10266.0025-.20624.03607-.30908.1709-.52441.73779-.81152 1.26025-.64111l1.06976.34851 8.76721-18.25049zm-21.11383 14.22668-3.75928-1.2251c-1.25555-.38416-1.86365 1.47235-.62006 1.90137.09039.0116 4.09912 1.38617 4.06927 1.2749 1.10657.01709 1.38354-1.61542.31006-1.95117zm7.51855 2.4502-3.75928-1.2251c-1.25507-.38477-1.86389 1.47241-.62006 1.90137.09039.0116 4.09912 1.38617 4.06927 1.2749 1.10657.01709 1.38354-1.61542.31006-1.95117zm-23.3692-3.44336c.00006 0-3.92426.48242-3.92426.48242-1.2298.16351-1.11206 1.98224.12061 1.99268.04102 0 .08203-.00244.12354-.00732l3.92432-.48242c1.30151-.18549 1.06409-2.11365-.2442-1.98535zm12.4234-4.34814c.56653-1.18475-1.18335-2.05994-1.79004-.89258l-1.56201 3.13232c-.57672 1.16815 1.19434 2.0636 1.79004.89252 0 .00006 1.56201-3.13226 1.56201-3.13226zm.37305-2.98975c.48395.24347 1.09344.05048 1.34131-.44873l1.71436-3.43848c.24658-.49414.04541-1.09473-.44873-1.34131-.49561-.24658-1.09424-.04541-1.34131.44873l-1.71436 3.43848c-.24658.49414-.04541 1.09473.44873 1.34131zm5.88379-11.79932c-.49512-.24609-1.09473-.04541-1.34131.44873l-1.56201 3.13232c-.24658.49414-.04541 1.09473.44873 1.34131.48395.24347 1.09344.05048 1.34131-.44873l1.56201-3.13232c.24658-.49414.04541-1.09473-.44873-1.34131z" fill="url(#linear-gradient)"/></svg>