<svg id="line_gradient" height="512" viewBox="0 0 64 64" width="512" xmlns="http://www.w3.org/2000/svg" xmlns:xlink="http://www.w3.org/1999/xlink" data-name="line gradient"><linearGradient id="linear-gradient" gradientUnits="userSpaceOnUse" x1="3.091" x2="60.909" y1="32.006" y2="32.006"><stop offset="0" stop-color="#f3719c"/><stop offset="1" stop-color="#ff9275"/></linearGradient><path d="m21.65039 38.43066-.50391 1.93555c-.13721.53912-.6994.85602-1.21973.71582-.53418-.13916-.85449-.68506-.71582-1.21973l.50391-1.93555c.13965-.53564.68457-.85596 1.21973-.71582.53418.13916.85449.68506.71582 1.21973zm-.36816-2.55908c.52039.13898 1.08246-.17645 1.21973-.71582l.85254-3.27539c.13867-.53467-.18164-1.08057-.71582-1.21973-.53418-.13867-1.08008.18066-1.21973.71582l-.85254 3.27539c-.13867.53467.18164 1.08057.71582 1.21973zm1.7041-6.55029c.52032.1402 1.08252-.1767 1.21973-.71582l.85254-3.27539c.13867-.53467-.18164-1.08057-.71582-1.21973-.53418-.14014-1.08105.18066-1.21973.71582l-.85254 3.27539c-.13867.53467.18164 1.08057.71582 1.21973zm1.7041-6.55078c.52032.1402 1.08252-.1767 1.21973-.71582l.50391-1.93555c.13867-.53467-.18164-1.08057-.71582-1.21973-.53516-.13867-1.08008.18066-1.21973.71582l-.50391 1.93555c-.13867.53467.18164 1.08057.71582 1.21973zm36.21851 28.185c-.01385.17023.01392.35468-.08105.50543-.05237.21442-15.51538 9.40039-15.51538 9.40039-.1535.0882-.33252.13733-.50781.13867h-25.60938c-.17523-.0014-.35455-.05017-.50781-.13867 0 0-15.46558-9.18518-15.51538-9.40039-.09485-.15076-.06726-.33514-.08105-.50543.03741-.12683 28.00946-47.61377 28.13513-47.565.4046-.56793 1.28259-.46344 1.63416.09973 0 0 28.01093 47.33838 28.04858 47.46527zm-38.87347-7.86151c-.75787-.45398-.47552-1.69501.40784-1.78394l7.15729-31.30176s-23.27083 39.25024-23.27083 39.25018c.79425.46112.56177 1.54156-.25104 1.84692l12.44678 7.33899s3.50989-15.3504 3.50995-15.3504zm21.51508 15.90601-3.59418-15.71875h-2.30792c-.55273 0-1-.44775-1-1s.44727-1 1-1h1.85059l-7.49902-32.79626-7.49902 32.79626s1.85059 0 1.85052 0c1.31183.02155 1.31769 1.97687.00006 2h-2.30792l-3.59418 15.71875zm14.37079-7.89465c-.8064-.2998-1.04987-1.38861-.2511-1.84674l-23.27083-39.25032s7.15729 31.30176 7.15723 31.30176c.87903.08765 1.17029 1.33118.40796 1.784l3.50989 15.35034s12.44678-7.33899 12.44684-7.33905zm-46.04144-5.58728-3.27539 1.85742c-.89276.46545-.49249 1.90765.49414 1.86963.27045.13898 3.47406-1.87512 3.76758-1.98773.48047-.27203.64941-.88239.37695-1.36285-.27246-.47998-.88281-.64844-1.36328-.37646zm43.51654 1.85742c.00006 0-3.27533-1.85742-3.27533-1.85742-1.15277-.62781-2.12024 1.07123-.98633 1.73926.30969.11908 3.48126 2.12201 3.76752 1.98785.98547.03723 1.38818-1.40375.49414-1.86969zm-6.5517-3.71436-3.27539-1.85742c-.47949-.27295-1.09082-.10352-1.36328.37646-.27246.48047-.10352 1.09082.37695 1.36279l3.27539 1.85742c.47156.2702 1.08905.10822 1.36328-.37646.27246-.48047.10352-1.09082-.37695-1.36279zm-30.41406-1.85791-3.27539 1.85742c-.89276.46545-.49249 1.90765.49414 1.86963.27045.13898 3.47406-1.87512 3.76758-1.98773.48047-.27203.64941-.88239.37695-1.36285-.27344-.48096-.88477-.64893-1.36328-.37646zm15.45215-.52197h-3.76562c-1.31342.02173-1.31525 1.97797 0 2h3.76562c.55273 0 1-.44775 1-1s-.44727-1-1-1zm10.86719-1.43311-.53223-1.92773c-.36957-1.25928-2.25769-.74146-1.92773.53223l.53223 1.92773c.14496.53735.71222.8457 1.23047.69775.53223-.14697.84473-.69775.69727-1.22998zm-3.25-11.7627-.90527-3.27832c-.14648-.53271-.69629-.84033-1.23047-.69775-.53223.14697-.84473.69775-.69727 1.22998l.90527 3.27832c.14496.53735.71222.8457 1.23047.69775.53223-.14697.84473-.69775.69727-1.22998zm1.81152 6.55664-.90527-3.27832c-.14648-.5332-.69629-.83984-1.23047-.69775-.53223.14697-.84473.69775-.69727 1.22998l.90527 3.27832c.12207.44336.52441.73438.96289.73438.64825.00806 1.14868-.64124.96484-1.2666zm-3.62305-13.11328-.53223-1.92773c-.14648-.53271-.69434-.84131-1.23047-.69775-.53223.14697-.84473.69775-.69727 1.22998l.53223 1.92773c.14496.53735.71222.8457 1.23047.69775.53223-.14697.84473-.69775.69727-1.22998z" fill="url(#linear-gradient)"/></svg>