<?xml version="1.0" encoding="iso-8859-1"?>
<!-- Generator: Adobe Illustrator 19.0.0, SVG Export Plug-In . SVG Version: 6.00 Build 0)  -->
<svg version="1.1" id="Capa_1" xmlns="http://www.w3.org/2000/svg" xmlns:xlink="http://www.w3.org/1999/xlink" x="0px" y="0px"
	 viewBox="0 0 499.2 499.2" style="enable-background:new 0 0 499.2 499.2;" xml:space="preserve">
<g>
	<g>
		<path d="M481.493,128.747L370.773,17.6C359.453,6.314,344.092,0.016,328.107,0.107h-156.8C155.335,0.086,140,6.373,128.64,17.6
			L17.707,128.534C6.421,139.873,0.059,155.203,0,171.2V328c0.059,15.998,6.421,31.328,17.707,42.667L128.64,481.6
			c11.373,11.208,26.699,17.491,42.667,17.493h156.8c15.981,0.068,31.333-6.227,42.667-17.493l110.72-110.933
			c11.385-11.272,17.765-26.645,17.707-42.667V171.414C499.164,155.411,492.799,140.073,481.493,128.747z M477.44,328.214
			c0.059,10.42-4.095,20.422-11.52,27.733l-109.653,110.72c-7.321,7.254-17.214,11.318-27.52,11.307h-157.44
			c-10.566,0.273-20.795-3.727-28.373-11.093L32.64,356.374c-7.286-7.387-11.351-17.358-11.307-27.733V171.414
			c-0.216-10.596,3.862-20.83,11.307-28.373L142.933,32.534c7.579-7.367,17.808-11.366,28.373-11.093h156.8
			c10.532-0.207,20.696,3.874,28.16,11.307L466.56,143.04c7.384,7.339,11.531,17.323,11.52,27.733L477.44,328.214z"/>
	</g>
</g>
<g>
</g>
<g>
</g>
<g>
</g>
<g>
</g>
<g>
</g>
<g>
</g>
<g>
</g>
<g>
</g>
<g>
</g>
<g>
</g>
<g>
</g>
<g>
</g>
<g>
</g>
<g>
</g>
<g>
</g>
</svg>
