<?xml version="1.0" encoding="iso-8859-1"?>
<!-- Generator: Adobe Illustrator 19.0.0, SVG Export Plug-In . SVG Version: 6.00 Build 0)  -->
<svg version="1.1" id="Capa_1" xmlns="http://www.w3.org/2000/svg" xmlns:xlink="http://www.w3.org/1999/xlink" x="0px" y="0px"
	 viewBox="0 0 493.872 493.872" style="enable-background:new 0 0 493.872 493.872;" xml:space="preserve">
<g>
	<g>
		<path d="M485.55,166.832l-48.853-86.827c-5.138-8.843-12.49-16.196-21.333-21.333l-87.467-50.56
			c-9.078-5.445-19.495-8.252-30.08-8.107h-100.48c-10.49-0.148-20.82,2.582-29.867,7.893L80.643,58.032
			c-8.849,5.13-16.204,12.484-21.333,21.333l-51.2,87.68c-5.168,9.106-7.887,19.396-7.893,29.867v100.48
			c-0.046,10.41,2.678,20.644,7.893,29.653l50.347,87.253c5.191,8.802,12.531,16.142,21.333,21.333l87.04,50.347
			c9.058,5.097,19.26,7.813,29.653,7.893h100.48c10.468-0.026,20.753-2.744,29.867-7.893l87.253-50.347
			c8.802-5.191,16.142-12.531,21.333-21.333l50.133-87.253c5.317-9.055,8.116-19.366,8.107-29.867V196.912
			C493.574,186.357,490.783,176,485.55,166.832z M473.603,297.606c0,6.67-1.766,13.221-5.12,18.987l-50.133,87.253
			c-3.397,5.831-8.249,10.683-14.08,14.08l-87.04,50.133c-5.918,3.361-12.608,5.125-19.413,5.12h-100.48
			c-6.728-0.069-13.331-1.83-19.2-5.12L91.31,417.926c-5.898-3.384-10.821-8.234-14.293-14.08L26.67,316.379
			c-3.289-5.782-4.982-12.335-4.907-18.987v-100.48c0.005-6.804,1.768-13.492,5.12-19.413l50.133-86.827
			c3.349-5.869,8.211-10.731,14.08-14.08l87.253-50.347c5.767-3.328,12.33-5.024,18.987-4.907h100.48
			c6.753-0.126,13.406,1.648,19.2,5.12l87.253,50.133c5.775,3.304,10.563,8.091,13.867,13.867l50.133,86.827
			c3.444,5.972,5.281,12.734,5.333,19.627V297.606z"/>
	</g>
</g>
<g>
</g>
<g>
</g>
<g>
</g>
<g>
</g>
<g>
</g>
<g>
</g>
<g>
</g>
<g>
</g>
<g>
</g>
<g>
</g>
<g>
</g>
<g>
</g>
<g>
</g>
<g>
</g>
<g>
</g>
</svg>
