<svg id="line_gradient" height="512" viewBox="0 0 64 64" width="512" xmlns="http://www.w3.org/2000/svg" xmlns:xlink="http://www.w3.org/1999/xlink" data-name="line gradient"><linearGradient id="linear-gradient" gradientUnits="userSpaceOnUse" x1="6.153" x2="57.847" y1="31.973" y2="31.973"><stop offset="0" stop-color="#f3719c"/><stop offset="1" stop-color="#ff9275"/></linearGradient><path d="m57.84668 47.58203s-.99121-28.9126-.99121-28.9126c-.01807-.11348-.30209-.69583-.47462-.81689 0 0-23.85644-14.70362-23.85644-14.70362-.33243-.17192-.71627-.18132-1.04883.00005-.11646.11982-23.9013 14.6681-23.9802 14.80373-.21891.17318-.32316.44617-.35085.71673-.00001 0-.99122 28.91259-.99122 28.91259.00487.1872.38448.83388.55275.92919-.00001.00001 24.84764 12.3838 24.84764 12.3838.14496.04436.74725.04529.89258-.00001 0 .00001 24.84766-12.38378 24.84766-12.38378.16773-.09777.54877-.74284.55273-.9292zm-48.76324-27.11755 9.1474 5.68445-9.94012 17.4483zm12.21362 6.34363h21.40588l-10.70294 18.78735zm8.98206 19.80811h-21.40607l10.70294-18.78772 10.70312 18.78772zm-8.98224-21.80811 10.70312-18.78809 10.70312 18.78809h-21.40625zm9.70312 23.80811v9.76807l-19.599-9.76807zm13.42401-20.78772 10.70294 18.78772h-21.40607l10.70312-18.78772zm1.34515-1.67957 9.1474-5.68445.79272 23.13275zm-.9903-1.73834-9.97369-17.50732 19.15088 11.80377zm-15.58404-17.50733-9.97369 17.50732-9.17719-5.70355zm3.80518 41.71295h19.599l-19.599 9.76807z" fill="url(#linear-gradient)"/></svg>