<?xml version="1.0" encoding="iso-8859-1"?>
<!-- Generator: Adobe Illustrator 19.0.0, SVG Export Plug-In . SVG Version: 6.00 Build 0)  -->
<svg version="1.1" id="Capa_1" xmlns="http://www.w3.org/2000/svg" xmlns:xlink="http://www.w3.org/1999/xlink" x="0px" y="0px"
	 viewBox="0 0 495.86 495.86" style="enable-background:new 0 0 495.86 495.86;" xml:space="preserve">
<g>
	<g>
		<path d="M473.831,161.132l-194.56-141.44c-18.653-13.728-44.067-13.728-62.72,0l-194.56,141.44
			c-18.66,13.555-26.493,37.569-19.413,59.52l74.667,228.693c6.97,22.065,27.421,37.079,50.56,37.12h240.427
			c23.003-0.103,43.326-15.001,50.347-36.907l74.667-228.907C500.395,198.701,492.549,174.645,473.831,161.132z M473.831,214.038
			l-75.307,228.907c-4.481,12.869-16.667,21.451-30.293,21.333h-240.64c-13.627,0.118-25.812-8.464-30.293-21.333L22.845,214.038
			c-4.188-13.163,0.543-27.528,11.733-35.627l194.56-141.44c11.178-8.181,26.368-8.181,37.547,0l194.56,141.44
			c11.191,8.098,15.922,22.463,11.733,35.627H473.831z"/>
	</g>
</g>
<g>
</g>
<g>
</g>
<g>
</g>
<g>
</g>
<g>
</g>
<g>
</g>
<g>
</g>
<g>
</g>
<g>
</g>
<g>
</g>
<g>
</g>
<g>
</g>
<g>
</g>
<g>
</g>
<g>
</g>
</svg>
