<svg id="line_gradient" height="512" viewBox="0 0 64 64" width="512" xmlns="http://www.w3.org/2000/svg" xmlns:xlink="http://www.w3.org/1999/xlink" data-name="line gradient"><linearGradient id="linear-gradient" gradientUnits="userSpaceOnUse" x1="3.081" x2="61" y1="32" y2="32"><stop offset="0" stop-color="#f3719c"/><stop offset="1" stop-color="#ff9275"/></linearGradient><path d="m60.86621 47.37695-23.23828-40.30468c-.10151-.14063-.69586-.48318-.86621-.50097h-9.9043c-.36035 0-.69238.19336-.87012.50684l-22.85742 40.30467c-.06985.15652-.06347.84548.01075 1.00391 0 0 5.0791 8.55274 5.0791 8.55274.17969.30371.50684.48926.85938.48926h45.71484c.16913.00353.75205-.34559.85449-.48047 0 0 5.20606-8.55273 5.20606-8.55273.18945-.31152.19434-.70215.01172-1.01855zm-33.42676-38.80566h7.59088l-17.67389 30.6416c-.39196.63345.11929 1.5241.86624 1.49998-.00003.00002 17.42661.00002 17.42661.00002l3.71887 6.16309h-33.65142zm4.39124 25.81323 2.61182 4.32837h-5.19037zm-26.07361 14.49146h35.38257c.36035 0 .69336-.19434.87109-.50879.17676-.31348.17188-.69922-.01465-1.00781l-9.0047-14.92316 3.74298-6.2829 16.35559 29.27539h-43.44152zm49.07397 5.56921-17.19629-30.78015c-.1748-.3125-.50195-.50781-.85938-.5127-.32617.00488-.68945.18164-.87305.48828l-8.97864 15.07227h-6.9696l16.80737-29.13934 22.07642 38.28876-4.00684 6.58289z" fill="url(#linear-gradient)"/></svg>