<?xml version="1.0" encoding="iso-8859-1"?>
<!-- Generator: Adobe Illustrator 19.0.0, SVG Export Plug-In . SVG Version: 6.00 Build 0)  -->
<svg version="1.1" id="Capa_1" xmlns="http://www.w3.org/2000/svg" xmlns:xlink="http://www.w3.org/1999/xlink" x="0px" y="0px"
	 viewBox="0 0 496.095 496.095" style="enable-background:new 0 0 496.095 496.095;" xml:space="preserve">
<g>
	<g>
		<path d="M479.243,163.582c-9.148-9.433-21.151-15.587-34.151-17.508v0.427l-98.773-14.507l-44.587-89.6
			c-9.946-20.483-30.777-33.43-53.547-33.28c-22.775,0.023-43.584,12.905-53.76,33.28l-43.947,89.6l-99.2,14.507
			c-22.581,3.26-41.354,19.056-48.427,40.747c-6.943,21.536-0.978,45.146,15.36,60.8l71.467,69.973l-16.853,98.773
			c-5.655,32.621,16.205,63.65,48.826,69.306c3.391,0.588,6.826,0.883,10.268,0.881c9.683-0.031,19.208-2.449,27.733-7.04
			l88.533-46.72l88.533,46.933c20.155,10.211,44.309,8.403,62.72-4.693c18.623-13.205,27.934-35.984,23.893-58.453l-16.853-98.773
			l71.467-70.187C501.628,225.082,502.209,187.265,479.243,163.582z M474.417,210.896c-1.207,8.367-5.141,16.102-11.192,22.005
			l0,0.213l-75.52,73.813c-2.467,2.454-3.582,5.958-2.987,9.387l17.707,104.32c2.566,14.323-3.326,28.847-15.147,37.333
			c-11.97,8.495-27.666,9.646-40.747,2.987l-93.227-49.28c-3.143-1.632-6.884-1.632-10.027,0l-93.653,49.707
			c-12.908,6.785-28.553,5.626-40.32-2.987c-11.771-8.633-17.705-23.139-15.36-37.547l17.707-104.533
			c0.595-3.429-0.52-6.932-2.987-9.387l-75.733-74.027c-10.467-10.066-14.276-25.221-9.813-39.04
			c4.551-13.956,16.621-24.125,31.147-26.24l104.747-15.36c3.487-0.466,6.52-2.621,8.107-5.76l46.507-94.72
			c6.586-13.05,19.943-21.295,34.56-21.333c14.598-0.082,27.95,8.211,34.347,21.333l46.933,94.507
			c1.587,3.139,4.62,5.294,8.107,5.76l104.32,15.36C462.883,170.435,477.445,189.906,474.417,210.896z"/>
	</g>
</g>
<g>
</g>
<g>
</g>
<g>
</g>
<g>
</g>
<g>
</g>
<g>
</g>
<g>
</g>
<g>
</g>
<g>
</g>
<g>
</g>
<g>
</g>
<g>
</g>
<g>
</g>
<g>
</g>
<g>
</g>
</svg>
