<svg id="line_gradient" height="512" viewBox="0 0 64 64" width="512" xmlns="http://www.w3.org/2000/svg" xmlns:xlink="http://www.w3.org/1999/xlink" data-name="line gradient"><linearGradient id="linear-gradient" gradientUnits="userSpaceOnUse" x1="4.465" x2="62.465" y1="34.85" y2="34.85"><stop offset="0" stop-color="#f3719c"/><stop offset="1" stop-color="#ff9275"/></linearGradient><path d="m50.31348 29.34863-16.36133-9.13867c-.30774-.1554-.66681-.15662-.9751 0l-16.36084 9.13867c-.67035.34888-.67578 1.39716.00006 1.74609 3.50745 1.95917 12.73798 7.1142 16.36078 9.1377.30328.16931.67212.16949.9751 0 .00482-.00092 10.76141-6.01147 10.76581-6.01263l5.59552-3.12506c.31641-.17676.5127-.51074.5127-.87305s-.19629-.69629-.5127-.87305zm-31.15869.87305 13.31006-7.43457v3.8584l-9.76031 5.55872-3.54974-1.98254zm14.31006 7.99219-8.71942-4.86981 8.71942-4.96637 8.71979 4.96637zm10.76074-6.00964-9.76074-5.55872v-3.85846l13.31055 7.43463-3.5498 1.98254zm18.16956-2.32837c-.07428-.21112-.22064-.38696-.40881-.50769l-28-17.12598c-.32031-.19531-.72266-.19531-1.04346 0l-28.00001 17.12597c-.28998.18304-.46979.51062-.47803.85352v9.1377c0 .34668.18018.66895.47559.85156 0 0 28.17535 17.32288 28.26379 17.35864.26538.07806.54938.02118.78503-.11255l28-17.24609c.2959-.18262.47559-.50488.47559-.85156v-9.1377c0-.12103-.02881-.2359-.0697-.34583zm-29.9303 24.93958-26.00001-16.01466v-6.79474l26 15.90179v6.90759zm1-8.64062-26.0835-15.95314 26.0835-15.9541 26.08301 15.9541-26.08301 15.95312zm27-7.37402-26 16.01465v-6.9079l26-15.90179z" fill="url(#linear-gradient)"/></svg>