<svg id="line_gradient" height="512" viewBox="0 0 64 64" width="512" xmlns="http://www.w3.org/2000/svg" xmlns:xlink="http://www.w3.org/1999/xlink" data-name="line gradient"><linearGradient id="linear-gradient" gradientUnits="userSpaceOnUse" x1="6.089" x2="57.911" y1="32" y2="32"><stop offset="0" stop-color="#f3719c"/><stop offset="1" stop-color="#ff9275"/></linearGradient><path d="m57.91113 47.2002s0-26.51953 0-26.51953c-.00003-.14635-.2967-.72177-.44336-.83105 0 0-24.91113-16.68067-24.91113-16.68067-.33789-.22559-.77539-.22559-1.11328 0 0 0-24.91113 16.68066-24.91113 16.68066-.2673.1905-.4378.5003-.44336.83106v26.51953c-.00063.37104.22195.71295.54298.8911-.00001 0 24.91112 12.79835 24.91112 12.79835.2866.14726.62746.14718.91406 0 0 0 24.91113-12.79834 24.91113-12.79834.16455-.09727.54674-.71468.54297-.89111zm-49.09086-.99856s14.64494-25.39811 14.64494-25.39811c.06305.49152.46613.87714.97522.87714h2.86035c1.31717-.01908 1.31083-1.98113-.00004-2-.18597.01488-3.12945-.06236-3.23124.07484.00002.00005 7.9305-13.75355 7.9305-13.75355 4.06253 7.06505 12.2335 21.20204 16.27209 28.22018-.4616-.26108-1.04711-.12381-1.33263.32767l-1.9082 3.01318c-.68724 1.1147.9651 2.17204 1.68947 1.07027-.00002.00004 1.90818-3.01314 1.90818-3.01314.10681-.16852.13867-.35559.13727-.5412l6.41351 11.12274s-38.13021.00726-46.35942-.00002zm-.7314-24.52097h1.70117c.55273 0 1-.44775 1-1 0-.39636-.23505-.73193-.56946-.89368l18.76868-12.56739-7.20868 12.50153c.03452-.08421-2.98922-.02266-3.06089-.04049-1.31704.02442-1.31265 1.97736.00008 2.00003-.00004 0 1.93087 0 1.93087 0l-5.43494 9.42554-.94812-1.52563c-.29102-.46875-.9082-.61426-1.37695-.32129-.46973.2915-.61328.90771-.32227 1.37695.23245.28448 1.21567 2.19472 1.59237 2.29939.00004-.00001-6.07186 10.53008-6.07186 10.53008v-21.78503zm41.81384 11.36505c.25311-.05438.48578-.20294.63538-.43878l1.90918-3.01318c.68475-1.12509-.9691-2.1681-1.68947-1.07028.00002-.00003-1.81291 2.86117-1.81291 2.86117l-5.59552-9.70398h1.11157c.55273 0 1-.44775 1-1s-.44727-1-1-1h-2.26483l-7.18536-12.46106 18.76868 12.56738c-.94749.42822-.61627 1.90923.43059 1.89367-.00004 0 1.70113 0 1.70113 0v21.78503l-6.00842-10.41998zm-17.90271 25.83026-20.77673-10.67432h12.26428l1.51929 2.44336c.18945.30469.5166.47217.85059.47217.75932.02006 1.27065-.88868.84861-1.52784.00003 0-.86283-1.38769-.86283-1.38769h12.44727l-.89594 1.41406c-.43293.6382.08345 1.55566.84378 1.53515.33103.00001.65525-.16454.84568-.46483l1.5741-2.48438h12.11865l-20.77673 10.67432zm1.02051-39.19531h-2.86035c-1.31367.02184-1.31502 1.97799.00004 2-.00004 0 2.86031 0 2.86031 0 1.31367-.02184 1.31502-1.97799 0-2zm-20.02051 2h2.86035c1.31367-.02184 1.31502-1.97799-.00004-2h-2.86031c-1.31367.02184-1.31502 1.97799 0 2zm25.74121-2h-2.86035c-1.31367.02184-1.31502 1.97799.00004 2-.00004 0 2.86031 0 2.86031 0 1.31367-.02184 1.31502-1.97799 0-2zm11.44043 0h-2.86035c-1.31367.02184-1.31502 1.97799.00004 2-.00004 0 2.86031 0 2.86031 0 1.31367-.02184 1.31502-1.97799 0-2zm-21.6875 32.78516c-.71241-1.10323-2.37394-.07342-1.69919 1.0557-.00002-.00004 1.30076 2.09225 1.30076 2.09225.18945.30469.5166.47217.85059.47217.75739.01981 1.27204-.88851.8486-1.52784.00003 0-1.30075-2.09228-1.30075-2.09228zm-9.27441-14.91992-1.87207-3.01074c-.29199-.47021-.90723-.6123-1.37793-.32129-.46875.2915-.6123.9082-.32129 1.37695l1.87207 3.01074c.70036 1.10865 2.383.05584 1.69922-1.05566zm1.87109 3.01074c-.71151-1.10292-2.37424-.07386-1.69919 1.0557-.00002-.00004 1.87205 3.01119 1.87205 3.01119.18945.30469.5166.47217.85059.47217.75732.0197 1.27209-.88843.8486-1.52784.00003 0-1.87204-3.01122-1.87204-3.01122zm-8.73438-14.04932-1.30078-2.0918c-.7122-1.10329-2.37406-.07323-1.69919 1.0557-.00002-.00004 1.30076 2.09176 1.30076 2.09176.70056 1.10885 2.38289.05565 1.69922-1.05566zm42.38867-2.40869c-.46777-.29736-1.08398-.15674-1.37988.30957l-.96191 1.51904c-.2959.4668-.15723 1.08447.30957 1.37988.45973.29319 1.08224.16044 1.37988-.30957 0 0 .96191-1.51904.96191-1.51904.2959-.4668.15723-1.08447-.30957-1.37988zm-17.87891 28.2207c-.46777-.29639-1.08496-.1582-1.37988.30957l-1.25879 1.98633c-.2959.46631-.15723 1.08398.30957 1.37988.45988.29262 1.08223.16114 1.37988-.30957 0 0 1.25879-1.98633 1.25879-1.98633.2959-.46631.15723-1.08398-.30957-1.37988zm7.63574-12.05273c-.46777-.2959-1.08398-.15674-1.37988.30957l-1.90918 3.01318c-.2959.46631-.15723 1.08447.30957 1.37988.45988.29282 1.08218.16066 1.37988-.30957 0 0 1.90918-3.01318 1.90918-3.01318.2959-.46631.15723-1.08447-.30957-1.37988z" fill="url(#linear-gradient)"/></svg>