<?xml version="1.0" encoding="iso-8859-1"?>
<!-- Generator: Adobe Illustrator 19.0.0, SVG Export Plug-In . SVG Version: 6.00 Build 0)  -->
<svg version="1.1" id="Capa_1" xmlns="http://www.w3.org/2000/svg" xmlns:xlink="http://www.w3.org/1999/xlink" x="0px" y="0px"
	 viewBox="0 0 490.955 490.955" style="enable-background:new 0 0 490.955 490.955;" xml:space="preserve">
<g>
	<g>
		<path d="M483.024,187.284L417.958,76.778c-6.968-12.224-18.098-21.537-31.36-26.24L265.211,6.164
			c-13.154-4.392-27.379-4.392-40.533,0L103.291,50.538c-13.243,4.736-24.362,14.04-31.36,26.24l-64,111.573
			c-6.953,12.216-9.442,26.47-7.04,40.32l22.4,126.933c2.622,14.045,10.19,26.685,21.333,35.627l98.987,82.987
			c10.492,8.757,23.669,13.651,37.333,13.867h128c14.055-0.047,27.646-5.03,38.4-14.08l98.773-82.987
			c11.1-8.889,18.664-21.446,21.333-35.413l22.613-128C492.466,213.755,489.977,199.501,483.024,187.284z M468.518,224.191
			l-22.4,128c-1.592,8.926-6.275,17.007-13.227,22.827l-98.773,82.773c-6.889,5.746-15.563,8.914-24.533,8.96h-128.64
			c-8.977-0.01-17.663-3.183-24.533-8.96l-99.627-82.773c-6.901-5.83-11.512-13.918-13.013-22.827l-22.4-128
			c-1.558-8.933,0.025-18.129,4.48-26.027l64-111.573c4.487-7.938,11.681-13.996,20.267-17.067l121.173-44.16
			c4.331-1.452,8.873-2.173,13.44-2.133c4.425-0.008,8.822,0.713,13.013,2.133l121.813,45.227
			c8.491,3.028,15.609,9.01,20.053,16.853l64,111.573C468.019,206.623,469.747,215.487,468.518,224.191z"/>
	</g>
</g>
<g>
</g>
<g>
</g>
<g>
</g>
<g>
</g>
<g>
</g>
<g>
</g>
<g>
</g>
<g>
</g>
<g>
</g>
<g>
</g>
<g>
</g>
<g>
</g>
<g>
</g>
<g>
</g>
<g>
</g>
</svg>
