<svg id="line_gradient" height="512" viewBox="0 0 64 64" width="512" xmlns="http://www.w3.org/2000/svg" xmlns:xlink="http://www.w3.org/1999/xlink" data-name="line gradient"><linearGradient id="linear-gradient" gradientUnits="userSpaceOnUse" x1="2.911" x2="60.995" y1="32.05" y2="32.05"><stop offset="0" stop-color="#f3719c"/><stop offset="1" stop-color="#ff9275"/></linearGradient><path d="m23.73242 25.14453 3.31348-.98926c.5293-.15918 1.08691.14258 1.24414.67188.1582.5293-.14258 1.08594-.67188 1.24414-.04285-.00226-3.71027 1.1485-3.59961 1.03125-1.12274.01642-1.37952-1.64392-.28613-1.95801zm-12.96484 5.91406c-.11005.11713 3.55548-1.03345 3.59863-1.03125.5293-.1582.83008-.71484.67188-1.24414-.15723-.52832-.71387-.83008-1.24414-.67188l-3.3125.98926c-1.09338.31409-.83661 1.97443.28613 1.95801zm6.62598-1.97852c-.11011.11694 3.55548-1.03247 3.59863-1.03027.5293-.15723.83008-.71484.67188-1.24414-.15723-.5293-.71289-.83008-1.24414-.67188l-3.3125.98828c-1.09338.31293-.83661 1.97473.28613 1.95801zm43.40918 3.73926s-28.29358 28.0553-28.41797 28.10345c-.3653.16138-.80811.05878-1.08887-.21283 0 0-28.09863-27.89062-28.09857-27.89062-.3819-.38342-.38165-1.03265-.00299-1.41699l28.09863-28.10937c.26697-.24463 1.10193-.26752 1.41406 0l28.09863 28.10938c.18939.19525.30896 1.14539-.00293 1.41699zm-29.80273 8.84845-23.47754-7.37299 23.47754 23.30383v-15.93085zm0-35.25275-24.34675 24.35615c.3476.28522.42261.84198.18884 1.21326l24.1579 7.58685v-14.50977l-.79199.23633c-.51471.15778-1.08838-.13831-1.24414-.67188-.1582-.5293.14258-1.08691.67188-1.24414l1.36426-.4071v-16.55969zm25.47754 27.87976-23.47754 7.37299v15.93085l23.47754-23.30383zm.86896-3.5238-24.34651-24.35595v16.55969l1.36426.4071c.5293.15723.83008.71484.67188 1.24414-.12891.43359-.52734.71387-.95801.71387-.2226.0116-.85095-.22144-1.07812-.27832v14.50977l24.1579-7.58685c-.23047-.37024-.16235-.9292.1886-1.21344zm-10.45392-3.64893-3.3125-.98828c-1.26624-.35583-1.82526 1.5199-.5722 1.91602.05048.00159 3.69519 1.1416 3.59857 1.03027 1.1214.01648 1.38086-1.64478.28613-1.95801zm-6.625-1.97754-3.31348-.98926c-1.26581-.35675-1.8252 1.51935-.5722 1.91602.05011.00153 3.69672 1.14282 3.59955 1.03125 1.1214.01617 1.38086-1.64362.28613-1.95801zm13.25098 3.95605-3.3125-.98926c-1.26678-.35486-1.82471 1.5191-.5722 1.91602.05048.00159 3.69513 1.14276 3.59857 1.03125 1.1214.01617 1.38086-1.64362.28613-1.95801z" fill="url(#linear-gradient)"/></svg>