<?xml version="1.0" encoding="iso-8859-1"?>
<!-- Generator: Adobe Illustrator 19.0.0, SVG Export Plug-In . SVG Version: 6.00 Build 0)  -->
<svg version="1.1" id="Capa_1" xmlns="http://www.w3.org/2000/svg" xmlns:xlink="http://www.w3.org/1999/xlink" x="0px" y="0px"
	 viewBox="0 0 492.375 492.375" style="enable-background:new 0 0 492.375 492.375;" xml:space="preserve">
<g>
	<g>
		<path d="M452.481,189.974l-37.76-13.44l17.067-36.907c13.401-30.274-0.277-65.68-30.551-79.081
			c-15.402-6.818-32.962-6.842-48.383-0.065l-36.267,17.28l-13.44-37.973C291.99,8.742,257.778-7.381,226.732,3.776
			c-16.776,6.029-29.982,19.235-36.011,36.011l-14.507,38.187l-36.693-17.493C109.511,46.779,74.076,60,60.374,90.009
			c-7.194,15.757-7.194,33.861,0,49.618l17.28,36.267l-38.187,13.44c-23.827,8.795-39.602,31.562-39.467,56.96
			c-0.092,25.185,15.732,47.682,39.467,56.107l37.973,13.44l-17.067,37.12c-13.702,30.01-0.481,65.445,29.529,79.147
			c15.757,7.194,33.861,7.194,49.618,0l36.48-17.28l13.653,37.76c11.157,31.046,45.37,47.168,76.416,36.011
			c16.776-6.029,29.982-19.235,36.011-36.011l13.44-37.973l36.267,17.28c29.762,14.233,65.426,1.644,79.659-28.117
			c7.672-16.043,7.797-34.671,0.341-50.816l-17.28-36.693l37.76-13.44c24.094-8.313,40.221-31.045,40.107-56.533
			C492.114,221.041,476.217,198.598,452.481,189.974z M445.441,282.561l-49.067,17.28c-5.562,1.941-8.498,8.023-6.557,13.585
			c0.109,0.313,0.233,0.62,0.37,0.921l21.333,47.36c8.988,19.209,0.702,42.067-18.507,51.055
			c-10.364,4.849-22.35,4.824-32.693-0.068l-46.933-22.4c-2.781-1.25-5.965-1.25-8.747,0c-2.771,1.133-4.939,3.378-5.973,6.187
			l-17.493,49.067c-7.137,19.971-29.113,30.374-49.083,23.237c-10.836-3.873-19.364-12.401-23.237-23.237l-16.427-49.92
			c-1.994-5.543-8.104-8.421-13.647-6.427c-0.365,0.131-0.724,0.283-1.073,0.453l-46.933,23.253
			c-19.209,8.988-42.067,0.702-51.055-18.507c-4.849-10.364-4.824-22.35,0.068-32.693l21.333-47.36
			c2.833-5.165,0.943-11.649-4.222-14.482c-0.015-0.008-0.03-0.016-0.045-0.024l-50.133-17.28
			c-15.321-5.45-25.51-20.005-25.387-36.267c-0.059-16.241,10.107-30.763,25.387-36.267l50.133-17.28
			c5.578-1.893,8.566-7.95,6.673-13.529c-0.138-0.406-0.3-0.804-0.486-1.191l-21.333-46.933
			c-8.648-19.365,0.04-42.073,19.405-50.721c9.395-4.196,20.081-4.445,29.662-0.693l46.933,22.613
			c5.235,2.702,11.669,0.648,14.371-4.587c0.126-0.244,0.243-0.493,0.349-0.746l17.493-49.067
			c5.14-15.701,19.746-26.355,36.267-26.453c16.276,0.037,30.781,10.276,36.267,25.6l17.28,49.92
			c1.035,2.809,3.202,5.054,5.973,6.187c2.787,1.224,5.959,1.224,8.747,0l46.933-22.4c19.499-8.636,42.306,0.17,50.942,19.669
			c4.319,9.751,4.412,20.855,0.258,30.678l-21.333,46.933c-2.586,5.293-0.392,11.68,4.901,14.267
			c0.349,0.171,0.707,0.322,1.073,0.453l48.853,17.28c14.993,5.797,24.9,20.192,24.96,36.267
			C471.132,262.611,460.846,277.183,445.441,282.561z"/>
	</g>
</g>
<g>
</g>
<g>
</g>
<g>
</g>
<g>
</g>
<g>
</g>
<g>
</g>
<g>
</g>
<g>
</g>
<g>
</g>
<g>
</g>
<g>
</g>
<g>
</g>
<g>
</g>
<g>
</g>
<g>
</g>
</svg>
