<svg id="line_gradient" height="512" viewBox="0 0 64 64" width="512" xmlns="http://www.w3.org/2000/svg" xmlns:xlink="http://www.w3.org/1999/xlink" data-name="line gradient"><linearGradient id="linear-gradient" gradientUnits="userSpaceOnUse" x1="7.151" x2="56.834" y1="32" y2="32"><stop offset="0" stop-color="#f3719c"/><stop offset="1" stop-color="#ff9275"/></linearGradient><path d="m14.65332 40.4165-2.22266 3.95703c-.27209.48572-.88959.65027-1.36182.38184-.48145-.27051-.65283-.87988-.38232-1.36133l2.22314-3.95703c.27051-.48242.88086-.6543 1.36182-.38184.48145.27051.65283.87988.38184 1.36133zm3.65283-8.88086c0-.55225-.44775-1-1-1s-1 .44775-1 1v1.85516l-.90967 1.61945c-.27051.48145-.09912 1.09131.38232 1.36182.47253.2674 1.08972.10358 1.36182-.38232l.75049-1.33643c.00098.00006 1.53668.0014 1.5376.00146.55176 0 .99951-.44727 1-.99902.00049-.55225-.44678-1.00049-.99902-1.00098l-1.12354-.00104zm21.69678 1.13477-3.39453-.00293c-.55206-.00055-1.00104.4469-1.00098.99902 0 .55225.44727 1.00049.99902 1.00098.00024.00043 3.39514.00262 3.39551.00293 1.31342-.02203 1.31458-1.97632.00098-2zm-16.97266 1.98682 3.39404.00244c.55194.00024 1-.44708 1.00049-.99951.00049-.55225-.44678-1-.99951-1.00049-.00018-.00018-3.39429-.00232-3.39453-.00244-1.3125.02197-1.31592 1.97699-.00049 2zm24.73633-3.09961c-.02179-1.31329-1.97797-1.31537-2 0v1.11676c-.00098 0-1.12213-.00104-1.12305-.00104-1.3125.02222-1.31555 1.9765-.00092 2-.00006 0 1.53607.00146 1.53607.00146l.74414 1.3374c.64624 1.14099 2.37775.16992 1.74799-.97272.00006.00006-.90424-1.62427-.90424-1.62427v-1.8576zm3.69629 12.60742c.64655 1.14117 2.37756.1698 1.74799-.97272.00006.00006-2.20404-3.95892-2.20404-3.95892-.65741-1.13654-2.36786-.18787-1.74805.97266zm5.37109-23.85938v29.65253c-.03595.16998-.42749.82391-.6123.92218l-23.85596 10.0415c-.24603.10651-.53851.10089-.77863-.00134l-23.8089-10.07599c-.18707-.09711-.57764-.75409-.6123-.92389.03711-.0368-.05621-29.67249.00958-29.69812.0188-.15112.06616-.3028.11847-.44275l9.14014-16.26953c.11438-.20831.75195-.51044.87305-.51025l29.46045.02197c.35284.01135.70062.20135.87305.51367l9.06738 16.28369c.03003.08679.1131.41315.12598.48633zm-25.85645 10.7041-12.67139-5.36285s0 1.25153 0 1.25146c-.02246 1.31036-1.97467 1.31964-2 .00006v-2.09796l-7.14014-3.02191v25.31476c.17889-.0072.35999.01599.52734.11029.48145.27051.65283.88037.38232 1.36182l-.49005.87244 21.39191 9.05304v-23.82745s-1.15869-.00085-1.15863-.00085c-1.31097-.02283-1.31793-1.97601.00092-2l1.15771.00085v-1.65369zm14.79626-7.55475c.01984-.53467.45276-.96429.9928-.96429.25879 0 .48938.10461.66687.26569l6.98352-2.93951s-7.14581-12.83344-7.14581-12.8335c-.62415.42859-1.52905-.08936-1.50458-.84375v-1.11847l-27.46045-.02039s0 1.11639 0 1.11633c.0199.75598-.88507 1.2796-1.51312.83795l-7.20758 12.82959 7.02155 2.97162c.58325-.61829 1.73291-.15552 1.69916.71246-.01239.0108 13.67261 5.79108 13.67236 5.79297l13.79529-5.8067zm9.06018-1.64337-7.06738 2.97485s0 2.13391 0 2.13385c-.02069 1.31055-1.97754 1.31873-2 .00006v-1.29211l-12.78906 5.38324v1.65332s.2373.00018.23724.00018c1.30865.02228 1.31848 1.97662-.00092 2-.00092 0-.23535-.00018-.23633-.00018v23.82916l21.4397-9.02429-.48755-.87598c-.26855-.48242-.09473-1.09131.3877-1.35986.16467-.09161.34161-.11487.5166-.10919zm-37.52782-13.0631c-.55225 0-1 .44775-1 1v3.43018c0 .55225.44775 1 1 1s1-.44775 1-1v-3.43018c0-.55225-.44775-1-1-1zm0 6.85986c-.55225 0-1 .44775-1 1v3.43018c0 .55225.44775 1 1 1s1-.44775 1-1v-3.43018c0-.55225-.44775-1-1-1zm29.46045-1.40771c.55273 0 1-.44775 1-1v-3.43018c0-.55225-.44727-1-1-1s-1 .44775-1 1v3.43018c0 .55225.44727 1 1 1zm0 6.85986c.55273 0 1-.44775 1-1v-3.43018c0-.55225-.44727-1-1-1s-1 .44775-1 1v3.43018c0 .55225.44727 1 1 1z" fill="url(#linear-gradient)"/></svg>