<?xml version="1.0" encoding="iso-8859-1"?>
<!-- Generator: Adobe Illustrator 19.0.0, SVG Export Plug-In . SVG Version: 6.00 Build 0)  -->
<svg version="1.1" id="Capa_1" xmlns="http://www.w3.org/2000/svg" xmlns:xlink="http://www.w3.org/1999/xlink" x="0px" y="0px"
	 viewBox="0 0 482.141 482.141" style="enable-background:new 0 0 482.141 482.141;" xml:space="preserve">
<g>
	<g>
		<path d="M463.149,194.781l-176-175.787c-25.796-24.598-66.364-24.598-92.16,0L19.203,194.781
			c-12.427,12.179-19.359,28.894-19.2,46.293c0.015,17.073,6.85,33.432,18.987,45.44l175.787,176.213
			c25.57,25.155,66.59,25.155,92.16,0l175.787-176.213c12.293-11.937,19.286-28.305,19.413-45.44
			C482.351,223.706,475.498,206.997,463.149,194.781z M448.003,271.581L272.216,447.795c-17.397,16.311-44.47,16.311-61.867,0
			L34.136,271.368c-8.143-7.982-12.753-18.891-12.8-30.293c-0.184-11.698,4.443-22.958,12.8-31.147L209.923,34.141
			c17.509-16.234,44.571-16.234,62.08,0l175.787,175.787c8.435,8.152,13.142,19.417,13.013,31.147
			C460.813,252.551,456.199,263.548,448.003,271.581z"/>
	</g>
</g>
<g>
</g>
<g>
</g>
<g>
</g>
<g>
</g>
<g>
</g>
<g>
</g>
<g>
</g>
<g>
</g>
<g>
</g>
<g>
</g>
<g>
</g>
<g>
</g>
<g>
</g>
<g>
</g>
<g>
</g>
</svg>
