<svg id="line_gradient" height="512" viewBox="0 0 64 64" width="512" xmlns="http://www.w3.org/2000/svg" xmlns:xlink="http://www.w3.org/1999/xlink" data-name="line gradient"><linearGradient id="linear-gradient" gradientUnits="userSpaceOnUse" x1="3.01" x2="60.949" y1="32.007" y2="32.007"><stop offset="0" stop-color="#f3719c"/><stop offset="1" stop-color="#ff9275"/></linearGradient><path d="m14.88623 39.67041c.16797.52588-.12207 1.08887-.64795 1.25732-.00183-.01514-4.49976 1.48425-4.31934 1.33252-1.11139.01709-1.38147-1.62158-.30469-1.95312l4.01465-1.28467c.52686-.16748 1.08887.12158 1.25732.64795zm39.49854.63672-4.01465-1.28467c-1.26007-.37744-1.85394 1.48364-.60938 1.90527-.00366-.00702 4.48755 1.47327 4.31927 1.33252.42389 0 .81647-.271.95221-.6958.16895-.52588-.12109-1.08887-.64746-1.25732zm-24.69727-6.42188-4.01465 1.28418c-1.07678.33154-.8067 1.97021.30469 1.95312-.17004.14911 4.31152-1.34576 4.31934-1.33203.52588-.16846.81592-.73145.64795-1.25732-.16846-.52588-.73047-.81592-1.25732-.64795zm8.63861 1.28418c.00006 0-4.01459-1.28467-4.01459-1.28467-1.25946-.38037-1.85376 1.48444-.60938 1.90527-.00366-.00702 4.48755 1.47327 4.31927 1.33252 1.10956.01691 1.38342-1.6217.30469-1.95312zm22.49323 8.55713-10.37402 14.83594c-.11908.17993-.7113.42694-.82245.42676h-35.09144c-.32001-.00653-.62982-.15961-.81854-.42139 0 0-10.65271-15.0351-10.67065-15.15601-.08191-.2962-.00165-.60822.15942-.8606 0 0 28-37.14258 28-37.14252.42993-.52441 1.17365-.50043 1.59668-.00006l28.00049 37.14258c.19641.24329.19641.91687.02051 1.17529zm-41.01221-4.58032c-.23041.05481-1.63995.57379-1.85883.54517-1.10962.01685-1.38373-1.62061-.30475-1.95312l2.95459-.94543 8.49023-25.25867s-22.71386 30.13036-22.71392 30.13036c.7644.37189.66827 1.59644-.16498 1.83203l-.60291.19287 8.60004 12.11853 5.60052-16.66174zm28.42352 17.84302s-6.29547-18.56519-6.29547-18.56525c-.61249-.11493-1.05768-.70392-.8512-1.32245.05219-.16339.15051-.29327.26556-.4046l-9.34558-27.55969-9.28296 27.617c.46521.51886.2204 1.4057-.45343 1.60461-.21527-.09998-6.25275 18.59845-6.34821 18.63037h32.31128zm10.17212-13.29669s-.61273-.19598-.61267-.19598c-.82983-.23358-.93298-1.46179-.16553-1.83258l-22.68121-30.08783 8.56244 25.25024s2.84967.91187 2.84961.91187c1.0769.33099.80731 1.96997-.30463 1.95312-.2215.02496-1.50732-.44867-1.74609-.50909l5.63422 16.61499 8.46387-12.10474zm-26.40277-17.02655c-.55225 0-1 .44775-1 1v3c0 .55225.44775 1 1 1s1-.44775 1-1v-3c0-.55225-.44775-1-1-1zm0-6.95801c-.55225 0-1 .44775-1 1v3.479c0 .55225.44775 1 1 1s1-.44775 1-1v-3.479c0-.55225-.44775-1-1-1zm0-6.479c-.55225 0-1 .44775-1 1v3c0 .55225.44775 1 1 1s1-.44775 1-1v-3c0-.55225-.44775-1-1-1z" fill="url(#linear-gradient)"/></svg>