<?xml version="1.0" encoding="iso-8859-1"?>
<!-- Generator: Adobe Illustrator 19.0.0, SVG Export Plug-In . SVG Version: 6.00 Build 0)  -->
<svg version="1.1" id="Capa_1" xmlns="http://www.w3.org/2000/svg" xmlns:xlink="http://www.w3.org/1999/xlink" x="0px" y="0px"
	 viewBox="0 0 491.947 491.947" style="enable-background:new 0 0 491.947 491.947;" xml:space="preserve">
<g>
	<g>
		<path d="M331.307,0H160.64C72.115,0.467,0.467,72.115,0,160.64v170.667c0.467,88.525,72.115,160.174,160.64,160.64h170.667
			c88.525-0.467,160.173-72.115,160.64-160.64V160.64C491.48,72.115,419.832,0.467,331.307,0z M470.613,331.307
			c-0.466,76.743-62.563,138.841-139.307,139.307H160.64c-76.791-0.35-138.956-62.515-139.307-139.307V160.64
			C21.799,83.897,83.897,21.799,160.64,21.333h170.667c76.743,0.466,138.841,62.564,139.307,139.307V331.307z"/>
	</g>
</g>
<g>
</g>
<g>
</g>
<g>
</g>
<g>
</g>
<g>
</g>
<g>
</g>
<g>
</g>
<g>
</g>
<g>
</g>
<g>
</g>
<g>
</g>
<g>
</g>
<g>
</g>
<g>
</g>
<g>
</g>
</svg>
