<svg id="line_gradient" height="512" viewBox="0 0 64 64" width="512" xmlns="http://www.w3.org/2000/svg" xmlns:xlink="http://www.w3.org/1999/xlink" data-name="line gradient"><linearGradient id="linear-gradient" gradientUnits="userSpaceOnUse" x1="2.937" x2="61.061" y1="32" y2="32"><stop offset="0" stop-color="#f3719c"/><stop offset="1" stop-color="#ff9275"/></linearGradient><path d="m41.56836 28.72656s2.6377.94141 2.63763.94141c1.23602.46503.56439 2.30609-.67181 1.88281l-2.6377-.94141c-1.23004-.45984-.57373-2.30927.67188-1.88281zm-16.16309 1c.11188.07764 2.79486-.95673 2.97461-1.00098 1.22992-.46173.57208-2.3067-.67291-1.88281.00006 0-2.63812.94238-2.63812.94238-1.04865.3595-.7547 1.96021.33643 1.94141zm-5.27539 1.88281c.11084.07751 2.79456-.95593 2.97363-1 1.23077-.46191.57239-2.3053-.67194-1.88281.00006 0-2.63763.94141-2.63763.94141-1.04913.35931-.75555 1.96021.33594 1.94141zm15.49121-2.88379 2.6377.94141c1.23621.42328 1.90784-1.41779.67181-1.88281.00006 0-2.63763-.94141-2.63763-.94141-1.2453-.42511-1.90222 1.42236-.67188 1.88281zm-3.62109-13.35449c-.55225 0-1 .44727-1 1v1.5c0 .55273.44775 1 1 1s1-.44727 1-1v-1.5c0-.55273-.44775-1-1-1zm-1-5.37891v3.18945c.02179 1.31354 1.97797 1.31506 2-.00006v-3.18939c-.02179-1.3136-1.97797-1.31512-2 0zm-20.31744 37.33106c.00006 0-2.79926.82812-2.79926.82812-1.09613.31116-.84003 1.97546.2832 1.95898.07434.06506 2.94037-.84387 3.0835-.86914 1.25385-.39307.69855-2.27295-.56744-1.91797zm11.19727-3.31055c.00006 0-2.79926.82812-2.79926.82812-1.09607.31232-.84003 1.97516.2832 1.95898.07434.06506 2.94037-.84387 3.0835-.86914 1.25378-.39185.69897-2.27338-.56744-1.91797zm-5.59863 1.65527c.00006 0-2.79926.82812-2.79926.82812-1.09613.31116-.84003 1.97546.2832 1.95898.07434.06506 2.94037-.84387 3.0835-.86914 1.25391-.39185.69867-2.27332-.56744-1.91797zm11.19727-3.31055c.00006 0-2.79926.82812-2.79926.82812-1.09613.31116-.84003 1.97546.2832 1.95898.07434.06506 2.94037-.84387 3.0835-.86914 1.25372-.39307.69891-2.27307-.56744-1.91797zm11.84283.82812-2.79883-.82812c-1.26636-.35492-1.82196 1.52405-.5683 1.91797.15198.02802 2.99957.93188 3.08295.86914 1.12335.01605 1.38-1.6463.28418-1.95898zm13.42877 6.05566c.15198.02802 2.99957.93188 3.08295.86914 1.12335.01605 1.38-1.6463.28418-1.95898l-2.79883-.82812c-1.26605-.35278-1.8222 1.52338-.5683 1.91797zm-5.59863-1.65527c.15198.02802 2.99957.93188 3.08295.86914 1.12335.01605 1.38-1.6463.28418-1.95898l-2.79883-.82812c-1.26599-.35352-1.82227 1.52338-.5683 1.91797zm-2.23151-2.74512-2.79883-.82812c-1.26666-.35291-1.82184 1.52356-.5683 1.91797.15198.02802 2.99957.93188 3.08295.86914 1.12335.01605 1.38-1.6463.28418-1.95898zm15.98535 4.97168c.1557.30096.08997 1.20819-.4693 1.47327-.04309.02045-28.07043 9.63654-28.11127 9.66052-.21063.07172-.43878.07184-.64948.00006-.01141-.03992-28.12012-9.599-28.10919-9.65936-.59338-.21423-.78857-.96289-.4718-1.47449l11.75037-17.8125s-11.75037-17.81248-11.75031-17.81248c-.35394-.53302-.08118-1.2821.51019-1.49707l28.0708-9.63672c.20996-.07227.43848-.07227.64941 0 0 0 28.0708 9.63672 28.07074 9.63672.59985.20911.85522.97174.50983 1.49707l-11.74939 17.8125 11.74939 17.8125zm-3.17773-34.44043-24.72754 7.31152v2.98401l.65527.23376c.52051.18555.79102.75684.60547 1.27734-.18359.51404-.74371.78381-1.26074.60791v7.64307l12.53741-3.71155c-.1698-.72711.6123-1.37952 1.30731-1.10876l.6734.2406 10.20941-15.47791zm-41.24512 15.47797.67334-.24066c.68854-.27118 1.48059.38013 1.30676 1.10864l12.53748 3.71167v-7.64252c-.50165.17932-1.07819-.09058-1.26074-.60846-.18555-.51953.08545-1.0918.60596-1.27734l.65479-.2337v-2.98407l-24.72805-7.31151 10.21045 15.47797zm14.51764 12.55133c-1.30298.53979-2.0777-1.41193-.72174-1.87207l.72168-.21313v-3.80066l-14.55493-4.30865-10.50739 15.92822c.17615.12512.32269.29517.38898.51825.04803.16248.04059.3233.00909.47839l24.66425 8.46735s0-15.19763.00006-15.19769zm25.78326-29.83551-23.78333-8.16492v1.40082c0 .55273-.44775 1-1 1s-1-.44727-1-1v-1.40082l-23.78333 8.16494 24.78333 7.32782 24.78333-7.32782zm1.27863 35.56934-10.50647-15.92822-14.55548 4.30853v3.80066s.72168.21313.72162.21307c1.34772.45532.59143 2.41241-.72162 1.87219v15.19763l24.664-8.46729c-.09912-.37109.07922-.79376.39795-.99658z" fill="url(#linear-gradient)"/></svg>