<svg id="line_gradient" height="512" viewBox="0 0 64 64" width="512" xmlns="http://www.w3.org/2000/svg" xmlns:xlink="http://www.w3.org/1999/xlink" data-name="line gradient"><linearGradient id="linear-gradient" gradientUnits="userSpaceOnUse" x1="3.008" x2="60.994" y1="32.006" y2="32.006"><stop offset="0" stop-color="#f3719c"/><stop offset="1" stop-color="#ff9275"/></linearGradient><path d="m16.48242 52.67871-2.67773 1.12988c-.49634.21344-1.09528-.01849-1.31006-.53223-.21484-.50879.02393-1.0957.53271-1.30957l2.67773-1.12988c1.22058-.49268 1.97888 1.31268.77734 1.8418zm30.39117-5.89453c-.00049.00281 2.91022-.01569 2.91156-.01367 1.31024-.02808 1.30719-1.97852-.00488-2 .00043-.00287-2.91028.01569-2.91162.01367-1.31024.02802-1.30719 1.97845.00494 2zm5.81348-.02734c-.00037.00269 2.90979-.01459 2.91107-.0127 1.31122-.02704 1.30713-1.97821-.00439-2 .00031-.00269-2.90985.01459-2.91113.0127-1.31122.02698-1.30713 1.97821.00446 2zm-26.27057-.44141-2.67773 1.12988c-.50879.21387-.74756.80078-.53271 1.30957.21478.51373.81372.74567 1.31006.53223l2.67773-1.12988c1.20129-.52893.44366-2.33374-.77734-1.8418zm5.92383-1.46582c-.28992.02887-2.44397-.06305-2.66455.08978 0 .00006-.58105.24518-.58105.24518-.99884.40302-.67114 1.94208.38922 1.9209.23541.01782.5683-.16064.7851-.24609l2.07617-.00977c1.31006-.02802 1.30731-1.97852-.00488-2zm-11.2793 3.72656-2.67822 1.12988c-.50879.21387-.74756.80078-.53271 1.30957.21478.51373.81372.74567 1.31006.53223l2.67822-1.12988c1.20154-.52911.44324-2.33447-.77734-1.8418zm39.88531-2.58417c-.05444.23755-.22516.41449-.39899.56952 0 0-17.13562 11.18665-17.18903 11.21008-.12677.05432-.258.09088-.39056.0907h-38.96776c-.39685.00079-.75995-.25842-.92133-.61133-.11108-.27753-.08624-.58319.03552-.85266.05438-.01642 26.03882-49.80994 26.11194-49.78906.34827-.59192 1.21033-.60162 1.62836-.08484l29.93555 38.58691c.15039.26086.27649.59174.15631.88068zm-19.27106 9.8703-2.55817-9.85785c-.08771.46063-.47211.81622-.95844.81879l-2.90674.01367c-.552.00275-1.00256-.44263-1.00488-.99512-.00244-.55273.44287-1.00195.99512-1.00488l2.90674-.01367c.30438-.00171.56964.14093.75385.35516l-7.83832-30.20532s0 2.10699 0 2.10693c-.0199 1.30634-1.97607 1.32373-2 .00006v-2.72943c-.02716-.83844 1.04236-1.31256 1.64386-.74994l-.27338-1.05341c-.63354.2738-1.38593-.23077-1.37048-.92523v-.42328l-23.18535 44.2328c.17029.09955.31622.2395.40485.43073h1.08966c-.52966-.46173-.35168-1.38043.29779-1.63477l2.67773-1.12988c.50977-.2168 1.0957.02344 1.31006.53223.21484.50879-.02393 1.0957-.53271 1.30957l-2.18707.92285h32.7359zm16.3786-11.0144-25.80119-33.25787 8.62988 33.25635c.05835-.01093.11163-.03552.1731-.03583.00598-.00092 2.90515-.01245 2.91107-.01367 1.31049.02185 1.31744 1.97034.00494 2l-2.57977.01215 2.19385 8.45435 13.99207-9.14923c-.0484-.11664-.07721-.24365-.07782-.37781-.00171-.39154.22729-.7226.55389-.88843zm-27.98944-.70728c.55225 0 1-.44727 1-1v-1.5c0-.55273-.44775-1-1-1s-1 .44727-1 1v1.5c0 .55273.44775 1 1 1zm0-15.14453c.55225 0 1-.44727 1-1v-2.72949c0-.55273-.44775-1-1-1s-1 .44727-1 1v2.72949c0 .55273.44775 1 1 1zm0-5.45801c.55225 0 1-.44727 1-1v-2.72949c0-.55273-.44775-1-1-1s-1 .44727-1 1v2.72949c0 .55273.44775 1 1 1zm0 16.37402c.55225 0 1-.44727 1-1v-2.72949c0-.55273-.44775-1-1-1s-1 .44727-1 1v2.72949c0 .55273.44775 1 1 1zm0-5.45801c.55225 0 1-.44727 1-1v-2.72949c0-.55273-.44775-1-1-1s-1 .44727-1 1v2.72949c0 .55273.44775 1 1 1z" fill="url(#linear-gradient)"/></svg>