<?xml version="1.0" encoding="iso-8859-1"?>
<!-- Generator: Adobe Illustrator 19.0.0, SVG Export Plug-In . SVG Version: 6.00 Build 0)  -->
<svg version="1.1" id="Capa_1" xmlns="http://www.w3.org/2000/svg" xmlns:xlink="http://www.w3.org/1999/xlink" x="0px" y="0px"
	 viewBox="0 0 494.122 494.122" style="enable-background:new 0 0 494.122 494.122;" xml:space="preserve">
<g>
	<g>
		<path d="M492.628,177.727l-64.64-108.587c-0.927-1.59-2.25-2.913-3.84-3.84L314.708,2.367c-1.381-0.752-2.911-1.189-4.48-1.28
			h-128c-1.496,0.122-2.95,0.558-4.267,1.28L68.522,65.301c-1.59,0.927-2.913,2.25-3.84,3.84l-64,109.227
			c-0.562,1.497-0.781,3.101-0.64,4.693v128c0.009,1.88,0.525,3.722,1.493,5.333l64,109.227c0.927,1.59,2.25,2.913,3.84,3.84
			l108.587,62.08c1.615,0.959,3.455,1.474,5.333,1.493h126.933c1.878-0.019,3.718-0.535,5.333-1.493l109.227-62.933
			c1.59-0.927,2.913-2.25,3.84-3.84l64-109.227c0.959-1.615,1.474-3.455,1.493-5.333V183.061
			C494.102,181.183,493.587,179.343,492.628,177.727z M470.655,307.221l-60.16,104.32l-104.32,59.947H186.068l-104.32-59.733
			l-60.373-104.32V186.687l60.373-104.32l104.32-59.947h120.533l104.32,59.947l60.16,104.32L470.655,307.221z"/>
	</g>
</g>
<g>
</g>
<g>
</g>
<g>
</g>
<g>
</g>
<g>
</g>
<g>
</g>
<g>
</g>
<g>
</g>
<g>
</g>
<g>
</g>
<g>
</g>
<g>
</g>
<g>
</g>
<g>
</g>
<g>
</g>
</svg>
