<svg id="line_gradient" height="512" viewBox="0 0 64 64" width="512" xmlns="http://www.w3.org/2000/svg" xmlns:xlink="http://www.w3.org/1999/xlink" data-name="line gradient"><linearGradient id="linear-gradient" gradientUnits="userSpaceOnUse" x1="3" x2="61" y1="31.939" y2="31.939"><stop offset="0" stop-color="#f3719c"/><stop offset="1" stop-color="#ff9275"/></linearGradient><path d="m32 16.53516c-12.61462-.08624-24.69684 6.53967-17.39404 14.73828 3.29529 3.19507 9.72986 5.32904 17.39404 5.32812 8.63916-.06451 19.05182-2.87164 19.60321-10.03302-.00018-5.62616-8.61102-10.03339-19.60321-10.03339zm-15.15088 14.04211c6.54248-5.31744 23.76178-5.31622 30.30176.00024-6.57678 5.30298-23.72986 5.30042-30.30176-.00024zm31.74872-1.40851c-7.07056-6.10291-26.12732-6.10132-33.1955.00031-4.29712-6.11279 6.51825-10.64545 16.59766-10.63391 10.08466-.00995 20.88989 4.51794 16.59784 10.63361zm12.40216-2.6004c0-10.64062-13.00928-19.29688-29-19.29688s-29 8.65625-29 19.29688v10.85938c1.47302 25.57635 56.53369 25.56787 58.00006-.00024-.00006.00024-.00006-10.85913-.00006-10.85913zm-2 10.85938c-1.34418 22.92267-52.66742 22.90698-54.00006-.00024.00006.00024.00006-3.83148.00006-3.83148 9.47278 16.24249 44.53888 16.23059 54-.00043zm-54.00006-10.85962c.00006-9.53687 12.11237-17.29663 27.00006-17.29663s27 7.75977 27 17.29688c-1.34302 22.91431-52.66626 22.90222-54.00006-.00024z" fill="url(#linear-gradient)"/></svg>