<svg id="line_gradient" height="512" viewBox="0 0 64 64" width="512" xmlns="http://www.w3.org/2000/svg" xmlns:xlink="http://www.w3.org/1999/xlink" data-name="line gradient"><linearGradient id="linear-gradient" gradientUnits="userSpaceOnUse" x1="2.755" x2="61.227" y1="32" y2="32"><stop offset="0" stop-color="#f3719c"/><stop offset="1" stop-color="#ff9275"/></linearGradient><path d="m61.21503 32.73724c.46615-16.24415-12.84892-29.76089-29.21503-29.73722-16.42831-.0252-29.68804 13.55242-29.23384 29.83058.46674 15.55624 13.37081 28.18436 29.23387 28.16938 15.86648.02084 28.87311-12.68229 29.215-28.26274zm-29.21503-27.73724c13.72479 0 25.10486 10.11993 26.9624 23.22736-.38855-.26263-.91223-.24005-1.25684.1037-.39111.39014-.39111 1.02344-.00098 1.41406 1.0608 1.10917 1.6804 2.12375 1.49664 3.52934-.66241 4.55537-11.42394 9.26362-27.20123 9.26362-15.83683-.03351-30.4843-5.14571-26.45737-11.90904.42365-.56641.07498-1.43009-.61393-1.55489 1.47633-13.51618 13.05208-24.07416 27.0713-24.07416zm0 54c-13.0224 0-23.93353-9.11115-26.60352-21.23962 9.44225 8.94331 43.77669 8.93557 53.20708-.00051-2.66991 12.12899-13.58116 21.24014-26.60356 21.24014zm-2.16699-35.8457c.96874-.0282 2.01877-.03582 3.00049-.02636 1.30637-.02098 1.31887-1.96468.0107-2-.99485-.00828-2.05793-.00349-3.03951.02686-1.29476.05649-1.26678 1.98008.02832 1.99951zm11.83398.62305c1.05896.13268 2.08353.35232 3.10009.50052.46973-.00004.88917-.33256.98096-.81107.10449-.54248-.25049-1.06641-.79297-1.1709-.97461-.1875-1.9873-.35547-3.00977-.49902-1.30368-.16003-1.57733 1.77531-.27832 1.98047zm-5.88525-.55713c1.03478.04931 2.0451.13616 3.04541.21876.51025-.00001.9458-.38819.99463-.90626.05176-.5498-.35205-1.0376-.90186-1.08936-.99268-.09375-2.00537-.16748-3.03564-.22021-.5542-.0293-1.02148.39551-1.0498.94727-.02832.55127.39551 1.02148.94727 1.0498zm11.66699 1.67822c1.10332.24017 2.0965.65903 3.12742.86971.41945-.00008.81008-.2662.94924-.68563.17383-.52441-.11035-1.09033-.63428-1.26416-.93213-.30908-1.92432-.59766-2.94922-.8584-1.27905-.30045-1.7619 1.59249-.49316 1.93848zm5.52734 1.85352c.93848.41211 1.79346.85449 2.54199 1.31396.46349.28622 1.08469.14591 1.37549-.32861.28906-.4707.14209-1.08642-.32861-1.37549-.82617-.50732-1.7627-.99219-2.78418-1.44092-1.21099-.50652-1.99979 1.28115-.80469 1.83105zm-40.80957-.5415c1.03442-.2233 2.00816-.70214 3.12649-.97306.53074-.15194.83787-.70565.68601-1.2369-.15283-.53125-.70654-.84033-1.23682-.68604-1.02734.29443-2.01172.6167-2.92627.95898-1.03455.37121-.73265 1.95649.35059 1.93701zm11.68018-2.63379c1.004-.09737 2.01683-.2098 3.05957-.27733.55127-.03908.96631-.5171.92725-1.06788-.03857-.55078-.50977-.9585-1.06787-.92725-1.03076.07275-2.04248.16602-3.03076.27881-1.23642.15487-1.12611 1.98215.11182 1.99365zm-16.99268 5.38135c.96393-.19962 1.86714-1.21489 3.0118-1.66097.49309-.2487.69084-.85027.44182-1.34343s-.8501-.69287-1.34326-.44189c-1.01807.51367-1.92871 1.06641-2.70654 1.64258-.77824.53497-.32944 1.8391.59619 1.80371zm11.07275-4.41162c1.0195-.16213 2.04129-.4186 3.10987-.57272.54492-.08842.91503-.60209.82617-1.1475-.08838-.54541-.60107-.91748-1.14746-.82617-1.02344.16602-2.03369.35791-3.00098.56934-1.15469.24405-.9548 1.98886.2124 1.97705z" fill="url(#linear-gradient)"/></svg>