<svg id="line_gradient" height="512" viewBox="0 0 64 64" width="512" xmlns="http://www.w3.org/2000/svg" xmlns:xlink="http://www.w3.org/1999/xlink" data-name="line gradient"><linearGradient id="linear-gradient" gradientUnits="userSpaceOnUse" x1="3.006" x2="60.996" y1="32.007" y2="32.007"><stop offset="0" stop-color="#f3719c"/><stop offset="1" stop-color="#ff9275"/></linearGradient><path d="m60.98206 25.79425c.09569-.52335-.31908-1.04703-.83705-1.12335.00001 0-18.82616-2.75879-18.82616-2.75879l-8.21484-16.7879c-.00263-1.06834-1.52231-1.31641-2.00246-.42004.00002-.00006-8.42039 17.20795-8.42039 17.20795l-18.82617 2.75879c-.36719.05686-.6811.33131-.80567.67871-.10704.35326-.01111.76138.24951 1.02344 0 0 13.62794 13.39648 13.62794 13.39648l-3.21777 18.91895c-.05894.3682.10548.75308.3999.97852.30505.21078.7241.24317 1.0542.07325 0 0 16.83692-8.92677 16.83692-8.92677l16.83691 8.92676c.69979.39111 1.59977-.2627 1.45407-1.0518.00003.00004-3.21774-18.9189-3.21774-18.9189l13.62793-13.39648c.15878-.15588.24812-.36227.28088-.5788zm-38.08722-1.89221 6.58057 9.01953-21.11517-6.89001 14.53461-2.12952zm10.21307-14.21899 6.3844 13.04706-6.3844 8.97223v-22.0193zm-2.10358 39.39447-12.97144 6.8775 13.05219-18.00671zm2.08124-11.16107 12.93219 18.06543-13.01337-6.89978zm8.0274-14.01324 14.54688 2.13135-20.97089 6.89661 6.42401-9.02795zm-10.00507-14.66119v22.52332l-6.59662-9.0426 6.59662-13.48071zm-23.37096 18.68907 21.14355 6.90002-10.61273 3.45276zm11.14752 12.25586 10.61017-3.45245-13.09558 18.06696 2.48541-14.6145zm28.70685 14.55756-12.88574-18.00049 10.40936 3.43921zm-1.8573-16.46234-10.43164-3.44672 20.94385-6.88782-10.51221 10.33453z" fill="url(#linear-gradient)"/></svg>