<svg id="line_gradient" height="512" viewBox="0 0 64 64" width="512" xmlns="http://www.w3.org/2000/svg" xmlns:xlink="http://www.w3.org/1999/xlink" data-name="line gradient"><linearGradient id="linear-gradient" gradientUnits="userSpaceOnUse" x1="3" x2="61" y1="31.939" y2="31.939"><stop offset="0" stop-color="#f3719c"/><stop offset="1" stop-color="#ff9275"/></linearGradient><path d="m32 12.7041c-15.99072 0-29 8.65625-29 19.2959 1.47471 25.57211 56.53459 25.55912 58.00004-.0002-.00004-10.63945-13.00981-19.2957-29.00004-19.2957zm26.89618 17.83093c-.81681 1.74175-6.76529 1.46266-7.45087.15039-1.22312-4.66731-8.29751-8.23623-17.54232-8.67101.85928-2.65579.80128-4.76674.00272-7.26248 13.24334.59499 23.87786 7.33192 24.99047 15.7831zm-25.19446 9.45746c-8.93843.6462-19.65365-3.30158-19.30451-7.99268-.00024-4.3543 8.06079-8.03301 17.60278-8.03301 21.8523.42528 24.22065 14.39724 1.70172 16.0257zm-2.07843-25.28229c1.05851.93909 1.20996 6.14987.0342 7.26514-9.60183.08111-17.30789 3.5266-18.93038 8.18951-1.12671-.52924-2.48462-.66766-3.20319-.70099-1.38519-.06262-3.07831.12628-4.37549.72595 1.40448-8.6106 12.71204-15.35785 26.47485-15.47961zm-26.5932 18.04975c.75103-1.50948 6.08779-1.78763 7.40131-.40005.35693 5.38216 8.60553 9.55819 19.16589 9.66323-.79824 2.49624-.85824 4.61108.0065 7.26635-14.30844-.13305-25.9559-7.42815-26.5737-16.52953zm28.82269 16.49066c-1.16945-1.08076-1.03691-6.33653.01855-7.26421 9.37086-.43525 16.63642-4.1092 17.61451-8.88343 1.11005.47784 2.48224.67047 3.70166.67047 1.12168-.02772 2.30982-.08369 3.75796-.72233-.81454 8.65562-11.60891 15.61069-25.09268 16.1995z" fill="url(#linear-gradient)"/></svg>