<svg id="line_gradient" height="512" viewBox="0 0 64 64" width="512" xmlns="http://www.w3.org/2000/svg" xmlns:xlink="http://www.w3.org/1999/xlink" data-name="line gradient"><linearGradient id="linear-gradient" gradientUnits="userSpaceOnUse" x1="3.308" x2="60.708" y1="32.014" y2="32.014"><stop offset="0" stop-color="#f3719c"/><stop offset="1" stop-color="#ff9275"/></linearGradient><path d="m38.9248 44.66992c-.11108.08472-2.92969-1.03235-3.11517-1.08008-1.22784-.47516-.54877-2.30902.68939-1.87695l2.77051 1.01855c1.04144.36725.74042 1.95789-.34473 1.93848zm-19.38867 2.03711c.10272.08643 2.93738-1.03589 3.11426-1.08008 1.22601-.47363.5506-2.31079-.68951-1.87695.00006 0-2.76947 1.01855-2.76947 1.01855-1.04034.367-.74152 1.95813.34473 1.93848zm-5.53906 2.03711c.10272.08643 2.93738-1.03589 3.11426-1.08008 1.22534-.47339.55188-2.31104-.68951-1.87695.00006 0-2.76947 1.01855-2.76947 1.01855-1.04034.367-.74152 1.95813.34473 1.93848zm-3.11432-.91992c.00006 0-2.77045 1.01758-2.77045 1.01758-1.04028.36646-.7417 1.9574.34473 1.93848.10242.08624 2.93842-1.03497 3.11523-1.0791 1.22589-.47302.55078-2.31018-.68951-1.87695zm41.54602 1.87598c.18561.04779 3.00287 1.16473 3.1142 1.08008 1.08514.01941 1.38617-1.57123.34473-1.93848l-2.76953-1.01855c-1.23914-.43091-1.91681 1.40155-.68939 1.87695zm-27.3526-5.03027c.10272.08643 2.93738-1.03589 3.11426-1.08008 1.22589-.47406.55096-2.30951-.68951-1.87695.00006 0-2.76947 1.01855-2.76947 1.01855-1.04034.367-.74152 1.95813.34473 1.93848zm21.81256 2.99414c.18549.04773 3.00415 1.16364 3.11517 1.0791 1.08533.01868 1.38611-1.57172.34473-1.93848l-2.77051-1.01758c-1.23895-.43152-1.91681 1.40259-.68939 1.87695zm-2.08014-2.89551-2.76953-1.01855c-1.23816-.43207-1.91724 1.40179-.68939 1.87695.18561.04779 3.00287 1.16473 3.1142 1.08008 1.08514.01941 1.38617-1.57123.34473-1.93848zm15.89911 6.57166c.00592.41278-.29767.80536-.69061.93115-.23517.05579-27.68121 8.63666-27.90967 8.68372-.19403.0575-.4007.06067-.59766-.00098l-27.53027-8.6836c-.29218-.09503-.69238-.99738-.6709-1.19238l10.01856-40.8379c.08252-.32397.33008-.56506.62793-.70117l17.70117-6.47851c.11096-.04285.57635-.04175.6875 0l17.70117 6.47852c.2984.1322.54517.38074.62793.70068.00916.24487 10.12311 40.87378 10.03485 41.10046zm-29.82879-34.60884-15.86237-4.97937-9.33612 38.05622c.40948-.00262.79694.23901.94556.64587.06903.18756.06042.37775.01935.55939l24.23358 7.64417v-16.07367c-.49536.13794-1.02155-.11377-1.20215-.60645-.19043-.51855.0752-1.09277.59375-1.2832l.6084-.22351v-23.73944zm2.12109-2.66302v.53436l13.5752-4.20331-13.5752-4.96893c.03461.57581-.41986 1.07184-1 1.06952-.5802.00201-1.03455-.49335-1-1.06952l-13.59375 4.97577 13.59375 4.26648v-.60437c0-.55273.44727-1 1-1s1 .44727 1 1zm25.31964 35.74017-9.33722-38.06073-16.10352 4.98633v23.64771s.85059.3125.85059.31244c1.32104.54706.42688 2.45081-.85059 1.81787v16.10822l24.47375-7.61493c-.1759-.60211.36212-1.2254.96698-1.1969zm-25.31964-41.45306c0-.55273-.44727-1-1-1s-1 .44727-1 1v2.85645c0 .55273.44727 1 1 1s1-.44727 1-1z" fill="url(#linear-gradient)"/></svg>