<?xml version="1.0" encoding="iso-8859-1"?>
<!-- Generator: Adobe Illustrator 19.0.0, SVG Export Plug-In . SVG Version: 6.00 Build 0)  -->
<svg version="1.1" id="Capa_1" xmlns="http://www.w3.org/2000/svg" xmlns:xlink="http://www.w3.org/1999/xlink" x="0px" y="0px"
	 viewBox="0 0 488.87 488.87" style="enable-background:new 0 0 488.87 488.87;" xml:space="preserve">
<g>
	<g>
		<path d="M487.422,205.179l-81.28-140.8c-1.243-2.165-3.205-3.826-5.547-4.693L248.062,4.219c-2.344-0.847-4.91-0.847-7.253,0
			L88.275,59.686c-2.341,0.867-4.304,2.528-5.547,4.693L1.448,204.966c-1.274,2.189-1.728,4.76-1.28,7.253l28.373,160
			c0.412,2.496,1.697,4.764,3.627,6.4l124.373,104.107c1.904,1.629,4.321,2.535,6.827,2.56h162.133
			c2.506-0.025,4.922-0.931,6.827-2.56l124.373-104.107c1.93-1.636,3.215-3.904,3.627-6.4l28.373-159.787
			C489.15,209.94,488.696,207.368,487.422,205.179z M440.062,364.539l-118.4,99.2H167.208l-118.4-99.2l-26.88-152.107L99.155,78.459
			l145.28-52.907l145.28,52.907l77.227,133.973L440.062,364.539z"/>
	</g>
</g>
<g>
</g>
<g>
</g>
<g>
</g>
<g>
</g>
<g>
</g>
<g>
</g>
<g>
</g>
<g>
</g>
<g>
</g>
<g>
</g>
<g>
</g>
<g>
</g>
<g>
</g>
<g>
</g>
<g>
</g>
</svg>
