<?xml version="1.0" encoding="iso-8859-1"?>
<!-- Generator: Adobe Illustrator 19.0.0, SVG Export Plug-In . SVG Version: 6.00 Build 0)  -->
<svg version="1.1" id="Capa_1" xmlns="http://www.w3.org/2000/svg" xmlns:xlink="http://www.w3.org/1999/xlink" x="0px" y="0px"
	 viewBox="0 0 489.813 489.813" style="enable-background:new 0 0 489.813 489.813;" xml:space="preserve">
<g>
	<g>
		<path d="M489.054,241.054c-1.078-2.97-3.417-5.309-6.387-6.387l0.213,0l-115.2-40.747l52.48-110.08
			c2.615-5.279,0.456-11.678-4.822-14.293c-2.984-1.478-6.487-1.478-9.471,0L296,121.813L254.827,7.04
			c-1.5-4.151-5.401-6.95-9.813-7.04c-4.491,0.002-8.5,2.817-10.027,7.04l-40.96,114.773L83.947,69.547
			c-5.279-2.615-11.678-0.456-14.293,4.822c-1.478,2.984-1.478,6.487,0,9.471l52.267,110.08L7.147,234.667
			c-5.538,2.01-8.397,8.128-6.388,13.666c1.078,2.97,3.417,5.309,6.388,6.387l114.987,40.96l-52.48,110.293
			c-2.615,5.279-0.456,11.678,4.822,14.293c2.984,1.478,6.487,1.478,9.471,0l110.08-52.48l40.747,114.987
			c1.527,4.223,5.536,7.038,10.027,7.04c4.491-0.002,8.5-2.817,10.027-7.04l40.96-114.987l110.08,52.48
			c5.279,2.615,11.678,0.456,14.293-4.823c1.478-2.984,1.478-6.487,0-9.471L367.467,295.68l115.2-40.96
			C488.204,252.71,491.064,246.592,489.054,241.054z M349.547,279.68c-5.543,1.994-8.421,8.104-6.427,13.647
			c0.131,0.366,0.283,0.724,0.453,1.073l44.8,93.653l-93.653-44.587c-5.293-2.586-11.68-0.392-14.267,4.901
			c-0.171,0.349-0.322,0.707-0.453,1.073l-34.987,97.92l-34.773-97.92c-1.994-5.543-8.104-8.421-13.647-6.427
			c-0.366,0.131-0.724,0.283-1.073,0.453l-93.867,44.8L146.24,294.4c2.486-5.341,0.172-11.686-5.169-14.172
			c-0.263-0.123-0.532-0.234-0.804-0.335L42.56,244.907l97.707-34.56c5.543-1.994,8.421-8.104,6.427-13.647
			c-0.131-0.365-0.283-0.724-0.453-1.073l-44.373-93.867l93.867,44.587c5.293,2.586,11.68,0.392,14.267-4.901
			c0.17-0.349,0.322-0.707,0.453-1.073l34.56-97.92L280,140.16c1.994,5.543,8.104,8.421,13.647,6.427
			c0.365-0.131,0.724-0.283,1.073-0.453l93.653-44.587l-44.8,93.867c-2.586,5.293-0.392,11.68,4.901,14.267
			c0.349,0.171,0.707,0.322,1.073,0.453l97.92,34.773L349.547,279.68z"/>
	</g>
</g>
<g>
</g>
<g>
</g>
<g>
</g>
<g>
</g>
<g>
</g>
<g>
</g>
<g>
</g>
<g>
</g>
<g>
</g>
<g>
</g>
<g>
</g>
<g>
</g>
<g>
</g>
<g>
</g>
<g>
</g>
</svg>
