<svg id="line_gradient" height="512" viewBox="0 0 64 64" width="512" xmlns="http://www.w3.org/2000/svg" xmlns:xlink="http://www.w3.org/1999/xlink" data-name="line gradient"><linearGradient id="linear-gradient" gradientUnits="userSpaceOnUse" x1="4.813" x2="59.187" y1="32" y2="32"><stop offset="0" stop-color="#f3719c"/><stop offset="1" stop-color="#ff9275"/></linearGradient><path d="m16.78223 47.46387-2.03711 2.63184c-.19727.25391-.49316.3877-.79144.3877-.8006.02533-1.30811-.98657-.79059-1.6123l2.03711-2.63184c.80676-1.02856 2.37714.18695 1.58203 1.22461zm-5.65674 4.03809-2.03711 2.63184c-.79407 1.03583.77252 2.25586 1.58209 1.22455-.00006.00006 2.03705-2.63177 2.03705-2.63177.79498-1.03754-.77557-2.2547-1.58203-1.22461zm9.26758-9.24414c-.79089.06116-2.00146-.22589-2.41064.38763 0 .00006-.98975 1.27838-.98975 1.27838-.51794.62512-.01074 1.63763.7901 1.6123.64362.07446 1.12762-.8761 1.48041-1.27838 0 .00006 1.12988.00006 1.12988.00006 1.31348-.02142 1.31506-1.97827 0-2zm30.59424 0h-2.9458c-1.3136.02173-1.315 1.97809 0 2h2.9458c.55225 0 1-.44727 1-1s-.44775-1-1-1zm-5.99078 0h-3.04486c-1.3136.02173-1.315 1.97809 0 2h3.04492c1.3136-.02173 1.315-1.97809-.00006-2zm-18.26996 0h-3.04492c-1.3136.02173-1.315 1.97809.00006 2-.00006 0 3.04486 0 3.04486 0 1.3136-.02173 1.315-1.97809 0-2zm12.18011 0h-3.04486c-1.3136.02173-1.315 1.97809 0 2h3.04492c1.3136-.02173 1.315-1.97809-.00006-2zm20.28033 1c-.02435.177-.02673.362-.12354.52734l-9.17432 16.69629c-.07513.10638-.1507.21655-.25812.29327-.17145.14368-.39459.22137-.61835.22528 0 0-43.19971 0-43.19971-.00006-.547.00299-.96893-.47272-1-.99994v-43.07324c.00427-.15228.03766-.29858.10907-.4306.04547-.10394.12286-.18585.18488-.2774l12.95997-12.92677c.38965-.38867 1.02148-.38867 1.41211 0l39.27216 39.16223c.27075.17645.39172.48987.43585.80359zm-12.59375 15.74219-14.7854-14.74219h-2.03638c-.55225 0-1-.44727-1-1-.00079-.56403.46765-1.01654 1.03052-1l-10.02905-9.99976s0 1.54565 0 1.54559c-.02155 1.31018-1.97589 1.3197-2.00006.00006.04193-.28882-.11505-3.24554.12543-3.41486l-11.08533-11.05292v37.73877l.26953-.34814c.3374-.43652.96582-.51562 1.40277-.17871.97589.8291-.11951 1.73615-.63367 2.45215h38.74164zm9.92883-14.74219s-1.52209 0-1.52203 0c-1.30579-.01886-1.32373-1.97754-.00006-2h.72168l-36.94873-36.84571-11.54395 11.51453 10.54395 10.51306s0-2.50415 0-2.50409c.01843-1.32001 1.98694-1.30542 2-.00006v2.95605c0 .41803-.25684.77393-.62061.92346l13.48224 13.44275c.64886-.08643 1.31549.47382 1.15186 1.1485l14.99036 14.94647 7.7453-14.09497zm-37.74914-36.94532c-.55225 0-1 .44727-1 1v1.61523c0 .55273.44775 1 1 1s1-.44727 1-1v-1.61523c0-.55273-.44775-1-1-1zm0 33.4043c.55225 0 1-.44727 1-1v-2.95605c0-.55273-.44775-1-1-1s-1 .44727-1 1v2.95605c0 .55273.44775 1 1 1zm0-22.69336c-.55225 0-1 .44727-1 1v2.95605c0 .55273.44775 1 1 1s1-.44727 1-1v-2.95605c0-.55273-.44775-1-1-1zm0-5.91211c-.55225 0-1 .44727-1 1v2.95605c0 .55273.44775 1 1 1s1-.44727 1-1v-2.95605c0-.55273-.44775-1-1-1z" fill="url(#linear-gradient)"/></svg>