<?xml version="1.0" encoding="iso-8859-1"?>
<!-- Generator: Adobe Illustrator 19.0.0, SVG Export Plug-In . SVG Version: 6.00 Build 0)  -->
<svg version="1.1" id="Capa_1" xmlns="http://www.w3.org/2000/svg" xmlns:xlink="http://www.w3.org/1999/xlink" x="0px" y="0px"
	 viewBox="0 0 495.184 495.184" style="enable-background:new 0 0 495.184 495.184;" xml:space="preserve">
<g>
	<g>
		<path d="M492.027,240.144c-0.021-0.021-0.041-0.041-0.062-0.062L255.165,3.069c-4.22-4.091-10.927-4.091-15.147,0L3.218,240.082
			c-4.183,4.148-4.21,10.902-0.062,15.085c0.021,0.021,0.041,0.041,0.062,0.062l236.8,236.8c4.148,4.183,10.902,4.21,15.085,0.062
			c0.021-0.021,0.041-0.041,0.062-0.062l236.8-236.8C496.148,251.08,496.176,244.326,492.027,240.144z M247.698,469.415
			L26.045,247.549L247.698,25.682l221.653,221.867L247.698,469.415z"/>
	</g>
</g>
<g>
</g>
<g>
</g>
<g>
</g>
<g>
</g>
<g>
</g>
<g>
</g>
<g>
</g>
<g>
</g>
<g>
</g>
<g>
</g>
<g>
</g>
<g>
</g>
<g>
</g>
<g>
</g>
<g>
</g>
</svg>
