<svg id="line_gradient" height="512" viewBox="0 0 64 64" width="512" xmlns="http://www.w3.org/2000/svg" xmlns:xlink="http://www.w3.org/1999/xlink" data-name="line gradient"><linearGradient id="linear-gradient" gradientUnits="userSpaceOnUse" x1="3.006" x2="60.953" y1="35.478" y2="35.478"><stop offset="0" stop-color="#f3719c"/><stop offset="1" stop-color="#ff9275"/></linearGradient><path d="m44.13574 42.75146s-4.49805 0-4.49799 0c-1.31537-.02234-1.31311-1.97809-.00006-2h4.49805c1.31531.02228 1.31305 1.97803 0 2zm4.49811 0c-.00006 0 4.49799 0 4.49799 0 1.31305-.02197 1.31531-1.97772 0-2h-4.49805c-1.31305.02191-1.31531 1.97766.00006 2zm-14.52008-2h-.44629l.21289-.39795c.59918-1.1701-1.12787-2.09222-1.76465-.94238l-.83716 1.56781-1.61743.72565c-.97815.42029-.63867 1.93463.40973 1.91309.28601.05286 1.85968-.76984 2.14349-.86621h1.89941c1.31335-.02209 1.31512-1.97766 0-2zm4.95264-10.11279 1.69531-3.17529c.59912-1.16992-1.12775-2.09235-1.76465-.94238l-1.69531 3.17529c-.6084 1.15259 1.13654 2.09583 1.76465.94238zm-2.10596 1.82178c-.48926-.26074-1.09375-.07568-1.35352.41113l-1.69531 3.17529c-.25977.4873-.07568 1.09326.41113 1.35352.47803.25708 1.0918.08038 1.35352-.41113l1.69531-3.17529c.25977-.4873.07568-1.09326-.41113-1.35352zm4.54688-8.5166c.47766.25726 1.09161.0802 1.35303-.41162l.99756-1.86914c.25977-.4873.07568-1.09277-.41162-1.35303-.48779-.26172-1.09326-.07568-1.35303.41162l-.99756 1.86914c-.25977.4873-.07568 1.09277.41162 1.35303zm18.90186 18.72021-28 12.56006c-.13068.03619-.25897.08923-.40204.08643-.00415.00079-28.00031.00281-28.00439.00098-.38861-.00134-.74933-.2453-.91528-.59082-.12317-.28625-.10077-.60126.03021-.88037l13.41113-25.12012c.10242-.20001.28162-.33783.47314-.44141 0 0 28-12.56055 28-12.56049.47235-.1875.99567-.00714 1.27393.4101l14.58887 25.12061c.15436.18408.16394 1.14905-.45557 1.41504zm-30.14648 10.64746-4.46204-7.68298s-2.96863 1.33142-2.96857 1.33136c-1.19922.51862-2.01465-1.26251-.81842-1.82513l2.77692-1.24542-7.34283-12.64325-11.33667 21.23456c.39508.06622.77698.39917.79333.83087h23.35828zm28-12.56006-13.26404-22.83942-26.16498 11.73737 13.5788 23.38092 24.52942-11.00323c-.02618-.08929-.05566-.17786-.05566-.27563.00885-.76062.69141-1.08514 1.37646-1zm-46.03223 8.77197-3.26123 1.46289c-1.19379.56073-.3833 2.34436.81842 1.82513-.00006.00006 3.26117-1.46283 3.26117-1.46283 1.19031-.55786.38922-2.34326-.81836-1.8252zm6.52197-2.92578-3.26123 1.46289c-1.19379.56073-.3833 2.34436.81842 1.82513-.00006.00006 3.26117-1.46283 3.26117-1.46283 1.18988-.55743.39001-2.34399-.81836-1.8252z" fill="url(#linear-gradient)"/></svg>