<svg id="line_gradient" height="512" viewBox="0 0 64 64" width="512" xmlns="http://www.w3.org/2000/svg" xmlns:xlink="http://www.w3.org/1999/xlink" data-name="line gradient"><linearGradient id="linear-gradient" gradientUnits="userSpaceOnUse" x1="8.237" x2="55.859" y1="32.008" y2="32.008"><stop offset="0" stop-color="#f3719c"/><stop offset="1" stop-color="#ff9275"/></linearGradient><path d="m55.71851 59.60809s-22.7898-55.98504-22.7898-55.98504c-.30097-.80265-1.55059-.82717-1.85156.00008-.0025.00158-22.79686 55.98788-22.79809 55.99087-.23766.57391.59103 1.3892.92539 1.38603.00002-.00002 45.58162-.00002 45.58162-.00002.45278.05732 1.43686-.52548.93244-1.39191zm-23.71558-52.95623 20.85718 51.23682c-.46519.12575-.75188.6574-.64732 1.11134-.00001-.00001-40.42555-.00001-40.42555-.00001.10936-.45574-.18723-.98321-.64711-1.11125.00002-.00001 20.86281-51.23689 20.86281-51.23689zm6.6084 42.66162c1.06654.76131 2.23336-.81166 1.18551-1.61038.00004.00003-2.79684-2.06101-2.79684-2.06101-1.05429-.77005-2.23673.82998-1.18549 1.61039-.00005-.00003 2.79682 2.061 2.79682 2.061zm5.59375 4.12207c1.06654.76131 2.23336-.81166 1.18551-1.61038.00004.00003-2.79684-2.06101-2.79684-2.06101-1.05283-.77041-2.23732.8298-1.18549 1.61039-.00005-.00003 2.79682 2.061 2.79682 2.061zm5.59375 4.12207c1.06654.76131 2.23336-.81166 1.18551-1.61038.00004.00003-2.79684-2.06101-2.79684-2.06101-1.05367-.76995-2.23698.82992-1.18549 1.61039-.00005-.00003 2.79682 2.061 2.79682 2.061zm-18.81641-12.36621 1.01758-.74902c.36314.21756 1.14559 1.00287 1.60934.94384.92651.03534 1.37622-1.27142.59373-1.80518.00006 0-1.20307-.8861-1.20307-.8861v-1.49475c-.02152-1.31309-1.97807-1.31541-2 .00004 0-.00004 0 1.49471 0 1.49471l-1.20312.88611c-1.04921.77959.12725 2.38131 1.18555 1.61035zm-11.7793 8.43896c.20605 0 .41406-.06348.5918-.19482l2.79688-2.06104c.44531-.32764.54004-.95361.21191-1.39844-.32715-.44531-.95508-.53857-1.39746-.21191l-2.79688 2.06104c-.78124.53268-.33297 1.84088.59375 1.80518zm-5.59375 4.12256c.20605 0 .41406-.06348.59277-.19482l2.79688-2.06152c.44434-.32812.53906-.9541.21094-1.39844-.32617-.44482-.9541-.53857-1.39844-.21191l-2.79688 2.06152c-.7799.53371-.33184 1.84077.59473 1.80518zm11.1875-8.24463c.20605 0 .41406-.06348.5918-.19482l2.79688-2.06104c.44531-.32764.54004-.95361.21191-1.39844-.32715-.44482-.95605-.53857-1.39746-.21191l-2.79688 2.06104c-.78124.53268-.33297 1.84088.59375 1.80518zm7.20312-27.46924c.55273 0 1-.44775 1-1v-4.03223c0-.55225-.44727-1-1-1s-1 .44775-1 1v4.03223c0 .55225.44727 1 1 1zm0 16.12891c.55273 0 1-.44775 1-1v-4.03223c0-.55225-.44727-1-1-1s-1 .44775-1 1v4.03223c0 .55225.44727 1 1 1zm0-8.06445c.55273 0 1-.44775 1-1v-4.03223c0-.55225-.44727-1-1-1s-1 .44775-1 1v4.03223c0 .55225.44727 1 1 1zm0-16.12891c.55273 0 1-.44775 1-1v-2c0-.55225-.44727-1-1-1s-1 .44775-1 1v2c0 .55225.44727 1 1 1z" fill="url(#linear-gradient)"/></svg>