<svg height="512" viewBox="0 0 40 58" width="512" xmlns="http://www.w3.org/2000/svg"><g id="Page-1" fill="none" fill-rule="evenodd"><g id="025---Papaya" fill-rule="nonzero"><path id="Shape" d="m40 44c0 16-15 11-20 14-5-3-20 2-20-14 0-14 5-14 7-26 1.84-11.06 6.42-13.38 10.23-13.87.9194618-.10430111 1.8448111-.14772906 2.77-.13.9251889-.01772906 1.8505382.02569889 2.77.13 3.81.49 8.39 2.81 10.23 13.87 2 12 7 12 7 26z" fill="#f29c1f"/><path id="Shape" d="m10.947 19.658c-.0556162-.0002755-.1111232-.0049568-.166-.014-.2616511-.043598-.4952601-.1893666-.6494208-.405229-.15416062-.2158624-.21624066-.4841305-.1725792-.745771 1.772-10.628 5.596-11.493 10.041-11.493.5522847 0 1 .44771525 1 1s-.4477153 1-1 1c-3.307 0-6.431 0-8.068 9.822-.0801037.481827-.4965603.8352866-.985.836z" fill="#fff"/><path id="Shape" d="m23 3c.0010496.38839565-.0772155.77291572-.23 1.13-.9194618-.10430111-1.8448111-.14772906-2.77-.13-.9251889-.01772906-1.8505382.02569889-2.77.13-.1527845-.35708428-.2310496-.74160435-.23-1.13 0-1.65685425 1.3431458-3 3-3s3 1.34314575 3 3z" fill="#e57e25"/><circle id="Oval" cx="10" cy="23" fill="#fff" r="1"/></g></g></svg>