<svg height="512" viewBox="0 0 58 58" width="512" xmlns="http://www.w3.org/2000/svg"><g id="Page-1" fill="none" fill-rule="evenodd"><g id="031---Cucumber" fill-rule="nonzero" transform="translate(-1 -1)"><path id="Shape" d="m7.717 32.913c-.26024661-.1066645-.49603966-.2652209-.693-.466-1.174-1.174-.855-3.387.707-4.95 1.422-1.421 3.387-1.817 4.6-.983z" fill="#4c8056"/><path id="Shape" d="m32.954 7.677c-.1137759-.25625972-.2745484-.48893895-.474-.686-1.174-1.174-3.387-.856-4.95.707-1.421 1.421-1.81 3.38-.99 4.6z" fill="#4c8056"/><path id="Shape" d="m28.478 51.326c.147693.144868.2694566.3139843.36.5.75 1.471-.233 3.486-2.206 4.483s-4.172.623-4.928-.855c-.0185803-.0313423-.0330333-.0649538-.043-.1z" fill="#4c8056"/><path id="Shape" d="m55.32 21.769c.021.007.028.014.049.021 1.478.757 1.86 2.963.856 4.929s-3.013 2.956-4.483 2.206c-.179362-.0832466-.342289-.1980746-.481-.339z" fill="#4c8056"/><path id="Shape" d="m58.62 6.31c2.11 7.61-4.93 21.9-17.67 34.64s-27.02 19.78-34.63 17.67v-.01l-4.95-4.95h-.01c-2.11-7.61 4.94-21.9 17.67-34.63s27.03-19.79 34.64-17.67z" fill="#4fba6f"/><g fill="#4c8056"><path id="Shape" d="m28.266 22.575-.029-.028c-1.173-1.174-3.387-.855-4.949.707s-1.881 3.776-.707 4.95l.028.028"/><path id="Shape" d="m42.592 10.06c-.071-.085-.135-.163-.212-.241-1.174-1.174-3.388-.855-4.95.707-1.414 1.415-1.8 3.359-1 4.582"/><path id="Shape" d="m28.1 40.805c.0504747.0383087.0976407.0807915.141.127 1.174 1.174.856 3.387-.707 4.95s-3.776 1.881-4.949.707c-.1654568-.1662675-.3041069-.3572065-.411-.566"/><path id="Shape" d="m46.071 22.137c.2012225.111338.3865514.2492416.551.41 1.174 1.174.856 3.387-.707 4.95s-3.776 1.881-4.95.707c-.0436138-.0412938-.0837496-.0861122-.12-.134"/><path id="Shape" d="m6.32 58.61v.01c-2.45492479-.5883179-4.37168212-2.5050752-4.96-4.96h.01c1.37325922-1.1426552 3.40587178-.9876629 4.59.35 1.34048312 1.185543 1.49972916 3.2203535.36 4.6z"/><path id="Shape" d="m58.62 6.31c-1.3729997 1.13781979-3.4037783.96895854-4.57-.38-1.3484457-1.16648238-1.517271-3.19682782-.38-4.57 1.198316.29543423 2.2939476.91064688 3.17 1.78.8621654.88145776 1.4762089 1.97500714 1.78 3.17z"/></g><path id="Shape" d="m12.463 54.44c-.4411186.0003209-.8303416-.2884338-.9579624-.7106881s.0365104-.878253.4039624-1.1223119c6.11-4.051 14.125-10.886 21.992-18.753 7.845-7.845 14.678-15.854 18.747-21.972.1936395-.3070574.5384752-.4850605.9009398-.4650625.3624646.0199981.6856251.2348561.84431.5613521.1586849.3264959.1279692.7133464-.0802498 1.0107104-4.139 6.225-11.063 14.345-19 22.279-7.957 7.958-16.085 14.885-22.3 19.006-.1629722.1083173-.3543151.1660681-.55.166z" fill="#24ae5f"/><path id="Shape" d="m6.535 48.515c-.36875524.0006711-.70795465-.2016535-.88258215-.5264397-.17462751-.3247863-.15634044-.7193202.04758215-1.0265603 4.122-6.215 11.049-14.344 19.006-22.3 7.935-7.935 16.055-14.86 22.279-19 .2976022-.19917559.678857-.22445251 1.0001492-.06630919.3212922.15814331.53381.47568113.5575.83300002s-.1450469.70013361-.4426492.89930917c-6.118 4.069-14.127 10.9-21.972 18.748-7.866 7.866-14.7 15.882-18.753 21.992-.18662895.2812027-.50250914.4492961-.84.447z" fill="#24ae5f"/></g></g></svg>