<svg height="512" viewBox="0 0 54 58" width="512" xmlns="http://www.w3.org/2000/svg"><g id="Page-1" fill="none" fill-rule="evenodd"><g id="035---Artichoke" fill-rule="nonzero" transform="translate(-1 -1)"><path id="Shape" d="m30.69 16h-5.38l-3.98-6.04c1.04-3.31 4.2-6.97 5.77-8.58.235604-.24443984.5605002-.38253242.9-.38253242s.664396.13809258.9.38253242c1.57 1.61 4.73 5.27 5.77 8.58z" fill="#f5efca"/><path id="Shape" d="m17 43c0 .28.01.56.03.82h-.01c-2.6325627-.7324127-5.422948-.6697856-8.02.18.09425181 1.7876102.64138553 3.5219209 1.59 5.04-3.61.03-6.94-1.95-8.85-6.47-2.07-4.9.71-13.8 2.11-17.43.17159521-.4523507.52135267-.814433.96749203-1.0015847.44613936-.1871516.94954408-.1829637 1.39250797.0115847.28.12.58.25.91.4 3.07 1.4 8.19 4.13 11.17 7.43.01.01.02.01.02.02.7394004.7838921 1.3472385 1.6821417 1.8 2.66-1.75 2.77-3.11 5.76-3.11 8.34z" fill="#24ae5f"/><path id="Shape" d="m5.425 42.014c-.40406454.0010101-.76903186-.2412493-.925-.614-.919-2.173-.43-5.81.141-8.478.07484713-.3494058.33041449-.6323395.67043232-.7422229.34001783-.1098833.71282933-.0300224.97800002.2095.26517068.2395224.38241481.6023171.30756766.9517229-.712 3.325-.805 5.979-.255 7.281.13081412.3088605.09806871.6627333-.08719937.9423452-.18526809.279612-.49837982.4477169-.83380063.4476548z" fill="#fff"/><path id="Shape" d="m54.26 42.57c-1.91 4.52-5.24 6.5-8.85 6.47.9486145-1.5180791 1.4957482-3.2523898 1.59-5.04-2.597052-.8497856-5.3874373-.9124127-8.02-.18h-.01c.02-.26.03-.54.03-.82 0-2.58-1.36-5.57-3.11-8.34.4590858-.9712528 1.0663328-1.8652553 1.8-2.65v-.01l.02-.02c2.98-3.3 8.1-6.03 11.17-7.43.33-.15.63-.28.91-.4.4429639-.1945484.9463686-.1987363 1.392508-.0115847.4461393.1871517.7958968.549234.967492 1.0015847 1.4 3.63 4.18 12.53 2.11 17.43z" fill="#24ae5f"/><path id="Shape" d="m30.69 16.01v-.01c-.53-.58-1-1.06-1.41-1.47-.3381342-.3419968-.799067-.5344566-1.28-.5344566s-.9418658.1924598-1.28.5344566c-.41.41-.88.89-1.41 1.47v.01l-12.91.76c-.48-.26-.92-.48-1.29-.65-.3056143-.1445191-.6567333-.1590896-.9732706-.0403882-.31653722.1187015-.57149831.3605521-.7067294.6703882-1.11684399 2.484444-1.89383422 5.1080474-2.31 7.8l12.99 10.11h15.78l12.99-10.11c-.4161658-2.6919526-1.193156-5.315556-2.31-7.8-.1352311-.3098361-.3901922-.5516867-.7067294-.6703882-.3165373-.1187014-.6676563-.1041309-.9732706.0403882-.37.17-.81.39-1.29.65z" fill="#f0c419"/><path id="Shape" d="m47 44c-.2111243 3.8690182-2.5098003 7.3170322-6 9-3.33 1.67-5.97 2.64-6.76 4.65-.2712127.7901056-1.0049205 1.3284239-1.84 1.35h-8.8c-.8350795-.0215761-1.5687873-.5598944-1.84-1.35-.79-2.01-3.43-2.98-6.76-4.65-3.4901997-1.6829678-5.78887574-5.1309818-6-9 1.9376155-.6434018 3.9960601-.8383044 6.02-.57.6748448.0838349 1.3430992.2141445 2 .39h.01c-.01-.18-.02-.35-.02-.54-.008325-.0930882-.0116631-.1865551-.01-.28-.0033159-.1303202.0033703-.2607027.02-.39v-.1c.15-2.46 1.45-5.25 3.09-7.85 1.8850606-2.8965825 4.0559282-5.5967665 6.48-8.06.3689241-.3833019.8779987-.5998895 1.41-.5998895s1.0410759.2165876 1.41.5998895c2.4240718 2.4632335 4.5949394 5.1634175 6.48 8.06 1.6065251 2.2986179 2.6605726 4.9371588 3.08 7.71.01.01 0 .01 0 .01.02.21.03.42.03.62 0 .27-.01.52-.03.77v.05h.01c.6569008-.1758555 1.3251552-.3061651 2-.39 2.0239399-.2683044 4.0823845-.0734018 6.02.57z" fill="#4fba6f"/><circle id="Oval" cx="7" cy="29" fill="#fff" r="1"/><path id="Shape" d="m22.92 53.43c-.1564992.3695049-.5187198.609673-.92.61-.1338165-.0024296-.2660336-.0295511-.39-.08-4.12-1.76-6.46-5.54-6.59-10.53.6748448.0838349 1.3430992.2141445 2 .39h.01c.22 3.99 2.08 6.89 5.36 8.3.5077826.2157051.7449432.8018944.53 1.31z" fill="#24ae5f"/><path id="Shape" d="m40.98 43.43c-.13 4.99-2.45 8.77-6.59 10.53-.1239664.0504489-.2561835.0775704-.39.08-.4748325-.0009089-.883553-.3356076-.9780733-.8009382-.0945202-.4653307.1512258-.9329679.5880733-1.1190618 3.29-1.41 5.14-4.31 5.36-8.3h.01c.6569008-.1758555 1.3251552-.3061651 2-.39z" fill="#24ae5f"/><g fill="#f3d55b"><path id="Shape" d="m25.31 16v.01c-1.9920319 2.1246802-3.7488765 4.4581991-5.24 6.96-1.53-2.58-5.2-4.89-7.67-6.2 1.09-3.26 4.16-6.81 5.7-8.39.235604-.24443984.5605002-.38253242.9-.38253242s.664396.13809258.9.38253242c.47.49.95 1.02 1.43 1.58 1.6164447 1.8066784 2.9575458 3.8419172 3.98 6.04z"/><path id="Shape" d="m43.6 16.77c-2.44 1.29-6.07 3.58-7.63 6.13-.01.02-.03.05-.04.07-1.4944166-2.4995877-3.2510056-4.8327669-5.24-6.96v-.01c.9964645-2.2124827 2.3400703-4.2515226 3.98-6.04.54-.63 1.04-1.17 1.43-1.58.235604-.24443984.5605002-.38253242.9-.38253242s.664396.13809258.9.38253242c1.54 1.58 4.61 5.13 5.7 8.39z"/></g></g></g></svg>