<svg height="512" viewBox="0 0 40 58" width="512" xmlns="http://www.w3.org/2000/svg"><g id="Page-1" fill="none" fill-rule="evenodd"><g id="036---Swede" fill-rule="nonzero"><path id="Shape" d="m28 12c.006305 1.3149732-.8517231 2.4779876-2.11 2.86-.2875961.0926025-.5878631.1398355-.89.14h-.13c-1.92-.04-2.92-1-4.87-1s-2.95.96-4.87 1h-.13c-.3021369-.0001645-.6024039-.0473975-.89-.14-1.2582769-.3820124-2.116305-1.5450268-2.11-2.86.0032027-1.256858.7895366-2.37848144 1.97-2.81-.7209225-.65805075-1.0735978-1.62761961-.9439403-2.59506417.1296575-.96744455.7251861-1.80993453 1.5939403-2.25493583.4247826-.22576947.8989538-.34259426 1.38-.34.4588781.0027274.9108152.11228792 1.32.32-.2077121-.4091848-.3172726-.86112194-.32-1.32 0-1.65685425 1.3431458-3 3-3s3 1.34314575 3 3c-.0027274.45887806-.1122879.9108152-.32 1.32.4091848-.20771208.8611219-.3172726 1.32-.32.4810462-.00259426.9552174.11423053 1.38.34.8687542.4450013 1.4642828 1.28749128 1.5939403 2.25493583.1296575.96744456-.2230178 1.93701342-.9439403 2.59506417 1.1804634.43151856 1.9667973 1.553142 1.97 2.81z" fill="#4fba6f"/><path id="Shape" d="m14.11 14.86c-1.08.7-1.76 1.59-3.19 2.14-1.35710053.5168721-2.88946393-.0142976-3.63552699-1.2601983s-.49083531-2.8475053.60552699-3.7998017c-1.39416119-.5384717-2.1746597-2.0255425-1.82587547-3.47881011s1.71918493-2.42412261 3.20587547-2.27118989c-1.03551226-.95479613-1.26734649-2.50141695-.55729823-3.71786784.71004826-1.21645088 2.17075483-1.77512748 3.51134143-1.34298318 1.3405867.4321443 2.2000179 1.73872802 2.0659568 3.14085102.1147532-.03413775.238988-.0077849.33.07-.8687542.4450013-1.4642828 1.28749128-1.5939403 2.25493583-.1296575.96744456.2230178 1.93701342.9439403 2.59506417-1.1804634.43151856-1.9667973 1.553142-1.97 2.81-.006305 1.3149732.8517231 2.4779876 2.11 2.86z" fill="#24ae5f"/><path id="Shape" d="m32.11 11.94c1.0963623.9522964 1.3515901 2.553901.605527 3.7998017s-2.2784265 1.7770704-3.635527 1.2601983c-1.43-.55-2.11-1.44-3.19-2.14 1.2582769-.3820124 2.116305-1.5450268 2.11-2.86-.0032027-1.256858-.7895366-2.37848144-1.97-2.81.7209225-.65805075 1.0735978-1.62761961.9439403-2.59506417-.1296575-.96744455-.7251861-1.80993453-1.5939403-2.25493583.091012-.0777849.2152468-.10413775.33-.07-.1340611-1.402123.7253701-2.70870672 2.0659568-3.14085102 1.3405866-.4321443 2.8012932.1265323 3.5113414 1.34298318.7100483 1.21645089.4782141 2.76307171-.5572982 3.71786784.4537999-.04743954.9124227.01074395 1.34.17 1.1561326.43710022 1.9243242 1.54031586 1.9331842 2.77628542.00886 1.23596958-.7434367 2.35008478-1.8931842 2.80371458z" fill="#24ae5f"/><path id="Shape" d="m24.87 15-2.18 5.68c-.5022157-1.0277292-1.5461259-1.6794902-2.69-1.6794902s-2.1877843.651761-2.69 1.6794902l-2.18-5.68c1.92-.04 2.92-1 4.87-1s2.95.96 4.87 1z" fill="#4c8056"/><path id="Shape" d="m22.9 8.553c-.1184679-.23744854-.3264554-.41807418-.5781614-.50210122s-.5264889-.0645647-.7638386.05410122l-.558.277v-1.382c0-.55228475-.4477153-1-1-1s-1 .44771525-1 1v1.382l-.553-.277c-.3197527-.15969773-.7004141-.13667847-.9985927.06038663-.2981787.19706511-.4685741.53823718-.4470001.89500001.0215741.35676283.2318401.67491565.5515928.83461336l1.447.723v8.382c0 .5522847.4477153 1 1 1s1-.4477153 1-1v-8.382l1.447-.723c.2383263-.11757692.4200499-.32518276.5050441-.5769758.0849942-.25179305.0662679-.52706194-.0520441-.7650242z" fill="#4c8056"/><path id="Shape" d="m40 38c0 .7-.02 1.37-.06 2-.04.71-.11 1.37-.2 2-.135419 1.01675-.3561987 2.0202941-.66 3-.2251164.6869102-.5025972 1.3555386-.83 2-1.72 3.37-4.62 5.19-8.25 7-4 2-7 4-10 4s-6-2-10-4c-3.63-1.81-6.53-3.63-8.25-7-.32740278-.6444614-.60488356-1.3130898-.83-2-.30380127-.9797059-.52458097-1.98325-.66-3-.09-.63-.16-1.29-.2-2-.04-.63-.06-1.3-.06-2-.0053695-1.0050783.04135985-2.0097594.14-3.01 2.83-.09 1.91-2.99 4.86-2.99 3 0 2 3 5 3s2-3 5-3 2 3 5 3 2-3 5-3 2 3 5 3 2-3 5-3c2.95 0 2.03 2.9 4.86 2.99.0986402 1.0002406.1453695 2.0049217.14 3.01z" fill="#f3d55b"/><path id="Shape" d="m39.86 34.99c-2.83-.09-1.91-2.99-4.86-2.99-3 0-2 3-5 3s-2-3-5-3-2 3-5 3-2-3-5-3-2 3-5 3-2-3-5-3c-2.95 0-2.03 2.9-4.86 2.99.77-7.58 4.87-12.27 16.86-12.91.95-.05 1.95-.08 3-.08s2.05.03 3 .08c11.99.64 16.09 5.33 16.86 12.91z" fill="#7d6599"/><path id="Shape" d="m23 22v.08c-.95-.05-1.95-.08-3-.08s-2.05.03-3 .08v-.08c-.0018332-.4550508.1044145-.904033.31-1.31v-.01c.5022157-1.0277292 1.5461259-1.6794902 2.69-1.6794902s2.1877843.651761 2.69 1.6794902v.01c.2055855.405967.3118332.8549492.31 1.31z" fill="#5d4c72"/><g fill="#b19046"><path id="Shape" d="m.26 42h5.74c.55228475 0 1-.4477153 1-1s-.44771525-1-1-1h-5.94z"/><path id="Shape" d="m12 42h-2c-.55228475 0-1-.4477153-1-1s.44771525-1 1-1h2c.5522847 0 1 .4477153 1 1s-.4477153 1-1 1z"/><path id="Shape" d="m8 46c0 .5522847-.44771525 1-1 1h-5.25c-.32740278-.6444614-.60488356-1.3130898-.83-2h6.08c.55228475 0 1 .4477153 1 1z"/><path id="Shape" d="m30 47h-2c-.5522847 0-1-.4477153-1-1s.4477153-1 1-1h2c.5522847 0 1 .4477153 1 1s-.4477153 1-1 1z"/><path id="Shape" d="m39.08 45c-.2251164.6869102-.5025972 1.3555386-.83 2h-4.25c-.5522847 0-1-.4477153-1-1s.4477153-1 1-1z"/><path id="Shape" d="m39.94 40c-.04.71-.11 1.37-.2 2h-8.74c-.5522847 0-1-.4477153-1-1s.4477153-1 1-1z"/></g></g></g></svg>