<svg height="512" viewBox="0 0 46 58" width="512" xmlns="http://www.w3.org/2000/svg"><g id="Page-1" fill="none" fill-rule="evenodd"><g id="039---Fig" fill-rule="nonzero"><path id="Shape" d="m46 39c0 16-14 19-23 19s-23-3-23-19 11-22 15-25c2.503572-2.0420571 4.261514-4.85476416 5-8l3.056-.5 2.944.5c.738486 3.14523584 2.496428 5.9579429 5 8 4 3 15 9 15 25z" fill="#7d6599"/><path id="Shape" d="m26.65 1.24c-.4042122 1.55536508-.6224048 3.15320614-.65 4.76h-6c.0409194-1.78874658.302908-3.5655662.78-5.29.1243297-.42533953.516898-.71567649.96-.71h3.94c.307341.00023752.597502.14178892.7868662.38386273.1893642.2420738.2568957.55777894.1831338.85613727z" fill="#4fba6f"/><g fill="#5d4c72"><path id="Shape" d="m7.014 48c-.43347789-.0001675-.81748883-.279595-.951-.692-.73375835-2.3655494-1.0924392-4.8314381-1.063-7.308 0-9.647 4.461-14.875 10.293-20.707.3923789-.3789722 1.0160848-.3735524 1.4018186.0121814s.3911536 1.0094397.0121814 1.4018186c-5.5 5.5-9.707 10.413-9.707 19.293-.02924785 2.2673389.29635454 4.5252987.965 6.692.09851335.3042995.0455205.6373628-.14257004.8960615-.18809054.2586986-.48858151.4118149-.80842996.4119385z"/><path id="Shape" d="m38.986 48c-.3198485-.0001236-.6203394-.1532399-.80843-.4119385-.1880905-.2586987-.2410834-.591762-.14257-.8960615.6686455-2.1667013.9942479-4.4246611.965-6.692 0-8.88-4.207-13.793-9.707-19.293-.3789722-.3923789-.3735524-1.0160848.0121814-1.4018186s1.0094397-.3911536 1.4018186-.0121814c5.832 5.832 10.293 11.06 10.293 20.707.0292693 2.4764764-.3290629 4.9422875-1.062 7.308-.1336247.4127557-.5181535.6922662-.952.692z"/><path id="Shape" d="m15.048 52c-.3848873-.0012729-.7348845-.2233266-.9-.571-1.4827401-3.2733104-2.2165628-6.8361768-2.148-10.429 0-9.178 3.457-13.4 5.98-16.479.8122021-.9106799 1.5245933-1.9056808 2.125-2.968.2468713-.4942948.8477051-.6948713 1.342-.448.4942948.2468713.6948713.8477052.448 1.342-.6651595 1.1964273-1.4588546 2.316721-2.367 3.341-2.463 3.006-5.528 6.748-5.528 15.212-.0692489 3.2955954.5969007 6.5651945 1.95 9.571.1468868.3092808.1253288.6722114-.0571383.9619287-.1824671.2897172-.5004744.4659408-.8428617.4670713z"/><path id="Shape" d="m30.952 52c-.3423873-.0011305-.6603946-.1773541-.8428617-.4670713-.1824671-.2897173-.2040251-.6526479-.0571383-.9619287 1.3524118-3.0059635 2.0178769-6.275556 1.948-9.571 0-8.464-3.065-12.206-5.528-15.212-.9081454-1.024279-1.7018405-2.1445727-2.367-3.341-.1596977-.3197527-.1366785-.7004141.0603866-.9985927.1970651-.2981787.5382372-.4685741.895-.4470001.3567629.0215741.6749157.2318401.8346134.5515928.6004067 1.0623192 1.3127979 2.0573201 2.125 2.968 2.523 3.079 5.98 7.301 5.98 16.479.0698179 3.5925201-.6626355 7.155373-2.144 10.429-.1657368.3489765-.517667.5712687-.904.571z"/><path id="Shape" d="m20.2 52c-.4610175-.0009201-.8616616-.316892-.97-.765-.7606513-3.0213898-1.1733317-6.1198474-1.23-9.235 0-7.22 2.079-10.422 2.168-10.555.306518-.4595009.9274991-.583518 1.387-.277.4595009.3065181.583518.9274991.277 1.387-.015.023-1.832 2.906-1.832 9.445.0555953 2.9567659.4488117 5.8975004 1.172 8.765.1298483.5365111-.1995835 1.0767614-.736 1.207-.0773101.0184792-.1565121.0278761-.236.028z"/><path id="Shape" d="m25.8 52c-.0798224-.000046-.1593645-.0094434-.237-.028-.5364165-.1302386-.8658483-.6704889-.736-1.207.7235256-2.8674605 1.1170775-5.8081957 1.173-8.765 0-6.539-1.817-9.422-1.836-9.451-.2746289-.459295-.1390016-1.0533918.3077382-1.3480043.4467397-.2946125 1.0462386-.1853113 1.3602618.2480043.089.129 2.168 3.331 2.168 10.551-.0563411 3.1151141-.4686859 6.2135711-1.229 9.235-.1084267.4484702-.509609.7645407-.971.765z"/></g></g></g></svg>