<svg height="512" viewBox="0 0 58 58" width="512" xmlns="http://www.w3.org/2000/svg"><g id="Page-1" fill="none" fill-rule="evenodd"><g id="040---Sweet-Potato" fill-rule="nonzero" transform="translate(0 -1)"><path id="Shape" d="m52.63 26.32c-.25 1.86-.56 3.58-.92 5.18-.18.78-.37 1.53-.57 2.25-1.1018621 4.1447889-2.9412228 8.0572413-5.43 11.55-.39.56-.8 1.1-1.21 1.62-.84 1.05-1.71 2.05-2.63 3.02-.45.49-.91.97-1.39 1.44-.09.1-.19.2-.29.3-1.8384505 1.8129201-3.9637201 3.3097316-6.29 4.43-.64.32-1.29.61-1.96.87-2.5653371 1.0115385-5.2630672 1.6480816-8.01 1.89-.91.09-1.81.13-2.7.13-5.98 0-11.73-1.87-15.55-5.68s-5.68-9.57-5.68-15.55c0-.9.04-1.8.13-2.7.24673514-2.7461544.88311812-5.4432061 1.89-8.01.26-.67.55-1.32.86-1.96 1.12721652-2.3276761 2.62694858-4.4556742 4.44-6.3 1.50162811-1.5247507 3.0909992-2.960527 4.76-4.3.52-.42 1.06-.83 1.61-1.22 1.1129549-.7991956 2.2752678-1.5273112 3.48-2.18.6-.34 1.23-.65 1.88-.95 1.9960039-.94250411 4.0705641-1.70875296 6.2-2.29.72-.2 1.48-.39 2.26-.57 1.6-.36 3.3233333-.66666667 5.17-.92 1.12-.15 2.2-.34 3.24-.56.79-.17 1.55-.35 2.29-.54 9.19-2.37 14.92-6.4 18.42-2.9 4.16 4.16-2.31 11.45-4 23.95z" fill="#f29c1f"/><g fill="#e57e25"><path id="Shape" d="m51.71 31.5c-.18.78-.37 1.53-.57 2.25l-9.41-9.41c-.191781-.1843911-.3001659-.4389549-.3001659-.705s.1083849-.5206089.3001659-.705c.3900375-.3877236 1.0199625-.3877236 1.41 0z"/><path id="Shape" d="m39.6 21.807c-.2651948-.0000566-.5195073-.1054506-.707-.293l-1.409-1.414c-.3904653-.3910176-.3900175-1.0245347.001-1.415.3910176-.3904653 1.0245347-.3900176 1.415.001l1.413 1.414c.2860368.2861229.3714873.7164079.2164868 1.0901167-.1550004.3737088-.5199089.6172016-.9244868.6168833z"/><path id="Shape" d="m26.17 18.69c-.190164.1849909-.4447023.2889572-.71.29-.2623399-.0011046-.5137394-.1052558-.7-.29l-7.59-7.59c.6-.34 1.23-.65 1.88-.95l7.12 7.12c.3899779.3930079.3899779 1.0269921 0 1.42z"/><path id="Shape" d="m30.413 23.929c-.2651948-.0000566-.5195073-.1054506-.707-.293l-1.414-1.414c-.3789722-.3923789-.3735524-1.0160848.0121814-1.4018186s1.0094397-.3911536 1.4018186-.0121814l1.414 1.414c.2859079.2859943.3714219.7160366.216678 1.0896546-.1547439.3736179-.5192821.6172591-.923678.6173454z"/><path id="Shape" d="m19.81 20.81c-.1911916.1834154-.4450715.2871128-.71.29-.2652977-.0010428-.519836-.1050091-.71-.29l-6.31-6.31c.52-.42 1.06-.83 1.61-1.22l6.12 6.11c.3899779.3930079.3899779 1.0269921 0 1.42z"/><path id="Shape" d="m45.71 45.3c-.39.56-.8 1.1-1.21 1.62l-9.84-9.85c-.191781-.1843911-.3001659-.4389549-.3001659-.705s.1083849-.5206089.3001659-.705c.3900375-.3877236 1.0199625-.3877236 1.41 0z"/><path id="Shape" d="m41.87 49.94c-.45.49-.91.97-1.39 1.44l-5.12-5.12c-.3877236-.3900375-.3877236-1.0199625 0-1.41.3930079-.3899779 1.0269921-.3899779 1.42 0z"/><path id="Shape" d="m24.756 35.242c-.2653486.0007185-.5199469-.1047939-.707-.293l-7.778-7.778c-.3789722-.3923789-.3735524-1.0160848.0121814-1.4018186s1.0094397-.3911536 1.4018186-.0121814l7.778 7.778c.2859079.2859943.3714219.7160366.216678 1.0896546-.1547439.3736179-.5192821.6172591-.923678.6173454z"/><path id="Shape" d="m30.413 40.9c-.2653486.0007185-.5199469-.1047939-.707-.293l-2.122-2.121c-.3907415-.3910176-.3905176-1.0247585.0005-1.4155s1.0247585-.3905176 1.4155.0005l2.122 2.121c.2859079.2859943.3714219.7160366.216678 1.0896546-.1547439.3736179-.5192821.6172591-.923678.6173454z"/><path id="Shape" d="m9.2 32.83c-.190164.1849909-.44470227.2889572-.71.29-.26233988-.0011046-.51373936-.1052558-.7-.29l-5.77-5.77c.26-.67.55-1.32.86-1.96l6.32 6.31c.38997787.3930079.38997787 1.0269921 0 1.42z"/><path id="Shape" d="m13.442 38.071c-.2651948-.0000566-.5195073-.1054506-.707-.293l-1.414-1.414c-.2599566-.2510745-.3642126-.6228779-.2726972-.9725073.0915155-.3496295.3645604-.6226744.7141899-.7141899.3496294-.0915154.7214328.0127406.9725073.2726972l1.414 1.414c.2859079.2859943.3714219.7160366.216678 1.0896546-.1547439.3736179-.5192821.6172591-.923678.6173454z"/><path id="Shape" d="m33.9 56.11c-.64.32-1.29.61-1.96.87l-6.48-6.47c-.3921222-.3921222-.3921222-1.0278778 0-1.42s1.0278778-.3921222 1.42 0z"/><path id="Shape" d="m23.93 58.87c-.91.09-1.81.13-2.7.13l-7.08-7.08c-.3877236-.3900375-.3877236-1.0199625 0-1.41.1843911-.191781.4389549-.3001659.705-.3001659s.5206089.1083849.705.3001659z"/><path id="Shape" d="m5.66 42.02c-.39003745.3877236-1.01996255.3877236-1.41 0l-4.25-4.25c0-.9.04-1.8.13-2.7l5.53 5.54c.38772359.3900375.38772359 1.0199625 0 1.41z"/><path id="Shape" d="m43.85 12.32c-.3943361.3867403-1.0256639.3867403-1.42 0l-6.51-6.51c.79-.17 1.55-.35 2.29-.54l5.64 5.64c.3877236.3900375.3877236 1.0199625 0 1.41z"/><path id="Shape" d="m31.83 13.03c-.3943361.3867403-1.0256639.3867403-1.42 0l-5.16-5.17c.72-.2 1.48-.39 2.26-.57l4.32 4.32c.3899779.3930079.3899779 1.0269921 0 1.42z"/></g></g></g></svg>