<svg height="512" viewBox="0 0 56 58" width="512" xmlns="http://www.w3.org/2000/svg"><g id="Page-1" fill="none" fill-rule="evenodd"><g id="046---Ginger" fill-rule="nonzero"><path id="Shape" d="m21.65 18.47c-.1744995 3.8782409-.8535481 7.7172183-2.02 11.42-1.98-5.21-6.38-6.77-9.35-10.17-.2657958-.2872635-.51296598-.5912159-.74-.91-.19-.26-.37-.53-.54-.81-.02-.04-.05-.08-.07-.12-.89658505-1.5380208-1.53187178-3.2140964-1.88-4.96-.07-.33-.12-.66-.16-.99s-.06-.67-.07-.99c-.11-3.24 1.28-5.94 5.18-5.94 4 0 5 3 6 8 .04.17.07.34.11.51.1074945.4069674.2376984.8075948.39 1.2.1326463.3473317.2897053.6848413.47 1.01.6126987 1.1535612 1.5426166 2.1077679 2.68 2.75z" fill="#b19046"/><path id="Shape" d="m13.24 11.97c-2.033146.4891619-4.10373626.8069423-6.19.95-.07-.33-.12-.66-.16-.99s-.06-.67-.07-.99c2.00149164-.1409414 3.9881095-.4452885 5.94-.91.5260968-.10873459 1.0441035.2176311 1.1731322.7391219.1290286.5214908-.1770299 1.051749-.6931322 1.2008781z" fill="#a56a43"/><path id="Shape" d="m18.97 15.72c-2.22 2.51-5.88 3.56-8.69 4-.2657958-.2872635-.51296598-.5912159-.74-.91-.19-.26-.37-.53-.54-.81-.02-.04-.05-.08-.07-.12 2.76-.32 7.34-1.3 9.18-4.37.1074945.4069674.2376984.8075948.39 1.2.1326463.3473317.2897053.6848413.47 1.01z" fill="#a56a43"/><path id="Shape" d="m14.49 38.78c-1.17 1.19-2.04 2.77-3.67 3.72-1.18.69-2.74.86-3.7 1.5-.97417716-.9828944-1.84228487-2.0655153-2.59-3.23-.2-.29-.38-.6-.56-.92-.17-.3-.34-.61-.49-.94-.61645572-1.2333653-1.04775719-2.5508565-1.28-3.91-.05-.31-.1-.62-.13-.91v-.01c-.04-.38-.06-.74-.07-1.08-.00761658-.3538133.00574016-.707767.04-1.06.33-3.64 2.74-4.94 5.16-4.94 2.68 0 3.76 2.4 3.96 4.33.0276789.2222453.0410397.4460402.04.67 0 .14 0 .27.01.43v.01c0 .33.01.7.04 1.09.13 1.89.71 4.26 3.24 5.25z" fill="#b19046"/><path id="Shape" d="m11.25 33.53c-1.6552331.7504515-3.45260078 1.1358453-5.27 1.13-1.3241578.0017153-2.64144224-.1903185-3.91-.57v-.01c-.04-.38-.06-.74-.07-1.08-.00761658-.3538133.00574016-.707767.04-1.06l.33.13c2.9043961.9947377 6.09279172.7263176 8.79-.74.0276789.2222453.0410397.4460402.04.67 0 .14 0 .27.01.43v.01c0 .33.01.7.04 1.09z" fill="#a56a43"/><path id="Shape" d="m7.44 39.9c-.92530334.422635-1.90456162.7154029-2.91.87-.2-.29-.38-.6-.56-.92-.17-.3-.34-.61-.49-.94 1.06256254-.1080753 2.10174034-.3813656 3.08-.81.49705627-.2430053 1.09699471-.0370563 1.34.46s.03705627 1.0969947-.46 1.34z" fill="#a56a43"/><path id="Shape" d="m44 14.86c-.006442 3.1710866-.3721069 6.3312363-1.09 9.42-.15.71-.32 1.45-.52 2.2-.08.33-.17.66-.26.99-.5105651 1.8682103-1.1214511 3.7075447-1.83 5.51-.26.67-.53 1.32-.81 1.96-.7590182 1.7298069-1.6205484 3.412796-2.58 5.04-1.5913628 2.6927386-3.4798436 5.1984138-5.63 7.47-1.858212 1.9647858-3.9273784 3.7187146-6.17 5.23-.71.48-1.42.92-2.13 1.33-4.1472976 2.4782355-8.8606447 3.8519576-13.69 3.99-6.85 0-13.71-4.06-5.64-11.31.51-.46 1.07-.93 1.7-1.41.54-.42 1.13-.85 1.77-1.28.96-.64 2.02-1.31 3.2-2 .13-.08.26-.16.39-.23.58-.36 1.13-.73 1.65-1.12.7547008-.570497 1.4666051-1.1955022 2.13-1.87 1.3174317-1.337547 2.4325248-2.8602725 3.31-4.52.3273045-.5862175.6211093-1.1905205.88-1.81.3625188-.8356101.6796472-1.6901877.95-2.56 1.0526911-3.7297309 1.7293978-7.5554687 2.02-11.42.17-1.6.33-3.17.52-4.68.09-.69.18-1.37.29-2.03.2056328-1.3421097.502996-2.66855032.89-3.97.1975063-.64212539.438051-1.27021438.72-1.88.8853902-2.17906667 2.5755801-3.93371294 4.72-4.9 6.83-3.01 14.22.66 15.11 11.82.06.65.09 1.32.1 2.03z" fill="#e4c05c"/><path id="Shape" d="m36.91 39.98c3.068931-.3743805 5.9205496-1.7772782 8.09-3.98.19-.19.38-.37.57-.53.25-.23.52-.44.78-.64.08-.06.15-.11.23-.16.1947497-.1459852.3984849-.279582.61-.4 4.41-2.63 8.81-.56 8.81 3.73-.0161103 1.363491-.4411143 2.6907573-1.22 3.81-.1775858.2865691-.37472.5605523-.59.82-.22.26-.45.52-.7.77-1.7462486 1.6789793-3.8433248 2.9495205-6.14 3.72-.34.13-.68.24-1.03.34s-.7.2-1.05.28c-.42.1-.84.19-1.27.26-4.26.71-9.7-.02-12.72-.55z" fill="#b19046"/><g fill="#a56a43"><path id="Shape" d="m44 14.86c-3.2643627.841767-6.6299354 1.2254423-10 1.14-4.0560324.1181966-8.0901972-.6354386-11.83-2.21.09-.69.18-1.37.29-2.03.1007627.0147192.1986084.0450851.29.09 3.5423684 1.5478649 7.3864915 2.2825196 11.25 2.15 3.2644494.0960715 6.5254534-.2846036 9.68-1.13.0725587-.0172892.1459993-.0306421.22-.04.06.65.09 1.32.1 2.03z"/><path id="Shape" d="m31 8c0 .55228475-.4477153 1-1 1-2.2718088.00446625-4.5253719-.40558057-6.65-1.21.1975063-.64212539.438051-1.27021438.72-1.88 1.8906062.73275424 3.9023996 1.10254425 5.93 1.09.5522847 0 1 .44771525 1 1z"/><path id="Shape" d="m42.91 24.28c-.15.71-.32 1.45-.52 2.2-2.0858483.4757823-4.2119384.7536807-6.35.83h-.04c-.3572656.0071453-.6912046-.1768511-.8760254-.4826795s-.1924448-.6870263-.02-1 .4987598-.5101752.8560254-.5173205c2.3482465-.0784858 4.6799253-.4240439 6.95-1.03z"/><path id="Shape" d="m32 27.224h-.082c-.67-.055-1.358-.13-2.061-.231-.5467619-.0784245-.9264244-.5852381-.848-1.132.0784245-.5467619.5852381-.9264244 1.132-.848.6606667.094 1.307.1663333 1.939.217.5522847.0220914.9820913.4877153.96 1.04-.0220914.5522847-.4877153.9820914-1.04.96z"/><path id="Shape" d="m54.78 41.81c-.1775858.2865691-.37472.5605523-.59.82-.22.26-.45.52-.7.77-3.4384725-1.7028893-6.2214508-4.4893815-7.92-7.93.25-.23.52-.44.78-.64.08-.06.15-.11.23-.16.1947497-.1459852.3984849-.279582.61-.4 1.58663 3.3120971 4.2674887 5.9752954 7.59 7.54z"/><path id="Shape" d="m47.35 47.12c-.34.13-.68.24-1.03.34s-.7.2-1.05.28c-1.0242361-1.3450262-1.7843115-2.8719634-2.24-4.5-.1017414-.352104-.0027126-.7316542.2580846-.989168s.6415716-.3517261.9923583-.245532c.3507868.106194.6153744.3957774.6895571.7547.465937 1.6094844 1.2782502 3.0975877 2.38 4.36z"/><path id="Shape" d="m26.99 36.17c-.088968.4778647-.5039423.8257724-.99.83-.0568457.0013741-.1137074-.0019708-.17-.01-2.8043791-.4788964-5.5148434-1.4003867-8.03-2.73.3273045-.5862175.6211093-1.1905205.88-1.81 2.3423585 1.2514759 4.8716668 2.1159657 7.49 2.56.5453326.0961488.9112807.6138315.82 1.16z"/><path id="Shape" d="m40.3 32.98c-.26.67-.53 1.32-.81 1.96-3.0846805-.0976036-6.1209823-.7938473-8.94-2.05-.3460386-.1440974-.5824323-.4696151-.6123817-.8432591s.1515756-.73266.4702434-.9300368c.3186678-.1973769.7209575-.1999648 1.0421383-.0067041 2.8008012 1.1914058 5.806639 1.8265376 8.85 1.87z"/><path id="Shape" d="m25.11 52.68c-.71.48-1.42.92-2.13 1.33-7.15-3.04-10.85-9.24-12.27-12.24.58-.36 1.13-.73 1.65-1.12 1.2 2.56 5.02 9.39 12.75 12.03z"/><path id="Shape" d="m24 48c-.1971916-.000153-.3899366-.0586028-.554-.168-1.7792271-1.0901507-3.2682598-2.5946228-4.34-4.385-.2485281-.4934664-.0499664-1.0949719.4435-1.3435s1.0949719-.0499664 1.3435.4435c.926091 1.4725246 2.1796429 2.711361 3.663 3.62.3677634.2442624.5318287.7007894.403678 1.1232719s-.5181889.7109345-.959678.7097281z"/><path id="Shape" d="m7.55 52.83c-.16101283.1128533-.35338965.1723152-.55.17-.3345191-.0017306-.64601651-.1706148-.83-.45-1.02853087-1.6678313-1.8258151-3.4676079-2.37-5.35-.05-.18-.11-.35-.15-.51.51-.46 1.07-.93 1.7-1.41.51477251 2.1686991 1.35066582 4.2483208 2.48 6.17.14739695.2196745.2007437.4892034.14814026.7484632s-.20678091.4866824-.42814026.6315368z"/></g></g></g></svg>