<svg height="512" viewBox="0 0 50 58" width="512" xmlns="http://www.w3.org/2000/svg"><g id="Page-1" fill="none" fill-rule="evenodd"><g id="047---Dragonfruit" fill-rule="nonzero" transform="translate(-1)"><path id="Shape" d="m22.14 12.44c-.2766342-1.8191446-.1468588-3.67698171.38-5.44 1.16-4 2.32-7 3.48-7s2.32 3 3.48 7c.5268588 1.76301829.6566342 3.6208554.38 5.44z" fill="#4fba6f"/><path id="Shape" d="m9.93 21.31c-.86-.76-1.93-2.32-1.93-5.31 0-3.39 2.75-5.86 4.53-7.1.2920498-.19975929.6679203-.23031335.988399-.08034576s.5378483.45812762.571601.81034576c.1506585 1.980706.6659742 3.9165301 1.52 5.71z" fill="#24ae5f"/><path id="Shape" d="m6.26 38.7c-3.12938295-1.291261-5.19515565-4.3153009-5.26-7.7-.10731345-2.5250685.80012192-4.9881073 2.52-6.84.25576664-.267342.63824272-.3716185.99430581-.2710831.35606309.1005355.62751996.3894519.70569419.7510831.26418898 1.2718339.85332267 2.4535466 1.71 3.43z" fill="#4fba6f"/><path id="Shape" d="m15.91 54.85c-3.0978413.6939238-6.34447346.0198194-8.91-1.85-2.28613504-1.7667843-3.93290735-4.2316759-4.69-7.02-.0902937-.3672966.03436846-.7541068.32214049-.9995594s.68940366-.30754 1.03785951-.1604406c1.51299855.600463 3.10730497.9712319 4.73 1.1z" fill="#24ae5f"/><path id="Shape" d="m36.39 15.34c.8540258-1.7934699 1.3693415-3.729294 1.52-5.71.0337527-.35221814.2511223-.66037817.571601-.81034576s.6963492-.11941353.988399.08034576c1.78 1.24 4.53 3.71 4.53 7.1 0 2.99-1.07 4.55-1.93 5.31z" fill="#24ae5f"/><path id="Shape" d="m45.07 28.07c.8566773-.9764534 1.445811-2.1581661 1.71-3.43.0781742-.3616312.3496311-.6505476.7056942-.7510831.3560631-.1005354.7385392.0037411.9943058.2710831 1.7198781 1.8518927 2.6273135 4.3149315 2.52 6.84-.0648443 3.3846991-2.1306171 6.408739-5.26 7.7z" fill="#4fba6f"/><path id="Shape" d="m43.6 45.92c1.622695-.1287681 3.2170015-.499537 4.73-1.1.3484558-.1470994.7500875-.085012 1.0378595.1604406s.4124342.6322628.3221405.9995594c-.7570927 2.7883241-2.403865 5.2532157-4.69 7.02-2.5655265 1.8698194-5.8121587 2.5439238-8.91 1.85z" fill="#24ae5f"/><path id="Shape" d="m46 35c.0001282 1.2379016-.0867526 2.4742815-.26 3.7-.3461977 2.5005885-1.0676487 4.9346426-2.14 7.22-1.6461996 3.6032625-4.2423784 6.6903298-7.51 8.93-6.0710656 4.2000046-14.1089344 4.2000046-20.18 0-3.2676216-2.2396702-5.8638004-5.3267375-7.51-8.93-1.07235132-2.2853574-1.79380225-4.7194115-2.14-7.22-.17324742-1.2257185-.26012816-2.4620984-.26-3.7-.00560837-2.3414795.30725878-4.6728444.93-6.93.64502153-2.394695 1.65701446-4.6750524 3-6.76 1.4870628-2.340456 3.4164309-4.3683305 5.68-5.97 1.9656647-1.3851217 4.184369-2.3704574 6.53-2.9 2.5398949-.5866794 5.1801051-.5866794 7.72 0 2.345631.5295426 4.5643353 1.5148783 6.53 2.9 2.2635691 1.6016695 4.1929372 3.629544 5.68 5.97 1.3429855 2.0849476 2.3549785 4.365305 3 6.76.6227412 2.2571556.9356084 4.5885205.93 6.93z" fill="#ff5364"/><ellipse id="Oval" cx="26" cy="35" fill="#f9eab0" rx="15" ry="18"/><g fill="#7f6e5d"><circle id="Oval" cx="34" cy="32" r="1"/><circle id="Oval" cx="26" cy="21" r="1"/><circle id="Oval" cx="22" cy="23" r="1"/><circle id="Oval" cx="22" cy="29" r="1"/><circle id="Oval" cx="30" cy="29" r="1"/><circle id="Oval" cx="22" cy="35" r="1"/><circle id="Oval" cx="30" cy="35" r="1"/><circle id="Oval" cx="30" cy="23" r="1"/><circle id="Oval" cx="18" cy="32" r="1"/><circle id="Oval" cx="26" cy="26" r="1"/><circle id="Oval" cx="34" cy="26" r="1"/><circle id="Oval" cx="18" cy="26" r="1"/><circle id="Oval" cx="26" cy="32" r="1"/><circle id="Oval" cx="34" cy="38" r="1"/><circle id="Oval" cx="22" cy="41" r="1"/><circle id="Oval" cx="30" cy="41" r="1"/><circle id="Oval" cx="18" cy="38" r="1"/><circle id="Oval" cx="15" cy="35" r="1"/><circle id="Oval" cx="37" cy="35" r="1"/><circle id="Oval" cx="26" cy="38" r="1"/><circle id="Oval" cx="34" cy="44" r="1"/><circle id="Oval" cx="22" cy="47" r="1"/><circle id="Oval" cx="30" cy="47" r="1"/><circle id="Oval" cx="26" cy="49" r="1"/><circle id="Oval" cx="18" cy="44" r="1"/><circle id="Oval" cx="26" cy="44" r="1"/></g></g></g></svg>