<svg height="512" viewBox="0 0 48 59" width="512" xmlns="http://www.w3.org/2000/svg"><g id="Page-1" fill="none" fill-rule="evenodd"><g id="009---Kiwi" fill-rule="nonzero"><path id="Shape" d="m19.06 4.58c-.0407631-.19061884-.0608791-.38507334-.06-.58 0-2.21 2.24-4 5-4s5 1.79 5 4c.0008791.19492666-.0192369.38938116-.06.58z" fill="#a56a43"/><ellipse id="Oval" cx="24" cy="31" fill="#cb8252" rx="24" ry="27"/><path id="Shape" d="m27.832 55.445c-.1471733-.2206869-.3759984-.3738581-.6361213-.4258077-.2601229-.0519495-.5302285.0015795-.7508787.1488077l-1.445.964v-1.132c0-.5522847-.4477153-1-1-1s-1 .4477153-1 1v1.132l-1.445-.964c-.4595009-.306518-1.080482-.1825009-1.387.277s-.1825009 1.080482.277 1.387l3 2c.0349089.0192205.0709784.0362533.108.051.0323681.0176432.0657608.0333378.1.047.2212228.0933463.4707772.0933463.692 0 .0342392-.0136622.0676319-.0293568.1-.047.0370216-.0147467.0730911-.0317795.108-.051l3-2c.2210117-.1468591.3745915-.3755393.4269206-.6356843.0523291-.2601451-.0008836-.5304223-.1479206-.7513157z" fill="#805333"/><g fill="#a56a43"><circle id="Oval" cx="19" cy="11" r="1"/><circle id="Oval" cx="13" cy="13" r="1"/><circle id="Oval" cx="15" cy="19" r="1"/><circle id="Oval" cx="21" cy="16" r="1"/><circle id="Oval" cx="20" cy="23" r="1"/><circle id="Oval" cx="13" cy="26" r="1"/><circle id="Oval" cx="9" cy="21" r="1"/><circle id="Oval" cx="6" cy="28" r="1"/></g></g></g></svg>