<svg height="512" viewBox="0 0 58 58" width="512" xmlns="http://www.w3.org/2000/svg"><g id="Page-1" fill="none" fill-rule="evenodd"><g id="037---Mushroom" fill-rule="nonzero"><path id="Shape" d="m17.81 35.2c-9.62 3-17.81 6.57-17.81-7.2 0-17.88 16.71-28 29-28s29 10.19 29 28.07c0 13.76-8.19 10.17-17.8 7.15v-.01z" fill="#e64c3c"/><path id="Shape" d="m4 29c-.55228475 0-1-.4477153-1-1 .01799862-7.4004789 3.48611349-14.3692488 9.379-18.846.4329912-.34296883 1.0620312-.26999124 1.405.163s.2699912 1.0620312-.163 1.405c-5.43128413 4.082804-8.6248578 10.4832873-8.621 17.278 0 .5522847-.44771525 1-1 1z" fill="#fff"/><path id="Shape" d="m29 58c-15.61 0-15.65-5.76-14.63-12 .7481617-3.7149937 1.9017326-7.3366696 3.44-10.8 1.08-.33 2.16-.66 3.26-.95.84-.23 1.68-.44 2.52-.62 1.7769184-.3951985 3.5898188-.6063126 5.41-.63 1.8241079.0227247 3.6407673.237238 5.42.64.84.17 1.67.38 2.51.61 1.1.3 2.2.62 3.27.96v.01c1.5304349 3.4584827 2.6805188 7.073032 3.43 10.78 1.02 6.24.98 12-14.63 12z" fill="#f9eab0"/><g fill="#b19046"><path id="Shape" d="m23.59 33.63c-1 1.81-2.59 5.81-2.59 12.62 0 .5522847-.4477153 1-1 1s-1-.4477153-1-1c-.115808-4.0979221.587955-8.1777075 2.07-12 .84-.23 1.68-.44 2.52-.62z"/><path id="Shape" d="m25 52c-.5522847 0-1-.4477153-1-1-.0279484-4.08908.3134381-8.1723299 1.02-12.2.1238056-.5244774.640941-.856525 1.1693679-.7508396s.8780721.611089.7906321 1.1428396c-.6721554 3.8996647-1.0000851 7.8508831-.98 11.808 0 .2652165-.1053568.5195704-.2928932.7071068s-.4418903.2928932-.7071068.2928932z"/><path id="Shape" d="m39 46.25c0 .5522847-.4477153 1-1 1s-1-.4477153-1-1c0-6.8-1.59-10.79-2.58-12.61.84.17 1.67.38 2.51.61 1.482045 3.8222925 2.185808 7.9020779 2.07 12z"/><path id="Shape" d="m33 52c-.5522847 0-1-.4477153-1-1 .0196162-3.9544463-.3083119-7.9029671-.98-11.8-.08744-.5317506.2622052-1.0371542.7906321-1.1428396s1.0455623.2263622 1.1693679.7508396c.706082 4.0250398 1.0474667 8.1055904 1.02 12.192 0 .2652165-.1053568.5195704-.2928932.7071068s-.4418903.2928932-.7071068.2928932z"/></g><circle id="Oval" cx="16" cy="8" fill="#fff" r="1"/></g></g></svg>