<svg height="512" viewBox="0 0 44 58" width="512" xmlns="http://www.w3.org/2000/svg"><g id="Page-1" fill="none" fill-rule="evenodd"><g id="013---Pineapple" fill-rule="nonzero"><path id="Shape" d="m17.14 16.11-3.71-6.11c1.78-6.23 8.57-10 8.57-10s6.79 3.77 8.57 10l-3.71 6.11z" fill="#4c8056"/><path id="Shape" d="m17.14 16.11c-4.1528131.4794289-7.95171248 2.5691827-10.58 5.82-1.00197679-1.4500268-1.54544429-3.1675235-1.56-4.93 0-5 2.73-11 2.73-11 2.04776908 1.1092658 3.9604613 2.45150594 5.7 4 1.4920387 1.2457293 2.6444934 2.8488453 3.35 4.66.1516735.4749141.2719333.9592938.36 1.45z" fill="#71c285"/><path id="Shape" d="m39 17c-.0145557 1.7624765-.5580232 3.4799732-1.56 4.93-2.6282875-3.2508173-6.4271869-5.3405711-10.58-5.82.0880667-.4907062.2083265-.9750859.36-1.45.7055066-1.8111547 1.8579613-3.4142707 3.35-4.66 1.7395387-1.54849406 3.6522309-2.8907342 5.7-4 0 0 2.73 6 2.73 11z" fill="#71c285"/><path id="Shape" d="m6.944 23.033c-.548 0-.887-.513-1.049-.757-.022-.034-.042-.068-.06-.1-1.22129724-1.3902125-2.98454124-2.1837635-4.835-2.176-.55228475 0-1-.4477153-1-1s.44771525-1 1-1c4.481 0 6.83 3.257 6.941 3.825.09268902.4699249-.15811451.9401815-.6 1.125-.12561956.0534026-.26050764.0816034-.397.083z" fill="#4c8056"/><path id="Shape" d="m37.056 23.033c-.1358179-.0016575-.2700015-.029853-.395-.083-.4418855-.1848185-.692689-.6550751-.6-1.125.109-.568 2.458-3.825 6.939-3.825.5522847 0 1 .4477153 1 1s-.4477153 1-1 1c-1.8499836-.0085209-3.6131503.7839013-4.835 2.173-.018.035-.038.069-.06.1-.162.247-.505.76-1.049.76z" fill="#4c8056"/><path id="Shape" d="m41 32v10c0 8.836556-7.163444 16-16 16h-6c-8.836556 0-16-7.163444-16-16v-10c-.00736847-8.1195281 6.07457692-14.9541895 14.14-15.89.6173954-.0721017 1.2384098-.1088284 1.86-.11h6c.6215902.0011716 1.2426046.0378983 1.86.11 8.0654231.9358105 14.1473685 7.7704719 14.14 15.89z" fill="#f3d55b"/><path id="Shape" d="m10.062 25c-.39424059-.0004168-.75144349-.2324263-.91212072-.5924383-.16067722-.360012-.09483812-.7808297.16812072-1.0745617 2.4660243-2.7531045 5.9859428-4.3283789 9.682-4.333.5522847 0 1 .4477153 1 1s-.4477153 1-1 1c-3.1273386.0043342-6.1055002 1.3374541-8.192 3.667-.1899181.2121441-.4612652.3332682-.746.333z" fill="#f5efca"/><g fill="#b19046"><path id="Shape" d="m22 27c-.1551273.0001447-.3081611-.0358028-.447-.105l-2-1c-.4942948-.2468713-.6948713-.8477051-.448-1.342.2468713-.4942948.8477052-.6948713 1.342-.448l1.553.777 1.553-.777c.3197527-.1596977.7004141-.1366785.9985927.0603866.2981787.1970651.4685741.5382372.447.895-.021574.3567629-.23184.6749157-.5515927.8346134l-2 1c-.1388389.0691972-.2918727.1051447-.447.105z"/><path id="Shape" d="m12 34c-.1547301.0016999-.3077438-.0325313-.447-.1l-2-1c-.49429484-.2468713-.69487126-.8477051-.44799998-1.342.24687128-.4942948.84770513-.6948713 1.34199998-.448l1.553.772 1.553-.777c.3197527-.1596977.7004141-.1366785.9985927.0603866.2981787.1970651.4685741.5382372.4470001.895-.0215741.3567629-.2318401.6749157-.5515928.8346134l-2 1c-.1388389.0691972-.2918727.1051447-.447.105z"/><path id="Shape" d="m32 34c-.1547301.0016999-.3077438-.0325313-.447-.1l-2-1c-.4942948-.2468713-.6948712-.8477051-.448-1.342.2468713-.4942948.8477052-.6948713 1.342-.448l1.553.772 1.553-.777c.4942949-.2468713 1.0951287-.0462949 1.342.448s.0462949 1.0951287-.448 1.342l-2 1c-.1388389.0691972-.2918727.1051447-.447.105z"/><path id="Shape" d="m22 40c-.1547301.0016999-.3077438-.0325313-.447-.1l-2-1c-.4942948-.2468713-.6948713-.8477051-.448-1.342.2468713-.4942948.8477052-.6948713 1.342-.448l1.553.772 1.553-.777c.3197527-.1596977.7004141-.1366785.9985927.0603866.2981787.1970651.4685741.5382372.447.895-.021574.3567629-.23184.6749157-.5515927.8346134l-2 1c-.1388389.0691972-.2918727.1051447-.447.105z"/><path id="Shape" d="m22 52c-.1547301.0016999-.3077438-.0325313-.447-.1l-2-1c-.4942948-.2468713-.6948713-.8477051-.448-1.342.2468713-.4942948.8477052-.6948713 1.342-.448l1.553.772 1.553-.777c.3197527-.1596977.7004141-.1366785.9985927.0603866.2981787.1970651.4685741.5382372.447.895-.021574.3567629-.23184.6749157-.5515927.8346134l-2 1c-.1388389.0691972-.2918727.1051447-.447.105z"/><path id="Shape" d="m12 46c-.1547301.0016999-.3077438-.0325313-.447-.1l-2-1c-.49429484-.2468713-.69487126-.8477051-.44799998-1.342.24687128-.4942948.84770513-.6948713 1.34199998-.448l1.553.772 1.553-.777c.3197527-.1596977.7004141-.1366785.9985927.0603866.2981787.1970651.4685741.5382372.4470001.895-.0215741.3567629-.2318401.6749157-.5515928.8346134l-2 1c-.1388389.0691972-.2918727.1051447-.447.105z"/><path id="Shape" d="m32 46c-.1547301.0016999-.3077438-.0325313-.447-.1l-2-1c-.4942948-.2468713-.6948712-.8477051-.448-1.342.2468713-.4942948.8477052-.6948713 1.342-.448l1.553.772 1.553-.777c.4942949-.2468713 1.0951287-.0462949 1.342.448s.0462949 1.0951287-.448 1.342l-2 1c-.1388389.0691972-.2918727.1051447-.447.105z"/></g><circle id="Oval" cx="8" cy="27" fill="#f5efca" r="1"/></g></g></svg>