<svg height="512" viewBox="0 0 39 59" width="512" xmlns="http://www.w3.org/2000/svg"><g id="Page-1" fill="none" fill-rule="evenodd"><g id="045---Plum" fill-rule="nonzero"><path id="Shape" d="m21.02 14.19c.1-2.22.75-8.42 4.75-11.32 4.91-3.58 13.01-.82 13.01-.82s.14 8.56-4.77 12.13c-.8491045.610931-1.8008105 1.0647695-2.81 1.34z" fill="#4fba6f"/><path id="Shape" d="m25.039 14.26c-.15-.545 1.118-5.929 6.447-9.118.4738603-.28387436 1.0881256-.12986032 1.372.344s.1298603 1.08812564-.344 1.372c-2.7241002 1.62729271-4.7070022 4.2519117-5.528 7.317l-.968-.194-.018.012z" fill="#4c8056"/><path id="Shape" d="m20.959 15.23c-.5242737.0014764-.9606814-.4022007-1-.925-.159-2.121-1.159-9.286-7.406-12.405-.4942948-.24687129-.6948713-.84770515-.448-1.34199999.2468713-.49429485.8477052-.69487128 1.342-.44800001 7.191 3.6 8.332 11.664 8.51 14.051.0413175.5505937-.3714214 1.030481-.922 1.072z" fill="#a56a43"/><path id="Shape" d="m38 35c0 19-14 24-19 24s-19-5-19-24c0-21 12-22 16-22 1.6606431.0250146 3.2800726.5208998 4.67 1.43l.01-.01c.1093697-.0823687.222849-.1591341.34-.23.4963692-.3247749 1.034646-.5804564 1.6-.76 3.0289961-.833295 6.2735519-.0429545 8.58 2.09 3.73 3.09 6.8 9.28 6.8 19.48z" fill="#7d6599"/><path id="Shape" d="m29.06 32.82c0 .5522847-.4477153 1-1 1s-1-.4477153-1-1c0-11.72-3.8-16.5-6.38-18.4.1093697-.0823687.222849-.1591341.34-.23.4963692-.3247749 1.034646-.5804564 1.6-.76 2.86 2.48 6.44 7.88 6.44 19.39z" fill="#5d4c72"/></g></g></svg>